%
M48
M72
T01C0.0230
T02C0.0300
T03C0.0315
T04C0.0400
T05C0.0402
T06C0.0551
%
T01
X10867Y19300
X11867Y19300
X12867Y19300
X13867Y19300
X14867Y19300
X14867Y21050
X15867Y21050
X13867Y21050
X12867Y21050
X11867Y21050
X10867Y21050
T02
X5117Y12050
X6367Y13800
X7367Y14550
X6867Y15113
X5929Y15925
X4429Y15863
X3679Y16550
X4367Y19300
X5117Y19550
X3367Y19800
X2367Y23800
X4367Y25050
X10367Y19488
X12867Y17050
X13867Y17050
X14867Y17050
X16367Y17050
X16867Y15300
X15367Y15300
X14367Y15300
X14367Y14300
X13367Y14300
X13367Y15300
X12367Y14300
X11367Y14300
X10367Y14300
X10867Y12800
X11867Y12800
X12867Y12800
X13867Y12800
X14867Y12800
X15367Y11800
X16367Y11800
X17367Y11800
X18367Y10800
X20304Y11050
X20367Y11800
X19367Y12800
X19867Y13550
X19179Y14300
X20867Y13550
X21554Y14300
X18867Y16300
X19867Y19613
X19179Y20300
X19867Y21050
X20867Y21050
X21554Y20300
X20867Y19613
X16429Y22550
X8367Y12800
X7367Y12800
X14867Y6550
X17367Y6488
X19242Y8300
X19867Y7550
X20867Y7550
X21429Y8050
X16367Y10800
X15367Y10800
T03
X25867Y5800
X24867Y5800
X23867Y5800
X22867Y5800
X21867Y5800
X20867Y5800
X18867Y5800
X17867Y5800
X16867Y5800
X15867Y5800
X14867Y5800
X13867Y5800
X14267Y24800
X13267Y24800
X12267Y24800
X11267Y24800
X10267Y24800
X15267Y24800
X16267Y24800
X17267Y24800
X18867Y24800
X19867Y24800
X20867Y24800
X21867Y24800
X22867Y24800
X23867Y24800
X24867Y24800
X25867Y24800
T04
X17617Y9800
X17617Y14300
X17617Y17300
X5117Y17300
X5117Y14300
X5117Y9800
X2867Y8455
X2867Y5895
T05
X10867Y7426
X11867Y7426
X12867Y7426
X13867Y7426
X14867Y7426
X15867Y7426
X16867Y7426
X17867Y7426
X17867Y23174
X16867Y23174
X15867Y23174
X14867Y23174
X13867Y23174
X12867Y23174
X11867Y23174
X10867Y23174
T06
X2190Y10816
X2190Y12784
X2190Y14816
X2190Y16784
X2190Y18816
X2190Y20784
M30
