G04 EAGLE Gerber RS-274X export*
G75*
%MOMM*%
%FSLAX34Y34*%
%LPD*%
%INSoldermask Bottom*%
%IPPOS*%
%AMOC8*
5,1,8,0,0,1.08239X$1,22.5*%
G01*
%ADD10P,2.969212X8X202.500000*%
%ADD11C,8.203200*%
%ADD12R,2.753200X2.753200*%
%ADD13C,3.403200*%
%ADD14P,1.745679X8X112.500000*%
%ADD15R,1.612800X1.612800*%
%ADD16C,1.612800*%
%ADD17R,1.403200X1.403200*%


D10*
X715900Y490000D03*
X284100Y490000D03*
D11*
X314000Y230000D03*
X500000Y230000D03*
X686000Y230000D03*
X906650Y490000D03*
X872000Y230000D03*
X93350Y490000D03*
D12*
X312000Y653700D03*
X354000Y653700D03*
X396000Y653700D03*
X438000Y653700D03*
X480000Y653700D03*
X522000Y653700D03*
X564000Y653700D03*
X606000Y653700D03*
X648000Y653700D03*
X690000Y653700D03*
X312000Y598700D03*
X354000Y598700D03*
X396000Y598700D03*
X438000Y598700D03*
X480000Y598700D03*
X522000Y598700D03*
X564000Y598700D03*
X606000Y598700D03*
X648000Y598700D03*
X690000Y598700D03*
D13*
X266000Y703000D03*
X734000Y703000D03*
D11*
X128000Y230000D03*
D14*
X843000Y665000D03*
X843000Y690000D03*
X843000Y715000D03*
X897000Y715000D03*
X897000Y690000D03*
X897000Y665000D03*
D13*
X40000Y40000D03*
X960000Y40000D03*
X960000Y760000D03*
X40000Y760000D03*
D15*
X942300Y705800D03*
D16*
X967700Y705800D03*
X942300Y680400D03*
X967700Y680400D03*
X942300Y655000D03*
X967700Y655000D03*
X942300Y629600D03*
X967700Y629600D03*
X942300Y604200D03*
X967700Y604200D03*
D17*
X887000Y59500D03*
X887000Y80500D03*
X857000Y59500D03*
X857000Y80500D03*
X800500Y500000D03*
X779500Y500000D03*
X800500Y477500D03*
X779500Y477500D03*
X701000Y59500D03*
X701000Y80500D03*
X671000Y59500D03*
X671000Y80500D03*
X515000Y59500D03*
X515000Y80500D03*
X490000Y59500D03*
X490000Y80500D03*
X329000Y59500D03*
X329000Y80500D03*
X299000Y59500D03*
X299000Y80500D03*
X880500Y590000D03*
X859500Y590000D03*
X880500Y620000D03*
X859500Y620000D03*
M02*
