G04 EAGLE Gerber RS-274X export*
G75*
%MOMM*%
%FSLAX34Y34*%
%LPD*%
%INTop Copper*%
%IPPOS*%
%AMOC8*
5,1,8,0,0,1.08239X$1,22.5*%
G01*
%ADD10R,0.762000X1.270000*%
%ADD11R,5.334000X1.930400*%
%ADD12R,1.500000X1.300000*%
%ADD13R,1.300000X1.500000*%
%ADD14R,1.200000X1.200000*%
%ADD15R,1.600000X1.300000*%
%ADD16C,1.422400*%
%ADD17R,1.300000X1.600000*%
%ADD18R,1.000000X1.400000*%
%ADD19R,1.625600X1.625600*%
%ADD20P,1.759533X8X112.500000*%
%ADD21R,2.500000X2.000000*%
%ADD22R,2.500000X0.500000*%
%ADD23R,1.050000X0.500000*%
%ADD24P,1.539592X8X292.500000*%
%ADD25C,0.406400*%
%ADD26C,1.016000*%
%ADD27C,0.508000*%
%ADD28C,1.143000*%
%ADD29C,0.812800*%

G36*
X595902Y168201D02*
X595902Y168201D01*
X595920Y168199D01*
X596102Y168220D01*
X596285Y168239D01*
X596302Y168244D01*
X596319Y168246D01*
X596494Y168303D01*
X596670Y168357D01*
X596685Y168365D01*
X596702Y168371D01*
X596862Y168461D01*
X597024Y168549D01*
X597037Y168560D01*
X597053Y168569D01*
X597192Y168689D01*
X597333Y168806D01*
X597344Y168820D01*
X597358Y168832D01*
X597470Y168977D01*
X597585Y169120D01*
X597593Y169136D01*
X597604Y169150D01*
X597686Y169315D01*
X597771Y169477D01*
X597776Y169494D01*
X597784Y169510D01*
X597831Y169689D01*
X597882Y169864D01*
X597884Y169882D01*
X597888Y169899D01*
X597915Y170230D01*
X597915Y232528D01*
X597913Y232546D01*
X597915Y232564D01*
X597894Y232746D01*
X597875Y232929D01*
X597870Y232946D01*
X597868Y232963D01*
X597811Y233138D01*
X597757Y233314D01*
X597749Y233329D01*
X597743Y233346D01*
X597653Y233506D01*
X597565Y233668D01*
X597554Y233681D01*
X597545Y233697D01*
X597425Y233836D01*
X597308Y233977D01*
X597294Y233988D01*
X597282Y234002D01*
X597137Y234114D01*
X596994Y234229D01*
X596978Y234237D01*
X596964Y234248D01*
X596799Y234330D01*
X596637Y234415D01*
X596620Y234420D01*
X596604Y234428D01*
X596425Y234475D01*
X596250Y234526D01*
X596232Y234528D01*
X596215Y234532D01*
X595884Y234559D01*
X570505Y234559D01*
X568719Y236345D01*
X568719Y258871D01*
X570505Y260657D01*
X595884Y260657D01*
X595902Y260659D01*
X595920Y260657D01*
X596102Y260678D01*
X596285Y260697D01*
X596302Y260702D01*
X596319Y260704D01*
X596494Y260761D01*
X596670Y260815D01*
X596685Y260823D01*
X596702Y260829D01*
X596862Y260919D01*
X597024Y261007D01*
X597037Y261018D01*
X597053Y261027D01*
X597192Y261147D01*
X597333Y261264D01*
X597344Y261278D01*
X597358Y261290D01*
X597470Y261435D01*
X597585Y261578D01*
X597593Y261594D01*
X597604Y261608D01*
X597686Y261773D01*
X597771Y261935D01*
X597776Y261952D01*
X597784Y261968D01*
X597831Y262147D01*
X597882Y262322D01*
X597884Y262340D01*
X597888Y262357D01*
X597915Y262688D01*
X597915Y322528D01*
X597913Y322546D01*
X597915Y322564D01*
X597894Y322746D01*
X597875Y322929D01*
X597870Y322946D01*
X597868Y322963D01*
X597811Y323138D01*
X597757Y323314D01*
X597749Y323329D01*
X597743Y323346D01*
X597653Y323506D01*
X597565Y323668D01*
X597554Y323681D01*
X597545Y323697D01*
X597425Y323836D01*
X597308Y323977D01*
X597294Y323988D01*
X597282Y324002D01*
X597137Y324114D01*
X596994Y324229D01*
X596978Y324237D01*
X596964Y324248D01*
X596799Y324330D01*
X596637Y324415D01*
X596620Y324420D01*
X596604Y324428D01*
X596425Y324475D01*
X596250Y324526D01*
X596232Y324528D01*
X596215Y324532D01*
X595884Y324559D01*
X570505Y324559D01*
X568719Y326345D01*
X568719Y348871D01*
X570505Y350657D01*
X595884Y350657D01*
X595902Y350659D01*
X595920Y350657D01*
X596102Y350678D01*
X596285Y350697D01*
X596302Y350702D01*
X596319Y350704D01*
X596494Y350761D01*
X596670Y350815D01*
X596685Y350823D01*
X596702Y350829D01*
X596862Y350919D01*
X597024Y351007D01*
X597037Y351018D01*
X597053Y351027D01*
X597192Y351147D01*
X597333Y351264D01*
X597344Y351278D01*
X597358Y351290D01*
X597470Y351435D01*
X597585Y351578D01*
X597593Y351594D01*
X597604Y351608D01*
X597686Y351773D01*
X597771Y351935D01*
X597776Y351952D01*
X597784Y351968D01*
X597831Y352147D01*
X597882Y352322D01*
X597884Y352340D01*
X597888Y352357D01*
X597915Y352688D01*
X597915Y413970D01*
X597913Y413988D01*
X597915Y414006D01*
X597894Y414188D01*
X597875Y414371D01*
X597870Y414388D01*
X597868Y414405D01*
X597811Y414580D01*
X597757Y414756D01*
X597749Y414771D01*
X597743Y414788D01*
X597653Y414947D01*
X597565Y415110D01*
X597554Y415123D01*
X597545Y415139D01*
X597425Y415278D01*
X597308Y415419D01*
X597294Y415430D01*
X597282Y415444D01*
X597137Y415556D01*
X596994Y415671D01*
X596978Y415679D01*
X596964Y415690D01*
X596799Y415772D01*
X596637Y415857D01*
X596620Y415862D01*
X596604Y415870D01*
X596425Y415917D01*
X596250Y415968D01*
X596232Y415970D01*
X596215Y415974D01*
X595884Y416001D01*
X206628Y416001D01*
X206610Y415999D01*
X206592Y416001D01*
X206410Y415980D01*
X206227Y415961D01*
X206210Y415956D01*
X206193Y415954D01*
X206018Y415897D01*
X205842Y415843D01*
X205827Y415835D01*
X205810Y415829D01*
X205650Y415739D01*
X205488Y415651D01*
X205475Y415640D01*
X205459Y415631D01*
X205320Y415511D01*
X205179Y415394D01*
X205168Y415380D01*
X205154Y415368D01*
X205042Y415223D01*
X204927Y415080D01*
X204919Y415064D01*
X204908Y415050D01*
X204826Y414885D01*
X204741Y414723D01*
X204736Y414706D01*
X204728Y414690D01*
X204681Y414511D01*
X204630Y414336D01*
X204628Y414318D01*
X204624Y414301D01*
X204597Y413970D01*
X204597Y363448D01*
X204598Y363439D01*
X204597Y363430D01*
X204618Y363238D01*
X204637Y363047D01*
X204639Y363039D01*
X204640Y363030D01*
X204698Y362848D01*
X204755Y362662D01*
X204759Y362655D01*
X204762Y362646D01*
X204855Y362478D01*
X204947Y362308D01*
X204952Y362302D01*
X204957Y362294D01*
X205082Y362146D01*
X205204Y361999D01*
X205211Y361994D01*
X205217Y361987D01*
X205369Y361867D01*
X205518Y361747D01*
X205526Y361743D01*
X205533Y361737D01*
X205705Y361650D01*
X205875Y361561D01*
X205884Y361559D01*
X205892Y361555D01*
X206078Y361503D01*
X206262Y361450D01*
X206271Y361449D01*
X206280Y361447D01*
X206472Y361433D01*
X206664Y361417D01*
X206672Y361418D01*
X206681Y361417D01*
X206874Y361442D01*
X207063Y361464D01*
X207072Y361467D01*
X207081Y361468D01*
X207264Y361529D01*
X207446Y361589D01*
X207454Y361593D01*
X207462Y361596D01*
X207628Y361691D01*
X207797Y361787D01*
X207804Y361793D01*
X207811Y361797D01*
X208064Y362012D01*
X209878Y363826D01*
X213613Y365373D01*
X231879Y365373D01*
X235614Y363826D01*
X238552Y360888D01*
X238572Y360871D01*
X238590Y360850D01*
X238728Y360743D01*
X238863Y360633D01*
X238887Y360620D01*
X238908Y360604D01*
X239065Y360526D01*
X239219Y360444D01*
X239244Y360436D01*
X239269Y360424D01*
X239438Y360379D01*
X239605Y360329D01*
X239631Y360327D01*
X239657Y360320D01*
X239988Y360293D01*
X246602Y360293D01*
X246629Y360295D01*
X246655Y360293D01*
X246829Y360315D01*
X247003Y360333D01*
X247028Y360340D01*
X247055Y360344D01*
X247221Y360399D01*
X247388Y360451D01*
X247411Y360464D01*
X247437Y360472D01*
X247588Y360559D01*
X247742Y360643D01*
X247762Y360660D01*
X247785Y360673D01*
X248038Y360888D01*
X251122Y363971D01*
X252989Y364745D01*
X267706Y364745D01*
X267839Y364758D01*
X267973Y364762D01*
X268039Y364778D01*
X268106Y364785D01*
X268235Y364824D01*
X268365Y364855D01*
X268427Y364883D01*
X268491Y364903D01*
X268609Y364967D01*
X268731Y365022D01*
X268786Y365062D01*
X268845Y365095D01*
X268948Y365180D01*
X269057Y365259D01*
X269103Y365309D01*
X269155Y365352D01*
X269239Y365457D01*
X269329Y365555D01*
X269365Y365613D01*
X269407Y365666D01*
X269469Y365785D01*
X269538Y365900D01*
X269561Y365963D01*
X269593Y366023D01*
X269629Y366152D01*
X269675Y366278D01*
X269685Y366345D01*
X269704Y366410D01*
X269715Y366544D01*
X269735Y366676D01*
X269731Y366744D01*
X269737Y366812D01*
X269721Y366945D01*
X269714Y367078D01*
X269698Y367144D01*
X269690Y367211D01*
X269648Y367339D01*
X269615Y367469D01*
X269586Y367530D01*
X269565Y367594D01*
X269499Y367711D01*
X269441Y367832D01*
X269400Y367886D01*
X269367Y367945D01*
X269280Y368046D01*
X269199Y368153D01*
X269148Y368198D01*
X269104Y368249D01*
X268998Y368332D01*
X268898Y368421D01*
X268831Y368461D01*
X268786Y368496D01*
X268716Y368531D01*
X268614Y368593D01*
X268518Y368630D01*
X268425Y368676D01*
X268330Y368701D01*
X268238Y368736D01*
X268136Y368753D01*
X268037Y368780D01*
X267918Y368790D01*
X267841Y368803D01*
X267784Y368801D01*
X267706Y368807D01*
X250957Y368807D01*
X249090Y369581D01*
X246138Y372532D01*
X246118Y372549D01*
X246100Y372570D01*
X245962Y372677D01*
X245827Y372787D01*
X245803Y372800D01*
X245782Y372816D01*
X245625Y372894D01*
X245471Y372976D01*
X245446Y372984D01*
X245422Y372996D01*
X245252Y373041D01*
X245085Y373091D01*
X245059Y373093D01*
X245033Y373100D01*
X244702Y373127D01*
X238887Y373127D01*
X237101Y374913D01*
X237101Y390439D01*
X237402Y390740D01*
X237413Y390754D01*
X237427Y390765D01*
X237541Y390909D01*
X237657Y391051D01*
X237666Y391067D01*
X237677Y391081D01*
X237760Y391245D01*
X237846Y391407D01*
X237851Y391424D01*
X237859Y391440D01*
X237908Y391617D01*
X237961Y391793D01*
X237962Y391811D01*
X237967Y391828D01*
X237980Y392011D01*
X237997Y392194D01*
X237995Y392212D01*
X237996Y392229D01*
X237973Y392411D01*
X237954Y392594D01*
X237948Y392611D01*
X237946Y392629D01*
X237888Y392802D01*
X237832Y392978D01*
X237823Y392994D01*
X237818Y393010D01*
X237726Y393170D01*
X237637Y393330D01*
X237626Y393344D01*
X237617Y393359D01*
X237402Y393612D01*
X237101Y393913D01*
X237101Y409439D01*
X238887Y411225D01*
X256413Y411225D01*
X258199Y409439D01*
X258199Y405384D01*
X258201Y405366D01*
X258199Y405348D01*
X258220Y405166D01*
X258239Y404983D01*
X258244Y404966D01*
X258246Y404949D01*
X258303Y404774D01*
X258357Y404598D01*
X258365Y404583D01*
X258371Y404566D01*
X258461Y404406D01*
X258549Y404244D01*
X258560Y404231D01*
X258569Y404215D01*
X258689Y404076D01*
X258806Y403935D01*
X258820Y403924D01*
X258832Y403910D01*
X258977Y403798D01*
X259120Y403683D01*
X259136Y403675D01*
X259150Y403664D01*
X259315Y403582D01*
X259477Y403497D01*
X259494Y403492D01*
X259510Y403484D01*
X259689Y403437D01*
X259864Y403386D01*
X259882Y403384D01*
X259899Y403380D01*
X260230Y403353D01*
X267208Y403353D01*
X267226Y403355D01*
X267244Y403353D01*
X267426Y403374D01*
X267609Y403393D01*
X267626Y403398D01*
X267643Y403400D01*
X267818Y403457D01*
X267994Y403511D01*
X268009Y403519D01*
X268026Y403525D01*
X268186Y403615D01*
X268348Y403703D01*
X268361Y403714D01*
X268377Y403723D01*
X268516Y403843D01*
X268657Y403960D01*
X268668Y403974D01*
X268682Y403986D01*
X268794Y404131D01*
X268909Y404274D01*
X268917Y404290D01*
X268928Y404304D01*
X269010Y404469D01*
X269095Y404631D01*
X269100Y404648D01*
X269108Y404664D01*
X269155Y404843D01*
X269206Y405018D01*
X269208Y405036D01*
X269212Y405053D01*
X269239Y405384D01*
X269239Y407663D01*
X271025Y409449D01*
X289807Y409449D01*
X291593Y407663D01*
X291593Y404759D01*
X291594Y404750D01*
X291593Y404741D01*
X291614Y404548D01*
X291633Y404358D01*
X291635Y404350D01*
X291636Y404341D01*
X291694Y404157D01*
X291751Y403973D01*
X291755Y403965D01*
X291758Y403957D01*
X291851Y403788D01*
X291943Y403619D01*
X291948Y403612D01*
X291953Y403605D01*
X292077Y403458D01*
X292200Y403310D01*
X292207Y403304D01*
X292213Y403298D01*
X292364Y403179D01*
X292514Y403058D01*
X292522Y403054D01*
X292529Y403048D01*
X292702Y402960D01*
X292871Y402872D01*
X292880Y402870D01*
X292888Y402866D01*
X293074Y402814D01*
X293258Y402761D01*
X293267Y402760D01*
X293276Y402758D01*
X293469Y402744D01*
X293660Y402728D01*
X293668Y402729D01*
X293677Y402728D01*
X293870Y402753D01*
X294059Y402775D01*
X294068Y402778D01*
X294077Y402779D01*
X294259Y402840D01*
X294442Y402900D01*
X294450Y402904D01*
X294458Y402907D01*
X294625Y403003D01*
X294793Y403098D01*
X294800Y403103D01*
X294807Y403108D01*
X295060Y403323D01*
X301186Y409449D01*
X310446Y409449D01*
X317439Y402455D01*
X317453Y402444D01*
X317464Y402430D01*
X317608Y402317D01*
X317750Y402200D01*
X317766Y402192D01*
X317780Y402181D01*
X317944Y402098D01*
X318106Y402012D01*
X318123Y402007D01*
X318139Y401998D01*
X318316Y401949D01*
X318492Y401897D01*
X318510Y401895D01*
X318527Y401890D01*
X318710Y401877D01*
X318893Y401860D01*
X318911Y401862D01*
X318929Y401861D01*
X319110Y401884D01*
X319293Y401904D01*
X319310Y401909D01*
X319328Y401912D01*
X319501Y401970D01*
X319677Y402025D01*
X319693Y402034D01*
X319710Y402040D01*
X319869Y402132D01*
X320029Y402220D01*
X320043Y402232D01*
X320059Y402241D01*
X320312Y402455D01*
X326797Y408941D01*
X328677Y408941D01*
X328677Y398780D01*
X328678Y398762D01*
X328677Y398745D01*
X328698Y398562D01*
X328717Y398380D01*
X328722Y398363D01*
X328724Y398345D01*
X328749Y398267D01*
X328710Y398130D01*
X328708Y398112D01*
X328704Y398095D01*
X328677Y397764D01*
X328677Y387603D01*
X326797Y387603D01*
X320312Y394089D01*
X320298Y394100D01*
X320286Y394114D01*
X320142Y394227D01*
X320000Y394344D01*
X319984Y394352D01*
X319970Y394363D01*
X319806Y394447D01*
X319644Y394532D01*
X319627Y394537D01*
X319611Y394546D01*
X319434Y394595D01*
X319258Y394647D01*
X319241Y394649D01*
X319223Y394654D01*
X319040Y394667D01*
X318857Y394684D01*
X318840Y394682D01*
X318822Y394683D01*
X318640Y394660D01*
X318457Y394640D01*
X318440Y394635D01*
X318422Y394632D01*
X318249Y394574D01*
X318073Y394519D01*
X318058Y394510D01*
X318041Y394504D01*
X317881Y394412D01*
X317721Y394324D01*
X317707Y394312D01*
X317692Y394303D01*
X317439Y394089D01*
X311492Y388141D01*
X311475Y388121D01*
X311454Y388103D01*
X311347Y387965D01*
X311237Y387830D01*
X311224Y387806D01*
X311208Y387785D01*
X311130Y387628D01*
X311048Y387474D01*
X311040Y387449D01*
X311028Y387425D01*
X310983Y387255D01*
X310933Y387088D01*
X310931Y387062D01*
X310924Y387036D01*
X310897Y386705D01*
X310897Y372877D01*
X310013Y370745D01*
X310004Y370715D01*
X309990Y370687D01*
X309946Y370522D01*
X309897Y370359D01*
X309894Y370328D01*
X309886Y370298D01*
X309859Y369967D01*
X309859Y368093D01*
X309050Y367285D01*
X309042Y367274D01*
X309031Y367265D01*
X308913Y367117D01*
X308795Y366973D01*
X308789Y366961D01*
X308780Y366951D01*
X308694Y366783D01*
X308606Y366617D01*
X308603Y366605D01*
X308596Y366592D01*
X308545Y366410D01*
X308492Y366231D01*
X308490Y366218D01*
X308487Y366205D01*
X308472Y366019D01*
X308455Y365830D01*
X308457Y365817D01*
X308456Y365804D01*
X308478Y365618D01*
X308499Y365430D01*
X308503Y365417D01*
X308504Y365404D01*
X308563Y365226D01*
X308620Y365046D01*
X308627Y365035D01*
X308631Y365022D01*
X308724Y364858D01*
X308815Y364694D01*
X308824Y364684D01*
X308830Y364672D01*
X308954Y364530D01*
X309075Y364387D01*
X309086Y364379D01*
X309095Y364369D01*
X309243Y364255D01*
X309391Y364137D01*
X309403Y364131D01*
X309414Y364123D01*
X309709Y363972D01*
X309710Y363971D01*
X317308Y356373D01*
X317310Y356370D01*
X317318Y356360D01*
X317325Y356348D01*
X317446Y356205D01*
X317566Y356060D01*
X317577Y356051D01*
X317585Y356041D01*
X317733Y355925D01*
X317879Y355806D01*
X317891Y355800D01*
X317901Y355791D01*
X318069Y355706D01*
X318235Y355619D01*
X318248Y355615D01*
X318260Y355609D01*
X318442Y355559D01*
X318622Y355506D01*
X318635Y355505D01*
X318648Y355501D01*
X318837Y355487D01*
X319023Y355471D01*
X319036Y355473D01*
X319050Y355472D01*
X319237Y355495D01*
X319423Y355516D01*
X319436Y355520D01*
X319449Y355522D01*
X319628Y355582D01*
X319806Y355639D01*
X319818Y355646D01*
X319831Y355650D01*
X319994Y355744D01*
X320158Y355836D01*
X320168Y355844D01*
X320180Y355851D01*
X320433Y356066D01*
X328655Y364288D01*
X330370Y366003D01*
X332237Y366777D01*
X350520Y366777D01*
X350538Y366779D01*
X350556Y366777D01*
X350738Y366798D01*
X350921Y366817D01*
X350938Y366822D01*
X350955Y366824D01*
X351130Y366881D01*
X351306Y366935D01*
X351321Y366943D01*
X351338Y366949D01*
X351498Y367039D01*
X351660Y367127D01*
X351673Y367138D01*
X351689Y367147D01*
X351828Y367267D01*
X351969Y367384D01*
X351980Y367398D01*
X351994Y367410D01*
X352106Y367555D01*
X352221Y367698D01*
X352229Y367714D01*
X352240Y367728D01*
X352322Y367893D01*
X352407Y368055D01*
X352412Y368072D01*
X352420Y368088D01*
X352467Y368267D01*
X352518Y368442D01*
X352520Y368460D01*
X352524Y368477D01*
X352551Y368808D01*
X352551Y385689D01*
X352549Y385716D01*
X352551Y385742D01*
X352529Y385916D01*
X352511Y386090D01*
X352504Y386115D01*
X352500Y386142D01*
X352444Y386308D01*
X352393Y386475D01*
X352380Y386498D01*
X352372Y386524D01*
X352285Y386675D01*
X352201Y386829D01*
X352184Y386849D01*
X352171Y386872D01*
X351956Y387125D01*
X344993Y394089D01*
X344979Y394100D01*
X344968Y394114D01*
X344824Y394227D01*
X344682Y394344D01*
X344666Y394352D01*
X344652Y394363D01*
X344487Y394447D01*
X344326Y394532D01*
X344309Y394537D01*
X344293Y394546D01*
X344115Y394595D01*
X343940Y394647D01*
X343922Y394649D01*
X343905Y394654D01*
X343722Y394667D01*
X343539Y394684D01*
X343521Y394682D01*
X343503Y394683D01*
X343322Y394660D01*
X343139Y394640D01*
X343122Y394635D01*
X343104Y394632D01*
X342930Y394574D01*
X342755Y394519D01*
X342739Y394510D01*
X342722Y394504D01*
X342563Y394412D01*
X342403Y394324D01*
X342389Y394312D01*
X342373Y394303D01*
X342120Y394089D01*
X335635Y387603D01*
X333755Y387603D01*
X333755Y397764D01*
X333753Y397782D01*
X333755Y397799D01*
X333734Y397982D01*
X333715Y398164D01*
X333710Y398181D01*
X333708Y398199D01*
X333683Y398277D01*
X333722Y398414D01*
X333724Y398432D01*
X333728Y398449D01*
X333755Y398780D01*
X333755Y408941D01*
X335635Y408941D01*
X342120Y402455D01*
X342134Y402444D01*
X342146Y402430D01*
X342290Y402317D01*
X342432Y402200D01*
X342448Y402192D01*
X342462Y402181D01*
X342626Y402098D01*
X342788Y402012D01*
X342805Y402007D01*
X342821Y401998D01*
X342998Y401949D01*
X343174Y401897D01*
X343191Y401895D01*
X343209Y401890D01*
X343392Y401877D01*
X343575Y401860D01*
X343592Y401862D01*
X343610Y401861D01*
X343792Y401884D01*
X343975Y401904D01*
X343992Y401909D01*
X344010Y401912D01*
X344183Y401970D01*
X344359Y402025D01*
X344374Y402034D01*
X344391Y402040D01*
X344551Y402132D01*
X344711Y402220D01*
X344724Y402232D01*
X344740Y402241D01*
X344993Y402455D01*
X351986Y409449D01*
X361246Y409449D01*
X367880Y402815D01*
X367893Y402803D01*
X367905Y402790D01*
X368049Y402676D01*
X368191Y402560D01*
X368207Y402551D01*
X368221Y402540D01*
X368385Y402457D01*
X368547Y402371D01*
X368564Y402366D01*
X368580Y402358D01*
X368757Y402308D01*
X368933Y402256D01*
X368951Y402254D01*
X368968Y402250D01*
X369151Y402236D01*
X369334Y402220D01*
X369352Y402222D01*
X369369Y402220D01*
X369551Y402243D01*
X369734Y402263D01*
X369751Y402269D01*
X369769Y402271D01*
X369942Y402329D01*
X370118Y402385D01*
X370134Y402393D01*
X370150Y402399D01*
X370310Y402491D01*
X370470Y402579D01*
X370484Y402591D01*
X370499Y402600D01*
X370752Y402815D01*
X377386Y409449D01*
X386646Y409449D01*
X393193Y402902D01*
X393193Y393642D01*
X387692Y388141D01*
X387675Y388121D01*
X387654Y388103D01*
X387547Y387965D01*
X387437Y387830D01*
X387424Y387806D01*
X387408Y387785D01*
X387330Y387628D01*
X387248Y387474D01*
X387240Y387449D01*
X387228Y387425D01*
X387183Y387255D01*
X387133Y387088D01*
X387131Y387062D01*
X387124Y387036D01*
X387097Y386705D01*
X387097Y364749D01*
X386323Y362882D01*
X384608Y361167D01*
X376208Y352766D01*
X376202Y352759D01*
X376195Y352754D01*
X376075Y352604D01*
X375952Y352455D01*
X375948Y352447D01*
X375943Y352440D01*
X375854Y352270D01*
X375764Y352099D01*
X375761Y352090D01*
X375757Y352083D01*
X375704Y351897D01*
X375649Y351713D01*
X375648Y351704D01*
X375646Y351696D01*
X375630Y351504D01*
X375613Y351312D01*
X375614Y351303D01*
X375613Y351294D01*
X375635Y351105D01*
X375656Y350912D01*
X375659Y350903D01*
X375660Y350895D01*
X375719Y350713D01*
X375778Y350528D01*
X375782Y350520D01*
X375785Y350512D01*
X375881Y350342D01*
X375972Y350176D01*
X375978Y350169D01*
X375983Y350161D01*
X376109Y350015D01*
X376233Y349869D01*
X376240Y349863D01*
X376246Y349856D01*
X376398Y349738D01*
X376549Y349619D01*
X376557Y349615D01*
X376564Y349610D01*
X376737Y349524D01*
X376908Y349437D01*
X376916Y349434D01*
X376924Y349430D01*
X377111Y349380D01*
X377296Y349329D01*
X377304Y349328D01*
X377313Y349326D01*
X377644Y349299D01*
X379758Y349299D01*
X379875Y349203D01*
X379891Y349194D01*
X379905Y349183D01*
X380069Y349100D01*
X380231Y349014D01*
X380248Y349009D01*
X380264Y349001D01*
X380441Y348952D01*
X380617Y348899D01*
X380635Y348898D01*
X380652Y348893D01*
X380835Y348880D01*
X381018Y348863D01*
X381036Y348865D01*
X381053Y348864D01*
X381235Y348887D01*
X381418Y348906D01*
X381435Y348912D01*
X381453Y348914D01*
X381626Y348972D01*
X381802Y349028D01*
X381818Y349037D01*
X381835Y349042D01*
X381994Y349134D01*
X382154Y349223D01*
X382168Y349234D01*
X382183Y349243D01*
X382249Y349299D01*
X392458Y349299D01*
X392575Y349203D01*
X392591Y349194D01*
X392605Y349183D01*
X392769Y349100D01*
X392931Y349014D01*
X392948Y349009D01*
X392964Y349001D01*
X393141Y348952D01*
X393317Y348899D01*
X393335Y348898D01*
X393352Y348893D01*
X393535Y348880D01*
X393718Y348863D01*
X393736Y348865D01*
X393753Y348864D01*
X393935Y348887D01*
X394118Y348906D01*
X394135Y348912D01*
X394153Y348914D01*
X394326Y348972D01*
X394502Y349028D01*
X394518Y349037D01*
X394535Y349042D01*
X394694Y349134D01*
X394854Y349223D01*
X394868Y349234D01*
X394883Y349243D01*
X394949Y349299D01*
X405158Y349299D01*
X405275Y349203D01*
X405291Y349194D01*
X405305Y349183D01*
X405469Y349100D01*
X405631Y349014D01*
X405648Y349009D01*
X405664Y349001D01*
X405841Y348952D01*
X406017Y348899D01*
X406035Y348898D01*
X406052Y348893D01*
X406235Y348880D01*
X406418Y348863D01*
X406436Y348865D01*
X406453Y348864D01*
X406635Y348887D01*
X406818Y348906D01*
X406835Y348912D01*
X406853Y348914D01*
X407026Y348972D01*
X407202Y349028D01*
X407218Y349037D01*
X407235Y349042D01*
X407394Y349134D01*
X407554Y349223D01*
X407568Y349234D01*
X407583Y349243D01*
X407649Y349299D01*
X412594Y349299D01*
X412603Y349300D01*
X412612Y349299D01*
X412804Y349320D01*
X412994Y349339D01*
X413003Y349341D01*
X413012Y349342D01*
X413195Y349400D01*
X413379Y349457D01*
X413387Y349461D01*
X413396Y349464D01*
X413562Y349556D01*
X413733Y349649D01*
X413740Y349654D01*
X413748Y349659D01*
X413895Y349783D01*
X414043Y349906D01*
X414048Y349913D01*
X414055Y349919D01*
X414175Y350071D01*
X414295Y350220D01*
X414299Y350228D01*
X414305Y350235D01*
X414392Y350408D01*
X414480Y350577D01*
X414483Y350586D01*
X414487Y350594D01*
X414539Y350779D01*
X414592Y350964D01*
X414593Y350973D01*
X414595Y350982D01*
X414609Y351174D01*
X414625Y351366D01*
X414624Y351374D01*
X414624Y351383D01*
X414600Y351575D01*
X414578Y351765D01*
X414575Y351774D01*
X414574Y351783D01*
X414513Y351965D01*
X414453Y352148D01*
X414449Y352156D01*
X414446Y352164D01*
X414349Y352332D01*
X414255Y352499D01*
X414249Y352506D01*
X414245Y352513D01*
X414030Y352766D01*
X413253Y353544D01*
X413193Y353592D01*
X413111Y353673D01*
X412523Y354158D01*
X412472Y354236D01*
X412403Y354355D01*
X412355Y354411D01*
X412325Y354457D01*
X412269Y354514D01*
X412215Y354576D01*
X411925Y355279D01*
X411888Y355346D01*
X411843Y355452D01*
X411473Y356150D01*
X411472Y356155D01*
X411448Y356230D01*
X411433Y356307D01*
X411386Y356421D01*
X411347Y356538D01*
X411309Y356606D01*
X411279Y356679D01*
X411210Y356781D01*
X411150Y356889D01*
X411099Y356948D01*
X411055Y357013D01*
X410967Y357100D01*
X410886Y357194D01*
X410825Y357241D01*
X410769Y357297D01*
X410666Y357365D01*
X410568Y357440D01*
X410498Y357475D01*
X410433Y357518D01*
X410318Y357565D01*
X410208Y357620D01*
X410132Y357640D01*
X410060Y357669D01*
X409938Y357692D01*
X409819Y357724D01*
X409728Y357732D01*
X409664Y357744D01*
X409592Y357743D01*
X409488Y357751D01*
X408187Y357751D01*
X406401Y359537D01*
X406401Y377063D01*
X408187Y378849D01*
X423713Y378849D01*
X424417Y378144D01*
X424537Y378046D01*
X424653Y377942D01*
X424693Y377918D01*
X424729Y377889D01*
X424866Y377816D01*
X425000Y377737D01*
X425044Y377722D01*
X425085Y377700D01*
X425233Y377656D01*
X425380Y377605D01*
X425426Y377599D01*
X425471Y377586D01*
X425625Y377572D01*
X425779Y377550D01*
X425825Y377553D01*
X425872Y377549D01*
X426026Y377566D01*
X426180Y377576D01*
X426225Y377588D01*
X426272Y377593D01*
X426420Y377639D01*
X426569Y377679D01*
X426617Y377702D01*
X426656Y377714D01*
X426732Y377756D01*
X426869Y377821D01*
X427469Y378168D01*
X428115Y378341D01*
X431701Y378341D01*
X431701Y369518D01*
X431702Y369500D01*
X431701Y369483D01*
X431722Y369300D01*
X431741Y369118D01*
X431746Y369101D01*
X431748Y369083D01*
X431805Y368908D01*
X431859Y368733D01*
X431867Y368717D01*
X431873Y368700D01*
X431963Y368540D01*
X432050Y368379D01*
X432062Y368365D01*
X432071Y368349D01*
X432116Y368297D01*
X432031Y368192D01*
X432023Y368176D01*
X432012Y368162D01*
X431930Y367997D01*
X431845Y367834D01*
X431840Y367817D01*
X431832Y367801D01*
X431784Y367623D01*
X431734Y367448D01*
X431732Y367430D01*
X431728Y367413D01*
X431701Y367082D01*
X431701Y358259D01*
X429248Y358259D01*
X429239Y358258D01*
X429230Y358259D01*
X429040Y358239D01*
X428848Y358219D01*
X428839Y358217D01*
X428830Y358216D01*
X428647Y358158D01*
X428463Y358101D01*
X428455Y358097D01*
X428446Y358094D01*
X428278Y358001D01*
X428109Y357909D01*
X428102Y357904D01*
X428094Y357899D01*
X427947Y357774D01*
X427799Y357652D01*
X427794Y357645D01*
X427787Y357639D01*
X427667Y357488D01*
X427547Y357338D01*
X427543Y357330D01*
X427537Y357323D01*
X427450Y357150D01*
X427362Y356981D01*
X427359Y356972D01*
X427355Y356964D01*
X427303Y356778D01*
X427250Y356594D01*
X427249Y356585D01*
X427247Y356576D01*
X427233Y356384D01*
X427217Y356192D01*
X427218Y356184D01*
X427218Y356175D01*
X427242Y355983D01*
X427264Y355793D01*
X427267Y355784D01*
X427268Y355775D01*
X427329Y355593D01*
X427389Y355410D01*
X427393Y355402D01*
X427396Y355394D01*
X427493Y355226D01*
X427587Y355059D01*
X427593Y355052D01*
X427597Y355045D01*
X427812Y354792D01*
X428330Y354274D01*
X430188Y352416D01*
X431076Y350273D01*
X431079Y350242D01*
X431103Y350164D01*
X431117Y350083D01*
X431162Y349972D01*
X431197Y349857D01*
X431236Y349785D01*
X431266Y349709D01*
X431332Y349609D01*
X431389Y349503D01*
X431441Y349440D01*
X431486Y349371D01*
X431570Y349286D01*
X431646Y349194D01*
X431710Y349143D01*
X431768Y349084D01*
X431867Y349017D01*
X431960Y348942D01*
X432033Y348904D01*
X432101Y348858D01*
X432211Y348811D01*
X432317Y348756D01*
X432396Y348734D01*
X432472Y348702D01*
X432589Y348678D01*
X432704Y348645D01*
X432786Y348638D01*
X432867Y348622D01*
X432986Y348622D01*
X433106Y348612D01*
X433187Y348622D01*
X433269Y348622D01*
X433419Y348649D01*
X433505Y348659D01*
X433544Y348671D01*
X433596Y348681D01*
X434006Y348791D01*
X436119Y348791D01*
X436119Y339900D01*
X436119Y331009D01*
X434006Y331009D01*
X433596Y331119D01*
X433515Y331132D01*
X433436Y331155D01*
X433316Y331165D01*
X433198Y331184D01*
X433116Y331181D01*
X433034Y331188D01*
X432916Y331174D01*
X432796Y331170D01*
X432716Y331151D01*
X432635Y331141D01*
X432521Y331104D01*
X432404Y331076D01*
X432330Y331042D01*
X432252Y331016D01*
X432148Y330957D01*
X432039Y330907D01*
X431973Y330859D01*
X431901Y330818D01*
X431811Y330740D01*
X431714Y330670D01*
X431659Y330609D01*
X431596Y330555D01*
X431523Y330461D01*
X431442Y330372D01*
X431400Y330302D01*
X431350Y330237D01*
X431296Y330130D01*
X431235Y330027D01*
X431207Y329950D01*
X431170Y329877D01*
X431139Y329761D01*
X431099Y329648D01*
X431087Y329567D01*
X431066Y329488D01*
X431053Y329336D01*
X431041Y329250D01*
X431043Y329209D01*
X431039Y329157D01*
X431039Y312420D01*
X431041Y312402D01*
X431039Y312384D01*
X431060Y312202D01*
X431079Y312019D01*
X431084Y312002D01*
X431086Y311985D01*
X431143Y311810D01*
X431197Y311634D01*
X431205Y311619D01*
X431211Y311602D01*
X431301Y311442D01*
X431389Y311280D01*
X431400Y311267D01*
X431409Y311251D01*
X431529Y311112D01*
X431646Y310971D01*
X431660Y310960D01*
X431672Y310946D01*
X431817Y310834D01*
X431960Y310719D01*
X431976Y310711D01*
X431990Y310700D01*
X432155Y310618D01*
X432317Y310533D01*
X432334Y310528D01*
X432350Y310520D01*
X432529Y310473D01*
X432704Y310422D01*
X432722Y310420D01*
X432739Y310416D01*
X433070Y310389D01*
X458312Y310389D01*
X460366Y309538D01*
X461938Y307966D01*
X462291Y307113D01*
X462306Y307085D01*
X462316Y307056D01*
X462401Y306908D01*
X462481Y306758D01*
X462501Y306734D01*
X462517Y306707D01*
X462732Y306454D01*
X478624Y290562D01*
X478631Y290556D01*
X478636Y290549D01*
X478786Y290429D01*
X478935Y290306D01*
X478943Y290302D01*
X478950Y290297D01*
X479120Y290208D01*
X479291Y290118D01*
X479300Y290115D01*
X479307Y290111D01*
X479492Y290058D01*
X479677Y290003D01*
X479686Y290002D01*
X479694Y290000D01*
X479886Y289984D01*
X480078Y289967D01*
X480087Y289968D01*
X480096Y289967D01*
X480285Y289989D01*
X480478Y290010D01*
X480487Y290013D01*
X480495Y290014D01*
X480677Y290073D01*
X480862Y290132D01*
X480870Y290136D01*
X480878Y290139D01*
X481047Y290234D01*
X481214Y290326D01*
X481221Y290332D01*
X481229Y290337D01*
X481375Y290463D01*
X481521Y290587D01*
X481527Y290594D01*
X481534Y290600D01*
X481651Y290751D01*
X481771Y290903D01*
X481775Y290911D01*
X481780Y290918D01*
X481866Y291090D01*
X481953Y291262D01*
X481956Y291270D01*
X481960Y291278D01*
X482010Y291465D01*
X482061Y291650D01*
X482062Y291658D01*
X482064Y291667D01*
X482091Y291998D01*
X482091Y303825D01*
X482090Y303838D01*
X482091Y303851D01*
X482070Y304038D01*
X482051Y304225D01*
X482047Y304238D01*
X482046Y304251D01*
X481988Y304431D01*
X481933Y304610D01*
X481927Y304622D01*
X481923Y304635D01*
X481831Y304799D01*
X481741Y304964D01*
X481733Y304975D01*
X481726Y304986D01*
X481604Y305130D01*
X481484Y305274D01*
X481473Y305282D01*
X481465Y305292D01*
X481316Y305408D01*
X481170Y305526D01*
X481158Y305532D01*
X481148Y305540D01*
X480979Y305625D01*
X480813Y305711D01*
X480800Y305715D01*
X480788Y305721D01*
X480606Y305771D01*
X480426Y305823D01*
X480412Y305824D01*
X480399Y305827D01*
X480211Y305840D01*
X480024Y305856D01*
X480011Y305854D01*
X479998Y305855D01*
X479810Y305831D01*
X479625Y305809D01*
X479612Y305805D01*
X479599Y305803D01*
X479283Y305701D01*
X477105Y304799D01*
X473871Y304799D01*
X470883Y306037D01*
X468597Y308323D01*
X467359Y311311D01*
X467359Y314545D01*
X468597Y317533D01*
X469812Y318748D01*
X469829Y318769D01*
X469850Y318786D01*
X469957Y318924D01*
X470067Y319060D01*
X470080Y319083D01*
X470096Y319104D01*
X470174Y319261D01*
X470256Y319415D01*
X470264Y319441D01*
X470276Y319465D01*
X470321Y319634D01*
X470371Y319801D01*
X470373Y319828D01*
X470380Y319854D01*
X470407Y320184D01*
X470407Y328470D01*
X470405Y328488D01*
X470407Y328506D01*
X470386Y328688D01*
X470367Y328871D01*
X470362Y328888D01*
X470360Y328905D01*
X470303Y329080D01*
X470249Y329256D01*
X470241Y329271D01*
X470235Y329288D01*
X470145Y329448D01*
X470057Y329610D01*
X470046Y329623D01*
X470037Y329639D01*
X469917Y329778D01*
X469800Y329919D01*
X469786Y329930D01*
X469774Y329944D01*
X469629Y330056D01*
X469486Y330171D01*
X469470Y330179D01*
X469456Y330190D01*
X469291Y330272D01*
X469129Y330357D01*
X469112Y330362D01*
X469096Y330370D01*
X468917Y330417D01*
X468742Y330468D01*
X468724Y330470D01*
X468707Y330474D01*
X468376Y330501D01*
X458442Y330501D01*
X458325Y330597D01*
X458309Y330606D01*
X458295Y330617D01*
X458131Y330700D01*
X457969Y330786D01*
X457952Y330791D01*
X457936Y330799D01*
X457759Y330848D01*
X457583Y330901D01*
X457565Y330902D01*
X457548Y330907D01*
X457365Y330920D01*
X457182Y330937D01*
X457164Y330935D01*
X457147Y330936D01*
X456965Y330913D01*
X456782Y330894D01*
X456765Y330888D01*
X456747Y330886D01*
X456574Y330828D01*
X456398Y330772D01*
X456382Y330763D01*
X456365Y330758D01*
X456206Y330666D01*
X456046Y330577D01*
X456032Y330566D01*
X456017Y330557D01*
X455951Y330501D01*
X445777Y330501D01*
X445409Y330869D01*
X445289Y330967D01*
X445174Y331071D01*
X445134Y331095D01*
X445098Y331124D01*
X444961Y331197D01*
X444827Y331276D01*
X444783Y331291D01*
X444742Y331313D01*
X444593Y331357D01*
X444447Y331408D01*
X444401Y331414D01*
X444356Y331428D01*
X444202Y331442D01*
X444048Y331463D01*
X444002Y331460D01*
X443955Y331464D01*
X443801Y331447D01*
X443646Y331438D01*
X443601Y331426D01*
X443555Y331421D01*
X443407Y331374D01*
X443257Y331334D01*
X443210Y331311D01*
X443171Y331299D01*
X443095Y331257D01*
X442957Y331192D01*
X442941Y331182D01*
X442295Y331009D01*
X440181Y331009D01*
X440181Y339900D01*
X440181Y348791D01*
X442295Y348791D01*
X443199Y348548D01*
X443249Y348540D01*
X443372Y348505D01*
X443427Y348500D01*
X443479Y348488D01*
X443586Y348485D01*
X443596Y348483D01*
X443619Y348484D01*
X443627Y348484D01*
X443774Y348472D01*
X443827Y348478D01*
X443882Y348477D01*
X444027Y348502D01*
X444173Y348519D01*
X444225Y348536D01*
X444279Y348545D01*
X444416Y348598D01*
X444556Y348644D01*
X444604Y348670D01*
X444654Y348690D01*
X444779Y348769D01*
X444907Y348841D01*
X444948Y348877D01*
X444994Y348906D01*
X445100Y349009D01*
X445212Y349105D01*
X445245Y349147D01*
X445284Y349185D01*
X445368Y349307D01*
X445458Y349423D01*
X445482Y349471D01*
X445514Y349516D01*
X445572Y349651D01*
X445638Y349783D01*
X445652Y349836D01*
X445673Y349886D01*
X445704Y350029D01*
X445742Y350172D01*
X445745Y350201D01*
X446543Y352128D01*
X470574Y376160D01*
X470591Y376180D01*
X470612Y376198D01*
X470719Y376336D01*
X470829Y376471D01*
X470842Y376495D01*
X470858Y376516D01*
X470936Y376673D01*
X471018Y376827D01*
X471026Y376852D01*
X471038Y376876D01*
X471083Y377046D01*
X471133Y377213D01*
X471135Y377239D01*
X471142Y377265D01*
X471169Y377596D01*
X471169Y385064D01*
X471167Y385082D01*
X471169Y385100D01*
X471148Y385282D01*
X471129Y385465D01*
X471124Y385482D01*
X471122Y385499D01*
X471065Y385674D01*
X471011Y385850D01*
X471003Y385865D01*
X470997Y385882D01*
X470907Y386042D01*
X470819Y386204D01*
X470808Y386217D01*
X470799Y386233D01*
X470679Y386372D01*
X470562Y386513D01*
X470548Y386524D01*
X470536Y386538D01*
X470391Y386650D01*
X470248Y386765D01*
X470232Y386773D01*
X470218Y386784D01*
X470053Y386866D01*
X469891Y386951D01*
X469874Y386956D01*
X469858Y386964D01*
X469679Y387011D01*
X469504Y387062D01*
X469486Y387064D01*
X469469Y387068D01*
X469138Y387095D01*
X466097Y387095D01*
X464311Y388881D01*
X464311Y407663D01*
X466097Y409449D01*
X484879Y409449D01*
X486665Y407663D01*
X486665Y404759D01*
X486666Y404750D01*
X486665Y404741D01*
X486686Y404548D01*
X486705Y404358D01*
X486707Y404350D01*
X486708Y404341D01*
X486766Y404157D01*
X486823Y403973D01*
X486827Y403965D01*
X486830Y403957D01*
X486923Y403788D01*
X487015Y403619D01*
X487020Y403612D01*
X487025Y403605D01*
X487149Y403458D01*
X487272Y403310D01*
X487279Y403304D01*
X487285Y403298D01*
X487436Y403179D01*
X487586Y403058D01*
X487594Y403054D01*
X487601Y403048D01*
X487774Y402960D01*
X487943Y402872D01*
X487952Y402870D01*
X487960Y402866D01*
X488146Y402814D01*
X488330Y402761D01*
X488339Y402760D01*
X488348Y402758D01*
X488541Y402744D01*
X488732Y402728D01*
X488740Y402729D01*
X488749Y402728D01*
X488942Y402753D01*
X489131Y402775D01*
X489140Y402778D01*
X489149Y402779D01*
X489331Y402840D01*
X489514Y402900D01*
X489522Y402904D01*
X489530Y402907D01*
X489697Y403003D01*
X489865Y403098D01*
X489872Y403103D01*
X489879Y403108D01*
X490132Y403323D01*
X496258Y409449D01*
X505518Y409449D01*
X512511Y402455D01*
X512525Y402444D01*
X512536Y402430D01*
X512680Y402317D01*
X512822Y402200D01*
X512838Y402192D01*
X512852Y402181D01*
X513016Y402098D01*
X513178Y402012D01*
X513195Y402007D01*
X513211Y401998D01*
X513388Y401949D01*
X513564Y401897D01*
X513582Y401895D01*
X513599Y401890D01*
X513782Y401877D01*
X513965Y401860D01*
X513983Y401862D01*
X514001Y401861D01*
X514182Y401884D01*
X514365Y401904D01*
X514382Y401909D01*
X514400Y401912D01*
X514573Y401970D01*
X514749Y402025D01*
X514765Y402034D01*
X514782Y402040D01*
X514941Y402132D01*
X515101Y402220D01*
X515115Y402232D01*
X515131Y402241D01*
X515384Y402455D01*
X521869Y408941D01*
X523749Y408941D01*
X523749Y398780D01*
X523750Y398762D01*
X523749Y398745D01*
X523770Y398562D01*
X523789Y398380D01*
X523794Y398363D01*
X523796Y398345D01*
X523821Y398267D01*
X523782Y398130D01*
X523780Y398112D01*
X523776Y398095D01*
X523749Y397764D01*
X523749Y387603D01*
X521869Y387603D01*
X515384Y394089D01*
X515370Y394100D01*
X515358Y394114D01*
X515214Y394227D01*
X515072Y394344D01*
X515056Y394352D01*
X515042Y394363D01*
X514878Y394447D01*
X514716Y394532D01*
X514699Y394537D01*
X514683Y394546D01*
X514506Y394595D01*
X514330Y394647D01*
X514313Y394649D01*
X514295Y394654D01*
X514112Y394667D01*
X513929Y394684D01*
X513912Y394682D01*
X513894Y394683D01*
X513712Y394660D01*
X513529Y394640D01*
X513512Y394635D01*
X513494Y394632D01*
X513321Y394574D01*
X513145Y394519D01*
X513130Y394510D01*
X513113Y394504D01*
X512953Y394412D01*
X512793Y394324D01*
X512779Y394312D01*
X512764Y394303D01*
X512511Y394089D01*
X507326Y388903D01*
X507309Y388883D01*
X507288Y388865D01*
X507181Y388727D01*
X507071Y388592D01*
X507058Y388568D01*
X507042Y388547D01*
X506964Y388390D01*
X506882Y388236D01*
X506874Y388211D01*
X506862Y388187D01*
X506817Y388017D01*
X506767Y387850D01*
X506765Y387824D01*
X506758Y387798D01*
X506731Y387467D01*
X506731Y386339D01*
X505957Y384472D01*
X504242Y382757D01*
X474252Y352766D01*
X474246Y352759D01*
X474239Y352754D01*
X474119Y352604D01*
X473996Y352455D01*
X473992Y352447D01*
X473987Y352440D01*
X473898Y352268D01*
X473808Y352099D01*
X473805Y352091D01*
X473801Y352083D01*
X473748Y351897D01*
X473693Y351713D01*
X473692Y351704D01*
X473690Y351696D01*
X473674Y351504D01*
X473657Y351312D01*
X473658Y351303D01*
X473657Y351294D01*
X473679Y351105D01*
X473700Y350912D01*
X473703Y350903D01*
X473704Y350895D01*
X473763Y350713D01*
X473822Y350528D01*
X473826Y350520D01*
X473829Y350512D01*
X473925Y350342D01*
X474016Y350176D01*
X474022Y350169D01*
X474027Y350161D01*
X474153Y350015D01*
X474277Y349869D01*
X474284Y349863D01*
X474290Y349856D01*
X474442Y349738D01*
X474593Y349619D01*
X474601Y349615D01*
X474608Y349610D01*
X474781Y349524D01*
X474952Y349437D01*
X474960Y349434D01*
X474968Y349430D01*
X475155Y349380D01*
X475340Y349329D01*
X475348Y349328D01*
X475357Y349326D01*
X475688Y349299D01*
X481358Y349299D01*
X481475Y349203D01*
X481491Y349194D01*
X481505Y349183D01*
X481668Y349100D01*
X481831Y349014D01*
X481848Y349009D01*
X481864Y349001D01*
X482041Y348952D01*
X482217Y348899D01*
X482234Y348898D01*
X482252Y348893D01*
X482435Y348880D01*
X482618Y348863D01*
X482635Y348865D01*
X482653Y348864D01*
X482836Y348887D01*
X483018Y348906D01*
X483035Y348912D01*
X483053Y348914D01*
X483227Y348973D01*
X483402Y349028D01*
X483417Y349037D01*
X483434Y349042D01*
X483594Y349134D01*
X483754Y349223D01*
X483768Y349234D01*
X483783Y349243D01*
X483849Y349299D01*
X494023Y349299D01*
X495809Y347513D01*
X495809Y332287D01*
X493994Y330472D01*
X493883Y330461D01*
X493866Y330456D01*
X493849Y330454D01*
X493674Y330397D01*
X493498Y330343D01*
X493483Y330335D01*
X493466Y330329D01*
X493306Y330239D01*
X493144Y330151D01*
X493131Y330140D01*
X493115Y330131D01*
X492976Y330011D01*
X492835Y329894D01*
X492824Y329880D01*
X492810Y329868D01*
X492698Y329723D01*
X492583Y329580D01*
X492575Y329564D01*
X492564Y329550D01*
X492482Y329385D01*
X492397Y329223D01*
X492392Y329206D01*
X492384Y329190D01*
X492337Y329011D01*
X492286Y328836D01*
X492284Y328818D01*
X492280Y328801D01*
X492253Y328470D01*
X492253Y306196D01*
X492254Y306183D01*
X492253Y306169D01*
X492274Y305983D01*
X492293Y305796D01*
X492297Y305783D01*
X492298Y305769D01*
X492356Y305591D01*
X492411Y305411D01*
X492417Y305399D01*
X492421Y305386D01*
X492513Y305222D01*
X492603Y305057D01*
X492611Y305046D01*
X492618Y305035D01*
X492740Y304891D01*
X492860Y304747D01*
X492871Y304739D01*
X492879Y304729D01*
X493028Y304613D01*
X493174Y304495D01*
X493186Y304489D01*
X493196Y304481D01*
X493365Y304396D01*
X493531Y304309D01*
X493544Y304306D01*
X493556Y304300D01*
X493738Y304250D01*
X493918Y304198D01*
X493932Y304197D01*
X493945Y304193D01*
X494133Y304181D01*
X494320Y304165D01*
X494333Y304167D01*
X494346Y304166D01*
X494534Y304190D01*
X494719Y304212D01*
X494732Y304216D01*
X494745Y304218D01*
X495061Y304320D01*
X495378Y304450D01*
X495378Y304451D01*
X496223Y304801D01*
X499457Y304801D01*
X502445Y303563D01*
X504731Y301277D01*
X505698Y298943D01*
X505708Y298923D01*
X505715Y298902D01*
X505804Y298746D01*
X505888Y298588D01*
X505902Y298571D01*
X505913Y298551D01*
X506030Y298416D01*
X506145Y298277D01*
X506162Y298263D01*
X506176Y298246D01*
X506318Y298137D01*
X506457Y298024D01*
X506477Y298013D01*
X506495Y298000D01*
X506655Y297920D01*
X506814Y297837D01*
X506835Y297830D01*
X506855Y297820D01*
X507029Y297774D01*
X507200Y297724D01*
X507222Y297722D01*
X507244Y297716D01*
X507575Y297689D01*
X511688Y297689D01*
X511706Y297691D01*
X511724Y297689D01*
X511906Y297710D01*
X512089Y297729D01*
X512106Y297734D01*
X512123Y297736D01*
X512298Y297793D01*
X512474Y297847D01*
X512489Y297855D01*
X512506Y297861D01*
X512666Y297951D01*
X512828Y298039D01*
X512841Y298050D01*
X512857Y298059D01*
X512996Y298179D01*
X513137Y298296D01*
X513148Y298310D01*
X513162Y298322D01*
X513274Y298467D01*
X513389Y298610D01*
X513397Y298626D01*
X513408Y298640D01*
X513490Y298805D01*
X513575Y298967D01*
X513580Y298984D01*
X513588Y299000D01*
X513635Y299178D01*
X513686Y299354D01*
X513688Y299372D01*
X513692Y299389D01*
X513719Y299720D01*
X513719Y304386D01*
X513777Y304460D01*
X513887Y304595D01*
X513900Y304619D01*
X513916Y304640D01*
X513994Y304797D01*
X514076Y304951D01*
X514084Y304977D01*
X514096Y305001D01*
X514141Y305170D01*
X514191Y305337D01*
X514193Y305364D01*
X514200Y305389D01*
X514227Y305720D01*
X514227Y306577D01*
X529268Y306577D01*
X544309Y306577D01*
X544309Y305720D01*
X544311Y305694D01*
X544309Y305667D01*
X544331Y305492D01*
X544349Y305320D01*
X544356Y305294D01*
X544360Y305267D01*
X544416Y305101D01*
X544467Y304935D01*
X544480Y304911D01*
X544488Y304886D01*
X544575Y304734D01*
X544659Y304581D01*
X544676Y304560D01*
X544689Y304537D01*
X544817Y304386D01*
X544817Y276236D01*
X544818Y276227D01*
X544817Y276218D01*
X544838Y276027D01*
X544857Y275835D01*
X544859Y275827D01*
X544860Y275818D01*
X544918Y275636D01*
X544975Y275451D01*
X544979Y275443D01*
X544982Y275434D01*
X545075Y275266D01*
X545167Y275097D01*
X545172Y275090D01*
X545177Y275082D01*
X545302Y274934D01*
X545424Y274787D01*
X545431Y274782D01*
X545437Y274775D01*
X545589Y274655D01*
X545738Y274535D01*
X545746Y274531D01*
X545753Y274525D01*
X545925Y274438D01*
X546095Y274349D01*
X546104Y274347D01*
X546112Y274343D01*
X546298Y274291D01*
X546482Y274238D01*
X546491Y274237D01*
X546500Y274235D01*
X546692Y274221D01*
X546884Y274205D01*
X546892Y274206D01*
X546901Y274206D01*
X547094Y274230D01*
X547283Y274252D01*
X547292Y274255D01*
X547301Y274256D01*
X547484Y274317D01*
X547666Y274377D01*
X547674Y274381D01*
X547682Y274384D01*
X547848Y274480D01*
X548017Y274575D01*
X548024Y274581D01*
X548031Y274585D01*
X548284Y274800D01*
X549992Y276508D01*
X552766Y277657D01*
X555770Y277657D01*
X558544Y276508D01*
X560668Y274384D01*
X561817Y271610D01*
X561817Y268606D01*
X560668Y265832D01*
X558544Y263708D01*
X555770Y262559D01*
X552766Y262559D01*
X549992Y263708D01*
X547868Y265832D01*
X546719Y268606D01*
X546719Y269844D01*
X546718Y269853D01*
X546719Y269862D01*
X546698Y270054D01*
X546679Y270244D01*
X546677Y270253D01*
X546676Y270262D01*
X546618Y270445D01*
X546561Y270629D01*
X546557Y270637D01*
X546554Y270646D01*
X546461Y270815D01*
X546369Y270983D01*
X546364Y270990D01*
X546359Y270998D01*
X546234Y271146D01*
X546112Y271293D01*
X546105Y271298D01*
X546099Y271305D01*
X545947Y271425D01*
X545798Y271545D01*
X545790Y271549D01*
X545783Y271555D01*
X545610Y271642D01*
X545441Y271731D01*
X545432Y271733D01*
X545424Y271737D01*
X545239Y271789D01*
X545054Y271842D01*
X545045Y271843D01*
X545036Y271845D01*
X544844Y271859D01*
X544652Y271875D01*
X544644Y271874D01*
X544635Y271874D01*
X544443Y271850D01*
X544253Y271828D01*
X544244Y271825D01*
X544235Y271824D01*
X544053Y271763D01*
X543870Y271703D01*
X543862Y271699D01*
X543854Y271696D01*
X543686Y271600D01*
X543519Y271505D01*
X543512Y271499D01*
X543505Y271495D01*
X543252Y271280D01*
X543031Y271059D01*
X515478Y271059D01*
X515456Y271077D01*
X515321Y271187D01*
X515297Y271200D01*
X515276Y271216D01*
X515119Y271294D01*
X514965Y271376D01*
X514939Y271384D01*
X514915Y271396D01*
X514746Y271441D01*
X514579Y271491D01*
X514552Y271493D01*
X514527Y271500D01*
X514196Y271527D01*
X484381Y271527D01*
X482514Y272301D01*
X456198Y298616D01*
X456178Y298633D01*
X456160Y298654D01*
X456022Y298761D01*
X455887Y298871D01*
X455863Y298884D01*
X455842Y298900D01*
X455685Y298978D01*
X455531Y299060D01*
X455506Y299068D01*
X455482Y299080D01*
X455312Y299125D01*
X455145Y299175D01*
X455119Y299177D01*
X455093Y299184D01*
X454762Y299211D01*
X312446Y299211D01*
X312420Y299209D01*
X312393Y299211D01*
X312219Y299189D01*
X312046Y299171D01*
X312020Y299164D01*
X311994Y299160D01*
X311828Y299105D01*
X311661Y299053D01*
X311637Y299040D01*
X311612Y299032D01*
X311460Y298945D01*
X311307Y298861D01*
X311286Y298844D01*
X311263Y298831D01*
X311010Y298616D01*
X309764Y297370D01*
X306543Y296036D01*
X303057Y296036D01*
X299836Y297370D01*
X298590Y298616D01*
X298569Y298633D01*
X298552Y298654D01*
X298414Y298761D01*
X298278Y298871D01*
X298255Y298884D01*
X298234Y298900D01*
X298077Y298978D01*
X297923Y299060D01*
X297897Y299068D01*
X297873Y299080D01*
X297704Y299125D01*
X297537Y299175D01*
X297510Y299177D01*
X297484Y299184D01*
X297154Y299211D01*
X295654Y299211D01*
X295636Y299209D01*
X295618Y299211D01*
X295436Y299190D01*
X295253Y299171D01*
X295236Y299166D01*
X295219Y299164D01*
X295044Y299107D01*
X294868Y299053D01*
X294853Y299045D01*
X294836Y299039D01*
X294676Y298949D01*
X294514Y298861D01*
X294501Y298850D01*
X294485Y298841D01*
X294346Y298721D01*
X294205Y298604D01*
X294194Y298590D01*
X294180Y298578D01*
X294068Y298433D01*
X293953Y298290D01*
X293945Y298274D01*
X293934Y298260D01*
X293852Y298095D01*
X293767Y297933D01*
X293762Y297916D01*
X293754Y297900D01*
X293707Y297721D01*
X293656Y297546D01*
X293654Y297528D01*
X293650Y297511D01*
X293623Y297180D01*
X293623Y283464D01*
X293625Y283446D01*
X293623Y283428D01*
X293644Y283246D01*
X293663Y283063D01*
X293668Y283046D01*
X293670Y283029D01*
X293727Y282854D01*
X293781Y282678D01*
X293789Y282663D01*
X293795Y282646D01*
X293885Y282486D01*
X293973Y282324D01*
X293984Y282311D01*
X293993Y282295D01*
X294113Y282156D01*
X294230Y282015D01*
X294244Y282004D01*
X294256Y281990D01*
X294401Y281878D01*
X294544Y281763D01*
X294560Y281755D01*
X294574Y281744D01*
X294739Y281662D01*
X294901Y281577D01*
X294918Y281572D01*
X294934Y281564D01*
X295113Y281517D01*
X295288Y281466D01*
X295306Y281464D01*
X295323Y281460D01*
X295654Y281433D01*
X297790Y281433D01*
X297817Y281435D01*
X297843Y281433D01*
X298017Y281455D01*
X298191Y281473D01*
X298216Y281480D01*
X298243Y281484D01*
X298409Y281539D01*
X298576Y281591D01*
X298599Y281604D01*
X298625Y281612D01*
X298776Y281699D01*
X298930Y281783D01*
X298950Y281800D01*
X298973Y281813D01*
X299226Y282028D01*
X304462Y287263D01*
X306329Y288037D01*
X454655Y288037D01*
X456522Y287263D01*
X480557Y263228D01*
X481331Y261361D01*
X481331Y255730D01*
X481333Y255712D01*
X481331Y255694D01*
X481352Y255512D01*
X481371Y255329D01*
X481376Y255312D01*
X481378Y255295D01*
X481435Y255120D01*
X481489Y254944D01*
X481497Y254929D01*
X481503Y254912D01*
X481593Y254752D01*
X481681Y254590D01*
X481692Y254577D01*
X481701Y254561D01*
X481821Y254422D01*
X481938Y254281D01*
X481952Y254270D01*
X481964Y254256D01*
X482109Y254144D01*
X482252Y254029D01*
X482268Y254021D01*
X482282Y254010D01*
X482447Y253928D01*
X482609Y253843D01*
X482626Y253838D01*
X482642Y253830D01*
X482821Y253783D01*
X482996Y253732D01*
X483014Y253730D01*
X483031Y253726D01*
X483362Y253699D01*
X494023Y253699D01*
X495809Y251913D01*
X495809Y238760D01*
X495811Y238742D01*
X495809Y238724D01*
X495830Y238542D01*
X495849Y238359D01*
X495854Y238342D01*
X495856Y238325D01*
X495913Y238150D01*
X495967Y237974D01*
X495975Y237959D01*
X495981Y237942D01*
X496071Y237782D01*
X496159Y237620D01*
X496170Y237607D01*
X496179Y237591D01*
X496299Y237452D01*
X496416Y237311D01*
X496430Y237300D01*
X496442Y237286D01*
X496587Y237174D01*
X496730Y237059D01*
X496746Y237051D01*
X496760Y237040D01*
X496925Y236958D01*
X497087Y236873D01*
X497104Y236868D01*
X497120Y236860D01*
X497299Y236813D01*
X497474Y236762D01*
X497492Y236760D01*
X497509Y236756D01*
X497840Y236729D01*
X504947Y236729D01*
X506814Y235955D01*
X513577Y229192D01*
X514351Y227325D01*
X514351Y224280D01*
X514353Y224262D01*
X514351Y224244D01*
X514372Y224062D01*
X514391Y223879D01*
X514396Y223862D01*
X514398Y223845D01*
X514455Y223670D01*
X514509Y223494D01*
X514517Y223479D01*
X514523Y223462D01*
X514613Y223302D01*
X514701Y223140D01*
X514712Y223127D01*
X514721Y223111D01*
X514841Y222972D01*
X514958Y222831D01*
X514972Y222820D01*
X514984Y222806D01*
X515129Y222694D01*
X515272Y222579D01*
X515288Y222571D01*
X515302Y222560D01*
X515467Y222478D01*
X515629Y222393D01*
X515646Y222388D01*
X515662Y222380D01*
X515841Y222333D01*
X516016Y222282D01*
X516034Y222280D01*
X516051Y222276D01*
X516382Y222249D01*
X523113Y222249D01*
X524899Y220463D01*
X524899Y219812D01*
X524901Y219794D01*
X524899Y219776D01*
X524921Y219593D01*
X524939Y219411D01*
X524944Y219394D01*
X524946Y219377D01*
X525003Y219201D01*
X525057Y219026D01*
X525065Y219011D01*
X525071Y218994D01*
X525161Y218834D01*
X525249Y218672D01*
X525260Y218659D01*
X525269Y218643D01*
X525389Y218504D01*
X525506Y218363D01*
X525520Y218352D01*
X525532Y218338D01*
X525677Y218226D01*
X525820Y218111D01*
X525836Y218103D01*
X525850Y218092D01*
X526015Y218010D01*
X526177Y217925D01*
X526194Y217920D01*
X526210Y217912D01*
X526389Y217865D01*
X526564Y217814D01*
X526582Y217812D01*
X526599Y217808D01*
X526930Y217781D01*
X527170Y217781D01*
X527188Y217783D01*
X527206Y217781D01*
X527388Y217802D01*
X527571Y217821D01*
X527588Y217826D01*
X527605Y217828D01*
X527780Y217885D01*
X527956Y217939D01*
X527971Y217947D01*
X527988Y217953D01*
X528148Y218043D01*
X528310Y218131D01*
X528323Y218142D01*
X528339Y218151D01*
X528478Y218271D01*
X528619Y218388D01*
X528630Y218402D01*
X528644Y218414D01*
X528756Y218559D01*
X528871Y218702D01*
X528879Y218718D01*
X528890Y218732D01*
X528972Y218897D01*
X529057Y219059D01*
X529062Y219076D01*
X529070Y219092D01*
X529117Y219271D01*
X529168Y219446D01*
X529170Y219464D01*
X529174Y219481D01*
X529201Y219812D01*
X529201Y220463D01*
X530987Y222249D01*
X548513Y222249D01*
X550299Y220463D01*
X550299Y204937D01*
X549594Y204233D01*
X549496Y204113D01*
X549392Y203997D01*
X549368Y203957D01*
X549339Y203921D01*
X549266Y203784D01*
X549187Y203650D01*
X549172Y203606D01*
X549150Y203565D01*
X549106Y203417D01*
X549055Y203270D01*
X549049Y203224D01*
X549036Y203179D01*
X549022Y203025D01*
X549000Y202871D01*
X549003Y202825D01*
X548999Y202778D01*
X549016Y202624D01*
X549026Y202470D01*
X549038Y202425D01*
X549043Y202378D01*
X549089Y202230D01*
X549129Y202081D01*
X549152Y202033D01*
X549164Y201994D01*
X549206Y201918D01*
X549271Y201781D01*
X549618Y201181D01*
X549791Y200535D01*
X549791Y196949D01*
X540968Y196949D01*
X540950Y196947D01*
X540933Y196949D01*
X540750Y196928D01*
X540568Y196909D01*
X540551Y196904D01*
X540533Y196902D01*
X540358Y196845D01*
X540183Y196791D01*
X540167Y196783D01*
X540150Y196777D01*
X539990Y196687D01*
X539829Y196599D01*
X539815Y196588D01*
X539799Y196579D01*
X539747Y196534D01*
X539642Y196619D01*
X539626Y196627D01*
X539612Y196638D01*
X539447Y196720D01*
X539284Y196805D01*
X539267Y196810D01*
X539251Y196818D01*
X539073Y196865D01*
X538898Y196916D01*
X538880Y196918D01*
X538863Y196922D01*
X538532Y196949D01*
X529709Y196949D01*
X529709Y200535D01*
X529882Y201181D01*
X530229Y201781D01*
X530293Y201922D01*
X530363Y202060D01*
X530375Y202105D01*
X530395Y202147D01*
X530429Y202299D01*
X530471Y202448D01*
X530474Y202495D01*
X530485Y202540D01*
X530489Y202694D01*
X530500Y202850D01*
X530494Y202896D01*
X530496Y202942D01*
X530469Y203095D01*
X530450Y203249D01*
X530435Y203293D01*
X530427Y203339D01*
X530371Y203484D01*
X530322Y203631D01*
X530298Y203671D01*
X530281Y203714D01*
X530198Y203845D01*
X530121Y203980D01*
X530087Y204020D01*
X530065Y204054D01*
X530005Y204116D01*
X529906Y204233D01*
X529201Y204937D01*
X529201Y205588D01*
X529199Y205606D01*
X529201Y205624D01*
X529180Y205806D01*
X529161Y205989D01*
X529156Y206006D01*
X529154Y206023D01*
X529097Y206198D01*
X529043Y206374D01*
X529035Y206389D01*
X529029Y206406D01*
X528939Y206566D01*
X528851Y206728D01*
X528840Y206741D01*
X528831Y206757D01*
X528711Y206896D01*
X528594Y207037D01*
X528580Y207048D01*
X528568Y207062D01*
X528423Y207174D01*
X528280Y207289D01*
X528264Y207297D01*
X528250Y207308D01*
X528085Y207390D01*
X527923Y207475D01*
X527906Y207480D01*
X527890Y207488D01*
X527711Y207535D01*
X527536Y207586D01*
X527518Y207588D01*
X527501Y207592D01*
X527170Y207619D01*
X526930Y207619D01*
X526912Y207617D01*
X526894Y207619D01*
X526712Y207598D01*
X526529Y207579D01*
X526512Y207574D01*
X526495Y207572D01*
X526320Y207515D01*
X526144Y207461D01*
X526129Y207453D01*
X526112Y207447D01*
X525952Y207357D01*
X525790Y207269D01*
X525777Y207258D01*
X525761Y207249D01*
X525622Y207129D01*
X525481Y207012D01*
X525470Y206998D01*
X525456Y206986D01*
X525344Y206841D01*
X525229Y206698D01*
X525221Y206682D01*
X525210Y206668D01*
X525128Y206503D01*
X525043Y206341D01*
X525038Y206324D01*
X525030Y206308D01*
X524983Y206129D01*
X524932Y205954D01*
X524930Y205936D01*
X524926Y205919D01*
X524899Y205588D01*
X524899Y204937D01*
X524194Y204233D01*
X524096Y204113D01*
X523992Y203997D01*
X523968Y203957D01*
X523939Y203921D01*
X523866Y203784D01*
X523787Y203650D01*
X523772Y203606D01*
X523750Y203565D01*
X523706Y203417D01*
X523655Y203270D01*
X523649Y203224D01*
X523636Y203179D01*
X523622Y203025D01*
X523600Y202871D01*
X523603Y202825D01*
X523599Y202778D01*
X523616Y202624D01*
X523626Y202470D01*
X523638Y202425D01*
X523643Y202378D01*
X523689Y202230D01*
X523729Y202081D01*
X523752Y202033D01*
X523764Y201994D01*
X523806Y201918D01*
X523871Y201781D01*
X524218Y201181D01*
X524391Y200535D01*
X524391Y196949D01*
X515568Y196949D01*
X515550Y196947D01*
X515533Y196949D01*
X515350Y196928D01*
X515168Y196909D01*
X515151Y196904D01*
X515133Y196902D01*
X514958Y196845D01*
X514783Y196791D01*
X514767Y196783D01*
X514750Y196777D01*
X514590Y196687D01*
X514429Y196599D01*
X514415Y196588D01*
X514399Y196579D01*
X514347Y196534D01*
X514242Y196619D01*
X514226Y196627D01*
X514212Y196638D01*
X514047Y196720D01*
X513884Y196805D01*
X513867Y196810D01*
X513851Y196818D01*
X513673Y196865D01*
X513498Y196916D01*
X513480Y196918D01*
X513463Y196922D01*
X513132Y196949D01*
X504309Y196949D01*
X504309Y200535D01*
X504482Y201181D01*
X504829Y201781D01*
X504893Y201922D01*
X504963Y202060D01*
X504975Y202105D01*
X504995Y202147D01*
X505029Y202299D01*
X505071Y202448D01*
X505074Y202495D01*
X505085Y202540D01*
X505089Y202694D01*
X505100Y202850D01*
X505094Y202896D01*
X505096Y202942D01*
X505069Y203095D01*
X505050Y203249D01*
X505035Y203293D01*
X505027Y203339D01*
X504971Y203484D01*
X504922Y203631D01*
X504898Y203671D01*
X504881Y203714D01*
X504798Y203845D01*
X504721Y203980D01*
X504687Y204020D01*
X504665Y204054D01*
X504605Y204116D01*
X504506Y204233D01*
X503801Y204937D01*
X503801Y220509D01*
X503849Y220567D01*
X503862Y220591D01*
X503878Y220612D01*
X503956Y220769D01*
X504038Y220923D01*
X504046Y220949D01*
X504058Y220973D01*
X504103Y221142D01*
X504153Y221309D01*
X504155Y221335D01*
X504162Y221361D01*
X504189Y221692D01*
X504189Y223368D01*
X504187Y223395D01*
X504189Y223421D01*
X504167Y223595D01*
X504149Y223769D01*
X504142Y223794D01*
X504138Y223821D01*
X504083Y223987D01*
X504031Y224154D01*
X504018Y224177D01*
X504010Y224203D01*
X503923Y224354D01*
X503839Y224508D01*
X503822Y224528D01*
X503809Y224551D01*
X503594Y224804D01*
X502426Y225972D01*
X502406Y225989D01*
X502388Y226010D01*
X502250Y226117D01*
X502115Y226227D01*
X502091Y226240D01*
X502070Y226256D01*
X501913Y226334D01*
X501759Y226416D01*
X501734Y226424D01*
X501710Y226436D01*
X501540Y226481D01*
X501373Y226531D01*
X501347Y226533D01*
X501321Y226540D01*
X500990Y226567D01*
X490733Y226567D01*
X488866Y227341D01*
X484643Y231564D01*
X483780Y233647D01*
X483769Y233667D01*
X483762Y233688D01*
X483674Y233844D01*
X483590Y234002D01*
X483575Y234019D01*
X483564Y234039D01*
X483448Y234174D01*
X483333Y234313D01*
X483316Y234327D01*
X483301Y234344D01*
X483160Y234453D01*
X483021Y234566D01*
X483001Y234577D01*
X482983Y234590D01*
X482823Y234670D01*
X482664Y234753D01*
X482643Y234760D01*
X482623Y234770D01*
X482449Y234816D01*
X482278Y234866D01*
X482255Y234868D01*
X482234Y234874D01*
X481903Y234901D01*
X471142Y234901D01*
X471025Y234997D01*
X471009Y235006D01*
X470995Y235017D01*
X470832Y235100D01*
X470669Y235186D01*
X470652Y235191D01*
X470636Y235199D01*
X470459Y235248D01*
X470283Y235301D01*
X470266Y235302D01*
X470248Y235307D01*
X470065Y235320D01*
X469882Y235337D01*
X469865Y235335D01*
X469847Y235336D01*
X469664Y235313D01*
X469482Y235294D01*
X469465Y235288D01*
X469447Y235286D01*
X469273Y235227D01*
X469098Y235172D01*
X469083Y235163D01*
X469066Y235158D01*
X468906Y235066D01*
X468746Y234977D01*
X468732Y234966D01*
X468717Y234957D01*
X468651Y234901D01*
X458442Y234901D01*
X458325Y234997D01*
X458309Y235006D01*
X458295Y235017D01*
X458132Y235100D01*
X457969Y235186D01*
X457952Y235191D01*
X457936Y235199D01*
X457759Y235248D01*
X457583Y235301D01*
X457566Y235302D01*
X457548Y235307D01*
X457365Y235320D01*
X457182Y235337D01*
X457165Y235335D01*
X457147Y235336D01*
X456964Y235313D01*
X456782Y235294D01*
X456765Y235288D01*
X456747Y235286D01*
X456573Y235227D01*
X456398Y235172D01*
X456383Y235163D01*
X456366Y235158D01*
X456206Y235066D01*
X456046Y234977D01*
X456032Y234966D01*
X456017Y234957D01*
X455951Y234901D01*
X445262Y234901D01*
X445244Y234899D01*
X445226Y234901D01*
X445044Y234880D01*
X444861Y234861D01*
X444844Y234856D01*
X444827Y234854D01*
X444652Y234797D01*
X444476Y234743D01*
X444461Y234735D01*
X444444Y234729D01*
X444284Y234639D01*
X444122Y234551D01*
X444109Y234540D01*
X444093Y234531D01*
X443954Y234411D01*
X443813Y234294D01*
X443802Y234280D01*
X443788Y234268D01*
X443676Y234123D01*
X443561Y233980D01*
X443553Y233964D01*
X443542Y233950D01*
X443460Y233785D01*
X443375Y233623D01*
X443370Y233606D01*
X443362Y233590D01*
X443315Y233411D01*
X443264Y233236D01*
X443262Y233218D01*
X443258Y233201D01*
X443231Y232870D01*
X443231Y217932D01*
X443233Y217914D01*
X443231Y217896D01*
X443252Y217714D01*
X443271Y217531D01*
X443276Y217514D01*
X443278Y217497D01*
X443335Y217322D01*
X443389Y217146D01*
X443397Y217131D01*
X443403Y217114D01*
X443493Y216954D01*
X443581Y216792D01*
X443592Y216779D01*
X443601Y216763D01*
X443721Y216624D01*
X443838Y216483D01*
X443852Y216472D01*
X443864Y216458D01*
X444009Y216346D01*
X444152Y216231D01*
X444168Y216223D01*
X444182Y216212D01*
X444347Y216130D01*
X444509Y216045D01*
X444526Y216040D01*
X444542Y216032D01*
X444721Y215985D01*
X444896Y215934D01*
X444914Y215932D01*
X444931Y215928D01*
X445262Y215901D01*
X464719Y215901D01*
X464750Y215904D01*
X464781Y215902D01*
X464950Y215924D01*
X465120Y215941D01*
X465149Y215950D01*
X465180Y215954D01*
X465496Y216055D01*
X466349Y216409D01*
X476370Y216409D01*
X476388Y216411D01*
X476406Y216409D01*
X476588Y216430D01*
X476771Y216449D01*
X476788Y216454D01*
X476805Y216456D01*
X476980Y216513D01*
X477156Y216567D01*
X477171Y216575D01*
X477188Y216581D01*
X477348Y216671D01*
X477510Y216759D01*
X477523Y216770D01*
X477539Y216779D01*
X477678Y216899D01*
X477819Y217016D01*
X477830Y217030D01*
X477844Y217042D01*
X477956Y217187D01*
X478071Y217330D01*
X478079Y217346D01*
X478090Y217360D01*
X478172Y217525D01*
X478257Y217687D01*
X478262Y217704D01*
X478270Y217720D01*
X478317Y217899D01*
X478368Y218074D01*
X478370Y218092D01*
X478374Y218109D01*
X478401Y218440D01*
X478401Y220463D01*
X480187Y222249D01*
X497713Y222249D01*
X499499Y220463D01*
X499499Y204937D01*
X498794Y204233D01*
X498696Y204113D01*
X498592Y203997D01*
X498568Y203957D01*
X498539Y203921D01*
X498466Y203784D01*
X498387Y203650D01*
X498372Y203606D01*
X498350Y203565D01*
X498306Y203417D01*
X498255Y203270D01*
X498249Y203224D01*
X498236Y203179D01*
X498222Y203025D01*
X498200Y202871D01*
X498203Y202825D01*
X498199Y202778D01*
X498216Y202624D01*
X498226Y202470D01*
X498238Y202425D01*
X498243Y202378D01*
X498289Y202230D01*
X498329Y202081D01*
X498352Y202033D01*
X498364Y201994D01*
X498406Y201918D01*
X498471Y201781D01*
X498818Y201181D01*
X498991Y200535D01*
X498991Y196949D01*
X490168Y196949D01*
X490150Y196947D01*
X490133Y196949D01*
X489950Y196928D01*
X489768Y196909D01*
X489751Y196904D01*
X489733Y196902D01*
X489558Y196845D01*
X489383Y196791D01*
X489367Y196783D01*
X489350Y196777D01*
X489190Y196687D01*
X489029Y196599D01*
X489015Y196588D01*
X488999Y196579D01*
X488947Y196534D01*
X488842Y196619D01*
X488826Y196627D01*
X488812Y196638D01*
X488647Y196720D01*
X488484Y196805D01*
X488467Y196810D01*
X488451Y196818D01*
X488273Y196865D01*
X488098Y196916D01*
X488080Y196918D01*
X488063Y196922D01*
X487732Y196949D01*
X478909Y196949D01*
X478909Y200535D01*
X479082Y201181D01*
X479429Y201781D01*
X479493Y201922D01*
X479563Y202060D01*
X479575Y202105D01*
X479595Y202147D01*
X479629Y202299D01*
X479671Y202448D01*
X479674Y202495D01*
X479685Y202540D01*
X479689Y202694D01*
X479700Y202850D01*
X479694Y202896D01*
X479696Y202942D01*
X479669Y203095D01*
X479650Y203249D01*
X479635Y203293D01*
X479627Y203339D01*
X479571Y203484D01*
X479522Y203631D01*
X479498Y203671D01*
X479481Y203714D01*
X479398Y203845D01*
X479321Y203980D01*
X479287Y204020D01*
X479265Y204054D01*
X479205Y204116D01*
X479106Y204233D01*
X478133Y205206D01*
X478051Y205356D01*
X478040Y205369D01*
X478031Y205385D01*
X477912Y205523D01*
X477794Y205665D01*
X477780Y205676D01*
X477768Y205690D01*
X477623Y205802D01*
X477480Y205917D01*
X477464Y205925D01*
X477450Y205936D01*
X477286Y206018D01*
X477123Y206103D01*
X477106Y206108D01*
X477090Y206116D01*
X476911Y206163D01*
X476736Y206214D01*
X476718Y206216D01*
X476701Y206220D01*
X476370Y206247D01*
X473710Y206247D01*
X473692Y206245D01*
X473674Y206247D01*
X473492Y206226D01*
X473309Y206207D01*
X473292Y206202D01*
X473275Y206200D01*
X473100Y206143D01*
X472924Y206089D01*
X472909Y206081D01*
X472892Y206075D01*
X472732Y205985D01*
X472570Y205897D01*
X472557Y205886D01*
X472541Y205877D01*
X472402Y205757D01*
X472261Y205640D01*
X472250Y205626D01*
X472236Y205614D01*
X472124Y205469D01*
X472009Y205326D01*
X472001Y205310D01*
X471990Y205296D01*
X471908Y205131D01*
X471823Y204969D01*
X471818Y204952D01*
X471810Y204936D01*
X471763Y204757D01*
X471712Y204582D01*
X471710Y204564D01*
X471706Y204547D01*
X471679Y204216D01*
X471679Y192285D01*
X469893Y190499D01*
X414027Y190499D01*
X412241Y192285D01*
X412241Y214115D01*
X414027Y215901D01*
X431038Y215901D01*
X431056Y215903D01*
X431074Y215901D01*
X431256Y215922D01*
X431439Y215941D01*
X431456Y215946D01*
X431473Y215948D01*
X431648Y216005D01*
X431824Y216059D01*
X431839Y216067D01*
X431856Y216073D01*
X432016Y216163D01*
X432178Y216251D01*
X432191Y216262D01*
X432207Y216271D01*
X432346Y216391D01*
X432487Y216508D01*
X432498Y216522D01*
X432512Y216534D01*
X432624Y216679D01*
X432739Y216822D01*
X432747Y216838D01*
X432758Y216852D01*
X432840Y217017D01*
X432925Y217179D01*
X432930Y217196D01*
X432938Y217212D01*
X432985Y217391D01*
X433036Y217566D01*
X433038Y217584D01*
X433042Y217601D01*
X433069Y217932D01*
X433069Y230480D01*
X433068Y230489D01*
X433069Y230498D01*
X433048Y230691D01*
X433029Y230881D01*
X433027Y230889D01*
X433026Y230898D01*
X432967Y231083D01*
X432911Y231266D01*
X432907Y231274D01*
X432904Y231282D01*
X432811Y231450D01*
X432719Y231620D01*
X432714Y231627D01*
X432709Y231634D01*
X432585Y231781D01*
X432462Y231929D01*
X432455Y231935D01*
X432449Y231941D01*
X432297Y232061D01*
X432148Y232181D01*
X432140Y232185D01*
X432133Y232191D01*
X431960Y232279D01*
X431791Y232367D01*
X431782Y232369D01*
X431774Y232373D01*
X431588Y232425D01*
X431404Y232478D01*
X431395Y232479D01*
X431386Y232481D01*
X431193Y232495D01*
X431002Y232511D01*
X430994Y232510D01*
X430985Y232511D01*
X430792Y232486D01*
X430603Y232464D01*
X430594Y232461D01*
X430585Y232460D01*
X430403Y232399D01*
X430220Y232339D01*
X430212Y232335D01*
X430204Y232332D01*
X430037Y232236D01*
X429869Y232141D01*
X429862Y232136D01*
X429855Y232131D01*
X429602Y231916D01*
X429535Y231850D01*
X429515Y231825D01*
X429490Y231804D01*
X429284Y231544D01*
X429109Y231283D01*
X428854Y231113D01*
X428828Y231091D01*
X428798Y231074D01*
X428545Y230859D01*
X428328Y230643D01*
X428038Y230523D01*
X428010Y230507D01*
X427979Y230497D01*
X427689Y230336D01*
X427683Y230333D01*
X427683Y230332D01*
X390754Y205713D01*
X390728Y205691D01*
X390698Y205674D01*
X390445Y205459D01*
X390228Y205243D01*
X389938Y205123D01*
X389909Y205107D01*
X389879Y205097D01*
X389589Y204936D01*
X389327Y204762D01*
X389027Y204703D01*
X388994Y204693D01*
X388960Y204688D01*
X388644Y204587D01*
X388361Y204469D01*
X388047Y204469D01*
X388014Y204466D01*
X387982Y204468D01*
X387653Y204431D01*
X387345Y204370D01*
X387044Y204430D01*
X387010Y204433D01*
X386977Y204442D01*
X386646Y204469D01*
X377190Y204469D01*
X377172Y204467D01*
X377154Y204469D01*
X376972Y204448D01*
X376789Y204429D01*
X376772Y204424D01*
X376755Y204422D01*
X376580Y204365D01*
X376404Y204311D01*
X376389Y204303D01*
X376372Y204297D01*
X376212Y204207D01*
X376050Y204119D01*
X376037Y204108D01*
X376021Y204099D01*
X375882Y203979D01*
X375741Y203862D01*
X375730Y203848D01*
X375716Y203836D01*
X375604Y203691D01*
X375489Y203548D01*
X375481Y203532D01*
X375470Y203518D01*
X375388Y203353D01*
X375303Y203191D01*
X375298Y203174D01*
X375290Y203158D01*
X375243Y202979D01*
X375192Y202804D01*
X375190Y202786D01*
X375186Y202769D01*
X375159Y202438D01*
X375159Y192285D01*
X373373Y190499D01*
X317507Y190499D01*
X315721Y192285D01*
X315721Y204216D01*
X315719Y204234D01*
X315721Y204252D01*
X315700Y204434D01*
X315681Y204617D01*
X315676Y204634D01*
X315674Y204651D01*
X315617Y204826D01*
X315563Y205002D01*
X315555Y205017D01*
X315549Y205034D01*
X315459Y205194D01*
X315371Y205356D01*
X315360Y205369D01*
X315351Y205385D01*
X315232Y205523D01*
X315114Y205665D01*
X315100Y205676D01*
X315088Y205690D01*
X314943Y205802D01*
X314800Y205917D01*
X314784Y205925D01*
X314770Y205936D01*
X314606Y206018D01*
X314443Y206103D01*
X314426Y206108D01*
X314410Y206116D01*
X314231Y206163D01*
X314056Y206214D01*
X314038Y206216D01*
X314021Y206220D01*
X313690Y206247D01*
X311030Y206247D01*
X311012Y206245D01*
X310994Y206247D01*
X310812Y206226D01*
X310629Y206207D01*
X310612Y206202D01*
X310595Y206200D01*
X310420Y206143D01*
X310244Y206089D01*
X310229Y206081D01*
X310212Y206075D01*
X310052Y205985D01*
X309890Y205897D01*
X309877Y205886D01*
X309861Y205877D01*
X309722Y205757D01*
X309581Y205640D01*
X309570Y205626D01*
X309556Y205614D01*
X309444Y205469D01*
X309329Y205326D01*
X309321Y205310D01*
X309310Y205296D01*
X309262Y205201D01*
X308294Y204233D01*
X308196Y204113D01*
X308092Y203997D01*
X308068Y203957D01*
X308039Y203921D01*
X307966Y203784D01*
X307887Y203650D01*
X307872Y203606D01*
X307850Y203565D01*
X307806Y203417D01*
X307755Y203270D01*
X307749Y203224D01*
X307736Y203179D01*
X307722Y203025D01*
X307700Y202871D01*
X307703Y202825D01*
X307699Y202778D01*
X307716Y202624D01*
X307726Y202470D01*
X307738Y202425D01*
X307743Y202378D01*
X307789Y202230D01*
X307829Y202081D01*
X307852Y202033D01*
X307864Y201994D01*
X307906Y201918D01*
X307971Y201781D01*
X308318Y201181D01*
X308491Y200535D01*
X308491Y196949D01*
X299668Y196949D01*
X299650Y196947D01*
X299633Y196949D01*
X299450Y196928D01*
X299268Y196909D01*
X299251Y196904D01*
X299233Y196902D01*
X299058Y196845D01*
X298883Y196791D01*
X298867Y196783D01*
X298850Y196777D01*
X298690Y196687D01*
X298529Y196599D01*
X298515Y196588D01*
X298499Y196579D01*
X298447Y196534D01*
X298342Y196619D01*
X298326Y196627D01*
X298312Y196638D01*
X298147Y196720D01*
X297984Y196805D01*
X297967Y196810D01*
X297951Y196818D01*
X297773Y196865D01*
X297598Y196916D01*
X297580Y196918D01*
X297563Y196922D01*
X297232Y196949D01*
X288409Y196949D01*
X288409Y200535D01*
X288582Y201181D01*
X288929Y201781D01*
X288993Y201922D01*
X289063Y202060D01*
X289075Y202105D01*
X289095Y202147D01*
X289129Y202299D01*
X289171Y202448D01*
X289174Y202495D01*
X289185Y202540D01*
X289189Y202694D01*
X289200Y202850D01*
X289194Y202896D01*
X289196Y202942D01*
X289169Y203095D01*
X289150Y203249D01*
X289135Y203293D01*
X289127Y203339D01*
X289071Y203484D01*
X289022Y203631D01*
X288998Y203671D01*
X288981Y203714D01*
X288898Y203845D01*
X288821Y203980D01*
X288787Y204020D01*
X288765Y204054D01*
X288705Y204116D01*
X288606Y204233D01*
X287901Y204937D01*
X287901Y220463D01*
X289687Y222249D01*
X307363Y222249D01*
X307377Y222250D01*
X307390Y222249D01*
X307576Y222270D01*
X307764Y222289D01*
X307777Y222293D01*
X307790Y222294D01*
X307969Y222352D01*
X308149Y222407D01*
X308161Y222413D01*
X308174Y222417D01*
X308338Y222509D01*
X308503Y222599D01*
X308513Y222607D01*
X308525Y222614D01*
X308668Y222736D01*
X308812Y222856D01*
X308821Y222867D01*
X308831Y222875D01*
X308947Y223024D01*
X309065Y223170D01*
X309071Y223182D01*
X309079Y223192D01*
X309164Y223361D01*
X309250Y223527D01*
X309254Y223540D01*
X309260Y223552D01*
X309309Y223733D01*
X309362Y223914D01*
X309363Y223928D01*
X309366Y223941D01*
X309379Y224129D01*
X309394Y224316D01*
X309393Y224329D01*
X309394Y224342D01*
X309369Y224530D01*
X309348Y224715D01*
X309343Y224728D01*
X309342Y224741D01*
X309240Y225057D01*
X308863Y225967D01*
X308863Y229201D01*
X310101Y232189D01*
X312387Y234475D01*
X314591Y235388D01*
X315737Y235863D01*
X315757Y235873D01*
X315778Y235880D01*
X315934Y235968D01*
X316092Y236053D01*
X316109Y236067D01*
X316129Y236078D01*
X316264Y236195D01*
X316403Y236309D01*
X316417Y236327D01*
X316434Y236341D01*
X316543Y236483D01*
X316656Y236622D01*
X316667Y236642D01*
X316680Y236659D01*
X316760Y236820D01*
X316843Y236978D01*
X316850Y237000D01*
X316860Y237020D01*
X316906Y237193D01*
X316956Y237365D01*
X316958Y237387D01*
X316964Y237409D01*
X316991Y237739D01*
X316991Y251913D01*
X318174Y253096D01*
X318191Y253117D01*
X318212Y253134D01*
X318319Y253272D01*
X318429Y253407D01*
X318442Y253431D01*
X318458Y253452D01*
X318536Y253609D01*
X318618Y253763D01*
X318626Y253789D01*
X318638Y253813D01*
X318683Y253982D01*
X318733Y254149D01*
X318735Y254176D01*
X318742Y254201D01*
X318769Y254532D01*
X318769Y256260D01*
X318767Y256286D01*
X318769Y256313D01*
X318747Y256487D01*
X318729Y256660D01*
X318722Y256686D01*
X318718Y256712D01*
X318663Y256878D01*
X318611Y257045D01*
X318598Y257069D01*
X318590Y257094D01*
X318503Y257246D01*
X318419Y257399D01*
X318402Y257420D01*
X318389Y257443D01*
X318174Y257696D01*
X316420Y259450D01*
X315086Y262671D01*
X315086Y266157D01*
X316420Y269378D01*
X318886Y271844D01*
X322107Y273178D01*
X325593Y273178D01*
X328814Y271844D01*
X331280Y269378D01*
X332614Y266157D01*
X332614Y262671D01*
X331280Y259450D01*
X329526Y257696D01*
X329509Y257675D01*
X329488Y257658D01*
X329381Y257520D01*
X329271Y257384D01*
X329258Y257361D01*
X329242Y257340D01*
X329164Y257183D01*
X329082Y257029D01*
X329074Y257003D01*
X329062Y256979D01*
X329017Y256810D01*
X328967Y256643D01*
X328965Y256616D01*
X328958Y256590D01*
X328931Y256260D01*
X328931Y255730D01*
X328933Y255712D01*
X328931Y255694D01*
X328952Y255512D01*
X328971Y255329D01*
X328976Y255312D01*
X328978Y255295D01*
X329035Y255120D01*
X329089Y254944D01*
X329097Y254929D01*
X329103Y254912D01*
X329193Y254752D01*
X329281Y254590D01*
X329292Y254577D01*
X329301Y254561D01*
X329421Y254422D01*
X329538Y254281D01*
X329552Y254270D01*
X329564Y254256D01*
X329709Y254144D01*
X329852Y254029D01*
X329868Y254021D01*
X329882Y254010D01*
X330047Y253928D01*
X330209Y253843D01*
X330226Y253838D01*
X330242Y253830D01*
X330421Y253783D01*
X330596Y253732D01*
X330614Y253730D01*
X330631Y253726D01*
X330962Y253699D01*
X341658Y253699D01*
X341775Y253603D01*
X341791Y253594D01*
X341805Y253583D01*
X341968Y253500D01*
X342131Y253414D01*
X342148Y253409D01*
X342164Y253401D01*
X342341Y253352D01*
X342517Y253299D01*
X342534Y253298D01*
X342552Y253293D01*
X342735Y253280D01*
X342918Y253263D01*
X342935Y253265D01*
X342953Y253264D01*
X343136Y253287D01*
X343318Y253306D01*
X343335Y253312D01*
X343353Y253314D01*
X343527Y253373D01*
X343702Y253428D01*
X343717Y253437D01*
X343734Y253442D01*
X343894Y253534D01*
X344054Y253623D01*
X344068Y253634D01*
X344083Y253643D01*
X344149Y253699D01*
X354358Y253699D01*
X354475Y253603D01*
X354491Y253594D01*
X354505Y253583D01*
X354668Y253500D01*
X354831Y253414D01*
X354848Y253409D01*
X354864Y253401D01*
X355041Y253352D01*
X355217Y253299D01*
X355234Y253298D01*
X355252Y253293D01*
X355435Y253280D01*
X355618Y253263D01*
X355635Y253265D01*
X355653Y253264D01*
X355836Y253287D01*
X356018Y253306D01*
X356035Y253312D01*
X356053Y253314D01*
X356227Y253373D01*
X356402Y253428D01*
X356417Y253437D01*
X356434Y253442D01*
X356594Y253534D01*
X356754Y253623D01*
X356768Y253634D01*
X356783Y253643D01*
X356849Y253699D01*
X367058Y253699D01*
X367175Y253603D01*
X367191Y253594D01*
X367205Y253583D01*
X367368Y253500D01*
X367531Y253414D01*
X367548Y253409D01*
X367564Y253401D01*
X367741Y253352D01*
X367917Y253299D01*
X367934Y253298D01*
X367952Y253293D01*
X368135Y253280D01*
X368318Y253263D01*
X368335Y253265D01*
X368353Y253264D01*
X368536Y253287D01*
X368718Y253306D01*
X368735Y253312D01*
X368753Y253314D01*
X368927Y253373D01*
X369102Y253428D01*
X369117Y253437D01*
X369134Y253442D01*
X369294Y253534D01*
X369454Y253623D01*
X369468Y253634D01*
X369483Y253643D01*
X369549Y253699D01*
X379758Y253699D01*
X379875Y253603D01*
X379891Y253594D01*
X379905Y253583D01*
X380068Y253500D01*
X380231Y253414D01*
X380248Y253409D01*
X380264Y253401D01*
X380441Y253352D01*
X380617Y253299D01*
X380634Y253298D01*
X380652Y253293D01*
X380835Y253280D01*
X381018Y253263D01*
X381035Y253265D01*
X381053Y253264D01*
X381236Y253287D01*
X381418Y253306D01*
X381435Y253312D01*
X381453Y253314D01*
X381627Y253373D01*
X381802Y253428D01*
X381817Y253437D01*
X381834Y253442D01*
X381994Y253534D01*
X382154Y253623D01*
X382168Y253634D01*
X382183Y253643D01*
X382249Y253699D01*
X392458Y253699D01*
X392575Y253603D01*
X392591Y253594D01*
X392605Y253583D01*
X392768Y253500D01*
X392931Y253414D01*
X392948Y253409D01*
X392964Y253401D01*
X393141Y253352D01*
X393317Y253299D01*
X393334Y253298D01*
X393352Y253293D01*
X393535Y253280D01*
X393718Y253263D01*
X393735Y253265D01*
X393753Y253264D01*
X393936Y253287D01*
X394118Y253306D01*
X394135Y253312D01*
X394153Y253314D01*
X394327Y253373D01*
X394502Y253428D01*
X394517Y253437D01*
X394534Y253442D01*
X394694Y253534D01*
X394854Y253623D01*
X394868Y253634D01*
X394883Y253643D01*
X394949Y253699D01*
X405123Y253699D01*
X405491Y253331D01*
X405611Y253233D01*
X405726Y253129D01*
X405766Y253105D01*
X405802Y253076D01*
X405939Y253003D01*
X406073Y252924D01*
X406117Y252909D01*
X406158Y252887D01*
X406307Y252843D01*
X406453Y252792D01*
X406499Y252786D01*
X406544Y252772D01*
X406698Y252758D01*
X406852Y252737D01*
X406898Y252740D01*
X406945Y252736D01*
X407099Y252753D01*
X407254Y252762D01*
X407299Y252774D01*
X407345Y252779D01*
X407493Y252826D01*
X407643Y252866D01*
X407690Y252889D01*
X407729Y252901D01*
X407805Y252943D01*
X407943Y253008D01*
X407959Y253018D01*
X408605Y253191D01*
X410719Y253191D01*
X410719Y244300D01*
X410720Y244283D01*
X410719Y244265D01*
X410740Y244082D01*
X410758Y243900D01*
X410764Y243883D01*
X410766Y243865D01*
X410823Y243690D01*
X410877Y243515D01*
X410885Y243499D01*
X410891Y243482D01*
X410981Y243322D01*
X411068Y243161D01*
X411080Y243147D01*
X411089Y243132D01*
X411209Y242992D01*
X411326Y242852D01*
X411340Y242840D01*
X411352Y242827D01*
X411497Y242714D01*
X411640Y242599D01*
X411656Y242591D01*
X411670Y242580D01*
X411835Y242498D01*
X411997Y242414D01*
X412014Y242409D01*
X412030Y242401D01*
X412208Y242353D01*
X412384Y242302D01*
X412402Y242301D01*
X412419Y242296D01*
X412750Y242269D01*
X412768Y242271D01*
X412785Y242269D01*
X412786Y242269D01*
X412968Y242291D01*
X413151Y242309D01*
X413168Y242314D01*
X413186Y242316D01*
X413360Y242373D01*
X413536Y242427D01*
X413551Y242436D01*
X413568Y242441D01*
X413729Y242532D01*
X413890Y242619D01*
X413903Y242630D01*
X413919Y242639D01*
X414058Y242759D01*
X414199Y242877D01*
X414210Y242891D01*
X414224Y242902D01*
X414336Y243047D01*
X414451Y243190D01*
X414460Y243206D01*
X414470Y243220D01*
X414552Y243385D01*
X414637Y243548D01*
X414642Y243565D01*
X414650Y243581D01*
X414698Y243759D01*
X414748Y243935D01*
X414750Y243952D01*
X414754Y243970D01*
X414781Y244300D01*
X414781Y253191D01*
X416895Y253191D01*
X417541Y253018D01*
X417557Y253008D01*
X417699Y252944D01*
X417837Y252874D01*
X417882Y252861D01*
X417924Y252842D01*
X418075Y252808D01*
X418225Y252766D01*
X418271Y252763D01*
X418317Y252752D01*
X418471Y252748D01*
X418626Y252737D01*
X418673Y252742D01*
X418719Y252741D01*
X418872Y252768D01*
X419026Y252787D01*
X419070Y252802D01*
X419116Y252810D01*
X419260Y252866D01*
X419407Y252915D01*
X419448Y252938D01*
X419491Y252955D01*
X419622Y253039D01*
X419756Y253116D01*
X419796Y253150D01*
X419831Y253172D01*
X419893Y253232D01*
X420009Y253331D01*
X420377Y253699D01*
X430558Y253699D01*
X430675Y253603D01*
X430691Y253594D01*
X430705Y253583D01*
X430868Y253500D01*
X431031Y253414D01*
X431048Y253409D01*
X431064Y253401D01*
X431241Y253352D01*
X431417Y253299D01*
X431434Y253298D01*
X431452Y253293D01*
X431635Y253280D01*
X431818Y253263D01*
X431835Y253265D01*
X431853Y253264D01*
X432036Y253287D01*
X432218Y253306D01*
X432235Y253312D01*
X432253Y253314D01*
X432427Y253373D01*
X432602Y253428D01*
X432617Y253437D01*
X432634Y253442D01*
X432794Y253534D01*
X432954Y253623D01*
X432968Y253634D01*
X432983Y253643D01*
X433049Y253699D01*
X443258Y253699D01*
X443375Y253603D01*
X443391Y253594D01*
X443405Y253583D01*
X443568Y253500D01*
X443731Y253414D01*
X443748Y253409D01*
X443764Y253401D01*
X443941Y253352D01*
X444117Y253299D01*
X444134Y253298D01*
X444152Y253293D01*
X444335Y253280D01*
X444518Y253263D01*
X444535Y253265D01*
X444553Y253264D01*
X444736Y253287D01*
X444918Y253306D01*
X444935Y253312D01*
X444953Y253314D01*
X445127Y253373D01*
X445302Y253428D01*
X445317Y253437D01*
X445334Y253442D01*
X445494Y253534D01*
X445654Y253623D01*
X445668Y253634D01*
X445683Y253643D01*
X445749Y253699D01*
X455958Y253699D01*
X456075Y253603D01*
X456091Y253594D01*
X456105Y253583D01*
X456269Y253500D01*
X456431Y253414D01*
X456448Y253409D01*
X456464Y253401D01*
X456641Y253352D01*
X456817Y253299D01*
X456835Y253298D01*
X456852Y253293D01*
X457035Y253280D01*
X457218Y253263D01*
X457236Y253265D01*
X457253Y253264D01*
X457435Y253287D01*
X457618Y253306D01*
X457635Y253312D01*
X457653Y253314D01*
X457826Y253372D01*
X458002Y253428D01*
X458018Y253437D01*
X458035Y253442D01*
X458194Y253534D01*
X458354Y253623D01*
X458368Y253634D01*
X458383Y253643D01*
X458449Y253699D01*
X469138Y253699D01*
X469156Y253701D01*
X469174Y253699D01*
X469356Y253720D01*
X469539Y253739D01*
X469556Y253744D01*
X469573Y253746D01*
X469748Y253803D01*
X469924Y253857D01*
X469939Y253865D01*
X469956Y253871D01*
X470116Y253961D01*
X470278Y254049D01*
X470291Y254060D01*
X470307Y254069D01*
X470446Y254189D01*
X470587Y254306D01*
X470598Y254320D01*
X470612Y254332D01*
X470724Y254477D01*
X470839Y254620D01*
X470847Y254636D01*
X470858Y254650D01*
X470940Y254815D01*
X471025Y254977D01*
X471030Y254994D01*
X471038Y255010D01*
X471085Y255189D01*
X471136Y255364D01*
X471138Y255382D01*
X471142Y255399D01*
X471169Y255730D01*
X471169Y257404D01*
X471167Y257431D01*
X471169Y257457D01*
X471147Y257631D01*
X471129Y257805D01*
X471122Y257830D01*
X471118Y257857D01*
X471063Y258023D01*
X471011Y258190D01*
X470998Y258213D01*
X470990Y258239D01*
X470903Y258390D01*
X470819Y258544D01*
X470802Y258564D01*
X470789Y258587D01*
X470574Y258840D01*
X452134Y277280D01*
X452114Y277297D01*
X452096Y277318D01*
X451958Y277425D01*
X451823Y277535D01*
X451799Y277548D01*
X451778Y277564D01*
X451621Y277642D01*
X451467Y277724D01*
X451442Y277732D01*
X451418Y277744D01*
X451248Y277789D01*
X451081Y277839D01*
X451055Y277841D01*
X451029Y277848D01*
X450698Y277875D01*
X310286Y277875D01*
X310259Y277873D01*
X310233Y277875D01*
X310059Y277853D01*
X309885Y277835D01*
X309860Y277828D01*
X309833Y277824D01*
X309667Y277769D01*
X309500Y277717D01*
X309477Y277704D01*
X309451Y277696D01*
X309300Y277609D01*
X309146Y277525D01*
X309126Y277508D01*
X309103Y277495D01*
X308850Y277280D01*
X303614Y272045D01*
X301747Y271271D01*
X295654Y271271D01*
X295636Y271269D01*
X295618Y271271D01*
X295436Y271250D01*
X295253Y271231D01*
X295236Y271226D01*
X295219Y271224D01*
X295044Y271167D01*
X294868Y271113D01*
X294853Y271105D01*
X294836Y271099D01*
X294676Y271009D01*
X294514Y270921D01*
X294501Y270910D01*
X294485Y270901D01*
X294346Y270781D01*
X294205Y270664D01*
X294194Y270650D01*
X294180Y270638D01*
X294068Y270493D01*
X293953Y270350D01*
X293945Y270334D01*
X293934Y270320D01*
X293852Y270155D01*
X293767Y269993D01*
X293762Y269976D01*
X293754Y269960D01*
X293706Y269781D01*
X293656Y269606D01*
X293654Y269588D01*
X293650Y269571D01*
X293635Y269387D01*
X292062Y267814D01*
X292051Y267801D01*
X292037Y267789D01*
X291923Y267645D01*
X291807Y267503D01*
X291798Y267487D01*
X291787Y267473D01*
X291704Y267309D01*
X291618Y267147D01*
X291613Y267130D01*
X291605Y267114D01*
X291556Y266937D01*
X291503Y266761D01*
X291502Y266743D01*
X291497Y266726D01*
X291484Y266543D01*
X291467Y266360D01*
X291469Y266342D01*
X291468Y266325D01*
X291491Y266143D01*
X291510Y265960D01*
X291516Y265943D01*
X291518Y265925D01*
X291576Y265752D01*
X291632Y265576D01*
X291641Y265560D01*
X291646Y265544D01*
X291738Y265385D01*
X291827Y265224D01*
X291838Y265210D01*
X291847Y265195D01*
X292062Y264942D01*
X293901Y263103D01*
X293901Y246577D01*
X292115Y244791D01*
X285616Y244791D01*
X285607Y244790D01*
X285598Y244791D01*
X285406Y244770D01*
X285216Y244751D01*
X285207Y244749D01*
X285198Y244748D01*
X285015Y244690D01*
X284831Y244633D01*
X284823Y244629D01*
X284814Y244626D01*
X284645Y244533D01*
X284477Y244441D01*
X284470Y244436D01*
X284462Y244431D01*
X284314Y244306D01*
X284167Y244184D01*
X284162Y244177D01*
X284155Y244171D01*
X284035Y244019D01*
X283915Y243870D01*
X283911Y243862D01*
X283905Y243855D01*
X283818Y243682D01*
X283729Y243513D01*
X283727Y243504D01*
X283723Y243496D01*
X283671Y243311D01*
X283618Y243126D01*
X283617Y243117D01*
X283615Y243108D01*
X283601Y242916D01*
X283585Y242724D01*
X283586Y242716D01*
X283586Y242707D01*
X283610Y242515D01*
X283632Y242325D01*
X283635Y242316D01*
X283636Y242307D01*
X283697Y242125D01*
X283757Y241942D01*
X283761Y241934D01*
X283764Y241926D01*
X283860Y241758D01*
X283955Y241591D01*
X283961Y241584D01*
X283965Y241577D01*
X284180Y241324D01*
X284401Y241103D01*
X284401Y224577D01*
X282615Y222791D01*
X270089Y222791D01*
X268940Y223940D01*
X268919Y223957D01*
X268902Y223978D01*
X268764Y224085D01*
X268629Y224195D01*
X268605Y224208D01*
X268584Y224224D01*
X268427Y224302D01*
X268273Y224384D01*
X268247Y224392D01*
X268223Y224404D01*
X268054Y224449D01*
X267887Y224499D01*
X267860Y224501D01*
X267835Y224508D01*
X267504Y224535D01*
X258681Y224535D01*
X256067Y225618D01*
X248093Y233592D01*
X248072Y233609D01*
X248055Y233630D01*
X247917Y233737D01*
X247781Y233847D01*
X247758Y233860D01*
X247736Y233876D01*
X247580Y233954D01*
X247426Y234036D01*
X247400Y234044D01*
X247376Y234056D01*
X247207Y234101D01*
X247040Y234151D01*
X247013Y234153D01*
X246987Y234160D01*
X246656Y234187D01*
X233904Y234187D01*
X233878Y234185D01*
X233851Y234187D01*
X233677Y234165D01*
X233503Y234147D01*
X233478Y234140D01*
X233451Y234136D01*
X233286Y234081D01*
X233119Y234029D01*
X233095Y234016D01*
X233070Y234008D01*
X232918Y233921D01*
X232765Y233837D01*
X232744Y233820D01*
X232721Y233807D01*
X232468Y233592D01*
X230015Y231139D01*
X221597Y231139D01*
X215645Y237091D01*
X215645Y245509D01*
X221597Y251461D01*
X230015Y251461D01*
X232468Y249008D01*
X232488Y248991D01*
X232506Y248970D01*
X232644Y248863D01*
X232779Y248753D01*
X232803Y248740D01*
X232824Y248724D01*
X232981Y248646D01*
X233135Y248564D01*
X233160Y248556D01*
X233185Y248544D01*
X233354Y248499D01*
X233521Y248449D01*
X233547Y248447D01*
X233573Y248440D01*
X233904Y248413D01*
X251859Y248413D01*
X254473Y247330D01*
X255844Y245959D01*
X255851Y245954D01*
X255856Y245947D01*
X256006Y245826D01*
X256155Y245704D01*
X256163Y245700D01*
X256170Y245694D01*
X256340Y245606D01*
X256511Y245516D01*
X256520Y245513D01*
X256527Y245509D01*
X256712Y245456D01*
X256897Y245401D01*
X256906Y245400D01*
X256914Y245397D01*
X257105Y245382D01*
X257298Y245364D01*
X257307Y245365D01*
X257316Y245365D01*
X257505Y245387D01*
X257698Y245408D01*
X257707Y245410D01*
X257715Y245411D01*
X257897Y245471D01*
X258082Y245529D01*
X258090Y245534D01*
X258098Y245536D01*
X258265Y245631D01*
X258434Y245724D01*
X258441Y245730D01*
X258449Y245734D01*
X258594Y245859D01*
X258741Y245985D01*
X258747Y245992D01*
X258754Y245997D01*
X258870Y246148D01*
X258991Y246300D01*
X258995Y246309D01*
X259000Y246315D01*
X259086Y246487D01*
X259173Y246659D01*
X259176Y246668D01*
X259180Y246676D01*
X259230Y246862D01*
X259281Y247047D01*
X259282Y247056D01*
X259284Y247065D01*
X259311Y247396D01*
X259311Y252341D01*
X264353Y252341D01*
X264353Y245299D01*
X261408Y245299D01*
X261399Y245298D01*
X261390Y245299D01*
X261198Y245278D01*
X261007Y245259D01*
X260998Y245257D01*
X260989Y245256D01*
X260807Y245198D01*
X260622Y245141D01*
X260614Y245137D01*
X260606Y245134D01*
X260439Y245042D01*
X260268Y244950D01*
X260261Y244944D01*
X260253Y244939D01*
X260107Y244816D01*
X259959Y244692D01*
X259953Y244685D01*
X259946Y244679D01*
X259827Y244528D01*
X259706Y244378D01*
X259702Y244370D01*
X259697Y244363D01*
X259609Y244190D01*
X259521Y244021D01*
X259518Y244012D01*
X259514Y244004D01*
X259463Y243818D01*
X259409Y243634D01*
X259409Y243625D01*
X259406Y243616D01*
X259392Y243424D01*
X259377Y243232D01*
X259378Y243224D01*
X259377Y243215D01*
X259401Y243022D01*
X259423Y242833D01*
X259426Y242824D01*
X259427Y242815D01*
X259489Y242632D01*
X259548Y242450D01*
X259553Y242442D01*
X259556Y242434D01*
X259651Y242268D01*
X259746Y242099D01*
X259752Y242092D01*
X259757Y242085D01*
X259971Y241832D01*
X262447Y239356D01*
X262468Y239339D01*
X262485Y239318D01*
X262623Y239212D01*
X262759Y239101D01*
X262782Y239088D01*
X262804Y239072D01*
X262960Y238994D01*
X263114Y238912D01*
X263140Y238904D01*
X263164Y238892D01*
X263333Y238847D01*
X263500Y238797D01*
X263527Y238795D01*
X263553Y238788D01*
X263884Y238761D01*
X266272Y238761D01*
X266290Y238763D01*
X266308Y238761D01*
X266490Y238782D01*
X266673Y238801D01*
X266690Y238806D01*
X266707Y238808D01*
X266882Y238865D01*
X267058Y238919D01*
X267073Y238927D01*
X267090Y238933D01*
X267250Y239023D01*
X267412Y239111D01*
X267425Y239122D01*
X267441Y239131D01*
X267580Y239251D01*
X267721Y239368D01*
X267732Y239382D01*
X267746Y239394D01*
X267858Y239539D01*
X267973Y239682D01*
X267981Y239698D01*
X267992Y239712D01*
X268074Y239877D01*
X268159Y240039D01*
X268164Y240056D01*
X268172Y240072D01*
X268219Y240251D01*
X268270Y240426D01*
X268272Y240444D01*
X268276Y240461D01*
X268303Y240792D01*
X268303Y241103D01*
X269032Y241832D01*
X269038Y241839D01*
X269045Y241844D01*
X269166Y241995D01*
X269287Y242143D01*
X269291Y242151D01*
X269297Y242158D01*
X269385Y242328D01*
X269476Y242499D01*
X269478Y242508D01*
X269483Y242515D01*
X269536Y242700D01*
X269591Y242885D01*
X269591Y242894D01*
X269594Y242902D01*
X269610Y243093D01*
X269627Y243286D01*
X269626Y243295D01*
X269627Y243304D01*
X269605Y243493D01*
X269584Y243686D01*
X269581Y243695D01*
X269580Y243703D01*
X269521Y243885D01*
X269462Y244070D01*
X269458Y244078D01*
X269455Y244086D01*
X269361Y244253D01*
X269351Y244270D01*
X269351Y254372D01*
X269349Y254390D01*
X269351Y254407D01*
X269330Y254590D01*
X269311Y254772D01*
X269306Y254789D01*
X269304Y254807D01*
X269247Y254982D01*
X269193Y255157D01*
X269185Y255173D01*
X269179Y255190D01*
X269089Y255350D01*
X269001Y255511D01*
X268990Y255525D01*
X268981Y255541D01*
X268861Y255680D01*
X268744Y255821D01*
X268730Y255832D01*
X268718Y255845D01*
X268573Y255958D01*
X268430Y256073D01*
X268414Y256081D01*
X268400Y256092D01*
X268235Y256174D01*
X268208Y256188D01*
X268153Y256286D01*
X268065Y256448D01*
X268054Y256461D01*
X268045Y256477D01*
X267925Y256616D01*
X267807Y256757D01*
X267794Y256768D01*
X267782Y256782D01*
X267637Y256894D01*
X267494Y257009D01*
X267478Y257017D01*
X267464Y257028D01*
X267299Y257110D01*
X267136Y257195D01*
X267119Y257200D01*
X267103Y257208D01*
X266925Y257255D01*
X266750Y257306D01*
X266732Y257308D01*
X266715Y257312D01*
X266384Y257339D01*
X259311Y257339D01*
X259311Y262175D01*
X259484Y262821D01*
X259819Y263400D01*
X260335Y263917D01*
X260386Y263959D01*
X260490Y264034D01*
X260540Y264087D01*
X260597Y264134D01*
X260677Y264234D01*
X260765Y264328D01*
X260803Y264391D01*
X260849Y264448D01*
X260908Y264562D01*
X260975Y264671D01*
X261001Y264740D01*
X261034Y264805D01*
X261070Y264929D01*
X261114Y265049D01*
X261126Y265122D01*
X261146Y265192D01*
X261156Y265320D01*
X261176Y265447D01*
X261173Y265520D01*
X261179Y265594D01*
X261164Y265721D01*
X261158Y265849D01*
X261140Y265920D01*
X261132Y265993D01*
X261092Y266115D01*
X261061Y266240D01*
X261030Y266306D01*
X261007Y266376D01*
X260944Y266488D01*
X260889Y266604D01*
X260845Y266663D01*
X260809Y266727D01*
X260725Y266824D01*
X260649Y266927D01*
X260594Y266976D01*
X260546Y267032D01*
X260445Y267110D01*
X260349Y267196D01*
X260286Y267233D01*
X260228Y267278D01*
X260113Y267335D01*
X260002Y267401D01*
X259933Y267425D01*
X259867Y267458D01*
X259743Y267491D01*
X259622Y267533D01*
X259549Y267543D01*
X259479Y267562D01*
X259310Y267576D01*
X259223Y267588D01*
X259190Y267586D01*
X259148Y267589D01*
X257311Y267589D01*
X255525Y269375D01*
X255525Y283358D01*
X255524Y283367D01*
X255525Y283376D01*
X255504Y283567D01*
X255485Y283758D01*
X255483Y283767D01*
X255482Y283776D01*
X255424Y283958D01*
X255367Y284143D01*
X255363Y284151D01*
X255360Y284160D01*
X255267Y284328D01*
X255175Y284497D01*
X255170Y284504D01*
X255165Y284512D01*
X255040Y284660D01*
X254918Y284807D01*
X254911Y284812D01*
X254905Y284819D01*
X254753Y284939D01*
X254604Y285059D01*
X254596Y285063D01*
X254589Y285069D01*
X254417Y285156D01*
X254247Y285244D01*
X254238Y285247D01*
X254230Y285251D01*
X254044Y285303D01*
X253860Y285356D01*
X253851Y285357D01*
X253842Y285359D01*
X253650Y285373D01*
X253458Y285389D01*
X253450Y285388D01*
X253441Y285388D01*
X253248Y285364D01*
X253059Y285342D01*
X253050Y285339D01*
X253041Y285338D01*
X252858Y285276D01*
X252676Y285217D01*
X252668Y285212D01*
X252660Y285210D01*
X252494Y285114D01*
X252325Y285019D01*
X252318Y285013D01*
X252311Y285009D01*
X252058Y284794D01*
X250024Y282760D01*
X250007Y282739D01*
X249986Y282722D01*
X249880Y282584D01*
X249769Y282448D01*
X249756Y282425D01*
X249740Y282404D01*
X249662Y282247D01*
X249580Y282093D01*
X249572Y282067D01*
X249560Y282043D01*
X249515Y281874D01*
X249465Y281707D01*
X249463Y281680D01*
X249456Y281654D01*
X249429Y281324D01*
X249429Y269144D01*
X248578Y267090D01*
X242942Y261454D01*
X240888Y260603D01*
X234920Y260603D01*
X234894Y260601D01*
X234867Y260603D01*
X234693Y260581D01*
X234519Y260563D01*
X234494Y260556D01*
X234467Y260552D01*
X234302Y260497D01*
X234135Y260445D01*
X234111Y260432D01*
X234086Y260424D01*
X233934Y260337D01*
X233781Y260253D01*
X233760Y260236D01*
X233737Y260223D01*
X233484Y260008D01*
X230015Y256539D01*
X221597Y256539D01*
X215645Y262491D01*
X215645Y270909D01*
X221597Y276861D01*
X230015Y276861D01*
X234500Y272376D01*
X234515Y272363D01*
X234526Y272350D01*
X234531Y272346D01*
X234538Y272338D01*
X234676Y272231D01*
X234811Y272121D01*
X234835Y272108D01*
X234856Y272092D01*
X235013Y272014D01*
X235167Y271932D01*
X235192Y271924D01*
X235217Y271912D01*
X235386Y271867D01*
X235553Y271817D01*
X235579Y271815D01*
X235605Y271808D01*
X235936Y271781D01*
X236220Y271781D01*
X236238Y271783D01*
X236256Y271781D01*
X236438Y271802D01*
X236621Y271821D01*
X236638Y271826D01*
X236655Y271828D01*
X236830Y271885D01*
X237006Y271939D01*
X237021Y271947D01*
X237038Y271953D01*
X237198Y272043D01*
X237360Y272131D01*
X237373Y272142D01*
X237389Y272151D01*
X237528Y272271D01*
X237669Y272388D01*
X237680Y272402D01*
X237694Y272414D01*
X237806Y272559D01*
X237921Y272702D01*
X237929Y272718D01*
X237940Y272732D01*
X238022Y272897D01*
X238107Y273059D01*
X238112Y273076D01*
X238120Y273092D01*
X238167Y273271D01*
X238218Y273446D01*
X238220Y273464D01*
X238224Y273481D01*
X238251Y273812D01*
X238251Y285592D01*
X239102Y287646D01*
X254930Y303474D01*
X254947Y303495D01*
X254968Y303512D01*
X255075Y303650D01*
X255185Y303786D01*
X255198Y303809D01*
X255214Y303830D01*
X255292Y303987D01*
X255374Y304141D01*
X255382Y304167D01*
X255394Y304191D01*
X255439Y304360D01*
X255489Y304527D01*
X255491Y304554D01*
X255498Y304580D01*
X255525Y304910D01*
X255525Y309372D01*
X255523Y309390D01*
X255525Y309408D01*
X255504Y309590D01*
X255485Y309773D01*
X255480Y309790D01*
X255478Y309807D01*
X255421Y309982D01*
X255367Y310158D01*
X255359Y310173D01*
X255353Y310190D01*
X255263Y310350D01*
X255175Y310512D01*
X255164Y310525D01*
X255155Y310541D01*
X255035Y310680D01*
X254918Y310821D01*
X254904Y310832D01*
X254892Y310846D01*
X254747Y310958D01*
X254604Y311073D01*
X254588Y311081D01*
X254574Y311092D01*
X254409Y311174D01*
X254247Y311259D01*
X254230Y311264D01*
X254214Y311272D01*
X254035Y311319D01*
X253860Y311370D01*
X253842Y311372D01*
X253825Y311376D01*
X253494Y311403D01*
X251060Y311403D01*
X251034Y311401D01*
X251007Y311403D01*
X250833Y311381D01*
X250660Y311363D01*
X250634Y311356D01*
X250608Y311352D01*
X250442Y311297D01*
X250275Y311245D01*
X250251Y311232D01*
X250226Y311224D01*
X250075Y311137D01*
X249921Y311053D01*
X249900Y311036D01*
X249877Y311023D01*
X249624Y310808D01*
X244759Y305944D01*
X244717Y305892D01*
X244668Y305847D01*
X244558Y305698D01*
X244504Y305632D01*
X244491Y305608D01*
X244471Y305580D01*
X244346Y305380D01*
X243951Y305097D01*
X243698Y304882D01*
X243354Y304538D01*
X243136Y304448D01*
X243077Y304416D01*
X243015Y304393D01*
X242857Y304298D01*
X242781Y304258D01*
X242760Y304240D01*
X242730Y304223D01*
X242539Y304085D01*
X242065Y303975D01*
X241749Y303873D01*
X241210Y303650D01*
X241181Y303647D01*
X241160Y303641D01*
X241137Y303638D01*
X240968Y303582D01*
X240796Y303529D01*
X240776Y303519D01*
X240755Y303512D01*
X240600Y303423D01*
X240442Y303337D01*
X240425Y303323D01*
X240405Y303312D01*
X240270Y303194D01*
X240133Y303080D01*
X240119Y303062D01*
X240102Y303048D01*
X239993Y302906D01*
X239880Y302766D01*
X239870Y302746D01*
X239857Y302728D01*
X239705Y302433D01*
X238472Y299456D01*
X235614Y296598D01*
X231879Y295051D01*
X213613Y295051D01*
X209878Y296598D01*
X208064Y298412D01*
X208057Y298418D01*
X208052Y298425D01*
X207902Y298545D01*
X207753Y298667D01*
X207745Y298672D01*
X207738Y298677D01*
X207568Y298766D01*
X207397Y298856D01*
X207388Y298859D01*
X207381Y298863D01*
X207196Y298916D01*
X207011Y298971D01*
X207002Y298972D01*
X206994Y298974D01*
X206803Y298990D01*
X206610Y299007D01*
X206601Y299006D01*
X206592Y299007D01*
X206403Y298985D01*
X206210Y298964D01*
X206201Y298961D01*
X206193Y298960D01*
X206011Y298901D01*
X205826Y298842D01*
X205818Y298838D01*
X205810Y298835D01*
X205643Y298741D01*
X205474Y298647D01*
X205467Y298642D01*
X205459Y298637D01*
X205314Y298512D01*
X205167Y298387D01*
X205161Y298380D01*
X205154Y298374D01*
X205038Y298224D01*
X204917Y298071D01*
X204913Y298063D01*
X204908Y298056D01*
X204822Y297885D01*
X204735Y297712D01*
X204732Y297704D01*
X204728Y297695D01*
X204678Y297510D01*
X204627Y297324D01*
X204626Y297315D01*
X204624Y297307D01*
X204597Y296976D01*
X204597Y170230D01*
X204599Y170212D01*
X204597Y170194D01*
X204618Y170012D01*
X204637Y169829D01*
X204642Y169812D01*
X204644Y169795D01*
X204701Y169620D01*
X204755Y169444D01*
X204763Y169429D01*
X204769Y169412D01*
X204859Y169252D01*
X204947Y169090D01*
X204958Y169077D01*
X204967Y169061D01*
X205087Y168922D01*
X205204Y168781D01*
X205218Y168770D01*
X205230Y168756D01*
X205375Y168644D01*
X205518Y168529D01*
X205534Y168521D01*
X205548Y168510D01*
X205713Y168428D01*
X205875Y168343D01*
X205892Y168338D01*
X205908Y168330D01*
X206087Y168283D01*
X206262Y168232D01*
X206280Y168230D01*
X206297Y168226D01*
X206628Y168199D01*
X595884Y168199D01*
X595902Y168201D01*
G37*
G36*
X297180Y310391D02*
X297180Y310391D01*
X297207Y310389D01*
X297381Y310411D01*
X297554Y310429D01*
X297580Y310436D01*
X297606Y310440D01*
X297772Y310495D01*
X297939Y310547D01*
X297963Y310560D01*
X297988Y310568D01*
X298140Y310655D01*
X298293Y310739D01*
X298314Y310756D01*
X298337Y310769D01*
X298590Y310984D01*
X299836Y312230D01*
X303057Y313564D01*
X306543Y313564D01*
X309764Y312230D01*
X311010Y310984D01*
X311031Y310967D01*
X311048Y310946D01*
X311186Y310839D01*
X311322Y310729D01*
X311345Y310716D01*
X311366Y310700D01*
X311523Y310622D01*
X311677Y310540D01*
X311703Y310532D01*
X311727Y310520D01*
X311896Y310475D01*
X312063Y310425D01*
X312090Y310423D01*
X312116Y310416D01*
X312446Y310389D01*
X417830Y310389D01*
X417848Y310391D01*
X417866Y310389D01*
X418048Y310410D01*
X418231Y310429D01*
X418248Y310434D01*
X418265Y310436D01*
X418440Y310493D01*
X418616Y310547D01*
X418631Y310555D01*
X418648Y310561D01*
X418808Y310651D01*
X418970Y310739D01*
X418983Y310750D01*
X418999Y310759D01*
X419138Y310879D01*
X419279Y310996D01*
X419290Y311010D01*
X419304Y311022D01*
X419416Y311167D01*
X419531Y311310D01*
X419539Y311326D01*
X419550Y311340D01*
X419632Y311505D01*
X419717Y311667D01*
X419722Y311684D01*
X419730Y311700D01*
X419777Y311879D01*
X419828Y312054D01*
X419830Y312072D01*
X419834Y312089D01*
X419861Y312420D01*
X419861Y328470D01*
X419859Y328488D01*
X419861Y328506D01*
X419840Y328688D01*
X419821Y328871D01*
X419816Y328888D01*
X419814Y328905D01*
X419757Y329080D01*
X419703Y329256D01*
X419695Y329271D01*
X419689Y329288D01*
X419599Y329448D01*
X419511Y329610D01*
X419500Y329623D01*
X419491Y329639D01*
X419371Y329778D01*
X419254Y329919D01*
X419240Y329930D01*
X419228Y329944D01*
X419083Y330056D01*
X418940Y330171D01*
X418924Y330179D01*
X418910Y330190D01*
X418745Y330272D01*
X418583Y330357D01*
X418566Y330362D01*
X418550Y330370D01*
X418371Y330417D01*
X418196Y330468D01*
X418178Y330470D01*
X418161Y330474D01*
X417830Y330501D01*
X407642Y330501D01*
X407525Y330597D01*
X407509Y330606D01*
X407495Y330617D01*
X407332Y330700D01*
X407169Y330786D01*
X407152Y330791D01*
X407136Y330799D01*
X406959Y330848D01*
X406783Y330901D01*
X406766Y330902D01*
X406748Y330907D01*
X406565Y330920D01*
X406382Y330937D01*
X406365Y330935D01*
X406347Y330936D01*
X406164Y330913D01*
X405982Y330894D01*
X405965Y330888D01*
X405947Y330886D01*
X405773Y330827D01*
X405598Y330772D01*
X405583Y330763D01*
X405566Y330758D01*
X405406Y330666D01*
X405246Y330577D01*
X405232Y330566D01*
X405217Y330557D01*
X405151Y330501D01*
X394226Y330501D01*
X394204Y330499D01*
X394182Y330501D01*
X394004Y330479D01*
X393826Y330461D01*
X393804Y330455D01*
X393782Y330452D01*
X393612Y330396D01*
X393441Y330343D01*
X393421Y330333D01*
X393400Y330326D01*
X393244Y330237D01*
X393087Y330151D01*
X393069Y330137D01*
X393050Y330126D01*
X392915Y330009D01*
X392777Y329894D01*
X392763Y329876D01*
X392747Y329862D01*
X392637Y329720D01*
X392525Y329580D01*
X392515Y329560D01*
X392501Y329542D01*
X392349Y329247D01*
X391657Y327576D01*
X383624Y319543D01*
X381757Y318769D01*
X316489Y318769D01*
X314622Y319543D01*
X313193Y320972D01*
X312809Y321899D01*
X312794Y321927D01*
X312784Y321957D01*
X312699Y322104D01*
X312618Y322254D01*
X312598Y322278D01*
X312583Y322306D01*
X312368Y322559D01*
X310336Y324591D01*
X308621Y326306D01*
X307847Y328173D01*
X307847Y350622D01*
X307845Y350649D01*
X307847Y350675D01*
X307825Y350849D01*
X307807Y351023D01*
X307800Y351048D01*
X307796Y351075D01*
X307741Y351241D01*
X307689Y351408D01*
X307676Y351431D01*
X307668Y351457D01*
X307581Y351608D01*
X307497Y351762D01*
X307480Y351782D01*
X307467Y351805D01*
X307252Y352058D01*
X305322Y353988D01*
X305302Y354005D01*
X305284Y354026D01*
X305146Y354133D01*
X305011Y354243D01*
X304987Y354256D01*
X304966Y354272D01*
X304809Y354350D01*
X304655Y354432D01*
X304630Y354440D01*
X304606Y354452D01*
X304436Y354497D01*
X304269Y354547D01*
X304243Y354549D01*
X304217Y354556D01*
X303886Y354583D01*
X256946Y354583D01*
X256919Y354581D01*
X256893Y354583D01*
X256719Y354561D01*
X256545Y354543D01*
X256520Y354536D01*
X256493Y354532D01*
X256327Y354477D01*
X256160Y354425D01*
X256137Y354412D01*
X256111Y354404D01*
X255960Y354317D01*
X255806Y354233D01*
X255786Y354216D01*
X255763Y354203D01*
X255510Y353988D01*
X252426Y350905D01*
X250559Y350131D01*
X239988Y350131D01*
X239962Y350129D01*
X239935Y350131D01*
X239761Y350109D01*
X239587Y350091D01*
X239562Y350084D01*
X239535Y350080D01*
X239370Y350025D01*
X239203Y349973D01*
X239179Y349960D01*
X239154Y349952D01*
X239002Y349865D01*
X238849Y349781D01*
X238828Y349764D01*
X238805Y349751D01*
X238552Y349536D01*
X235614Y346598D01*
X231879Y345051D01*
X213613Y345051D01*
X209878Y346598D01*
X208064Y348412D01*
X208057Y348418D01*
X208052Y348425D01*
X207903Y348545D01*
X207753Y348667D01*
X207745Y348672D01*
X207738Y348677D01*
X207568Y348766D01*
X207397Y348856D01*
X207388Y348859D01*
X207381Y348863D01*
X207196Y348916D01*
X207011Y348971D01*
X207002Y348972D01*
X206994Y348974D01*
X206803Y348990D01*
X206610Y349007D01*
X206601Y349006D01*
X206592Y349007D01*
X206403Y348985D01*
X206210Y348964D01*
X206201Y348961D01*
X206193Y348960D01*
X206011Y348901D01*
X205826Y348842D01*
X205818Y348838D01*
X205810Y348835D01*
X205643Y348741D01*
X205474Y348647D01*
X205467Y348642D01*
X205459Y348637D01*
X205314Y348512D01*
X205167Y348387D01*
X205161Y348380D01*
X205154Y348374D01*
X205037Y348223D01*
X204917Y348071D01*
X204913Y348063D01*
X204908Y348056D01*
X204822Y347885D01*
X204735Y347712D01*
X204732Y347704D01*
X204728Y347695D01*
X204678Y347510D01*
X204627Y347324D01*
X204626Y347315D01*
X204624Y347307D01*
X204597Y346976D01*
X204597Y337694D01*
X204613Y337527D01*
X204625Y337359D01*
X204633Y337327D01*
X204637Y337294D01*
X204686Y337133D01*
X204730Y336970D01*
X204745Y336941D01*
X204755Y336909D01*
X204835Y336761D01*
X204910Y336610D01*
X204931Y336584D01*
X204947Y336555D01*
X205054Y336425D01*
X205158Y336293D01*
X205183Y336271D01*
X205204Y336245D01*
X205335Y336140D01*
X205463Y336030D01*
X205492Y336014D01*
X205518Y335993D01*
X205667Y335916D01*
X205814Y335833D01*
X205846Y335823D01*
X205875Y335808D01*
X206037Y335761D01*
X206197Y335709D01*
X206230Y335705D01*
X206262Y335696D01*
X206430Y335682D01*
X206597Y335663D01*
X206631Y335666D01*
X206664Y335663D01*
X206831Y335683D01*
X206999Y335697D01*
X207030Y335706D01*
X207063Y335710D01*
X207223Y335762D01*
X207385Y335809D01*
X207415Y335825D01*
X207446Y335835D01*
X207593Y335918D01*
X207742Y335996D01*
X207768Y336017D01*
X207797Y336033D01*
X207924Y336143D01*
X208055Y336249D01*
X208079Y336277D01*
X208101Y336296D01*
X208154Y336364D01*
X208271Y336500D01*
X209346Y337575D01*
X210575Y338468D01*
X211929Y339158D01*
X213374Y339627D01*
X214874Y339865D01*
X220715Y339865D01*
X220715Y330212D01*
X220715Y320559D01*
X214874Y320559D01*
X213374Y320797D01*
X211929Y321266D01*
X210575Y321956D01*
X209346Y322849D01*
X208271Y323924D01*
X208159Y324049D01*
X208052Y324179D01*
X208026Y324199D01*
X208004Y324224D01*
X207869Y324325D01*
X207738Y324431D01*
X207708Y324446D01*
X207682Y324466D01*
X207530Y324539D01*
X207381Y324616D01*
X207349Y324626D01*
X207319Y324640D01*
X207155Y324681D01*
X206994Y324728D01*
X206961Y324731D01*
X206928Y324739D01*
X206760Y324747D01*
X206592Y324761D01*
X206560Y324757D01*
X206526Y324758D01*
X206359Y324733D01*
X206193Y324714D01*
X206161Y324704D01*
X206128Y324699D01*
X205970Y324641D01*
X205810Y324589D01*
X205781Y324573D01*
X205750Y324561D01*
X205606Y324474D01*
X205459Y324391D01*
X205434Y324369D01*
X205406Y324352D01*
X205282Y324238D01*
X205154Y324128D01*
X205134Y324102D01*
X205110Y324079D01*
X205011Y323943D01*
X204908Y323810D01*
X204893Y323780D01*
X204873Y323753D01*
X204803Y323600D01*
X204728Y323449D01*
X204720Y323417D01*
X204706Y323387D01*
X204668Y323224D01*
X204624Y323060D01*
X204621Y323023D01*
X204614Y322995D01*
X204611Y322909D01*
X204597Y322730D01*
X204597Y313448D01*
X204598Y313439D01*
X204597Y313430D01*
X204618Y313238D01*
X204637Y313047D01*
X204639Y313039D01*
X204640Y313030D01*
X204698Y312848D01*
X204755Y312662D01*
X204759Y312655D01*
X204762Y312646D01*
X204855Y312478D01*
X204947Y312308D01*
X204952Y312302D01*
X204957Y312294D01*
X205082Y312146D01*
X205204Y311999D01*
X205211Y311994D01*
X205217Y311987D01*
X205369Y311867D01*
X205518Y311747D01*
X205526Y311743D01*
X205533Y311737D01*
X205705Y311650D01*
X205875Y311561D01*
X205884Y311559D01*
X205892Y311555D01*
X206078Y311503D01*
X206262Y311450D01*
X206271Y311449D01*
X206280Y311447D01*
X206472Y311433D01*
X206664Y311417D01*
X206672Y311418D01*
X206681Y311417D01*
X206874Y311442D01*
X207063Y311464D01*
X207072Y311467D01*
X207081Y311468D01*
X207264Y311529D01*
X207446Y311589D01*
X207454Y311593D01*
X207462Y311596D01*
X207628Y311691D01*
X207797Y311787D01*
X207804Y311793D01*
X207811Y311797D01*
X208064Y312012D01*
X209878Y313826D01*
X213613Y315373D01*
X231879Y315373D01*
X234821Y314154D01*
X234881Y314136D01*
X234937Y314110D01*
X235073Y314078D01*
X235207Y314038D01*
X235268Y314032D01*
X235329Y314017D01*
X235468Y314013D01*
X235607Y313999D01*
X235669Y314006D01*
X235731Y314004D01*
X235924Y314032D01*
X236008Y314041D01*
X236030Y314048D01*
X236059Y314052D01*
X236792Y314223D01*
X236800Y314225D01*
X236985Y314288D01*
X237173Y314351D01*
X237177Y314353D01*
X237181Y314355D01*
X237351Y314454D01*
X237522Y314552D01*
X237526Y314555D01*
X237529Y314557D01*
X237551Y314577D01*
X237775Y314767D01*
X242880Y319872D01*
X244738Y321730D01*
X246792Y322581D01*
X253494Y322581D01*
X253512Y322583D01*
X253530Y322581D01*
X253712Y322602D01*
X253895Y322621D01*
X253912Y322626D01*
X253929Y322628D01*
X254104Y322685D01*
X254280Y322739D01*
X254295Y322747D01*
X254312Y322753D01*
X254472Y322843D01*
X254634Y322931D01*
X254647Y322942D01*
X254663Y322951D01*
X254802Y323071D01*
X254943Y323188D01*
X254954Y323202D01*
X254968Y323214D01*
X255080Y323359D01*
X255195Y323502D01*
X255203Y323518D01*
X255214Y323532D01*
X255296Y323697D01*
X255381Y323859D01*
X255386Y323876D01*
X255394Y323892D01*
X255441Y324071D01*
X255492Y324246D01*
X255494Y324264D01*
X255498Y324281D01*
X255525Y324612D01*
X255525Y328114D01*
X255594Y328248D01*
X255680Y328411D01*
X255685Y328428D01*
X255693Y328444D01*
X255742Y328621D01*
X255795Y328797D01*
X255796Y328814D01*
X255801Y328832D01*
X255814Y329015D01*
X255831Y329198D01*
X255829Y329215D01*
X255830Y329233D01*
X255807Y329416D01*
X255788Y329598D01*
X255782Y329615D01*
X255780Y329633D01*
X255721Y329807D01*
X255666Y329982D01*
X255657Y329997D01*
X255652Y330014D01*
X255560Y330174D01*
X255525Y330237D01*
X255525Y347853D01*
X257311Y349639D01*
X272837Y349639D01*
X273541Y348934D01*
X273661Y348836D01*
X273777Y348732D01*
X273817Y348708D01*
X273853Y348679D01*
X273990Y348606D01*
X274124Y348527D01*
X274168Y348512D01*
X274209Y348490D01*
X274357Y348446D01*
X274504Y348395D01*
X274550Y348389D01*
X274595Y348376D01*
X274749Y348362D01*
X274903Y348340D01*
X274949Y348343D01*
X274996Y348339D01*
X275150Y348356D01*
X275304Y348366D01*
X275349Y348378D01*
X275396Y348383D01*
X275544Y348429D01*
X275693Y348469D01*
X275741Y348492D01*
X275780Y348504D01*
X275856Y348546D01*
X275993Y348611D01*
X276593Y348958D01*
X277239Y349131D01*
X280825Y349131D01*
X280825Y340308D01*
X280826Y340290D01*
X280825Y340273D01*
X280846Y340090D01*
X280865Y339908D01*
X280870Y339891D01*
X280872Y339873D01*
X280929Y339698D01*
X280983Y339523D01*
X280991Y339507D01*
X280997Y339490D01*
X281087Y339330D01*
X281174Y339169D01*
X281186Y339155D01*
X281195Y339139D01*
X281315Y339000D01*
X281432Y338859D01*
X281446Y338848D01*
X281458Y338835D01*
X281603Y338722D01*
X281746Y338607D01*
X281762Y338599D01*
X281776Y338588D01*
X281941Y338506D01*
X282103Y338422D01*
X282120Y338417D01*
X282136Y338409D01*
X282315Y338361D01*
X282490Y338310D01*
X282508Y338309D01*
X282525Y338304D01*
X282856Y338277D01*
X283261Y338277D01*
X283261Y337872D01*
X283263Y337854D01*
X283261Y337836D01*
X283283Y337654D01*
X283301Y337471D01*
X283306Y337454D01*
X283308Y337437D01*
X283365Y337262D01*
X283419Y337086D01*
X283427Y337071D01*
X283433Y337054D01*
X283523Y336894D01*
X283611Y336732D01*
X283622Y336719D01*
X283631Y336703D01*
X283751Y336564D01*
X283869Y336423D01*
X283882Y336412D01*
X283894Y336398D01*
X284039Y336286D01*
X284182Y336171D01*
X284198Y336163D01*
X284212Y336152D01*
X284377Y336070D01*
X284540Y335985D01*
X284557Y335980D01*
X284573Y335972D01*
X284751Y335924D01*
X284926Y335874D01*
X284944Y335872D01*
X284961Y335868D01*
X285292Y335841D01*
X293115Y335841D01*
X293115Y331255D01*
X292921Y330533D01*
X292893Y330478D01*
X292881Y330433D01*
X292862Y330391D01*
X292827Y330240D01*
X292785Y330090D01*
X292782Y330044D01*
X292771Y329999D01*
X292767Y329844D01*
X292756Y329689D01*
X292762Y329642D01*
X292760Y329596D01*
X292787Y329443D01*
X292806Y329289D01*
X292821Y329245D01*
X292829Y329199D01*
X292885Y329055D01*
X292934Y328907D01*
X292958Y328867D01*
X292974Y328824D01*
X293058Y328693D01*
X293135Y328559D01*
X293169Y328519D01*
X293191Y328485D01*
X293251Y328422D01*
X293350Y328306D01*
X293623Y328033D01*
X293623Y312420D01*
X293625Y312402D01*
X293623Y312384D01*
X293644Y312202D01*
X293663Y312019D01*
X293668Y312002D01*
X293670Y311985D01*
X293727Y311810D01*
X293781Y311634D01*
X293789Y311619D01*
X293795Y311602D01*
X293885Y311442D01*
X293973Y311280D01*
X293984Y311267D01*
X293993Y311251D01*
X294113Y311112D01*
X294230Y310971D01*
X294244Y310960D01*
X294256Y310946D01*
X294401Y310834D01*
X294544Y310719D01*
X294560Y310711D01*
X294574Y310700D01*
X294739Y310618D01*
X294901Y310533D01*
X294918Y310528D01*
X294934Y310520D01*
X295113Y310473D01*
X295288Y310422D01*
X295306Y310420D01*
X295323Y310416D01*
X295654Y310389D01*
X297154Y310389D01*
X297180Y310391D01*
G37*
%LPC*%
G36*
X213717Y183651D02*
X213717Y183651D01*
X211931Y185437D01*
X211931Y199963D01*
X214221Y202252D01*
X214273Y202316D01*
X214332Y202373D01*
X214400Y202471D01*
X214476Y202564D01*
X214514Y202636D01*
X214561Y202704D01*
X214608Y202814D01*
X214664Y202919D01*
X214688Y202998D01*
X214720Y203074D01*
X214745Y203190D01*
X214779Y203305D01*
X214786Y203387D01*
X214803Y203467D01*
X214805Y203587D01*
X214815Y203706D01*
X214807Y203788D01*
X214807Y203870D01*
X214785Y203987D01*
X214772Y204106D01*
X214747Y204185D01*
X214732Y204265D01*
X214687Y204376D01*
X214651Y204490D01*
X214611Y204562D01*
X214580Y204638D01*
X214514Y204738D01*
X214456Y204843D01*
X214403Y204905D01*
X214357Y204974D01*
X214273Y205058D01*
X214195Y205150D01*
X214131Y205201D01*
X214073Y205259D01*
X213947Y205346D01*
X213879Y205399D01*
X213843Y205418D01*
X213800Y205448D01*
X213420Y205667D01*
X212947Y206140D01*
X212612Y206719D01*
X212439Y207365D01*
X212439Y210701D01*
X220012Y210701D01*
X220030Y210702D01*
X220047Y210701D01*
X220230Y210722D01*
X220412Y210741D01*
X220429Y210746D01*
X220447Y210748D01*
X220622Y210805D01*
X220797Y210859D01*
X220813Y210867D01*
X220830Y210873D01*
X220990Y210963D01*
X221151Y211050D01*
X221165Y211062D01*
X221181Y211071D01*
X221320Y211191D01*
X221461Y211308D01*
X221472Y211322D01*
X221485Y211334D01*
X221598Y211479D01*
X221713Y211622D01*
X221721Y211638D01*
X221732Y211652D01*
X221814Y211817D01*
X221898Y211979D01*
X221903Y211996D01*
X221911Y212012D01*
X221959Y212191D01*
X222010Y212366D01*
X222011Y212384D01*
X222016Y212401D01*
X222036Y212643D01*
X222166Y212659D01*
X222349Y212677D01*
X222366Y212682D01*
X222383Y212684D01*
X222558Y212741D01*
X222734Y212795D01*
X222749Y212803D01*
X222766Y212809D01*
X222926Y212899D01*
X223088Y212987D01*
X223101Y212998D01*
X223117Y213007D01*
X223256Y213127D01*
X223397Y213245D01*
X223408Y213258D01*
X223422Y213270D01*
X223534Y213415D01*
X223649Y213558D01*
X223657Y213574D01*
X223668Y213588D01*
X223750Y213753D01*
X223835Y213916D01*
X223840Y213933D01*
X223848Y213949D01*
X223895Y214127D01*
X223946Y214302D01*
X223948Y214320D01*
X223952Y214337D01*
X223979Y214668D01*
X223979Y222241D01*
X227315Y222241D01*
X227961Y222068D01*
X228540Y221733D01*
X229111Y221162D01*
X229134Y221131D01*
X229194Y221074D01*
X229248Y221011D01*
X229341Y220937D01*
X229428Y220856D01*
X229499Y220813D01*
X229563Y220762D01*
X229670Y220708D01*
X229771Y220645D01*
X229849Y220617D01*
X229922Y220579D01*
X230037Y220547D01*
X230149Y220506D01*
X230231Y220494D01*
X230310Y220471D01*
X230429Y220463D01*
X230547Y220444D01*
X230629Y220448D01*
X230712Y220442D01*
X230830Y220457D01*
X230949Y220462D01*
X231029Y220482D01*
X231111Y220492D01*
X231224Y220530D01*
X231340Y220559D01*
X231415Y220594D01*
X231493Y220621D01*
X231596Y220680D01*
X231704Y220731D01*
X231770Y220780D01*
X231842Y220822D01*
X231958Y220920D01*
X232027Y220971D01*
X232054Y221002D01*
X232095Y221036D01*
X233307Y222249D01*
X251833Y222249D01*
X253619Y220462D01*
X253619Y220457D01*
X253640Y220271D01*
X253659Y220083D01*
X253663Y220070D01*
X253664Y220057D01*
X253722Y219878D01*
X253777Y219698D01*
X253783Y219686D01*
X253787Y219673D01*
X253879Y219509D01*
X253969Y219344D01*
X253977Y219334D01*
X253984Y219322D01*
X254106Y219179D01*
X254226Y219035D01*
X254237Y219026D01*
X254245Y219016D01*
X254393Y218900D01*
X254540Y218782D01*
X254552Y218776D01*
X254562Y218768D01*
X254731Y218683D01*
X254897Y218597D01*
X254910Y218593D01*
X254922Y218587D01*
X255104Y218537D01*
X255284Y218485D01*
X255298Y218484D01*
X255311Y218481D01*
X255499Y218468D01*
X255686Y218453D01*
X255699Y218454D01*
X255712Y218453D01*
X255900Y218478D01*
X256085Y218499D01*
X256098Y218504D01*
X256111Y218505D01*
X256427Y218607D01*
X258479Y219457D01*
X261713Y219457D01*
X264701Y218219D01*
X266987Y215933D01*
X268225Y212945D01*
X268225Y209711D01*
X266987Y206723D01*
X264701Y204437D01*
X261713Y203199D01*
X258479Y203199D01*
X256427Y204049D01*
X256414Y204053D01*
X256403Y204059D01*
X256223Y204111D01*
X256042Y204166D01*
X256029Y204167D01*
X256016Y204171D01*
X255828Y204186D01*
X255641Y204204D01*
X255628Y204202D01*
X255614Y204203D01*
X255427Y204181D01*
X255241Y204162D01*
X255228Y204158D01*
X255215Y204157D01*
X255035Y204098D01*
X254856Y204042D01*
X254845Y204036D01*
X254832Y204032D01*
X254667Y203939D01*
X254503Y203849D01*
X254493Y203840D01*
X254481Y203834D01*
X254339Y203711D01*
X254195Y203590D01*
X254187Y203579D01*
X254176Y203571D01*
X254061Y203422D01*
X253944Y203275D01*
X253938Y203263D01*
X253930Y203253D01*
X253846Y203084D01*
X253760Y202917D01*
X253756Y202904D01*
X253750Y202892D01*
X253701Y202709D01*
X253650Y202530D01*
X253649Y202516D01*
X253646Y202503D01*
X253619Y202173D01*
X253619Y185937D01*
X251833Y184151D01*
X233307Y184151D01*
X232461Y184997D01*
X232447Y185008D01*
X232436Y185022D01*
X232292Y185136D01*
X232150Y185252D01*
X232134Y185261D01*
X232120Y185272D01*
X231956Y185355D01*
X231794Y185441D01*
X231777Y185446D01*
X231761Y185454D01*
X231584Y185503D01*
X231408Y185556D01*
X231390Y185557D01*
X231373Y185562D01*
X231190Y185575D01*
X231007Y185592D01*
X230989Y185590D01*
X230972Y185591D01*
X230790Y185568D01*
X230607Y185549D01*
X230590Y185543D01*
X230572Y185541D01*
X230398Y185483D01*
X230223Y185427D01*
X230207Y185418D01*
X230191Y185413D01*
X230032Y185321D01*
X229871Y185232D01*
X229857Y185221D01*
X229842Y185212D01*
X229589Y184997D01*
X228243Y183651D01*
X213717Y183651D01*
G37*
%LPD*%
G36*
X385224Y214633D02*
X385224Y214633D01*
X385252Y214631D01*
X385425Y214653D01*
X385597Y214671D01*
X385624Y214679D01*
X385652Y214682D01*
X385816Y214738D01*
X385982Y214789D01*
X386007Y214802D01*
X386033Y214811D01*
X386323Y214972D01*
X411397Y231688D01*
X411403Y231693D01*
X411410Y231697D01*
X411560Y231821D01*
X411709Y231943D01*
X411714Y231949D01*
X411720Y231954D01*
X411841Y232105D01*
X411963Y232255D01*
X411967Y232262D01*
X411972Y232268D01*
X412061Y232440D01*
X412152Y232611D01*
X412154Y232619D01*
X412157Y232625D01*
X412211Y232811D01*
X412266Y232997D01*
X412267Y233005D01*
X412269Y233012D01*
X412285Y233205D01*
X412302Y233398D01*
X412301Y233406D01*
X412302Y233414D01*
X412279Y233606D01*
X412258Y233798D01*
X412256Y233806D01*
X412255Y233813D01*
X412195Y233998D01*
X412136Y234182D01*
X412132Y234189D01*
X412130Y234196D01*
X412035Y234364D01*
X411941Y234534D01*
X411936Y234540D01*
X411932Y234547D01*
X411805Y234694D01*
X411680Y234841D01*
X411674Y234846D01*
X411669Y234852D01*
X411517Y234969D01*
X411364Y235090D01*
X411357Y235094D01*
X411351Y235098D01*
X411179Y235184D01*
X411005Y235272D01*
X410997Y235274D01*
X410990Y235278D01*
X410802Y235328D01*
X410617Y235380D01*
X410609Y235380D01*
X410601Y235382D01*
X410271Y235409D01*
X408605Y235409D01*
X407959Y235582D01*
X407943Y235592D01*
X407801Y235656D01*
X407663Y235726D01*
X407618Y235739D01*
X407576Y235758D01*
X407425Y235792D01*
X407275Y235834D01*
X407229Y235837D01*
X407183Y235848D01*
X407029Y235852D01*
X406874Y235863D01*
X406827Y235858D01*
X406781Y235859D01*
X406628Y235832D01*
X406474Y235813D01*
X406430Y235798D01*
X406384Y235790D01*
X406240Y235734D01*
X406093Y235685D01*
X406052Y235662D01*
X406009Y235645D01*
X405878Y235561D01*
X405744Y235484D01*
X405704Y235450D01*
X405669Y235428D01*
X405607Y235368D01*
X405491Y235269D01*
X405123Y234901D01*
X394942Y234901D01*
X394825Y234997D01*
X394809Y235006D01*
X394795Y235017D01*
X394631Y235100D01*
X394469Y235186D01*
X394452Y235191D01*
X394436Y235199D01*
X394259Y235248D01*
X394083Y235301D01*
X394065Y235302D01*
X394048Y235307D01*
X393865Y235320D01*
X393682Y235337D01*
X393664Y235335D01*
X393647Y235336D01*
X393465Y235313D01*
X393282Y235294D01*
X393265Y235288D01*
X393247Y235286D01*
X393074Y235228D01*
X392898Y235172D01*
X392882Y235163D01*
X392865Y235158D01*
X392706Y235066D01*
X392546Y234977D01*
X392532Y234966D01*
X392517Y234957D01*
X392451Y234901D01*
X382242Y234901D01*
X382125Y234997D01*
X382109Y235006D01*
X382095Y235017D01*
X381931Y235100D01*
X381769Y235186D01*
X381752Y235191D01*
X381736Y235199D01*
X381559Y235248D01*
X381383Y235301D01*
X381365Y235302D01*
X381348Y235307D01*
X381165Y235320D01*
X380982Y235337D01*
X380964Y235335D01*
X380947Y235336D01*
X380765Y235313D01*
X380582Y235294D01*
X380565Y235288D01*
X380547Y235286D01*
X380374Y235228D01*
X380198Y235172D01*
X380182Y235163D01*
X380165Y235158D01*
X380006Y235066D01*
X379846Y234977D01*
X379832Y234966D01*
X379817Y234957D01*
X379751Y234901D01*
X369542Y234901D01*
X369425Y234997D01*
X369409Y235006D01*
X369395Y235017D01*
X369231Y235100D01*
X369069Y235186D01*
X369052Y235191D01*
X369036Y235199D01*
X368859Y235248D01*
X368683Y235301D01*
X368665Y235302D01*
X368648Y235307D01*
X368465Y235320D01*
X368282Y235337D01*
X368264Y235335D01*
X368247Y235336D01*
X368065Y235313D01*
X367882Y235294D01*
X367865Y235288D01*
X367847Y235286D01*
X367674Y235228D01*
X367498Y235172D01*
X367482Y235163D01*
X367465Y235158D01*
X367306Y235066D01*
X367146Y234977D01*
X367132Y234966D01*
X367117Y234957D01*
X367051Y234901D01*
X356842Y234901D01*
X356725Y234997D01*
X356709Y235006D01*
X356695Y235017D01*
X356531Y235100D01*
X356369Y235186D01*
X356352Y235191D01*
X356336Y235199D01*
X356159Y235248D01*
X355983Y235301D01*
X355965Y235302D01*
X355948Y235307D01*
X355765Y235320D01*
X355582Y235337D01*
X355564Y235335D01*
X355547Y235336D01*
X355365Y235313D01*
X355182Y235294D01*
X355165Y235288D01*
X355147Y235286D01*
X354974Y235228D01*
X354798Y235172D01*
X354782Y235163D01*
X354765Y235158D01*
X354606Y235066D01*
X354446Y234977D01*
X354432Y234966D01*
X354417Y234957D01*
X354351Y234901D01*
X343662Y234901D01*
X343644Y234899D01*
X343626Y234901D01*
X343444Y234880D01*
X343261Y234861D01*
X343244Y234856D01*
X343227Y234854D01*
X343052Y234797D01*
X342876Y234743D01*
X342861Y234735D01*
X342844Y234729D01*
X342684Y234639D01*
X342522Y234551D01*
X342509Y234540D01*
X342493Y234531D01*
X342354Y234411D01*
X342213Y234294D01*
X342202Y234280D01*
X342188Y234268D01*
X342076Y234123D01*
X341961Y233980D01*
X341953Y233964D01*
X341942Y233950D01*
X341860Y233785D01*
X341775Y233623D01*
X341770Y233606D01*
X341762Y233590D01*
X341715Y233411D01*
X341664Y233236D01*
X341662Y233218D01*
X341658Y233201D01*
X341631Y232870D01*
X341631Y230637D01*
X340857Y228770D01*
X335364Y223277D01*
X333497Y222503D01*
X324248Y222503D01*
X324222Y222501D01*
X324195Y222503D01*
X324021Y222481D01*
X323848Y222463D01*
X323822Y222456D01*
X323796Y222452D01*
X323630Y222396D01*
X323463Y222345D01*
X323439Y222332D01*
X323414Y222324D01*
X323263Y222237D01*
X323109Y222153D01*
X323088Y222136D01*
X323065Y222123D01*
X322812Y221908D01*
X321597Y220693D01*
X320688Y220317D01*
X320684Y220315D01*
X320680Y220313D01*
X320510Y220221D01*
X320333Y220126D01*
X320330Y220124D01*
X320326Y220121D01*
X320178Y219998D01*
X320023Y219870D01*
X320020Y219867D01*
X320017Y219864D01*
X319893Y219710D01*
X319769Y219557D01*
X319767Y219553D01*
X319764Y219550D01*
X319674Y219377D01*
X319582Y219201D01*
X319581Y219196D01*
X319579Y219193D01*
X319525Y219005D01*
X319469Y218815D01*
X319469Y218810D01*
X319468Y218806D01*
X319451Y218609D01*
X319435Y218413D01*
X319435Y218409D01*
X319435Y218404D01*
X319458Y218209D01*
X319480Y218013D01*
X319481Y218009D01*
X319482Y218005D01*
X319543Y217817D01*
X319603Y217630D01*
X319605Y217626D01*
X319606Y217622D01*
X319705Y217447D01*
X319799Y217279D01*
X319802Y217275D01*
X319804Y217271D01*
X319934Y217121D01*
X320061Y216973D01*
X320065Y216970D01*
X320068Y216966D01*
X320221Y216847D01*
X320378Y216724D01*
X320382Y216722D01*
X320386Y216720D01*
X320559Y216633D01*
X320738Y216544D01*
X320742Y216542D01*
X320746Y216540D01*
X320935Y216490D01*
X321126Y216437D01*
X321131Y216437D01*
X321135Y216436D01*
X321466Y216409D01*
X322067Y216409D01*
X322920Y216055D01*
X322950Y216046D01*
X322978Y216032D01*
X323142Y215988D01*
X323305Y215939D01*
X323336Y215936D01*
X323366Y215928D01*
X323697Y215901D01*
X373373Y215901D01*
X374048Y215226D01*
X374069Y215209D01*
X374086Y215188D01*
X374224Y215081D01*
X374359Y214971D01*
X374383Y214958D01*
X374404Y214942D01*
X374561Y214864D01*
X374715Y214782D01*
X374741Y214774D01*
X374765Y214762D01*
X374934Y214717D01*
X375101Y214667D01*
X375128Y214665D01*
X375153Y214658D01*
X375484Y214631D01*
X385197Y214631D01*
X385224Y214633D01*
G37*
%LPC*%
G36*
X515505Y323559D02*
X515505Y323559D01*
X513719Y325345D01*
X513719Y347871D01*
X515505Y349657D01*
X543031Y349657D01*
X544817Y347871D01*
X544817Y325345D01*
X543031Y323559D01*
X515505Y323559D01*
G37*
%LPD*%
%LPC*%
G36*
X515505Y234559D02*
X515505Y234559D01*
X513719Y236345D01*
X513719Y258871D01*
X515505Y260657D01*
X543031Y260657D01*
X544817Y258871D01*
X544817Y236345D01*
X543031Y234559D01*
X515505Y234559D01*
G37*
%LPD*%
%LPC*%
G36*
X552766Y307559D02*
X552766Y307559D01*
X549992Y308708D01*
X547776Y310924D01*
X547769Y310930D01*
X547764Y310937D01*
X547614Y311057D01*
X547465Y311179D01*
X547457Y311183D01*
X547450Y311189D01*
X547280Y311278D01*
X547109Y311368D01*
X547100Y311370D01*
X547093Y311375D01*
X546908Y311428D01*
X546723Y311483D01*
X546714Y311483D01*
X546706Y311486D01*
X546515Y311502D01*
X546322Y311519D01*
X546313Y311518D01*
X546304Y311519D01*
X546115Y311497D01*
X545922Y311476D01*
X545913Y311473D01*
X545905Y311472D01*
X545723Y311413D01*
X545538Y311354D01*
X545530Y311350D01*
X545522Y311347D01*
X545353Y311252D01*
X545186Y311159D01*
X545179Y311154D01*
X545171Y311149D01*
X545025Y311023D01*
X544879Y310899D01*
X544873Y310892D01*
X544866Y310886D01*
X544749Y310735D01*
X544674Y310639D01*
X531299Y310639D01*
X531299Y313649D01*
X542103Y313649D01*
X542749Y313476D01*
X543383Y313109D01*
X543414Y313084D01*
X543563Y312963D01*
X543571Y312958D01*
X543578Y312953D01*
X543748Y312864D01*
X543919Y312774D01*
X543927Y312771D01*
X543935Y312767D01*
X544120Y312714D01*
X544305Y312659D01*
X544314Y312658D01*
X544322Y312656D01*
X544514Y312640D01*
X544706Y312623D01*
X544715Y312624D01*
X544724Y312623D01*
X544914Y312645D01*
X545106Y312666D01*
X545114Y312669D01*
X545123Y312670D01*
X545307Y312730D01*
X545490Y312787D01*
X545498Y312792D01*
X545506Y312795D01*
X545675Y312890D01*
X545842Y312982D01*
X545849Y312988D01*
X545857Y312992D01*
X546001Y313117D01*
X546149Y313243D01*
X546155Y313250D01*
X546162Y313256D01*
X546279Y313406D01*
X546399Y313558D01*
X546403Y313567D01*
X546408Y313574D01*
X546494Y313746D01*
X546581Y313917D01*
X546584Y313926D01*
X546588Y313934D01*
X546638Y314121D01*
X546689Y314305D01*
X546690Y314314D01*
X546692Y314323D01*
X546719Y314654D01*
X546719Y316610D01*
X547868Y319384D01*
X549992Y321508D01*
X552766Y322657D01*
X555770Y322657D01*
X558544Y321508D01*
X560668Y319384D01*
X561817Y316610D01*
X561817Y313606D01*
X560668Y310832D01*
X558544Y308708D01*
X555770Y307559D01*
X552766Y307559D01*
G37*
%LPD*%
%LPC*%
G36*
X224777Y332243D02*
X224777Y332243D01*
X224777Y339865D01*
X230618Y339865D01*
X232118Y339627D01*
X233563Y339158D01*
X234917Y338468D01*
X236146Y337575D01*
X237221Y336500D01*
X238114Y335271D01*
X238804Y333917D01*
X239273Y332472D01*
X239309Y332243D01*
X224777Y332243D01*
G37*
%LPD*%
%LPC*%
G36*
X224777Y320559D02*
X224777Y320559D01*
X224777Y328181D01*
X239309Y328181D01*
X239273Y327952D01*
X238804Y326507D01*
X238114Y325153D01*
X237221Y323924D01*
X236146Y322849D01*
X234917Y321956D01*
X233563Y321266D01*
X232118Y320797D01*
X230618Y320559D01*
X224777Y320559D01*
G37*
%LPD*%
%LPC*%
G36*
X528827Y400811D02*
X528827Y400811D01*
X528827Y408941D01*
X530707Y408941D01*
X536957Y402691D01*
X536957Y400811D01*
X528827Y400811D01*
G37*
%LPD*%
%LPC*%
G36*
X528827Y387603D02*
X528827Y387603D01*
X528827Y395733D01*
X536957Y395733D01*
X536957Y393853D01*
X530707Y387603D01*
X528827Y387603D01*
G37*
%LPD*%
%LPC*%
G36*
X438199Y371549D02*
X438199Y371549D01*
X438199Y378341D01*
X441785Y378341D01*
X442431Y378168D01*
X443010Y377833D01*
X443483Y377360D01*
X443818Y376781D01*
X443991Y376135D01*
X443991Y371549D01*
X438199Y371549D01*
G37*
%LPD*%
%LPC*%
G36*
X287323Y342339D02*
X287323Y342339D01*
X287323Y349131D01*
X290909Y349131D01*
X291555Y348958D01*
X292134Y348623D01*
X292607Y348150D01*
X292942Y347571D01*
X293115Y346925D01*
X293115Y342339D01*
X287323Y342339D01*
G37*
%LPD*%
%LPC*%
G36*
X438199Y358259D02*
X438199Y358259D01*
X438199Y365051D01*
X443991Y365051D01*
X443991Y360465D01*
X443818Y359819D01*
X443483Y359240D01*
X443010Y358767D01*
X442431Y358432D01*
X441785Y358259D01*
X438199Y358259D01*
G37*
%LPD*%
%LPC*%
G36*
X542999Y184659D02*
X542999Y184659D01*
X542999Y190451D01*
X549791Y190451D01*
X549791Y186865D01*
X549618Y186219D01*
X549283Y185640D01*
X548810Y185167D01*
X548231Y184832D01*
X547585Y184659D01*
X542999Y184659D01*
G37*
%LPD*%
%LPC*%
G36*
X301699Y184659D02*
X301699Y184659D01*
X301699Y190451D01*
X308491Y190451D01*
X308491Y186865D01*
X308318Y186219D01*
X307983Y185640D01*
X307510Y185167D01*
X306931Y184832D01*
X306285Y184659D01*
X301699Y184659D01*
G37*
%LPD*%
%LPC*%
G36*
X517599Y184659D02*
X517599Y184659D01*
X517599Y190451D01*
X524391Y190451D01*
X524391Y186865D01*
X524218Y186219D01*
X523883Y185640D01*
X523410Y185167D01*
X522831Y184832D01*
X522185Y184659D01*
X517599Y184659D01*
G37*
%LPD*%
%LPC*%
G36*
X492199Y184659D02*
X492199Y184659D01*
X492199Y190451D01*
X498991Y190451D01*
X498991Y186865D01*
X498818Y186219D01*
X498483Y185640D01*
X498010Y185167D01*
X497431Y184832D01*
X496785Y184659D01*
X492199Y184659D01*
G37*
%LPD*%
%LPC*%
G36*
X531915Y184659D02*
X531915Y184659D01*
X531269Y184832D01*
X530690Y185167D01*
X530217Y185640D01*
X529882Y186219D01*
X529709Y186865D01*
X529709Y190451D01*
X536501Y190451D01*
X536501Y184659D01*
X531915Y184659D01*
G37*
%LPD*%
%LPC*%
G36*
X290615Y184659D02*
X290615Y184659D01*
X289969Y184832D01*
X289390Y185167D01*
X288917Y185640D01*
X288582Y186219D01*
X288409Y186865D01*
X288409Y190451D01*
X295201Y190451D01*
X295201Y184659D01*
X290615Y184659D01*
G37*
%LPD*%
%LPC*%
G36*
X506515Y184659D02*
X506515Y184659D01*
X505869Y184832D01*
X505290Y185167D01*
X504817Y185640D01*
X504482Y186219D01*
X504309Y186865D01*
X504309Y190451D01*
X511101Y190451D01*
X511101Y184659D01*
X506515Y184659D01*
G37*
%LPD*%
%LPC*%
G36*
X481115Y184659D02*
X481115Y184659D01*
X480469Y184832D01*
X479890Y185167D01*
X479417Y185640D01*
X479082Y186219D01*
X478909Y186865D01*
X478909Y190451D01*
X485701Y190451D01*
X485701Y184659D01*
X481115Y184659D01*
G37*
%LPD*%
%LPC*%
G36*
X514227Y310639D02*
X514227Y310639D01*
X514227Y311443D01*
X514400Y312089D01*
X514735Y312668D01*
X515208Y313141D01*
X515787Y313476D01*
X516433Y313649D01*
X527237Y313649D01*
X527237Y310639D01*
X514227Y310639D01*
G37*
%LPD*%
%LPC*%
G36*
X212439Y216699D02*
X212439Y216699D01*
X212439Y220035D01*
X212612Y220681D01*
X212947Y221260D01*
X213420Y221733D01*
X213999Y222068D01*
X214645Y222241D01*
X217981Y222241D01*
X217981Y216699D01*
X212439Y216699D01*
G37*
%LPD*%
D10*
X323850Y244300D03*
X336550Y244300D03*
X349250Y244300D03*
X361950Y244300D03*
X374650Y244300D03*
X387350Y244300D03*
X400050Y244300D03*
X412750Y244300D03*
X425450Y244300D03*
X438150Y244300D03*
X425450Y339900D03*
X438150Y339900D03*
X450850Y339900D03*
X463550Y339900D03*
X476250Y339900D03*
X488950Y339900D03*
X488950Y244300D03*
X476250Y244300D03*
X463550Y244300D03*
X450850Y244300D03*
X412750Y339900D03*
X400050Y339900D03*
X387350Y339900D03*
X374650Y339900D03*
X361950Y339900D03*
X349250Y339900D03*
X336550Y339900D03*
X323850Y339900D03*
D11*
X441960Y203200D03*
X345440Y203200D03*
D12*
X514350Y212700D03*
X514350Y193700D03*
X539750Y212700D03*
X539750Y193700D03*
X488950Y212700D03*
X488950Y193700D03*
X298450Y212700D03*
X298450Y193700D03*
X247650Y401676D03*
X247650Y382676D03*
D13*
X415950Y368300D03*
X434950Y368300D03*
D14*
X220980Y213700D03*
X220980Y192700D03*
D15*
X242570Y193700D03*
X242570Y212700D03*
D16*
X229858Y330212D02*
X215634Y330212D01*
X215634Y305212D02*
X229858Y305212D01*
X229858Y355212D02*
X215634Y355212D01*
D17*
X284074Y298704D03*
X265074Y298704D03*
X265074Y318770D03*
X284074Y318770D03*
D13*
X265074Y339090D03*
X284074Y339090D03*
D17*
X265074Y278638D03*
X284074Y278638D03*
D18*
X276352Y232840D03*
X266852Y254840D03*
X285852Y254840D03*
D19*
X280416Y398272D03*
D20*
X305816Y398272D03*
X331216Y398272D03*
X356616Y398272D03*
X382016Y398272D03*
D19*
X475488Y398272D03*
D20*
X500888Y398272D03*
X526288Y398272D03*
D21*
X584268Y337608D03*
X584268Y247608D03*
X529268Y336608D03*
X529268Y247608D03*
D22*
X529268Y292608D03*
X529268Y284608D03*
X529268Y276608D03*
X529268Y300608D03*
X529268Y308608D03*
D23*
X277560Y371856D03*
X301560Y371856D03*
D24*
X225806Y266700D03*
X225806Y241300D03*
D25*
X425450Y244300D02*
X425450Y234950D01*
X387350Y209550D01*
X358140Y209550D01*
X345440Y203200D01*
X329184Y203200D01*
X321056Y211328D01*
X298822Y211328D01*
X298450Y212700D01*
X438150Y207010D02*
X438150Y244300D01*
X438150Y207010D02*
X441960Y203200D01*
X459232Y203200D01*
X467360Y211328D01*
X488578Y211328D01*
X488950Y212700D01*
X438150Y339900D02*
X438150Y359800D01*
X434950Y368300D01*
D26*
X223012Y385064D03*
X555244Y358648D03*
X408432Y321564D03*
X571500Y184150D03*
X488950Y177800D03*
X514350Y177800D03*
X539750Y177800D03*
X273050Y177800D03*
X242570Y177800D03*
X433832Y389382D03*
X501142Y262636D03*
X506730Y318008D03*
X442976Y321056D03*
X455676Y321056D03*
X571500Y209550D03*
X555244Y338328D03*
X349504Y227584D03*
X377952Y227584D03*
X467360Y227584D03*
X413004Y265684D03*
X451104Y265684D03*
X324104Y176784D03*
X387604Y176784D03*
X451104Y176784D03*
X580644Y312928D03*
X557276Y292100D03*
X252730Y255016D03*
X273050Y194056D03*
X506476Y338328D03*
X248666Y336296D03*
X321818Y372872D03*
D25*
X514350Y212700D02*
X539750Y212700D01*
X488950Y234442D02*
X488950Y244300D01*
X488950Y234442D02*
X491744Y231648D01*
X503936Y231648D01*
X514350Y212700D02*
X514232Y211700D01*
X509270Y216662D01*
X509270Y226314D01*
X503936Y231648D01*
X475488Y312928D02*
X475488Y339138D01*
X476250Y339900D01*
X497840Y296672D02*
X501396Y293116D01*
X529268Y292608D02*
X529736Y292608D01*
X529268Y292608D02*
X502920Y292608D01*
X501396Y293116D01*
D26*
X497840Y296672D03*
X475488Y312928D03*
D25*
X488950Y336550D02*
X488950Y339900D01*
X487172Y338328D02*
X488950Y336550D01*
X487172Y338328D02*
X487172Y289560D01*
X529268Y284608D02*
X529736Y284608D01*
X529268Y284608D02*
X492124Y284608D01*
X487172Y289560D01*
D27*
X425450Y349250D02*
X416950Y357750D01*
X425450Y349250D02*
X425450Y339900D01*
X425450Y304800D02*
X304800Y304800D01*
X416950Y357750D02*
X415950Y368300D01*
X425450Y339900D02*
X425450Y304800D01*
X457200Y304800D01*
X304800Y304800D02*
X284480Y304800D01*
X284480Y313792D01*
X284074Y318770D01*
X284480Y304800D02*
X284480Y294792D01*
X284074Y298704D01*
D25*
X302768Y371856D02*
X304800Y373888D01*
X305816Y373888D01*
X305816Y398272D01*
X529268Y276608D02*
X536192Y276608D01*
X536448Y276352D01*
X530496Y276352D01*
X529268Y276608D02*
X485392Y276608D01*
X457200Y304800D01*
X302768Y371856D02*
X301560Y371856D01*
D28*
X304800Y304800D03*
D25*
X278384Y371856D02*
X276352Y373888D01*
X251968Y373888D01*
X247904Y377952D01*
X247904Y383422D01*
X247650Y382676D01*
X277560Y371856D02*
X278384Y371856D01*
X463550Y349250D02*
X463550Y339900D01*
X463550Y349250D02*
X501650Y387350D01*
X501650Y393700D01*
X501650Y398272D01*
X501650Y400050D01*
X501650Y398272D02*
X500888Y398272D01*
X476250Y374650D02*
X450850Y349250D01*
X450850Y339900D01*
X476250Y374650D02*
X476250Y393700D01*
X476250Y398272D01*
X476250Y400050D01*
X476250Y398272D02*
X475488Y398272D01*
X323850Y264414D02*
X323850Y244300D01*
X250562Y398272D02*
X247650Y401676D01*
X250562Y398272D02*
X280416Y398272D01*
D28*
X323850Y264414D03*
D25*
X242570Y193700D02*
X219948Y193700D01*
X220980Y192700D01*
X361950Y330200D02*
X361950Y339900D01*
X387350Y339900D02*
X387350Y330454D01*
X355600Y323850D02*
X317500Y323850D01*
X355600Y323850D02*
X380746Y323850D01*
X387350Y330454D01*
X361950Y330200D02*
X355600Y323850D01*
X317500Y323850D02*
X317500Y324612D01*
X312928Y329184D01*
X312928Y353568D01*
X249548Y355212D02*
X222746Y355212D01*
X249548Y355212D02*
X254000Y359664D01*
X306832Y359664D01*
X312928Y353568D01*
X323850Y352298D02*
X323850Y339900D01*
X323850Y352298D02*
X333248Y361696D01*
X353568Y361696D01*
X357632Y365760D01*
X357632Y398272D01*
X356616Y398272D01*
X336550Y348742D02*
X336550Y339900D01*
X336550Y348742D02*
X341376Y353568D01*
X369824Y353568D01*
X382016Y365760D01*
X382016Y398272D01*
X336550Y244300D02*
X336550Y231648D01*
X260096Y211328D02*
X243942Y211328D01*
X242570Y212700D01*
X316992Y227584D02*
X332486Y227584D01*
X336550Y231648D01*
D26*
X316992Y227584D03*
X260096Y211328D03*
D27*
X265074Y318770D02*
X264820Y331740D01*
X265074Y339090D01*
X240188Y309276D02*
X222746Y305212D01*
X240188Y309276D02*
X247904Y316992D01*
X262280Y316992D01*
X265074Y318770D01*
D25*
X476250Y260350D02*
X476250Y244300D01*
X476250Y260350D02*
X453644Y282956D01*
X307340Y282956D01*
X300736Y276352D01*
X284836Y276352D01*
X284074Y278638D01*
X285672Y254840D02*
X285852Y254840D01*
X265074Y278638D02*
X265074Y279502D01*
X264160Y276352D01*
X276352Y264160D01*
X280416Y264160D01*
X284480Y260096D01*
X284480Y256212D01*
X285852Y254840D01*
D29*
X250444Y241300D02*
X225806Y241300D01*
X250444Y241300D02*
X260096Y231648D01*
X275160Y231648D01*
X276352Y232840D01*
D27*
X265074Y298704D02*
X258064Y298704D01*
X243840Y284480D01*
X243840Y270256D01*
X239776Y266192D01*
X226568Y266192D02*
X226314Y266192D01*
X226568Y266192D02*
X239776Y266192D01*
X226314Y266192D02*
X225806Y266700D01*
D25*
X226060Y266700D01*
X226568Y266192D01*
M02*
