%
M48
M72
T01C0.0200
T02C0.0250
T03C0.0300
T04C0.0354
T05C0.0400
T06C0.1181
%
T01
X10476Y9263
X6376Y13663
X5576Y12863
X7526Y9463
X14326Y9963
X15726Y9806
X16169Y10221
X16726Y10573
X17226Y11463
X9726Y16363
X5126Y17063
X11126Y13613
X19926Y16713
X20826Y13413
X22076Y10913
X20626Y9763
X21026Y9263
X20626Y7863
X21026Y7363
X18826Y7763
X19126Y8613
X16926Y8263
X17026Y7763
X20126Y10263
T02
X6726Y6663
X4726Y6663
X11026Y7463
X8726Y6663
X8576Y9713
X7776Y10763
X8976Y11663
X8876Y13163
X7676Y12263
X7776Y11613
X5526Y11663
X4726Y10063
X6926Y14213
X5726Y15963
X7426Y16663
X4526Y19563
X7726Y19213
X10776Y17363
X17626Y14863
X14976Y9413
X12676Y10313
X14176Y11463
X12676Y11763
X14126Y12663
X13976Y13563
X14226Y15263
X11926Y14863
X7226Y17613
X2226Y17463
X9826Y19563
X12026Y19213
X14026Y19213
X16276Y19213
X16726Y18513
X21126Y18513
X23726Y18663
X22326Y17063
X25726Y16663
X25726Y14663
X25726Y12663
X25726Y10663
X25726Y8663
X23126Y6663
X21726Y7863
X17726Y6463
X15826Y8163
X21426Y10063
X20926Y12413
X19976Y13363
X21426Y13913
X17676Y17363
X20526Y19213
X18326Y19763
X13126Y18213
X10676Y12163
X6926Y9663
X2726Y8663
T03
X10776Y16713
X3926Y16663
T04
X3501Y13780
X3501Y12047
T05
X12476Y6663
X13476Y6663
X14476Y6663
X15476Y6663
X16476Y6663
X24226Y14913
X23226Y14913
X23226Y13913
X24226Y13913
X24226Y12913
X23226Y12913
X23226Y11913
X24226Y11913
X24226Y10913
X23226Y10913
T06
X2681Y6289
X25772Y6289
X2681Y19537
X25772Y19537
M30
