G75*
G70*
%OFA0B0*%
%FSLAX24Y24*%
%IPPOS*%
%LPD*%
%AMOC8*
5,1,8,0,0,1.08239X$1,22.5*
%
%ADD10C,0.0081*%
%ADD11C,0.0083*%
%ADD12C,0.0082*%
%ADD13C,0.0082*%
%ADD14R,0.0394X0.0177*%
%ADD15C,0.0087*%
%ADD16C,0.0080*%
%ADD17C,0.0434*%
%ADD18C,0.0081*%
%ADD19C,0.0082*%
%ADD20C,0.0080*%
%ADD21R,0.0720X0.0720*%
%ADD22OC8,0.0720*%
%ADD23C,0.1340*%
%ADD24C,0.0580*%
D10*
X009431Y007830D02*
X009863Y007830D01*
X009863Y007436D01*
X009431Y007436D01*
X009431Y007830D01*
X009431Y007516D02*
X009863Y007516D01*
X009863Y007596D02*
X009431Y007596D01*
X009431Y007676D02*
X009863Y007676D01*
X009863Y007756D02*
X009431Y007756D01*
X010101Y007830D02*
X010533Y007830D01*
X010533Y007436D01*
X010101Y007436D01*
X010101Y007830D01*
X010101Y007516D02*
X010533Y007516D01*
X010533Y007596D02*
X010101Y007596D01*
X010101Y007676D02*
X010533Y007676D01*
X010533Y007756D02*
X010101Y007756D01*
X010881Y007830D02*
X011313Y007830D01*
X011313Y007436D01*
X010881Y007436D01*
X010881Y007830D01*
X010881Y007516D02*
X011313Y007516D01*
X011313Y007596D02*
X010881Y007596D01*
X010881Y007676D02*
X011313Y007676D01*
X011313Y007756D02*
X010881Y007756D01*
X011551Y007830D02*
X011983Y007830D01*
X011983Y007436D01*
X011551Y007436D01*
X011551Y007830D01*
X011551Y007516D02*
X011983Y007516D01*
X011983Y007596D02*
X011551Y007596D01*
X011551Y007676D02*
X011983Y007676D01*
X011983Y007756D02*
X011551Y007756D01*
X012450Y007849D02*
X012844Y007849D01*
X012844Y007417D01*
X012450Y007417D01*
X012450Y007849D01*
X012450Y007497D02*
X012844Y007497D01*
X012844Y007577D02*
X012450Y007577D01*
X012450Y007657D02*
X012844Y007657D01*
X012844Y007737D02*
X012450Y007737D01*
X012450Y007817D02*
X012844Y007817D01*
X013120Y007849D02*
X013514Y007849D01*
X013514Y007417D01*
X013120Y007417D01*
X013120Y007849D01*
X013120Y007497D02*
X013514Y007497D01*
X013514Y007577D02*
X013120Y007577D01*
X013120Y007657D02*
X013514Y007657D01*
X013514Y007737D02*
X013120Y007737D01*
X013120Y007817D02*
X013514Y007817D01*
X013931Y008538D02*
X014363Y008538D01*
X014363Y008144D01*
X013931Y008144D01*
X013931Y008538D01*
X013931Y008224D02*
X014363Y008224D01*
X014363Y008304D02*
X013931Y008304D01*
X013931Y008384D02*
X014363Y008384D01*
X014363Y008464D02*
X013931Y008464D01*
X014601Y008538D02*
X015033Y008538D01*
X015033Y008144D01*
X014601Y008144D01*
X014601Y008538D01*
X014601Y008224D02*
X015033Y008224D01*
X015033Y008304D02*
X014601Y008304D01*
X014601Y008384D02*
X015033Y008384D01*
X015033Y008464D02*
X014601Y008464D01*
X008885Y010582D02*
X008885Y011014D01*
X009279Y011014D01*
X009279Y010582D01*
X008885Y010582D01*
X008885Y010662D02*
X009279Y010662D01*
X009279Y010742D02*
X008885Y010742D01*
X008885Y010822D02*
X009279Y010822D01*
X009279Y010902D02*
X008885Y010902D01*
X008885Y010982D02*
X009279Y010982D01*
X008885Y011251D02*
X008885Y011683D01*
X009279Y011683D01*
X009279Y011251D01*
X008885Y011251D01*
X008885Y011331D02*
X009279Y011331D01*
X009279Y011411D02*
X008885Y011411D01*
X008885Y011491D02*
X009279Y011491D01*
X009279Y011571D02*
X008885Y011571D01*
X008885Y011651D02*
X009279Y011651D01*
X005697Y014690D02*
X005697Y015122D01*
X006091Y015122D01*
X006091Y014690D01*
X005697Y014690D01*
X005697Y014770D02*
X006091Y014770D01*
X006091Y014850D02*
X005697Y014850D01*
X005697Y014930D02*
X006091Y014930D01*
X006091Y015010D02*
X005697Y015010D01*
X005697Y015090D02*
X006091Y015090D01*
X005697Y015360D02*
X005697Y015792D01*
X006091Y015792D01*
X006091Y015360D01*
X005697Y015360D01*
X005697Y015440D02*
X006091Y015440D01*
X006091Y015520D02*
X005697Y015520D01*
X005697Y015600D02*
X006091Y015600D01*
X006091Y015680D02*
X005697Y015680D01*
X005697Y015760D02*
X006091Y015760D01*
X007800Y018415D02*
X008194Y018415D01*
X008194Y017983D01*
X007800Y017983D01*
X007800Y018415D01*
X007800Y018063D02*
X008194Y018063D01*
X008194Y018143D02*
X007800Y018143D01*
X007800Y018223D02*
X008194Y018223D01*
X008194Y018303D02*
X007800Y018303D01*
X007800Y018383D02*
X008194Y018383D01*
X008469Y018415D02*
X008863Y018415D01*
X008863Y017983D01*
X008469Y017983D01*
X008469Y018415D01*
X008469Y018063D02*
X008863Y018063D01*
X008863Y018143D02*
X008469Y018143D01*
X008469Y018223D02*
X008863Y018223D01*
X008863Y018303D02*
X008469Y018303D01*
X008469Y018383D02*
X008863Y018383D01*
X011737Y018415D02*
X012131Y018415D01*
X012131Y017983D01*
X011737Y017983D01*
X011737Y018415D01*
X011737Y018063D02*
X012131Y018063D01*
X012131Y018143D02*
X011737Y018143D01*
X011737Y018223D02*
X012131Y018223D01*
X012131Y018303D02*
X011737Y018303D01*
X011737Y018383D02*
X012131Y018383D01*
X012406Y018415D02*
X012800Y018415D01*
X012800Y017983D01*
X012406Y017983D01*
X012406Y018415D01*
X012406Y018063D02*
X012800Y018063D01*
X012800Y018143D02*
X012406Y018143D01*
X012406Y018223D02*
X012800Y018223D01*
X012800Y018303D02*
X012406Y018303D01*
X012406Y018383D02*
X012800Y018383D01*
X015674Y018415D02*
X016068Y018415D01*
X016068Y017983D01*
X015674Y017983D01*
X015674Y018415D01*
X015674Y018063D02*
X016068Y018063D01*
X016068Y018143D02*
X015674Y018143D01*
X015674Y018223D02*
X016068Y018223D01*
X016068Y018303D02*
X015674Y018303D01*
X015674Y018383D02*
X016068Y018383D01*
X016343Y018415D02*
X016737Y018415D01*
X016737Y017983D01*
X016343Y017983D01*
X016343Y018415D01*
X016343Y018063D02*
X016737Y018063D01*
X016737Y018143D02*
X016343Y018143D01*
X016343Y018223D02*
X016737Y018223D01*
X016737Y018303D02*
X016343Y018303D01*
X016343Y018383D02*
X016737Y018383D01*
X019611Y018415D02*
X020005Y018415D01*
X020005Y017983D01*
X019611Y017983D01*
X019611Y018415D01*
X019611Y018063D02*
X020005Y018063D01*
X020005Y018143D02*
X019611Y018143D01*
X019611Y018223D02*
X020005Y018223D01*
X020005Y018303D02*
X019611Y018303D01*
X019611Y018383D02*
X020005Y018383D01*
X020280Y018415D02*
X020674Y018415D01*
X020674Y017983D01*
X020280Y017983D01*
X020280Y018415D01*
X020280Y018063D02*
X020674Y018063D01*
X020674Y018143D02*
X020280Y018143D01*
X020280Y018223D02*
X020674Y018223D01*
X020674Y018303D02*
X020280Y018303D01*
X020280Y018383D02*
X020674Y018383D01*
X018979Y015792D02*
X018979Y015360D01*
X018585Y015360D01*
X018585Y015792D01*
X018979Y015792D01*
X018979Y015440D02*
X018585Y015440D01*
X018585Y015520D02*
X018979Y015520D01*
X018979Y015600D02*
X018585Y015600D01*
X018585Y015680D02*
X018979Y015680D01*
X018979Y015760D02*
X018585Y015760D01*
X017385Y015792D02*
X017385Y015360D01*
X017385Y015792D02*
X017779Y015792D01*
X017779Y015360D01*
X017385Y015360D01*
X017385Y015440D02*
X017779Y015440D01*
X017779Y015520D02*
X017385Y015520D01*
X017385Y015600D02*
X017779Y015600D01*
X017779Y015680D02*
X017385Y015680D01*
X017385Y015760D02*
X017779Y015760D01*
X017385Y015122D02*
X017385Y014690D01*
X017385Y015122D02*
X017779Y015122D01*
X017779Y014690D01*
X017385Y014690D01*
X017385Y014770D02*
X017779Y014770D01*
X017779Y014850D02*
X017385Y014850D01*
X017385Y014930D02*
X017779Y014930D01*
X017779Y015010D02*
X017385Y015010D01*
X017385Y015090D02*
X017779Y015090D01*
X018979Y015122D02*
X018979Y014690D01*
X018585Y014690D01*
X018585Y015122D01*
X018979Y015122D01*
X018979Y014770D02*
X018585Y014770D01*
X018585Y014850D02*
X018979Y014850D01*
X018979Y014930D02*
X018585Y014930D01*
X018585Y015010D02*
X018979Y015010D01*
X018979Y015090D02*
X018585Y015090D01*
X014197Y015122D02*
X014197Y014690D01*
X014197Y015122D02*
X014591Y015122D01*
X014591Y014690D01*
X014197Y014690D01*
X014197Y014770D02*
X014591Y014770D01*
X014591Y014850D02*
X014197Y014850D01*
X014197Y014930D02*
X014591Y014930D01*
X014591Y015010D02*
X014197Y015010D01*
X014197Y015090D02*
X014591Y015090D01*
X014197Y015360D02*
X014197Y015792D01*
X014591Y015792D01*
X014591Y015360D01*
X014197Y015360D01*
X014197Y015440D02*
X014591Y015440D01*
X014591Y015520D02*
X014197Y015520D01*
X014197Y015600D02*
X014591Y015600D01*
X014591Y015680D02*
X014197Y015680D01*
X014197Y015760D02*
X014591Y015760D01*
X020050Y010599D02*
X020444Y010599D01*
X020444Y010167D01*
X020050Y010167D01*
X020050Y010599D01*
X020050Y010247D02*
X020444Y010247D01*
X020444Y010327D02*
X020050Y010327D01*
X020050Y010407D02*
X020444Y010407D01*
X020444Y010487D02*
X020050Y010487D01*
X020050Y010567D02*
X020444Y010567D01*
X020720Y010599D02*
X021114Y010599D01*
X021114Y010167D01*
X020720Y010167D01*
X020720Y010599D01*
X020720Y010247D02*
X021114Y010247D01*
X021114Y010327D02*
X020720Y010327D01*
X020720Y010407D02*
X021114Y010407D01*
X021114Y010487D02*
X020720Y010487D01*
X020720Y010567D02*
X021114Y010567D01*
X023806Y007061D02*
X024238Y007061D01*
X023806Y007061D02*
X023806Y007455D01*
X024238Y007455D01*
X024238Y007061D01*
X024238Y007141D02*
X023806Y007141D01*
X023806Y007221D02*
X024238Y007221D01*
X024238Y007301D02*
X023806Y007301D01*
X023806Y007381D02*
X024238Y007381D01*
X024476Y007061D02*
X024908Y007061D01*
X024476Y007061D02*
X024476Y007455D01*
X024908Y007455D01*
X024908Y007061D01*
X024908Y007141D02*
X024476Y007141D01*
X024476Y007221D02*
X024908Y007221D01*
X024908Y007301D02*
X024476Y007301D01*
X024476Y007381D02*
X024908Y007381D01*
D11*
X022289Y017964D02*
X022289Y018434D01*
X022759Y018434D01*
X022759Y017964D01*
X022289Y017964D01*
X022289Y018046D02*
X022759Y018046D01*
X022759Y018128D02*
X022289Y018128D01*
X022289Y018210D02*
X022759Y018210D01*
X022759Y018292D02*
X022289Y018292D01*
X022289Y018374D02*
X022759Y018374D01*
X021462Y018434D02*
X021462Y017964D01*
X021462Y018434D02*
X021932Y018434D01*
X021932Y017964D01*
X021462Y017964D01*
X021462Y018046D02*
X021932Y018046D01*
X021932Y018128D02*
X021462Y018128D01*
X021462Y018210D02*
X021932Y018210D01*
X021932Y018292D02*
X021462Y018292D01*
X021462Y018374D02*
X021932Y018374D01*
X018352Y018434D02*
X018352Y017964D01*
X018352Y018434D02*
X018822Y018434D01*
X018822Y017964D01*
X018352Y017964D01*
X018352Y018046D02*
X018822Y018046D01*
X018822Y018128D02*
X018352Y018128D01*
X018352Y018210D02*
X018822Y018210D01*
X018822Y018292D02*
X018352Y018292D01*
X018352Y018374D02*
X018822Y018374D01*
X017525Y018434D02*
X017525Y017964D01*
X017525Y018434D02*
X017995Y018434D01*
X017995Y017964D01*
X017525Y017964D01*
X017525Y018046D02*
X017995Y018046D01*
X017995Y018128D02*
X017525Y018128D01*
X017525Y018210D02*
X017995Y018210D01*
X017995Y018292D02*
X017525Y018292D01*
X017525Y018374D02*
X017995Y018374D01*
X014415Y018434D02*
X014415Y017964D01*
X014415Y018434D02*
X014885Y018434D01*
X014885Y017964D01*
X014415Y017964D01*
X014415Y018046D02*
X014885Y018046D01*
X014885Y018128D02*
X014415Y018128D01*
X014415Y018210D02*
X014885Y018210D01*
X014885Y018292D02*
X014415Y018292D01*
X014415Y018374D02*
X014885Y018374D01*
X013588Y018434D02*
X013588Y017964D01*
X013588Y018434D02*
X014058Y018434D01*
X014058Y017964D01*
X013588Y017964D01*
X013588Y018046D02*
X014058Y018046D01*
X014058Y018128D02*
X013588Y018128D01*
X013588Y018210D02*
X014058Y018210D01*
X014058Y018292D02*
X013588Y018292D01*
X013588Y018374D02*
X014058Y018374D01*
X010478Y018434D02*
X010478Y017964D01*
X010478Y018434D02*
X010948Y018434D01*
X010948Y017964D01*
X010478Y017964D01*
X010478Y018046D02*
X010948Y018046D01*
X010948Y018128D02*
X010478Y018128D01*
X010478Y018210D02*
X010948Y018210D01*
X010948Y018292D02*
X010478Y018292D01*
X010478Y018374D02*
X010948Y018374D01*
X009651Y018434D02*
X009651Y017964D01*
X009651Y018434D02*
X010121Y018434D01*
X010121Y017964D01*
X009651Y017964D01*
X009651Y018046D02*
X010121Y018046D01*
X010121Y018128D02*
X009651Y018128D01*
X009651Y018210D02*
X010121Y018210D01*
X010121Y018292D02*
X009651Y018292D01*
X009651Y018374D02*
X010121Y018374D01*
D12*
X010620Y016146D02*
X010620Y015518D01*
X010620Y016146D02*
X011168Y016146D01*
X011168Y015518D01*
X010620Y015518D01*
X010620Y015599D02*
X011168Y015599D01*
X011168Y015680D02*
X010620Y015680D01*
X010620Y015761D02*
X011168Y015761D01*
X011168Y015842D02*
X010620Y015842D01*
X010620Y015923D02*
X011168Y015923D01*
X011168Y016004D02*
X010620Y016004D01*
X010620Y016085D02*
X011168Y016085D01*
X011168Y014965D02*
X011168Y014337D01*
X010620Y014337D01*
X010620Y014965D01*
X011168Y014965D01*
X011168Y014418D02*
X010620Y014418D01*
X010620Y014499D02*
X011168Y014499D01*
X011168Y014580D02*
X010620Y014580D01*
X010620Y014661D02*
X011168Y014661D01*
X011168Y014742D02*
X010620Y014742D01*
X010620Y014823D02*
X011168Y014823D01*
X011168Y014904D02*
X010620Y014904D01*
X019678Y011009D02*
X020306Y011009D01*
X019678Y011009D02*
X019678Y011557D01*
X020306Y011557D01*
X020306Y011009D01*
X020306Y011090D02*
X019678Y011090D01*
X019678Y011171D02*
X020306Y011171D01*
X020306Y011252D02*
X019678Y011252D01*
X019678Y011333D02*
X020306Y011333D01*
X020306Y011414D02*
X019678Y011414D01*
X019678Y011495D02*
X020306Y011495D01*
X020859Y011557D02*
X021487Y011557D01*
X021487Y011009D01*
X020859Y011009D01*
X020859Y011557D01*
X020859Y011090D02*
X021487Y011090D01*
X021487Y011171D02*
X020859Y011171D01*
X020859Y011252D02*
X021487Y011252D01*
X021487Y011333D02*
X020859Y011333D01*
X020859Y011414D02*
X021487Y011414D01*
X021487Y011495D02*
X020859Y011495D01*
D13*
X009743Y014691D02*
X009045Y014691D01*
X009045Y015091D01*
X009743Y015091D01*
X009743Y014691D01*
X009743Y014772D02*
X009045Y014772D01*
X009045Y014853D02*
X009743Y014853D01*
X009743Y014934D02*
X009045Y014934D01*
X009045Y015015D02*
X009743Y015015D01*
X009743Y015391D02*
X009045Y015391D01*
X009045Y015791D01*
X009743Y015791D01*
X009743Y015391D01*
X009743Y015472D02*
X009045Y015472D01*
X009045Y015553D02*
X009743Y015553D01*
X009743Y015634D02*
X009045Y015634D01*
X009045Y015715D02*
X009743Y015715D01*
D14*
X020431Y007600D03*
X020431Y007344D03*
X020431Y007089D03*
X020431Y006833D03*
X020431Y006577D03*
X020431Y006321D03*
X020431Y006065D03*
X022734Y006065D03*
X022734Y006321D03*
X022734Y006577D03*
X022734Y006833D03*
X022734Y007089D03*
X022734Y007344D03*
X022734Y007600D03*
D15*
X006957Y009758D02*
X006957Y010538D01*
X007935Y010538D01*
X007935Y009758D01*
X006957Y009758D01*
X006957Y009844D02*
X007935Y009844D01*
X007935Y009930D02*
X006957Y009930D01*
X006957Y010016D02*
X007935Y010016D01*
X007935Y010102D02*
X006957Y010102D01*
X006957Y010188D02*
X007935Y010188D01*
X007935Y010274D02*
X006957Y010274D01*
X006957Y010360D02*
X007935Y010360D01*
X007935Y010446D02*
X006957Y010446D01*
X006957Y010532D02*
X007935Y010532D01*
X004791Y010538D02*
X004791Y009758D01*
X004791Y010538D02*
X005769Y010538D01*
X005769Y009758D01*
X004791Y009758D01*
X004791Y009844D02*
X005769Y009844D01*
X005769Y009930D02*
X004791Y009930D01*
X004791Y010016D02*
X005769Y010016D01*
X005769Y010102D02*
X004791Y010102D01*
X004791Y010188D02*
X005769Y010188D01*
X005769Y010274D02*
X004791Y010274D01*
X004791Y010360D02*
X005769Y010360D01*
X005769Y010446D02*
X004791Y010446D01*
X004791Y010532D02*
X005769Y010532D01*
X004791Y013261D02*
X004791Y014041D01*
X005769Y014041D01*
X005769Y013261D01*
X004791Y013261D01*
X004791Y013347D02*
X005769Y013347D01*
X005769Y013433D02*
X004791Y013433D01*
X004791Y013519D02*
X005769Y013519D01*
X005769Y013605D02*
X004791Y013605D01*
X004791Y013691D02*
X005769Y013691D01*
X005769Y013777D02*
X004791Y013777D01*
X004791Y013863D02*
X005769Y013863D01*
X005769Y013949D02*
X004791Y013949D01*
X004791Y014035D02*
X005769Y014035D01*
X006957Y014041D02*
X006957Y013261D01*
X006957Y014041D02*
X007935Y014041D01*
X007935Y013261D01*
X006957Y013261D01*
X006957Y013347D02*
X007935Y013347D01*
X007935Y013433D02*
X006957Y013433D01*
X006957Y013519D02*
X007935Y013519D01*
X007935Y013605D02*
X006957Y013605D01*
X006957Y013691D02*
X007935Y013691D01*
X007935Y013777D02*
X006957Y013777D01*
X006957Y013863D02*
X007935Y013863D01*
X007935Y013949D02*
X006957Y013949D01*
X006957Y014035D02*
X007935Y014035D01*
D16*
X007033Y012627D02*
X007033Y012431D01*
X007033Y012627D02*
X008331Y012627D01*
X008331Y012431D01*
X007033Y012431D01*
X007033Y012510D02*
X008331Y012510D01*
X008331Y012589D02*
X007033Y012589D01*
X007033Y012312D02*
X007033Y012116D01*
X007033Y012312D02*
X008331Y012312D01*
X008331Y012116D01*
X007033Y012116D01*
X007033Y012195D02*
X008331Y012195D01*
X008331Y012274D02*
X007033Y012274D01*
X007033Y011998D02*
X007033Y011802D01*
X007033Y011998D02*
X008331Y011998D01*
X008331Y011802D01*
X007033Y011802D01*
X007033Y011881D02*
X008331Y011881D01*
X008331Y011960D02*
X007033Y011960D01*
X007033Y011683D02*
X007033Y011487D01*
X007033Y011683D02*
X008331Y011683D01*
X008331Y011487D01*
X007033Y011487D01*
X007033Y011566D02*
X008331Y011566D01*
X008331Y011645D02*
X007033Y011645D01*
X007033Y011368D02*
X007033Y011172D01*
X007033Y011368D02*
X008331Y011368D01*
X008331Y011172D01*
X007033Y011172D01*
X007033Y011251D02*
X008331Y011251D01*
X008331Y011330D02*
X007033Y011330D01*
X010118Y011354D02*
X010118Y011490D01*
X010118Y011354D02*
X009568Y011354D01*
X009568Y011490D01*
X010118Y011490D01*
X010118Y011433D02*
X009568Y011433D01*
X010118Y011610D02*
X010118Y011746D01*
X010118Y011610D02*
X009568Y011610D01*
X009568Y011746D01*
X010118Y011746D01*
X010118Y011689D02*
X009568Y011689D01*
X010118Y011866D02*
X010118Y012002D01*
X010118Y011866D02*
X009568Y011866D01*
X009568Y012002D01*
X010118Y012002D01*
X010118Y011945D02*
X009568Y011945D01*
X010118Y012122D02*
X010118Y012258D01*
X010118Y012122D02*
X009568Y012122D01*
X009568Y012258D01*
X010118Y012258D01*
X010118Y012201D02*
X009568Y012201D01*
X010118Y012378D02*
X010118Y012514D01*
X010118Y012378D02*
X009568Y012378D01*
X009568Y012514D01*
X010118Y012514D01*
X010118Y012457D02*
X009568Y012457D01*
X010118Y011234D02*
X010118Y011098D01*
X009568Y011098D01*
X009568Y011234D01*
X010118Y011234D01*
X010118Y011177D02*
X009568Y011177D01*
X010118Y010979D02*
X010118Y010843D01*
X009568Y010843D01*
X009568Y010979D01*
X010118Y010979D01*
X010118Y010922D02*
X009568Y010922D01*
X010118Y010723D02*
X010118Y010587D01*
X009568Y010587D01*
X009568Y010723D01*
X010118Y010723D01*
X010118Y010666D02*
X009568Y010666D01*
X010118Y010467D02*
X010118Y010331D01*
X009568Y010331D01*
X009568Y010467D01*
X010118Y010467D01*
X010118Y010410D02*
X009568Y010410D01*
X010118Y010211D02*
X010118Y010075D01*
X009568Y010075D01*
X009568Y010211D01*
X010118Y010211D01*
X010118Y010154D02*
X009568Y010154D01*
X010118Y009955D02*
X010118Y009819D01*
X009568Y009819D01*
X009568Y009955D01*
X010118Y009955D01*
X010118Y009898D02*
X009568Y009898D01*
X010118Y009699D02*
X010118Y009563D01*
X009568Y009563D01*
X009568Y009699D01*
X010118Y009699D01*
X010118Y009642D02*
X009568Y009642D01*
X010118Y009443D02*
X010118Y009307D01*
X009568Y009307D01*
X009568Y009443D01*
X010118Y009443D01*
X010118Y009386D02*
X009568Y009386D01*
X010118Y009187D02*
X010118Y009051D01*
X009568Y009051D01*
X009568Y009187D01*
X010118Y009187D01*
X010118Y009130D02*
X009568Y009130D01*
X012996Y009187D02*
X012996Y009051D01*
X012446Y009051D01*
X012446Y009187D01*
X012996Y009187D01*
X012996Y009130D02*
X012446Y009130D01*
X012996Y009307D02*
X012996Y009443D01*
X012996Y009307D02*
X012446Y009307D01*
X012446Y009443D01*
X012996Y009443D01*
X012996Y009386D02*
X012446Y009386D01*
X012996Y009563D02*
X012996Y009699D01*
X012996Y009563D02*
X012446Y009563D01*
X012446Y009699D01*
X012996Y009699D01*
X012996Y009642D02*
X012446Y009642D01*
X012996Y009819D02*
X012996Y009955D01*
X012996Y009819D02*
X012446Y009819D01*
X012446Y009955D01*
X012996Y009955D01*
X012996Y009898D02*
X012446Y009898D01*
X012996Y010075D02*
X012996Y010211D01*
X012996Y010075D02*
X012446Y010075D01*
X012446Y010211D01*
X012996Y010211D01*
X012996Y010154D02*
X012446Y010154D01*
X012996Y010331D02*
X012996Y010467D01*
X012996Y010331D02*
X012446Y010331D01*
X012446Y010467D01*
X012996Y010467D01*
X012996Y010410D02*
X012446Y010410D01*
X012996Y010587D02*
X012996Y010723D01*
X012996Y010587D02*
X012446Y010587D01*
X012446Y010723D01*
X012996Y010723D01*
X012996Y010666D02*
X012446Y010666D01*
X012996Y010843D02*
X012996Y010979D01*
X012996Y010843D02*
X012446Y010843D01*
X012446Y010979D01*
X012996Y010979D01*
X012996Y010922D02*
X012446Y010922D01*
X012996Y011098D02*
X012996Y011234D01*
X012996Y011098D02*
X012446Y011098D01*
X012446Y011234D01*
X012996Y011234D01*
X012996Y011177D02*
X012446Y011177D01*
X012996Y011354D02*
X012996Y011490D01*
X012996Y011354D02*
X012446Y011354D01*
X012446Y011490D01*
X012996Y011490D01*
X012996Y011433D02*
X012446Y011433D01*
X012996Y011610D02*
X012996Y011746D01*
X012996Y011610D02*
X012446Y011610D01*
X012446Y011746D01*
X012996Y011746D01*
X012996Y011689D02*
X012446Y011689D01*
X012996Y011866D02*
X012996Y012002D01*
X012996Y011866D02*
X012446Y011866D01*
X012446Y012002D01*
X012996Y012002D01*
X012996Y011945D02*
X012446Y011945D01*
X012996Y012122D02*
X012996Y012258D01*
X012996Y012122D02*
X012446Y012122D01*
X012446Y012258D01*
X012996Y012258D01*
X012996Y012201D02*
X012446Y012201D01*
X012996Y012378D02*
X012996Y012514D01*
X012996Y012378D02*
X012446Y012378D01*
X012446Y012514D01*
X012996Y012514D01*
X012996Y012457D02*
X012446Y012457D01*
X014518Y012514D02*
X014518Y012378D01*
X014518Y012514D02*
X015068Y012514D01*
X015068Y012378D01*
X014518Y012378D01*
X014518Y012457D02*
X015068Y012457D01*
X014518Y012258D02*
X014518Y012122D01*
X014518Y012258D02*
X015068Y012258D01*
X015068Y012122D01*
X014518Y012122D01*
X014518Y012201D02*
X015068Y012201D01*
X014518Y012002D02*
X014518Y011866D01*
X014518Y012002D02*
X015068Y012002D01*
X015068Y011866D01*
X014518Y011866D01*
X014518Y011945D02*
X015068Y011945D01*
X014518Y011746D02*
X014518Y011610D01*
X014518Y011746D02*
X015068Y011746D01*
X015068Y011610D01*
X014518Y011610D01*
X014518Y011689D02*
X015068Y011689D01*
X014518Y011490D02*
X014518Y011354D01*
X014518Y011490D02*
X015068Y011490D01*
X015068Y011354D01*
X014518Y011354D01*
X014518Y011433D02*
X015068Y011433D01*
X014518Y011234D02*
X014518Y011098D01*
X014518Y011234D02*
X015068Y011234D01*
X015068Y011098D01*
X014518Y011098D01*
X014518Y011177D02*
X015068Y011177D01*
X014518Y010979D02*
X014518Y010843D01*
X014518Y010979D02*
X015068Y010979D01*
X015068Y010843D01*
X014518Y010843D01*
X014518Y010922D02*
X015068Y010922D01*
X014518Y010723D02*
X014518Y010587D01*
X014518Y010723D02*
X015068Y010723D01*
X015068Y010587D01*
X014518Y010587D01*
X014518Y010666D02*
X015068Y010666D01*
X014518Y010467D02*
X014518Y010331D01*
X014518Y010467D02*
X015068Y010467D01*
X015068Y010331D01*
X014518Y010331D01*
X014518Y010410D02*
X015068Y010410D01*
X014518Y010211D02*
X014518Y010075D01*
X014518Y010211D02*
X015068Y010211D01*
X015068Y010075D01*
X014518Y010075D01*
X014518Y010154D02*
X015068Y010154D01*
X014518Y009955D02*
X014518Y009819D01*
X014518Y009955D02*
X015068Y009955D01*
X015068Y009819D01*
X014518Y009819D01*
X014518Y009898D02*
X015068Y009898D01*
X014518Y009699D02*
X014518Y009563D01*
X014518Y009699D02*
X015068Y009699D01*
X015068Y009563D01*
X014518Y009563D01*
X014518Y009642D02*
X015068Y009642D01*
X014518Y009443D02*
X014518Y009307D01*
X014518Y009443D02*
X015068Y009443D01*
X015068Y009307D01*
X014518Y009307D01*
X014518Y009386D02*
X015068Y009386D01*
X014518Y009187D02*
X014518Y009051D01*
X014518Y009187D02*
X015068Y009187D01*
X015068Y009051D01*
X014518Y009051D01*
X014518Y009130D02*
X015068Y009130D01*
X017396Y009187D02*
X017396Y009051D01*
X017396Y009187D02*
X017946Y009187D01*
X017946Y009051D01*
X017396Y009051D01*
X017396Y009130D02*
X017946Y009130D01*
X017396Y009307D02*
X017396Y009443D01*
X017946Y009443D01*
X017946Y009307D01*
X017396Y009307D01*
X017396Y009386D02*
X017946Y009386D01*
X017396Y009563D02*
X017396Y009699D01*
X017946Y009699D01*
X017946Y009563D01*
X017396Y009563D01*
X017396Y009642D02*
X017946Y009642D01*
X017396Y009819D02*
X017396Y009955D01*
X017946Y009955D01*
X017946Y009819D01*
X017396Y009819D01*
X017396Y009898D02*
X017946Y009898D01*
X017396Y010075D02*
X017396Y010211D01*
X017946Y010211D01*
X017946Y010075D01*
X017396Y010075D01*
X017396Y010154D02*
X017946Y010154D01*
X017396Y010331D02*
X017396Y010467D01*
X017946Y010467D01*
X017946Y010331D01*
X017396Y010331D01*
X017396Y010410D02*
X017946Y010410D01*
X017396Y010587D02*
X017396Y010723D01*
X017946Y010723D01*
X017946Y010587D01*
X017396Y010587D01*
X017396Y010666D02*
X017946Y010666D01*
X017396Y010843D02*
X017396Y010979D01*
X017946Y010979D01*
X017946Y010843D01*
X017396Y010843D01*
X017396Y010922D02*
X017946Y010922D01*
X017396Y011098D02*
X017396Y011234D01*
X017946Y011234D01*
X017946Y011098D01*
X017396Y011098D01*
X017396Y011177D02*
X017946Y011177D01*
X017396Y011354D02*
X017396Y011490D01*
X017946Y011490D01*
X017946Y011354D01*
X017396Y011354D01*
X017396Y011433D02*
X017946Y011433D01*
X017396Y011610D02*
X017396Y011746D01*
X017946Y011746D01*
X017946Y011610D01*
X017396Y011610D01*
X017396Y011689D02*
X017946Y011689D01*
X017396Y011866D02*
X017396Y012002D01*
X017946Y012002D01*
X017946Y011866D01*
X017396Y011866D01*
X017396Y011945D02*
X017946Y011945D01*
X017396Y012122D02*
X017396Y012258D01*
X017946Y012258D01*
X017946Y012122D01*
X017396Y012122D01*
X017396Y012201D02*
X017946Y012201D01*
X017396Y012378D02*
X017396Y012514D01*
X017946Y012514D01*
X017946Y012378D01*
X017396Y012378D01*
X017396Y012457D02*
X017946Y012457D01*
D17*
X006461Y012766D03*
X006461Y011033D03*
D18*
X019972Y012639D02*
X019972Y012811D01*
X020424Y012811D01*
X020424Y012639D01*
X019972Y012639D01*
X019972Y012719D02*
X020424Y012719D01*
X020424Y012799D02*
X019972Y012799D01*
X019972Y012954D02*
X019972Y013126D01*
X020424Y013126D01*
X020424Y012954D01*
X019972Y012954D01*
X019972Y013034D02*
X020424Y013034D01*
X020424Y013114D02*
X019972Y013114D01*
X020740Y013126D02*
X020740Y012954D01*
X020740Y013126D02*
X021192Y013126D01*
X021192Y012954D01*
X020740Y012954D01*
X020740Y013034D02*
X021192Y013034D01*
X021192Y013114D02*
X020740Y013114D01*
X020740Y012811D02*
X020740Y012639D01*
X020740Y012811D02*
X021192Y012811D01*
X021192Y012639D01*
X020740Y012639D01*
X020740Y012719D02*
X021192Y012719D01*
X021192Y012799D02*
X020740Y012799D01*
X020740Y014639D02*
X020740Y014811D01*
X021192Y014811D01*
X021192Y014639D01*
X020740Y014639D01*
X020740Y014719D02*
X021192Y014719D01*
X021192Y014799D02*
X020740Y014799D01*
X020740Y014954D02*
X020740Y015126D01*
X021192Y015126D01*
X021192Y014954D01*
X020740Y014954D01*
X020740Y015034D02*
X021192Y015034D01*
X021192Y015114D02*
X020740Y015114D01*
X019972Y015126D02*
X019972Y014954D01*
X019972Y015126D02*
X020424Y015126D01*
X020424Y014954D01*
X019972Y014954D01*
X019972Y015034D02*
X020424Y015034D01*
X020424Y015114D02*
X019972Y015114D01*
X019972Y014811D02*
X019972Y014639D01*
X019972Y014811D02*
X020424Y014811D01*
X020424Y014639D01*
X019972Y014639D01*
X019972Y014719D02*
X020424Y014719D01*
X020424Y014799D02*
X019972Y014799D01*
X019972Y009126D02*
X019972Y008954D01*
X019972Y009126D02*
X020424Y009126D01*
X020424Y008954D01*
X019972Y008954D01*
X019972Y009034D02*
X020424Y009034D01*
X020424Y009114D02*
X019972Y009114D01*
X019972Y008811D02*
X019972Y008639D01*
X019972Y008811D02*
X020424Y008811D01*
X020424Y008639D01*
X019972Y008639D01*
X019972Y008719D02*
X020424Y008719D01*
X020424Y008799D02*
X019972Y008799D01*
X020740Y008811D02*
X020740Y008639D01*
X020740Y008811D02*
X021192Y008811D01*
X021192Y008639D01*
X020740Y008639D01*
X020740Y008719D02*
X021192Y008719D01*
X021192Y008799D02*
X020740Y008799D01*
X020740Y008954D02*
X020740Y009126D01*
X021192Y009126D01*
X021192Y008954D01*
X020740Y008954D01*
X020740Y009034D02*
X021192Y009034D01*
X021192Y009114D02*
X020740Y009114D01*
D19*
X020741Y009269D02*
X020741Y009515D01*
X021191Y009515D01*
X021191Y009269D01*
X020741Y009269D01*
X020741Y009350D02*
X021191Y009350D01*
X021191Y009431D02*
X020741Y009431D01*
X020741Y009512D02*
X021191Y009512D01*
X019973Y009515D02*
X019973Y009269D01*
X019973Y009515D02*
X020423Y009515D01*
X020423Y009269D01*
X019973Y009269D01*
X019973Y009350D02*
X020423Y009350D01*
X020423Y009431D02*
X019973Y009431D01*
X019973Y009512D02*
X020423Y009512D01*
X019973Y008496D02*
X019973Y008250D01*
X019973Y008496D02*
X020423Y008496D01*
X020423Y008250D01*
X019973Y008250D01*
X019973Y008331D02*
X020423Y008331D01*
X020423Y008412D02*
X019973Y008412D01*
X019973Y008493D02*
X020423Y008493D01*
X020741Y008496D02*
X020741Y008250D01*
X020741Y008496D02*
X021191Y008496D01*
X021191Y008250D01*
X020741Y008250D01*
X020741Y008331D02*
X021191Y008331D01*
X021191Y008412D02*
X020741Y008412D01*
X020741Y008493D02*
X021191Y008493D01*
X020741Y012250D02*
X020741Y012496D01*
X021191Y012496D01*
X021191Y012250D01*
X020741Y012250D01*
X020741Y012331D02*
X021191Y012331D01*
X021191Y012412D02*
X020741Y012412D01*
X020741Y012493D02*
X021191Y012493D01*
X019973Y012496D02*
X019973Y012250D01*
X019973Y012496D02*
X020423Y012496D01*
X020423Y012250D01*
X019973Y012250D01*
X019973Y012331D02*
X020423Y012331D01*
X020423Y012412D02*
X019973Y012412D01*
X019973Y012493D02*
X020423Y012493D01*
X019973Y013269D02*
X019973Y013515D01*
X020423Y013515D01*
X020423Y013269D01*
X019973Y013269D01*
X019973Y013350D02*
X020423Y013350D01*
X020423Y013431D02*
X019973Y013431D01*
X019973Y013512D02*
X020423Y013512D01*
X020741Y013515D02*
X020741Y013269D01*
X020741Y013515D02*
X021191Y013515D01*
X021191Y013269D01*
X020741Y013269D01*
X020741Y013350D02*
X021191Y013350D01*
X021191Y013431D02*
X020741Y013431D01*
X020741Y013512D02*
X021191Y013512D01*
X020741Y014250D02*
X020741Y014496D01*
X021191Y014496D01*
X021191Y014250D01*
X020741Y014250D01*
X020741Y014331D02*
X021191Y014331D01*
X021191Y014412D02*
X020741Y014412D01*
X020741Y014493D02*
X021191Y014493D01*
X019973Y014496D02*
X019973Y014250D01*
X019973Y014496D02*
X020423Y014496D01*
X020423Y014250D01*
X019973Y014250D01*
X019973Y014331D02*
X020423Y014331D01*
X020423Y014412D02*
X019973Y014412D01*
X019973Y014493D02*
X020423Y014493D01*
X019973Y015269D02*
X019973Y015515D01*
X020423Y015515D01*
X020423Y015269D01*
X019973Y015269D01*
X019973Y015350D02*
X020423Y015350D01*
X020423Y015431D02*
X019973Y015431D01*
X019973Y015512D02*
X020423Y015512D01*
X020741Y015515D02*
X020741Y015269D01*
X020741Y015515D02*
X021191Y015515D01*
X021191Y015269D01*
X020741Y015269D01*
X020741Y015350D02*
X021191Y015350D01*
X021191Y015431D02*
X020741Y015431D01*
X020741Y015512D02*
X021191Y015512D01*
D20*
X016481Y015507D02*
X016481Y015723D01*
X016953Y015723D01*
X016953Y015507D01*
X016481Y015507D01*
X016481Y015586D02*
X016953Y015586D01*
X016953Y015665D02*
X016481Y015665D01*
X015458Y015723D02*
X015458Y015507D01*
X015458Y015723D02*
X015930Y015723D01*
X015930Y015507D01*
X015458Y015507D01*
X015458Y015586D02*
X015930Y015586D01*
X015930Y015665D02*
X015458Y015665D01*
X015458Y015349D02*
X015458Y015133D01*
X015458Y015349D02*
X015930Y015349D01*
X015930Y015133D01*
X015458Y015133D01*
X015458Y015212D02*
X015930Y015212D01*
X015930Y015291D02*
X015458Y015291D01*
X015458Y014975D02*
X015458Y014759D01*
X015458Y014975D02*
X015930Y014975D01*
X015930Y014759D01*
X015458Y014759D01*
X015458Y014838D02*
X015930Y014838D01*
X015930Y014917D02*
X015458Y014917D01*
X016481Y014975D02*
X016481Y014759D01*
X016481Y014975D02*
X016953Y014975D01*
X016953Y014759D01*
X016481Y014759D01*
X016481Y014838D02*
X016953Y014838D01*
X016953Y014917D02*
X016481Y014917D01*
X012758Y014975D02*
X012758Y014759D01*
X012758Y014975D02*
X013230Y014975D01*
X013230Y014759D01*
X012758Y014759D01*
X012758Y014838D02*
X013230Y014838D01*
X013230Y014917D02*
X012758Y014917D01*
X012758Y015507D02*
X012758Y015723D01*
X013230Y015723D01*
X013230Y015507D01*
X012758Y015507D01*
X012758Y015586D02*
X013230Y015586D01*
X013230Y015665D02*
X012758Y015665D01*
X011734Y015723D02*
X011734Y015507D01*
X011734Y015723D02*
X012206Y015723D01*
X012206Y015507D01*
X011734Y015507D01*
X011734Y015586D02*
X012206Y015586D01*
X012206Y015665D02*
X011734Y015665D01*
X011734Y015349D02*
X011734Y015133D01*
X011734Y015349D02*
X012206Y015349D01*
X012206Y015133D01*
X011734Y015133D01*
X011734Y015212D02*
X012206Y015212D01*
X012206Y015291D02*
X011734Y015291D01*
X011734Y014975D02*
X011734Y014759D01*
X011734Y014975D02*
X012206Y014975D01*
X012206Y014759D01*
X011734Y014759D01*
X011734Y014838D02*
X012206Y014838D01*
X012206Y014917D02*
X011734Y014917D01*
X008642Y014975D02*
X008642Y014759D01*
X008170Y014759D01*
X008170Y014975D01*
X008642Y014975D01*
X008642Y014838D02*
X008170Y014838D01*
X008170Y014917D02*
X008642Y014917D01*
X008642Y015133D02*
X008642Y015349D01*
X008642Y015133D02*
X008170Y015133D01*
X008170Y015349D01*
X008642Y015349D01*
X008642Y015212D02*
X008170Y015212D01*
X008170Y015291D02*
X008642Y015291D01*
X008642Y015507D02*
X008642Y015723D01*
X008642Y015507D02*
X008170Y015507D01*
X008170Y015723D01*
X008642Y015723D01*
X008642Y015586D02*
X008170Y015586D01*
X008170Y015665D02*
X008642Y015665D01*
X007619Y015723D02*
X007619Y015507D01*
X007147Y015507D01*
X007147Y015723D01*
X007619Y015723D01*
X007619Y015586D02*
X007147Y015586D01*
X007147Y015665D02*
X007619Y015665D01*
X007619Y014975D02*
X007619Y014759D01*
X007147Y014759D01*
X007147Y014975D01*
X007619Y014975D01*
X007619Y014838D02*
X007147Y014838D01*
X007147Y014917D02*
X007619Y014917D01*
D21*
X014205Y005994D03*
X025170Y009900D03*
D22*
X024170Y009900D03*
X024170Y010900D03*
X025170Y010900D03*
X025170Y011900D03*
X024170Y011900D03*
X024170Y012900D03*
X025170Y012900D03*
X025170Y013900D03*
X024170Y013900D03*
X018205Y005994D03*
X017205Y005994D03*
X016205Y005994D03*
X015205Y005994D03*
D23*
X005969Y006191D03*
X026442Y006191D03*
X026442Y017608D03*
X005969Y017608D03*
D24*
X006732Y015458D03*
X013707Y015616D03*
X016782Y012483D03*
X015482Y009233D03*
M02*
