G75*
G70*
%OFA0B0*%
%FSLAX24Y24*%
%IPPOS*%
%LPD*%
%AMOC8*
5,1,8,0,0,1.08239X$1,22.5*
%
%ADD10C,0.0060*%
%ADD11C,0.0120*%
%ADD12C,0.0160*%
%ADD13C,0.0080*%
%ADD14C,0.0050*%
%ADD15C,0.0070*%
%ADD16R,0.0015X0.6015*%
%ADD17R,0.0015X0.6045*%
%ADD18R,0.0015X0.4395*%
%ADD19R,0.0015X0.1620*%
%ADD20R,0.0015X0.2865*%
%ADD21R,0.0015X0.0210*%
%ADD22R,0.0015X0.0975*%
%ADD23R,0.0015X0.0075*%
%ADD24R,0.0015X0.0165*%
%ADD25R,0.0015X0.1170*%
%ADD26R,0.0015X0.0180*%
%ADD27R,0.0015X0.0945*%
%ADD28R,0.0015X0.0045*%
%ADD29R,0.0015X0.1035*%
%ADD30R,0.0015X0.1785*%
%ADD31R,0.0015X0.0930*%
%ADD32R,0.0015X0.0150*%
%ADD33R,0.0015X0.0885*%
%ADD34R,0.0015X0.1650*%
%ADD35R,0.0015X0.0060*%
%ADD36R,0.0015X0.0030*%
%ADD37R,0.0015X0.0135*%
%ADD38R,0.0015X0.1185*%
%ADD39R,0.0015X0.0810*%
%ADD40R,0.0015X0.1575*%
%ADD41R,0.0015X0.0120*%
%ADD42R,0.0015X0.0915*%
%ADD43R,0.0015X0.0765*%
%ADD44R,0.0015X0.1530*%
%ADD45R,0.0015X0.1200*%
%ADD46R,0.0015X0.0735*%
%ADD47R,0.0015X0.1485*%
%ADD48R,0.0015X0.0690*%
%ADD49R,0.0015X0.1455*%
%ADD50R,0.0015X0.1110*%
%ADD51R,0.0015X0.0660*%
%ADD52R,0.0015X0.1425*%
%ADD53R,0.0015X0.1080*%
%ADD54R,0.0015X0.1215*%
%ADD55R,0.0015X0.0630*%
%ADD56R,0.0015X0.1395*%
%ADD57R,0.0015X0.0090*%
%ADD58R,0.0015X0.1020*%
%ADD59R,0.0015X0.0600*%
%ADD60R,0.0015X0.1365*%
%ADD61R,0.0015X0.0960*%
%ADD62R,0.0015X0.0585*%
%ADD63R,0.0015X0.1335*%
%ADD64R,0.0015X0.1230*%
%ADD65R,0.0015X0.0555*%
%ADD66R,0.0015X0.1320*%
%ADD67R,0.0015X0.0540*%
%ADD68R,0.0015X0.1290*%
%ADD69R,0.0015X0.0885*%
%ADD70R,0.0015X0.0225*%
%ADD71R,0.0015X0.1245*%
%ADD72R,0.0015X0.0510*%
%ADD73R,0.0015X0.0300*%
%ADD74R,0.0015X0.1275*%
%ADD75R,0.0015X0.0105*%
%ADD76R,0.0015X0.0270*%
%ADD77R,0.0015X0.0015*%
%ADD78R,0.0015X0.0495*%
%ADD79R,0.0015X0.0435*%
%ADD80R,0.0015X0.1260*%
%ADD81R,0.0015X0.0855*%
%ADD82R,0.0015X0.0480*%
%ADD83R,0.0015X0.0525*%
%ADD84R,0.0015X0.0465*%
%ADD85R,0.0015X0.0600*%
%ADD86R,0.0015X0.0450*%
%ADD87R,0.0015X0.0675*%
%ADD88R,0.0015X0.0840*%
%ADD89R,0.0015X0.0420*%
%ADD90R,0.0015X0.0735*%
%ADD91R,0.0015X0.0405*%
%ADD92R,0.0015X0.0780*%
%ADD93R,0.0015X0.0825*%
%ADD94R,0.0015X0.1155*%
%ADD95R,0.0015X0.0195*%
%ADD96R,0.0015X0.0390*%
%ADD97R,0.0015X0.2670*%
%ADD98R,0.0015X0.0375*%
%ADD99R,0.0015X0.4320*%
%ADD100R,0.0015X0.0360*%
%ADD101R,0.0015X0.0330*%
%ADD102R,0.0015X0.4305*%
%ADD103R,0.0015X0.0345*%
%ADD104R,0.0015X0.4290*%
%ADD105R,0.0015X0.0330*%
%ADD106R,0.0015X0.4275*%
%ADD107R,0.0015X0.0255*%
%ADD108R,0.0015X0.4260*%
%ADD109R,0.0015X0.0315*%
%ADD110R,0.0015X0.0240*%
%ADD111R,0.0015X0.0300*%
%ADD112R,0.0015X0.4245*%
%ADD113R,0.0015X0.0285*%
%ADD114R,0.0015X0.4230*%
%ADD115R,0.0015X0.0270*%
%ADD116R,0.0015X0.4215*%
%ADD117R,0.0015X0.0060*%
%ADD118R,0.0015X0.0360*%
%ADD119R,0.0015X0.0450*%
%ADD120R,0.0015X0.0510*%
%ADD121R,0.0015X0.0570*%
%ADD122R,0.0015X0.0555*%
%ADD123R,0.0015X0.0615*%
%ADD124R,0.0015X0.0660*%
%ADD125R,0.0015X0.0345*%
%ADD126R,0.0015X0.0390*%
%ADD127R,0.0015X0.0315*%
%ADD128R,0.0015X0.0420*%
%ADD129R,0.0015X0.0465*%
%ADD130R,0.0015X0.0375*%
%ADD131R,0.0015X0.0285*%
%ADD132R,0.0015X0.0405*%
%ADD133R,0.0015X0.0870*%
%ADD134R,0.0015X0.0720*%
%ADD135R,0.0015X0.0645*%
%ADD136R,0.0015X0.0585*%
%ADD137R,0.0015X0.0495*%
%ADD138R,0.0015X0.0540*%
%ADD139R,0.0015X0.0480*%
%ADD140R,0.0015X0.6015*%
%ADD141R,0.0015X0.5985*%
%ADD142R,0.0015X0.5955*%
%ADD143R,0.0015X0.5895*%
%ADD144C,0.0040*%
%ADD145C,0.0030*%
D10*
X005898Y010197D02*
X006231Y010197D01*
X006064Y010197D02*
X006064Y010697D01*
X006231Y010530D01*
X006898Y010530D02*
X006898Y010614D01*
X006981Y010697D01*
X007148Y010697D01*
X007231Y010614D01*
X006898Y010530D02*
X007231Y010197D01*
X006898Y010197D01*
X007898Y010280D02*
X007981Y010197D01*
X008148Y010197D01*
X008231Y010280D01*
X008064Y010447D02*
X007981Y010447D01*
X007898Y010363D01*
X007898Y010280D01*
X007981Y010447D02*
X007898Y010530D01*
X007898Y010614D01*
X007981Y010697D01*
X008148Y010697D01*
X008231Y010614D01*
X008773Y010447D02*
X009106Y010447D01*
X008856Y010697D01*
X008856Y010197D01*
X007170Y013435D02*
X007172Y013447D01*
X007177Y013458D01*
X007186Y013467D01*
X007197Y013472D01*
X007209Y013474D01*
X007221Y013472D01*
X007232Y013467D01*
X007241Y013458D01*
X007246Y013447D01*
X007248Y013435D01*
X007246Y013423D01*
X007241Y013412D01*
X007232Y013403D01*
X007221Y013398D01*
X007209Y013396D01*
X007197Y013398D01*
X007186Y013403D01*
X007177Y013412D01*
X007172Y013423D01*
X007170Y013435D01*
X005798Y015315D02*
X005561Y015315D01*
X004853Y015315D02*
X004361Y015315D01*
X004183Y015213D01*
X004124Y015315D01*
X004306Y015420D01*
X004361Y015433D02*
X004361Y015315D01*
X004361Y015433D02*
X004342Y015432D01*
X004324Y015427D01*
X004306Y015420D01*
X004361Y015433D02*
X004361Y015492D01*
X004359Y015507D01*
X004355Y015522D01*
X004348Y015536D01*
X004338Y015548D01*
X004326Y015558D01*
X004312Y015565D01*
X004297Y015569D01*
X004282Y015571D01*
X004266Y015571D01*
X006329Y015945D02*
X006329Y016103D01*
X006329Y017481D02*
X006329Y017638D01*
X005798Y018268D02*
X005561Y018268D01*
X004853Y018268D02*
X004361Y018268D01*
X004302Y018166D02*
X004321Y018157D01*
X004341Y018152D01*
X004361Y018150D01*
X004361Y018091D01*
X004361Y018150D02*
X004361Y018268D01*
X004183Y018370D01*
X004124Y018268D01*
X004302Y018166D01*
X004361Y018091D02*
X004359Y018076D01*
X004355Y018061D01*
X004348Y018047D01*
X004338Y018035D01*
X004326Y018025D01*
X004312Y018018D01*
X004297Y018014D01*
X004282Y018012D01*
X004266Y018012D01*
X009965Y022995D02*
X010039Y023068D01*
X009965Y023141D01*
X010039Y023215D01*
X010259Y023215D01*
X010259Y023382D02*
X010039Y023382D01*
X009965Y023455D01*
X010039Y023528D01*
X009965Y023602D01*
X010039Y023675D01*
X010259Y023675D01*
X010259Y023842D02*
X010039Y023842D01*
X009965Y023915D01*
X010039Y023989D01*
X009965Y024062D01*
X010039Y024135D01*
X010259Y024135D01*
X010039Y024302D02*
X010039Y024376D01*
X009965Y024376D01*
X009965Y024302D01*
X010039Y024302D01*
X009965Y024532D02*
X009965Y024753D01*
X010039Y024826D01*
X010112Y024753D01*
X010112Y024606D01*
X010185Y024532D01*
X010259Y024606D01*
X010259Y024826D01*
X010185Y024993D02*
X010259Y025066D01*
X010259Y025213D01*
X010185Y025286D01*
X010112Y025286D01*
X010112Y024993D01*
X010039Y024993D02*
X010185Y024993D01*
X010039Y024993D02*
X009965Y025066D01*
X009965Y025213D01*
X010039Y025453D02*
X010185Y025453D01*
X010259Y025526D01*
X010259Y025673D01*
X010185Y025747D01*
X010112Y025747D01*
X010112Y025453D01*
X010039Y025453D02*
X009965Y025526D01*
X009965Y025673D01*
X010039Y025913D02*
X010185Y025913D01*
X010259Y025987D01*
X010259Y026134D01*
X010185Y026207D01*
X010112Y026207D01*
X010112Y025913D01*
X010039Y025913D02*
X009965Y025987D01*
X009965Y026134D01*
X010039Y026374D02*
X010185Y026374D01*
X010259Y026447D01*
X010259Y026667D01*
X010406Y026667D02*
X009965Y026667D01*
X009965Y026447D01*
X010039Y026374D01*
X009965Y026834D02*
X009965Y027054D01*
X010039Y027128D01*
X010112Y027054D01*
X010112Y026908D01*
X010185Y026834D01*
X010259Y026908D01*
X010259Y027128D01*
X010259Y027295D02*
X010259Y027441D01*
X010332Y027368D02*
X010039Y027368D01*
X009965Y027441D01*
X010039Y027601D02*
X009965Y027675D01*
X009965Y027895D01*
X010259Y027895D01*
X010185Y028062D02*
X010259Y028135D01*
X010259Y028355D01*
X010406Y028355D02*
X009965Y028355D01*
X009965Y028135D01*
X010039Y028062D01*
X010185Y028062D01*
X010581Y027986D02*
X010654Y027913D01*
X010948Y027913D01*
X010875Y027839D02*
X010875Y027986D01*
X010801Y027673D02*
X010581Y027673D01*
X010801Y027673D02*
X010875Y027599D01*
X010875Y027379D01*
X010581Y027379D01*
X010728Y027212D02*
X010728Y026919D01*
X010801Y026919D02*
X010875Y026992D01*
X010875Y027139D01*
X010801Y027212D01*
X010728Y027212D01*
X010581Y027139D02*
X010581Y026992D01*
X010654Y026919D01*
X010801Y026919D01*
X010801Y026752D02*
X010581Y026752D01*
X010581Y026605D02*
X010801Y026605D01*
X010875Y026678D01*
X010801Y026752D01*
X010801Y026605D02*
X010875Y026532D01*
X010875Y026458D01*
X010581Y026458D01*
X010581Y026298D02*
X010581Y026151D01*
X010581Y026225D02*
X011021Y026225D01*
X011021Y026151D01*
X011021Y025918D02*
X010581Y025918D01*
X010581Y025845D02*
X010581Y025991D01*
X010581Y025684D02*
X010581Y025538D01*
X010581Y025611D02*
X010875Y025611D01*
X010875Y025538D01*
X011021Y025611D02*
X011095Y025611D01*
X011021Y025378D02*
X010948Y025304D01*
X010581Y025304D01*
X010801Y025231D02*
X010801Y025378D01*
X010581Y025071D02*
X010581Y024924D01*
X010581Y024997D02*
X011021Y024997D01*
X011021Y024924D01*
X010875Y024757D02*
X010581Y024757D01*
X010581Y024537D01*
X010654Y024464D01*
X010875Y024464D01*
X011021Y024297D02*
X011021Y024003D01*
X010581Y024003D01*
X010801Y024003D02*
X010801Y024150D01*
X010259Y022921D02*
X010039Y022921D01*
X009965Y022995D01*
X012071Y022802D02*
X012511Y022802D01*
X012511Y023022D01*
X012438Y023096D01*
X012291Y023096D01*
X012218Y023022D01*
X012218Y022802D01*
X012291Y022635D02*
X012218Y022562D01*
X012218Y022415D01*
X012291Y022342D01*
X012585Y022635D01*
X012291Y022635D01*
X012291Y022342D02*
X012585Y022342D01*
X012658Y022415D01*
X012658Y022562D01*
X012585Y022635D01*
X012585Y022175D02*
X012511Y022175D01*
X012438Y022102D01*
X012438Y021955D01*
X012511Y021882D01*
X012585Y021882D01*
X012658Y021955D01*
X012658Y022102D01*
X012585Y022175D01*
X012438Y022102D02*
X012365Y022175D01*
X012291Y022175D01*
X012218Y022102D01*
X012218Y021955D01*
X012291Y021882D01*
X012365Y021882D01*
X012438Y021955D01*
X013541Y021917D02*
X013614Y021844D01*
X013541Y021917D02*
X013541Y022064D01*
X013614Y022138D01*
X013761Y022138D01*
X013835Y022064D01*
X013835Y021991D01*
X013761Y021844D01*
X013981Y021844D01*
X013981Y022138D01*
X013908Y022304D02*
X013981Y022378D01*
X013981Y022524D01*
X013908Y022598D01*
X013835Y022598D01*
X013541Y022304D01*
X013541Y022598D01*
X013541Y022765D02*
X013541Y022985D01*
X013614Y023058D01*
X013761Y023058D01*
X013835Y022985D01*
X013835Y022765D01*
X013394Y022765D01*
X011021Y025845D02*
X011021Y025918D01*
X010259Y027601D02*
X010039Y027601D01*
X009965Y028522D02*
X009965Y028669D01*
X009965Y028596D02*
X010259Y028596D01*
X010259Y028522D01*
X010406Y028596D02*
X010479Y028596D01*
X010581Y028607D02*
X010581Y028827D01*
X010654Y028900D01*
X010801Y028900D01*
X010875Y028827D01*
X010875Y028607D01*
X011021Y028607D02*
X010581Y028607D01*
X010259Y028902D02*
X010185Y028829D01*
X010039Y028829D01*
X009965Y028902D01*
X009965Y029049D01*
X010039Y029123D01*
X010185Y029123D01*
X010259Y029049D01*
X010259Y028902D01*
X010434Y029214D02*
X010434Y029287D01*
X010508Y029361D01*
X010875Y029361D01*
X010875Y029527D02*
X010801Y029527D01*
X010801Y029601D01*
X010875Y029601D01*
X010875Y029527D01*
X010654Y029527D02*
X010581Y029527D01*
X010581Y029601D01*
X010654Y029601D01*
X010654Y029527D01*
X010581Y029361D02*
X010581Y029140D01*
X010654Y029067D01*
X010875Y029067D01*
X010259Y029593D02*
X010185Y029520D01*
X010039Y029520D01*
X009965Y029593D01*
X009965Y029813D01*
X010039Y029980D02*
X009965Y030053D01*
X009965Y030200D01*
X010039Y030273D01*
X010185Y030273D01*
X010259Y030200D01*
X010259Y030053D01*
X010185Y029980D01*
X010039Y029980D01*
X010259Y029813D02*
X010259Y029593D01*
X010039Y029363D02*
X009965Y029363D01*
X009965Y029289D01*
X010039Y029289D01*
X010039Y029363D01*
X009965Y030440D02*
X010259Y030440D01*
X010259Y030514D01*
X010185Y030587D01*
X010259Y030660D01*
X010185Y030734D01*
X009965Y030734D01*
X009965Y030587D02*
X010185Y030587D01*
X011548Y031336D02*
X011842Y031336D01*
X011695Y031336D02*
X011695Y031777D01*
X011842Y031630D01*
X011999Y031410D02*
X011999Y031336D01*
X012072Y031336D01*
X012072Y031410D01*
X011999Y031410D01*
X012239Y031336D02*
X012533Y031336D01*
X012386Y031336D02*
X012386Y031777D01*
X012533Y031630D01*
X012699Y031630D02*
X012846Y031336D01*
X012993Y031630D01*
X013620Y031556D02*
X013620Y031336D01*
X013767Y031336D02*
X013767Y031556D01*
X013693Y031630D01*
X013620Y031556D01*
X013767Y031556D02*
X013840Y031630D01*
X013914Y031630D01*
X013914Y031336D01*
X014080Y031336D02*
X014080Y031556D01*
X014154Y031630D01*
X014227Y031556D01*
X014227Y031336D01*
X014374Y031336D02*
X014374Y031630D01*
X014301Y031630D01*
X014227Y031556D01*
X014541Y031556D02*
X014541Y031410D01*
X014614Y031336D01*
X014761Y031336D01*
X014834Y031410D01*
X014834Y031556D02*
X014688Y031630D01*
X014614Y031630D01*
X014541Y031556D01*
X014541Y031777D02*
X014834Y031777D01*
X014834Y031556D01*
X015001Y031483D02*
X015075Y031556D01*
X015295Y031556D01*
X015295Y031410D01*
X015221Y031336D01*
X015075Y031336D01*
X015001Y031410D01*
X015001Y031483D01*
X015148Y031703D02*
X015295Y031556D01*
X015148Y031703D02*
X015001Y031777D01*
X015451Y031410D02*
X015451Y031336D01*
X015525Y031336D01*
X015525Y031410D01*
X015451Y031410D01*
X015692Y031410D02*
X015765Y031336D01*
X015912Y031336D01*
X015985Y031410D01*
X015692Y031703D01*
X015692Y031410D01*
X015692Y031703D02*
X015765Y031777D01*
X015912Y031777D01*
X015985Y031703D01*
X015985Y031410D01*
X016015Y030943D02*
X016088Y030869D01*
X016088Y030576D01*
X016015Y030502D01*
X015868Y030502D01*
X015795Y030576D01*
X015628Y030722D02*
X015334Y030722D01*
X015167Y030722D02*
X014947Y030722D01*
X014874Y030649D01*
X014874Y030576D01*
X014947Y030502D01*
X015167Y030502D01*
X015167Y030943D01*
X014947Y030943D01*
X014874Y030869D01*
X014874Y030796D01*
X014947Y030722D01*
X014707Y030869D02*
X014560Y030722D01*
X014560Y030502D01*
X014560Y030722D02*
X014413Y030869D01*
X014413Y030943D01*
X014247Y030722D02*
X013953Y030722D01*
X013786Y030796D02*
X013713Y030722D01*
X013566Y030722D01*
X013493Y030649D01*
X013493Y030576D01*
X013566Y030502D01*
X013713Y030502D01*
X013786Y030576D01*
X013786Y030796D02*
X013786Y030869D01*
X013713Y030943D01*
X013566Y030943D01*
X013493Y030869D01*
X013326Y030796D02*
X013326Y030502D01*
X013326Y030722D02*
X013032Y030722D01*
X013032Y030796D02*
X013032Y030502D01*
X013032Y030796D02*
X013179Y030943D01*
X013326Y030796D01*
X014707Y030869D02*
X014707Y030943D01*
X015795Y030869D02*
X015868Y030943D01*
X016015Y030943D01*
X016255Y030869D02*
X016328Y030943D01*
X016475Y030943D01*
X016548Y030869D01*
X016548Y030576D01*
X016475Y030502D01*
X016328Y030502D01*
X016255Y030576D01*
X016906Y031336D02*
X016906Y031777D01*
X016686Y031777D01*
X016612Y031703D01*
X016612Y031556D01*
X016686Y031483D01*
X016906Y031483D01*
X017219Y031556D02*
X017366Y031556D01*
X017366Y031336D02*
X017366Y031777D01*
X017073Y031777D01*
X017533Y031703D02*
X017533Y031410D01*
X017606Y031336D01*
X017753Y031336D01*
X017827Y031410D01*
X017827Y031703D01*
X017753Y031777D01*
X017606Y031777D01*
X017533Y031703D01*
X017680Y031483D02*
X017533Y031336D01*
X017993Y031336D02*
X018287Y031630D01*
X018287Y031336D02*
X017993Y031630D01*
X019151Y030024D02*
X019077Y029951D01*
X019371Y029657D01*
X019297Y029584D01*
X019151Y029584D01*
X019077Y029657D01*
X019077Y029951D01*
X019151Y030024D02*
X019297Y030024D01*
X019371Y029951D01*
X019371Y029657D01*
X019538Y029657D02*
X019611Y029584D01*
X019758Y029584D01*
X019831Y029657D01*
X019831Y029730D01*
X019758Y029804D01*
X019611Y029804D01*
X019538Y029730D01*
X019538Y029657D01*
X019611Y029804D02*
X019538Y029877D01*
X019538Y029951D01*
X019611Y030024D01*
X019758Y030024D01*
X019831Y029951D01*
X019831Y029877D01*
X019758Y029804D01*
X018910Y029877D02*
X018910Y029437D01*
X018910Y029584D02*
X018690Y029584D01*
X018617Y029657D01*
X018617Y029804D01*
X018690Y029877D01*
X018910Y029877D01*
X019161Y028260D02*
X019308Y028260D01*
X019382Y028186D01*
X019548Y028260D02*
X019842Y028260D01*
X019842Y028039D01*
X019695Y028113D01*
X019622Y028113D01*
X019548Y028039D01*
X019548Y027893D01*
X019622Y027819D01*
X019769Y027819D01*
X019842Y027893D01*
X019382Y027819D02*
X019088Y028113D01*
X019088Y028186D01*
X019161Y028260D01*
X018921Y028113D02*
X018701Y028113D01*
X018628Y028039D01*
X018628Y027893D01*
X018701Y027819D01*
X018921Y027819D01*
X018921Y027672D02*
X018921Y028113D01*
X019088Y027819D02*
X019382Y027819D01*
X019871Y020597D02*
X019871Y020303D01*
X019871Y020450D02*
X020311Y020450D01*
X020165Y020303D01*
X014079Y017115D02*
X014081Y017127D01*
X014086Y017138D01*
X014095Y017147D01*
X014106Y017152D01*
X014118Y017154D01*
X014130Y017152D01*
X014141Y017147D01*
X014150Y017138D01*
X014155Y017127D01*
X014157Y017115D01*
X014155Y017103D01*
X014150Y017092D01*
X014141Y017083D01*
X014130Y017078D01*
X014118Y017076D01*
X014106Y017078D01*
X014095Y017083D01*
X014086Y017092D01*
X014081Y017103D01*
X014079Y017115D01*
X012204Y017115D02*
X012206Y017127D01*
X012211Y017138D01*
X012220Y017147D01*
X012231Y017152D01*
X012243Y017154D01*
X012255Y017152D01*
X012266Y017147D01*
X012275Y017138D01*
X012280Y017127D01*
X012282Y017115D01*
X012280Y017103D01*
X012275Y017092D01*
X012266Y017083D01*
X012255Y017078D01*
X012243Y017076D01*
X012231Y017078D01*
X012220Y017083D01*
X012211Y017092D01*
X012206Y017103D01*
X012204Y017115D01*
X014295Y013435D02*
X014297Y013447D01*
X014302Y013458D01*
X014311Y013467D01*
X014322Y013472D01*
X014334Y013474D01*
X014346Y013472D01*
X014357Y013467D01*
X014366Y013458D01*
X014371Y013447D01*
X014373Y013435D01*
X014371Y013423D01*
X014366Y013412D01*
X014357Y013403D01*
X014346Y013398D01*
X014334Y013396D01*
X014322Y013398D01*
X014311Y013403D01*
X014302Y013412D01*
X014297Y013423D01*
X014295Y013435D01*
X017523Y013447D02*
X017856Y013447D01*
X017689Y013447D02*
X017689Y013947D01*
X017856Y013780D01*
X018523Y013780D02*
X018523Y013864D01*
X018606Y013947D01*
X018773Y013947D01*
X018856Y013864D01*
X018523Y013780D02*
X018856Y013447D01*
X018523Y013447D01*
X036784Y003840D02*
X037077Y003840D01*
X036930Y003840D02*
X036930Y004281D01*
X037077Y004134D01*
X037244Y004134D02*
X037391Y003840D01*
X037538Y004134D01*
X037704Y003767D02*
X037998Y003767D01*
X038165Y003914D02*
X038165Y004207D01*
X038458Y003914D01*
X038385Y003840D01*
X038238Y003840D01*
X038165Y003914D01*
X038458Y003914D02*
X038458Y004207D01*
X038385Y004281D01*
X038238Y004281D01*
X038165Y004207D01*
X038625Y004207D02*
X038625Y004134D01*
X038698Y004061D01*
X038845Y004061D01*
X038919Y004134D01*
X038919Y004207D01*
X038845Y004281D01*
X038698Y004281D01*
X038625Y004207D01*
X038698Y004061D02*
X038625Y003987D01*
X038625Y003914D01*
X038698Y003840D01*
X038845Y003840D01*
X038919Y003914D01*
X038919Y003987D01*
X038845Y004061D01*
X039085Y004207D02*
X039085Y003914D01*
X039159Y003840D01*
X039306Y003840D01*
X039379Y003914D01*
X039085Y004207D01*
X039159Y004281D01*
X039306Y004281D01*
X039379Y004207D01*
X039379Y003914D01*
X039546Y003914D02*
X039619Y003840D01*
X039766Y003840D01*
X039839Y003914D01*
X039546Y004207D01*
X039546Y003914D01*
X039839Y003914D02*
X039839Y004207D01*
X039766Y004281D01*
X039619Y004281D01*
X039546Y004207D01*
X040006Y003840D02*
X040300Y003840D01*
X040153Y003840D02*
X040153Y004281D01*
X040300Y004134D01*
X040466Y004207D02*
X040466Y004061D01*
X040540Y003987D01*
X040760Y003987D01*
X040760Y003840D02*
X040760Y004281D01*
X040540Y004281D01*
X040466Y004207D01*
X040927Y004207D02*
X041000Y004281D01*
X041220Y004281D01*
X041220Y003840D01*
X041000Y003840D01*
X040927Y003914D01*
X040927Y004207D01*
D11*
X017511Y003542D02*
X007511Y003542D01*
X007511Y005042D01*
X007636Y005417D02*
X007636Y006417D01*
X008636Y006417D01*
X008636Y005417D01*
X007636Y005417D01*
X007636Y004417D01*
X008636Y004417D01*
X008636Y005417D01*
X008886Y005917D02*
X009386Y005917D01*
X009136Y005667D02*
X009136Y006167D01*
X010063Y005917D02*
X010563Y005917D01*
X010563Y006167D01*
X011563Y006167D01*
X011563Y005917D01*
X012063Y005917D01*
X011563Y005917D02*
X011563Y005667D01*
X010563Y005667D01*
X010563Y005917D01*
X010313Y006622D02*
X010313Y007622D01*
X010313Y007646D02*
X010313Y008646D01*
X010313Y008670D02*
X010313Y009670D01*
X010313Y009693D02*
X010313Y010693D01*
X010063Y010693D02*
X010063Y009693D01*
X010063Y009670D02*
X010063Y008670D01*
X010063Y008646D02*
X010063Y007646D01*
X010063Y007622D02*
X010063Y006622D01*
X011563Y006622D02*
X011563Y007622D01*
X011563Y007646D02*
X011563Y008646D01*
X011563Y008670D02*
X011563Y009670D01*
X011563Y009693D02*
X011563Y010693D01*
X011636Y011167D02*
X010636Y011167D01*
X010636Y011417D01*
X010136Y011417D01*
X010636Y011417D02*
X010636Y011667D01*
X011636Y011667D01*
X011636Y011417D01*
X012136Y011417D01*
X011636Y011417D02*
X011636Y011167D01*
X012063Y010693D02*
X012063Y009693D01*
X012063Y009670D02*
X012063Y008670D01*
X012063Y008646D02*
X012063Y007646D01*
X012063Y007622D02*
X012063Y006622D01*
X012688Y006622D02*
X012688Y007622D01*
X012688Y007646D02*
X012688Y008646D01*
X012688Y008670D02*
X012688Y009670D01*
X012688Y009693D02*
X012688Y010693D01*
X014136Y012667D02*
X014136Y013667D01*
X015136Y013667D01*
X015136Y012667D01*
X014136Y012667D01*
X014886Y014167D02*
X014886Y015167D01*
X015886Y015167D01*
X015886Y014167D01*
X014886Y014167D01*
X014386Y014417D02*
X014386Y014917D01*
X014636Y014667D02*
X014136Y014667D01*
X015261Y015917D02*
X015261Y019917D01*
X021761Y019917D01*
X021761Y034792D01*
X027136Y034792D01*
X041136Y034792D01*
X041136Y033292D01*
X040136Y033792D02*
X039136Y033792D01*
X038636Y034042D01*
X038636Y033792D01*
X038136Y033792D01*
X038136Y033542D01*
X037136Y033542D01*
X037136Y033792D01*
X036636Y033792D01*
X037136Y033792D02*
X037136Y034042D01*
X038136Y034042D01*
X038136Y033792D01*
X038636Y033792D02*
X038636Y033542D01*
X039136Y033792D01*
X039136Y033542D01*
X039136Y033792D02*
X039136Y034042D01*
X039011Y034167D02*
X039136Y034417D01*
X038886Y034417D02*
X038761Y034167D01*
X038886Y033292D02*
X038761Y033042D01*
X038636Y032917D02*
X039136Y032667D01*
X038636Y032417D01*
X038636Y032667D01*
X038136Y032667D01*
X038136Y032417D01*
X037136Y032417D01*
X037136Y032667D01*
X036636Y032667D01*
X037136Y032667D02*
X037136Y032917D01*
X038136Y032917D01*
X038136Y032667D01*
X038636Y032667D02*
X038636Y032917D01*
X039011Y033042D02*
X039136Y033292D01*
X039136Y032917D02*
X039136Y032667D01*
X039136Y032417D01*
X039136Y032667D02*
X040136Y032667D01*
X041761Y032167D02*
X027136Y032167D01*
X027136Y015417D01*
X021761Y015417D01*
X021761Y015917D01*
X017136Y015917D01*
X017136Y012167D01*
X004761Y012167D01*
X007011Y012667D02*
X007011Y013667D01*
X008011Y013667D01*
X008011Y012667D01*
X007011Y012667D01*
X012011Y016917D02*
X012011Y017917D01*
X013011Y017917D01*
X013011Y016917D01*
X012011Y016917D01*
X013886Y016917D02*
X013886Y017917D01*
X014886Y017917D01*
X014886Y016917D01*
X013886Y016917D01*
X015261Y015917D02*
X017136Y015917D01*
X016886Y015167D02*
X015886Y015167D01*
X016886Y015167D02*
X016886Y014167D01*
X015886Y014167D01*
X017705Y014167D02*
X017705Y015167D01*
X018705Y015167D01*
X018705Y014167D01*
X017705Y014167D01*
X018705Y014167D02*
X019705Y014167D01*
X019705Y015167D01*
X018705Y015167D01*
X020136Y014667D02*
X020636Y014667D01*
X020386Y014417D02*
X020386Y014917D01*
X020575Y013940D02*
X020575Y012893D01*
X020575Y012940D02*
X020575Y011893D01*
X020575Y011940D02*
X020575Y010893D01*
X020575Y010940D02*
X020575Y009893D01*
X020575Y009940D02*
X020575Y008893D01*
X020575Y008940D02*
X020575Y007893D01*
X020575Y007940D02*
X020575Y006893D01*
X020575Y006940D02*
X020575Y005893D01*
X020386Y005417D02*
X020386Y004917D01*
X020136Y005167D02*
X020636Y005167D01*
X021386Y005167D02*
X021886Y005167D01*
X021886Y005417D01*
X022886Y005417D01*
X022886Y005167D01*
X023386Y005167D01*
X022886Y005167D02*
X022886Y004917D01*
X021886Y004917D01*
X021886Y005167D01*
X022636Y005917D02*
X022636Y006917D01*
X022636Y007917D01*
X022636Y008917D01*
X022636Y009917D01*
X022636Y010917D01*
X022636Y011917D01*
X022636Y012917D01*
X022636Y013917D01*
X022886Y014417D02*
X021886Y014417D01*
X021886Y014667D01*
X021386Y014667D01*
X021886Y014667D02*
X021886Y014917D01*
X022886Y014917D01*
X022886Y014667D01*
X023386Y014667D01*
X022886Y014667D02*
X022886Y014417D01*
X024136Y014667D02*
X024636Y014667D01*
X024386Y014417D02*
X024386Y014917D01*
X025067Y015167D02*
X026067Y015167D01*
X026067Y014167D01*
X025067Y014167D01*
X025067Y015167D01*
X025511Y015917D02*
X025511Y016417D01*
X025261Y016417D01*
X025261Y017417D01*
X025511Y017417D01*
X025511Y017917D01*
X025511Y017417D02*
X025761Y017417D01*
X025761Y016417D01*
X025511Y016417D01*
X026261Y016417D02*
X026261Y017417D01*
X026511Y017417D01*
X026511Y017917D01*
X026511Y017417D02*
X026761Y017417D01*
X026761Y016417D01*
X026511Y016417D01*
X026511Y015917D01*
X026511Y016417D02*
X026261Y016417D01*
X027136Y015417D02*
X027136Y006167D01*
X027136Y003542D01*
X041136Y003542D01*
X041136Y005042D01*
X040136Y004542D02*
X039636Y004542D01*
X039636Y004292D01*
X038636Y004292D01*
X038636Y004542D01*
X038136Y004542D01*
X038136Y004292D01*
X037636Y004542D01*
X038136Y004792D01*
X038136Y004542D01*
X038011Y004167D02*
X037886Y003917D01*
X037636Y003917D02*
X037761Y004167D01*
X037636Y004292D02*
X037636Y004542D01*
X037636Y004792D01*
X037636Y005042D02*
X037761Y005292D01*
X037636Y005417D02*
X037636Y005667D01*
X038136Y005417D01*
X038136Y005667D01*
X038636Y005667D01*
X038636Y005917D01*
X039636Y005917D01*
X039636Y005667D01*
X040136Y005667D01*
X039636Y005667D02*
X039636Y005417D01*
X038636Y005417D01*
X038636Y005667D01*
X038136Y005667D02*
X038136Y005917D01*
X037636Y005667D01*
X037636Y005917D01*
X037636Y005667D02*
X036636Y005667D01*
X037886Y005042D02*
X038011Y005292D01*
X038636Y004792D02*
X038636Y004542D01*
X038636Y004792D02*
X039636Y004792D01*
X039636Y004542D01*
X037636Y004542D02*
X036636Y004542D01*
X031636Y004542D02*
X031136Y004542D01*
X031136Y004292D01*
X030136Y004292D01*
X030136Y004542D01*
X029636Y004542D01*
X029636Y004292D01*
X029136Y004542D01*
X029636Y004792D01*
X029636Y004542D01*
X029511Y004167D02*
X029386Y003917D01*
X029136Y003917D02*
X029261Y004167D01*
X029136Y004292D02*
X029136Y004542D01*
X029136Y004792D01*
X029136Y005042D02*
X029261Y005292D01*
X029136Y005417D02*
X029136Y005667D01*
X029636Y005417D01*
X029636Y005667D01*
X030136Y005667D01*
X030136Y005917D01*
X031136Y005917D01*
X031136Y005667D01*
X031636Y005667D01*
X031136Y005667D02*
X031136Y005417D01*
X030136Y005417D01*
X030136Y005667D01*
X029636Y005667D02*
X029636Y005917D01*
X029136Y005667D01*
X029136Y005917D01*
X029136Y005667D02*
X028136Y005667D01*
X027067Y005667D02*
X026067Y005667D01*
X026067Y004667D01*
X025067Y004667D01*
X025067Y005667D01*
X026067Y005667D01*
X027067Y005667D02*
X027067Y004667D01*
X026067Y004667D01*
X024636Y005167D02*
X024136Y005167D01*
X024386Y004917D02*
X024386Y005417D01*
X024197Y005893D02*
X024197Y006940D01*
X024197Y006893D02*
X024197Y007940D01*
X024197Y007893D02*
X024197Y008940D01*
X024197Y008893D02*
X024197Y009940D01*
X024197Y009893D02*
X024197Y010940D01*
X024197Y010893D02*
X024197Y011940D01*
X024197Y011893D02*
X024197Y012940D01*
X024197Y012893D02*
X024197Y013940D01*
X026067Y014167D02*
X027067Y014167D01*
X027067Y015167D01*
X026067Y015167D01*
X024636Y016417D02*
X024261Y016417D01*
X023886Y017417D01*
X024261Y017417D01*
X024261Y017917D01*
X024261Y017417D02*
X024636Y017417D01*
X024261Y016417D01*
X023886Y016417D01*
X023636Y016417D02*
X023261Y016417D01*
X022886Y017417D01*
X023261Y017417D01*
X023261Y017917D01*
X023261Y017417D02*
X023636Y017417D01*
X023261Y016417D01*
X022886Y016417D01*
X023261Y016417D02*
X023261Y015917D01*
X024261Y015917D02*
X024261Y016417D01*
X021761Y015917D02*
X021761Y019917D01*
X021688Y019990D02*
X021334Y020343D01*
X021158Y020167D01*
X020451Y020874D01*
X020627Y021051D01*
X020274Y021404D01*
X020627Y021051D02*
X020804Y021227D01*
X021511Y020520D01*
X021334Y020343D01*
X022886Y020417D02*
X023261Y019417D01*
X023636Y020417D01*
X023261Y020417D01*
X023261Y020917D01*
X023261Y020417D02*
X022886Y020417D01*
X023886Y020417D02*
X024261Y020417D01*
X024261Y020917D01*
X024261Y020417D02*
X024636Y020417D01*
X024261Y019417D01*
X023886Y020417D01*
X023886Y019417D02*
X024261Y019417D01*
X024636Y019417D01*
X024261Y019417D02*
X024261Y018917D01*
X023636Y019417D02*
X023261Y019417D01*
X022886Y019417D01*
X023261Y019417D02*
X023261Y018917D01*
X021261Y018667D02*
X020136Y018667D01*
X020136Y018292D01*
X019886Y018292D02*
X019886Y018667D01*
X017136Y018667D01*
X017136Y018292D01*
X016886Y018292D02*
X016886Y018667D01*
X015761Y018667D01*
X015761Y017167D01*
X018136Y017167D01*
X018886Y017167D02*
X021261Y017167D01*
X021261Y018667D01*
X020136Y018667D02*
X020136Y019042D01*
X019886Y019042D02*
X019886Y018667D01*
X017136Y018667D02*
X017136Y019042D01*
X016886Y019042D02*
X016886Y018667D01*
X015261Y019917D02*
X004761Y019917D01*
X004761Y006292D01*
X006136Y006292D01*
X006137Y006292D02*
X006208Y006293D01*
X006279Y006291D01*
X006350Y006284D01*
X006420Y006274D01*
X006490Y006260D01*
X006559Y006243D01*
X006627Y006221D01*
X006693Y006196D01*
X006759Y006168D01*
X006822Y006136D01*
X006884Y006100D01*
X006944Y006062D01*
X007001Y006020D01*
X007056Y005975D01*
X007109Y005927D01*
X007159Y005876D01*
X007206Y005823D01*
X007250Y005767D01*
X007291Y005709D01*
X007329Y005649D01*
X007364Y005587D01*
X007395Y005523D01*
X007423Y005457D01*
X007447Y005390D01*
X007467Y005322D01*
X007484Y005253D01*
X007497Y005183D01*
X007506Y005112D01*
X007512Y005042D01*
X012886Y005917D02*
X013386Y005917D01*
X013136Y005667D02*
X013136Y006167D01*
X013636Y006417D02*
X013636Y005417D01*
X014636Y005417D01*
X014636Y004417D01*
X013636Y004417D01*
X013636Y005417D01*
X014636Y005417D02*
X014636Y006417D01*
X013636Y006417D01*
X017705Y005667D02*
X017705Y004667D01*
X018705Y004667D01*
X018705Y005667D01*
X019705Y005667D01*
X019705Y004667D01*
X018705Y004667D01*
X018705Y005667D02*
X017705Y005667D01*
X017511Y003542D02*
X017511Y012167D01*
X017136Y012167D01*
X027136Y006167D02*
X041886Y006167D01*
X042511Y006292D02*
X043886Y006292D01*
X043886Y032042D01*
X042386Y032042D01*
X042318Y032044D01*
X042251Y032049D01*
X042184Y032058D01*
X042117Y032071D01*
X042052Y032088D01*
X041987Y032107D01*
X041923Y032131D01*
X041861Y032158D01*
X041800Y032188D01*
X041742Y032221D01*
X041685Y032257D01*
X041630Y032297D01*
X041577Y032339D01*
X041526Y032385D01*
X041479Y032432D01*
X041433Y032483D01*
X041391Y032536D01*
X041351Y032591D01*
X041315Y032648D01*
X041282Y032706D01*
X041252Y032767D01*
X041225Y032829D01*
X041201Y032893D01*
X041182Y032958D01*
X041165Y033023D01*
X041152Y033090D01*
X041143Y033157D01*
X041138Y033224D01*
X041136Y033292D01*
X031636Y033792D02*
X030636Y033792D01*
X030136Y034042D01*
X030136Y033792D01*
X029636Y033792D01*
X029636Y033542D01*
X028636Y033542D01*
X028636Y033792D01*
X028136Y033792D01*
X028636Y033792D02*
X028636Y034042D01*
X029636Y034042D01*
X029636Y033792D01*
X030136Y033792D02*
X030136Y033542D01*
X030636Y033792D01*
X030636Y033542D01*
X030636Y033792D02*
X030636Y034042D01*
X030511Y034167D02*
X030636Y034417D01*
X030386Y034417D02*
X030261Y034167D01*
X030386Y033292D02*
X030261Y033042D01*
X030136Y032917D02*
X030636Y032667D01*
X030136Y032417D01*
X030136Y032667D01*
X029636Y032667D01*
X029636Y032417D01*
X028636Y032417D01*
X028636Y032667D01*
X028136Y032667D01*
X028636Y032667D02*
X028636Y032917D01*
X029636Y032917D01*
X029636Y032667D01*
X030136Y032667D02*
X030136Y032917D01*
X030511Y033042D02*
X030636Y033292D01*
X030636Y032917D02*
X030636Y032667D01*
X030636Y032417D01*
X030636Y032667D02*
X031636Y032667D01*
X027136Y032167D02*
X027136Y034792D01*
X026636Y032167D02*
X022636Y032167D01*
X022636Y031167D02*
X026636Y031167D01*
X026386Y030167D02*
X026386Y029667D01*
X026636Y029667D01*
X026636Y028667D01*
X026386Y028667D01*
X026386Y028167D01*
X026386Y028667D02*
X026136Y028667D01*
X026136Y029667D01*
X026386Y029667D01*
X025636Y030167D02*
X025636Y029167D01*
X024636Y029167D01*
X024636Y030167D01*
X025636Y030167D01*
X024386Y030167D02*
X024386Y029167D01*
X023386Y029167D01*
X023386Y030167D01*
X024386Y030167D01*
X022886Y029667D02*
X022886Y028667D01*
X022636Y028667D01*
X022636Y028167D01*
X022636Y028667D02*
X022386Y028667D01*
X022386Y029667D01*
X022636Y029667D01*
X022636Y030167D01*
X022636Y029667D02*
X022886Y029667D01*
X023386Y029167D02*
X023386Y028167D01*
X024386Y028167D01*
X024386Y029167D01*
X024636Y029167D02*
X024636Y028167D01*
X025636Y028167D01*
X025636Y029167D01*
X026636Y027167D02*
X022636Y027167D01*
X022636Y026167D02*
X026636Y026167D01*
X024886Y026417D02*
X024886Y026667D01*
X024511Y026667D01*
X024511Y026917D02*
X024386Y026417D01*
X024386Y026167D01*
X024886Y026667D02*
X024886Y026917D01*
X024386Y026917D02*
X024386Y027167D01*
X024261Y023917D02*
X024261Y023417D01*
X024636Y023417D01*
X024261Y022417D01*
X023886Y023417D01*
X024261Y023417D01*
X023636Y023417D02*
X023261Y023417D01*
X023261Y023917D01*
X023261Y023417D02*
X022886Y023417D01*
X023261Y022417D01*
X023636Y023417D01*
X023636Y022417D02*
X023261Y022417D01*
X022886Y022417D01*
X023261Y022417D02*
X023261Y021917D01*
X023886Y022417D02*
X024261Y022417D01*
X024636Y022417D01*
X024261Y022417D02*
X024261Y021917D01*
X025261Y022417D02*
X025261Y023417D01*
X025511Y023417D01*
X025511Y023917D01*
X025511Y023417D02*
X025761Y023417D01*
X025761Y022417D01*
X025511Y022417D01*
X025511Y021917D01*
X025511Y022417D02*
X025261Y022417D01*
X026261Y022417D02*
X026261Y023417D01*
X026511Y023417D01*
X026511Y023917D01*
X026511Y023417D02*
X026761Y023417D01*
X026761Y022417D01*
X026511Y022417D01*
X026511Y021917D01*
X026511Y022417D02*
X026261Y022417D01*
X026511Y020917D02*
X026511Y020417D01*
X026761Y020417D01*
X026761Y019417D01*
X026511Y019417D01*
X026511Y018917D01*
X026511Y019417D02*
X026261Y019417D01*
X026261Y020417D01*
X026511Y020417D01*
X025761Y020417D02*
X025761Y019417D01*
X025511Y019417D01*
X025511Y018917D01*
X025511Y019417D02*
X025261Y019417D01*
X025261Y020417D01*
X025511Y020417D01*
X025511Y020917D01*
X025511Y020417D02*
X025761Y020417D01*
X017650Y023831D02*
X017652Y023858D01*
X017658Y023885D01*
X017667Y023911D01*
X017680Y023935D01*
X017696Y023958D01*
X017715Y023977D01*
X017737Y023994D01*
X017761Y024008D01*
X017786Y024018D01*
X017813Y024025D01*
X017840Y024028D01*
X017868Y024027D01*
X017895Y024022D01*
X017921Y024014D01*
X017945Y024002D01*
X017968Y023986D01*
X017989Y023968D01*
X018006Y023947D01*
X018021Y023923D01*
X018032Y023898D01*
X018040Y023872D01*
X018044Y023845D01*
X018044Y023817D01*
X018040Y023790D01*
X018032Y023764D01*
X018021Y023739D01*
X018006Y023715D01*
X017989Y023694D01*
X017968Y023676D01*
X017946Y023660D01*
X017921Y023648D01*
X017895Y023640D01*
X017868Y023635D01*
X017840Y023634D01*
X017813Y023637D01*
X017786Y023644D01*
X017761Y023654D01*
X017737Y023668D01*
X017715Y023685D01*
X017696Y023704D01*
X017680Y023727D01*
X017667Y023751D01*
X017658Y023777D01*
X017652Y023804D01*
X017650Y023831D01*
X017625Y024053D02*
X017327Y024053D01*
X017327Y024161D02*
X017517Y024161D01*
X017517Y024351D01*
X017625Y024351D02*
X017625Y024053D01*
X016425Y026445D02*
X015145Y026445D01*
X015785Y027469D01*
X016425Y026445D01*
X015721Y026637D02*
X015723Y026652D01*
X015728Y026667D01*
X015737Y026679D01*
X015749Y026690D01*
X015762Y026697D01*
X015777Y026701D01*
X015793Y026701D01*
X015808Y026697D01*
X015821Y026690D01*
X015833Y026679D01*
X015842Y026667D01*
X015847Y026652D01*
X015849Y026637D01*
X015847Y026622D01*
X015842Y026607D01*
X015833Y026595D01*
X015821Y026584D01*
X015808Y026577D01*
X015793Y026573D01*
X015777Y026573D01*
X015762Y026577D01*
X015749Y026584D01*
X015737Y026595D01*
X015728Y026607D01*
X015723Y026622D01*
X015721Y026637D01*
X015785Y026829D02*
X015721Y027149D01*
X015849Y027149D01*
X015785Y026829D01*
X017327Y027990D02*
X017418Y027990D01*
X018354Y027977D02*
X018452Y027977D01*
X017517Y029482D02*
X017517Y029673D01*
X017327Y029673D01*
X018334Y029728D02*
X018432Y029728D01*
X020304Y032460D02*
X020658Y032813D01*
X020481Y032990D01*
X021188Y033697D01*
X021365Y033520D01*
X021718Y033874D01*
X021365Y033520D02*
X021542Y033343D01*
X020834Y032636D01*
X020658Y032813D01*
X024386Y031917D02*
X024386Y031667D01*
X024761Y031667D01*
X024761Y031417D02*
X024886Y031917D01*
X024886Y032167D01*
X024386Y031667D02*
X024386Y031417D01*
X024886Y031417D02*
X024886Y031167D01*
X013987Y027990D02*
X013688Y027990D01*
X013688Y027691D01*
X012005Y029482D02*
X012005Y029673D01*
X012195Y029673D01*
X009218Y032460D02*
X008865Y032813D01*
X008688Y032636D01*
X007981Y033343D01*
X008158Y033520D01*
X007804Y033874D01*
X008158Y033520D02*
X008334Y033697D01*
X009042Y032990D01*
X008865Y032813D01*
X007136Y031917D02*
X007136Y030917D01*
X006136Y030917D01*
X006136Y031917D01*
X007136Y031917D01*
X007136Y030917D02*
X007136Y029917D01*
X006136Y029917D01*
X006136Y030917D01*
X005636Y030667D02*
X005636Y030167D01*
X005886Y030417D02*
X005386Y030417D01*
X012005Y024351D02*
X012005Y024161D01*
X012195Y024161D01*
X012373Y023322D02*
X012373Y023223D01*
X013689Y023219D02*
X013689Y023318D01*
X013688Y024260D02*
X013688Y024351D01*
X009218Y021374D02*
X008865Y021020D01*
X009042Y020843D01*
X008334Y020136D01*
X008158Y020313D01*
X007804Y019960D01*
X008158Y020313D02*
X007981Y020490D01*
X008688Y021197D01*
X008865Y021020D01*
X007136Y021417D02*
X007136Y022417D01*
X006136Y022417D01*
X006136Y021417D01*
X007136Y021417D01*
X007136Y020417D01*
X006136Y020417D01*
X006136Y021417D01*
X005886Y021917D02*
X005386Y021917D01*
X005636Y021667D02*
X005636Y022167D01*
X029511Y005292D02*
X029386Y005042D01*
X029136Y004542D02*
X028136Y004542D01*
X027136Y003542D02*
X017511Y003542D01*
X030136Y004542D02*
X030136Y004792D01*
X031136Y004792D01*
X031136Y004542D01*
X041136Y005041D02*
X041142Y005112D01*
X041151Y005183D01*
X041164Y005253D01*
X041181Y005322D01*
X041201Y005390D01*
X041225Y005457D01*
X041253Y005523D01*
X041284Y005587D01*
X041319Y005649D01*
X041357Y005709D01*
X041398Y005767D01*
X041442Y005823D01*
X041489Y005876D01*
X041539Y005927D01*
X041592Y005975D01*
X041647Y006020D01*
X041704Y006062D01*
X041764Y006100D01*
X041826Y006136D01*
X041889Y006168D01*
X041955Y006196D01*
X042021Y006221D01*
X042089Y006243D01*
X042158Y006260D01*
X042228Y006274D01*
X042298Y006284D01*
X042369Y006291D01*
X042440Y006293D01*
X042512Y006292D01*
D12*
X024136Y005917D02*
X020636Y005917D01*
X012636Y006667D02*
X010136Y006667D01*
X010386Y010167D02*
X010388Y010198D01*
X010394Y010229D01*
X010404Y010259D01*
X010417Y010287D01*
X010434Y010314D01*
X010454Y010338D01*
X010477Y010360D01*
X010502Y010378D01*
X010530Y010393D01*
X010559Y010405D01*
X010589Y010413D01*
X010620Y010417D01*
X010652Y010417D01*
X010683Y010413D01*
X010713Y010405D01*
X010742Y010393D01*
X010770Y010378D01*
X010795Y010360D01*
X010818Y010338D01*
X010838Y010314D01*
X010855Y010287D01*
X010868Y010259D01*
X010878Y010229D01*
X010884Y010198D01*
X010886Y010167D01*
X010884Y010136D01*
X010878Y010105D01*
X010868Y010075D01*
X010855Y010047D01*
X010838Y010020D01*
X010818Y009996D01*
X010795Y009974D01*
X010770Y009956D01*
X010742Y009941D01*
X010713Y009929D01*
X010683Y009921D01*
X010652Y009917D01*
X010620Y009917D01*
X010589Y009921D01*
X010559Y009929D01*
X010530Y009941D01*
X010502Y009956D01*
X010477Y009974D01*
X010454Y009996D01*
X010434Y010020D01*
X010417Y010047D01*
X010404Y010075D01*
X010394Y010105D01*
X010388Y010136D01*
X010386Y010167D01*
X010136Y010667D02*
X012636Y010667D01*
X020636Y013917D02*
X024136Y013917D01*
X020886Y013417D02*
X020888Y013448D01*
X020894Y013479D01*
X020904Y013509D01*
X020917Y013537D01*
X020934Y013564D01*
X020954Y013588D01*
X020977Y013610D01*
X021002Y013628D01*
X021030Y013643D01*
X021059Y013655D01*
X021089Y013663D01*
X021120Y013667D01*
X021152Y013667D01*
X021183Y013663D01*
X021213Y013655D01*
X021242Y013643D01*
X021270Y013628D01*
X021295Y013610D01*
X021318Y013588D01*
X021338Y013564D01*
X021355Y013537D01*
X021368Y013509D01*
X021378Y013479D01*
X021384Y013448D01*
X021386Y013417D01*
X021384Y013386D01*
X021378Y013355D01*
X021368Y013325D01*
X021355Y013297D01*
X021338Y013270D01*
X021318Y013246D01*
X021295Y013224D01*
X021270Y013206D01*
X021242Y013191D01*
X021213Y013179D01*
X021183Y013171D01*
X021152Y013167D01*
X021120Y013167D01*
X021089Y013171D01*
X021059Y013179D01*
X021030Y013191D01*
X021002Y013206D01*
X020977Y013224D01*
X020954Y013246D01*
X020934Y013270D01*
X020917Y013297D01*
X020904Y013325D01*
X020894Y013355D01*
X020888Y013386D01*
X020886Y013417D01*
X018636Y016792D02*
X018386Y016792D01*
X018386Y017542D01*
X018636Y017542D01*
X018636Y016792D01*
X018886Y016917D02*
X018886Y017167D01*
X018886Y017417D01*
X018136Y017417D02*
X018136Y017167D01*
X018136Y016917D01*
D13*
X009846Y019303D02*
X009749Y019207D01*
X009556Y019207D01*
X009459Y019303D01*
X009459Y019787D01*
X009239Y019690D02*
X009239Y019594D01*
X009142Y019497D01*
X008948Y019497D01*
X008852Y019400D01*
X008852Y019303D01*
X008948Y019207D01*
X009142Y019207D01*
X009239Y019303D01*
X009239Y019690D02*
X009142Y019787D01*
X008948Y019787D01*
X008852Y019690D01*
X008631Y019787D02*
X008631Y019207D01*
X008341Y019207D01*
X008244Y019303D01*
X008244Y019400D01*
X008341Y019497D01*
X008631Y019497D01*
X008631Y019787D02*
X008341Y019787D01*
X008244Y019690D01*
X008244Y019594D01*
X008341Y019497D01*
X007415Y019594D02*
X007415Y019207D01*
X007222Y019207D02*
X007222Y019497D01*
X007125Y019594D01*
X007028Y019497D01*
X007028Y019207D01*
X006808Y019207D02*
X006614Y019207D01*
X006711Y019207D02*
X006711Y019594D01*
X006808Y019594D01*
X006711Y019787D02*
X006711Y019884D01*
X006403Y019497D02*
X006306Y019594D01*
X006016Y019594D01*
X005795Y019594D02*
X005795Y019207D01*
X005795Y019400D02*
X005601Y019594D01*
X005505Y019594D01*
X005288Y019497D02*
X005288Y019303D01*
X005192Y019207D01*
X004998Y019207D01*
X004901Y019303D01*
X004901Y019497D01*
X004998Y019594D01*
X005192Y019594D01*
X005288Y019497D01*
X006016Y019207D02*
X006306Y019207D01*
X006403Y019303D01*
X006403Y019497D01*
X007222Y019497D02*
X007319Y019594D01*
X007415Y019594D01*
X009846Y019787D02*
X009846Y019303D01*
D14*
X015665Y025860D02*
X015665Y026210D01*
X015490Y026210D01*
X015432Y026152D01*
X015432Y026035D01*
X015490Y025977D01*
X015665Y025977D01*
X015800Y025918D02*
X015800Y026152D01*
X015858Y026210D01*
X016033Y026210D01*
X016033Y025860D01*
X015858Y025860D01*
X015800Y025918D01*
X027136Y031167D02*
X027136Y007167D01*
X028136Y007167D01*
X028136Y031167D01*
X027136Y031167D01*
X028136Y031167D02*
X029136Y031167D01*
X029136Y007167D01*
X028136Y007167D01*
X030136Y007167D02*
X040136Y007167D01*
X040136Y008167D01*
X030136Y008167D01*
X030136Y009167D01*
X040136Y009167D01*
X040136Y010167D01*
X030136Y010167D01*
X030136Y011167D01*
X040136Y011167D01*
X040136Y012167D01*
X030136Y012167D01*
X030136Y013167D01*
X040136Y013167D01*
X040136Y014167D01*
X030136Y014167D01*
X030136Y015167D01*
X040136Y015167D01*
X040136Y016167D01*
X030136Y016167D01*
X030136Y017167D01*
X040136Y017167D01*
X040136Y018167D01*
X030136Y018167D01*
X030136Y019167D01*
X040136Y019167D01*
X040136Y020167D01*
X030136Y020167D01*
X030136Y021167D01*
X040136Y021167D01*
X040136Y022167D01*
X030136Y022167D01*
X030136Y023167D01*
X040136Y023167D01*
X040136Y024167D01*
X030136Y024167D01*
X030136Y025167D01*
X040136Y025167D01*
X040136Y026167D01*
X030136Y026167D01*
X030136Y027167D01*
X040136Y027167D01*
X040136Y028167D01*
X030136Y028167D01*
X030136Y029167D01*
X040136Y029167D01*
X040136Y030167D01*
X030136Y030167D01*
X030136Y031167D01*
X040136Y031167D01*
X040136Y030167D01*
X040136Y029167D02*
X040136Y028167D01*
X040136Y027167D02*
X040136Y026167D01*
X040136Y025167D02*
X040136Y024167D01*
X040136Y023167D02*
X040136Y022167D01*
X040136Y021167D02*
X040136Y020167D01*
X040136Y019167D02*
X040136Y018167D01*
X040136Y017167D02*
X040136Y016167D01*
X040136Y015167D02*
X040136Y014167D01*
X040136Y013167D02*
X040136Y012167D01*
X040136Y011167D02*
X040136Y010167D01*
X040136Y009167D02*
X040136Y008167D01*
X039136Y007167D02*
X039136Y031167D01*
X038136Y031167D02*
X038136Y007167D01*
X037136Y007167D02*
X037136Y031167D01*
X036136Y031167D02*
X036136Y007167D01*
X035136Y007167D02*
X035136Y031167D01*
X034136Y031167D02*
X034136Y007167D01*
X033136Y007167D02*
X033136Y031167D01*
X032136Y031167D02*
X032136Y007167D01*
X031136Y007167D02*
X031136Y031167D01*
X030136Y030167D02*
X030136Y029167D01*
X030136Y028167D02*
X030136Y027167D01*
X030136Y026167D02*
X030136Y025167D01*
X030136Y024167D02*
X030136Y023167D01*
X030136Y022167D02*
X030136Y021167D01*
X030136Y020167D02*
X030136Y019167D01*
X030136Y018167D02*
X030136Y017167D01*
X030136Y016167D02*
X030136Y015167D01*
X030136Y014167D02*
X030136Y013167D01*
X030136Y012167D02*
X030136Y011167D01*
X030136Y010167D02*
X030136Y009167D01*
X030136Y008167D02*
X030136Y007167D01*
X041136Y007167D02*
X041136Y031167D01*
X042136Y031167D01*
X043136Y031167D01*
X043136Y007167D01*
X042136Y007167D01*
X042136Y031167D01*
X042136Y007167D02*
X041136Y007167D01*
D15*
X040852Y007517D02*
X040642Y007728D01*
X040221Y007728D01*
X040536Y007728D02*
X040536Y007307D01*
X040642Y007307D02*
X040852Y007517D01*
X040642Y007307D02*
X040221Y007307D01*
X039872Y006853D02*
X039451Y006853D01*
X039346Y006747D01*
X039346Y006537D01*
X039451Y006432D01*
X039661Y006537D02*
X039661Y006853D01*
X039872Y006853D02*
X039977Y006747D01*
X039977Y006537D01*
X039872Y006432D01*
X039767Y006432D01*
X039661Y006537D01*
X038977Y006537D02*
X038977Y006747D01*
X038872Y006853D01*
X038767Y006853D01*
X038661Y006747D01*
X038661Y006537D01*
X038767Y006432D01*
X038872Y006432D01*
X038977Y006537D01*
X038661Y006537D02*
X038556Y006432D01*
X038451Y006432D01*
X038346Y006537D01*
X038346Y006747D01*
X038451Y006853D01*
X038556Y006853D01*
X038661Y006747D01*
X037977Y006853D02*
X037872Y006853D01*
X037451Y006432D01*
X037346Y006432D01*
X036872Y006642D02*
X036977Y006853D01*
X036872Y006642D02*
X036661Y006432D01*
X036661Y006747D01*
X036556Y006853D01*
X036451Y006853D01*
X036346Y006747D01*
X036346Y006537D01*
X036451Y006432D01*
X036661Y006432D01*
X035977Y006432D02*
X035977Y006853D01*
X035767Y006747D02*
X035661Y006853D01*
X035451Y006853D01*
X035346Y006747D01*
X035346Y006537D01*
X035451Y006432D01*
X035661Y006432D02*
X035767Y006642D01*
X035767Y006747D01*
X035661Y006432D02*
X035977Y006432D01*
X034977Y006747D02*
X034661Y006432D01*
X034661Y006853D01*
X034346Y006747D02*
X034977Y006747D01*
X033977Y006747D02*
X033872Y006853D01*
X033767Y006853D01*
X033661Y006747D01*
X033556Y006853D01*
X033451Y006853D01*
X033346Y006747D01*
X033346Y006537D01*
X033451Y006432D01*
X033661Y006642D02*
X033661Y006747D01*
X033977Y006747D02*
X033977Y006537D01*
X033872Y006432D01*
X032977Y006537D02*
X032872Y006432D01*
X032977Y006537D02*
X032977Y006747D01*
X032872Y006853D01*
X032767Y006853D01*
X032346Y006432D01*
X032346Y006853D01*
X031977Y006642D02*
X031346Y006642D01*
X031346Y006432D02*
X031346Y006853D01*
X030977Y006747D02*
X030872Y006853D01*
X030451Y006432D01*
X030346Y006537D01*
X030346Y006747D01*
X030451Y006853D01*
X030872Y006853D01*
X030977Y006747D02*
X030977Y006537D01*
X030872Y006432D01*
X030451Y006432D01*
X029767Y007307D02*
X029977Y007517D01*
X029767Y007728D01*
X029346Y007728D01*
X029661Y007728D02*
X029661Y007307D01*
X029767Y007307D02*
X029346Y007307D01*
X028536Y006853D02*
X028536Y006432D01*
X027872Y006642D02*
X027451Y006642D01*
X027661Y006432D02*
X027661Y006853D01*
X029346Y008307D02*
X029346Y008622D01*
X029451Y008728D01*
X029556Y008728D01*
X029661Y008622D01*
X029661Y008307D01*
X029346Y008307D02*
X029977Y008307D01*
X029977Y008622D01*
X029872Y008728D01*
X029767Y008728D01*
X029661Y008622D01*
X029451Y009307D02*
X029346Y009412D01*
X029346Y009622D01*
X029451Y009728D01*
X029872Y009728D02*
X029977Y009622D01*
X029977Y009412D01*
X029872Y009307D01*
X029451Y009307D01*
X029346Y010307D02*
X029346Y010622D01*
X029451Y010728D01*
X029872Y010728D01*
X029977Y010622D01*
X029977Y010307D01*
X029346Y010307D01*
X029346Y011307D02*
X029346Y011728D01*
X029661Y011517D02*
X029661Y011307D01*
X029346Y011307D02*
X029977Y011307D01*
X029977Y011728D01*
X029977Y012307D02*
X029346Y012307D01*
X029661Y012307D02*
X029661Y012517D01*
X029977Y012307D02*
X029977Y012728D01*
X029872Y013307D02*
X029451Y013307D01*
X029346Y013412D01*
X029346Y013622D01*
X029451Y013728D01*
X029661Y013728D01*
X029661Y013517D01*
X029872Y013307D02*
X029977Y013412D01*
X029977Y013622D01*
X029872Y013728D01*
X029977Y014307D02*
X029346Y014307D01*
X029661Y014307D02*
X029661Y014728D01*
X029346Y014728D02*
X029977Y014728D01*
X029977Y015522D02*
X029977Y015732D01*
X029977Y015627D02*
X029346Y015627D01*
X029346Y015522D02*
X029346Y015732D01*
X029451Y016307D02*
X029346Y016412D01*
X029346Y016517D01*
X029451Y016622D01*
X029977Y016622D01*
X029977Y016517D02*
X029977Y016728D01*
X029977Y017307D02*
X029346Y017307D01*
X029556Y017307D02*
X029977Y017728D01*
X029661Y017412D02*
X029346Y017728D01*
X029346Y018307D02*
X029346Y018728D01*
X029346Y018307D02*
X029977Y018307D01*
X029977Y019307D02*
X029346Y019307D01*
X029346Y019728D02*
X029977Y019728D01*
X029767Y019517D01*
X029977Y019307D01*
X029977Y020307D02*
X029346Y020307D01*
X029346Y020728D02*
X029977Y020728D01*
X029977Y020307D02*
X029346Y020728D01*
X029451Y021307D02*
X029346Y021412D01*
X029346Y021622D01*
X029451Y021728D01*
X029872Y021728D01*
X029977Y021622D01*
X029977Y021412D01*
X029872Y021307D01*
X029451Y021307D01*
X029346Y022307D02*
X029977Y022307D01*
X029977Y022622D01*
X029872Y022728D01*
X029661Y022728D01*
X029556Y022622D01*
X029556Y022307D01*
X029451Y023307D02*
X029346Y023412D01*
X029346Y023622D01*
X029451Y023728D01*
X029872Y023728D01*
X029977Y023622D01*
X029977Y023412D01*
X029872Y023307D01*
X029451Y023307D01*
X029556Y023517D02*
X029346Y023728D01*
X029346Y024307D02*
X029977Y024307D01*
X029977Y024622D01*
X029872Y024728D01*
X029661Y024728D01*
X029556Y024622D01*
X029556Y024307D01*
X029556Y024517D02*
X029346Y024728D01*
X029451Y025307D02*
X029346Y025412D01*
X029346Y025622D01*
X029451Y025728D01*
X029556Y025728D01*
X029661Y025622D01*
X029661Y025412D01*
X029767Y025307D01*
X029872Y025307D01*
X029977Y025412D01*
X029977Y025622D01*
X029872Y025728D01*
X029977Y026307D02*
X029977Y026728D01*
X029977Y026517D02*
X029346Y026517D01*
X029451Y027307D02*
X029346Y027412D01*
X029346Y027622D01*
X029451Y027728D01*
X029977Y027728D01*
X029977Y027307D02*
X029451Y027307D01*
X029556Y028307D02*
X029346Y028517D01*
X029556Y028728D01*
X029977Y028728D01*
X029977Y028307D02*
X029556Y028307D01*
X029346Y029307D02*
X029556Y029517D01*
X029346Y029728D01*
X029977Y029728D01*
X029977Y029307D02*
X029346Y029307D01*
X029346Y030307D02*
X029977Y030728D01*
X029977Y030307D02*
X029346Y030728D01*
X030346Y031412D02*
X030451Y031307D01*
X030872Y031728D01*
X030451Y031728D01*
X030346Y031622D01*
X030346Y031412D01*
X030451Y031307D02*
X030872Y031307D01*
X030977Y031412D01*
X030977Y031622D01*
X030872Y031728D01*
X031346Y031728D02*
X031346Y031307D01*
X031346Y031517D02*
X031977Y031517D01*
X031767Y031307D01*
X032346Y031307D02*
X032767Y031728D01*
X032872Y031728D01*
X032977Y031622D01*
X032977Y031412D01*
X032872Y031307D01*
X033346Y031412D02*
X033451Y031307D01*
X033346Y031412D02*
X033346Y031622D01*
X033451Y031728D01*
X033556Y031728D01*
X033661Y031622D01*
X033661Y031517D01*
X033661Y031622D02*
X033767Y031728D01*
X033872Y031728D01*
X033977Y031622D01*
X033977Y031412D01*
X033872Y031307D01*
X034346Y031622D02*
X034977Y031622D01*
X034661Y031307D01*
X034661Y031728D01*
X035346Y031622D02*
X035346Y031412D01*
X035451Y031307D01*
X035661Y031307D02*
X035767Y031517D01*
X035767Y031622D01*
X035661Y031728D01*
X035451Y031728D01*
X035346Y031622D01*
X035661Y031307D02*
X035977Y031307D01*
X035977Y031728D01*
X036346Y031622D02*
X036346Y031412D01*
X036451Y031307D01*
X036661Y031307D01*
X036661Y031622D01*
X036556Y031728D01*
X036451Y031728D01*
X036346Y031622D01*
X036661Y031307D02*
X036872Y031517D01*
X036977Y031728D01*
X037346Y031307D02*
X037451Y031307D01*
X037872Y031728D01*
X037977Y031728D01*
X037977Y031307D01*
X038346Y031412D02*
X038346Y031622D01*
X038451Y031728D01*
X038556Y031728D01*
X038661Y031622D01*
X038661Y031412D01*
X038767Y031307D01*
X038872Y031307D01*
X038977Y031412D01*
X038977Y031622D01*
X038872Y031728D01*
X038767Y031728D01*
X038661Y031622D01*
X038661Y031412D02*
X038556Y031307D01*
X038451Y031307D01*
X038346Y031412D01*
X039346Y031412D02*
X039346Y031622D01*
X039451Y031728D01*
X039872Y031728D01*
X039977Y031622D01*
X039977Y031412D01*
X039872Y031307D01*
X039767Y031307D01*
X039661Y031412D01*
X039661Y031728D01*
X039346Y031412D02*
X039451Y031307D01*
X040221Y030728D02*
X040852Y030307D01*
X040852Y030728D02*
X040221Y030307D01*
X040221Y029728D02*
X040852Y029728D01*
X040852Y029307D02*
X040221Y029307D01*
X040431Y029517D01*
X040221Y029728D01*
X040431Y028728D02*
X040221Y028517D01*
X040431Y028307D01*
X040852Y028307D01*
X040852Y028728D02*
X040431Y028728D01*
X040326Y027728D02*
X040852Y027728D01*
X040852Y027307D02*
X040326Y027307D01*
X040221Y027412D01*
X040221Y027622D01*
X040326Y027728D01*
X040852Y026728D02*
X040852Y026307D01*
X040852Y026517D02*
X040221Y026517D01*
X040326Y025728D02*
X040221Y025622D01*
X040221Y025412D01*
X040326Y025307D01*
X040536Y025412D02*
X040536Y025622D01*
X040431Y025728D01*
X040326Y025728D01*
X040536Y025412D02*
X040642Y025307D01*
X040747Y025307D01*
X040852Y025412D01*
X040852Y025622D01*
X040747Y025728D01*
X040747Y024728D02*
X040536Y024728D01*
X040431Y024622D01*
X040431Y024307D01*
X040221Y024307D02*
X040852Y024307D01*
X040852Y024622D01*
X040747Y024728D01*
X040431Y024517D02*
X040221Y024728D01*
X040221Y023728D02*
X040431Y023517D01*
X040221Y023412D02*
X040326Y023307D01*
X040747Y023307D01*
X040852Y023412D01*
X040852Y023622D01*
X040747Y023728D01*
X040326Y023728D01*
X040221Y023622D01*
X040221Y023412D01*
X040536Y022728D02*
X040431Y022622D01*
X040431Y022307D01*
X040221Y022307D02*
X040852Y022307D01*
X040852Y022622D01*
X040747Y022728D01*
X040536Y022728D01*
X040326Y021728D02*
X040747Y021728D01*
X040852Y021622D01*
X040852Y021412D01*
X040747Y021307D01*
X040326Y021307D01*
X040221Y021412D01*
X040221Y021622D01*
X040326Y021728D01*
X040221Y020728D02*
X040852Y020728D01*
X040852Y020307D02*
X040221Y020307D01*
X040221Y020728D02*
X040852Y020307D01*
X040852Y019728D02*
X040221Y019728D01*
X040221Y019307D02*
X040852Y019307D01*
X040642Y019517D01*
X040852Y019728D01*
X040221Y018728D02*
X040221Y018307D01*
X040852Y018307D01*
X040852Y017728D02*
X040431Y017307D01*
X040536Y017412D02*
X040221Y017728D01*
X040221Y017307D02*
X040852Y017307D01*
X040852Y016728D02*
X040852Y016517D01*
X040852Y016622D02*
X040326Y016622D01*
X040221Y016517D01*
X040221Y016412D01*
X040326Y016307D01*
X040221Y015732D02*
X040221Y015522D01*
X040221Y015627D02*
X040852Y015627D01*
X040852Y015522D02*
X040852Y015732D01*
X040852Y014728D02*
X040221Y014728D01*
X040536Y014728D02*
X040536Y014307D01*
X040221Y014307D02*
X040852Y014307D01*
X040747Y013728D02*
X040852Y013622D01*
X040852Y013412D01*
X040747Y013307D01*
X040326Y013307D01*
X040221Y013412D01*
X040221Y013622D01*
X040326Y013728D01*
X040536Y013728D01*
X040536Y013517D01*
X040852Y012728D02*
X040852Y012307D01*
X040221Y012307D01*
X040536Y012307D02*
X040536Y012517D01*
X040221Y011728D02*
X040221Y011307D01*
X040852Y011307D01*
X040852Y011728D01*
X040536Y011517D02*
X040536Y011307D01*
X040326Y010728D02*
X040747Y010728D01*
X040852Y010622D01*
X040852Y010307D01*
X040221Y010307D01*
X040221Y010622D01*
X040326Y010728D01*
X040326Y009728D02*
X040221Y009622D01*
X040221Y009412D01*
X040326Y009307D01*
X040747Y009307D01*
X040852Y009412D01*
X040852Y009622D01*
X040747Y009728D01*
X040747Y008728D02*
X040642Y008728D01*
X040536Y008622D01*
X040536Y008307D01*
X040221Y008307D02*
X040852Y008307D01*
X040852Y008622D01*
X040747Y008728D01*
X040536Y008622D02*
X040431Y008728D01*
X040326Y008728D01*
X040221Y008622D01*
X040221Y008307D01*
X041536Y006853D02*
X041536Y006432D01*
X042326Y006642D02*
X042747Y006642D01*
X042536Y006432D02*
X042536Y006853D01*
X037977Y006853D02*
X037977Y006432D01*
X031977Y006642D02*
X031767Y006432D01*
X032346Y031307D02*
X032346Y031728D01*
D16*
X005261Y026182D03*
D17*
X005276Y026182D03*
X005291Y026182D03*
X005306Y026182D03*
X005321Y026182D03*
X005336Y026182D03*
X005351Y026182D03*
X005366Y026182D03*
D18*
X005381Y025357D03*
D19*
X005381Y028394D03*
X005726Y028394D03*
D20*
X005411Y024592D03*
X005396Y024592D03*
D21*
X005891Y024734D03*
X006161Y024449D03*
X006881Y024719D03*
X006896Y024704D03*
X006896Y023714D03*
X006161Y023999D03*
X005876Y023714D03*
X005861Y023729D03*
X005891Y023699D03*
X005396Y026339D03*
X006176Y026639D03*
X007061Y026624D03*
X007061Y027509D03*
X006311Y027779D03*
D22*
X005396Y027007D03*
D23*
X005651Y026482D03*
X005636Y026332D03*
X005651Y026317D03*
X005666Y026317D03*
X006836Y026347D03*
X006611Y027592D03*
X005531Y027727D03*
X005396Y027682D03*
X005516Y027877D03*
X005531Y027877D03*
X006281Y024577D03*
X006281Y024127D03*
D24*
X006266Y024322D03*
X006251Y024337D03*
X006521Y024562D03*
X006611Y024892D03*
X006566Y024907D03*
X006656Y024877D03*
X006686Y024862D03*
X006701Y024862D03*
X006716Y024847D03*
X006746Y024832D03*
X006146Y024892D03*
X006116Y024877D03*
X006101Y024877D03*
X006086Y024862D03*
X006071Y024862D03*
X006056Y024847D03*
X006041Y024847D03*
X006026Y024832D03*
X005996Y024817D03*
X006521Y024112D03*
X006506Y023872D03*
X006266Y023872D03*
X006101Y023557D03*
X006086Y023557D03*
X006071Y023572D03*
X006056Y023572D03*
X006041Y023587D03*
X006011Y023602D03*
X006131Y023542D03*
X006176Y023527D03*
X006596Y023527D03*
X006641Y023542D03*
X006671Y023557D03*
X006686Y023557D03*
X006701Y023572D03*
X006731Y023587D03*
X007016Y026002D03*
X006911Y026347D03*
X006896Y026347D03*
X007016Y026692D03*
X007001Y026707D03*
X006236Y026722D03*
X006221Y026707D03*
X005561Y026332D03*
X005426Y026362D03*
X006206Y026017D03*
X006221Y026002D03*
X006236Y025987D03*
X006221Y027427D03*
X006446Y027622D03*
X006656Y027592D03*
X006776Y027622D03*
X007001Y027427D03*
X007016Y027442D03*
X006776Y027952D03*
X006761Y027967D03*
X006731Y027982D03*
X006491Y027982D03*
X006461Y027967D03*
X006446Y027952D03*
X006236Y028147D03*
X006221Y028132D03*
X005576Y027712D03*
X005411Y027877D03*
X005396Y027877D03*
X007001Y028147D03*
X007016Y028132D03*
D25*
X005426Y028619D03*
X005411Y028619D03*
X005396Y028619D03*
X005696Y025439D03*
D26*
X006011Y024824D03*
X005981Y024809D03*
X005966Y024794D03*
X006611Y024449D03*
X006791Y024794D03*
X006806Y024794D03*
X006821Y024779D03*
X006776Y024809D03*
X006761Y024824D03*
X006731Y024839D03*
X007166Y024209D03*
X006611Y023999D03*
X006251Y023879D03*
X006026Y023594D03*
X005996Y023609D03*
X005981Y023624D03*
X006716Y023579D03*
X006746Y023594D03*
X006761Y023609D03*
X006776Y023609D03*
X006791Y023624D03*
X006806Y023639D03*
X007031Y026024D03*
X006506Y026354D03*
X006491Y026354D03*
X006476Y026354D03*
X006461Y026354D03*
X006446Y026354D03*
X006431Y026354D03*
X006416Y026354D03*
X006401Y026354D03*
X006386Y026354D03*
X006371Y026354D03*
X006356Y026354D03*
X006341Y026354D03*
X006326Y026354D03*
X006311Y026354D03*
X006296Y026354D03*
X006281Y026354D03*
X006266Y026354D03*
X006251Y026354D03*
X006191Y026039D03*
X005411Y026354D03*
X006206Y026684D03*
X007031Y026669D03*
X007046Y026654D03*
X007031Y027464D03*
X006791Y027644D03*
X006431Y027629D03*
X006206Y027449D03*
X006431Y027944D03*
X006206Y028109D03*
X006191Y028094D03*
X005696Y027749D03*
X007031Y028109D03*
D27*
X005411Y026992D03*
D28*
X005621Y026482D03*
X006986Y026347D03*
X006596Y027592D03*
X005666Y027562D03*
X005486Y027727D03*
X005471Y027727D03*
X005456Y027727D03*
X005426Y027712D03*
X005411Y027697D03*
X005561Y027877D03*
X005576Y027877D03*
X006476Y024562D03*
X006476Y024112D03*
D29*
X005426Y023677D03*
D30*
X005426Y025132D03*
D31*
X005426Y026984D03*
X005441Y026984D03*
X005561Y026999D03*
D32*
X005711Y026474D03*
X005576Y026324D03*
X005516Y026369D03*
X005456Y026369D03*
X005441Y026369D03*
X006251Y026729D03*
X006266Y026744D03*
X006296Y026774D03*
X006296Y027359D03*
X006281Y027374D03*
X006266Y027389D03*
X006251Y027404D03*
X006236Y027419D03*
X006461Y027614D03*
X006476Y027599D03*
X006491Y027599D03*
X006506Y027599D03*
X006701Y027599D03*
X006716Y027599D03*
X006731Y027599D03*
X006761Y027614D03*
X006911Y027779D03*
X006746Y027974D03*
X006716Y027989D03*
X006701Y027989D03*
X006671Y028004D03*
X006656Y028004D03*
X006641Y028004D03*
X006626Y028004D03*
X006611Y028004D03*
X006596Y028004D03*
X006581Y028004D03*
X006566Y028004D03*
X006551Y028004D03*
X006536Y027989D03*
X006521Y027989D03*
X006506Y027989D03*
X006476Y027974D03*
X006266Y028184D03*
X006251Y028169D03*
X006281Y028199D03*
X006941Y028199D03*
X006956Y028184D03*
X006971Y028169D03*
X006986Y028154D03*
X006986Y027404D03*
X006971Y027389D03*
X006956Y027374D03*
X006956Y026759D03*
X006971Y026744D03*
X006986Y026729D03*
X006941Y026354D03*
X006926Y026354D03*
X006881Y026354D03*
X007001Y025994D03*
X006986Y025979D03*
X006971Y025964D03*
X006956Y025949D03*
X006941Y025934D03*
X006251Y025964D03*
X006341Y024929D03*
X006356Y024929D03*
X006371Y024929D03*
X006386Y024929D03*
X006401Y024929D03*
X006416Y024929D03*
X006431Y024929D03*
X006506Y024914D03*
X006521Y024914D03*
X006536Y024914D03*
X006551Y024914D03*
X006581Y024899D03*
X006596Y024899D03*
X006626Y024884D03*
X006641Y024884D03*
X006671Y024869D03*
X006251Y024914D03*
X006236Y024914D03*
X006221Y024914D03*
X006206Y024914D03*
X006191Y024899D03*
X006176Y024899D03*
X006161Y024899D03*
X006131Y024884D03*
X006251Y024584D03*
X006281Y024314D03*
X006296Y024299D03*
X006311Y024299D03*
X006461Y024299D03*
X006491Y024314D03*
X006506Y024329D03*
X006251Y024119D03*
X006281Y023849D03*
X006296Y023849D03*
X006311Y023849D03*
X006356Y023834D03*
X006371Y023834D03*
X006386Y023834D03*
X006401Y023834D03*
X006416Y023834D03*
X006461Y023849D03*
X006476Y023849D03*
X006491Y023864D03*
X006551Y023519D03*
X006566Y023519D03*
X006581Y023519D03*
X006611Y023534D03*
X006626Y023534D03*
X006656Y023549D03*
X006536Y023504D03*
X006521Y023504D03*
X006506Y023504D03*
X006491Y023504D03*
X006476Y023504D03*
X006461Y023504D03*
X006446Y023504D03*
X006386Y023489D03*
X006326Y023504D03*
X006311Y023504D03*
X006296Y023504D03*
X006281Y023504D03*
X006266Y023504D03*
X006251Y023504D03*
X006236Y023504D03*
X006221Y023519D03*
X006206Y023519D03*
X006191Y023519D03*
X006161Y023534D03*
X006146Y023534D03*
X006116Y023549D03*
X005681Y027749D03*
X005426Y027884D03*
D33*
X005441Y023602D03*
D34*
X005441Y025199D03*
D35*
X005696Y026294D03*
X005681Y026309D03*
X005636Y026474D03*
X005441Y027569D03*
X005501Y027734D03*
X005516Y027734D03*
X005546Y027884D03*
X005891Y029174D03*
X005906Y029174D03*
X005921Y029174D03*
X005936Y029174D03*
X005951Y029174D03*
X005966Y029174D03*
X005981Y029174D03*
X005996Y029174D03*
X006011Y029174D03*
X006026Y029174D03*
X006041Y029174D03*
X006056Y029174D03*
X006071Y029174D03*
X006086Y029174D03*
X006101Y029174D03*
X006116Y029174D03*
X006131Y029174D03*
X006146Y029174D03*
X006161Y029174D03*
X006176Y029174D03*
X006191Y029174D03*
X006206Y029174D03*
X006221Y029174D03*
X006236Y029174D03*
X006251Y029174D03*
X006266Y029174D03*
X006281Y029174D03*
X006296Y029174D03*
X006311Y029174D03*
X006326Y029174D03*
X006341Y029174D03*
X006356Y029174D03*
X006371Y029174D03*
X006386Y029174D03*
X006401Y029174D03*
X006416Y029174D03*
X006431Y029174D03*
X006446Y029174D03*
X006461Y029174D03*
X006476Y029174D03*
X006491Y029174D03*
X006506Y029174D03*
X006521Y029174D03*
X006536Y029174D03*
X006551Y029174D03*
X006566Y029174D03*
X006581Y029174D03*
X006596Y029174D03*
X006611Y029174D03*
X006626Y029174D03*
X006641Y029174D03*
X006656Y029174D03*
X006671Y029174D03*
X006686Y029174D03*
X006701Y029174D03*
X006716Y029174D03*
X006731Y029174D03*
X006746Y029174D03*
X006761Y029174D03*
X006776Y029174D03*
X006791Y029174D03*
X006806Y029174D03*
X006821Y029174D03*
X006836Y029174D03*
X006851Y029174D03*
X006866Y029174D03*
X006881Y029174D03*
X006896Y029174D03*
X006911Y029174D03*
X006926Y029174D03*
X006941Y029174D03*
X006956Y029174D03*
X006971Y029174D03*
X006986Y029174D03*
X007001Y029174D03*
X007016Y029174D03*
X007031Y029174D03*
X007046Y029174D03*
X007061Y029174D03*
X007076Y029174D03*
X007091Y029174D03*
X007106Y029174D03*
X007121Y029174D03*
X007136Y029174D03*
X007151Y029174D03*
X007166Y029174D03*
X007181Y029174D03*
X007196Y029174D03*
X007211Y029174D03*
X007226Y029174D03*
X007241Y029174D03*
X007256Y029174D03*
X007271Y029174D03*
X007286Y029174D03*
X007301Y029159D03*
X007301Y023204D03*
D36*
X006626Y023999D03*
X006296Y024119D03*
X006296Y024569D03*
X006626Y024449D03*
X005606Y026474D03*
X005441Y027719D03*
X005591Y027884D03*
X006296Y027779D03*
D37*
X006521Y027592D03*
X006641Y027592D03*
X006746Y027607D03*
X006896Y027337D03*
X006881Y027322D03*
X006851Y027307D03*
X006926Y027352D03*
X006941Y027367D03*
X006851Y026827D03*
X006881Y026812D03*
X006896Y026797D03*
X006911Y026797D03*
X006926Y026782D03*
X006941Y026767D03*
X006956Y026347D03*
X006866Y026347D03*
X006926Y025927D03*
X006911Y025912D03*
X006866Y025882D03*
X006836Y025867D03*
X006341Y025897D03*
X006326Y025912D03*
X006311Y025912D03*
X006296Y025927D03*
X006281Y025942D03*
X006266Y025957D03*
X005501Y026167D03*
X005486Y026167D03*
X005471Y026167D03*
X005546Y026347D03*
X005531Y026362D03*
X005501Y026377D03*
X005486Y026377D03*
X005471Y026377D03*
X006281Y026767D03*
X006311Y026782D03*
X006326Y026797D03*
X006371Y026827D03*
X006326Y027337D03*
X006311Y027352D03*
X005666Y027757D03*
X005651Y027757D03*
X005441Y027877D03*
X005486Y027562D03*
X006296Y028207D03*
X006311Y028222D03*
X006341Y028237D03*
X006686Y027997D03*
X006836Y028267D03*
X006866Y028252D03*
X006896Y028237D03*
X006911Y028222D03*
X006926Y028207D03*
X006491Y024922D03*
X006476Y024922D03*
X006461Y024922D03*
X006446Y024922D03*
X006326Y024922D03*
X006311Y024922D03*
X006296Y024922D03*
X006281Y024922D03*
X006266Y024922D03*
X006506Y024577D03*
X006476Y024307D03*
X006446Y024292D03*
X006431Y024292D03*
X006416Y024292D03*
X006401Y024292D03*
X006386Y024292D03*
X006371Y024292D03*
X006356Y024292D03*
X006341Y024292D03*
X006326Y024292D03*
X006506Y024127D03*
X006446Y023842D03*
X006431Y023842D03*
X006341Y023842D03*
X006326Y023842D03*
X006341Y023497D03*
X006356Y023497D03*
X006371Y023497D03*
X006401Y023497D03*
X006416Y023497D03*
X006431Y023497D03*
D38*
X005681Y025432D03*
X005456Y028612D03*
X005441Y028612D03*
D39*
X005456Y023564D03*
D40*
X005456Y025237D03*
D41*
X006371Y025874D03*
X006386Y025874D03*
X006401Y025859D03*
X006416Y025859D03*
X006446Y025844D03*
X006461Y025844D03*
X006491Y025829D03*
X006506Y025829D03*
X006356Y025889D03*
X006716Y025829D03*
X006731Y025829D03*
X006761Y025844D03*
X006776Y025844D03*
X006791Y025844D03*
X006806Y025859D03*
X006821Y025859D03*
X006851Y025874D03*
X006881Y025889D03*
X006896Y025904D03*
X007196Y026354D03*
X006866Y026819D03*
X006836Y026834D03*
X006806Y026849D03*
X006791Y026849D03*
X006761Y026864D03*
X006746Y026864D03*
X006671Y026879D03*
X006656Y026879D03*
X006641Y026879D03*
X006581Y026879D03*
X006566Y026879D03*
X006551Y026879D03*
X006476Y026864D03*
X006461Y026864D03*
X006431Y026849D03*
X006416Y026849D03*
X006401Y026834D03*
X006386Y026834D03*
X006356Y026819D03*
X006341Y026804D03*
X006461Y027269D03*
X006476Y027269D03*
X006431Y027284D03*
X006416Y027284D03*
X006401Y027299D03*
X006386Y027299D03*
X006371Y027314D03*
X006356Y027314D03*
X006341Y027329D03*
X006536Y027254D03*
X006551Y027254D03*
X006566Y027254D03*
X006671Y027254D03*
X006686Y027254D03*
X006746Y027269D03*
X006761Y027269D03*
X006791Y027284D03*
X006806Y027284D03*
X006821Y027299D03*
X006836Y027299D03*
X006866Y027314D03*
X006911Y027344D03*
X007196Y027779D03*
X006881Y028244D03*
X006851Y028259D03*
X006821Y028274D03*
X006806Y028274D03*
X006776Y028289D03*
X006761Y028289D03*
X006731Y028304D03*
X006716Y028304D03*
X006506Y028304D03*
X006491Y028304D03*
X006461Y028289D03*
X006446Y028289D03*
X006416Y028274D03*
X006401Y028274D03*
X006386Y028259D03*
X006371Y028259D03*
X006356Y028244D03*
X006326Y028229D03*
X005456Y027884D03*
X005561Y027719D03*
X005621Y027749D03*
X005636Y027749D03*
X005636Y027569D03*
X005621Y027569D03*
X005471Y027569D03*
X005456Y027569D03*
X005696Y026474D03*
X005591Y026339D03*
X005606Y026159D03*
X005621Y026159D03*
X005636Y026159D03*
X005516Y026159D03*
X005456Y026159D03*
X006266Y024584D03*
X006146Y024449D03*
X006266Y024134D03*
X006146Y023999D03*
D42*
X007031Y024217D03*
X005576Y027007D03*
X005486Y026977D03*
X005471Y026977D03*
X005456Y026977D03*
D43*
X005471Y023542D03*
D44*
X005471Y025259D03*
D45*
X005666Y025424D03*
X005501Y028604D03*
X005486Y028604D03*
X005471Y028604D03*
D46*
X005486Y023527D03*
D47*
X005486Y025282D03*
D48*
X005501Y023504D03*
D49*
X005501Y025297D03*
D50*
X005501Y027074D03*
D51*
X005516Y023489D03*
D52*
X005516Y025312D03*
D53*
X005516Y027059D03*
D54*
X005516Y028597D03*
X005531Y028597D03*
X005546Y028597D03*
X005651Y025417D03*
D55*
X005531Y023474D03*
D56*
X005531Y025327D03*
D57*
X005531Y026144D03*
X005591Y026144D03*
X005711Y026279D03*
X005621Y026324D03*
X005666Y026474D03*
X005546Y027734D03*
X006491Y024569D03*
X006491Y024119D03*
D58*
X005531Y027029D03*
D59*
X005546Y023459D03*
D60*
X005546Y025342D03*
D61*
X005546Y027014D03*
D62*
X005561Y023452D03*
D63*
X005561Y025357D03*
D64*
X005576Y028589D03*
X005561Y028589D03*
D65*
X005576Y023437D03*
D66*
X005576Y025364D03*
D67*
X005591Y023429D03*
D68*
X005591Y025379D03*
X005711Y028559D03*
D69*
X005606Y027007D03*
X005591Y027007D03*
X005726Y024217D03*
D70*
X005831Y023767D03*
X005846Y023752D03*
X005846Y024682D03*
X005861Y024697D03*
X005876Y024712D03*
X006911Y024697D03*
X006926Y024682D03*
X006926Y023752D03*
X006911Y023737D03*
X006161Y026092D03*
X006161Y026602D03*
X006161Y027532D03*
X006161Y028042D03*
X005591Y027682D03*
X006686Y027592D03*
D71*
X005621Y028582D03*
X005606Y028582D03*
X005591Y028582D03*
X005636Y025402D03*
D72*
X005606Y023414D03*
D73*
X005771Y023864D03*
X005606Y024209D03*
X005771Y024554D03*
X006191Y024449D03*
X006191Y023999D03*
X006581Y023999D03*
X007001Y023879D03*
X007181Y026354D03*
X006776Y026354D03*
X006521Y026354D03*
X006881Y027779D03*
X007181Y027779D03*
D74*
X005696Y028567D03*
X005681Y028567D03*
X005606Y025387D03*
D75*
X006431Y025852D03*
X006476Y025837D03*
X006521Y025822D03*
X006536Y025822D03*
X006551Y025822D03*
X006566Y025822D03*
X006581Y025822D03*
X006596Y025822D03*
X006611Y025822D03*
X006626Y025822D03*
X006641Y025822D03*
X006656Y025822D03*
X006671Y025822D03*
X006686Y025822D03*
X006701Y025822D03*
X006746Y025837D03*
X006851Y026347D03*
X006971Y026347D03*
X006821Y026842D03*
X006776Y026857D03*
X006731Y026872D03*
X006716Y026872D03*
X006701Y026872D03*
X006686Y026872D03*
X006626Y026887D03*
X006611Y026887D03*
X006596Y026887D03*
X006536Y026872D03*
X006521Y026872D03*
X006506Y026872D03*
X006491Y026872D03*
X006446Y026857D03*
X006491Y027262D03*
X006506Y027262D03*
X006521Y027262D03*
X006581Y027247D03*
X006596Y027247D03*
X006611Y027247D03*
X006626Y027247D03*
X006641Y027247D03*
X006656Y027247D03*
X006701Y027262D03*
X006716Y027262D03*
X006731Y027262D03*
X006776Y027277D03*
X006446Y027277D03*
X006626Y027592D03*
X006791Y028282D03*
X006746Y028297D03*
X006701Y028312D03*
X006686Y028312D03*
X006671Y028312D03*
X006656Y028312D03*
X006641Y028312D03*
X006626Y028312D03*
X006611Y028312D03*
X006596Y028312D03*
X006581Y028312D03*
X006566Y028312D03*
X006551Y028312D03*
X006536Y028312D03*
X006521Y028312D03*
X006476Y028297D03*
X006431Y028282D03*
X005651Y027562D03*
X005681Y026482D03*
X005606Y026332D03*
X005651Y026152D03*
D76*
X006791Y026354D03*
X005606Y027659D03*
X006326Y027779D03*
X005801Y024614D03*
X005786Y024584D03*
X006176Y024449D03*
X006971Y024614D03*
X006986Y024584D03*
X006176Y023999D03*
X005786Y023834D03*
D77*
X005621Y027877D03*
X005606Y027877D03*
D78*
X005621Y023407D03*
D79*
X005741Y023977D03*
X005621Y024217D03*
X005741Y024457D03*
X006401Y027787D03*
X006821Y027787D03*
D80*
X005666Y028574D03*
X005651Y028574D03*
X005636Y028574D03*
X005621Y025394D03*
D81*
X005621Y027007D03*
X005636Y027007D03*
X005651Y027022D03*
X005681Y027037D03*
X005696Y027052D03*
X005711Y027067D03*
D82*
X005636Y023399D03*
D83*
X005636Y024217D03*
D84*
X005651Y023392D03*
D85*
X005651Y024209D03*
X007121Y026354D03*
X007121Y027779D03*
D86*
X005666Y023384D03*
D87*
X005666Y024217D03*
D88*
X005666Y027029D03*
D89*
X005681Y023369D03*
D90*
X005681Y024217D03*
D91*
X005696Y023362D03*
X005711Y023362D03*
D92*
X005696Y024209D03*
X007076Y024209D03*
D93*
X007061Y024217D03*
X005711Y024217D03*
D94*
X005711Y025447D03*
D95*
X005951Y024787D03*
X005936Y024772D03*
X005921Y024757D03*
X005906Y024742D03*
X006521Y024352D03*
X006521Y023902D03*
X006821Y023647D03*
X006836Y023662D03*
X006851Y023677D03*
X006866Y023692D03*
X006881Y023707D03*
X005966Y023632D03*
X005951Y023647D03*
X005936Y023662D03*
X005921Y023677D03*
X005906Y023692D03*
X006866Y024742D03*
X006851Y024757D03*
X006836Y024772D03*
X007046Y026047D03*
X007061Y026077D03*
X006176Y026062D03*
X006191Y026662D03*
X006191Y027472D03*
X006176Y027502D03*
X006671Y027592D03*
X006791Y027937D03*
X007061Y028057D03*
X007046Y028087D03*
X007046Y027487D03*
X006176Y028072D03*
X005711Y027742D03*
D96*
X005726Y023354D03*
D97*
X005726Y026219D03*
D98*
X005741Y023347D03*
D99*
X005741Y027044D03*
D100*
X005756Y023339D03*
D101*
X005756Y023909D03*
X005756Y024524D03*
X006206Y024449D03*
X006566Y024449D03*
X006566Y023999D03*
X007016Y023909D03*
X007091Y026534D03*
X007091Y027599D03*
D102*
X005756Y027052D03*
D103*
X005771Y023332D03*
D104*
X005771Y027059D03*
D105*
X005786Y023324D03*
X005801Y023324D03*
D106*
X005786Y027067D03*
D107*
X006146Y027562D03*
X006041Y027787D03*
X006146Y028012D03*
X006896Y027787D03*
X006146Y026572D03*
X006041Y026347D03*
X005816Y024637D03*
X006596Y024457D03*
X006956Y024637D03*
X006971Y023812D03*
X006956Y023797D03*
X005801Y023812D03*
D108*
X005816Y027074D03*
X005801Y027074D03*
D109*
X005816Y023317D03*
D110*
X005816Y023789D03*
X006596Y023999D03*
X006941Y023774D03*
X006941Y024659D03*
X005831Y024659D03*
X006146Y026129D03*
X007076Y026114D03*
X007076Y026594D03*
X007076Y027539D03*
X007076Y028019D03*
D111*
X005846Y023309D03*
X005831Y023309D03*
D112*
X005846Y027082D03*
X005831Y027082D03*
D113*
X005861Y023302D03*
D114*
X005861Y027089D03*
D115*
X005876Y023294D03*
D116*
X005876Y027097D03*
D117*
X005891Y023189D03*
X005906Y023189D03*
X005921Y023189D03*
X005936Y023189D03*
X005951Y023189D03*
X005966Y023189D03*
X005981Y023189D03*
X005996Y023189D03*
X006011Y023189D03*
X006026Y023189D03*
X006041Y023189D03*
X006056Y023189D03*
X006071Y023189D03*
X006086Y023189D03*
X006101Y023189D03*
X006116Y023189D03*
X006131Y023189D03*
X006146Y023189D03*
X006161Y023189D03*
X006176Y023189D03*
X006191Y023189D03*
X006206Y023189D03*
X006221Y023189D03*
X006236Y023189D03*
X006251Y023189D03*
X006266Y023189D03*
X006281Y023189D03*
X006296Y023189D03*
X006311Y023189D03*
X006326Y023189D03*
X006341Y023189D03*
X006356Y023189D03*
X006371Y023189D03*
X006386Y023189D03*
X006401Y023189D03*
X006416Y023189D03*
X006431Y023189D03*
X006446Y023189D03*
X006461Y023189D03*
X006476Y023189D03*
X006491Y023189D03*
X006506Y023189D03*
X006521Y023189D03*
X006536Y023189D03*
X006551Y023189D03*
X006566Y023189D03*
X006581Y023189D03*
X006596Y023189D03*
X006611Y023189D03*
X006626Y023189D03*
X006641Y023189D03*
X006656Y023189D03*
X006671Y023189D03*
X006686Y023189D03*
X006701Y023189D03*
X006716Y023189D03*
X006731Y023189D03*
X006746Y023189D03*
X006761Y023189D03*
X006776Y023189D03*
X006791Y023189D03*
X006806Y023189D03*
X006821Y023189D03*
X006836Y023189D03*
X006851Y023189D03*
X006866Y023189D03*
X006881Y023189D03*
X006896Y023189D03*
X006911Y023189D03*
X006926Y023189D03*
X006941Y023189D03*
X006956Y023189D03*
X006971Y023189D03*
X006986Y023189D03*
X007001Y023189D03*
X007016Y023189D03*
X007031Y023189D03*
X007046Y023189D03*
X007061Y023189D03*
X007076Y023189D03*
X007091Y023189D03*
X007106Y023189D03*
X007121Y023189D03*
X007136Y023189D03*
X007151Y023189D03*
X007166Y023189D03*
X007181Y023189D03*
X007196Y023189D03*
X007211Y023189D03*
X007226Y023189D03*
X007241Y023189D03*
X007256Y023189D03*
X007271Y023189D03*
X007286Y023189D03*
D118*
X006551Y023999D03*
X006221Y023999D03*
X006221Y024449D03*
X006551Y024449D03*
X006056Y026354D03*
X006056Y027779D03*
X006356Y027779D03*
D119*
X006071Y027779D03*
X006071Y026354D03*
D120*
X006086Y026354D03*
X006086Y027779D03*
D121*
X006101Y026354D03*
D122*
X006101Y027787D03*
D123*
X006116Y027787D03*
X006116Y026347D03*
D124*
X006131Y026354D03*
X006131Y027779D03*
X007106Y024209D03*
D125*
X007016Y024517D03*
X006206Y023992D03*
X006866Y027787D03*
D126*
X006371Y027779D03*
X006236Y024449D03*
X006236Y023999D03*
X007151Y024209D03*
D127*
X007001Y024547D03*
X007091Y026167D03*
X006761Y026347D03*
X006746Y026347D03*
X006731Y026347D03*
X006716Y026347D03*
X006701Y026347D03*
X006686Y026347D03*
X006671Y026347D03*
X006656Y026347D03*
X006641Y026347D03*
X006626Y026347D03*
X006611Y026347D03*
X006596Y026347D03*
X006581Y026347D03*
X006566Y026347D03*
X006551Y026347D03*
X006536Y026347D03*
X006341Y027787D03*
X007091Y027967D03*
D128*
X006386Y027779D03*
D129*
X006416Y027787D03*
X006806Y027787D03*
D130*
X006851Y027787D03*
X006536Y024457D03*
X006536Y023992D03*
D131*
X006986Y023842D03*
X006581Y024457D03*
D132*
X007166Y026347D03*
X007166Y027787D03*
X006836Y027787D03*
D133*
X007046Y024209D03*
D134*
X007091Y024209D03*
D135*
X007106Y026347D03*
X007106Y027787D03*
D136*
X007121Y024217D03*
D137*
X007136Y024217D03*
D138*
X007136Y026354D03*
X007136Y027779D03*
D139*
X007151Y027779D03*
X007151Y026354D03*
D140*
X007316Y026182D03*
D141*
X007331Y026182D03*
D142*
X007346Y026182D03*
D143*
X007361Y026182D03*
D144*
X004266Y018012D02*
X004183Y018012D01*
X004170Y018011D01*
X004157Y018006D01*
X004146Y017999D01*
X004137Y017990D01*
X004130Y017979D01*
X004125Y017966D01*
X004124Y017953D01*
X004124Y015630D01*
X004125Y015617D01*
X004130Y015604D01*
X004137Y015593D01*
X004146Y015584D01*
X004157Y015577D01*
X004170Y015572D01*
X004183Y015571D01*
X004266Y015571D01*
X004253Y015572D01*
X004240Y015577D01*
X004229Y015584D01*
X004220Y015593D01*
X004213Y015604D01*
X004208Y015617D01*
X004207Y015630D01*
X004207Y017953D01*
X004208Y017966D01*
X004213Y017979D01*
X004220Y017990D01*
X004229Y017999D01*
X004240Y018006D01*
X004253Y018011D01*
X004266Y018012D01*
D145*
X015401Y024373D02*
X015401Y024558D01*
X015463Y024619D01*
X015524Y024558D01*
X015524Y024373D01*
X015648Y024373D02*
X015648Y024619D01*
X015586Y024619D01*
X015524Y024558D01*
X015769Y024558D02*
X015769Y024373D01*
X015893Y024373D02*
X015893Y024558D01*
X015831Y024619D01*
X015769Y024558D01*
X015893Y024558D02*
X015955Y024619D01*
X016016Y024619D01*
X016016Y024373D01*
X016138Y024434D02*
X016199Y024373D01*
X016323Y024373D01*
X016385Y024434D01*
X016506Y024434D02*
X016568Y024373D01*
X016691Y024373D01*
X016753Y024434D01*
X016753Y024558D01*
X016568Y024558D01*
X016506Y024496D01*
X016506Y024434D01*
X016385Y024558D02*
X016261Y024619D01*
X016199Y024619D01*
X016138Y024558D01*
X016138Y024434D01*
X016385Y024558D02*
X016385Y024743D01*
X016138Y024743D01*
X016200Y024884D02*
X016200Y025255D01*
X016015Y025255D01*
X015954Y025193D01*
X015954Y025070D01*
X016015Y025008D01*
X016200Y025008D01*
X016445Y025070D02*
X016569Y025070D01*
X016690Y025193D02*
X016690Y024946D01*
X016752Y024884D01*
X016875Y024884D01*
X016937Y024946D01*
X016937Y025193D01*
X016875Y025255D01*
X016752Y025255D01*
X016690Y025193D01*
X016569Y025255D02*
X016322Y025255D01*
X016569Y025255D02*
X016569Y024884D01*
X016690Y024884D02*
X016814Y025008D01*
X017058Y025131D02*
X017305Y024884D01*
X017244Y024743D02*
X017120Y024743D01*
X017058Y024681D01*
X017305Y024434D01*
X017244Y024373D01*
X017120Y024373D01*
X017058Y024434D01*
X017058Y024681D01*
X017244Y024743D02*
X017305Y024681D01*
X017305Y024434D01*
X016937Y024434D02*
X016937Y024373D01*
X016875Y024373D01*
X016875Y024434D01*
X016937Y024434D01*
X016753Y024558D02*
X016629Y024681D01*
X016506Y024743D01*
X017058Y024884D02*
X017305Y025131D01*
X014252Y027616D02*
X014178Y027542D01*
X014153Y027616D01*
X014129Y027641D01*
X014079Y027641D01*
X014029Y027591D01*
X014029Y027542D01*
X014079Y027492D01*
X014129Y027492D01*
X014252Y027616D02*
X014153Y027715D01*
X014071Y027747D02*
X014071Y027797D01*
X014022Y027846D01*
X013972Y027846D01*
X013948Y027822D01*
X013948Y027624D01*
X013848Y027723D01*
X011837Y029783D02*
X011862Y029808D01*
X011862Y029858D01*
X011812Y029907D01*
X011763Y029907D01*
X011738Y029883D01*
X011738Y029833D01*
X011788Y029783D01*
X011837Y029783D01*
X011862Y029858D02*
X011911Y029858D01*
X011936Y029883D01*
X011936Y029932D01*
X011887Y029982D01*
X011837Y029982D01*
X011812Y029957D01*
X011812Y029907D01*
X011681Y029940D02*
X011681Y030138D01*
X011582Y030039D01*
X011582Y029989D01*
X011631Y029940D01*
X011681Y029940D01*
X011780Y030039D01*
X011780Y030088D01*
X011731Y030138D01*
X011681Y030138D01*
M02*
