G75*
G70*
%OFA0B0*%
%FSLAX24Y24*%
%IPPOS*%
%LPD*%
%AMOC8*
5,1,8,0,0,1.08239X$1,22.5*
%
%ADD10C,0.0060*%
%ADD11C,0.0120*%
%ADD12C,0.0160*%
%ADD13C,0.0050*%
%ADD14C,0.0070*%
%ADD15R,0.0015X0.6015*%
%ADD16R,0.0015X0.6045*%
%ADD17R,0.0015X0.4395*%
%ADD18R,0.0015X0.1620*%
%ADD19R,0.0015X0.2865*%
%ADD20R,0.0015X0.0210*%
%ADD21R,0.0015X0.0975*%
%ADD22R,0.0015X0.0075*%
%ADD23R,0.0015X0.0165*%
%ADD24R,0.0015X0.1170*%
%ADD25R,0.0015X0.0180*%
%ADD26R,0.0015X0.0945*%
%ADD27R,0.0015X0.0045*%
%ADD28R,0.0015X0.1035*%
%ADD29R,0.0015X0.1785*%
%ADD30R,0.0015X0.0930*%
%ADD31R,0.0015X0.0150*%
%ADD32R,0.0015X0.0885*%
%ADD33R,0.0015X0.1650*%
%ADD34R,0.0015X0.0060*%
%ADD35R,0.0015X0.0030*%
%ADD36R,0.0015X0.0135*%
%ADD37R,0.0015X0.1185*%
%ADD38R,0.0015X0.0810*%
%ADD39R,0.0015X0.1575*%
%ADD40R,0.0015X0.0120*%
%ADD41R,0.0015X0.0915*%
%ADD42R,0.0015X0.0765*%
%ADD43R,0.0015X0.1530*%
%ADD44R,0.0015X0.1200*%
%ADD45R,0.0015X0.0735*%
%ADD46R,0.0015X0.1485*%
%ADD47R,0.0015X0.0690*%
%ADD48R,0.0015X0.1455*%
%ADD49R,0.0015X0.1110*%
%ADD50R,0.0015X0.0660*%
%ADD51R,0.0015X0.1425*%
%ADD52R,0.0015X0.1080*%
%ADD53R,0.0015X0.1215*%
%ADD54R,0.0015X0.0630*%
%ADD55R,0.0015X0.1395*%
%ADD56R,0.0015X0.0090*%
%ADD57R,0.0015X0.1020*%
%ADD58R,0.0015X0.0600*%
%ADD59R,0.0015X0.1365*%
%ADD60R,0.0015X0.0960*%
%ADD61R,0.0015X0.0585*%
%ADD62R,0.0015X0.1335*%
%ADD63R,0.0015X0.1230*%
%ADD64R,0.0015X0.0555*%
%ADD65R,0.0015X0.1320*%
%ADD66R,0.0015X0.0540*%
%ADD67R,0.0015X0.1290*%
%ADD68R,0.0015X0.0885*%
%ADD69R,0.0015X0.0225*%
%ADD70R,0.0015X0.1245*%
%ADD71R,0.0015X0.0510*%
%ADD72R,0.0015X0.0300*%
%ADD73R,0.0015X0.1275*%
%ADD74R,0.0015X0.0105*%
%ADD75R,0.0015X0.0270*%
%ADD76R,0.0015X0.0015*%
%ADD77R,0.0015X0.0495*%
%ADD78R,0.0015X0.0435*%
%ADD79R,0.0015X0.1260*%
%ADD80R,0.0015X0.0855*%
%ADD81R,0.0015X0.0480*%
%ADD82R,0.0015X0.0525*%
%ADD83R,0.0015X0.0465*%
%ADD84R,0.0015X0.0600*%
%ADD85R,0.0015X0.0450*%
%ADD86R,0.0015X0.0675*%
%ADD87R,0.0015X0.0840*%
%ADD88R,0.0015X0.0420*%
%ADD89R,0.0015X0.0735*%
%ADD90R,0.0015X0.0405*%
%ADD91R,0.0015X0.0780*%
%ADD92R,0.0015X0.0825*%
%ADD93R,0.0015X0.1155*%
%ADD94R,0.0015X0.0195*%
%ADD95R,0.0015X0.0390*%
%ADD96R,0.0015X0.2670*%
%ADD97R,0.0015X0.0375*%
%ADD98R,0.0015X0.4320*%
%ADD99R,0.0015X0.0360*%
%ADD100R,0.0015X0.0330*%
%ADD101R,0.0015X0.4305*%
%ADD102R,0.0015X0.0345*%
%ADD103R,0.0015X0.4290*%
%ADD104R,0.0015X0.0330*%
%ADD105R,0.0015X0.4275*%
%ADD106R,0.0015X0.0255*%
%ADD107R,0.0015X0.4260*%
%ADD108R,0.0015X0.0315*%
%ADD109R,0.0015X0.0240*%
%ADD110R,0.0015X0.0300*%
%ADD111R,0.0015X0.4245*%
%ADD112R,0.0015X0.0285*%
%ADD113R,0.0015X0.4230*%
%ADD114R,0.0015X0.0270*%
%ADD115R,0.0015X0.4215*%
%ADD116R,0.0015X0.0060*%
%ADD117R,0.0015X0.0360*%
%ADD118R,0.0015X0.0450*%
%ADD119R,0.0015X0.0510*%
%ADD120R,0.0015X0.0570*%
%ADD121R,0.0015X0.0555*%
%ADD122R,0.0015X0.0615*%
%ADD123R,0.0015X0.0660*%
%ADD124R,0.0015X0.0345*%
%ADD125R,0.0015X0.0390*%
%ADD126R,0.0015X0.0315*%
%ADD127R,0.0015X0.0420*%
%ADD128R,0.0015X0.0465*%
%ADD129R,0.0015X0.0375*%
%ADD130R,0.0015X0.0285*%
%ADD131R,0.0015X0.0405*%
%ADD132R,0.0015X0.0870*%
%ADD133R,0.0015X0.0720*%
%ADD134R,0.0015X0.0645*%
%ADD135R,0.0015X0.0585*%
%ADD136R,0.0015X0.0495*%
%ADD137R,0.0015X0.0540*%
%ADD138R,0.0015X0.0480*%
%ADD139R,0.0015X0.6015*%
%ADD140R,0.0015X0.5985*%
%ADD141R,0.0015X0.5955*%
%ADD142R,0.0015X0.5895*%
%ADD143C,0.0040*%
%ADD144C,0.0030*%
D10*
X005898Y010197D02*
X006231Y010197D01*
X006064Y010197D02*
X006064Y010697D01*
X006231Y010530D01*
X006898Y010530D02*
X006898Y010614D01*
X006981Y010697D01*
X007148Y010697D01*
X007231Y010614D01*
X006898Y010530D02*
X007231Y010197D01*
X006898Y010197D01*
X007898Y010280D02*
X007981Y010197D01*
X008148Y010197D01*
X008231Y010280D01*
X008064Y010447D02*
X007981Y010447D01*
X007898Y010363D01*
X007898Y010280D01*
X007981Y010447D02*
X007898Y010530D01*
X007898Y010614D01*
X007981Y010697D01*
X008148Y010697D01*
X008231Y010614D01*
X008773Y010447D02*
X009106Y010447D01*
X008856Y010697D01*
X008856Y010197D01*
X005798Y012940D02*
X005561Y012940D01*
X004853Y012940D02*
X004361Y012940D01*
X004183Y012838D01*
X004124Y012940D01*
X004306Y013045D01*
X004361Y013058D02*
X004361Y012940D01*
X004361Y013058D02*
X004342Y013057D01*
X004324Y013052D01*
X004306Y013045D01*
X004361Y013058D02*
X004361Y013117D01*
X004359Y013132D01*
X004355Y013147D01*
X004348Y013161D01*
X004338Y013173D01*
X004326Y013183D01*
X004312Y013190D01*
X004297Y013194D01*
X004282Y013196D01*
X004266Y013196D01*
X006329Y013570D02*
X006329Y013728D01*
X006329Y015106D02*
X006329Y015263D01*
X005798Y015893D02*
X005561Y015893D01*
X004853Y015893D02*
X004361Y015893D01*
X004302Y015791D02*
X004321Y015782D01*
X004341Y015777D01*
X004361Y015775D01*
X004361Y015716D01*
X004361Y015775D02*
X004361Y015893D01*
X004183Y015995D01*
X004124Y015893D01*
X004302Y015791D01*
X004361Y015716D02*
X004359Y015701D01*
X004355Y015686D01*
X004348Y015672D01*
X004338Y015660D01*
X004326Y015650D01*
X004312Y015643D01*
X004297Y015639D01*
X004282Y015637D01*
X004266Y015637D01*
X012843Y021330D02*
X012916Y021257D01*
X012990Y021257D01*
X013063Y021330D01*
X013063Y021477D01*
X012990Y021550D01*
X012916Y021550D01*
X012843Y021477D01*
X012843Y021330D01*
X013063Y021330D02*
X013136Y021257D01*
X013210Y021257D01*
X013283Y021330D01*
X013283Y021477D01*
X013210Y021550D01*
X013136Y021550D01*
X013063Y021477D01*
X012916Y021717D02*
X013210Y022010D01*
X012916Y022010D01*
X012843Y021937D01*
X012843Y021790D01*
X012916Y021717D01*
X013210Y021717D01*
X013283Y021790D01*
X013283Y021937D01*
X013210Y022010D01*
X013136Y022177D02*
X012696Y022177D01*
X012843Y022177D02*
X012843Y022397D01*
X012916Y022471D01*
X013063Y022471D01*
X013136Y022397D01*
X013136Y022177D01*
X014019Y022140D02*
X014460Y022140D01*
X014460Y022360D01*
X014386Y022433D01*
X014239Y022433D01*
X014166Y022360D01*
X014166Y022140D01*
X014166Y021973D02*
X014166Y021679D01*
X014460Y021973D01*
X014533Y021973D01*
X014606Y021899D01*
X014606Y021753D01*
X014533Y021679D01*
X014606Y021513D02*
X014606Y021219D01*
X014386Y021219D01*
X014460Y021366D01*
X014460Y021439D01*
X014386Y021513D01*
X014239Y021513D01*
X014166Y021439D01*
X014166Y021292D01*
X014239Y021219D01*
X011817Y023510D02*
X011376Y023510D01*
X011596Y023510D02*
X011596Y023657D01*
X011817Y023510D02*
X011817Y023804D01*
X011670Y023971D02*
X011450Y023971D01*
X011376Y024044D01*
X011376Y024264D01*
X011670Y024264D01*
X011817Y024431D02*
X011817Y024504D01*
X011376Y024504D01*
X011376Y024431D02*
X011376Y024578D01*
X011376Y024811D02*
X011743Y024811D01*
X011817Y024885D01*
X011670Y025045D02*
X011670Y025118D01*
X011376Y025118D01*
X011376Y025045D02*
X011376Y025192D01*
X011376Y025352D02*
X011376Y025499D01*
X011376Y025425D02*
X011817Y025425D01*
X011817Y025352D01*
X011817Y025118D02*
X011890Y025118D01*
X011596Y024885D02*
X011596Y024738D01*
X010938Y024330D02*
X010938Y024184D01*
X010864Y024110D01*
X010791Y024110D01*
X010717Y024184D01*
X010717Y024330D01*
X010644Y024404D01*
X010571Y024404D01*
X010497Y024330D01*
X010497Y024184D01*
X010571Y024110D01*
X010864Y024404D02*
X010938Y024330D01*
X010717Y024571D02*
X010791Y024644D01*
X010791Y024791D01*
X010717Y024864D01*
X010644Y024864D01*
X010644Y024571D01*
X010571Y024571D02*
X010717Y024571D01*
X010571Y024571D02*
X010497Y024644D01*
X010497Y024791D01*
X010571Y025031D02*
X010497Y025104D01*
X010497Y025251D01*
X010644Y025324D02*
X010644Y025031D01*
X010571Y025031D02*
X010717Y025031D01*
X010791Y025104D01*
X010791Y025251D01*
X010717Y025324D01*
X010644Y025324D01*
X010644Y025491D02*
X010644Y025785D01*
X010717Y025785D01*
X010791Y025711D01*
X010791Y025565D01*
X010717Y025491D01*
X010571Y025491D01*
X010497Y025565D01*
X010497Y025711D01*
X010571Y025952D02*
X010497Y026025D01*
X010497Y026245D01*
X010938Y026245D01*
X010791Y026245D02*
X010791Y026025D01*
X010717Y025952D01*
X010571Y025952D01*
X010281Y026042D02*
X009840Y026042D01*
X009840Y025822D01*
X009914Y025749D01*
X010060Y025749D01*
X010134Y025822D01*
X010134Y026042D01*
X010060Y026209D02*
X010134Y026283D01*
X010134Y026503D01*
X009987Y026429D02*
X009987Y026283D01*
X010060Y026209D01*
X009840Y026209D02*
X009840Y026429D01*
X009914Y026503D01*
X009987Y026429D01*
X010134Y026670D02*
X010134Y026816D01*
X010207Y026743D02*
X009914Y026743D01*
X009840Y026816D01*
X009914Y026976D02*
X009840Y027050D01*
X009840Y027270D01*
X010134Y027270D01*
X010060Y027437D02*
X009914Y027437D01*
X009840Y027510D01*
X009840Y027730D01*
X010281Y027730D01*
X010134Y027730D02*
X010134Y027510D01*
X010060Y027437D01*
X010497Y027479D02*
X010571Y027406D01*
X010864Y027406D01*
X010791Y027333D02*
X010791Y027479D01*
X010791Y027640D02*
X010571Y027640D01*
X010497Y027713D01*
X010497Y027933D01*
X010791Y027933D01*
X010717Y028100D02*
X010791Y028173D01*
X010791Y028393D01*
X010938Y028393D02*
X010497Y028393D01*
X010497Y028173D01*
X010571Y028100D01*
X010717Y028100D01*
X010354Y027971D02*
X010281Y027971D01*
X010134Y027971D02*
X009840Y027971D01*
X009840Y028044D02*
X009840Y027897D01*
X010134Y027897D02*
X010134Y027971D01*
X010060Y028204D02*
X009914Y028204D01*
X009840Y028277D01*
X009840Y028424D01*
X009914Y028498D01*
X010060Y028498D01*
X010134Y028424D01*
X010134Y028277D01*
X010060Y028204D01*
X009914Y028664D02*
X009914Y028738D01*
X009840Y028738D01*
X009840Y028664D01*
X009914Y028664D01*
X009914Y028895D02*
X009840Y028968D01*
X009840Y029188D01*
X009914Y029355D02*
X009840Y029428D01*
X009840Y029575D01*
X009914Y029648D01*
X010060Y029648D01*
X010134Y029575D01*
X010134Y029428D01*
X010060Y029355D01*
X009914Y029355D01*
X010134Y029188D02*
X010134Y028968D01*
X010060Y028895D01*
X009914Y028895D01*
X010497Y028941D02*
X010571Y028867D01*
X010717Y028867D01*
X010791Y028941D01*
X010791Y029087D01*
X010717Y029161D01*
X010571Y029161D01*
X010497Y029087D01*
X010497Y028941D01*
X010497Y028707D02*
X010497Y028560D01*
X010497Y028634D02*
X010791Y028634D01*
X010791Y028560D01*
X010938Y028634D02*
X011011Y028634D01*
X011230Y028721D02*
X011230Y028794D01*
X011303Y028868D01*
X011670Y028868D01*
X011670Y029035D02*
X011596Y029035D01*
X011596Y029108D01*
X011670Y029108D01*
X011670Y029035D01*
X011450Y029035D02*
X011376Y029035D01*
X011376Y029108D01*
X011450Y029108D01*
X011450Y029035D01*
X011376Y028868D02*
X011376Y028648D01*
X011450Y028574D01*
X011670Y028574D01*
X011596Y028407D02*
X011670Y028334D01*
X011670Y028114D01*
X011817Y028114D02*
X011376Y028114D01*
X011376Y028334D01*
X011450Y028407D01*
X011596Y028407D01*
X011670Y027493D02*
X011670Y027347D01*
X011743Y027420D02*
X011450Y027420D01*
X011376Y027493D01*
X011376Y027180D02*
X011596Y027180D01*
X011670Y027106D01*
X011670Y026886D01*
X011376Y026886D01*
X011523Y026719D02*
X011523Y026426D01*
X011450Y026426D02*
X011596Y026426D01*
X011670Y026499D01*
X011670Y026646D01*
X011596Y026719D01*
X011523Y026719D01*
X011376Y026646D02*
X011376Y026499D01*
X011450Y026426D01*
X011376Y026259D02*
X011596Y026259D01*
X011670Y026186D01*
X011596Y026112D01*
X011376Y026112D01*
X011376Y025966D02*
X011670Y025966D01*
X011670Y026039D01*
X011596Y026112D01*
X011376Y025805D02*
X011376Y025659D01*
X011376Y025732D02*
X011817Y025732D01*
X011817Y025659D01*
X010864Y026872D02*
X010791Y026872D01*
X010717Y026946D01*
X010717Y027092D01*
X010644Y027166D01*
X010571Y027166D01*
X010497Y027092D01*
X010497Y026946D01*
X010571Y026872D01*
X010864Y026872D02*
X010938Y026946D01*
X010938Y027092D01*
X010864Y027166D01*
X010134Y026976D02*
X009914Y026976D01*
X009987Y025582D02*
X009987Y025288D01*
X010060Y025288D02*
X010134Y025362D01*
X010134Y025509D01*
X010060Y025582D01*
X009987Y025582D01*
X009840Y025509D02*
X009840Y025362D01*
X009914Y025288D01*
X010060Y025288D01*
X010060Y025122D02*
X009987Y025122D01*
X009987Y024828D01*
X010060Y024828D02*
X010134Y024901D01*
X010134Y025048D01*
X010060Y025122D01*
X009840Y025048D02*
X009840Y024901D01*
X009914Y024828D01*
X010060Y024828D01*
X010060Y024661D02*
X009987Y024661D01*
X009987Y024368D01*
X010060Y024368D02*
X010134Y024441D01*
X010134Y024588D01*
X010060Y024661D01*
X009840Y024588D02*
X009840Y024441D01*
X009914Y024368D01*
X010060Y024368D01*
X010134Y024201D02*
X010134Y023981D01*
X010060Y023907D01*
X009987Y023981D01*
X009987Y024128D01*
X009914Y024201D01*
X009840Y024128D01*
X009840Y023907D01*
X009840Y023751D02*
X009840Y023677D01*
X009914Y023677D01*
X009914Y023751D01*
X009840Y023751D01*
X009914Y023510D02*
X010134Y023510D01*
X009914Y023510D02*
X009840Y023437D01*
X009914Y023364D01*
X009840Y023290D01*
X009914Y023217D01*
X010134Y023217D01*
X010134Y023050D02*
X009914Y023050D01*
X009840Y022977D01*
X009914Y022903D01*
X009840Y022830D01*
X009914Y022757D01*
X010134Y022757D01*
X010134Y022590D02*
X009914Y022590D01*
X009840Y022516D01*
X009914Y022443D01*
X009840Y022370D01*
X009914Y022296D01*
X010134Y022296D01*
X019253Y027268D02*
X019326Y027194D01*
X019546Y027194D01*
X019546Y027047D02*
X019546Y027488D01*
X019326Y027488D01*
X019253Y027414D01*
X019253Y027268D01*
X019713Y027194D02*
X020007Y027194D01*
X019713Y027488D01*
X019713Y027561D01*
X019786Y027635D01*
X019933Y027635D01*
X020007Y027561D01*
X020173Y027635D02*
X020467Y027635D01*
X020467Y027414D01*
X020320Y027488D01*
X020247Y027488D01*
X020173Y027414D01*
X020173Y027268D01*
X020247Y027194D01*
X020394Y027194D01*
X020467Y027268D01*
X019535Y028812D02*
X019535Y029252D01*
X019315Y029252D01*
X019242Y029179D01*
X019242Y029032D01*
X019315Y028959D01*
X019535Y028959D01*
X019702Y029032D02*
X019776Y028959D01*
X019922Y028959D01*
X019996Y029032D01*
X019702Y029326D01*
X019702Y029032D01*
X019702Y029326D02*
X019776Y029399D01*
X019922Y029399D01*
X019996Y029326D01*
X019996Y029032D01*
X020163Y029032D02*
X020236Y028959D01*
X020383Y028959D01*
X020456Y029032D01*
X020456Y029105D01*
X020383Y029179D01*
X020236Y029179D01*
X020163Y029105D01*
X020163Y029032D01*
X020236Y029179D02*
X020163Y029252D01*
X020163Y029326D01*
X020236Y029399D01*
X020383Y029399D01*
X020456Y029326D01*
X020456Y029252D01*
X020383Y029179D01*
X017423Y030451D02*
X017350Y030377D01*
X017203Y030377D01*
X017130Y030451D01*
X016963Y030451D02*
X016890Y030377D01*
X016743Y030377D01*
X016670Y030451D01*
X016503Y030597D02*
X016209Y030597D01*
X016042Y030597D02*
X015822Y030597D01*
X015749Y030524D01*
X015749Y030451D01*
X015822Y030377D01*
X016042Y030377D01*
X016042Y030818D01*
X015822Y030818D01*
X015749Y030744D01*
X015749Y030671D01*
X015822Y030597D01*
X015582Y030744D02*
X015582Y030818D01*
X015582Y030744D02*
X015435Y030597D01*
X015435Y030377D01*
X015435Y030597D02*
X015288Y030744D01*
X015288Y030818D01*
X015122Y030597D02*
X014828Y030597D01*
X014661Y030671D02*
X014588Y030597D01*
X014441Y030597D01*
X014368Y030524D01*
X014368Y030451D01*
X014441Y030377D01*
X014588Y030377D01*
X014661Y030451D01*
X014661Y030671D02*
X014661Y030744D01*
X014588Y030818D01*
X014441Y030818D01*
X014368Y030744D01*
X014201Y030671D02*
X014054Y030818D01*
X013907Y030671D01*
X013907Y030377D01*
X013907Y030597D02*
X014201Y030597D01*
X014201Y030671D02*
X014201Y030377D01*
X014245Y031211D02*
X014245Y031431D01*
X014318Y031505D01*
X014392Y031431D01*
X014392Y031211D01*
X014539Y031211D02*
X014539Y031505D01*
X014465Y031505D01*
X014392Y031431D01*
X014705Y031431D02*
X014705Y031211D01*
X014852Y031211D02*
X014852Y031431D01*
X014779Y031505D01*
X014705Y031431D01*
X014852Y031431D02*
X014926Y031505D01*
X014999Y031505D01*
X014999Y031211D01*
X015166Y031285D02*
X015239Y031211D01*
X015386Y031211D01*
X015459Y031285D01*
X015459Y031431D02*
X015313Y031505D01*
X015239Y031505D01*
X015166Y031431D01*
X015166Y031285D01*
X015459Y031431D02*
X015459Y031652D01*
X015166Y031652D01*
X015626Y031652D02*
X015773Y031578D01*
X015920Y031431D01*
X015700Y031431D01*
X015626Y031358D01*
X015626Y031285D01*
X015700Y031211D01*
X015846Y031211D01*
X015920Y031285D01*
X015920Y031431D01*
X016076Y031285D02*
X016076Y031211D01*
X016150Y031211D01*
X016150Y031285D01*
X016076Y031285D01*
X016317Y031285D02*
X016390Y031211D01*
X016537Y031211D01*
X016610Y031285D01*
X016317Y031578D01*
X016317Y031285D01*
X016317Y031578D02*
X016390Y031652D01*
X016537Y031652D01*
X016610Y031578D01*
X016610Y031285D01*
X016743Y030818D02*
X016890Y030818D01*
X016963Y030744D01*
X016963Y030451D01*
X017130Y030744D02*
X017203Y030818D01*
X017350Y030818D01*
X017423Y030744D01*
X017423Y030451D01*
X016743Y030818D02*
X016670Y030744D01*
X017311Y031358D02*
X017531Y031358D01*
X017531Y031211D02*
X017531Y031652D01*
X017311Y031652D01*
X017237Y031578D01*
X017237Y031431D01*
X017311Y031358D01*
X017698Y031652D02*
X017991Y031652D01*
X017991Y031211D01*
X018158Y031211D02*
X018305Y031358D01*
X018378Y031211D02*
X018452Y031285D01*
X018452Y031578D01*
X018378Y031652D01*
X018231Y031652D01*
X018158Y031578D01*
X018158Y031285D01*
X018231Y031211D01*
X018378Y031211D01*
X018618Y031211D02*
X018912Y031505D01*
X018912Y031211D02*
X018618Y031505D01*
X017991Y031431D02*
X017844Y031431D01*
X013618Y031505D02*
X013471Y031211D01*
X013324Y031505D01*
X013158Y031505D02*
X013011Y031652D01*
X013011Y031211D01*
X013158Y031211D02*
X012864Y031211D01*
X012697Y031211D02*
X012624Y031211D01*
X012624Y031285D01*
X012697Y031285D01*
X012697Y031211D01*
X012467Y031211D02*
X012173Y031211D01*
X012320Y031211D02*
X012320Y031652D01*
X012467Y031505D01*
X010134Y030035D02*
X010060Y029962D01*
X009840Y029962D01*
X009840Y029815D02*
X010134Y029815D01*
X010134Y029889D01*
X010060Y029962D01*
X010134Y030035D02*
X010060Y030109D01*
X009840Y030109D01*
X020496Y019222D02*
X020496Y018928D01*
X020496Y019075D02*
X020936Y019075D01*
X020790Y018928D01*
X013795Y015935D02*
X013797Y015947D01*
X013802Y015958D01*
X013811Y015967D01*
X013822Y015972D01*
X013834Y015974D01*
X013846Y015972D01*
X013857Y015967D01*
X013866Y015958D01*
X013871Y015947D01*
X013873Y015935D01*
X013871Y015923D01*
X013866Y015912D01*
X013857Y015903D01*
X013846Y015898D01*
X013834Y015896D01*
X013822Y015898D01*
X013811Y015903D01*
X013802Y015912D01*
X013797Y015923D01*
X013795Y015935D01*
X013795Y014185D02*
X013797Y014197D01*
X013802Y014208D01*
X013811Y014217D01*
X013822Y014222D01*
X013834Y014224D01*
X013846Y014222D01*
X013857Y014217D01*
X013866Y014208D01*
X013871Y014197D01*
X013873Y014185D01*
X013871Y014173D01*
X013866Y014162D01*
X013857Y014153D01*
X013846Y014148D01*
X013834Y014146D01*
X013822Y014148D01*
X013811Y014153D01*
X013802Y014162D01*
X013797Y014173D01*
X013795Y014185D01*
X013795Y012435D02*
X013797Y012447D01*
X013802Y012458D01*
X013811Y012467D01*
X013822Y012472D01*
X013834Y012474D01*
X013846Y012472D01*
X013857Y012467D01*
X013866Y012458D01*
X013871Y012447D01*
X013873Y012435D01*
X013871Y012423D01*
X013866Y012412D01*
X013857Y012403D01*
X013846Y012398D01*
X013834Y012396D01*
X013822Y012398D01*
X013811Y012403D01*
X013802Y012412D01*
X013797Y012423D01*
X013795Y012435D01*
X017523Y011947D02*
X017856Y011947D01*
X017689Y011947D02*
X017689Y012447D01*
X017856Y012280D01*
X018523Y012280D02*
X018523Y012364D01*
X018606Y012447D01*
X018773Y012447D01*
X018856Y012364D01*
X018523Y012280D02*
X018856Y011947D01*
X018523Y011947D01*
X036784Y003840D02*
X037077Y003840D01*
X036930Y003840D02*
X036930Y004281D01*
X037077Y004134D01*
X037244Y004134D02*
X037391Y003840D01*
X037538Y004134D01*
X037704Y003767D02*
X037998Y003767D01*
X038165Y003914D02*
X038165Y004207D01*
X038458Y003914D01*
X038385Y003840D01*
X038238Y003840D01*
X038165Y003914D01*
X038458Y003914D02*
X038458Y004207D01*
X038385Y004281D01*
X038238Y004281D01*
X038165Y004207D01*
X038625Y004207D02*
X038625Y004134D01*
X038698Y004061D01*
X038845Y004061D01*
X038919Y004134D01*
X038919Y004207D01*
X038845Y004281D01*
X038698Y004281D01*
X038625Y004207D01*
X038698Y004061D02*
X038625Y003987D01*
X038625Y003914D01*
X038698Y003840D01*
X038845Y003840D01*
X038919Y003914D01*
X038919Y003987D01*
X038845Y004061D01*
X039085Y004207D02*
X039085Y003914D01*
X039159Y003840D01*
X039306Y003840D01*
X039379Y003914D01*
X039085Y004207D01*
X039159Y004281D01*
X039306Y004281D01*
X039379Y004207D01*
X039379Y003914D01*
X039546Y003914D02*
X039619Y003840D01*
X039766Y003840D01*
X039839Y003914D01*
X039546Y004207D01*
X039546Y003914D01*
X039839Y003914D02*
X039839Y004207D01*
X039766Y004281D01*
X039619Y004281D01*
X039546Y004207D01*
X040006Y003840D02*
X040300Y003840D01*
X040153Y003840D02*
X040153Y004281D01*
X040300Y004134D01*
X040466Y004207D02*
X040466Y004061D01*
X040540Y003987D01*
X040760Y003987D01*
X040760Y003840D02*
X040760Y004281D01*
X040540Y004281D01*
X040466Y004207D01*
X040927Y004207D02*
X041000Y004281D01*
X041220Y004281D01*
X041220Y003840D01*
X041000Y003840D01*
X040927Y003914D01*
X040927Y004207D01*
D11*
X017511Y003542D02*
X007511Y003542D01*
X007511Y005042D01*
X007636Y005417D02*
X007636Y006417D01*
X008636Y006417D01*
X008636Y005417D01*
X007636Y005417D01*
X007636Y004417D01*
X008636Y004417D01*
X008636Y005417D01*
X008886Y005917D02*
X009386Y005917D01*
X009136Y005667D02*
X009136Y006167D01*
X010063Y005917D02*
X010563Y005917D01*
X010563Y006167D01*
X011563Y006167D01*
X011563Y005917D01*
X012063Y005917D01*
X011563Y005917D02*
X011563Y005667D01*
X010563Y005667D01*
X010563Y005917D01*
X010313Y006622D02*
X010313Y007622D01*
X010313Y007646D02*
X010313Y008646D01*
X010313Y008670D02*
X010313Y009670D01*
X010313Y009693D02*
X010313Y010693D01*
X010063Y010693D02*
X010063Y009693D01*
X010063Y009670D02*
X010063Y008670D01*
X010063Y008646D02*
X010063Y007646D01*
X010063Y007622D02*
X010063Y006622D01*
X011563Y006622D02*
X011563Y007622D01*
X011563Y007646D02*
X011563Y008646D01*
X011563Y008670D02*
X011563Y009670D01*
X011563Y009693D02*
X011563Y010693D01*
X011636Y011042D02*
X011636Y018417D01*
X016636Y018417D01*
X023261Y018417D01*
X023261Y034792D01*
X027136Y034792D01*
X041136Y034792D01*
X041136Y033292D01*
X040136Y033667D02*
X039136Y033667D01*
X038636Y033917D01*
X038636Y033667D01*
X038136Y033667D01*
X038136Y033417D01*
X037136Y033417D01*
X037136Y033667D01*
X036636Y033667D01*
X037136Y033667D02*
X037136Y033917D01*
X038136Y033917D01*
X038136Y033667D01*
X038636Y033667D02*
X038636Y033417D01*
X039136Y033667D01*
X039136Y033417D01*
X039136Y033667D02*
X039136Y033917D01*
X039011Y034042D02*
X039136Y034292D01*
X038886Y034292D02*
X038761Y034042D01*
X038886Y033167D02*
X038761Y032917D01*
X038636Y032792D02*
X038636Y032542D01*
X038136Y032542D01*
X038136Y032292D01*
X037136Y032292D01*
X037136Y032542D01*
X036636Y032542D01*
X037136Y032542D02*
X037136Y032792D01*
X038136Y032792D01*
X038136Y032542D01*
X038636Y032542D02*
X038636Y032292D01*
X039136Y032542D01*
X038636Y032792D01*
X039011Y032917D02*
X039136Y033167D01*
X039136Y032792D02*
X039136Y032542D01*
X039136Y032292D01*
X039136Y032542D02*
X040136Y032542D01*
X042386Y032042D02*
X043886Y032042D01*
X043886Y006292D01*
X042511Y006292D01*
X027136Y006292D01*
X027136Y003542D01*
X041136Y003542D01*
X041136Y005042D01*
X040136Y004667D02*
X039636Y004667D01*
X039636Y004417D01*
X038636Y004417D01*
X038636Y004667D01*
X038136Y004667D01*
X038136Y004417D01*
X037636Y004667D01*
X038136Y004917D01*
X038136Y004667D01*
X038011Y004292D02*
X037886Y004042D01*
X037636Y004042D02*
X037761Y004292D01*
X037636Y004417D02*
X037636Y004667D01*
X037636Y004917D01*
X037636Y005167D02*
X037761Y005417D01*
X037636Y005542D02*
X037636Y005792D01*
X038136Y005542D01*
X038136Y005792D01*
X038636Y005792D01*
X038636Y006042D01*
X039636Y006042D01*
X039636Y005792D01*
X040136Y005792D01*
X039636Y005792D02*
X039636Y005542D01*
X038636Y005542D01*
X038636Y005792D01*
X038136Y005792D02*
X038136Y006042D01*
X037636Y005792D01*
X037636Y006042D01*
X037636Y005792D02*
X036636Y005792D01*
X037886Y005167D02*
X038011Y005417D01*
X038636Y004917D02*
X038636Y004667D01*
X038636Y004917D02*
X039636Y004917D01*
X039636Y004667D01*
X037636Y004667D02*
X036636Y004667D01*
X035136Y004667D02*
X034636Y004667D01*
X034636Y004417D01*
X033636Y004417D01*
X033636Y004667D01*
X033136Y004667D01*
X033136Y004417D01*
X032636Y004667D01*
X033136Y004917D01*
X033136Y004667D01*
X033011Y004292D02*
X032886Y004042D01*
X032636Y004042D02*
X032761Y004292D01*
X032636Y004417D02*
X032636Y004667D01*
X032636Y004917D01*
X032636Y005167D02*
X032761Y005417D01*
X032636Y005542D02*
X032636Y005792D01*
X033136Y005542D01*
X033136Y005792D01*
X033636Y005792D01*
X033636Y006042D01*
X034636Y006042D01*
X034636Y005792D01*
X035136Y005792D01*
X034636Y005792D02*
X034636Y005542D01*
X033636Y005542D01*
X033636Y005792D01*
X033136Y005792D02*
X033136Y006042D01*
X032636Y005792D01*
X032636Y006042D01*
X032636Y005792D02*
X031636Y005792D01*
X030136Y005667D02*
X029636Y005667D01*
X028636Y005292D01*
X028636Y005667D01*
X028136Y005667D01*
X028636Y005667D02*
X028636Y006042D01*
X029636Y005667D01*
X029636Y006042D01*
X029636Y005667D02*
X029636Y005292D01*
X029636Y005042D02*
X029636Y004667D01*
X028636Y004292D01*
X028636Y004667D01*
X028136Y004667D01*
X028636Y004667D02*
X028636Y005042D01*
X029636Y004667D01*
X029636Y004292D01*
X029636Y004667D02*
X030136Y004667D01*
X031636Y004667D02*
X032636Y004667D01*
X032886Y005167D02*
X033011Y005417D01*
X033636Y004917D02*
X033636Y004667D01*
X033636Y004917D02*
X034636Y004917D01*
X034636Y004667D01*
X027136Y003542D02*
X017511Y003542D01*
X017511Y011042D01*
X016636Y011042D01*
X011636Y011042D01*
X004761Y011042D01*
X012063Y010693D02*
X012063Y009693D01*
X012063Y009670D02*
X012063Y008670D01*
X012063Y008646D02*
X012063Y007646D01*
X012063Y007622D02*
X012063Y006622D01*
X012688Y006622D02*
X012688Y007622D01*
X012688Y007646D02*
X012688Y008646D01*
X012688Y008670D02*
X012688Y009670D01*
X012688Y009693D02*
X012688Y010693D01*
X013636Y011667D02*
X013636Y012667D01*
X014636Y012667D01*
X014636Y011667D01*
X013636Y011667D01*
X013636Y013417D02*
X013636Y014417D01*
X014636Y014417D01*
X014636Y013417D01*
X013636Y013417D01*
X013636Y015167D02*
X013636Y016167D01*
X014636Y016167D01*
X014636Y015167D01*
X013636Y015167D01*
X013136Y016667D02*
X013136Y017667D01*
X014136Y017667D01*
X014136Y016667D01*
X013136Y016667D01*
X012886Y017167D02*
X012386Y017167D01*
X012636Y016917D02*
X012636Y017417D01*
X011636Y018417D02*
X004761Y018417D01*
X004761Y006292D01*
X006136Y006292D01*
X006137Y006292D02*
X006208Y006293D01*
X006279Y006291D01*
X006350Y006284D01*
X006420Y006274D01*
X006490Y006260D01*
X006559Y006243D01*
X006627Y006221D01*
X006693Y006196D01*
X006759Y006168D01*
X006822Y006136D01*
X006884Y006100D01*
X006944Y006062D01*
X007001Y006020D01*
X007056Y005975D01*
X007109Y005927D01*
X007159Y005876D01*
X007206Y005823D01*
X007250Y005767D01*
X007291Y005709D01*
X007329Y005649D01*
X007364Y005587D01*
X007395Y005523D01*
X007423Y005457D01*
X007447Y005390D01*
X007467Y005322D01*
X007484Y005253D01*
X007497Y005183D01*
X007506Y005112D01*
X007512Y005042D01*
X012886Y005917D02*
X013386Y005917D01*
X013136Y005667D02*
X013136Y006167D01*
X013636Y006417D02*
X013636Y005417D01*
X014636Y005417D01*
X014636Y004417D01*
X013636Y004417D01*
X013636Y005417D01*
X014636Y005417D02*
X014636Y006417D01*
X013636Y006417D01*
X016636Y011042D02*
X016636Y013917D01*
X023261Y013917D01*
X027136Y013917D01*
X027136Y032042D01*
X027136Y034792D01*
X028636Y033917D02*
X029636Y033917D01*
X029636Y033667D01*
X030136Y033667D01*
X029636Y033667D02*
X029636Y033417D01*
X028636Y033417D01*
X028636Y033667D01*
X028136Y033667D01*
X028636Y033667D02*
X028636Y033917D01*
X028636Y032917D02*
X029636Y032917D01*
X029636Y032667D01*
X030136Y032667D01*
X029636Y032667D02*
X029636Y032417D01*
X028636Y032417D01*
X028636Y032667D01*
X028136Y032667D01*
X028636Y032667D02*
X028636Y032917D01*
X027136Y032042D02*
X042386Y032042D01*
X042318Y032044D01*
X042251Y032049D01*
X042184Y032058D01*
X042117Y032071D01*
X042052Y032088D01*
X041987Y032107D01*
X041923Y032131D01*
X041861Y032158D01*
X041800Y032188D01*
X041742Y032221D01*
X041685Y032257D01*
X041630Y032297D01*
X041577Y032339D01*
X041526Y032385D01*
X041479Y032432D01*
X041433Y032483D01*
X041391Y032536D01*
X041351Y032591D01*
X041315Y032648D01*
X041282Y032706D01*
X041252Y032767D01*
X041225Y032829D01*
X041201Y032893D01*
X041182Y032958D01*
X041165Y033023D01*
X041152Y033090D01*
X041143Y033157D01*
X041138Y033224D01*
X041136Y033292D01*
X035136Y033667D02*
X034136Y033667D01*
X033636Y033917D01*
X033636Y033667D01*
X033136Y033667D01*
X033136Y033417D01*
X032136Y033417D01*
X032136Y033667D01*
X031636Y033667D01*
X032136Y033667D02*
X032136Y033917D01*
X033136Y033917D01*
X033136Y033667D01*
X033636Y033667D02*
X033636Y033417D01*
X034136Y033667D01*
X034136Y033417D01*
X034136Y033667D02*
X034136Y033917D01*
X034011Y034042D02*
X034136Y034292D01*
X033886Y034292D02*
X033761Y034042D01*
X033886Y033167D02*
X033761Y032917D01*
X033636Y032792D02*
X034136Y032542D01*
X033636Y032292D01*
X033636Y032542D01*
X033136Y032542D01*
X033136Y032292D01*
X032136Y032292D01*
X032136Y032542D01*
X031636Y032542D01*
X032136Y032542D02*
X032136Y032792D01*
X033136Y032792D01*
X033136Y032542D01*
X033636Y032542D02*
X033636Y032792D01*
X034011Y032917D02*
X034136Y033167D01*
X034136Y032792D02*
X034136Y032542D01*
X034136Y032292D01*
X034136Y032542D02*
X035136Y032542D01*
X026386Y033417D02*
X026386Y029417D01*
X025386Y029417D02*
X025386Y033417D01*
X025386Y031667D02*
X025636Y031667D01*
X026136Y031542D01*
X026136Y031667D02*
X026386Y031667D01*
X025886Y031542D02*
X025886Y031167D01*
X025636Y031167D01*
X025886Y031167D02*
X026136Y031167D01*
X022667Y033218D02*
X022490Y033395D01*
X022843Y033749D01*
X022490Y033395D02*
X022313Y033572D01*
X021606Y032865D01*
X021783Y032688D01*
X021429Y032335D01*
X021783Y032688D02*
X021959Y032511D01*
X022667Y033218D01*
X019057Y029103D02*
X018959Y029103D01*
X018142Y029048D02*
X018142Y028857D01*
X018142Y029048D02*
X017952Y029048D01*
X017952Y027365D02*
X018043Y027365D01*
X018979Y027352D02*
X019077Y027352D01*
X017050Y025820D02*
X015770Y025820D01*
X016410Y026844D01*
X017050Y025820D01*
X016346Y026012D02*
X016348Y026027D01*
X016353Y026042D01*
X016362Y026054D01*
X016374Y026065D01*
X016387Y026072D01*
X016402Y026076D01*
X016418Y026076D01*
X016433Y026072D01*
X016446Y026065D01*
X016458Y026054D01*
X016467Y026042D01*
X016472Y026027D01*
X016474Y026012D01*
X016472Y025997D01*
X016467Y025982D01*
X016458Y025970D01*
X016446Y025959D01*
X016433Y025952D01*
X016418Y025948D01*
X016402Y025948D01*
X016387Y025952D01*
X016374Y025959D01*
X016362Y025970D01*
X016353Y025982D01*
X016348Y025997D01*
X016346Y026012D01*
X016410Y026204D02*
X016346Y026524D01*
X016474Y026524D01*
X016410Y026204D01*
X014612Y027365D02*
X014313Y027365D01*
X014313Y027066D01*
X012630Y028857D02*
X012630Y029048D01*
X012820Y029048D01*
X009343Y032335D02*
X008990Y032688D01*
X008813Y032511D01*
X008106Y033218D01*
X008283Y033395D01*
X007929Y033749D01*
X008283Y033395D02*
X008459Y033572D01*
X009167Y032865D01*
X008990Y032688D01*
X007136Y031917D02*
X007136Y030917D01*
X006136Y030917D01*
X006136Y031917D01*
X007136Y031917D01*
X007136Y030917D02*
X007136Y029917D01*
X006136Y029917D01*
X006136Y030917D01*
X005636Y030667D02*
X005636Y030167D01*
X005886Y030417D02*
X005386Y030417D01*
X012630Y023726D02*
X012630Y023536D01*
X012820Y023536D01*
X012998Y022697D02*
X012998Y022598D01*
X014314Y022594D02*
X014314Y022693D01*
X014313Y023635D02*
X014313Y023726D01*
X017952Y023536D02*
X018142Y023536D01*
X018142Y023726D01*
X018250Y023726D02*
X018250Y023428D01*
X017952Y023428D01*
X018275Y023206D02*
X018277Y023233D01*
X018283Y023260D01*
X018292Y023286D01*
X018305Y023310D01*
X018321Y023333D01*
X018340Y023352D01*
X018362Y023369D01*
X018386Y023383D01*
X018411Y023393D01*
X018438Y023400D01*
X018465Y023403D01*
X018493Y023402D01*
X018520Y023397D01*
X018546Y023389D01*
X018570Y023377D01*
X018593Y023361D01*
X018614Y023343D01*
X018631Y023322D01*
X018646Y023298D01*
X018657Y023273D01*
X018665Y023247D01*
X018669Y023220D01*
X018669Y023192D01*
X018665Y023165D01*
X018657Y023139D01*
X018646Y023114D01*
X018631Y023090D01*
X018614Y023069D01*
X018593Y023051D01*
X018571Y023035D01*
X018546Y023023D01*
X018520Y023015D01*
X018493Y023010D01*
X018465Y023009D01*
X018438Y023012D01*
X018411Y023019D01*
X018386Y023029D01*
X018362Y023043D01*
X018340Y023060D01*
X018321Y023079D01*
X018305Y023102D01*
X018292Y023126D01*
X018283Y023152D01*
X018277Y023179D01*
X018275Y023206D01*
X021399Y020279D02*
X021752Y019926D01*
X021929Y020102D01*
X022636Y019395D01*
X022459Y019218D01*
X022813Y018865D01*
X022459Y019218D02*
X022283Y019042D01*
X021576Y019749D01*
X021752Y019926D01*
X023886Y019292D02*
X024261Y019292D01*
X024261Y019792D01*
X024261Y019292D02*
X024636Y019292D01*
X024261Y018292D01*
X023886Y019292D01*
X023261Y018417D02*
X023261Y013917D01*
X022886Y013417D02*
X021886Y013417D01*
X021886Y013167D01*
X021386Y013167D01*
X021886Y013167D02*
X021886Y012917D01*
X022886Y012917D01*
X022886Y013167D01*
X023386Y013167D01*
X022886Y013167D02*
X022886Y013417D01*
X022636Y012417D02*
X022636Y011417D01*
X022636Y010417D01*
X022636Y009417D01*
X022636Y008417D01*
X022636Y007417D01*
X022636Y006417D01*
X022636Y005417D01*
X022636Y004417D01*
X024197Y004393D02*
X024197Y005440D01*
X024197Y005393D02*
X024197Y006440D01*
X024197Y006393D02*
X024197Y007440D01*
X024197Y007393D02*
X024197Y008440D01*
X024197Y008393D02*
X024197Y009440D01*
X024197Y009393D02*
X024197Y010440D01*
X024197Y010393D02*
X024197Y011440D01*
X024197Y011393D02*
X024197Y012440D01*
X024386Y012917D02*
X024386Y013417D01*
X024136Y013167D02*
X024636Y013167D01*
X025067Y013667D02*
X026067Y013667D01*
X026067Y012667D01*
X025067Y012667D01*
X025067Y013667D01*
X025511Y014542D02*
X025511Y015042D01*
X025261Y015042D01*
X025261Y016042D01*
X025511Y016042D01*
X025511Y016542D01*
X025511Y016042D02*
X025761Y016042D01*
X025761Y015042D01*
X025511Y015042D01*
X026261Y015042D02*
X026261Y016042D01*
X026511Y016042D01*
X026511Y016542D01*
X026511Y016042D02*
X026761Y016042D01*
X026761Y015042D01*
X026511Y015042D01*
X026511Y014542D01*
X027136Y013917D02*
X027136Y006292D01*
X020575Y006393D02*
X020575Y007440D01*
X020575Y007393D02*
X020575Y008440D01*
X020575Y008393D02*
X020575Y009440D01*
X020575Y009393D02*
X020575Y010440D01*
X020575Y010393D02*
X020575Y011440D01*
X020575Y011393D02*
X020575Y012440D01*
X020386Y012917D02*
X020386Y013417D01*
X020136Y013167D02*
X020636Y013167D01*
X019705Y013667D02*
X019705Y012667D01*
X018705Y012667D01*
X017705Y012667D01*
X017705Y013667D01*
X018705Y013667D01*
X018705Y012667D01*
X018705Y013667D02*
X019705Y013667D01*
X019511Y015167D02*
X017136Y015167D01*
X017136Y016667D01*
X018261Y016667D01*
X018261Y017042D01*
X018511Y017042D02*
X018511Y016667D01*
X021261Y016667D01*
X021261Y017042D01*
X021511Y017042D02*
X021511Y016667D01*
X022636Y016667D01*
X022636Y015167D01*
X020261Y015167D01*
X021261Y016292D02*
X021261Y016667D01*
X021511Y016667D02*
X021511Y016292D01*
X023886Y016042D02*
X024261Y016042D01*
X024261Y016542D01*
X024261Y016042D02*
X024636Y016042D01*
X024261Y015042D01*
X023886Y016042D01*
X023886Y015042D02*
X024261Y015042D01*
X024636Y015042D01*
X024261Y015042D02*
X024261Y014542D01*
X026067Y013667D02*
X027067Y013667D01*
X027067Y012667D01*
X026067Y012667D01*
X026261Y015042D02*
X026511Y015042D01*
X026511Y017792D02*
X026511Y018292D01*
X026261Y018292D01*
X026261Y019292D01*
X026511Y019292D01*
X026511Y019792D01*
X026511Y019292D02*
X026761Y019292D01*
X026761Y018292D01*
X026511Y018292D01*
X025761Y018292D02*
X025761Y019292D01*
X025511Y019292D01*
X025511Y019792D01*
X025511Y019292D02*
X025261Y019292D01*
X025261Y018292D01*
X025511Y018292D01*
X025511Y017792D01*
X025511Y018292D02*
X025761Y018292D01*
X024636Y018292D02*
X024261Y018292D01*
X023886Y018292D01*
X024261Y018292D02*
X024261Y017792D01*
X025386Y020917D02*
X025386Y024917D01*
X026386Y024917D02*
X026386Y020917D01*
X026136Y022667D02*
X025886Y022667D01*
X025886Y023042D01*
X026136Y023042D02*
X025636Y023167D01*
X025386Y023167D01*
X025636Y022667D02*
X025886Y022667D01*
X026136Y023167D02*
X026386Y023167D01*
X026386Y026167D02*
X026386Y026667D01*
X026136Y026667D01*
X026136Y027667D01*
X026386Y027667D01*
X026386Y028167D01*
X026386Y027667D02*
X026636Y027667D01*
X026636Y026667D01*
X026386Y026667D01*
X025636Y026667D02*
X025636Y027667D01*
X025386Y027667D01*
X025386Y028167D01*
X024636Y028167D02*
X024636Y027167D01*
X023636Y027167D01*
X023636Y028167D01*
X024636Y028167D01*
X025136Y027667D02*
X025386Y027667D01*
X025136Y027667D02*
X025136Y026667D01*
X025386Y026667D01*
X025386Y026167D01*
X024636Y026167D02*
X024636Y027167D01*
X025386Y026667D02*
X025636Y026667D01*
X024636Y026167D02*
X023636Y026167D01*
X023636Y027167D01*
X016636Y018417D02*
X016636Y013917D01*
X018261Y016292D02*
X018261Y016667D01*
X018511Y016667D02*
X018511Y016292D01*
X015136Y016667D02*
X014136Y016667D01*
X015136Y016667D02*
X015136Y017667D01*
X014136Y017667D01*
X009167Y019718D02*
X008459Y019011D01*
X008283Y019188D01*
X007929Y018835D01*
X008283Y019188D02*
X008106Y019365D01*
X008813Y020072D01*
X008990Y019895D01*
X009343Y020249D01*
X008990Y019895D02*
X009167Y019718D01*
X007136Y020417D02*
X007136Y021417D01*
X006136Y021417D01*
X006136Y022417D01*
X007136Y022417D01*
X007136Y021417D01*
X006136Y021417D02*
X006136Y020417D01*
X007136Y020417D01*
X005636Y021667D02*
X005636Y022167D01*
X005886Y021917D02*
X005386Y021917D01*
X020575Y006440D02*
X020575Y005393D01*
X020575Y005440D02*
X020575Y004393D01*
X041136Y005041D02*
X041142Y005112D01*
X041151Y005183D01*
X041164Y005253D01*
X041181Y005322D01*
X041201Y005390D01*
X041225Y005457D01*
X041253Y005523D01*
X041284Y005587D01*
X041319Y005649D01*
X041357Y005709D01*
X041398Y005767D01*
X041442Y005823D01*
X041489Y005876D01*
X041539Y005927D01*
X041592Y005975D01*
X041647Y006020D01*
X041704Y006062D01*
X041764Y006100D01*
X041826Y006136D01*
X041889Y006168D01*
X041955Y006196D01*
X042021Y006221D01*
X042089Y006243D01*
X042158Y006260D01*
X042228Y006274D01*
X042298Y006284D01*
X042369Y006291D01*
X042440Y006293D01*
X042512Y006292D01*
D12*
X024136Y004417D02*
X020636Y004417D01*
X012636Y006667D02*
X010136Y006667D01*
X010386Y010167D02*
X010388Y010198D01*
X010394Y010229D01*
X010404Y010259D01*
X010417Y010287D01*
X010434Y010314D01*
X010454Y010338D01*
X010477Y010360D01*
X010502Y010378D01*
X010530Y010393D01*
X010559Y010405D01*
X010589Y010413D01*
X010620Y010417D01*
X010652Y010417D01*
X010683Y010413D01*
X010713Y010405D01*
X010742Y010393D01*
X010770Y010378D01*
X010795Y010360D01*
X010818Y010338D01*
X010838Y010314D01*
X010855Y010287D01*
X010868Y010259D01*
X010878Y010229D01*
X010884Y010198D01*
X010886Y010167D01*
X010884Y010136D01*
X010878Y010105D01*
X010868Y010075D01*
X010855Y010047D01*
X010838Y010020D01*
X010818Y009996D01*
X010795Y009974D01*
X010770Y009956D01*
X010742Y009941D01*
X010713Y009929D01*
X010683Y009921D01*
X010652Y009917D01*
X010620Y009917D01*
X010589Y009921D01*
X010559Y009929D01*
X010530Y009941D01*
X010502Y009956D01*
X010477Y009974D01*
X010454Y009996D01*
X010434Y010020D01*
X010417Y010047D01*
X010404Y010075D01*
X010394Y010105D01*
X010388Y010136D01*
X010386Y010167D01*
X010136Y010667D02*
X012636Y010667D01*
X019511Y014917D02*
X019511Y015167D01*
X019511Y015417D01*
X019761Y015542D02*
X020011Y015542D01*
X020011Y014792D01*
X019761Y014792D01*
X019761Y015542D01*
X020261Y015417D02*
X020261Y015167D01*
X020261Y014917D01*
X020636Y012417D02*
X024136Y012417D01*
X020886Y011917D02*
X020888Y011948D01*
X020894Y011979D01*
X020904Y012009D01*
X020917Y012037D01*
X020934Y012064D01*
X020954Y012088D01*
X020977Y012110D01*
X021002Y012128D01*
X021030Y012143D01*
X021059Y012155D01*
X021089Y012163D01*
X021120Y012167D01*
X021152Y012167D01*
X021183Y012163D01*
X021213Y012155D01*
X021242Y012143D01*
X021270Y012128D01*
X021295Y012110D01*
X021318Y012088D01*
X021338Y012064D01*
X021355Y012037D01*
X021368Y012009D01*
X021378Y011979D01*
X021384Y011948D01*
X021386Y011917D01*
X021384Y011886D01*
X021378Y011855D01*
X021368Y011825D01*
X021355Y011797D01*
X021338Y011770D01*
X021318Y011746D01*
X021295Y011724D01*
X021270Y011706D01*
X021242Y011691D01*
X021213Y011679D01*
X021183Y011671D01*
X021152Y011667D01*
X021120Y011667D01*
X021089Y011671D01*
X021059Y011679D01*
X021030Y011691D01*
X021002Y011706D01*
X020977Y011724D01*
X020954Y011746D01*
X020934Y011770D01*
X020917Y011797D01*
X020904Y011825D01*
X020894Y011855D01*
X020888Y011886D01*
X020886Y011917D01*
D13*
X027136Y007167D02*
X027136Y031167D01*
X028136Y031167D01*
X028136Y007167D01*
X027136Y007167D01*
X028136Y007167D02*
X029136Y007167D01*
X029136Y031167D01*
X028136Y031167D01*
X030136Y031167D02*
X030136Y030167D01*
X040136Y030167D01*
X040136Y031167D01*
X030136Y031167D01*
X031136Y031167D02*
X031136Y007167D01*
X032136Y007167D02*
X032136Y031167D01*
X033136Y031167D02*
X033136Y007167D01*
X034136Y007167D02*
X034136Y031167D01*
X035136Y031167D02*
X035136Y007167D01*
X036136Y007167D02*
X036136Y031167D01*
X037136Y031167D02*
X037136Y007167D01*
X038136Y007167D02*
X038136Y031167D01*
X039136Y031167D02*
X039136Y007167D01*
X040136Y007167D02*
X040136Y008167D01*
X030136Y008167D01*
X030136Y009167D01*
X040136Y009167D01*
X040136Y010167D01*
X030136Y010167D01*
X030136Y011167D01*
X040136Y011167D01*
X040136Y012167D01*
X030136Y012167D01*
X030136Y013167D01*
X040136Y013167D01*
X040136Y014167D01*
X030136Y014167D01*
X030136Y015167D01*
X040136Y015167D01*
X040136Y016167D01*
X030136Y016167D01*
X030136Y017167D01*
X040136Y017167D01*
X040136Y018167D01*
X030136Y018167D01*
X030136Y019167D01*
X040136Y019167D01*
X040136Y020167D01*
X030136Y020167D01*
X030136Y021167D01*
X040136Y021167D01*
X040136Y022167D01*
X030136Y022167D01*
X030136Y023167D01*
X040136Y023167D01*
X040136Y024167D01*
X030136Y024167D01*
X030136Y025167D01*
X040136Y025167D01*
X040136Y026167D01*
X030136Y026167D01*
X030136Y027167D01*
X040136Y027167D01*
X040136Y028167D01*
X030136Y028167D01*
X030136Y029167D01*
X040136Y029167D01*
X040136Y030167D01*
X040136Y029167D02*
X040136Y028167D01*
X040136Y027167D02*
X040136Y026167D01*
X040136Y025167D02*
X040136Y024167D01*
X040136Y023167D02*
X040136Y022167D01*
X040136Y021167D02*
X040136Y020167D01*
X040136Y019167D02*
X040136Y018167D01*
X040136Y017167D02*
X040136Y016167D01*
X040136Y015167D02*
X040136Y014167D01*
X040136Y013167D02*
X040136Y012167D01*
X040136Y011167D02*
X040136Y010167D01*
X040136Y009167D02*
X040136Y008167D01*
X040136Y007167D02*
X030136Y007167D01*
X030136Y008167D01*
X030136Y009167D02*
X030136Y010167D01*
X030136Y011167D02*
X030136Y012167D01*
X030136Y013167D02*
X030136Y014167D01*
X030136Y015167D02*
X030136Y016167D01*
X030136Y017167D02*
X030136Y018167D01*
X030136Y019167D02*
X030136Y020167D01*
X030136Y021167D02*
X030136Y022167D01*
X030136Y023167D02*
X030136Y024167D01*
X030136Y025167D02*
X030136Y026167D01*
X030136Y027167D02*
X030136Y028167D01*
X030136Y029167D02*
X030136Y030167D01*
X041136Y031167D02*
X042136Y031167D01*
X043136Y031167D01*
X043136Y007167D01*
X042136Y007167D01*
X042136Y031167D01*
X041136Y031167D02*
X041136Y007167D01*
X042136Y007167D01*
X016658Y025235D02*
X016483Y025235D01*
X016425Y025293D01*
X016425Y025527D01*
X016483Y025585D01*
X016658Y025585D01*
X016658Y025235D01*
X016290Y025235D02*
X016290Y025585D01*
X016115Y025585D01*
X016057Y025527D01*
X016057Y025410D01*
X016115Y025352D01*
X016290Y025352D01*
D14*
X029346Y025412D02*
X029451Y025307D01*
X029346Y025412D02*
X029346Y025622D01*
X029451Y025728D01*
X029556Y025728D01*
X029661Y025622D01*
X029661Y025412D01*
X029767Y025307D01*
X029872Y025307D01*
X029977Y025412D01*
X029977Y025622D01*
X029872Y025728D01*
X029977Y026307D02*
X029977Y026728D01*
X029977Y026517D02*
X029346Y026517D01*
X029451Y027307D02*
X029346Y027412D01*
X029346Y027622D01*
X029451Y027728D01*
X029977Y027728D01*
X029977Y027307D02*
X029451Y027307D01*
X029556Y028307D02*
X029346Y028517D01*
X029556Y028728D01*
X029977Y028728D01*
X029977Y028307D02*
X029556Y028307D01*
X029346Y029307D02*
X029556Y029517D01*
X029346Y029728D01*
X029977Y029728D01*
X029977Y029307D02*
X029346Y029307D01*
X029346Y030307D02*
X029977Y030728D01*
X029977Y030307D02*
X029346Y030728D01*
X030346Y031412D02*
X030451Y031307D01*
X030872Y031728D01*
X030451Y031728D01*
X030346Y031622D01*
X030346Y031412D01*
X030451Y031307D02*
X030872Y031307D01*
X030977Y031412D01*
X030977Y031622D01*
X030872Y031728D01*
X031346Y031728D02*
X031346Y031307D01*
X031346Y031517D02*
X031977Y031517D01*
X031767Y031307D01*
X032346Y031307D02*
X032767Y031728D01*
X032872Y031728D01*
X032977Y031622D01*
X032977Y031412D01*
X032872Y031307D01*
X033346Y031412D02*
X033451Y031307D01*
X033346Y031412D02*
X033346Y031622D01*
X033451Y031728D01*
X033556Y031728D01*
X033661Y031622D01*
X033661Y031517D01*
X033661Y031622D02*
X033767Y031728D01*
X033872Y031728D01*
X033977Y031622D01*
X033977Y031412D01*
X033872Y031307D01*
X034346Y031622D02*
X034977Y031622D01*
X034661Y031307D01*
X034661Y031728D01*
X035346Y031622D02*
X035346Y031412D01*
X035451Y031307D01*
X035661Y031307D02*
X035767Y031517D01*
X035767Y031622D01*
X035661Y031728D01*
X035451Y031728D01*
X035346Y031622D01*
X035661Y031307D02*
X035977Y031307D01*
X035977Y031728D01*
X036346Y031622D02*
X036346Y031412D01*
X036451Y031307D01*
X036661Y031307D01*
X036661Y031622D01*
X036556Y031728D01*
X036451Y031728D01*
X036346Y031622D01*
X036661Y031307D02*
X036872Y031517D01*
X036977Y031728D01*
X037346Y031307D02*
X037451Y031307D01*
X037872Y031728D01*
X037977Y031728D01*
X037977Y031307D01*
X038346Y031412D02*
X038346Y031622D01*
X038451Y031728D01*
X038556Y031728D01*
X038661Y031622D01*
X038661Y031412D01*
X038767Y031307D01*
X038872Y031307D01*
X038977Y031412D01*
X038977Y031622D01*
X038872Y031728D01*
X038767Y031728D01*
X038661Y031622D01*
X038661Y031412D02*
X038556Y031307D01*
X038451Y031307D01*
X038346Y031412D01*
X039346Y031412D02*
X039346Y031622D01*
X039451Y031728D01*
X039872Y031728D01*
X039977Y031622D01*
X039977Y031412D01*
X039872Y031307D01*
X039767Y031307D01*
X039661Y031412D01*
X039661Y031728D01*
X039346Y031412D02*
X039451Y031307D01*
X040221Y030728D02*
X040852Y030307D01*
X040852Y030728D02*
X040221Y030307D01*
X040221Y029728D02*
X040852Y029728D01*
X040852Y029307D02*
X040221Y029307D01*
X040431Y029517D01*
X040221Y029728D01*
X040431Y028728D02*
X040221Y028517D01*
X040431Y028307D01*
X040852Y028307D01*
X040852Y028728D02*
X040431Y028728D01*
X040326Y027728D02*
X040852Y027728D01*
X040852Y027307D02*
X040326Y027307D01*
X040221Y027412D01*
X040221Y027622D01*
X040326Y027728D01*
X040852Y026728D02*
X040852Y026307D01*
X040852Y026517D02*
X040221Y026517D01*
X040326Y025728D02*
X040221Y025622D01*
X040221Y025412D01*
X040326Y025307D01*
X040536Y025412D02*
X040536Y025622D01*
X040431Y025728D01*
X040326Y025728D01*
X040536Y025412D02*
X040642Y025307D01*
X040747Y025307D01*
X040852Y025412D01*
X040852Y025622D01*
X040747Y025728D01*
X040747Y024728D02*
X040536Y024728D01*
X040431Y024622D01*
X040431Y024307D01*
X040221Y024307D02*
X040852Y024307D01*
X040852Y024622D01*
X040747Y024728D01*
X040431Y024517D02*
X040221Y024728D01*
X040221Y023728D02*
X040431Y023517D01*
X040221Y023412D02*
X040326Y023307D01*
X040747Y023307D01*
X040852Y023412D01*
X040852Y023622D01*
X040747Y023728D01*
X040326Y023728D01*
X040221Y023622D01*
X040221Y023412D01*
X040536Y022728D02*
X040431Y022622D01*
X040431Y022307D01*
X040221Y022307D02*
X040852Y022307D01*
X040852Y022622D01*
X040747Y022728D01*
X040536Y022728D01*
X040326Y021728D02*
X040747Y021728D01*
X040852Y021622D01*
X040852Y021412D01*
X040747Y021307D01*
X040326Y021307D01*
X040221Y021412D01*
X040221Y021622D01*
X040326Y021728D01*
X040221Y020728D02*
X040852Y020728D01*
X040852Y020307D02*
X040221Y020307D01*
X040221Y020728D02*
X040852Y020307D01*
X040852Y019728D02*
X040221Y019728D01*
X040221Y019307D02*
X040852Y019307D01*
X040642Y019517D01*
X040852Y019728D01*
X040221Y018728D02*
X040221Y018307D01*
X040852Y018307D01*
X040852Y017728D02*
X040431Y017307D01*
X040536Y017412D02*
X040221Y017728D01*
X040221Y017307D02*
X040852Y017307D01*
X040852Y016728D02*
X040852Y016517D01*
X040852Y016622D02*
X040326Y016622D01*
X040221Y016517D01*
X040221Y016412D01*
X040326Y016307D01*
X040221Y015732D02*
X040221Y015522D01*
X040221Y015627D02*
X040852Y015627D01*
X040852Y015522D02*
X040852Y015732D01*
X040852Y014728D02*
X040221Y014728D01*
X040536Y014728D02*
X040536Y014307D01*
X040221Y014307D02*
X040852Y014307D01*
X040747Y013728D02*
X040852Y013622D01*
X040852Y013412D01*
X040747Y013307D01*
X040326Y013307D01*
X040221Y013412D01*
X040221Y013622D01*
X040326Y013728D01*
X040536Y013728D01*
X040536Y013517D01*
X040852Y012728D02*
X040852Y012307D01*
X040221Y012307D01*
X040536Y012307D02*
X040536Y012517D01*
X040221Y011728D02*
X040221Y011307D01*
X040852Y011307D01*
X040852Y011728D01*
X040536Y011517D02*
X040536Y011307D01*
X040326Y010728D02*
X040747Y010728D01*
X040852Y010622D01*
X040852Y010307D01*
X040221Y010307D01*
X040221Y010622D01*
X040326Y010728D01*
X040326Y009728D02*
X040221Y009622D01*
X040221Y009412D01*
X040326Y009307D01*
X040747Y009307D01*
X040852Y009412D01*
X040852Y009622D01*
X040747Y009728D01*
X040747Y008728D02*
X040642Y008728D01*
X040536Y008622D01*
X040536Y008307D01*
X040221Y008307D02*
X040852Y008307D01*
X040852Y008622D01*
X040747Y008728D01*
X040536Y008622D02*
X040431Y008728D01*
X040326Y008728D01*
X040221Y008622D01*
X040221Y008307D01*
X040221Y007728D02*
X040642Y007728D01*
X040852Y007517D01*
X040642Y007307D01*
X040221Y007307D01*
X040536Y007307D02*
X040536Y007728D01*
X039872Y006853D02*
X039451Y006853D01*
X039346Y006747D01*
X039346Y006537D01*
X039451Y006432D01*
X039661Y006537D02*
X039661Y006853D01*
X039872Y006853D02*
X039977Y006747D01*
X039977Y006537D01*
X039872Y006432D01*
X039767Y006432D01*
X039661Y006537D01*
X038977Y006537D02*
X038977Y006747D01*
X038872Y006853D01*
X038767Y006853D01*
X038661Y006747D01*
X038661Y006537D01*
X038767Y006432D01*
X038872Y006432D01*
X038977Y006537D01*
X038661Y006537D02*
X038556Y006432D01*
X038451Y006432D01*
X038346Y006537D01*
X038346Y006747D01*
X038451Y006853D01*
X038556Y006853D01*
X038661Y006747D01*
X037977Y006853D02*
X037872Y006853D01*
X037451Y006432D01*
X037346Y006432D01*
X036872Y006642D02*
X036977Y006853D01*
X036872Y006642D02*
X036661Y006432D01*
X036661Y006747D01*
X036556Y006853D01*
X036451Y006853D01*
X036346Y006747D01*
X036346Y006537D01*
X036451Y006432D01*
X036661Y006432D01*
X035977Y006432D02*
X035977Y006853D01*
X035767Y006747D02*
X035661Y006853D01*
X035451Y006853D01*
X035346Y006747D01*
X035346Y006537D01*
X035451Y006432D01*
X035661Y006432D02*
X035767Y006642D01*
X035767Y006747D01*
X035661Y006432D02*
X035977Y006432D01*
X034977Y006747D02*
X034661Y006432D01*
X034661Y006853D01*
X034346Y006747D02*
X034977Y006747D01*
X033977Y006747D02*
X033872Y006853D01*
X033767Y006853D01*
X033661Y006747D01*
X033556Y006853D01*
X033451Y006853D01*
X033346Y006747D01*
X033346Y006537D01*
X033451Y006432D01*
X033661Y006642D02*
X033661Y006747D01*
X033977Y006747D02*
X033977Y006537D01*
X033872Y006432D01*
X032977Y006537D02*
X032872Y006432D01*
X032977Y006537D02*
X032977Y006747D01*
X032872Y006853D01*
X032767Y006853D01*
X032346Y006432D01*
X032346Y006853D01*
X031977Y006642D02*
X031346Y006642D01*
X031346Y006432D02*
X031346Y006853D01*
X030977Y006747D02*
X030872Y006853D01*
X030451Y006432D01*
X030346Y006537D01*
X030346Y006747D01*
X030451Y006853D01*
X030872Y006853D01*
X030977Y006747D02*
X030977Y006537D01*
X030872Y006432D01*
X030451Y006432D01*
X029767Y007307D02*
X029977Y007517D01*
X029767Y007728D01*
X029346Y007728D01*
X029661Y007728D02*
X029661Y007307D01*
X029767Y007307D02*
X029346Y007307D01*
X028536Y006853D02*
X028536Y006432D01*
X027872Y006642D02*
X027451Y006642D01*
X027661Y006432D02*
X027661Y006853D01*
X029346Y008307D02*
X029346Y008622D01*
X029451Y008728D01*
X029556Y008728D01*
X029661Y008622D01*
X029661Y008307D01*
X029346Y008307D02*
X029977Y008307D01*
X029977Y008622D01*
X029872Y008728D01*
X029767Y008728D01*
X029661Y008622D01*
X029451Y009307D02*
X029346Y009412D01*
X029346Y009622D01*
X029451Y009728D01*
X029872Y009728D02*
X029977Y009622D01*
X029977Y009412D01*
X029872Y009307D01*
X029451Y009307D01*
X029346Y010307D02*
X029346Y010622D01*
X029451Y010728D01*
X029872Y010728D01*
X029977Y010622D01*
X029977Y010307D01*
X029346Y010307D01*
X029346Y011307D02*
X029346Y011728D01*
X029661Y011517D02*
X029661Y011307D01*
X029346Y011307D02*
X029977Y011307D01*
X029977Y011728D01*
X029977Y012307D02*
X029346Y012307D01*
X029661Y012307D02*
X029661Y012517D01*
X029977Y012307D02*
X029977Y012728D01*
X029872Y013307D02*
X029451Y013307D01*
X029346Y013412D01*
X029346Y013622D01*
X029451Y013728D01*
X029661Y013728D01*
X029661Y013517D01*
X029872Y013307D02*
X029977Y013412D01*
X029977Y013622D01*
X029872Y013728D01*
X029977Y014307D02*
X029346Y014307D01*
X029661Y014307D02*
X029661Y014728D01*
X029346Y014728D02*
X029977Y014728D01*
X029977Y015522D02*
X029977Y015732D01*
X029977Y015627D02*
X029346Y015627D01*
X029346Y015522D02*
X029346Y015732D01*
X029451Y016307D02*
X029346Y016412D01*
X029346Y016517D01*
X029451Y016622D01*
X029977Y016622D01*
X029977Y016517D02*
X029977Y016728D01*
X029977Y017307D02*
X029346Y017307D01*
X029556Y017307D02*
X029977Y017728D01*
X029661Y017412D02*
X029346Y017728D01*
X029346Y018307D02*
X029346Y018728D01*
X029346Y018307D02*
X029977Y018307D01*
X029977Y019307D02*
X029346Y019307D01*
X029346Y019728D02*
X029977Y019728D01*
X029767Y019517D01*
X029977Y019307D01*
X029977Y020307D02*
X029346Y020307D01*
X029346Y020728D02*
X029977Y020728D01*
X029977Y020307D02*
X029346Y020728D01*
X029451Y021307D02*
X029346Y021412D01*
X029346Y021622D01*
X029451Y021728D01*
X029872Y021728D01*
X029977Y021622D01*
X029977Y021412D01*
X029872Y021307D01*
X029451Y021307D01*
X029346Y022307D02*
X029977Y022307D01*
X029977Y022622D01*
X029872Y022728D01*
X029661Y022728D01*
X029556Y022622D01*
X029556Y022307D01*
X029451Y023307D02*
X029346Y023412D01*
X029346Y023622D01*
X029451Y023728D01*
X029872Y023728D01*
X029977Y023622D01*
X029977Y023412D01*
X029872Y023307D01*
X029451Y023307D01*
X029556Y023517D02*
X029346Y023728D01*
X029346Y024307D02*
X029977Y024307D01*
X029977Y024622D01*
X029872Y024728D01*
X029661Y024728D01*
X029556Y024622D01*
X029556Y024307D01*
X029556Y024517D02*
X029346Y024728D01*
X032346Y031307D02*
X032346Y031728D01*
X037977Y006853D02*
X037977Y006432D01*
X041536Y006432D02*
X041536Y006853D01*
X042326Y006642D02*
X042747Y006642D01*
X042536Y006432D02*
X042536Y006853D01*
X031977Y006642D02*
X031767Y006432D01*
D15*
X005011Y026182D03*
D16*
X005026Y026182D03*
X005041Y026182D03*
X005056Y026182D03*
X005071Y026182D03*
X005086Y026182D03*
X005101Y026182D03*
X005116Y026182D03*
D17*
X005131Y025357D03*
D18*
X005131Y028394D03*
X005476Y028394D03*
D19*
X005161Y024592D03*
X005146Y024592D03*
D20*
X005641Y024734D03*
X005911Y024449D03*
X006631Y024719D03*
X006646Y024704D03*
X006646Y023714D03*
X005911Y023999D03*
X005626Y023714D03*
X005611Y023729D03*
X005641Y023699D03*
X005146Y026339D03*
X005926Y026639D03*
X006811Y026624D03*
X006811Y027509D03*
X006061Y027779D03*
D21*
X005146Y027007D03*
D22*
X005401Y026482D03*
X005386Y026332D03*
X005401Y026317D03*
X005416Y026317D03*
X006586Y026347D03*
X006361Y027592D03*
X005281Y027727D03*
X005146Y027682D03*
X005266Y027877D03*
X005281Y027877D03*
X006031Y024577D03*
X006031Y024127D03*
D23*
X006016Y024322D03*
X006001Y024337D03*
X006271Y024562D03*
X006361Y024892D03*
X006316Y024907D03*
X006406Y024877D03*
X006436Y024862D03*
X006451Y024862D03*
X006466Y024847D03*
X006496Y024832D03*
X005896Y024892D03*
X005866Y024877D03*
X005851Y024877D03*
X005836Y024862D03*
X005821Y024862D03*
X005806Y024847D03*
X005791Y024847D03*
X005776Y024832D03*
X005746Y024817D03*
X006271Y024112D03*
X006256Y023872D03*
X006016Y023872D03*
X005851Y023557D03*
X005836Y023557D03*
X005821Y023572D03*
X005806Y023572D03*
X005791Y023587D03*
X005761Y023602D03*
X005881Y023542D03*
X005926Y023527D03*
X006346Y023527D03*
X006391Y023542D03*
X006421Y023557D03*
X006436Y023557D03*
X006451Y023572D03*
X006481Y023587D03*
X006766Y026002D03*
X006661Y026347D03*
X006646Y026347D03*
X006766Y026692D03*
X006751Y026707D03*
X005986Y026722D03*
X005971Y026707D03*
X005311Y026332D03*
X005176Y026362D03*
X005956Y026017D03*
X005971Y026002D03*
X005986Y025987D03*
X005971Y027427D03*
X006196Y027622D03*
X006406Y027592D03*
X006526Y027622D03*
X006751Y027427D03*
X006766Y027442D03*
X006526Y027952D03*
X006511Y027967D03*
X006481Y027982D03*
X006241Y027982D03*
X006211Y027967D03*
X006196Y027952D03*
X005986Y028147D03*
X005971Y028132D03*
X005326Y027712D03*
X005161Y027877D03*
X005146Y027877D03*
X006751Y028147D03*
X006766Y028132D03*
D24*
X005176Y028619D03*
X005161Y028619D03*
X005146Y028619D03*
X005446Y025439D03*
D25*
X005761Y024824D03*
X005731Y024809D03*
X005716Y024794D03*
X006361Y024449D03*
X006541Y024794D03*
X006556Y024794D03*
X006571Y024779D03*
X006526Y024809D03*
X006511Y024824D03*
X006481Y024839D03*
X006916Y024209D03*
X006361Y023999D03*
X006001Y023879D03*
X005776Y023594D03*
X005746Y023609D03*
X005731Y023624D03*
X006466Y023579D03*
X006496Y023594D03*
X006511Y023609D03*
X006526Y023609D03*
X006541Y023624D03*
X006556Y023639D03*
X006781Y026024D03*
X006256Y026354D03*
X006241Y026354D03*
X006226Y026354D03*
X006211Y026354D03*
X006196Y026354D03*
X006181Y026354D03*
X006166Y026354D03*
X006151Y026354D03*
X006136Y026354D03*
X006121Y026354D03*
X006106Y026354D03*
X006091Y026354D03*
X006076Y026354D03*
X006061Y026354D03*
X006046Y026354D03*
X006031Y026354D03*
X006016Y026354D03*
X006001Y026354D03*
X005941Y026039D03*
X005956Y026684D03*
X006781Y026669D03*
X006796Y026654D03*
X006781Y027464D03*
X006541Y027644D03*
X006181Y027629D03*
X005956Y027449D03*
X006181Y027944D03*
X005956Y028109D03*
X005941Y028094D03*
X005446Y027749D03*
X006781Y028109D03*
X005161Y026354D03*
D26*
X005161Y026992D03*
D27*
X005371Y026482D03*
X006736Y026347D03*
X006346Y027592D03*
X005416Y027562D03*
X005236Y027727D03*
X005221Y027727D03*
X005206Y027727D03*
X005176Y027712D03*
X005161Y027697D03*
X005311Y027877D03*
X005326Y027877D03*
X006226Y024562D03*
X006226Y024112D03*
D28*
X005176Y023677D03*
D29*
X005176Y025132D03*
D30*
X005176Y026984D03*
X005191Y026984D03*
X005311Y026999D03*
D31*
X005461Y026474D03*
X005326Y026324D03*
X005266Y026369D03*
X005206Y026369D03*
X005191Y026369D03*
X006001Y026729D03*
X006016Y026744D03*
X006046Y026774D03*
X006046Y027359D03*
X006031Y027374D03*
X006016Y027389D03*
X006001Y027404D03*
X005986Y027419D03*
X006211Y027614D03*
X006226Y027599D03*
X006241Y027599D03*
X006256Y027599D03*
X006451Y027599D03*
X006466Y027599D03*
X006481Y027599D03*
X006511Y027614D03*
X006661Y027779D03*
X006496Y027974D03*
X006466Y027989D03*
X006451Y027989D03*
X006421Y028004D03*
X006406Y028004D03*
X006391Y028004D03*
X006376Y028004D03*
X006361Y028004D03*
X006346Y028004D03*
X006331Y028004D03*
X006316Y028004D03*
X006301Y028004D03*
X006286Y027989D03*
X006271Y027989D03*
X006256Y027989D03*
X006226Y027974D03*
X006016Y028184D03*
X006001Y028169D03*
X006031Y028199D03*
X006691Y028199D03*
X006706Y028184D03*
X006721Y028169D03*
X006736Y028154D03*
X006736Y027404D03*
X006721Y027389D03*
X006706Y027374D03*
X006706Y026759D03*
X006721Y026744D03*
X006736Y026729D03*
X006691Y026354D03*
X006676Y026354D03*
X006631Y026354D03*
X006751Y025994D03*
X006736Y025979D03*
X006721Y025964D03*
X006706Y025949D03*
X006691Y025934D03*
X006001Y025964D03*
X006091Y024929D03*
X006106Y024929D03*
X006121Y024929D03*
X006136Y024929D03*
X006151Y024929D03*
X006166Y024929D03*
X006181Y024929D03*
X006256Y024914D03*
X006271Y024914D03*
X006286Y024914D03*
X006301Y024914D03*
X006331Y024899D03*
X006346Y024899D03*
X006376Y024884D03*
X006391Y024884D03*
X006421Y024869D03*
X006001Y024914D03*
X005986Y024914D03*
X005971Y024914D03*
X005956Y024914D03*
X005941Y024899D03*
X005926Y024899D03*
X005911Y024899D03*
X005881Y024884D03*
X006001Y024584D03*
X006031Y024314D03*
X006046Y024299D03*
X006061Y024299D03*
X006211Y024299D03*
X006241Y024314D03*
X006256Y024329D03*
X006001Y024119D03*
X006031Y023849D03*
X006046Y023849D03*
X006061Y023849D03*
X006106Y023834D03*
X006121Y023834D03*
X006136Y023834D03*
X006151Y023834D03*
X006166Y023834D03*
X006211Y023849D03*
X006226Y023849D03*
X006241Y023864D03*
X006301Y023519D03*
X006316Y023519D03*
X006331Y023519D03*
X006361Y023534D03*
X006376Y023534D03*
X006406Y023549D03*
X006286Y023504D03*
X006271Y023504D03*
X006256Y023504D03*
X006241Y023504D03*
X006226Y023504D03*
X006211Y023504D03*
X006196Y023504D03*
X006136Y023489D03*
X006076Y023504D03*
X006061Y023504D03*
X006046Y023504D03*
X006031Y023504D03*
X006016Y023504D03*
X006001Y023504D03*
X005986Y023504D03*
X005971Y023519D03*
X005956Y023519D03*
X005941Y023519D03*
X005911Y023534D03*
X005896Y023534D03*
X005866Y023549D03*
X005431Y027749D03*
X005176Y027884D03*
D32*
X005191Y023602D03*
D33*
X005191Y025199D03*
D34*
X005446Y026294D03*
X005431Y026309D03*
X005386Y026474D03*
X005191Y027569D03*
X005251Y027734D03*
X005266Y027734D03*
X005296Y027884D03*
X005641Y029174D03*
X005656Y029174D03*
X005671Y029174D03*
X005686Y029174D03*
X005701Y029174D03*
X005716Y029174D03*
X005731Y029174D03*
X005746Y029174D03*
X005761Y029174D03*
X005776Y029174D03*
X005791Y029174D03*
X005806Y029174D03*
X005821Y029174D03*
X005836Y029174D03*
X005851Y029174D03*
X005866Y029174D03*
X005881Y029174D03*
X005896Y029174D03*
X005911Y029174D03*
X005926Y029174D03*
X005941Y029174D03*
X005956Y029174D03*
X005971Y029174D03*
X005986Y029174D03*
X006001Y029174D03*
X006016Y029174D03*
X006031Y029174D03*
X006046Y029174D03*
X006061Y029174D03*
X006076Y029174D03*
X006091Y029174D03*
X006106Y029174D03*
X006121Y029174D03*
X006136Y029174D03*
X006151Y029174D03*
X006166Y029174D03*
X006181Y029174D03*
X006196Y029174D03*
X006211Y029174D03*
X006226Y029174D03*
X006241Y029174D03*
X006256Y029174D03*
X006271Y029174D03*
X006286Y029174D03*
X006301Y029174D03*
X006316Y029174D03*
X006331Y029174D03*
X006346Y029174D03*
X006361Y029174D03*
X006376Y029174D03*
X006391Y029174D03*
X006406Y029174D03*
X006421Y029174D03*
X006436Y029174D03*
X006451Y029174D03*
X006466Y029174D03*
X006481Y029174D03*
X006496Y029174D03*
X006511Y029174D03*
X006526Y029174D03*
X006541Y029174D03*
X006556Y029174D03*
X006571Y029174D03*
X006586Y029174D03*
X006601Y029174D03*
X006616Y029174D03*
X006631Y029174D03*
X006646Y029174D03*
X006661Y029174D03*
X006676Y029174D03*
X006691Y029174D03*
X006706Y029174D03*
X006721Y029174D03*
X006736Y029174D03*
X006751Y029174D03*
X006766Y029174D03*
X006781Y029174D03*
X006796Y029174D03*
X006811Y029174D03*
X006826Y029174D03*
X006841Y029174D03*
X006856Y029174D03*
X006871Y029174D03*
X006886Y029174D03*
X006901Y029174D03*
X006916Y029174D03*
X006931Y029174D03*
X006946Y029174D03*
X006961Y029174D03*
X006976Y029174D03*
X006991Y029174D03*
X007006Y029174D03*
X007021Y029174D03*
X007036Y029174D03*
X007051Y029159D03*
X007051Y023204D03*
D35*
X006376Y023999D03*
X006046Y024119D03*
X006046Y024569D03*
X006376Y024449D03*
X005356Y026474D03*
X005191Y027719D03*
X005341Y027884D03*
X006046Y027779D03*
D36*
X006271Y027592D03*
X006391Y027592D03*
X006496Y027607D03*
X006646Y027337D03*
X006631Y027322D03*
X006601Y027307D03*
X006676Y027352D03*
X006691Y027367D03*
X006601Y026827D03*
X006631Y026812D03*
X006646Y026797D03*
X006661Y026797D03*
X006676Y026782D03*
X006691Y026767D03*
X006706Y026347D03*
X006616Y026347D03*
X006676Y025927D03*
X006661Y025912D03*
X006616Y025882D03*
X006586Y025867D03*
X006091Y025897D03*
X006076Y025912D03*
X006061Y025912D03*
X006046Y025927D03*
X006031Y025942D03*
X006016Y025957D03*
X005296Y026347D03*
X005281Y026362D03*
X005251Y026377D03*
X005236Y026377D03*
X005221Y026377D03*
X005221Y026167D03*
X005236Y026167D03*
X005251Y026167D03*
X006031Y026767D03*
X006061Y026782D03*
X006076Y026797D03*
X006121Y026827D03*
X006076Y027337D03*
X006061Y027352D03*
X005416Y027757D03*
X005401Y027757D03*
X005191Y027877D03*
X005236Y027562D03*
X006046Y028207D03*
X006061Y028222D03*
X006091Y028237D03*
X006436Y027997D03*
X006586Y028267D03*
X006616Y028252D03*
X006646Y028237D03*
X006661Y028222D03*
X006676Y028207D03*
X006241Y024922D03*
X006226Y024922D03*
X006211Y024922D03*
X006196Y024922D03*
X006076Y024922D03*
X006061Y024922D03*
X006046Y024922D03*
X006031Y024922D03*
X006016Y024922D03*
X006256Y024577D03*
X006226Y024307D03*
X006196Y024292D03*
X006181Y024292D03*
X006166Y024292D03*
X006151Y024292D03*
X006136Y024292D03*
X006121Y024292D03*
X006106Y024292D03*
X006091Y024292D03*
X006076Y024292D03*
X006256Y024127D03*
X006196Y023842D03*
X006181Y023842D03*
X006091Y023842D03*
X006076Y023842D03*
X006091Y023497D03*
X006106Y023497D03*
X006121Y023497D03*
X006151Y023497D03*
X006166Y023497D03*
X006181Y023497D03*
D37*
X005431Y025432D03*
X005206Y028612D03*
X005191Y028612D03*
D38*
X005206Y023564D03*
D39*
X005206Y025237D03*
D40*
X005206Y026159D03*
X005266Y026159D03*
X005356Y026159D03*
X005371Y026159D03*
X005386Y026159D03*
X005341Y026339D03*
X005446Y026474D03*
X006091Y026804D03*
X006106Y026819D03*
X006136Y026834D03*
X006151Y026834D03*
X006166Y026849D03*
X006181Y026849D03*
X006211Y026864D03*
X006226Y026864D03*
X006301Y026879D03*
X006316Y026879D03*
X006331Y026879D03*
X006391Y026879D03*
X006406Y026879D03*
X006421Y026879D03*
X006496Y026864D03*
X006511Y026864D03*
X006541Y026849D03*
X006556Y026849D03*
X006586Y026834D03*
X006616Y026819D03*
X006511Y027269D03*
X006496Y027269D03*
X006541Y027284D03*
X006556Y027284D03*
X006571Y027299D03*
X006586Y027299D03*
X006616Y027314D03*
X006661Y027344D03*
X006436Y027254D03*
X006421Y027254D03*
X006316Y027254D03*
X006301Y027254D03*
X006286Y027254D03*
X006226Y027269D03*
X006211Y027269D03*
X006181Y027284D03*
X006166Y027284D03*
X006151Y027299D03*
X006136Y027299D03*
X006121Y027314D03*
X006106Y027314D03*
X006091Y027329D03*
X005386Y027569D03*
X005371Y027569D03*
X005221Y027569D03*
X005206Y027569D03*
X005311Y027719D03*
X005371Y027749D03*
X005386Y027749D03*
X005206Y027884D03*
X006076Y028229D03*
X006106Y028244D03*
X006121Y028259D03*
X006136Y028259D03*
X006151Y028274D03*
X006166Y028274D03*
X006196Y028289D03*
X006211Y028289D03*
X006241Y028304D03*
X006256Y028304D03*
X006466Y028304D03*
X006481Y028304D03*
X006511Y028289D03*
X006526Y028289D03*
X006556Y028274D03*
X006571Y028274D03*
X006601Y028259D03*
X006631Y028244D03*
X006946Y027779D03*
X006946Y026354D03*
X006646Y025904D03*
X006631Y025889D03*
X006601Y025874D03*
X006571Y025859D03*
X006556Y025859D03*
X006541Y025844D03*
X006526Y025844D03*
X006511Y025844D03*
X006481Y025829D03*
X006466Y025829D03*
X006256Y025829D03*
X006241Y025829D03*
X006211Y025844D03*
X006196Y025844D03*
X006166Y025859D03*
X006151Y025859D03*
X006136Y025874D03*
X006121Y025874D03*
X006106Y025889D03*
X006016Y024584D03*
X005896Y024449D03*
X006016Y024134D03*
X005896Y023999D03*
D41*
X006781Y024217D03*
X005326Y027007D03*
X005236Y026977D03*
X005221Y026977D03*
X005206Y026977D03*
D42*
X005221Y023542D03*
D43*
X005221Y025259D03*
D44*
X005416Y025424D03*
X005251Y028604D03*
X005236Y028604D03*
X005221Y028604D03*
D45*
X005236Y023527D03*
D46*
X005236Y025282D03*
D47*
X005251Y023504D03*
D48*
X005251Y025297D03*
D49*
X005251Y027074D03*
D50*
X005266Y023489D03*
D51*
X005266Y025312D03*
D52*
X005266Y027059D03*
D53*
X005266Y028597D03*
X005281Y028597D03*
X005296Y028597D03*
X005401Y025417D03*
D54*
X005281Y023474D03*
D55*
X005281Y025327D03*
D56*
X005281Y026144D03*
X005341Y026144D03*
X005461Y026279D03*
X005371Y026324D03*
X005416Y026474D03*
X005296Y027734D03*
X006241Y024569D03*
X006241Y024119D03*
D57*
X005281Y027029D03*
D58*
X005296Y023459D03*
D59*
X005296Y025342D03*
D60*
X005296Y027014D03*
D61*
X005311Y023452D03*
D62*
X005311Y025357D03*
D63*
X005326Y028589D03*
X005311Y028589D03*
D64*
X005326Y023437D03*
D65*
X005326Y025364D03*
D66*
X005341Y023429D03*
D67*
X005341Y025379D03*
X005461Y028559D03*
D68*
X005356Y027007D03*
X005341Y027007D03*
X005476Y024217D03*
D69*
X005581Y023767D03*
X005596Y023752D03*
X005596Y024682D03*
X005611Y024697D03*
X005626Y024712D03*
X006661Y024697D03*
X006676Y024682D03*
X006676Y023752D03*
X006661Y023737D03*
X005911Y026092D03*
X005911Y026602D03*
X005911Y027532D03*
X005911Y028042D03*
X005341Y027682D03*
X006436Y027592D03*
D70*
X005371Y028582D03*
X005356Y028582D03*
X005341Y028582D03*
X005386Y025402D03*
D71*
X005356Y023414D03*
D72*
X005521Y023864D03*
X005356Y024209D03*
X005521Y024554D03*
X005941Y024449D03*
X005941Y023999D03*
X006331Y023999D03*
X006751Y023879D03*
X006931Y026354D03*
X006526Y026354D03*
X006271Y026354D03*
X006631Y027779D03*
X006931Y027779D03*
D73*
X005446Y028567D03*
X005431Y028567D03*
X005356Y025387D03*
D74*
X006181Y025852D03*
X006226Y025837D03*
X006271Y025822D03*
X006286Y025822D03*
X006301Y025822D03*
X006316Y025822D03*
X006331Y025822D03*
X006346Y025822D03*
X006361Y025822D03*
X006376Y025822D03*
X006391Y025822D03*
X006406Y025822D03*
X006421Y025822D03*
X006436Y025822D03*
X006451Y025822D03*
X006496Y025837D03*
X006601Y026347D03*
X006721Y026347D03*
X006571Y026842D03*
X006526Y026857D03*
X006481Y026872D03*
X006466Y026872D03*
X006451Y026872D03*
X006436Y026872D03*
X006376Y026887D03*
X006361Y026887D03*
X006346Y026887D03*
X006286Y026872D03*
X006271Y026872D03*
X006256Y026872D03*
X006241Y026872D03*
X006196Y026857D03*
X006241Y027262D03*
X006256Y027262D03*
X006271Y027262D03*
X006331Y027247D03*
X006346Y027247D03*
X006361Y027247D03*
X006376Y027247D03*
X006391Y027247D03*
X006406Y027247D03*
X006451Y027262D03*
X006466Y027262D03*
X006481Y027262D03*
X006526Y027277D03*
X006196Y027277D03*
X006376Y027592D03*
X005401Y027562D03*
X006181Y028282D03*
X006226Y028297D03*
X006271Y028312D03*
X006286Y028312D03*
X006301Y028312D03*
X006316Y028312D03*
X006331Y028312D03*
X006346Y028312D03*
X006361Y028312D03*
X006376Y028312D03*
X006391Y028312D03*
X006406Y028312D03*
X006421Y028312D03*
X006436Y028312D03*
X006451Y028312D03*
X006496Y028297D03*
X006541Y028282D03*
X005431Y026482D03*
X005356Y026332D03*
X005401Y026152D03*
D75*
X006541Y026354D03*
X005356Y027659D03*
X006076Y027779D03*
X005551Y024614D03*
X005536Y024584D03*
X005926Y024449D03*
X006721Y024614D03*
X006736Y024584D03*
X005926Y023999D03*
X005536Y023834D03*
D76*
X005371Y027877D03*
X005356Y027877D03*
D77*
X005371Y023407D03*
D78*
X005491Y023977D03*
X005371Y024217D03*
X005491Y024457D03*
X006151Y027787D03*
X006571Y027787D03*
D79*
X005416Y028574D03*
X005401Y028574D03*
X005386Y028574D03*
X005371Y025394D03*
D80*
X005371Y027007D03*
X005386Y027007D03*
X005401Y027022D03*
X005431Y027037D03*
X005446Y027052D03*
X005461Y027067D03*
D81*
X005386Y023399D03*
D82*
X005386Y024217D03*
D83*
X005401Y023392D03*
D84*
X005401Y024209D03*
X006871Y026354D03*
X006871Y027779D03*
D85*
X005416Y023384D03*
D86*
X005416Y024217D03*
D87*
X005416Y027029D03*
D88*
X005431Y023369D03*
D89*
X005431Y024217D03*
D90*
X005446Y023362D03*
X005461Y023362D03*
D91*
X005446Y024209D03*
X006826Y024209D03*
D92*
X006811Y024217D03*
X005461Y024217D03*
D93*
X005461Y025447D03*
D94*
X005701Y024787D03*
X005686Y024772D03*
X005671Y024757D03*
X005656Y024742D03*
X006271Y024352D03*
X006271Y023902D03*
X006571Y023647D03*
X006586Y023662D03*
X006601Y023677D03*
X006616Y023692D03*
X006631Y023707D03*
X005716Y023632D03*
X005701Y023647D03*
X005686Y023662D03*
X005671Y023677D03*
X005656Y023692D03*
X006616Y024742D03*
X006601Y024757D03*
X006586Y024772D03*
X006796Y026047D03*
X006811Y026077D03*
X005926Y026062D03*
X005941Y026662D03*
X005941Y027472D03*
X005926Y027502D03*
X006421Y027592D03*
X006541Y027937D03*
X006811Y028057D03*
X006796Y028087D03*
X006796Y027487D03*
X005926Y028072D03*
X005461Y027742D03*
D95*
X005476Y023354D03*
D96*
X005476Y026219D03*
D97*
X005491Y023347D03*
D98*
X005491Y027044D03*
D99*
X005506Y023339D03*
D100*
X005506Y023909D03*
X006316Y023999D03*
X006766Y023909D03*
X006316Y024449D03*
X005956Y024449D03*
X005506Y024524D03*
X006841Y026534D03*
X006841Y027599D03*
D101*
X005506Y027052D03*
D102*
X005521Y023332D03*
D103*
X005521Y027059D03*
D104*
X005536Y023324D03*
X005551Y023324D03*
D105*
X005536Y027067D03*
D106*
X005896Y027562D03*
X005791Y027787D03*
X005896Y028012D03*
X006646Y027787D03*
X005896Y026572D03*
X005791Y026347D03*
X005566Y024637D03*
X006346Y024457D03*
X006706Y024637D03*
X006721Y023812D03*
X006706Y023797D03*
X005551Y023812D03*
D107*
X005566Y027074D03*
X005551Y027074D03*
D108*
X005566Y023317D03*
D109*
X005566Y023789D03*
X006346Y023999D03*
X006691Y023774D03*
X006691Y024659D03*
X005581Y024659D03*
X005896Y026129D03*
X006826Y026114D03*
X006826Y026594D03*
X006826Y027539D03*
X006826Y028019D03*
D110*
X005596Y023309D03*
X005581Y023309D03*
D111*
X005596Y027082D03*
X005581Y027082D03*
D112*
X005611Y023302D03*
D113*
X005611Y027089D03*
D114*
X005626Y023294D03*
D115*
X005626Y027097D03*
D116*
X005641Y023189D03*
X005656Y023189D03*
X005671Y023189D03*
X005686Y023189D03*
X005701Y023189D03*
X005716Y023189D03*
X005731Y023189D03*
X005746Y023189D03*
X005761Y023189D03*
X005776Y023189D03*
X005791Y023189D03*
X005806Y023189D03*
X005821Y023189D03*
X005836Y023189D03*
X005851Y023189D03*
X005866Y023189D03*
X005881Y023189D03*
X005896Y023189D03*
X005911Y023189D03*
X005926Y023189D03*
X005941Y023189D03*
X005956Y023189D03*
X005971Y023189D03*
X005986Y023189D03*
X006001Y023189D03*
X006016Y023189D03*
X006031Y023189D03*
X006046Y023189D03*
X006061Y023189D03*
X006076Y023189D03*
X006091Y023189D03*
X006106Y023189D03*
X006121Y023189D03*
X006136Y023189D03*
X006151Y023189D03*
X006166Y023189D03*
X006181Y023189D03*
X006196Y023189D03*
X006211Y023189D03*
X006226Y023189D03*
X006241Y023189D03*
X006256Y023189D03*
X006271Y023189D03*
X006286Y023189D03*
X006301Y023189D03*
X006316Y023189D03*
X006331Y023189D03*
X006346Y023189D03*
X006361Y023189D03*
X006376Y023189D03*
X006391Y023189D03*
X006406Y023189D03*
X006421Y023189D03*
X006436Y023189D03*
X006451Y023189D03*
X006466Y023189D03*
X006481Y023189D03*
X006496Y023189D03*
X006511Y023189D03*
X006526Y023189D03*
X006541Y023189D03*
X006556Y023189D03*
X006571Y023189D03*
X006586Y023189D03*
X006601Y023189D03*
X006616Y023189D03*
X006631Y023189D03*
X006646Y023189D03*
X006661Y023189D03*
X006676Y023189D03*
X006691Y023189D03*
X006706Y023189D03*
X006721Y023189D03*
X006736Y023189D03*
X006751Y023189D03*
X006766Y023189D03*
X006781Y023189D03*
X006796Y023189D03*
X006811Y023189D03*
X006826Y023189D03*
X006841Y023189D03*
X006856Y023189D03*
X006871Y023189D03*
X006886Y023189D03*
X006901Y023189D03*
X006916Y023189D03*
X006931Y023189D03*
X006946Y023189D03*
X006961Y023189D03*
X006976Y023189D03*
X006991Y023189D03*
X007006Y023189D03*
X007021Y023189D03*
X007036Y023189D03*
D117*
X006301Y023999D03*
X005971Y023999D03*
X005971Y024449D03*
X006301Y024449D03*
X005806Y026354D03*
X005806Y027779D03*
X006106Y027779D03*
D118*
X005821Y027779D03*
X005821Y026354D03*
D119*
X005836Y026354D03*
X005836Y027779D03*
D120*
X005851Y026354D03*
D121*
X005851Y027787D03*
D122*
X005866Y027787D03*
X005866Y026347D03*
D123*
X005881Y026354D03*
X005881Y027779D03*
X006856Y024209D03*
D124*
X006766Y024517D03*
X005956Y023992D03*
X006616Y027787D03*
D125*
X006121Y027779D03*
X005986Y024449D03*
X006901Y024209D03*
X005986Y023999D03*
D126*
X006751Y024547D03*
X006841Y026167D03*
X006511Y026347D03*
X006496Y026347D03*
X006481Y026347D03*
X006466Y026347D03*
X006451Y026347D03*
X006436Y026347D03*
X006421Y026347D03*
X006406Y026347D03*
X006391Y026347D03*
X006376Y026347D03*
X006361Y026347D03*
X006346Y026347D03*
X006331Y026347D03*
X006316Y026347D03*
X006301Y026347D03*
X006286Y026347D03*
X006091Y027787D03*
X006841Y027967D03*
D127*
X006136Y027779D03*
D128*
X006166Y027787D03*
X006556Y027787D03*
D129*
X006601Y027787D03*
X006286Y024457D03*
X006286Y023992D03*
D130*
X006736Y023842D03*
X006331Y024457D03*
D131*
X006916Y026347D03*
X006916Y027787D03*
X006586Y027787D03*
D132*
X006796Y024209D03*
D133*
X006841Y024209D03*
D134*
X006856Y026347D03*
X006856Y027787D03*
D135*
X006871Y024217D03*
D136*
X006886Y024217D03*
D137*
X006886Y026354D03*
X006886Y027779D03*
D138*
X006901Y027779D03*
X006901Y026354D03*
D139*
X007066Y026182D03*
D140*
X007081Y026182D03*
D141*
X007096Y026182D03*
D142*
X007111Y026182D03*
D143*
X004266Y015637D02*
X004183Y015637D01*
X004170Y015636D01*
X004157Y015631D01*
X004146Y015624D01*
X004137Y015615D01*
X004130Y015604D01*
X004125Y015591D01*
X004124Y015578D01*
X004124Y013255D01*
X004125Y013242D01*
X004130Y013229D01*
X004137Y013218D01*
X004146Y013209D01*
X004157Y013202D01*
X004170Y013197D01*
X004183Y013196D01*
X004266Y013196D01*
X004253Y013197D01*
X004240Y013202D01*
X004229Y013209D01*
X004220Y013218D01*
X004213Y013229D01*
X004208Y013242D01*
X004207Y013255D01*
X004207Y015578D01*
X004208Y015591D01*
X004213Y015604D01*
X004220Y015615D01*
X004229Y015624D01*
X004240Y015631D01*
X004253Y015636D01*
X004266Y015637D01*
D144*
X016026Y023748D02*
X016026Y023933D01*
X016088Y023994D01*
X016149Y023933D01*
X016149Y023748D01*
X016273Y023748D02*
X016273Y023994D01*
X016211Y023994D01*
X016149Y023933D01*
X016394Y023933D02*
X016394Y023748D01*
X016518Y023748D02*
X016518Y023933D01*
X016456Y023994D01*
X016394Y023933D01*
X016518Y023933D02*
X016580Y023994D01*
X016641Y023994D01*
X016641Y023748D01*
X016763Y023809D02*
X016824Y023748D01*
X016948Y023748D01*
X017010Y023809D01*
X017131Y023809D02*
X017131Y023871D01*
X017193Y023933D01*
X017378Y023933D01*
X017378Y023809D01*
X017316Y023748D01*
X017193Y023748D01*
X017131Y023809D01*
X017010Y023933D02*
X016886Y023994D01*
X016824Y023994D01*
X016763Y023933D01*
X016763Y023809D01*
X017010Y023933D02*
X017010Y024118D01*
X016763Y024118D01*
X016825Y024259D02*
X016825Y024630D01*
X016640Y024630D01*
X016579Y024568D01*
X016579Y024445D01*
X016640Y024383D01*
X016825Y024383D01*
X017070Y024445D02*
X017194Y024445D01*
X017315Y024568D02*
X017315Y024321D01*
X017377Y024259D01*
X017500Y024259D01*
X017562Y024321D01*
X017562Y024568D01*
X017500Y024630D01*
X017377Y024630D01*
X017315Y024568D01*
X017194Y024630D02*
X016947Y024630D01*
X017194Y024630D02*
X017194Y024259D01*
X017315Y024259D02*
X017439Y024383D01*
X017683Y024506D02*
X017930Y024259D01*
X017869Y024118D02*
X017745Y024118D01*
X017683Y024056D01*
X017930Y023809D01*
X017869Y023748D01*
X017745Y023748D01*
X017683Y023809D01*
X017683Y024056D01*
X017869Y024118D02*
X017930Y024056D01*
X017930Y023809D01*
X017562Y023809D02*
X017500Y023809D01*
X017500Y023748D01*
X017562Y023748D01*
X017562Y023809D01*
X017378Y023933D02*
X017254Y024056D01*
X017131Y024118D01*
X017683Y024259D02*
X017930Y024506D01*
X014877Y026991D02*
X014803Y026917D01*
X014778Y026991D01*
X014754Y027016D01*
X014704Y027016D01*
X014654Y026966D01*
X014654Y026917D01*
X014704Y026867D01*
X014754Y026867D01*
X014877Y026991D02*
X014778Y027090D01*
X014696Y027122D02*
X014696Y027172D01*
X014647Y027221D01*
X014597Y027221D01*
X014573Y027197D01*
X014573Y026999D01*
X014473Y027098D01*
X012462Y029158D02*
X012487Y029183D01*
X012487Y029233D01*
X012437Y029282D01*
X012388Y029282D01*
X012363Y029258D01*
X012363Y029208D01*
X012413Y029158D01*
X012462Y029158D01*
X012487Y029233D02*
X012536Y029233D01*
X012561Y029258D01*
X012561Y029307D01*
X012512Y029357D01*
X012462Y029357D01*
X012437Y029332D01*
X012437Y029282D01*
X012306Y029315D02*
X012306Y029513D01*
X012207Y029414D01*
X012207Y029364D01*
X012256Y029315D01*
X012306Y029315D01*
X012405Y029414D01*
X012405Y029463D01*
X012356Y029513D01*
X012306Y029513D01*
M02*
