G04 EAGLE Gerber RS-274X export*
G75*
%MOMM*%
%FSLAX34Y34*%
%LPD*%
%INTop Copper*%
%IPPOS*%
%AMOC8*
5,1,8,0,0,1.08239X$1,22.5*%
G01*
%ADD10R,0.762000X1.270000*%
%ADD11R,5.334000X1.930400*%
%ADD12R,1.500000X1.300000*%
%ADD13R,1.300000X1.500000*%
%ADD14R,1.200000X1.200000*%
%ADD15R,1.600000X1.300000*%
%ADD16C,1.422400*%
%ADD17R,1.300000X1.600000*%
%ADD18R,1.000000X1.400000*%
%ADD19R,1.625600X1.625600*%
%ADD20P,1.759533X8X112.500000*%
%ADD21R,2.500000X2.000000*%
%ADD22R,2.500000X0.500000*%
%ADD23R,1.050000X0.500000*%
%ADD24P,1.539592X8X292.500000*%
%ADD25C,0.254000*%
%ADD26C,1.016000*%
%ADD27C,0.355600*%
%ADD28C,1.143000*%
%ADD29C,0.660400*%

G36*
X595902Y168201D02*
X595902Y168201D01*
X595920Y168199D01*
X596102Y168220D01*
X596285Y168239D01*
X596302Y168244D01*
X596319Y168246D01*
X596494Y168303D01*
X596670Y168357D01*
X596685Y168365D01*
X596702Y168371D01*
X596862Y168461D01*
X597024Y168549D01*
X597037Y168560D01*
X597053Y168569D01*
X597192Y168689D01*
X597333Y168806D01*
X597344Y168820D01*
X597358Y168832D01*
X597470Y168977D01*
X597585Y169120D01*
X597593Y169136D01*
X597604Y169150D01*
X597686Y169315D01*
X597771Y169477D01*
X597776Y169494D01*
X597784Y169510D01*
X597831Y169689D01*
X597882Y169864D01*
X597884Y169882D01*
X597888Y169899D01*
X597915Y170230D01*
X597915Y232528D01*
X597913Y232546D01*
X597915Y232564D01*
X597894Y232746D01*
X597875Y232929D01*
X597870Y232946D01*
X597868Y232963D01*
X597811Y233138D01*
X597757Y233314D01*
X597749Y233329D01*
X597743Y233346D01*
X597653Y233506D01*
X597565Y233668D01*
X597554Y233681D01*
X597545Y233697D01*
X597425Y233836D01*
X597308Y233977D01*
X597294Y233988D01*
X597282Y234002D01*
X597137Y234114D01*
X596994Y234229D01*
X596978Y234237D01*
X596964Y234248D01*
X596799Y234330D01*
X596637Y234415D01*
X596620Y234420D01*
X596604Y234428D01*
X596425Y234475D01*
X596250Y234526D01*
X596232Y234528D01*
X596215Y234532D01*
X595884Y234559D01*
X570505Y234559D01*
X568719Y236345D01*
X568719Y258871D01*
X570505Y260657D01*
X595884Y260657D01*
X595902Y260659D01*
X595920Y260657D01*
X596102Y260678D01*
X596285Y260697D01*
X596302Y260702D01*
X596319Y260704D01*
X596494Y260761D01*
X596670Y260815D01*
X596685Y260823D01*
X596702Y260829D01*
X596862Y260919D01*
X597024Y261007D01*
X597037Y261018D01*
X597053Y261027D01*
X597192Y261147D01*
X597333Y261264D01*
X597344Y261278D01*
X597358Y261290D01*
X597470Y261435D01*
X597585Y261578D01*
X597593Y261594D01*
X597604Y261608D01*
X597686Y261773D01*
X597771Y261935D01*
X597776Y261952D01*
X597784Y261968D01*
X597831Y262147D01*
X597882Y262322D01*
X597884Y262340D01*
X597888Y262357D01*
X597915Y262688D01*
X597915Y322528D01*
X597913Y322546D01*
X597915Y322564D01*
X597894Y322746D01*
X597875Y322929D01*
X597870Y322946D01*
X597868Y322963D01*
X597811Y323138D01*
X597757Y323314D01*
X597749Y323329D01*
X597743Y323346D01*
X597653Y323506D01*
X597565Y323668D01*
X597554Y323681D01*
X597545Y323697D01*
X597425Y323836D01*
X597308Y323977D01*
X597294Y323988D01*
X597282Y324002D01*
X597137Y324114D01*
X596994Y324229D01*
X596978Y324237D01*
X596964Y324248D01*
X596799Y324330D01*
X596637Y324415D01*
X596620Y324420D01*
X596604Y324428D01*
X596425Y324475D01*
X596250Y324526D01*
X596232Y324528D01*
X596215Y324532D01*
X595884Y324559D01*
X570505Y324559D01*
X568719Y326345D01*
X568719Y348871D01*
X570505Y350657D01*
X595884Y350657D01*
X595902Y350659D01*
X595920Y350657D01*
X596102Y350678D01*
X596285Y350697D01*
X596302Y350702D01*
X596319Y350704D01*
X596494Y350761D01*
X596670Y350815D01*
X596685Y350823D01*
X596702Y350829D01*
X596862Y350919D01*
X597024Y351007D01*
X597037Y351018D01*
X597053Y351027D01*
X597192Y351147D01*
X597333Y351264D01*
X597344Y351278D01*
X597358Y351290D01*
X597470Y351435D01*
X597585Y351578D01*
X597593Y351594D01*
X597604Y351608D01*
X597686Y351773D01*
X597771Y351935D01*
X597776Y351952D01*
X597784Y351968D01*
X597831Y352145D01*
X597882Y352322D01*
X597884Y352340D01*
X597888Y352357D01*
X597915Y352688D01*
X597915Y413970D01*
X597913Y413988D01*
X597915Y414006D01*
X597894Y414188D01*
X597875Y414371D01*
X597870Y414388D01*
X597868Y414405D01*
X597811Y414580D01*
X597757Y414756D01*
X597749Y414771D01*
X597743Y414788D01*
X597653Y414947D01*
X597565Y415110D01*
X597554Y415123D01*
X597545Y415139D01*
X597425Y415278D01*
X597308Y415419D01*
X597294Y415430D01*
X597282Y415444D01*
X597137Y415556D01*
X596994Y415671D01*
X596978Y415679D01*
X596964Y415690D01*
X596799Y415772D01*
X596637Y415857D01*
X596620Y415862D01*
X596604Y415870D01*
X596425Y415917D01*
X596250Y415968D01*
X596232Y415970D01*
X596215Y415974D01*
X595884Y416001D01*
X206628Y416001D01*
X206610Y415999D01*
X206592Y416001D01*
X206410Y415980D01*
X206227Y415961D01*
X206210Y415956D01*
X206193Y415954D01*
X206018Y415897D01*
X205842Y415843D01*
X205827Y415835D01*
X205810Y415829D01*
X205650Y415739D01*
X205488Y415651D01*
X205475Y415640D01*
X205459Y415631D01*
X205320Y415511D01*
X205179Y415394D01*
X205168Y415380D01*
X205154Y415368D01*
X205042Y415223D01*
X204927Y415080D01*
X204919Y415064D01*
X204908Y415050D01*
X204826Y414885D01*
X204741Y414723D01*
X204736Y414706D01*
X204728Y414690D01*
X204681Y414511D01*
X204630Y414336D01*
X204628Y414318D01*
X204624Y414301D01*
X204597Y413970D01*
X204597Y363448D01*
X204598Y363439D01*
X204597Y363430D01*
X204618Y363238D01*
X204637Y363047D01*
X204639Y363039D01*
X204640Y363030D01*
X204698Y362848D01*
X204755Y362662D01*
X204759Y362655D01*
X204762Y362646D01*
X204855Y362478D01*
X204947Y362308D01*
X204952Y362302D01*
X204957Y362294D01*
X205082Y362146D01*
X205204Y361999D01*
X205211Y361994D01*
X205217Y361987D01*
X205369Y361867D01*
X205518Y361747D01*
X205526Y361743D01*
X205533Y361737D01*
X205705Y361650D01*
X205875Y361561D01*
X205884Y361559D01*
X205892Y361555D01*
X206078Y361503D01*
X206262Y361450D01*
X206271Y361449D01*
X206280Y361447D01*
X206472Y361433D01*
X206664Y361417D01*
X206672Y361418D01*
X206681Y361417D01*
X206874Y361442D01*
X207063Y361464D01*
X207072Y361467D01*
X207081Y361468D01*
X207264Y361529D01*
X207446Y361589D01*
X207454Y361593D01*
X207462Y361596D01*
X207628Y361691D01*
X207797Y361787D01*
X207804Y361793D01*
X207811Y361797D01*
X208064Y362012D01*
X209878Y363826D01*
X213613Y365373D01*
X231879Y365373D01*
X235614Y363826D01*
X238472Y360968D01*
X238548Y360785D01*
X238558Y360765D01*
X238565Y360744D01*
X238653Y360588D01*
X238738Y360430D01*
X238752Y360413D01*
X238763Y360393D01*
X238880Y360258D01*
X238994Y360119D01*
X239012Y360105D01*
X239026Y360088D01*
X239168Y359979D01*
X239307Y359866D01*
X239327Y359855D01*
X239344Y359842D01*
X239505Y359762D01*
X239663Y359679D01*
X239685Y359672D01*
X239705Y359662D01*
X239878Y359616D01*
X240050Y359566D01*
X240072Y359564D01*
X240094Y359558D01*
X240424Y359531D01*
X246918Y359531D01*
X246944Y359533D01*
X246971Y359531D01*
X247145Y359553D01*
X247318Y359571D01*
X247344Y359578D01*
X247370Y359582D01*
X247536Y359637D01*
X247703Y359689D01*
X247727Y359702D01*
X247752Y359710D01*
X247904Y359797D01*
X248057Y359881D01*
X248078Y359898D01*
X248101Y359911D01*
X248354Y360126D01*
X251554Y363325D01*
X253141Y363983D01*
X268468Y363983D01*
X268477Y363984D01*
X268486Y363983D01*
X268678Y364004D01*
X268868Y364023D01*
X268877Y364025D01*
X268886Y364026D01*
X269068Y364084D01*
X269253Y364141D01*
X269261Y364145D01*
X269270Y364148D01*
X269438Y364241D01*
X269607Y364333D01*
X269614Y364338D01*
X269622Y364343D01*
X269770Y364468D01*
X269917Y364590D01*
X269922Y364597D01*
X269929Y364603D01*
X270048Y364754D01*
X270169Y364904D01*
X270173Y364912D01*
X270179Y364919D01*
X270266Y365090D01*
X270355Y365261D01*
X270357Y365270D01*
X270361Y365278D01*
X270413Y365464D01*
X270466Y365648D01*
X270467Y365657D01*
X270469Y365666D01*
X270483Y365858D01*
X270499Y366050D01*
X270498Y366058D01*
X270498Y366067D01*
X270474Y366260D01*
X270452Y366449D01*
X270449Y366458D01*
X270448Y366467D01*
X270387Y366650D01*
X270327Y366832D01*
X270323Y366840D01*
X270320Y366848D01*
X270224Y367014D01*
X270129Y367183D01*
X270123Y367190D01*
X270119Y367197D01*
X269904Y367450D01*
X269135Y368219D01*
X269103Y368324D01*
X269095Y368339D01*
X269089Y368356D01*
X268999Y368516D01*
X268911Y368678D01*
X268900Y368691D01*
X268891Y368707D01*
X268771Y368846D01*
X268654Y368987D01*
X268640Y368998D01*
X268628Y369012D01*
X268483Y369124D01*
X268340Y369239D01*
X268324Y369247D01*
X268310Y369258D01*
X268145Y369340D01*
X267983Y369425D01*
X267966Y369430D01*
X267950Y369438D01*
X267771Y369485D01*
X267596Y369536D01*
X267578Y369538D01*
X267561Y369542D01*
X267230Y369569D01*
X251109Y369569D01*
X249522Y370227D01*
X247216Y372532D01*
X247195Y372549D01*
X247178Y372570D01*
X247040Y372677D01*
X246905Y372787D01*
X246881Y372800D01*
X246860Y372816D01*
X246703Y372894D01*
X246549Y372976D01*
X246523Y372984D01*
X246499Y372996D01*
X246330Y373041D01*
X246163Y373091D01*
X246136Y373093D01*
X246110Y373100D01*
X245780Y373127D01*
X238887Y373127D01*
X237101Y374913D01*
X237101Y390439D01*
X237402Y390740D01*
X237413Y390754D01*
X237427Y390765D01*
X237541Y390909D01*
X237657Y391051D01*
X237666Y391067D01*
X237677Y391081D01*
X237760Y391245D01*
X237846Y391407D01*
X237851Y391424D01*
X237859Y391440D01*
X237908Y391617D01*
X237961Y391793D01*
X237962Y391811D01*
X237967Y391828D01*
X237980Y392011D01*
X237997Y392194D01*
X237995Y392212D01*
X237996Y392229D01*
X237973Y392411D01*
X237954Y392594D01*
X237948Y392611D01*
X237946Y392629D01*
X237888Y392802D01*
X237832Y392978D01*
X237823Y392994D01*
X237818Y393010D01*
X237726Y393170D01*
X237637Y393330D01*
X237626Y393344D01*
X237617Y393359D01*
X237402Y393612D01*
X237101Y393913D01*
X237101Y409439D01*
X238887Y411225D01*
X256413Y411225D01*
X258199Y409439D01*
X258199Y404622D01*
X258201Y404604D01*
X258199Y404586D01*
X258220Y404404D01*
X258239Y404221D01*
X258244Y404204D01*
X258246Y404187D01*
X258303Y404012D01*
X258357Y403836D01*
X258365Y403821D01*
X258371Y403804D01*
X258461Y403644D01*
X258549Y403482D01*
X258560Y403469D01*
X258569Y403453D01*
X258689Y403314D01*
X258806Y403173D01*
X258820Y403162D01*
X258832Y403148D01*
X258977Y403036D01*
X259120Y402921D01*
X259136Y402913D01*
X259150Y402902D01*
X259315Y402820D01*
X259477Y402735D01*
X259494Y402730D01*
X259510Y402722D01*
X259689Y402675D01*
X259864Y402624D01*
X259882Y402622D01*
X259899Y402618D01*
X260230Y402591D01*
X267208Y402591D01*
X267226Y402593D01*
X267244Y402591D01*
X267426Y402612D01*
X267609Y402631D01*
X267626Y402636D01*
X267643Y402638D01*
X267818Y402695D01*
X267994Y402749D01*
X268009Y402757D01*
X268026Y402763D01*
X268186Y402853D01*
X268348Y402941D01*
X268361Y402952D01*
X268377Y402961D01*
X268516Y403081D01*
X268657Y403198D01*
X268668Y403212D01*
X268682Y403224D01*
X268794Y403369D01*
X268909Y403512D01*
X268917Y403528D01*
X268928Y403542D01*
X269010Y403707D01*
X269095Y403869D01*
X269100Y403886D01*
X269108Y403902D01*
X269155Y404081D01*
X269206Y404256D01*
X269208Y404274D01*
X269212Y404291D01*
X269239Y404622D01*
X269239Y407663D01*
X271025Y409449D01*
X289807Y409449D01*
X291593Y407663D01*
X291593Y404759D01*
X291594Y404750D01*
X291593Y404741D01*
X291614Y404548D01*
X291633Y404358D01*
X291635Y404350D01*
X291636Y404341D01*
X291694Y404157D01*
X291751Y403973D01*
X291755Y403965D01*
X291758Y403957D01*
X291851Y403788D01*
X291943Y403619D01*
X291948Y403612D01*
X291953Y403605D01*
X292077Y403458D01*
X292200Y403310D01*
X292207Y403304D01*
X292213Y403298D01*
X292364Y403179D01*
X292514Y403058D01*
X292522Y403054D01*
X292529Y403048D01*
X292702Y402960D01*
X292871Y402872D01*
X292880Y402870D01*
X292888Y402866D01*
X293074Y402814D01*
X293258Y402761D01*
X293267Y402760D01*
X293276Y402758D01*
X293469Y402744D01*
X293660Y402728D01*
X293668Y402729D01*
X293677Y402728D01*
X293870Y402753D01*
X294059Y402775D01*
X294068Y402778D01*
X294077Y402779D01*
X294259Y402840D01*
X294442Y402900D01*
X294450Y402904D01*
X294458Y402907D01*
X294625Y403003D01*
X294793Y403098D01*
X294800Y403103D01*
X294807Y403108D01*
X295060Y403323D01*
X301186Y409449D01*
X310446Y409449D01*
X317439Y402455D01*
X317453Y402444D01*
X317464Y402430D01*
X317608Y402317D01*
X317750Y402200D01*
X317766Y402192D01*
X317780Y402181D01*
X317944Y402098D01*
X318106Y402012D01*
X318123Y402007D01*
X318139Y401998D01*
X318316Y401949D01*
X318492Y401897D01*
X318510Y401895D01*
X318527Y401890D01*
X318710Y401877D01*
X318893Y401860D01*
X318911Y401862D01*
X318929Y401861D01*
X319110Y401884D01*
X319293Y401904D01*
X319310Y401909D01*
X319328Y401912D01*
X319501Y401970D01*
X319677Y402025D01*
X319693Y402034D01*
X319710Y402040D01*
X319869Y402132D01*
X320029Y402220D01*
X320043Y402232D01*
X320059Y402241D01*
X320312Y402455D01*
X326797Y408941D01*
X328677Y408941D01*
X328677Y398780D01*
X328678Y398762D01*
X328677Y398745D01*
X328698Y398562D01*
X328717Y398380D01*
X328722Y398363D01*
X328724Y398345D01*
X328749Y398267D01*
X328710Y398130D01*
X328708Y398112D01*
X328704Y398095D01*
X328677Y397764D01*
X328677Y387603D01*
X326797Y387603D01*
X320312Y394089D01*
X320298Y394100D01*
X320286Y394114D01*
X320142Y394227D01*
X320000Y394344D01*
X319984Y394352D01*
X319970Y394363D01*
X319806Y394447D01*
X319644Y394532D01*
X319627Y394537D01*
X319611Y394546D01*
X319434Y394595D01*
X319258Y394647D01*
X319241Y394649D01*
X319223Y394654D01*
X319040Y394667D01*
X318857Y394684D01*
X318840Y394682D01*
X318822Y394683D01*
X318640Y394660D01*
X318457Y394640D01*
X318440Y394635D01*
X318422Y394632D01*
X318249Y394574D01*
X318073Y394519D01*
X318058Y394510D01*
X318041Y394504D01*
X317881Y394412D01*
X317721Y394324D01*
X317707Y394312D01*
X317692Y394303D01*
X317439Y394089D01*
X310730Y387379D01*
X310713Y387359D01*
X310692Y387341D01*
X310585Y387203D01*
X310475Y387068D01*
X310462Y387044D01*
X310446Y387023D01*
X310368Y386866D01*
X310286Y386712D01*
X310278Y386687D01*
X310266Y386663D01*
X310221Y386493D01*
X310171Y386326D01*
X310169Y386300D01*
X310162Y386274D01*
X310135Y385943D01*
X310135Y373029D01*
X310013Y372736D01*
X310004Y372706D01*
X309990Y372678D01*
X309946Y372513D01*
X309897Y372351D01*
X309894Y372320D01*
X309886Y372289D01*
X309859Y371959D01*
X309859Y368093D01*
X308467Y366701D01*
X308458Y366691D01*
X308448Y366682D01*
X308331Y366535D01*
X308212Y366390D01*
X308206Y366378D01*
X308197Y366368D01*
X308112Y366201D01*
X308023Y366034D01*
X308019Y366021D01*
X308013Y366009D01*
X307962Y365830D01*
X307908Y365648D01*
X307907Y365635D01*
X307904Y365622D01*
X307889Y365436D01*
X307872Y365247D01*
X307873Y365234D01*
X307872Y365221D01*
X307895Y365036D01*
X307915Y364847D01*
X307920Y364834D01*
X307921Y364821D01*
X307980Y364644D01*
X308037Y364463D01*
X308043Y364451D01*
X308048Y364439D01*
X308141Y364276D01*
X308232Y364111D01*
X308240Y364101D01*
X308247Y364089D01*
X308371Y363947D01*
X308492Y363804D01*
X308503Y363796D01*
X308512Y363785D01*
X308660Y363671D01*
X308808Y363554D01*
X308820Y363548D01*
X308831Y363540D01*
X309126Y363388D01*
X309278Y363325D01*
X316589Y356014D01*
X316852Y355380D01*
X316858Y355368D01*
X316863Y355355D01*
X316953Y355191D01*
X317042Y355025D01*
X317051Y355014D01*
X317057Y355003D01*
X317179Y354859D01*
X317299Y354714D01*
X317309Y354706D01*
X317318Y354696D01*
X317465Y354580D01*
X317611Y354461D01*
X317623Y354454D01*
X317634Y354446D01*
X317801Y354361D01*
X317968Y354274D01*
X317981Y354270D01*
X317993Y354264D01*
X318174Y354213D01*
X318354Y354161D01*
X318368Y354159D01*
X318381Y354156D01*
X318569Y354142D01*
X318755Y354126D01*
X318769Y354127D01*
X318782Y354126D01*
X318970Y354150D01*
X319155Y354171D01*
X319168Y354175D01*
X319182Y354177D01*
X319360Y354237D01*
X319539Y354294D01*
X319550Y354301D01*
X319563Y354305D01*
X319727Y354399D01*
X319890Y354491D01*
X319900Y354499D01*
X319912Y354506D01*
X320165Y354721D01*
X329301Y363857D01*
X330802Y365357D01*
X330876Y365388D01*
X332389Y366015D01*
X350938Y366015D01*
X350964Y366017D01*
X350991Y366015D01*
X351165Y366037D01*
X351338Y366055D01*
X351364Y366062D01*
X351390Y366066D01*
X351556Y366121D01*
X351723Y366173D01*
X351747Y366186D01*
X351772Y366194D01*
X351924Y366281D01*
X352077Y366365D01*
X352098Y366382D01*
X352121Y366395D01*
X352374Y366610D01*
X352718Y366954D01*
X352735Y366975D01*
X352756Y366992D01*
X352863Y367130D01*
X352973Y367265D01*
X352986Y367289D01*
X353002Y367310D01*
X353080Y367467D01*
X353162Y367621D01*
X353170Y367647D01*
X353182Y367671D01*
X353227Y367840D01*
X353277Y368007D01*
X353279Y368034D01*
X353286Y368060D01*
X353313Y368390D01*
X353313Y385064D01*
X353311Y385082D01*
X353313Y385100D01*
X353292Y385282D01*
X353273Y385465D01*
X353268Y385482D01*
X353266Y385499D01*
X353209Y385674D01*
X353155Y385850D01*
X353147Y385865D01*
X353141Y385882D01*
X353051Y386042D01*
X352963Y386204D01*
X352952Y386217D01*
X352943Y386233D01*
X352823Y386372D01*
X352706Y386513D01*
X352692Y386524D01*
X352680Y386538D01*
X352535Y386650D01*
X352392Y386765D01*
X352376Y386773D01*
X352362Y386784D01*
X352233Y386848D01*
X344993Y394089D01*
X344979Y394100D01*
X344968Y394114D01*
X344824Y394227D01*
X344682Y394344D01*
X344666Y394352D01*
X344652Y394363D01*
X344487Y394447D01*
X344326Y394532D01*
X344309Y394537D01*
X344293Y394546D01*
X344115Y394595D01*
X343940Y394647D01*
X343922Y394649D01*
X343905Y394654D01*
X343722Y394667D01*
X343539Y394684D01*
X343521Y394682D01*
X343503Y394683D01*
X343321Y394660D01*
X343139Y394640D01*
X343122Y394635D01*
X343104Y394632D01*
X342930Y394574D01*
X342755Y394519D01*
X342739Y394510D01*
X342722Y394504D01*
X342563Y394412D01*
X342403Y394324D01*
X342389Y394312D01*
X342373Y394303D01*
X342120Y394089D01*
X335635Y387603D01*
X333755Y387603D01*
X333755Y397764D01*
X333753Y397782D01*
X333755Y397799D01*
X333734Y397982D01*
X333715Y398164D01*
X333710Y398181D01*
X333708Y398199D01*
X333683Y398277D01*
X333722Y398414D01*
X333724Y398432D01*
X333728Y398449D01*
X333755Y398780D01*
X333755Y408941D01*
X335635Y408941D01*
X342120Y402455D01*
X342134Y402444D01*
X342146Y402430D01*
X342290Y402317D01*
X342432Y402200D01*
X342448Y402192D01*
X342462Y402181D01*
X342626Y402098D01*
X342788Y402012D01*
X342805Y402007D01*
X342821Y401998D01*
X342998Y401949D01*
X343174Y401897D01*
X343191Y401895D01*
X343209Y401890D01*
X343392Y401877D01*
X343575Y401860D01*
X343592Y401862D01*
X343610Y401861D01*
X343792Y401884D01*
X343975Y401904D01*
X343992Y401909D01*
X344010Y401912D01*
X344183Y401970D01*
X344359Y402025D01*
X344374Y402034D01*
X344391Y402040D01*
X344551Y402132D01*
X344711Y402220D01*
X344724Y402232D01*
X344740Y402241D01*
X344993Y402455D01*
X351986Y409449D01*
X361246Y409449D01*
X367880Y402815D01*
X367893Y402803D01*
X367905Y402790D01*
X368049Y402676D01*
X368191Y402560D01*
X368207Y402551D01*
X368221Y402540D01*
X368385Y402457D01*
X368547Y402371D01*
X368564Y402366D01*
X368580Y402358D01*
X368757Y402308D01*
X368933Y402256D01*
X368951Y402254D01*
X368968Y402250D01*
X369151Y402236D01*
X369334Y402220D01*
X369352Y402222D01*
X369369Y402220D01*
X369551Y402243D01*
X369734Y402263D01*
X369751Y402269D01*
X369769Y402271D01*
X369942Y402329D01*
X370118Y402385D01*
X370134Y402393D01*
X370150Y402399D01*
X370310Y402491D01*
X370470Y402579D01*
X370484Y402591D01*
X370499Y402600D01*
X370752Y402815D01*
X377386Y409449D01*
X386646Y409449D01*
X393193Y402902D01*
X393193Y393642D01*
X386930Y387379D01*
X386913Y387359D01*
X386892Y387341D01*
X386785Y387203D01*
X386675Y387068D01*
X386662Y387044D01*
X386646Y387023D01*
X386568Y386866D01*
X386486Y386712D01*
X386478Y386687D01*
X386466Y386663D01*
X386421Y386493D01*
X386371Y386326D01*
X386369Y386300D01*
X386362Y386274D01*
X386335Y385943D01*
X386335Y364901D01*
X385677Y363314D01*
X384177Y361813D01*
X375130Y352766D01*
X375124Y352759D01*
X375117Y352754D01*
X374997Y352604D01*
X374875Y352455D01*
X374871Y352447D01*
X374865Y352440D01*
X374777Y352270D01*
X374686Y352099D01*
X374684Y352090D01*
X374680Y352083D01*
X374626Y351897D01*
X374571Y351713D01*
X374571Y351704D01*
X374568Y351696D01*
X374552Y351504D01*
X374535Y351312D01*
X374536Y351303D01*
X374535Y351294D01*
X374557Y351105D01*
X374578Y350912D01*
X374581Y350903D01*
X374582Y350895D01*
X374642Y350713D01*
X374700Y350528D01*
X374704Y350520D01*
X374707Y350512D01*
X374803Y350342D01*
X374895Y350176D01*
X374900Y350169D01*
X374905Y350161D01*
X375031Y350015D01*
X375155Y349869D01*
X375162Y349863D01*
X375168Y349856D01*
X375320Y349738D01*
X375471Y349619D01*
X375479Y349615D01*
X375486Y349610D01*
X375658Y349524D01*
X375830Y349437D01*
X375839Y349434D01*
X375847Y349430D01*
X376033Y349380D01*
X376218Y349329D01*
X376227Y349328D01*
X376235Y349326D01*
X376566Y349299D01*
X379758Y349299D01*
X379875Y349203D01*
X379891Y349194D01*
X379905Y349183D01*
X380069Y349100D01*
X380231Y349014D01*
X380248Y349009D01*
X380264Y349001D01*
X380441Y348952D01*
X380617Y348899D01*
X380635Y348898D01*
X380652Y348893D01*
X380835Y348880D01*
X381018Y348863D01*
X381036Y348865D01*
X381053Y348864D01*
X381235Y348887D01*
X381418Y348906D01*
X381435Y348912D01*
X381453Y348914D01*
X381626Y348972D01*
X381802Y349028D01*
X381818Y349037D01*
X381835Y349042D01*
X381994Y349134D01*
X382154Y349223D01*
X382168Y349234D01*
X382183Y349243D01*
X382249Y349299D01*
X392458Y349299D01*
X392575Y349203D01*
X392591Y349194D01*
X392605Y349183D01*
X392769Y349100D01*
X392931Y349014D01*
X392948Y349009D01*
X392964Y349001D01*
X393141Y348952D01*
X393317Y348899D01*
X393335Y348898D01*
X393352Y348893D01*
X393535Y348880D01*
X393718Y348863D01*
X393736Y348865D01*
X393753Y348864D01*
X393935Y348887D01*
X394118Y348906D01*
X394135Y348912D01*
X394153Y348914D01*
X394326Y348972D01*
X394502Y349028D01*
X394518Y349037D01*
X394535Y349042D01*
X394694Y349134D01*
X394854Y349223D01*
X394868Y349234D01*
X394883Y349243D01*
X394949Y349299D01*
X405158Y349299D01*
X405275Y349203D01*
X405291Y349194D01*
X405305Y349183D01*
X405469Y349100D01*
X405631Y349014D01*
X405648Y349009D01*
X405664Y349001D01*
X405841Y348952D01*
X406017Y348899D01*
X406035Y348898D01*
X406052Y348893D01*
X406235Y348880D01*
X406418Y348863D01*
X406436Y348865D01*
X406453Y348864D01*
X406635Y348887D01*
X406818Y348906D01*
X406835Y348912D01*
X406853Y348914D01*
X407026Y348972D01*
X407202Y349028D01*
X407218Y349037D01*
X407235Y349042D01*
X407394Y349134D01*
X407554Y349223D01*
X407568Y349234D01*
X407583Y349243D01*
X407649Y349299D01*
X413671Y349299D01*
X413680Y349300D01*
X413689Y349299D01*
X413881Y349320D01*
X414072Y349339D01*
X414081Y349341D01*
X414089Y349342D01*
X414272Y349400D01*
X414457Y349457D01*
X414465Y349461D01*
X414473Y349464D01*
X414642Y349557D01*
X414811Y349649D01*
X414818Y349654D01*
X414826Y349659D01*
X414973Y349784D01*
X415120Y349906D01*
X415126Y349913D01*
X415133Y349919D01*
X415251Y350069D01*
X415373Y350220D01*
X415377Y350228D01*
X415382Y350235D01*
X415469Y350406D01*
X415558Y350577D01*
X415561Y350586D01*
X415565Y350594D01*
X415616Y350780D01*
X415669Y350964D01*
X415670Y350973D01*
X415673Y350982D01*
X415687Y351174D01*
X415702Y351366D01*
X415701Y351374D01*
X415702Y351383D01*
X415678Y351576D01*
X415655Y351765D01*
X415653Y351774D01*
X415652Y351783D01*
X415590Y351966D01*
X415531Y352148D01*
X415526Y352156D01*
X415523Y352164D01*
X415429Y352329D01*
X415333Y352499D01*
X415327Y352506D01*
X415322Y352513D01*
X415108Y352766D01*
X413766Y354108D01*
X413707Y354156D01*
X413624Y354237D01*
X413116Y354657D01*
X413092Y354694D01*
X413023Y354812D01*
X412975Y354869D01*
X412944Y354915D01*
X412888Y354971D01*
X412865Y354999D01*
X412615Y355603D01*
X412579Y355671D01*
X412533Y355777D01*
X412059Y356671D01*
X411989Y356778D01*
X411926Y356889D01*
X411877Y356945D01*
X411837Y357006D01*
X411746Y357097D01*
X411663Y357194D01*
X411604Y357239D01*
X411552Y357291D01*
X411445Y357362D01*
X411345Y357440D01*
X411278Y357473D01*
X411217Y357514D01*
X411098Y357563D01*
X410984Y357620D01*
X410913Y357639D01*
X410844Y357667D01*
X410719Y357691D01*
X410595Y357724D01*
X410510Y357731D01*
X410449Y357743D01*
X410374Y357742D01*
X410264Y357751D01*
X408187Y357751D01*
X406401Y359537D01*
X406401Y377063D01*
X408187Y378849D01*
X423713Y378849D01*
X424417Y378144D01*
X424537Y378046D01*
X424653Y377942D01*
X424693Y377918D01*
X424729Y377889D01*
X424866Y377816D01*
X425000Y377737D01*
X425044Y377722D01*
X425085Y377700D01*
X425233Y377656D01*
X425380Y377605D01*
X425426Y377599D01*
X425471Y377586D01*
X425625Y377572D01*
X425779Y377550D01*
X425825Y377553D01*
X425872Y377549D01*
X426026Y377566D01*
X426180Y377576D01*
X426225Y377588D01*
X426272Y377593D01*
X426420Y377639D01*
X426569Y377679D01*
X426617Y377702D01*
X426656Y377714D01*
X426732Y377756D01*
X426869Y377821D01*
X427469Y378168D01*
X428115Y378341D01*
X431701Y378341D01*
X431701Y369518D01*
X431702Y369500D01*
X431701Y369483D01*
X431722Y369300D01*
X431741Y369118D01*
X431746Y369101D01*
X431748Y369083D01*
X431805Y368908D01*
X431859Y368733D01*
X431867Y368717D01*
X431873Y368700D01*
X431963Y368540D01*
X432050Y368379D01*
X432062Y368365D01*
X432071Y368349D01*
X432116Y368297D01*
X432031Y368192D01*
X432023Y368176D01*
X432012Y368162D01*
X431930Y367997D01*
X431845Y367834D01*
X431840Y367817D01*
X431832Y367801D01*
X431784Y367623D01*
X431734Y367448D01*
X431732Y367430D01*
X431728Y367413D01*
X431701Y367082D01*
X431701Y358259D01*
X428171Y358259D01*
X428162Y358258D01*
X428153Y358259D01*
X427961Y358238D01*
X427770Y358219D01*
X427761Y358217D01*
X427753Y358216D01*
X427570Y358158D01*
X427385Y358101D01*
X427377Y358097D01*
X427369Y358094D01*
X427200Y358001D01*
X427031Y357909D01*
X427024Y357904D01*
X427016Y357899D01*
X426869Y357774D01*
X426722Y357652D01*
X426716Y357645D01*
X426709Y357639D01*
X426590Y357488D01*
X426469Y357338D01*
X426465Y357330D01*
X426460Y357323D01*
X426373Y357152D01*
X426284Y356981D01*
X426281Y356972D01*
X426277Y356964D01*
X426226Y356779D01*
X426173Y356594D01*
X426172Y356585D01*
X426169Y356576D01*
X426155Y356384D01*
X426140Y356192D01*
X426141Y356184D01*
X426140Y356175D01*
X426164Y355982D01*
X426187Y355793D01*
X426189Y355784D01*
X426190Y355775D01*
X426252Y355592D01*
X426311Y355410D01*
X426316Y355402D01*
X426319Y355394D01*
X426414Y355228D01*
X426509Y355059D01*
X426515Y355052D01*
X426520Y355045D01*
X426734Y354792D01*
X427898Y353628D01*
X429542Y351984D01*
X430300Y350154D01*
X430317Y349986D01*
X430324Y349960D01*
X430328Y349933D01*
X430383Y349768D01*
X430435Y349601D01*
X430448Y349577D01*
X430456Y349552D01*
X430543Y349400D01*
X430584Y349326D01*
X430586Y349321D01*
X430587Y349319D01*
X430627Y349247D01*
X430644Y349226D01*
X430657Y349203D01*
X430796Y349039D01*
X430827Y348998D01*
X430845Y348982D01*
X430872Y348950D01*
X430891Y348931D01*
X431010Y348833D01*
X431126Y348729D01*
X431166Y348705D01*
X431202Y348676D01*
X431339Y348603D01*
X431473Y348524D01*
X431517Y348509D01*
X431558Y348487D01*
X431706Y348443D01*
X431853Y348392D01*
X431899Y348386D01*
X431944Y348372D01*
X432098Y348358D01*
X432252Y348337D01*
X432298Y348340D01*
X432345Y348336D01*
X432499Y348353D01*
X432654Y348362D01*
X432699Y348374D01*
X432745Y348379D01*
X432893Y348426D01*
X433043Y348466D01*
X433090Y348489D01*
X433129Y348501D01*
X433205Y348543D01*
X433343Y348608D01*
X433359Y348618D01*
X434005Y348791D01*
X436119Y348791D01*
X436119Y339900D01*
X436119Y331009D01*
X434005Y331009D01*
X433359Y331182D01*
X433343Y331192D01*
X433201Y331256D01*
X433062Y331327D01*
X433018Y331339D01*
X432976Y331358D01*
X432824Y331393D01*
X432674Y331434D01*
X432628Y331438D01*
X432583Y331448D01*
X432428Y331452D01*
X432272Y331463D01*
X432227Y331458D01*
X432181Y331459D01*
X432027Y331432D01*
X431873Y331413D01*
X431829Y331398D01*
X431784Y331390D01*
X431639Y331334D01*
X431491Y331284D01*
X431452Y331261D01*
X431409Y331245D01*
X431277Y331161D01*
X431142Y331083D01*
X431103Y331049D01*
X431069Y331028D01*
X431007Y330968D01*
X430890Y330868D01*
X430870Y330849D01*
X430854Y330829D01*
X430834Y330812D01*
X430803Y330771D01*
X430780Y330749D01*
X430731Y330679D01*
X430727Y330673D01*
X430616Y330537D01*
X430604Y330514D01*
X430588Y330494D01*
X430510Y330337D01*
X430427Y330181D01*
X430420Y330156D01*
X430408Y330133D01*
X430363Y329964D01*
X430313Y329795D01*
X430311Y329770D01*
X430304Y329745D01*
X430277Y329414D01*
X430277Y311658D01*
X430279Y311640D01*
X430277Y311622D01*
X430298Y311440D01*
X430317Y311257D01*
X430322Y311240D01*
X430324Y311223D01*
X430381Y311048D01*
X430435Y310872D01*
X430443Y310857D01*
X430449Y310840D01*
X430539Y310680D01*
X430627Y310518D01*
X430638Y310505D01*
X430647Y310489D01*
X430767Y310350D01*
X430884Y310209D01*
X430898Y310198D01*
X430910Y310184D01*
X431055Y310072D01*
X431198Y309957D01*
X431214Y309949D01*
X431228Y309938D01*
X431393Y309856D01*
X431555Y309771D01*
X431572Y309766D01*
X431588Y309758D01*
X431767Y309711D01*
X431942Y309660D01*
X431960Y309658D01*
X431977Y309654D01*
X432308Y309627D01*
X458160Y309627D01*
X459934Y308892D01*
X461292Y307534D01*
X461645Y306681D01*
X461660Y306653D01*
X461670Y306624D01*
X461755Y306476D01*
X461835Y306326D01*
X461855Y306302D01*
X461871Y306275D01*
X462086Y306022D01*
X479386Y288722D01*
X479393Y288716D01*
X479398Y288709D01*
X479548Y288589D01*
X479697Y288467D01*
X479705Y288463D01*
X479712Y288457D01*
X479883Y288368D01*
X480053Y288278D01*
X480061Y288276D01*
X480069Y288272D01*
X480255Y288218D01*
X480439Y288163D01*
X480448Y288163D01*
X480456Y288160D01*
X480648Y288144D01*
X480840Y288127D01*
X480849Y288128D01*
X480858Y288127D01*
X481047Y288149D01*
X481240Y288170D01*
X481249Y288173D01*
X481257Y288174D01*
X481439Y288234D01*
X481624Y288292D01*
X481632Y288296D01*
X481640Y288299D01*
X481809Y288394D01*
X481976Y288487D01*
X481983Y288492D01*
X481991Y288497D01*
X482137Y288623D01*
X482283Y288747D01*
X482289Y288754D01*
X482296Y288760D01*
X482413Y288911D01*
X482533Y289063D01*
X482537Y289071D01*
X482542Y289078D01*
X482628Y289250D01*
X482715Y289422D01*
X482718Y289431D01*
X482722Y289439D01*
X482772Y289625D01*
X482823Y289810D01*
X482824Y289819D01*
X482826Y289827D01*
X482853Y290158D01*
X482853Y304140D01*
X482852Y304154D01*
X482853Y304167D01*
X482832Y304353D01*
X482813Y304541D01*
X482809Y304554D01*
X482808Y304567D01*
X482750Y304746D01*
X482695Y304926D01*
X482689Y304938D01*
X482685Y304950D01*
X482593Y305115D01*
X482503Y305280D01*
X482495Y305290D01*
X482488Y305302D01*
X482366Y305445D01*
X482246Y305589D01*
X482235Y305597D01*
X482227Y305608D01*
X482078Y305724D01*
X481932Y305841D01*
X481920Y305848D01*
X481910Y305856D01*
X481741Y305941D01*
X481575Y306027D01*
X481562Y306031D01*
X481550Y306037D01*
X481368Y306086D01*
X481188Y306138D01*
X481174Y306139D01*
X481161Y306143D01*
X480973Y306156D01*
X480786Y306171D01*
X480773Y306170D01*
X480760Y306171D01*
X480572Y306146D01*
X480387Y306124D01*
X480374Y306120D01*
X480361Y306118D01*
X480045Y306017D01*
X477105Y304799D01*
X473871Y304799D01*
X470883Y306037D01*
X468597Y308323D01*
X467359Y311311D01*
X467359Y314545D01*
X468597Y317533D01*
X470574Y319510D01*
X470591Y319531D01*
X470612Y319548D01*
X470719Y319686D01*
X470829Y319822D01*
X470842Y319845D01*
X470858Y319866D01*
X470936Y320023D01*
X471018Y320177D01*
X471026Y320203D01*
X471038Y320227D01*
X471083Y320396D01*
X471133Y320563D01*
X471135Y320590D01*
X471142Y320616D01*
X471169Y320946D01*
X471169Y328470D01*
X471167Y328488D01*
X471169Y328506D01*
X471148Y328688D01*
X471129Y328871D01*
X471124Y328888D01*
X471122Y328905D01*
X471065Y329080D01*
X471011Y329256D01*
X471003Y329271D01*
X470997Y329288D01*
X470907Y329448D01*
X470819Y329610D01*
X470808Y329623D01*
X470799Y329639D01*
X470679Y329778D01*
X470562Y329919D01*
X470548Y329930D01*
X470536Y329944D01*
X470391Y330056D01*
X470248Y330171D01*
X470232Y330179D01*
X470218Y330190D01*
X470053Y330272D01*
X469891Y330357D01*
X469874Y330362D01*
X469858Y330370D01*
X469679Y330417D01*
X469504Y330468D01*
X469486Y330470D01*
X469469Y330474D01*
X469138Y330501D01*
X458442Y330501D01*
X458325Y330597D01*
X458309Y330606D01*
X458295Y330617D01*
X458131Y330700D01*
X457969Y330786D01*
X457952Y330791D01*
X457936Y330799D01*
X457759Y330848D01*
X457583Y330901D01*
X457565Y330902D01*
X457548Y330907D01*
X457365Y330920D01*
X457182Y330937D01*
X457164Y330935D01*
X457147Y330936D01*
X456965Y330913D01*
X456782Y330894D01*
X456765Y330888D01*
X456747Y330886D01*
X456574Y330828D01*
X456398Y330772D01*
X456382Y330763D01*
X456365Y330758D01*
X456206Y330666D01*
X456046Y330577D01*
X456032Y330566D01*
X456017Y330557D01*
X455951Y330501D01*
X445777Y330501D01*
X445409Y330869D01*
X445289Y330967D01*
X445174Y331071D01*
X445134Y331095D01*
X445098Y331124D01*
X444961Y331197D01*
X444827Y331276D01*
X444783Y331291D01*
X444742Y331313D01*
X444593Y331357D01*
X444447Y331408D01*
X444401Y331414D01*
X444356Y331428D01*
X444202Y331442D01*
X444048Y331463D01*
X444002Y331460D01*
X443955Y331464D01*
X443801Y331447D01*
X443646Y331438D01*
X443601Y331426D01*
X443555Y331421D01*
X443407Y331374D01*
X443257Y331334D01*
X443210Y331311D01*
X443171Y331299D01*
X443095Y331257D01*
X442957Y331192D01*
X442941Y331182D01*
X442295Y331009D01*
X440181Y331009D01*
X440181Y339900D01*
X440181Y348791D01*
X442295Y348791D01*
X442941Y348618D01*
X442957Y348608D01*
X443099Y348544D01*
X443237Y348474D01*
X443282Y348461D01*
X443324Y348442D01*
X443475Y348408D01*
X443625Y348366D01*
X443671Y348363D01*
X443717Y348352D01*
X443871Y348348D01*
X444026Y348337D01*
X444073Y348342D01*
X444119Y348341D01*
X444272Y348368D01*
X444426Y348387D01*
X444470Y348402D01*
X444516Y348410D01*
X444660Y348466D01*
X444807Y348515D01*
X444848Y348538D01*
X444891Y348555D01*
X445022Y348639D01*
X445156Y348716D01*
X445196Y348750D01*
X445231Y348772D01*
X445293Y348832D01*
X445409Y348931D01*
X446206Y349727D01*
X446226Y349752D01*
X446249Y349772D01*
X446353Y349907D01*
X446461Y350039D01*
X446475Y350066D01*
X446495Y350091D01*
X446646Y350386D01*
X447189Y351696D01*
X471336Y375844D01*
X471353Y375865D01*
X471374Y375882D01*
X471481Y376020D01*
X471591Y376155D01*
X471604Y376179D01*
X471620Y376200D01*
X471698Y376357D01*
X471780Y376511D01*
X471788Y376537D01*
X471800Y376561D01*
X471845Y376730D01*
X471895Y376897D01*
X471897Y376924D01*
X471904Y376950D01*
X471931Y377280D01*
X471931Y385064D01*
X471929Y385082D01*
X471931Y385100D01*
X471910Y385282D01*
X471891Y385465D01*
X471886Y385482D01*
X471884Y385499D01*
X471827Y385674D01*
X471773Y385850D01*
X471765Y385865D01*
X471759Y385882D01*
X471669Y386042D01*
X471581Y386204D01*
X471570Y386217D01*
X471561Y386233D01*
X471441Y386372D01*
X471324Y386513D01*
X471310Y386524D01*
X471298Y386538D01*
X471153Y386650D01*
X471010Y386765D01*
X470994Y386773D01*
X470980Y386784D01*
X470815Y386866D01*
X470653Y386951D01*
X470636Y386956D01*
X470620Y386964D01*
X470441Y387011D01*
X470266Y387062D01*
X470248Y387064D01*
X470231Y387068D01*
X469900Y387095D01*
X466097Y387095D01*
X464311Y388881D01*
X464311Y407663D01*
X466097Y409449D01*
X484879Y409449D01*
X486665Y407663D01*
X486665Y404759D01*
X486666Y404750D01*
X486665Y404741D01*
X486686Y404548D01*
X486705Y404358D01*
X486707Y404350D01*
X486708Y404341D01*
X486766Y404157D01*
X486823Y403973D01*
X486827Y403965D01*
X486830Y403957D01*
X486923Y403788D01*
X487015Y403619D01*
X487020Y403612D01*
X487025Y403605D01*
X487149Y403458D01*
X487272Y403310D01*
X487279Y403304D01*
X487285Y403298D01*
X487436Y403179D01*
X487586Y403058D01*
X487594Y403054D01*
X487601Y403048D01*
X487774Y402960D01*
X487943Y402872D01*
X487952Y402870D01*
X487960Y402866D01*
X488146Y402814D01*
X488330Y402761D01*
X488339Y402760D01*
X488348Y402758D01*
X488541Y402744D01*
X488732Y402728D01*
X488740Y402729D01*
X488749Y402728D01*
X488942Y402753D01*
X489131Y402775D01*
X489140Y402778D01*
X489149Y402779D01*
X489331Y402840D01*
X489514Y402900D01*
X489522Y402904D01*
X489530Y402907D01*
X489697Y403003D01*
X489865Y403098D01*
X489872Y403103D01*
X489879Y403108D01*
X490132Y403323D01*
X496258Y409449D01*
X505518Y409449D01*
X512511Y402455D01*
X512525Y402444D01*
X512536Y402430D01*
X512680Y402317D01*
X512822Y402200D01*
X512838Y402192D01*
X512852Y402181D01*
X513016Y402098D01*
X513178Y402012D01*
X513195Y402007D01*
X513211Y401998D01*
X513388Y401949D01*
X513564Y401897D01*
X513582Y401895D01*
X513599Y401890D01*
X513782Y401877D01*
X513965Y401860D01*
X513983Y401862D01*
X514001Y401861D01*
X514182Y401884D01*
X514365Y401904D01*
X514382Y401909D01*
X514400Y401912D01*
X514573Y401970D01*
X514749Y402025D01*
X514765Y402034D01*
X514782Y402040D01*
X514941Y402132D01*
X515101Y402220D01*
X515115Y402232D01*
X515131Y402241D01*
X515384Y402455D01*
X521869Y408941D01*
X523749Y408941D01*
X523749Y398780D01*
X523750Y398762D01*
X523749Y398745D01*
X523770Y398562D01*
X523789Y398380D01*
X523794Y398363D01*
X523796Y398345D01*
X523821Y398267D01*
X523782Y398130D01*
X523780Y398112D01*
X523776Y398095D01*
X523749Y397764D01*
X523749Y387603D01*
X521869Y387603D01*
X515384Y394089D01*
X515370Y394100D01*
X515358Y394114D01*
X515214Y394227D01*
X515072Y394344D01*
X515056Y394352D01*
X515042Y394363D01*
X514878Y394447D01*
X514716Y394532D01*
X514699Y394537D01*
X514683Y394546D01*
X514506Y394595D01*
X514330Y394647D01*
X514313Y394649D01*
X514295Y394654D01*
X514112Y394667D01*
X513929Y394684D01*
X513912Y394682D01*
X513894Y394683D01*
X513712Y394660D01*
X513529Y394640D01*
X513512Y394635D01*
X513494Y394632D01*
X513321Y394574D01*
X513145Y394519D01*
X513130Y394510D01*
X513113Y394504D01*
X512953Y394412D01*
X512793Y394324D01*
X512779Y394312D01*
X512764Y394303D01*
X512511Y394089D01*
X506564Y388141D01*
X506547Y388121D01*
X506526Y388103D01*
X506419Y387965D01*
X506309Y387830D01*
X506296Y387806D01*
X506280Y387785D01*
X506202Y387628D01*
X506120Y387474D01*
X506112Y387449D01*
X506100Y387425D01*
X506055Y387255D01*
X506005Y387088D01*
X506003Y387062D01*
X505996Y387036D01*
X505969Y386705D01*
X505969Y386491D01*
X505311Y384904D01*
X503811Y383403D01*
X473174Y352766D01*
X473168Y352759D01*
X473161Y352754D01*
X473041Y352604D01*
X472919Y352455D01*
X472915Y352447D01*
X472909Y352440D01*
X472820Y352269D01*
X472730Y352099D01*
X472728Y352091D01*
X472724Y352083D01*
X472669Y351895D01*
X472615Y351713D01*
X472615Y351704D01*
X472612Y351696D01*
X472596Y351504D01*
X472579Y351312D01*
X472580Y351303D01*
X472579Y351294D01*
X472601Y351105D01*
X472622Y350912D01*
X472625Y350903D01*
X472626Y350895D01*
X472686Y350713D01*
X472744Y350528D01*
X472748Y350520D01*
X472751Y350512D01*
X472847Y350342D01*
X472939Y350176D01*
X472944Y350169D01*
X472949Y350161D01*
X473075Y350015D01*
X473199Y349869D01*
X473206Y349863D01*
X473212Y349856D01*
X473364Y349738D01*
X473515Y349619D01*
X473523Y349615D01*
X473530Y349610D01*
X473702Y349524D01*
X473874Y349437D01*
X473883Y349434D01*
X473891Y349430D01*
X474077Y349380D01*
X474262Y349329D01*
X474271Y349328D01*
X474279Y349326D01*
X474610Y349299D01*
X481358Y349299D01*
X481475Y349203D01*
X481491Y349194D01*
X481505Y349183D01*
X481668Y349100D01*
X481831Y349014D01*
X481848Y349009D01*
X481864Y349001D01*
X482041Y348952D01*
X482217Y348899D01*
X482234Y348898D01*
X482252Y348893D01*
X482435Y348880D01*
X482618Y348863D01*
X482635Y348865D01*
X482653Y348864D01*
X482836Y348887D01*
X483018Y348906D01*
X483035Y348912D01*
X483053Y348914D01*
X483227Y348973D01*
X483402Y349028D01*
X483417Y349037D01*
X483434Y349042D01*
X483594Y349134D01*
X483754Y349223D01*
X483768Y349234D01*
X483783Y349243D01*
X483849Y349299D01*
X494023Y349299D01*
X495809Y347513D01*
X495809Y332287D01*
X494023Y330501D01*
X493522Y330501D01*
X493504Y330499D01*
X493486Y330501D01*
X493304Y330480D01*
X493121Y330461D01*
X493104Y330456D01*
X493087Y330454D01*
X492912Y330397D01*
X492736Y330343D01*
X492721Y330335D01*
X492704Y330329D01*
X492544Y330239D01*
X492382Y330151D01*
X492369Y330140D01*
X492353Y330131D01*
X492214Y330011D01*
X492073Y329894D01*
X492062Y329880D01*
X492048Y329868D01*
X491936Y329723D01*
X491821Y329580D01*
X491813Y329564D01*
X491802Y329550D01*
X491720Y329385D01*
X491635Y329223D01*
X491630Y329206D01*
X491622Y329190D01*
X491575Y329011D01*
X491524Y328836D01*
X491522Y328818D01*
X491518Y328801D01*
X491491Y328470D01*
X491491Y305881D01*
X491492Y305867D01*
X491491Y305854D01*
X491512Y305667D01*
X491531Y305480D01*
X491535Y305467D01*
X491536Y305454D01*
X491593Y305275D01*
X491649Y305095D01*
X491655Y305083D01*
X491659Y305070D01*
X491751Y304906D01*
X491841Y304741D01*
X491849Y304731D01*
X491856Y304719D01*
X491978Y304576D01*
X492098Y304432D01*
X492109Y304423D01*
X492117Y304413D01*
X492266Y304297D01*
X492412Y304179D01*
X492424Y304173D01*
X492434Y304165D01*
X492603Y304080D01*
X492769Y303994D01*
X492782Y303990D01*
X492794Y303984D01*
X492976Y303934D01*
X493156Y303882D01*
X493170Y303881D01*
X493183Y303878D01*
X493371Y303865D01*
X493558Y303850D01*
X493571Y303851D01*
X493584Y303850D01*
X493772Y303875D01*
X493957Y303896D01*
X493970Y303901D01*
X493983Y303902D01*
X494299Y304004D01*
X496223Y304801D01*
X499457Y304801D01*
X502445Y303563D01*
X504731Y301277D01*
X506014Y298181D01*
X506024Y298161D01*
X506031Y298140D01*
X506119Y297984D01*
X506204Y297826D01*
X506218Y297809D01*
X506229Y297789D01*
X506346Y297654D01*
X506460Y297515D01*
X506478Y297501D01*
X506492Y297484D01*
X506633Y297375D01*
X506773Y297262D01*
X506793Y297251D01*
X506810Y297238D01*
X506971Y297158D01*
X507129Y297075D01*
X507151Y297068D01*
X507171Y297058D01*
X507344Y297012D01*
X507516Y296962D01*
X507538Y296960D01*
X507559Y296954D01*
X507890Y296927D01*
X511688Y296927D01*
X511706Y296929D01*
X511724Y296927D01*
X511906Y296948D01*
X512089Y296967D01*
X512106Y296972D01*
X512123Y296974D01*
X512298Y297031D01*
X512474Y297085D01*
X512489Y297093D01*
X512506Y297099D01*
X512666Y297189D01*
X512828Y297277D01*
X512841Y297288D01*
X512857Y297297D01*
X512996Y297417D01*
X513137Y297534D01*
X513148Y297548D01*
X513162Y297560D01*
X513274Y297705D01*
X513389Y297848D01*
X513397Y297864D01*
X513408Y297878D01*
X513490Y298043D01*
X513575Y298205D01*
X513580Y298222D01*
X513588Y298238D01*
X513635Y298417D01*
X513686Y298592D01*
X513688Y298610D01*
X513692Y298627D01*
X513719Y298958D01*
X513719Y304386D01*
X513777Y304460D01*
X513887Y304595D01*
X513900Y304619D01*
X513916Y304640D01*
X513994Y304797D01*
X514076Y304951D01*
X514084Y304977D01*
X514096Y305001D01*
X514141Y305170D01*
X514191Y305337D01*
X514193Y305364D01*
X514200Y305389D01*
X514227Y305720D01*
X514227Y306577D01*
X529268Y306577D01*
X544309Y306577D01*
X544309Y305720D01*
X544311Y305694D01*
X544309Y305667D01*
X544331Y305492D01*
X544349Y305320D01*
X544356Y305294D01*
X544360Y305267D01*
X544416Y305101D01*
X544467Y304935D01*
X544480Y304911D01*
X544488Y304886D01*
X544575Y304734D01*
X544659Y304581D01*
X544676Y304560D01*
X544689Y304537D01*
X544817Y304386D01*
X544817Y276236D01*
X544818Y276227D01*
X544817Y276218D01*
X544838Y276027D01*
X544857Y275835D01*
X544859Y275827D01*
X544860Y275818D01*
X544918Y275636D01*
X544975Y275451D01*
X544979Y275443D01*
X544982Y275434D01*
X545075Y275266D01*
X545167Y275097D01*
X545172Y275090D01*
X545177Y275082D01*
X545302Y274934D01*
X545424Y274787D01*
X545431Y274782D01*
X545437Y274775D01*
X545589Y274655D01*
X545738Y274535D01*
X545746Y274531D01*
X545753Y274525D01*
X545925Y274438D01*
X546095Y274349D01*
X546104Y274347D01*
X546112Y274343D01*
X546298Y274291D01*
X546482Y274238D01*
X546491Y274237D01*
X546500Y274235D01*
X546692Y274221D01*
X546884Y274205D01*
X546892Y274206D01*
X546901Y274206D01*
X547094Y274230D01*
X547283Y274252D01*
X547292Y274255D01*
X547301Y274256D01*
X547484Y274317D01*
X547666Y274377D01*
X547674Y274381D01*
X547682Y274384D01*
X547848Y274480D01*
X548017Y274575D01*
X548024Y274581D01*
X548031Y274585D01*
X548284Y274800D01*
X549992Y276508D01*
X552766Y277657D01*
X555770Y277657D01*
X558544Y276508D01*
X560668Y274384D01*
X561817Y271610D01*
X561817Y268606D01*
X560668Y265832D01*
X558544Y263708D01*
X555770Y262559D01*
X552766Y262559D01*
X549992Y263708D01*
X547868Y265832D01*
X546719Y268606D01*
X546719Y269844D01*
X546718Y269853D01*
X546719Y269862D01*
X546698Y270054D01*
X546679Y270244D01*
X546677Y270253D01*
X546676Y270262D01*
X546618Y270445D01*
X546561Y270629D01*
X546557Y270637D01*
X546554Y270646D01*
X546461Y270815D01*
X546369Y270983D01*
X546364Y270990D01*
X546359Y270998D01*
X546234Y271146D01*
X546112Y271293D01*
X546105Y271298D01*
X546099Y271305D01*
X545947Y271425D01*
X545798Y271545D01*
X545790Y271549D01*
X545783Y271555D01*
X545610Y271642D01*
X545441Y271731D01*
X545432Y271733D01*
X545424Y271737D01*
X545239Y271789D01*
X545054Y271842D01*
X545045Y271843D01*
X545036Y271845D01*
X544844Y271859D01*
X544652Y271875D01*
X544644Y271874D01*
X544635Y271874D01*
X544443Y271850D01*
X544253Y271828D01*
X544244Y271825D01*
X544235Y271824D01*
X544053Y271763D01*
X543870Y271703D01*
X543862Y271699D01*
X543854Y271696D01*
X543686Y271600D01*
X543519Y271505D01*
X543512Y271499D01*
X543505Y271495D01*
X543252Y271280D01*
X543031Y271059D01*
X515505Y271059D01*
X514870Y271694D01*
X514849Y271711D01*
X514832Y271732D01*
X514694Y271839D01*
X514559Y271949D01*
X514535Y271962D01*
X514514Y271978D01*
X514357Y272056D01*
X514203Y272138D01*
X514177Y272146D01*
X514153Y272158D01*
X513984Y272203D01*
X513817Y272253D01*
X513790Y272255D01*
X513765Y272262D01*
X513434Y272289D01*
X484533Y272289D01*
X482946Y272947D01*
X456514Y299378D01*
X456493Y299395D01*
X456476Y299416D01*
X456338Y299523D01*
X456203Y299633D01*
X456179Y299646D01*
X456158Y299662D01*
X456001Y299740D01*
X455847Y299822D01*
X455821Y299830D01*
X455797Y299842D01*
X455628Y299887D01*
X455461Y299937D01*
X455434Y299939D01*
X455408Y299946D01*
X455078Y299973D01*
X313208Y299973D01*
X313182Y299971D01*
X313155Y299973D01*
X312981Y299951D01*
X312808Y299933D01*
X312782Y299926D01*
X312756Y299922D01*
X312590Y299867D01*
X312423Y299815D01*
X312399Y299802D01*
X312374Y299794D01*
X312222Y299707D01*
X312069Y299623D01*
X312048Y299606D01*
X312025Y299593D01*
X311772Y299378D01*
X309764Y297370D01*
X306543Y296036D01*
X303057Y296036D01*
X299836Y297370D01*
X297828Y299378D01*
X297807Y299395D01*
X297790Y299416D01*
X297652Y299523D01*
X297516Y299633D01*
X297493Y299646D01*
X297472Y299662D01*
X297315Y299740D01*
X297161Y299822D01*
X297135Y299830D01*
X297111Y299842D01*
X296942Y299887D01*
X296775Y299937D01*
X296748Y299939D01*
X296722Y299946D01*
X296392Y299973D01*
X295654Y299973D01*
X295636Y299971D01*
X295618Y299973D01*
X295436Y299952D01*
X295253Y299933D01*
X295236Y299928D01*
X295219Y299926D01*
X295044Y299869D01*
X294868Y299815D01*
X294853Y299807D01*
X294836Y299801D01*
X294675Y299711D01*
X294514Y299623D01*
X294501Y299612D01*
X294485Y299603D01*
X294346Y299483D01*
X294205Y299366D01*
X294194Y299352D01*
X294180Y299340D01*
X294068Y299195D01*
X293953Y299052D01*
X293945Y299036D01*
X293934Y299022D01*
X293852Y298857D01*
X293767Y298695D01*
X293762Y298678D01*
X293754Y298662D01*
X293707Y298483D01*
X293656Y298308D01*
X293654Y298290D01*
X293650Y298273D01*
X293623Y297942D01*
X293623Y282702D01*
X293625Y282684D01*
X293623Y282666D01*
X293644Y282484D01*
X293663Y282301D01*
X293668Y282284D01*
X293670Y282267D01*
X293727Y282092D01*
X293781Y281916D01*
X293789Y281901D01*
X293795Y281884D01*
X293885Y281724D01*
X293973Y281562D01*
X293984Y281549D01*
X293993Y281533D01*
X294113Y281394D01*
X294230Y281253D01*
X294244Y281242D01*
X294256Y281228D01*
X294401Y281116D01*
X294544Y281001D01*
X294560Y280993D01*
X294574Y280982D01*
X294739Y280900D01*
X294901Y280815D01*
X294918Y280810D01*
X294934Y280802D01*
X295113Y280755D01*
X295288Y280704D01*
X295306Y280702D01*
X295323Y280698D01*
X295654Y280671D01*
X298106Y280671D01*
X298132Y280673D01*
X298159Y280671D01*
X298333Y280693D01*
X298506Y280711D01*
X298532Y280718D01*
X298558Y280722D01*
X298724Y280777D01*
X298891Y280829D01*
X298915Y280842D01*
X298940Y280850D01*
X299092Y280937D01*
X299245Y281021D01*
X299266Y281038D01*
X299289Y281051D01*
X299542Y281266D01*
X304894Y286617D01*
X306481Y287275D01*
X454503Y287275D01*
X456090Y286617D01*
X479911Y262796D01*
X480569Y261209D01*
X480569Y255294D01*
X480570Y255285D01*
X480569Y255276D01*
X480571Y255259D01*
X480569Y255241D01*
X480591Y255067D01*
X480609Y254894D01*
X480611Y254885D01*
X480612Y254876D01*
X480618Y254859D01*
X480620Y254841D01*
X480675Y254676D01*
X480727Y254509D01*
X480731Y254501D01*
X480734Y254492D01*
X480742Y254477D01*
X480748Y254460D01*
X480835Y254308D01*
X480919Y254155D01*
X480924Y254148D01*
X480929Y254140D01*
X480940Y254126D01*
X480949Y254111D01*
X481164Y253858D01*
X481171Y253852D01*
X481176Y253845D01*
X481183Y253840D01*
X481189Y253833D01*
X481333Y253719D01*
X481475Y253603D01*
X481483Y253599D01*
X481490Y253593D01*
X481498Y253589D01*
X481505Y253583D01*
X481669Y253500D01*
X481831Y253414D01*
X481840Y253412D01*
X481847Y253408D01*
X481856Y253405D01*
X481864Y253401D01*
X482041Y253352D01*
X482217Y253299D01*
X482226Y253299D01*
X482234Y253296D01*
X482243Y253295D01*
X482252Y253293D01*
X482435Y253280D01*
X482618Y253263D01*
X482627Y253264D01*
X482636Y253263D01*
X482644Y253264D01*
X482653Y253264D01*
X482835Y253287D01*
X483018Y253306D01*
X483027Y253309D01*
X483035Y253310D01*
X483044Y253313D01*
X483053Y253314D01*
X483226Y253372D01*
X483402Y253428D01*
X483410Y253432D01*
X483418Y253435D01*
X483426Y253439D01*
X483435Y253442D01*
X483594Y253534D01*
X483754Y253623D01*
X483761Y253629D01*
X483769Y253633D01*
X483775Y253639D01*
X483783Y253643D01*
X483849Y253699D01*
X494023Y253699D01*
X495809Y251913D01*
X495809Y237998D01*
X495811Y237980D01*
X495809Y237962D01*
X495830Y237780D01*
X495849Y237597D01*
X495854Y237580D01*
X495856Y237563D01*
X495913Y237388D01*
X495967Y237212D01*
X495975Y237197D01*
X495981Y237180D01*
X496071Y237020D01*
X496159Y236858D01*
X496170Y236845D01*
X496179Y236829D01*
X496299Y236690D01*
X496416Y236549D01*
X496430Y236538D01*
X496442Y236524D01*
X496587Y236412D01*
X496730Y236297D01*
X496746Y236289D01*
X496760Y236278D01*
X496925Y236196D01*
X497087Y236111D01*
X497104Y236106D01*
X497120Y236098D01*
X497299Y236051D01*
X497474Y236000D01*
X497492Y235998D01*
X497509Y235994D01*
X497840Y235967D01*
X504795Y235967D01*
X506382Y235309D01*
X512931Y228760D01*
X513589Y227173D01*
X513589Y224280D01*
X513591Y224262D01*
X513589Y224244D01*
X513610Y224062D01*
X513629Y223879D01*
X513634Y223862D01*
X513636Y223845D01*
X513693Y223670D01*
X513747Y223494D01*
X513755Y223479D01*
X513761Y223462D01*
X513851Y223302D01*
X513939Y223140D01*
X513950Y223127D01*
X513959Y223111D01*
X514079Y222972D01*
X514196Y222831D01*
X514210Y222820D01*
X514222Y222806D01*
X514367Y222694D01*
X514510Y222579D01*
X514526Y222571D01*
X514540Y222560D01*
X514705Y222478D01*
X514867Y222393D01*
X514884Y222388D01*
X514900Y222380D01*
X515079Y222333D01*
X515254Y222282D01*
X515272Y222280D01*
X515289Y222276D01*
X515620Y222249D01*
X523113Y222249D01*
X524899Y220463D01*
X524899Y219050D01*
X524901Y219032D01*
X524899Y219014D01*
X524920Y218832D01*
X524939Y218649D01*
X524944Y218632D01*
X524946Y218615D01*
X525003Y218440D01*
X525057Y218264D01*
X525065Y218249D01*
X525071Y218232D01*
X525161Y218072D01*
X525249Y217910D01*
X525260Y217897D01*
X525269Y217881D01*
X525389Y217742D01*
X525506Y217601D01*
X525520Y217590D01*
X525532Y217576D01*
X525677Y217464D01*
X525820Y217349D01*
X525836Y217341D01*
X525850Y217330D01*
X526015Y217248D01*
X526177Y217163D01*
X526194Y217158D01*
X526210Y217150D01*
X526389Y217103D01*
X526564Y217052D01*
X526582Y217050D01*
X526599Y217046D01*
X526930Y217019D01*
X527170Y217019D01*
X527188Y217021D01*
X527206Y217019D01*
X527388Y217040D01*
X527571Y217059D01*
X527588Y217064D01*
X527605Y217066D01*
X527780Y217123D01*
X527956Y217177D01*
X527971Y217185D01*
X527988Y217191D01*
X528148Y217281D01*
X528310Y217369D01*
X528323Y217380D01*
X528339Y217389D01*
X528478Y217509D01*
X528619Y217626D01*
X528630Y217640D01*
X528644Y217652D01*
X528756Y217797D01*
X528871Y217940D01*
X528879Y217956D01*
X528890Y217970D01*
X528972Y218135D01*
X529057Y218297D01*
X529062Y218314D01*
X529070Y218330D01*
X529117Y218509D01*
X529168Y218684D01*
X529170Y218702D01*
X529174Y218719D01*
X529201Y219050D01*
X529201Y220463D01*
X530987Y222249D01*
X548513Y222249D01*
X550299Y220463D01*
X550299Y204937D01*
X549594Y204233D01*
X549496Y204113D01*
X549392Y203997D01*
X549368Y203957D01*
X549339Y203921D01*
X549266Y203784D01*
X549187Y203650D01*
X549172Y203606D01*
X549150Y203565D01*
X549106Y203417D01*
X549055Y203270D01*
X549049Y203224D01*
X549036Y203179D01*
X549022Y203025D01*
X549000Y202871D01*
X549003Y202825D01*
X548999Y202778D01*
X549016Y202624D01*
X549026Y202470D01*
X549038Y202425D01*
X549043Y202378D01*
X549089Y202230D01*
X549129Y202081D01*
X549152Y202033D01*
X549164Y201994D01*
X549206Y201918D01*
X549271Y201781D01*
X549618Y201181D01*
X549791Y200535D01*
X549791Y196949D01*
X540968Y196949D01*
X540950Y196947D01*
X540933Y196949D01*
X540750Y196928D01*
X540568Y196909D01*
X540551Y196904D01*
X540533Y196902D01*
X540358Y196845D01*
X540183Y196791D01*
X540167Y196783D01*
X540150Y196777D01*
X539990Y196687D01*
X539829Y196599D01*
X539815Y196588D01*
X539799Y196579D01*
X539747Y196534D01*
X539642Y196619D01*
X539626Y196627D01*
X539612Y196638D01*
X539447Y196720D01*
X539284Y196805D01*
X539267Y196810D01*
X539251Y196818D01*
X539073Y196865D01*
X538898Y196916D01*
X538880Y196918D01*
X538863Y196922D01*
X538532Y196949D01*
X529709Y196949D01*
X529709Y200535D01*
X529882Y201181D01*
X530229Y201781D01*
X530293Y201922D01*
X530363Y202060D01*
X530375Y202105D01*
X530395Y202147D01*
X530429Y202299D01*
X530471Y202448D01*
X530474Y202495D01*
X530485Y202540D01*
X530489Y202694D01*
X530500Y202850D01*
X530494Y202896D01*
X530496Y202942D01*
X530469Y203095D01*
X530450Y203249D01*
X530435Y203293D01*
X530427Y203339D01*
X530371Y203484D01*
X530322Y203631D01*
X530298Y203671D01*
X530281Y203714D01*
X530198Y203845D01*
X530121Y203980D01*
X530087Y204020D01*
X530065Y204054D01*
X530005Y204116D01*
X529906Y204233D01*
X529201Y204937D01*
X529201Y206350D01*
X529199Y206368D01*
X529201Y206386D01*
X529180Y206568D01*
X529161Y206751D01*
X529156Y206768D01*
X529154Y206785D01*
X529097Y206960D01*
X529043Y207136D01*
X529035Y207151D01*
X529029Y207168D01*
X528939Y207328D01*
X528851Y207490D01*
X528840Y207503D01*
X528831Y207519D01*
X528711Y207658D01*
X528594Y207799D01*
X528580Y207810D01*
X528568Y207824D01*
X528423Y207936D01*
X528280Y208051D01*
X528264Y208059D01*
X528250Y208070D01*
X528085Y208152D01*
X527923Y208237D01*
X527906Y208242D01*
X527890Y208250D01*
X527711Y208297D01*
X527536Y208348D01*
X527518Y208350D01*
X527501Y208354D01*
X527170Y208381D01*
X526930Y208381D01*
X526912Y208379D01*
X526894Y208381D01*
X526712Y208360D01*
X526529Y208341D01*
X526512Y208336D01*
X526495Y208334D01*
X526320Y208277D01*
X526144Y208223D01*
X526129Y208215D01*
X526112Y208209D01*
X525952Y208119D01*
X525790Y208031D01*
X525777Y208020D01*
X525761Y208011D01*
X525622Y207891D01*
X525481Y207774D01*
X525470Y207760D01*
X525456Y207748D01*
X525344Y207603D01*
X525229Y207460D01*
X525221Y207444D01*
X525210Y207430D01*
X525128Y207265D01*
X525043Y207103D01*
X525038Y207086D01*
X525030Y207070D01*
X524983Y206891D01*
X524932Y206716D01*
X524930Y206698D01*
X524926Y206681D01*
X524899Y206350D01*
X524899Y204937D01*
X524194Y204233D01*
X524096Y204113D01*
X523992Y203997D01*
X523968Y203957D01*
X523939Y203921D01*
X523866Y203784D01*
X523787Y203650D01*
X523772Y203606D01*
X523750Y203565D01*
X523706Y203417D01*
X523655Y203270D01*
X523649Y203224D01*
X523636Y203179D01*
X523622Y203025D01*
X523600Y202871D01*
X523603Y202825D01*
X523599Y202778D01*
X523616Y202624D01*
X523626Y202470D01*
X523638Y202425D01*
X523643Y202378D01*
X523689Y202230D01*
X523729Y202081D01*
X523752Y202033D01*
X523764Y201994D01*
X523806Y201918D01*
X523871Y201781D01*
X524218Y201181D01*
X524391Y200535D01*
X524391Y196949D01*
X515568Y196949D01*
X515550Y196947D01*
X515533Y196949D01*
X515350Y196928D01*
X515168Y196909D01*
X515151Y196904D01*
X515133Y196902D01*
X514958Y196845D01*
X514783Y196791D01*
X514767Y196783D01*
X514750Y196777D01*
X514590Y196687D01*
X514429Y196599D01*
X514415Y196588D01*
X514399Y196579D01*
X514347Y196534D01*
X514242Y196619D01*
X514226Y196627D01*
X514212Y196638D01*
X514047Y196720D01*
X513884Y196805D01*
X513867Y196810D01*
X513851Y196818D01*
X513673Y196865D01*
X513498Y196916D01*
X513480Y196918D01*
X513463Y196922D01*
X513132Y196949D01*
X504309Y196949D01*
X504309Y200535D01*
X504482Y201181D01*
X504829Y201781D01*
X504893Y201922D01*
X504963Y202060D01*
X504975Y202105D01*
X504995Y202147D01*
X505029Y202299D01*
X505071Y202448D01*
X505074Y202495D01*
X505085Y202540D01*
X505089Y202694D01*
X505100Y202850D01*
X505094Y202896D01*
X505096Y202942D01*
X505069Y203095D01*
X505050Y203249D01*
X505035Y203293D01*
X505027Y203339D01*
X504971Y203484D01*
X504922Y203631D01*
X504898Y203671D01*
X504881Y203714D01*
X504798Y203845D01*
X504721Y203980D01*
X504687Y204020D01*
X504665Y204054D01*
X504605Y204116D01*
X504506Y204233D01*
X503801Y204937D01*
X503801Y220463D01*
X504356Y221018D01*
X504373Y221039D01*
X504394Y221056D01*
X504501Y221194D01*
X504611Y221329D01*
X504624Y221353D01*
X504640Y221374D01*
X504718Y221531D01*
X504800Y221685D01*
X504808Y221711D01*
X504820Y221735D01*
X504865Y221904D01*
X504915Y222071D01*
X504917Y222098D01*
X504924Y222123D01*
X504951Y222454D01*
X504951Y223684D01*
X504949Y223710D01*
X504951Y223737D01*
X504929Y223911D01*
X504911Y224084D01*
X504904Y224110D01*
X504900Y224136D01*
X504845Y224302D01*
X504793Y224469D01*
X504780Y224493D01*
X504772Y224518D01*
X504685Y224670D01*
X504601Y224823D01*
X504584Y224844D01*
X504571Y224867D01*
X504356Y225120D01*
X502742Y226734D01*
X502721Y226751D01*
X502704Y226772D01*
X502566Y226879D01*
X502431Y226989D01*
X502407Y227002D01*
X502386Y227018D01*
X502229Y227096D01*
X502075Y227178D01*
X502049Y227186D01*
X502025Y227198D01*
X501856Y227243D01*
X501689Y227293D01*
X501662Y227295D01*
X501636Y227302D01*
X501306Y227329D01*
X490885Y227329D01*
X489298Y227987D01*
X485289Y231996D01*
X484595Y233671D01*
X484591Y233706D01*
X484589Y233715D01*
X484588Y233724D01*
X484529Y233908D01*
X484473Y234091D01*
X484469Y234099D01*
X484466Y234108D01*
X484373Y234276D01*
X484281Y234445D01*
X484276Y234452D01*
X484271Y234460D01*
X484147Y234607D01*
X484024Y234755D01*
X484017Y234760D01*
X484011Y234767D01*
X483859Y234887D01*
X483710Y235007D01*
X483702Y235011D01*
X483695Y235017D01*
X483522Y235104D01*
X483353Y235192D01*
X483344Y235195D01*
X483336Y235199D01*
X483150Y235251D01*
X482966Y235304D01*
X482957Y235305D01*
X482948Y235307D01*
X482755Y235321D01*
X482564Y235337D01*
X482556Y235336D01*
X482547Y235336D01*
X482354Y235312D01*
X482165Y235290D01*
X482156Y235287D01*
X482147Y235286D01*
X481965Y235225D01*
X481782Y235165D01*
X481774Y235161D01*
X481766Y235158D01*
X481599Y235062D01*
X481431Y234967D01*
X481424Y234961D01*
X481417Y234957D01*
X481351Y234901D01*
X471142Y234901D01*
X471025Y234997D01*
X471009Y235006D01*
X470995Y235017D01*
X470832Y235100D01*
X470669Y235186D01*
X470652Y235191D01*
X470636Y235199D01*
X470459Y235248D01*
X470283Y235301D01*
X470266Y235302D01*
X470248Y235307D01*
X470065Y235320D01*
X469882Y235337D01*
X469865Y235335D01*
X469847Y235336D01*
X469664Y235313D01*
X469482Y235294D01*
X469465Y235288D01*
X469447Y235286D01*
X469273Y235227D01*
X469098Y235172D01*
X469083Y235163D01*
X469066Y235158D01*
X468906Y235066D01*
X468746Y234977D01*
X468732Y234966D01*
X468717Y234957D01*
X468651Y234901D01*
X458442Y234901D01*
X458325Y234997D01*
X458309Y235006D01*
X458295Y235017D01*
X458132Y235100D01*
X457969Y235186D01*
X457952Y235191D01*
X457936Y235199D01*
X457759Y235248D01*
X457583Y235301D01*
X457566Y235302D01*
X457548Y235307D01*
X457365Y235320D01*
X457182Y235337D01*
X457165Y235335D01*
X457147Y235336D01*
X456964Y235313D01*
X456782Y235294D01*
X456765Y235288D01*
X456747Y235286D01*
X456573Y235227D01*
X456398Y235172D01*
X456383Y235163D01*
X456366Y235158D01*
X456206Y235066D01*
X456046Y234977D01*
X456032Y234966D01*
X456017Y234957D01*
X455951Y234901D01*
X445742Y234901D01*
X445625Y234997D01*
X445617Y235001D01*
X445610Y235007D01*
X445439Y235096D01*
X445269Y235186D01*
X445261Y235188D01*
X445253Y235192D01*
X445067Y235246D01*
X444883Y235301D01*
X444874Y235301D01*
X444866Y235304D01*
X444674Y235320D01*
X444482Y235337D01*
X444473Y235336D01*
X444464Y235337D01*
X444275Y235315D01*
X444082Y235294D01*
X444073Y235291D01*
X444065Y235290D01*
X443883Y235230D01*
X443698Y235172D01*
X443690Y235168D01*
X443682Y235165D01*
X443513Y235070D01*
X443346Y234977D01*
X443339Y234972D01*
X443331Y234967D01*
X443185Y234841D01*
X443039Y234717D01*
X443033Y234710D01*
X443026Y234704D01*
X442908Y234551D01*
X442789Y234401D01*
X442785Y234393D01*
X442780Y234386D01*
X442694Y234214D01*
X442607Y234042D01*
X442604Y234033D01*
X442600Y234025D01*
X442550Y233839D01*
X442499Y233654D01*
X442498Y233645D01*
X442496Y233637D01*
X442469Y233306D01*
X442469Y217932D01*
X442471Y217914D01*
X442469Y217896D01*
X442490Y217714D01*
X442509Y217531D01*
X442514Y217514D01*
X442516Y217497D01*
X442573Y217322D01*
X442627Y217146D01*
X442635Y217131D01*
X442641Y217114D01*
X442731Y216954D01*
X442819Y216792D01*
X442830Y216779D01*
X442839Y216763D01*
X442959Y216624D01*
X443076Y216483D01*
X443090Y216472D01*
X443102Y216458D01*
X443247Y216346D01*
X443390Y216231D01*
X443406Y216223D01*
X443420Y216212D01*
X443585Y216130D01*
X443747Y216045D01*
X443764Y216040D01*
X443780Y216032D01*
X443959Y215985D01*
X444134Y215934D01*
X444152Y215932D01*
X444169Y215928D01*
X444500Y215901D01*
X470023Y215901D01*
X470065Y215880D01*
X470219Y215798D01*
X470245Y215790D01*
X470269Y215778D01*
X470438Y215733D01*
X470605Y215683D01*
X470631Y215681D01*
X470657Y215674D01*
X470988Y215647D01*
X476370Y215647D01*
X476388Y215649D01*
X476406Y215647D01*
X476588Y215668D01*
X476771Y215687D01*
X476788Y215692D01*
X476805Y215694D01*
X476980Y215751D01*
X477156Y215805D01*
X477171Y215813D01*
X477188Y215819D01*
X477348Y215909D01*
X477510Y215997D01*
X477523Y216008D01*
X477539Y216017D01*
X477678Y216137D01*
X477819Y216254D01*
X477830Y216268D01*
X477844Y216280D01*
X477956Y216425D01*
X478071Y216568D01*
X478079Y216584D01*
X478090Y216598D01*
X478172Y216763D01*
X478257Y216925D01*
X478262Y216942D01*
X478270Y216958D01*
X478317Y217136D01*
X478368Y217312D01*
X478370Y217330D01*
X478374Y217347D01*
X478401Y217678D01*
X478401Y220463D01*
X480187Y222249D01*
X497713Y222249D01*
X499499Y220463D01*
X499499Y204937D01*
X498794Y204233D01*
X498696Y204113D01*
X498592Y203997D01*
X498568Y203957D01*
X498539Y203921D01*
X498466Y203784D01*
X498387Y203650D01*
X498372Y203606D01*
X498350Y203565D01*
X498306Y203417D01*
X498255Y203270D01*
X498249Y203224D01*
X498236Y203179D01*
X498222Y203025D01*
X498200Y202871D01*
X498203Y202825D01*
X498199Y202778D01*
X498216Y202624D01*
X498226Y202470D01*
X498238Y202425D01*
X498243Y202378D01*
X498289Y202230D01*
X498329Y202081D01*
X498352Y202033D01*
X498364Y201994D01*
X498406Y201918D01*
X498471Y201781D01*
X498818Y201181D01*
X498991Y200535D01*
X498991Y196949D01*
X490168Y196949D01*
X490150Y196947D01*
X490133Y196949D01*
X489950Y196928D01*
X489768Y196909D01*
X489751Y196904D01*
X489733Y196902D01*
X489558Y196845D01*
X489383Y196791D01*
X489367Y196783D01*
X489350Y196777D01*
X489190Y196687D01*
X489029Y196599D01*
X489015Y196588D01*
X488999Y196579D01*
X488947Y196534D01*
X488842Y196619D01*
X488826Y196627D01*
X488812Y196638D01*
X488647Y196720D01*
X488484Y196805D01*
X488467Y196810D01*
X488451Y196818D01*
X488273Y196865D01*
X488098Y196916D01*
X488080Y196918D01*
X488063Y196922D01*
X487732Y196949D01*
X478909Y196949D01*
X478909Y200535D01*
X479082Y201181D01*
X479429Y201781D01*
X479493Y201922D01*
X479563Y202060D01*
X479575Y202105D01*
X479595Y202147D01*
X479629Y202299D01*
X479671Y202448D01*
X479674Y202495D01*
X479685Y202540D01*
X479689Y202694D01*
X479700Y202850D01*
X479694Y202896D01*
X479696Y202942D01*
X479669Y203095D01*
X479650Y203249D01*
X479635Y203293D01*
X479627Y203339D01*
X479571Y203484D01*
X479522Y203631D01*
X479498Y203671D01*
X479481Y203714D01*
X479398Y203845D01*
X479321Y203980D01*
X479287Y204020D01*
X479265Y204054D01*
X479205Y204116D01*
X479106Y204233D01*
X478401Y204937D01*
X478401Y204978D01*
X478399Y204996D01*
X478401Y205014D01*
X478380Y205196D01*
X478361Y205379D01*
X478356Y205396D01*
X478354Y205413D01*
X478297Y205588D01*
X478243Y205764D01*
X478235Y205779D01*
X478229Y205796D01*
X478139Y205956D01*
X478051Y206118D01*
X478040Y206131D01*
X478031Y206147D01*
X477911Y206286D01*
X477794Y206427D01*
X477780Y206438D01*
X477768Y206452D01*
X477623Y206564D01*
X477480Y206679D01*
X477464Y206687D01*
X477450Y206698D01*
X477285Y206780D01*
X477123Y206865D01*
X477106Y206870D01*
X477090Y206878D01*
X476911Y206925D01*
X476736Y206976D01*
X476718Y206978D01*
X476701Y206982D01*
X476370Y207009D01*
X473710Y207009D01*
X473692Y207007D01*
X473674Y207009D01*
X473492Y206988D01*
X473309Y206969D01*
X473292Y206964D01*
X473275Y206962D01*
X473100Y206905D01*
X472924Y206851D01*
X472909Y206843D01*
X472892Y206837D01*
X472732Y206747D01*
X472570Y206659D01*
X472557Y206648D01*
X472541Y206639D01*
X472402Y206519D01*
X472261Y206402D01*
X472250Y206388D01*
X472236Y206376D01*
X472124Y206231D01*
X472009Y206088D01*
X472001Y206072D01*
X471990Y206058D01*
X471908Y205893D01*
X471823Y205731D01*
X471818Y205714D01*
X471810Y205698D01*
X471763Y205519D01*
X471712Y205344D01*
X471710Y205326D01*
X471706Y205309D01*
X471679Y204978D01*
X471679Y192285D01*
X469893Y190499D01*
X414027Y190499D01*
X412241Y192285D01*
X412241Y214115D01*
X414027Y215901D01*
X431800Y215901D01*
X431818Y215903D01*
X431836Y215901D01*
X432018Y215922D01*
X432201Y215941D01*
X432218Y215946D01*
X432235Y215948D01*
X432410Y216005D01*
X432586Y216059D01*
X432601Y216067D01*
X432618Y216073D01*
X432778Y216163D01*
X432940Y216251D01*
X432953Y216262D01*
X432969Y216271D01*
X433108Y216391D01*
X433249Y216508D01*
X433260Y216522D01*
X433274Y216534D01*
X433386Y216679D01*
X433501Y216822D01*
X433509Y216838D01*
X433520Y216852D01*
X433602Y217017D01*
X433687Y217179D01*
X433692Y217196D01*
X433700Y217212D01*
X433747Y217391D01*
X433798Y217566D01*
X433800Y217584D01*
X433804Y217601D01*
X433831Y217932D01*
X433831Y233306D01*
X433830Y233315D01*
X433831Y233324D01*
X433829Y233341D01*
X433831Y233359D01*
X433809Y233533D01*
X433791Y233706D01*
X433789Y233715D01*
X433788Y233724D01*
X433782Y233741D01*
X433780Y233759D01*
X433725Y233924D01*
X433673Y234091D01*
X433669Y234099D01*
X433666Y234108D01*
X433658Y234123D01*
X433652Y234140D01*
X433565Y234292D01*
X433481Y234445D01*
X433476Y234452D01*
X433471Y234460D01*
X433460Y234474D01*
X433451Y234489D01*
X433236Y234742D01*
X433229Y234748D01*
X433224Y234755D01*
X433217Y234760D01*
X433211Y234767D01*
X433067Y234881D01*
X432925Y234997D01*
X432917Y235001D01*
X432910Y235007D01*
X432902Y235011D01*
X432895Y235017D01*
X432731Y235100D01*
X432569Y235186D01*
X432560Y235188D01*
X432553Y235192D01*
X432544Y235195D01*
X432536Y235199D01*
X432359Y235248D01*
X432183Y235301D01*
X432174Y235301D01*
X432166Y235304D01*
X432157Y235305D01*
X432148Y235307D01*
X431965Y235320D01*
X431782Y235337D01*
X431773Y235336D01*
X431764Y235337D01*
X431756Y235336D01*
X431747Y235336D01*
X431565Y235313D01*
X431382Y235294D01*
X431373Y235291D01*
X431365Y235290D01*
X431356Y235287D01*
X431347Y235286D01*
X431174Y235228D01*
X430998Y235172D01*
X430990Y235168D01*
X430982Y235165D01*
X430974Y235161D01*
X430966Y235158D01*
X430806Y235066D01*
X430646Y234977D01*
X430639Y234971D01*
X430631Y234967D01*
X430625Y234961D01*
X430617Y234957D01*
X430364Y234742D01*
X430110Y234488D01*
X430092Y234467D01*
X430071Y234448D01*
X429965Y234311D01*
X429855Y234177D01*
X429842Y234152D01*
X429825Y234130D01*
X429747Y233974D01*
X429666Y233821D01*
X429658Y233794D01*
X429646Y233769D01*
X429554Y233450D01*
X429516Y233261D01*
X429388Y233069D01*
X429372Y233039D01*
X429351Y233012D01*
X429199Y232716D01*
X429199Y232715D01*
X429199Y232714D01*
X429198Y232714D01*
X429111Y232504D01*
X428944Y232336D01*
X428923Y232311D01*
X428899Y232290D01*
X428692Y232030D01*
X428560Y231833D01*
X428369Y231705D01*
X428342Y231684D01*
X428312Y231666D01*
X428059Y231452D01*
X427896Y231289D01*
X427677Y231198D01*
X427649Y231183D01*
X427618Y231172D01*
X427328Y231011D01*
X390269Y206305D01*
X390242Y206283D01*
X390212Y206266D01*
X389959Y206052D01*
X389796Y205889D01*
X389578Y205798D01*
X389549Y205783D01*
X389518Y205772D01*
X389228Y205612D01*
X389031Y205480D01*
X388805Y205435D01*
X388772Y205425D01*
X388738Y205421D01*
X388422Y205319D01*
X388209Y205231D01*
X387972Y205231D01*
X387940Y205228D01*
X387908Y205230D01*
X387578Y205193D01*
X387345Y205147D01*
X387119Y205192D01*
X387085Y205195D01*
X387052Y205204D01*
X386721Y205231D01*
X377190Y205231D01*
X377172Y205229D01*
X377154Y205231D01*
X376972Y205210D01*
X376789Y205191D01*
X376772Y205186D01*
X376755Y205184D01*
X376580Y205127D01*
X376404Y205073D01*
X376389Y205065D01*
X376372Y205059D01*
X376212Y204969D01*
X376050Y204881D01*
X376037Y204870D01*
X376021Y204861D01*
X375882Y204741D01*
X375741Y204624D01*
X375730Y204610D01*
X375716Y204598D01*
X375604Y204453D01*
X375489Y204310D01*
X375481Y204294D01*
X375470Y204280D01*
X375388Y204115D01*
X375303Y203953D01*
X375298Y203936D01*
X375290Y203920D01*
X375243Y203741D01*
X375192Y203566D01*
X375190Y203548D01*
X375186Y203531D01*
X375159Y203200D01*
X375159Y192285D01*
X373373Y190499D01*
X317507Y190499D01*
X315721Y192285D01*
X315721Y204978D01*
X315719Y204996D01*
X315721Y205014D01*
X315700Y205196D01*
X315681Y205379D01*
X315676Y205396D01*
X315674Y205413D01*
X315617Y205588D01*
X315563Y205764D01*
X315555Y205779D01*
X315549Y205796D01*
X315459Y205956D01*
X315371Y206118D01*
X315360Y206131D01*
X315351Y206147D01*
X315231Y206286D01*
X315114Y206427D01*
X315100Y206438D01*
X315088Y206452D01*
X314943Y206564D01*
X314800Y206679D01*
X314784Y206687D01*
X314770Y206698D01*
X314605Y206780D01*
X314443Y206865D01*
X314426Y206870D01*
X314410Y206878D01*
X314231Y206925D01*
X314056Y206976D01*
X314038Y206978D01*
X314021Y206982D01*
X313690Y207009D01*
X311030Y207009D01*
X311012Y207007D01*
X310994Y207009D01*
X310812Y206988D01*
X310629Y206969D01*
X310612Y206964D01*
X310595Y206962D01*
X310420Y206905D01*
X310244Y206851D01*
X310229Y206843D01*
X310212Y206837D01*
X310052Y206747D01*
X309890Y206659D01*
X309877Y206648D01*
X309861Y206639D01*
X309722Y206519D01*
X309581Y206402D01*
X309570Y206388D01*
X309556Y206376D01*
X309444Y206231D01*
X309329Y206088D01*
X309321Y206072D01*
X309310Y206058D01*
X309228Y205893D01*
X309143Y205731D01*
X309138Y205714D01*
X309130Y205698D01*
X309083Y205519D01*
X309032Y205344D01*
X309030Y205326D01*
X309026Y205309D01*
X308999Y204978D01*
X308999Y204937D01*
X308294Y204233D01*
X308196Y204113D01*
X308092Y203997D01*
X308068Y203957D01*
X308039Y203921D01*
X307966Y203784D01*
X307887Y203650D01*
X307872Y203606D01*
X307850Y203565D01*
X307806Y203417D01*
X307755Y203270D01*
X307749Y203224D01*
X307736Y203179D01*
X307722Y203025D01*
X307700Y202871D01*
X307703Y202825D01*
X307699Y202778D01*
X307716Y202624D01*
X307726Y202470D01*
X307738Y202425D01*
X307743Y202378D01*
X307789Y202230D01*
X307829Y202081D01*
X307852Y202033D01*
X307864Y201994D01*
X307906Y201918D01*
X307971Y201781D01*
X308318Y201181D01*
X308491Y200535D01*
X308491Y196949D01*
X299668Y196949D01*
X299650Y196947D01*
X299633Y196949D01*
X299450Y196928D01*
X299268Y196909D01*
X299251Y196904D01*
X299233Y196902D01*
X299058Y196845D01*
X298883Y196791D01*
X298867Y196783D01*
X298850Y196777D01*
X298690Y196687D01*
X298529Y196599D01*
X298515Y196588D01*
X298499Y196579D01*
X298447Y196534D01*
X298342Y196619D01*
X298326Y196627D01*
X298312Y196638D01*
X298147Y196720D01*
X297984Y196805D01*
X297967Y196810D01*
X297951Y196818D01*
X297773Y196865D01*
X297598Y196916D01*
X297580Y196918D01*
X297563Y196922D01*
X297232Y196949D01*
X288409Y196949D01*
X288409Y200535D01*
X288582Y201181D01*
X288929Y201781D01*
X288993Y201922D01*
X289063Y202060D01*
X289075Y202105D01*
X289095Y202147D01*
X289129Y202299D01*
X289171Y202448D01*
X289174Y202495D01*
X289185Y202540D01*
X289189Y202694D01*
X289200Y202850D01*
X289194Y202896D01*
X289196Y202942D01*
X289169Y203095D01*
X289150Y203249D01*
X289135Y203293D01*
X289127Y203339D01*
X289071Y203484D01*
X289022Y203631D01*
X288998Y203671D01*
X288981Y203714D01*
X288898Y203845D01*
X288821Y203980D01*
X288787Y204020D01*
X288765Y204054D01*
X288705Y204116D01*
X288606Y204233D01*
X287901Y204937D01*
X287901Y220463D01*
X289687Y222249D01*
X307363Y222249D01*
X307377Y222250D01*
X307390Y222249D01*
X307576Y222270D01*
X307764Y222289D01*
X307777Y222293D01*
X307790Y222294D01*
X307969Y222352D01*
X308149Y222407D01*
X308161Y222413D01*
X308174Y222417D01*
X308338Y222509D01*
X308503Y222599D01*
X308513Y222607D01*
X308525Y222614D01*
X308668Y222736D01*
X308812Y222856D01*
X308821Y222867D01*
X308831Y222875D01*
X308947Y223024D01*
X309065Y223170D01*
X309071Y223182D01*
X309079Y223192D01*
X309164Y223361D01*
X309250Y223527D01*
X309254Y223540D01*
X309260Y223552D01*
X309309Y223733D01*
X309362Y223914D01*
X309363Y223928D01*
X309366Y223941D01*
X309379Y224129D01*
X309394Y224316D01*
X309393Y224329D01*
X309394Y224342D01*
X309369Y224530D01*
X309348Y224715D01*
X309343Y224728D01*
X309342Y224741D01*
X309240Y225057D01*
X308863Y225967D01*
X308863Y229201D01*
X310101Y232189D01*
X312387Y234475D01*
X314591Y235388D01*
X315737Y235863D01*
X315757Y235873D01*
X315778Y235880D01*
X315934Y235968D01*
X316092Y236053D01*
X316109Y236067D01*
X316129Y236078D01*
X316264Y236195D01*
X316403Y236309D01*
X316417Y236327D01*
X316434Y236341D01*
X316543Y236483D01*
X316656Y236622D01*
X316667Y236642D01*
X316680Y236659D01*
X316760Y236820D01*
X316843Y236978D01*
X316850Y237000D01*
X316860Y237020D01*
X316906Y237193D01*
X316956Y237365D01*
X316958Y237387D01*
X316964Y237409D01*
X316991Y237739D01*
X316991Y251913D01*
X318936Y253858D01*
X318953Y253879D01*
X318974Y253896D01*
X319081Y254034D01*
X319191Y254169D01*
X319204Y254193D01*
X319220Y254214D01*
X319298Y254371D01*
X319380Y254525D01*
X319388Y254551D01*
X319400Y254575D01*
X319445Y254744D01*
X319495Y254911D01*
X319497Y254938D01*
X319504Y254963D01*
X319531Y255294D01*
X319531Y255498D01*
X319529Y255524D01*
X319531Y255551D01*
X319509Y255725D01*
X319491Y255898D01*
X319484Y255924D01*
X319480Y255950D01*
X319425Y256116D01*
X319373Y256283D01*
X319360Y256307D01*
X319352Y256332D01*
X319265Y256484D01*
X319181Y256637D01*
X319164Y256658D01*
X319151Y256681D01*
X318936Y256934D01*
X316420Y259450D01*
X315086Y262671D01*
X315086Y266157D01*
X316420Y269378D01*
X318886Y271844D01*
X322107Y273178D01*
X325593Y273178D01*
X328814Y271844D01*
X331280Y269378D01*
X332614Y266157D01*
X332614Y262671D01*
X331280Y259450D01*
X328764Y256934D01*
X328747Y256913D01*
X328726Y256896D01*
X328619Y256758D01*
X328509Y256622D01*
X328496Y256599D01*
X328480Y256578D01*
X328402Y256421D01*
X328320Y256267D01*
X328312Y256241D01*
X328300Y256217D01*
X328255Y256048D01*
X328205Y255881D01*
X328203Y255854D01*
X328196Y255828D01*
X328169Y255498D01*
X328169Y255294D01*
X328170Y255285D01*
X328169Y255276D01*
X328190Y255083D01*
X328209Y254894D01*
X328211Y254885D01*
X328212Y254876D01*
X328271Y254692D01*
X328327Y254509D01*
X328331Y254501D01*
X328334Y254492D01*
X328427Y254324D01*
X328519Y254155D01*
X328524Y254148D01*
X328529Y254140D01*
X328653Y253993D01*
X328776Y253845D01*
X328783Y253840D01*
X328789Y253833D01*
X328941Y253713D01*
X329090Y253593D01*
X329098Y253589D01*
X329105Y253583D01*
X329278Y253496D01*
X329447Y253408D01*
X329456Y253405D01*
X329464Y253401D01*
X329650Y253349D01*
X329834Y253296D01*
X329843Y253295D01*
X329852Y253293D01*
X330045Y253279D01*
X330236Y253263D01*
X330244Y253264D01*
X330253Y253264D01*
X330446Y253288D01*
X330635Y253310D01*
X330644Y253313D01*
X330653Y253314D01*
X330835Y253375D01*
X331018Y253435D01*
X331026Y253439D01*
X331034Y253442D01*
X331201Y253538D01*
X331369Y253633D01*
X331376Y253639D01*
X331383Y253643D01*
X331449Y253699D01*
X341658Y253699D01*
X341775Y253603D01*
X341791Y253594D01*
X341805Y253583D01*
X341968Y253500D01*
X342131Y253414D01*
X342148Y253409D01*
X342164Y253401D01*
X342341Y253352D01*
X342517Y253299D01*
X342534Y253298D01*
X342552Y253293D01*
X342735Y253280D01*
X342918Y253263D01*
X342935Y253265D01*
X342953Y253264D01*
X343136Y253287D01*
X343318Y253306D01*
X343335Y253312D01*
X343353Y253314D01*
X343527Y253373D01*
X343702Y253428D01*
X343717Y253437D01*
X343734Y253442D01*
X343894Y253534D01*
X344054Y253623D01*
X344068Y253634D01*
X344083Y253643D01*
X344149Y253699D01*
X354358Y253699D01*
X354475Y253603D01*
X354491Y253594D01*
X354505Y253583D01*
X354668Y253500D01*
X354831Y253414D01*
X354848Y253409D01*
X354864Y253401D01*
X355041Y253352D01*
X355217Y253299D01*
X355234Y253298D01*
X355252Y253293D01*
X355435Y253280D01*
X355618Y253263D01*
X355635Y253265D01*
X355653Y253264D01*
X355836Y253287D01*
X356018Y253306D01*
X356035Y253312D01*
X356053Y253314D01*
X356227Y253373D01*
X356402Y253428D01*
X356417Y253437D01*
X356434Y253442D01*
X356594Y253534D01*
X356754Y253623D01*
X356768Y253634D01*
X356783Y253643D01*
X356849Y253699D01*
X367058Y253699D01*
X367175Y253603D01*
X367191Y253594D01*
X367205Y253583D01*
X367368Y253500D01*
X367531Y253414D01*
X367548Y253409D01*
X367564Y253401D01*
X367741Y253352D01*
X367917Y253299D01*
X367934Y253298D01*
X367952Y253293D01*
X368135Y253280D01*
X368318Y253263D01*
X368335Y253265D01*
X368353Y253264D01*
X368536Y253287D01*
X368718Y253306D01*
X368735Y253312D01*
X368753Y253314D01*
X368927Y253373D01*
X369102Y253428D01*
X369117Y253437D01*
X369134Y253442D01*
X369294Y253534D01*
X369454Y253623D01*
X369468Y253634D01*
X369483Y253643D01*
X369549Y253699D01*
X379758Y253699D01*
X379875Y253603D01*
X379891Y253594D01*
X379905Y253583D01*
X380068Y253500D01*
X380231Y253414D01*
X380248Y253409D01*
X380264Y253401D01*
X380441Y253352D01*
X380617Y253299D01*
X380634Y253298D01*
X380652Y253293D01*
X380835Y253280D01*
X381018Y253263D01*
X381035Y253265D01*
X381053Y253264D01*
X381236Y253287D01*
X381418Y253306D01*
X381435Y253312D01*
X381453Y253314D01*
X381627Y253373D01*
X381802Y253428D01*
X381817Y253437D01*
X381834Y253442D01*
X381994Y253534D01*
X382154Y253623D01*
X382168Y253634D01*
X382183Y253643D01*
X382249Y253699D01*
X392458Y253699D01*
X392575Y253603D01*
X392591Y253594D01*
X392605Y253583D01*
X392768Y253500D01*
X392931Y253414D01*
X392948Y253409D01*
X392964Y253401D01*
X393141Y253352D01*
X393317Y253299D01*
X393334Y253298D01*
X393352Y253293D01*
X393535Y253280D01*
X393718Y253263D01*
X393735Y253265D01*
X393753Y253264D01*
X393936Y253287D01*
X394118Y253306D01*
X394135Y253312D01*
X394153Y253314D01*
X394327Y253373D01*
X394502Y253428D01*
X394517Y253437D01*
X394534Y253442D01*
X394694Y253534D01*
X394854Y253623D01*
X394868Y253634D01*
X394883Y253643D01*
X394949Y253699D01*
X405123Y253699D01*
X405491Y253331D01*
X405611Y253233D01*
X405726Y253129D01*
X405766Y253105D01*
X405802Y253076D01*
X405939Y253003D01*
X406073Y252924D01*
X406117Y252909D01*
X406158Y252887D01*
X406307Y252843D01*
X406453Y252792D01*
X406499Y252786D01*
X406544Y252772D01*
X406698Y252758D01*
X406852Y252737D01*
X406898Y252740D01*
X406945Y252736D01*
X407099Y252753D01*
X407254Y252762D01*
X407299Y252774D01*
X407345Y252779D01*
X407493Y252826D01*
X407643Y252866D01*
X407690Y252889D01*
X407729Y252901D01*
X407805Y252943D01*
X407943Y253008D01*
X407959Y253018D01*
X408605Y253191D01*
X410719Y253191D01*
X410719Y244300D01*
X410720Y244283D01*
X410719Y244265D01*
X410740Y244082D01*
X410758Y243900D01*
X410764Y243883D01*
X410766Y243865D01*
X410823Y243690D01*
X410877Y243515D01*
X410885Y243499D01*
X410891Y243482D01*
X410981Y243322D01*
X411068Y243161D01*
X411080Y243147D01*
X411089Y243132D01*
X411209Y242992D01*
X411326Y242852D01*
X411340Y242840D01*
X411352Y242827D01*
X411497Y242714D01*
X411640Y242599D01*
X411656Y242591D01*
X411670Y242580D01*
X411835Y242498D01*
X411997Y242414D01*
X412014Y242409D01*
X412030Y242401D01*
X412208Y242353D01*
X412384Y242302D01*
X412402Y242301D01*
X412419Y242296D01*
X412750Y242269D01*
X412768Y242271D01*
X412785Y242269D01*
X412786Y242269D01*
X412968Y242291D01*
X413151Y242309D01*
X413168Y242314D01*
X413186Y242316D01*
X413360Y242373D01*
X413536Y242427D01*
X413551Y242436D01*
X413568Y242441D01*
X413729Y242532D01*
X413890Y242619D01*
X413903Y242630D01*
X413919Y242639D01*
X414058Y242759D01*
X414199Y242877D01*
X414210Y242891D01*
X414224Y242902D01*
X414336Y243047D01*
X414451Y243190D01*
X414460Y243206D01*
X414470Y243220D01*
X414552Y243385D01*
X414637Y243548D01*
X414642Y243565D01*
X414650Y243581D01*
X414698Y243759D01*
X414748Y243935D01*
X414750Y243952D01*
X414754Y243970D01*
X414781Y244300D01*
X414781Y253191D01*
X416895Y253191D01*
X417541Y253018D01*
X417557Y253008D01*
X417699Y252944D01*
X417837Y252874D01*
X417882Y252861D01*
X417924Y252842D01*
X418075Y252808D01*
X418225Y252766D01*
X418271Y252763D01*
X418317Y252752D01*
X418471Y252748D01*
X418626Y252737D01*
X418673Y252742D01*
X418719Y252741D01*
X418872Y252768D01*
X419026Y252787D01*
X419070Y252802D01*
X419116Y252810D01*
X419260Y252866D01*
X419407Y252915D01*
X419448Y252938D01*
X419491Y252955D01*
X419622Y253039D01*
X419756Y253116D01*
X419796Y253150D01*
X419831Y253172D01*
X419893Y253232D01*
X420009Y253331D01*
X420377Y253699D01*
X430558Y253699D01*
X430675Y253603D01*
X430691Y253594D01*
X430705Y253583D01*
X430868Y253500D01*
X431031Y253414D01*
X431048Y253409D01*
X431064Y253401D01*
X431241Y253352D01*
X431417Y253299D01*
X431434Y253298D01*
X431452Y253293D01*
X431635Y253280D01*
X431818Y253263D01*
X431835Y253265D01*
X431853Y253264D01*
X432036Y253287D01*
X432218Y253306D01*
X432235Y253312D01*
X432253Y253314D01*
X432427Y253373D01*
X432602Y253428D01*
X432617Y253437D01*
X432634Y253442D01*
X432794Y253534D01*
X432954Y253623D01*
X432968Y253634D01*
X432983Y253643D01*
X433049Y253699D01*
X443258Y253699D01*
X443375Y253603D01*
X443391Y253594D01*
X443405Y253583D01*
X443568Y253500D01*
X443731Y253414D01*
X443748Y253409D01*
X443764Y253401D01*
X443941Y253352D01*
X444117Y253299D01*
X444134Y253298D01*
X444152Y253293D01*
X444335Y253280D01*
X444518Y253263D01*
X444535Y253265D01*
X444553Y253264D01*
X444736Y253287D01*
X444918Y253306D01*
X444935Y253312D01*
X444953Y253314D01*
X445127Y253373D01*
X445302Y253428D01*
X445317Y253437D01*
X445334Y253442D01*
X445494Y253534D01*
X445654Y253623D01*
X445668Y253634D01*
X445683Y253643D01*
X445749Y253699D01*
X455958Y253699D01*
X456075Y253603D01*
X456091Y253594D01*
X456105Y253583D01*
X456269Y253500D01*
X456431Y253414D01*
X456448Y253409D01*
X456464Y253401D01*
X456641Y253352D01*
X456817Y253299D01*
X456835Y253298D01*
X456852Y253293D01*
X457035Y253280D01*
X457218Y253263D01*
X457236Y253265D01*
X457253Y253264D01*
X457435Y253287D01*
X457618Y253306D01*
X457635Y253312D01*
X457653Y253314D01*
X457826Y253372D01*
X458002Y253428D01*
X458018Y253437D01*
X458035Y253442D01*
X458194Y253534D01*
X458354Y253623D01*
X458368Y253634D01*
X458383Y253643D01*
X458449Y253699D01*
X468658Y253699D01*
X468775Y253603D01*
X468783Y253599D01*
X468790Y253593D01*
X468961Y253504D01*
X469131Y253414D01*
X469139Y253412D01*
X469147Y253408D01*
X469333Y253354D01*
X469517Y253299D01*
X469526Y253299D01*
X469534Y253296D01*
X469726Y253280D01*
X469918Y253263D01*
X469927Y253264D01*
X469936Y253263D01*
X470125Y253285D01*
X470318Y253306D01*
X470327Y253309D01*
X470335Y253310D01*
X470517Y253370D01*
X470702Y253428D01*
X470710Y253432D01*
X470718Y253435D01*
X470887Y253530D01*
X471054Y253623D01*
X471061Y253628D01*
X471069Y253633D01*
X471215Y253759D01*
X471361Y253883D01*
X471367Y253890D01*
X471374Y253896D01*
X471491Y254047D01*
X471611Y254199D01*
X471615Y254207D01*
X471620Y254214D01*
X471706Y254386D01*
X471793Y254558D01*
X471796Y254567D01*
X471800Y254575D01*
X471850Y254761D01*
X471901Y254946D01*
X471902Y254955D01*
X471904Y254963D01*
X471931Y255294D01*
X471931Y257720D01*
X471929Y257746D01*
X471931Y257773D01*
X471909Y257947D01*
X471891Y258120D01*
X471884Y258146D01*
X471880Y258172D01*
X471825Y258338D01*
X471773Y258505D01*
X471760Y258529D01*
X471752Y258554D01*
X471665Y258706D01*
X471581Y258859D01*
X471564Y258880D01*
X471551Y258903D01*
X471336Y259156D01*
X452450Y278042D01*
X452429Y278059D01*
X452412Y278080D01*
X452274Y278187D01*
X452139Y278297D01*
X452115Y278310D01*
X452094Y278326D01*
X451937Y278404D01*
X451783Y278486D01*
X451757Y278494D01*
X451733Y278506D01*
X451564Y278551D01*
X451397Y278601D01*
X451370Y278603D01*
X451344Y278610D01*
X451014Y278637D01*
X309970Y278637D01*
X309944Y278635D01*
X309917Y278637D01*
X309743Y278615D01*
X309570Y278597D01*
X309544Y278590D01*
X309518Y278586D01*
X309352Y278531D01*
X309185Y278479D01*
X309161Y278466D01*
X309136Y278458D01*
X308984Y278371D01*
X308831Y278287D01*
X308810Y278270D01*
X308787Y278257D01*
X308534Y278042D01*
X303182Y272691D01*
X301595Y272033D01*
X295654Y272033D01*
X295636Y272031D01*
X295618Y272033D01*
X295436Y272012D01*
X295253Y271993D01*
X295236Y271988D01*
X295219Y271986D01*
X295044Y271929D01*
X294868Y271875D01*
X294853Y271867D01*
X294836Y271861D01*
X294676Y271771D01*
X294514Y271683D01*
X294501Y271672D01*
X294485Y271663D01*
X294346Y271543D01*
X294205Y271426D01*
X294194Y271412D01*
X294180Y271400D01*
X294068Y271255D01*
X293953Y271112D01*
X293945Y271096D01*
X293934Y271082D01*
X293852Y270917D01*
X293767Y270755D01*
X293762Y270738D01*
X293754Y270722D01*
X293707Y270543D01*
X293656Y270368D01*
X293654Y270350D01*
X293650Y270333D01*
X293623Y270002D01*
X293623Y269375D01*
X292062Y267814D01*
X292051Y267801D01*
X292037Y267789D01*
X291923Y267645D01*
X291807Y267503D01*
X291798Y267487D01*
X291787Y267473D01*
X291704Y267309D01*
X291618Y267147D01*
X291613Y267130D01*
X291605Y267114D01*
X291556Y266937D01*
X291503Y266761D01*
X291502Y266743D01*
X291497Y266726D01*
X291484Y266543D01*
X291467Y266360D01*
X291469Y266342D01*
X291468Y266325D01*
X291491Y266143D01*
X291510Y265960D01*
X291516Y265943D01*
X291518Y265925D01*
X291576Y265752D01*
X291632Y265576D01*
X291641Y265560D01*
X291646Y265544D01*
X291738Y265385D01*
X291827Y265224D01*
X291838Y265210D01*
X291847Y265195D01*
X292062Y264942D01*
X293901Y263103D01*
X293901Y246577D01*
X292115Y244791D01*
X285616Y244791D01*
X285607Y244790D01*
X285598Y244791D01*
X285406Y244770D01*
X285216Y244751D01*
X285207Y244749D01*
X285198Y244748D01*
X285015Y244690D01*
X284831Y244633D01*
X284823Y244629D01*
X284814Y244626D01*
X284645Y244533D01*
X284477Y244441D01*
X284470Y244436D01*
X284462Y244431D01*
X284314Y244306D01*
X284167Y244184D01*
X284162Y244177D01*
X284155Y244171D01*
X284035Y244019D01*
X283915Y243870D01*
X283911Y243862D01*
X283905Y243855D01*
X283818Y243682D01*
X283729Y243513D01*
X283727Y243504D01*
X283723Y243496D01*
X283671Y243311D01*
X283618Y243126D01*
X283617Y243117D01*
X283615Y243108D01*
X283601Y242916D01*
X283585Y242724D01*
X283586Y242716D01*
X283586Y242707D01*
X283610Y242515D01*
X283632Y242325D01*
X283635Y242316D01*
X283636Y242307D01*
X283697Y242125D01*
X283757Y241942D01*
X283761Y241934D01*
X283764Y241926D01*
X283860Y241758D01*
X283955Y241591D01*
X283961Y241584D01*
X283965Y241577D01*
X284180Y241324D01*
X284401Y241103D01*
X284401Y224577D01*
X282615Y222791D01*
X270089Y222791D01*
X268178Y224702D01*
X268157Y224719D01*
X268140Y224740D01*
X268002Y224847D01*
X267867Y224957D01*
X267843Y224970D01*
X267822Y224986D01*
X267665Y225064D01*
X267511Y225146D01*
X267485Y225154D01*
X267461Y225166D01*
X267292Y225211D01*
X267125Y225261D01*
X267098Y225263D01*
X267073Y225270D01*
X266742Y225297D01*
X258833Y225297D01*
X256499Y226264D01*
X248408Y234354D01*
X248388Y234371D01*
X248370Y234392D01*
X248232Y234499D01*
X248097Y234609D01*
X248073Y234622D01*
X248052Y234638D01*
X247895Y234716D01*
X247741Y234798D01*
X247716Y234806D01*
X247692Y234818D01*
X247522Y234863D01*
X247355Y234913D01*
X247329Y234915D01*
X247303Y234922D01*
X246972Y234949D01*
X234666Y234949D01*
X234640Y234947D01*
X234613Y234949D01*
X234439Y234927D01*
X234265Y234909D01*
X234240Y234902D01*
X234213Y234898D01*
X234048Y234843D01*
X233881Y234791D01*
X233857Y234778D01*
X233832Y234770D01*
X233680Y234683D01*
X233527Y234599D01*
X233506Y234582D01*
X233483Y234569D01*
X233230Y234354D01*
X230015Y231139D01*
X221597Y231139D01*
X215645Y237091D01*
X215645Y245509D01*
X221597Y251461D01*
X230015Y251461D01*
X233230Y248246D01*
X233250Y248229D01*
X233268Y248208D01*
X233406Y248101D01*
X233541Y247991D01*
X233565Y247978D01*
X233586Y247962D01*
X233743Y247884D01*
X233897Y247802D01*
X233922Y247794D01*
X233947Y247782D01*
X234116Y247737D01*
X234283Y247687D01*
X234309Y247685D01*
X234335Y247678D01*
X234666Y247651D01*
X251707Y247651D01*
X254041Y246684D01*
X256249Y244476D01*
X256356Y244389D01*
X256456Y244295D01*
X256511Y244261D01*
X256561Y244221D01*
X256682Y244156D01*
X256799Y244084D01*
X256860Y244062D01*
X256917Y244032D01*
X257048Y243993D01*
X257177Y243946D01*
X257241Y243936D01*
X257303Y243917D01*
X257440Y243905D01*
X257575Y243884D01*
X257639Y243887D01*
X257704Y243881D01*
X257840Y243896D01*
X257906Y243899D01*
X257905Y243895D01*
X257904Y243758D01*
X257894Y243620D01*
X257902Y243557D01*
X257901Y243492D01*
X257927Y243357D01*
X257944Y243221D01*
X257964Y243160D01*
X257977Y243097D01*
X258028Y242970D01*
X258072Y242839D01*
X258104Y242784D01*
X258129Y242724D01*
X258204Y242610D01*
X258273Y242490D01*
X258321Y242434D01*
X258351Y242389D01*
X258408Y242332D01*
X258488Y242237D01*
X262132Y238594D01*
X262152Y238577D01*
X262170Y238556D01*
X262307Y238450D01*
X262443Y238339D01*
X262467Y238326D01*
X262488Y238310D01*
X262644Y238232D01*
X262799Y238150D01*
X262824Y238142D01*
X262848Y238130D01*
X263017Y238085D01*
X263185Y238035D01*
X263211Y238033D01*
X263237Y238026D01*
X263568Y237999D01*
X266272Y237999D01*
X266290Y238001D01*
X266308Y237999D01*
X266490Y238020D01*
X266673Y238039D01*
X266690Y238044D01*
X266707Y238046D01*
X266882Y238103D01*
X267058Y238157D01*
X267073Y238165D01*
X267090Y238171D01*
X267250Y238261D01*
X267412Y238349D01*
X267425Y238360D01*
X267441Y238369D01*
X267580Y238489D01*
X267721Y238606D01*
X267732Y238620D01*
X267746Y238632D01*
X267858Y238777D01*
X267973Y238920D01*
X267981Y238936D01*
X267992Y238950D01*
X268074Y239115D01*
X268159Y239277D01*
X268164Y239294D01*
X268172Y239310D01*
X268219Y239489D01*
X268270Y239664D01*
X268272Y239682D01*
X268276Y239699D01*
X268303Y240030D01*
X268303Y241103D01*
X269032Y241832D01*
X269038Y241839D01*
X269045Y241844D01*
X269166Y241995D01*
X269287Y242143D01*
X269291Y242151D01*
X269297Y242158D01*
X269385Y242328D01*
X269476Y242499D01*
X269478Y242508D01*
X269483Y242515D01*
X269536Y242700D01*
X269591Y242885D01*
X269591Y242894D01*
X269594Y242902D01*
X269610Y243093D01*
X269627Y243286D01*
X269626Y243295D01*
X269627Y243304D01*
X269605Y243492D01*
X269584Y243686D01*
X269581Y243695D01*
X269580Y243703D01*
X269521Y243885D01*
X269462Y244070D01*
X269458Y244078D01*
X269455Y244086D01*
X269361Y244253D01*
X269351Y244270D01*
X269351Y254372D01*
X269349Y254390D01*
X269351Y254407D01*
X269330Y254590D01*
X269311Y254772D01*
X269306Y254789D01*
X269304Y254807D01*
X269247Y254982D01*
X269193Y255157D01*
X269185Y255173D01*
X269179Y255190D01*
X269089Y255350D01*
X269001Y255511D01*
X268990Y255525D01*
X268981Y255541D01*
X268861Y255680D01*
X268744Y255821D01*
X268730Y255832D01*
X268718Y255845D01*
X268573Y255958D01*
X268430Y256073D01*
X268414Y256081D01*
X268400Y256092D01*
X268235Y256174D01*
X268208Y256188D01*
X268153Y256286D01*
X268065Y256448D01*
X268054Y256461D01*
X268045Y256477D01*
X267925Y256616D01*
X267807Y256757D01*
X267794Y256768D01*
X267782Y256782D01*
X267637Y256894D01*
X267494Y257009D01*
X267478Y257017D01*
X267464Y257028D01*
X267299Y257110D01*
X267136Y257195D01*
X267119Y257200D01*
X267103Y257208D01*
X266925Y257255D01*
X266750Y257306D01*
X266732Y257308D01*
X266715Y257312D01*
X266384Y257339D01*
X259311Y257339D01*
X259311Y262175D01*
X259484Y262821D01*
X259819Y263400D01*
X260335Y263917D01*
X260386Y263959D01*
X260490Y264034D01*
X260540Y264087D01*
X260597Y264134D01*
X260677Y264234D01*
X260765Y264328D01*
X260803Y264391D01*
X260849Y264448D01*
X260908Y264562D01*
X260975Y264671D01*
X261001Y264740D01*
X261034Y264805D01*
X261070Y264929D01*
X261114Y265049D01*
X261126Y265122D01*
X261146Y265192D01*
X261156Y265320D01*
X261176Y265447D01*
X261173Y265520D01*
X261179Y265594D01*
X261164Y265721D01*
X261158Y265849D01*
X261140Y265920D01*
X261132Y265993D01*
X261092Y266115D01*
X261061Y266240D01*
X261030Y266306D01*
X261007Y266376D01*
X260944Y266488D01*
X260889Y266604D01*
X260845Y266663D01*
X260809Y266727D01*
X260725Y266824D01*
X260649Y266927D01*
X260594Y266976D01*
X260546Y267032D01*
X260445Y267110D01*
X260349Y267196D01*
X260286Y267233D01*
X260228Y267278D01*
X260113Y267335D01*
X260002Y267401D01*
X259933Y267425D01*
X259867Y267458D01*
X259743Y267491D01*
X259622Y267533D01*
X259549Y267543D01*
X259479Y267562D01*
X259310Y267576D01*
X259223Y267588D01*
X259190Y267586D01*
X259148Y267589D01*
X257311Y267589D01*
X255525Y269375D01*
X255525Y284435D01*
X255524Y284444D01*
X255525Y284453D01*
X255504Y284645D01*
X255485Y284836D01*
X255483Y284845D01*
X255482Y284853D01*
X255424Y285036D01*
X255367Y285221D01*
X255363Y285229D01*
X255360Y285237D01*
X255268Y285404D01*
X255175Y285575D01*
X255170Y285582D01*
X255165Y285590D01*
X255041Y285737D01*
X254918Y285884D01*
X254911Y285890D01*
X254905Y285897D01*
X254754Y286016D01*
X254604Y286137D01*
X254596Y286141D01*
X254589Y286146D01*
X254416Y286234D01*
X254247Y286322D01*
X254238Y286324D01*
X254230Y286329D01*
X254044Y286380D01*
X253860Y286433D01*
X253851Y286434D01*
X253842Y286437D01*
X253649Y286451D01*
X253458Y286466D01*
X253450Y286465D01*
X253441Y286466D01*
X253248Y286442D01*
X253059Y286419D01*
X253050Y286417D01*
X253041Y286416D01*
X252858Y286354D01*
X252676Y286295D01*
X252668Y286290D01*
X252660Y286287D01*
X252494Y286192D01*
X252325Y286097D01*
X252318Y286091D01*
X252311Y286086D01*
X252058Y285872D01*
X249262Y283076D01*
X249245Y283055D01*
X249224Y283037D01*
X249118Y282900D01*
X249007Y282764D01*
X248994Y282740D01*
X248978Y282719D01*
X248900Y282563D01*
X248818Y282408D01*
X248810Y282383D01*
X248798Y282359D01*
X248753Y282190D01*
X248703Y282023D01*
X248701Y281996D01*
X248694Y281970D01*
X248667Y281639D01*
X248667Y269296D01*
X247932Y267522D01*
X242510Y262100D01*
X241009Y261478D01*
X240736Y261365D01*
X235682Y261365D01*
X235656Y261363D01*
X235629Y261365D01*
X235455Y261343D01*
X235281Y261325D01*
X235256Y261318D01*
X235229Y261314D01*
X235064Y261259D01*
X234897Y261207D01*
X234873Y261194D01*
X234848Y261186D01*
X234696Y261099D01*
X234543Y261015D01*
X234522Y260998D01*
X234499Y260985D01*
X234246Y260770D01*
X230015Y256539D01*
X221597Y256539D01*
X215645Y262491D01*
X215645Y270909D01*
X221597Y276861D01*
X230015Y276861D01*
X235262Y271614D01*
X235282Y271597D01*
X235300Y271576D01*
X235438Y271469D01*
X235573Y271359D01*
X235597Y271346D01*
X235618Y271330D01*
X235775Y271252D01*
X235929Y271170D01*
X235954Y271162D01*
X235979Y271150D01*
X236148Y271105D01*
X236315Y271055D01*
X236341Y271053D01*
X236367Y271046D01*
X236698Y271019D01*
X236935Y271019D01*
X236962Y271021D01*
X236989Y271019D01*
X237163Y271041D01*
X237336Y271059D01*
X237361Y271066D01*
X237388Y271070D01*
X237554Y271125D01*
X237721Y271177D01*
X237744Y271190D01*
X237770Y271198D01*
X237921Y271285D01*
X238075Y271369D01*
X238095Y271386D01*
X238119Y271399D01*
X238372Y271614D01*
X238418Y271660D01*
X238435Y271681D01*
X238456Y271699D01*
X238563Y271836D01*
X238673Y271972D01*
X238686Y271996D01*
X238702Y272017D01*
X238780Y272174D01*
X238862Y272328D01*
X238870Y272353D01*
X238882Y272377D01*
X238927Y272547D01*
X238977Y272713D01*
X238979Y272740D01*
X238986Y272766D01*
X239013Y273097D01*
X239013Y285440D01*
X239748Y287214D01*
X254930Y302396D01*
X254947Y302417D01*
X254968Y302435D01*
X255074Y302572D01*
X255185Y302708D01*
X255198Y302732D01*
X255214Y302753D01*
X255292Y302910D01*
X255374Y303064D01*
X255382Y303089D01*
X255394Y303113D01*
X255439Y303283D01*
X255489Y303449D01*
X255491Y303476D01*
X255498Y303502D01*
X255525Y303833D01*
X255525Y310134D01*
X255523Y310152D01*
X255525Y310170D01*
X255504Y310351D01*
X255485Y310535D01*
X255480Y310552D01*
X255478Y310569D01*
X255421Y310744D01*
X255367Y310920D01*
X255359Y310935D01*
X255353Y310952D01*
X255263Y311112D01*
X255175Y311274D01*
X255164Y311287D01*
X255155Y311303D01*
X255035Y311442D01*
X254918Y311583D01*
X254904Y311594D01*
X254892Y311608D01*
X254747Y311720D01*
X254604Y311835D01*
X254588Y311843D01*
X254574Y311854D01*
X254409Y311936D01*
X254247Y312021D01*
X254230Y312026D01*
X254214Y312034D01*
X254035Y312081D01*
X253860Y312132D01*
X253842Y312134D01*
X253825Y312138D01*
X253494Y312165D01*
X250745Y312165D01*
X250718Y312163D01*
X250691Y312165D01*
X250517Y312143D01*
X250344Y312125D01*
X250319Y312118D01*
X250292Y312114D01*
X250126Y312059D01*
X249959Y312007D01*
X249936Y311994D01*
X249910Y311986D01*
X249759Y311899D01*
X249605Y311815D01*
X249585Y311798D01*
X249561Y311785D01*
X249308Y311570D01*
X244159Y306421D01*
X244116Y306369D01*
X244068Y306324D01*
X243958Y306175D01*
X243903Y306109D01*
X243891Y306085D01*
X243870Y306057D01*
X243779Y305911D01*
X243456Y305680D01*
X243203Y305465D01*
X242922Y305184D01*
X242764Y305118D01*
X242705Y305087D01*
X242643Y305064D01*
X242484Y304969D01*
X242409Y304928D01*
X242388Y304911D01*
X242358Y304893D01*
X242218Y304793D01*
X241832Y304703D01*
X241831Y304703D01*
X241515Y304601D01*
X241191Y304467D01*
X241168Y304455D01*
X241142Y304446D01*
X240990Y304359D01*
X240837Y304277D01*
X240816Y304260D01*
X240793Y304247D01*
X240661Y304132D01*
X240526Y304021D01*
X240509Y304000D01*
X240489Y303982D01*
X240382Y303844D01*
X240272Y303708D01*
X240260Y303684D01*
X240244Y303663D01*
X240092Y303368D01*
X238472Y299456D01*
X235614Y296598D01*
X231879Y295051D01*
X213613Y295051D01*
X209878Y296598D01*
X208064Y298412D01*
X208057Y298418D01*
X208052Y298425D01*
X207902Y298545D01*
X207753Y298667D01*
X207745Y298672D01*
X207738Y298677D01*
X207568Y298766D01*
X207397Y298856D01*
X207388Y298859D01*
X207381Y298863D01*
X207196Y298916D01*
X207011Y298971D01*
X207002Y298972D01*
X206994Y298974D01*
X206803Y298990D01*
X206610Y299007D01*
X206601Y299006D01*
X206592Y299007D01*
X206403Y298985D01*
X206210Y298964D01*
X206201Y298961D01*
X206193Y298960D01*
X206011Y298901D01*
X205826Y298842D01*
X205818Y298838D01*
X205810Y298835D01*
X205643Y298741D01*
X205474Y298647D01*
X205467Y298642D01*
X205459Y298637D01*
X205314Y298512D01*
X205167Y298387D01*
X205161Y298380D01*
X205154Y298374D01*
X205038Y298224D01*
X204917Y298071D01*
X204913Y298063D01*
X204908Y298056D01*
X204822Y297885D01*
X204735Y297712D01*
X204732Y297704D01*
X204728Y297695D01*
X204678Y297509D01*
X204627Y297324D01*
X204626Y297315D01*
X204624Y297307D01*
X204597Y296976D01*
X204597Y170230D01*
X204599Y170212D01*
X204597Y170194D01*
X204618Y170012D01*
X204637Y169829D01*
X204642Y169812D01*
X204644Y169795D01*
X204701Y169620D01*
X204755Y169444D01*
X204763Y169429D01*
X204769Y169412D01*
X204859Y169252D01*
X204947Y169090D01*
X204958Y169077D01*
X204967Y169061D01*
X205087Y168922D01*
X205204Y168781D01*
X205218Y168770D01*
X205230Y168756D01*
X205375Y168644D01*
X205518Y168529D01*
X205534Y168521D01*
X205548Y168510D01*
X205713Y168428D01*
X205875Y168343D01*
X205892Y168338D01*
X205908Y168330D01*
X206087Y168283D01*
X206262Y168232D01*
X206280Y168230D01*
X206297Y168226D01*
X206628Y168199D01*
X595884Y168199D01*
X595902Y168201D01*
G37*
G36*
X296418Y309629D02*
X296418Y309629D01*
X296445Y309627D01*
X296619Y309649D01*
X296792Y309667D01*
X296818Y309674D01*
X296844Y309678D01*
X297010Y309733D01*
X297177Y309785D01*
X297201Y309798D01*
X297226Y309806D01*
X297378Y309893D01*
X297531Y309977D01*
X297552Y309994D01*
X297575Y310007D01*
X297828Y310222D01*
X299836Y312230D01*
X303057Y313564D01*
X306543Y313564D01*
X309764Y312230D01*
X311772Y310222D01*
X311793Y310205D01*
X311810Y310184D01*
X311948Y310077D01*
X312084Y309967D01*
X312107Y309954D01*
X312128Y309938D01*
X312285Y309860D01*
X312439Y309778D01*
X312465Y309770D01*
X312489Y309758D01*
X312658Y309713D01*
X312825Y309663D01*
X312852Y309661D01*
X312878Y309654D01*
X313208Y309627D01*
X418592Y309627D01*
X418610Y309629D01*
X418628Y309627D01*
X418810Y309648D01*
X418993Y309667D01*
X419010Y309672D01*
X419027Y309674D01*
X419202Y309731D01*
X419378Y309785D01*
X419393Y309793D01*
X419410Y309799D01*
X419570Y309889D01*
X419732Y309977D01*
X419745Y309988D01*
X419761Y309997D01*
X419900Y310117D01*
X420041Y310234D01*
X420052Y310248D01*
X420066Y310260D01*
X420178Y310405D01*
X420293Y310548D01*
X420301Y310564D01*
X420312Y310578D01*
X420394Y310743D01*
X420479Y310905D01*
X420484Y310922D01*
X420492Y310938D01*
X420539Y311117D01*
X420590Y311292D01*
X420592Y311310D01*
X420596Y311327D01*
X420623Y311658D01*
X420623Y328470D01*
X420621Y328488D01*
X420623Y328506D01*
X420602Y328688D01*
X420583Y328871D01*
X420578Y328888D01*
X420576Y328905D01*
X420519Y329080D01*
X420465Y329256D01*
X420457Y329271D01*
X420451Y329288D01*
X420361Y329448D01*
X420273Y329610D01*
X420262Y329623D01*
X420253Y329639D01*
X420133Y329778D01*
X420016Y329919D01*
X420002Y329930D01*
X419990Y329944D01*
X419845Y330056D01*
X419702Y330171D01*
X419686Y330179D01*
X419672Y330190D01*
X419507Y330272D01*
X419345Y330357D01*
X419328Y330362D01*
X419312Y330370D01*
X419133Y330417D01*
X418958Y330468D01*
X418940Y330470D01*
X418923Y330474D01*
X418592Y330501D01*
X407642Y330501D01*
X407525Y330597D01*
X407509Y330606D01*
X407495Y330617D01*
X407332Y330700D01*
X407169Y330786D01*
X407152Y330791D01*
X407136Y330799D01*
X406959Y330848D01*
X406783Y330901D01*
X406766Y330902D01*
X406748Y330907D01*
X406565Y330920D01*
X406382Y330937D01*
X406365Y330935D01*
X406347Y330936D01*
X406164Y330913D01*
X405982Y330894D01*
X405965Y330888D01*
X405947Y330886D01*
X405773Y330827D01*
X405598Y330772D01*
X405583Y330763D01*
X405566Y330758D01*
X405406Y330666D01*
X405246Y330577D01*
X405232Y330566D01*
X405217Y330557D01*
X405151Y330501D01*
X394942Y330501D01*
X394825Y330597D01*
X394809Y330606D01*
X394795Y330617D01*
X394632Y330700D01*
X394469Y330786D01*
X394452Y330791D01*
X394436Y330799D01*
X394259Y330848D01*
X394083Y330901D01*
X394066Y330902D01*
X394048Y330907D01*
X393865Y330920D01*
X393682Y330937D01*
X393665Y330935D01*
X393647Y330936D01*
X393464Y330913D01*
X393282Y330894D01*
X393265Y330888D01*
X393247Y330886D01*
X393073Y330827D01*
X392898Y330772D01*
X392883Y330763D01*
X392866Y330758D01*
X392706Y330666D01*
X392546Y330577D01*
X392532Y330566D01*
X392517Y330557D01*
X392264Y330342D01*
X392062Y330141D01*
X392042Y330116D01*
X392019Y330096D01*
X391915Y329961D01*
X391807Y329829D01*
X391792Y329801D01*
X391773Y329777D01*
X391622Y329482D01*
X391011Y328008D01*
X383192Y320189D01*
X381605Y319531D01*
X316641Y319531D01*
X315054Y320189D01*
X313839Y321404D01*
X313455Y322331D01*
X313440Y322359D01*
X313430Y322388D01*
X313345Y322536D01*
X313264Y322686D01*
X313245Y322710D01*
X313229Y322737D01*
X313014Y322990D01*
X309267Y326738D01*
X308609Y328325D01*
X308609Y350938D01*
X308607Y350964D01*
X308609Y350991D01*
X308587Y351165D01*
X308569Y351338D01*
X308562Y351364D01*
X308558Y351390D01*
X308503Y351556D01*
X308451Y351723D01*
X308438Y351747D01*
X308430Y351772D01*
X308343Y351924D01*
X308259Y352077D01*
X308242Y352098D01*
X308229Y352121D01*
X308014Y352374D01*
X305638Y354750D01*
X305617Y354767D01*
X305600Y354788D01*
X305462Y354895D01*
X305327Y355005D01*
X305303Y355018D01*
X305282Y355034D01*
X305125Y355112D01*
X304971Y355194D01*
X304945Y355202D01*
X304921Y355214D01*
X304752Y355259D01*
X304585Y355309D01*
X304558Y355311D01*
X304532Y355318D01*
X304202Y355345D01*
X256630Y355345D01*
X256604Y355343D01*
X256577Y355345D01*
X256403Y355323D01*
X256230Y355305D01*
X256204Y355298D01*
X256178Y355294D01*
X256012Y355239D01*
X255845Y355187D01*
X255821Y355174D01*
X255796Y355166D01*
X255644Y355079D01*
X255491Y354995D01*
X255470Y354978D01*
X255447Y354965D01*
X255194Y354750D01*
X251994Y351551D01*
X250407Y350893D01*
X240424Y350893D01*
X240402Y350891D01*
X240380Y350893D01*
X240202Y350871D01*
X240024Y350853D01*
X240002Y350847D01*
X239980Y350844D01*
X239810Y350788D01*
X239639Y350735D01*
X239619Y350725D01*
X239598Y350718D01*
X239442Y350629D01*
X239285Y350543D01*
X239268Y350529D01*
X239248Y350518D01*
X239112Y350400D01*
X238975Y350286D01*
X238961Y350268D01*
X238945Y350254D01*
X238835Y350111D01*
X238723Y349972D01*
X238713Y349952D01*
X238699Y349934D01*
X238548Y349639D01*
X238472Y349456D01*
X235614Y346598D01*
X231879Y345051D01*
X213613Y345051D01*
X209878Y346598D01*
X208064Y348412D01*
X208057Y348418D01*
X208052Y348425D01*
X207902Y348545D01*
X207753Y348667D01*
X207745Y348672D01*
X207738Y348677D01*
X207568Y348766D01*
X207397Y348856D01*
X207388Y348859D01*
X207381Y348863D01*
X207196Y348916D01*
X207011Y348971D01*
X207002Y348972D01*
X206994Y348974D01*
X206803Y348990D01*
X206610Y349007D01*
X206601Y349006D01*
X206592Y349007D01*
X206403Y348985D01*
X206210Y348964D01*
X206201Y348961D01*
X206193Y348960D01*
X206011Y348901D01*
X205826Y348842D01*
X205818Y348838D01*
X205810Y348835D01*
X205643Y348741D01*
X205474Y348647D01*
X205467Y348642D01*
X205459Y348637D01*
X205314Y348512D01*
X205167Y348387D01*
X205161Y348380D01*
X205154Y348374D01*
X205037Y348223D01*
X204917Y348071D01*
X204913Y348063D01*
X204908Y348056D01*
X204822Y347885D01*
X204735Y347712D01*
X204732Y347704D01*
X204728Y347695D01*
X204678Y347510D01*
X204627Y347324D01*
X204626Y347315D01*
X204624Y347307D01*
X204597Y346976D01*
X204597Y337694D01*
X204613Y337527D01*
X204625Y337359D01*
X204633Y337327D01*
X204637Y337294D01*
X204686Y337133D01*
X204730Y336970D01*
X204745Y336941D01*
X204755Y336909D01*
X204835Y336761D01*
X204910Y336610D01*
X204931Y336584D01*
X204947Y336555D01*
X205054Y336425D01*
X205158Y336293D01*
X205183Y336271D01*
X205204Y336245D01*
X205335Y336140D01*
X205463Y336030D01*
X205492Y336014D01*
X205518Y335993D01*
X205667Y335916D01*
X205814Y335833D01*
X205846Y335823D01*
X205875Y335808D01*
X206037Y335761D01*
X206197Y335709D01*
X206230Y335705D01*
X206262Y335696D01*
X206430Y335682D01*
X206597Y335663D01*
X206631Y335666D01*
X206664Y335663D01*
X206831Y335683D01*
X206999Y335697D01*
X207030Y335706D01*
X207063Y335710D01*
X207223Y335762D01*
X207385Y335809D01*
X207415Y335825D01*
X207446Y335835D01*
X207593Y335918D01*
X207742Y335996D01*
X207768Y336017D01*
X207797Y336033D01*
X207924Y336143D01*
X208055Y336249D01*
X208079Y336277D01*
X208101Y336296D01*
X208154Y336364D01*
X208271Y336500D01*
X209346Y337575D01*
X210575Y338468D01*
X211929Y339158D01*
X213374Y339627D01*
X214874Y339865D01*
X220715Y339865D01*
X220715Y330212D01*
X220715Y320559D01*
X214874Y320559D01*
X213374Y320797D01*
X211929Y321266D01*
X210575Y321956D01*
X209346Y322849D01*
X208271Y323924D01*
X208159Y324049D01*
X208052Y324179D01*
X208026Y324199D01*
X208004Y324224D01*
X207869Y324325D01*
X207738Y324431D01*
X207708Y324446D01*
X207682Y324466D01*
X207530Y324539D01*
X207381Y324616D01*
X207349Y324626D01*
X207319Y324640D01*
X207155Y324681D01*
X206994Y324728D01*
X206961Y324731D01*
X206928Y324739D01*
X206760Y324747D01*
X206592Y324761D01*
X206560Y324757D01*
X206526Y324758D01*
X206359Y324733D01*
X206193Y324714D01*
X206161Y324704D01*
X206128Y324699D01*
X205970Y324641D01*
X205810Y324589D01*
X205781Y324573D01*
X205750Y324561D01*
X205606Y324474D01*
X205459Y324391D01*
X205434Y324369D01*
X205406Y324352D01*
X205282Y324238D01*
X205154Y324128D01*
X205134Y324102D01*
X205110Y324079D01*
X205011Y323943D01*
X204908Y323810D01*
X204893Y323780D01*
X204873Y323753D01*
X204803Y323600D01*
X204728Y323449D01*
X204720Y323417D01*
X204706Y323387D01*
X204668Y323224D01*
X204624Y323060D01*
X204621Y323023D01*
X204614Y322995D01*
X204611Y322909D01*
X204597Y322730D01*
X204597Y313448D01*
X204598Y313439D01*
X204597Y313430D01*
X204618Y313238D01*
X204637Y313047D01*
X204639Y313039D01*
X204640Y313030D01*
X204698Y312848D01*
X204755Y312662D01*
X204759Y312655D01*
X204762Y312646D01*
X204855Y312478D01*
X204947Y312308D01*
X204952Y312302D01*
X204957Y312294D01*
X205082Y312146D01*
X205204Y311999D01*
X205211Y311994D01*
X205217Y311987D01*
X205369Y311867D01*
X205518Y311747D01*
X205526Y311743D01*
X205533Y311737D01*
X205705Y311650D01*
X205875Y311561D01*
X205884Y311559D01*
X205892Y311555D01*
X206078Y311503D01*
X206262Y311450D01*
X206271Y311449D01*
X206280Y311447D01*
X206472Y311433D01*
X206664Y311417D01*
X206672Y311418D01*
X206681Y311417D01*
X206874Y311442D01*
X207063Y311464D01*
X207072Y311467D01*
X207081Y311468D01*
X207264Y311529D01*
X207446Y311589D01*
X207454Y311593D01*
X207462Y311596D01*
X207628Y311691D01*
X207797Y311787D01*
X207804Y311793D01*
X207811Y311797D01*
X208064Y312012D01*
X209878Y313826D01*
X213613Y315373D01*
X231879Y315373D01*
X235985Y313672D01*
X236006Y313666D01*
X236026Y313656D01*
X236198Y313607D01*
X236370Y313556D01*
X236392Y313553D01*
X236414Y313548D01*
X236593Y313534D01*
X236771Y313517D01*
X236793Y313520D01*
X236815Y313518D01*
X236994Y313541D01*
X237171Y313559D01*
X237193Y313566D01*
X237215Y313569D01*
X237385Y313626D01*
X237556Y313679D01*
X237575Y313690D01*
X237597Y313697D01*
X237752Y313786D01*
X237909Y313872D01*
X237926Y313887D01*
X237945Y313898D01*
X238198Y314112D01*
X243526Y319440D01*
X245170Y321084D01*
X246944Y321819D01*
X253494Y321819D01*
X253512Y321821D01*
X253530Y321819D01*
X253712Y321840D01*
X253895Y321859D01*
X253912Y321864D01*
X253929Y321866D01*
X254104Y321923D01*
X254280Y321977D01*
X254295Y321985D01*
X254312Y321991D01*
X254472Y322081D01*
X254634Y322169D01*
X254647Y322180D01*
X254663Y322189D01*
X254802Y322309D01*
X254943Y322426D01*
X254954Y322440D01*
X254968Y322452D01*
X255080Y322597D01*
X255195Y322740D01*
X255203Y322756D01*
X255214Y322770D01*
X255296Y322935D01*
X255381Y323097D01*
X255386Y323114D01*
X255394Y323130D01*
X255441Y323309D01*
X255492Y323484D01*
X255494Y323502D01*
X255498Y323519D01*
X255525Y323850D01*
X255525Y328114D01*
X255594Y328248D01*
X255680Y328411D01*
X255685Y328428D01*
X255693Y328444D01*
X255742Y328621D01*
X255795Y328797D01*
X255796Y328814D01*
X255801Y328832D01*
X255814Y329015D01*
X255831Y329198D01*
X255829Y329215D01*
X255830Y329233D01*
X255807Y329416D01*
X255788Y329598D01*
X255782Y329615D01*
X255780Y329633D01*
X255721Y329807D01*
X255666Y329982D01*
X255657Y329997D01*
X255652Y330014D01*
X255560Y330174D01*
X255525Y330237D01*
X255525Y347853D01*
X257311Y349639D01*
X272837Y349639D01*
X273541Y348934D01*
X273661Y348836D01*
X273777Y348732D01*
X273817Y348708D01*
X273853Y348679D01*
X273990Y348606D01*
X274124Y348527D01*
X274168Y348512D01*
X274209Y348490D01*
X274357Y348446D01*
X274504Y348395D01*
X274550Y348389D01*
X274595Y348376D01*
X274749Y348362D01*
X274903Y348340D01*
X274949Y348343D01*
X274996Y348339D01*
X275150Y348356D01*
X275304Y348366D01*
X275349Y348378D01*
X275396Y348383D01*
X275544Y348429D01*
X275693Y348469D01*
X275741Y348492D01*
X275780Y348504D01*
X275856Y348546D01*
X275993Y348611D01*
X276593Y348958D01*
X277239Y349131D01*
X280825Y349131D01*
X280825Y340308D01*
X280826Y340290D01*
X280825Y340273D01*
X280846Y340090D01*
X280865Y339908D01*
X280870Y339891D01*
X280872Y339873D01*
X280929Y339698D01*
X280983Y339523D01*
X280991Y339507D01*
X280997Y339490D01*
X281087Y339330D01*
X281174Y339169D01*
X281186Y339155D01*
X281195Y339139D01*
X281315Y339000D01*
X281432Y338859D01*
X281446Y338848D01*
X281458Y338835D01*
X281603Y338722D01*
X281746Y338607D01*
X281762Y338599D01*
X281776Y338588D01*
X281941Y338506D01*
X282103Y338422D01*
X282120Y338417D01*
X282136Y338409D01*
X282315Y338361D01*
X282490Y338310D01*
X282508Y338309D01*
X282525Y338304D01*
X282856Y338277D01*
X283261Y338277D01*
X283261Y337872D01*
X283263Y337854D01*
X283261Y337836D01*
X283283Y337654D01*
X283301Y337471D01*
X283306Y337454D01*
X283308Y337437D01*
X283365Y337262D01*
X283419Y337086D01*
X283427Y337071D01*
X283433Y337054D01*
X283523Y336894D01*
X283611Y336732D01*
X283622Y336719D01*
X283631Y336703D01*
X283751Y336564D01*
X283869Y336423D01*
X283882Y336412D01*
X283894Y336398D01*
X284039Y336286D01*
X284182Y336171D01*
X284198Y336163D01*
X284212Y336152D01*
X284377Y336070D01*
X284540Y335985D01*
X284557Y335980D01*
X284573Y335972D01*
X284751Y335924D01*
X284926Y335874D01*
X284944Y335872D01*
X284961Y335868D01*
X285292Y335841D01*
X293115Y335841D01*
X293115Y331255D01*
X292921Y330533D01*
X292893Y330478D01*
X292881Y330433D01*
X292862Y330391D01*
X292827Y330240D01*
X292785Y330090D01*
X292782Y330044D01*
X292771Y329999D01*
X292767Y329844D01*
X292756Y329689D01*
X292762Y329642D01*
X292760Y329596D01*
X292787Y329443D01*
X292806Y329289D01*
X292821Y329245D01*
X292829Y329199D01*
X292885Y329055D01*
X292934Y328907D01*
X292958Y328867D01*
X292974Y328824D01*
X293058Y328693D01*
X293135Y328559D01*
X293169Y328519D01*
X293191Y328485D01*
X293251Y328422D01*
X293350Y328306D01*
X293623Y328033D01*
X293623Y311658D01*
X293625Y311640D01*
X293623Y311622D01*
X293644Y311440D01*
X293663Y311257D01*
X293668Y311240D01*
X293670Y311223D01*
X293727Y311048D01*
X293781Y310872D01*
X293789Y310857D01*
X293795Y310840D01*
X293885Y310680D01*
X293973Y310518D01*
X293984Y310505D01*
X293993Y310489D01*
X294113Y310350D01*
X294230Y310209D01*
X294244Y310198D01*
X294256Y310184D01*
X294401Y310072D01*
X294544Y309957D01*
X294560Y309949D01*
X294574Y309938D01*
X294739Y309856D01*
X294901Y309771D01*
X294918Y309766D01*
X294934Y309758D01*
X295113Y309711D01*
X295288Y309660D01*
X295306Y309658D01*
X295323Y309654D01*
X295654Y309627D01*
X296392Y309627D01*
X296418Y309629D01*
G37*
%LPC*%
G36*
X213717Y183651D02*
X213717Y183651D01*
X211931Y185437D01*
X211931Y199963D01*
X214221Y202252D01*
X214273Y202316D01*
X214332Y202373D01*
X214400Y202471D01*
X214476Y202564D01*
X214514Y202636D01*
X214561Y202704D01*
X214608Y202814D01*
X214664Y202919D01*
X214688Y202998D01*
X214720Y203074D01*
X214745Y203190D01*
X214779Y203305D01*
X214786Y203387D01*
X214803Y203467D01*
X214805Y203587D01*
X214815Y203706D01*
X214807Y203788D01*
X214807Y203870D01*
X214785Y203987D01*
X214772Y204106D01*
X214747Y204185D01*
X214732Y204265D01*
X214687Y204376D01*
X214651Y204490D01*
X214611Y204562D01*
X214580Y204638D01*
X214514Y204738D01*
X214456Y204843D01*
X214403Y204905D01*
X214357Y204974D01*
X214273Y205058D01*
X214195Y205150D01*
X214131Y205201D01*
X214073Y205259D01*
X213947Y205346D01*
X213879Y205399D01*
X213843Y205418D01*
X213800Y205448D01*
X213420Y205667D01*
X212947Y206140D01*
X212612Y206719D01*
X212439Y207365D01*
X212439Y210701D01*
X220012Y210701D01*
X220030Y210702D01*
X220047Y210701D01*
X220230Y210722D01*
X220412Y210741D01*
X220429Y210746D01*
X220447Y210748D01*
X220622Y210805D01*
X220797Y210859D01*
X220813Y210867D01*
X220830Y210873D01*
X220990Y210963D01*
X221151Y211050D01*
X221165Y211062D01*
X221181Y211071D01*
X221320Y211191D01*
X221461Y211308D01*
X221472Y211322D01*
X221485Y211334D01*
X221598Y211479D01*
X221713Y211622D01*
X221721Y211638D01*
X221732Y211652D01*
X221814Y211817D01*
X221898Y211979D01*
X221903Y211996D01*
X221911Y212012D01*
X221959Y212191D01*
X222010Y212366D01*
X222011Y212384D01*
X222016Y212401D01*
X222036Y212643D01*
X222166Y212659D01*
X222349Y212677D01*
X222366Y212682D01*
X222383Y212684D01*
X222558Y212741D01*
X222734Y212795D01*
X222749Y212803D01*
X222766Y212809D01*
X222926Y212899D01*
X223088Y212987D01*
X223101Y212998D01*
X223117Y213007D01*
X223256Y213127D01*
X223397Y213245D01*
X223408Y213258D01*
X223422Y213270D01*
X223534Y213415D01*
X223649Y213558D01*
X223657Y213574D01*
X223668Y213588D01*
X223750Y213753D01*
X223835Y213916D01*
X223840Y213933D01*
X223848Y213949D01*
X223895Y214127D01*
X223946Y214302D01*
X223948Y214320D01*
X223952Y214337D01*
X223979Y214668D01*
X223979Y222241D01*
X227315Y222241D01*
X227961Y222068D01*
X228540Y221733D01*
X229111Y221162D01*
X229134Y221131D01*
X229194Y221074D01*
X229248Y221011D01*
X229341Y220937D01*
X229428Y220856D01*
X229499Y220813D01*
X229563Y220762D01*
X229670Y220708D01*
X229771Y220645D01*
X229849Y220617D01*
X229922Y220579D01*
X230037Y220547D01*
X230149Y220506D01*
X230231Y220494D01*
X230310Y220471D01*
X230429Y220463D01*
X230547Y220444D01*
X230629Y220448D01*
X230712Y220442D01*
X230830Y220457D01*
X230949Y220462D01*
X231029Y220482D01*
X231111Y220492D01*
X231224Y220530D01*
X231340Y220559D01*
X231415Y220594D01*
X231493Y220621D01*
X231596Y220680D01*
X231704Y220731D01*
X231770Y220780D01*
X231842Y220822D01*
X231958Y220920D01*
X232027Y220971D01*
X232054Y221002D01*
X232095Y221036D01*
X233307Y222249D01*
X251833Y222249D01*
X253619Y220462D01*
X253619Y220457D01*
X253640Y220271D01*
X253659Y220083D01*
X253663Y220070D01*
X253664Y220057D01*
X253722Y219878D01*
X253777Y219698D01*
X253783Y219686D01*
X253787Y219673D01*
X253879Y219509D01*
X253969Y219344D01*
X253977Y219334D01*
X253984Y219322D01*
X254106Y219179D01*
X254226Y219035D01*
X254237Y219026D01*
X254245Y219016D01*
X254393Y218900D01*
X254540Y218782D01*
X254552Y218776D01*
X254562Y218768D01*
X254731Y218683D01*
X254897Y218597D01*
X254910Y218593D01*
X254922Y218587D01*
X255104Y218537D01*
X255284Y218485D01*
X255298Y218484D01*
X255311Y218481D01*
X255499Y218468D01*
X255686Y218453D01*
X255699Y218454D01*
X255712Y218453D01*
X255900Y218478D01*
X256085Y218499D01*
X256098Y218504D01*
X256111Y218505D01*
X256427Y218607D01*
X258479Y219457D01*
X261713Y219457D01*
X264701Y218219D01*
X266987Y215933D01*
X268225Y212945D01*
X268225Y209711D01*
X266987Y206723D01*
X264701Y204437D01*
X261713Y203199D01*
X258479Y203199D01*
X256427Y204049D01*
X256414Y204053D01*
X256403Y204059D01*
X256223Y204111D01*
X256042Y204166D01*
X256029Y204167D01*
X256016Y204171D01*
X255828Y204186D01*
X255641Y204204D01*
X255628Y204202D01*
X255614Y204203D01*
X255427Y204181D01*
X255241Y204162D01*
X255228Y204158D01*
X255215Y204157D01*
X255035Y204098D01*
X254856Y204042D01*
X254845Y204036D01*
X254832Y204032D01*
X254667Y203939D01*
X254503Y203849D01*
X254493Y203840D01*
X254481Y203834D01*
X254339Y203711D01*
X254195Y203590D01*
X254187Y203579D01*
X254176Y203571D01*
X254061Y203422D01*
X253944Y203275D01*
X253938Y203263D01*
X253930Y203253D01*
X253846Y203084D01*
X253760Y202917D01*
X253756Y202904D01*
X253750Y202892D01*
X253701Y202709D01*
X253650Y202530D01*
X253649Y202516D01*
X253646Y202503D01*
X253619Y202173D01*
X253619Y185937D01*
X251833Y184151D01*
X233307Y184151D01*
X232461Y184997D01*
X232447Y185008D01*
X232436Y185022D01*
X232292Y185136D01*
X232150Y185252D01*
X232134Y185261D01*
X232120Y185272D01*
X231956Y185355D01*
X231794Y185441D01*
X231777Y185446D01*
X231761Y185454D01*
X231584Y185503D01*
X231408Y185556D01*
X231390Y185557D01*
X231373Y185562D01*
X231190Y185575D01*
X231007Y185592D01*
X230989Y185590D01*
X230972Y185591D01*
X230790Y185568D01*
X230607Y185549D01*
X230590Y185543D01*
X230572Y185541D01*
X230398Y185483D01*
X230223Y185427D01*
X230207Y185418D01*
X230191Y185413D01*
X230032Y185321D01*
X229871Y185232D01*
X229857Y185221D01*
X229842Y185212D01*
X229589Y184997D01*
X228243Y183651D01*
X213717Y183651D01*
G37*
%LPD*%
G36*
X385455Y213871D02*
X385455Y213871D01*
X385483Y213869D01*
X385656Y213891D01*
X385828Y213909D01*
X385855Y213917D01*
X385882Y213920D01*
X386047Y213976D01*
X386213Y214027D01*
X386237Y214040D01*
X386264Y214049D01*
X386554Y214210D01*
X412771Y231688D01*
X412777Y231693D01*
X412784Y231697D01*
X412934Y231821D01*
X413082Y231943D01*
X413087Y231949D01*
X413093Y231954D01*
X413215Y232106D01*
X413337Y232255D01*
X413341Y232262D01*
X413346Y232268D01*
X413435Y232440D01*
X413525Y232611D01*
X413528Y232619D01*
X413531Y232625D01*
X413585Y232811D01*
X413640Y232997D01*
X413640Y233005D01*
X413643Y233012D01*
X413658Y233205D01*
X413676Y233398D01*
X413675Y233406D01*
X413675Y233414D01*
X413653Y233606D01*
X413632Y233798D01*
X413629Y233806D01*
X413628Y233813D01*
X413568Y233998D01*
X413510Y234182D01*
X413506Y234189D01*
X413504Y234196D01*
X413409Y234364D01*
X413315Y234534D01*
X413310Y234540D01*
X413306Y234547D01*
X413179Y234694D01*
X413054Y234841D01*
X413048Y234846D01*
X413043Y234852D01*
X412891Y234969D01*
X412738Y235090D01*
X412731Y235094D01*
X412724Y235098D01*
X412552Y235184D01*
X412378Y235272D01*
X412371Y235274D01*
X412364Y235278D01*
X412175Y235328D01*
X411990Y235380D01*
X411983Y235380D01*
X411975Y235382D01*
X411644Y235409D01*
X408605Y235409D01*
X407959Y235582D01*
X407943Y235592D01*
X407801Y235656D01*
X407663Y235726D01*
X407618Y235739D01*
X407576Y235758D01*
X407425Y235792D01*
X407275Y235834D01*
X407229Y235837D01*
X407183Y235848D01*
X407029Y235852D01*
X406874Y235863D01*
X406827Y235858D01*
X406781Y235859D01*
X406628Y235832D01*
X406474Y235813D01*
X406430Y235798D01*
X406384Y235790D01*
X406240Y235734D01*
X406093Y235685D01*
X406052Y235662D01*
X406009Y235645D01*
X405878Y235561D01*
X405744Y235484D01*
X405704Y235450D01*
X405669Y235428D01*
X405607Y235368D01*
X405491Y235269D01*
X405123Y234901D01*
X394942Y234901D01*
X394825Y234997D01*
X394809Y235006D01*
X394795Y235017D01*
X394631Y235100D01*
X394469Y235186D01*
X394452Y235191D01*
X394436Y235199D01*
X394259Y235248D01*
X394083Y235301D01*
X394065Y235302D01*
X394048Y235307D01*
X393865Y235320D01*
X393682Y235337D01*
X393664Y235335D01*
X393647Y235336D01*
X393465Y235313D01*
X393282Y235294D01*
X393265Y235288D01*
X393247Y235286D01*
X393074Y235228D01*
X392898Y235172D01*
X392882Y235163D01*
X392865Y235158D01*
X392706Y235066D01*
X392546Y234977D01*
X392532Y234966D01*
X392517Y234957D01*
X392451Y234901D01*
X382242Y234901D01*
X382125Y234997D01*
X382109Y235006D01*
X382095Y235017D01*
X381931Y235100D01*
X381769Y235186D01*
X381752Y235191D01*
X381736Y235199D01*
X381559Y235248D01*
X381383Y235301D01*
X381365Y235302D01*
X381348Y235307D01*
X381165Y235320D01*
X380982Y235337D01*
X380964Y235335D01*
X380947Y235336D01*
X380765Y235313D01*
X380582Y235294D01*
X380565Y235288D01*
X380547Y235286D01*
X380374Y235228D01*
X380198Y235172D01*
X380182Y235163D01*
X380165Y235158D01*
X380006Y235066D01*
X379846Y234977D01*
X379832Y234966D01*
X379817Y234957D01*
X379751Y234901D01*
X369542Y234901D01*
X369425Y234997D01*
X369409Y235006D01*
X369395Y235017D01*
X369231Y235100D01*
X369069Y235186D01*
X369052Y235191D01*
X369036Y235199D01*
X368859Y235248D01*
X368683Y235301D01*
X368665Y235302D01*
X368648Y235307D01*
X368465Y235320D01*
X368282Y235337D01*
X368264Y235335D01*
X368247Y235336D01*
X368065Y235313D01*
X367882Y235294D01*
X367865Y235288D01*
X367847Y235286D01*
X367674Y235228D01*
X367498Y235172D01*
X367482Y235163D01*
X367465Y235158D01*
X367306Y235066D01*
X367146Y234977D01*
X367132Y234966D01*
X367117Y234957D01*
X367051Y234901D01*
X356842Y234901D01*
X356725Y234997D01*
X356709Y235006D01*
X356695Y235017D01*
X356531Y235100D01*
X356369Y235186D01*
X356352Y235191D01*
X356336Y235199D01*
X356159Y235248D01*
X355983Y235301D01*
X355965Y235302D01*
X355948Y235307D01*
X355765Y235320D01*
X355582Y235337D01*
X355564Y235335D01*
X355547Y235336D01*
X355365Y235313D01*
X355182Y235294D01*
X355165Y235288D01*
X355147Y235286D01*
X354974Y235228D01*
X354798Y235172D01*
X354782Y235163D01*
X354765Y235158D01*
X354606Y235066D01*
X354446Y234977D01*
X354432Y234966D01*
X354417Y234957D01*
X354351Y234901D01*
X344142Y234901D01*
X344025Y234997D01*
X344017Y235001D01*
X344010Y235007D01*
X343839Y235096D01*
X343669Y235186D01*
X343661Y235188D01*
X343653Y235192D01*
X343467Y235246D01*
X343283Y235301D01*
X343274Y235301D01*
X343266Y235304D01*
X343074Y235320D01*
X342882Y235337D01*
X342873Y235336D01*
X342864Y235337D01*
X342675Y235315D01*
X342482Y235294D01*
X342473Y235291D01*
X342465Y235290D01*
X342283Y235230D01*
X342098Y235172D01*
X342090Y235168D01*
X342082Y235165D01*
X341913Y235070D01*
X341746Y234977D01*
X341739Y234972D01*
X341731Y234967D01*
X341585Y234841D01*
X341439Y234717D01*
X341433Y234710D01*
X341426Y234704D01*
X341308Y234551D01*
X341189Y234401D01*
X341185Y234393D01*
X341180Y234386D01*
X341094Y234214D01*
X341007Y234042D01*
X341004Y234033D01*
X341000Y234025D01*
X340950Y233839D01*
X340899Y233654D01*
X340898Y233645D01*
X340896Y233637D01*
X340869Y233306D01*
X340869Y230789D01*
X340211Y229202D01*
X334932Y223923D01*
X333345Y223265D01*
X325010Y223265D01*
X324984Y223263D01*
X324957Y223265D01*
X324783Y223243D01*
X324610Y223225D01*
X324584Y223218D01*
X324558Y223214D01*
X324392Y223158D01*
X324225Y223107D01*
X324201Y223094D01*
X324176Y223086D01*
X324025Y222999D01*
X323871Y222915D01*
X323850Y222898D01*
X323827Y222885D01*
X323574Y222670D01*
X321597Y220693D01*
X319462Y219809D01*
X319458Y219806D01*
X319454Y219805D01*
X319282Y219712D01*
X319107Y219618D01*
X319104Y219616D01*
X319100Y219613D01*
X318949Y219488D01*
X318797Y219362D01*
X318794Y219359D01*
X318790Y219356D01*
X318667Y219203D01*
X318543Y219049D01*
X318541Y219045D01*
X318538Y219042D01*
X318447Y218867D01*
X318356Y218693D01*
X318355Y218689D01*
X318353Y218685D01*
X318298Y218496D01*
X318243Y218306D01*
X318242Y218302D01*
X318241Y218298D01*
X318225Y218100D01*
X318208Y217905D01*
X318209Y217901D01*
X318208Y217896D01*
X318231Y217701D01*
X318253Y217505D01*
X318255Y217501D01*
X318255Y217497D01*
X318316Y217311D01*
X318376Y217122D01*
X318379Y217118D01*
X318380Y217114D01*
X318477Y216942D01*
X318573Y216770D01*
X318576Y216767D01*
X318578Y216763D01*
X318706Y216615D01*
X318835Y216465D01*
X318838Y216462D01*
X318841Y216458D01*
X318996Y216338D01*
X319152Y216216D01*
X319156Y216214D01*
X319159Y216212D01*
X319337Y216123D01*
X319511Y216036D01*
X319516Y216034D01*
X319520Y216032D01*
X319712Y215981D01*
X319900Y215929D01*
X319904Y215929D01*
X319909Y215928D01*
X320239Y215901D01*
X373373Y215901D01*
X374810Y214464D01*
X374831Y214447D01*
X374848Y214426D01*
X374986Y214319D01*
X375121Y214209D01*
X375145Y214196D01*
X375166Y214180D01*
X375323Y214102D01*
X375477Y214020D01*
X375503Y214012D01*
X375527Y214000D01*
X375696Y213955D01*
X375863Y213905D01*
X375890Y213903D01*
X375915Y213896D01*
X376246Y213869D01*
X385427Y213869D01*
X385455Y213871D01*
G37*
%LPC*%
G36*
X515505Y323559D02*
X515505Y323559D01*
X513719Y325345D01*
X513719Y347871D01*
X515505Y349657D01*
X543031Y349657D01*
X544817Y347871D01*
X544817Y325345D01*
X543031Y323559D01*
X515505Y323559D01*
G37*
%LPD*%
%LPC*%
G36*
X515505Y234559D02*
X515505Y234559D01*
X513719Y236345D01*
X513719Y258871D01*
X515505Y260657D01*
X543031Y260657D01*
X544817Y258871D01*
X544817Y236345D01*
X543031Y234559D01*
X515505Y234559D01*
G37*
%LPD*%
%LPC*%
G36*
X552766Y307559D02*
X552766Y307559D01*
X549992Y308708D01*
X547776Y310924D01*
X547769Y310930D01*
X547764Y310937D01*
X547614Y311057D01*
X547465Y311179D01*
X547457Y311183D01*
X547450Y311189D01*
X547280Y311278D01*
X547109Y311368D01*
X547100Y311370D01*
X547093Y311375D01*
X546908Y311428D01*
X546723Y311483D01*
X546714Y311483D01*
X546706Y311486D01*
X546515Y311502D01*
X546322Y311519D01*
X546313Y311518D01*
X546304Y311519D01*
X546115Y311497D01*
X545922Y311476D01*
X545913Y311473D01*
X545905Y311472D01*
X545723Y311413D01*
X545538Y311354D01*
X545530Y311350D01*
X545522Y311347D01*
X545353Y311252D01*
X545186Y311159D01*
X545179Y311154D01*
X545171Y311149D01*
X545025Y311023D01*
X544879Y310899D01*
X544873Y310892D01*
X544866Y310886D01*
X544749Y310735D01*
X544674Y310639D01*
X531299Y310639D01*
X531299Y313649D01*
X542103Y313649D01*
X542749Y313476D01*
X543383Y313109D01*
X543414Y313084D01*
X543563Y312963D01*
X543571Y312958D01*
X543578Y312953D01*
X543748Y312864D01*
X543919Y312774D01*
X543927Y312771D01*
X543935Y312767D01*
X544120Y312714D01*
X544305Y312659D01*
X544314Y312658D01*
X544322Y312656D01*
X544514Y312640D01*
X544706Y312623D01*
X544715Y312624D01*
X544724Y312623D01*
X544914Y312645D01*
X545106Y312666D01*
X545114Y312669D01*
X545123Y312670D01*
X545307Y312730D01*
X545490Y312787D01*
X545498Y312792D01*
X545506Y312795D01*
X545675Y312890D01*
X545842Y312982D01*
X545849Y312988D01*
X545857Y312992D01*
X546001Y313117D01*
X546149Y313243D01*
X546155Y313250D01*
X546162Y313256D01*
X546279Y313406D01*
X546399Y313558D01*
X546403Y313567D01*
X546408Y313574D01*
X546494Y313746D01*
X546581Y313917D01*
X546584Y313926D01*
X546588Y313934D01*
X546638Y314121D01*
X546689Y314305D01*
X546690Y314314D01*
X546692Y314323D01*
X546719Y314654D01*
X546719Y316610D01*
X547868Y319384D01*
X549992Y321508D01*
X552766Y322657D01*
X555770Y322657D01*
X558544Y321508D01*
X560668Y319384D01*
X561817Y316610D01*
X561817Y313606D01*
X560668Y310832D01*
X558544Y308708D01*
X555770Y307559D01*
X552766Y307559D01*
G37*
%LPD*%
%LPC*%
G36*
X224777Y332243D02*
X224777Y332243D01*
X224777Y339865D01*
X230618Y339865D01*
X232118Y339627D01*
X233563Y339158D01*
X234917Y338468D01*
X236146Y337575D01*
X237221Y336500D01*
X238114Y335271D01*
X238804Y333917D01*
X239273Y332472D01*
X239309Y332243D01*
X224777Y332243D01*
G37*
%LPD*%
%LPC*%
G36*
X224777Y320559D02*
X224777Y320559D01*
X224777Y328181D01*
X239309Y328181D01*
X239273Y327952D01*
X238804Y326507D01*
X238114Y325153D01*
X237221Y323924D01*
X236146Y322849D01*
X234917Y321956D01*
X233563Y321266D01*
X232118Y320797D01*
X230618Y320559D01*
X224777Y320559D01*
G37*
%LPD*%
%LPC*%
G36*
X528827Y400811D02*
X528827Y400811D01*
X528827Y408941D01*
X530707Y408941D01*
X536957Y402691D01*
X536957Y400811D01*
X528827Y400811D01*
G37*
%LPD*%
%LPC*%
G36*
X528827Y387603D02*
X528827Y387603D01*
X528827Y395733D01*
X536957Y395733D01*
X536957Y393853D01*
X530707Y387603D01*
X528827Y387603D01*
G37*
%LPD*%
%LPC*%
G36*
X438199Y371549D02*
X438199Y371549D01*
X438199Y378341D01*
X441785Y378341D01*
X442431Y378168D01*
X443010Y377833D01*
X443483Y377360D01*
X443818Y376781D01*
X443991Y376135D01*
X443991Y371549D01*
X438199Y371549D01*
G37*
%LPD*%
%LPC*%
G36*
X287323Y342339D02*
X287323Y342339D01*
X287323Y349131D01*
X290909Y349131D01*
X291555Y348958D01*
X292134Y348623D01*
X292607Y348150D01*
X292942Y347571D01*
X293115Y346925D01*
X293115Y342339D01*
X287323Y342339D01*
G37*
%LPD*%
%LPC*%
G36*
X438199Y358259D02*
X438199Y358259D01*
X438199Y365051D01*
X443991Y365051D01*
X443991Y360465D01*
X443818Y359819D01*
X443483Y359240D01*
X443010Y358767D01*
X442431Y358432D01*
X441785Y358259D01*
X438199Y358259D01*
G37*
%LPD*%
%LPC*%
G36*
X542999Y184659D02*
X542999Y184659D01*
X542999Y190451D01*
X549791Y190451D01*
X549791Y186865D01*
X549618Y186219D01*
X549283Y185640D01*
X548810Y185167D01*
X548231Y184832D01*
X547585Y184659D01*
X542999Y184659D01*
G37*
%LPD*%
%LPC*%
G36*
X517599Y184659D02*
X517599Y184659D01*
X517599Y190451D01*
X524391Y190451D01*
X524391Y186865D01*
X524218Y186219D01*
X523883Y185640D01*
X523410Y185167D01*
X522831Y184832D01*
X522185Y184659D01*
X517599Y184659D01*
G37*
%LPD*%
%LPC*%
G36*
X492199Y184659D02*
X492199Y184659D01*
X492199Y190451D01*
X498991Y190451D01*
X498991Y186865D01*
X498818Y186219D01*
X498483Y185640D01*
X498010Y185167D01*
X497431Y184832D01*
X496785Y184659D01*
X492199Y184659D01*
G37*
%LPD*%
%LPC*%
G36*
X301699Y184659D02*
X301699Y184659D01*
X301699Y190451D01*
X308491Y190451D01*
X308491Y186865D01*
X308318Y186219D01*
X307983Y185640D01*
X307510Y185167D01*
X306931Y184832D01*
X306285Y184659D01*
X301699Y184659D01*
G37*
%LPD*%
%LPC*%
G36*
X290615Y184659D02*
X290615Y184659D01*
X289969Y184832D01*
X289390Y185167D01*
X288917Y185640D01*
X288582Y186219D01*
X288409Y186865D01*
X288409Y190451D01*
X295201Y190451D01*
X295201Y184659D01*
X290615Y184659D01*
G37*
%LPD*%
%LPC*%
G36*
X531915Y184659D02*
X531915Y184659D01*
X531269Y184832D01*
X530690Y185167D01*
X530217Y185640D01*
X529882Y186219D01*
X529709Y186865D01*
X529709Y190451D01*
X536501Y190451D01*
X536501Y184659D01*
X531915Y184659D01*
G37*
%LPD*%
%LPC*%
G36*
X506515Y184659D02*
X506515Y184659D01*
X505869Y184832D01*
X505290Y185167D01*
X504817Y185640D01*
X504482Y186219D01*
X504309Y186865D01*
X504309Y190451D01*
X511101Y190451D01*
X511101Y184659D01*
X506515Y184659D01*
G37*
%LPD*%
%LPC*%
G36*
X481115Y184659D02*
X481115Y184659D01*
X480469Y184832D01*
X479890Y185167D01*
X479417Y185640D01*
X479082Y186219D01*
X478909Y186865D01*
X478909Y190451D01*
X485701Y190451D01*
X485701Y184659D01*
X481115Y184659D01*
G37*
%LPD*%
%LPC*%
G36*
X514227Y310639D02*
X514227Y310639D01*
X514227Y311443D01*
X514400Y312089D01*
X514735Y312668D01*
X515208Y313141D01*
X515787Y313476D01*
X516433Y313649D01*
X527237Y313649D01*
X527237Y310639D01*
X514227Y310639D01*
G37*
%LPD*%
%LPC*%
G36*
X261517Y245299D02*
X261517Y245299D01*
X260825Y245485D01*
X260815Y245489D01*
X260693Y245554D01*
X260631Y245572D01*
X260573Y245599D01*
X260439Y245629D01*
X260307Y245669D01*
X260243Y245674D01*
X260180Y245689D01*
X260043Y245693D01*
X259906Y245705D01*
X259842Y245698D01*
X259778Y245700D01*
X259696Y245686D01*
X259697Y245701D01*
X259716Y245837D01*
X259712Y245901D01*
X259716Y245965D01*
X259699Y246102D01*
X259691Y246239D01*
X259674Y246301D01*
X259666Y246365D01*
X259622Y246495D01*
X259587Y246628D01*
X259555Y246695D01*
X259538Y246746D01*
X259498Y246816D01*
X259494Y246825D01*
X259311Y247505D01*
X259311Y252341D01*
X264353Y252341D01*
X264353Y245299D01*
X261517Y245299D01*
G37*
%LPD*%
%LPC*%
G36*
X212439Y216699D02*
X212439Y216699D01*
X212439Y220035D01*
X212612Y220681D01*
X212947Y221260D01*
X213420Y221733D01*
X213999Y222068D01*
X214645Y222241D01*
X217981Y222241D01*
X217981Y216699D01*
X212439Y216699D01*
G37*
%LPD*%
D10*
X323850Y244300D03*
X336550Y244300D03*
X349250Y244300D03*
X361950Y244300D03*
X374650Y244300D03*
X387350Y244300D03*
X400050Y244300D03*
X412750Y244300D03*
X425450Y244300D03*
X438150Y244300D03*
X425450Y339900D03*
X438150Y339900D03*
X450850Y339900D03*
X463550Y339900D03*
X476250Y339900D03*
X488950Y339900D03*
X488950Y244300D03*
X476250Y244300D03*
X463550Y244300D03*
X450850Y244300D03*
X412750Y339900D03*
X400050Y339900D03*
X387350Y339900D03*
X374650Y339900D03*
X361950Y339900D03*
X349250Y339900D03*
X336550Y339900D03*
X323850Y339900D03*
D11*
X441960Y203200D03*
X345440Y203200D03*
D12*
X514350Y212700D03*
X514350Y193700D03*
X539750Y212700D03*
X539750Y193700D03*
X488950Y212700D03*
X488950Y193700D03*
X298450Y212700D03*
X298450Y193700D03*
X247650Y401676D03*
X247650Y382676D03*
D13*
X415950Y368300D03*
X434950Y368300D03*
D14*
X220980Y213700D03*
X220980Y192700D03*
D15*
X242570Y193700D03*
X242570Y212700D03*
D16*
X229858Y330212D02*
X215634Y330212D01*
X215634Y305212D02*
X229858Y305212D01*
X229858Y355212D02*
X215634Y355212D01*
D17*
X284074Y298704D03*
X265074Y298704D03*
X265074Y318770D03*
X284074Y318770D03*
D13*
X265074Y339090D03*
X284074Y339090D03*
D17*
X265074Y278638D03*
X284074Y278638D03*
D18*
X276352Y232840D03*
X266852Y254840D03*
X285852Y254840D03*
D19*
X280416Y398272D03*
D20*
X305816Y398272D03*
X331216Y398272D03*
X356616Y398272D03*
X382016Y398272D03*
D19*
X475488Y398272D03*
D20*
X500888Y398272D03*
X526288Y398272D03*
D21*
X584268Y337608D03*
X584268Y247608D03*
X529268Y336608D03*
X529268Y247608D03*
D22*
X529268Y292608D03*
X529268Y284608D03*
X529268Y276608D03*
X529268Y300608D03*
X529268Y308608D03*
D23*
X277560Y371856D03*
X301560Y371856D03*
D24*
X225806Y266700D03*
X225806Y241300D03*
D25*
X425450Y244300D02*
X425450Y234950D01*
X387350Y209550D01*
X358140Y209550D01*
X345440Y203200D01*
X329184Y203200D01*
X321056Y211328D01*
X298822Y211328D01*
X298450Y212700D01*
X438150Y207010D02*
X438150Y244300D01*
X438150Y207010D02*
X441960Y203200D01*
X459232Y203200D01*
X467360Y211328D01*
X488578Y211328D01*
X488950Y212700D01*
X438150Y339900D02*
X438150Y359800D01*
X434950Y368300D01*
D26*
X223012Y385064D03*
X555244Y358648D03*
X408432Y321564D03*
X571500Y184150D03*
X488950Y177800D03*
X514350Y177800D03*
X539750Y177800D03*
X273050Y177800D03*
X242570Y177800D03*
X433832Y389382D03*
X501142Y262636D03*
X506730Y318008D03*
X442976Y321056D03*
X455676Y321056D03*
X571500Y209550D03*
X555244Y338328D03*
X349504Y227584D03*
X377952Y227584D03*
X467360Y227584D03*
X413004Y265684D03*
X451104Y265684D03*
X324104Y176784D03*
X387604Y176784D03*
X451104Y176784D03*
X580644Y312928D03*
X557276Y292100D03*
X252730Y255016D03*
X273050Y194056D03*
X506476Y338328D03*
X248666Y336296D03*
X321818Y372872D03*
D25*
X514350Y212700D02*
X539750Y212700D01*
X488950Y234442D02*
X488950Y244300D01*
X488950Y234442D02*
X491744Y231648D01*
X503936Y231648D01*
X514350Y212700D02*
X514232Y211700D01*
X509270Y216662D01*
X509270Y226314D01*
X503936Y231648D01*
X475488Y312928D02*
X475488Y339138D01*
X476250Y339900D01*
X497840Y296672D02*
X501396Y293116D01*
X529268Y292608D02*
X529736Y292608D01*
X529268Y292608D02*
X502920Y292608D01*
X501396Y293116D01*
D26*
X497840Y296672D03*
X475488Y312928D03*
D25*
X488950Y336550D02*
X488950Y339900D01*
X487172Y338328D02*
X488950Y336550D01*
X487172Y338328D02*
X487172Y289560D01*
X529268Y284608D02*
X529736Y284608D01*
X529268Y284608D02*
X492124Y284608D01*
X487172Y289560D01*
D27*
X425450Y349250D02*
X416950Y357750D01*
X425450Y349250D02*
X425450Y339900D01*
X425450Y304800D02*
X304800Y304800D01*
X416950Y357750D02*
X415950Y368300D01*
X425450Y339900D02*
X425450Y304800D01*
X457200Y304800D01*
X304800Y304800D02*
X284480Y304800D01*
X284480Y313792D01*
X284074Y318770D01*
X284480Y304800D02*
X284480Y294792D01*
X284074Y298704D01*
D25*
X302768Y371856D02*
X304800Y373888D01*
X305816Y373888D01*
X305816Y398272D01*
X529268Y276608D02*
X536192Y276608D01*
X536448Y276352D01*
X530496Y276352D01*
X529268Y276608D02*
X485392Y276608D01*
X457200Y304800D01*
X302768Y371856D02*
X301560Y371856D01*
D28*
X304800Y304800D03*
D25*
X278384Y371856D02*
X276352Y373888D01*
X251968Y373888D01*
X247904Y377952D01*
X247904Y383422D01*
X247650Y382676D01*
X277560Y371856D02*
X278384Y371856D01*
X463550Y349250D02*
X463550Y339900D01*
X463550Y349250D02*
X501650Y387350D01*
X501650Y393700D01*
X501650Y398272D01*
X501650Y400050D01*
X501650Y398272D02*
X500888Y398272D01*
X476250Y374650D02*
X450850Y349250D01*
X450850Y339900D01*
X476250Y374650D02*
X476250Y393700D01*
X476250Y398272D01*
X476250Y400050D01*
X476250Y398272D02*
X475488Y398272D01*
X323850Y264414D02*
X323850Y244300D01*
X250562Y398272D02*
X247650Y401676D01*
X250562Y398272D02*
X280416Y398272D01*
D28*
X323850Y264414D03*
D25*
X242570Y193700D02*
X219948Y193700D01*
X220980Y192700D01*
X361950Y330200D02*
X361950Y339900D01*
X387350Y339900D02*
X387350Y330454D01*
X355600Y323850D02*
X317500Y323850D01*
X355600Y323850D02*
X380746Y323850D01*
X387350Y330454D01*
X361950Y330200D02*
X355600Y323850D01*
X317500Y323850D02*
X317500Y324612D01*
X312928Y329184D01*
X312928Y353568D01*
X249548Y355212D02*
X222746Y355212D01*
X249548Y355212D02*
X254000Y359664D01*
X306832Y359664D01*
X312928Y353568D01*
X323850Y352298D02*
X323850Y339900D01*
X323850Y352298D02*
X333248Y361696D01*
X353568Y361696D01*
X357632Y365760D01*
X357632Y398272D01*
X356616Y398272D01*
X336550Y348742D02*
X336550Y339900D01*
X336550Y348742D02*
X341376Y353568D01*
X369824Y353568D01*
X382016Y365760D01*
X382016Y398272D01*
X336550Y244300D02*
X336550Y231648D01*
X260096Y211328D02*
X243942Y211328D01*
X242570Y212700D01*
X316992Y227584D02*
X332486Y227584D01*
X336550Y231648D01*
D26*
X316992Y227584D03*
X260096Y211328D03*
D27*
X265074Y318770D02*
X264820Y331740D01*
X265074Y339090D01*
X240188Y309276D02*
X222746Y305212D01*
X240188Y309276D02*
X247904Y316992D01*
X262280Y316992D01*
X265074Y318770D01*
D25*
X476250Y260350D02*
X476250Y244300D01*
X476250Y260350D02*
X453644Y282956D01*
X307340Y282956D01*
X300736Y276352D01*
X284836Y276352D01*
X284074Y278638D01*
X285672Y254840D02*
X285852Y254840D01*
X265074Y278638D02*
X265074Y279502D01*
X264160Y276352D01*
X276352Y264160D01*
X280416Y264160D01*
X284480Y260096D01*
X284480Y256212D01*
X285852Y254840D01*
D29*
X250444Y241300D02*
X225806Y241300D01*
X250444Y241300D02*
X260096Y231648D01*
X275160Y231648D01*
X276352Y232840D01*
D27*
X265074Y298704D02*
X258064Y298704D01*
X243840Y284480D01*
X243840Y270256D01*
X239776Y266192D01*
X226568Y266192D02*
X226314Y266192D01*
X226568Y266192D02*
X239776Y266192D01*
X226314Y266192D02*
X225806Y266700D01*
D25*
X226060Y266700D01*
X226568Y266192D01*
M02*
