%
M48
M72
T01C0.0200
T02C0.0354
T03C0.0400
%
T01
X6907Y5839
X6907Y7339
X5557Y8289
X6307Y9139
X6307Y9789
X6257Y10589
X5307Y11239
X4857Y11489
X4157Y12589
X6207Y14339
X6557Y14739
X7757Y15239
X6557Y16739
X6957Y17789
X8457Y17789
X10107Y17839
X11307Y16839
X12057Y17289
X12683Y17365
X13907Y16589
X13907Y15789
X14807Y14789
X14757Y14039
X14807Y12289
X15657Y11589
X16757Y14089
X17257Y14739
X17907Y15139
X18557Y15789
X19157Y16589
X19107Y17689
X17807Y17139
X16307Y18539
X15407Y17389
X12657Y15139
X12757Y14289
X12807Y13039
X11507Y13789
X10407Y13439
X10307Y14089
X9807Y14539
X9057Y13539
X7707Y12139
X6957Y12789
X7707Y11039
X9307Y11039
X11557Y11539
X12807Y11039
X12807Y9789
X12807Y9039
X12807Y8289
X12807Y7539
X12557Y7039
X13257Y5739
X14107Y6539
X16357Y6239
X16557Y7039
X17057Y8039
X17307Y9039
X19057Y9539
X19257Y7539
X18957Y5589
X11057Y8039
X11057Y8789
X9307Y8539
X5107Y9589
X4907Y10139
X4057Y7539
X3307Y7539
X4157Y16239
X4157Y17289
X3307Y17789
X4957Y17939
T02
X4307Y15355
X4307Y13622
T03
X4057Y5539
X5057Y5539
X6057Y5539
X7807Y5539
X8807Y5539
X9807Y5539
X10807Y5539
X11807Y5539
X18057Y10289
X18057Y11289
X19057Y11289
X19057Y10289
X19057Y12289
X19057Y13289
X19057Y14289
X18057Y14289
X18057Y13289
X18057Y12289
M30
