G75*
G70*
%OFA0B0*%
%FSLAX24Y24*%
%IPPOS*%
%LPD*%
%AMOC8*
5,1,8,0,0,1.08239X$1,22.5*
%
%ADD10C,0.0640*%
%ADD11C,0.0085*%
%ADD12C,0.0434*%
%ADD13C,0.0084*%
%ADD14OC8,0.0640*%
%ADD15C,0.0596*%
%ADD16R,0.0720X0.0720*%
%ADD17OC8,0.0720*%
%ADD18C,0.0083*%
D10*
X002232Y008828D02*
X002792Y008828D01*
X002792Y009812D02*
X002232Y009812D01*
X002232Y010796D02*
X002792Y010796D01*
D11*
X004534Y006273D02*
X004534Y005647D01*
X003752Y005647D01*
X003752Y006273D01*
X004534Y006273D01*
X004534Y005731D02*
X003752Y005731D01*
X003752Y005815D02*
X004534Y005815D01*
X004534Y005899D02*
X003752Y005899D01*
X003752Y005983D02*
X004534Y005983D01*
X004534Y006067D02*
X003752Y006067D01*
X003752Y006151D02*
X004534Y006151D01*
X004534Y006235D02*
X003752Y006235D01*
X004534Y006750D02*
X004534Y007376D01*
X004534Y006750D02*
X003752Y006750D01*
X003752Y007376D01*
X004534Y007376D01*
X004534Y006834D02*
X003752Y006834D01*
X003752Y006918D02*
X004534Y006918D01*
X004534Y007002D02*
X003752Y007002D01*
X003752Y007086D02*
X004534Y007086D01*
X004534Y007170D02*
X003752Y007170D01*
X003752Y007254D02*
X004534Y007254D01*
X004534Y007338D02*
X003752Y007338D01*
D12*
X015564Y009546D03*
X015564Y011317D03*
D13*
X007880Y011169D02*
X007880Y010873D01*
X007880Y011169D02*
X008526Y011169D01*
X008526Y010873D01*
X007880Y010873D01*
X007880Y010956D02*
X008526Y010956D01*
X008526Y011039D02*
X007880Y011039D01*
X007880Y011122D02*
X008526Y011122D01*
X005880Y011169D02*
X005880Y010873D01*
X005880Y011169D02*
X006526Y011169D01*
X006526Y010873D01*
X005880Y010873D01*
X005880Y010956D02*
X006526Y010956D01*
X006526Y011039D02*
X005880Y011039D01*
X005880Y011122D02*
X006526Y011122D01*
X005880Y009669D02*
X005880Y009373D01*
X005880Y009669D02*
X006526Y009669D01*
X006526Y009373D01*
X005880Y009373D01*
X005880Y009456D02*
X006526Y009456D01*
X006526Y009539D02*
X005880Y009539D01*
X005880Y009622D02*
X006526Y009622D01*
X007880Y009669D02*
X007880Y009373D01*
X007880Y009669D02*
X008526Y009669D01*
X008526Y009373D01*
X007880Y009373D01*
X007880Y009456D02*
X008526Y009456D01*
X008526Y009539D02*
X007880Y009539D01*
X007880Y009622D02*
X008526Y009622D01*
D14*
X002523Y007411D03*
X002523Y006411D03*
D15*
X002286Y011563D02*
X002801Y011563D01*
X002801Y012311D02*
X002286Y012311D01*
X002286Y013063D02*
X002801Y013063D01*
D16*
X006543Y014611D03*
X007543Y014611D03*
X011543Y013611D03*
D17*
X012543Y013611D03*
X013543Y013611D03*
X014543Y013611D03*
X015543Y013611D03*
X016543Y013611D03*
X016543Y014611D03*
X015543Y014611D03*
X014543Y014611D03*
X013543Y014611D03*
X012543Y014611D03*
X011543Y014611D03*
X010543Y014611D03*
X009543Y014611D03*
X008543Y014611D03*
X005543Y014611D03*
X004543Y014611D03*
X003543Y014611D03*
X002543Y014611D03*
D18*
X016099Y011051D02*
X016099Y010541D01*
X016099Y011051D02*
X016687Y011051D01*
X016687Y010541D01*
X016099Y010541D01*
X016099Y010623D02*
X016687Y010623D01*
X016687Y010705D02*
X016099Y010705D01*
X016099Y010787D02*
X016687Y010787D01*
X016687Y010869D02*
X016099Y010869D01*
X016099Y010951D02*
X016687Y010951D01*
X016687Y011033D02*
X016099Y011033D01*
X016099Y010382D02*
X016099Y009872D01*
X016099Y010382D02*
X016687Y010382D01*
X016687Y009872D01*
X016099Y009872D01*
X016099Y009954D02*
X016687Y009954D01*
X016687Y010036D02*
X016099Y010036D01*
X016099Y010118D02*
X016687Y010118D01*
X016687Y010200D02*
X016099Y010200D01*
X016099Y010282D02*
X016687Y010282D01*
X016687Y010364D02*
X016099Y010364D01*
M02*
