G04 EAGLE Gerber RS-274X export*
G75*
%MOMM*%
%FSLAX34Y34*%
%LPD*%
%INTop Copper*%
%IPPOS*%
%AMOC8*
5,1,8,0,0,1.08239X$1,22.5*%
G01*
%ADD10R,0.762000X1.270000*%
%ADD11R,5.334000X1.930400*%
%ADD12R,1.500000X1.300000*%
%ADD13R,1.300000X1.500000*%
%ADD14R,1.200000X1.200000*%
%ADD15R,1.600000X1.300000*%
%ADD16C,1.422400*%
%ADD17R,1.300000X1.600000*%
%ADD18R,1.000000X1.400000*%
%ADD19R,1.625600X1.625600*%
%ADD20P,1.759533X8X112.500000*%
%ADD21R,2.500000X2.000000*%
%ADD22R,2.500000X0.500000*%
%ADD23R,1.050000X0.500000*%
%ADD24P,1.539592X8X292.500000*%
%ADD25C,0.355600*%
%ADD26C,1.016000*%
%ADD27C,0.457200*%
%ADD28C,1.143000*%
%ADD29C,0.762000*%

G36*
X595902Y168201D02*
X595902Y168201D01*
X595920Y168199D01*
X596102Y168220D01*
X596285Y168239D01*
X596302Y168244D01*
X596319Y168246D01*
X596494Y168303D01*
X596670Y168357D01*
X596685Y168365D01*
X596702Y168371D01*
X596862Y168461D01*
X597024Y168549D01*
X597037Y168560D01*
X597053Y168569D01*
X597192Y168689D01*
X597333Y168806D01*
X597344Y168820D01*
X597358Y168832D01*
X597470Y168977D01*
X597585Y169120D01*
X597593Y169136D01*
X597604Y169150D01*
X597686Y169315D01*
X597771Y169477D01*
X597776Y169494D01*
X597784Y169510D01*
X597831Y169689D01*
X597882Y169864D01*
X597884Y169882D01*
X597888Y169899D01*
X597915Y170230D01*
X597915Y232528D01*
X597913Y232546D01*
X597915Y232564D01*
X597894Y232746D01*
X597875Y232929D01*
X597870Y232946D01*
X597868Y232963D01*
X597811Y233138D01*
X597757Y233314D01*
X597749Y233329D01*
X597743Y233346D01*
X597653Y233506D01*
X597565Y233668D01*
X597554Y233681D01*
X597545Y233697D01*
X597425Y233836D01*
X597308Y233977D01*
X597294Y233988D01*
X597282Y234002D01*
X597137Y234114D01*
X596994Y234229D01*
X596978Y234237D01*
X596964Y234248D01*
X596799Y234330D01*
X596637Y234415D01*
X596620Y234420D01*
X596604Y234428D01*
X596425Y234475D01*
X596250Y234526D01*
X596232Y234528D01*
X596215Y234532D01*
X595884Y234559D01*
X570505Y234559D01*
X568719Y236345D01*
X568719Y258871D01*
X570505Y260657D01*
X595884Y260657D01*
X595902Y260659D01*
X595920Y260657D01*
X596102Y260678D01*
X596285Y260697D01*
X596302Y260702D01*
X596319Y260704D01*
X596494Y260761D01*
X596670Y260815D01*
X596685Y260823D01*
X596702Y260829D01*
X596862Y260919D01*
X597024Y261007D01*
X597037Y261018D01*
X597053Y261027D01*
X597192Y261147D01*
X597333Y261264D01*
X597344Y261278D01*
X597358Y261290D01*
X597470Y261435D01*
X597585Y261578D01*
X597593Y261594D01*
X597604Y261608D01*
X597686Y261773D01*
X597771Y261935D01*
X597776Y261952D01*
X597784Y261968D01*
X597831Y262147D01*
X597882Y262322D01*
X597884Y262340D01*
X597888Y262357D01*
X597915Y262688D01*
X597915Y322528D01*
X597913Y322546D01*
X597915Y322564D01*
X597894Y322746D01*
X597875Y322929D01*
X597870Y322946D01*
X597868Y322963D01*
X597811Y323138D01*
X597757Y323314D01*
X597749Y323329D01*
X597743Y323346D01*
X597653Y323506D01*
X597565Y323668D01*
X597554Y323681D01*
X597545Y323697D01*
X597425Y323836D01*
X597308Y323977D01*
X597294Y323988D01*
X597282Y324002D01*
X597137Y324114D01*
X596994Y324229D01*
X596978Y324237D01*
X596964Y324248D01*
X596799Y324330D01*
X596637Y324415D01*
X596620Y324420D01*
X596604Y324428D01*
X596425Y324475D01*
X596250Y324526D01*
X596232Y324528D01*
X596215Y324532D01*
X595884Y324559D01*
X570505Y324559D01*
X568719Y326345D01*
X568719Y348871D01*
X570505Y350657D01*
X595884Y350657D01*
X595902Y350659D01*
X595920Y350657D01*
X596102Y350678D01*
X596285Y350697D01*
X596302Y350702D01*
X596319Y350704D01*
X596494Y350761D01*
X596670Y350815D01*
X596685Y350823D01*
X596702Y350829D01*
X596862Y350919D01*
X597024Y351007D01*
X597037Y351018D01*
X597053Y351027D01*
X597192Y351147D01*
X597333Y351264D01*
X597344Y351278D01*
X597358Y351290D01*
X597470Y351435D01*
X597585Y351578D01*
X597593Y351594D01*
X597604Y351608D01*
X597686Y351773D01*
X597771Y351935D01*
X597776Y351952D01*
X597784Y351968D01*
X597831Y352147D01*
X597882Y352322D01*
X597884Y352340D01*
X597888Y352357D01*
X597915Y352688D01*
X597915Y413970D01*
X597913Y413988D01*
X597915Y414006D01*
X597894Y414188D01*
X597875Y414371D01*
X597870Y414388D01*
X597868Y414405D01*
X597811Y414580D01*
X597757Y414756D01*
X597749Y414771D01*
X597743Y414788D01*
X597653Y414947D01*
X597565Y415110D01*
X597554Y415123D01*
X597545Y415139D01*
X597425Y415278D01*
X597308Y415419D01*
X597294Y415430D01*
X597282Y415444D01*
X597137Y415556D01*
X596994Y415671D01*
X596978Y415679D01*
X596964Y415690D01*
X596799Y415772D01*
X596637Y415857D01*
X596620Y415862D01*
X596604Y415870D01*
X596425Y415917D01*
X596250Y415968D01*
X596232Y415970D01*
X596215Y415974D01*
X595884Y416001D01*
X206628Y416001D01*
X206610Y415999D01*
X206592Y416001D01*
X206410Y415980D01*
X206227Y415961D01*
X206210Y415956D01*
X206193Y415954D01*
X206018Y415897D01*
X205842Y415843D01*
X205827Y415835D01*
X205810Y415829D01*
X205650Y415739D01*
X205488Y415651D01*
X205475Y415640D01*
X205459Y415631D01*
X205320Y415511D01*
X205179Y415394D01*
X205168Y415380D01*
X205154Y415368D01*
X205042Y415223D01*
X204927Y415080D01*
X204919Y415064D01*
X204908Y415050D01*
X204826Y414885D01*
X204741Y414723D01*
X204736Y414706D01*
X204728Y414690D01*
X204681Y414511D01*
X204630Y414336D01*
X204628Y414318D01*
X204624Y414301D01*
X204597Y413970D01*
X204597Y363448D01*
X204598Y363439D01*
X204597Y363430D01*
X204618Y363238D01*
X204637Y363047D01*
X204639Y363039D01*
X204640Y363030D01*
X204698Y362847D01*
X204755Y362662D01*
X204759Y362655D01*
X204762Y362646D01*
X204855Y362478D01*
X204947Y362308D01*
X204952Y362302D01*
X204957Y362294D01*
X205082Y362146D01*
X205204Y361999D01*
X205211Y361994D01*
X205217Y361987D01*
X205369Y361866D01*
X205518Y361747D01*
X205526Y361743D01*
X205533Y361737D01*
X205705Y361650D01*
X205875Y361561D01*
X205884Y361559D01*
X205892Y361555D01*
X206078Y361503D01*
X206262Y361450D01*
X206271Y361449D01*
X206280Y361447D01*
X206472Y361433D01*
X206664Y361417D01*
X206672Y361418D01*
X206681Y361417D01*
X206874Y361442D01*
X207063Y361464D01*
X207072Y361467D01*
X207081Y361468D01*
X207264Y361529D01*
X207446Y361589D01*
X207454Y361593D01*
X207462Y361596D01*
X207628Y361691D01*
X207797Y361787D01*
X207804Y361793D01*
X207811Y361797D01*
X208064Y362012D01*
X209878Y363826D01*
X213613Y365373D01*
X231879Y365373D01*
X235614Y363826D01*
X238643Y360796D01*
X238670Y360766D01*
X238784Y360628D01*
X238801Y360613D01*
X238816Y360596D01*
X238957Y360487D01*
X239096Y360374D01*
X239116Y360363D01*
X239134Y360350D01*
X239294Y360270D01*
X239453Y360187D01*
X239474Y360180D01*
X239494Y360170D01*
X239668Y360124D01*
X239839Y360074D01*
X239861Y360072D01*
X239883Y360066D01*
X240214Y360039D01*
X246707Y360039D01*
X246734Y360041D01*
X246761Y360039D01*
X246935Y360061D01*
X247108Y360079D01*
X247133Y360086D01*
X247160Y360090D01*
X247326Y360145D01*
X247493Y360197D01*
X247516Y360210D01*
X247542Y360218D01*
X247693Y360305D01*
X247847Y360389D01*
X247867Y360406D01*
X247891Y360419D01*
X248144Y360634D01*
X251266Y363756D01*
X253040Y364491D01*
X267960Y364491D01*
X267969Y364492D01*
X267978Y364491D01*
X268168Y364511D01*
X268360Y364531D01*
X268369Y364533D01*
X268378Y364534D01*
X268561Y364592D01*
X268745Y364649D01*
X268753Y364653D01*
X268762Y364656D01*
X268930Y364749D01*
X269099Y364841D01*
X269106Y364846D01*
X269114Y364851D01*
X269262Y364976D01*
X269409Y365098D01*
X269414Y365105D01*
X269421Y365111D01*
X269541Y365262D01*
X269661Y365412D01*
X269665Y365420D01*
X269671Y365427D01*
X269758Y365599D01*
X269847Y365769D01*
X269849Y365778D01*
X269853Y365786D01*
X269905Y365972D01*
X269958Y366156D01*
X269959Y366165D01*
X269961Y366174D01*
X269975Y366366D01*
X269991Y366558D01*
X269990Y366566D01*
X269990Y366575D01*
X269966Y366767D01*
X269944Y366957D01*
X269941Y366966D01*
X269940Y366975D01*
X269879Y367157D01*
X269819Y367340D01*
X269815Y367348D01*
X269812Y367356D01*
X269716Y367524D01*
X269621Y367691D01*
X269615Y367698D01*
X269611Y367705D01*
X269396Y367958D01*
X268888Y368466D01*
X268867Y368483D01*
X268850Y368504D01*
X268712Y368611D01*
X268577Y368721D01*
X268553Y368734D01*
X268532Y368750D01*
X268375Y368828D01*
X268221Y368910D01*
X268195Y368918D01*
X268171Y368930D01*
X268002Y368975D01*
X267835Y369025D01*
X267808Y369027D01*
X267783Y369034D01*
X267452Y369061D01*
X251008Y369061D01*
X249234Y369796D01*
X246498Y372532D01*
X246477Y372549D01*
X246459Y372570D01*
X246322Y372677D01*
X246186Y372787D01*
X246162Y372800D01*
X246141Y372816D01*
X245984Y372894D01*
X245830Y372976D01*
X245805Y372984D01*
X245781Y372996D01*
X245611Y373041D01*
X245445Y373091D01*
X245418Y373093D01*
X245392Y373100D01*
X245061Y373127D01*
X238887Y373127D01*
X237101Y374913D01*
X237101Y390439D01*
X237402Y390740D01*
X237413Y390754D01*
X237427Y390765D01*
X237541Y390909D01*
X237657Y391051D01*
X237666Y391067D01*
X237677Y391081D01*
X237760Y391245D01*
X237846Y391407D01*
X237851Y391424D01*
X237859Y391440D01*
X237908Y391617D01*
X237961Y391793D01*
X237962Y391811D01*
X237967Y391828D01*
X237980Y392011D01*
X237997Y392194D01*
X237995Y392212D01*
X237996Y392229D01*
X237973Y392411D01*
X237954Y392594D01*
X237948Y392611D01*
X237946Y392629D01*
X237888Y392802D01*
X237832Y392978D01*
X237823Y392994D01*
X237818Y393010D01*
X237726Y393170D01*
X237637Y393330D01*
X237626Y393344D01*
X237617Y393359D01*
X237402Y393612D01*
X237101Y393913D01*
X237101Y409439D01*
X238887Y411225D01*
X256413Y411225D01*
X258199Y409439D01*
X258199Y405130D01*
X258201Y405112D01*
X258199Y405094D01*
X258220Y404912D01*
X258239Y404729D01*
X258244Y404712D01*
X258246Y404695D01*
X258303Y404520D01*
X258357Y404344D01*
X258365Y404329D01*
X258371Y404312D01*
X258461Y404152D01*
X258549Y403990D01*
X258560Y403977D01*
X258569Y403961D01*
X258689Y403822D01*
X258806Y403681D01*
X258820Y403670D01*
X258832Y403656D01*
X258977Y403544D01*
X259120Y403429D01*
X259136Y403421D01*
X259150Y403410D01*
X259315Y403328D01*
X259477Y403243D01*
X259494Y403238D01*
X259510Y403230D01*
X259689Y403183D01*
X259864Y403132D01*
X259882Y403130D01*
X259899Y403126D01*
X260230Y403099D01*
X267208Y403099D01*
X267226Y403101D01*
X267244Y403099D01*
X267426Y403120D01*
X267609Y403139D01*
X267626Y403144D01*
X267643Y403146D01*
X267818Y403203D01*
X267994Y403257D01*
X268009Y403265D01*
X268026Y403271D01*
X268186Y403361D01*
X268348Y403449D01*
X268361Y403460D01*
X268377Y403469D01*
X268516Y403589D01*
X268657Y403706D01*
X268668Y403720D01*
X268682Y403732D01*
X268794Y403877D01*
X268909Y404020D01*
X268917Y404036D01*
X268928Y404050D01*
X269010Y404215D01*
X269095Y404377D01*
X269100Y404394D01*
X269108Y404410D01*
X269155Y404589D01*
X269206Y404764D01*
X269208Y404782D01*
X269212Y404799D01*
X269239Y405130D01*
X269239Y407663D01*
X271025Y409449D01*
X289807Y409449D01*
X291593Y407663D01*
X291593Y404759D01*
X291594Y404750D01*
X291593Y404741D01*
X291614Y404548D01*
X291633Y404358D01*
X291635Y404350D01*
X291636Y404341D01*
X291694Y404157D01*
X291751Y403973D01*
X291755Y403965D01*
X291758Y403957D01*
X291851Y403788D01*
X291943Y403619D01*
X291948Y403612D01*
X291953Y403605D01*
X292077Y403458D01*
X292200Y403310D01*
X292207Y403304D01*
X292213Y403298D01*
X292364Y403179D01*
X292514Y403058D01*
X292522Y403054D01*
X292529Y403048D01*
X292702Y402960D01*
X292871Y402872D01*
X292880Y402870D01*
X292888Y402866D01*
X293074Y402814D01*
X293258Y402761D01*
X293267Y402760D01*
X293276Y402758D01*
X293469Y402744D01*
X293660Y402728D01*
X293668Y402729D01*
X293677Y402728D01*
X293870Y402753D01*
X294059Y402775D01*
X294068Y402778D01*
X294077Y402779D01*
X294259Y402840D01*
X294442Y402900D01*
X294450Y402904D01*
X294458Y402907D01*
X294625Y403003D01*
X294793Y403098D01*
X294800Y403103D01*
X294807Y403108D01*
X295060Y403323D01*
X301186Y409449D01*
X310446Y409449D01*
X317439Y402455D01*
X317453Y402444D01*
X317464Y402430D01*
X317608Y402317D01*
X317750Y402200D01*
X317766Y402192D01*
X317780Y402181D01*
X317944Y402098D01*
X318106Y402012D01*
X318123Y402007D01*
X318139Y401998D01*
X318316Y401949D01*
X318492Y401897D01*
X318510Y401895D01*
X318527Y401890D01*
X318710Y401877D01*
X318893Y401860D01*
X318911Y401862D01*
X318929Y401861D01*
X319110Y401884D01*
X319293Y401904D01*
X319310Y401909D01*
X319328Y401912D01*
X319501Y401970D01*
X319677Y402025D01*
X319693Y402034D01*
X319710Y402040D01*
X319869Y402132D01*
X320029Y402220D01*
X320043Y402232D01*
X320059Y402241D01*
X320312Y402455D01*
X326797Y408941D01*
X328677Y408941D01*
X328677Y398780D01*
X328678Y398762D01*
X328677Y398745D01*
X328698Y398562D01*
X328717Y398380D01*
X328722Y398363D01*
X328724Y398345D01*
X328749Y398267D01*
X328710Y398130D01*
X328708Y398112D01*
X328704Y398095D01*
X328677Y397764D01*
X328677Y387603D01*
X326797Y387603D01*
X320312Y394089D01*
X320298Y394100D01*
X320286Y394114D01*
X320142Y394227D01*
X320000Y394344D01*
X319984Y394352D01*
X319970Y394363D01*
X319806Y394447D01*
X319644Y394532D01*
X319627Y394537D01*
X319611Y394546D01*
X319434Y394595D01*
X319258Y394647D01*
X319241Y394649D01*
X319223Y394654D01*
X319040Y394667D01*
X318857Y394684D01*
X318840Y394682D01*
X318822Y394683D01*
X318640Y394660D01*
X318457Y394640D01*
X318440Y394635D01*
X318422Y394632D01*
X318249Y394574D01*
X318073Y394519D01*
X318058Y394510D01*
X318041Y394504D01*
X317881Y394412D01*
X317721Y394324D01*
X317707Y394312D01*
X317692Y394303D01*
X317439Y394089D01*
X311238Y387887D01*
X311221Y387867D01*
X311200Y387849D01*
X311093Y387711D01*
X310983Y387576D01*
X310970Y387552D01*
X310954Y387531D01*
X310876Y387374D01*
X310794Y387220D01*
X310786Y387195D01*
X310774Y387171D01*
X310729Y387001D01*
X310679Y386834D01*
X310677Y386808D01*
X310670Y386782D01*
X310643Y386451D01*
X310643Y372928D01*
X310013Y371408D01*
X310004Y371379D01*
X309990Y371351D01*
X309946Y371186D01*
X309897Y371023D01*
X309894Y370992D01*
X309886Y370962D01*
X309859Y370631D01*
X309859Y368093D01*
X308856Y367090D01*
X308847Y367080D01*
X308837Y367071D01*
X308720Y366924D01*
X308601Y366779D01*
X308594Y366767D01*
X308586Y366756D01*
X308500Y366589D01*
X308412Y366423D01*
X308408Y366410D01*
X308402Y366398D01*
X308351Y366216D01*
X308297Y366037D01*
X308296Y366024D01*
X308292Y366011D01*
X308278Y365824D01*
X308261Y365636D01*
X308262Y365623D01*
X308261Y365609D01*
X308284Y365424D01*
X308304Y365236D01*
X308308Y365223D01*
X308310Y365210D01*
X308369Y365032D01*
X308426Y364852D01*
X308432Y364840D01*
X308436Y364827D01*
X308530Y364664D01*
X308621Y364500D01*
X308629Y364489D01*
X308636Y364478D01*
X308759Y364337D01*
X308881Y364193D01*
X308892Y364184D01*
X308900Y364174D01*
X309049Y364060D01*
X309197Y363943D01*
X309209Y363937D01*
X309220Y363929D01*
X309515Y363777D01*
X309566Y363756D01*
X317020Y356302D01*
X317030Y356277D01*
X317037Y356265D01*
X317041Y356252D01*
X317132Y356087D01*
X317221Y355922D01*
X317229Y355911D01*
X317236Y355900D01*
X317358Y355756D01*
X317477Y355611D01*
X317487Y355603D01*
X317496Y355593D01*
X317644Y355476D01*
X317790Y355358D01*
X317802Y355351D01*
X317812Y355343D01*
X317980Y355258D01*
X318146Y355170D01*
X318159Y355167D01*
X318171Y355161D01*
X318353Y355110D01*
X318533Y355057D01*
X318546Y355056D01*
X318559Y355053D01*
X318748Y355039D01*
X318934Y355023D01*
X318947Y355024D01*
X318960Y355023D01*
X319148Y355047D01*
X319334Y355068D01*
X319346Y355072D01*
X319360Y355074D01*
X319538Y355134D01*
X319717Y355191D01*
X319729Y355198D01*
X319742Y355202D01*
X319905Y355296D01*
X320069Y355387D01*
X320079Y355396D01*
X320090Y355403D01*
X320343Y355617D01*
X330514Y365788D01*
X332288Y366523D01*
X350727Y366523D01*
X350754Y366525D01*
X350781Y366523D01*
X350955Y366545D01*
X351128Y366563D01*
X351153Y366570D01*
X351180Y366574D01*
X351346Y366629D01*
X351513Y366681D01*
X351536Y366694D01*
X351562Y366702D01*
X351713Y366789D01*
X351867Y366873D01*
X351887Y366890D01*
X351911Y366903D01*
X352164Y367118D01*
X352210Y367164D01*
X352227Y367185D01*
X352248Y367203D01*
X352354Y367340D01*
X352465Y367476D01*
X352478Y367500D01*
X352494Y367521D01*
X352572Y367678D01*
X352654Y367832D01*
X352662Y367857D01*
X352674Y367881D01*
X352719Y368051D01*
X352769Y368217D01*
X352771Y368244D01*
X352778Y368270D01*
X352805Y368601D01*
X352805Y385435D01*
X352803Y385462D01*
X352805Y385488D01*
X352783Y385662D01*
X352765Y385836D01*
X352758Y385861D01*
X352754Y385888D01*
X352698Y386054D01*
X352647Y386221D01*
X352634Y386244D01*
X352626Y386270D01*
X352539Y386421D01*
X352455Y386575D01*
X352438Y386595D01*
X352425Y386618D01*
X352210Y386871D01*
X344993Y394089D01*
X344979Y394100D01*
X344968Y394114D01*
X344824Y394227D01*
X344682Y394344D01*
X344666Y394352D01*
X344652Y394363D01*
X344487Y394447D01*
X344326Y394532D01*
X344309Y394537D01*
X344293Y394546D01*
X344115Y394595D01*
X343940Y394647D01*
X343922Y394649D01*
X343905Y394654D01*
X343722Y394667D01*
X343539Y394684D01*
X343521Y394682D01*
X343503Y394683D01*
X343322Y394660D01*
X343139Y394640D01*
X343122Y394635D01*
X343104Y394632D01*
X342930Y394574D01*
X342755Y394519D01*
X342739Y394510D01*
X342722Y394504D01*
X342563Y394412D01*
X342403Y394324D01*
X342389Y394312D01*
X342373Y394303D01*
X342120Y394089D01*
X335635Y387603D01*
X333755Y387603D01*
X333755Y397764D01*
X333753Y397782D01*
X333755Y397799D01*
X333734Y397982D01*
X333715Y398164D01*
X333710Y398181D01*
X333708Y398199D01*
X333683Y398277D01*
X333722Y398414D01*
X333724Y398432D01*
X333728Y398449D01*
X333755Y398780D01*
X333755Y408941D01*
X335635Y408941D01*
X342120Y402455D01*
X342134Y402444D01*
X342146Y402430D01*
X342290Y402317D01*
X342432Y402200D01*
X342448Y402192D01*
X342462Y402181D01*
X342626Y402098D01*
X342788Y402012D01*
X342805Y402007D01*
X342821Y401998D01*
X342998Y401949D01*
X343174Y401897D01*
X343191Y401895D01*
X343209Y401890D01*
X343392Y401877D01*
X343575Y401860D01*
X343592Y401862D01*
X343610Y401861D01*
X343792Y401884D01*
X343975Y401904D01*
X343992Y401909D01*
X344010Y401912D01*
X344183Y401970D01*
X344359Y402025D01*
X344374Y402034D01*
X344391Y402040D01*
X344551Y402132D01*
X344711Y402220D01*
X344724Y402232D01*
X344740Y402241D01*
X344993Y402455D01*
X351986Y409449D01*
X361246Y409449D01*
X367880Y402815D01*
X367893Y402803D01*
X367905Y402790D01*
X368049Y402676D01*
X368191Y402560D01*
X368207Y402551D01*
X368221Y402540D01*
X368385Y402457D01*
X368547Y402371D01*
X368564Y402366D01*
X368580Y402358D01*
X368757Y402308D01*
X368933Y402256D01*
X368951Y402254D01*
X368968Y402250D01*
X369151Y402236D01*
X369334Y402220D01*
X369352Y402222D01*
X369369Y402220D01*
X369551Y402243D01*
X369734Y402263D01*
X369751Y402269D01*
X369769Y402271D01*
X369942Y402329D01*
X370118Y402385D01*
X370134Y402393D01*
X370150Y402399D01*
X370310Y402491D01*
X370470Y402579D01*
X370484Y402591D01*
X370499Y402600D01*
X370752Y402815D01*
X377386Y409449D01*
X386646Y409449D01*
X393193Y402902D01*
X393193Y393642D01*
X387438Y387887D01*
X387421Y387867D01*
X387400Y387849D01*
X387293Y387711D01*
X387183Y387576D01*
X387170Y387552D01*
X387154Y387531D01*
X387076Y387374D01*
X386994Y387220D01*
X386986Y387195D01*
X386974Y387171D01*
X386929Y387001D01*
X386879Y386834D01*
X386877Y386808D01*
X386870Y386782D01*
X386843Y386451D01*
X386843Y364800D01*
X386108Y363026D01*
X384464Y361382D01*
X375848Y352766D01*
X375843Y352759D01*
X375836Y352754D01*
X375715Y352604D01*
X375593Y352455D01*
X375589Y352447D01*
X375583Y352440D01*
X375495Y352270D01*
X375405Y352099D01*
X375402Y352090D01*
X375398Y352083D01*
X375344Y351897D01*
X375290Y351713D01*
X375289Y351704D01*
X375287Y351696D01*
X375271Y351504D01*
X375253Y351312D01*
X375254Y351303D01*
X375254Y351294D01*
X375276Y351104D01*
X375297Y350912D01*
X375300Y350903D01*
X375301Y350895D01*
X375360Y350713D01*
X375418Y350528D01*
X375423Y350520D01*
X375425Y350512D01*
X375521Y350342D01*
X375613Y350176D01*
X375619Y350169D01*
X375623Y350161D01*
X375750Y350015D01*
X375874Y349869D01*
X375881Y349863D01*
X375886Y349856D01*
X376039Y349738D01*
X376190Y349619D01*
X376198Y349615D01*
X376205Y349610D01*
X376377Y349524D01*
X376549Y349437D01*
X376557Y349434D01*
X376565Y349430D01*
X376752Y349380D01*
X376936Y349329D01*
X376945Y349328D01*
X376954Y349326D01*
X377285Y349299D01*
X379758Y349299D01*
X379875Y349203D01*
X379891Y349194D01*
X379905Y349183D01*
X380069Y349100D01*
X380231Y349014D01*
X380248Y349009D01*
X380264Y349001D01*
X380441Y348952D01*
X380617Y348899D01*
X380635Y348898D01*
X380652Y348893D01*
X380835Y348880D01*
X381018Y348863D01*
X381036Y348865D01*
X381053Y348864D01*
X381235Y348887D01*
X381418Y348906D01*
X381435Y348912D01*
X381453Y348914D01*
X381626Y348972D01*
X381802Y349028D01*
X381818Y349037D01*
X381835Y349042D01*
X381994Y349134D01*
X382154Y349223D01*
X382168Y349234D01*
X382183Y349243D01*
X382249Y349299D01*
X392458Y349299D01*
X392575Y349203D01*
X392591Y349194D01*
X392605Y349183D01*
X392769Y349100D01*
X392931Y349014D01*
X392948Y349009D01*
X392964Y349001D01*
X393141Y348952D01*
X393317Y348899D01*
X393335Y348898D01*
X393352Y348893D01*
X393535Y348880D01*
X393718Y348863D01*
X393736Y348865D01*
X393753Y348864D01*
X393935Y348887D01*
X394118Y348906D01*
X394135Y348912D01*
X394153Y348914D01*
X394326Y348972D01*
X394502Y349028D01*
X394518Y349037D01*
X394535Y349042D01*
X394694Y349134D01*
X394854Y349223D01*
X394868Y349234D01*
X394883Y349243D01*
X394949Y349299D01*
X405158Y349299D01*
X405275Y349203D01*
X405291Y349194D01*
X405305Y349183D01*
X405469Y349100D01*
X405631Y349014D01*
X405648Y349009D01*
X405664Y349001D01*
X405841Y348952D01*
X406017Y348899D01*
X406035Y348898D01*
X406052Y348893D01*
X406235Y348880D01*
X406418Y348863D01*
X406436Y348865D01*
X406453Y348864D01*
X406635Y348887D01*
X406818Y348906D01*
X406835Y348912D01*
X406853Y348914D01*
X407026Y348972D01*
X407202Y349028D01*
X407218Y349037D01*
X407235Y349042D01*
X407394Y349134D01*
X407554Y349223D01*
X407568Y349234D01*
X407583Y349243D01*
X407649Y349299D01*
X412953Y349299D01*
X412962Y349300D01*
X412971Y349299D01*
X413163Y349320D01*
X413354Y349339D01*
X413362Y349341D01*
X413371Y349342D01*
X413553Y349400D01*
X413738Y349457D01*
X413746Y349461D01*
X413755Y349464D01*
X413923Y349557D01*
X414093Y349649D01*
X414099Y349654D01*
X414107Y349659D01*
X414255Y349784D01*
X414402Y349906D01*
X414407Y349913D01*
X414414Y349919D01*
X414534Y350071D01*
X414654Y350220D01*
X414658Y350228D01*
X414664Y350235D01*
X414752Y350408D01*
X414840Y350577D01*
X414842Y350586D01*
X414846Y350594D01*
X414898Y350779D01*
X414951Y350964D01*
X414952Y350973D01*
X414954Y350982D01*
X414968Y351174D01*
X414984Y351366D01*
X414983Y351374D01*
X414984Y351383D01*
X414959Y351574D01*
X414937Y351765D01*
X414934Y351774D01*
X414933Y351783D01*
X414872Y351964D01*
X414812Y352148D01*
X414808Y352156D01*
X414805Y352164D01*
X414709Y352332D01*
X414614Y352499D01*
X414608Y352506D01*
X414604Y352513D01*
X414389Y352766D01*
X413424Y353732D01*
X413364Y353780D01*
X413282Y353861D01*
X412721Y354325D01*
X412678Y354389D01*
X412610Y354507D01*
X412562Y354564D01*
X412531Y354610D01*
X412475Y354666D01*
X412432Y354717D01*
X412155Y355387D01*
X412119Y355454D01*
X412073Y355560D01*
X411694Y356275D01*
X411688Y356307D01*
X411641Y356421D01*
X411603Y356538D01*
X411564Y356606D01*
X411534Y356679D01*
X411465Y356781D01*
X411405Y356889D01*
X411354Y356948D01*
X411310Y357013D01*
X411222Y357100D01*
X411142Y357194D01*
X411080Y357241D01*
X411024Y357297D01*
X410921Y357365D01*
X410823Y357440D01*
X410753Y357475D01*
X410688Y357518D01*
X410574Y357565D01*
X410463Y357620D01*
X410387Y357640D01*
X410315Y357669D01*
X410194Y357692D01*
X410074Y357724D01*
X409983Y357732D01*
X409919Y357744D01*
X409848Y357743D01*
X409743Y357751D01*
X408187Y357751D01*
X406401Y359537D01*
X406401Y377063D01*
X408187Y378849D01*
X423713Y378849D01*
X424417Y378144D01*
X424537Y378046D01*
X424653Y377942D01*
X424693Y377918D01*
X424729Y377889D01*
X424866Y377816D01*
X425000Y377737D01*
X425044Y377722D01*
X425085Y377700D01*
X425233Y377656D01*
X425380Y377605D01*
X425426Y377599D01*
X425471Y377586D01*
X425625Y377572D01*
X425779Y377550D01*
X425825Y377553D01*
X425872Y377549D01*
X426026Y377566D01*
X426180Y377576D01*
X426225Y377588D01*
X426272Y377593D01*
X426420Y377639D01*
X426569Y377679D01*
X426617Y377702D01*
X426656Y377714D01*
X426732Y377756D01*
X426869Y377821D01*
X427469Y378168D01*
X428115Y378341D01*
X431701Y378341D01*
X431701Y369518D01*
X431702Y369500D01*
X431701Y369483D01*
X431722Y369300D01*
X431741Y369118D01*
X431746Y369101D01*
X431748Y369083D01*
X431805Y368908D01*
X431859Y368733D01*
X431867Y368717D01*
X431873Y368700D01*
X431963Y368540D01*
X432050Y368379D01*
X432062Y368365D01*
X432071Y368349D01*
X432116Y368297D01*
X432031Y368192D01*
X432023Y368176D01*
X432012Y368162D01*
X431930Y367997D01*
X431845Y367834D01*
X431840Y367817D01*
X431832Y367801D01*
X431784Y367623D01*
X431734Y367448D01*
X431732Y367430D01*
X431728Y367413D01*
X431701Y367082D01*
X431701Y358259D01*
X428889Y358259D01*
X428880Y358258D01*
X428871Y358259D01*
X428681Y358239D01*
X428488Y358219D01*
X428480Y358217D01*
X428471Y358216D01*
X428288Y358158D01*
X428104Y358101D01*
X428096Y358097D01*
X428087Y358094D01*
X427919Y358001D01*
X427749Y357909D01*
X427743Y357904D01*
X427735Y357899D01*
X427587Y357774D01*
X427440Y357652D01*
X427435Y357645D01*
X427428Y357639D01*
X427308Y357487D01*
X427188Y357338D01*
X427184Y357330D01*
X427178Y357323D01*
X427090Y357150D01*
X427002Y356981D01*
X427000Y356972D01*
X426996Y356964D01*
X426944Y356779D01*
X426891Y356594D01*
X426890Y356585D01*
X426888Y356576D01*
X426874Y356384D01*
X426858Y356192D01*
X426859Y356184D01*
X426858Y356175D01*
X426883Y355983D01*
X426905Y355793D01*
X426908Y355784D01*
X426909Y355775D01*
X426970Y355593D01*
X427030Y355410D01*
X427034Y355402D01*
X427037Y355394D01*
X427133Y355226D01*
X427228Y355059D01*
X427234Y355052D01*
X427238Y355045D01*
X427453Y354792D01*
X428186Y354058D01*
X429973Y352272D01*
X430819Y350228D01*
X430825Y350174D01*
X430849Y350096D01*
X430863Y350015D01*
X430908Y349904D01*
X430943Y349789D01*
X430982Y349717D01*
X431012Y349641D01*
X431078Y349540D01*
X431135Y349435D01*
X431187Y349372D01*
X431232Y349303D01*
X431316Y349218D01*
X431392Y349126D01*
X431456Y349075D01*
X431514Y349016D01*
X431613Y348949D01*
X431706Y348874D01*
X431779Y348836D01*
X431847Y348790D01*
X431957Y348743D01*
X432063Y348688D01*
X432142Y348666D01*
X432218Y348634D01*
X432335Y348610D01*
X432450Y348577D01*
X432532Y348570D01*
X432613Y348554D01*
X432732Y348554D01*
X432852Y348544D01*
X432933Y348554D01*
X433015Y348553D01*
X433165Y348581D01*
X433251Y348591D01*
X433290Y348603D01*
X433342Y348613D01*
X434006Y348791D01*
X436119Y348791D01*
X436119Y339900D01*
X436119Y331009D01*
X434006Y331009D01*
X433342Y331187D01*
X433261Y331200D01*
X433182Y331223D01*
X433062Y331233D01*
X432944Y331252D01*
X432862Y331249D01*
X432780Y331256D01*
X432662Y331242D01*
X432542Y331238D01*
X432462Y331219D01*
X432381Y331209D01*
X432267Y331172D01*
X432150Y331144D01*
X432076Y331110D01*
X431998Y331084D01*
X431894Y331025D01*
X431785Y330975D01*
X431719Y330927D01*
X431647Y330886D01*
X431557Y330808D01*
X431460Y330738D01*
X431405Y330677D01*
X431342Y330623D01*
X431269Y330529D01*
X431188Y330440D01*
X431146Y330370D01*
X431096Y330305D01*
X431042Y330198D01*
X430981Y330096D01*
X430953Y330018D01*
X430916Y329945D01*
X430885Y329829D01*
X430845Y329716D01*
X430833Y329635D01*
X430812Y329556D01*
X430799Y329404D01*
X430787Y329318D01*
X430789Y329278D01*
X430785Y329225D01*
X430785Y312166D01*
X430787Y312148D01*
X430785Y312130D01*
X430806Y311948D01*
X430825Y311765D01*
X430830Y311748D01*
X430832Y311731D01*
X430889Y311556D01*
X430943Y311380D01*
X430951Y311365D01*
X430957Y311348D01*
X431047Y311188D01*
X431135Y311026D01*
X431146Y311013D01*
X431155Y310997D01*
X431275Y310858D01*
X431392Y310717D01*
X431406Y310706D01*
X431418Y310692D01*
X431563Y310580D01*
X431706Y310465D01*
X431722Y310457D01*
X431736Y310446D01*
X431901Y310364D01*
X432063Y310279D01*
X432080Y310274D01*
X432096Y310266D01*
X432275Y310219D01*
X432450Y310168D01*
X432468Y310166D01*
X432485Y310162D01*
X432816Y310135D01*
X458261Y310135D01*
X460222Y309323D01*
X461723Y307822D01*
X462076Y306969D01*
X462091Y306941D01*
X462101Y306912D01*
X462186Y306764D01*
X462266Y306614D01*
X462286Y306590D01*
X462302Y306563D01*
X462516Y306310D01*
X478878Y289948D01*
X478885Y289943D01*
X478890Y289936D01*
X479040Y289815D01*
X479189Y289693D01*
X479197Y289689D01*
X479204Y289683D01*
X479375Y289595D01*
X479545Y289505D01*
X479553Y289502D01*
X479561Y289498D01*
X479747Y289445D01*
X479931Y289390D01*
X479940Y289389D01*
X479948Y289387D01*
X480140Y289371D01*
X480332Y289353D01*
X480341Y289354D01*
X480350Y289354D01*
X480539Y289376D01*
X480732Y289397D01*
X480741Y289400D01*
X480749Y289401D01*
X480931Y289460D01*
X481116Y289518D01*
X481124Y289523D01*
X481132Y289525D01*
X481301Y289620D01*
X481468Y289713D01*
X481475Y289719D01*
X481483Y289723D01*
X481629Y289849D01*
X481775Y289974D01*
X481781Y289981D01*
X481788Y289986D01*
X481905Y290138D01*
X482025Y290290D01*
X482029Y290298D01*
X482034Y290305D01*
X482120Y290477D01*
X482207Y290649D01*
X482210Y290657D01*
X482214Y290665D01*
X482264Y290852D01*
X482315Y291036D01*
X482316Y291045D01*
X482318Y291054D01*
X482345Y291385D01*
X482345Y303930D01*
X482344Y303943D01*
X482345Y303957D01*
X482324Y304143D01*
X482305Y304331D01*
X482301Y304343D01*
X482300Y304357D01*
X482242Y304536D01*
X482187Y304715D01*
X482181Y304727D01*
X482177Y304740D01*
X482085Y304905D01*
X481995Y305069D01*
X481987Y305080D01*
X481980Y305091D01*
X481858Y305234D01*
X481738Y305379D01*
X481727Y305387D01*
X481719Y305397D01*
X481571Y305513D01*
X481424Y305631D01*
X481412Y305637D01*
X481402Y305646D01*
X481233Y305730D01*
X481067Y305817D01*
X481054Y305820D01*
X481042Y305826D01*
X480861Y305876D01*
X480680Y305928D01*
X480666Y305929D01*
X480653Y305933D01*
X480465Y305946D01*
X480278Y305961D01*
X480265Y305959D01*
X480252Y305960D01*
X480064Y305936D01*
X479879Y305914D01*
X479866Y305910D01*
X479853Y305908D01*
X479537Y305807D01*
X477105Y304799D01*
X473871Y304799D01*
X470883Y306037D01*
X468597Y308323D01*
X467359Y311311D01*
X467359Y314545D01*
X468597Y317533D01*
X470066Y319002D01*
X470083Y319023D01*
X470104Y319040D01*
X470211Y319178D01*
X470321Y319314D01*
X470334Y319337D01*
X470350Y319358D01*
X470428Y319515D01*
X470510Y319669D01*
X470518Y319695D01*
X470530Y319719D01*
X470575Y319888D01*
X470625Y320055D01*
X470627Y320082D01*
X470634Y320108D01*
X470661Y320438D01*
X470661Y328470D01*
X470659Y328488D01*
X470661Y328506D01*
X470640Y328688D01*
X470621Y328871D01*
X470616Y328888D01*
X470614Y328905D01*
X470557Y329080D01*
X470503Y329256D01*
X470495Y329271D01*
X470489Y329288D01*
X470399Y329448D01*
X470311Y329610D01*
X470300Y329623D01*
X470291Y329639D01*
X470171Y329778D01*
X470054Y329919D01*
X470040Y329930D01*
X470028Y329944D01*
X469884Y330056D01*
X469740Y330171D01*
X469724Y330179D01*
X469710Y330190D01*
X469545Y330272D01*
X469383Y330357D01*
X469366Y330362D01*
X469350Y330370D01*
X469171Y330417D01*
X468996Y330468D01*
X468978Y330470D01*
X468961Y330474D01*
X468630Y330501D01*
X458442Y330501D01*
X458325Y330597D01*
X458309Y330606D01*
X458295Y330617D01*
X458131Y330700D01*
X457969Y330786D01*
X457952Y330791D01*
X457936Y330799D01*
X457759Y330848D01*
X457583Y330901D01*
X457565Y330902D01*
X457548Y330907D01*
X457365Y330920D01*
X457182Y330937D01*
X457164Y330935D01*
X457147Y330936D01*
X456965Y330913D01*
X456782Y330894D01*
X456765Y330888D01*
X456747Y330886D01*
X456574Y330828D01*
X456398Y330772D01*
X456382Y330763D01*
X456365Y330758D01*
X456206Y330666D01*
X456046Y330577D01*
X456032Y330566D01*
X456017Y330557D01*
X455951Y330501D01*
X445777Y330501D01*
X445409Y330869D01*
X445289Y330967D01*
X445174Y331071D01*
X445134Y331095D01*
X445098Y331124D01*
X444961Y331197D01*
X444827Y331276D01*
X444783Y331291D01*
X444742Y331313D01*
X444593Y331357D01*
X444447Y331408D01*
X444401Y331414D01*
X444356Y331428D01*
X444202Y331442D01*
X444048Y331463D01*
X444002Y331460D01*
X443955Y331464D01*
X443801Y331447D01*
X443646Y331438D01*
X443601Y331426D01*
X443555Y331421D01*
X443407Y331374D01*
X443257Y331334D01*
X443210Y331311D01*
X443171Y331299D01*
X443095Y331257D01*
X442957Y331192D01*
X442941Y331182D01*
X442295Y331009D01*
X440181Y331009D01*
X440181Y339900D01*
X440181Y348791D01*
X442295Y348791D01*
X442941Y348618D01*
X442957Y348608D01*
X443099Y348544D01*
X443237Y348474D01*
X443282Y348461D01*
X443324Y348442D01*
X443475Y348408D01*
X443625Y348366D01*
X443671Y348363D01*
X443717Y348352D01*
X443871Y348348D01*
X444026Y348337D01*
X444073Y348342D01*
X444119Y348341D01*
X444272Y348368D01*
X444426Y348387D01*
X444470Y348402D01*
X444516Y348410D01*
X444660Y348466D01*
X444807Y348515D01*
X444848Y348538D01*
X444891Y348555D01*
X445022Y348639D01*
X445156Y348716D01*
X445196Y348750D01*
X445231Y348772D01*
X445293Y348832D01*
X445409Y348931D01*
X445428Y348950D01*
X445445Y348971D01*
X445466Y348988D01*
X445497Y349029D01*
X445520Y349051D01*
X445569Y349121D01*
X445573Y349126D01*
X445683Y349261D01*
X445696Y349285D01*
X445712Y349306D01*
X445790Y349463D01*
X445872Y349617D01*
X445880Y349643D01*
X445892Y349667D01*
X445937Y349836D01*
X445987Y350003D01*
X445989Y350030D01*
X445996Y350055D01*
X446005Y350167D01*
X446758Y351984D01*
X470828Y376054D01*
X470845Y376075D01*
X470866Y376093D01*
X470973Y376230D01*
X471083Y376366D01*
X471096Y376390D01*
X471112Y376411D01*
X471190Y376568D01*
X471272Y376722D01*
X471280Y376747D01*
X471292Y376771D01*
X471337Y376941D01*
X471387Y377107D01*
X471389Y377134D01*
X471396Y377160D01*
X471423Y377491D01*
X471423Y385064D01*
X471421Y385082D01*
X471423Y385100D01*
X471402Y385282D01*
X471383Y385465D01*
X471378Y385482D01*
X471376Y385499D01*
X471319Y385674D01*
X471265Y385850D01*
X471257Y385865D01*
X471251Y385882D01*
X471161Y386042D01*
X471073Y386204D01*
X471062Y386217D01*
X471053Y386233D01*
X470933Y386372D01*
X470816Y386513D01*
X470802Y386524D01*
X470790Y386538D01*
X470645Y386650D01*
X470502Y386765D01*
X470486Y386773D01*
X470472Y386784D01*
X470307Y386866D01*
X470145Y386951D01*
X470128Y386956D01*
X470112Y386964D01*
X469933Y387011D01*
X469758Y387062D01*
X469740Y387064D01*
X469723Y387068D01*
X469392Y387095D01*
X466097Y387095D01*
X464311Y388881D01*
X464311Y407663D01*
X466097Y409449D01*
X484879Y409449D01*
X486665Y407663D01*
X486665Y404759D01*
X486666Y404750D01*
X486665Y404741D01*
X486686Y404548D01*
X486705Y404358D01*
X486707Y404350D01*
X486708Y404341D01*
X486766Y404157D01*
X486823Y403973D01*
X486827Y403965D01*
X486830Y403957D01*
X486923Y403788D01*
X487015Y403619D01*
X487020Y403612D01*
X487025Y403605D01*
X487149Y403458D01*
X487272Y403310D01*
X487279Y403304D01*
X487285Y403298D01*
X487436Y403179D01*
X487586Y403058D01*
X487594Y403054D01*
X487601Y403048D01*
X487774Y402960D01*
X487943Y402872D01*
X487952Y402870D01*
X487960Y402866D01*
X488146Y402814D01*
X488330Y402761D01*
X488339Y402760D01*
X488348Y402758D01*
X488541Y402744D01*
X488732Y402728D01*
X488740Y402729D01*
X488749Y402728D01*
X488942Y402753D01*
X489131Y402775D01*
X489140Y402778D01*
X489149Y402779D01*
X489331Y402840D01*
X489514Y402900D01*
X489522Y402904D01*
X489530Y402907D01*
X489697Y403003D01*
X489865Y403098D01*
X489872Y403103D01*
X489879Y403108D01*
X490132Y403323D01*
X496258Y409449D01*
X505518Y409449D01*
X512511Y402455D01*
X512525Y402444D01*
X512536Y402430D01*
X512680Y402317D01*
X512822Y402200D01*
X512838Y402192D01*
X512852Y402181D01*
X513016Y402098D01*
X513178Y402012D01*
X513195Y402007D01*
X513211Y401998D01*
X513388Y401949D01*
X513564Y401897D01*
X513582Y401895D01*
X513599Y401890D01*
X513782Y401877D01*
X513965Y401860D01*
X513983Y401862D01*
X514001Y401861D01*
X514182Y401884D01*
X514365Y401904D01*
X514382Y401909D01*
X514400Y401912D01*
X514573Y401970D01*
X514749Y402025D01*
X514765Y402034D01*
X514782Y402040D01*
X514941Y402132D01*
X515101Y402220D01*
X515115Y402232D01*
X515131Y402241D01*
X515384Y402455D01*
X521869Y408941D01*
X523749Y408941D01*
X523749Y398780D01*
X523750Y398762D01*
X523749Y398745D01*
X523770Y398562D01*
X523789Y398380D01*
X523794Y398363D01*
X523796Y398345D01*
X523821Y398267D01*
X523782Y398130D01*
X523780Y398112D01*
X523776Y398095D01*
X523749Y397764D01*
X523749Y387603D01*
X521869Y387603D01*
X515384Y394089D01*
X515370Y394100D01*
X515358Y394114D01*
X515214Y394227D01*
X515072Y394344D01*
X515056Y394352D01*
X515042Y394363D01*
X514878Y394447D01*
X514716Y394532D01*
X514699Y394537D01*
X514683Y394546D01*
X514506Y394595D01*
X514330Y394647D01*
X514313Y394649D01*
X514295Y394654D01*
X514112Y394667D01*
X513929Y394684D01*
X513912Y394682D01*
X513894Y394683D01*
X513712Y394660D01*
X513529Y394640D01*
X513512Y394635D01*
X513494Y394632D01*
X513321Y394574D01*
X513145Y394519D01*
X513130Y394510D01*
X513113Y394504D01*
X512953Y394412D01*
X512793Y394324D01*
X512779Y394312D01*
X512764Y394303D01*
X512511Y394089D01*
X507072Y388649D01*
X507055Y388629D01*
X507034Y388611D01*
X506927Y388473D01*
X506817Y388338D01*
X506804Y388314D01*
X506788Y388293D01*
X506710Y388136D01*
X506628Y387982D01*
X506620Y387957D01*
X506608Y387933D01*
X506563Y387763D01*
X506513Y387596D01*
X506511Y387570D01*
X506504Y387544D01*
X506477Y387213D01*
X506477Y386390D01*
X505742Y384616D01*
X504098Y382972D01*
X473892Y352766D01*
X473887Y352759D01*
X473880Y352754D01*
X473759Y352604D01*
X473637Y352455D01*
X473633Y352447D01*
X473627Y352440D01*
X473539Y352269D01*
X473449Y352099D01*
X473446Y352091D01*
X473442Y352083D01*
X473388Y351895D01*
X473334Y351713D01*
X473333Y351704D01*
X473331Y351696D01*
X473315Y351504D01*
X473297Y351312D01*
X473298Y351303D01*
X473298Y351294D01*
X473320Y351104D01*
X473341Y350912D01*
X473344Y350903D01*
X473345Y350895D01*
X473404Y350713D01*
X473462Y350528D01*
X473467Y350520D01*
X473469Y350512D01*
X473565Y350342D01*
X473657Y350176D01*
X473663Y350169D01*
X473667Y350161D01*
X473794Y350015D01*
X473918Y349869D01*
X473925Y349863D01*
X473930Y349856D01*
X474083Y349738D01*
X474234Y349619D01*
X474242Y349615D01*
X474249Y349610D01*
X474421Y349524D01*
X474593Y349437D01*
X474601Y349434D01*
X474609Y349430D01*
X474796Y349380D01*
X474980Y349329D01*
X474989Y349328D01*
X474998Y349326D01*
X475329Y349299D01*
X481358Y349299D01*
X481475Y349203D01*
X481491Y349194D01*
X481505Y349183D01*
X481668Y349100D01*
X481831Y349014D01*
X481848Y349009D01*
X481864Y349001D01*
X482041Y348952D01*
X482217Y348899D01*
X482234Y348898D01*
X482252Y348893D01*
X482435Y348880D01*
X482618Y348863D01*
X482635Y348865D01*
X482653Y348864D01*
X482836Y348887D01*
X483018Y348906D01*
X483035Y348912D01*
X483053Y348914D01*
X483227Y348973D01*
X483402Y349028D01*
X483417Y349037D01*
X483434Y349042D01*
X483594Y349134D01*
X483754Y349223D01*
X483768Y349234D01*
X483783Y349243D01*
X483849Y349299D01*
X494023Y349299D01*
X495809Y347513D01*
X495809Y332287D01*
X494022Y330500D01*
X494012Y330499D01*
X493994Y330501D01*
X493812Y330480D01*
X493629Y330461D01*
X493612Y330456D01*
X493595Y330454D01*
X493420Y330397D01*
X493244Y330343D01*
X493229Y330335D01*
X493212Y330329D01*
X493052Y330239D01*
X492890Y330151D01*
X492877Y330140D01*
X492861Y330131D01*
X492722Y330011D01*
X492581Y329894D01*
X492570Y329880D01*
X492556Y329868D01*
X492444Y329723D01*
X492329Y329580D01*
X492321Y329564D01*
X492310Y329550D01*
X492228Y329385D01*
X492143Y329223D01*
X492138Y329206D01*
X492130Y329190D01*
X492083Y329011D01*
X492032Y328836D01*
X492030Y328818D01*
X492026Y328801D01*
X491999Y328470D01*
X491999Y306091D01*
X492000Y306078D01*
X491999Y306064D01*
X492020Y305878D01*
X492039Y305690D01*
X492043Y305677D01*
X492044Y305664D01*
X492102Y305485D01*
X492157Y305305D01*
X492163Y305294D01*
X492167Y305281D01*
X492259Y305116D01*
X492349Y304951D01*
X492357Y304941D01*
X492364Y304929D01*
X492486Y304787D01*
X492606Y304642D01*
X492617Y304634D01*
X492625Y304624D01*
X492773Y304508D01*
X492920Y304390D01*
X492932Y304384D01*
X492942Y304375D01*
X493111Y304291D01*
X493277Y304204D01*
X493290Y304201D01*
X493302Y304195D01*
X493483Y304145D01*
X493664Y304093D01*
X493678Y304092D01*
X493691Y304088D01*
X493879Y304075D01*
X494066Y304060D01*
X494079Y304062D01*
X494092Y304061D01*
X494280Y304085D01*
X494465Y304107D01*
X494478Y304111D01*
X494491Y304113D01*
X494807Y304214D01*
X496223Y304801D01*
X499457Y304801D01*
X502445Y303563D01*
X504731Y301277D01*
X505803Y298689D01*
X505814Y298669D01*
X505821Y298648D01*
X505909Y298492D01*
X505993Y298334D01*
X506008Y298317D01*
X506018Y298297D01*
X506135Y298162D01*
X506250Y298023D01*
X506267Y298009D01*
X506282Y297992D01*
X506423Y297883D01*
X506562Y297770D01*
X506582Y297759D01*
X506600Y297746D01*
X506760Y297666D01*
X506919Y297583D01*
X506940Y297576D01*
X506960Y297566D01*
X507134Y297520D01*
X507305Y297470D01*
X507327Y297468D01*
X507349Y297462D01*
X507680Y297435D01*
X511688Y297435D01*
X511706Y297437D01*
X511724Y297435D01*
X511906Y297456D01*
X512089Y297475D01*
X512106Y297480D01*
X512123Y297482D01*
X512298Y297539D01*
X512474Y297593D01*
X512489Y297601D01*
X512506Y297607D01*
X512666Y297697D01*
X512828Y297785D01*
X512841Y297796D01*
X512857Y297805D01*
X512996Y297925D01*
X513137Y298042D01*
X513148Y298056D01*
X513162Y298068D01*
X513274Y298213D01*
X513389Y298356D01*
X513397Y298372D01*
X513408Y298386D01*
X513490Y298551D01*
X513575Y298713D01*
X513580Y298730D01*
X513588Y298746D01*
X513635Y298925D01*
X513686Y299100D01*
X513688Y299118D01*
X513692Y299135D01*
X513719Y299466D01*
X513719Y304386D01*
X513777Y304460D01*
X513887Y304595D01*
X513900Y304619D01*
X513916Y304640D01*
X513994Y304797D01*
X514076Y304951D01*
X514084Y304977D01*
X514096Y305001D01*
X514141Y305170D01*
X514191Y305337D01*
X514193Y305364D01*
X514200Y305389D01*
X514227Y305720D01*
X514227Y306577D01*
X529268Y306577D01*
X544309Y306577D01*
X544309Y305720D01*
X544311Y305694D01*
X544309Y305667D01*
X544331Y305492D01*
X544349Y305320D01*
X544356Y305294D01*
X544360Y305267D01*
X544416Y305101D01*
X544467Y304935D01*
X544480Y304911D01*
X544488Y304886D01*
X544575Y304734D01*
X544659Y304581D01*
X544676Y304560D01*
X544689Y304537D01*
X544817Y304386D01*
X544817Y276236D01*
X544818Y276227D01*
X544817Y276218D01*
X544838Y276027D01*
X544857Y275835D01*
X544859Y275827D01*
X544860Y275818D01*
X544918Y275636D01*
X544975Y275451D01*
X544979Y275443D01*
X544982Y275434D01*
X545075Y275266D01*
X545167Y275097D01*
X545172Y275090D01*
X545177Y275082D01*
X545302Y274934D01*
X545424Y274787D01*
X545431Y274782D01*
X545437Y274775D01*
X545589Y274655D01*
X545738Y274535D01*
X545746Y274531D01*
X545753Y274525D01*
X545925Y274438D01*
X546095Y274349D01*
X546104Y274347D01*
X546112Y274343D01*
X546298Y274291D01*
X546482Y274238D01*
X546491Y274237D01*
X546500Y274235D01*
X546692Y274221D01*
X546884Y274205D01*
X546892Y274206D01*
X546901Y274206D01*
X547094Y274230D01*
X547283Y274252D01*
X547292Y274255D01*
X547301Y274256D01*
X547484Y274317D01*
X547666Y274377D01*
X547674Y274381D01*
X547682Y274384D01*
X547848Y274480D01*
X548017Y274575D01*
X548024Y274581D01*
X548031Y274585D01*
X548284Y274800D01*
X549992Y276508D01*
X552766Y277657D01*
X555770Y277657D01*
X558544Y276508D01*
X560668Y274384D01*
X561817Y271610D01*
X561817Y268606D01*
X560668Y265832D01*
X558544Y263708D01*
X555770Y262559D01*
X552766Y262559D01*
X549992Y263708D01*
X547868Y265832D01*
X546719Y268606D01*
X546719Y269844D01*
X546718Y269853D01*
X546719Y269862D01*
X546698Y270054D01*
X546679Y270244D01*
X546677Y270253D01*
X546676Y270262D01*
X546618Y270445D01*
X546561Y270629D01*
X546557Y270637D01*
X546554Y270646D01*
X546461Y270815D01*
X546369Y270983D01*
X546364Y270990D01*
X546359Y270998D01*
X546234Y271146D01*
X546112Y271293D01*
X546105Y271298D01*
X546099Y271305D01*
X545947Y271425D01*
X545798Y271545D01*
X545790Y271549D01*
X545783Y271555D01*
X545610Y271642D01*
X545441Y271731D01*
X545432Y271733D01*
X545424Y271737D01*
X545239Y271789D01*
X545054Y271842D01*
X545045Y271843D01*
X545036Y271845D01*
X544844Y271859D01*
X544652Y271875D01*
X544644Y271874D01*
X544635Y271874D01*
X544443Y271850D01*
X544253Y271828D01*
X544244Y271825D01*
X544235Y271824D01*
X544053Y271763D01*
X543870Y271703D01*
X543862Y271699D01*
X543854Y271696D01*
X543686Y271600D01*
X543519Y271505D01*
X543512Y271499D01*
X543505Y271495D01*
X543252Y271280D01*
X543031Y271059D01*
X515505Y271059D01*
X515378Y271186D01*
X515357Y271203D01*
X515340Y271224D01*
X515202Y271331D01*
X515067Y271441D01*
X515043Y271454D01*
X515022Y271470D01*
X514865Y271548D01*
X514711Y271630D01*
X514685Y271638D01*
X514661Y271650D01*
X514492Y271695D01*
X514325Y271745D01*
X514298Y271747D01*
X514273Y271754D01*
X513942Y271781D01*
X484432Y271781D01*
X482658Y272516D01*
X456304Y298870D01*
X456283Y298887D01*
X456265Y298908D01*
X456128Y299015D01*
X455992Y299125D01*
X455968Y299138D01*
X455947Y299154D01*
X455790Y299232D01*
X455636Y299314D01*
X455611Y299322D01*
X455587Y299334D01*
X455417Y299379D01*
X455251Y299429D01*
X455224Y299431D01*
X455198Y299438D01*
X454867Y299465D01*
X312700Y299465D01*
X312674Y299463D01*
X312647Y299465D01*
X312473Y299443D01*
X312300Y299425D01*
X312274Y299418D01*
X312248Y299414D01*
X312082Y299359D01*
X311915Y299307D01*
X311891Y299294D01*
X311866Y299286D01*
X311714Y299199D01*
X311561Y299115D01*
X311540Y299098D01*
X311517Y299085D01*
X311264Y298870D01*
X309764Y297370D01*
X306543Y296036D01*
X303057Y296036D01*
X299836Y297370D01*
X298336Y298870D01*
X298315Y298887D01*
X298298Y298908D01*
X298160Y299015D01*
X298024Y299125D01*
X298001Y299138D01*
X297980Y299154D01*
X297823Y299232D01*
X297669Y299314D01*
X297643Y299322D01*
X297619Y299334D01*
X297450Y299379D01*
X297283Y299429D01*
X297256Y299431D01*
X297230Y299438D01*
X296900Y299465D01*
X295654Y299465D01*
X295636Y299463D01*
X295618Y299465D01*
X295436Y299444D01*
X295253Y299425D01*
X295236Y299420D01*
X295219Y299418D01*
X295044Y299361D01*
X294868Y299307D01*
X294853Y299299D01*
X294836Y299293D01*
X294676Y299203D01*
X294514Y299115D01*
X294501Y299104D01*
X294485Y299095D01*
X294346Y298975D01*
X294205Y298858D01*
X294194Y298844D01*
X294180Y298832D01*
X294068Y298687D01*
X293953Y298544D01*
X293945Y298528D01*
X293934Y298514D01*
X293852Y298349D01*
X293767Y298187D01*
X293762Y298170D01*
X293754Y298154D01*
X293707Y297975D01*
X293656Y297800D01*
X293654Y297782D01*
X293650Y297765D01*
X293623Y297434D01*
X293623Y283210D01*
X293625Y283192D01*
X293623Y283174D01*
X293644Y282992D01*
X293663Y282809D01*
X293668Y282792D01*
X293670Y282775D01*
X293727Y282600D01*
X293781Y282424D01*
X293789Y282409D01*
X293795Y282392D01*
X293885Y282232D01*
X293973Y282070D01*
X293984Y282057D01*
X293993Y282041D01*
X294113Y281902D01*
X294230Y281761D01*
X294244Y281750D01*
X294256Y281736D01*
X294401Y281624D01*
X294544Y281509D01*
X294560Y281501D01*
X294574Y281490D01*
X294739Y281408D01*
X294901Y281323D01*
X294918Y281318D01*
X294934Y281310D01*
X295113Y281263D01*
X295288Y281212D01*
X295306Y281210D01*
X295323Y281206D01*
X295654Y281179D01*
X297895Y281179D01*
X297922Y281181D01*
X297949Y281179D01*
X298123Y281201D01*
X298296Y281219D01*
X298321Y281226D01*
X298348Y281230D01*
X298514Y281285D01*
X298681Y281337D01*
X298704Y281350D01*
X298730Y281358D01*
X298881Y281445D01*
X299035Y281529D01*
X299055Y281546D01*
X299079Y281559D01*
X299332Y281774D01*
X304606Y287048D01*
X306380Y287783D01*
X454604Y287783D01*
X456378Y287048D01*
X480342Y263084D01*
X481077Y261310D01*
X481077Y255730D01*
X481079Y255712D01*
X481077Y255694D01*
X481098Y255512D01*
X481117Y255329D01*
X481122Y255312D01*
X481124Y255295D01*
X481181Y255120D01*
X481235Y254944D01*
X481243Y254929D01*
X481249Y254912D01*
X481339Y254752D01*
X481427Y254590D01*
X481438Y254577D01*
X481447Y254561D01*
X481567Y254422D01*
X481684Y254281D01*
X481698Y254270D01*
X481710Y254256D01*
X481855Y254144D01*
X481998Y254029D01*
X482014Y254021D01*
X482028Y254010D01*
X482193Y253928D01*
X482355Y253843D01*
X482372Y253838D01*
X482388Y253830D01*
X482567Y253783D01*
X482742Y253732D01*
X482760Y253730D01*
X482777Y253726D01*
X483108Y253699D01*
X494023Y253699D01*
X495809Y251913D01*
X495809Y238506D01*
X495811Y238488D01*
X495809Y238470D01*
X495830Y238288D01*
X495849Y238105D01*
X495854Y238088D01*
X495856Y238071D01*
X495913Y237896D01*
X495967Y237720D01*
X495975Y237705D01*
X495981Y237688D01*
X496071Y237528D01*
X496159Y237366D01*
X496170Y237353D01*
X496179Y237337D01*
X496299Y237198D01*
X496416Y237057D01*
X496430Y237046D01*
X496442Y237032D01*
X496587Y236920D01*
X496730Y236805D01*
X496746Y236797D01*
X496760Y236786D01*
X496925Y236704D01*
X497087Y236619D01*
X497104Y236614D01*
X497120Y236606D01*
X497299Y236559D01*
X497474Y236508D01*
X497492Y236506D01*
X497509Y236502D01*
X497840Y236475D01*
X504896Y236475D01*
X506670Y235740D01*
X513362Y229048D01*
X514097Y227274D01*
X514097Y224280D01*
X514099Y224262D01*
X514097Y224244D01*
X514118Y224062D01*
X514137Y223879D01*
X514142Y223862D01*
X514144Y223845D01*
X514201Y223670D01*
X514255Y223494D01*
X514263Y223479D01*
X514269Y223462D01*
X514359Y223302D01*
X514447Y223140D01*
X514458Y223127D01*
X514467Y223111D01*
X514587Y222972D01*
X514704Y222831D01*
X514718Y222820D01*
X514730Y222806D01*
X514875Y222694D01*
X515018Y222579D01*
X515034Y222571D01*
X515048Y222560D01*
X515213Y222478D01*
X515375Y222393D01*
X515392Y222388D01*
X515408Y222380D01*
X515587Y222333D01*
X515762Y222282D01*
X515780Y222280D01*
X515797Y222276D01*
X516128Y222249D01*
X523113Y222249D01*
X524899Y220463D01*
X524899Y219558D01*
X524901Y219540D01*
X524899Y219522D01*
X524920Y219340D01*
X524939Y219157D01*
X524944Y219140D01*
X524946Y219123D01*
X525003Y218948D01*
X525057Y218772D01*
X525065Y218757D01*
X525071Y218740D01*
X525161Y218580D01*
X525249Y218418D01*
X525260Y218405D01*
X525269Y218389D01*
X525389Y218250D01*
X525506Y218109D01*
X525520Y218098D01*
X525532Y218084D01*
X525677Y217972D01*
X525820Y217857D01*
X525836Y217849D01*
X525850Y217838D01*
X526015Y217756D01*
X526177Y217671D01*
X526194Y217666D01*
X526210Y217658D01*
X526389Y217611D01*
X526564Y217560D01*
X526582Y217558D01*
X526599Y217554D01*
X526930Y217527D01*
X527170Y217527D01*
X527188Y217529D01*
X527206Y217527D01*
X527388Y217548D01*
X527571Y217567D01*
X527588Y217572D01*
X527605Y217574D01*
X527780Y217631D01*
X527956Y217685D01*
X527971Y217693D01*
X527988Y217699D01*
X528148Y217789D01*
X528310Y217877D01*
X528323Y217888D01*
X528339Y217897D01*
X528478Y218017D01*
X528619Y218134D01*
X528630Y218148D01*
X528644Y218160D01*
X528756Y218305D01*
X528871Y218448D01*
X528879Y218464D01*
X528890Y218478D01*
X528972Y218643D01*
X529057Y218805D01*
X529062Y218822D01*
X529070Y218838D01*
X529117Y219016D01*
X529168Y219192D01*
X529170Y219210D01*
X529174Y219227D01*
X529201Y219558D01*
X529201Y220463D01*
X530987Y222249D01*
X548513Y222249D01*
X550299Y220463D01*
X550299Y204937D01*
X549594Y204233D01*
X549496Y204113D01*
X549392Y203997D01*
X549368Y203957D01*
X549339Y203921D01*
X549266Y203784D01*
X549187Y203650D01*
X549172Y203606D01*
X549150Y203565D01*
X549106Y203416D01*
X549055Y203270D01*
X549049Y203224D01*
X549036Y203179D01*
X549022Y203025D01*
X549000Y202871D01*
X549003Y202825D01*
X548999Y202778D01*
X549016Y202624D01*
X549026Y202470D01*
X549038Y202425D01*
X549043Y202378D01*
X549089Y202230D01*
X549129Y202081D01*
X549152Y202033D01*
X549164Y201994D01*
X549206Y201918D01*
X549271Y201781D01*
X549618Y201181D01*
X549791Y200535D01*
X549791Y196949D01*
X540968Y196949D01*
X540950Y196947D01*
X540933Y196949D01*
X540750Y196928D01*
X540568Y196909D01*
X540551Y196904D01*
X540533Y196902D01*
X540358Y196845D01*
X540183Y196791D01*
X540167Y196783D01*
X540150Y196777D01*
X539990Y196687D01*
X539829Y196599D01*
X539815Y196588D01*
X539799Y196579D01*
X539747Y196534D01*
X539642Y196619D01*
X539626Y196627D01*
X539612Y196638D01*
X539447Y196720D01*
X539284Y196805D01*
X539267Y196810D01*
X539251Y196818D01*
X539073Y196865D01*
X538898Y196916D01*
X538880Y196918D01*
X538863Y196922D01*
X538532Y196949D01*
X529709Y196949D01*
X529709Y200535D01*
X529882Y201181D01*
X530229Y201781D01*
X530293Y201922D01*
X530363Y202060D01*
X530375Y202105D01*
X530395Y202147D01*
X530429Y202299D01*
X530471Y202448D01*
X530474Y202495D01*
X530485Y202540D01*
X530489Y202694D01*
X530500Y202850D01*
X530494Y202896D01*
X530496Y202942D01*
X530469Y203095D01*
X530450Y203249D01*
X530435Y203293D01*
X530427Y203339D01*
X530371Y203484D01*
X530322Y203631D01*
X530298Y203671D01*
X530281Y203714D01*
X530198Y203845D01*
X530121Y203980D01*
X530087Y204020D01*
X530065Y204054D01*
X530005Y204116D01*
X529906Y204233D01*
X529201Y204937D01*
X529201Y205842D01*
X529199Y205860D01*
X529201Y205878D01*
X529180Y206060D01*
X529161Y206243D01*
X529156Y206260D01*
X529154Y206277D01*
X529097Y206452D01*
X529043Y206628D01*
X529035Y206643D01*
X529029Y206660D01*
X528939Y206820D01*
X528851Y206982D01*
X528840Y206995D01*
X528831Y207011D01*
X528711Y207150D01*
X528594Y207291D01*
X528580Y207302D01*
X528568Y207316D01*
X528423Y207428D01*
X528280Y207543D01*
X528264Y207551D01*
X528250Y207562D01*
X528085Y207644D01*
X527923Y207729D01*
X527906Y207734D01*
X527890Y207742D01*
X527711Y207789D01*
X527536Y207840D01*
X527518Y207842D01*
X527501Y207846D01*
X527170Y207873D01*
X526930Y207873D01*
X526912Y207871D01*
X526894Y207873D01*
X526712Y207852D01*
X526529Y207833D01*
X526512Y207828D01*
X526495Y207826D01*
X526320Y207769D01*
X526144Y207715D01*
X526129Y207707D01*
X526112Y207701D01*
X525951Y207611D01*
X525790Y207523D01*
X525777Y207512D01*
X525761Y207503D01*
X525622Y207383D01*
X525481Y207266D01*
X525470Y207252D01*
X525456Y207240D01*
X525344Y207095D01*
X525229Y206952D01*
X525221Y206936D01*
X525210Y206922D01*
X525128Y206757D01*
X525043Y206595D01*
X525038Y206578D01*
X525030Y206562D01*
X524983Y206383D01*
X524932Y206208D01*
X524930Y206190D01*
X524926Y206173D01*
X524899Y205842D01*
X524899Y204937D01*
X524194Y204233D01*
X524096Y204113D01*
X523992Y203997D01*
X523968Y203957D01*
X523939Y203921D01*
X523866Y203784D01*
X523787Y203650D01*
X523772Y203606D01*
X523750Y203565D01*
X523706Y203416D01*
X523655Y203270D01*
X523649Y203224D01*
X523636Y203179D01*
X523622Y203025D01*
X523600Y202871D01*
X523603Y202825D01*
X523599Y202778D01*
X523616Y202624D01*
X523626Y202470D01*
X523638Y202425D01*
X523643Y202378D01*
X523689Y202230D01*
X523729Y202081D01*
X523752Y202033D01*
X523764Y201994D01*
X523806Y201918D01*
X523871Y201781D01*
X524218Y201181D01*
X524391Y200535D01*
X524391Y196949D01*
X515568Y196949D01*
X515550Y196947D01*
X515533Y196949D01*
X515350Y196928D01*
X515168Y196909D01*
X515151Y196904D01*
X515133Y196902D01*
X514958Y196845D01*
X514783Y196791D01*
X514767Y196783D01*
X514750Y196777D01*
X514590Y196687D01*
X514429Y196599D01*
X514415Y196588D01*
X514399Y196579D01*
X514347Y196534D01*
X514242Y196619D01*
X514226Y196627D01*
X514212Y196638D01*
X514047Y196720D01*
X513884Y196805D01*
X513867Y196810D01*
X513851Y196818D01*
X513673Y196865D01*
X513498Y196916D01*
X513480Y196918D01*
X513463Y196922D01*
X513132Y196949D01*
X504309Y196949D01*
X504309Y200535D01*
X504482Y201181D01*
X504829Y201781D01*
X504893Y201922D01*
X504963Y202060D01*
X504975Y202105D01*
X504995Y202147D01*
X505029Y202299D01*
X505071Y202448D01*
X505074Y202495D01*
X505085Y202540D01*
X505089Y202694D01*
X505100Y202850D01*
X505094Y202896D01*
X505096Y202942D01*
X505069Y203095D01*
X505050Y203249D01*
X505035Y203293D01*
X505027Y203339D01*
X504971Y203484D01*
X504922Y203631D01*
X504898Y203671D01*
X504881Y203714D01*
X504798Y203845D01*
X504721Y203980D01*
X504687Y204020D01*
X504665Y204054D01*
X504605Y204116D01*
X504506Y204233D01*
X503801Y204937D01*
X503801Y220463D01*
X503848Y220510D01*
X503865Y220531D01*
X503886Y220548D01*
X503992Y220686D01*
X504103Y220821D01*
X504116Y220845D01*
X504132Y220866D01*
X504210Y221022D01*
X504292Y221177D01*
X504300Y221203D01*
X504312Y221227D01*
X504357Y221395D01*
X504407Y221563D01*
X504409Y221590D01*
X504416Y221615D01*
X504443Y221946D01*
X504443Y223473D01*
X504441Y223500D01*
X504443Y223527D01*
X504421Y223701D01*
X504403Y223874D01*
X504396Y223899D01*
X504392Y223926D01*
X504337Y224092D01*
X504285Y224259D01*
X504272Y224282D01*
X504264Y224308D01*
X504177Y224459D01*
X504093Y224613D01*
X504076Y224633D01*
X504063Y224657D01*
X503848Y224910D01*
X502532Y226226D01*
X502511Y226243D01*
X502493Y226264D01*
X502356Y226371D01*
X502220Y226481D01*
X502196Y226494D01*
X502175Y226510D01*
X502018Y226588D01*
X501864Y226670D01*
X501839Y226678D01*
X501815Y226690D01*
X501645Y226735D01*
X501479Y226785D01*
X501452Y226787D01*
X501426Y226794D01*
X501095Y226821D01*
X490784Y226821D01*
X489010Y227556D01*
X484858Y231708D01*
X484051Y233657D01*
X484044Y233669D01*
X484040Y233682D01*
X483949Y233846D01*
X483861Y234012D01*
X483852Y234022D01*
X483845Y234034D01*
X483724Y234177D01*
X483604Y234322D01*
X483594Y234331D01*
X483585Y234341D01*
X483437Y234458D01*
X483291Y234576D01*
X483280Y234582D01*
X483269Y234591D01*
X483101Y234676D01*
X482935Y234763D01*
X482922Y234767D01*
X482910Y234773D01*
X482728Y234824D01*
X482549Y234876D01*
X482535Y234877D01*
X482522Y234881D01*
X482334Y234895D01*
X482147Y234911D01*
X482134Y234909D01*
X482121Y234910D01*
X482048Y234901D01*
X471142Y234901D01*
X471025Y234997D01*
X471009Y235006D01*
X470995Y235017D01*
X470832Y235100D01*
X470669Y235186D01*
X470652Y235191D01*
X470636Y235199D01*
X470459Y235248D01*
X470283Y235301D01*
X470266Y235302D01*
X470248Y235307D01*
X470065Y235320D01*
X469882Y235337D01*
X469865Y235335D01*
X469847Y235336D01*
X469664Y235313D01*
X469482Y235294D01*
X469465Y235288D01*
X469447Y235286D01*
X469273Y235227D01*
X469098Y235172D01*
X469083Y235163D01*
X469066Y235158D01*
X468906Y235066D01*
X468746Y234977D01*
X468732Y234966D01*
X468717Y234957D01*
X468651Y234901D01*
X458442Y234901D01*
X458325Y234997D01*
X458309Y235006D01*
X458295Y235017D01*
X458132Y235100D01*
X457969Y235186D01*
X457952Y235191D01*
X457936Y235199D01*
X457759Y235248D01*
X457583Y235301D01*
X457566Y235302D01*
X457548Y235307D01*
X457365Y235320D01*
X457182Y235337D01*
X457165Y235335D01*
X457147Y235336D01*
X456964Y235313D01*
X456782Y235294D01*
X456765Y235288D01*
X456747Y235286D01*
X456573Y235227D01*
X456398Y235172D01*
X456383Y235163D01*
X456366Y235158D01*
X456206Y235066D01*
X456046Y234977D01*
X456032Y234966D01*
X456017Y234957D01*
X455951Y234901D01*
X445008Y234901D01*
X444990Y234899D01*
X444972Y234901D01*
X444790Y234880D01*
X444607Y234861D01*
X444590Y234856D01*
X444573Y234854D01*
X444398Y234797D01*
X444222Y234743D01*
X444207Y234735D01*
X444190Y234729D01*
X444030Y234639D01*
X443868Y234551D01*
X443855Y234540D01*
X443839Y234531D01*
X443700Y234411D01*
X443559Y234294D01*
X443548Y234280D01*
X443534Y234268D01*
X443422Y234123D01*
X443307Y233980D01*
X443299Y233964D01*
X443288Y233950D01*
X443206Y233785D01*
X443121Y233623D01*
X443116Y233606D01*
X443108Y233590D01*
X443061Y233411D01*
X443010Y233236D01*
X443008Y233218D01*
X443004Y233201D01*
X442977Y232870D01*
X442977Y217932D01*
X442979Y217914D01*
X442977Y217896D01*
X442998Y217714D01*
X443017Y217531D01*
X443022Y217514D01*
X443024Y217497D01*
X443081Y217322D01*
X443135Y217146D01*
X443143Y217131D01*
X443149Y217114D01*
X443239Y216954D01*
X443327Y216792D01*
X443338Y216779D01*
X443347Y216763D01*
X443467Y216624D01*
X443584Y216483D01*
X443598Y216472D01*
X443610Y216458D01*
X443755Y216346D01*
X443898Y216231D01*
X443914Y216223D01*
X443928Y216212D01*
X444093Y216130D01*
X444255Y216045D01*
X444272Y216040D01*
X444288Y216032D01*
X444467Y215985D01*
X444642Y215934D01*
X444660Y215932D01*
X444677Y215928D01*
X445008Y215901D01*
X465383Y215901D01*
X465414Y215904D01*
X465445Y215902D01*
X465614Y215924D01*
X465783Y215941D01*
X465813Y215950D01*
X465844Y215954D01*
X466160Y216055D01*
X466400Y216155D01*
X476370Y216155D01*
X476388Y216157D01*
X476406Y216155D01*
X476588Y216176D01*
X476771Y216195D01*
X476788Y216200D01*
X476805Y216202D01*
X476980Y216259D01*
X477156Y216313D01*
X477171Y216321D01*
X477188Y216327D01*
X477348Y216417D01*
X477510Y216505D01*
X477523Y216516D01*
X477539Y216525D01*
X477678Y216645D01*
X477819Y216762D01*
X477830Y216776D01*
X477844Y216788D01*
X477956Y216933D01*
X478071Y217076D01*
X478079Y217092D01*
X478090Y217106D01*
X478172Y217271D01*
X478257Y217433D01*
X478262Y217450D01*
X478270Y217466D01*
X478317Y217645D01*
X478368Y217820D01*
X478370Y217838D01*
X478374Y217855D01*
X478401Y218186D01*
X478401Y220463D01*
X480187Y222249D01*
X497713Y222249D01*
X499499Y220463D01*
X499499Y204937D01*
X498794Y204233D01*
X498696Y204113D01*
X498592Y203997D01*
X498568Y203957D01*
X498539Y203921D01*
X498466Y203784D01*
X498387Y203650D01*
X498372Y203606D01*
X498350Y203565D01*
X498306Y203416D01*
X498255Y203270D01*
X498249Y203224D01*
X498236Y203179D01*
X498222Y203025D01*
X498200Y202871D01*
X498203Y202825D01*
X498199Y202778D01*
X498216Y202624D01*
X498226Y202470D01*
X498238Y202425D01*
X498243Y202378D01*
X498289Y202230D01*
X498329Y202081D01*
X498352Y202033D01*
X498364Y201994D01*
X498406Y201918D01*
X498471Y201781D01*
X498818Y201181D01*
X498991Y200535D01*
X498991Y196949D01*
X490168Y196949D01*
X490150Y196947D01*
X490133Y196949D01*
X489950Y196928D01*
X489768Y196909D01*
X489751Y196904D01*
X489733Y196902D01*
X489558Y196845D01*
X489383Y196791D01*
X489367Y196783D01*
X489350Y196777D01*
X489190Y196687D01*
X489029Y196599D01*
X489015Y196588D01*
X488999Y196579D01*
X488947Y196534D01*
X488842Y196619D01*
X488826Y196627D01*
X488812Y196638D01*
X488647Y196720D01*
X488484Y196805D01*
X488467Y196810D01*
X488451Y196818D01*
X488273Y196865D01*
X488098Y196916D01*
X488080Y196918D01*
X488063Y196922D01*
X487732Y196949D01*
X478909Y196949D01*
X478909Y200535D01*
X479082Y201181D01*
X479429Y201781D01*
X479493Y201922D01*
X479563Y202060D01*
X479575Y202105D01*
X479595Y202147D01*
X479629Y202299D01*
X479671Y202448D01*
X479674Y202495D01*
X479685Y202540D01*
X479689Y202694D01*
X479700Y202850D01*
X479694Y202896D01*
X479696Y202942D01*
X479669Y203095D01*
X479650Y203249D01*
X479635Y203293D01*
X479627Y203339D01*
X479571Y203484D01*
X479522Y203631D01*
X479498Y203671D01*
X479481Y203714D01*
X479398Y203845D01*
X479321Y203980D01*
X479287Y204020D01*
X479265Y204054D01*
X479205Y204116D01*
X479106Y204233D01*
X478316Y205023D01*
X478297Y205080D01*
X478243Y205256D01*
X478235Y205271D01*
X478229Y205288D01*
X478139Y205448D01*
X478051Y205610D01*
X478040Y205623D01*
X478031Y205639D01*
X477911Y205778D01*
X477794Y205919D01*
X477780Y205930D01*
X477768Y205944D01*
X477623Y206056D01*
X477480Y206171D01*
X477464Y206179D01*
X477450Y206190D01*
X477285Y206272D01*
X477123Y206357D01*
X477106Y206362D01*
X477090Y206370D01*
X476911Y206417D01*
X476736Y206468D01*
X476718Y206470D01*
X476701Y206474D01*
X476370Y206501D01*
X473710Y206501D01*
X473692Y206499D01*
X473674Y206501D01*
X473492Y206480D01*
X473309Y206461D01*
X473292Y206456D01*
X473275Y206454D01*
X473100Y206397D01*
X472924Y206343D01*
X472909Y206335D01*
X472892Y206329D01*
X472732Y206239D01*
X472570Y206151D01*
X472557Y206140D01*
X472541Y206131D01*
X472402Y206011D01*
X472261Y205894D01*
X472250Y205880D01*
X472236Y205868D01*
X472124Y205723D01*
X472009Y205580D01*
X472001Y205564D01*
X471990Y205550D01*
X471908Y205385D01*
X471823Y205223D01*
X471818Y205206D01*
X471810Y205190D01*
X471763Y205011D01*
X471712Y204836D01*
X471710Y204818D01*
X471706Y204801D01*
X471679Y204470D01*
X471679Y192285D01*
X469893Y190499D01*
X414027Y190499D01*
X412241Y192285D01*
X412241Y214115D01*
X414027Y215901D01*
X431292Y215901D01*
X431310Y215903D01*
X431328Y215901D01*
X431510Y215922D01*
X431693Y215941D01*
X431710Y215946D01*
X431727Y215948D01*
X431902Y216005D01*
X432078Y216059D01*
X432093Y216067D01*
X432110Y216073D01*
X432270Y216163D01*
X432432Y216251D01*
X432445Y216262D01*
X432461Y216271D01*
X432600Y216391D01*
X432741Y216508D01*
X432752Y216522D01*
X432766Y216534D01*
X432878Y216679D01*
X432993Y216822D01*
X433001Y216838D01*
X433012Y216852D01*
X433094Y217017D01*
X433179Y217179D01*
X433184Y217196D01*
X433192Y217212D01*
X433239Y217391D01*
X433290Y217566D01*
X433292Y217584D01*
X433296Y217601D01*
X433323Y217932D01*
X433323Y231133D01*
X433323Y231138D01*
X433323Y231143D01*
X433303Y231335D01*
X433283Y231534D01*
X433282Y231538D01*
X433281Y231543D01*
X433222Y231732D01*
X433165Y231919D01*
X433163Y231923D01*
X433162Y231927D01*
X433066Y232102D01*
X432973Y232273D01*
X432971Y232276D01*
X432968Y232280D01*
X432842Y232430D01*
X432716Y232582D01*
X432712Y232585D01*
X432709Y232589D01*
X432556Y232710D01*
X432402Y232834D01*
X432398Y232836D01*
X432394Y232839D01*
X432217Y232930D01*
X432045Y233020D01*
X432040Y233021D01*
X432036Y233023D01*
X431846Y233077D01*
X431658Y233131D01*
X431653Y233132D01*
X431648Y233133D01*
X431455Y233148D01*
X431256Y233164D01*
X431252Y233164D01*
X431247Y233164D01*
X431050Y233140D01*
X430857Y233117D01*
X430852Y233116D01*
X430847Y233115D01*
X430659Y233053D01*
X430474Y232992D01*
X430470Y232990D01*
X430465Y232989D01*
X430294Y232891D01*
X430123Y232794D01*
X430120Y232791D01*
X430116Y232789D01*
X429967Y232660D01*
X429819Y232531D01*
X429816Y232528D01*
X429812Y232524D01*
X429692Y232368D01*
X429684Y232358D01*
X429338Y232012D01*
X429318Y231987D01*
X429293Y231966D01*
X429087Y231706D01*
X428926Y231466D01*
X428692Y231311D01*
X428666Y231289D01*
X428636Y231271D01*
X428383Y231057D01*
X428184Y230858D01*
X427918Y230748D01*
X427889Y230733D01*
X427859Y230722D01*
X427568Y230561D01*
X390592Y205910D01*
X390565Y205889D01*
X390536Y205871D01*
X390283Y205657D01*
X390084Y205458D01*
X389818Y205348D01*
X389789Y205333D01*
X389759Y205322D01*
X389468Y205161D01*
X389229Y205001D01*
X388953Y204947D01*
X388920Y204937D01*
X388885Y204932D01*
X388570Y204831D01*
X388310Y204723D01*
X388022Y204723D01*
X387990Y204720D01*
X387957Y204722D01*
X387628Y204685D01*
X387345Y204629D01*
X387069Y204684D01*
X387035Y204687D01*
X387002Y204696D01*
X386671Y204723D01*
X377190Y204723D01*
X377172Y204721D01*
X377154Y204723D01*
X376972Y204702D01*
X376789Y204683D01*
X376772Y204678D01*
X376755Y204676D01*
X376580Y204619D01*
X376404Y204565D01*
X376389Y204557D01*
X376372Y204551D01*
X376212Y204461D01*
X376050Y204373D01*
X376037Y204362D01*
X376021Y204353D01*
X375882Y204233D01*
X375741Y204116D01*
X375730Y204102D01*
X375716Y204090D01*
X375604Y203945D01*
X375489Y203802D01*
X375481Y203786D01*
X375470Y203772D01*
X375388Y203607D01*
X375303Y203445D01*
X375298Y203428D01*
X375290Y203412D01*
X375243Y203233D01*
X375192Y203058D01*
X375190Y203040D01*
X375186Y203023D01*
X375159Y202692D01*
X375159Y192285D01*
X373373Y190499D01*
X317507Y190499D01*
X315721Y192285D01*
X315721Y204470D01*
X315719Y204488D01*
X315721Y204506D01*
X315700Y204688D01*
X315681Y204871D01*
X315676Y204888D01*
X315674Y204905D01*
X315617Y205080D01*
X315563Y205256D01*
X315555Y205271D01*
X315549Y205288D01*
X315459Y205448D01*
X315371Y205610D01*
X315360Y205623D01*
X315351Y205639D01*
X315231Y205778D01*
X315114Y205919D01*
X315100Y205930D01*
X315088Y205944D01*
X314943Y206056D01*
X314800Y206171D01*
X314784Y206179D01*
X314770Y206190D01*
X314605Y206272D01*
X314443Y206357D01*
X314426Y206362D01*
X314410Y206370D01*
X314231Y206417D01*
X314056Y206468D01*
X314038Y206470D01*
X314021Y206474D01*
X313690Y206501D01*
X311030Y206501D01*
X311012Y206499D01*
X310994Y206501D01*
X310812Y206480D01*
X310629Y206461D01*
X310612Y206456D01*
X310595Y206454D01*
X310420Y206397D01*
X310244Y206343D01*
X310229Y206335D01*
X310212Y206329D01*
X310052Y206239D01*
X309890Y206151D01*
X309877Y206140D01*
X309861Y206131D01*
X309722Y206011D01*
X309581Y205894D01*
X309570Y205880D01*
X309556Y205868D01*
X309444Y205723D01*
X309329Y205580D01*
X309321Y205564D01*
X309310Y205550D01*
X309228Y205385D01*
X309143Y205223D01*
X309138Y205206D01*
X309130Y205190D01*
X309086Y205024D01*
X308294Y204233D01*
X308196Y204113D01*
X308092Y203997D01*
X308068Y203957D01*
X308039Y203921D01*
X307966Y203784D01*
X307887Y203650D01*
X307872Y203606D01*
X307850Y203565D01*
X307806Y203416D01*
X307755Y203270D01*
X307749Y203224D01*
X307736Y203179D01*
X307722Y203025D01*
X307700Y202871D01*
X307703Y202825D01*
X307699Y202778D01*
X307716Y202624D01*
X307726Y202470D01*
X307738Y202425D01*
X307743Y202378D01*
X307789Y202230D01*
X307829Y202081D01*
X307852Y202033D01*
X307864Y201994D01*
X307906Y201918D01*
X307971Y201781D01*
X308318Y201181D01*
X308491Y200535D01*
X308491Y196949D01*
X299668Y196949D01*
X299650Y196947D01*
X299633Y196949D01*
X299450Y196928D01*
X299268Y196909D01*
X299251Y196904D01*
X299233Y196902D01*
X299058Y196845D01*
X298883Y196791D01*
X298867Y196783D01*
X298850Y196777D01*
X298690Y196687D01*
X298529Y196599D01*
X298515Y196588D01*
X298499Y196579D01*
X298447Y196534D01*
X298342Y196619D01*
X298326Y196627D01*
X298312Y196638D01*
X298147Y196720D01*
X297984Y196805D01*
X297967Y196810D01*
X297951Y196818D01*
X297773Y196865D01*
X297598Y196916D01*
X297580Y196918D01*
X297563Y196922D01*
X297232Y196949D01*
X288409Y196949D01*
X288409Y200535D01*
X288582Y201181D01*
X288929Y201781D01*
X288993Y201922D01*
X289063Y202060D01*
X289075Y202105D01*
X289095Y202147D01*
X289129Y202299D01*
X289171Y202448D01*
X289174Y202495D01*
X289185Y202540D01*
X289189Y202694D01*
X289200Y202850D01*
X289194Y202896D01*
X289196Y202942D01*
X289169Y203095D01*
X289150Y203249D01*
X289135Y203293D01*
X289127Y203339D01*
X289071Y203484D01*
X289022Y203631D01*
X288998Y203671D01*
X288981Y203714D01*
X288898Y203845D01*
X288821Y203980D01*
X288787Y204020D01*
X288765Y204054D01*
X288705Y204116D01*
X288606Y204233D01*
X287901Y204937D01*
X287901Y220463D01*
X289687Y222249D01*
X307363Y222249D01*
X307377Y222250D01*
X307390Y222249D01*
X307576Y222270D01*
X307764Y222289D01*
X307777Y222293D01*
X307790Y222294D01*
X307969Y222352D01*
X308149Y222407D01*
X308161Y222413D01*
X308174Y222417D01*
X308338Y222509D01*
X308503Y222599D01*
X308513Y222607D01*
X308525Y222614D01*
X308668Y222736D01*
X308812Y222856D01*
X308821Y222867D01*
X308831Y222875D01*
X308947Y223024D01*
X309065Y223170D01*
X309071Y223182D01*
X309079Y223192D01*
X309164Y223361D01*
X309250Y223527D01*
X309254Y223540D01*
X309260Y223552D01*
X309309Y223733D01*
X309362Y223914D01*
X309363Y223928D01*
X309366Y223941D01*
X309379Y224129D01*
X309394Y224316D01*
X309393Y224329D01*
X309394Y224342D01*
X309369Y224530D01*
X309348Y224715D01*
X309343Y224728D01*
X309342Y224741D01*
X309240Y225057D01*
X308863Y225967D01*
X308863Y229201D01*
X310101Y232189D01*
X312387Y234475D01*
X314591Y235388D01*
X315737Y235863D01*
X315757Y235873D01*
X315778Y235880D01*
X315934Y235968D01*
X316092Y236053D01*
X316109Y236067D01*
X316129Y236078D01*
X316264Y236195D01*
X316403Y236309D01*
X316417Y236327D01*
X316434Y236341D01*
X316543Y236483D01*
X316656Y236622D01*
X316667Y236642D01*
X316680Y236659D01*
X316760Y236820D01*
X316843Y236978D01*
X316850Y237000D01*
X316860Y237020D01*
X316906Y237193D01*
X316956Y237365D01*
X316958Y237387D01*
X316964Y237409D01*
X316991Y237739D01*
X316991Y251913D01*
X318428Y253350D01*
X318445Y253371D01*
X318466Y253388D01*
X318573Y253526D01*
X318683Y253661D01*
X318696Y253685D01*
X318712Y253706D01*
X318790Y253863D01*
X318872Y254017D01*
X318880Y254043D01*
X318892Y254067D01*
X318937Y254236D01*
X318987Y254403D01*
X318989Y254430D01*
X318996Y254455D01*
X319023Y254786D01*
X319023Y256006D01*
X319021Y256032D01*
X319023Y256059D01*
X319001Y256233D01*
X318983Y256406D01*
X318976Y256432D01*
X318972Y256458D01*
X318917Y256624D01*
X318865Y256791D01*
X318852Y256815D01*
X318844Y256840D01*
X318757Y256992D01*
X318673Y257145D01*
X318656Y257166D01*
X318643Y257189D01*
X318428Y257442D01*
X316420Y259450D01*
X315086Y262671D01*
X315086Y266157D01*
X316420Y269378D01*
X318886Y271844D01*
X322107Y273178D01*
X325593Y273178D01*
X328814Y271844D01*
X331280Y269378D01*
X332614Y266157D01*
X332614Y262671D01*
X331280Y259450D01*
X329272Y257442D01*
X329255Y257421D01*
X329234Y257404D01*
X329127Y257266D01*
X329017Y257130D01*
X329004Y257107D01*
X328988Y257086D01*
X328910Y256929D01*
X328828Y256775D01*
X328820Y256749D01*
X328808Y256725D01*
X328763Y256556D01*
X328713Y256389D01*
X328711Y256362D01*
X328704Y256336D01*
X328677Y256006D01*
X328677Y255730D01*
X328679Y255712D01*
X328677Y255694D01*
X328698Y255512D01*
X328717Y255329D01*
X328722Y255312D01*
X328724Y255295D01*
X328781Y255120D01*
X328835Y254944D01*
X328843Y254929D01*
X328849Y254912D01*
X328939Y254752D01*
X329027Y254590D01*
X329038Y254577D01*
X329047Y254561D01*
X329167Y254422D01*
X329284Y254281D01*
X329298Y254270D01*
X329310Y254256D01*
X329455Y254144D01*
X329598Y254029D01*
X329614Y254021D01*
X329628Y254010D01*
X329793Y253928D01*
X329955Y253843D01*
X329972Y253838D01*
X329988Y253830D01*
X330167Y253783D01*
X330342Y253732D01*
X330360Y253730D01*
X330377Y253726D01*
X330708Y253699D01*
X341658Y253699D01*
X341775Y253603D01*
X341791Y253594D01*
X341805Y253583D01*
X341968Y253500D01*
X342131Y253414D01*
X342148Y253409D01*
X342164Y253401D01*
X342341Y253352D01*
X342517Y253299D01*
X342534Y253298D01*
X342552Y253293D01*
X342735Y253280D01*
X342918Y253263D01*
X342935Y253265D01*
X342953Y253264D01*
X343136Y253287D01*
X343318Y253306D01*
X343335Y253312D01*
X343353Y253314D01*
X343527Y253373D01*
X343702Y253428D01*
X343717Y253437D01*
X343734Y253442D01*
X343894Y253534D01*
X344054Y253623D01*
X344068Y253634D01*
X344083Y253643D01*
X344149Y253699D01*
X354358Y253699D01*
X354475Y253603D01*
X354491Y253594D01*
X354505Y253583D01*
X354668Y253500D01*
X354831Y253414D01*
X354848Y253409D01*
X354864Y253401D01*
X355041Y253352D01*
X355217Y253299D01*
X355234Y253298D01*
X355252Y253293D01*
X355435Y253280D01*
X355618Y253263D01*
X355635Y253265D01*
X355653Y253264D01*
X355836Y253287D01*
X356018Y253306D01*
X356035Y253312D01*
X356053Y253314D01*
X356227Y253373D01*
X356402Y253428D01*
X356417Y253437D01*
X356434Y253442D01*
X356594Y253534D01*
X356754Y253623D01*
X356768Y253634D01*
X356783Y253643D01*
X356849Y253699D01*
X367058Y253699D01*
X367175Y253603D01*
X367191Y253594D01*
X367205Y253583D01*
X367368Y253500D01*
X367531Y253414D01*
X367548Y253409D01*
X367564Y253401D01*
X367741Y253352D01*
X367917Y253299D01*
X367934Y253298D01*
X367952Y253293D01*
X368135Y253280D01*
X368318Y253263D01*
X368335Y253265D01*
X368353Y253264D01*
X368536Y253287D01*
X368718Y253306D01*
X368735Y253312D01*
X368753Y253314D01*
X368927Y253373D01*
X369102Y253428D01*
X369117Y253437D01*
X369134Y253442D01*
X369294Y253534D01*
X369454Y253623D01*
X369468Y253634D01*
X369483Y253643D01*
X369549Y253699D01*
X379758Y253699D01*
X379875Y253603D01*
X379891Y253594D01*
X379905Y253583D01*
X380068Y253500D01*
X380231Y253414D01*
X380248Y253409D01*
X380264Y253401D01*
X380441Y253352D01*
X380617Y253299D01*
X380634Y253298D01*
X380652Y253293D01*
X380835Y253280D01*
X381018Y253263D01*
X381035Y253265D01*
X381053Y253264D01*
X381236Y253287D01*
X381418Y253306D01*
X381435Y253312D01*
X381453Y253314D01*
X381627Y253373D01*
X381802Y253428D01*
X381817Y253437D01*
X381834Y253442D01*
X381994Y253534D01*
X382154Y253623D01*
X382168Y253634D01*
X382183Y253643D01*
X382249Y253699D01*
X392458Y253699D01*
X392575Y253603D01*
X392591Y253594D01*
X392605Y253583D01*
X392768Y253500D01*
X392931Y253414D01*
X392948Y253409D01*
X392964Y253401D01*
X393141Y253352D01*
X393317Y253299D01*
X393334Y253298D01*
X393352Y253293D01*
X393535Y253280D01*
X393718Y253263D01*
X393735Y253265D01*
X393753Y253264D01*
X393936Y253287D01*
X394118Y253306D01*
X394135Y253312D01*
X394153Y253314D01*
X394327Y253373D01*
X394502Y253428D01*
X394517Y253437D01*
X394534Y253442D01*
X394694Y253534D01*
X394854Y253623D01*
X394868Y253634D01*
X394883Y253643D01*
X394949Y253699D01*
X405123Y253699D01*
X405491Y253331D01*
X405611Y253233D01*
X405726Y253129D01*
X405766Y253105D01*
X405802Y253076D01*
X405939Y253003D01*
X406073Y252924D01*
X406117Y252909D01*
X406158Y252887D01*
X406307Y252843D01*
X406453Y252792D01*
X406499Y252786D01*
X406544Y252772D01*
X406698Y252758D01*
X406852Y252737D01*
X406898Y252740D01*
X406945Y252736D01*
X407099Y252753D01*
X407254Y252762D01*
X407299Y252774D01*
X407345Y252779D01*
X407493Y252826D01*
X407643Y252866D01*
X407690Y252889D01*
X407729Y252901D01*
X407805Y252943D01*
X407943Y253008D01*
X407959Y253018D01*
X408605Y253191D01*
X410719Y253191D01*
X410719Y244300D01*
X410720Y244283D01*
X410719Y244265D01*
X410740Y244082D01*
X410758Y243900D01*
X410764Y243883D01*
X410766Y243865D01*
X410823Y243690D01*
X410877Y243515D01*
X410885Y243499D01*
X410891Y243482D01*
X410981Y243322D01*
X411068Y243161D01*
X411080Y243147D01*
X411089Y243132D01*
X411209Y242992D01*
X411326Y242852D01*
X411340Y242840D01*
X411352Y242827D01*
X411497Y242714D01*
X411640Y242599D01*
X411656Y242591D01*
X411670Y242580D01*
X411835Y242498D01*
X411997Y242414D01*
X412014Y242409D01*
X412030Y242401D01*
X412208Y242353D01*
X412384Y242302D01*
X412402Y242301D01*
X412419Y242296D01*
X412750Y242269D01*
X412768Y242271D01*
X412785Y242269D01*
X412786Y242269D01*
X412968Y242291D01*
X413151Y242309D01*
X413168Y242314D01*
X413186Y242316D01*
X413360Y242373D01*
X413536Y242427D01*
X413551Y242436D01*
X413568Y242441D01*
X413729Y242532D01*
X413890Y242619D01*
X413903Y242630D01*
X413919Y242639D01*
X414058Y242759D01*
X414199Y242877D01*
X414210Y242891D01*
X414224Y242902D01*
X414336Y243047D01*
X414451Y243190D01*
X414460Y243206D01*
X414470Y243220D01*
X414552Y243385D01*
X414637Y243548D01*
X414642Y243565D01*
X414650Y243581D01*
X414698Y243759D01*
X414748Y243935D01*
X414750Y243952D01*
X414754Y243970D01*
X414781Y244300D01*
X414781Y253191D01*
X416895Y253191D01*
X417541Y253018D01*
X417557Y253008D01*
X417699Y252944D01*
X417837Y252874D01*
X417882Y252861D01*
X417924Y252842D01*
X418075Y252808D01*
X418225Y252766D01*
X418271Y252763D01*
X418317Y252752D01*
X418471Y252748D01*
X418626Y252737D01*
X418673Y252742D01*
X418719Y252741D01*
X418872Y252768D01*
X419026Y252787D01*
X419070Y252802D01*
X419116Y252810D01*
X419260Y252866D01*
X419407Y252915D01*
X419448Y252938D01*
X419491Y252955D01*
X419622Y253039D01*
X419756Y253116D01*
X419796Y253150D01*
X419831Y253172D01*
X419893Y253232D01*
X420009Y253331D01*
X420377Y253699D01*
X430558Y253699D01*
X430675Y253603D01*
X430691Y253594D01*
X430705Y253583D01*
X430868Y253500D01*
X431031Y253414D01*
X431048Y253409D01*
X431064Y253401D01*
X431241Y253352D01*
X431417Y253299D01*
X431434Y253298D01*
X431452Y253293D01*
X431635Y253280D01*
X431818Y253263D01*
X431835Y253265D01*
X431853Y253264D01*
X432036Y253287D01*
X432218Y253306D01*
X432235Y253312D01*
X432253Y253314D01*
X432427Y253373D01*
X432602Y253428D01*
X432617Y253437D01*
X432634Y253442D01*
X432794Y253534D01*
X432954Y253623D01*
X432968Y253634D01*
X432983Y253643D01*
X433049Y253699D01*
X443258Y253699D01*
X443375Y253603D01*
X443391Y253594D01*
X443405Y253583D01*
X443568Y253500D01*
X443731Y253414D01*
X443748Y253409D01*
X443764Y253401D01*
X443941Y253352D01*
X444117Y253299D01*
X444134Y253298D01*
X444152Y253293D01*
X444335Y253280D01*
X444518Y253263D01*
X444535Y253265D01*
X444553Y253264D01*
X444736Y253287D01*
X444918Y253306D01*
X444935Y253312D01*
X444953Y253314D01*
X445127Y253373D01*
X445302Y253428D01*
X445317Y253437D01*
X445334Y253442D01*
X445494Y253534D01*
X445654Y253623D01*
X445668Y253634D01*
X445683Y253643D01*
X445749Y253699D01*
X455958Y253699D01*
X456075Y253603D01*
X456091Y253594D01*
X456105Y253583D01*
X456269Y253500D01*
X456431Y253414D01*
X456448Y253409D01*
X456464Y253401D01*
X456641Y253352D01*
X456817Y253299D01*
X456835Y253298D01*
X456852Y253293D01*
X457035Y253280D01*
X457218Y253263D01*
X457236Y253265D01*
X457253Y253264D01*
X457435Y253287D01*
X457618Y253306D01*
X457635Y253312D01*
X457653Y253314D01*
X457826Y253372D01*
X458002Y253428D01*
X458018Y253437D01*
X458035Y253442D01*
X458194Y253534D01*
X458354Y253623D01*
X458368Y253634D01*
X458383Y253643D01*
X458449Y253699D01*
X469392Y253699D01*
X469410Y253701D01*
X469428Y253699D01*
X469610Y253720D01*
X469793Y253739D01*
X469810Y253744D01*
X469827Y253746D01*
X470002Y253803D01*
X470178Y253857D01*
X470193Y253865D01*
X470210Y253871D01*
X470370Y253961D01*
X470532Y254049D01*
X470545Y254060D01*
X470561Y254069D01*
X470700Y254189D01*
X470841Y254306D01*
X470852Y254320D01*
X470866Y254332D01*
X470978Y254477D01*
X471093Y254620D01*
X471101Y254636D01*
X471112Y254650D01*
X471194Y254815D01*
X471279Y254977D01*
X471284Y254994D01*
X471292Y255010D01*
X471339Y255189D01*
X471390Y255364D01*
X471392Y255382D01*
X471396Y255399D01*
X471423Y255730D01*
X471423Y257509D01*
X471421Y257536D01*
X471423Y257563D01*
X471401Y257737D01*
X471383Y257910D01*
X471376Y257935D01*
X471372Y257962D01*
X471317Y258128D01*
X471265Y258295D01*
X471252Y258318D01*
X471244Y258344D01*
X471157Y258495D01*
X471073Y258649D01*
X471056Y258669D01*
X471043Y258693D01*
X470828Y258946D01*
X452240Y277534D01*
X452219Y277551D01*
X452201Y277572D01*
X452064Y277679D01*
X451928Y277789D01*
X451904Y277802D01*
X451883Y277818D01*
X451726Y277896D01*
X451572Y277978D01*
X451547Y277986D01*
X451523Y277998D01*
X451353Y278043D01*
X451187Y278093D01*
X451160Y278095D01*
X451134Y278102D01*
X450803Y278129D01*
X310181Y278129D01*
X310154Y278127D01*
X310127Y278129D01*
X309953Y278107D01*
X309780Y278089D01*
X309755Y278082D01*
X309728Y278078D01*
X309562Y278023D01*
X309395Y277971D01*
X309372Y277958D01*
X309346Y277950D01*
X309195Y277863D01*
X309041Y277779D01*
X309021Y277762D01*
X308997Y277749D01*
X308744Y277534D01*
X303470Y272260D01*
X301960Y271634D01*
X301696Y271525D01*
X295654Y271525D01*
X295636Y271523D01*
X295618Y271525D01*
X295436Y271504D01*
X295253Y271485D01*
X295236Y271480D01*
X295219Y271478D01*
X295044Y271421D01*
X294868Y271367D01*
X294853Y271359D01*
X294836Y271353D01*
X294676Y271263D01*
X294514Y271175D01*
X294501Y271164D01*
X294485Y271155D01*
X294346Y271035D01*
X294205Y270918D01*
X294194Y270904D01*
X294180Y270892D01*
X294068Y270747D01*
X293953Y270604D01*
X293945Y270588D01*
X293934Y270574D01*
X293852Y270409D01*
X293767Y270247D01*
X293762Y270230D01*
X293754Y270214D01*
X293707Y270035D01*
X293656Y269860D01*
X293654Y269842D01*
X293650Y269825D01*
X293623Y269494D01*
X293623Y269375D01*
X292062Y267814D01*
X292051Y267801D01*
X292037Y267789D01*
X291923Y267645D01*
X291807Y267503D01*
X291798Y267487D01*
X291787Y267473D01*
X291704Y267309D01*
X291618Y267147D01*
X291613Y267130D01*
X291605Y267114D01*
X291556Y266937D01*
X291503Y266761D01*
X291502Y266743D01*
X291497Y266726D01*
X291484Y266543D01*
X291467Y266360D01*
X291469Y266342D01*
X291468Y266325D01*
X291491Y266143D01*
X291510Y265960D01*
X291516Y265943D01*
X291518Y265925D01*
X291576Y265752D01*
X291632Y265576D01*
X291641Y265560D01*
X291646Y265544D01*
X291738Y265385D01*
X291827Y265224D01*
X291838Y265210D01*
X291847Y265195D01*
X292062Y264942D01*
X293901Y263103D01*
X293901Y246577D01*
X292115Y244791D01*
X285616Y244791D01*
X285607Y244790D01*
X285598Y244791D01*
X285406Y244770D01*
X285216Y244751D01*
X285207Y244749D01*
X285198Y244748D01*
X285015Y244690D01*
X284831Y244633D01*
X284823Y244629D01*
X284814Y244626D01*
X284645Y244533D01*
X284477Y244441D01*
X284470Y244436D01*
X284462Y244431D01*
X284314Y244306D01*
X284167Y244184D01*
X284162Y244177D01*
X284155Y244171D01*
X284035Y244019D01*
X283915Y243870D01*
X283911Y243862D01*
X283905Y243855D01*
X283818Y243682D01*
X283729Y243513D01*
X283727Y243504D01*
X283723Y243496D01*
X283671Y243311D01*
X283618Y243126D01*
X283617Y243117D01*
X283615Y243108D01*
X283601Y242916D01*
X283585Y242724D01*
X283586Y242716D01*
X283586Y242707D01*
X283610Y242515D01*
X283632Y242325D01*
X283635Y242316D01*
X283636Y242307D01*
X283697Y242125D01*
X283757Y241942D01*
X283761Y241934D01*
X283764Y241926D01*
X283860Y241758D01*
X283955Y241591D01*
X283961Y241584D01*
X283965Y241577D01*
X284180Y241324D01*
X284401Y241103D01*
X284401Y224577D01*
X282615Y222791D01*
X270089Y222791D01*
X268686Y224194D01*
X268665Y224211D01*
X268648Y224232D01*
X268510Y224339D01*
X268375Y224449D01*
X268351Y224462D01*
X268330Y224478D01*
X268173Y224556D01*
X268019Y224638D01*
X267993Y224646D01*
X267969Y224658D01*
X267800Y224703D01*
X267633Y224753D01*
X267606Y224755D01*
X267581Y224762D01*
X267250Y224789D01*
X258732Y224789D01*
X256211Y225833D01*
X248198Y233846D01*
X248177Y233863D01*
X248160Y233884D01*
X248022Y233991D01*
X247886Y234101D01*
X247863Y234114D01*
X247842Y234130D01*
X247685Y234208D01*
X247531Y234290D01*
X247505Y234298D01*
X247481Y234310D01*
X247312Y234355D01*
X247145Y234405D01*
X247118Y234407D01*
X247092Y234414D01*
X246762Y234441D01*
X234158Y234441D01*
X234132Y234439D01*
X234105Y234441D01*
X233931Y234419D01*
X233757Y234401D01*
X233732Y234394D01*
X233705Y234390D01*
X233540Y234335D01*
X233373Y234283D01*
X233349Y234270D01*
X233324Y234262D01*
X233172Y234175D01*
X233019Y234091D01*
X232998Y234074D01*
X232975Y234061D01*
X232722Y233846D01*
X230015Y231139D01*
X221597Y231139D01*
X215645Y237091D01*
X215645Y245509D01*
X221597Y251461D01*
X230015Y251461D01*
X232722Y248754D01*
X232742Y248737D01*
X232760Y248716D01*
X232898Y248609D01*
X233033Y248499D01*
X233057Y248486D01*
X233078Y248470D01*
X233235Y248392D01*
X233389Y248310D01*
X233414Y248302D01*
X233439Y248290D01*
X233608Y248245D01*
X233775Y248195D01*
X233801Y248193D01*
X233827Y248186D01*
X234158Y248159D01*
X251808Y248159D01*
X254329Y247115D01*
X255918Y245526D01*
X255974Y245480D01*
X256025Y245426D01*
X256130Y245352D01*
X256229Y245271D01*
X256294Y245237D01*
X256354Y245194D01*
X256471Y245143D01*
X256585Y245082D01*
X256655Y245062D01*
X256722Y245032D01*
X256848Y245004D01*
X256971Y244968D01*
X257044Y244961D01*
X257115Y244945D01*
X257244Y244943D01*
X257372Y244931D01*
X257445Y244939D01*
X257518Y244938D01*
X257644Y244961D01*
X257772Y244975D01*
X257842Y244997D01*
X257914Y245010D01*
X258033Y245057D01*
X258156Y245096D01*
X258220Y245132D01*
X258288Y245159D01*
X258396Y245229D01*
X258508Y245291D01*
X258564Y245338D01*
X258626Y245378D01*
X258717Y245468D01*
X258815Y245551D01*
X258861Y245609D01*
X258913Y245660D01*
X258985Y245767D01*
X259065Y245867D01*
X259098Y245933D01*
X259139Y245993D01*
X259189Y246112D01*
X259247Y246226D01*
X259267Y246297D01*
X259295Y246365D01*
X259321Y246490D01*
X259355Y246614D01*
X259360Y246687D01*
X259375Y246759D01*
X259375Y246888D01*
X259384Y247016D01*
X259375Y247089D01*
X259375Y247162D01*
X259345Y247329D01*
X259334Y247415D01*
X259323Y247447D01*
X259316Y247488D01*
X259311Y247506D01*
X259311Y252341D01*
X264353Y252341D01*
X264353Y245299D01*
X261518Y245299D01*
X261500Y245304D01*
X261428Y245316D01*
X261358Y245337D01*
X261230Y245348D01*
X261103Y245369D01*
X261030Y245366D01*
X260957Y245373D01*
X260829Y245359D01*
X260701Y245355D01*
X260629Y245338D01*
X260556Y245330D01*
X260434Y245291D01*
X260309Y245261D01*
X260242Y245230D01*
X260173Y245208D01*
X260060Y245146D01*
X259944Y245092D01*
X259884Y245049D01*
X259820Y245013D01*
X259722Y244930D01*
X259619Y244854D01*
X259569Y244800D01*
X259513Y244753D01*
X259434Y244652D01*
X259347Y244557D01*
X259309Y244494D01*
X259264Y244437D01*
X259205Y244322D01*
X259139Y244212D01*
X259114Y244143D01*
X259081Y244078D01*
X259047Y243954D01*
X259004Y243833D01*
X258993Y243761D01*
X258973Y243690D01*
X258964Y243562D01*
X258945Y243435D01*
X258949Y243362D01*
X258944Y243289D01*
X258960Y243161D01*
X258967Y243033D01*
X258985Y242962D01*
X258994Y242889D01*
X259035Y242768D01*
X259067Y242643D01*
X259099Y242577D01*
X259123Y242507D01*
X259187Y242396D01*
X259243Y242281D01*
X259287Y242222D01*
X259323Y242159D01*
X259433Y242029D01*
X259486Y241960D01*
X259511Y241938D01*
X259538Y241906D01*
X262342Y239102D01*
X262363Y239085D01*
X262380Y239064D01*
X262518Y238957D01*
X262654Y238847D01*
X262677Y238834D01*
X262698Y238818D01*
X262855Y238740D01*
X263009Y238658D01*
X263035Y238650D01*
X263059Y238638D01*
X263228Y238593D01*
X263395Y238543D01*
X263422Y238541D01*
X263448Y238534D01*
X263778Y238507D01*
X266272Y238507D01*
X266290Y238509D01*
X266308Y238507D01*
X266490Y238528D01*
X266673Y238547D01*
X266690Y238552D01*
X266707Y238554D01*
X266882Y238611D01*
X267058Y238665D01*
X267073Y238673D01*
X267090Y238679D01*
X267250Y238769D01*
X267412Y238857D01*
X267425Y238868D01*
X267441Y238877D01*
X267580Y238997D01*
X267721Y239114D01*
X267732Y239128D01*
X267746Y239140D01*
X267858Y239285D01*
X267973Y239428D01*
X267981Y239444D01*
X267992Y239458D01*
X268074Y239623D01*
X268159Y239785D01*
X268164Y239802D01*
X268172Y239818D01*
X268219Y239997D01*
X268270Y240172D01*
X268272Y240190D01*
X268276Y240207D01*
X268303Y240538D01*
X268303Y241103D01*
X269032Y241832D01*
X269038Y241839D01*
X269045Y241844D01*
X269166Y241995D01*
X269287Y242143D01*
X269291Y242151D01*
X269297Y242158D01*
X269385Y242328D01*
X269476Y242499D01*
X269478Y242507D01*
X269483Y242515D01*
X269536Y242700D01*
X269591Y242885D01*
X269591Y242894D01*
X269594Y242902D01*
X269610Y243093D01*
X269627Y243286D01*
X269626Y243295D01*
X269627Y243304D01*
X269605Y243493D01*
X269584Y243686D01*
X269581Y243695D01*
X269580Y243703D01*
X269521Y243885D01*
X269462Y244070D01*
X269458Y244078D01*
X269455Y244086D01*
X269361Y244253D01*
X269351Y244270D01*
X269351Y254372D01*
X269349Y254390D01*
X269351Y254407D01*
X269330Y254590D01*
X269311Y254772D01*
X269306Y254789D01*
X269304Y254807D01*
X269247Y254982D01*
X269193Y255157D01*
X269185Y255173D01*
X269179Y255190D01*
X269089Y255350D01*
X269001Y255511D01*
X268990Y255525D01*
X268981Y255541D01*
X268861Y255680D01*
X268744Y255821D01*
X268730Y255832D01*
X268718Y255845D01*
X268573Y255958D01*
X268430Y256073D01*
X268414Y256081D01*
X268400Y256092D01*
X268235Y256174D01*
X268208Y256188D01*
X268153Y256286D01*
X268065Y256448D01*
X268054Y256461D01*
X268045Y256477D01*
X267925Y256616D01*
X267807Y256757D01*
X267794Y256768D01*
X267782Y256782D01*
X267637Y256894D01*
X267494Y257009D01*
X267478Y257017D01*
X267464Y257028D01*
X267299Y257110D01*
X267136Y257195D01*
X267119Y257200D01*
X267103Y257208D01*
X266925Y257255D01*
X266750Y257306D01*
X266732Y257308D01*
X266715Y257312D01*
X266384Y257339D01*
X259311Y257339D01*
X259311Y262175D01*
X259484Y262821D01*
X259819Y263400D01*
X260335Y263917D01*
X260386Y263959D01*
X260490Y264034D01*
X260540Y264087D01*
X260597Y264134D01*
X260677Y264234D01*
X260765Y264328D01*
X260803Y264391D01*
X260849Y264448D01*
X260908Y264562D01*
X260975Y264671D01*
X261001Y264740D01*
X261034Y264805D01*
X261070Y264929D01*
X261114Y265049D01*
X261126Y265122D01*
X261146Y265192D01*
X261156Y265320D01*
X261176Y265447D01*
X261173Y265520D01*
X261179Y265594D01*
X261164Y265721D01*
X261158Y265849D01*
X261140Y265920D01*
X261132Y265993D01*
X261092Y266115D01*
X261061Y266240D01*
X261030Y266306D01*
X261007Y266376D01*
X260944Y266488D01*
X260889Y266604D01*
X260845Y266663D01*
X260809Y266727D01*
X260725Y266824D01*
X260649Y266927D01*
X260594Y266976D01*
X260546Y267032D01*
X260445Y267110D01*
X260349Y267196D01*
X260286Y267233D01*
X260228Y267278D01*
X260113Y267335D01*
X260002Y267401D01*
X259933Y267425D01*
X259867Y267458D01*
X259743Y267491D01*
X259622Y267533D01*
X259549Y267543D01*
X259479Y267562D01*
X259310Y267576D01*
X259223Y267588D01*
X259190Y267586D01*
X259148Y267589D01*
X257311Y267589D01*
X255525Y269375D01*
X255525Y283717D01*
X255524Y283726D01*
X255525Y283735D01*
X255504Y283927D01*
X255485Y284118D01*
X255483Y284126D01*
X255482Y284135D01*
X255424Y284317D01*
X255367Y284502D01*
X255363Y284510D01*
X255360Y284519D01*
X255267Y284687D01*
X255175Y284857D01*
X255170Y284863D01*
X255165Y284871D01*
X255040Y285019D01*
X254918Y285166D01*
X254911Y285171D01*
X254905Y285178D01*
X254753Y285298D01*
X254604Y285418D01*
X254596Y285422D01*
X254589Y285428D01*
X254417Y285515D01*
X254247Y285604D01*
X254238Y285606D01*
X254230Y285610D01*
X254044Y285662D01*
X253860Y285715D01*
X253851Y285716D01*
X253842Y285718D01*
X253650Y285732D01*
X253458Y285748D01*
X253450Y285747D01*
X253441Y285748D01*
X253248Y285723D01*
X253059Y285701D01*
X253050Y285698D01*
X253041Y285697D01*
X252858Y285636D01*
X252676Y285576D01*
X252668Y285572D01*
X252660Y285569D01*
X252494Y285474D01*
X252325Y285378D01*
X252318Y285372D01*
X252311Y285368D01*
X252058Y285153D01*
X249770Y282865D01*
X249753Y282844D01*
X249732Y282827D01*
X249626Y282689D01*
X249515Y282554D01*
X249502Y282530D01*
X249486Y282509D01*
X249408Y282353D01*
X249326Y282198D01*
X249318Y282172D01*
X249306Y282148D01*
X249261Y281979D01*
X249211Y281812D01*
X249209Y281785D01*
X249202Y281760D01*
X249175Y281429D01*
X249175Y269195D01*
X248363Y267234D01*
X242798Y261669D01*
X240837Y260857D01*
X235174Y260857D01*
X235148Y260855D01*
X235121Y260857D01*
X234947Y260835D01*
X234773Y260817D01*
X234748Y260810D01*
X234721Y260806D01*
X234556Y260751D01*
X234389Y260699D01*
X234365Y260686D01*
X234340Y260678D01*
X234188Y260591D01*
X234035Y260507D01*
X234014Y260490D01*
X233991Y260477D01*
X233738Y260262D01*
X230015Y256539D01*
X221597Y256539D01*
X215645Y262491D01*
X215645Y270909D01*
X221597Y276861D01*
X230015Y276861D01*
X234754Y272122D01*
X234774Y272105D01*
X234792Y272084D01*
X234930Y271977D01*
X235065Y271867D01*
X235089Y271854D01*
X235110Y271838D01*
X235267Y271760D01*
X235421Y271678D01*
X235446Y271670D01*
X235471Y271658D01*
X235640Y271613D01*
X235807Y271563D01*
X235833Y271561D01*
X235859Y271554D01*
X236190Y271527D01*
X236474Y271527D01*
X236492Y271529D01*
X236510Y271527D01*
X236692Y271548D01*
X236875Y271567D01*
X236892Y271572D01*
X236909Y271574D01*
X237084Y271631D01*
X237260Y271685D01*
X237275Y271693D01*
X237292Y271699D01*
X237452Y271789D01*
X237614Y271877D01*
X237627Y271888D01*
X237643Y271897D01*
X237782Y272017D01*
X237923Y272134D01*
X237934Y272148D01*
X237948Y272160D01*
X238060Y272305D01*
X238175Y272448D01*
X238183Y272464D01*
X238194Y272478D01*
X238276Y272643D01*
X238361Y272805D01*
X238366Y272822D01*
X238374Y272838D01*
X238421Y273017D01*
X238472Y273192D01*
X238474Y273210D01*
X238478Y273227D01*
X238505Y273558D01*
X238505Y285541D01*
X239317Y287502D01*
X254930Y303115D01*
X254947Y303136D01*
X254968Y303153D01*
X255075Y303291D01*
X255185Y303426D01*
X255198Y303450D01*
X255214Y303471D01*
X255292Y303628D01*
X255374Y303782D01*
X255382Y303808D01*
X255394Y303832D01*
X255439Y304001D01*
X255489Y304168D01*
X255491Y304195D01*
X255498Y304220D01*
X255525Y304551D01*
X255525Y309626D01*
X255523Y309644D01*
X255525Y309662D01*
X255504Y309844D01*
X255485Y310027D01*
X255480Y310044D01*
X255478Y310061D01*
X255421Y310236D01*
X255367Y310412D01*
X255359Y310427D01*
X255353Y310444D01*
X255263Y310604D01*
X255175Y310766D01*
X255164Y310779D01*
X255155Y310795D01*
X255035Y310934D01*
X254918Y311075D01*
X254904Y311086D01*
X254892Y311100D01*
X254747Y311212D01*
X254604Y311327D01*
X254588Y311335D01*
X254574Y311346D01*
X254409Y311428D01*
X254247Y311513D01*
X254230Y311518D01*
X254214Y311526D01*
X254035Y311573D01*
X253860Y311624D01*
X253842Y311626D01*
X253825Y311630D01*
X253494Y311657D01*
X250955Y311657D01*
X250929Y311655D01*
X250902Y311657D01*
X250728Y311635D01*
X250554Y311617D01*
X250529Y311610D01*
X250502Y311606D01*
X250337Y311551D01*
X250170Y311499D01*
X250146Y311486D01*
X250121Y311478D01*
X249969Y311391D01*
X249816Y311307D01*
X249795Y311290D01*
X249772Y311277D01*
X249519Y311062D01*
X244559Y306103D01*
X244517Y306051D01*
X244468Y306006D01*
X244358Y305857D01*
X244304Y305791D01*
X244291Y305767D01*
X244270Y305739D01*
X244157Y305557D01*
X243786Y305291D01*
X243533Y305076D01*
X243210Y304753D01*
X243012Y304671D01*
X242953Y304640D01*
X242891Y304617D01*
X242733Y304522D01*
X242657Y304481D01*
X242636Y304464D01*
X242606Y304446D01*
X242432Y304321D01*
X241987Y304218D01*
X241671Y304116D01*
X240916Y303803D01*
X240893Y303791D01*
X240867Y303782D01*
X240715Y303696D01*
X240562Y303613D01*
X240541Y303596D01*
X240518Y303583D01*
X240386Y303468D01*
X240251Y303357D01*
X240234Y303336D01*
X240214Y303318D01*
X240108Y303180D01*
X239997Y303044D01*
X239985Y303020D01*
X239969Y302999D01*
X239817Y302704D01*
X238472Y299456D01*
X235614Y296598D01*
X231879Y295051D01*
X213613Y295051D01*
X209878Y296598D01*
X208064Y298412D01*
X208057Y298418D01*
X208052Y298425D01*
X207903Y298544D01*
X207753Y298667D01*
X207745Y298672D01*
X207738Y298677D01*
X207568Y298766D01*
X207397Y298856D01*
X207388Y298859D01*
X207381Y298863D01*
X207196Y298916D01*
X207011Y298971D01*
X207002Y298972D01*
X206994Y298974D01*
X206803Y298990D01*
X206610Y299007D01*
X206601Y299006D01*
X206592Y299007D01*
X206403Y298985D01*
X206210Y298964D01*
X206201Y298961D01*
X206193Y298960D01*
X206011Y298901D01*
X205826Y298842D01*
X205818Y298838D01*
X205810Y298835D01*
X205643Y298741D01*
X205474Y298647D01*
X205467Y298642D01*
X205459Y298637D01*
X205314Y298512D01*
X205167Y298387D01*
X205161Y298380D01*
X205154Y298374D01*
X205038Y298224D01*
X204917Y298071D01*
X204913Y298063D01*
X204908Y298056D01*
X204822Y297885D01*
X204735Y297712D01*
X204732Y297704D01*
X204728Y297695D01*
X204678Y297510D01*
X204627Y297324D01*
X204626Y297315D01*
X204624Y297307D01*
X204597Y296976D01*
X204597Y170230D01*
X204599Y170212D01*
X204597Y170194D01*
X204618Y170012D01*
X204637Y169829D01*
X204642Y169812D01*
X204644Y169795D01*
X204701Y169620D01*
X204755Y169444D01*
X204763Y169429D01*
X204769Y169412D01*
X204859Y169252D01*
X204947Y169090D01*
X204958Y169077D01*
X204967Y169061D01*
X205087Y168922D01*
X205204Y168781D01*
X205218Y168770D01*
X205230Y168756D01*
X205375Y168644D01*
X205518Y168529D01*
X205534Y168521D01*
X205548Y168510D01*
X205713Y168428D01*
X205875Y168343D01*
X205892Y168338D01*
X205908Y168330D01*
X206087Y168283D01*
X206262Y168232D01*
X206280Y168230D01*
X206297Y168226D01*
X206628Y168199D01*
X595884Y168199D01*
X595902Y168201D01*
G37*
G36*
X296926Y310137D02*
X296926Y310137D01*
X296953Y310135D01*
X297127Y310157D01*
X297300Y310175D01*
X297326Y310182D01*
X297352Y310186D01*
X297518Y310241D01*
X297685Y310293D01*
X297709Y310306D01*
X297734Y310314D01*
X297886Y310401D01*
X298039Y310485D01*
X298060Y310502D01*
X298083Y310515D01*
X298336Y310730D01*
X299836Y312230D01*
X303057Y313564D01*
X306543Y313564D01*
X309764Y312230D01*
X311264Y310730D01*
X311285Y310713D01*
X311302Y310692D01*
X311440Y310585D01*
X311576Y310475D01*
X311599Y310462D01*
X311620Y310446D01*
X311777Y310368D01*
X311931Y310286D01*
X311957Y310278D01*
X311981Y310266D01*
X312150Y310221D01*
X312317Y310171D01*
X312344Y310169D01*
X312370Y310162D01*
X312700Y310135D01*
X418084Y310135D01*
X418102Y310137D01*
X418120Y310135D01*
X418302Y310156D01*
X418485Y310175D01*
X418502Y310180D01*
X418519Y310182D01*
X418694Y310239D01*
X418870Y310293D01*
X418885Y310301D01*
X418902Y310307D01*
X419062Y310397D01*
X419224Y310485D01*
X419237Y310496D01*
X419253Y310505D01*
X419392Y310625D01*
X419533Y310742D01*
X419544Y310756D01*
X419558Y310768D01*
X419670Y310913D01*
X419785Y311056D01*
X419793Y311072D01*
X419804Y311086D01*
X419886Y311251D01*
X419971Y311413D01*
X419976Y311430D01*
X419984Y311446D01*
X420031Y311624D01*
X420082Y311800D01*
X420084Y311818D01*
X420088Y311835D01*
X420115Y312166D01*
X420115Y328470D01*
X420113Y328488D01*
X420115Y328506D01*
X420094Y328688D01*
X420075Y328871D01*
X420070Y328888D01*
X420068Y328905D01*
X420011Y329080D01*
X419957Y329256D01*
X419949Y329271D01*
X419943Y329288D01*
X419853Y329448D01*
X419765Y329610D01*
X419754Y329623D01*
X419745Y329639D01*
X419625Y329778D01*
X419508Y329919D01*
X419494Y329930D01*
X419482Y329944D01*
X419338Y330056D01*
X419194Y330171D01*
X419178Y330179D01*
X419164Y330190D01*
X418999Y330272D01*
X418837Y330357D01*
X418820Y330362D01*
X418804Y330370D01*
X418625Y330417D01*
X418450Y330468D01*
X418432Y330470D01*
X418415Y330474D01*
X418084Y330501D01*
X407642Y330501D01*
X407525Y330597D01*
X407509Y330606D01*
X407495Y330617D01*
X407332Y330700D01*
X407169Y330786D01*
X407152Y330791D01*
X407136Y330799D01*
X406959Y330848D01*
X406783Y330901D01*
X406766Y330902D01*
X406748Y330907D01*
X406565Y330920D01*
X406382Y330937D01*
X406365Y330935D01*
X406347Y330936D01*
X406164Y330913D01*
X405982Y330894D01*
X405965Y330888D01*
X405947Y330886D01*
X405773Y330827D01*
X405598Y330772D01*
X405583Y330763D01*
X405566Y330758D01*
X405406Y330666D01*
X405246Y330577D01*
X405232Y330566D01*
X405217Y330557D01*
X405151Y330501D01*
X394712Y330501D01*
X394569Y330542D01*
X394389Y330595D01*
X394375Y330596D01*
X394362Y330600D01*
X394176Y330615D01*
X393988Y330632D01*
X393974Y330630D01*
X393961Y330631D01*
X393776Y330609D01*
X393587Y330588D01*
X393575Y330584D01*
X393561Y330583D01*
X393384Y330524D01*
X393204Y330467D01*
X393192Y330460D01*
X393179Y330456D01*
X393017Y330364D01*
X392851Y330272D01*
X392841Y330263D01*
X392829Y330257D01*
X392688Y330133D01*
X392544Y330012D01*
X392536Y330001D01*
X392526Y329992D01*
X392412Y329844D01*
X392295Y329696D01*
X392288Y329684D01*
X392280Y329673D01*
X392129Y329378D01*
X391442Y327720D01*
X383480Y319758D01*
X381706Y319023D01*
X316540Y319023D01*
X314766Y319758D01*
X313408Y321116D01*
X313024Y322043D01*
X313009Y322071D01*
X312999Y322101D01*
X312914Y322249D01*
X312834Y322398D01*
X312814Y322422D01*
X312798Y322449D01*
X312584Y322702D01*
X308836Y326450D01*
X308101Y328224D01*
X308101Y350727D01*
X308099Y350754D01*
X308101Y350781D01*
X308079Y350955D01*
X308061Y351128D01*
X308054Y351153D01*
X308050Y351180D01*
X307995Y351346D01*
X307943Y351513D01*
X307930Y351536D01*
X307922Y351562D01*
X307835Y351713D01*
X307751Y351867D01*
X307734Y351887D01*
X307721Y351911D01*
X307506Y352164D01*
X305428Y354242D01*
X305407Y354259D01*
X305389Y354280D01*
X305252Y354387D01*
X305116Y354497D01*
X305092Y354510D01*
X305071Y354526D01*
X304914Y354604D01*
X304760Y354686D01*
X304735Y354694D01*
X304711Y354706D01*
X304541Y354751D01*
X304375Y354801D01*
X304348Y354803D01*
X304322Y354810D01*
X303991Y354837D01*
X256841Y354837D01*
X256814Y354835D01*
X256787Y354837D01*
X256613Y354815D01*
X256440Y354797D01*
X256415Y354790D01*
X256388Y354786D01*
X256222Y354731D01*
X256055Y354679D01*
X256032Y354666D01*
X256006Y354658D01*
X255855Y354571D01*
X255701Y354487D01*
X255681Y354470D01*
X255657Y354457D01*
X255404Y354242D01*
X252282Y351120D01*
X250508Y350385D01*
X240214Y350385D01*
X240191Y350383D01*
X240169Y350385D01*
X239992Y350363D01*
X239813Y350345D01*
X239792Y350339D01*
X239770Y350336D01*
X239600Y350280D01*
X239428Y350227D01*
X239409Y350217D01*
X239387Y350210D01*
X239232Y350121D01*
X239074Y350035D01*
X239057Y350021D01*
X239038Y350010D01*
X238902Y349892D01*
X238765Y349778D01*
X238751Y349760D01*
X238734Y349746D01*
X238645Y349629D01*
X235614Y346598D01*
X231879Y345051D01*
X213613Y345051D01*
X209878Y346598D01*
X208064Y348412D01*
X208057Y348418D01*
X208052Y348425D01*
X207902Y348545D01*
X207753Y348667D01*
X207745Y348672D01*
X207738Y348677D01*
X207568Y348766D01*
X207397Y348856D01*
X207388Y348859D01*
X207381Y348863D01*
X207196Y348916D01*
X207011Y348971D01*
X207002Y348972D01*
X206994Y348974D01*
X206803Y348990D01*
X206610Y349007D01*
X206601Y349006D01*
X206592Y349007D01*
X206403Y348985D01*
X206210Y348964D01*
X206201Y348961D01*
X206193Y348960D01*
X206011Y348901D01*
X205826Y348842D01*
X205818Y348838D01*
X205810Y348835D01*
X205643Y348741D01*
X205474Y348647D01*
X205467Y348642D01*
X205459Y348637D01*
X205314Y348512D01*
X205167Y348387D01*
X205161Y348380D01*
X205154Y348374D01*
X205037Y348223D01*
X204917Y348071D01*
X204913Y348063D01*
X204908Y348056D01*
X204822Y347885D01*
X204735Y347712D01*
X204732Y347704D01*
X204728Y347695D01*
X204678Y347510D01*
X204627Y347324D01*
X204626Y347315D01*
X204624Y347307D01*
X204597Y346976D01*
X204597Y337694D01*
X204613Y337527D01*
X204625Y337359D01*
X204633Y337327D01*
X204637Y337294D01*
X204686Y337133D01*
X204730Y336970D01*
X204745Y336941D01*
X204755Y336909D01*
X204835Y336761D01*
X204910Y336610D01*
X204931Y336584D01*
X204947Y336555D01*
X205054Y336425D01*
X205158Y336293D01*
X205183Y336271D01*
X205204Y336245D01*
X205335Y336140D01*
X205463Y336030D01*
X205492Y336014D01*
X205518Y335993D01*
X205667Y335916D01*
X205814Y335833D01*
X205846Y335823D01*
X205875Y335808D01*
X206037Y335761D01*
X206197Y335709D01*
X206230Y335705D01*
X206262Y335696D01*
X206430Y335682D01*
X206597Y335663D01*
X206631Y335666D01*
X206664Y335663D01*
X206831Y335683D01*
X206999Y335697D01*
X207030Y335706D01*
X207063Y335710D01*
X207223Y335762D01*
X207385Y335809D01*
X207415Y335825D01*
X207446Y335835D01*
X207593Y335918D01*
X207742Y335996D01*
X207768Y336017D01*
X207797Y336033D01*
X207924Y336143D01*
X208055Y336249D01*
X208079Y336277D01*
X208101Y336296D01*
X208154Y336364D01*
X208271Y336500D01*
X209346Y337575D01*
X210575Y338468D01*
X211929Y339158D01*
X213374Y339627D01*
X214874Y339865D01*
X220715Y339865D01*
X220715Y330212D01*
X220715Y320559D01*
X214874Y320559D01*
X213374Y320797D01*
X211929Y321266D01*
X210575Y321956D01*
X209346Y322849D01*
X208271Y323924D01*
X208159Y324049D01*
X208052Y324179D01*
X208026Y324199D01*
X208004Y324224D01*
X207869Y324325D01*
X207738Y324431D01*
X207708Y324446D01*
X207682Y324466D01*
X207530Y324539D01*
X207381Y324616D01*
X207349Y324626D01*
X207319Y324640D01*
X207155Y324681D01*
X206994Y324728D01*
X206961Y324731D01*
X206928Y324739D01*
X206760Y324747D01*
X206592Y324761D01*
X206560Y324757D01*
X206526Y324758D01*
X206359Y324733D01*
X206193Y324714D01*
X206161Y324704D01*
X206128Y324699D01*
X205970Y324641D01*
X205810Y324589D01*
X205781Y324573D01*
X205750Y324561D01*
X205606Y324474D01*
X205459Y324391D01*
X205434Y324369D01*
X205406Y324352D01*
X205282Y324238D01*
X205154Y324128D01*
X205134Y324102D01*
X205110Y324079D01*
X205011Y323943D01*
X204908Y323810D01*
X204893Y323780D01*
X204873Y323753D01*
X204803Y323600D01*
X204728Y323449D01*
X204720Y323417D01*
X204706Y323387D01*
X204668Y323224D01*
X204624Y323060D01*
X204621Y323023D01*
X204614Y322995D01*
X204611Y322909D01*
X204597Y322730D01*
X204597Y313448D01*
X204598Y313439D01*
X204597Y313430D01*
X204618Y313238D01*
X204637Y313047D01*
X204639Y313039D01*
X204640Y313030D01*
X204698Y312848D01*
X204755Y312662D01*
X204759Y312655D01*
X204762Y312646D01*
X204855Y312478D01*
X204947Y312308D01*
X204952Y312302D01*
X204957Y312294D01*
X205082Y312146D01*
X205204Y311999D01*
X205211Y311994D01*
X205217Y311987D01*
X205369Y311867D01*
X205518Y311747D01*
X205526Y311743D01*
X205533Y311737D01*
X205705Y311650D01*
X205875Y311561D01*
X205884Y311559D01*
X205892Y311555D01*
X206078Y311503D01*
X206262Y311450D01*
X206271Y311449D01*
X206280Y311447D01*
X206472Y311433D01*
X206664Y311417D01*
X206672Y311418D01*
X206681Y311417D01*
X206874Y311442D01*
X207063Y311464D01*
X207072Y311467D01*
X207081Y311468D01*
X207264Y311529D01*
X207446Y311589D01*
X207454Y311593D01*
X207462Y311596D01*
X207628Y311691D01*
X207797Y311787D01*
X207804Y311793D01*
X207811Y311797D01*
X208064Y312012D01*
X209878Y313826D01*
X213613Y315373D01*
X231879Y315373D01*
X235224Y313987D01*
X235283Y313969D01*
X235340Y313943D01*
X235476Y313911D01*
X235609Y313871D01*
X235671Y313865D01*
X235732Y313851D01*
X235871Y313846D01*
X236010Y313833D01*
X236072Y313839D01*
X236134Y313837D01*
X236328Y313866D01*
X236411Y313874D01*
X236433Y313881D01*
X236462Y313886D01*
X236928Y313994D01*
X237115Y314058D01*
X237302Y314120D01*
X237305Y314122D01*
X237309Y314124D01*
X237479Y314222D01*
X237651Y314321D01*
X237654Y314324D01*
X237657Y314326D01*
X237680Y314346D01*
X237904Y314536D01*
X243096Y319728D01*
X244882Y321515D01*
X246843Y322327D01*
X253494Y322327D01*
X253512Y322329D01*
X253530Y322327D01*
X253712Y322348D01*
X253895Y322367D01*
X253912Y322372D01*
X253929Y322374D01*
X254104Y322431D01*
X254280Y322485D01*
X254295Y322493D01*
X254312Y322499D01*
X254472Y322589D01*
X254634Y322677D01*
X254647Y322688D01*
X254663Y322697D01*
X254802Y322817D01*
X254943Y322934D01*
X254954Y322948D01*
X254968Y322960D01*
X255080Y323105D01*
X255195Y323248D01*
X255203Y323264D01*
X255214Y323278D01*
X255296Y323443D01*
X255381Y323605D01*
X255386Y323622D01*
X255394Y323638D01*
X255441Y323817D01*
X255492Y323992D01*
X255494Y324010D01*
X255498Y324027D01*
X255525Y324358D01*
X255525Y328114D01*
X255594Y328248D01*
X255680Y328411D01*
X255685Y328428D01*
X255693Y328444D01*
X255742Y328621D01*
X255795Y328797D01*
X255796Y328814D01*
X255801Y328832D01*
X255814Y329015D01*
X255831Y329198D01*
X255829Y329215D01*
X255830Y329233D01*
X255807Y329416D01*
X255788Y329598D01*
X255782Y329615D01*
X255780Y329633D01*
X255721Y329807D01*
X255666Y329982D01*
X255657Y329997D01*
X255652Y330014D01*
X255560Y330174D01*
X255525Y330237D01*
X255525Y347853D01*
X257311Y349639D01*
X272837Y349639D01*
X273541Y348934D01*
X273661Y348836D01*
X273777Y348732D01*
X273817Y348708D01*
X273853Y348679D01*
X273990Y348606D01*
X274124Y348527D01*
X274168Y348512D01*
X274209Y348490D01*
X274357Y348446D01*
X274504Y348395D01*
X274550Y348389D01*
X274595Y348376D01*
X274749Y348362D01*
X274903Y348340D01*
X274949Y348343D01*
X274996Y348339D01*
X275150Y348356D01*
X275304Y348366D01*
X275349Y348378D01*
X275396Y348383D01*
X275544Y348429D01*
X275693Y348469D01*
X275741Y348492D01*
X275780Y348504D01*
X275856Y348546D01*
X275993Y348611D01*
X276593Y348958D01*
X277239Y349131D01*
X280825Y349131D01*
X280825Y340308D01*
X280826Y340290D01*
X280825Y340273D01*
X280846Y340090D01*
X280865Y339908D01*
X280870Y339891D01*
X280872Y339873D01*
X280929Y339698D01*
X280983Y339523D01*
X280991Y339507D01*
X280997Y339490D01*
X281087Y339330D01*
X281174Y339169D01*
X281186Y339155D01*
X281195Y339139D01*
X281315Y339000D01*
X281432Y338859D01*
X281446Y338848D01*
X281458Y338835D01*
X281603Y338722D01*
X281746Y338607D01*
X281762Y338599D01*
X281776Y338588D01*
X281941Y338506D01*
X282103Y338422D01*
X282120Y338417D01*
X282136Y338409D01*
X282315Y338361D01*
X282490Y338310D01*
X282508Y338309D01*
X282525Y338304D01*
X282856Y338277D01*
X283261Y338277D01*
X283261Y337872D01*
X283263Y337854D01*
X283261Y337836D01*
X283283Y337654D01*
X283301Y337471D01*
X283306Y337454D01*
X283308Y337437D01*
X283365Y337262D01*
X283419Y337086D01*
X283427Y337071D01*
X283433Y337054D01*
X283523Y336894D01*
X283611Y336732D01*
X283622Y336719D01*
X283631Y336703D01*
X283751Y336564D01*
X283869Y336423D01*
X283882Y336412D01*
X283894Y336398D01*
X284039Y336286D01*
X284182Y336171D01*
X284198Y336163D01*
X284212Y336152D01*
X284377Y336070D01*
X284540Y335985D01*
X284557Y335980D01*
X284573Y335972D01*
X284751Y335924D01*
X284926Y335874D01*
X284944Y335872D01*
X284961Y335868D01*
X285292Y335841D01*
X293115Y335841D01*
X293115Y331255D01*
X292921Y330533D01*
X292893Y330478D01*
X292881Y330433D01*
X292862Y330391D01*
X292827Y330240D01*
X292785Y330090D01*
X292782Y330044D01*
X292771Y329999D01*
X292767Y329844D01*
X292756Y329689D01*
X292762Y329642D01*
X292760Y329596D01*
X292787Y329443D01*
X292806Y329289D01*
X292821Y329245D01*
X292829Y329199D01*
X292885Y329055D01*
X292934Y328907D01*
X292958Y328867D01*
X292974Y328824D01*
X293058Y328693D01*
X293135Y328559D01*
X293169Y328519D01*
X293191Y328485D01*
X293251Y328422D01*
X293350Y328306D01*
X293623Y328033D01*
X293623Y312166D01*
X293625Y312148D01*
X293623Y312130D01*
X293644Y311948D01*
X293663Y311765D01*
X293668Y311748D01*
X293670Y311731D01*
X293727Y311556D01*
X293781Y311380D01*
X293789Y311365D01*
X293795Y311348D01*
X293885Y311188D01*
X293973Y311026D01*
X293984Y311013D01*
X293993Y310997D01*
X294113Y310858D01*
X294230Y310717D01*
X294244Y310706D01*
X294256Y310692D01*
X294401Y310580D01*
X294544Y310465D01*
X294560Y310457D01*
X294574Y310446D01*
X294739Y310364D01*
X294901Y310279D01*
X294918Y310274D01*
X294934Y310266D01*
X295113Y310219D01*
X295288Y310168D01*
X295306Y310166D01*
X295323Y310162D01*
X295654Y310135D01*
X296900Y310135D01*
X296926Y310137D01*
G37*
%LPC*%
G36*
X213717Y183651D02*
X213717Y183651D01*
X211931Y185437D01*
X211931Y199963D01*
X214221Y202252D01*
X214273Y202316D01*
X214332Y202373D01*
X214400Y202471D01*
X214476Y202564D01*
X214514Y202636D01*
X214561Y202704D01*
X214608Y202814D01*
X214664Y202919D01*
X214688Y202998D01*
X214720Y203074D01*
X214745Y203190D01*
X214779Y203305D01*
X214786Y203387D01*
X214803Y203467D01*
X214805Y203587D01*
X214815Y203706D01*
X214807Y203788D01*
X214807Y203870D01*
X214785Y203987D01*
X214772Y204106D01*
X214747Y204185D01*
X214732Y204265D01*
X214687Y204376D01*
X214651Y204490D01*
X214611Y204562D01*
X214580Y204638D01*
X214514Y204738D01*
X214456Y204843D01*
X214403Y204905D01*
X214357Y204974D01*
X214273Y205058D01*
X214195Y205150D01*
X214131Y205201D01*
X214073Y205259D01*
X213947Y205346D01*
X213879Y205399D01*
X213843Y205418D01*
X213800Y205448D01*
X213420Y205667D01*
X212947Y206140D01*
X212612Y206719D01*
X212439Y207365D01*
X212439Y210701D01*
X220012Y210701D01*
X220030Y210702D01*
X220047Y210701D01*
X220230Y210722D01*
X220412Y210741D01*
X220429Y210746D01*
X220447Y210748D01*
X220622Y210805D01*
X220797Y210859D01*
X220813Y210867D01*
X220830Y210873D01*
X220990Y210963D01*
X221151Y211050D01*
X221165Y211062D01*
X221181Y211071D01*
X221320Y211191D01*
X221461Y211308D01*
X221472Y211322D01*
X221485Y211334D01*
X221598Y211479D01*
X221713Y211622D01*
X221721Y211638D01*
X221732Y211652D01*
X221814Y211817D01*
X221898Y211979D01*
X221903Y211996D01*
X221911Y212012D01*
X221959Y212191D01*
X222010Y212366D01*
X222011Y212384D01*
X222016Y212401D01*
X222036Y212643D01*
X222166Y212659D01*
X222349Y212677D01*
X222366Y212682D01*
X222383Y212684D01*
X222558Y212741D01*
X222734Y212795D01*
X222749Y212803D01*
X222766Y212809D01*
X222926Y212899D01*
X223088Y212987D01*
X223101Y212998D01*
X223117Y213007D01*
X223256Y213127D01*
X223397Y213245D01*
X223408Y213258D01*
X223422Y213270D01*
X223534Y213415D01*
X223649Y213558D01*
X223657Y213574D01*
X223668Y213588D01*
X223750Y213753D01*
X223835Y213916D01*
X223840Y213933D01*
X223848Y213949D01*
X223895Y214127D01*
X223946Y214302D01*
X223948Y214320D01*
X223952Y214337D01*
X223979Y214668D01*
X223979Y222241D01*
X227315Y222241D01*
X227961Y222068D01*
X228540Y221733D01*
X229111Y221162D01*
X229134Y221131D01*
X229194Y221074D01*
X229248Y221011D01*
X229341Y220937D01*
X229428Y220856D01*
X229499Y220813D01*
X229563Y220762D01*
X229670Y220708D01*
X229771Y220645D01*
X229849Y220617D01*
X229922Y220579D01*
X230037Y220547D01*
X230149Y220506D01*
X230231Y220494D01*
X230310Y220471D01*
X230429Y220463D01*
X230547Y220444D01*
X230629Y220448D01*
X230712Y220442D01*
X230830Y220457D01*
X230949Y220462D01*
X231029Y220482D01*
X231111Y220492D01*
X231224Y220530D01*
X231340Y220559D01*
X231415Y220594D01*
X231493Y220621D01*
X231596Y220680D01*
X231704Y220731D01*
X231770Y220780D01*
X231842Y220822D01*
X231958Y220920D01*
X232027Y220971D01*
X232054Y221002D01*
X232095Y221036D01*
X233307Y222249D01*
X251833Y222249D01*
X253619Y220462D01*
X253619Y220457D01*
X253640Y220271D01*
X253659Y220083D01*
X253663Y220070D01*
X253664Y220057D01*
X253722Y219877D01*
X253777Y219698D01*
X253783Y219686D01*
X253787Y219673D01*
X253879Y219509D01*
X253969Y219344D01*
X253977Y219334D01*
X253984Y219322D01*
X254106Y219179D01*
X254226Y219035D01*
X254237Y219026D01*
X254245Y219016D01*
X254393Y218900D01*
X254540Y218782D01*
X254552Y218776D01*
X254562Y218768D01*
X254731Y218683D01*
X254897Y218597D01*
X254910Y218593D01*
X254922Y218587D01*
X255104Y218537D01*
X255284Y218485D01*
X255298Y218484D01*
X255311Y218481D01*
X255499Y218468D01*
X255686Y218453D01*
X255699Y218454D01*
X255712Y218453D01*
X255900Y218478D01*
X256085Y218499D01*
X256098Y218504D01*
X256111Y218505D01*
X256427Y218607D01*
X258479Y219457D01*
X261713Y219457D01*
X264701Y218219D01*
X266987Y215933D01*
X268225Y212945D01*
X268225Y209711D01*
X266987Y206723D01*
X264701Y204437D01*
X261713Y203199D01*
X258479Y203199D01*
X256427Y204049D01*
X256414Y204053D01*
X256403Y204059D01*
X256223Y204111D01*
X256042Y204166D01*
X256029Y204167D01*
X256016Y204171D01*
X255828Y204186D01*
X255641Y204204D01*
X255628Y204202D01*
X255614Y204203D01*
X255427Y204181D01*
X255241Y204162D01*
X255228Y204158D01*
X255215Y204157D01*
X255035Y204098D01*
X254856Y204042D01*
X254845Y204036D01*
X254832Y204032D01*
X254667Y203939D01*
X254503Y203849D01*
X254493Y203840D01*
X254481Y203834D01*
X254339Y203711D01*
X254195Y203590D01*
X254187Y203579D01*
X254176Y203571D01*
X254061Y203422D01*
X253944Y203275D01*
X253938Y203263D01*
X253930Y203253D01*
X253846Y203084D01*
X253760Y202917D01*
X253756Y202904D01*
X253750Y202892D01*
X253701Y202709D01*
X253650Y202530D01*
X253649Y202516D01*
X253646Y202503D01*
X253619Y202173D01*
X253619Y185937D01*
X251833Y184151D01*
X233307Y184151D01*
X232461Y184997D01*
X232447Y185008D01*
X232436Y185022D01*
X232292Y185136D01*
X232150Y185252D01*
X232134Y185261D01*
X232120Y185272D01*
X231956Y185355D01*
X231794Y185441D01*
X231777Y185446D01*
X231761Y185454D01*
X231584Y185503D01*
X231408Y185556D01*
X231390Y185557D01*
X231373Y185562D01*
X231190Y185575D01*
X231007Y185592D01*
X230989Y185590D01*
X230972Y185591D01*
X230790Y185568D01*
X230607Y185549D01*
X230590Y185543D01*
X230572Y185541D01*
X230398Y185483D01*
X230223Y185427D01*
X230207Y185418D01*
X230191Y185413D01*
X230032Y185321D01*
X229871Y185232D01*
X229857Y185221D01*
X229842Y185212D01*
X229589Y184997D01*
X228243Y183651D01*
X213717Y183651D01*
G37*
%LPD*%
G36*
X385301Y214379D02*
X385301Y214379D01*
X385329Y214377D01*
X385502Y214399D01*
X385674Y214417D01*
X385701Y214425D01*
X385729Y214428D01*
X385893Y214484D01*
X386059Y214535D01*
X386084Y214548D01*
X386110Y214557D01*
X386400Y214718D01*
X411855Y231688D01*
X411861Y231693D01*
X411868Y231697D01*
X412018Y231821D01*
X412167Y231943D01*
X412171Y231949D01*
X412177Y231954D01*
X412299Y232106D01*
X412421Y232255D01*
X412425Y232262D01*
X412430Y232268D01*
X412519Y232440D01*
X412609Y232611D01*
X412612Y232619D01*
X412615Y232625D01*
X412669Y232811D01*
X412724Y232997D01*
X412725Y233005D01*
X412727Y233012D01*
X412742Y233205D01*
X412760Y233398D01*
X412759Y233406D01*
X412760Y233414D01*
X412737Y233606D01*
X412716Y233798D01*
X412714Y233806D01*
X412713Y233813D01*
X412652Y233998D01*
X412594Y234182D01*
X412590Y234189D01*
X412588Y234196D01*
X412493Y234364D01*
X412399Y234534D01*
X412394Y234540D01*
X412390Y234547D01*
X412263Y234694D01*
X412138Y234841D01*
X412132Y234846D01*
X412127Y234852D01*
X411975Y234969D01*
X411822Y235090D01*
X411815Y235094D01*
X411809Y235098D01*
X411636Y235184D01*
X411463Y235272D01*
X411455Y235274D01*
X411448Y235278D01*
X411260Y235328D01*
X411075Y235380D01*
X411067Y235380D01*
X411059Y235382D01*
X410729Y235409D01*
X408605Y235409D01*
X407959Y235582D01*
X407943Y235592D01*
X407801Y235656D01*
X407663Y235726D01*
X407618Y235739D01*
X407576Y235758D01*
X407425Y235792D01*
X407275Y235834D01*
X407229Y235837D01*
X407183Y235848D01*
X407029Y235852D01*
X406874Y235863D01*
X406827Y235858D01*
X406781Y235859D01*
X406628Y235832D01*
X406474Y235813D01*
X406430Y235798D01*
X406384Y235790D01*
X406240Y235734D01*
X406093Y235685D01*
X406052Y235662D01*
X406009Y235645D01*
X405878Y235561D01*
X405744Y235484D01*
X405704Y235450D01*
X405669Y235428D01*
X405607Y235368D01*
X405491Y235269D01*
X405123Y234901D01*
X394942Y234901D01*
X394825Y234997D01*
X394809Y235006D01*
X394795Y235017D01*
X394631Y235100D01*
X394469Y235186D01*
X394452Y235191D01*
X394436Y235199D01*
X394259Y235248D01*
X394083Y235301D01*
X394065Y235302D01*
X394048Y235307D01*
X393865Y235320D01*
X393682Y235337D01*
X393664Y235335D01*
X393647Y235336D01*
X393465Y235313D01*
X393282Y235294D01*
X393265Y235288D01*
X393247Y235286D01*
X393074Y235228D01*
X392898Y235172D01*
X392882Y235163D01*
X392865Y235158D01*
X392706Y235066D01*
X392546Y234977D01*
X392532Y234966D01*
X392517Y234957D01*
X392451Y234901D01*
X382242Y234901D01*
X382125Y234997D01*
X382109Y235006D01*
X382095Y235017D01*
X381931Y235100D01*
X381769Y235186D01*
X381752Y235191D01*
X381736Y235199D01*
X381559Y235248D01*
X381383Y235301D01*
X381365Y235302D01*
X381348Y235307D01*
X381165Y235320D01*
X380982Y235337D01*
X380964Y235335D01*
X380947Y235336D01*
X380765Y235313D01*
X380582Y235294D01*
X380565Y235288D01*
X380547Y235286D01*
X380374Y235228D01*
X380198Y235172D01*
X380182Y235163D01*
X380165Y235158D01*
X380006Y235066D01*
X379846Y234977D01*
X379832Y234966D01*
X379817Y234957D01*
X379751Y234901D01*
X369542Y234901D01*
X369425Y234997D01*
X369409Y235006D01*
X369395Y235017D01*
X369231Y235100D01*
X369069Y235186D01*
X369052Y235191D01*
X369036Y235199D01*
X368859Y235248D01*
X368683Y235301D01*
X368665Y235302D01*
X368648Y235307D01*
X368465Y235320D01*
X368282Y235337D01*
X368264Y235335D01*
X368247Y235336D01*
X368065Y235313D01*
X367882Y235294D01*
X367865Y235288D01*
X367847Y235286D01*
X367674Y235228D01*
X367498Y235172D01*
X367482Y235163D01*
X367465Y235158D01*
X367306Y235066D01*
X367146Y234977D01*
X367132Y234966D01*
X367117Y234957D01*
X367051Y234901D01*
X356842Y234901D01*
X356725Y234997D01*
X356709Y235006D01*
X356695Y235017D01*
X356531Y235100D01*
X356369Y235186D01*
X356352Y235191D01*
X356336Y235199D01*
X356159Y235248D01*
X355983Y235301D01*
X355965Y235302D01*
X355948Y235307D01*
X355765Y235320D01*
X355582Y235337D01*
X355564Y235335D01*
X355547Y235336D01*
X355365Y235313D01*
X355182Y235294D01*
X355165Y235288D01*
X355147Y235286D01*
X354974Y235228D01*
X354798Y235172D01*
X354782Y235163D01*
X354765Y235158D01*
X354606Y235066D01*
X354446Y234977D01*
X354432Y234966D01*
X354417Y234957D01*
X354351Y234901D01*
X343408Y234901D01*
X343390Y234899D01*
X343372Y234901D01*
X343190Y234880D01*
X343007Y234861D01*
X342990Y234856D01*
X342973Y234854D01*
X342798Y234797D01*
X342622Y234743D01*
X342607Y234735D01*
X342590Y234729D01*
X342430Y234639D01*
X342268Y234551D01*
X342255Y234540D01*
X342239Y234531D01*
X342100Y234411D01*
X341959Y234294D01*
X341948Y234280D01*
X341934Y234268D01*
X341822Y234123D01*
X341707Y233980D01*
X341699Y233964D01*
X341688Y233950D01*
X341606Y233785D01*
X341521Y233623D01*
X341516Y233606D01*
X341508Y233590D01*
X341461Y233411D01*
X341410Y233236D01*
X341408Y233218D01*
X341404Y233201D01*
X341377Y232870D01*
X341377Y230688D01*
X340642Y228914D01*
X335220Y223492D01*
X333446Y222757D01*
X324502Y222757D01*
X324476Y222755D01*
X324449Y222757D01*
X324275Y222735D01*
X324102Y222717D01*
X324076Y222710D01*
X324050Y222706D01*
X323884Y222650D01*
X323717Y222599D01*
X323693Y222586D01*
X323668Y222578D01*
X323517Y222491D01*
X323363Y222407D01*
X323342Y222390D01*
X323319Y222377D01*
X323066Y222162D01*
X321597Y220693D01*
X320075Y220063D01*
X320071Y220061D01*
X320067Y220059D01*
X319894Y219966D01*
X319720Y219872D01*
X319717Y219870D01*
X319713Y219867D01*
X319562Y219742D01*
X319410Y219616D01*
X319407Y219613D01*
X319404Y219610D01*
X319281Y219457D01*
X319156Y219303D01*
X319154Y219299D01*
X319151Y219296D01*
X319061Y219123D01*
X318969Y218947D01*
X318968Y218943D01*
X318966Y218939D01*
X318911Y218748D01*
X318856Y218560D01*
X318856Y218556D01*
X318854Y218552D01*
X318838Y218350D01*
X318821Y218159D01*
X318822Y218155D01*
X318822Y218150D01*
X318845Y217950D01*
X318867Y217759D01*
X318868Y217755D01*
X318868Y217751D01*
X318929Y217564D01*
X318990Y217376D01*
X318992Y217372D01*
X318993Y217368D01*
X319090Y217196D01*
X319186Y217024D01*
X319189Y217021D01*
X319191Y217017D01*
X319319Y216869D01*
X319448Y216719D01*
X319451Y216716D01*
X319454Y216712D01*
X319609Y216592D01*
X319765Y216470D01*
X319769Y216468D01*
X319772Y216466D01*
X319949Y216378D01*
X320125Y216290D01*
X320129Y216288D01*
X320133Y216286D01*
X320324Y216235D01*
X320513Y216183D01*
X320517Y216183D01*
X320522Y216182D01*
X320852Y216155D01*
X322016Y216155D01*
X322256Y216055D01*
X322286Y216046D01*
X322314Y216032D01*
X322479Y215988D01*
X322641Y215939D01*
X322672Y215936D01*
X322703Y215928D01*
X323033Y215901D01*
X373373Y215901D01*
X374302Y214972D01*
X374323Y214955D01*
X374340Y214934D01*
X374478Y214827D01*
X374613Y214717D01*
X374637Y214704D01*
X374658Y214688D01*
X374815Y214610D01*
X374969Y214528D01*
X374995Y214520D01*
X375019Y214508D01*
X375188Y214463D01*
X375355Y214413D01*
X375382Y214411D01*
X375407Y214404D01*
X375738Y214377D01*
X385274Y214377D01*
X385301Y214379D01*
G37*
%LPC*%
G36*
X515505Y323559D02*
X515505Y323559D01*
X513719Y325345D01*
X513719Y347871D01*
X515505Y349657D01*
X543031Y349657D01*
X544817Y347871D01*
X544817Y325345D01*
X543031Y323559D01*
X515505Y323559D01*
G37*
%LPD*%
%LPC*%
G36*
X515505Y234559D02*
X515505Y234559D01*
X513719Y236345D01*
X513719Y258871D01*
X515505Y260657D01*
X543031Y260657D01*
X544817Y258871D01*
X544817Y236345D01*
X543031Y234559D01*
X515505Y234559D01*
G37*
%LPD*%
%LPC*%
G36*
X552766Y307559D02*
X552766Y307559D01*
X549992Y308708D01*
X547776Y310924D01*
X547769Y310930D01*
X547764Y310937D01*
X547615Y311056D01*
X547465Y311179D01*
X547457Y311183D01*
X547450Y311189D01*
X547280Y311277D01*
X547109Y311368D01*
X547100Y311370D01*
X547093Y311375D01*
X546908Y311428D01*
X546723Y311483D01*
X546714Y311483D01*
X546706Y311486D01*
X546515Y311502D01*
X546322Y311519D01*
X546313Y311518D01*
X546304Y311519D01*
X546115Y311497D01*
X545922Y311476D01*
X545913Y311473D01*
X545905Y311472D01*
X545723Y311413D01*
X545538Y311354D01*
X545530Y311350D01*
X545522Y311347D01*
X545353Y311252D01*
X545186Y311159D01*
X545179Y311154D01*
X545171Y311149D01*
X545025Y311023D01*
X544879Y310899D01*
X544873Y310892D01*
X544866Y310886D01*
X544749Y310735D01*
X544674Y310639D01*
X531299Y310639D01*
X531299Y313649D01*
X542103Y313649D01*
X542749Y313476D01*
X543383Y313109D01*
X543414Y313084D01*
X543563Y312963D01*
X543571Y312958D01*
X543578Y312953D01*
X543748Y312864D01*
X543919Y312774D01*
X543927Y312771D01*
X543935Y312767D01*
X544120Y312714D01*
X544305Y312659D01*
X544314Y312658D01*
X544322Y312656D01*
X544514Y312640D01*
X544706Y312623D01*
X544715Y312624D01*
X544724Y312623D01*
X544914Y312645D01*
X545106Y312666D01*
X545114Y312669D01*
X545123Y312670D01*
X545307Y312730D01*
X545490Y312787D01*
X545498Y312792D01*
X545506Y312795D01*
X545675Y312890D01*
X545842Y312982D01*
X545849Y312988D01*
X545857Y312992D01*
X546001Y313117D01*
X546149Y313243D01*
X546155Y313250D01*
X546162Y313256D01*
X546279Y313406D01*
X546399Y313558D01*
X546403Y313567D01*
X546408Y313574D01*
X546494Y313746D01*
X546581Y313917D01*
X546584Y313926D01*
X546588Y313934D01*
X546638Y314121D01*
X546689Y314305D01*
X546690Y314314D01*
X546692Y314323D01*
X546719Y314654D01*
X546719Y316610D01*
X547868Y319384D01*
X549992Y321508D01*
X552766Y322657D01*
X555770Y322657D01*
X558544Y321508D01*
X560668Y319384D01*
X561817Y316610D01*
X561817Y313606D01*
X560668Y310832D01*
X558544Y308708D01*
X555770Y307559D01*
X552766Y307559D01*
G37*
%LPD*%
%LPC*%
G36*
X224777Y332243D02*
X224777Y332243D01*
X224777Y339865D01*
X230618Y339865D01*
X232118Y339627D01*
X233563Y339158D01*
X234917Y338468D01*
X236146Y337575D01*
X237221Y336500D01*
X238114Y335271D01*
X238804Y333917D01*
X239273Y332472D01*
X239309Y332243D01*
X224777Y332243D01*
G37*
%LPD*%
%LPC*%
G36*
X224777Y320559D02*
X224777Y320559D01*
X224777Y328181D01*
X239309Y328181D01*
X239273Y327952D01*
X238804Y326507D01*
X238114Y325153D01*
X237221Y323924D01*
X236146Y322849D01*
X234917Y321956D01*
X233563Y321266D01*
X232118Y320797D01*
X230618Y320559D01*
X224777Y320559D01*
G37*
%LPD*%
%LPC*%
G36*
X528827Y400811D02*
X528827Y400811D01*
X528827Y408941D01*
X530707Y408941D01*
X536957Y402691D01*
X536957Y400811D01*
X528827Y400811D01*
G37*
%LPD*%
%LPC*%
G36*
X528827Y387603D02*
X528827Y387603D01*
X528827Y395733D01*
X536957Y395733D01*
X536957Y393853D01*
X530707Y387603D01*
X528827Y387603D01*
G37*
%LPD*%
%LPC*%
G36*
X438199Y371549D02*
X438199Y371549D01*
X438199Y378341D01*
X441785Y378341D01*
X442431Y378168D01*
X443010Y377833D01*
X443483Y377360D01*
X443818Y376781D01*
X443991Y376135D01*
X443991Y371549D01*
X438199Y371549D01*
G37*
%LPD*%
%LPC*%
G36*
X287323Y342339D02*
X287323Y342339D01*
X287323Y349131D01*
X290909Y349131D01*
X291555Y348958D01*
X292134Y348623D01*
X292607Y348150D01*
X292942Y347571D01*
X293115Y346925D01*
X293115Y342339D01*
X287323Y342339D01*
G37*
%LPD*%
%LPC*%
G36*
X438199Y358259D02*
X438199Y358259D01*
X438199Y365051D01*
X443991Y365051D01*
X443991Y360465D01*
X443818Y359819D01*
X443483Y359240D01*
X443010Y358767D01*
X442431Y358432D01*
X441785Y358259D01*
X438199Y358259D01*
G37*
%LPD*%
%LPC*%
G36*
X542999Y184659D02*
X542999Y184659D01*
X542999Y190451D01*
X549791Y190451D01*
X549791Y186865D01*
X549618Y186219D01*
X549283Y185640D01*
X548810Y185167D01*
X548231Y184832D01*
X547585Y184659D01*
X542999Y184659D01*
G37*
%LPD*%
%LPC*%
G36*
X517599Y184659D02*
X517599Y184659D01*
X517599Y190451D01*
X524391Y190451D01*
X524391Y186865D01*
X524218Y186219D01*
X523883Y185640D01*
X523410Y185167D01*
X522831Y184832D01*
X522185Y184659D01*
X517599Y184659D01*
G37*
%LPD*%
%LPC*%
G36*
X492199Y184659D02*
X492199Y184659D01*
X492199Y190451D01*
X498991Y190451D01*
X498991Y186865D01*
X498818Y186219D01*
X498483Y185640D01*
X498010Y185167D01*
X497431Y184832D01*
X496785Y184659D01*
X492199Y184659D01*
G37*
%LPD*%
%LPC*%
G36*
X301699Y184659D02*
X301699Y184659D01*
X301699Y190451D01*
X308491Y190451D01*
X308491Y186865D01*
X308318Y186219D01*
X307983Y185640D01*
X307510Y185167D01*
X306931Y184832D01*
X306285Y184659D01*
X301699Y184659D01*
G37*
%LPD*%
%LPC*%
G36*
X531915Y184659D02*
X531915Y184659D01*
X531269Y184832D01*
X530690Y185167D01*
X530217Y185640D01*
X529882Y186219D01*
X529709Y186865D01*
X529709Y190451D01*
X536501Y190451D01*
X536501Y184659D01*
X531915Y184659D01*
G37*
%LPD*%
%LPC*%
G36*
X506515Y184659D02*
X506515Y184659D01*
X505869Y184832D01*
X505290Y185167D01*
X504817Y185640D01*
X504482Y186219D01*
X504309Y186865D01*
X504309Y190451D01*
X511101Y190451D01*
X511101Y184659D01*
X506515Y184659D01*
G37*
%LPD*%
%LPC*%
G36*
X481115Y184659D02*
X481115Y184659D01*
X480469Y184832D01*
X479890Y185167D01*
X479417Y185640D01*
X479082Y186219D01*
X478909Y186865D01*
X478909Y190451D01*
X485701Y190451D01*
X485701Y184659D01*
X481115Y184659D01*
G37*
%LPD*%
%LPC*%
G36*
X290615Y184659D02*
X290615Y184659D01*
X289969Y184832D01*
X289390Y185167D01*
X288917Y185640D01*
X288582Y186219D01*
X288409Y186865D01*
X288409Y190451D01*
X295201Y190451D01*
X295201Y184659D01*
X290615Y184659D01*
G37*
%LPD*%
%LPC*%
G36*
X514227Y310639D02*
X514227Y310639D01*
X514227Y311443D01*
X514400Y312089D01*
X514735Y312668D01*
X515208Y313141D01*
X515787Y313476D01*
X516433Y313649D01*
X527237Y313649D01*
X527237Y310639D01*
X514227Y310639D01*
G37*
%LPD*%
%LPC*%
G36*
X212439Y216699D02*
X212439Y216699D01*
X212439Y220035D01*
X212612Y220681D01*
X212947Y221260D01*
X213420Y221733D01*
X213999Y222068D01*
X214645Y222241D01*
X217981Y222241D01*
X217981Y216699D01*
X212439Y216699D01*
G37*
%LPD*%
D10*
X323850Y244300D03*
X336550Y244300D03*
X349250Y244300D03*
X361950Y244300D03*
X374650Y244300D03*
X387350Y244300D03*
X400050Y244300D03*
X412750Y244300D03*
X425450Y244300D03*
X438150Y244300D03*
X425450Y339900D03*
X438150Y339900D03*
X450850Y339900D03*
X463550Y339900D03*
X476250Y339900D03*
X488950Y339900D03*
X488950Y244300D03*
X476250Y244300D03*
X463550Y244300D03*
X450850Y244300D03*
X412750Y339900D03*
X400050Y339900D03*
X387350Y339900D03*
X374650Y339900D03*
X361950Y339900D03*
X349250Y339900D03*
X336550Y339900D03*
X323850Y339900D03*
D11*
X441960Y203200D03*
X345440Y203200D03*
D12*
X514350Y212700D03*
X514350Y193700D03*
X539750Y212700D03*
X539750Y193700D03*
X488950Y212700D03*
X488950Y193700D03*
X298450Y212700D03*
X298450Y193700D03*
X247650Y401676D03*
X247650Y382676D03*
D13*
X415950Y368300D03*
X434950Y368300D03*
D14*
X220980Y213700D03*
X220980Y192700D03*
D15*
X242570Y193700D03*
X242570Y212700D03*
D16*
X229858Y330212D02*
X215634Y330212D01*
X215634Y305212D02*
X229858Y305212D01*
X229858Y355212D02*
X215634Y355212D01*
D17*
X284074Y298704D03*
X265074Y298704D03*
X265074Y318770D03*
X284074Y318770D03*
D13*
X265074Y339090D03*
X284074Y339090D03*
D17*
X265074Y278638D03*
X284074Y278638D03*
D18*
X276352Y232840D03*
X266852Y254840D03*
X285852Y254840D03*
D19*
X280416Y398272D03*
D20*
X305816Y398272D03*
X331216Y398272D03*
X356616Y398272D03*
X382016Y398272D03*
D19*
X475488Y398272D03*
D20*
X500888Y398272D03*
X526288Y398272D03*
D21*
X584268Y337608D03*
X584268Y247608D03*
X529268Y336608D03*
X529268Y247608D03*
D22*
X529268Y292608D03*
X529268Y284608D03*
X529268Y276608D03*
X529268Y300608D03*
X529268Y308608D03*
D23*
X277560Y371856D03*
X301560Y371856D03*
D24*
X225806Y266700D03*
X225806Y241300D03*
D25*
X425450Y244300D02*
X425450Y234950D01*
X387350Y209550D01*
X358140Y209550D01*
X345440Y203200D01*
X329184Y203200D01*
X321056Y211328D01*
X298822Y211328D01*
X298450Y212700D01*
X438150Y207010D02*
X438150Y244300D01*
X438150Y207010D02*
X441960Y203200D01*
X459232Y203200D01*
X467360Y211328D01*
X488578Y211328D01*
X488950Y212700D01*
X438150Y339900D02*
X438150Y359800D01*
X434950Y368300D01*
D26*
X223012Y385064D03*
X555244Y358648D03*
X408432Y321564D03*
X571500Y184150D03*
X488950Y177800D03*
X514350Y177800D03*
X539750Y177800D03*
X273050Y177800D03*
X242570Y177800D03*
X433832Y389382D03*
X501142Y262636D03*
X506730Y318008D03*
X442976Y321056D03*
X455676Y321056D03*
X571500Y209550D03*
X555244Y338328D03*
X349504Y227584D03*
X377952Y227584D03*
X467360Y227584D03*
X413004Y265684D03*
X451104Y265684D03*
X324104Y176784D03*
X387604Y176784D03*
X451104Y176784D03*
X580644Y312928D03*
X557276Y292100D03*
X252730Y255016D03*
X273050Y194056D03*
X506476Y338328D03*
X248666Y336296D03*
X321818Y372872D03*
D25*
X514350Y212700D02*
X539750Y212700D01*
X488950Y234442D02*
X488950Y244300D01*
X488950Y234442D02*
X491744Y231648D01*
X503936Y231648D01*
X514350Y212700D02*
X514232Y211700D01*
X509270Y216662D01*
X509270Y226314D01*
X503936Y231648D01*
X475488Y312928D02*
X475488Y339138D01*
X476250Y339900D01*
X497840Y296672D02*
X501396Y293116D01*
X529268Y292608D02*
X529736Y292608D01*
X529268Y292608D02*
X502920Y292608D01*
X501396Y293116D01*
D26*
X497840Y296672D03*
X475488Y312928D03*
D25*
X488950Y336550D02*
X488950Y339900D01*
X487172Y338328D02*
X488950Y336550D01*
X487172Y338328D02*
X487172Y289560D01*
X529268Y284608D02*
X529736Y284608D01*
X529268Y284608D02*
X492124Y284608D01*
X487172Y289560D01*
D27*
X425450Y349250D02*
X416950Y357750D01*
X425450Y349250D02*
X425450Y339900D01*
X425450Y304800D02*
X304800Y304800D01*
X416950Y357750D02*
X415950Y368300D01*
X425450Y339900D02*
X425450Y304800D01*
X457200Y304800D01*
X304800Y304800D02*
X284480Y304800D01*
X284480Y313792D01*
X284074Y318770D01*
X284480Y304800D02*
X284480Y294792D01*
X284074Y298704D01*
D25*
X302768Y371856D02*
X304800Y373888D01*
X305816Y373888D01*
X305816Y398272D01*
X529268Y276608D02*
X536192Y276608D01*
X536448Y276352D01*
X530496Y276352D01*
X529268Y276608D02*
X485392Y276608D01*
X457200Y304800D01*
X302768Y371856D02*
X301560Y371856D01*
D28*
X304800Y304800D03*
D25*
X278384Y371856D02*
X276352Y373888D01*
X251968Y373888D01*
X247904Y377952D01*
X247904Y383422D01*
X247650Y382676D01*
X277560Y371856D02*
X278384Y371856D01*
X463550Y349250D02*
X463550Y339900D01*
X463550Y349250D02*
X501650Y387350D01*
X501650Y393700D01*
X501650Y398272D01*
X501650Y400050D01*
X501650Y398272D02*
X500888Y398272D01*
X476250Y374650D02*
X450850Y349250D01*
X450850Y339900D01*
X476250Y374650D02*
X476250Y393700D01*
X476250Y398272D01*
X476250Y400050D01*
X476250Y398272D02*
X475488Y398272D01*
X323850Y264414D02*
X323850Y244300D01*
X250562Y398272D02*
X247650Y401676D01*
X250562Y398272D02*
X280416Y398272D01*
D28*
X323850Y264414D03*
D25*
X242570Y193700D02*
X219948Y193700D01*
X220980Y192700D01*
X361950Y330200D02*
X361950Y339900D01*
X387350Y339900D02*
X387350Y330454D01*
X355600Y323850D02*
X317500Y323850D01*
X355600Y323850D02*
X380746Y323850D01*
X387350Y330454D01*
X361950Y330200D02*
X355600Y323850D01*
X317500Y323850D02*
X317500Y324612D01*
X312928Y329184D01*
X312928Y353568D01*
X249548Y355212D02*
X222746Y355212D01*
X249548Y355212D02*
X254000Y359664D01*
X306832Y359664D01*
X312928Y353568D01*
X323850Y352298D02*
X323850Y339900D01*
X323850Y352298D02*
X333248Y361696D01*
X353568Y361696D01*
X357632Y365760D01*
X357632Y398272D01*
X356616Y398272D01*
X336550Y348742D02*
X336550Y339900D01*
X336550Y348742D02*
X341376Y353568D01*
X369824Y353568D01*
X382016Y365760D01*
X382016Y398272D01*
X336550Y244300D02*
X336550Y231648D01*
X260096Y211328D02*
X243942Y211328D01*
X242570Y212700D01*
X316992Y227584D02*
X332486Y227584D01*
X336550Y231648D01*
D26*
X316992Y227584D03*
X260096Y211328D03*
D27*
X265074Y318770D02*
X264820Y331740D01*
X265074Y339090D01*
X240188Y309276D02*
X222746Y305212D01*
X240188Y309276D02*
X247904Y316992D01*
X262280Y316992D01*
X265074Y318770D01*
D25*
X476250Y260350D02*
X476250Y244300D01*
X476250Y260350D02*
X453644Y282956D01*
X307340Y282956D01*
X300736Y276352D01*
X284836Y276352D01*
X284074Y278638D01*
X285672Y254840D02*
X285852Y254840D01*
X265074Y278638D02*
X265074Y279502D01*
X264160Y276352D01*
X276352Y264160D01*
X280416Y264160D01*
X284480Y260096D01*
X284480Y256212D01*
X285852Y254840D01*
D29*
X250444Y241300D02*
X225806Y241300D01*
X250444Y241300D02*
X260096Y231648D01*
X275160Y231648D01*
X276352Y232840D01*
D27*
X265074Y298704D02*
X258064Y298704D01*
X243840Y284480D01*
X243840Y270256D01*
X239776Y266192D01*
X226568Y266192D02*
X226314Y266192D01*
X226568Y266192D02*
X239776Y266192D01*
X226314Y266192D02*
X225806Y266700D01*
D25*
X226060Y266700D01*
X226568Y266192D01*
M02*
