G75*
G70*
%OFA0B0*%
%FSLAX24Y24*%
%IPPOS*%
%LPD*%
%AMOC8*
5,1,8,0,0,1.08239X$1,22.5*
%
%ADD10C,0.0000*%
%ADD11R,0.0236X0.0866*%
%ADD12R,0.0591X0.0512*%
%ADD13OC8,0.0640*%
%ADD14C,0.0160*%
%ADD15C,0.0400*%
%ADD16C,0.0436*%
D10*
X002530Y000181D02*
X008030Y000181D01*
X008030Y008181D01*
X002530Y008181D01*
X002530Y000181D01*
D11*
X004780Y003158D03*
X005280Y003158D03*
X005780Y003158D03*
X006280Y003158D03*
X006280Y005205D03*
X005780Y005205D03*
X005280Y005205D03*
X004780Y005205D03*
D12*
X007280Y004555D03*
X007280Y003807D03*
D13*
X003530Y004181D03*
X003530Y003181D03*
X003530Y002181D03*
X003530Y001181D03*
X003530Y005181D03*
X003530Y006181D03*
X003530Y007181D03*
D14*
X003896Y006840D02*
X007850Y006840D01*
X007850Y006682D02*
X003737Y006682D01*
X003737Y006681D02*
X004030Y006974D01*
X004030Y007389D01*
X003737Y007681D01*
X003323Y007681D01*
X003030Y007389D01*
X003030Y006974D01*
X003323Y006681D01*
X003030Y006389D01*
X003030Y005974D01*
X003323Y005681D01*
X003030Y005389D01*
X003030Y004974D01*
X003323Y004681D01*
X003030Y004389D01*
X003030Y003974D01*
X003323Y003681D01*
X003030Y003389D01*
X003030Y002974D01*
X003323Y002681D01*
X003030Y002389D01*
X003030Y001974D01*
X003323Y001681D01*
X003030Y001389D01*
X003030Y001201D01*
X003509Y001201D01*
X003509Y001161D01*
X003030Y001161D01*
X003030Y000974D01*
X002710Y000974D01*
X002710Y000816D02*
X003188Y000816D01*
X003323Y000681D02*
X003030Y000974D01*
X003030Y001133D02*
X002710Y001133D01*
X002710Y001291D02*
X003030Y001291D01*
X003091Y001450D02*
X002710Y001450D01*
X002710Y001608D02*
X003250Y001608D01*
X003323Y001681D02*
X003510Y001681D01*
X003510Y001202D01*
X003550Y001202D01*
X003550Y001681D01*
X003737Y001681D01*
X004030Y001389D01*
X004030Y001201D01*
X003550Y001201D01*
X003550Y001161D01*
X003550Y000681D01*
X003737Y000681D01*
X004030Y000974D01*
X004030Y001161D01*
X003550Y001161D01*
X003510Y001161D01*
X003510Y000681D01*
X003323Y000681D01*
X003510Y000816D02*
X003550Y000816D01*
X003550Y000974D02*
X003510Y000974D01*
X003510Y001133D02*
X003550Y001133D01*
X003550Y001291D02*
X003510Y001291D01*
X003510Y001450D02*
X003550Y001450D01*
X003550Y001608D02*
X003510Y001608D01*
X003323Y001681D02*
X003737Y001681D01*
X003977Y001921D01*
X005981Y001921D01*
X006077Y001961D01*
X006150Y002034D01*
X006500Y002384D01*
X006540Y002480D01*
X006540Y002583D01*
X006540Y002612D01*
X006578Y002650D01*
X006578Y003547D01*
X006804Y003547D01*
X006804Y003477D01*
X006910Y003371D01*
X007650Y003371D01*
X007755Y003477D01*
X007755Y004138D01*
X007711Y004181D01*
X007719Y004189D01*
X007743Y004230D01*
X007755Y004276D01*
X007755Y004507D01*
X007328Y004507D01*
X007328Y004603D01*
X007755Y004603D01*
X007755Y004835D01*
X007743Y004881D01*
X007719Y004922D01*
X007686Y004955D01*
X007644Y004979D01*
X007599Y004991D01*
X007328Y004991D01*
X007328Y004604D01*
X007232Y004604D01*
X007232Y004991D01*
X006961Y004991D01*
X006915Y004979D01*
X006874Y004955D01*
X006840Y004922D01*
X006817Y004881D01*
X006804Y004835D01*
X006804Y004603D01*
X007232Y004603D01*
X007232Y004507D01*
X006804Y004507D01*
X006804Y004276D01*
X006817Y004230D01*
X006840Y004189D01*
X006848Y004181D01*
X006804Y004138D01*
X006804Y004067D01*
X006507Y004067D01*
X006404Y004067D01*
X006308Y004028D01*
X006228Y003947D01*
X006228Y004061D01*
X006167Y004207D01*
X006055Y004319D01*
X005909Y004379D01*
X005895Y004379D01*
X006000Y004484D01*
X006040Y004580D01*
X006040Y004639D01*
X006087Y004592D01*
X006472Y004592D01*
X006578Y004697D01*
X006578Y005713D01*
X006540Y005751D01*
X006540Y005880D01*
X006540Y005983D01*
X006500Y006079D01*
X006177Y006402D01*
X006081Y006441D01*
X005978Y006441D01*
X003977Y006441D01*
X003737Y006681D01*
X003323Y006681D01*
X003737Y006681D01*
X003895Y006523D02*
X007850Y006523D01*
X007850Y006365D02*
X006214Y006365D01*
X006373Y006206D02*
X007850Y006206D01*
X007850Y006048D02*
X006513Y006048D01*
X006540Y005889D02*
X007850Y005889D01*
X007850Y005730D02*
X006560Y005730D01*
X006578Y005572D02*
X007850Y005572D01*
X007850Y005413D02*
X006578Y005413D01*
X006578Y005255D02*
X007850Y005255D01*
X007850Y005096D02*
X006578Y005096D01*
X006578Y004938D02*
X006856Y004938D01*
X006804Y004779D02*
X006578Y004779D01*
X006501Y004621D02*
X006804Y004621D01*
X006804Y004462D02*
X005978Y004462D01*
X006040Y004621D02*
X006058Y004621D01*
X005780Y004631D02*
X005630Y004481D01*
X004230Y004481D01*
X003530Y005181D01*
X003225Y004779D02*
X002710Y004779D01*
X002710Y004621D02*
X003262Y004621D01*
X003323Y004681D02*
X003662Y004681D01*
X003662Y004681D01*
X003323Y004681D01*
X003103Y004462D02*
X002710Y004462D01*
X002710Y004304D02*
X003030Y004304D01*
X003030Y004145D02*
X002710Y004145D01*
X002710Y003986D02*
X003030Y003986D01*
X003176Y003828D02*
X002710Y003828D01*
X002710Y003669D02*
X003311Y003669D01*
X003323Y003681D02*
X003737Y003681D01*
X004000Y003418D01*
X004482Y003418D01*
X004482Y003665D01*
X004587Y003771D01*
X004873Y003771D01*
X004722Y003921D01*
X003977Y003921D01*
X003737Y003681D01*
X003323Y003681D01*
X003152Y003511D02*
X002710Y003511D01*
X002710Y003352D02*
X003030Y003352D01*
X003030Y003194D02*
X002710Y003194D01*
X002710Y003035D02*
X003030Y003035D01*
X003127Y002877D02*
X002710Y002877D01*
X002710Y002718D02*
X003286Y002718D01*
X003323Y002681D02*
X003737Y002681D01*
X003977Y002441D01*
X005822Y002441D01*
X005925Y002545D01*
X005587Y002545D01*
X005530Y002602D01*
X005472Y002545D01*
X005087Y002545D01*
X005030Y002602D01*
X004972Y002545D01*
X004587Y002545D01*
X004482Y002650D01*
X004482Y002898D01*
X003953Y002898D01*
X003737Y002681D01*
X003323Y002681D01*
X003201Y002560D02*
X002710Y002560D01*
X002710Y002401D02*
X003042Y002401D01*
X003030Y002242D02*
X002710Y002242D01*
X002710Y002084D02*
X003030Y002084D01*
X003079Y001925D02*
X002710Y001925D01*
X002710Y001767D02*
X003237Y001767D01*
X003530Y002181D02*
X005930Y002181D01*
X006280Y002531D01*
X006280Y003158D01*
X006280Y003631D01*
X006456Y003807D01*
X007280Y003807D01*
X006804Y003511D02*
X006578Y003511D01*
X006578Y003352D02*
X007850Y003352D01*
X007850Y003511D02*
X007755Y003511D01*
X007755Y003669D02*
X007850Y003669D01*
X007850Y003828D02*
X007755Y003828D01*
X007755Y003986D02*
X007850Y003986D01*
X007850Y004145D02*
X007748Y004145D01*
X007755Y004304D02*
X007850Y004304D01*
X007850Y004462D02*
X007755Y004462D01*
X007755Y004621D02*
X007850Y004621D01*
X007850Y004779D02*
X007755Y004779D01*
X007703Y004938D02*
X007850Y004938D01*
X007328Y004938D02*
X007232Y004938D01*
X007232Y004779D02*
X007328Y004779D01*
X007328Y004621D02*
X007232Y004621D01*
X006804Y004304D02*
X006071Y004304D01*
X006193Y004145D02*
X006812Y004145D01*
X006267Y003986D02*
X006228Y003986D01*
X005830Y003981D02*
X005780Y003931D01*
X005780Y003158D01*
X005280Y003158D02*
X005280Y003731D01*
X004830Y004181D01*
X003530Y004181D01*
X003883Y003828D02*
X004816Y003828D01*
X004486Y003669D02*
X003749Y003669D01*
X003907Y003511D02*
X004482Y003511D01*
X004780Y003158D02*
X003530Y003158D01*
X003530Y003181D01*
X003932Y002877D02*
X004482Y002877D01*
X004482Y002718D02*
X003774Y002718D01*
X003859Y002560D02*
X004572Y002560D01*
X004987Y002560D02*
X005072Y002560D01*
X005487Y002560D02*
X005572Y002560D01*
X005991Y001925D02*
X007850Y001925D01*
X007850Y002084D02*
X006200Y002084D01*
X006359Y002242D02*
X007850Y002242D01*
X007850Y002401D02*
X006507Y002401D01*
X006540Y002560D02*
X007850Y002560D01*
X007850Y002718D02*
X006578Y002718D01*
X006578Y002877D02*
X007850Y002877D01*
X007850Y003035D02*
X006578Y003035D01*
X006578Y003194D02*
X007850Y003194D01*
X007850Y001767D02*
X003822Y001767D01*
X003810Y001608D02*
X007850Y001608D01*
X007850Y001450D02*
X003968Y001450D01*
X004030Y001291D02*
X007850Y001291D01*
X007850Y001133D02*
X004030Y001133D01*
X004030Y000974D02*
X007850Y000974D01*
X007850Y000816D02*
X003871Y000816D01*
X002710Y000657D02*
X007850Y000657D01*
X007850Y000499D02*
X002710Y000499D01*
X002710Y000361D02*
X007850Y000361D01*
X007850Y008001D01*
X002710Y008001D01*
X002710Y000361D01*
X005780Y004631D02*
X005780Y005205D01*
X006280Y005205D02*
X006280Y005931D01*
X006030Y006181D01*
X003530Y006181D01*
X003164Y006523D02*
X002710Y006523D01*
X002710Y006682D02*
X003322Y006682D01*
X003164Y006840D02*
X002710Y006840D01*
X002710Y006999D02*
X003030Y006999D01*
X003030Y007157D02*
X002710Y007157D01*
X002710Y007316D02*
X003030Y007316D01*
X003116Y007474D02*
X002710Y007474D01*
X002710Y007633D02*
X003274Y007633D01*
X003785Y007633D02*
X007850Y007633D01*
X007850Y007791D02*
X002710Y007791D01*
X002710Y007950D02*
X007850Y007950D01*
X007850Y007474D02*
X003944Y007474D01*
X004030Y007316D02*
X007850Y007316D01*
X007850Y007157D02*
X004030Y007157D01*
X004030Y006999D02*
X007850Y006999D01*
X006020Y005824D02*
X006020Y005771D01*
X005972Y005818D01*
X005587Y005818D01*
X005530Y005761D01*
X005472Y005818D01*
X005087Y005818D01*
X005030Y005761D01*
X005008Y005782D01*
X004967Y005806D01*
X004922Y005818D01*
X004780Y005818D01*
X004780Y005205D01*
X004780Y005205D01*
X004780Y005818D01*
X004638Y005818D01*
X004592Y005806D01*
X004551Y005782D01*
X004518Y005749D01*
X004494Y005708D01*
X004482Y005662D01*
X004482Y005205D01*
X004482Y004748D01*
X004484Y004741D01*
X004337Y004741D01*
X004030Y005049D01*
X004030Y005389D01*
X003737Y005681D01*
X003323Y005681D01*
X003737Y005681D01*
X003977Y005921D01*
X005922Y005921D01*
X006020Y005824D01*
X005954Y005889D02*
X003944Y005889D01*
X003786Y005730D02*
X004507Y005730D01*
X004482Y005572D02*
X003846Y005572D01*
X004005Y005413D02*
X004482Y005413D01*
X004482Y005255D02*
X004030Y005255D01*
X004030Y005096D02*
X004482Y005096D01*
X004482Y004938D02*
X004141Y004938D01*
X004300Y004779D02*
X004482Y004779D01*
X004482Y005205D02*
X004779Y005205D01*
X004779Y005205D01*
X004482Y005205D01*
X004780Y005255D02*
X004780Y005255D01*
X004780Y005413D02*
X004780Y005413D01*
X004780Y005572D02*
X004780Y005572D01*
X004780Y005730D02*
X004780Y005730D01*
X003274Y005730D02*
X002710Y005730D01*
X002710Y005572D02*
X003213Y005572D01*
X003055Y005413D02*
X002710Y005413D01*
X002710Y005255D02*
X003030Y005255D01*
X003030Y005096D02*
X002710Y005096D01*
X002710Y004938D02*
X003066Y004938D01*
X003115Y005889D02*
X002710Y005889D01*
X002710Y006048D02*
X003030Y006048D01*
X003030Y006206D02*
X002710Y006206D01*
X002710Y006365D02*
X003030Y006365D01*
D15*
X004230Y005681D03*
D16*
X005830Y003981D03*
M02*
