%
M48
M72
T01C0.0236
T02C0.0315
T03C0.0354
T04C0.1260
%
T01
X7544Y3810
X9906Y3810
X4788Y6566
X4788Y8141
X6363Y8929
X8644Y10167
X8644Y11167
X8644Y10667
X8394Y12167
X8394Y12667
X6363Y12472
X4788Y13259
X4788Y14834
X7150Y15621
X8894Y15667
X9644Y15667
X9644Y15167
X9906Y17590
X7544Y17590
X10190Y12364
X6269Y10667
X4894Y10667
T02
X9644Y9765
X10894Y10167
X11894Y10167
X11894Y11167
X10894Y11167
X9644Y10765
X9644Y11765
X10894Y12167
X11894Y12167
X11894Y13167
X10894Y13167
X10894Y14167
X11894Y14167
X11894Y15167
X10894Y15167
X10894Y16167
X11894Y16167
X13894Y15167
X14894Y15167
X15894Y15167
X16894Y15167
X17894Y15167
X18894Y15167
X19894Y15167
X20894Y15167
X21894Y15167
X22894Y15167
X23894Y15167
X24894Y15167
X24894Y14167
X23894Y14167
X22894Y14167
X21894Y14167
X20894Y14167
X19894Y14167
X18894Y14167
X17894Y14167
X16894Y14167
X15894Y14167
X14894Y14167
X13894Y14167
X13894Y13167
X14894Y13167
X15894Y13167
X16894Y13167
X17894Y13167
X18894Y13167
X19894Y13167
X20894Y13167
X21894Y13167
X22894Y13167
X23894Y13167
X24894Y13167
X24894Y12167
X23894Y12167
X22894Y12167
X21894Y12167
X20894Y12167
X19894Y12167
X18894Y12167
X17894Y12167
X16894Y12167
X15894Y12167
X14894Y12167
X13894Y12167
X13894Y11167
X14894Y11167
X15894Y11167
X16894Y11167
X17894Y11167
X18894Y11167
X19894Y11167
X20894Y11167
X21894Y11167
X22894Y11167
X23894Y11167
X24894Y11167
X24894Y10167
X23894Y10167
X22894Y10167
X21894Y10167
X20894Y10167
X19894Y10167
X18894Y10167
X17894Y10167
X16894Y10167
X15894Y10167
X14894Y10167
X13894Y10167
X13894Y9167
X14894Y9167
X15894Y9167
X16894Y9167
X17894Y9167
X18894Y9167
X19894Y9167
X20894Y9167
X21894Y9167
X22894Y9167
X23894Y9167
X24894Y9167
X24894Y8167
X23894Y8167
X22894Y8167
X21894Y8167
X20894Y8167
X19894Y8167
X18894Y8167
X17894Y8167
X16894Y8167
X15894Y8167
X14894Y8167
X13894Y8167
X13894Y7167
X14894Y7167
X15894Y7167
X16894Y7167
X17894Y7167
X18894Y7167
X19894Y7167
X20894Y7167
X21894Y7167
X22894Y7167
X23894Y7167
X24894Y7167
X24894Y6167
X23894Y6167
X22894Y6167
X21894Y6167
X20894Y6167
X19894Y6167
X18894Y6167
X17894Y6167
X16894Y6167
X15894Y6167
X14894Y6167
X13894Y6167
X11894Y6167
X10894Y6167
X9644Y6765
X8644Y6765
X7644Y6765
X6644Y6765
X5644Y6765
X5644Y7765
X6644Y7765
X7644Y7765
X8644Y7765
X9644Y7765
X10894Y8167
X11894Y8167
X11894Y9167
X10894Y9167
X9644Y8765
X10894Y7167
X11894Y7167
X11894Y5167
X10894Y5167
T03
X6461Y11566
X6461Y9834
T04
X5969Y16409
X26442Y16409
X26442Y4991
X5969Y4991
M30
