G75*
G70*
%OFA0B0*%
%FSLAX24Y24*%
%IPPOS*%
%LPD*%
%AMOC8*
5,1,8,0,0,1.08239X$1,22.5*
%
%ADD10C,0.1300*%
%ADD11C,0.0394*%
%ADD12R,0.0555X0.0555*%
%ADD13C,0.0555*%
%ADD14R,0.0631X0.0631*%
D10*
X005969Y004991D03*
X005969Y016409D03*
X026442Y016409D03*
X026442Y004991D03*
D11*
X006461Y009834D03*
X006461Y011566D03*
D12*
X009644Y011765D03*
X009644Y008765D03*
X005644Y007765D03*
X005644Y006765D03*
D13*
X006644Y006765D03*
X007644Y006765D03*
X008644Y006765D03*
X009644Y006765D03*
X009644Y007765D03*
X008644Y007765D03*
X007644Y007765D03*
X006644Y007765D03*
X009644Y009765D03*
X009644Y010765D03*
D14*
X010894Y011167D03*
X011894Y011167D03*
X011894Y012167D03*
X010894Y012167D03*
X010894Y013167D03*
X011894Y013167D03*
X011894Y014167D03*
X010894Y014167D03*
X010894Y015167D03*
X011894Y015167D03*
X011894Y016167D03*
X010894Y016167D03*
X013894Y015167D03*
X014894Y015167D03*
X015894Y015167D03*
X016894Y015167D03*
X017894Y015167D03*
X018894Y015167D03*
X019894Y015167D03*
X020894Y015167D03*
X021894Y015167D03*
X022894Y015167D03*
X023894Y015167D03*
X024894Y015167D03*
X024894Y014167D03*
X023894Y014167D03*
X022894Y014167D03*
X021894Y014167D03*
X020894Y014167D03*
X019894Y014167D03*
X018894Y014167D03*
X017894Y014167D03*
X016894Y014167D03*
X015894Y014167D03*
X014894Y014167D03*
X013894Y014167D03*
X013894Y013167D03*
X014894Y013167D03*
X015894Y013167D03*
X016894Y013167D03*
X017894Y013167D03*
X018894Y013167D03*
X019894Y013167D03*
X020894Y013167D03*
X021894Y013167D03*
X022894Y013167D03*
X023894Y013167D03*
X024894Y013167D03*
X024894Y012167D03*
X023894Y012167D03*
X022894Y012167D03*
X021894Y012167D03*
X020894Y012167D03*
X019894Y012167D03*
X018894Y012167D03*
X017894Y012167D03*
X016894Y012167D03*
X015894Y012167D03*
X014894Y012167D03*
X013894Y012167D03*
X013894Y011167D03*
X014894Y011167D03*
X015894Y011167D03*
X016894Y011167D03*
X017894Y011167D03*
X018894Y011167D03*
X019894Y011167D03*
X020894Y011167D03*
X021894Y011167D03*
X022894Y011167D03*
X023894Y011167D03*
X024894Y011167D03*
X024894Y010167D03*
X023894Y010167D03*
X022894Y010167D03*
X021894Y010167D03*
X020894Y010167D03*
X019894Y010167D03*
X018894Y010167D03*
X017894Y010167D03*
X016894Y010167D03*
X015894Y010167D03*
X014894Y010167D03*
X013894Y010167D03*
X013894Y009167D03*
X014894Y009167D03*
X015894Y009167D03*
X016894Y009167D03*
X017894Y009167D03*
X018894Y009167D03*
X019894Y009167D03*
X020894Y009167D03*
X021894Y009167D03*
X022894Y009167D03*
X023894Y009167D03*
X024894Y009167D03*
X024894Y008167D03*
X023894Y008167D03*
X022894Y008167D03*
X021894Y008167D03*
X020894Y008167D03*
X019894Y008167D03*
X018894Y008167D03*
X017894Y008167D03*
X016894Y008167D03*
X015894Y008167D03*
X014894Y008167D03*
X013894Y008167D03*
X013894Y007167D03*
X014894Y007167D03*
X015894Y007167D03*
X016894Y007167D03*
X017894Y007167D03*
X018894Y007167D03*
X019894Y007167D03*
X020894Y007167D03*
X021894Y007167D03*
X022894Y007167D03*
X023894Y007167D03*
X024894Y007167D03*
X024894Y006167D03*
X023894Y006167D03*
X022894Y006167D03*
X021894Y006167D03*
X020894Y006167D03*
X019894Y006167D03*
X018894Y006167D03*
X017894Y006167D03*
X016894Y006167D03*
X015894Y006167D03*
X014894Y006167D03*
X013894Y006167D03*
X011894Y006167D03*
X010894Y006167D03*
X010894Y007167D03*
X011894Y007167D03*
X011894Y008167D03*
X010894Y008167D03*
X010894Y009167D03*
X011894Y009167D03*
X011894Y010167D03*
X010894Y010167D03*
X010894Y005167D03*
X011894Y005167D03*
M02*
