G04 EAGLE Gerber RS-274X export*
G75*
%MOMM*%
%FSLAX34Y34*%
%LPD*%
%INSoldermask Top*%
%IPPOS*%
%AMOC8*
5,1,8,0,0,1.08239X$1,22.5*%
G01*
%ADD10R,2.103200X0.753200*%
%ADD11R,0.753200X2.103200*%
%ADD12R,11.703200X0.753200*%
%ADD13R,0.753200X11.703200*%
%ADD14R,0.753200X10.903200*%
%ADD15R,0.753200X10.103200*%
%ADD16R,10.103200X0.753200*%
%ADD17R,9.303200X0.753200*%
%ADD18R,0.753200X9.303200*%
%ADD19R,0.753200X8.503200*%
%ADD20R,8.503200X0.753200*%
%ADD21R,7.703200X0.753200*%
%ADD22R,0.753200X7.703200*%
%ADD23R,10.903200X0.753200*%
%ADD24R,6.903200X0.753200*%
%ADD25R,0.753200X6.903200*%
%ADD26R,0.753200X6.103200*%
%ADD27R,6.103200X0.753200*%
%ADD28R,5.303200X0.753200*%
%ADD29R,0.753200X5.303200*%
%ADD30R,0.753200X4.503200*%
%ADD31R,4.503200X0.753200*%
%ADD32R,3.703200X0.753200*%
%ADD33R,0.753200X3.703200*%
%ADD34R,2.903200X0.753200*%
%ADD35R,0.753200X2.903200*%
%ADD36P,1.979475X8X22.500000*%
%ADD37P,1.979475X8X112.500000*%
%ADD38P,1.979475X8X202.500000*%
%ADD39P,1.979475X8X292.500000*%
%ADD40R,1.503200X1.703200*%


D10*
X105640Y167640D03*
X105640Y175640D03*
X105640Y183640D03*
X105640Y191640D03*
X105640Y199640D03*
X105640Y207640D03*
X105640Y127640D03*
X105640Y135640D03*
X105640Y143640D03*
X105640Y151640D03*
X105640Y159640D03*
D11*
X127640Y105640D03*
X135640Y105640D03*
X143640Y105640D03*
X151640Y105640D03*
X159640Y105640D03*
X167640Y105640D03*
X183640Y105640D03*
X175640Y105640D03*
X191640Y105640D03*
X199640Y105640D03*
X207640Y105640D03*
X215640Y105640D03*
X223640Y105640D03*
X231640Y105640D03*
X239640Y105640D03*
X247640Y105640D03*
X255640Y105640D03*
X263640Y105640D03*
X271640Y105640D03*
X279640Y105640D03*
D10*
X301640Y279640D03*
X105640Y215640D03*
X105640Y223640D03*
X105640Y231640D03*
X105640Y239640D03*
X105640Y247640D03*
X105640Y255640D03*
X105640Y263640D03*
X105640Y279640D03*
X105640Y271640D03*
D11*
X279640Y301640D03*
D12*
X253640Y127640D03*
X253640Y183640D03*
X253640Y135640D03*
X253640Y143640D03*
X253640Y151640D03*
X253640Y159640D03*
X253640Y167640D03*
X253640Y175640D03*
D13*
X135640Y253640D03*
X183640Y253640D03*
X175640Y253640D03*
X167640Y253640D03*
X159640Y253640D03*
X151640Y253640D03*
X143640Y253640D03*
X127640Y253640D03*
D14*
X191640Y257640D03*
D15*
X199640Y261640D03*
D16*
X261640Y199640D03*
D17*
X265640Y207640D03*
D18*
X207640Y265640D03*
D19*
X215640Y269640D03*
D20*
X269640Y215640D03*
D21*
X273640Y223640D03*
D22*
X223640Y273640D03*
D23*
X257640Y191640D03*
D24*
X277640Y231640D03*
D25*
X231640Y277640D03*
D26*
X239640Y281640D03*
D27*
X281640Y239640D03*
D28*
X285640Y247640D03*
D29*
X247640Y285640D03*
D30*
X255640Y289640D03*
D31*
X289640Y255640D03*
D32*
X293640Y263640D03*
D33*
X263640Y293640D03*
D34*
X297640Y271640D03*
D35*
X271640Y297640D03*
D36*
X88900Y38100D03*
X88900Y12700D03*
X114300Y38100D03*
X114300Y12700D03*
X139700Y38100D03*
X139700Y12700D03*
X165100Y38100D03*
X165100Y12700D03*
X190500Y38100D03*
X190500Y12700D03*
X215900Y38100D03*
X215900Y12700D03*
X241300Y38100D03*
X241300Y12700D03*
X266700Y38100D03*
X266700Y12700D03*
X292100Y38100D03*
X292100Y12700D03*
X317500Y38100D03*
X317500Y12700D03*
D37*
X368300Y88900D03*
X393700Y88900D03*
X368300Y114300D03*
X393700Y114300D03*
X368300Y139700D03*
X393700Y139700D03*
X368300Y165100D03*
X393700Y165100D03*
X368300Y190500D03*
X393700Y190500D03*
X368300Y215900D03*
X393700Y215900D03*
X368300Y241300D03*
X393700Y241300D03*
X368300Y266700D03*
X393700Y266700D03*
X368300Y292100D03*
X393700Y292100D03*
X368300Y317500D03*
X393700Y317500D03*
D38*
X317500Y368300D03*
X317500Y393700D03*
X292100Y368300D03*
X292100Y393700D03*
X266700Y368300D03*
X266700Y393700D03*
X241300Y368300D03*
X241300Y393700D03*
X215900Y368300D03*
X215900Y393700D03*
X190500Y368300D03*
X190500Y393700D03*
X165100Y368300D03*
X165100Y393700D03*
X139700Y368300D03*
X139700Y393700D03*
X114300Y368300D03*
X114300Y393700D03*
X88900Y368300D03*
X88900Y393700D03*
D39*
X38100Y317500D03*
X12700Y317500D03*
X38100Y292100D03*
X12700Y292100D03*
X38100Y266700D03*
X12700Y266700D03*
X38100Y241300D03*
X12700Y241300D03*
X38100Y215900D03*
X12700Y215900D03*
X38100Y190500D03*
X12700Y190500D03*
X38100Y165100D03*
X12700Y165100D03*
X38100Y139700D03*
X12700Y139700D03*
X38100Y114300D03*
X12700Y114300D03*
X38100Y88900D03*
X12700Y88900D03*
D40*
G36*
X61768Y49725D02*
X51139Y39096D01*
X39096Y51139D01*
X49725Y61768D01*
X61768Y49725D01*
G37*
G36*
X75204Y63161D02*
X64575Y52532D01*
X52532Y64575D01*
X63161Y75204D01*
X75204Y63161D01*
G37*
D36*
X35560Y35560D03*
X78740Y78740D03*
D40*
G36*
X64575Y353868D02*
X75204Y343239D01*
X63161Y331196D01*
X52532Y341825D01*
X64575Y353868D01*
G37*
G36*
X51139Y367304D02*
X61768Y356675D01*
X49725Y344632D01*
X39096Y355261D01*
X51139Y367304D01*
G37*
D36*
X78740Y327660D03*
X35560Y370840D03*
D40*
G36*
X341825Y52532D02*
X331196Y63161D01*
X343239Y75204D01*
X353868Y64575D01*
X341825Y52532D01*
G37*
G36*
X355261Y39096D02*
X344632Y49725D01*
X356675Y61768D01*
X367304Y51139D01*
X355261Y39096D01*
G37*
D36*
X327660Y78740D03*
X370840Y35560D03*
D40*
G36*
X353868Y341825D02*
X343239Y331196D01*
X331196Y343239D01*
X341825Y353868D01*
X353868Y341825D01*
G37*
G36*
X367304Y355261D02*
X356675Y344632D01*
X344632Y356675D01*
X355261Y367304D01*
X367304Y355261D01*
G37*
D36*
X327660Y327660D03*
X370840Y370840D03*
M02*
