G75*
G70*
%OFA0B0*%
%FSLAX24Y24*%
%IPPOS*%
%LPD*%
%AMOC8*
5,1,8,0,0,1.08239X$1,22.5*
%
%ADD10OC8,0.0640*%
%ADD11R,0.0709X0.0787*%
%ADD12R,0.0630X0.0460*%
%ADD13R,0.0394X0.0433*%
%ADD14R,0.0555X0.0555*%
%ADD15C,0.0555*%
%ADD16C,0.0120*%
%ADD17C,0.0350*%
%ADD18C,0.0160*%
D10*
X001161Y001161D03*
X002161Y001161D03*
X003161Y001161D03*
X004161Y001161D03*
X005161Y001161D03*
X006161Y001161D03*
X007161Y001161D03*
X008161Y001161D03*
X009161Y001161D03*
X010161Y001161D03*
X011161Y001161D03*
X012161Y001161D03*
X013161Y001161D03*
X014161Y001161D03*
X015161Y001161D03*
X016161Y001161D03*
X017161Y001161D03*
X018161Y001161D03*
X019161Y001161D03*
X020161Y001161D03*
X020161Y002811D03*
X020161Y003811D03*
X020161Y004811D03*
X020161Y005811D03*
X020161Y006811D03*
X020161Y007811D03*
X020161Y011161D03*
X019161Y011161D03*
X018161Y011161D03*
X017161Y011161D03*
X016161Y011161D03*
X015161Y011161D03*
X014161Y011161D03*
X013161Y011161D03*
X012161Y011161D03*
X011161Y011161D03*
X010161Y011161D03*
X009161Y011161D03*
X008161Y011161D03*
X007161Y011161D03*
X006161Y011161D03*
X005161Y011161D03*
X004161Y011161D03*
X003161Y011161D03*
X002161Y011161D03*
X001161Y011161D03*
D11*
X003861Y005288D03*
X005861Y005288D03*
X005861Y003634D03*
X003861Y003634D03*
D12*
X007161Y003661D03*
X007161Y003061D03*
D13*
X002861Y003627D03*
X002861Y004296D03*
D14*
X015361Y009261D03*
D15*
X014361Y009261D03*
D16*
X000591Y011731D02*
X000591Y000591D01*
X020731Y000591D01*
X020731Y011731D01*
X000591Y011731D01*
X000591Y011660D02*
X000953Y011660D01*
X000954Y011661D02*
X000661Y011368D01*
X000661Y010954D01*
X000954Y010661D01*
X001368Y010661D01*
X001661Y010954D01*
X001661Y011368D01*
X001368Y011661D01*
X000954Y011661D01*
X000834Y011541D02*
X000591Y011541D01*
X000591Y011423D02*
X000716Y011423D01*
X000661Y011304D02*
X000591Y011304D01*
X000591Y011186D02*
X000661Y011186D01*
X000661Y011067D02*
X000591Y011067D01*
X000591Y010949D02*
X000667Y010949D01*
X000591Y010830D02*
X000785Y010830D01*
X000904Y010712D02*
X000591Y010712D01*
X000591Y010593D02*
X014942Y010593D01*
X014914Y010582D02*
X015010Y010621D01*
X017254Y010621D01*
X017294Y010661D01*
X016954Y010661D01*
X016661Y010954D01*
X016368Y010661D01*
X015954Y010661D01*
X015661Y010954D01*
X015368Y010661D01*
X014954Y010661D01*
X014661Y010954D01*
X014368Y010661D01*
X013954Y010661D01*
X013661Y010954D01*
X013368Y010661D01*
X012954Y010661D01*
X012661Y010954D01*
X012368Y010661D01*
X011954Y010661D01*
X011661Y010954D01*
X011368Y010661D01*
X010954Y010661D01*
X010661Y010954D01*
X010368Y010661D01*
X009954Y010661D01*
X009661Y010954D01*
X009368Y010661D01*
X008954Y010661D01*
X008661Y010954D01*
X008368Y010661D01*
X007954Y010661D01*
X007661Y010954D01*
X007368Y010661D01*
X006954Y010661D01*
X006661Y010954D01*
X006368Y010661D01*
X005954Y010661D01*
X005661Y010954D01*
X005368Y010661D01*
X004954Y010661D01*
X004661Y010954D01*
X004368Y010661D01*
X003954Y010661D01*
X003661Y010954D01*
X003368Y010661D01*
X002954Y010661D01*
X002661Y010954D01*
X002368Y010661D01*
X001954Y010661D01*
X001661Y010954D01*
X001661Y011368D01*
X001954Y011661D01*
X002368Y011661D01*
X002661Y011368D01*
X002661Y010954D01*
X002661Y011368D01*
X002954Y011661D01*
X003368Y011661D01*
X003661Y011368D01*
X003661Y010954D01*
X003661Y011368D01*
X003954Y011661D01*
X004368Y011661D01*
X004661Y011368D01*
X004661Y010954D01*
X004661Y011368D01*
X004954Y011661D01*
X005368Y011661D01*
X005661Y011368D01*
X005661Y010954D01*
X005661Y011368D01*
X005954Y011661D01*
X006368Y011661D01*
X006661Y011368D01*
X006661Y010954D01*
X006661Y011368D01*
X006954Y011661D01*
X007368Y011661D01*
X007661Y011368D01*
X007661Y010954D01*
X007661Y011368D01*
X007954Y011661D01*
X008368Y011661D01*
X008661Y011368D01*
X008661Y010954D01*
X008661Y011368D01*
X008954Y011661D01*
X009368Y011661D01*
X009661Y011368D01*
X009661Y010954D01*
X009661Y011368D01*
X009954Y011661D01*
X010368Y011661D01*
X010661Y011368D01*
X010661Y010954D01*
X010661Y011368D01*
X010954Y011661D01*
X011368Y011661D01*
X011661Y011368D01*
X011661Y010954D01*
X011661Y011368D01*
X011954Y011661D01*
X012368Y011661D01*
X012661Y011368D01*
X012661Y010954D01*
X012661Y011368D01*
X012954Y011661D01*
X013368Y011661D01*
X013661Y011368D01*
X013661Y010954D01*
X013661Y011368D01*
X013954Y011661D01*
X014368Y011661D01*
X014661Y011368D01*
X014661Y010954D01*
X014661Y011368D01*
X014954Y011661D01*
X015368Y011661D01*
X015661Y011368D01*
X015661Y010954D01*
X015661Y011368D01*
X015954Y011661D01*
X016368Y011661D01*
X016661Y011368D01*
X016661Y010954D01*
X016661Y011368D01*
X016954Y011661D01*
X017368Y011661D01*
X017661Y011368D01*
X017661Y011029D01*
X017661Y011029D01*
X017661Y011368D01*
X017954Y011661D01*
X018368Y011661D01*
X018661Y011368D01*
X018661Y010954D01*
X018368Y010661D01*
X018029Y010661D01*
X017621Y010254D01*
X017621Y008321D01*
X019210Y008321D01*
X019313Y008321D01*
X019409Y008282D01*
X019569Y008121D01*
X019764Y008121D01*
X019954Y008311D01*
X020368Y008311D01*
X020661Y008018D01*
X020661Y007604D01*
X020368Y007311D01*
X019954Y007311D01*
X019664Y007601D01*
X019410Y007601D01*
X019314Y007641D01*
X019241Y007714D01*
X019154Y007801D01*
X018961Y007801D01*
X019046Y007716D01*
X019132Y007716D01*
X019262Y007662D01*
X019362Y007562D01*
X019416Y007432D01*
X019416Y007291D01*
X019362Y007160D01*
X019262Y007060D01*
X019132Y007006D01*
X018991Y007006D01*
X018860Y007060D01*
X018760Y007160D01*
X018706Y007291D01*
X018706Y007377D01*
X018562Y007521D01*
X012416Y007521D01*
X012416Y007491D01*
X012362Y007360D01*
X012262Y007260D01*
X012132Y007206D01*
X011991Y007206D01*
X011860Y007260D01*
X011760Y007360D01*
X011706Y007491D01*
X011706Y007632D01*
X011760Y007762D01*
X011799Y007801D01*
X010369Y007801D01*
X010016Y007449D01*
X010016Y007391D01*
X009987Y007321D01*
X010619Y007321D01*
X010660Y007362D01*
X010791Y007416D01*
X010932Y007416D01*
X011062Y007362D01*
X011103Y007321D01*
X011210Y007321D01*
X011313Y007321D01*
X011409Y007282D01*
X011809Y006882D01*
X011882Y006809D01*
X011921Y006713D01*
X011921Y005713D01*
X011921Y005610D01*
X011882Y005514D01*
X011421Y005054D01*
X011421Y005013D01*
X011421Y004987D01*
X011491Y005016D01*
X011632Y005016D01*
X011762Y004962D01*
X011862Y004862D01*
X011911Y004744D01*
X011960Y004862D01*
X012060Y004962D01*
X012191Y005016D01*
X012332Y005016D01*
X012462Y004962D01*
X012521Y004903D01*
X018911Y004950D01*
X019661Y005701D01*
X019661Y006018D01*
X019954Y006311D01*
X020368Y006311D01*
X020661Y006018D01*
X020661Y005604D01*
X020368Y005311D01*
X019954Y005311D01*
X019661Y005018D01*
X019661Y004604D01*
X019954Y004311D01*
X019694Y004051D01*
X018914Y004051D01*
X012461Y004100D01*
X012256Y004306D01*
X012332Y004306D01*
X012462Y004360D01*
X012525Y004423D01*
X019013Y004471D01*
X019059Y004471D01*
X019060Y004472D01*
X019061Y004472D01*
X019103Y004490D01*
X019147Y004508D01*
X019148Y004508D01*
X019149Y004509D01*
X019181Y004542D01*
X019952Y005313D01*
X019954Y005311D01*
X020368Y005311D01*
X020661Y005018D01*
X020661Y004604D01*
X020368Y004311D01*
X019954Y004311D01*
X020368Y004311D01*
X020661Y004018D01*
X020661Y003604D01*
X020368Y003311D01*
X019954Y003311D01*
X019694Y003051D01*
X019611Y003051D01*
X019097Y003565D01*
X019081Y003571D01*
X019694Y003571D01*
X019954Y003311D01*
X020368Y003311D01*
X020661Y003018D01*
X020661Y002604D01*
X020368Y002311D01*
X019954Y002311D01*
X019694Y002571D01*
X019559Y002571D01*
X019464Y002571D01*
X019375Y002608D01*
X018862Y003121D01*
X012634Y003121D01*
X012616Y003109D01*
X012616Y003091D01*
X012562Y002960D01*
X012462Y002860D01*
X012332Y002806D01*
X012199Y002806D01*
X012584Y002421D01*
X017810Y002421D01*
X017913Y002421D01*
X018009Y002382D01*
X018382Y002009D01*
X018421Y001913D01*
X018421Y001810D01*
X018421Y001608D01*
X018661Y001368D01*
X018661Y000954D01*
X018368Y000661D01*
X017954Y000661D01*
X017661Y000954D01*
X017368Y000661D01*
X016954Y000661D01*
X016661Y000954D01*
X016368Y000661D01*
X015954Y000661D01*
X015661Y000954D01*
X015368Y000661D01*
X014954Y000661D01*
X014661Y000954D01*
X014368Y000661D01*
X013954Y000661D01*
X013661Y000954D01*
X013368Y000661D01*
X012954Y000661D01*
X012661Y000954D01*
X012368Y000661D01*
X011954Y000661D01*
X011661Y000954D01*
X011368Y000661D01*
X010954Y000661D01*
X010661Y000954D01*
X010368Y000661D01*
X009954Y000661D01*
X009661Y000954D01*
X009368Y000661D01*
X008954Y000661D01*
X008661Y000954D01*
X008368Y000661D01*
X007954Y000661D01*
X007661Y000954D01*
X007661Y001368D01*
X007421Y001608D01*
X007421Y002651D01*
X007551Y002651D01*
X007656Y002757D01*
X007656Y003366D01*
X007656Y003966D01*
X007551Y004071D01*
X006772Y004071D01*
X006666Y003966D01*
X006666Y003911D01*
X006396Y003906D01*
X006396Y004103D01*
X006290Y004208D01*
X005432Y004208D01*
X005327Y004103D01*
X005327Y003166D01*
X005432Y003061D01*
X006290Y003061D01*
X006396Y003166D01*
X006396Y003385D01*
X006666Y003391D01*
X006666Y003366D01*
X006666Y002757D01*
X006772Y002651D01*
X006901Y002651D01*
X006901Y001608D01*
X006661Y001368D01*
X006368Y001661D01*
X005954Y001661D01*
X005661Y001368D01*
X005368Y001661D01*
X004954Y001661D01*
X004661Y001368D01*
X004368Y001661D01*
X003954Y001661D01*
X003661Y001368D01*
X003368Y001661D01*
X002954Y001661D01*
X002661Y001368D01*
X002368Y001661D01*
X001954Y001661D01*
X001661Y001368D01*
X001368Y001661D01*
X000954Y001661D01*
X000661Y001368D01*
X000661Y000954D01*
X000954Y000661D01*
X001368Y000661D01*
X001661Y000954D01*
X001661Y001368D01*
X001661Y000954D01*
X001954Y000661D01*
X002368Y000661D01*
X002661Y000954D01*
X002661Y001368D01*
X002661Y000954D01*
X002954Y000661D01*
X003368Y000661D01*
X003661Y000954D01*
X003661Y001368D01*
X003661Y000954D01*
X003954Y000661D01*
X004368Y000661D01*
X004661Y000954D01*
X004661Y001368D01*
X004661Y000954D01*
X004954Y000661D01*
X005368Y000661D01*
X005661Y000954D01*
X005661Y001368D01*
X005661Y000954D01*
X005954Y000661D01*
X006368Y000661D01*
X006661Y000954D01*
X006661Y001368D01*
X006661Y000954D01*
X006954Y000661D01*
X007368Y000661D01*
X007661Y000954D01*
X007661Y001368D01*
X007954Y001661D01*
X008368Y001661D01*
X008661Y001368D01*
X008661Y000954D01*
X008661Y001368D01*
X008954Y001661D01*
X009368Y001661D01*
X009661Y001368D01*
X009661Y000954D01*
X009661Y001368D01*
X009954Y001661D01*
X010368Y001661D01*
X010661Y001368D01*
X010661Y000954D01*
X010661Y001368D01*
X010954Y001661D01*
X011368Y001661D01*
X011661Y001368D01*
X011661Y000954D01*
X011661Y001368D01*
X011954Y001661D01*
X012368Y001661D01*
X012661Y001368D01*
X012661Y000954D01*
X012661Y001368D01*
X012954Y001661D01*
X013368Y001661D01*
X013661Y001368D01*
X013661Y000954D01*
X013661Y001368D01*
X013954Y001661D01*
X014368Y001661D01*
X014661Y001368D01*
X014661Y000954D01*
X014661Y001368D01*
X014954Y001661D01*
X015368Y001661D01*
X015661Y001368D01*
X015661Y000954D01*
X015661Y001368D01*
X015954Y001661D01*
X016368Y001661D01*
X016661Y001368D01*
X016661Y000954D01*
X016661Y001368D01*
X016954Y001661D01*
X017368Y001661D01*
X017661Y001368D01*
X017661Y000954D01*
X017661Y001368D01*
X017901Y001608D01*
X017901Y001754D01*
X017754Y001901D01*
X012424Y001901D01*
X012329Y001941D01*
X012256Y002014D01*
X012256Y002014D01*
X010829Y003441D01*
X010756Y003514D01*
X010716Y003610D01*
X010716Y004504D01*
X010660Y004560D01*
X010606Y004691D01*
X010606Y004832D01*
X010660Y004962D01*
X010760Y005062D01*
X010891Y005116D01*
X010901Y005116D01*
X010901Y005213D01*
X010941Y005309D01*
X011014Y005382D01*
X011401Y005769D01*
X011401Y006554D01*
X011154Y006801D01*
X011103Y006801D01*
X011062Y006760D01*
X010932Y006706D01*
X010791Y006706D01*
X010660Y006760D01*
X010619Y006801D01*
X010368Y006801D01*
X010462Y006762D01*
X010562Y006662D01*
X010616Y006532D01*
X010616Y006391D01*
X010562Y006260D01*
X010462Y006160D01*
X010332Y006106D01*
X010191Y006106D01*
X010060Y006160D01*
X009960Y006260D01*
X009906Y006391D01*
X009906Y006421D01*
X006673Y006421D01*
X006612Y006360D01*
X006482Y006306D01*
X006341Y006306D01*
X006210Y006360D01*
X006110Y006460D01*
X006056Y006591D01*
X006056Y006732D01*
X006085Y006801D01*
X005103Y006801D01*
X005062Y006760D01*
X004932Y006706D01*
X004874Y006706D01*
X004121Y005954D01*
X004121Y005862D01*
X004290Y005862D01*
X004396Y005756D01*
X004396Y004820D01*
X004290Y004714D01*
X004121Y004714D01*
X004121Y004208D01*
X004290Y004208D01*
X004396Y004103D01*
X004396Y003166D01*
X004290Y003061D01*
X003432Y003061D01*
X003327Y003166D01*
X003327Y003367D01*
X003238Y003367D01*
X003238Y003336D01*
X003133Y003230D01*
X002590Y003230D01*
X002484Y003336D01*
X002484Y003918D01*
X002542Y003975D01*
X002536Y003981D01*
X002515Y004018D01*
X002504Y004058D01*
X002504Y004257D01*
X002823Y004257D01*
X002823Y004334D01*
X002504Y004334D01*
X002504Y004534D01*
X002515Y004574D01*
X002536Y004611D01*
X002566Y004640D01*
X002603Y004661D01*
X002643Y004672D01*
X002823Y004672D01*
X002823Y004335D01*
X002900Y004335D01*
X002900Y004672D01*
X003079Y004672D01*
X003120Y004661D01*
X003156Y004640D01*
X003186Y004611D01*
X003207Y004574D01*
X003218Y004534D01*
X003218Y004334D01*
X002900Y004334D01*
X002900Y004257D01*
X003218Y004257D01*
X003218Y004058D01*
X003207Y004018D01*
X003186Y003981D01*
X003180Y003975D01*
X003238Y003918D01*
X003238Y003887D01*
X003327Y003887D01*
X003327Y004103D01*
X003432Y004208D01*
X003601Y004208D01*
X003601Y004714D01*
X003432Y004714D01*
X003327Y004820D01*
X003327Y005756D01*
X003432Y005862D01*
X003601Y005862D01*
X003601Y006010D01*
X003601Y006113D01*
X003641Y006209D01*
X004506Y007074D01*
X004506Y007132D01*
X004560Y007262D01*
X004660Y007362D01*
X004791Y007416D01*
X004932Y007416D01*
X005062Y007362D01*
X005103Y007321D01*
X009001Y007321D01*
X009001Y008113D01*
X009041Y008209D01*
X009114Y008282D01*
X009514Y008682D01*
X009610Y008721D01*
X009713Y008721D01*
X015054Y008721D01*
X015136Y008804D01*
X015009Y008804D01*
X014904Y008909D01*
X014904Y009613D01*
X015009Y009719D01*
X015713Y009719D01*
X015819Y009613D01*
X015819Y008909D01*
X015713Y008804D01*
X015671Y008804D01*
X015671Y008660D01*
X015632Y008564D01*
X015559Y008491D01*
X015558Y008491D01*
X015389Y008321D01*
X017101Y008321D01*
X017101Y010101D01*
X015169Y010101D01*
X014671Y009604D01*
X014671Y009598D01*
X014749Y009520D01*
X014819Y009352D01*
X014819Y009170D01*
X014749Y009002D01*
X014620Y008873D01*
X014452Y008804D01*
X014270Y008804D01*
X014102Y008873D01*
X013973Y009002D01*
X013904Y009170D01*
X013904Y009352D01*
X013924Y009401D01*
X006269Y009401D01*
X003421Y006554D01*
X003421Y006403D01*
X003462Y006362D01*
X003516Y006232D01*
X003516Y006091D01*
X003462Y005960D01*
X003362Y005860D01*
X003232Y005806D01*
X003091Y005806D01*
X002960Y005860D01*
X002860Y005960D01*
X002806Y006091D01*
X002806Y006232D01*
X002860Y006362D01*
X002901Y006403D01*
X002901Y006610D01*
X002901Y006713D01*
X002941Y006809D01*
X005941Y009809D01*
X006014Y009882D01*
X006110Y009921D01*
X014254Y009921D01*
X014841Y010509D01*
X014914Y010582D01*
X014904Y010712D02*
X014419Y010712D01*
X014537Y010830D02*
X014785Y010830D01*
X014667Y010949D02*
X014656Y010949D01*
X014661Y011067D02*
X014661Y011067D01*
X014661Y011186D02*
X014661Y011186D01*
X014661Y011304D02*
X014661Y011304D01*
X014607Y011423D02*
X014716Y011423D01*
X014834Y011541D02*
X014488Y011541D01*
X014370Y011660D02*
X014953Y011660D01*
X015370Y011660D02*
X015953Y011660D01*
X015834Y011541D02*
X015488Y011541D01*
X015607Y011423D02*
X015716Y011423D01*
X015661Y011304D02*
X015661Y011304D01*
X015661Y011186D02*
X015661Y011186D01*
X015661Y011067D02*
X015661Y011067D01*
X015656Y010949D02*
X015667Y010949D01*
X015785Y010830D02*
X015537Y010830D01*
X015419Y010712D02*
X015904Y010712D01*
X016419Y010712D02*
X016904Y010712D01*
X016785Y010830D02*
X016537Y010830D01*
X016656Y010949D02*
X016667Y010949D01*
X016661Y011067D02*
X016661Y011067D01*
X016661Y011186D02*
X016661Y011186D01*
X016661Y011304D02*
X016661Y011304D01*
X016607Y011423D02*
X016716Y011423D01*
X016834Y011541D02*
X016488Y011541D01*
X016370Y011660D02*
X016953Y011660D01*
X017370Y011660D02*
X017953Y011660D01*
X017834Y011541D02*
X017488Y011541D01*
X017607Y011423D02*
X017716Y011423D01*
X017661Y011304D02*
X017661Y011304D01*
X017661Y011186D02*
X017661Y011186D01*
X017661Y011067D02*
X017661Y011067D01*
X017961Y010593D02*
X020731Y010593D01*
X020731Y010475D02*
X017842Y010475D01*
X017724Y010356D02*
X020731Y010356D01*
X020731Y010237D02*
X017621Y010237D01*
X017621Y010119D02*
X020731Y010119D01*
X020731Y010000D02*
X017621Y010000D01*
X017621Y009882D02*
X020731Y009882D01*
X020731Y009763D02*
X017621Y009763D01*
X017621Y009645D02*
X020731Y009645D01*
X020731Y009526D02*
X017621Y009526D01*
X017621Y009408D02*
X020731Y009408D01*
X020731Y009289D02*
X017621Y009289D01*
X017621Y009171D02*
X020731Y009171D01*
X020731Y009052D02*
X017621Y009052D01*
X017621Y008933D02*
X020731Y008933D01*
X020731Y008815D02*
X017621Y008815D01*
X017621Y008696D02*
X020731Y008696D01*
X020731Y008578D02*
X017621Y008578D01*
X017621Y008459D02*
X020731Y008459D01*
X020731Y008341D02*
X017621Y008341D01*
X017101Y008341D02*
X015408Y008341D01*
X015527Y008459D02*
X017101Y008459D01*
X017101Y008578D02*
X015637Y008578D01*
X015671Y008696D02*
X017101Y008696D01*
X017101Y008815D02*
X015724Y008815D01*
X015819Y008933D02*
X017101Y008933D01*
X017101Y009052D02*
X015819Y009052D01*
X015819Y009171D02*
X017101Y009171D01*
X017101Y009289D02*
X015819Y009289D01*
X015819Y009408D02*
X017101Y009408D01*
X017101Y009526D02*
X015819Y009526D01*
X015787Y009645D02*
X017101Y009645D01*
X017101Y009763D02*
X014831Y009763D01*
X014935Y009645D02*
X014712Y009645D01*
X014743Y009526D02*
X014904Y009526D01*
X014904Y009408D02*
X014796Y009408D01*
X014819Y009289D02*
X014904Y009289D01*
X014904Y009171D02*
X014819Y009171D01*
X014770Y009052D02*
X014904Y009052D01*
X014904Y008933D02*
X014680Y008933D01*
X014479Y008815D02*
X014998Y008815D01*
X014243Y008815D02*
X005683Y008815D01*
X005801Y008933D02*
X014042Y008933D01*
X013953Y009052D02*
X005920Y009052D01*
X006038Y009171D02*
X013904Y009171D01*
X013904Y009289D02*
X006157Y009289D01*
X005777Y009645D02*
X000591Y009645D01*
X000591Y009763D02*
X005896Y009763D01*
X006014Y009882D02*
X000591Y009882D01*
X000591Y010000D02*
X014333Y010000D01*
X014451Y010119D02*
X000591Y010119D01*
X000591Y010237D02*
X014570Y010237D01*
X014688Y010356D02*
X000591Y010356D01*
X000591Y010475D02*
X014807Y010475D01*
X015068Y010000D02*
X017101Y010000D01*
X017101Y009882D02*
X014949Y009882D01*
X013904Y010712D02*
X013419Y010712D01*
X013537Y010830D02*
X013785Y010830D01*
X013667Y010949D02*
X013656Y010949D01*
X013661Y011067D02*
X013661Y011067D01*
X013661Y011186D02*
X013661Y011186D01*
X013661Y011304D02*
X013661Y011304D01*
X013607Y011423D02*
X013716Y011423D01*
X013834Y011541D02*
X013488Y011541D01*
X013370Y011660D02*
X013953Y011660D01*
X012953Y011660D02*
X012370Y011660D01*
X012488Y011541D02*
X012834Y011541D01*
X012716Y011423D02*
X012607Y011423D01*
X012661Y011304D02*
X012661Y011304D01*
X012661Y011186D02*
X012661Y011186D01*
X012661Y011067D02*
X012661Y011067D01*
X012656Y010949D02*
X012667Y010949D01*
X012785Y010830D02*
X012537Y010830D01*
X012419Y010712D02*
X012904Y010712D01*
X011904Y010712D02*
X011419Y010712D01*
X011537Y010830D02*
X011785Y010830D01*
X011667Y010949D02*
X011656Y010949D01*
X011661Y011067D02*
X011661Y011067D01*
X011661Y011186D02*
X011661Y011186D01*
X011661Y011304D02*
X011661Y011304D01*
X011607Y011423D02*
X011716Y011423D01*
X011834Y011541D02*
X011488Y011541D01*
X011370Y011660D02*
X011953Y011660D01*
X010953Y011660D02*
X010370Y011660D01*
X010488Y011541D02*
X010834Y011541D01*
X010716Y011423D02*
X010607Y011423D01*
X010661Y011304D02*
X010661Y011304D01*
X010661Y011186D02*
X010661Y011186D01*
X010661Y011067D02*
X010661Y011067D01*
X010656Y010949D02*
X010667Y010949D01*
X010785Y010830D02*
X010537Y010830D01*
X010419Y010712D02*
X010904Y010712D01*
X009904Y010712D02*
X009419Y010712D01*
X009537Y010830D02*
X009785Y010830D01*
X009667Y010949D02*
X009656Y010949D01*
X009661Y011067D02*
X009661Y011067D01*
X009661Y011186D02*
X009661Y011186D01*
X009661Y011304D02*
X009661Y011304D01*
X009607Y011423D02*
X009716Y011423D01*
X009834Y011541D02*
X009488Y011541D01*
X009370Y011660D02*
X009953Y011660D01*
X008953Y011660D02*
X008370Y011660D01*
X008488Y011541D02*
X008834Y011541D01*
X008716Y011423D02*
X008607Y011423D01*
X008661Y011304D02*
X008661Y011304D01*
X008661Y011186D02*
X008661Y011186D01*
X008661Y011067D02*
X008661Y011067D01*
X008656Y010949D02*
X008667Y010949D01*
X008785Y010830D02*
X008537Y010830D01*
X008419Y010712D02*
X008904Y010712D01*
X007904Y010712D02*
X007419Y010712D01*
X007537Y010830D02*
X007785Y010830D01*
X007667Y010949D02*
X007656Y010949D01*
X007661Y011067D02*
X007661Y011067D01*
X007661Y011186D02*
X007661Y011186D01*
X007661Y011304D02*
X007661Y011304D01*
X007607Y011423D02*
X007716Y011423D01*
X007834Y011541D02*
X007488Y011541D01*
X007370Y011660D02*
X007953Y011660D01*
X006953Y011660D02*
X006370Y011660D01*
X006488Y011541D02*
X006834Y011541D01*
X006716Y011423D02*
X006607Y011423D01*
X006661Y011304D02*
X006661Y011304D01*
X006661Y011186D02*
X006661Y011186D01*
X006661Y011067D02*
X006661Y011067D01*
X006656Y010949D02*
X006667Y010949D01*
X006785Y010830D02*
X006537Y010830D01*
X006419Y010712D02*
X006904Y010712D01*
X005904Y010712D02*
X005419Y010712D01*
X005537Y010830D02*
X005785Y010830D01*
X005667Y010949D02*
X005656Y010949D01*
X005661Y011067D02*
X005661Y011067D01*
X005661Y011186D02*
X005661Y011186D01*
X005661Y011304D02*
X005661Y011304D01*
X005607Y011423D02*
X005716Y011423D01*
X005834Y011541D02*
X005488Y011541D01*
X005370Y011660D02*
X005953Y011660D01*
X004953Y011660D02*
X004370Y011660D01*
X004488Y011541D02*
X004834Y011541D01*
X004716Y011423D02*
X004607Y011423D01*
X004661Y011304D02*
X004661Y011304D01*
X004661Y011186D02*
X004661Y011186D01*
X004661Y011067D02*
X004661Y011067D01*
X004656Y010949D02*
X004667Y010949D01*
X004785Y010830D02*
X004537Y010830D01*
X004419Y010712D02*
X004904Y010712D01*
X003904Y010712D02*
X003419Y010712D01*
X003537Y010830D02*
X003785Y010830D01*
X003667Y010949D02*
X003656Y010949D01*
X003661Y011067D02*
X003661Y011067D01*
X003661Y011186D02*
X003661Y011186D01*
X003661Y011304D02*
X003661Y011304D01*
X003607Y011423D02*
X003716Y011423D01*
X003834Y011541D02*
X003488Y011541D01*
X003370Y011660D02*
X003953Y011660D01*
X002953Y011660D02*
X002370Y011660D01*
X002488Y011541D02*
X002834Y011541D01*
X002716Y011423D02*
X002607Y011423D01*
X002661Y011304D02*
X002661Y011304D01*
X002661Y011186D02*
X002661Y011186D01*
X002661Y011067D02*
X002661Y011067D01*
X002656Y010949D02*
X002667Y010949D01*
X002785Y010830D02*
X002537Y010830D01*
X002419Y010712D02*
X002904Y010712D01*
X001904Y010712D02*
X001419Y010712D01*
X001537Y010830D02*
X001785Y010830D01*
X001667Y010949D02*
X001656Y010949D01*
X001661Y011067D02*
X001661Y011067D01*
X001661Y011186D02*
X001661Y011186D01*
X001661Y011304D02*
X001661Y011304D01*
X001607Y011423D02*
X001716Y011423D01*
X001834Y011541D02*
X001488Y011541D01*
X001370Y011660D02*
X001953Y011660D01*
X000591Y009526D02*
X005659Y009526D01*
X005540Y009408D02*
X000591Y009408D01*
X000591Y009289D02*
X005421Y009289D01*
X005303Y009171D02*
X000591Y009171D01*
X000591Y009052D02*
X005184Y009052D01*
X005066Y008933D02*
X000591Y008933D01*
X000591Y008815D02*
X004947Y008815D01*
X004829Y008696D02*
X000591Y008696D01*
X000591Y008578D02*
X004710Y008578D01*
X004592Y008459D02*
X000591Y008459D01*
X000591Y008341D02*
X004473Y008341D01*
X004355Y008222D02*
X000591Y008222D01*
X000591Y008104D02*
X004236Y008104D01*
X004117Y007985D02*
X000591Y007985D01*
X000591Y007867D02*
X003999Y007867D01*
X003880Y007748D02*
X000591Y007748D01*
X000591Y007629D02*
X003762Y007629D01*
X003643Y007511D02*
X000591Y007511D01*
X000591Y007392D02*
X003525Y007392D01*
X003406Y007274D02*
X000591Y007274D01*
X000591Y007155D02*
X003288Y007155D01*
X003169Y007037D02*
X000591Y007037D01*
X000591Y006918D02*
X003051Y006918D01*
X002937Y006800D02*
X000591Y006800D01*
X000591Y006681D02*
X002901Y006681D01*
X002901Y006563D02*
X000591Y006563D01*
X000591Y006444D02*
X002901Y006444D01*
X002845Y006326D02*
X000591Y006326D01*
X000591Y006207D02*
X002806Y006207D01*
X002807Y006088D02*
X000591Y006088D01*
X000591Y005970D02*
X002856Y005970D01*
X002982Y005851D02*
X000591Y005851D01*
X000591Y005733D02*
X003327Y005733D01*
X003327Y005614D02*
X000591Y005614D01*
X000591Y005496D02*
X003327Y005496D01*
X003327Y005377D02*
X000591Y005377D01*
X000591Y005259D02*
X003327Y005259D01*
X003327Y005140D02*
X000591Y005140D01*
X000591Y005022D02*
X003327Y005022D01*
X003327Y004903D02*
X000591Y004903D01*
X000591Y004784D02*
X003362Y004784D01*
X003601Y004666D02*
X003103Y004666D01*
X003214Y004547D02*
X003601Y004547D01*
X003601Y004429D02*
X003218Y004429D01*
X002900Y004310D02*
X003601Y004310D01*
X003416Y004192D02*
X003218Y004192D01*
X003218Y004073D02*
X003327Y004073D01*
X003327Y003955D02*
X003201Y003955D01*
X002823Y004310D02*
X000591Y004310D01*
X000591Y004192D02*
X002504Y004192D01*
X002504Y004073D02*
X000591Y004073D01*
X000591Y003955D02*
X002521Y003955D01*
X002484Y003836D02*
X000591Y003836D01*
X000591Y003718D02*
X002484Y003718D01*
X002484Y003599D02*
X000591Y003599D01*
X000591Y003480D02*
X002484Y003480D01*
X002484Y003362D02*
X000591Y003362D01*
X000591Y003243D02*
X002577Y003243D01*
X003146Y003243D02*
X003327Y003243D01*
X003327Y003362D02*
X003238Y003362D01*
X003368Y003125D02*
X000591Y003125D01*
X000591Y003006D02*
X006666Y003006D01*
X006666Y002888D02*
X000591Y002888D01*
X000591Y002769D02*
X006666Y002769D01*
X006901Y002651D02*
X000591Y002651D01*
X000591Y002532D02*
X006901Y002532D01*
X006901Y002414D02*
X000591Y002414D01*
X000591Y002295D02*
X006901Y002295D01*
X006901Y002176D02*
X000591Y002176D01*
X000591Y002058D02*
X006901Y002058D01*
X006901Y001939D02*
X000591Y001939D01*
X000591Y001821D02*
X006901Y001821D01*
X006901Y001702D02*
X000591Y001702D01*
X000591Y001584D02*
X000877Y001584D01*
X000758Y001465D02*
X000591Y001465D01*
X000591Y001347D02*
X000661Y001347D01*
X000661Y001228D02*
X000591Y001228D01*
X000591Y001110D02*
X000661Y001110D01*
X000661Y000991D02*
X000591Y000991D01*
X000591Y000873D02*
X000743Y000873D01*
X000861Y000754D02*
X000591Y000754D01*
X000591Y000635D02*
X020731Y000635D01*
X020731Y000754D02*
X020433Y000754D01*
X020360Y000681D02*
X020201Y000681D01*
X020201Y001121D01*
X020121Y001121D01*
X019681Y001121D01*
X019681Y000962D01*
X019962Y000681D01*
X020121Y000681D01*
X020121Y001121D01*
X020121Y001201D01*
X019681Y001201D01*
X019681Y001360D01*
X019962Y001641D01*
X020121Y001641D01*
X020121Y001201D01*
X020201Y001201D01*
X020201Y001641D01*
X020360Y001641D01*
X020641Y001360D01*
X020641Y001201D01*
X020201Y001201D01*
X020201Y001121D01*
X020641Y001121D01*
X020641Y000962D01*
X020360Y000681D01*
X020201Y000754D02*
X020121Y000754D01*
X020121Y000873D02*
X020201Y000873D01*
X020201Y000991D02*
X020121Y000991D01*
X020121Y001110D02*
X020201Y001110D01*
X020201Y001228D02*
X020121Y001228D01*
X020121Y001347D02*
X020201Y001347D01*
X020201Y001465D02*
X020121Y001465D01*
X020121Y001584D02*
X020201Y001584D01*
X020417Y001584D02*
X020731Y001584D01*
X020731Y001702D02*
X018421Y001702D01*
X018421Y001821D02*
X020731Y001821D01*
X020731Y001939D02*
X018410Y001939D01*
X018332Y002058D02*
X020731Y002058D01*
X020731Y002176D02*
X018214Y002176D01*
X018095Y002295D02*
X020731Y002295D01*
X020731Y002414D02*
X020471Y002414D01*
X020589Y002532D02*
X020731Y002532D01*
X020731Y002651D02*
X020661Y002651D01*
X020661Y002769D02*
X020731Y002769D01*
X020731Y002888D02*
X020661Y002888D01*
X020661Y003006D02*
X020731Y003006D01*
X020731Y003125D02*
X020555Y003125D01*
X020436Y003243D02*
X020731Y003243D01*
X020731Y003362D02*
X020419Y003362D01*
X020538Y003480D02*
X020731Y003480D01*
X020731Y003599D02*
X020656Y003599D01*
X020661Y003718D02*
X020731Y003718D01*
X020731Y003836D02*
X020661Y003836D01*
X020661Y003955D02*
X020731Y003955D01*
X020731Y004073D02*
X020606Y004073D01*
X020488Y004192D02*
X020731Y004192D01*
X020731Y004310D02*
X020369Y004310D01*
X020486Y004429D02*
X020731Y004429D01*
X020731Y004547D02*
X020604Y004547D01*
X020661Y004666D02*
X020731Y004666D01*
X020731Y004784D02*
X020661Y004784D01*
X020661Y004903D02*
X020731Y004903D01*
X020731Y005022D02*
X020658Y005022D01*
X020731Y005140D02*
X020539Y005140D01*
X020421Y005259D02*
X020731Y005259D01*
X020731Y005377D02*
X020434Y005377D01*
X020553Y005496D02*
X020731Y005496D01*
X020731Y005614D02*
X020661Y005614D01*
X020661Y005733D02*
X020731Y005733D01*
X020731Y005851D02*
X020661Y005851D01*
X020661Y005970D02*
X020731Y005970D01*
X020731Y006088D02*
X020591Y006088D01*
X020473Y006207D02*
X020731Y006207D01*
X020731Y006326D02*
X011921Y006326D01*
X011921Y006444D02*
X019850Y006444D01*
X019962Y006331D02*
X019681Y006612D01*
X019681Y006771D01*
X020121Y006771D01*
X020201Y006771D01*
X020201Y006331D01*
X020360Y006331D01*
X020641Y006612D01*
X020641Y006771D01*
X020201Y006771D01*
X020201Y006851D01*
X020641Y006851D01*
X020641Y007010D01*
X020360Y007291D01*
X020201Y007291D01*
X020201Y006851D01*
X020121Y006851D01*
X020121Y006771D01*
X020121Y006331D01*
X019962Y006331D01*
X019850Y006207D02*
X011921Y006207D01*
X011921Y006088D02*
X019731Y006088D01*
X019661Y005970D02*
X011921Y005970D01*
X011921Y005851D02*
X019661Y005851D01*
X019661Y005733D02*
X011921Y005733D01*
X011921Y005614D02*
X019575Y005614D01*
X019456Y005496D02*
X011863Y005496D01*
X011745Y005377D02*
X019338Y005377D01*
X019219Y005259D02*
X011626Y005259D01*
X011508Y005140D02*
X019101Y005140D01*
X018982Y005022D02*
X011421Y005022D01*
X011561Y004661D02*
X012361Y003861D01*
X018911Y003811D01*
X020161Y003811D01*
X019835Y004192D02*
X012370Y004192D01*
X012342Y004310D02*
X019953Y004310D01*
X019837Y004429D02*
X013280Y004429D01*
X012261Y004661D02*
X019011Y004711D01*
X020161Y005861D01*
X020161Y005811D01*
X019902Y005259D02*
X019898Y005259D01*
X019783Y005140D02*
X019779Y005140D01*
X019664Y005022D02*
X019661Y005022D01*
X019661Y004903D02*
X019542Y004903D01*
X019424Y004784D02*
X019661Y004784D01*
X019661Y004666D02*
X019305Y004666D01*
X019187Y004547D02*
X019718Y004547D01*
X019716Y004073D02*
X016034Y004073D01*
X017931Y002414D02*
X019852Y002414D01*
X019733Y002532D02*
X012473Y002532D01*
X012354Y002651D02*
X019332Y002651D01*
X019214Y002769D02*
X012236Y002769D01*
X012490Y002888D02*
X019095Y002888D01*
X018977Y003006D02*
X012581Y003006D01*
X012261Y003161D02*
X012561Y003361D01*
X018961Y003361D01*
X019511Y002811D01*
X020161Y002811D01*
X019768Y003125D02*
X019537Y003125D01*
X019419Y003243D02*
X019886Y003243D01*
X019903Y003362D02*
X019300Y003362D01*
X019181Y003480D02*
X019785Y003480D01*
X017834Y001821D02*
X007421Y001821D01*
X007421Y001939D02*
X012332Y001939D01*
X012212Y002058D02*
X007421Y002058D01*
X007421Y002176D02*
X012093Y002176D01*
X011975Y002295D02*
X007421Y002295D01*
X007421Y002414D02*
X011856Y002414D01*
X011738Y002532D02*
X007421Y002532D01*
X007421Y002651D02*
X011619Y002651D01*
X011501Y002769D02*
X007656Y002769D01*
X007656Y002888D02*
X011382Y002888D01*
X011263Y003006D02*
X007656Y003006D01*
X007656Y003125D02*
X011145Y003125D01*
X011026Y003243D02*
X007656Y003243D01*
X007656Y003362D02*
X010908Y003362D01*
X010789Y003480D02*
X007656Y003480D01*
X007656Y003599D02*
X010721Y003599D01*
X010716Y003718D02*
X007656Y003718D01*
X007656Y003836D02*
X010716Y003836D01*
X010716Y003955D02*
X007656Y003955D01*
X006666Y003955D02*
X006396Y003955D01*
X006396Y004073D02*
X010716Y004073D01*
X010716Y004192D02*
X006307Y004192D01*
X006237Y004734D02*
X005921Y004734D01*
X005921Y005228D01*
X005801Y005228D01*
X005347Y005228D01*
X005347Y004873D01*
X005358Y004833D01*
X005379Y004796D01*
X005409Y004766D01*
X005445Y004745D01*
X005486Y004734D01*
X005801Y004734D01*
X005801Y005228D01*
X005801Y005348D01*
X005347Y005348D01*
X005347Y005703D01*
X005358Y005743D01*
X005379Y005780D01*
X005409Y005810D01*
X005445Y005831D01*
X005486Y005842D01*
X005801Y005842D01*
X005801Y005348D01*
X005921Y005348D01*
X005921Y005842D01*
X006237Y005842D01*
X006277Y005831D01*
X006314Y005810D01*
X006344Y005780D01*
X006365Y005743D01*
X006376Y005703D01*
X006376Y005348D01*
X005921Y005348D01*
X005921Y005228D01*
X006376Y005228D01*
X006376Y004873D01*
X006365Y004833D01*
X006344Y004796D01*
X006314Y004766D01*
X006277Y004745D01*
X006237Y004734D01*
X006332Y004784D02*
X010606Y004784D01*
X010616Y004666D02*
X004121Y004666D01*
X004121Y004547D02*
X010673Y004547D01*
X010716Y004429D02*
X004121Y004429D01*
X004121Y004310D02*
X010716Y004310D01*
X010636Y004903D02*
X006376Y004903D01*
X006376Y005022D02*
X010720Y005022D01*
X010901Y005140D02*
X006376Y005140D01*
X006376Y005377D02*
X011009Y005377D01*
X010920Y005259D02*
X005921Y005259D01*
X005921Y005377D02*
X005801Y005377D01*
X005801Y005259D02*
X004396Y005259D01*
X004396Y005377D02*
X005347Y005377D01*
X005347Y005496D02*
X004396Y005496D01*
X004396Y005614D02*
X005347Y005614D01*
X005355Y005733D02*
X004396Y005733D01*
X004300Y005851D02*
X011401Y005851D01*
X011401Y005970D02*
X004138Y005970D01*
X004256Y006088D02*
X011401Y006088D01*
X011401Y006207D02*
X010509Y006207D01*
X010589Y006326D02*
X011401Y006326D01*
X011401Y006444D02*
X010616Y006444D01*
X010604Y006563D02*
X011392Y006563D01*
X011274Y006681D02*
X010543Y006681D01*
X010621Y006800D02*
X010372Y006800D01*
X010061Y006661D02*
X010261Y006461D01*
X010061Y006661D02*
X006411Y006661D01*
X006084Y006800D02*
X005102Y006800D01*
X004849Y006681D02*
X006056Y006681D01*
X006068Y006563D02*
X004730Y006563D01*
X004612Y006444D02*
X006126Y006444D01*
X006294Y006326D02*
X004493Y006326D01*
X004375Y006207D02*
X010014Y006207D01*
X009933Y006326D02*
X006528Y006326D01*
X006368Y005733D02*
X011365Y005733D01*
X011247Y005614D02*
X006376Y005614D01*
X006376Y005496D02*
X011128Y005496D01*
X011821Y004903D02*
X012001Y004903D01*
X011928Y004784D02*
X011894Y004784D01*
X011921Y006563D02*
X019731Y006563D01*
X019681Y006681D02*
X011921Y006681D01*
X011885Y006800D02*
X020121Y006800D01*
X020121Y006851D02*
X019681Y006851D01*
X019681Y007010D01*
X019962Y007291D01*
X020121Y007291D01*
X020121Y006851D01*
X020121Y006918D02*
X020201Y006918D01*
X020201Y006800D02*
X020731Y006800D01*
X020731Y006918D02*
X020641Y006918D01*
X020614Y007037D02*
X020731Y007037D01*
X020731Y007155D02*
X020496Y007155D01*
X020377Y007274D02*
X020731Y007274D01*
X020731Y007392D02*
X020449Y007392D01*
X020568Y007511D02*
X020731Y007511D01*
X020731Y007629D02*
X020661Y007629D01*
X020661Y007748D02*
X020731Y007748D01*
X020731Y007867D02*
X020661Y007867D01*
X020661Y007985D02*
X020731Y007985D01*
X020731Y008104D02*
X020576Y008104D01*
X020457Y008222D02*
X020731Y008222D01*
X019865Y008222D02*
X019468Y008222D01*
X019207Y007748D02*
X019014Y007748D01*
X019295Y007629D02*
X019341Y007629D01*
X019383Y007511D02*
X019754Y007511D01*
X019873Y007392D02*
X019416Y007392D01*
X019409Y007274D02*
X019945Y007274D01*
X019827Y007155D02*
X019357Y007155D01*
X019205Y007037D02*
X019708Y007037D01*
X019681Y006918D02*
X011772Y006918D01*
X011653Y007037D02*
X018917Y007037D01*
X018765Y007155D02*
X011535Y007155D01*
X011416Y007274D02*
X011847Y007274D01*
X011747Y007392D02*
X010989Y007392D01*
X010733Y007392D02*
X010016Y007392D01*
X010079Y007511D02*
X011706Y007511D01*
X011706Y007629D02*
X010197Y007629D01*
X010316Y007748D02*
X011754Y007748D01*
X012061Y007561D02*
X012261Y007761D01*
X018661Y007761D01*
X019061Y007361D01*
X018713Y007274D02*
X012276Y007274D01*
X012376Y007392D02*
X018691Y007392D01*
X018572Y007511D02*
X012416Y007511D01*
X011155Y006800D02*
X011102Y006800D01*
X009001Y007392D02*
X004989Y007392D01*
X004733Y007392D02*
X004260Y007392D01*
X004142Y007274D02*
X004572Y007274D01*
X004516Y007155D02*
X004023Y007155D01*
X003904Y007037D02*
X004469Y007037D01*
X004351Y006918D02*
X003786Y006918D01*
X003667Y006800D02*
X004232Y006800D01*
X004114Y006681D02*
X003549Y006681D01*
X003430Y006563D02*
X003995Y006563D01*
X003876Y006444D02*
X003421Y006444D01*
X003477Y006326D02*
X003758Y006326D01*
X003640Y006207D02*
X003516Y006207D01*
X003515Y006088D02*
X003601Y006088D01*
X003601Y005970D02*
X003466Y005970D01*
X003422Y005851D02*
X003341Y005851D01*
X004396Y005140D02*
X005347Y005140D01*
X005347Y005022D02*
X004396Y005022D01*
X004396Y004903D02*
X005347Y004903D01*
X005391Y004784D02*
X004360Y004784D01*
X004307Y004192D02*
X005416Y004192D01*
X005327Y004073D02*
X004396Y004073D01*
X004396Y003955D02*
X005327Y003955D01*
X005327Y003836D02*
X004396Y003836D01*
X004396Y003718D02*
X005327Y003718D01*
X005327Y003599D02*
X004396Y003599D01*
X004396Y003480D02*
X005327Y003480D01*
X005327Y003362D02*
X004396Y003362D01*
X004396Y003243D02*
X005327Y003243D01*
X005368Y003125D02*
X004354Y003125D01*
X002900Y004429D02*
X002823Y004429D01*
X002823Y004547D02*
X002900Y004547D01*
X002900Y004666D02*
X002823Y004666D01*
X002619Y004666D02*
X000591Y004666D01*
X000591Y004547D02*
X002508Y004547D01*
X002504Y004429D02*
X000591Y004429D01*
X001446Y001584D02*
X001877Y001584D01*
X001758Y001465D02*
X001564Y001465D01*
X001661Y001347D02*
X001661Y001347D01*
X001661Y001228D02*
X001661Y001228D01*
X001661Y001110D02*
X001661Y001110D01*
X001661Y000991D02*
X001661Y000991D01*
X001580Y000873D02*
X001743Y000873D01*
X001861Y000754D02*
X001461Y000754D01*
X002461Y000754D02*
X002861Y000754D01*
X002743Y000873D02*
X002580Y000873D01*
X002661Y000991D02*
X002661Y000991D01*
X002661Y001110D02*
X002661Y001110D01*
X002661Y001228D02*
X002661Y001228D01*
X002661Y001347D02*
X002661Y001347D01*
X002564Y001465D02*
X002758Y001465D01*
X002877Y001584D02*
X002446Y001584D01*
X003446Y001584D02*
X003877Y001584D01*
X003758Y001465D02*
X003564Y001465D01*
X003661Y001347D02*
X003661Y001347D01*
X003661Y001228D02*
X003661Y001228D01*
X003661Y001110D02*
X003661Y001110D01*
X003661Y000991D02*
X003661Y000991D01*
X003580Y000873D02*
X003743Y000873D01*
X003861Y000754D02*
X003461Y000754D01*
X004461Y000754D02*
X004861Y000754D01*
X004743Y000873D02*
X004580Y000873D01*
X004661Y000991D02*
X004661Y000991D01*
X004661Y001110D02*
X004661Y001110D01*
X004661Y001228D02*
X004661Y001228D01*
X004661Y001347D02*
X004661Y001347D01*
X004564Y001465D02*
X004758Y001465D01*
X004877Y001584D02*
X004446Y001584D01*
X005446Y001584D02*
X005877Y001584D01*
X005758Y001465D02*
X005564Y001465D01*
X005661Y001347D02*
X005661Y001347D01*
X005661Y001228D02*
X005661Y001228D01*
X005661Y001110D02*
X005661Y001110D01*
X005661Y000991D02*
X005661Y000991D01*
X005580Y000873D02*
X005743Y000873D01*
X005861Y000754D02*
X005461Y000754D01*
X006461Y000754D02*
X006861Y000754D01*
X006743Y000873D02*
X006580Y000873D01*
X006661Y000991D02*
X006661Y000991D01*
X006661Y001110D02*
X006661Y001110D01*
X006661Y001228D02*
X006661Y001228D01*
X006661Y001347D02*
X006661Y001347D01*
X006564Y001465D02*
X006758Y001465D01*
X006877Y001584D02*
X006446Y001584D01*
X007421Y001702D02*
X017901Y001702D01*
X017877Y001584D02*
X017446Y001584D01*
X017564Y001465D02*
X017758Y001465D01*
X017661Y001347D02*
X017661Y001347D01*
X017661Y001228D02*
X017661Y001228D01*
X017661Y001110D02*
X017661Y001110D01*
X017661Y000991D02*
X017661Y000991D01*
X017580Y000873D02*
X017743Y000873D01*
X017861Y000754D02*
X017461Y000754D01*
X016861Y000754D02*
X016461Y000754D01*
X016580Y000873D02*
X016743Y000873D01*
X016661Y000991D02*
X016661Y000991D01*
X016661Y001110D02*
X016661Y001110D01*
X016661Y001228D02*
X016661Y001228D01*
X016661Y001347D02*
X016661Y001347D01*
X016564Y001465D02*
X016758Y001465D01*
X016877Y001584D02*
X016446Y001584D01*
X015877Y001584D02*
X015446Y001584D01*
X015564Y001465D02*
X015758Y001465D01*
X015661Y001347D02*
X015661Y001347D01*
X015661Y001228D02*
X015661Y001228D01*
X015661Y001110D02*
X015661Y001110D01*
X015661Y000991D02*
X015661Y000991D01*
X015580Y000873D02*
X015743Y000873D01*
X015861Y000754D02*
X015461Y000754D01*
X014861Y000754D02*
X014461Y000754D01*
X014580Y000873D02*
X014743Y000873D01*
X014661Y000991D02*
X014661Y000991D01*
X014661Y001110D02*
X014661Y001110D01*
X014661Y001228D02*
X014661Y001228D01*
X014661Y001347D02*
X014661Y001347D01*
X014564Y001465D02*
X014758Y001465D01*
X014877Y001584D02*
X014446Y001584D01*
X013877Y001584D02*
X013446Y001584D01*
X013564Y001465D02*
X013758Y001465D01*
X013661Y001347D02*
X013661Y001347D01*
X013661Y001228D02*
X013661Y001228D01*
X013661Y001110D02*
X013661Y001110D01*
X013661Y000991D02*
X013661Y000991D01*
X013580Y000873D02*
X013743Y000873D01*
X013861Y000754D02*
X013461Y000754D01*
X012861Y000754D02*
X012461Y000754D01*
X012580Y000873D02*
X012743Y000873D01*
X012661Y000991D02*
X012661Y000991D01*
X012661Y001110D02*
X012661Y001110D01*
X012661Y001228D02*
X012661Y001228D01*
X012661Y001347D02*
X012661Y001347D01*
X012564Y001465D02*
X012758Y001465D01*
X012877Y001584D02*
X012446Y001584D01*
X011877Y001584D02*
X011446Y001584D01*
X011564Y001465D02*
X011758Y001465D01*
X011661Y001347D02*
X011661Y001347D01*
X011661Y001228D02*
X011661Y001228D01*
X011661Y001110D02*
X011661Y001110D01*
X011661Y000991D02*
X011661Y000991D01*
X011580Y000873D02*
X011743Y000873D01*
X011861Y000754D02*
X011461Y000754D01*
X010861Y000754D02*
X010461Y000754D01*
X010580Y000873D02*
X010743Y000873D01*
X010661Y000991D02*
X010661Y000991D01*
X010661Y001110D02*
X010661Y001110D01*
X010661Y001228D02*
X010661Y001228D01*
X010661Y001347D02*
X010661Y001347D01*
X010564Y001465D02*
X010758Y001465D01*
X010877Y001584D02*
X010446Y001584D01*
X009877Y001584D02*
X009446Y001584D01*
X009564Y001465D02*
X009758Y001465D01*
X009661Y001347D02*
X009661Y001347D01*
X009661Y001228D02*
X009661Y001228D01*
X009661Y001110D02*
X009661Y001110D01*
X009661Y000991D02*
X009661Y000991D01*
X009580Y000873D02*
X009743Y000873D01*
X009861Y000754D02*
X009461Y000754D01*
X008861Y000754D02*
X008461Y000754D01*
X008580Y000873D02*
X008743Y000873D01*
X008661Y000991D02*
X008661Y000991D01*
X008661Y001110D02*
X008661Y001110D01*
X008661Y001228D02*
X008661Y001228D01*
X008661Y001347D02*
X008661Y001347D01*
X008564Y001465D02*
X008758Y001465D01*
X008877Y001584D02*
X008446Y001584D01*
X007877Y001584D02*
X007446Y001584D01*
X007564Y001465D02*
X007758Y001465D01*
X007661Y001347D02*
X007661Y001347D01*
X007661Y001228D02*
X007661Y001228D01*
X007661Y001110D02*
X007661Y001110D01*
X007661Y000991D02*
X007661Y000991D01*
X007580Y000873D02*
X007743Y000873D01*
X007861Y000754D02*
X007461Y000754D01*
X006666Y003125D02*
X006354Y003125D01*
X006396Y003243D02*
X006666Y003243D01*
X006666Y003362D02*
X006396Y003362D01*
X005921Y004784D02*
X005801Y004784D01*
X005801Y004903D02*
X005921Y004903D01*
X005921Y005022D02*
X005801Y005022D01*
X005801Y005140D02*
X005921Y005140D01*
X005921Y005496D02*
X005801Y005496D01*
X005801Y005614D02*
X005921Y005614D01*
X005921Y005733D02*
X005801Y005733D01*
X004379Y007511D02*
X009001Y007511D01*
X009001Y007629D02*
X004497Y007629D01*
X004616Y007748D02*
X009001Y007748D01*
X009001Y007867D02*
X004734Y007867D01*
X004853Y007985D02*
X009001Y007985D01*
X009001Y008104D02*
X004971Y008104D01*
X005090Y008222D02*
X009055Y008222D01*
X009173Y008341D02*
X005208Y008341D01*
X005327Y008459D02*
X009292Y008459D01*
X009410Y008578D02*
X005446Y008578D01*
X005564Y008696D02*
X009550Y008696D01*
X018419Y010712D02*
X018904Y010712D01*
X018954Y010661D02*
X019368Y010661D01*
X019661Y010954D01*
X019661Y011368D01*
X019368Y011661D01*
X018954Y011661D01*
X018661Y011368D01*
X018661Y010954D01*
X018954Y010661D01*
X018785Y010830D02*
X018537Y010830D01*
X018656Y010949D02*
X018667Y010949D01*
X018661Y011067D02*
X018661Y011067D01*
X018661Y011186D02*
X018661Y011186D01*
X018661Y011304D02*
X018661Y011304D01*
X018607Y011423D02*
X018716Y011423D01*
X018834Y011541D02*
X018488Y011541D01*
X018370Y011660D02*
X018953Y011660D01*
X019370Y011660D02*
X020731Y011660D01*
X020731Y011541D02*
X020460Y011541D01*
X020360Y011641D02*
X020201Y011641D01*
X020201Y011201D01*
X020121Y011201D01*
X020121Y011121D01*
X019681Y011121D01*
X019681Y010962D01*
X019962Y010681D01*
X020121Y010681D01*
X020121Y011121D01*
X020201Y011121D01*
X020201Y010681D01*
X020360Y010681D01*
X020641Y010962D01*
X020641Y011121D01*
X020201Y011121D01*
X020201Y011201D01*
X020641Y011201D01*
X020641Y011360D01*
X020360Y011641D01*
X020201Y011541D02*
X020121Y011541D01*
X020121Y011641D02*
X019962Y011641D01*
X019681Y011360D01*
X019681Y011201D01*
X020121Y011201D01*
X020121Y011641D01*
X019863Y011541D02*
X019488Y011541D01*
X019607Y011423D02*
X019744Y011423D01*
X019681Y011304D02*
X019661Y011304D01*
X019661Y011186D02*
X020121Y011186D01*
X020201Y011186D02*
X020731Y011186D01*
X020731Y011304D02*
X020641Y011304D01*
X020578Y011423D02*
X020731Y011423D01*
X020731Y011067D02*
X020641Y011067D01*
X020627Y010949D02*
X020731Y010949D01*
X020731Y010830D02*
X020509Y010830D01*
X020390Y010712D02*
X020731Y010712D01*
X020201Y010712D02*
X020121Y010712D01*
X020121Y010830D02*
X020201Y010830D01*
X020201Y010949D02*
X020121Y010949D01*
X020121Y011067D02*
X020201Y011067D01*
X020201Y011304D02*
X020121Y011304D01*
X020121Y011423D02*
X020201Y011423D01*
X019681Y011067D02*
X019661Y011067D01*
X019656Y010949D02*
X019695Y010949D01*
X019814Y010830D02*
X019537Y010830D01*
X019419Y010712D02*
X019932Y010712D01*
X020121Y007274D02*
X020201Y007274D01*
X020201Y007155D02*
X020121Y007155D01*
X020121Y007037D02*
X020201Y007037D01*
X020201Y006681D02*
X020121Y006681D01*
X020121Y006563D02*
X020201Y006563D01*
X020201Y006444D02*
X020121Y006444D01*
X020473Y006444D02*
X020731Y006444D01*
X020731Y006563D02*
X020591Y006563D01*
X020641Y006681D02*
X020731Y006681D01*
X019905Y001584D02*
X019446Y001584D01*
X019368Y001661D02*
X018954Y001661D01*
X018661Y001368D01*
X018661Y000954D01*
X018954Y000661D01*
X019368Y000661D01*
X019661Y000954D01*
X019661Y001368D01*
X019368Y001661D01*
X019564Y001465D02*
X019786Y001465D01*
X019681Y001347D02*
X019661Y001347D01*
X019661Y001228D02*
X019681Y001228D01*
X019681Y001110D02*
X019661Y001110D01*
X019661Y000991D02*
X019681Y000991D01*
X019771Y000873D02*
X019580Y000873D01*
X019461Y000754D02*
X019890Y000754D01*
X020551Y000873D02*
X020731Y000873D01*
X020731Y000991D02*
X020641Y000991D01*
X020641Y001110D02*
X020731Y001110D01*
X020731Y001228D02*
X020641Y001228D01*
X020641Y001347D02*
X020731Y001347D01*
X020731Y001465D02*
X020536Y001465D01*
X018877Y001584D02*
X018446Y001584D01*
X018564Y001465D02*
X018758Y001465D01*
X018661Y001347D02*
X018661Y001347D01*
X018661Y001228D02*
X018661Y001228D01*
X018661Y001110D02*
X018661Y001110D01*
X018661Y000991D02*
X018661Y000991D01*
X018580Y000873D02*
X018743Y000873D01*
X018861Y000754D02*
X018461Y000754D01*
D17*
X014261Y002861D03*
X012261Y003161D03*
X011661Y001861D03*
X010061Y004561D03*
X010961Y004761D03*
X011561Y004661D03*
X012261Y004661D03*
X012161Y006061D03*
X011161Y006061D03*
X010661Y006061D03*
X010261Y006461D03*
X010861Y007061D03*
X010461Y007561D03*
X009661Y007461D03*
X008011Y008661D03*
X007461Y008861D03*
X004761Y008961D03*
X002961Y008961D03*
X000761Y008261D03*
X000761Y007161D03*
X003161Y006161D03*
X004861Y007061D03*
X004961Y006361D03*
X006411Y006661D03*
X006561Y006061D03*
X009161Y006061D03*
X009161Y005161D03*
X009161Y004561D03*
X012161Y006961D03*
X011661Y007261D03*
X012061Y007561D03*
X013961Y006311D03*
X014361Y006311D03*
X014961Y006861D03*
X015461Y006861D03*
X015561Y006361D03*
X017261Y007061D03*
X018261Y006361D03*
X019061Y007361D03*
X019261Y008561D03*
X019661Y009961D03*
X018661Y009961D03*
X016661Y009461D03*
X012111Y010161D03*
X011661Y010161D03*
X011811Y009061D03*
X018661Y004261D03*
X001561Y003161D03*
D18*
X002861Y003627D02*
X003753Y003627D01*
X003861Y003634D01*
X003861Y005288D01*
X003861Y006061D01*
X004861Y007061D01*
X009261Y007061D01*
X009261Y008061D01*
X009661Y008461D01*
X015161Y008461D01*
X015411Y008711D01*
X015411Y009211D01*
X015361Y009261D01*
X014411Y009311D02*
X014361Y009261D01*
X014411Y009311D02*
X014411Y009661D01*
X006161Y009661D01*
X003161Y006661D01*
X003161Y006161D01*
X005861Y003634D02*
X007161Y003661D01*
X007161Y003061D02*
X007161Y001161D01*
X010976Y003661D02*
X010976Y004746D01*
X010961Y004761D01*
X011161Y004961D01*
X011161Y005161D01*
X011661Y005661D01*
X011661Y006661D01*
X011261Y007061D01*
X010861Y007061D01*
X009261Y007061D01*
X009661Y007461D02*
X010261Y008061D01*
X017361Y008061D01*
X017361Y010361D01*
X018161Y011161D01*
X017361Y010361D02*
X015061Y010361D01*
X014411Y009711D01*
X014411Y009661D01*
X017361Y008061D02*
X019261Y008061D01*
X019461Y007861D01*
X020111Y007861D01*
X020161Y007811D01*
X017861Y002161D02*
X012476Y002161D01*
X010976Y003661D01*
X017861Y002161D02*
X018161Y001861D01*
X018161Y001161D01*
M02*
