G75*
G70*
%OFA0B0*%
%FSLAX24Y24*%
%IPPOS*%
%LPD*%
%AMOC8*
5,1,8,0,0,1.08239X$1,22.5*
%
%ADD10C,0.0000*%
%ADD11OC8,0.0600*%
%ADD12R,0.0394X0.0433*%
%ADD13R,0.0433X0.0394*%
%ADD14R,0.0630X0.0551*%
%ADD15R,0.0300X0.0650*%
%ADD16R,0.0472X0.0472*%
%ADD17R,0.0472X0.0217*%
%ADD18R,0.0197X0.0591*%
%ADD19R,0.0591X0.0197*%
%ADD20R,0.0515X0.0515*%
%ADD21C,0.0120*%
%ADD22C,0.0270*%
%ADD23C,0.0160*%
D10*
X002921Y000411D02*
X002921Y011911D01*
X023421Y011911D01*
X023421Y000411D01*
X002921Y000411D01*
D11*
X003671Y001161D03*
X004671Y001161D03*
X005671Y001161D03*
X006671Y001161D03*
X007671Y001161D03*
X008671Y001161D03*
X009671Y001161D03*
X010671Y001161D03*
X011671Y001161D03*
X012671Y001161D03*
X013671Y001161D03*
X014671Y001161D03*
X015671Y001161D03*
X016671Y001161D03*
X017671Y001161D03*
X018671Y001161D03*
X019671Y001161D03*
X020671Y001161D03*
X021671Y001161D03*
X022671Y001161D03*
X022671Y002811D03*
X022671Y003811D03*
X022671Y004811D03*
X022671Y005811D03*
X022671Y006811D03*
X022671Y007811D03*
X022671Y011161D03*
X021671Y011161D03*
X020671Y011161D03*
X019671Y011161D03*
X018671Y011161D03*
X017671Y011161D03*
X016671Y011161D03*
X015671Y011161D03*
X014671Y011161D03*
X013671Y011161D03*
X012671Y011161D03*
X011671Y011161D03*
X010671Y011161D03*
X009671Y011161D03*
X008671Y011161D03*
X007671Y011161D03*
X006671Y011161D03*
X005671Y011161D03*
X004671Y011161D03*
X003671Y011161D03*
D12*
X003736Y008661D03*
X004406Y008661D03*
X004406Y006661D03*
X003736Y006661D03*
X003736Y004661D03*
X004406Y004661D03*
X010071Y007627D03*
X010071Y008296D03*
X016771Y004296D03*
X016771Y003627D03*
D13*
X019436Y005261D03*
X020106Y005261D03*
X014606Y009561D03*
X013936Y009561D03*
X006071Y007996D03*
X006071Y007327D03*
D14*
X019180Y007561D03*
X020361Y007561D03*
X020461Y004361D03*
X019280Y004361D03*
D15*
X008321Y006661D03*
X006821Y006661D03*
X006821Y008661D03*
X008321Y008661D03*
D16*
X004484Y007661D03*
X003657Y007661D03*
X003657Y005661D03*
X004484Y005661D03*
X004484Y003661D03*
X003657Y003661D03*
D17*
X019259Y005987D03*
X019259Y006361D03*
X019259Y006735D03*
X020283Y006735D03*
X020283Y005987D03*
D18*
X014746Y003917D03*
X014431Y003917D03*
X014116Y003917D03*
X013801Y003917D03*
X013486Y003917D03*
X013171Y003917D03*
X012856Y003917D03*
X012541Y003917D03*
X012226Y003917D03*
X011911Y003917D03*
X011596Y003917D03*
X011596Y008405D03*
X011911Y008405D03*
X012226Y008405D03*
X012541Y008405D03*
X012856Y008405D03*
X013171Y008405D03*
X013486Y008405D03*
X013801Y008405D03*
X014116Y008405D03*
X014431Y008405D03*
X014746Y008405D03*
D19*
X015415Y007736D03*
X015415Y007421D03*
X015415Y007106D03*
X015415Y006791D03*
X015415Y006476D03*
X015415Y006161D03*
X015415Y005846D03*
X015415Y005531D03*
X015415Y005216D03*
X015415Y004901D03*
X015415Y004586D03*
X010927Y004586D03*
X010927Y004901D03*
X010927Y005216D03*
X010927Y005531D03*
X010927Y005846D03*
X010927Y006161D03*
X010927Y006476D03*
X010927Y006791D03*
X010927Y007106D03*
X010927Y007421D03*
X010927Y007736D03*
D20*
X016871Y009261D03*
X017871Y009261D03*
D21*
X017433Y009289D02*
X017308Y009289D01*
X017308Y009171D02*
X017433Y009171D01*
X017433Y009052D02*
X017308Y009052D01*
X017308Y008933D02*
X017433Y008933D01*
X017433Y008929D02*
X017539Y008824D01*
X018203Y008824D01*
X018308Y008929D01*
X018308Y009593D01*
X018203Y009699D01*
X018181Y009699D01*
X018181Y009804D01*
X018379Y010001D01*
X019219Y010001D01*
X019323Y010001D01*
X019418Y010041D01*
X019818Y010441D01*
X019891Y010514D01*
X019931Y010610D01*
X019931Y010742D01*
X020151Y010962D01*
X020151Y011360D01*
X019870Y011641D01*
X019472Y011641D01*
X019191Y011360D01*
X019191Y010962D01*
X019398Y010756D01*
X019163Y010521D01*
X018370Y010521D01*
X018530Y010681D01*
X018870Y010681D01*
X019151Y010962D01*
X019151Y011360D01*
X018870Y011641D01*
X018472Y011641D01*
X018191Y011360D01*
X018191Y011021D01*
X018151Y010981D01*
X018151Y011360D01*
X017870Y011641D01*
X017472Y011641D01*
X017191Y011360D01*
X017191Y011021D01*
X017151Y010981D01*
X017151Y011360D01*
X016870Y011641D01*
X016472Y011641D01*
X016191Y011360D01*
X016191Y011021D01*
X016151Y010981D01*
X016151Y011360D01*
X015870Y011641D01*
X015472Y011641D01*
X015191Y011360D01*
X015191Y011004D01*
X015176Y010971D01*
X015176Y010968D01*
X015175Y010965D01*
X015175Y010920D01*
X015174Y010875D01*
X015175Y010872D01*
X015175Y010496D01*
X014930Y010742D01*
X015151Y010962D01*
X015151Y011360D01*
X014870Y011641D01*
X014472Y011641D01*
X014191Y011360D01*
X014191Y010962D01*
X014431Y010722D01*
X014431Y010614D01*
X014467Y010525D01*
X014535Y010458D01*
X014931Y010062D01*
X014931Y009875D01*
X014920Y009886D01*
X014884Y009907D01*
X014843Y009918D01*
X014644Y009918D01*
X014644Y009600D01*
X014567Y009600D01*
X014567Y009918D01*
X014368Y009918D01*
X014327Y009907D01*
X014291Y009886D01*
X014285Y009880D01*
X014227Y009938D01*
X013726Y009938D01*
X013726Y010047D01*
X013874Y010195D01*
X013911Y010284D01*
X013911Y010379D01*
X013911Y010722D01*
X014151Y010962D01*
X014151Y011360D01*
X013870Y011641D01*
X013472Y011641D01*
X013191Y011360D01*
X013191Y010962D01*
X013431Y010722D01*
X013431Y010431D01*
X013282Y010282D01*
X013246Y010194D01*
X013246Y010099D01*
X013246Y009926D01*
X012911Y010261D01*
X012911Y010722D01*
X013151Y010962D01*
X013151Y011360D01*
X012870Y011641D01*
X012472Y011641D01*
X012191Y011360D01*
X012191Y010962D01*
X012431Y010722D01*
X012431Y010241D01*
X011930Y010742D01*
X012151Y010962D01*
X012151Y011360D01*
X011870Y011641D01*
X011472Y011641D01*
X011191Y011360D01*
X011191Y010981D01*
X011151Y011021D01*
X011151Y011360D01*
X010870Y011641D01*
X010472Y011641D01*
X010191Y011360D01*
X010191Y010981D01*
X010151Y011021D01*
X010151Y011360D01*
X009870Y011641D01*
X009472Y011641D01*
X009191Y011360D01*
X009191Y010981D01*
X009151Y011021D01*
X009151Y011360D01*
X008870Y011641D01*
X008472Y011641D01*
X008191Y011360D01*
X008191Y010981D01*
X008151Y011021D01*
X008151Y011360D01*
X007870Y011641D01*
X007472Y011641D01*
X007191Y011360D01*
X007191Y010981D01*
X007151Y011021D01*
X007151Y011360D01*
X006870Y011641D01*
X006472Y011641D01*
X006191Y011360D01*
X006191Y010981D01*
X006151Y011021D01*
X006151Y011360D01*
X005870Y011641D01*
X005472Y011641D01*
X005191Y011360D01*
X005191Y010981D01*
X005151Y011021D01*
X005151Y011360D01*
X004870Y011641D01*
X004472Y011641D01*
X004191Y011360D01*
X004191Y010981D01*
X004151Y011021D01*
X004151Y011360D01*
X003870Y011641D01*
X003472Y011641D01*
X003191Y011360D01*
X003191Y010962D01*
X003431Y010722D01*
X003431Y009024D01*
X003359Y008952D01*
X003359Y008370D01*
X003465Y008265D01*
X004008Y008265D01*
X004071Y008328D01*
X004134Y008265D01*
X004166Y008265D01*
X004166Y008069D01*
X004068Y007972D01*
X004068Y007350D01*
X004173Y007245D01*
X004795Y007245D01*
X004900Y007350D01*
X004900Y007972D01*
X004795Y008077D01*
X004645Y008077D01*
X004645Y008265D01*
X004677Y008265D01*
X004782Y008370D01*
X004782Y008952D01*
X004677Y009058D01*
X004134Y009058D01*
X004071Y008994D01*
X004008Y009058D01*
X003911Y009058D01*
X003911Y010582D01*
X005335Y009158D01*
X005423Y009121D01*
X005519Y009121D01*
X006585Y009121D01*
X006573Y009114D01*
X006543Y009084D01*
X006522Y009048D01*
X006511Y009007D01*
X006511Y008676D01*
X006806Y008676D01*
X006806Y008646D01*
X006511Y008646D01*
X006511Y008315D01*
X006522Y008274D01*
X006543Y008238D01*
X006545Y008236D01*
X006467Y008236D01*
X006467Y008267D01*
X006362Y008373D01*
X005780Y008373D01*
X005674Y008267D01*
X005674Y007724D01*
X005738Y007661D01*
X005674Y007598D01*
X005674Y007055D01*
X005780Y006950D01*
X006362Y006950D01*
X006467Y007055D01*
X006467Y007087D01*
X006545Y007087D01*
X006543Y007084D01*
X006522Y007048D01*
X006511Y007007D01*
X006511Y006676D01*
X006806Y006676D01*
X006806Y006646D01*
X006836Y006646D01*
X006836Y006176D01*
X006992Y006176D01*
X007033Y006187D01*
X007069Y006208D01*
X007099Y006238D01*
X007120Y006274D01*
X007131Y006315D01*
X007131Y006646D01*
X006836Y006646D01*
X006836Y006676D01*
X007131Y006676D01*
X007131Y006856D01*
X007192Y006794D01*
X007308Y006746D01*
X007434Y006746D01*
X007549Y006794D01*
X007638Y006883D01*
X007686Y006999D01*
X007686Y007124D01*
X007638Y007240D01*
X007549Y007328D01*
X007434Y007376D01*
X007395Y007376D01*
X007241Y007530D01*
X007153Y007567D01*
X007058Y007567D01*
X006467Y007567D01*
X006467Y007598D01*
X006404Y007661D01*
X006467Y007724D01*
X006467Y007756D01*
X008081Y007756D01*
X008081Y007151D01*
X007991Y007061D01*
X007991Y006262D01*
X008096Y006156D01*
X008545Y006156D01*
X008651Y006262D01*
X008651Y006421D01*
X008715Y006421D01*
X008742Y006394D01*
X008858Y006346D01*
X008984Y006346D01*
X009099Y006394D01*
X009188Y006483D01*
X009194Y006498D01*
X009420Y006273D01*
X009508Y006236D01*
X009604Y006236D01*
X009906Y006236D01*
X009035Y005365D01*
X008967Y005297D01*
X008931Y005209D01*
X008931Y004361D01*
X007471Y002901D01*
X005219Y002901D01*
X005123Y002901D01*
X005035Y002865D01*
X003811Y001641D01*
X003530Y001641D01*
X003411Y001761D01*
X003411Y003245D01*
X003968Y003245D01*
X004074Y003350D01*
X004074Y003972D01*
X003976Y004069D01*
X003976Y004265D01*
X004008Y004265D01*
X004071Y004328D01*
X004134Y004265D01*
X004677Y004265D01*
X004782Y004370D01*
X004782Y004401D01*
X005019Y004401D01*
X005123Y004401D01*
X005218Y004441D01*
X005818Y005041D01*
X005891Y005114D01*
X005931Y005210D01*
X005931Y005976D01*
X005938Y005983D01*
X005986Y006099D01*
X005986Y006224D01*
X005938Y006340D01*
X005849Y006428D01*
X005734Y006476D01*
X005608Y006476D01*
X005492Y006428D01*
X005404Y006340D01*
X005356Y006224D01*
X005356Y006099D01*
X005404Y005983D01*
X005411Y005976D01*
X005411Y005369D01*
X004963Y004921D01*
X004782Y004921D01*
X004782Y004952D01*
X004677Y005058D01*
X004134Y005058D01*
X004071Y004994D01*
X004008Y005058D01*
X003465Y005058D01*
X003411Y005004D01*
X003411Y005265D01*
X003599Y005265D01*
X003599Y005603D01*
X003716Y005603D01*
X003716Y005719D01*
X004054Y005719D01*
X004054Y005919D01*
X004043Y005959D01*
X004022Y005996D01*
X003992Y006025D01*
X003955Y006047D01*
X003915Y006057D01*
X003716Y006057D01*
X003716Y005720D01*
X003599Y005720D01*
X003599Y006057D01*
X003411Y006057D01*
X003411Y006319D01*
X003465Y006265D01*
X004008Y006265D01*
X004071Y006328D01*
X004134Y006265D01*
X004166Y006265D01*
X004166Y006069D01*
X004068Y005972D01*
X004068Y005350D01*
X004173Y005245D01*
X004795Y005245D01*
X004900Y005350D01*
X004900Y005972D01*
X004795Y006077D01*
X004645Y006077D01*
X004645Y006265D01*
X004677Y006265D01*
X004782Y006370D01*
X004782Y006952D01*
X004677Y007058D01*
X004134Y007058D01*
X004071Y006994D01*
X004008Y007058D01*
X003465Y007058D01*
X003359Y006952D01*
X003359Y006901D01*
X003323Y006901D01*
X003235Y006865D01*
X003101Y006731D01*
X003101Y011731D01*
X023241Y011731D01*
X023241Y000591D01*
X003101Y000591D01*
X003101Y001392D01*
X003191Y001302D01*
X003191Y000962D01*
X003472Y000681D01*
X003870Y000681D01*
X004151Y000962D01*
X004151Y001302D01*
X004191Y001342D01*
X004191Y000962D01*
X004472Y000681D01*
X004870Y000681D01*
X005151Y000962D01*
X005151Y001302D01*
X005191Y001342D01*
X005191Y000962D01*
X005472Y000681D01*
X005870Y000681D01*
X006151Y000962D01*
X006151Y001302D01*
X006191Y001342D01*
X006191Y000962D01*
X006472Y000681D01*
X006870Y000681D01*
X007151Y000962D01*
X007151Y001302D01*
X007191Y001342D01*
X007191Y000962D01*
X007472Y000681D01*
X007870Y000681D01*
X008151Y000962D01*
X008151Y001302D01*
X008191Y001342D01*
X008191Y000962D01*
X008472Y000681D01*
X008870Y000681D01*
X009151Y000962D01*
X009151Y001302D01*
X009191Y001342D01*
X009191Y000962D01*
X009472Y000681D01*
X009870Y000681D01*
X010151Y000962D01*
X010151Y001302D01*
X010191Y001342D01*
X010191Y000962D01*
X010472Y000681D01*
X010870Y000681D01*
X011151Y000962D01*
X011151Y001302D01*
X011191Y001342D01*
X011191Y000962D01*
X011472Y000681D01*
X011870Y000681D01*
X012151Y000962D01*
X012151Y001302D01*
X012191Y001342D01*
X012191Y000962D01*
X012472Y000681D01*
X012870Y000681D01*
X013151Y000962D01*
X013151Y001342D01*
X013191Y001302D01*
X013191Y000962D01*
X013472Y000681D01*
X013870Y000681D01*
X014151Y000962D01*
X014151Y001360D01*
X013870Y001641D01*
X013530Y001641D01*
X013411Y001761D01*
X013411Y003082D01*
X014431Y002062D01*
X014431Y001600D01*
X014191Y001360D01*
X014191Y000962D01*
X014472Y000681D01*
X014870Y000681D01*
X015151Y000962D01*
X015151Y001360D01*
X014911Y001600D01*
X014911Y002082D01*
X015412Y001581D01*
X015191Y001360D01*
X015191Y000962D01*
X015472Y000681D01*
X015870Y000681D01*
X016151Y000962D01*
X016151Y001342D01*
X016191Y001302D01*
X016191Y000962D01*
X016472Y000681D01*
X016870Y000681D01*
X017151Y000962D01*
X017151Y001360D01*
X016870Y001641D01*
X016530Y001641D01*
X015655Y002517D01*
X015655Y004308D01*
X015731Y004308D01*
X015731Y002609D01*
X015731Y002514D01*
X015767Y002425D01*
X016267Y001925D01*
X016335Y001858D01*
X016423Y001821D01*
X017071Y001821D01*
X017362Y001531D01*
X017191Y001360D01*
X017191Y000962D01*
X017472Y000681D01*
X017870Y000681D01*
X018151Y000962D01*
X018151Y001360D01*
X017911Y001600D01*
X017911Y001609D01*
X017874Y001697D01*
X017807Y001765D01*
X017450Y002121D01*
X017871Y002121D01*
X018412Y001581D01*
X018191Y001360D01*
X018191Y000962D01*
X018472Y000681D01*
X018870Y000681D01*
X019151Y000962D01*
X019151Y001342D01*
X019191Y001302D01*
X019191Y000962D01*
X019472Y000681D01*
X019870Y000681D01*
X020151Y000962D01*
X020151Y001342D01*
X020191Y001302D01*
X020191Y000962D01*
X020472Y000681D01*
X020870Y000681D01*
X021151Y000962D01*
X021151Y001360D01*
X020870Y001641D01*
X020530Y001641D01*
X019624Y002547D01*
X019307Y002865D01*
X019307Y002865D01*
X018011Y004161D01*
X018011Y005914D01*
X018011Y006009D01*
X017974Y006097D01*
X017157Y006915D01*
X017069Y006951D01*
X016973Y006951D01*
X016500Y006951D01*
X016707Y007158D01*
X016774Y007225D01*
X016811Y007314D01*
X016811Y008314D01*
X016811Y008409D01*
X016774Y008497D01*
X016511Y008761D01*
X016511Y008852D01*
X016539Y008824D01*
X017203Y008824D01*
X017308Y008929D01*
X017308Y009593D01*
X017203Y009699D01*
X016539Y009699D01*
X016511Y009671D01*
X016511Y009862D01*
X016670Y010021D01*
X017219Y010021D01*
X017307Y010058D01*
X017374Y010125D01*
X017374Y010125D01*
X017570Y010321D01*
X017963Y010321D01*
X017774Y010132D01*
X017700Y010059D01*
X017661Y009963D01*
X017661Y009699D01*
X017539Y009699D01*
X017433Y009593D01*
X017433Y008929D01*
X016790Y008459D02*
X018401Y008459D01*
X018350Y008409D02*
X018311Y008313D01*
X018311Y008210D01*
X018311Y007010D01*
X018350Y006914D01*
X018424Y006841D01*
X018750Y006515D01*
X018845Y006475D01*
X018863Y006475D01*
X018863Y006361D01*
X018863Y006247D01*
X018849Y006247D01*
X018745Y006247D01*
X018650Y006208D01*
X018524Y006082D01*
X018450Y006009D01*
X018411Y005913D01*
X018411Y004513D01*
X018411Y004410D01*
X018450Y004314D01*
X018550Y004214D01*
X018624Y004141D01*
X018719Y004101D01*
X018785Y004101D01*
X018785Y004011D01*
X018891Y003906D01*
X019020Y003906D01*
X019020Y003900D01*
X019060Y003805D01*
X019250Y003614D01*
X019324Y003541D01*
X019419Y003501D01*
X020163Y003501D01*
X021411Y002254D01*
X021411Y001580D01*
X021191Y001360D01*
X021191Y000962D01*
X021472Y000681D01*
X021870Y000681D01*
X022151Y000962D01*
X022151Y001360D01*
X021931Y001580D01*
X021931Y002413D01*
X021891Y002509D01*
X021818Y002582D01*
X020418Y003982D01*
X020401Y003989D01*
X020401Y004301D01*
X019986Y004301D01*
X019986Y004065D01*
X019997Y004024D01*
X019999Y004021D01*
X019775Y004021D01*
X019775Y004711D01*
X019670Y004817D01*
X018931Y004817D01*
X018931Y005716D01*
X018948Y005699D01*
X019570Y005699D01*
X019598Y005727D01*
X019649Y005727D01*
X019744Y005767D01*
X019818Y005841D01*
X019866Y005889D01*
X019866Y005804D01*
X019911Y005760D01*
X019911Y005638D01*
X019814Y005638D01*
X019757Y005580D01*
X019751Y005586D01*
X019714Y005607D01*
X019674Y005618D01*
X019475Y005618D01*
X019475Y005300D01*
X019398Y005300D01*
X019398Y005618D01*
X019199Y005618D01*
X019158Y005607D01*
X019121Y005586D01*
X019092Y005556D01*
X019071Y005520D01*
X019060Y005479D01*
X019060Y005300D01*
X019398Y005300D01*
X019398Y005223D01*
X019475Y005223D01*
X019475Y004904D01*
X019674Y004904D01*
X019714Y004915D01*
X019751Y004936D01*
X019757Y004942D01*
X019814Y004884D01*
X020397Y004884D01*
X020502Y004990D01*
X020502Y005533D01*
X020431Y005604D01*
X020431Y005699D01*
X020593Y005699D01*
X020699Y005804D01*
X020699Y006170D01*
X020593Y006275D01*
X019972Y006275D01*
X019931Y006234D01*
X019931Y006488D01*
X019972Y006447D01*
X020593Y006447D01*
X020699Y006552D01*
X020699Y006918D01*
X020621Y006996D01*
X020621Y007106D01*
X020751Y007106D01*
X020856Y007211D01*
X020856Y007801D01*
X021663Y007801D01*
X021700Y007764D01*
X021774Y007691D01*
X021869Y007651D01*
X022191Y007651D01*
X022191Y007612D01*
X022472Y007331D01*
X022870Y007331D01*
X023151Y007612D01*
X023151Y008010D01*
X022870Y008291D01*
X022472Y008291D01*
X022352Y008171D01*
X022029Y008171D01*
X021918Y008282D01*
X021823Y008321D01*
X021719Y008321D01*
X020619Y008321D01*
X020524Y008282D01*
X020450Y008209D01*
X020259Y008017D01*
X019972Y008017D01*
X019866Y007911D01*
X019866Y007211D01*
X019972Y007106D01*
X020101Y007106D01*
X020101Y007024D01*
X019972Y007024D01*
X019866Y006918D01*
X019866Y006833D01*
X019818Y006882D01*
X019744Y006956D01*
X019649Y006995D01*
X019598Y006995D01*
X019570Y007024D01*
X018976Y007024D01*
X018874Y007126D01*
X019120Y007126D01*
X019120Y007501D01*
X019240Y007501D01*
X019240Y007126D01*
X019516Y007126D01*
X019557Y007137D01*
X019594Y007158D01*
X019623Y007187D01*
X019644Y007224D01*
X019655Y007265D01*
X019655Y007501D01*
X019240Y007501D01*
X019240Y007621D01*
X019120Y007621D01*
X019120Y007997D01*
X018844Y007997D01*
X018831Y007993D01*
X018831Y008154D01*
X019029Y008351D01*
X021069Y008351D01*
X021173Y008351D01*
X021268Y008391D01*
X021818Y008941D01*
X021891Y009014D01*
X021931Y009110D01*
X021931Y010742D01*
X022151Y010962D01*
X022151Y011360D01*
X021870Y011641D01*
X021472Y011641D01*
X021191Y011360D01*
X021191Y010962D01*
X021411Y010742D01*
X021411Y009269D01*
X021013Y008871D01*
X018869Y008871D01*
X018774Y008832D01*
X018700Y008759D01*
X018350Y008409D01*
X018322Y008341D02*
X016811Y008341D01*
X016811Y008222D02*
X018311Y008222D01*
X018311Y008104D02*
X016811Y008104D01*
X016811Y007985D02*
X018311Y007985D01*
X018311Y007867D02*
X016811Y007867D01*
X016811Y007748D02*
X018311Y007748D01*
X018311Y007629D02*
X016811Y007629D01*
X016811Y007511D02*
X018311Y007511D01*
X018311Y007392D02*
X016811Y007392D01*
X016794Y007274D02*
X018311Y007274D01*
X018311Y007155D02*
X016704Y007155D01*
X016586Y007037D02*
X018311Y007037D01*
X018349Y006918D02*
X017148Y006918D01*
X017272Y006800D02*
X018465Y006800D01*
X018424Y006841D02*
X018424Y006841D01*
X018583Y006681D02*
X017390Y006681D01*
X017509Y006563D02*
X018702Y006563D01*
X018863Y006444D02*
X017627Y006444D01*
X017746Y006326D02*
X018863Y006326D01*
X018863Y006361D02*
X019259Y006361D01*
X019259Y006361D01*
X018863Y006361D01*
X018649Y006207D02*
X017865Y006207D01*
X017978Y006088D02*
X018530Y006088D01*
X018434Y005970D02*
X018011Y005970D01*
X018011Y005851D02*
X018411Y005851D01*
X018411Y005733D02*
X018011Y005733D01*
X018011Y005614D02*
X018411Y005614D01*
X018411Y005496D02*
X018011Y005496D01*
X018011Y005377D02*
X018411Y005377D01*
X018411Y005259D02*
X018011Y005259D01*
X018011Y005140D02*
X018411Y005140D01*
X018411Y005022D02*
X018011Y005022D01*
X018011Y004903D02*
X018411Y004903D01*
X018411Y004784D02*
X018011Y004784D01*
X018011Y004666D02*
X018411Y004666D01*
X018411Y004547D02*
X018011Y004547D01*
X018011Y004429D02*
X018411Y004429D01*
X018454Y004310D02*
X018011Y004310D01*
X018011Y004192D02*
X018573Y004192D01*
X018785Y004073D02*
X018098Y004073D01*
X018217Y003955D02*
X018842Y003955D01*
X019047Y003836D02*
X018335Y003836D01*
X018454Y003718D02*
X019147Y003718D01*
X019265Y003599D02*
X018572Y003599D01*
X018691Y003480D02*
X020184Y003480D01*
X020302Y003362D02*
X018810Y003362D01*
X018928Y003243D02*
X020421Y003243D01*
X020540Y003125D02*
X019047Y003125D01*
X019165Y003006D02*
X020658Y003006D01*
X020777Y002888D02*
X019284Y002888D01*
X019402Y002769D02*
X020895Y002769D01*
X021014Y002651D02*
X019521Y002651D01*
X019624Y002547D02*
X019624Y002547D01*
X019639Y002532D02*
X021132Y002532D01*
X021251Y002414D02*
X019758Y002414D01*
X019876Y002295D02*
X021369Y002295D01*
X021411Y002176D02*
X019995Y002176D01*
X020114Y002058D02*
X021411Y002058D01*
X021411Y001939D02*
X020232Y001939D01*
X020351Y001821D02*
X021411Y001821D01*
X021411Y001702D02*
X020469Y001702D01*
X020927Y001584D02*
X021411Y001584D01*
X021296Y001465D02*
X021046Y001465D01*
X021151Y001347D02*
X021191Y001347D01*
X021191Y001228D02*
X021151Y001228D01*
X021151Y001110D02*
X021191Y001110D01*
X021191Y000991D02*
X021151Y000991D01*
X021061Y000873D02*
X021281Y000873D01*
X021399Y000754D02*
X020942Y000754D01*
X020399Y000754D02*
X019942Y000754D01*
X020061Y000873D02*
X020281Y000873D01*
X020191Y000991D02*
X020151Y000991D01*
X020151Y001110D02*
X020191Y001110D01*
X020191Y001228D02*
X020151Y001228D01*
X019671Y001161D02*
X017271Y003561D01*
X017271Y004861D01*
X016286Y005846D01*
X015415Y005846D01*
X014940Y005851D02*
X012548Y005851D01*
X012608Y005791D02*
X012431Y005969D01*
X012431Y007276D01*
X012438Y007283D01*
X012486Y007399D01*
X012486Y007524D01*
X012438Y007640D01*
X012349Y007728D01*
X012234Y007776D01*
X012108Y007776D01*
X011992Y007728D01*
X011945Y007681D01*
X011402Y007681D01*
X011402Y007909D01*
X011297Y008014D01*
X011167Y008014D01*
X011167Y008758D01*
X011167Y008853D01*
X011130Y008941D01*
X010350Y009721D01*
X010571Y009721D01*
X011356Y008937D01*
X011356Y008814D01*
X011318Y008775D01*
X011318Y008036D01*
X011423Y007930D01*
X011769Y007930D01*
X012084Y007930D01*
X012399Y007930D01*
X012714Y007930D01*
X013029Y007930D01*
X013344Y007930D01*
X013541Y007930D01*
X013541Y007599D01*
X013318Y007376D01*
X013308Y007376D01*
X013192Y007328D01*
X013104Y007240D01*
X013056Y007124D01*
X013056Y006999D01*
X013104Y006883D01*
X013192Y006794D01*
X013308Y006746D01*
X013434Y006746D01*
X013549Y006794D01*
X013638Y006883D01*
X013686Y006999D01*
X013686Y007009D01*
X014021Y007344D01*
X014061Y007439D01*
X014061Y007543D01*
X014061Y007950D01*
X014116Y007950D01*
X014191Y007950D01*
X014191Y007654D01*
X014227Y007565D01*
X014256Y007537D01*
X014256Y007499D01*
X014304Y007383D01*
X014392Y007294D01*
X014508Y007246D01*
X014634Y007246D01*
X014749Y007294D01*
X014838Y007383D01*
X014886Y007499D01*
X014886Y007624D01*
X014838Y007740D01*
X014749Y007828D01*
X014671Y007861D01*
X014671Y007930D01*
X014919Y007930D01*
X015024Y008036D01*
X015024Y008165D01*
X015063Y008165D01*
X015151Y008202D01*
X015175Y008226D01*
X015175Y008014D01*
X015045Y008014D01*
X014940Y007909D01*
X014940Y007563D01*
X014940Y007248D01*
X014940Y006933D01*
X014940Y006716D01*
X012961Y006716D01*
X012949Y006728D01*
X012834Y006776D01*
X012708Y006776D01*
X012592Y006728D01*
X012504Y006640D01*
X012456Y006524D01*
X012456Y006399D01*
X012504Y006283D01*
X012592Y006194D01*
X012708Y006146D01*
X012834Y006146D01*
X012949Y006194D01*
X012991Y006236D01*
X014960Y006236D01*
X014960Y006161D01*
X014960Y006042D01*
X014960Y006040D01*
X014940Y006019D01*
X014940Y005791D01*
X012608Y005791D01*
X012431Y005970D02*
X014940Y005970D01*
X014960Y006088D02*
X012431Y006088D01*
X012431Y006207D02*
X012580Y006207D01*
X012486Y006326D02*
X012431Y006326D01*
X012431Y006444D02*
X012456Y006444D01*
X012472Y006563D02*
X012431Y006563D01*
X012431Y006681D02*
X012545Y006681D01*
X012431Y006800D02*
X013187Y006800D01*
X013089Y006918D02*
X012431Y006918D01*
X012431Y007037D02*
X013056Y007037D01*
X013069Y007155D02*
X012431Y007155D01*
X012431Y007274D02*
X013138Y007274D01*
X013334Y007392D02*
X012483Y007392D01*
X012486Y007511D02*
X013453Y007511D01*
X013541Y007629D02*
X012442Y007629D01*
X012302Y007748D02*
X013541Y007748D01*
X013541Y007867D02*
X011402Y007867D01*
X011402Y007748D02*
X012040Y007748D01*
X011368Y007985D02*
X011326Y007985D01*
X011318Y008104D02*
X011167Y008104D01*
X011167Y008222D02*
X011318Y008222D01*
X011318Y008341D02*
X011167Y008341D01*
X011167Y008459D02*
X011318Y008459D01*
X011318Y008578D02*
X011167Y008578D01*
X011167Y008696D02*
X011318Y008696D01*
X011356Y008815D02*
X011167Y008815D01*
X011133Y008933D02*
X011356Y008933D01*
X011241Y009052D02*
X011019Y009052D01*
X011122Y009171D02*
X010901Y009171D01*
X011004Y009289D02*
X010782Y009289D01*
X010885Y009408D02*
X010664Y009408D01*
X010766Y009526D02*
X010545Y009526D01*
X010648Y009645D02*
X010427Y009645D01*
X010071Y009661D02*
X009371Y009661D01*
X008771Y010261D01*
X007571Y010261D01*
X006671Y011161D01*
X006191Y011186D02*
X006151Y011186D01*
X006151Y011304D02*
X006191Y011304D01*
X006254Y011423D02*
X006088Y011423D01*
X005969Y011541D02*
X006372Y011541D01*
X006191Y011067D02*
X006151Y011067D01*
X005671Y011161D02*
X006871Y009961D01*
X008671Y009961D01*
X009471Y009161D01*
X009471Y007361D01*
X009726Y007106D01*
X010927Y007106D01*
X010927Y006791D02*
X009641Y006791D01*
X009171Y007261D01*
X009171Y009061D01*
X008571Y009661D01*
X006171Y009661D01*
X004671Y011161D01*
X005151Y011186D02*
X005191Y011186D01*
X005191Y011304D02*
X005151Y011304D01*
X005088Y011423D02*
X005254Y011423D01*
X005372Y011541D02*
X004969Y011541D01*
X004372Y011541D02*
X003969Y011541D01*
X004088Y011423D02*
X004254Y011423D01*
X004191Y011304D02*
X004151Y011304D01*
X004151Y011186D02*
X004191Y011186D01*
X004191Y011067D02*
X004151Y011067D01*
X003671Y011161D02*
X005471Y009361D01*
X008471Y009361D01*
X008871Y008961D01*
X008871Y007161D01*
X009556Y006476D01*
X010927Y006476D01*
X010927Y006161D02*
X010171Y006161D01*
X009171Y005161D01*
X009171Y004261D01*
X007571Y002661D01*
X005171Y002661D01*
X003671Y001161D01*
X003171Y001661D01*
X003171Y006461D01*
X003371Y006661D01*
X003736Y006661D01*
X003359Y006918D02*
X003101Y006918D01*
X003101Y006800D02*
X003170Y006800D01*
X003101Y007037D02*
X003444Y007037D01*
X003400Y007265D02*
X003599Y007265D01*
X003599Y007603D01*
X003261Y007603D01*
X003261Y007404D01*
X003272Y007363D01*
X003293Y007327D01*
X003323Y007297D01*
X003359Y007276D01*
X003400Y007265D01*
X003367Y007274D02*
X003101Y007274D01*
X003101Y007392D02*
X003264Y007392D01*
X003261Y007511D02*
X003101Y007511D01*
X003101Y007629D02*
X003599Y007629D01*
X003599Y007603D02*
X003599Y007719D01*
X003261Y007719D01*
X003261Y007919D01*
X003272Y007959D01*
X003293Y007996D01*
X003323Y008025D01*
X003359Y008047D01*
X003400Y008057D01*
X003599Y008057D01*
X003599Y007720D01*
X003716Y007720D01*
X003716Y008057D01*
X003915Y008057D01*
X003955Y008047D01*
X003992Y008025D01*
X004022Y007996D01*
X004043Y007959D01*
X004054Y007919D01*
X004054Y007719D01*
X003716Y007719D01*
X003716Y007603D01*
X004054Y007603D01*
X004054Y007404D01*
X004043Y007363D01*
X004022Y007327D01*
X003992Y007297D01*
X003955Y007276D01*
X003915Y007265D01*
X003716Y007265D01*
X003716Y007603D01*
X003599Y007603D01*
X003599Y007511D02*
X003716Y007511D01*
X003716Y007629D02*
X004068Y007629D01*
X004054Y007511D02*
X004068Y007511D01*
X004068Y007392D02*
X004051Y007392D01*
X004145Y007274D02*
X003948Y007274D01*
X003716Y007274D02*
X003599Y007274D01*
X003599Y007392D02*
X003716Y007392D01*
X004029Y007037D02*
X004113Y007037D01*
X004698Y007037D02*
X005693Y007037D01*
X005674Y007155D02*
X003101Y007155D01*
X003101Y007748D02*
X003261Y007748D01*
X003261Y007867D02*
X003101Y007867D01*
X003101Y007985D02*
X003287Y007985D01*
X003101Y008104D02*
X004166Y008104D01*
X004166Y008222D02*
X003101Y008222D01*
X003101Y008341D02*
X003389Y008341D01*
X003359Y008459D02*
X003101Y008459D01*
X003101Y008578D02*
X003359Y008578D01*
X003359Y008696D02*
X003101Y008696D01*
X003101Y008815D02*
X003359Y008815D01*
X003359Y008933D02*
X003101Y008933D01*
X003101Y009052D02*
X003431Y009052D01*
X003431Y009171D02*
X003101Y009171D01*
X003101Y009289D02*
X003431Y009289D01*
X003431Y009408D02*
X003101Y009408D01*
X003101Y009526D02*
X003431Y009526D01*
X003431Y009645D02*
X003101Y009645D01*
X003101Y009763D02*
X003431Y009763D01*
X003431Y009882D02*
X003101Y009882D01*
X003101Y010000D02*
X003431Y010000D01*
X003431Y010119D02*
X003101Y010119D01*
X003101Y010237D02*
X003431Y010237D01*
X003431Y010356D02*
X003101Y010356D01*
X003101Y010475D02*
X003431Y010475D01*
X003431Y010593D02*
X003101Y010593D01*
X003101Y010712D02*
X003431Y010712D01*
X003323Y010830D02*
X003101Y010830D01*
X003101Y010949D02*
X003205Y010949D01*
X003191Y011067D02*
X003101Y011067D01*
X003101Y011186D02*
X003191Y011186D01*
X003191Y011304D02*
X003101Y011304D01*
X003101Y011423D02*
X003254Y011423D01*
X003372Y011541D02*
X003101Y011541D01*
X003101Y011660D02*
X023241Y011660D01*
X023241Y011541D02*
X022941Y011541D01*
X022861Y011621D02*
X022711Y011621D01*
X022711Y011201D01*
X023131Y011201D01*
X023131Y011352D01*
X022861Y011621D01*
X022711Y011541D02*
X022631Y011541D01*
X022631Y011621D02*
X022480Y011621D01*
X022211Y011352D01*
X022211Y011201D01*
X022631Y011201D01*
X022631Y011121D01*
X022711Y011121D01*
X022711Y010701D01*
X022861Y010701D01*
X023131Y010971D01*
X023131Y011121D01*
X022711Y011121D01*
X022711Y011201D01*
X022631Y011201D01*
X022631Y011621D01*
X022401Y011541D02*
X021969Y011541D01*
X022088Y011423D02*
X022282Y011423D01*
X022211Y011304D02*
X022151Y011304D01*
X022151Y011186D02*
X022631Y011186D01*
X022631Y011121D02*
X022211Y011121D01*
X022211Y010971D01*
X022480Y010701D01*
X022631Y010701D01*
X022631Y011121D01*
X022631Y011067D02*
X022711Y011067D01*
X022711Y010949D02*
X022631Y010949D01*
X022631Y010830D02*
X022711Y010830D01*
X022711Y010712D02*
X022631Y010712D01*
X022470Y010712D02*
X021931Y010712D01*
X021931Y010593D02*
X023241Y010593D01*
X023241Y010475D02*
X021931Y010475D01*
X021931Y010356D02*
X023241Y010356D01*
X023241Y010237D02*
X021931Y010237D01*
X021931Y010119D02*
X023241Y010119D01*
X023241Y010000D02*
X021931Y010000D01*
X021931Y009882D02*
X023241Y009882D01*
X023241Y009763D02*
X021931Y009763D01*
X021931Y009645D02*
X023241Y009645D01*
X023241Y009526D02*
X021931Y009526D01*
X021931Y009408D02*
X023241Y009408D01*
X023241Y009289D02*
X021931Y009289D01*
X021931Y009171D02*
X023241Y009171D01*
X023241Y009052D02*
X021907Y009052D01*
X021811Y008933D02*
X023241Y008933D01*
X023241Y008815D02*
X021692Y008815D01*
X021574Y008696D02*
X023241Y008696D01*
X023241Y008578D02*
X021455Y008578D01*
X021337Y008459D02*
X023241Y008459D01*
X023241Y008341D02*
X019018Y008341D01*
X018899Y008222D02*
X020464Y008222D01*
X020346Y008104D02*
X018831Y008104D01*
X019120Y007985D02*
X019240Y007985D01*
X019240Y007997D02*
X019240Y007621D01*
X019655Y007621D01*
X019655Y007858D01*
X019644Y007899D01*
X019623Y007935D01*
X019594Y007965D01*
X019557Y007986D01*
X019516Y007997D01*
X019240Y007997D01*
X019240Y007867D02*
X019120Y007867D01*
X019120Y007748D02*
X019240Y007748D01*
X019240Y007629D02*
X019120Y007629D01*
X019240Y007511D02*
X019866Y007511D01*
X019866Y007629D02*
X019655Y007629D01*
X019655Y007748D02*
X019866Y007748D01*
X019866Y007867D02*
X019653Y007867D01*
X019558Y007985D02*
X019940Y007985D01*
X020856Y007748D02*
X021716Y007748D01*
X021634Y007676D02*
X021508Y007676D01*
X021392Y007628D01*
X021304Y007540D01*
X021256Y007424D01*
X021256Y007299D01*
X021304Y007183D01*
X021331Y007156D01*
X021331Y005214D01*
X021367Y005125D01*
X021435Y005058D01*
X021885Y004608D01*
X021973Y004571D01*
X022069Y004571D01*
X022232Y004571D01*
X022472Y004331D01*
X022870Y004331D01*
X023151Y004612D01*
X023151Y005010D01*
X022870Y005291D01*
X022472Y005291D01*
X022232Y005051D01*
X022120Y005051D01*
X021811Y005361D01*
X021811Y007156D01*
X021838Y007183D01*
X021886Y007299D01*
X021886Y007424D01*
X021838Y007540D01*
X021749Y007628D01*
X021634Y007676D01*
X021746Y007629D02*
X022191Y007629D01*
X022292Y007511D02*
X021850Y007511D01*
X021886Y007392D02*
X022411Y007392D01*
X022480Y007271D02*
X022211Y007002D01*
X022211Y006851D01*
X022631Y006851D01*
X022631Y006771D01*
X022711Y006771D01*
X022711Y006351D01*
X022861Y006351D01*
X023131Y006621D01*
X023131Y006771D01*
X022711Y006771D01*
X022711Y006851D01*
X023131Y006851D01*
X023131Y007002D01*
X022861Y007271D01*
X022711Y007271D01*
X022711Y006851D01*
X022631Y006851D01*
X022631Y007271D01*
X022480Y007271D01*
X022364Y007155D02*
X021811Y007155D01*
X021811Y007037D02*
X022246Y007037D01*
X022211Y006918D02*
X021811Y006918D01*
X021811Y006800D02*
X022631Y006800D01*
X022631Y006771D02*
X022211Y006771D01*
X022211Y006621D01*
X022480Y006351D01*
X022631Y006351D01*
X022631Y006771D01*
X022711Y006800D02*
X023241Y006800D01*
X023241Y006918D02*
X023131Y006918D01*
X023096Y007037D02*
X023241Y007037D01*
X023241Y007155D02*
X022977Y007155D01*
X022931Y007392D02*
X023241Y007392D01*
X023241Y007274D02*
X021876Y007274D01*
X021571Y007361D02*
X021571Y005261D01*
X022021Y004811D01*
X022671Y004811D01*
X023021Y005140D02*
X023241Y005140D01*
X023241Y005022D02*
X023139Y005022D01*
X023151Y004903D02*
X023241Y004903D01*
X023241Y004784D02*
X023151Y004784D01*
X023151Y004666D02*
X023241Y004666D01*
X023241Y004547D02*
X023086Y004547D01*
X022967Y004429D02*
X023241Y004429D01*
X023241Y004310D02*
X020522Y004310D01*
X020522Y004301D02*
X020522Y004421D01*
X020936Y004421D01*
X020936Y004658D01*
X020925Y004699D01*
X020904Y004735D01*
X020875Y004765D01*
X020838Y004786D01*
X020797Y004797D01*
X020521Y004797D01*
X020521Y004421D01*
X020401Y004421D01*
X020401Y004301D01*
X020521Y004301D01*
X020521Y003926D01*
X020797Y003926D01*
X020838Y003937D01*
X020875Y003958D01*
X020904Y003987D01*
X020925Y004024D01*
X020936Y004065D01*
X020936Y004301D01*
X020522Y004301D01*
X020521Y004192D02*
X020401Y004192D01*
X020401Y004310D02*
X019775Y004310D01*
X019775Y004192D02*
X019986Y004192D01*
X019986Y004073D02*
X019775Y004073D01*
X019775Y004429D02*
X019986Y004429D01*
X019986Y004421D02*
X020401Y004421D01*
X020401Y004797D01*
X020125Y004797D01*
X020085Y004786D01*
X020048Y004765D01*
X020018Y004735D01*
X019997Y004699D01*
X019986Y004658D01*
X019986Y004421D01*
X019986Y004547D02*
X019775Y004547D01*
X019775Y004666D02*
X019989Y004666D01*
X020082Y004784D02*
X019702Y004784D01*
X019796Y004903D02*
X018931Y004903D01*
X018931Y005022D02*
X019066Y005022D01*
X019071Y005003D02*
X019060Y005043D01*
X019060Y005223D01*
X019398Y005223D01*
X019398Y004904D01*
X019199Y004904D01*
X019158Y004915D01*
X019121Y004936D01*
X019092Y004966D01*
X019071Y005003D01*
X019060Y005140D02*
X018931Y005140D01*
X018931Y005259D02*
X019398Y005259D01*
X019398Y005377D02*
X019475Y005377D01*
X019475Y005496D02*
X019398Y005496D01*
X019398Y005614D02*
X019475Y005614D01*
X019688Y005614D02*
X019791Y005614D01*
X019911Y005733D02*
X019662Y005733D01*
X019829Y005851D02*
X019866Y005851D01*
X020431Y005614D02*
X021331Y005614D01*
X021331Y005496D02*
X020502Y005496D01*
X020502Y005377D02*
X021331Y005377D01*
X021331Y005259D02*
X020502Y005259D01*
X020502Y005140D02*
X021361Y005140D01*
X021471Y005022D02*
X020502Y005022D01*
X020415Y004903D02*
X021590Y004903D01*
X021708Y004784D02*
X020841Y004784D01*
X020934Y004666D02*
X021827Y004666D01*
X022256Y004547D02*
X020936Y004547D01*
X020936Y004429D02*
X022374Y004429D01*
X022472Y004291D02*
X022191Y004010D01*
X022191Y003612D01*
X022472Y003331D01*
X022870Y003331D01*
X023151Y003612D01*
X023151Y004010D01*
X022870Y004291D01*
X022472Y004291D01*
X022373Y004192D02*
X020936Y004192D01*
X020936Y004073D02*
X022254Y004073D01*
X022191Y003955D02*
X020869Y003955D01*
X020564Y003836D02*
X022191Y003836D01*
X022191Y003718D02*
X020682Y003718D01*
X020801Y003599D02*
X022204Y003599D01*
X022323Y003480D02*
X020919Y003480D01*
X021038Y003362D02*
X022441Y003362D01*
X022472Y003291D02*
X022191Y003010D01*
X022191Y002612D01*
X022472Y002331D01*
X022870Y002331D01*
X023151Y002612D01*
X023151Y003010D01*
X022870Y003291D01*
X022472Y003291D01*
X022424Y003243D02*
X021156Y003243D01*
X021275Y003125D02*
X022306Y003125D01*
X022191Y003006D02*
X021393Y003006D01*
X021512Y002888D02*
X022191Y002888D01*
X022191Y002769D02*
X021631Y002769D01*
X021749Y002651D02*
X022191Y002651D01*
X022271Y002532D02*
X021868Y002532D01*
X021931Y002414D02*
X022390Y002414D01*
X021931Y002295D02*
X023241Y002295D01*
X023241Y002176D02*
X021931Y002176D01*
X021931Y002058D02*
X023241Y002058D01*
X023241Y001939D02*
X021931Y001939D01*
X021931Y001821D02*
X023241Y001821D01*
X023241Y001702D02*
X021931Y001702D01*
X021931Y001584D02*
X022443Y001584D01*
X022480Y001621D02*
X022211Y001352D01*
X022211Y001201D01*
X022631Y001201D01*
X022631Y001121D01*
X022711Y001121D01*
X022711Y000701D01*
X022861Y000701D01*
X023131Y000971D01*
X023131Y001121D01*
X022711Y001121D01*
X022711Y001201D01*
X023131Y001201D01*
X023131Y001352D01*
X022861Y001621D01*
X022711Y001621D01*
X022711Y001201D01*
X022631Y001201D01*
X022631Y001621D01*
X022480Y001621D01*
X022631Y001584D02*
X022711Y001584D01*
X022711Y001465D02*
X022631Y001465D01*
X022631Y001347D02*
X022711Y001347D01*
X022711Y001228D02*
X022631Y001228D01*
X022631Y001121D02*
X022211Y001121D01*
X022211Y000971D01*
X022480Y000701D01*
X022631Y000701D01*
X022631Y001121D01*
X022631Y001110D02*
X022711Y001110D01*
X022711Y000991D02*
X022631Y000991D01*
X022631Y000873D02*
X022711Y000873D01*
X022711Y000754D02*
X022631Y000754D01*
X022428Y000754D02*
X021942Y000754D01*
X022061Y000873D02*
X022309Y000873D01*
X022211Y000991D02*
X022151Y000991D01*
X022151Y001110D02*
X022211Y001110D01*
X022211Y001228D02*
X022151Y001228D01*
X022151Y001347D02*
X022211Y001347D01*
X022324Y001465D02*
X022046Y001465D01*
X022899Y001584D02*
X023241Y001584D01*
X023241Y001465D02*
X023017Y001465D01*
X023131Y001347D02*
X023241Y001347D01*
X023241Y001228D02*
X023131Y001228D01*
X023131Y001110D02*
X023241Y001110D01*
X023241Y000991D02*
X023131Y000991D01*
X023033Y000873D02*
X023241Y000873D01*
X023241Y000754D02*
X022914Y000754D01*
X023241Y000635D02*
X003101Y000635D01*
X003101Y000754D02*
X003399Y000754D01*
X003281Y000873D02*
X003101Y000873D01*
X003101Y000991D02*
X003191Y000991D01*
X003191Y001110D02*
X003101Y001110D01*
X003101Y001228D02*
X003191Y001228D01*
X003146Y001347D02*
X003101Y001347D01*
X003469Y001702D02*
X003873Y001702D01*
X003991Y001821D02*
X003411Y001821D01*
X003411Y001939D02*
X004110Y001939D01*
X004228Y002058D02*
X003411Y002058D01*
X003411Y002176D02*
X004347Y002176D01*
X004465Y002295D02*
X003411Y002295D01*
X003411Y002414D02*
X004584Y002414D01*
X004702Y002532D02*
X003411Y002532D01*
X003411Y002651D02*
X004821Y002651D01*
X004939Y002769D02*
X003411Y002769D01*
X003411Y002888D02*
X005091Y002888D01*
X004819Y003297D02*
X004848Y003327D01*
X004870Y003363D01*
X004880Y003404D01*
X004880Y003603D01*
X004543Y003603D01*
X004543Y003719D01*
X004880Y003719D01*
X004880Y003919D01*
X004870Y003959D01*
X004848Y003996D01*
X004819Y004025D01*
X004782Y004047D01*
X004742Y004057D01*
X004542Y004057D01*
X004542Y003720D01*
X004426Y003720D01*
X004426Y004057D01*
X004227Y004057D01*
X004186Y004047D01*
X004150Y004025D01*
X004120Y003996D01*
X004099Y003959D01*
X004088Y003919D01*
X004088Y003719D01*
X004426Y003719D01*
X004426Y003603D01*
X004542Y003603D01*
X004542Y003265D01*
X004742Y003265D01*
X004782Y003276D01*
X004819Y003297D01*
X004869Y003362D02*
X007932Y003362D01*
X007814Y003243D02*
X003411Y003243D01*
X003411Y003125D02*
X007695Y003125D01*
X007576Y003006D02*
X003411Y003006D01*
X004074Y003362D02*
X004100Y003362D01*
X004099Y003363D02*
X004120Y003327D01*
X004150Y003297D01*
X004186Y003276D01*
X004227Y003265D01*
X004426Y003265D01*
X004426Y003603D01*
X004088Y003603D01*
X004088Y003404D01*
X004099Y003363D01*
X004088Y003480D02*
X004074Y003480D01*
X004074Y003599D02*
X004088Y003599D01*
X004074Y003718D02*
X004426Y003718D01*
X004543Y003718D02*
X008288Y003718D01*
X008406Y003836D02*
X004880Y003836D01*
X004871Y003955D02*
X008525Y003955D01*
X008643Y004073D02*
X003976Y004073D01*
X003976Y004192D02*
X008762Y004192D01*
X008880Y004310D02*
X004722Y004310D01*
X004542Y003955D02*
X004426Y003955D01*
X004426Y003836D02*
X004542Y003836D01*
X004542Y003599D02*
X004426Y003599D01*
X004426Y003480D02*
X004542Y003480D01*
X004542Y003362D02*
X004426Y003362D01*
X004880Y003480D02*
X008051Y003480D01*
X008169Y003599D02*
X004880Y003599D01*
X004088Y003836D02*
X004074Y003836D01*
X004074Y003955D02*
X004098Y003955D01*
X004089Y004310D02*
X004053Y004310D01*
X003736Y004661D02*
X003736Y003740D01*
X003657Y003661D01*
X005189Y004429D02*
X008931Y004429D01*
X008931Y004547D02*
X005325Y004547D01*
X005443Y004666D02*
X008931Y004666D01*
X008931Y004784D02*
X005562Y004784D01*
X005680Y004903D02*
X008931Y004903D01*
X008931Y005022D02*
X005799Y005022D01*
X005902Y005140D02*
X008931Y005140D01*
X008951Y005259D02*
X005931Y005259D01*
X005931Y005377D02*
X009047Y005377D01*
X009166Y005496D02*
X005931Y005496D01*
X005931Y005614D02*
X009284Y005614D01*
X009403Y005733D02*
X005931Y005733D01*
X005931Y005851D02*
X009522Y005851D01*
X009640Y005970D02*
X005931Y005970D01*
X005982Y006088D02*
X009759Y006088D01*
X009877Y006207D02*
X008596Y006207D01*
X008651Y006326D02*
X009367Y006326D01*
X009249Y006444D02*
X009149Y006444D01*
X008921Y006661D02*
X008321Y006661D01*
X008321Y007996D01*
X006071Y007996D01*
X005674Y007985D02*
X004887Y007985D01*
X004900Y007867D02*
X005674Y007867D01*
X005674Y007748D02*
X004900Y007748D01*
X004900Y007629D02*
X005706Y007629D01*
X005674Y007511D02*
X004900Y007511D01*
X004900Y007392D02*
X005674Y007392D01*
X005674Y007274D02*
X004824Y007274D01*
X004782Y006918D02*
X006511Y006918D01*
X006511Y006800D02*
X004782Y006800D01*
X004782Y006681D02*
X006511Y006681D01*
X006511Y006646D02*
X006511Y006315D01*
X006522Y006274D01*
X006543Y006238D01*
X006573Y006208D01*
X006609Y006187D01*
X006650Y006176D01*
X006806Y006176D01*
X006806Y006646D01*
X006511Y006646D01*
X006511Y006563D02*
X004782Y006563D01*
X004782Y006444D02*
X005531Y006444D01*
X005398Y006326D02*
X004738Y006326D01*
X004645Y006207D02*
X005356Y006207D01*
X005360Y006088D02*
X004645Y006088D01*
X004900Y005970D02*
X005411Y005970D01*
X005411Y005851D02*
X004900Y005851D01*
X004900Y005733D02*
X005411Y005733D01*
X005411Y005614D02*
X004900Y005614D01*
X004900Y005496D02*
X005411Y005496D01*
X005411Y005377D02*
X004900Y005377D01*
X004809Y005259D02*
X005301Y005259D01*
X005182Y005140D02*
X003411Y005140D01*
X003411Y005022D02*
X003429Y005022D01*
X003411Y005259D02*
X004160Y005259D01*
X004068Y005377D02*
X004046Y005377D01*
X004043Y005363D02*
X004054Y005404D01*
X004054Y005603D01*
X003716Y005603D01*
X003716Y005265D01*
X003915Y005265D01*
X003955Y005276D01*
X003992Y005297D01*
X004022Y005327D01*
X004043Y005363D01*
X004054Y005496D02*
X004068Y005496D01*
X004068Y005614D02*
X003716Y005614D01*
X003716Y005496D02*
X003599Y005496D01*
X003599Y005377D02*
X003716Y005377D01*
X003716Y005733D02*
X003599Y005733D01*
X003599Y005851D02*
X003716Y005851D01*
X003716Y005970D02*
X003599Y005970D01*
X003411Y006088D02*
X004166Y006088D01*
X004166Y006207D02*
X003411Y006207D01*
X004037Y005970D02*
X004068Y005970D01*
X004054Y005851D02*
X004068Y005851D01*
X004054Y005733D02*
X004068Y005733D01*
X004406Y005640D02*
X004484Y005661D01*
X004406Y005640D02*
X004406Y006661D01*
X004073Y006326D02*
X004068Y006326D01*
X005811Y006444D02*
X006511Y006444D01*
X006511Y006326D02*
X005944Y006326D01*
X005986Y006207D02*
X006575Y006207D01*
X006806Y006207D02*
X006836Y006207D01*
X006836Y006326D02*
X006806Y006326D01*
X006806Y006444D02*
X006836Y006444D01*
X006836Y006563D02*
X006806Y006563D01*
X007131Y006563D02*
X007991Y006563D01*
X007991Y006681D02*
X007131Y006681D01*
X007131Y006800D02*
X007187Y006800D01*
X007555Y006800D02*
X007991Y006800D01*
X007991Y006918D02*
X007653Y006918D01*
X007686Y007037D02*
X007991Y007037D01*
X008081Y007155D02*
X007673Y007155D01*
X007604Y007274D02*
X008081Y007274D01*
X008081Y007392D02*
X007379Y007392D01*
X007261Y007511D02*
X008081Y007511D01*
X008081Y007629D02*
X006436Y007629D01*
X006467Y007748D02*
X008081Y007748D01*
X008321Y007996D02*
X008321Y008661D01*
X007991Y008696D02*
X007131Y008696D01*
X007131Y008676D02*
X006836Y008676D01*
X006836Y008646D01*
X007131Y008646D01*
X007131Y008315D01*
X007120Y008274D01*
X007099Y008238D01*
X007097Y008236D01*
X008017Y008236D01*
X007991Y008262D01*
X007991Y009061D01*
X008051Y009121D01*
X007057Y009121D01*
X007069Y009114D01*
X007099Y009084D01*
X007120Y009048D01*
X007131Y009007D01*
X007131Y008676D01*
X007131Y008578D02*
X007991Y008578D01*
X007991Y008459D02*
X007131Y008459D01*
X007131Y008341D02*
X007991Y008341D01*
X007991Y008815D02*
X007131Y008815D01*
X007131Y008933D02*
X007991Y008933D01*
X007991Y009052D02*
X007118Y009052D01*
X006524Y009052D02*
X004683Y009052D01*
X004782Y008933D02*
X006511Y008933D01*
X006511Y008815D02*
X004782Y008815D01*
X004782Y008696D02*
X006511Y008696D01*
X006511Y008578D02*
X004782Y008578D01*
X004782Y008459D02*
X006511Y008459D01*
X006511Y008341D02*
X006394Y008341D01*
X005748Y008341D02*
X004753Y008341D01*
X004645Y008222D02*
X005674Y008222D01*
X005674Y008104D02*
X004645Y008104D01*
X004406Y007740D02*
X004484Y007661D01*
X004406Y007740D02*
X004406Y008661D01*
X004128Y009052D02*
X004013Y009052D01*
X003911Y009171D02*
X005322Y009171D01*
X005204Y009289D02*
X003911Y009289D01*
X003911Y009408D02*
X005085Y009408D01*
X004966Y009526D02*
X003911Y009526D01*
X003911Y009645D02*
X004848Y009645D01*
X004729Y009763D02*
X003911Y009763D01*
X003911Y009882D02*
X004611Y009882D01*
X004492Y010000D02*
X003911Y010000D01*
X003911Y010119D02*
X004374Y010119D01*
X004255Y010237D02*
X003911Y010237D01*
X003911Y010356D02*
X004137Y010356D01*
X004018Y010475D02*
X003911Y010475D01*
X003671Y011161D02*
X003671Y008761D01*
X003736Y008696D01*
X003736Y008661D01*
X003716Y007985D02*
X003599Y007985D01*
X003599Y007867D02*
X003716Y007867D01*
X003716Y007748D02*
X003599Y007748D01*
X004054Y007748D02*
X004068Y007748D01*
X004054Y007867D02*
X004068Y007867D01*
X004081Y007985D02*
X004028Y007985D01*
X006071Y007327D02*
X007106Y007327D01*
X007371Y007061D01*
X006519Y007037D02*
X006449Y007037D01*
X007131Y006444D02*
X007991Y006444D01*
X007991Y006326D02*
X007131Y006326D01*
X007067Y006207D02*
X008046Y006207D01*
X009471Y005061D02*
X009471Y004161D01*
X007671Y002361D01*
X005871Y002361D01*
X004671Y001161D01*
X005151Y001110D02*
X005191Y001110D01*
X005191Y001228D02*
X005151Y001228D01*
X005151Y000991D02*
X005191Y000991D01*
X005281Y000873D02*
X005061Y000873D01*
X004942Y000754D02*
X005399Y000754D01*
X005942Y000754D02*
X006399Y000754D01*
X006281Y000873D02*
X006061Y000873D01*
X006151Y000991D02*
X006191Y000991D01*
X006191Y001110D02*
X006151Y001110D01*
X006151Y001228D02*
X006191Y001228D01*
X006671Y001161D02*
X007271Y001761D01*
X007871Y001761D01*
X010071Y003961D01*
X010071Y004861D01*
X010426Y005216D01*
X010927Y005216D01*
X010927Y004901D02*
X010511Y004901D01*
X010371Y004761D01*
X010371Y003861D01*
X007671Y001161D01*
X008151Y001110D02*
X008191Y001110D01*
X008191Y001228D02*
X008151Y001228D01*
X008151Y000991D02*
X008191Y000991D01*
X008281Y000873D02*
X008061Y000873D01*
X007942Y000754D02*
X008399Y000754D01*
X008942Y000754D02*
X009399Y000754D01*
X009281Y000873D02*
X009061Y000873D01*
X009151Y000991D02*
X009191Y000991D01*
X009191Y001110D02*
X009151Y001110D01*
X009151Y001228D02*
X009191Y001228D01*
X009671Y001161D02*
X011596Y003086D01*
X011596Y003917D01*
X011318Y003955D02*
X011167Y003955D01*
X011167Y004073D02*
X011318Y004073D01*
X011318Y004192D02*
X011167Y004192D01*
X011167Y004308D02*
X011297Y004308D01*
X011402Y004413D01*
X011402Y004759D01*
X011402Y005074D01*
X011402Y005389D01*
X011402Y005704D01*
X011402Y006019D01*
X011402Y006334D01*
X011402Y006649D01*
X011402Y006964D01*
X011402Y007161D01*
X011911Y007161D01*
X011911Y005810D01*
X011950Y005714D01*
X012024Y005641D01*
X012354Y005311D01*
X012449Y005271D01*
X012552Y005271D01*
X014940Y005271D01*
X014940Y005043D01*
X014940Y004932D01*
X014834Y004976D01*
X014708Y004976D01*
X014592Y004928D01*
X014504Y004840D01*
X014456Y004724D01*
X014456Y004599D01*
X014504Y004483D01*
X014506Y004481D01*
X014506Y004392D01*
X014327Y004392D01*
X014323Y004468D01*
X014338Y004483D01*
X014386Y004599D01*
X014386Y004724D01*
X014338Y004840D01*
X014249Y004928D01*
X014134Y004976D01*
X014008Y004976D01*
X013892Y004928D01*
X013804Y004840D01*
X013756Y004724D01*
X013756Y004599D01*
X013804Y004483D01*
X013844Y004443D01*
X013847Y004392D01*
X013628Y004392D01*
X013313Y004392D01*
X012998Y004392D01*
X012683Y004392D01*
X012662Y004372D01*
X012660Y004372D01*
X012541Y004372D01*
X012541Y003918D01*
X012541Y003918D01*
X012541Y004372D01*
X012421Y004372D01*
X012419Y004372D01*
X012399Y004392D01*
X012053Y004392D01*
X011738Y004392D01*
X011423Y004392D01*
X011318Y004287D01*
X011318Y003547D01*
X011356Y003509D01*
X011356Y003186D01*
X009811Y001641D01*
X009490Y001641D01*
X011130Y003281D01*
X011167Y003369D01*
X011167Y003465D01*
X011167Y004308D01*
X011299Y004310D02*
X011341Y004310D01*
X011402Y004429D02*
X013844Y004429D01*
X013777Y004547D02*
X011402Y004547D01*
X011402Y004666D02*
X013756Y004666D01*
X013781Y004784D02*
X011402Y004784D01*
X011402Y004903D02*
X013867Y004903D01*
X014275Y004903D02*
X014567Y004903D01*
X014481Y004784D02*
X014361Y004784D01*
X014386Y004666D02*
X014456Y004666D01*
X014477Y004547D02*
X014365Y004547D01*
X014325Y004429D02*
X014506Y004429D01*
X014746Y004586D02*
X014746Y003917D01*
X014431Y003917D02*
X014431Y003501D01*
X014771Y003161D01*
X015655Y003125D02*
X015731Y003125D01*
X015731Y003243D02*
X015655Y003243D01*
X015655Y003362D02*
X015731Y003362D01*
X015731Y003480D02*
X015655Y003480D01*
X015655Y003599D02*
X015731Y003599D01*
X015731Y003718D02*
X015655Y003718D01*
X015655Y003836D02*
X015731Y003836D01*
X015731Y003955D02*
X015655Y003955D01*
X015655Y004073D02*
X015731Y004073D01*
X015731Y004192D02*
X015655Y004192D01*
X015415Y004586D02*
X015415Y002417D01*
X016671Y001161D01*
X017151Y001110D02*
X017191Y001110D01*
X017191Y001228D02*
X017151Y001228D01*
X017151Y001347D02*
X017191Y001347D01*
X017296Y001465D02*
X017046Y001465D01*
X016927Y001584D02*
X017309Y001584D01*
X017190Y001702D02*
X016469Y001702D01*
X016351Y001821D02*
X017072Y001821D01*
X017171Y002061D02*
X017671Y001561D01*
X017671Y001161D01*
X018151Y001110D02*
X018191Y001110D01*
X018191Y001228D02*
X018151Y001228D01*
X018151Y001347D02*
X018191Y001347D01*
X018296Y001465D02*
X018046Y001465D01*
X017927Y001584D02*
X018409Y001584D01*
X018290Y001702D02*
X017869Y001702D01*
X017751Y001821D02*
X018172Y001821D01*
X018053Y001939D02*
X017632Y001939D01*
X017514Y002058D02*
X017935Y002058D01*
X017971Y002361D02*
X018671Y001661D01*
X018671Y001161D01*
X019151Y001110D02*
X019191Y001110D01*
X019191Y001228D02*
X019151Y001228D01*
X019151Y000991D02*
X019191Y000991D01*
X019281Y000873D02*
X019061Y000873D01*
X018942Y000754D02*
X019399Y000754D01*
X018399Y000754D02*
X017942Y000754D01*
X018061Y000873D02*
X018281Y000873D01*
X018191Y000991D02*
X018151Y000991D01*
X017399Y000754D02*
X016942Y000754D01*
X017061Y000873D02*
X017281Y000873D01*
X017191Y000991D02*
X017151Y000991D01*
X016399Y000754D02*
X015942Y000754D01*
X016061Y000873D02*
X016281Y000873D01*
X016191Y000991D02*
X016151Y000991D01*
X016151Y001110D02*
X016191Y001110D01*
X016191Y001228D02*
X016151Y001228D01*
X015671Y001161D02*
X015671Y001661D01*
X013801Y003531D01*
X013801Y003917D01*
X013486Y003917D02*
X013486Y003346D01*
X014671Y002161D01*
X014671Y001161D01*
X015151Y001110D02*
X015191Y001110D01*
X015191Y001228D02*
X015151Y001228D01*
X015151Y001347D02*
X015191Y001347D01*
X015296Y001465D02*
X015046Y001465D01*
X014927Y001584D02*
X015409Y001584D01*
X015290Y001702D02*
X014911Y001702D01*
X014911Y001821D02*
X015172Y001821D01*
X015053Y001939D02*
X014911Y001939D01*
X014911Y002058D02*
X014935Y002058D01*
X014431Y002058D02*
X013411Y002058D01*
X013411Y002176D02*
X014316Y002176D01*
X014198Y002295D02*
X013411Y002295D01*
X013411Y002414D02*
X014079Y002414D01*
X013961Y002532D02*
X013411Y002532D01*
X013411Y002651D02*
X013842Y002651D01*
X013723Y002769D02*
X013411Y002769D01*
X013411Y002888D02*
X013605Y002888D01*
X013486Y003006D02*
X013411Y003006D01*
X012616Y003006D02*
X012466Y003006D01*
X012466Y002888D02*
X012616Y002888D01*
X012616Y002769D02*
X012466Y002769D01*
X012466Y002651D02*
X012616Y002651D01*
X012616Y002532D02*
X012466Y002532D01*
X012466Y002414D02*
X012616Y002414D01*
X012616Y002295D02*
X012466Y002295D01*
X012466Y002176D02*
X012616Y002176D01*
X012616Y002058D02*
X012466Y002058D01*
X012466Y001939D02*
X012616Y001939D01*
X012616Y001821D02*
X012466Y001821D01*
X012466Y001764D02*
X012466Y003462D01*
X012541Y003462D01*
X012616Y003462D01*
X012616Y001641D01*
X012472Y001641D01*
X012442Y001611D01*
X012466Y001669D01*
X012466Y001764D01*
X012466Y001702D02*
X012616Y001702D01*
X012226Y001716D02*
X011671Y001161D01*
X012151Y001110D02*
X012191Y001110D01*
X012191Y001228D02*
X012151Y001228D01*
X012151Y000991D02*
X012191Y000991D01*
X012281Y000873D02*
X012061Y000873D01*
X011942Y000754D02*
X012399Y000754D01*
X012942Y000754D02*
X013399Y000754D01*
X013281Y000873D02*
X013061Y000873D01*
X013151Y000991D02*
X013191Y000991D01*
X013191Y001110D02*
X013151Y001110D01*
X013151Y001228D02*
X013191Y001228D01*
X012856Y001346D02*
X012671Y001161D01*
X012856Y001346D02*
X012856Y003917D01*
X012541Y003917D02*
X012541Y003462D01*
X012541Y003917D01*
X012541Y003917D01*
X012541Y003955D02*
X012541Y003955D01*
X012541Y004073D02*
X012541Y004073D01*
X012541Y004192D02*
X012541Y004192D01*
X012541Y004310D02*
X012541Y004310D01*
X012541Y003836D02*
X012541Y003836D01*
X012541Y003718D02*
X012541Y003718D01*
X012541Y003599D02*
X012541Y003599D01*
X012541Y003480D02*
X012541Y003480D01*
X012466Y003362D02*
X012616Y003362D01*
X012616Y003243D02*
X012466Y003243D01*
X012466Y003125D02*
X012616Y003125D01*
X012226Y003917D02*
X012226Y001716D01*
X013171Y001661D02*
X013171Y003917D01*
X014116Y003916D02*
X014071Y004661D01*
X014746Y004586D02*
X014771Y004661D01*
X014940Y005022D02*
X011402Y005022D01*
X011402Y005140D02*
X014940Y005140D01*
X014940Y005259D02*
X011402Y005259D01*
X011402Y005377D02*
X012287Y005377D01*
X012169Y005496D02*
X011402Y005496D01*
X011402Y005614D02*
X012050Y005614D01*
X011943Y005733D02*
X011402Y005733D01*
X011402Y005851D02*
X011911Y005851D01*
X011911Y005970D02*
X011402Y005970D01*
X011402Y006088D02*
X011911Y006088D01*
X011911Y006207D02*
X011402Y006207D01*
X011402Y006326D02*
X011911Y006326D01*
X011911Y006444D02*
X011402Y006444D01*
X011402Y006563D02*
X011911Y006563D01*
X011911Y006681D02*
X011402Y006681D01*
X011402Y006800D02*
X011911Y006800D01*
X011911Y006918D02*
X011402Y006918D01*
X011402Y007037D02*
X011911Y007037D01*
X011911Y007155D02*
X011402Y007155D01*
X010927Y007736D02*
X010927Y008805D01*
X010071Y009661D01*
X009971Y009421D02*
X009550Y009421D01*
X009674Y009297D01*
X009711Y009209D01*
X009711Y009114D01*
X009711Y007934D01*
X009752Y007975D01*
X009746Y007981D01*
X009725Y008018D01*
X009714Y008058D01*
X009714Y008257D01*
X010032Y008257D01*
X010032Y008334D01*
X009714Y008334D01*
X009714Y008534D01*
X009725Y008574D01*
X009746Y008611D01*
X009776Y008640D01*
X009812Y008661D01*
X009853Y008672D01*
X010032Y008672D01*
X010032Y008335D01*
X010109Y008335D01*
X010109Y008672D01*
X010289Y008672D01*
X010329Y008661D01*
X010366Y008640D01*
X010396Y008611D01*
X010417Y008574D01*
X010428Y008534D01*
X010428Y008334D01*
X010110Y008334D01*
X010110Y008257D01*
X010428Y008257D01*
X010428Y008058D01*
X010417Y008018D01*
X010396Y007981D01*
X010390Y007975D01*
X010448Y007918D01*
X010448Y007811D01*
X010451Y007809D01*
X010451Y007909D01*
X010557Y008014D01*
X010687Y008014D01*
X010687Y008706D01*
X009971Y009421D01*
X009985Y009408D02*
X009564Y009408D01*
X009678Y009289D02*
X010104Y009289D01*
X010222Y009171D02*
X009711Y009171D01*
X009711Y009052D02*
X010341Y009052D01*
X010459Y008933D02*
X009711Y008933D01*
X009711Y008815D02*
X010578Y008815D01*
X010687Y008696D02*
X009711Y008696D01*
X009711Y008578D02*
X009727Y008578D01*
X009714Y008459D02*
X009711Y008459D01*
X009711Y008341D02*
X009714Y008341D01*
X009711Y008222D02*
X009714Y008222D01*
X009711Y008104D02*
X009714Y008104D01*
X009711Y007985D02*
X009744Y007985D01*
X010032Y008341D02*
X010109Y008341D01*
X010109Y008459D02*
X010032Y008459D01*
X010032Y008578D02*
X010109Y008578D01*
X010415Y008578D02*
X010687Y008578D01*
X010687Y008459D02*
X010428Y008459D01*
X010428Y008341D02*
X010687Y008341D01*
X010687Y008222D02*
X010428Y008222D01*
X010428Y008104D02*
X010687Y008104D01*
X010528Y007985D02*
X010398Y007985D01*
X010448Y007867D02*
X010451Y007867D01*
X011596Y008405D02*
X011596Y009036D01*
X010671Y009961D01*
X009471Y009961D01*
X008871Y010561D01*
X008271Y010561D01*
X007671Y011161D01*
X008151Y011186D02*
X008191Y011186D01*
X008191Y011304D02*
X008151Y011304D01*
X008088Y011423D02*
X008254Y011423D01*
X008372Y011541D02*
X007969Y011541D01*
X008151Y011067D02*
X008191Y011067D01*
X008671Y011161D02*
X009571Y010261D01*
X010771Y010261D01*
X011911Y009121D01*
X011911Y008405D01*
X012226Y008405D02*
X012226Y009206D01*
X010871Y010561D01*
X010271Y010561D01*
X009671Y011161D01*
X010151Y011186D02*
X010191Y011186D01*
X010191Y011304D02*
X010151Y011304D01*
X010088Y011423D02*
X010254Y011423D01*
X010372Y011541D02*
X009969Y011541D01*
X009372Y011541D02*
X008969Y011541D01*
X009088Y011423D02*
X009254Y011423D01*
X009191Y011304D02*
X009151Y011304D01*
X009151Y011186D02*
X009191Y011186D01*
X009191Y011067D02*
X009151Y011067D01*
X010151Y011067D02*
X010191Y011067D01*
X010671Y011161D02*
X012541Y009291D01*
X012541Y008405D01*
X012856Y008405D02*
X012856Y009476D01*
X011671Y010661D01*
X011671Y011161D01*
X012019Y010830D02*
X012323Y010830D01*
X012431Y010712D02*
X011960Y010712D01*
X012078Y010593D02*
X012431Y010593D01*
X012431Y010475D02*
X012197Y010475D01*
X012315Y010356D02*
X012431Y010356D01*
X012671Y010161D02*
X012671Y011161D01*
X013019Y010830D02*
X013323Y010830D01*
X013431Y010712D02*
X012911Y010712D01*
X012911Y010593D02*
X013431Y010593D01*
X013431Y010475D02*
X012911Y010475D01*
X012911Y010356D02*
X013356Y010356D01*
X013264Y010237D02*
X012934Y010237D01*
X013053Y010119D02*
X013246Y010119D01*
X013246Y010000D02*
X013171Y010000D01*
X013486Y010146D02*
X013671Y010331D01*
X013671Y011161D01*
X014019Y010830D02*
X014323Y010830D01*
X014431Y010712D02*
X013911Y010712D01*
X013911Y010593D02*
X014439Y010593D01*
X014518Y010475D02*
X013911Y010475D01*
X013911Y010356D02*
X014637Y010356D01*
X014755Y010237D02*
X013892Y010237D01*
X013798Y010119D02*
X014874Y010119D01*
X014931Y010000D02*
X013726Y010000D01*
X013486Y010146D02*
X013486Y008405D01*
X013171Y008405D02*
X013171Y009661D01*
X012671Y010161D01*
X013137Y010949D02*
X013205Y010949D01*
X013191Y011067D02*
X013151Y011067D01*
X013151Y011186D02*
X013191Y011186D01*
X013191Y011304D02*
X013151Y011304D01*
X013088Y011423D02*
X013254Y011423D01*
X013372Y011541D02*
X012969Y011541D01*
X012372Y011541D02*
X011969Y011541D01*
X012088Y011423D02*
X012254Y011423D01*
X012191Y011304D02*
X012151Y011304D01*
X012151Y011186D02*
X012191Y011186D01*
X012191Y011067D02*
X012151Y011067D01*
X012137Y010949D02*
X012205Y010949D01*
X011372Y011541D02*
X010969Y011541D01*
X011088Y011423D02*
X011254Y011423D01*
X011191Y011304D02*
X011151Y011304D01*
X011151Y011186D02*
X011191Y011186D01*
X011191Y011067D02*
X011151Y011067D01*
X013969Y011541D02*
X014372Y011541D01*
X014254Y011423D02*
X014088Y011423D01*
X014151Y011304D02*
X014191Y011304D01*
X014191Y011186D02*
X014151Y011186D01*
X014151Y011067D02*
X014191Y011067D01*
X014205Y010949D02*
X014137Y010949D01*
X014671Y011161D02*
X014671Y010661D01*
X015171Y010161D01*
X015171Y008561D01*
X015015Y008405D01*
X014746Y008405D01*
X014431Y008405D02*
X014431Y007701D01*
X014571Y007561D01*
X014886Y007511D02*
X014940Y007511D01*
X014940Y007629D02*
X014884Y007629D01*
X014830Y007748D02*
X014940Y007748D01*
X014940Y007867D02*
X014671Y007867D01*
X014974Y007985D02*
X015016Y007985D01*
X015024Y008104D02*
X015175Y008104D01*
X015171Y008222D02*
X015175Y008222D01*
X015671Y008361D02*
X015671Y010161D01*
X016671Y011161D01*
X017151Y011186D02*
X017191Y011186D01*
X017191Y011304D02*
X017151Y011304D01*
X017088Y011423D02*
X017254Y011423D01*
X017372Y011541D02*
X016969Y011541D01*
X017151Y011067D02*
X017191Y011067D01*
X017671Y011161D02*
X017071Y010561D01*
X016471Y010561D01*
X015971Y010061D01*
X015971Y008461D01*
X016271Y008161D01*
X016271Y007461D01*
X015916Y007106D01*
X015415Y007106D01*
X015415Y006791D02*
X016001Y006791D01*
X016571Y007361D01*
X016571Y008361D01*
X016271Y008661D01*
X016271Y009961D01*
X016571Y010261D01*
X017171Y010261D01*
X017471Y010561D01*
X018071Y010561D01*
X018671Y011161D01*
X019019Y010830D02*
X019323Y010830D01*
X019354Y010712D02*
X018900Y010712D01*
X019235Y010593D02*
X018442Y010593D01*
X017879Y010237D02*
X017486Y010237D01*
X017368Y010119D02*
X017761Y010119D01*
X017676Y010000D02*
X016649Y010000D01*
X016531Y009882D02*
X017661Y009882D01*
X017661Y009763D02*
X016511Y009763D01*
X017257Y009645D02*
X017485Y009645D01*
X017433Y009526D02*
X017308Y009526D01*
X017308Y009408D02*
X017433Y009408D01*
X018181Y009763D02*
X021411Y009763D01*
X021411Y009645D02*
X018257Y009645D01*
X018308Y009526D02*
X021411Y009526D01*
X021411Y009408D02*
X018308Y009408D01*
X018308Y009289D02*
X021411Y009289D01*
X021312Y009171D02*
X018308Y009171D01*
X018308Y009052D02*
X021194Y009052D01*
X021075Y008933D02*
X018308Y008933D01*
X018638Y008696D02*
X016575Y008696D01*
X016511Y008815D02*
X018757Y008815D01*
X018520Y008578D02*
X016694Y008578D01*
X015971Y008061D02*
X015671Y008361D01*
X015971Y008061D02*
X015971Y007561D01*
X015831Y007421D01*
X015415Y007421D01*
X015415Y007736D02*
X015415Y010917D01*
X015671Y011161D01*
X016151Y011186D02*
X016191Y011186D01*
X016191Y011304D02*
X016151Y011304D01*
X016088Y011423D02*
X016254Y011423D01*
X016372Y011541D02*
X015969Y011541D01*
X015372Y011541D02*
X014969Y011541D01*
X015088Y011423D02*
X015254Y011423D01*
X015191Y011304D02*
X015151Y011304D01*
X015151Y011186D02*
X015191Y011186D01*
X015191Y011067D02*
X015151Y011067D01*
X015137Y010949D02*
X015175Y010949D01*
X015175Y010830D02*
X015019Y010830D01*
X014960Y010712D02*
X015175Y010712D01*
X015175Y010593D02*
X015078Y010593D01*
X016151Y011067D02*
X016191Y011067D01*
X017969Y011541D02*
X018372Y011541D01*
X018254Y011423D02*
X018088Y011423D01*
X018151Y011304D02*
X018191Y011304D01*
X018191Y011186D02*
X018151Y011186D01*
X018151Y011067D02*
X018191Y011067D01*
X018969Y011541D02*
X019372Y011541D01*
X019254Y011423D02*
X019088Y011423D01*
X019151Y011304D02*
X019191Y011304D01*
X019191Y011186D02*
X019151Y011186D01*
X019151Y011067D02*
X019191Y011067D01*
X019205Y010949D02*
X019137Y010949D01*
X019931Y010712D02*
X020442Y010712D01*
X020472Y010681D02*
X020870Y010681D01*
X021151Y010962D01*
X021151Y011360D01*
X020870Y011641D01*
X020472Y011641D01*
X020191Y011360D01*
X020191Y010962D01*
X020472Y010681D01*
X020323Y010830D02*
X020019Y010830D01*
X020137Y010949D02*
X020205Y010949D01*
X020191Y011067D02*
X020151Y011067D01*
X020151Y011186D02*
X020191Y011186D01*
X020191Y011304D02*
X020151Y011304D01*
X020088Y011423D02*
X020254Y011423D01*
X020372Y011541D02*
X019969Y011541D01*
X020969Y011541D02*
X021372Y011541D01*
X021254Y011423D02*
X021088Y011423D01*
X021151Y011304D02*
X021191Y011304D01*
X021191Y011186D02*
X021151Y011186D01*
X021151Y011067D02*
X021191Y011067D01*
X021205Y010949D02*
X021137Y010949D01*
X021019Y010830D02*
X021323Y010830D01*
X021411Y010712D02*
X020900Y010712D01*
X021411Y010593D02*
X019924Y010593D01*
X019852Y010475D02*
X021411Y010475D01*
X021411Y010356D02*
X019733Y010356D01*
X019615Y010237D02*
X021411Y010237D01*
X021411Y010119D02*
X019496Y010119D01*
X018378Y010000D02*
X021411Y010000D01*
X021411Y009882D02*
X018259Y009882D01*
X014931Y009882D02*
X014925Y009882D01*
X014644Y009882D02*
X014567Y009882D01*
X014567Y009763D02*
X014644Y009763D01*
X014644Y009645D02*
X014567Y009645D01*
X014567Y009523D02*
X014644Y009523D01*
X014644Y009204D01*
X014843Y009204D01*
X014884Y009215D01*
X014920Y009236D01*
X014931Y009247D01*
X014931Y008868D01*
X014919Y008881D01*
X014604Y008881D01*
X014258Y008881D01*
X014237Y008860D01*
X014235Y008861D01*
X014116Y008861D01*
X014116Y008406D01*
X014116Y008406D01*
X014116Y008861D01*
X014061Y008861D01*
X014061Y008983D01*
X014157Y009079D01*
X014196Y009175D01*
X014196Y009184D01*
X014227Y009184D01*
X014285Y009242D01*
X014291Y009236D01*
X014327Y009215D01*
X014368Y009204D01*
X014567Y009204D01*
X014567Y009523D01*
X014567Y009408D02*
X014644Y009408D01*
X014644Y009289D02*
X014567Y009289D01*
X014931Y009171D02*
X014194Y009171D01*
X014129Y009052D02*
X014931Y009052D01*
X014931Y008933D02*
X014061Y008933D01*
X014116Y008815D02*
X014116Y008815D01*
X014116Y008696D02*
X014116Y008696D01*
X014116Y008578D02*
X014116Y008578D01*
X014116Y008459D02*
X014116Y008459D01*
X014116Y008405D02*
X014116Y007950D01*
X014116Y008405D01*
X014116Y008405D01*
X014116Y008341D02*
X014116Y008341D01*
X014116Y008222D02*
X014116Y008222D01*
X014116Y008104D02*
X014116Y008104D01*
X014116Y007985D02*
X014116Y007985D01*
X014061Y007867D02*
X014191Y007867D01*
X014191Y007748D02*
X014061Y007748D01*
X014061Y007629D02*
X014201Y007629D01*
X014256Y007511D02*
X014061Y007511D01*
X014041Y007392D02*
X014300Y007392D01*
X014442Y007274D02*
X013951Y007274D01*
X013833Y007155D02*
X014940Y007155D01*
X014940Y007037D02*
X013714Y007037D01*
X013653Y006918D02*
X014940Y006918D01*
X014940Y006800D02*
X013555Y006800D01*
X012786Y006476D02*
X012771Y006461D01*
X012786Y006476D02*
X015415Y006476D01*
X016086Y006476D01*
X016321Y006711D01*
X017021Y006711D01*
X017771Y005961D01*
X017771Y004061D01*
X019171Y002661D01*
X019421Y002411D01*
X020671Y001161D01*
X019851Y001641D02*
X019530Y001641D01*
X017511Y003661D01*
X017511Y004909D01*
X017474Y004997D01*
X017407Y005065D01*
X016422Y006050D01*
X016334Y006086D01*
X016238Y006086D01*
X015870Y006086D01*
X015870Y006161D01*
X015415Y006161D01*
X015415Y006161D01*
X014960Y006161D01*
X015415Y006161D01*
X015415Y006161D01*
X015870Y006161D01*
X015870Y006236D01*
X016038Y006236D01*
X016134Y006236D01*
X016222Y006273D01*
X016420Y006471D01*
X016921Y006471D01*
X017531Y005862D01*
X017531Y004109D01*
X017531Y004014D01*
X017567Y003925D01*
X018967Y002525D01*
X018967Y002525D01*
X019285Y002208D01*
X019851Y001641D01*
X019790Y001702D02*
X019469Y001702D01*
X019351Y001821D02*
X019672Y001821D01*
X019553Y001939D02*
X019232Y001939D01*
X019114Y002058D02*
X019435Y002058D01*
X019316Y002176D02*
X018995Y002176D01*
X018876Y002295D02*
X019198Y002295D01*
X019285Y002208D02*
X019285Y002208D01*
X019079Y002414D02*
X018758Y002414D01*
X018639Y002532D02*
X018961Y002532D01*
X018842Y002651D02*
X018521Y002651D01*
X018402Y002769D02*
X018723Y002769D01*
X018605Y002888D02*
X018284Y002888D01*
X018165Y003006D02*
X018486Y003006D01*
X018368Y003125D02*
X018047Y003125D01*
X017928Y003243D02*
X018249Y003243D01*
X018131Y003362D02*
X017810Y003362D01*
X017691Y003480D02*
X018012Y003480D01*
X017894Y003599D02*
X017572Y003599D01*
X017511Y003718D02*
X017775Y003718D01*
X017657Y003836D02*
X017511Y003836D01*
X017511Y003955D02*
X017555Y003955D01*
X017531Y004073D02*
X017511Y004073D01*
X017511Y004192D02*
X017531Y004192D01*
X017531Y004310D02*
X017511Y004310D01*
X017511Y004429D02*
X017531Y004429D01*
X017531Y004547D02*
X017511Y004547D01*
X017511Y004666D02*
X017531Y004666D01*
X017531Y004784D02*
X017511Y004784D01*
X017511Y004903D02*
X017531Y004903D01*
X017531Y005022D02*
X017450Y005022D01*
X017531Y005140D02*
X017331Y005140D01*
X017213Y005259D02*
X017531Y005259D01*
X017531Y005377D02*
X017094Y005377D01*
X016976Y005496D02*
X017531Y005496D01*
X017531Y005614D02*
X016857Y005614D01*
X016739Y005733D02*
X017531Y005733D01*
X017531Y005851D02*
X016620Y005851D01*
X016502Y005970D02*
X017423Y005970D01*
X017304Y006088D02*
X015870Y006088D01*
X015870Y006207D02*
X017186Y006207D01*
X017067Y006326D02*
X016275Y006326D01*
X016393Y006444D02*
X016949Y006444D01*
X018963Y007037D02*
X020101Y007037D01*
X019922Y007155D02*
X019589Y007155D01*
X019655Y007274D02*
X019866Y007274D01*
X019866Y007392D02*
X019655Y007392D01*
X019240Y007392D02*
X019120Y007392D01*
X019120Y007274D02*
X019240Y007274D01*
X019240Y007155D02*
X019120Y007155D01*
X019782Y006918D02*
X019867Y006918D01*
X019818Y006882D02*
X019818Y006882D01*
X019931Y006444D02*
X021331Y006444D01*
X021331Y006326D02*
X019931Y006326D01*
X020662Y006207D02*
X021331Y006207D01*
X021331Y006088D02*
X020699Y006088D01*
X020699Y005970D02*
X021331Y005970D01*
X021331Y005851D02*
X020699Y005851D01*
X020627Y005733D02*
X021331Y005733D01*
X021811Y005733D02*
X022191Y005733D01*
X022191Y005851D02*
X021811Y005851D01*
X021811Y005970D02*
X022191Y005970D01*
X022191Y006010D02*
X022191Y005612D01*
X022472Y005331D01*
X022870Y005331D01*
X023151Y005612D01*
X023151Y006010D01*
X022870Y006291D01*
X022472Y006291D01*
X022191Y006010D01*
X022269Y006088D02*
X021811Y006088D01*
X021811Y006207D02*
X022388Y006207D01*
X022388Y006444D02*
X021811Y006444D01*
X021811Y006326D02*
X023241Y006326D01*
X023241Y006444D02*
X022954Y006444D01*
X023073Y006563D02*
X023241Y006563D01*
X023241Y006681D02*
X023131Y006681D01*
X022711Y006681D02*
X022631Y006681D01*
X022631Y006563D02*
X022711Y006563D01*
X022711Y006444D02*
X022631Y006444D01*
X022269Y006563D02*
X021811Y006563D01*
X021811Y006681D02*
X022211Y006681D01*
X022631Y006918D02*
X022711Y006918D01*
X022711Y007037D02*
X022631Y007037D01*
X022631Y007155D02*
X022711Y007155D01*
X023049Y007511D02*
X023241Y007511D01*
X023241Y007629D02*
X023151Y007629D01*
X023151Y007748D02*
X023241Y007748D01*
X023241Y007867D02*
X023151Y007867D01*
X023151Y007985D02*
X023241Y007985D01*
X023241Y008104D02*
X023057Y008104D01*
X022939Y008222D02*
X023241Y008222D01*
X022403Y008222D02*
X021978Y008222D01*
X021395Y007629D02*
X020856Y007629D01*
X020856Y007511D02*
X021292Y007511D01*
X021256Y007392D02*
X020856Y007392D01*
X020856Y007274D02*
X021266Y007274D01*
X021331Y007155D02*
X020801Y007155D01*
X020621Y007037D02*
X021331Y007037D01*
X021331Y006918D02*
X020699Y006918D01*
X020699Y006800D02*
X021331Y006800D01*
X021331Y006681D02*
X020699Y006681D01*
X020699Y006563D02*
X021331Y006563D01*
X021811Y005614D02*
X022191Y005614D01*
X022308Y005496D02*
X021811Y005496D01*
X021811Y005377D02*
X022426Y005377D01*
X022439Y005259D02*
X021913Y005259D01*
X022031Y005140D02*
X022321Y005140D01*
X022902Y005259D02*
X023241Y005259D01*
X023241Y005377D02*
X022916Y005377D01*
X023034Y005496D02*
X023241Y005496D01*
X023241Y005614D02*
X023151Y005614D01*
X023151Y005733D02*
X023241Y005733D01*
X023241Y005851D02*
X023151Y005851D01*
X023151Y005970D02*
X023241Y005970D01*
X023241Y006088D02*
X023072Y006088D01*
X022954Y006207D02*
X023241Y006207D01*
X020521Y004784D02*
X020401Y004784D01*
X020401Y004666D02*
X020521Y004666D01*
X020521Y004547D02*
X020401Y004547D01*
X020401Y004429D02*
X020521Y004429D01*
X020521Y004073D02*
X020401Y004073D01*
X020445Y003955D02*
X020521Y003955D01*
X019475Y005022D02*
X019398Y005022D01*
X019398Y005140D02*
X019475Y005140D01*
X019060Y005377D02*
X018931Y005377D01*
X018931Y005496D02*
X019064Y005496D01*
X019184Y005614D02*
X018931Y005614D01*
X016271Y004861D02*
X016271Y002661D01*
X016571Y002361D01*
X017971Y002361D01*
X017891Y002601D02*
X016670Y002601D01*
X016511Y002761D01*
X016511Y003262D01*
X016512Y003261D01*
X016553Y003250D01*
X016732Y003250D01*
X016732Y003588D01*
X016809Y003588D01*
X016809Y003250D01*
X016989Y003250D01*
X017029Y003261D01*
X017066Y003282D01*
X017096Y003312D01*
X017117Y003348D01*
X017123Y003370D01*
X017891Y002601D01*
X017842Y002651D02*
X016621Y002651D01*
X016511Y002769D02*
X017724Y002769D01*
X017605Y002888D02*
X016511Y002888D01*
X016511Y003006D02*
X017486Y003006D01*
X017368Y003125D02*
X016511Y003125D01*
X016511Y003243D02*
X017249Y003243D01*
X017131Y003362D02*
X017120Y003362D01*
X016809Y003362D02*
X016732Y003362D01*
X016732Y003480D02*
X016809Y003480D01*
X015731Y003006D02*
X015655Y003006D01*
X015655Y002888D02*
X015731Y002888D01*
X015731Y002769D02*
X015655Y002769D01*
X015655Y002651D02*
X015731Y002651D01*
X015731Y002532D02*
X015655Y002532D01*
X015758Y002414D02*
X015779Y002414D01*
X015876Y002295D02*
X015898Y002295D01*
X015995Y002176D02*
X016016Y002176D01*
X016114Y002058D02*
X016135Y002058D01*
X016232Y001939D02*
X016253Y001939D01*
X016471Y002061D02*
X017171Y002061D01*
X016471Y002061D02*
X015971Y002561D01*
X015971Y004761D01*
X015831Y004901D01*
X015415Y004901D01*
X015415Y005216D02*
X015916Y005216D01*
X016271Y004861D01*
X014116Y003917D02*
X014116Y003916D01*
X011911Y003917D02*
X011911Y002401D01*
X010671Y001161D01*
X011151Y001110D02*
X011191Y001110D01*
X011191Y001228D02*
X011151Y001228D01*
X011151Y000991D02*
X011191Y000991D01*
X011281Y000873D02*
X011061Y000873D01*
X010942Y000754D02*
X011399Y000754D01*
X010399Y000754D02*
X009942Y000754D01*
X010061Y000873D02*
X010281Y000873D01*
X010191Y000991D02*
X010151Y000991D01*
X010151Y001110D02*
X010191Y001110D01*
X010191Y001228D02*
X010151Y001228D01*
X009873Y001702D02*
X009551Y001702D01*
X009670Y001821D02*
X009991Y001821D01*
X010110Y001939D02*
X009788Y001939D01*
X009907Y002058D02*
X010228Y002058D01*
X010347Y002176D02*
X010025Y002176D01*
X010144Y002295D02*
X010465Y002295D01*
X010584Y002414D02*
X010263Y002414D01*
X010381Y002532D02*
X010702Y002532D01*
X010821Y002651D02*
X010500Y002651D01*
X010618Y002769D02*
X010939Y002769D01*
X011058Y002888D02*
X010737Y002888D01*
X010855Y003006D02*
X011176Y003006D01*
X011295Y003125D02*
X010974Y003125D01*
X011092Y003243D02*
X011356Y003243D01*
X011356Y003362D02*
X011164Y003362D01*
X011167Y003480D02*
X011356Y003480D01*
X011318Y003599D02*
X011167Y003599D01*
X011167Y003718D02*
X011318Y003718D01*
X011318Y003836D02*
X011167Y003836D01*
X010927Y003417D02*
X008671Y001161D01*
X007399Y000754D02*
X006942Y000754D01*
X007061Y000873D02*
X007281Y000873D01*
X007191Y000991D02*
X007151Y000991D01*
X007151Y001110D02*
X007191Y001110D01*
X007191Y001228D02*
X007151Y001228D01*
X006571Y002061D02*
X005671Y001161D01*
X004399Y000754D02*
X003942Y000754D01*
X004061Y000873D02*
X004281Y000873D01*
X004191Y000991D02*
X004151Y000991D01*
X004151Y001110D02*
X004191Y001110D01*
X004191Y001228D02*
X004151Y001228D01*
X006571Y002061D02*
X007771Y002061D01*
X009771Y004061D01*
X009771Y004961D01*
X010341Y005531D01*
X010927Y005531D01*
X010927Y005846D02*
X010256Y005846D01*
X009471Y005061D01*
X010927Y004586D02*
X010927Y003417D01*
X013411Y001939D02*
X014431Y001939D01*
X014431Y001821D02*
X013411Y001821D01*
X013469Y001702D02*
X014431Y001702D01*
X014415Y001584D02*
X013927Y001584D01*
X014046Y001465D02*
X014296Y001465D01*
X014191Y001347D02*
X014151Y001347D01*
X014151Y001228D02*
X014191Y001228D01*
X014191Y001110D02*
X014151Y001110D01*
X014151Y000991D02*
X014191Y000991D01*
X014281Y000873D02*
X014061Y000873D01*
X013942Y000754D02*
X014399Y000754D01*
X014942Y000754D02*
X015399Y000754D01*
X015281Y000873D02*
X015061Y000873D01*
X015151Y000991D02*
X015191Y000991D01*
X013671Y001161D02*
X013171Y001661D01*
X012962Y006207D02*
X014960Y006207D01*
X014940Y007274D02*
X014700Y007274D01*
X014842Y007392D02*
X014940Y007392D01*
X014284Y009882D02*
X014286Y009882D01*
X007372Y011541D02*
X006969Y011541D01*
X007088Y011423D02*
X007254Y011423D01*
X007191Y011304D02*
X007151Y011304D01*
X007151Y011186D02*
X007191Y011186D01*
X007191Y011067D02*
X007151Y011067D01*
X005191Y011067D02*
X005151Y011067D01*
X005063Y005022D02*
X004713Y005022D01*
X004098Y005022D02*
X004044Y005022D01*
X022019Y010830D02*
X022351Y010830D01*
X022233Y010949D02*
X022137Y010949D01*
X022151Y011067D02*
X022211Y011067D01*
X022631Y011304D02*
X022711Y011304D01*
X022711Y011186D02*
X023241Y011186D01*
X023241Y011304D02*
X023131Y011304D01*
X023060Y011423D02*
X023241Y011423D01*
X023241Y011067D02*
X023131Y011067D01*
X023109Y010949D02*
X023241Y010949D01*
X023241Y010830D02*
X022990Y010830D01*
X022872Y010712D02*
X023241Y010712D01*
X022711Y011423D02*
X022631Y011423D01*
X022969Y004192D02*
X023241Y004192D01*
X023241Y004073D02*
X023088Y004073D01*
X023151Y003955D02*
X023241Y003955D01*
X023241Y003836D02*
X023151Y003836D01*
X023151Y003718D02*
X023241Y003718D01*
X023241Y003599D02*
X023137Y003599D01*
X023241Y003480D02*
X023019Y003480D01*
X022900Y003362D02*
X023241Y003362D01*
X023241Y003243D02*
X022917Y003243D01*
X023036Y003125D02*
X023241Y003125D01*
X023241Y003006D02*
X023151Y003006D01*
X023151Y002888D02*
X023241Y002888D01*
X023241Y002769D02*
X023151Y002769D01*
X023151Y002651D02*
X023241Y002651D01*
X023241Y002532D02*
X023071Y002532D01*
X022952Y002414D02*
X023241Y002414D01*
D22*
X021171Y004261D03*
X020771Y006361D03*
X019771Y007061D03*
X017971Y006861D03*
X017471Y006861D03*
X018071Y006361D03*
X016871Y006311D03*
X016471Y006311D03*
X014671Y006061D03*
X013671Y006061D03*
X013171Y006061D03*
X012771Y006461D03*
X013371Y007061D03*
X014171Y007261D03*
X014671Y006961D03*
X014571Y007561D03*
X012971Y007561D03*
X012171Y007461D03*
X010521Y008661D03*
X009971Y008861D03*
X007271Y008961D03*
X005471Y008961D03*
X003271Y008261D03*
X003271Y007161D03*
X005671Y006161D03*
X007371Y007061D03*
X007471Y006361D03*
X008921Y006661D03*
X009071Y006061D03*
X011671Y006061D03*
X011671Y005161D03*
X011671Y004561D03*
X012571Y004561D03*
X014071Y004661D03*
X014771Y004661D03*
X014771Y003161D03*
X014171Y001861D03*
X016771Y002861D03*
X021571Y007361D03*
X021771Y008561D03*
X022171Y009961D03*
X021171Y009961D03*
X019171Y009461D03*
X014621Y010161D03*
X014171Y010161D03*
X014321Y009061D03*
X004071Y003161D03*
D23*
X004406Y004661D02*
X005071Y004661D01*
X005671Y005261D01*
X005671Y006161D01*
X010071Y007627D02*
X010136Y007561D01*
X010371Y007561D01*
X010511Y007421D01*
X010927Y007421D01*
X012131Y007421D01*
X012171Y007461D01*
X012171Y005861D01*
X012501Y005531D01*
X015415Y005531D01*
X016101Y005531D01*
X016771Y004861D01*
X016771Y004296D01*
X018671Y004461D02*
X018771Y004361D01*
X019280Y004361D01*
X019280Y003952D01*
X019471Y003761D01*
X020271Y003761D01*
X021671Y002361D01*
X021671Y001161D01*
X018671Y004461D02*
X018671Y005861D01*
X018797Y005987D01*
X019259Y005987D01*
X019597Y005987D01*
X019671Y006061D01*
X019671Y006661D01*
X019597Y006735D01*
X019259Y006735D01*
X018897Y006735D01*
X018571Y007061D01*
X018571Y008261D01*
X018921Y008611D01*
X021121Y008611D01*
X021671Y009161D01*
X021671Y011161D01*
X019671Y011161D02*
X019671Y010661D01*
X019271Y010261D01*
X018271Y010261D01*
X017921Y009911D01*
X017921Y009311D01*
X017871Y009261D01*
X020471Y007861D02*
X020671Y008061D01*
X021771Y008061D01*
X021921Y007911D01*
X022571Y007911D01*
X022671Y007811D01*
X020471Y007861D02*
X020471Y007561D01*
X020361Y007561D01*
X020361Y006814D01*
X020283Y006735D01*
X020283Y005987D02*
X020197Y005987D01*
X020171Y005961D01*
X020171Y005327D01*
X020106Y005261D01*
X013801Y007491D02*
X013371Y007061D01*
X013801Y007491D02*
X013801Y008405D01*
X013801Y009091D01*
X013936Y009227D01*
X013936Y009561D01*
M02*
