%
M48
M72
T01C0.0150
T02C0.0354
T03C0.0400
T04C0.1260
%
T01
X2454Y702
X2454Y2202
X6654Y3538
X8154Y4002
X10154Y5202
X11154Y6202
X11454Y6402
X10654Y6402
X10154Y6402
X9254Y6302
X8854Y6302
X8354Y6502
X8654Y7002
X8254Y7402
X8854Y8202
X8854Y8902
X9754Y9202
X9354Y9602
X8854Y9902
X10954Y9302
X11154Y9002
X11354Y8402
X11654Y8102
X12054Y8002
X11254Y7702
X10254Y7802
X10054Y8102
X9654Y7802
X7454Y6102
X6654Y6102
X5754Y6102
X4854Y5602
X3154Y6402
X2654Y7902
X2654Y9002
X4254Y7902
X4754Y9002
X6154Y9002
X4254Y11002
X5354Y11802
X5854Y12002
X7154Y11902
X8254Y11802
X9954Y13002
X10054Y13602
X9554Y13602
X11154Y13502
X11954Y13602
X13454Y14502
X13754Y13502
X12254Y12102
X11354Y12102
X11254Y10802
X13954Y9602
X14354Y9502
X14654Y9802
X15454Y10602
X15154Y10802
X15854Y10702
X16954Y10102
X17254Y10402
X18054Y10802
X18454Y11202
X18854Y10702
X17954Y9702
X17954Y8602
X18554Y7802
X19054Y7802
X19954Y8802
X21954Y10002
X23154Y10202
X23154Y8902
X19454Y6302
X19954Y4202
X21454Y4202
X21454Y2702
X19954Y2702
X18254Y4202
X15054Y6002
X16054Y7402
X15054Y8302
X14754Y8002
X14454Y7702
X12454Y6102
X12454Y5202
X12454Y3702
X12454Y1902
X10954Y1002
X9454Y1402
X8054Y1002
X14654Y1902
X16154Y9502
X16554Y11602
X16954Y12302
X15854Y12302
X15854Y12702
X18054Y12502
X19054Y12402
X19454Y12402
X19754Y12002
X20054Y11702
X20354Y12202
X21054Y13002
X19554Y14102
X18854Y15302
X23454Y14802
X23454Y13702
X11254Y16702
X9754Y17502
X9054Y17502
X8554Y15602
T02
X2454Y10068
X2454Y8335
T03
X3454Y17202
X4454Y17202
X5454Y17202
X6454Y17202
X7454Y17202
X13454Y17202
X14454Y17202
X15454Y17202
X16454Y17202
X17454Y17202
X18454Y17202
X21454Y17202
X22454Y17202
X25454Y13702
X26454Y13702
X26454Y12702
X25454Y12702
X25454Y11702
X26454Y11702
X26454Y10702
X25454Y10702
X25454Y9702
X26454Y9702
X26454Y8702
X25454Y8702
X25454Y7702
X26454Y7702
X26454Y6702
X25454Y6702
X25454Y5702
X26454Y5702
X26454Y4702
X25454Y4702
X24954Y1202
X23954Y1202
X22954Y1202
X21954Y1202
X20954Y1202
X19954Y1202
X18954Y1202
X17954Y1202
X16954Y1202
T04
X1454Y1202
X1454Y17202
X26954Y17202
X26954Y1202
M30
