G75*
G70*
%OFA0B0*%
%FSLAX24Y24*%
%IPPOS*%
%LPD*%
%AMOC8*
5,1,8,0,0,1.08239X$1,22.5*
%
%ADD10R,0.0433X0.0394*%
%ADD11R,0.0472X0.0472*%
%ADD12R,0.0394X0.0433*%
%ADD13R,0.0402X0.0701*%
%ADD14R,0.0630X0.0551*%
%ADD15R,0.0354X0.0138*%
%ADD16R,0.0472X0.0217*%
%ADD17R,0.0984X0.0787*%
%ADD18R,0.1299X0.0197*%
%ADD19C,0.0000*%
%ADD20R,0.0650X0.0300*%
%ADD21R,0.0591X0.0110*%
%ADD22R,0.0110X0.0591*%
%ADD23R,0.0800X0.0800*%
%ADD24R,0.0551X0.0394*%
%ADD25R,0.0551X0.0551*%
%ADD26R,0.0600X0.0600*%
%ADD27OC8,0.0600*%
%ADD28R,0.0453X0.0173*%
%ADD29R,0.0453X0.0248*%
%ADD30C,0.0160*%
%ADD31C,0.0320*%
%ADD32C,0.0100*%
%ADD33C,0.0120*%
%ADD34C,0.0450*%
%ADD35C,0.0200*%
%ADD36C,0.0240*%
D10*
X008144Y006033D03*
X009019Y006033D03*
X009019Y006702D03*
X008144Y006702D03*
X012916Y006353D03*
X012916Y005683D03*
X017697Y011504D03*
X018367Y011504D03*
X019447Y011504D03*
X020117Y011504D03*
X012282Y014545D03*
X012282Y015214D03*
X010867Y012942D03*
X010197Y012942D03*
X010117Y011754D03*
X009447Y011754D03*
X007767Y016204D03*
X007097Y016204D03*
X020629Y016083D03*
X021511Y016088D03*
X021511Y016757D03*
X020629Y016752D03*
D11*
X021697Y018179D03*
X022524Y018179D03*
X018587Y018179D03*
X017760Y018179D03*
X014650Y018179D03*
X013823Y018179D03*
X010713Y018179D03*
X009886Y018179D03*
D12*
X008666Y018179D03*
X007997Y018179D03*
X011934Y018179D03*
X012603Y018179D03*
X013782Y016714D03*
X013782Y016045D03*
X013532Y015214D03*
X013532Y014545D03*
X015282Y014545D03*
X015282Y015214D03*
X016925Y014531D03*
X017595Y014531D03*
X017577Y013817D03*
X016908Y013817D03*
X017282Y016045D03*
X017282Y016714D03*
X016540Y018179D03*
X015871Y018179D03*
X019808Y018179D03*
X020477Y018179D03*
X010867Y014567D03*
X010197Y014567D03*
X010197Y013754D03*
X010867Y013754D03*
X008932Y010864D03*
X008932Y010195D03*
X008932Y009364D03*
X008932Y008695D03*
X005644Y008931D03*
X005644Y008261D03*
X017697Y010567D03*
X018367Y010567D03*
X018937Y007868D03*
X018937Y007199D03*
D13*
X009383Y014567D03*
X008682Y014567D03*
D14*
X009942Y015379D03*
X011123Y015379D03*
X012336Y007925D03*
X013518Y007925D03*
D15*
X019387Y009105D03*
X019387Y009361D03*
X019387Y009617D03*
X019387Y009873D03*
X019387Y010129D03*
X019387Y010385D03*
X019387Y010641D03*
X021690Y010641D03*
X021690Y010385D03*
X021690Y010129D03*
X021690Y009873D03*
X021690Y009617D03*
X021690Y009361D03*
X021690Y009105D03*
D16*
X016544Y016005D03*
X015520Y016005D03*
X015520Y016379D03*
X015520Y016753D03*
X016544Y016753D03*
X012794Y016753D03*
X011770Y016753D03*
X011770Y016379D03*
X011770Y016005D03*
X012794Y016005D03*
X009544Y016005D03*
X009544Y016379D03*
X009544Y016753D03*
X008520Y016753D03*
X008520Y016005D03*
X007571Y008986D03*
X007571Y008612D03*
X007571Y008238D03*
X006548Y008238D03*
X006548Y008986D03*
D17*
X007446Y010127D03*
X005280Y010127D03*
X005280Y013631D03*
X007446Y013631D03*
D18*
X007682Y012509D03*
X007682Y012194D03*
X007682Y011879D03*
X007682Y011564D03*
X007682Y011249D03*
D19*
X005969Y004596D02*
X026442Y004596D01*
X026519Y004598D01*
X026596Y004604D01*
X026673Y004613D01*
X026749Y004626D01*
X026825Y004643D01*
X026899Y004664D01*
X026973Y004688D01*
X027045Y004716D01*
X027115Y004747D01*
X027184Y004782D01*
X027252Y004820D01*
X027317Y004861D01*
X027380Y004906D01*
X027441Y004954D01*
X027500Y005004D01*
X027556Y005057D01*
X027609Y005113D01*
X027659Y005172D01*
X027707Y005233D01*
X027752Y005296D01*
X027793Y005361D01*
X027831Y005429D01*
X027866Y005498D01*
X027897Y005568D01*
X027925Y005640D01*
X027949Y005714D01*
X027970Y005788D01*
X027987Y005864D01*
X028000Y005940D01*
X028009Y006017D01*
X028015Y006094D01*
X028017Y006171D01*
X028016Y006171D02*
X028016Y017588D01*
X028017Y017588D02*
X028015Y017665D01*
X028009Y017742D01*
X028000Y017819D01*
X027987Y017895D01*
X027970Y017971D01*
X027949Y018045D01*
X027925Y018119D01*
X027897Y018191D01*
X027866Y018261D01*
X027831Y018330D01*
X027793Y018398D01*
X027752Y018463D01*
X027707Y018526D01*
X027659Y018587D01*
X027609Y018646D01*
X027556Y018702D01*
X027500Y018755D01*
X027441Y018805D01*
X027380Y018853D01*
X027317Y018898D01*
X027252Y018939D01*
X027184Y018977D01*
X027115Y019012D01*
X027045Y019043D01*
X026973Y019071D01*
X026899Y019095D01*
X026825Y019116D01*
X026749Y019133D01*
X026673Y019146D01*
X026596Y019155D01*
X026519Y019161D01*
X026442Y019163D01*
X005969Y019163D01*
X005892Y019161D01*
X005815Y019155D01*
X005738Y019146D01*
X005662Y019133D01*
X005586Y019116D01*
X005512Y019095D01*
X005438Y019071D01*
X005366Y019043D01*
X005296Y019012D01*
X005227Y018977D01*
X005159Y018939D01*
X005094Y018898D01*
X005031Y018853D01*
X004970Y018805D01*
X004911Y018755D01*
X004855Y018702D01*
X004802Y018646D01*
X004752Y018587D01*
X004704Y018526D01*
X004659Y018463D01*
X004618Y018398D01*
X004580Y018330D01*
X004545Y018261D01*
X004514Y018191D01*
X004486Y018119D01*
X004462Y018045D01*
X004441Y017971D01*
X004424Y017895D01*
X004411Y017819D01*
X004402Y017742D01*
X004396Y017665D01*
X004394Y017588D01*
X004394Y006171D01*
X004396Y006094D01*
X004402Y006017D01*
X004411Y005940D01*
X004424Y005864D01*
X004441Y005788D01*
X004462Y005714D01*
X004486Y005640D01*
X004514Y005568D01*
X004545Y005498D01*
X004580Y005429D01*
X004618Y005361D01*
X004659Y005296D01*
X004704Y005233D01*
X004752Y005172D01*
X004802Y005113D01*
X004855Y005057D01*
X004911Y005004D01*
X004970Y004954D01*
X005031Y004906D01*
X005094Y004861D01*
X005159Y004820D01*
X005227Y004782D01*
X005296Y004747D01*
X005366Y004716D01*
X005438Y004688D01*
X005512Y004664D01*
X005586Y004643D01*
X005662Y004626D01*
X005738Y004613D01*
X005815Y004604D01*
X005892Y004598D01*
X005969Y004596D01*
X005892Y004598D01*
X005815Y004604D01*
X005738Y004613D01*
X005662Y004626D01*
X005586Y004643D01*
X005512Y004664D01*
X005438Y004688D01*
X005366Y004716D01*
X005296Y004747D01*
X005227Y004782D01*
X005159Y004820D01*
X005094Y004861D01*
X005031Y004906D01*
X004970Y004954D01*
X004911Y005004D01*
X004855Y005057D01*
X004802Y005113D01*
X004752Y005172D01*
X004704Y005233D01*
X004659Y005296D01*
X004618Y005361D01*
X004580Y005429D01*
X004545Y005498D01*
X004514Y005568D01*
X004486Y005640D01*
X004462Y005714D01*
X004441Y005788D01*
X004424Y005864D01*
X004411Y005940D01*
X004402Y006017D01*
X004396Y006094D01*
X004394Y006171D01*
X005339Y006171D02*
X005341Y006221D01*
X005347Y006271D01*
X005357Y006320D01*
X005371Y006368D01*
X005388Y006415D01*
X005409Y006460D01*
X005434Y006504D01*
X005462Y006545D01*
X005494Y006584D01*
X005528Y006621D01*
X005565Y006655D01*
X005605Y006685D01*
X005647Y006712D01*
X005691Y006736D01*
X005737Y006757D01*
X005784Y006773D01*
X005832Y006786D01*
X005882Y006795D01*
X005931Y006800D01*
X005982Y006801D01*
X006032Y006798D01*
X006081Y006791D01*
X006130Y006780D01*
X006178Y006765D01*
X006224Y006747D01*
X006269Y006725D01*
X006312Y006699D01*
X006353Y006670D01*
X006392Y006638D01*
X006428Y006603D01*
X006460Y006565D01*
X006490Y006525D01*
X006517Y006482D01*
X006540Y006438D01*
X006559Y006392D01*
X006575Y006344D01*
X006587Y006295D01*
X006595Y006246D01*
X006599Y006196D01*
X006599Y006146D01*
X006595Y006096D01*
X006587Y006047D01*
X006575Y005998D01*
X006559Y005950D01*
X006540Y005904D01*
X006517Y005860D01*
X006490Y005817D01*
X006460Y005777D01*
X006428Y005739D01*
X006392Y005704D01*
X006353Y005672D01*
X006312Y005643D01*
X006269Y005617D01*
X006224Y005595D01*
X006178Y005577D01*
X006130Y005562D01*
X006081Y005551D01*
X006032Y005544D01*
X005982Y005541D01*
X005931Y005542D01*
X005882Y005547D01*
X005832Y005556D01*
X005784Y005569D01*
X005737Y005585D01*
X005691Y005606D01*
X005647Y005630D01*
X005605Y005657D01*
X005565Y005687D01*
X005528Y005721D01*
X005494Y005758D01*
X005462Y005797D01*
X005434Y005838D01*
X005409Y005882D01*
X005388Y005927D01*
X005371Y005974D01*
X005357Y006022D01*
X005347Y006071D01*
X005341Y006121D01*
X005339Y006171D01*
X006284Y011013D02*
X006286Y011039D01*
X006292Y011065D01*
X006302Y011090D01*
X006315Y011113D01*
X006331Y011133D01*
X006351Y011151D01*
X006373Y011166D01*
X006396Y011178D01*
X006422Y011186D01*
X006448Y011190D01*
X006474Y011190D01*
X006500Y011186D01*
X006526Y011178D01*
X006550Y011166D01*
X006571Y011151D01*
X006591Y011133D01*
X006607Y011113D01*
X006620Y011090D01*
X006630Y011065D01*
X006636Y011039D01*
X006638Y011013D01*
X006636Y010987D01*
X006630Y010961D01*
X006620Y010936D01*
X006607Y010913D01*
X006591Y010893D01*
X006571Y010875D01*
X006549Y010860D01*
X006526Y010848D01*
X006500Y010840D01*
X006474Y010836D01*
X006448Y010836D01*
X006422Y010840D01*
X006396Y010848D01*
X006372Y010860D01*
X006351Y010875D01*
X006331Y010893D01*
X006315Y010913D01*
X006302Y010936D01*
X006292Y010961D01*
X006286Y010987D01*
X006284Y011013D01*
X006284Y012746D02*
X006286Y012772D01*
X006292Y012798D01*
X006302Y012823D01*
X006315Y012846D01*
X006331Y012866D01*
X006351Y012884D01*
X006373Y012899D01*
X006396Y012911D01*
X006422Y012919D01*
X006448Y012923D01*
X006474Y012923D01*
X006500Y012919D01*
X006526Y012911D01*
X006550Y012899D01*
X006571Y012884D01*
X006591Y012866D01*
X006607Y012846D01*
X006620Y012823D01*
X006630Y012798D01*
X006636Y012772D01*
X006638Y012746D01*
X006636Y012720D01*
X006630Y012694D01*
X006620Y012669D01*
X006607Y012646D01*
X006591Y012626D01*
X006571Y012608D01*
X006549Y012593D01*
X006526Y012581D01*
X006500Y012573D01*
X006474Y012569D01*
X006448Y012569D01*
X006422Y012573D01*
X006396Y012581D01*
X006372Y012593D01*
X006351Y012608D01*
X006331Y012626D01*
X006315Y012646D01*
X006302Y012669D01*
X006292Y012694D01*
X006286Y012720D01*
X006284Y012746D01*
X004394Y017588D02*
X004396Y017665D01*
X004402Y017742D01*
X004411Y017819D01*
X004424Y017895D01*
X004441Y017971D01*
X004462Y018045D01*
X004486Y018119D01*
X004514Y018191D01*
X004545Y018261D01*
X004580Y018330D01*
X004618Y018398D01*
X004659Y018463D01*
X004704Y018526D01*
X004752Y018587D01*
X004802Y018646D01*
X004855Y018702D01*
X004911Y018755D01*
X004970Y018805D01*
X005031Y018853D01*
X005094Y018898D01*
X005159Y018939D01*
X005227Y018977D01*
X005296Y019012D01*
X005366Y019043D01*
X005438Y019071D01*
X005512Y019095D01*
X005586Y019116D01*
X005662Y019133D01*
X005738Y019146D01*
X005815Y019155D01*
X005892Y019161D01*
X005969Y019163D01*
X005339Y017588D02*
X005341Y017638D01*
X005347Y017688D01*
X005357Y017737D01*
X005371Y017785D01*
X005388Y017832D01*
X005409Y017877D01*
X005434Y017921D01*
X005462Y017962D01*
X005494Y018001D01*
X005528Y018038D01*
X005565Y018072D01*
X005605Y018102D01*
X005647Y018129D01*
X005691Y018153D01*
X005737Y018174D01*
X005784Y018190D01*
X005832Y018203D01*
X005882Y018212D01*
X005931Y018217D01*
X005982Y018218D01*
X006032Y018215D01*
X006081Y018208D01*
X006130Y018197D01*
X006178Y018182D01*
X006224Y018164D01*
X006269Y018142D01*
X006312Y018116D01*
X006353Y018087D01*
X006392Y018055D01*
X006428Y018020D01*
X006460Y017982D01*
X006490Y017942D01*
X006517Y017899D01*
X006540Y017855D01*
X006559Y017809D01*
X006575Y017761D01*
X006587Y017712D01*
X006595Y017663D01*
X006599Y017613D01*
X006599Y017563D01*
X006595Y017513D01*
X006587Y017464D01*
X006575Y017415D01*
X006559Y017367D01*
X006540Y017321D01*
X006517Y017277D01*
X006490Y017234D01*
X006460Y017194D01*
X006428Y017156D01*
X006392Y017121D01*
X006353Y017089D01*
X006312Y017060D01*
X006269Y017034D01*
X006224Y017012D01*
X006178Y016994D01*
X006130Y016979D01*
X006081Y016968D01*
X006032Y016961D01*
X005982Y016958D01*
X005931Y016959D01*
X005882Y016964D01*
X005832Y016973D01*
X005784Y016986D01*
X005737Y017002D01*
X005691Y017023D01*
X005647Y017047D01*
X005605Y017074D01*
X005565Y017104D01*
X005528Y017138D01*
X005494Y017175D01*
X005462Y017214D01*
X005434Y017255D01*
X005409Y017299D01*
X005388Y017344D01*
X005371Y017391D01*
X005357Y017439D01*
X005347Y017488D01*
X005341Y017538D01*
X005339Y017588D01*
X026442Y019163D02*
X026519Y019161D01*
X026596Y019155D01*
X026673Y019146D01*
X026749Y019133D01*
X026825Y019116D01*
X026899Y019095D01*
X026973Y019071D01*
X027045Y019043D01*
X027115Y019012D01*
X027184Y018977D01*
X027252Y018939D01*
X027317Y018898D01*
X027380Y018853D01*
X027441Y018805D01*
X027500Y018755D01*
X027556Y018702D01*
X027609Y018646D01*
X027659Y018587D01*
X027707Y018526D01*
X027752Y018463D01*
X027793Y018398D01*
X027831Y018330D01*
X027866Y018261D01*
X027897Y018191D01*
X027925Y018119D01*
X027949Y018045D01*
X027970Y017971D01*
X027987Y017895D01*
X028000Y017819D01*
X028009Y017742D01*
X028015Y017665D01*
X028017Y017588D01*
X025812Y017588D02*
X025814Y017638D01*
X025820Y017688D01*
X025830Y017737D01*
X025844Y017785D01*
X025861Y017832D01*
X025882Y017877D01*
X025907Y017921D01*
X025935Y017962D01*
X025967Y018001D01*
X026001Y018038D01*
X026038Y018072D01*
X026078Y018102D01*
X026120Y018129D01*
X026164Y018153D01*
X026210Y018174D01*
X026257Y018190D01*
X026305Y018203D01*
X026355Y018212D01*
X026404Y018217D01*
X026455Y018218D01*
X026505Y018215D01*
X026554Y018208D01*
X026603Y018197D01*
X026651Y018182D01*
X026697Y018164D01*
X026742Y018142D01*
X026785Y018116D01*
X026826Y018087D01*
X026865Y018055D01*
X026901Y018020D01*
X026933Y017982D01*
X026963Y017942D01*
X026990Y017899D01*
X027013Y017855D01*
X027032Y017809D01*
X027048Y017761D01*
X027060Y017712D01*
X027068Y017663D01*
X027072Y017613D01*
X027072Y017563D01*
X027068Y017513D01*
X027060Y017464D01*
X027048Y017415D01*
X027032Y017367D01*
X027013Y017321D01*
X026990Y017277D01*
X026963Y017234D01*
X026933Y017194D01*
X026901Y017156D01*
X026865Y017121D01*
X026826Y017089D01*
X026785Y017060D01*
X026742Y017034D01*
X026697Y017012D01*
X026651Y016994D01*
X026603Y016979D01*
X026554Y016968D01*
X026505Y016961D01*
X026455Y016958D01*
X026404Y016959D01*
X026355Y016964D01*
X026305Y016973D01*
X026257Y016986D01*
X026210Y017002D01*
X026164Y017023D01*
X026120Y017047D01*
X026078Y017074D01*
X026038Y017104D01*
X026001Y017138D01*
X025967Y017175D01*
X025935Y017214D01*
X025907Y017255D01*
X025882Y017299D01*
X025861Y017344D01*
X025844Y017391D01*
X025830Y017439D01*
X025820Y017488D01*
X025814Y017538D01*
X025812Y017588D01*
X028017Y006171D02*
X028015Y006094D01*
X028009Y006017D01*
X028000Y005940D01*
X027987Y005864D01*
X027970Y005788D01*
X027949Y005714D01*
X027925Y005640D01*
X027897Y005568D01*
X027866Y005498D01*
X027831Y005429D01*
X027793Y005361D01*
X027752Y005296D01*
X027707Y005233D01*
X027659Y005172D01*
X027609Y005113D01*
X027556Y005057D01*
X027500Y005004D01*
X027441Y004954D01*
X027380Y004906D01*
X027317Y004861D01*
X027252Y004820D01*
X027184Y004782D01*
X027115Y004747D01*
X027045Y004716D01*
X026973Y004688D01*
X026899Y004664D01*
X026825Y004643D01*
X026749Y004626D01*
X026673Y004613D01*
X026596Y004604D01*
X026519Y004598D01*
X026442Y004596D01*
X025812Y006171D02*
X025814Y006221D01*
X025820Y006271D01*
X025830Y006320D01*
X025844Y006368D01*
X025861Y006415D01*
X025882Y006460D01*
X025907Y006504D01*
X025935Y006545D01*
X025967Y006584D01*
X026001Y006621D01*
X026038Y006655D01*
X026078Y006685D01*
X026120Y006712D01*
X026164Y006736D01*
X026210Y006757D01*
X026257Y006773D01*
X026305Y006786D01*
X026355Y006795D01*
X026404Y006800D01*
X026455Y006801D01*
X026505Y006798D01*
X026554Y006791D01*
X026603Y006780D01*
X026651Y006765D01*
X026697Y006747D01*
X026742Y006725D01*
X026785Y006699D01*
X026826Y006670D01*
X026865Y006638D01*
X026901Y006603D01*
X026933Y006565D01*
X026963Y006525D01*
X026990Y006482D01*
X027013Y006438D01*
X027032Y006392D01*
X027048Y006344D01*
X027060Y006295D01*
X027068Y006246D01*
X027072Y006196D01*
X027072Y006146D01*
X027068Y006096D01*
X027060Y006047D01*
X027048Y005998D01*
X027032Y005950D01*
X027013Y005904D01*
X026990Y005860D01*
X026963Y005817D01*
X026933Y005777D01*
X026901Y005739D01*
X026865Y005704D01*
X026826Y005672D01*
X026785Y005643D01*
X026742Y005617D01*
X026697Y005595D01*
X026651Y005577D01*
X026603Y005562D01*
X026554Y005551D01*
X026505Y005544D01*
X026455Y005541D01*
X026404Y005542D01*
X026355Y005547D01*
X026305Y005556D01*
X026257Y005569D01*
X026210Y005585D01*
X026164Y005606D01*
X026120Y005630D01*
X026078Y005657D01*
X026038Y005687D01*
X026001Y005721D01*
X025967Y005758D01*
X025935Y005797D01*
X025907Y005838D01*
X025882Y005882D01*
X025861Y005927D01*
X025844Y005974D01*
X025830Y006022D01*
X025820Y006071D01*
X025814Y006121D01*
X025812Y006171D01*
D20*
X022520Y005618D03*
X020520Y005618D03*
X020520Y007118D03*
X022520Y007118D03*
X011890Y007118D03*
X009890Y007118D03*
X009890Y005618D03*
X011890Y005618D03*
D21*
X011749Y009903D03*
X011749Y010100D03*
X011749Y010297D03*
X011749Y010494D03*
X011749Y010690D03*
X011749Y010887D03*
X011749Y011084D03*
X011749Y011281D03*
X011749Y011478D03*
X011749Y011675D03*
X011749Y011871D03*
X011749Y012068D03*
X011749Y012265D03*
X011749Y012462D03*
X011749Y012659D03*
X011749Y012856D03*
X016316Y012856D03*
X016316Y012659D03*
X016316Y012462D03*
X016316Y012265D03*
X016316Y012068D03*
X016316Y011871D03*
X016316Y011675D03*
X016316Y011478D03*
X016316Y011281D03*
X016316Y011084D03*
X016316Y010887D03*
X016316Y010690D03*
X016316Y010494D03*
X016316Y010297D03*
X016316Y010100D03*
X016316Y009903D03*
D22*
X015509Y009096D03*
X015312Y009096D03*
X015115Y009096D03*
X014918Y009096D03*
X014721Y009096D03*
X014524Y009096D03*
X014327Y009096D03*
X014131Y009096D03*
X013934Y009096D03*
X013737Y009096D03*
X013540Y009096D03*
X013343Y009096D03*
X013146Y009096D03*
X012949Y009096D03*
X012753Y009096D03*
X012556Y009096D03*
X012556Y013663D03*
X012753Y013663D03*
X012949Y013663D03*
X013146Y013663D03*
X013343Y013663D03*
X013540Y013663D03*
X013737Y013663D03*
X013934Y013663D03*
X014131Y013663D03*
X014327Y013663D03*
X014524Y013663D03*
X014721Y013663D03*
X014918Y013663D03*
X015115Y013663D03*
X015312Y013663D03*
X015509Y013663D03*
D23*
X010120Y010842D03*
X010120Y008842D03*
D24*
X018349Y013755D03*
X019215Y014129D03*
X018349Y014503D03*
X019715Y015945D03*
X018849Y016319D03*
X019715Y016693D03*
D25*
X019991Y015329D03*
X021487Y015329D03*
X021547Y014184D03*
X020051Y014184D03*
X008030Y014879D03*
X006534Y014879D03*
D26*
X005575Y014726D03*
X014205Y005974D03*
X025170Y009379D03*
D27*
X024170Y009379D03*
X024170Y010379D03*
X025170Y010379D03*
X025170Y011379D03*
X024170Y011379D03*
X024170Y012379D03*
X025170Y012379D03*
X025170Y013379D03*
X024170Y013379D03*
X024170Y014379D03*
X025170Y014379D03*
X018205Y005974D03*
X017205Y005974D03*
X016205Y005974D03*
X015205Y005974D03*
X005575Y015726D03*
D28*
X017648Y012787D03*
X017648Y012472D03*
X018416Y012472D03*
X018416Y012787D03*
X020448Y012787D03*
X020448Y012472D03*
X021216Y012472D03*
X021216Y012787D03*
X018416Y009537D03*
X018416Y009222D03*
X017648Y009222D03*
X017648Y009537D03*
D29*
X017648Y009889D03*
X018416Y009889D03*
X018416Y008870D03*
X017648Y008870D03*
X017648Y012120D03*
X018416Y012120D03*
X018416Y013139D03*
X017648Y013139D03*
X020448Y013139D03*
X021216Y013139D03*
X021216Y012120D03*
X020448Y012120D03*
D30*
X020741Y011836D02*
X020832Y011927D01*
X020923Y011836D01*
X021509Y011836D01*
X021582Y011909D01*
X023912Y011909D01*
X024002Y011908D01*
X024003Y011909D01*
X024005Y011909D01*
X024015Y011919D01*
X024360Y011919D01*
X024630Y012189D01*
X024630Y012570D01*
X024360Y012839D01*
X023979Y012839D01*
X023710Y012570D01*
X023710Y012349D01*
X021619Y012349D01*
X021622Y012362D01*
X021622Y012472D01*
X021622Y012582D01*
X021610Y012628D01*
X021609Y012629D01*
X021610Y012631D01*
X021622Y012676D01*
X021622Y012787D01*
X021622Y012897D01*
X021616Y012919D01*
X023922Y012919D01*
X024012Y012918D01*
X024013Y012919D01*
X024015Y012919D01*
X024360Y012919D01*
X024630Y013189D01*
X024630Y013570D01*
X024360Y013839D01*
X023979Y013839D01*
X023710Y013570D01*
X023710Y013359D01*
X021573Y013359D01*
X021509Y013423D01*
X020923Y013423D01*
X020832Y013332D01*
X020762Y013402D01*
X020816Y013425D01*
X020889Y013498D01*
X021172Y013781D01*
X021205Y013748D01*
X021889Y013748D01*
X021983Y013842D01*
X021983Y014526D01*
X021889Y014619D01*
X021754Y014619D01*
X021752Y014894D01*
X021829Y014894D01*
X021923Y014987D01*
X021923Y015615D01*
X021933Y015590D01*
X022023Y015500D01*
X022141Y015451D01*
X022268Y015451D01*
X022386Y015500D01*
X022476Y015590D01*
X022524Y015707D01*
X022524Y015835D01*
X022476Y015952D01*
X022424Y016004D01*
X022424Y016409D01*
X022429Y016414D01*
X022429Y016596D01*
X022049Y016977D01*
X021888Y016977D01*
X021888Y017020D01*
X021794Y017114D01*
X021228Y017114D01*
X021135Y017020D01*
X021135Y016494D01*
X021206Y016422D01*
X021135Y016351D01*
X021135Y016345D01*
X021006Y016344D01*
X021006Y016346D01*
X020934Y016417D01*
X021006Y016489D01*
X021006Y017015D01*
X020912Y017109D01*
X020346Y017109D01*
X020253Y017015D01*
X020253Y016953D01*
X020151Y016953D01*
X020151Y016956D01*
X020057Y017050D01*
X020028Y017050D01*
X020028Y017802D01*
X020071Y017802D01*
X020142Y017874D01*
X020214Y017802D01*
X020740Y017802D01*
X020834Y017896D01*
X020834Y017959D01*
X020894Y017959D01*
X020945Y017907D01*
X021063Y017859D01*
X021190Y017859D01*
X021301Y017905D01*
X021301Y017876D01*
X021395Y017782D01*
X022000Y017782D01*
X022094Y017876D01*
X022094Y018481D01*
X022000Y018575D01*
X021395Y018575D01*
X021301Y018481D01*
X021301Y018453D01*
X021190Y018499D01*
X021063Y018499D01*
X020945Y018450D01*
X020894Y018399D01*
X020834Y018399D01*
X020834Y018461D01*
X020740Y018555D01*
X020214Y018555D01*
X020142Y018484D01*
X020071Y018555D01*
X019545Y018555D01*
X019451Y018461D01*
X019451Y017896D01*
X019545Y017802D01*
X019588Y017802D01*
X019588Y017050D01*
X019373Y017050D01*
X019338Y017015D01*
X018503Y017015D01*
X018438Y017081D01*
X018296Y017139D01*
X018143Y017139D01*
X018001Y017081D01*
X017935Y017014D01*
X017621Y017014D01*
X017545Y017091D01*
X017019Y017091D01*
X016943Y017014D01*
X016854Y017014D01*
X016846Y017022D01*
X016241Y017022D01*
X016204Y016984D01*
X016204Y017873D01*
X016205Y017874D01*
X016277Y017802D01*
X016803Y017802D01*
X016897Y017896D01*
X016897Y017959D01*
X016957Y017959D01*
X017008Y017907D01*
X017126Y017859D01*
X017253Y017859D01*
X017364Y017905D01*
X017364Y017876D01*
X017458Y017782D01*
X018063Y017782D01*
X018157Y017876D01*
X018157Y018481D01*
X018063Y018575D01*
X017458Y018575D01*
X017364Y018481D01*
X017364Y018453D01*
X017253Y018499D01*
X017126Y018499D01*
X017008Y018450D01*
X016957Y018399D01*
X016897Y018399D01*
X016897Y018461D01*
X016803Y018555D01*
X016277Y018555D01*
X016205Y018484D01*
X016134Y018555D01*
X015608Y018555D01*
X015514Y018461D01*
X015514Y017942D01*
X015066Y017942D01*
X015066Y018140D01*
X014689Y018140D01*
X014689Y018217D01*
X015066Y018217D01*
X015066Y018439D01*
X015054Y018484D01*
X015030Y018525D01*
X014997Y018559D01*
X014956Y018582D01*
X014910Y018595D01*
X014688Y018595D01*
X014688Y018217D01*
X014612Y018217D01*
X014612Y018595D01*
X014390Y018595D01*
X014345Y018582D01*
X014303Y018559D01*
X014270Y018525D01*
X014246Y018484D01*
X014234Y018439D01*
X014234Y018217D01*
X014612Y018217D01*
X014612Y018140D01*
X014234Y018140D01*
X014234Y017942D01*
X014220Y017942D01*
X014220Y018481D01*
X014126Y018575D01*
X013521Y018575D01*
X013427Y018481D01*
X013427Y018453D01*
X013316Y018499D01*
X013189Y018499D01*
X013071Y018450D01*
X013020Y018399D01*
X012960Y018399D01*
X012960Y018461D01*
X012866Y018555D01*
X012340Y018555D01*
X012268Y018484D01*
X012197Y018555D01*
X011671Y018555D01*
X011581Y018465D01*
X011576Y018470D01*
X011458Y018519D01*
X011331Y018519D01*
X011213Y018470D01*
X011129Y018387D01*
X011129Y018439D01*
X011117Y018484D01*
X011093Y018525D01*
X011060Y018559D01*
X011019Y018582D01*
X010973Y018595D01*
X010751Y018595D01*
X010751Y018217D01*
X010675Y018217D01*
X010675Y018595D01*
X010453Y018595D01*
X010408Y018582D01*
X010366Y018559D01*
X010333Y018525D01*
X010309Y018484D01*
X010297Y018439D01*
X010297Y018217D01*
X010675Y018217D01*
X010675Y018140D01*
X010297Y018140D01*
X010297Y017942D01*
X010283Y017942D01*
X010283Y018481D01*
X010189Y018575D01*
X009584Y018575D01*
X009490Y018481D01*
X009490Y018453D01*
X009379Y018499D01*
X009252Y018499D01*
X009134Y018450D01*
X009083Y018399D01*
X009023Y018399D01*
X009023Y018461D01*
X008929Y018555D01*
X008403Y018555D01*
X008331Y018484D01*
X008260Y018555D01*
X007734Y018555D01*
X007640Y018461D01*
X007640Y017896D01*
X007734Y017802D01*
X007777Y017802D01*
X007777Y017693D01*
X007562Y017478D01*
X007562Y017296D01*
X007562Y016561D01*
X007484Y016561D01*
X007446Y016523D01*
X007425Y016545D01*
X007383Y016569D01*
X007338Y016581D01*
X007116Y016581D01*
X007116Y016223D01*
X007079Y016223D01*
X007079Y016581D01*
X006857Y016581D01*
X006857Y016581D01*
X006891Y016607D01*
X006893Y016620D01*
X006937Y016664D01*
X006950Y016666D01*
X006983Y016710D01*
X007022Y016748D01*
X007022Y016761D01*
X007059Y016811D01*
X007071Y016815D01*
X007098Y016863D01*
X007131Y016907D01*
X007129Y016920D01*
X007158Y016974D01*
X007170Y016979D01*
X007189Y017031D01*
X007216Y017079D01*
X007212Y017091D01*
X007234Y017149D01*
X007245Y017156D01*
X007256Y017210D01*
X007275Y017261D01*
X007270Y017273D01*
X007283Y017334D01*
X007293Y017342D01*
X007297Y017397D01*
X007309Y017451D01*
X007302Y017462D01*
X007306Y017517D01*
X007310Y017522D01*
X007310Y017582D01*
X007315Y017643D01*
X007310Y017648D01*
X007310Y018983D01*
X025100Y018983D01*
X025100Y017648D01*
X025096Y017643D01*
X025100Y017582D01*
X025100Y017522D01*
X025105Y017517D01*
X025109Y017462D01*
X025102Y017451D01*
X025114Y017397D01*
X025118Y017342D01*
X025127Y017334D01*
X025141Y017273D01*
X025135Y017261D01*
X025154Y017210D01*
X025166Y017156D01*
X025177Y017149D01*
X025199Y017091D01*
X025195Y017079D01*
X025221Y017031D01*
X025240Y016979D01*
X025252Y016974D01*
X025282Y016920D01*
X025280Y016907D01*
X025313Y016863D01*
X025339Y016815D01*
X025352Y016811D01*
X025389Y016761D01*
X025389Y016748D01*
X025428Y016710D01*
X025461Y016666D01*
X025473Y016664D01*
X025517Y016620D01*
X025519Y016607D01*
X025563Y016574D01*
X025602Y016535D01*
X025615Y016535D01*
X025665Y016498D01*
X025668Y016486D01*
X025716Y016459D01*
X025760Y016427D01*
X025773Y016428D01*
X025828Y016399D01*
X025833Y016387D01*
X025884Y016368D01*
X025932Y016341D01*
X025945Y016345D01*
X026003Y016323D01*
X026010Y016313D01*
X026064Y016301D01*
X026115Y016282D01*
X026127Y016287D01*
X026187Y016274D01*
X026196Y016264D01*
X026251Y016260D01*
X026304Y016249D01*
X026315Y016256D01*
X026371Y016252D01*
X026375Y016247D01*
X026436Y016247D01*
X026496Y016243D01*
X026501Y016247D01*
X027836Y016247D01*
X027836Y007512D01*
X026501Y007512D01*
X026496Y007516D01*
X026436Y007512D01*
X026375Y007512D01*
X026371Y007507D01*
X026315Y007503D01*
X026304Y007510D01*
X026251Y007499D01*
X026196Y007495D01*
X026187Y007485D01*
X026127Y007472D01*
X026115Y007477D01*
X026064Y007458D01*
X026010Y007446D01*
X026003Y007435D01*
X025945Y007414D01*
X025932Y007417D01*
X025884Y007391D01*
X025833Y007372D01*
X025828Y007360D01*
X025773Y007330D01*
X025760Y007332D01*
X025716Y007299D01*
X025668Y007273D01*
X025665Y007260D01*
X025615Y007223D01*
X025602Y007223D01*
X025563Y007184D01*
X025519Y007152D01*
X025517Y007139D01*
X025473Y007095D01*
X025461Y007093D01*
X025428Y007049D01*
X025389Y007010D01*
X025389Y006997D01*
X025352Y006948D01*
X025339Y006944D01*
X025313Y006896D01*
X025280Y006852D01*
X025282Y006839D01*
X025252Y006785D01*
X025240Y006779D01*
X025221Y006728D01*
X025195Y006680D01*
X025199Y006667D01*
X025177Y006609D01*
X025166Y006602D01*
X025154Y006549D01*
X025135Y006497D01*
X025141Y006485D01*
X025127Y006425D01*
X025118Y006416D01*
X025114Y006361D01*
X025102Y006308D01*
X025109Y006297D01*
X025105Y006242D01*
X025100Y006237D01*
X025100Y006177D01*
X025096Y006116D01*
X025100Y006111D01*
X025100Y004776D01*
X007310Y004776D01*
X007310Y006111D01*
X007315Y006116D01*
X007310Y006177D01*
X007310Y006237D01*
X007306Y006242D01*
X007302Y006297D01*
X007309Y006308D01*
X007297Y006361D01*
X007293Y006416D01*
X007283Y006425D01*
X007270Y006485D01*
X007275Y006497D01*
X007256Y006549D01*
X007245Y006602D01*
X007234Y006609D01*
X007212Y006667D01*
X007216Y006680D01*
X007189Y006728D01*
X007170Y006779D01*
X007158Y006785D01*
X007129Y006839D01*
X007131Y006852D01*
X007098Y006896D01*
X007071Y006944D01*
X007059Y006948D01*
X007022Y006997D01*
X007022Y007010D01*
X006983Y007049D01*
X006950Y007093D01*
X006937Y007095D01*
X006893Y007139D01*
X006891Y007152D01*
X006848Y007184D01*
X006809Y007223D01*
X006796Y007223D01*
X006746Y007260D01*
X006742Y007273D01*
X006694Y007299D01*
X006651Y007332D01*
X006638Y007330D01*
X006583Y007360D01*
X006578Y007372D01*
X006527Y007391D01*
X006478Y007417D01*
X006466Y007414D01*
X006408Y007435D01*
X006401Y007446D01*
X006347Y007458D01*
X006296Y007477D01*
X006284Y007472D01*
X006223Y007485D01*
X006215Y007495D01*
X006160Y007499D01*
X006106Y007510D01*
X006096Y007503D01*
X006040Y007507D01*
X006035Y007512D01*
X005975Y007512D01*
X005914Y007516D01*
X005909Y007512D01*
X004574Y007512D01*
X004574Y016247D01*
X005909Y016247D01*
X005914Y016243D01*
X005975Y016247D01*
X006035Y016247D01*
X006040Y016252D01*
X006096Y016256D01*
X006106Y016249D01*
X006160Y016260D01*
X006215Y016264D01*
X006223Y016274D01*
X006284Y016287D01*
X006296Y016282D01*
X006347Y016301D01*
X006401Y016313D01*
X006408Y016323D01*
X006466Y016345D01*
X006478Y016341D01*
X006527Y016368D01*
X006578Y016387D01*
X006583Y016399D01*
X006638Y016428D01*
X006651Y016427D01*
X006694Y016459D01*
X006713Y016470D01*
X006701Y016425D01*
X006701Y016223D01*
X007079Y016223D01*
X007079Y016186D01*
X006701Y016186D01*
X006701Y015984D01*
X006713Y015938D01*
X006737Y015897D01*
X006770Y015863D01*
X006811Y015840D01*
X006857Y015827D01*
X007079Y015827D01*
X007079Y016186D01*
X007116Y016186D01*
X007116Y015827D01*
X007338Y015827D01*
X007383Y015840D01*
X007425Y015863D01*
X007446Y015885D01*
X007470Y015862D01*
X007456Y015847D01*
X007397Y015706D01*
X007397Y015553D01*
X007456Y015411D01*
X007488Y015379D01*
X007382Y015379D01*
X007291Y015341D01*
X007220Y015271D01*
X007182Y015179D01*
X007182Y015080D01*
X007182Y014185D01*
X006887Y014185D01*
X006793Y014091D01*
X006793Y013171D01*
X006887Y013078D01*
X007182Y013078D01*
X007182Y012768D01*
X006966Y012768D01*
X006872Y012674D01*
X006872Y012345D01*
X006872Y012030D01*
X006872Y011774D01*
X006752Y011774D01*
X006752Y011851D01*
X006703Y011968D01*
X006613Y012058D01*
X006496Y012107D01*
X006368Y012107D01*
X006251Y012058D01*
X006161Y011968D01*
X006112Y011851D01*
X006112Y011723D01*
X006161Y011606D01*
X006251Y011516D01*
X006368Y011467D01*
X006455Y011467D01*
X006565Y011357D01*
X006532Y011370D01*
X006390Y011370D01*
X006259Y011316D01*
X006158Y011216D01*
X006104Y011084D01*
X006104Y010942D01*
X006158Y010811D01*
X006259Y010710D01*
X006390Y010656D01*
X006532Y010656D01*
X006664Y010710D01*
X006764Y010811D01*
X006818Y010942D01*
X006818Y011084D01*
X006764Y011216D01*
X006664Y011316D01*
X006571Y011354D01*
X006742Y011354D01*
X006852Y011354D01*
X006852Y011250D01*
X007681Y011250D01*
X007681Y011249D01*
X006852Y011249D01*
X006852Y011127D01*
X006864Y011082D01*
X006888Y011040D01*
X006922Y011007D01*
X006963Y010983D01*
X007008Y010971D01*
X007681Y010971D01*
X007681Y011249D01*
X007682Y011249D01*
X007682Y010971D01*
X008355Y010971D01*
X008401Y010983D01*
X008442Y011007D01*
X008475Y011040D01*
X008499Y011082D01*
X008511Y011127D01*
X008511Y011249D01*
X007682Y011249D01*
X007682Y011250D01*
X008511Y011250D01*
X008511Y011372D01*
X008499Y011417D01*
X008491Y011431D01*
X008491Y011669D01*
X008758Y011669D01*
X008932Y011669D01*
X009051Y011789D01*
X009051Y011773D01*
X009429Y011773D01*
X009429Y011736D01*
X009051Y011736D01*
X009051Y011534D01*
X009063Y011488D01*
X009087Y011447D01*
X009120Y011413D01*
X009161Y011390D01*
X009207Y011378D01*
X009429Y011378D01*
X009429Y011736D01*
X009466Y011736D01*
X009466Y011378D01*
X009629Y011378D01*
X009560Y011308D01*
X009560Y011074D01*
X009289Y011074D01*
X009289Y011147D01*
X009195Y011241D01*
X008669Y011241D01*
X008575Y011147D01*
X008575Y010581D01*
X008613Y010544D01*
X008591Y010522D01*
X008568Y010481D01*
X008555Y010435D01*
X008555Y010213D01*
X008913Y010213D01*
X008913Y010176D01*
X008555Y010176D01*
X008555Y009954D01*
X008568Y009909D01*
X008591Y009868D01*
X008625Y009834D01*
X008666Y009810D01*
X008711Y009798D01*
X008914Y009798D01*
X008914Y010176D01*
X008951Y010176D01*
X008951Y010213D01*
X009309Y010213D01*
X009309Y010435D01*
X009297Y010481D01*
X009273Y010522D01*
X009251Y010544D01*
X009289Y010581D01*
X009289Y010654D01*
X009560Y010654D01*
X009560Y010376D01*
X009653Y010282D01*
X010527Y010282D01*
X010527Y009925D01*
X010127Y009525D01*
X010127Y009402D01*
X009653Y009402D01*
X009560Y009308D01*
X009560Y008905D01*
X009289Y008905D01*
X009289Y008978D01*
X009251Y009015D01*
X009273Y009037D01*
X009297Y009078D01*
X009309Y009124D01*
X009309Y009346D01*
X008951Y009346D01*
X008951Y009382D01*
X009309Y009382D01*
X009309Y009604D01*
X009297Y009650D01*
X009273Y009691D01*
X009239Y009725D01*
X009198Y009748D01*
X009153Y009761D01*
X008951Y009761D01*
X008951Y009383D01*
X008914Y009383D01*
X008914Y009761D01*
X008712Y009761D01*
X008666Y009748D01*
X008625Y009725D01*
X008591Y009691D01*
X008568Y009650D01*
X008555Y009604D01*
X008555Y009382D01*
X008913Y009382D01*
X008913Y009346D01*
X008555Y009346D01*
X008555Y009124D01*
X008568Y009078D01*
X008591Y009037D01*
X008613Y009015D01*
X008575Y008978D01*
X008575Y008476D01*
X008364Y008687D01*
X008364Y008738D01*
X008416Y008790D01*
X008464Y008907D01*
X008464Y009035D01*
X008593Y009035D01*
X008464Y009035D02*
X008416Y009152D01*
X008326Y009242D01*
X008208Y009291D01*
X008081Y009291D01*
X007963Y009242D01*
X007927Y009206D01*
X007922Y009206D01*
X007874Y009255D01*
X007269Y009255D01*
X007175Y009161D01*
X007175Y008812D01*
X007178Y008809D01*
X007168Y008790D01*
X007155Y008744D01*
X007155Y008613D01*
X007571Y008613D01*
X007571Y008612D01*
X007155Y008612D01*
X007155Y008480D01*
X007168Y008435D01*
X007178Y008416D01*
X007175Y008413D01*
X007175Y008299D01*
X007167Y008308D01*
X007044Y008431D01*
X006926Y008431D01*
X006850Y008507D01*
X006245Y008507D01*
X006152Y008413D01*
X006152Y008064D01*
X006245Y007970D01*
X006762Y007970D01*
X006762Y007907D01*
X006811Y007790D01*
X006901Y007700D01*
X007018Y007651D01*
X007146Y007651D01*
X007263Y007700D01*
X007353Y007790D01*
X007402Y007907D01*
X007402Y007970D01*
X007874Y007970D01*
X007877Y007973D01*
X007924Y007926D01*
X007924Y007059D01*
X007861Y007059D01*
X007768Y006965D01*
X007768Y006439D01*
X007839Y006368D01*
X007768Y006296D01*
X007768Y005770D01*
X007861Y005676D01*
X008427Y005676D01*
X008521Y005770D01*
X008521Y005813D01*
X008643Y005813D01*
X008643Y005770D01*
X008736Y005676D01*
X009302Y005676D01*
X009385Y005759D01*
X009385Y005618D01*
X009890Y005618D01*
X009890Y005948D01*
X009542Y005948D01*
X009496Y005935D01*
X009455Y005912D01*
X009421Y005878D01*
X009398Y005837D01*
X009396Y005830D01*
X009396Y006296D01*
X009324Y006368D01*
X009396Y006439D01*
X009396Y006965D01*
X009302Y007059D01*
X009239Y007059D01*
X009239Y007630D01*
X009239Y007686D01*
X009248Y007665D01*
X009338Y007575D01*
X009456Y007526D01*
X009583Y007526D01*
X009701Y007575D01*
X009791Y007665D01*
X009839Y007782D01*
X009839Y007843D01*
X010793Y007843D01*
X010916Y007966D01*
X011384Y008435D01*
X011384Y007683D01*
X011207Y007506D01*
X011084Y007383D01*
X011084Y007338D01*
X010372Y007338D01*
X010282Y007428D01*
X009499Y007428D01*
X009405Y007334D01*
X009405Y006901D01*
X009499Y006808D01*
X010282Y006808D01*
X010372Y006898D01*
X011203Y006898D01*
X011409Y006898D01*
X011499Y006808D01*
X012282Y006808D01*
X012375Y006901D01*
X012375Y007334D01*
X012282Y007428D01*
X011723Y007428D01*
X011804Y007509D01*
X011804Y009687D01*
X011842Y009687D01*
X011869Y009687D01*
X011870Y009688D01*
X012110Y009688D01*
X012204Y009782D01*
X012204Y010024D01*
X012204Y010087D01*
X012516Y010087D01*
X012353Y009924D01*
X012353Y009750D01*
X012353Y009470D01*
X012341Y009457D01*
X012341Y009108D01*
X012329Y009073D01*
X012341Y009050D01*
X012341Y008734D01*
X012434Y008641D01*
X012631Y008641D01*
X012828Y008641D01*
X013025Y008641D01*
X013222Y008641D01*
X013419Y008641D01*
X013615Y008641D01*
X013642Y008641D01*
X013607Y008606D01*
X013484Y008483D01*
X013484Y008361D01*
X013136Y008361D01*
X013043Y008267D01*
X013043Y007583D01*
X013136Y007490D01*
X013899Y007490D01*
X013992Y007583D01*
X013992Y008242D01*
X014011Y008198D01*
X014101Y008108D01*
X014218Y008059D01*
X014346Y008059D01*
X014463Y008108D01*
X014553Y008198D01*
X014602Y008316D01*
X014602Y008443D01*
X014553Y008561D01*
X014473Y008641D01*
X014600Y008641D01*
X014797Y008641D01*
X014993Y008641D01*
X015190Y008641D01*
X015299Y008641D01*
X015299Y008618D01*
X015421Y008495D01*
X015524Y008393D01*
X015698Y008393D01*
X016040Y008393D01*
X016057Y008376D01*
X016012Y008357D01*
X015922Y008267D01*
X015873Y008149D01*
X015873Y008137D01*
X015866Y008155D01*
X015776Y008245D01*
X015658Y008294D01*
X015531Y008294D01*
X015413Y008245D01*
X015323Y008155D01*
X015314Y008132D01*
X015304Y008155D01*
X015214Y008245D01*
X015097Y008293D01*
X014969Y008293D01*
X014852Y008245D01*
X014762Y008155D01*
X014713Y008037D01*
X014713Y007910D01*
X014762Y007792D01*
X014813Y007741D01*
X014813Y007326D01*
X014114Y006627D01*
X013985Y006498D01*
X013985Y006434D01*
X013839Y006434D01*
X013745Y006340D01*
X013661Y006340D01*
X013745Y006340D02*
X013745Y006256D01*
X013429Y006573D01*
X013293Y006573D01*
X013293Y006616D01*
X013199Y006709D01*
X012634Y006709D01*
X012540Y006616D01*
X012540Y006089D01*
X012611Y006018D01*
X012540Y005946D01*
X012540Y005420D01*
X012634Y005326D01*
X012696Y005326D01*
X012696Y005283D01*
X012874Y005105D01*
X013003Y004976D01*
X014803Y004976D01*
X014985Y004976D01*
X015425Y005416D01*
X015425Y005543D01*
X015665Y005783D01*
X015665Y006164D01*
X015396Y006434D01*
X015015Y006434D01*
X014745Y006164D01*
X014745Y005783D01*
X014958Y005571D01*
X014803Y005416D01*
X013289Y005416D01*
X013293Y005420D01*
X013293Y005946D01*
X013221Y006018D01*
X013291Y006088D01*
X013625Y005754D01*
X013745Y005754D01*
X013745Y005608D01*
X013839Y005514D01*
X014572Y005514D01*
X014665Y005608D01*
X014665Y006340D01*
X014921Y006340D01*
X014762Y006181D02*
X014665Y006181D01*
X014665Y006023D02*
X014745Y006023D01*
X014745Y005864D02*
X014665Y005864D01*
X014665Y005706D02*
X014823Y005706D01*
X014935Y005547D02*
X014605Y005547D01*
X015081Y005072D02*
X025100Y005072D01*
X025100Y005230D02*
X015240Y005230D01*
X015398Y005389D02*
X019443Y005389D01*
X019423Y005408D02*
X019513Y005318D01*
X019631Y005270D01*
X019758Y005270D01*
X019876Y005318D01*
X019955Y005398D01*
X020039Y005398D01*
X020129Y005308D01*
X020912Y005308D01*
X021002Y005398D01*
X022039Y005398D01*
X022129Y005308D01*
X022912Y005308D01*
X023005Y005401D01*
X023005Y005834D01*
X022912Y005928D01*
X022129Y005928D01*
X022039Y005838D01*
X021002Y005838D01*
X020912Y005928D01*
X020129Y005928D01*
X020039Y005838D01*
X019899Y005838D01*
X019876Y005861D01*
X019758Y005910D01*
X019631Y005910D01*
X019513Y005861D01*
X019423Y005771D01*
X019374Y005653D01*
X019374Y005526D01*
X019423Y005408D01*
X019374Y005547D02*
X018429Y005547D01*
X018396Y005514D02*
X018665Y005783D01*
X018665Y006164D01*
X018396Y006434D01*
X018042Y006434D01*
X017792Y006684D01*
X017913Y006684D01*
X018030Y006733D01*
X018082Y006784D01*
X018164Y006784D01*
X018560Y007180D01*
X018560Y006958D01*
X018572Y006913D01*
X018596Y006872D01*
X018629Y006838D01*
X018670Y006814D01*
X018716Y006802D01*
X018918Y006802D01*
X018918Y007180D01*
X018955Y007180D01*
X018955Y006802D01*
X019157Y006802D01*
X019203Y006814D01*
X019244Y006838D01*
X019278Y006872D01*
X019301Y006913D01*
X019313Y006958D01*
X019313Y007180D01*
X018955Y007180D01*
X018955Y007217D01*
X019313Y007217D01*
X019313Y007439D01*
X019301Y007485D01*
X019278Y007526D01*
X019256Y007547D01*
X019293Y007585D01*
X019293Y007648D01*
X019445Y007648D01*
X019628Y007648D01*
X020131Y008151D01*
X020131Y008333D01*
X020131Y009002D01*
X020122Y009010D01*
X020125Y009009D01*
X020252Y009009D01*
X020370Y009058D01*
X020460Y009148D01*
X020508Y009266D01*
X020508Y009393D01*
X020498Y009418D01*
X020876Y009418D01*
X020757Y009299D01*
X020685Y009299D01*
X020567Y009251D01*
X020477Y009161D01*
X020428Y009043D01*
X020428Y008916D01*
X020477Y008798D01*
X020567Y008708D01*
X020685Y008659D01*
X020812Y008659D01*
X020862Y008680D01*
X020862Y008662D01*
X020811Y008611D01*
X020762Y008493D01*
X020762Y008366D01*
X020811Y008248D01*
X020901Y008158D01*
X021018Y008109D01*
X021146Y008109D01*
X021263Y008158D01*
X021353Y008248D01*
X021402Y008366D01*
X021402Y008493D01*
X021353Y008611D01*
X021302Y008662D01*
X021302Y008901D01*
X021362Y008961D01*
X021447Y008876D01*
X021933Y008876D01*
X021942Y008885D01*
X022058Y008885D01*
X022187Y009014D01*
X022290Y009117D01*
X022290Y009300D01*
X022290Y009851D01*
X022161Y009980D01*
X022054Y010088D01*
X022027Y010088D01*
X022027Y010250D01*
X022027Y010489D01*
X022035Y010502D01*
X022047Y010548D01*
X022047Y010641D01*
X022047Y010733D01*
X022035Y010779D01*
X023919Y010779D01*
X023979Y010839D02*
X023739Y010599D01*
X023600Y010599D01*
X023417Y010599D01*
X022693Y009875D01*
X022564Y009746D01*
X022564Y008880D01*
X022134Y008449D01*
X022061Y008449D01*
X021943Y008401D01*
X021853Y008311D01*
X021805Y008193D01*
X021805Y008066D01*
X021853Y007948D01*
X021943Y007858D01*
X022061Y007809D01*
X022188Y007809D01*
X022306Y007858D01*
X022396Y007948D01*
X022445Y008066D01*
X022445Y008138D01*
X023004Y008698D01*
X023004Y008880D01*
X023004Y009564D01*
X023600Y010159D01*
X023739Y010159D01*
X023979Y009919D01*
X024360Y009919D01*
X024630Y010189D01*
X024630Y010570D01*
X024360Y010839D01*
X023979Y010839D01*
X023979Y010919D02*
X024360Y010919D01*
X024630Y011189D01*
X024630Y011570D01*
X024360Y011839D01*
X023979Y011839D01*
X023710Y011570D01*
X023710Y011189D01*
X023979Y010919D01*
X023961Y010938D02*
X020247Y010938D01*
X020247Y011096D02*
X023803Y011096D01*
X023710Y011255D02*
X020493Y011255D01*
X020493Y011241D02*
X020493Y011767D01*
X020425Y011836D01*
X020741Y011836D01*
X020794Y011889D02*
X020870Y011889D01*
X020493Y011730D02*
X023870Y011730D01*
X023712Y011572D02*
X020493Y011572D01*
X020493Y011413D02*
X023710Y011413D01*
X024379Y010938D02*
X024961Y010938D01*
X024979Y010919D02*
X025360Y010919D01*
X025630Y011189D01*
X025630Y011570D01*
X025360Y011839D01*
X024979Y011839D01*
X024710Y011570D01*
X024710Y011189D01*
X024979Y010919D01*
X024979Y010839D02*
X024710Y010570D01*
X024710Y010189D01*
X024979Y009919D01*
X025360Y009919D01*
X025630Y010189D01*
X025630Y010570D01*
X025360Y010839D01*
X024979Y010839D01*
X024919Y010779D02*
X024421Y010779D01*
X024579Y010621D02*
X024761Y010621D01*
X024710Y010462D02*
X024630Y010462D01*
X024630Y010303D02*
X024710Y010303D01*
X024754Y010145D02*
X024586Y010145D01*
X024427Y009986D02*
X024912Y009986D01*
X024804Y009839D02*
X024710Y009746D01*
X024710Y009013D01*
X024804Y008919D01*
X025536Y008919D01*
X025630Y009013D01*
X025630Y009746D01*
X025536Y009839D01*
X024804Y009839D01*
X024792Y009828D02*
X024372Y009828D01*
X024360Y009839D02*
X023979Y009839D01*
X023710Y009570D01*
X023710Y009189D01*
X023979Y008919D01*
X024360Y008919D01*
X024630Y009189D01*
X024630Y009570D01*
X024360Y009839D01*
X024530Y009669D02*
X024710Y009669D01*
X024710Y009511D02*
X024630Y009511D01*
X024630Y009352D02*
X024710Y009352D01*
X024710Y009194D02*
X024630Y009194D01*
X024710Y009035D02*
X024476Y009035D01*
X023864Y009035D02*
X023004Y009035D01*
X023004Y008877D02*
X027836Y008877D01*
X027836Y009035D02*
X025630Y009035D01*
X025630Y009194D02*
X027836Y009194D01*
X027836Y009352D02*
X025630Y009352D01*
X025630Y009511D02*
X027836Y009511D01*
X027836Y009669D02*
X025630Y009669D01*
X025548Y009828D02*
X027836Y009828D01*
X027836Y009986D02*
X025427Y009986D01*
X025586Y010145D02*
X027836Y010145D01*
X027836Y010303D02*
X025630Y010303D01*
X025630Y010462D02*
X027836Y010462D01*
X027836Y010621D02*
X025579Y010621D01*
X025421Y010779D02*
X027836Y010779D01*
X027836Y010938D02*
X025379Y010938D01*
X025537Y011096D02*
X027836Y011096D01*
X027836Y011255D02*
X025630Y011255D01*
X025630Y011413D02*
X027836Y011413D01*
X027836Y011572D02*
X025628Y011572D01*
X025469Y011730D02*
X027836Y011730D01*
X027836Y011889D02*
X021562Y011889D01*
X021622Y012365D02*
X023710Y012365D01*
X023710Y012523D02*
X021622Y012523D01*
X021622Y012472D02*
X021216Y012472D01*
X021216Y012472D01*
X021216Y012738D01*
X021216Y012786D01*
X021216Y012786D01*
X021216Y012738D01*
X021216Y012472D01*
X021216Y012472D01*
X021622Y012472D01*
X021622Y012682D02*
X023822Y012682D01*
X024015Y012919D02*
X024015Y012919D01*
X024440Y012999D02*
X024900Y012999D01*
X024979Y012919D02*
X024710Y013189D01*
X024710Y013570D01*
X024979Y013839D01*
X025360Y013839D01*
X025630Y013570D01*
X025630Y013189D01*
X025360Y012919D01*
X024979Y012919D01*
X024979Y012839D02*
X024710Y012570D01*
X024710Y012189D01*
X024979Y011919D01*
X025360Y011919D01*
X025630Y012189D01*
X025630Y012570D01*
X025360Y012839D01*
X024979Y012839D01*
X024822Y012682D02*
X024518Y012682D01*
X024630Y012523D02*
X024710Y012523D01*
X024710Y012365D02*
X024630Y012365D01*
X024630Y012206D02*
X024710Y012206D01*
X024851Y012047D02*
X024489Y012047D01*
X024469Y011730D02*
X024870Y011730D01*
X024712Y011572D02*
X024628Y011572D01*
X024630Y011413D02*
X024710Y011413D01*
X024710Y011255D02*
X024630Y011255D01*
X024537Y011096D02*
X024803Y011096D01*
X023761Y010621D02*
X022047Y010621D01*
X022047Y010641D02*
X021690Y010641D01*
X021690Y010641D01*
X021690Y010890D01*
X021891Y010890D01*
X021937Y010877D01*
X021978Y010854D01*
X022011Y010820D01*
X022035Y010779D01*
X022047Y010641D02*
X021690Y010641D01*
X021690Y010890D01*
X021489Y010890D01*
X021443Y010877D01*
X021402Y010854D01*
X021369Y010820D01*
X021345Y010779D01*
X020247Y010779D01*
X020247Y010634D02*
X020247Y011148D01*
X020400Y011148D01*
X020493Y011241D01*
X019727Y011138D02*
X019727Y010861D01*
X019639Y010861D01*
X019630Y010870D01*
X019143Y010870D01*
X019050Y010776D01*
X019050Y010625D01*
X018888Y010787D01*
X018724Y010787D01*
X018724Y010850D01*
X018630Y010943D01*
X018104Y010943D01*
X018032Y010872D01*
X017961Y010943D01*
X017434Y010943D01*
X017341Y010850D01*
X017341Y010777D01*
X017306Y010777D01*
X017306Y010862D01*
X017257Y010980D01*
X017167Y011070D01*
X017049Y011118D01*
X016963Y011118D01*
X016787Y011294D01*
X016771Y011294D01*
X016771Y011340D01*
X016779Y011353D01*
X016788Y011389D01*
X016820Y011358D01*
X016877Y011297D01*
X016880Y011297D01*
X016883Y011294D01*
X016967Y011294D01*
X017051Y011292D01*
X017053Y011294D01*
X017321Y011294D01*
X017321Y011241D01*
X017415Y011148D01*
X017980Y011148D01*
X018018Y011185D01*
X018040Y011163D01*
X018081Y011140D01*
X018126Y011128D01*
X018348Y011128D01*
X018348Y011486D01*
X018385Y011486D01*
X018385Y011128D01*
X018607Y011128D01*
X018653Y011140D01*
X018694Y011163D01*
X018727Y011197D01*
X018751Y011238D01*
X018763Y011284D01*
X018763Y011486D01*
X018385Y011486D01*
X018385Y011523D01*
X018763Y011523D01*
X018763Y011725D01*
X018751Y011771D01*
X018727Y011812D01*
X018704Y011836D01*
X018709Y011836D01*
X018733Y011860D01*
X019145Y011860D01*
X019120Y011845D01*
X019087Y011812D01*
X019063Y011771D01*
X019051Y011725D01*
X019051Y011523D01*
X019429Y011523D01*
X019429Y011486D01*
X019051Y011486D01*
X019051Y011284D01*
X019063Y011238D01*
X019087Y011197D01*
X019120Y011163D01*
X019161Y011140D01*
X019207Y011128D01*
X019429Y011128D01*
X019429Y011486D01*
X019466Y011486D01*
X019466Y011128D01*
X019688Y011128D01*
X019727Y011138D01*
X019727Y011096D02*
X017103Y011096D01*
X017274Y010938D02*
X017429Y010938D01*
X017341Y010779D02*
X017306Y010779D01*
X017321Y011255D02*
X016826Y011255D01*
X017966Y010938D02*
X018098Y010938D01*
X018636Y010938D02*
X019727Y010938D01*
X019466Y011255D02*
X019429Y011255D01*
X019429Y011413D02*
X019466Y011413D01*
X019051Y011413D02*
X018763Y011413D01*
X018755Y011255D02*
X019059Y011255D01*
X019051Y011572D02*
X018763Y011572D01*
X018762Y011730D02*
X019052Y011730D01*
X018385Y011413D02*
X018348Y011413D01*
X018348Y011255D02*
X018385Y011255D01*
X018896Y010779D02*
X019053Y010779D01*
X020247Y010634D02*
X020247Y010171D01*
X020247Y010026D01*
X020324Y009938D01*
X020648Y009938D01*
X020618Y010009D01*
X020618Y010137D01*
X020667Y010254D01*
X020757Y010344D01*
X020875Y010393D01*
X020968Y010393D01*
X021139Y010545D01*
X021199Y010605D01*
X021207Y010605D01*
X021212Y010610D01*
X021297Y010605D01*
X021333Y010605D01*
X021333Y010641D01*
X021690Y010641D01*
X021690Y010641D01*
X021690Y010641D01*
X021333Y010641D01*
X021333Y010733D01*
X021345Y010779D01*
X021333Y010621D02*
X020247Y010621D01*
X020247Y010462D02*
X021046Y010462D01*
X020716Y010303D02*
X020247Y010303D01*
X020247Y010145D02*
X020622Y010145D01*
X020628Y009986D02*
X020282Y009986D01*
X020508Y009352D02*
X020810Y009352D01*
X020510Y009194D02*
X020479Y009194D01*
X020428Y009035D02*
X020314Y009035D01*
X020445Y008877D02*
X020131Y008877D01*
X020131Y008718D02*
X020557Y008718D01*
X020790Y008559D02*
X020131Y008559D01*
X020131Y008401D02*
X020762Y008401D01*
X020816Y008242D02*
X020131Y008242D01*
X020063Y008084D02*
X021805Y008084D01*
X021825Y008242D02*
X021348Y008242D01*
X021402Y008401D02*
X021944Y008401D01*
X022244Y008559D02*
X021375Y008559D01*
X021302Y008718D02*
X022402Y008718D01*
X022561Y008877D02*
X021934Y008877D01*
X022208Y009035D02*
X022564Y009035D01*
X022564Y009194D02*
X022290Y009194D01*
X022290Y009352D02*
X022564Y009352D01*
X022564Y009511D02*
X022290Y009511D01*
X022290Y009669D02*
X022564Y009669D01*
X022646Y009828D02*
X022290Y009828D01*
X022155Y009986D02*
X022804Y009986D01*
X022963Y010145D02*
X022027Y010145D01*
X022027Y010303D02*
X023121Y010303D01*
X023280Y010462D02*
X022027Y010462D01*
X021690Y010779D02*
X021690Y010779D01*
X023110Y009669D02*
X023809Y009669D01*
X023710Y009511D02*
X023004Y009511D01*
X023004Y009352D02*
X023710Y009352D01*
X023710Y009194D02*
X023004Y009194D01*
X023004Y008718D02*
X027836Y008718D01*
X027836Y008559D02*
X022866Y008559D01*
X022707Y008401D02*
X027836Y008401D01*
X027836Y008242D02*
X022549Y008242D01*
X022445Y008084D02*
X027836Y008084D01*
X027836Y007925D02*
X022373Y007925D01*
X021876Y007925D02*
X019905Y007925D01*
X019746Y007767D02*
X027836Y007767D01*
X027836Y007608D02*
X019293Y007608D01*
X019311Y007450D02*
X026026Y007450D01*
X025701Y007291D02*
X023025Y007291D01*
X023013Y007337D01*
X022989Y007378D01*
X022956Y007412D01*
X022915Y007435D01*
X022869Y007448D01*
X022520Y007448D01*
X022172Y007448D01*
X022126Y007435D01*
X022085Y007412D01*
X022051Y007378D01*
X022028Y007337D01*
X022015Y007291D01*
X021025Y007291D01*
X021013Y007337D01*
X020989Y007378D01*
X020956Y007412D01*
X020915Y007435D01*
X020869Y007448D01*
X020520Y007448D01*
X020172Y007448D01*
X020126Y007435D01*
X020085Y007412D01*
X020051Y007378D01*
X020028Y007337D01*
X020015Y007291D01*
X019313Y007291D01*
X019313Y007133D02*
X020015Y007133D01*
X020015Y007118D02*
X020520Y007118D01*
X020520Y007448D01*
X020520Y007118D01*
X020520Y007118D01*
X020520Y007117D01*
X020520Y007117D01*
X020520Y006788D01*
X020172Y006788D01*
X020126Y006800D01*
X020085Y006824D01*
X020051Y006857D01*
X020028Y006898D01*
X020015Y006944D01*
X020015Y007117D01*
X020520Y007117D01*
X020520Y006788D01*
X020869Y006788D01*
X020915Y006800D01*
X020956Y006824D01*
X020989Y006857D01*
X021013Y006898D01*
X021025Y006944D01*
X021025Y007117D01*
X020521Y007117D01*
X020521Y007118D01*
X021025Y007118D01*
X021025Y007291D01*
X021025Y007133D02*
X022015Y007133D01*
X022015Y007118D02*
X022520Y007118D01*
X022520Y007448D01*
X022520Y007118D01*
X022520Y007118D01*
X022520Y007117D01*
X022520Y007117D01*
X022520Y006788D01*
X022172Y006788D01*
X022126Y006800D01*
X022085Y006824D01*
X022051Y006857D01*
X022028Y006898D01*
X022015Y006944D01*
X022015Y007117D01*
X022520Y007117D01*
X022520Y006788D01*
X022869Y006788D01*
X022915Y006800D01*
X022956Y006824D01*
X022989Y006857D01*
X023013Y006898D01*
X023025Y006944D01*
X023025Y007117D01*
X022521Y007117D01*
X022521Y007118D01*
X023025Y007118D01*
X023025Y007291D01*
X023025Y007133D02*
X025511Y007133D01*
X025371Y006974D02*
X023025Y006974D01*
X022942Y006816D02*
X025269Y006816D01*
X025195Y006657D02*
X017819Y006657D01*
X017978Y006498D02*
X025136Y006498D01*
X025109Y006340D02*
X018490Y006340D01*
X018648Y006181D02*
X025100Y006181D01*
X025100Y006023D02*
X018665Y006023D01*
X018665Y005864D02*
X019521Y005864D01*
X019396Y005706D02*
X018588Y005706D01*
X018396Y005514D02*
X018015Y005514D01*
X017745Y005783D01*
X017745Y006137D01*
X017096Y006786D01*
X016707Y006786D01*
X016584Y006909D01*
X015983Y007510D01*
X015983Y007684D01*
X015983Y007843D01*
X015922Y007904D01*
X015914Y007923D01*
X015914Y007910D01*
X015866Y007793D01*
X015804Y007731D01*
X015804Y007672D01*
X016793Y006683D01*
X017042Y006434D01*
X017396Y006434D01*
X017665Y006164D01*
X017665Y005783D01*
X017396Y005514D01*
X017015Y005514D01*
X016745Y005783D01*
X016745Y006137D01*
X016496Y006386D01*
X015384Y007498D01*
X015384Y007672D01*
X015384Y007731D01*
X015323Y007793D01*
X015314Y007815D01*
X015304Y007792D01*
X015253Y007741D01*
X015253Y007326D01*
X015253Y007143D01*
X014543Y006434D01*
X014572Y006434D01*
X014665Y006340D01*
X014608Y006498D02*
X016384Y006498D01*
X016404Y006454D02*
X016225Y006454D01*
X016225Y005994D01*
X016185Y005994D01*
X016185Y005954D01*
X015725Y005954D01*
X015725Y005775D01*
X016007Y005494D01*
X016185Y005494D01*
X016185Y005954D01*
X016225Y005954D01*
X016225Y005494D01*
X016404Y005494D01*
X016685Y005775D01*
X016685Y005954D01*
X016226Y005954D01*
X016226Y005994D01*
X016685Y005994D01*
X016685Y006173D01*
X016404Y006454D01*
X016518Y006340D02*
X016542Y006340D01*
X016677Y006181D02*
X016701Y006181D01*
X016685Y006023D02*
X016745Y006023D01*
X016745Y005864D02*
X016685Y005864D01*
X016616Y005706D02*
X016823Y005706D01*
X016981Y005547D02*
X016457Y005547D01*
X016225Y005547D02*
X016185Y005547D01*
X016185Y005706D02*
X016225Y005706D01*
X016225Y005864D02*
X016185Y005864D01*
X016185Y005994D02*
X015725Y005994D01*
X015725Y006173D01*
X016007Y006454D01*
X016185Y006454D01*
X016185Y005994D01*
X016185Y006023D02*
X016225Y006023D01*
X016225Y006181D02*
X016185Y006181D01*
X016185Y006340D02*
X016225Y006340D01*
X015893Y006340D02*
X015490Y006340D01*
X015648Y006181D02*
X015734Y006181D01*
X015725Y006023D02*
X015665Y006023D01*
X015665Y005864D02*
X015725Y005864D01*
X015795Y005706D02*
X015588Y005706D01*
X015429Y005547D02*
X015953Y005547D01*
X016978Y006498D02*
X017384Y006498D01*
X017490Y006340D02*
X017542Y006340D01*
X017648Y006181D02*
X017701Y006181D01*
X017665Y006023D02*
X017745Y006023D01*
X017745Y005864D02*
X017665Y005864D01*
X017588Y005706D02*
X017823Y005706D01*
X017981Y005547D02*
X017429Y005547D01*
X017225Y006657D02*
X016819Y006657D01*
X016678Y006816D02*
X016661Y006816D01*
X016519Y006974D02*
X016502Y006974D01*
X016361Y007133D02*
X016344Y007133D01*
X016202Y007291D02*
X016185Y007291D01*
X016044Y007450D02*
X016026Y007450D01*
X015983Y007608D02*
X015868Y007608D01*
X015840Y007767D02*
X015983Y007767D01*
X015384Y007608D02*
X015253Y007608D01*
X015253Y007450D02*
X015433Y007450D01*
X015591Y007291D02*
X015253Y007291D01*
X015242Y007133D02*
X015750Y007133D01*
X015908Y006974D02*
X015084Y006974D01*
X014925Y006816D02*
X016067Y006816D01*
X016225Y006657D02*
X014766Y006657D01*
X014461Y006974D02*
X012375Y006974D01*
X012375Y007133D02*
X014620Y007133D01*
X014778Y007291D02*
X012375Y007291D01*
X012394Y007470D02*
X012675Y007470D01*
X012721Y007482D01*
X012762Y007506D01*
X012795Y007539D01*
X012819Y007580D01*
X012831Y007626D01*
X012831Y007867D01*
X012394Y007867D01*
X012394Y007470D01*
X012279Y007470D02*
X012279Y007867D01*
X012394Y007867D01*
X012394Y007983D01*
X012279Y007983D01*
X012279Y008381D01*
X011998Y008381D01*
X011952Y008369D01*
X011911Y008345D01*
X011877Y008311D01*
X011854Y008270D01*
X011841Y008225D01*
X011841Y007983D01*
X012278Y007983D01*
X012278Y007867D01*
X011841Y007867D01*
X011841Y007626D01*
X011854Y007580D01*
X011877Y007539D01*
X011911Y007506D01*
X011952Y007482D01*
X011998Y007470D01*
X012279Y007470D01*
X012279Y007608D02*
X012394Y007608D01*
X012394Y007767D02*
X012279Y007767D01*
X012278Y007925D02*
X011804Y007925D01*
X011804Y007767D02*
X011841Y007767D01*
X011846Y007608D02*
X011804Y007608D01*
X011745Y007450D02*
X014813Y007450D01*
X014813Y007608D02*
X013992Y007608D01*
X013992Y007767D02*
X014787Y007767D01*
X014713Y007925D02*
X013992Y007925D01*
X013992Y008084D02*
X014159Y008084D01*
X014405Y008084D02*
X014732Y008084D01*
X014849Y008242D02*
X014572Y008242D01*
X014602Y008401D02*
X015516Y008401D01*
X015410Y008242D02*
X015216Y008242D01*
X015357Y008559D02*
X014554Y008559D01*
X013561Y008559D02*
X011804Y008559D01*
X011804Y008401D02*
X013484Y008401D01*
X013043Y008242D02*
X012827Y008242D01*
X012831Y008225D02*
X012819Y008270D01*
X012795Y008311D01*
X012762Y008345D01*
X012721Y008369D01*
X012675Y008381D01*
X012394Y008381D01*
X012394Y007983D01*
X012831Y007983D01*
X012831Y008225D01*
X012831Y008084D02*
X013043Y008084D01*
X013043Y007925D02*
X012394Y007925D01*
X012394Y008084D02*
X012279Y008084D01*
X012279Y008242D02*
X012394Y008242D01*
X011846Y008242D02*
X011804Y008242D01*
X011804Y008084D02*
X011841Y008084D01*
X011384Y008084D02*
X011034Y008084D01*
X011192Y008242D02*
X011384Y008242D01*
X011384Y008401D02*
X011351Y008401D01*
X011072Y008716D02*
X010619Y008263D01*
X009814Y008263D01*
X009640Y008263D01*
X009542Y008166D01*
X009456Y008166D01*
X009338Y008117D01*
X009248Y008027D01*
X009199Y007910D01*
X009199Y007852D01*
X008733Y008318D01*
X009195Y008318D01*
X009289Y008412D01*
X009289Y008485D01*
X009560Y008485D01*
X009560Y008376D01*
X009653Y008282D01*
X010586Y008282D01*
X010680Y008376D01*
X010680Y009308D01*
X010592Y009396D01*
X010947Y009751D01*
X010947Y009925D01*
X010947Y011051D01*
X011163Y011268D01*
X011273Y011268D01*
X011273Y011202D01*
X011286Y011156D01*
X011293Y011143D01*
X011293Y011009D01*
X011293Y010812D01*
X011293Y010688D01*
X011195Y010589D01*
X011072Y010466D01*
X011072Y008716D01*
X011072Y008718D02*
X010680Y008718D01*
X010680Y008559D02*
X010915Y008559D01*
X010757Y008401D02*
X010680Y008401D01*
X010680Y008877D02*
X011072Y008877D01*
X011072Y009035D02*
X010680Y009035D01*
X010680Y009194D02*
X011072Y009194D01*
X011072Y009352D02*
X010636Y009352D01*
X010706Y009511D02*
X011072Y009511D01*
X011072Y009669D02*
X010865Y009669D01*
X010947Y009828D02*
X011072Y009828D01*
X011072Y009986D02*
X010947Y009986D01*
X010947Y010145D02*
X011072Y010145D01*
X011072Y010303D02*
X010947Y010303D01*
X010947Y010462D02*
X011072Y010462D01*
X010947Y010621D02*
X011226Y010621D01*
X011293Y010779D02*
X010947Y010779D01*
X010947Y010938D02*
X011293Y010938D01*
X011293Y011096D02*
X010992Y011096D01*
X011150Y011255D02*
X011273Y011255D01*
X009560Y011255D02*
X008511Y011255D01*
X008500Y011413D02*
X009121Y011413D01*
X009051Y011572D02*
X008491Y011572D01*
X008993Y011730D02*
X009051Y011730D01*
X009429Y011730D02*
X009466Y011730D01*
X009466Y011572D02*
X009429Y011572D01*
X009429Y011413D02*
X009466Y011413D01*
X009560Y011096D02*
X009289Y011096D01*
X009289Y010621D02*
X009560Y010621D01*
X009560Y010462D02*
X009302Y010462D01*
X009309Y010303D02*
X009632Y010303D01*
X009309Y010176D02*
X009309Y009954D01*
X009297Y009909D01*
X009273Y009868D01*
X009239Y009834D01*
X009198Y009810D01*
X009153Y009798D01*
X008951Y009798D01*
X008951Y010176D01*
X009309Y010176D01*
X009309Y010145D02*
X010527Y010145D01*
X010527Y009986D02*
X009309Y009986D01*
X009229Y009828D02*
X010429Y009828D01*
X010271Y009669D02*
X009286Y009669D01*
X009309Y009511D02*
X010127Y009511D01*
X009604Y009352D02*
X008951Y009352D01*
X008913Y009352D02*
X006839Y009352D01*
X006839Y009345D02*
X006839Y009472D01*
X006791Y009590D01*
X006701Y009680D01*
X006583Y009728D01*
X006456Y009728D01*
X006338Y009680D01*
X006248Y009590D01*
X006199Y009472D01*
X006199Y009345D01*
X006239Y009249D01*
X006197Y009206D01*
X006001Y009206D01*
X006001Y009213D01*
X005907Y009307D01*
X005381Y009307D01*
X005287Y009213D01*
X005287Y008648D01*
X005325Y008610D01*
X005303Y008588D01*
X005280Y008547D01*
X005267Y008501D01*
X005267Y008280D01*
X005626Y008280D01*
X005626Y008243D01*
X005267Y008243D01*
X005267Y008021D01*
X005280Y007975D01*
X005303Y007934D01*
X005337Y007901D01*
X005378Y007877D01*
X005424Y007865D01*
X005626Y007865D01*
X005626Y008243D01*
X005663Y008243D01*
X005663Y008280D01*
X006021Y008280D01*
X006021Y008501D01*
X006009Y008547D01*
X005985Y008588D01*
X005963Y008610D01*
X006001Y008648D01*
X006001Y008766D01*
X006197Y008766D01*
X006245Y008718D01*
X006850Y008718D01*
X006944Y008812D01*
X006944Y009161D01*
X006850Y009255D01*
X006802Y009255D01*
X006839Y009345D01*
X006823Y009511D02*
X008555Y009511D01*
X008579Y009669D02*
X008098Y009669D01*
X008098Y009667D02*
X008098Y010587D01*
X008004Y010681D01*
X006887Y010681D01*
X006793Y010587D01*
X006793Y009667D01*
X006887Y009574D01*
X008004Y009574D01*
X008098Y009667D01*
X008098Y009828D02*
X008636Y009828D01*
X008555Y009986D02*
X008098Y009986D01*
X008098Y010145D02*
X008555Y010145D01*
X008555Y010303D02*
X008098Y010303D01*
X008098Y010462D02*
X008563Y010462D01*
X008575Y010621D02*
X008064Y010621D01*
X008575Y010779D02*
X006732Y010779D01*
X006816Y010938D02*
X008575Y010938D01*
X008575Y011096D02*
X008503Y011096D01*
X007682Y011096D02*
X007681Y011096D01*
X006860Y011096D02*
X006813Y011096D01*
X006852Y011255D02*
X006725Y011255D01*
X006509Y011413D02*
X004574Y011413D01*
X004574Y011255D02*
X006198Y011255D01*
X006109Y011096D02*
X004574Y011096D01*
X004574Y010938D02*
X006106Y010938D01*
X006190Y010779D02*
X004574Y010779D01*
X004574Y010621D02*
X004661Y010621D01*
X004628Y010587D02*
X004628Y009667D01*
X004722Y009574D01*
X005839Y009574D01*
X005932Y009667D01*
X005932Y010587D01*
X005839Y010681D01*
X004722Y010681D01*
X004628Y010587D01*
X004628Y010462D02*
X004574Y010462D01*
X004574Y010303D02*
X004628Y010303D01*
X004628Y010145D02*
X004574Y010145D01*
X004574Y009986D02*
X004628Y009986D01*
X004628Y009828D02*
X004574Y009828D01*
X004574Y009669D02*
X004628Y009669D01*
X004574Y009511D02*
X006215Y009511D01*
X006199Y009352D02*
X004574Y009352D01*
X004574Y009194D02*
X005287Y009194D01*
X005287Y009035D02*
X004574Y009035D01*
X004574Y008877D02*
X005287Y008877D01*
X005287Y008718D02*
X004574Y008718D01*
X004574Y008559D02*
X005287Y008559D01*
X005267Y008401D02*
X004574Y008401D01*
X004574Y008242D02*
X005267Y008242D01*
X005267Y008084D02*
X004574Y008084D01*
X004574Y007925D02*
X005312Y007925D01*
X005626Y007925D02*
X005663Y007925D01*
X005663Y007865D02*
X005865Y007865D01*
X005911Y007877D01*
X005952Y007901D01*
X005985Y007934D01*
X006009Y007975D01*
X006021Y008021D01*
X006021Y008243D01*
X005663Y008243D01*
X005663Y007865D01*
X005663Y008084D02*
X005626Y008084D01*
X005626Y008242D02*
X005663Y008242D01*
X006021Y008242D02*
X006152Y008242D01*
X006152Y008084D02*
X006021Y008084D01*
X005976Y007925D02*
X006762Y007925D01*
X006833Y007767D02*
X004574Y007767D01*
X004574Y007608D02*
X007924Y007608D01*
X007924Y007450D02*
X006384Y007450D01*
X006709Y007291D02*
X007924Y007291D01*
X007924Y007133D02*
X006900Y007133D01*
X007039Y006974D02*
X007777Y006974D01*
X007768Y006816D02*
X007142Y006816D01*
X007216Y006657D02*
X007768Y006657D01*
X007768Y006498D02*
X007275Y006498D01*
X007302Y006340D02*
X007812Y006340D01*
X007768Y006181D02*
X007310Y006181D01*
X007310Y006023D02*
X007768Y006023D01*
X007768Y005864D02*
X007310Y005864D01*
X007310Y005706D02*
X007832Y005706D01*
X007310Y005547D02*
X009385Y005547D01*
X009385Y005617D02*
X009385Y005444D01*
X009398Y005398D01*
X009421Y005357D01*
X009455Y005324D01*
X009496Y005300D01*
X009542Y005288D01*
X009890Y005288D01*
X009890Y005617D01*
X009891Y005617D01*
X009891Y005618D01*
X010395Y005618D01*
X010395Y005791D01*
X010383Y005837D01*
X010359Y005878D01*
X010326Y005912D01*
X010285Y005935D01*
X010239Y005948D01*
X009891Y005948D01*
X009891Y005618D01*
X009890Y005618D01*
X009890Y005617D01*
X009385Y005617D01*
X009385Y005706D02*
X009332Y005706D01*
X009396Y005864D02*
X009413Y005864D01*
X009396Y006023D02*
X012606Y006023D01*
X012540Y006181D02*
X009396Y006181D01*
X009352Y006340D02*
X012540Y006340D01*
X012540Y006498D02*
X009396Y006498D01*
X009396Y006657D02*
X012581Y006657D01*
X012290Y006816D02*
X014303Y006816D01*
X014144Y006657D02*
X013252Y006657D01*
X013503Y006498D02*
X013986Y006498D01*
X013356Y006023D02*
X013226Y006023D01*
X013293Y005864D02*
X013515Y005864D01*
X013293Y005706D02*
X013745Y005706D01*
X013806Y005547D02*
X013293Y005547D01*
X012908Y005072D02*
X007310Y005072D01*
X007310Y005230D02*
X012749Y005230D01*
X012571Y005389D02*
X012378Y005389D01*
X012383Y005398D02*
X012395Y005444D01*
X012395Y005617D01*
X011891Y005617D01*
X011891Y005618D01*
X012395Y005618D01*
X012395Y005791D01*
X012383Y005837D01*
X012359Y005878D01*
X012326Y005912D01*
X012285Y005935D01*
X012239Y005948D01*
X011891Y005948D01*
X011891Y005618D01*
X011890Y005618D01*
X011890Y005948D01*
X011542Y005948D01*
X011496Y005935D01*
X011455Y005912D01*
X011421Y005878D01*
X011398Y005837D01*
X011385Y005791D01*
X011385Y005618D01*
X011890Y005618D01*
X011890Y005617D01*
X011891Y005617D01*
X011891Y005288D01*
X012239Y005288D01*
X012285Y005300D01*
X012326Y005324D01*
X012359Y005357D01*
X012383Y005398D01*
X012395Y005547D02*
X012540Y005547D01*
X012540Y005706D02*
X012395Y005706D01*
X012367Y005864D02*
X012540Y005864D01*
X011891Y005864D02*
X011890Y005864D01*
X011890Y005706D02*
X011891Y005706D01*
X011890Y005617D02*
X011385Y005617D01*
X011385Y005444D01*
X011398Y005398D01*
X011421Y005357D01*
X011455Y005324D01*
X011496Y005300D01*
X011542Y005288D01*
X011890Y005288D01*
X011890Y005617D01*
X011890Y005547D02*
X011891Y005547D01*
X011890Y005389D02*
X011891Y005389D01*
X011403Y005389D02*
X010378Y005389D01*
X010383Y005398D02*
X010395Y005444D01*
X010395Y005617D01*
X009891Y005617D01*
X009891Y005288D01*
X010239Y005288D01*
X010285Y005300D01*
X010326Y005324D01*
X010359Y005357D01*
X010383Y005398D01*
X010395Y005547D02*
X011385Y005547D01*
X011385Y005706D02*
X010395Y005706D01*
X010367Y005864D02*
X011413Y005864D01*
X009891Y005864D02*
X009890Y005864D01*
X009890Y005706D02*
X009891Y005706D01*
X009890Y005547D02*
X009891Y005547D01*
X009890Y005389D02*
X009891Y005389D01*
X009403Y005389D02*
X007310Y005389D01*
X007310Y004913D02*
X025100Y004913D01*
X025100Y005389D02*
X022993Y005389D01*
X023005Y005547D02*
X025100Y005547D01*
X025100Y005706D02*
X023005Y005706D01*
X022975Y005864D02*
X025100Y005864D01*
X022520Y006816D02*
X022520Y006816D01*
X022520Y006974D02*
X022520Y006974D01*
X022520Y007133D02*
X022520Y007133D01*
X022520Y007291D02*
X022520Y007291D01*
X022015Y007291D02*
X022015Y007118D01*
X022015Y006974D02*
X021025Y006974D01*
X020942Y006816D02*
X022099Y006816D01*
X020520Y006816D02*
X020520Y006816D01*
X020520Y006974D02*
X020520Y006974D01*
X020520Y007133D02*
X020520Y007133D01*
X020520Y007291D02*
X020520Y007291D01*
X020015Y007291D02*
X020015Y007118D01*
X020015Y006974D02*
X019313Y006974D01*
X019205Y006816D02*
X020099Y006816D01*
X018955Y006816D02*
X018918Y006816D01*
X018918Y006974D02*
X018955Y006974D01*
X018955Y007133D02*
X018918Y007133D01*
X018560Y007133D02*
X018512Y007133D01*
X018560Y006974D02*
X018354Y006974D01*
X018195Y006816D02*
X018668Y006816D01*
X018049Y007291D02*
X017993Y007291D01*
X018030Y007276D02*
X018032Y007274D01*
X018580Y007822D01*
X018580Y007914D01*
X018211Y008283D01*
X018211Y008173D01*
X018162Y008056D01*
X018072Y007966D01*
X017954Y007917D01*
X017868Y007917D01*
X017683Y007732D01*
X017509Y007732D01*
X017269Y007732D01*
X017123Y007587D01*
X016949Y007587D01*
X016662Y007587D01*
X016539Y007710D01*
X016539Y007710D01*
X016433Y007815D01*
X016433Y007815D01*
X016404Y007844D01*
X016403Y007843D01*
X016403Y007684D01*
X016881Y007206D01*
X017096Y007206D01*
X017270Y007206D01*
X017529Y006947D01*
X017529Y007068D01*
X017578Y007186D01*
X017668Y007276D01*
X017785Y007324D01*
X017913Y007324D01*
X018030Y007276D01*
X018207Y007450D02*
X016637Y007450D01*
X016640Y007608D02*
X016479Y007608D01*
X016482Y007767D02*
X016403Y007767D01*
X017145Y007608D02*
X018366Y007608D01*
X018524Y007767D02*
X017717Y007767D01*
X017974Y007925D02*
X018568Y007925D01*
X018410Y008084D02*
X018174Y008084D01*
X018211Y008242D02*
X018251Y008242D01*
X017705Y007291D02*
X016796Y007291D01*
X017344Y007133D02*
X017556Y007133D01*
X017529Y006974D02*
X017502Y006974D01*
X015349Y007767D02*
X015279Y007767D01*
X015778Y008242D02*
X015912Y008242D01*
X013043Y007767D02*
X012831Y007767D01*
X012827Y007608D02*
X013043Y007608D01*
X011491Y006816D02*
X010290Y006816D01*
X009491Y006816D02*
X009396Y006816D01*
X009387Y006974D02*
X009405Y006974D01*
X009405Y007133D02*
X009239Y007133D01*
X009239Y007291D02*
X009405Y007291D01*
X009239Y007450D02*
X011151Y007450D01*
X011207Y007506D02*
X011207Y007506D01*
X011310Y007608D02*
X009734Y007608D01*
X009833Y007767D02*
X011384Y007767D01*
X011384Y007925D02*
X010875Y007925D01*
X011804Y008718D02*
X012357Y008718D01*
X012341Y008877D02*
X011804Y008877D01*
X011804Y009035D02*
X012341Y009035D01*
X012341Y009194D02*
X011804Y009194D01*
X011804Y009352D02*
X012341Y009352D01*
X012353Y009511D02*
X011804Y009511D01*
X011804Y009669D02*
X012353Y009669D01*
X012353Y009828D02*
X012204Y009828D01*
X012204Y009986D02*
X012416Y009986D01*
X009560Y009194D02*
X009309Y009194D01*
X009271Y009035D02*
X009560Y009035D01*
X008951Y009511D02*
X008914Y009511D01*
X008914Y009669D02*
X008951Y009669D01*
X008951Y009828D02*
X008914Y009828D01*
X008914Y009986D02*
X008951Y009986D01*
X008951Y010145D02*
X008914Y010145D01*
X008555Y009194D02*
X008374Y009194D01*
X008452Y008877D02*
X008575Y008877D01*
X008575Y008718D02*
X008364Y008718D01*
X008492Y008559D02*
X008575Y008559D01*
X008809Y008242D02*
X009619Y008242D01*
X009560Y008401D02*
X009278Y008401D01*
X009305Y008084D02*
X008967Y008084D01*
X009126Y007925D02*
X009206Y007925D01*
X009239Y007608D02*
X009304Y007608D01*
X007924Y007767D02*
X007330Y007767D01*
X007402Y007925D02*
X007924Y007925D01*
X007175Y008401D02*
X007074Y008401D01*
X007155Y008559D02*
X006002Y008559D01*
X006001Y008718D02*
X007155Y008718D01*
X007175Y008877D02*
X006944Y008877D01*
X006944Y009035D02*
X007175Y009035D01*
X007208Y009194D02*
X006911Y009194D01*
X006793Y009669D02*
X006711Y009669D01*
X006793Y009828D02*
X005932Y009828D01*
X005932Y009986D02*
X006793Y009986D01*
X006793Y010145D02*
X005932Y010145D01*
X005932Y010303D02*
X006793Y010303D01*
X006793Y010462D02*
X005932Y010462D01*
X005899Y010621D02*
X006827Y010621D01*
X006328Y009669D02*
X005932Y009669D01*
X006021Y008401D02*
X006152Y008401D01*
X008457Y005706D02*
X008707Y005706D01*
X006195Y011572D02*
X004574Y011572D01*
X004574Y011730D02*
X006112Y011730D01*
X006128Y011889D02*
X004574Y011889D01*
X004574Y012047D02*
X006240Y012047D01*
X006624Y012047D02*
X006872Y012047D01*
X006872Y011889D02*
X006736Y011889D01*
X006872Y012206D02*
X004574Y012206D01*
X004574Y012365D02*
X006872Y012365D01*
X006872Y012523D02*
X006744Y012523D01*
X006764Y012543D02*
X006818Y012674D01*
X006818Y012817D01*
X006764Y012948D01*
X006664Y013048D01*
X006532Y013103D01*
X006390Y013103D01*
X006259Y013048D01*
X006158Y012948D01*
X006104Y012817D01*
X006104Y012674D01*
X006158Y012543D01*
X006259Y012443D01*
X006390Y012388D01*
X006532Y012388D01*
X006664Y012443D01*
X006764Y012543D01*
X006818Y012682D02*
X006880Y012682D01*
X006809Y012840D02*
X007182Y012840D01*
X007182Y012999D02*
X006713Y012999D01*
X006807Y013157D02*
X005918Y013157D01*
X005932Y013171D02*
X005932Y014091D01*
X005839Y014185D01*
X004722Y014185D01*
X004628Y014091D01*
X004628Y013171D01*
X004722Y013078D01*
X005839Y013078D01*
X005932Y013171D01*
X005932Y013316D02*
X006793Y013316D01*
X006793Y013474D02*
X005932Y013474D01*
X005932Y013633D02*
X006793Y013633D01*
X006793Y013791D02*
X005932Y013791D01*
X005932Y013950D02*
X006793Y013950D01*
X006811Y014109D02*
X005915Y014109D01*
X005942Y014266D02*
X006035Y014360D01*
X006035Y014599D01*
X006099Y014599D01*
X006099Y014537D01*
X006192Y014444D01*
X006876Y014444D01*
X006970Y014537D01*
X006970Y015221D01*
X006876Y015315D01*
X006192Y015315D01*
X006099Y015221D01*
X006099Y015159D01*
X005968Y015159D01*
X005942Y015186D01*
X005209Y015186D01*
X005115Y015092D01*
X005115Y014360D01*
X005209Y014266D01*
X005942Y014266D01*
X005943Y014267D02*
X007182Y014267D01*
X007182Y014426D02*
X006035Y014426D01*
X006035Y014584D02*
X006099Y014584D01*
X005208Y014267D02*
X004574Y014267D01*
X004574Y014109D02*
X004645Y014109D01*
X004628Y013950D02*
X004574Y013950D01*
X004574Y013791D02*
X004628Y013791D01*
X004628Y013633D02*
X004574Y013633D01*
X004574Y013474D02*
X004628Y013474D01*
X004628Y013316D02*
X004574Y013316D01*
X004574Y013157D02*
X004642Y013157D01*
X004574Y012999D02*
X006209Y012999D01*
X006114Y012840D02*
X004574Y012840D01*
X004574Y012682D02*
X006104Y012682D01*
X006179Y012523D02*
X004574Y012523D01*
X004574Y014426D02*
X005115Y014426D01*
X005115Y014584D02*
X004574Y014584D01*
X004574Y014743D02*
X005115Y014743D01*
X005115Y014901D02*
X004574Y014901D01*
X004574Y015060D02*
X005115Y015060D01*
X005377Y015246D02*
X005095Y015527D01*
X005095Y015706D01*
X005555Y015706D01*
X005555Y015746D01*
X005095Y015746D01*
X005095Y015925D01*
X005377Y016206D01*
X005555Y016206D01*
X005555Y015746D01*
X005595Y015746D01*
X005595Y016206D01*
X005774Y016206D01*
X006055Y015925D01*
X006055Y015746D01*
X005596Y015746D01*
X005596Y015706D01*
X006055Y015706D01*
X006055Y015527D01*
X005774Y015246D01*
X005595Y015246D01*
X005595Y015706D01*
X005555Y015706D01*
X005555Y015246D01*
X005377Y015246D01*
X005246Y015377D02*
X004574Y015377D01*
X004574Y015535D02*
X005095Y015535D01*
X005095Y015694D02*
X004574Y015694D01*
X004574Y015852D02*
X005095Y015852D01*
X005182Y016011D02*
X004574Y016011D01*
X004574Y016170D02*
X005340Y016170D01*
X005555Y016170D02*
X005595Y016170D01*
X005595Y016011D02*
X005555Y016011D01*
X005555Y015852D02*
X005595Y015852D01*
X005595Y015694D02*
X005555Y015694D01*
X005555Y015535D02*
X005595Y015535D01*
X005595Y015377D02*
X005555Y015377D01*
X005905Y015377D02*
X007376Y015377D01*
X007404Y015535D02*
X006055Y015535D01*
X006055Y015694D02*
X007397Y015694D01*
X007406Y015852D02*
X007461Y015852D01*
X007116Y015852D02*
X007079Y015852D01*
X007079Y016011D02*
X007116Y016011D01*
X007116Y016170D02*
X007079Y016170D01*
X007079Y016328D02*
X007116Y016328D01*
X007116Y016487D02*
X007079Y016487D01*
X006919Y016645D02*
X007562Y016645D01*
X007562Y016804D02*
X007053Y016804D01*
X007152Y016962D02*
X007562Y016962D01*
X007562Y017121D02*
X007223Y017121D01*
X007271Y017279D02*
X007562Y017279D01*
X007562Y017438D02*
X007306Y017438D01*
X007311Y017596D02*
X007681Y017596D01*
X007777Y017755D02*
X007310Y017755D01*
X007310Y017914D02*
X007640Y017914D01*
X007640Y018072D02*
X007310Y018072D01*
X007310Y018231D02*
X007640Y018231D01*
X007640Y018389D02*
X007310Y018389D01*
X007310Y018548D02*
X007726Y018548D01*
X007310Y018706D02*
X025100Y018706D01*
X025100Y018548D02*
X022882Y018548D01*
X022871Y018559D02*
X022830Y018582D01*
X022784Y018595D01*
X022562Y018595D01*
X022562Y018217D01*
X022486Y018217D01*
X022486Y018595D01*
X022264Y018595D01*
X022219Y018582D01*
X022177Y018559D01*
X022144Y018525D01*
X022120Y018484D01*
X022108Y018439D01*
X022108Y018217D01*
X022486Y018217D01*
X022486Y018140D01*
X022562Y018140D01*
X022562Y017762D01*
X022784Y017762D01*
X022830Y017775D01*
X022871Y017798D01*
X022904Y017832D01*
X022928Y017873D01*
X022940Y017919D01*
X022940Y018140D01*
X022563Y018140D01*
X022563Y018217D01*
X022940Y018217D01*
X022940Y018439D01*
X022928Y018484D01*
X022904Y018525D01*
X022871Y018559D01*
X022940Y018389D02*
X025100Y018389D01*
X025100Y018231D02*
X022940Y018231D01*
X022940Y018072D02*
X025100Y018072D01*
X025100Y017914D02*
X022939Y017914D01*
X022562Y017914D02*
X022486Y017914D01*
X022486Y017762D02*
X022486Y018140D01*
X022108Y018140D01*
X022108Y017919D01*
X022120Y017873D01*
X022144Y017832D01*
X022177Y017798D01*
X022219Y017775D01*
X022264Y017762D01*
X022486Y017762D01*
X022597Y017438D02*
X020028Y017438D01*
X020028Y017596D02*
X025099Y017596D01*
X025105Y017438D02*
X022855Y017438D01*
X022802Y017460D02*
X022649Y017460D01*
X022508Y017401D01*
X022399Y017293D01*
X022341Y017151D01*
X022341Y016998D01*
X022399Y016857D01*
X022508Y016748D01*
X022649Y016690D01*
X022802Y016690D01*
X022944Y016748D01*
X023010Y016815D01*
X023162Y016815D01*
X024941Y015035D01*
X024941Y014801D01*
X024710Y014570D01*
X024710Y014189D01*
X024979Y013919D01*
X025360Y013919D01*
X025630Y014189D01*
X025630Y014570D01*
X025461Y014738D01*
X025461Y015091D01*
X025461Y015195D01*
X025422Y015290D01*
X023417Y017295D01*
X023322Y017335D01*
X023218Y017335D01*
X023010Y017335D01*
X022944Y017401D01*
X022802Y017460D01*
X022394Y017279D02*
X020028Y017279D01*
X020028Y017121D02*
X022341Y017121D01*
X022356Y016962D02*
X022063Y016962D01*
X022222Y016804D02*
X022452Y016804D01*
X022381Y016645D02*
X023332Y016645D01*
X023490Y016487D02*
X022429Y016487D01*
X022424Y016328D02*
X023649Y016328D01*
X023807Y016170D02*
X022424Y016170D01*
X022424Y016011D02*
X023966Y016011D01*
X024124Y015852D02*
X022517Y015852D01*
X022519Y015694D02*
X024283Y015694D01*
X024441Y015535D02*
X022421Y015535D01*
X021988Y015535D02*
X021923Y015535D01*
X021923Y015377D02*
X024600Y015377D01*
X024759Y015218D02*
X021923Y015218D01*
X021923Y015060D02*
X024917Y015060D01*
X024941Y014901D02*
X021837Y014901D01*
X021753Y014743D02*
X023854Y014743D01*
X023971Y014859D02*
X023690Y014578D01*
X023690Y014399D01*
X024150Y014399D01*
X024150Y014359D01*
X024190Y014359D01*
X024190Y013899D01*
X024369Y013899D01*
X024650Y014181D01*
X024650Y014359D01*
X024190Y014359D01*
X024190Y014399D01*
X024650Y014399D01*
X024650Y014578D01*
X024369Y014859D01*
X024190Y014859D01*
X024190Y014400D01*
X024150Y014400D01*
X024150Y014859D01*
X023971Y014859D01*
X024150Y014743D02*
X024190Y014743D01*
X024190Y014584D02*
X024150Y014584D01*
X024150Y014426D02*
X024190Y014426D01*
X024150Y014359D02*
X023690Y014359D01*
X023690Y014181D01*
X023971Y013899D01*
X024150Y013899D01*
X024150Y014359D01*
X024150Y014267D02*
X024190Y014267D01*
X024190Y014109D02*
X024150Y014109D01*
X024150Y013950D02*
X024190Y013950D01*
X024419Y013950D02*
X024949Y013950D01*
X024931Y013791D02*
X024408Y013791D01*
X024567Y013633D02*
X024773Y013633D01*
X024710Y013474D02*
X024630Y013474D01*
X024630Y013316D02*
X024710Y013316D01*
X024741Y013157D02*
X024598Y013157D01*
X025440Y012999D02*
X027836Y012999D01*
X027836Y013157D02*
X025598Y013157D01*
X025630Y013316D02*
X027836Y013316D01*
X027836Y013474D02*
X025630Y013474D01*
X025567Y013633D02*
X027836Y013633D01*
X027836Y013791D02*
X025408Y013791D01*
X025391Y013950D02*
X027836Y013950D01*
X027836Y014109D02*
X025550Y014109D01*
X025630Y014267D02*
X027836Y014267D01*
X027836Y014426D02*
X025630Y014426D01*
X025616Y014584D02*
X027836Y014584D01*
X027836Y014743D02*
X025461Y014743D01*
X025461Y014901D02*
X027836Y014901D01*
X027836Y015060D02*
X025461Y015060D01*
X025452Y015218D02*
X027836Y015218D01*
X027836Y015377D02*
X025335Y015377D01*
X025177Y015535D02*
X027836Y015535D01*
X027836Y015694D02*
X025018Y015694D01*
X024860Y015852D02*
X027836Y015852D01*
X027836Y016011D02*
X024701Y016011D01*
X024543Y016170D02*
X027836Y016170D01*
X025991Y016328D02*
X024384Y016328D01*
X024226Y016487D02*
X025668Y016487D01*
X025492Y016645D02*
X024067Y016645D01*
X023908Y016804D02*
X025357Y016804D01*
X025259Y016962D02*
X023750Y016962D01*
X023591Y017121D02*
X025188Y017121D01*
X025139Y017279D02*
X023433Y017279D01*
X023173Y016804D02*
X022999Y016804D01*
X022109Y017914D02*
X022094Y017914D01*
X022094Y018072D02*
X022108Y018072D01*
X022094Y018231D02*
X022108Y018231D01*
X022094Y018389D02*
X022108Y018389D01*
X022166Y018548D02*
X022027Y018548D01*
X022486Y018548D02*
X022562Y018548D01*
X022562Y018389D02*
X022486Y018389D01*
X022486Y018231D02*
X022562Y018231D01*
X022562Y018072D02*
X022486Y018072D01*
X021368Y018548D02*
X020747Y018548D01*
X020207Y018548D02*
X020078Y018548D01*
X019537Y018548D02*
X018945Y018548D01*
X018934Y018559D02*
X018893Y018582D01*
X018847Y018595D01*
X018625Y018595D01*
X018625Y018217D01*
X018549Y018217D01*
X018549Y018595D01*
X018327Y018595D01*
X018282Y018582D01*
X018240Y018559D01*
X018207Y018525D01*
X018183Y018484D01*
X018171Y018439D01*
X018171Y018217D01*
X018549Y018217D01*
X018549Y018140D01*
X018625Y018140D01*
X018625Y017762D01*
X018847Y017762D01*
X018893Y017775D01*
X018934Y017798D01*
X018967Y017832D01*
X018991Y017873D01*
X019003Y017919D01*
X019003Y018140D01*
X018626Y018140D01*
X018626Y018217D01*
X019003Y018217D01*
X019003Y018439D01*
X018991Y018484D01*
X018967Y018525D01*
X018934Y018559D01*
X019003Y018389D02*
X019451Y018389D01*
X019451Y018231D02*
X019003Y018231D01*
X019003Y018072D02*
X019451Y018072D01*
X019451Y017914D02*
X019002Y017914D01*
X018625Y017914D02*
X018549Y017914D01*
X018549Y017762D02*
X018549Y018140D01*
X018171Y018140D01*
X018171Y017919D01*
X018183Y017873D01*
X018207Y017832D01*
X018240Y017798D01*
X018282Y017775D01*
X018327Y017762D01*
X018549Y017762D01*
X018172Y017914D02*
X018157Y017914D01*
X018157Y018072D02*
X018171Y018072D01*
X018157Y018231D02*
X018171Y018231D01*
X018157Y018389D02*
X018171Y018389D01*
X018229Y018548D02*
X018090Y018548D01*
X018549Y018548D02*
X018625Y018548D01*
X018625Y018389D02*
X018549Y018389D01*
X018549Y018231D02*
X018625Y018231D01*
X018625Y018072D02*
X018549Y018072D01*
X019588Y017755D02*
X016204Y017755D01*
X016204Y017596D02*
X019588Y017596D01*
X019588Y017438D02*
X016204Y017438D01*
X016204Y017279D02*
X019588Y017279D01*
X019588Y017121D02*
X018341Y017121D01*
X018098Y017121D02*
X016204Y017121D01*
X015520Y016380D02*
X015104Y016380D01*
X015104Y016419D01*
X014917Y016419D01*
X014796Y016369D01*
X014643Y016369D01*
X014522Y016419D01*
X014127Y016419D01*
X014101Y016394D01*
X014123Y016372D01*
X014147Y016331D01*
X014159Y016285D01*
X014159Y016063D01*
X013801Y016063D01*
X013801Y016026D01*
X014159Y016026D01*
X014159Y015839D01*
X014445Y015839D01*
X014619Y015839D01*
X014633Y015839D01*
X014885Y016091D01*
X015008Y016214D01*
X015113Y016214D01*
X015104Y016247D01*
X015104Y016379D01*
X015520Y016379D01*
X015520Y016380D01*
X015104Y016328D02*
X014147Y016328D01*
X014159Y016170D02*
X014963Y016170D01*
X014804Y016011D02*
X014159Y016011D01*
X014159Y015852D02*
X014646Y015852D01*
X014314Y015419D02*
X013909Y015419D01*
X013909Y015232D01*
X013551Y015232D01*
X013551Y015196D01*
X013896Y015196D01*
X013976Y015276D01*
X014093Y015324D01*
X014221Y015324D01*
X014314Y015286D01*
X014314Y015419D01*
X014314Y015377D02*
X013909Y015377D01*
X013919Y015218D02*
X013551Y015218D01*
X013513Y015218D02*
X012301Y015218D01*
X012301Y015232D02*
X012679Y015232D01*
X012679Y015419D01*
X013155Y015419D01*
X013155Y015232D01*
X013513Y015232D01*
X013513Y015196D01*
X013155Y015196D01*
X013155Y014974D01*
X013168Y014928D01*
X013191Y014887D01*
X013213Y014865D01*
X013175Y014828D01*
X013175Y014359D01*
X013159Y014359D01*
X013159Y014362D01*
X012930Y014591D01*
X012807Y014714D01*
X012659Y014714D01*
X012659Y014808D01*
X012599Y014867D01*
X012609Y014873D01*
X012643Y014907D01*
X012666Y014948D01*
X012679Y014993D01*
X012679Y015196D01*
X012301Y015196D01*
X012301Y015232D01*
X012263Y015232D02*
X012263Y015196D01*
X011886Y015196D01*
X011886Y014993D01*
X011898Y014948D01*
X011922Y014907D01*
X011955Y014873D01*
X011965Y014867D01*
X011906Y014808D01*
X011906Y014724D01*
X011224Y014724D01*
X011224Y014850D01*
X011130Y014943D01*
X011065Y014943D01*
X011065Y015321D01*
X011180Y015321D01*
X011180Y014924D01*
X011461Y014924D01*
X011507Y014936D01*
X011548Y014960D01*
X011582Y014993D01*
X011605Y015034D01*
X011618Y015080D01*
X011618Y015321D01*
X011181Y015321D01*
X011181Y015437D01*
X011618Y015437D01*
X011618Y015679D01*
X011605Y015724D01*
X011598Y015737D01*
X011877Y015737D01*
X012028Y015587D01*
X011996Y015579D01*
X011955Y015555D01*
X011922Y015521D01*
X011898Y015480D01*
X011886Y015435D01*
X011886Y015232D01*
X012263Y015232D01*
X012263Y015218D02*
X011618Y015218D01*
X011612Y015060D02*
X011886Y015060D01*
X011927Y014901D02*
X011172Y014901D01*
X011180Y015060D02*
X011065Y015060D01*
X011065Y015218D02*
X011180Y015218D01*
X011065Y015321D02*
X010628Y015321D01*
X010628Y015080D01*
X010640Y015034D01*
X010664Y014993D01*
X010697Y014960D01*
X010726Y014943D01*
X010604Y014943D01*
X010532Y014872D01*
X010461Y014943D01*
X010367Y014943D01*
X010367Y014988D01*
X010416Y015037D01*
X010416Y015721D01*
X010367Y015771D01*
X010367Y016419D01*
X011354Y016419D01*
X011354Y016380D01*
X011770Y016380D01*
X011770Y016379D01*
X011354Y016379D01*
X011354Y016247D01*
X011366Y016202D01*
X011377Y016183D01*
X011374Y016180D01*
X011374Y015835D01*
X011180Y015835D01*
X011180Y015437D01*
X011065Y015437D01*
X011065Y015321D01*
X011065Y015377D02*
X010416Y015377D01*
X010416Y015535D02*
X010628Y015535D01*
X010628Y015437D02*
X011065Y015437D01*
X011065Y015835D01*
X010784Y015835D01*
X010738Y015823D01*
X010697Y015799D01*
X010664Y015765D01*
X010640Y015724D01*
X010628Y015679D01*
X010628Y015437D01*
X010628Y015218D02*
X010416Y015218D01*
X010416Y015060D02*
X010633Y015060D01*
X010561Y014901D02*
X010503Y014901D01*
X011224Y014743D02*
X011906Y014743D01*
X012637Y014901D02*
X013183Y014901D01*
X013175Y014743D02*
X012659Y014743D01*
X012679Y015060D02*
X013155Y015060D01*
X013155Y015377D02*
X012679Y015377D01*
X012398Y015839D02*
X012369Y015839D01*
X012166Y016042D01*
X012166Y016180D01*
X012163Y016183D01*
X012174Y016202D01*
X012186Y016247D01*
X012186Y016379D01*
X011771Y016379D01*
X011771Y016380D01*
X012186Y016380D01*
X012186Y016419D01*
X013437Y016419D01*
X013463Y016394D01*
X013441Y016372D01*
X013418Y016331D01*
X013405Y016285D01*
X013405Y016063D01*
X013763Y016063D01*
X013763Y016026D01*
X013405Y016026D01*
X013405Y015839D01*
X013190Y015839D01*
X013190Y016180D01*
X013096Y016274D01*
X012491Y016274D01*
X012398Y016180D01*
X012398Y015839D01*
X012398Y015852D02*
X012356Y015852D01*
X012398Y016011D02*
X012197Y016011D01*
X012166Y016170D02*
X012398Y016170D01*
X012186Y016328D02*
X013417Y016328D01*
X013405Y016170D02*
X013190Y016170D01*
X013190Y016011D02*
X013405Y016011D01*
X013405Y015852D02*
X013190Y015852D01*
X011921Y015694D02*
X011614Y015694D01*
X011618Y015535D02*
X011936Y015535D01*
X011886Y015377D02*
X011181Y015377D01*
X011180Y015535D02*
X011065Y015535D01*
X011065Y015694D02*
X011180Y015694D01*
X011374Y015852D02*
X010367Y015852D01*
X010367Y016011D02*
X011374Y016011D01*
X011374Y016170D02*
X010367Y016170D01*
X010367Y016328D02*
X011354Y016328D01*
X010632Y015694D02*
X010416Y015694D01*
X009322Y015694D02*
X008167Y015694D01*
X008167Y015706D02*
X008151Y015745D01*
X008210Y015745D01*
X008218Y015737D01*
X008823Y015737D01*
X008916Y015831D01*
X008916Y016180D01*
X008823Y016274D01*
X008218Y016274D01*
X008210Y016265D01*
X008143Y016265D01*
X008143Y016467D01*
X008050Y016561D01*
X008002Y016561D01*
X008002Y017296D01*
X008217Y017510D01*
X008217Y017693D01*
X008217Y017802D01*
X008260Y017802D01*
X008331Y017874D01*
X008403Y017802D01*
X008929Y017802D01*
X009023Y017896D01*
X009023Y017959D01*
X009083Y017959D01*
X009134Y017907D01*
X009252Y017859D01*
X009361Y017859D01*
X009322Y017819D01*
X009322Y017022D01*
X009241Y017022D01*
X009148Y016928D01*
X009148Y016579D01*
X009151Y016576D01*
X009140Y016557D01*
X009128Y016511D01*
X009128Y016380D01*
X009422Y016380D01*
X009423Y016379D01*
X009422Y016379D01*
X009128Y016379D01*
X009128Y016247D01*
X009140Y016202D01*
X009151Y016183D01*
X009148Y016180D01*
X009148Y015831D01*
X009241Y015737D01*
X009322Y015737D01*
X009322Y015077D01*
X009247Y015077D01*
X009244Y015083D01*
X009174Y015154D01*
X009082Y015192D01*
X008466Y015192D01*
X008466Y015221D01*
X008372Y015315D01*
X008200Y015315D01*
X008174Y015341D01*
X008082Y015379D01*
X008076Y015379D01*
X008108Y015411D01*
X008167Y015553D01*
X008167Y015706D01*
X008160Y015535D02*
X009322Y015535D01*
X009322Y015377D02*
X008088Y015377D01*
X008466Y015218D02*
X009322Y015218D01*
X009148Y015852D02*
X008916Y015852D01*
X008916Y016011D02*
X009148Y016011D01*
X009148Y016170D02*
X008916Y016170D01*
X009128Y016328D02*
X008143Y016328D01*
X008124Y016487D02*
X008216Y016487D01*
X008218Y016485D02*
X008823Y016485D01*
X008916Y016579D01*
X008916Y016928D01*
X008823Y017022D01*
X008218Y017022D01*
X008124Y016928D01*
X008124Y016579D01*
X008218Y016485D01*
X008124Y016645D02*
X008002Y016645D01*
X008002Y016804D02*
X008124Y016804D01*
X008158Y016962D02*
X008002Y016962D01*
X008002Y017121D02*
X009322Y017121D01*
X009322Y017279D02*
X008002Y017279D01*
X008144Y017438D02*
X009322Y017438D01*
X009322Y017596D02*
X008217Y017596D01*
X008217Y017755D02*
X009322Y017755D01*
X009128Y017914D02*
X009023Y017914D01*
X008936Y018548D02*
X009557Y018548D01*
X010216Y018548D02*
X010355Y018548D01*
X010297Y018389D02*
X010283Y018389D01*
X010283Y018231D02*
X010297Y018231D01*
X010283Y018072D02*
X010297Y018072D01*
X010675Y018231D02*
X010751Y018231D01*
X010751Y018389D02*
X010675Y018389D01*
X010675Y018548D02*
X010751Y018548D01*
X011071Y018548D02*
X011663Y018548D01*
X012204Y018548D02*
X012332Y018548D01*
X012873Y018548D02*
X013494Y018548D01*
X014153Y018548D02*
X014292Y018548D01*
X014234Y018389D02*
X014220Y018389D01*
X014220Y018231D02*
X014234Y018231D01*
X014220Y018072D02*
X014234Y018072D01*
X014612Y018231D02*
X014688Y018231D01*
X014688Y018389D02*
X014612Y018389D01*
X014612Y018548D02*
X014688Y018548D01*
X015008Y018548D02*
X015600Y018548D01*
X015514Y018389D02*
X015066Y018389D01*
X015066Y018231D02*
X015514Y018231D01*
X015514Y018072D02*
X015066Y018072D01*
X016141Y018548D02*
X016270Y018548D01*
X016810Y018548D02*
X017431Y018548D01*
X017002Y017914D02*
X016897Y017914D01*
X017639Y016494D02*
X017935Y016494D01*
X018001Y016428D01*
X018143Y016369D01*
X018296Y016369D01*
X018413Y016418D01*
X018413Y016056D01*
X018507Y015963D01*
X018589Y015963D01*
X018589Y015695D01*
X018589Y015612D01*
X018559Y015625D01*
X018432Y015625D01*
X018314Y015576D01*
X018224Y015486D01*
X018175Y015368D01*
X018175Y015296D01*
X017990Y015110D01*
X017194Y015110D01*
X017065Y014981D01*
X016991Y014907D01*
X016916Y014907D01*
X017136Y015126D01*
X017591Y015126D01*
X017687Y015126D01*
X017775Y015163D01*
X018079Y015467D01*
X018091Y015479D01*
X018124Y015493D01*
X018214Y015583D01*
X018263Y015700D01*
X018263Y015828D01*
X018214Y015945D01*
X018124Y016035D01*
X018007Y016084D01*
X017879Y016084D01*
X017762Y016035D01*
X017672Y015945D01*
X017659Y015914D01*
X017659Y016026D01*
X017301Y016026D01*
X017301Y016063D01*
X017659Y016063D01*
X017659Y016285D01*
X017647Y016331D01*
X017623Y016372D01*
X017601Y016394D01*
X017639Y016431D01*
X017639Y016494D01*
X017639Y016487D02*
X017943Y016487D01*
X017647Y016328D02*
X018413Y016328D01*
X018413Y016170D02*
X017659Y016170D01*
X017659Y016011D02*
X017738Y016011D01*
X017623Y015718D02*
X017623Y015700D01*
X017626Y015693D01*
X017540Y015606D01*
X017084Y015606D01*
X016989Y015606D01*
X016900Y015570D01*
X016256Y014926D01*
X016220Y014837D01*
X016220Y014742D01*
X016220Y013899D01*
X016256Y013811D01*
X016324Y013743D01*
X016422Y013645D01*
X016489Y013577D01*
X016551Y013552D01*
X016551Y013535D01*
X016645Y013441D01*
X016698Y013441D01*
X016928Y013211D01*
X017111Y013211D01*
X017262Y013211D01*
X017262Y012949D01*
X017262Y012949D01*
X017243Y012929D01*
X017214Y012998D01*
X017124Y013088D01*
X017007Y013137D01*
X016879Y013137D01*
X016762Y013088D01*
X016711Y013037D01*
X016677Y013071D01*
X016636Y013071D01*
X016671Y013156D01*
X016671Y013283D01*
X016622Y013401D01*
X016532Y013491D01*
X016415Y013539D01*
X016287Y013539D01*
X016170Y013491D01*
X016080Y013401D01*
X016031Y013283D01*
X016031Y013156D01*
X016066Y013071D01*
X016012Y013071D01*
X016012Y013225D01*
X015877Y013359D01*
X015724Y013359D01*
X015724Y013567D01*
X015728Y013572D01*
X015728Y014062D01*
X015763Y014097D01*
X015846Y014097D01*
X015963Y014145D01*
X016053Y014235D01*
X016102Y014353D01*
X016102Y014480D01*
X016053Y014598D01*
X015963Y014688D01*
X015846Y014737D01*
X015718Y014737D01*
X015639Y014704D01*
X015639Y014828D01*
X015601Y014865D01*
X015623Y014887D01*
X015647Y014928D01*
X015659Y014974D01*
X015659Y015196D01*
X015301Y015196D01*
X015301Y015232D01*
X015659Y015232D01*
X015659Y015448D01*
X015770Y015448D01*
X015944Y015448D01*
X016081Y015586D01*
X016204Y015709D01*
X016204Y015774D01*
X016241Y015737D01*
X016846Y015737D01*
X016907Y015798D01*
X016918Y015759D01*
X016941Y015718D01*
X016975Y015684D01*
X017016Y015660D01*
X017062Y015648D01*
X017264Y015648D01*
X017264Y016026D01*
X017301Y016026D01*
X017301Y015648D01*
X017503Y015648D01*
X017548Y015660D01*
X017589Y015684D01*
X017623Y015718D01*
X017623Y015718D01*
X017626Y015694D02*
X017599Y015694D01*
X017301Y015694D02*
X017264Y015694D01*
X017264Y015852D02*
X017301Y015852D01*
X017301Y016011D02*
X017264Y016011D01*
X016965Y015694D02*
X016189Y015694D01*
X016031Y015535D02*
X016866Y015535D01*
X016708Y015377D02*
X015659Y015377D01*
X015301Y015218D02*
X016549Y015218D01*
X016390Y015060D02*
X015659Y015060D01*
X015631Y014901D02*
X016246Y014901D01*
X016220Y014743D02*
X015639Y014743D01*
X016059Y014584D02*
X016220Y014584D01*
X016220Y014426D02*
X016102Y014426D01*
X016066Y014267D02*
X016220Y014267D01*
X016220Y014109D02*
X015874Y014109D01*
X015728Y013950D02*
X016220Y013950D01*
X016276Y013791D02*
X015728Y013791D01*
X015728Y013633D02*
X016434Y013633D01*
X016549Y013474D02*
X016611Y013474D01*
X016658Y013316D02*
X016824Y013316D01*
X016671Y013157D02*
X017262Y013157D01*
X017262Y012999D02*
X017214Y012999D01*
X016905Y013781D02*
X016625Y013781D01*
X016460Y013947D01*
X016460Y014790D01*
X017036Y015366D01*
X017639Y015366D01*
X017943Y015670D01*
X017943Y015764D01*
X018167Y015535D02*
X018274Y015535D01*
X018260Y015694D02*
X018589Y015694D01*
X018589Y015852D02*
X018253Y015852D01*
X018149Y016011D02*
X018459Y016011D01*
X018179Y015377D02*
X017989Y015377D01*
X018098Y015218D02*
X017831Y015218D01*
X018362Y014860D02*
X018486Y014985D01*
X018559Y014985D01*
X018677Y015033D01*
X018767Y015123D01*
X018815Y015241D01*
X018815Y015309D01*
X019016Y015108D01*
X019090Y015035D01*
X019185Y014995D01*
X019556Y014995D01*
X019556Y014987D01*
X019649Y014894D01*
X020333Y014894D01*
X020427Y014987D01*
X020427Y015671D01*
X020372Y015726D01*
X020912Y015726D01*
X021006Y015820D01*
X021006Y015824D01*
X021135Y015825D01*
X021135Y015824D01*
X021194Y015765D01*
X021145Y015765D01*
X021052Y015671D01*
X021052Y014987D01*
X021145Y014894D01*
X021232Y014894D01*
X021234Y014619D01*
X021205Y014619D01*
X021111Y014526D01*
X021111Y014389D01*
X021100Y014389D01*
X021083Y014381D01*
X021065Y014379D01*
X021036Y014362D01*
X021005Y014349D01*
X020992Y014336D01*
X020976Y014326D01*
X020956Y014300D01*
X020561Y013905D01*
X020487Y013905D01*
X020487Y014526D01*
X020393Y014619D01*
X019709Y014619D01*
X019615Y014526D01*
X019615Y014428D01*
X019557Y014486D01*
X018873Y014486D01*
X018785Y014397D01*
X018785Y014766D01*
X018691Y014860D01*
X018362Y014860D01*
X018403Y014901D02*
X019642Y014901D01*
X019674Y014584D02*
X018785Y014584D01*
X018785Y014426D02*
X018813Y014426D01*
X018785Y014743D02*
X021233Y014743D01*
X021170Y014584D02*
X020428Y014584D01*
X020487Y014426D02*
X021111Y014426D01*
X020923Y014267D02*
X020487Y014267D01*
X020487Y014109D02*
X020764Y014109D01*
X020606Y013950D02*
X020487Y013950D01*
X020866Y013474D02*
X023710Y013474D01*
X023773Y013633D02*
X021024Y013633D01*
X021932Y013791D02*
X023931Y013791D01*
X023921Y013950D02*
X021983Y013950D01*
X021983Y014109D02*
X023762Y014109D01*
X023690Y014267D02*
X021983Y014267D01*
X021983Y014426D02*
X023690Y014426D01*
X023696Y014584D02*
X021924Y014584D01*
X021138Y014901D02*
X020340Y014901D01*
X020427Y015060D02*
X021052Y015060D01*
X021052Y015218D02*
X020427Y015218D01*
X020427Y015377D02*
X021052Y015377D01*
X021052Y015535D02*
X020427Y015535D01*
X020404Y015694D02*
X021074Y015694D01*
X021142Y016487D02*
X021003Y016487D01*
X021006Y016645D02*
X021135Y016645D01*
X021135Y016804D02*
X021006Y016804D01*
X021006Y016962D02*
X021135Y016962D01*
X020253Y016962D02*
X020145Y016962D01*
X020028Y017755D02*
X025100Y017755D01*
X025100Y018865D02*
X007310Y018865D01*
X008267Y018548D02*
X008396Y018548D01*
X008882Y016962D02*
X009182Y016962D01*
X009148Y016804D02*
X008916Y016804D01*
X008916Y016645D02*
X009148Y016645D01*
X009128Y016487D02*
X008824Y016487D01*
X007198Y015218D02*
X006970Y015218D01*
X006970Y015060D02*
X007182Y015060D01*
X007182Y014901D02*
X006970Y014901D01*
X006970Y014743D02*
X007182Y014743D01*
X007182Y014584D02*
X006970Y014584D01*
X006099Y015218D02*
X004574Y015218D01*
X005810Y016170D02*
X006701Y016170D01*
X006701Y016328D02*
X006420Y016328D01*
X006701Y016011D02*
X005969Y016011D01*
X006055Y015852D02*
X006789Y015852D01*
X009282Y014056D02*
X009322Y014056D01*
X009322Y013542D01*
X009445Y013419D01*
X009619Y013419D01*
X009893Y013419D01*
X009934Y013378D01*
X010461Y013378D01*
X010532Y013449D01*
X010604Y013378D01*
X011072Y013378D01*
X011072Y013299D01*
X010584Y013299D01*
X010546Y013261D01*
X010525Y013283D01*
X010483Y013306D01*
X010438Y013319D01*
X010216Y013319D01*
X010216Y012961D01*
X010179Y012961D01*
X010179Y013319D01*
X009957Y013319D01*
X009911Y013306D01*
X009870Y013283D01*
X009837Y013249D01*
X009813Y013208D01*
X009801Y013162D01*
X009801Y012960D01*
X010179Y012960D01*
X010179Y012923D01*
X009801Y012923D01*
X009801Y012721D01*
X009803Y012714D01*
X009282Y012714D01*
X009282Y012742D01*
X009282Y014056D01*
X009282Y013950D02*
X009322Y013950D01*
X009322Y013791D02*
X009282Y013791D01*
X009282Y013633D02*
X009322Y013633D01*
X009282Y013474D02*
X009390Y013474D01*
X009282Y013316D02*
X009946Y013316D01*
X009801Y013157D02*
X009282Y013157D01*
X009282Y012999D02*
X009801Y012999D01*
X009801Y012840D02*
X009282Y012840D01*
X010179Y012999D02*
X010216Y012999D01*
X010216Y013157D02*
X010179Y013157D01*
X010179Y013316D02*
X010216Y013316D01*
X010449Y013316D02*
X011072Y013316D01*
X013095Y014426D02*
X013175Y014426D01*
X013175Y014584D02*
X012937Y014584D01*
X014012Y013188D02*
X014013Y013188D01*
X014058Y013200D01*
X014072Y013208D01*
X014252Y013208D01*
X014449Y013208D01*
X014598Y013208D01*
X014302Y012912D01*
X014302Y012734D01*
X014012Y012734D01*
X014012Y013188D01*
X014012Y013157D02*
X014547Y013157D01*
X014389Y012999D02*
X014012Y012999D01*
X014012Y012840D02*
X014302Y012840D01*
X015724Y013474D02*
X016153Y013474D01*
X016045Y013316D02*
X015921Y013316D01*
X016012Y013157D02*
X016031Y013157D01*
X016905Y013781D02*
X016908Y013817D01*
X018349Y013755D02*
X018416Y013688D01*
X018416Y013348D01*
X018416Y013139D01*
X018416Y012787D02*
X018822Y012787D01*
X018822Y012897D01*
X018810Y012943D01*
X018802Y012956D01*
X018802Y013329D01*
X018712Y013420D01*
X018785Y013492D01*
X018785Y013861D01*
X018873Y013773D01*
X019415Y013773D01*
X019275Y013632D01*
X019235Y013537D01*
X019235Y013433D01*
X019235Y013030D01*
X019235Y012926D01*
X019256Y012877D01*
X019227Y012807D01*
X019227Y012379D01*
X018822Y012379D01*
X018822Y012472D01*
X018822Y012582D01*
X018810Y012628D01*
X018809Y012629D01*
X018810Y012631D01*
X018822Y012676D01*
X018822Y012787D01*
X018416Y012787D01*
X018416Y012787D01*
X018416Y012786D02*
X018416Y012738D01*
X018416Y012472D01*
X018416Y012472D01*
X018416Y012738D01*
X018416Y012786D01*
X018416Y012786D01*
X018416Y012682D02*
X018416Y012682D01*
X018416Y012523D02*
X018416Y012523D01*
X018416Y012472D02*
X018822Y012472D01*
X018416Y012472D01*
X018416Y012472D01*
X018822Y012523D02*
X019227Y012523D01*
X019227Y012682D02*
X018822Y012682D01*
X018822Y012840D02*
X019241Y012840D01*
X019235Y012999D02*
X018802Y012999D01*
X018802Y013157D02*
X019235Y013157D01*
X019235Y013316D02*
X018802Y013316D01*
X018767Y013474D02*
X019235Y013474D01*
X019275Y013633D02*
X018785Y013633D01*
X018785Y013791D02*
X018854Y013791D01*
X018703Y015060D02*
X019065Y015060D01*
X018906Y015218D02*
X018806Y015218D01*
X017144Y015060D02*
X017069Y015060D01*
X021216Y012787D02*
X021622Y012787D01*
X021216Y012787D01*
X021216Y012787D01*
X021216Y012682D02*
X021216Y012682D01*
X021216Y012523D02*
X021216Y012523D01*
X021622Y012840D02*
X027836Y012840D01*
X027836Y012682D02*
X025518Y012682D01*
X025630Y012523D02*
X027836Y012523D01*
X027836Y012365D02*
X025630Y012365D01*
X025630Y012206D02*
X027836Y012206D01*
X027836Y012047D02*
X025489Y012047D01*
X023754Y010145D02*
X023585Y010145D01*
X023427Y009986D02*
X023912Y009986D01*
X023968Y009828D02*
X023268Y009828D01*
X021446Y008877D02*
X021302Y008877D01*
X020975Y005864D02*
X022066Y005864D01*
X022048Y005389D02*
X020993Y005389D01*
X020048Y005389D02*
X019946Y005389D01*
X019867Y005864D02*
X020066Y005864D01*
X024578Y014109D02*
X024790Y014109D01*
X024710Y014267D02*
X024650Y014267D01*
X024650Y014426D02*
X024710Y014426D01*
X024724Y014584D02*
X024644Y014584D01*
X024485Y014743D02*
X024883Y014743D01*
X020939Y017914D02*
X020834Y017914D01*
X011132Y018389D02*
X011129Y018389D01*
D31*
X011394Y018199D03*
X013253Y018179D03*
X013282Y017308D03*
X014470Y016067D03*
X014157Y015004D03*
X015867Y014954D03*
X015782Y014417D03*
X016351Y013220D03*
X016943Y012817D03*
X015720Y011942D03*
X015157Y011442D03*
X014845Y011067D03*
X015595Y011192D03*
X016986Y010798D03*
X016996Y010299D03*
X017000Y009778D03*
X015852Y009214D03*
X016606Y009002D03*
X016886Y008129D03*
X016193Y008086D03*
X015594Y007974D03*
X015033Y007973D03*
X014282Y008379D03*
X012095Y008754D03*
X010414Y007524D03*
X009519Y007846D03*
X008582Y007096D03*
X007741Y007549D03*
X007082Y007971D03*
X007019Y008596D03*
X006519Y009408D03*
X008144Y008971D03*
X008214Y009424D03*
X008144Y008158D03*
X010120Y009842D03*
X011114Y010824D03*
X012532Y011004D03*
X013032Y011067D03*
X012532Y011879D03*
X013782Y011879D03*
X015032Y012629D03*
X014157Y012942D03*
X013532Y012879D03*
X011782Y013254D03*
X009595Y012942D03*
X008670Y011474D03*
X009375Y011262D03*
X008170Y010849D03*
X007545Y010849D03*
X006920Y010849D03*
X006432Y011787D03*
X009032Y015379D03*
X010782Y016129D03*
X009316Y018179D03*
X007544Y018769D03*
X006519Y016221D03*
X004788Y016013D03*
X016144Y018846D03*
X017190Y018179D03*
X017737Y017234D03*
X017943Y015764D03*
X018495Y015305D03*
X020697Y014473D03*
X022367Y013954D03*
X022502Y014962D03*
X022205Y015771D03*
X024064Y015379D03*
X024693Y016629D03*
X027623Y016013D03*
X024867Y018769D03*
X021127Y018179D03*
X019928Y013256D03*
X019594Y012880D03*
X019911Y012506D03*
X018925Y013386D03*
X018907Y011504D03*
X020878Y011459D03*
X020938Y010073D03*
X020188Y009329D03*
X020748Y008979D03*
X021082Y008429D03*
X022125Y008129D03*
X019749Y007155D03*
X017849Y007004D03*
X016911Y007454D03*
X017891Y008237D03*
X018852Y008428D03*
X018919Y009509D03*
X022401Y009909D03*
X027623Y007746D03*
X024867Y004990D03*
X019694Y005590D03*
X011894Y006096D03*
X007544Y004990D03*
X004788Y007746D03*
D32*
X006548Y008238D02*
X006565Y008221D01*
X006957Y008221D01*
X007082Y008096D01*
X007082Y007971D01*
X008932Y008695D02*
X009972Y008695D01*
X010120Y008842D01*
X010337Y009059D01*
X010337Y009438D01*
X010737Y009838D01*
X010737Y011138D01*
X011076Y011478D01*
X011749Y011478D01*
X011749Y011675D02*
X010952Y011675D01*
X010120Y010842D01*
X010098Y010864D01*
X008932Y010864D01*
X007682Y011564D02*
X006655Y011564D01*
X006432Y011787D01*
X007432Y012463D02*
X007432Y013068D01*
X008008Y013068D01*
X008108Y013167D01*
X008108Y014095D01*
X008008Y014195D01*
X007432Y014195D01*
X007432Y015129D01*
X008032Y015129D01*
X008220Y014942D01*
X009012Y014942D01*
X009012Y014146D01*
X009032Y014126D01*
X009032Y012692D01*
X008755Y012414D01*
X008450Y012414D01*
X008402Y012463D01*
X007432Y012463D01*
X007432Y012479D02*
X008820Y012479D01*
X008918Y012578D02*
X007432Y012578D01*
X007432Y012676D02*
X009017Y012676D01*
X009032Y012775D02*
X007432Y012775D01*
X007432Y012874D02*
X009032Y012874D01*
X009032Y012972D02*
X007432Y012972D01*
X008011Y013071D02*
X009032Y013071D01*
X009032Y013169D02*
X008108Y013169D01*
X008108Y013268D02*
X009032Y013268D01*
X009032Y013366D02*
X008108Y013366D01*
X008108Y013465D02*
X009032Y013465D01*
X009032Y013563D02*
X008108Y013563D01*
X008108Y013662D02*
X009032Y013662D01*
X009032Y013760D02*
X008108Y013760D01*
X008108Y013859D02*
X009032Y013859D01*
X009032Y013958D02*
X008108Y013958D01*
X008108Y014056D02*
X009032Y014056D01*
X009012Y014155D02*
X008048Y014155D01*
X007432Y014253D02*
X009012Y014253D01*
X009012Y014352D02*
X007432Y014352D01*
X007432Y014450D02*
X009012Y014450D01*
X009012Y014549D02*
X007432Y014549D01*
X007432Y014647D02*
X009012Y014647D01*
X009012Y014746D02*
X007432Y014746D01*
X007432Y014844D02*
X009012Y014844D01*
X009532Y014844D02*
X010157Y014844D01*
X010157Y014746D02*
X009532Y014746D01*
X009532Y014647D02*
X010157Y014647D01*
X010157Y014549D02*
X009532Y014549D01*
X009532Y014450D02*
X010157Y014450D01*
X010157Y014352D02*
X009532Y014352D01*
X009532Y014253D02*
X010157Y014253D01*
X010157Y014155D02*
X009532Y014155D01*
X009532Y014056D02*
X010157Y014056D01*
X010157Y013958D02*
X009532Y013958D01*
X009532Y013859D02*
X010157Y013859D01*
X010157Y013760D02*
X009532Y013760D01*
X009532Y013662D02*
X010157Y013662D01*
X010157Y013629D02*
X009532Y013629D01*
X009532Y016161D01*
X009826Y016161D01*
X009890Y016226D01*
X009890Y016533D01*
X009826Y016598D01*
X009532Y016598D01*
X009532Y017733D01*
X015657Y017733D01*
X015657Y016629D01*
X015030Y016629D01*
X015055Y016688D01*
X015055Y016821D01*
X015004Y016944D01*
X014909Y017038D01*
X014786Y017089D01*
X014653Y017089D01*
X014530Y017038D01*
X014456Y016964D01*
X014089Y016964D01*
X014089Y016976D01*
X014025Y017041D01*
X013540Y017041D01*
X013475Y016976D01*
X013475Y016963D01*
X013084Y016963D01*
X013076Y016972D01*
X012512Y016972D01*
X012448Y016907D01*
X012448Y016629D01*
X010157Y016629D01*
X010157Y013629D01*
X010867Y013754D02*
X011157Y013754D01*
X011282Y013629D01*
X011282Y012754D01*
X011378Y012659D01*
X011749Y012659D01*
X011749Y012856D02*
X011782Y012889D01*
X011782Y013254D01*
X012556Y013663D02*
X012556Y012606D01*
X013720Y011442D01*
X015157Y011442D01*
X014919Y011642D02*
X013802Y011642D01*
X012756Y012689D01*
X012756Y012810D01*
X013512Y012054D01*
X013677Y012054D01*
X015199Y012054D01*
X015435Y011818D01*
X015457Y011766D01*
X015544Y011679D01*
X015658Y011632D01*
X015781Y011632D01*
X015782Y011632D01*
X015782Y011629D01*
X015408Y011629D01*
X015333Y011705D01*
X015219Y011752D01*
X015095Y011752D01*
X014981Y011705D01*
X014919Y011642D01*
X014968Y011691D02*
X013753Y011691D01*
X013655Y011790D02*
X015447Y011790D01*
X015366Y011888D02*
X013556Y011888D01*
X013458Y011987D02*
X015267Y011987D01*
X015220Y011879D02*
X013782Y011879D01*
X013481Y012085D02*
X013359Y012085D01*
X013382Y012184D02*
X013261Y012184D01*
X013284Y012282D02*
X013162Y012282D01*
X013185Y012381D02*
X013063Y012381D01*
X013087Y012479D02*
X012965Y012479D01*
X012988Y012578D02*
X012866Y012578D01*
X012890Y012676D02*
X012768Y012676D01*
X012756Y012775D02*
X012791Y012775D01*
X012753Y013096D02*
X013595Y012254D01*
X015282Y012254D01*
X015595Y011942D01*
X015720Y011942D01*
X015532Y011691D02*
X015346Y011691D01*
X015532Y011567D02*
X015220Y011879D01*
X015532Y011567D02*
X015845Y011567D01*
X015952Y011675D01*
X016316Y011675D01*
X016808Y011675D01*
X016970Y011504D01*
X017697Y011504D01*
X017845Y011129D02*
X016970Y011129D01*
X016782Y011317D01*
X016782Y011379D01*
X016684Y011478D01*
X016316Y011478D01*
X016316Y011871D02*
X017017Y011871D01*
X017264Y012118D01*
X017647Y012118D01*
X017648Y012120D01*
X017648Y012472D01*
X017647Y012786D02*
X017396Y012786D01*
X017072Y012462D01*
X016316Y012462D01*
X016316Y012659D02*
X016785Y012659D01*
X016943Y012817D01*
X016316Y012856D02*
X016316Y013184D01*
X016351Y013220D01*
X015312Y012909D02*
X015312Y013663D01*
X015115Y013663D02*
X015115Y013196D01*
X014782Y012879D01*
X014838Y012874D02*
X014589Y012874D01*
X014645Y012929D02*
X014849Y012929D01*
X014966Y013046D01*
X014966Y013047D01*
X015001Y013081D01*
X015049Y013129D01*
X015112Y013129D01*
X015112Y012992D01*
X015059Y012939D01*
X014970Y012939D01*
X014856Y012892D01*
X014769Y012805D01*
X014722Y012691D01*
X014722Y012568D01*
X014769Y012454D01*
X013677Y012454D01*
X012953Y013179D01*
X012953Y013218D01*
X013067Y013218D01*
X013264Y013218D01*
X013460Y013218D01*
X013657Y013218D01*
X013734Y013294D01*
X013734Y013167D01*
X013723Y013152D01*
X013734Y013087D01*
X013734Y013020D01*
X013747Y013007D01*
X013750Y012989D01*
X013782Y012966D01*
X013782Y012629D01*
X013907Y012504D01*
X014532Y012504D01*
X014532Y012817D01*
X014645Y012929D01*
X014757Y012775D02*
X014532Y012775D01*
X014532Y012676D02*
X014722Y012676D01*
X014722Y012578D02*
X014532Y012578D01*
X014759Y012479D02*
X013652Y012479D01*
X013554Y012578D02*
X013834Y012578D01*
X013782Y012676D02*
X013455Y012676D01*
X013357Y012775D02*
X013782Y012775D01*
X013782Y012874D02*
X013258Y012874D01*
X013160Y012972D02*
X013773Y012972D01*
X013734Y013071D02*
X013061Y013071D01*
X012963Y013169D02*
X013734Y013169D01*
X013737Y013084D02*
X013532Y012879D01*
X013737Y013084D02*
X013737Y013663D01*
X013737Y014175D01*
X013532Y014379D01*
X013532Y014545D01*
X012949Y014275D02*
X012720Y014504D01*
X012322Y014504D01*
X012282Y014545D01*
X012949Y014275D02*
X012949Y013663D01*
X012753Y013663D02*
X012753Y013096D01*
X012356Y012629D02*
X012194Y012629D01*
X012194Y012542D01*
X012114Y012462D01*
X012194Y012382D01*
X012194Y012186D01*
X012194Y011951D01*
X012114Y011871D01*
X012194Y011792D01*
X012194Y011629D01*
X012374Y011629D01*
X012387Y011642D01*
X013237Y011642D01*
X012356Y012523D01*
X012356Y012629D01*
X012356Y012578D02*
X012194Y012578D01*
X012199Y012462D02*
X011749Y012462D01*
X011074Y012462D01*
X010876Y012661D01*
X010876Y012933D01*
X010867Y012942D01*
X010845Y012879D01*
X010595Y012504D02*
X010829Y012270D01*
X010834Y012265D01*
X011749Y012265D01*
X011749Y012068D02*
X010656Y012068D01*
X010407Y012317D01*
X009282Y012317D01*
X008845Y011879D01*
X007682Y011879D01*
X007682Y012194D02*
X008847Y012194D01*
X009157Y012504D01*
X010595Y012504D01*
X010601Y011879D02*
X012470Y011879D01*
X012532Y011879D01*
X012462Y011871D01*
X011749Y011871D01*
X012131Y011888D02*
X012991Y011888D01*
X013089Y011790D02*
X012194Y011790D01*
X012194Y011691D02*
X013188Y011691D01*
X013220Y011442D02*
X013595Y011067D01*
X014845Y011067D01*
X015470Y010712D02*
X015595Y010837D01*
X015595Y011192D01*
X015470Y010712D02*
X013115Y010712D01*
X012699Y010297D01*
X011749Y010297D01*
X011749Y010494D02*
X011396Y010494D01*
X011282Y010379D01*
X011282Y008629D01*
X010706Y008053D01*
X009727Y008053D01*
X009519Y007846D01*
X010182Y008779D02*
X010120Y008842D01*
X011594Y009896D02*
X011594Y007596D01*
X011294Y007296D01*
X011294Y007118D01*
X013518Y007925D02*
X013694Y008102D01*
X013694Y008396D01*
X013934Y008635D01*
X013934Y009096D01*
X014131Y009096D02*
X014131Y008531D01*
X014282Y008379D01*
X013343Y009096D02*
X013343Y009440D01*
X013558Y009649D01*
X015501Y009649D01*
X015852Y009298D01*
X015852Y009214D01*
X015509Y009096D02*
X015509Y008705D01*
X015611Y008603D01*
X016127Y008603D01*
X016520Y008210D01*
X016520Y008131D01*
X016520Y008025D01*
X016749Y007797D01*
X017036Y007797D01*
X017182Y007942D01*
X017596Y007942D01*
X017891Y008237D01*
X017648Y008480D01*
X017648Y008870D01*
X017648Y009222D02*
X017453Y009222D01*
X016886Y008655D01*
X016886Y008129D01*
X016237Y008779D01*
X016237Y009505D01*
X016035Y009707D01*
X015724Y009707D01*
X015532Y009899D01*
X013516Y009899D01*
X013146Y009545D01*
X013146Y009096D01*
X012949Y009096D02*
X012949Y009632D01*
X013441Y010124D01*
X015588Y010124D01*
X015810Y009903D01*
X016316Y009903D01*
X016316Y009792D01*
X016606Y009502D01*
X016606Y009255D01*
X016987Y009255D01*
X017268Y009537D01*
X017648Y009537D01*
X017371Y009889D02*
X017237Y009755D01*
X017005Y009755D01*
X017000Y009778D01*
X016977Y009819D01*
X016697Y010100D01*
X016316Y010100D01*
X015874Y010100D01*
X015647Y010337D01*
X013345Y010337D01*
X012753Y009745D01*
X012753Y009096D01*
X012563Y009114D02*
X012563Y009837D01*
X013251Y010524D01*
X015746Y010524D01*
X015974Y010297D01*
X016316Y010297D01*
X016918Y010299D01*
X016996Y010299D01*
X017264Y010567D01*
X017697Y010567D01*
X016986Y010798D02*
X016700Y011084D01*
X016316Y011084D01*
X017371Y009889D02*
X017648Y009889D01*
X018416Y009537D02*
X018891Y009537D01*
X018919Y009509D01*
X018690Y009222D02*
X018852Y009059D01*
X018852Y008428D01*
X018690Y009222D02*
X018416Y009222D01*
X016606Y009255D02*
X016606Y009002D01*
X016520Y008131D02*
X016521Y008130D01*
X016193Y008086D02*
X016193Y007597D01*
X016794Y006996D01*
X017183Y006996D01*
X018205Y005974D01*
X017205Y005974D02*
X016889Y006290D01*
X016583Y006596D01*
X015594Y007585D01*
X015594Y007974D01*
X012556Y009090D02*
X012563Y009114D01*
X012556Y009096D02*
X012556Y009090D01*
X011782Y009897D02*
X011755Y009897D01*
X011596Y009897D01*
X011594Y009896D01*
X011749Y009903D02*
X011755Y009897D01*
X011749Y010690D02*
X012284Y010690D01*
X012345Y010629D01*
X012720Y010629D01*
X013032Y010942D01*
X013032Y011067D01*
X013220Y011442D02*
X012470Y011442D01*
X012112Y011084D01*
X011749Y011084D01*
X011749Y010887D02*
X012228Y010887D01*
X012345Y011004D01*
X012532Y011004D01*
X011749Y011281D02*
X011402Y011281D01*
X011251Y011129D01*
X011251Y010911D01*
X011282Y010879D01*
X010476Y011754D02*
X010117Y011754D01*
X010476Y011754D02*
X010601Y011879D01*
X012194Y011987D02*
X012892Y011987D01*
X012793Y012085D02*
X012194Y012085D01*
X012194Y012184D02*
X012695Y012184D01*
X012596Y012282D02*
X012194Y012282D01*
X012194Y012381D02*
X012498Y012381D01*
X012399Y012479D02*
X012132Y012479D01*
X012199Y012462D02*
X012532Y012129D01*
X012532Y011879D01*
X013934Y013103D02*
X014157Y012942D01*
X014157Y013082D01*
X014204Y013129D01*
X014282Y013129D01*
X014345Y013067D01*
X014470Y013067D01*
X014532Y013129D01*
X014766Y013129D01*
X014918Y013281D01*
X014918Y013663D01*
X015115Y013663D02*
X015115Y014212D01*
X015282Y014379D01*
X015282Y014545D01*
X014721Y015318D02*
X015061Y015658D01*
X015857Y015658D01*
X015994Y015796D01*
X015994Y018055D01*
X015871Y018179D01*
X015657Y017702D02*
X009532Y017702D01*
X009532Y017604D02*
X015657Y017604D01*
X015657Y017505D02*
X009532Y017505D01*
X009532Y017407D02*
X015657Y017407D01*
X015657Y017308D02*
X009532Y017308D01*
X009532Y017209D02*
X015657Y017209D01*
X015657Y017111D02*
X009532Y017111D01*
X009532Y017012D02*
X013512Y017012D01*
X014053Y017012D02*
X014504Y017012D01*
X014935Y017012D02*
X015657Y017012D01*
X015657Y016914D02*
X015016Y016914D01*
X015055Y016815D02*
X015657Y016815D01*
X015657Y016717D02*
X015055Y016717D01*
X015095Y016004D02*
X015519Y016004D01*
X015520Y016005D01*
X015095Y016004D02*
X014720Y015629D01*
X014532Y015629D01*
X014524Y015621D01*
X014524Y013663D01*
X014327Y013663D02*
X014327Y014834D01*
X014157Y015004D01*
X014721Y015318D02*
X014721Y013663D01*
X013934Y013663D02*
X013934Y013103D01*
X013734Y013268D02*
X013707Y013268D01*
X014892Y012972D02*
X015092Y012972D01*
X015112Y013071D02*
X014991Y013071D01*
X015001Y013081D02*
X015001Y013081D01*
X015312Y012909D02*
X015032Y012629D01*
X017647Y012786D02*
X017648Y012787D01*
X017648Y013139D01*
X014532Y015629D02*
X012282Y015629D01*
X011906Y016005D01*
X011770Y016005D01*
X012448Y016717D02*
X009532Y016717D01*
X009532Y016815D02*
X012448Y016815D01*
X012454Y016914D02*
X009532Y016914D01*
X009532Y016618D02*
X010157Y016618D01*
X010157Y016520D02*
X009890Y016520D01*
X009890Y016421D02*
X010157Y016421D01*
X010157Y016323D02*
X009890Y016323D01*
X009889Y016224D02*
X010157Y016224D01*
X010157Y016125D02*
X009532Y016125D01*
X009532Y016027D02*
X010157Y016027D01*
X010157Y015928D02*
X009532Y015928D01*
X009532Y015830D02*
X010157Y015830D01*
X010157Y015731D02*
X009532Y015731D01*
X009532Y015633D02*
X010157Y015633D01*
X010157Y015534D02*
X009532Y015534D01*
X009532Y015436D02*
X010157Y015436D01*
X010157Y015337D02*
X009532Y015337D01*
X009532Y015239D02*
X010157Y015239D01*
X010157Y015140D02*
X009532Y015140D01*
X009532Y015041D02*
X010157Y015041D01*
X010157Y014943D02*
X009532Y014943D01*
X008219Y014943D02*
X007432Y014943D01*
X007432Y015041D02*
X008120Y015041D01*
D33*
X007782Y016104D02*
X007782Y017387D01*
X007997Y017601D01*
X007997Y018179D01*
X008666Y018179D02*
X009316Y018179D01*
X009886Y018179D01*
X011394Y018199D02*
X011913Y018199D01*
X011934Y018179D01*
X012603Y018179D02*
X013253Y018179D01*
X013823Y018179D01*
X016540Y018179D02*
X017190Y018179D01*
X017760Y018179D01*
X019808Y018179D02*
X019808Y016786D01*
X019715Y016693D01*
X019489Y016753D02*
X019487Y016755D01*
X019489Y016753D02*
X020493Y016693D01*
X021511Y016757D02*
X021958Y016757D01*
X022209Y016505D01*
X022205Y016501D01*
X022205Y015771D01*
X018495Y015305D02*
X018081Y014890D01*
X017285Y014890D01*
X016925Y014531D01*
X017595Y014531D02*
X017622Y014503D01*
X017622Y013822D01*
X017577Y013817D01*
X016908Y013817D02*
X016908Y013542D01*
X017020Y013431D01*
X018333Y013431D01*
X018416Y013348D01*
X018334Y013522D02*
X018334Y013741D01*
X018349Y013755D01*
X018349Y014503D02*
X017622Y014503D01*
X015782Y014417D02*
X015782Y014416D01*
X015771Y014416D01*
X015509Y014153D01*
X015509Y013663D01*
X012282Y014545D02*
X012242Y014504D01*
X010907Y014504D01*
X010867Y014545D01*
X010867Y014567D01*
X018367Y010567D02*
X018797Y010567D01*
X018982Y010382D01*
X019384Y010382D01*
X019387Y010385D01*
X019387Y010641D02*
X019942Y010641D01*
X019987Y010686D01*
X019977Y010129D02*
X019387Y010129D01*
X019050Y009873D02*
X019034Y009889D01*
X018416Y009889D01*
X019050Y009873D02*
X019387Y009873D01*
X019387Y009617D02*
X019387Y009361D01*
X020157Y009361D01*
X020188Y009329D01*
X019911Y008911D02*
X019716Y009105D01*
X019387Y009105D01*
X019911Y008911D02*
X019911Y008242D01*
X019536Y007868D01*
X018937Y007868D01*
X018073Y007004D01*
X017849Y007004D01*
X018937Y007868D02*
X018416Y008389D01*
X018416Y008870D01*
X018416Y008826D01*
X019977Y010129D02*
X019987Y010119D01*
X020938Y010073D02*
X021290Y010385D01*
X021690Y010385D01*
X021690Y010129D01*
X021690Y009873D02*
X021684Y009868D01*
X021963Y009868D01*
X022070Y009760D01*
X022070Y009209D01*
X021967Y009105D01*
X021690Y009105D01*
X021690Y009105D01*
X021690Y009361D02*
X021690Y009362D01*
X021452Y009362D01*
X021082Y008992D01*
X021082Y008429D01*
X020748Y008979D02*
X021386Y009617D01*
X021690Y009617D01*
X021684Y009868D02*
X021464Y009868D01*
X022479Y010247D02*
X022495Y010247D01*
X022737Y010005D01*
X022479Y010247D02*
X022487Y010255D01*
X022784Y009655D02*
X022784Y008789D01*
X022125Y008129D01*
X022784Y009655D02*
X023509Y010379D01*
X024170Y010379D01*
X023914Y012129D02*
X021426Y012129D01*
X021216Y012120D01*
X020448Y012120D02*
X020448Y012472D01*
X019987Y012472D01*
X019911Y012506D01*
X020448Y012787D02*
X020448Y013139D01*
X020093Y013142D01*
X019928Y013256D01*
X021216Y013139D02*
X023923Y013139D01*
X024170Y013379D01*
X024170Y012379D02*
X023914Y012129D01*
X015033Y007973D02*
X015033Y007234D01*
X014205Y006407D01*
X014205Y005974D01*
X013716Y005974D01*
X013338Y006353D01*
X012916Y006353D01*
X012916Y005683D02*
X012916Y005374D01*
X013094Y005196D01*
X014894Y005196D01*
X015205Y005507D01*
X015205Y005974D01*
X011890Y007118D02*
X011294Y007118D01*
X009890Y007118D01*
X009019Y006702D02*
X009019Y007721D01*
X008144Y008596D01*
X008144Y008971D01*
X008129Y008986D01*
X007571Y008986D01*
X006548Y008986D02*
X006519Y009015D01*
X006519Y009408D01*
X006548Y008986D02*
X005700Y008986D01*
X005644Y008931D01*
X007571Y008238D02*
X008064Y008238D01*
X008144Y008158D01*
X008144Y006702D01*
X008582Y007096D02*
X008582Y006033D01*
X008144Y006033D01*
X008582Y006033D02*
X009019Y006033D01*
X019694Y005590D02*
X019722Y005618D01*
X020520Y005618D01*
X022520Y005618D01*
X021697Y018179D02*
X021127Y018179D01*
X020477Y018179D01*
D34*
X022726Y017075D03*
X018220Y016754D03*
X014720Y016754D03*
X007782Y015629D03*
D35*
X007782Y015754D01*
X007781Y016005D01*
X008520Y016005D01*
X007894Y016004D01*
X007782Y016004D01*
X007782Y016104D01*
X007767Y016204D01*
X012794Y016753D02*
X013743Y016753D01*
X013782Y016714D01*
X013822Y016754D01*
X014720Y016754D01*
X016544Y016753D02*
X016545Y016754D01*
X017532Y016754D01*
X018220Y016754D01*
X018221Y016755D01*
X019487Y016755D01*
X019715Y016693D02*
X020493Y016693D01*
X020629Y016752D01*
X020629Y016083D02*
X020523Y016055D01*
X020244Y016055D01*
X020167Y015978D01*
X019748Y015978D01*
X019715Y015945D01*
X019237Y015255D02*
X018849Y015643D01*
X018849Y016319D01*
X017532Y016754D02*
X017282Y016714D01*
X019237Y015255D02*
X019814Y015255D01*
X019849Y015290D01*
X019991Y015329D01*
X020629Y016083D02*
X021514Y016087D01*
X021511Y016088D01*
X021487Y015329D02*
X021499Y014173D01*
X021547Y014184D01*
X021152Y014129D01*
X020669Y013645D01*
X019655Y013645D01*
X019495Y013485D01*
X019495Y012978D01*
X019594Y012880D01*
X019594Y012862D01*
X019487Y012755D01*
X019487Y012120D01*
X019731Y012120D01*
X020111Y011739D01*
X020111Y011510D01*
X020117Y011504D01*
X019987Y011374D01*
X019987Y010686D01*
X019987Y010119D01*
X019987Y009928D01*
X020207Y009678D01*
X021047Y009678D01*
X021256Y009868D01*
X021464Y009868D01*
X021461Y009870D01*
X020117Y011504D02*
X020211Y011599D01*
X019487Y012120D02*
X018416Y012120D01*
X019215Y014129D02*
X020046Y014129D01*
X020051Y014184D01*
X022726Y017075D02*
X023270Y017075D01*
X025201Y015143D01*
X025201Y014445D01*
X025170Y014379D01*
D36*
X006534Y014879D02*
X005859Y014879D01*
X005705Y014726D01*
X005575Y014726D01*
M02*
