G75*
G70*
%OFA0B0*%
%FSLAX24Y24*%
%IPPOS*%
%LPD*%
%AMOC8*
5,1,8,0,0,1.08239X$1,22.5*
%
%ADD10C,0.0560*%
%ADD11R,0.0650X0.0300*%
%ADD12OC8,0.0560*%
%ADD13C,0.0516*%
%ADD14R,0.0640X0.0640*%
%ADD15OC8,0.0640*%
%ADD16C,0.0160*%
%ADD17C,0.0400*%
%ADD18C,0.0200*%
D10*
X002232Y008828D02*
X002792Y008828D01*
X002792Y009812D02*
X002232Y009812D01*
X002232Y010796D02*
X002792Y010796D01*
D11*
X006203Y011021D03*
X008203Y011021D03*
X008203Y009521D03*
X006203Y009521D03*
D12*
X002523Y007411D03*
X002523Y006411D03*
D13*
X002286Y011563D02*
X002801Y011563D01*
X002801Y012311D02*
X002286Y012311D01*
X002286Y013063D02*
X002801Y013063D01*
D14*
X006543Y014611D03*
X007543Y014611D03*
X011543Y013611D03*
D15*
X012543Y013611D03*
X013543Y013611D03*
X014543Y013611D03*
X015543Y013611D03*
X016543Y013611D03*
X016543Y014611D03*
X015543Y014611D03*
X014543Y014611D03*
X013543Y014611D03*
X012543Y014611D03*
X011543Y014611D03*
X010543Y014611D03*
X009543Y014611D03*
X008543Y014611D03*
X005543Y014611D03*
X004543Y014611D03*
X003543Y014611D03*
X002543Y014611D03*
D16*
X001878Y008504D02*
X001878Y005613D01*
X017203Y005613D01*
X017203Y015210D01*
X004141Y015210D01*
X004280Y015070D01*
X004284Y015060D01*
X004336Y015111D01*
X004523Y015111D01*
X004523Y014632D01*
X004563Y014632D01*
X004563Y015111D01*
X004750Y015111D01*
X005029Y014833D01*
X005327Y015131D01*
X005758Y015131D01*
X006023Y014867D01*
X006023Y015014D01*
X006140Y015131D01*
X006946Y015131D01*
X007043Y015034D01*
X007140Y015131D01*
X007946Y015131D01*
X008063Y015014D01*
X008063Y014867D01*
X008327Y015131D01*
X008758Y015131D01*
X009043Y014847D01*
X009327Y015131D01*
X009758Y015131D01*
X010043Y014847D01*
X010327Y015131D01*
X010758Y015131D01*
X011043Y014847D01*
X011327Y015131D01*
X011758Y015131D01*
X012043Y014847D01*
X012327Y015131D01*
X012758Y015131D01*
X013043Y014847D01*
X013327Y015131D01*
X013758Y015131D01*
X014043Y014847D01*
X014327Y015131D01*
X014758Y015131D01*
X015043Y014847D01*
X015327Y015131D01*
X015758Y015131D01*
X016057Y014833D01*
X016336Y015111D01*
X016523Y015111D01*
X016523Y014632D01*
X016563Y014632D01*
X016563Y015111D01*
X016750Y015111D01*
X017043Y014819D01*
X017043Y014631D01*
X016563Y014631D01*
X016563Y014591D01*
X016563Y014111D01*
X016563Y013632D01*
X016523Y013632D01*
X016523Y014111D01*
X016336Y014111D01*
X016057Y013833D01*
X015778Y014111D01*
X016057Y014390D01*
X016336Y014111D01*
X016523Y014111D01*
X016523Y014591D01*
X016563Y014591D01*
X017043Y014591D01*
X017043Y014404D01*
X016750Y014111D01*
X016563Y014111D01*
X016750Y014111D01*
X017043Y013819D01*
X017043Y013631D01*
X016563Y013631D01*
X016563Y013591D01*
X016563Y013111D01*
X016750Y013111D01*
X017043Y013404D01*
X017043Y013591D01*
X016563Y013591D01*
X016523Y013591D01*
X016523Y013111D01*
X016336Y013111D01*
X016057Y013390D01*
X015758Y013091D01*
X015628Y013091D01*
X015629Y013091D01*
X015887Y013091D01*
X015999Y013091D01*
X016101Y013049D01*
X016901Y012249D01*
X016980Y012170D01*
X017023Y012067D01*
X017023Y009867D01*
X017023Y009756D01*
X016980Y009653D01*
X016180Y008853D01*
X016101Y008774D01*
X015999Y008731D01*
X012499Y008731D01*
X012471Y008731D01*
X012422Y008711D01*
X012339Y008711D01*
X012080Y008453D01*
X012001Y008374D01*
X011899Y008331D01*
X011099Y008331D01*
X010987Y008331D01*
X010884Y008374D01*
X010527Y008731D01*
X006159Y008731D01*
X006043Y008616D01*
X006043Y008532D01*
X005982Y008385D01*
X005869Y008272D01*
X005722Y008211D01*
X005563Y008211D01*
X005416Y008272D01*
X005304Y008385D01*
X005282Y008436D01*
X005222Y008411D01*
X005063Y008411D01*
X004916Y008472D01*
X004877Y008511D01*
X004047Y008511D01*
X003003Y007467D01*
X003003Y007213D01*
X002722Y006931D01*
X002324Y006931D01*
X002043Y007213D01*
X002043Y007610D01*
X002324Y007891D01*
X002579Y007891D01*
X003753Y009066D01*
X003863Y009111D01*
X003983Y009111D01*
X004877Y009111D01*
X004916Y009151D01*
X005063Y009211D01*
X005143Y009211D01*
X005143Y009291D01*
X005204Y009438D01*
X005263Y009497D01*
X005263Y010126D01*
X005204Y010185D01*
X005143Y010332D01*
X005143Y010491D01*
X005204Y010638D01*
X005316Y010751D01*
X005463Y010811D01*
X005622Y010811D01*
X005731Y010767D01*
X005710Y010802D01*
X005698Y010848D01*
X005698Y011021D01*
X006202Y011021D01*
X006202Y011022D01*
X005698Y011022D01*
X005698Y011195D01*
X005710Y011241D01*
X005734Y011282D01*
X005767Y011316D01*
X005808Y011339D01*
X005854Y011351D01*
X006203Y011351D01*
X006203Y011022D01*
X006203Y011022D01*
X006203Y011351D01*
X006552Y011351D01*
X006597Y011339D01*
X006638Y011316D01*
X006672Y011282D01*
X006696Y011241D01*
X006708Y011195D01*
X006708Y011022D01*
X006203Y011022D01*
X006203Y011021D01*
X006203Y010691D01*
X006552Y010691D01*
X006597Y010704D01*
X006638Y010727D01*
X006672Y010761D01*
X006696Y010802D01*
X006708Y010848D01*
X006708Y011021D01*
X006203Y011021D01*
X006203Y011021D01*
X006203Y010691D01*
X005854Y010691D01*
X005819Y010701D01*
X005882Y010638D01*
X005943Y010491D01*
X005943Y010332D01*
X005882Y010185D01*
X005823Y010126D01*
X005823Y009871D01*
X006157Y009871D01*
X006455Y010170D01*
X006455Y010170D01*
X006534Y010249D01*
X006637Y010291D01*
X006960Y010291D01*
X006943Y010332D01*
X006943Y010491D01*
X007004Y010638D01*
X007116Y010751D01*
X007263Y010811D01*
X007347Y010811D01*
X007355Y010820D01*
X007434Y010899D01*
X007537Y010941D01*
X007698Y010941D01*
X007698Y011021D01*
X008202Y011021D01*
X008202Y011022D01*
X007698Y011022D01*
X007698Y011195D01*
X007710Y011241D01*
X007734Y011282D01*
X007767Y011316D01*
X007808Y011339D01*
X007817Y011341D01*
X007755Y011403D01*
X007755Y011403D01*
X007723Y011435D01*
X007682Y011335D01*
X007569Y011222D01*
X007422Y011161D01*
X007263Y011161D01*
X007116Y011222D01*
X007004Y011335D01*
X006943Y011482D01*
X006943Y011566D01*
X006777Y011731D01*
X005859Y011731D01*
X004801Y010674D01*
X004699Y010631D01*
X004587Y010631D01*
X003244Y010631D01*
X003199Y010524D01*
X003064Y010389D01*
X002888Y010316D01*
X002137Y010316D01*
X001960Y010389D01*
X001878Y010472D01*
X001878Y010106D01*
X001881Y010112D01*
X001933Y010163D01*
X001991Y010205D01*
X002056Y010238D01*
X002125Y010261D01*
X002196Y010272D01*
X002512Y010272D01*
X002512Y009812D01*
X002513Y009812D01*
X003252Y009812D01*
X003252Y009848D01*
X003241Y009920D01*
X003219Y009989D01*
X003186Y010053D01*
X003143Y010112D01*
X003092Y010163D01*
X003033Y010205D01*
X002969Y010238D01*
X002900Y010261D01*
X002829Y010272D01*
X002513Y010272D01*
X002513Y009812D01*
X002513Y009812D01*
X003252Y009812D01*
X003252Y009776D01*
X003241Y009704D01*
X003219Y009635D01*
X003186Y009571D01*
X003143Y009512D01*
X003092Y009461D01*
X003033Y009419D01*
X002969Y009386D01*
X002900Y009363D01*
X002829Y009352D01*
X002513Y009352D01*
X002513Y009812D01*
X002512Y009812D01*
X002512Y009352D01*
X002196Y009352D01*
X002125Y009363D01*
X002056Y009386D01*
X001991Y009419D01*
X001933Y009461D01*
X001881Y009512D01*
X001878Y009518D01*
X001878Y009152D01*
X001960Y009235D01*
X002137Y009308D01*
X002888Y009308D01*
X003064Y009235D01*
X003199Y009100D01*
X003272Y008923D01*
X003272Y008732D01*
X003199Y008556D01*
X003064Y008421D01*
X002888Y008348D01*
X002137Y008348D01*
X001960Y008421D01*
X001878Y008504D01*
X001878Y008482D02*
X001899Y008482D01*
X001878Y008324D02*
X003011Y008324D01*
X003126Y008482D02*
X003169Y008482D01*
X003234Y008641D02*
X003328Y008641D01*
X003272Y008799D02*
X003487Y008799D01*
X003645Y008958D02*
X003258Y008958D01*
X003182Y009117D02*
X004882Y009117D01*
X005143Y009275D02*
X002967Y009275D01*
X003054Y009434D02*
X005202Y009434D01*
X005263Y009592D02*
X003197Y009592D01*
X003248Y009751D02*
X005263Y009751D01*
X005263Y009909D02*
X003243Y009909D01*
X003175Y010068D02*
X005263Y010068D01*
X005187Y010226D02*
X002992Y010226D01*
X003054Y010385D02*
X005143Y010385D01*
X005165Y010543D02*
X003207Y010543D01*
X002628Y010911D02*
X004643Y010911D01*
X005743Y012011D01*
X006893Y012011D01*
X007343Y011561D01*
X006943Y011495D02*
X005622Y011495D01*
X005781Y011653D02*
X006855Y011653D01*
X007003Y011336D02*
X006603Y011336D01*
X006708Y011178D02*
X007224Y011178D01*
X007461Y011178D02*
X007698Y011178D01*
X007682Y011336D02*
X007803Y011336D01*
X007993Y011561D02*
X007243Y012311D01*
X005473Y012311D01*
X002544Y012311D01*
X003051Y012704D02*
X003087Y012730D01*
X003135Y012778D01*
X003176Y012834D01*
X003207Y012895D01*
X003228Y012961D01*
X003239Y013029D01*
X003239Y013063D01*
X002544Y013063D01*
X002544Y013064D01*
X002543Y013064D01*
X002543Y013501D01*
X002251Y013501D01*
X002183Y013490D01*
X002118Y013469D01*
X002056Y013438D01*
X002001Y013397D01*
X001952Y013349D01*
X001911Y013293D01*
X001880Y013231D01*
X001878Y013224D01*
X001878Y015210D01*
X002745Y015210D01*
X002667Y015131D01*
X002327Y015131D01*
X002023Y014827D01*
X002023Y014396D01*
X002327Y014091D01*
X002758Y014091D01*
X003043Y014376D01*
X003263Y014156D01*
X003263Y013756D01*
X003305Y013653D01*
X003384Y013574D01*
X004284Y012674D01*
X004387Y012631D01*
X004499Y012631D01*
X005227Y012631D01*
X005187Y012591D01*
X003169Y012591D01*
X003061Y012700D01*
X003051Y012704D01*
X003120Y012763D02*
X004195Y012763D01*
X004037Y012922D02*
X003216Y012922D01*
X003239Y013064D02*
X003239Y013098D01*
X003228Y013166D01*
X003207Y013231D01*
X003176Y013293D01*
X003135Y013349D01*
X003087Y013397D01*
X003561Y013397D01*
X003720Y013239D02*
X003203Y013239D01*
X003239Y013080D02*
X003878Y013080D01*
X004443Y012911D02*
X003543Y013811D01*
X003543Y014611D01*
X004043Y014911D02*
X003743Y015211D01*
X003143Y015211D01*
X002543Y014611D01*
X002179Y014983D02*
X001878Y014983D01*
X001878Y015141D02*
X002677Y015141D01*
X002023Y014824D02*
X001878Y014824D01*
X001878Y014666D02*
X002023Y014666D01*
X002023Y014507D02*
X001878Y014507D01*
X001878Y014348D02*
X002070Y014348D01*
X002229Y014190D02*
X001878Y014190D01*
X001878Y014031D02*
X003263Y014031D01*
X003263Y013873D02*
X001878Y013873D01*
X001878Y013714D02*
X003280Y013714D01*
X003403Y013556D02*
X001878Y013556D01*
X001878Y013397D02*
X002000Y013397D01*
X001884Y013239D02*
X001878Y013239D01*
X002543Y013239D02*
X002544Y013239D01*
X002543Y013397D02*
X002544Y013397D01*
X002544Y013501D02*
X002544Y013064D01*
X003239Y013064D01*
X003087Y013397D02*
X003031Y013438D01*
X002969Y013469D01*
X002904Y013490D01*
X002836Y013501D01*
X002544Y013501D01*
X002543Y013080D02*
X002544Y013080D01*
X003156Y012604D02*
X005200Y012604D01*
X004443Y012911D02*
X006343Y012911D01*
X007043Y013311D02*
X004743Y013311D01*
X004043Y014011D01*
X004043Y014911D01*
X004209Y015141D02*
X017203Y015141D01*
X017203Y014983D02*
X016879Y014983D01*
X017037Y014824D02*
X017203Y014824D01*
X017203Y014666D02*
X017043Y014666D01*
X017043Y014507D02*
X017203Y014507D01*
X017203Y014348D02*
X016987Y014348D01*
X016828Y014190D02*
X017203Y014190D01*
X017203Y014031D02*
X016830Y014031D01*
X016989Y013873D02*
X017203Y013873D01*
X017203Y013714D02*
X017043Y013714D01*
X017043Y013556D02*
X017203Y013556D01*
X017203Y013397D02*
X017036Y013397D01*
X016877Y013239D02*
X017203Y013239D01*
X017203Y013080D02*
X016026Y013080D01*
X015905Y013239D02*
X016209Y013239D01*
X016523Y013239D02*
X016563Y013239D01*
X016563Y013397D02*
X016523Y013397D01*
X016523Y013556D02*
X016563Y013556D01*
X016563Y013714D02*
X016523Y013714D01*
X016523Y013873D02*
X016563Y013873D01*
X016563Y014031D02*
X016523Y014031D01*
X016523Y014190D02*
X016563Y014190D01*
X016563Y014348D02*
X016523Y014348D01*
X016523Y014507D02*
X016563Y014507D01*
X016563Y014666D02*
X016523Y014666D01*
X016523Y014824D02*
X016563Y014824D01*
X016563Y014983D02*
X016523Y014983D01*
X016207Y014983D02*
X015907Y014983D01*
X015543Y014611D02*
X015043Y014111D01*
X015043Y013361D01*
X011293Y009611D01*
X011693Y009616D02*
X014943Y012866D01*
X014943Y012732D01*
X015004Y012585D01*
X015116Y012472D01*
X015263Y012411D01*
X015422Y012411D01*
X015569Y012472D01*
X015629Y012531D01*
X015827Y012531D01*
X016463Y011896D01*
X016463Y009927D01*
X015827Y009291D01*
X015792Y009291D01*
X015873Y009372D01*
X015930Y009510D01*
X015930Y009660D01*
X015873Y009799D01*
X015766Y009905D01*
X015628Y009962D01*
X015478Y009962D01*
X015339Y009905D01*
X015233Y009799D01*
X015176Y009660D01*
X015176Y009510D01*
X015233Y009372D01*
X015313Y009291D01*
X012701Y009291D01*
X012682Y009338D01*
X012569Y009451D01*
X012422Y009511D01*
X012263Y009511D01*
X012116Y009451D01*
X012004Y009338D01*
X011943Y009191D01*
X011943Y009107D01*
X011727Y008891D01*
X011159Y008891D01*
X010880Y009170D01*
X010801Y009249D01*
X010783Y009256D01*
X010942Y009414D01*
X010954Y009385D01*
X011066Y009272D01*
X011213Y009211D01*
X011372Y009211D01*
X011519Y009272D01*
X011632Y009385D01*
X011693Y009532D01*
X011693Y009616D01*
X011693Y009592D02*
X015176Y009592D01*
X015207Y009434D02*
X012586Y009434D01*
X012343Y009111D02*
X012443Y009011D01*
X015943Y009011D01*
X016743Y009811D01*
X016743Y012011D01*
X015943Y012811D01*
X015343Y012811D01*
X014943Y012763D02*
X014840Y012763D01*
X014996Y012604D02*
X014682Y012604D01*
X014523Y012446D02*
X015180Y012446D01*
X015506Y012446D02*
X015912Y012446D01*
X016071Y012287D02*
X014365Y012287D01*
X014206Y012129D02*
X016229Y012129D01*
X016388Y011970D02*
X014048Y011970D01*
X013889Y011812D02*
X016463Y011812D01*
X016463Y011653D02*
X015728Y011653D01*
X015766Y011637D02*
X015628Y011695D01*
X015478Y011695D01*
X015339Y011637D01*
X015233Y011531D01*
X015176Y011393D01*
X015176Y011243D01*
X015233Y011104D01*
X015339Y010998D01*
X015478Y010940D01*
X015628Y010940D01*
X015766Y010998D01*
X015873Y011104D01*
X015930Y011243D01*
X015930Y011393D01*
X015873Y011531D01*
X015766Y011637D01*
X015888Y011495D02*
X016463Y011495D01*
X016463Y011336D02*
X015930Y011336D01*
X015903Y011178D02*
X016463Y011178D01*
X016463Y011019D02*
X015788Y011019D01*
X015318Y011019D02*
X013096Y011019D01*
X012938Y010861D02*
X016463Y010861D01*
X016463Y010702D02*
X012779Y010702D01*
X012621Y010543D02*
X016463Y010543D01*
X016463Y010385D02*
X012462Y010385D01*
X012304Y010226D02*
X016463Y010226D01*
X016463Y010068D02*
X012145Y010068D01*
X011986Y009909D02*
X015349Y009909D01*
X015213Y009751D02*
X011828Y009751D01*
X011652Y009434D02*
X012099Y009434D01*
X011978Y009275D02*
X011522Y009275D01*
X011943Y009117D02*
X010934Y009117D01*
X011064Y009275D02*
X010802Y009275D01*
X010443Y009311D02*
X009243Y009311D01*
X008943Y009611D01*
X009143Y010011D02*
X008643Y010011D01*
X008593Y009961D01*
X008193Y010361D02*
X008043Y010211D01*
X008193Y010361D02*
X009193Y010361D01*
X009643Y009911D01*
X010243Y009911D01*
X013543Y013211D01*
X013543Y013611D01*
X014043Y013311D02*
X010343Y009611D01*
X009543Y009611D01*
X009143Y010011D01*
X009743Y010211D02*
X010143Y010211D01*
X013043Y013111D01*
X013043Y014111D01*
X013543Y014611D01*
X013907Y014983D02*
X014179Y014983D01*
X014543Y014611D02*
X014043Y014111D01*
X014043Y013311D01*
X014543Y013411D02*
X010443Y009311D01*
X010643Y009011D02*
X006043Y009011D01*
X005643Y008611D01*
X005921Y008324D02*
X017203Y008324D01*
X017203Y008482D02*
X012110Y008482D01*
X012268Y008641D02*
X017203Y008641D01*
X017203Y008799D02*
X016127Y008799D01*
X016285Y008958D02*
X017203Y008958D01*
X017203Y009117D02*
X016444Y009117D01*
X016602Y009275D02*
X017203Y009275D01*
X017203Y009434D02*
X016761Y009434D01*
X016919Y009592D02*
X017203Y009592D01*
X017203Y009751D02*
X017021Y009751D01*
X017023Y009909D02*
X017203Y009909D01*
X017203Y010068D02*
X017023Y010068D01*
X017023Y010226D02*
X017203Y010226D01*
X017203Y010385D02*
X017023Y010385D01*
X017023Y010543D02*
X017203Y010543D01*
X017203Y010702D02*
X017023Y010702D01*
X017023Y010861D02*
X017203Y010861D01*
X017203Y011019D02*
X017023Y011019D01*
X017023Y011178D02*
X017203Y011178D01*
X017203Y011336D02*
X017023Y011336D01*
X017023Y011495D02*
X017203Y011495D01*
X017203Y011653D02*
X017023Y011653D01*
X017023Y011812D02*
X017203Y011812D01*
X017203Y011970D02*
X017023Y011970D01*
X016997Y012129D02*
X017203Y012129D01*
X017203Y012287D02*
X016863Y012287D01*
X016704Y012446D02*
X017203Y012446D01*
X017203Y012604D02*
X016546Y012604D01*
X016387Y012763D02*
X017203Y012763D01*
X017203Y012922D02*
X016229Y012922D01*
X016097Y013873D02*
X016017Y013873D01*
X015858Y014031D02*
X016256Y014031D01*
X016257Y014190D02*
X015857Y014190D01*
X016015Y014348D02*
X016099Y014348D01*
X015179Y014983D02*
X014907Y014983D01*
X013179Y014983D02*
X012907Y014983D01*
X012543Y014611D02*
X012043Y014111D01*
X012043Y013111D01*
X010743Y011811D01*
X009443Y011811D01*
X009193Y011561D01*
X009143Y011611D01*
X009193Y011561D02*
X009193Y011461D01*
X009943Y010611D01*
X009743Y010211D02*
X009293Y010661D01*
X007593Y010661D01*
X007343Y010411D01*
X006965Y010543D02*
X005921Y010543D01*
X005943Y010385D02*
X006943Y010385D01*
X006512Y010226D02*
X005899Y010226D01*
X005823Y010068D02*
X006353Y010068D01*
X006195Y009909D02*
X005823Y009909D01*
X005853Y009521D02*
X005543Y009211D01*
X005543Y010411D01*
X005268Y010702D02*
X004829Y010702D01*
X004988Y010861D02*
X005698Y010861D01*
X005698Y011019D02*
X005146Y011019D01*
X005305Y011178D02*
X005698Y011178D01*
X005803Y011336D02*
X005463Y011336D01*
X006203Y011336D02*
X006203Y011336D01*
X006203Y011178D02*
X006203Y011178D01*
X006203Y011021D02*
X008203Y011021D01*
X008203Y011022D01*
X008708Y011022D01*
X008708Y011195D01*
X008696Y011241D01*
X008672Y011281D01*
X008907Y011281D01*
X008966Y011222D01*
X009067Y011181D01*
X009278Y010941D01*
X009237Y010941D01*
X008708Y010941D01*
X008708Y011021D01*
X008203Y011021D01*
X007698Y011019D02*
X006708Y011019D01*
X006708Y010861D02*
X007396Y010861D01*
X007068Y010702D02*
X006591Y010702D01*
X006203Y010702D02*
X006203Y010702D01*
X006203Y010861D02*
X006203Y010861D01*
X006203Y011019D02*
X006203Y011019D01*
X006693Y010011D02*
X007713Y010011D01*
X008203Y009521D01*
X007678Y009592D02*
X006728Y009592D01*
X006728Y009651D02*
X006728Y009291D01*
X007678Y009291D01*
X007678Y009651D01*
X007597Y009731D01*
X006809Y009731D01*
X006728Y009651D01*
X006728Y009434D02*
X007678Y009434D01*
X006693Y010011D02*
X006203Y009521D01*
X005853Y009521D01*
X006068Y008641D02*
X010617Y008641D01*
X010776Y008482D02*
X006022Y008482D01*
X005365Y008324D02*
X003859Y008324D01*
X003701Y008165D02*
X017203Y008165D01*
X017203Y008007D02*
X003542Y008007D01*
X003384Y007848D02*
X017203Y007848D01*
X017203Y007690D02*
X003225Y007690D01*
X003067Y007531D02*
X017203Y007531D01*
X017203Y007373D02*
X003003Y007373D01*
X003003Y007214D02*
X017203Y007214D01*
X017203Y007055D02*
X002846Y007055D01*
X002722Y006891D02*
X002324Y006891D01*
X002043Y006610D01*
X002043Y006213D01*
X002324Y005931D01*
X002722Y005931D01*
X003003Y006213D01*
X003003Y006610D01*
X002722Y006891D01*
X002875Y006738D02*
X017203Y006738D01*
X017203Y006580D02*
X003003Y006580D01*
X003003Y006421D02*
X017203Y006421D01*
X017203Y006263D02*
X003003Y006263D01*
X002894Y006104D02*
X017203Y006104D01*
X017203Y005946D02*
X002736Y005946D01*
X002310Y005946D02*
X001878Y005946D01*
X001878Y006104D02*
X002151Y006104D01*
X002043Y006263D02*
X001878Y006263D01*
X001878Y006421D02*
X002043Y006421D01*
X002043Y006580D02*
X001878Y006580D01*
X001878Y006738D02*
X002171Y006738D01*
X001878Y006897D02*
X017203Y006897D01*
X017203Y005787D02*
X001878Y005787D01*
X001878Y005629D02*
X017203Y005629D01*
X012343Y009111D02*
X011843Y008611D01*
X011043Y008611D01*
X010643Y009011D01*
X011092Y008958D02*
X011793Y008958D01*
X009210Y011019D02*
X008708Y011019D01*
X008708Y011178D02*
X009070Y011178D01*
X009743Y011411D02*
X010843Y011411D01*
X012543Y013111D01*
X012543Y013611D01*
X011543Y013611D02*
X011543Y013011D01*
X010643Y012111D01*
X008743Y012111D01*
X008143Y012711D01*
X008193Y012661D01*
X008543Y012707D02*
X008543Y012791D01*
X008526Y012831D01*
X009299Y012831D01*
X009401Y012874D01*
X009480Y012953D01*
X009559Y013031D01*
X010299Y013031D01*
X010401Y013074D01*
X010480Y013153D01*
X011023Y013696D01*
X011023Y013209D01*
X011140Y013091D01*
X011227Y013091D01*
X010527Y012391D01*
X008859Y012391D01*
X008543Y012707D01*
X008543Y012763D02*
X010898Y012763D01*
X010740Y012604D02*
X008646Y012604D01*
X008804Y012446D02*
X010581Y012446D01*
X011057Y012922D02*
X009449Y012922D01*
X009243Y013111D02*
X007743Y013111D01*
X007343Y012711D01*
X007425Y013190D02*
X007443Y013232D01*
X007443Y013391D01*
X007382Y013538D01*
X007269Y013651D01*
X007122Y013711D01*
X006963Y013711D01*
X006816Y013651D01*
X006757Y013591D01*
X004859Y013591D01*
X004339Y014111D01*
X004523Y014111D01*
X004523Y014591D01*
X004563Y014591D01*
X004563Y014111D01*
X004750Y014111D01*
X005029Y014390D01*
X005327Y014091D01*
X005758Y014091D01*
X006023Y014356D01*
X006023Y014209D01*
X006140Y014091D01*
X006946Y014091D01*
X007043Y014189D01*
X007140Y014091D01*
X007946Y014091D01*
X008063Y014209D01*
X008063Y014356D01*
X008327Y014091D01*
X008758Y014091D01*
X009043Y014376D01*
X009077Y014342D01*
X008527Y013791D01*
X008429Y013791D01*
X008369Y013851D01*
X008222Y013911D01*
X008063Y013911D01*
X007916Y013851D01*
X007804Y013738D01*
X007743Y013591D01*
X007743Y013432D01*
X007760Y013391D01*
X007687Y013391D01*
X007584Y013349D01*
X007425Y013190D01*
X007443Y013239D02*
X007474Y013239D01*
X007440Y013397D02*
X007757Y013397D01*
X007743Y013556D02*
X007364Y013556D01*
X007794Y013714D02*
X004736Y013714D01*
X004577Y013873D02*
X007970Y013873D01*
X008316Y013873D02*
X008608Y013873D01*
X008767Y014031D02*
X004419Y014031D01*
X004523Y014190D02*
X004563Y014190D01*
X004563Y014348D02*
X004523Y014348D01*
X004523Y014507D02*
X004563Y014507D01*
X004563Y014666D02*
X004523Y014666D01*
X004523Y014824D02*
X004563Y014824D01*
X004563Y014983D02*
X004523Y014983D01*
X004879Y014983D02*
X005179Y014983D01*
X005907Y014983D02*
X006023Y014983D01*
X006015Y014348D02*
X006023Y014348D01*
X006042Y014190D02*
X005857Y014190D01*
X005229Y014190D02*
X004828Y014190D01*
X004987Y014348D02*
X005070Y014348D01*
X003229Y014190D02*
X002857Y014190D01*
X003015Y014348D02*
X003071Y014348D01*
X008044Y014190D02*
X008229Y014190D01*
X008070Y014348D02*
X008063Y014348D01*
X008857Y014190D02*
X008925Y014190D01*
X009015Y014348D02*
X009070Y014348D01*
X009543Y014411D02*
X008643Y013511D01*
X008143Y013511D01*
X009243Y013111D02*
X009443Y013311D01*
X010243Y013311D01*
X011543Y014611D01*
X011907Y014983D02*
X012179Y014983D01*
X011179Y014983D02*
X010907Y014983D01*
X010179Y014983D02*
X009907Y014983D01*
X009543Y014611D02*
X009543Y014411D01*
X009179Y014983D02*
X008907Y014983D01*
X008179Y014983D02*
X008063Y014983D01*
X010724Y013397D02*
X011023Y013397D01*
X011023Y013239D02*
X010566Y013239D01*
X010407Y013080D02*
X011216Y013080D01*
X011023Y013556D02*
X010883Y013556D01*
X009193Y011561D02*
X007993Y011561D01*
X013255Y011178D02*
X015203Y011178D01*
X015176Y011336D02*
X013413Y011336D01*
X013572Y011495D02*
X015218Y011495D01*
X015378Y011653D02*
X013730Y011653D01*
X015756Y009909D02*
X016445Y009909D01*
X016286Y009751D02*
X015893Y009751D01*
X015930Y009592D02*
X016128Y009592D01*
X015969Y009434D02*
X015898Y009434D01*
X014543Y013411D02*
X014543Y013611D01*
X004906Y008482D02*
X004018Y008482D01*
X002852Y008165D02*
X001878Y008165D01*
X001878Y008007D02*
X002694Y008007D01*
X002281Y007848D02*
X001878Y007848D01*
X001878Y007690D02*
X002122Y007690D01*
X002043Y007531D02*
X001878Y007531D01*
X001878Y007373D02*
X002043Y007373D01*
X002043Y007214D02*
X001878Y007214D01*
X001878Y007055D02*
X002200Y007055D01*
X002058Y009275D02*
X001878Y009275D01*
X001878Y009434D02*
X001970Y009434D01*
X002512Y009434D02*
X002513Y009434D01*
X002512Y009592D02*
X002513Y009592D01*
X002512Y009751D02*
X002513Y009751D01*
X002512Y009909D02*
X002513Y009909D01*
X002512Y010068D02*
X002513Y010068D01*
X002512Y010226D02*
X002513Y010226D01*
X002032Y010226D02*
X001878Y010226D01*
X001878Y010385D02*
X001971Y010385D01*
X002512Y010796D02*
X002628Y010911D01*
D17*
X003343Y010411D03*
X005543Y010411D03*
X005493Y011001D03*
X006493Y011531D03*
X007343Y011561D03*
X007343Y012711D03*
X008143Y012711D03*
X007043Y013311D03*
X006343Y012911D03*
X005473Y012311D03*
X008143Y013511D03*
X009663Y012741D03*
X010623Y012701D03*
X009193Y011561D03*
X009743Y011411D03*
X009943Y010611D03*
X008593Y009961D03*
X008043Y010211D03*
X007343Y010411D03*
X006773Y010461D03*
X006893Y009541D03*
X005543Y009211D03*
X005143Y008811D03*
X005643Y008611D03*
X005143Y008211D03*
X005143Y007711D03*
X006213Y007781D03*
X003643Y007811D03*
X003243Y006811D03*
X002043Y006911D03*
X002043Y007911D03*
X002043Y005811D03*
X003243Y005811D03*
X005943Y005811D03*
X007343Y005811D03*
X008693Y005791D03*
X008793Y007761D03*
X009643Y007711D03*
X011253Y009051D03*
X011293Y009611D03*
X012343Y009111D03*
X012673Y010291D03*
X013813Y011491D03*
X015343Y012811D03*
X016093Y009831D03*
X015443Y008311D03*
X016643Y007411D03*
X016743Y005831D03*
X012283Y005821D03*
X008943Y009611D03*
X003113Y013991D03*
X002013Y014001D03*
D18*
X003923Y008811D02*
X002523Y007411D01*
X003923Y008811D02*
X005143Y008811D01*
M02*
