G75*
G70*
%OFA0B0*%
%FSLAX24Y24*%
%IPPOS*%
%LPD*%
%AMOC8*
5,1,8,0,0,1.08239X$1,22.5*
%
%ADD10OC8,0.0520*%
%ADD11OC8,0.0600*%
%ADD12C,0.0270*%
%ADD13C,0.0100*%
%ADD14C,0.0320*%
%ADD15C,0.0160*%
D10*
X024228Y009670D03*
X025228Y009670D03*
X026228Y009670D03*
X027228Y009670D03*
X028228Y009670D03*
X029228Y009670D03*
X030228Y009670D03*
X031228Y009670D03*
X032228Y009670D03*
X033228Y009670D03*
X034228Y009670D03*
X035228Y009670D03*
X036228Y009670D03*
X037228Y009670D03*
X038228Y009670D03*
X039228Y009670D03*
D11*
X039278Y006220D03*
X038278Y006220D03*
X037278Y006220D03*
X036278Y006220D03*
X035278Y006220D03*
X035278Y005220D03*
X036278Y005220D03*
X037278Y005220D03*
X038278Y005220D03*
X039278Y005220D03*
X014948Y005864D03*
X013948Y005864D03*
X012948Y005864D03*
X011948Y005864D03*
X010948Y005864D03*
X008151Y012651D03*
X007151Y012651D03*
D12*
X006578Y013320D03*
X007578Y013820D03*
X009078Y012920D03*
X011078Y011520D03*
X013151Y011651D03*
X014278Y011720D03*
X013651Y011051D03*
X014951Y010651D03*
X013651Y010351D03*
X012778Y010120D03*
X012051Y010351D03*
X012151Y009651D03*
X013351Y009251D03*
X013251Y008851D03*
X012851Y008751D03*
X012851Y008351D03*
X012451Y008251D03*
X013551Y007551D03*
X013251Y007251D03*
X016351Y007551D03*
X016851Y006351D03*
X016478Y005920D03*
X020078Y005820D03*
X023578Y005047D03*
X024078Y005370D03*
X023678Y005720D03*
X026178Y006020D03*
X026278Y005320D03*
X028028Y004970D03*
X028628Y004970D03*
X028678Y005420D03*
X028478Y006070D03*
X029378Y006720D03*
X030478Y006120D03*
X033128Y004870D03*
X034628Y004870D03*
X034178Y006120D03*
X033778Y008320D03*
X031651Y010251D03*
X027178Y011720D03*
X025678Y011920D03*
X024251Y012351D03*
X026678Y012620D03*
X028278Y013320D03*
X021478Y011920D03*
X019278Y011920D03*
X018078Y011920D03*
X016378Y011820D03*
X016578Y012820D03*
X018278Y010220D03*
X022178Y010020D03*
X022728Y007320D03*
X013778Y009920D03*
X009551Y007751D03*
X006078Y008120D03*
X005378Y007620D03*
X004478Y007620D03*
X003978Y007120D03*
X006078Y007120D03*
X003178Y005920D03*
X003978Y005120D03*
X008778Y005120D03*
X009778Y005720D03*
X004078Y008720D03*
X002578Y009520D03*
X002778Y011220D03*
X003278Y012520D03*
X003778Y013320D03*
X032878Y002920D03*
X034378Y002820D03*
X036578Y002820D03*
X039978Y004620D03*
X040178Y005720D03*
X040878Y006520D03*
X040051Y007451D03*
X041578Y007720D03*
X041478Y009520D03*
X040678Y011820D03*
X038578Y013220D03*
D13*
X005435Y003828D02*
X004715Y004001D01*
X004036Y004295D01*
X003417Y004701D01*
X002878Y005209D01*
X002435Y005802D01*
X002260Y006113D01*
X002118Y006669D01*
X001922Y007832D01*
X001856Y009009D01*
X001922Y010187D01*
X002118Y011350D01*
X002260Y011906D01*
X002435Y012217D01*
X002878Y012810D01*
X003417Y013317D01*
X004036Y013724D01*
X004715Y014018D01*
X005435Y014191D01*
X006174Y014236D01*
X006909Y014154D01*
X007620Y013946D01*
X007959Y013796D01*
X008014Y013769D01*
X008015Y013769D01*
X008495Y013531D01*
X009618Y013118D01*
X010778Y012825D01*
X011963Y012656D01*
X013158Y012612D01*
X014352Y012695D01*
X014940Y012799D01*
X033633Y015750D01*
X034134Y015781D01*
X035145Y015748D01*
X036144Y015592D01*
X037116Y015314D01*
X038047Y014918D01*
X038921Y014411D01*
X039727Y013800D01*
X040452Y013095D01*
X041084Y012306D01*
X041361Y011885D01*
X041565Y011507D01*
X041884Y010707D01*
X042078Y009868D01*
X042143Y009009D01*
X042078Y008151D01*
X041884Y007312D01*
X041565Y006512D01*
X041361Y006134D01*
X041084Y005713D01*
X040452Y004924D01*
X039727Y004218D01*
X038921Y003608D01*
X038047Y003100D01*
X037116Y002705D01*
X036144Y002427D01*
X035145Y002271D01*
X034134Y002238D01*
X033633Y002269D01*
X014940Y005220D01*
X014352Y005324D01*
X014352Y005324D01*
X013158Y005407D01*
X011963Y005363D01*
X011963Y005363D01*
X010778Y005194D01*
X009618Y004901D01*
X008495Y004487D01*
X003743Y004487D01*
X003593Y004586D02*
X008762Y004586D01*
X008495Y004487D02*
X008495Y004487D01*
X008015Y004250D01*
X008014Y004250D01*
X007965Y004225D01*
X007959Y004223D01*
X007959Y004223D01*
X007620Y004073D01*
X006909Y003865D01*
X006174Y003783D01*
X005435Y003828D01*
X005153Y003896D02*
X007014Y003896D01*
X007351Y003994D02*
X004741Y003994D01*
X004502Y004093D02*
X007664Y004093D01*
X007888Y004191D02*
X004274Y004191D01*
X004046Y004290D02*
X008095Y004290D01*
X008295Y004389D02*
X003893Y004389D01*
X003444Y004684D02*
X005465Y004684D01*
X005475Y004674D02*
X005596Y004624D01*
X005726Y004624D01*
X005846Y004674D01*
X005938Y004766D01*
X005988Y004886D01*
X005988Y005016D01*
X005938Y005136D01*
X005846Y005229D01*
X005726Y005278D01*
X005596Y005278D01*
X005475Y005229D01*
X005383Y005136D01*
X005333Y005016D01*
X005333Y004886D01*
X005383Y004766D01*
X005475Y004674D01*
X005376Y004783D02*
X003331Y004783D01*
X003226Y004881D02*
X005335Y004881D01*
X005333Y004980D02*
X003122Y004980D01*
X003017Y005078D02*
X005359Y005078D01*
X005424Y005177D02*
X002912Y005177D01*
X002829Y005275D02*
X005589Y005275D01*
X005733Y005275D02*
X006770Y005275D01*
X006777Y005278D02*
X006656Y005229D01*
X006564Y005136D01*
X006515Y005016D01*
X006515Y004886D01*
X006564Y004766D01*
X006656Y004674D01*
X006777Y004624D01*
X006907Y004624D01*
X007027Y004674D01*
X007119Y004766D01*
X007169Y004886D01*
X007169Y005016D01*
X007119Y005136D01*
X007027Y005229D01*
X006907Y005278D01*
X006777Y005278D01*
X006914Y005275D02*
X011348Y005275D01*
X011118Y005454D02*
X011358Y005694D01*
X011358Y006034D01*
X011118Y006274D01*
X010779Y006274D01*
X010538Y006034D01*
X010538Y005694D01*
X010779Y005454D01*
X011118Y005454D01*
X011137Y005473D02*
X011760Y005473D01*
X011779Y005454D02*
X011538Y005694D01*
X011538Y006034D01*
X011779Y006274D01*
X012118Y006274D01*
X012358Y006034D01*
X012358Y005694D01*
X012118Y005454D01*
X011779Y005454D01*
X011662Y005571D02*
X011235Y005571D01*
X011334Y005670D02*
X011563Y005670D01*
X011538Y005768D02*
X011358Y005768D01*
X011358Y005867D02*
X011538Y005867D01*
X011538Y005965D02*
X011358Y005965D01*
X011329Y006064D02*
X011568Y006064D01*
X011667Y006162D02*
X011230Y006162D01*
X011131Y006261D02*
X011765Y006261D01*
X012131Y006261D02*
X012709Y006261D01*
X012762Y006314D02*
X012498Y006051D01*
X012498Y005914D01*
X012898Y005914D01*
X012898Y005814D01*
X012498Y005814D01*
X012498Y005678D01*
X012762Y005414D01*
X012898Y005414D01*
X012898Y005814D01*
X012998Y005814D01*
X012998Y005414D01*
X013135Y005414D01*
X013398Y005678D01*
X013398Y005814D01*
X012999Y005814D01*
X012999Y005914D01*
X013398Y005914D01*
X013398Y006051D01*
X013135Y006314D01*
X012998Y006314D01*
X012998Y005914D01*
X012898Y005914D01*
X012898Y006314D01*
X012762Y006314D01*
X012898Y006261D02*
X012998Y006261D01*
X012998Y006162D02*
X012898Y006162D01*
X012898Y006064D02*
X012998Y006064D01*
X012998Y005965D02*
X012898Y005965D01*
X012898Y005867D02*
X012358Y005867D01*
X012358Y005965D02*
X012498Y005965D01*
X012512Y006064D02*
X012329Y006064D01*
X012230Y006162D02*
X012610Y006162D01*
X012999Y005867D02*
X013538Y005867D01*
X013538Y005965D02*
X013398Y005965D01*
X013385Y006064D02*
X013480Y006064D01*
X013538Y006005D02*
X013538Y005694D01*
X013779Y005454D01*
X014118Y005454D01*
X014358Y005694D01*
X014358Y006034D01*
X014118Y006274D01*
X013807Y006274D01*
X013240Y006841D01*
X013083Y006841D01*
X010730Y006841D01*
X009796Y007775D01*
X009796Y007800D01*
X009759Y007890D01*
X009690Y007959D01*
X009600Y007996D01*
X009502Y007996D01*
X009412Y007959D01*
X009343Y007890D01*
X009306Y007800D01*
X009306Y007702D01*
X009343Y007612D01*
X009412Y007543D01*
X009502Y007506D01*
X009527Y007506D01*
X010461Y006572D01*
X010572Y006461D01*
X013083Y006461D01*
X013538Y006005D01*
X013382Y006162D02*
X013287Y006162D01*
X013283Y006261D02*
X013188Y006261D01*
X013184Y006359D02*
X007421Y006359D01*
X007421Y006405D02*
X007380Y006504D01*
X007341Y006543D01*
X007341Y012261D01*
X007561Y012481D01*
X007561Y012821D01*
X007321Y013061D01*
X006981Y013061D01*
X006741Y012821D01*
X006741Y012481D01*
X006961Y012261D01*
X006961Y006543D01*
X006922Y006504D01*
X006881Y006405D01*
X006881Y006297D01*
X006922Y006198D01*
X006998Y006122D01*
X007097Y006081D01*
X007205Y006081D01*
X007304Y006122D01*
X007380Y006198D01*
X007421Y006297D01*
X007421Y006405D01*
X007399Y006458D02*
X013086Y006458D01*
X013426Y006655D02*
X013621Y006655D01*
X013685Y006591D02*
X013817Y006591D01*
X016790Y006591D01*
X016712Y006559D01*
X016643Y006490D01*
X016606Y006400D01*
X016606Y006302D01*
X016643Y006212D01*
X016712Y006143D01*
X016802Y006106D01*
X016900Y006106D01*
X016990Y006143D01*
X017038Y006191D01*
X021685Y006191D01*
X022316Y005560D01*
X022449Y005560D01*
X023491Y005560D01*
X023539Y005512D01*
X023629Y005475D01*
X023727Y005475D01*
X023817Y005512D01*
X023886Y005581D01*
X023923Y005671D01*
X023923Y005738D01*
X024444Y006260D01*
X033812Y006260D01*
X033933Y006138D01*
X033933Y006071D01*
X033970Y005981D01*
X034039Y005912D01*
X034117Y005880D01*
X027312Y005880D01*
X027218Y005786D01*
X026562Y005130D01*
X024544Y005130D01*
X024323Y005351D01*
X024323Y005418D01*
X024286Y005508D01*
X024217Y005577D01*
X024127Y005615D01*
X024029Y005615D01*
X023939Y005577D01*
X023870Y005508D01*
X023833Y005418D01*
X023833Y005321D01*
X023870Y005231D01*
X023939Y005162D01*
X024029Y005125D01*
X024097Y005125D01*
X024292Y004930D01*
X023922Y004930D01*
X023823Y005029D01*
X023823Y005096D01*
X023786Y005186D01*
X023717Y005255D01*
X023627Y005292D01*
X023529Y005292D01*
X023439Y005255D01*
X023370Y005186D01*
X023333Y005096D01*
X023333Y004998D01*
X023370Y004908D01*
X023439Y004840D01*
X023529Y004802D01*
X023597Y004802D01*
X023789Y004610D01*
X023922Y004610D01*
X026894Y004610D01*
X026988Y004703D01*
X027544Y005260D01*
X028491Y005260D01*
X028539Y005212D01*
X028629Y005175D01*
X028727Y005175D01*
X028817Y005212D01*
X028864Y005260D01*
X030712Y005260D01*
X031812Y004160D01*
X031944Y004160D01*
X035144Y004160D01*
X035238Y004253D01*
X035438Y004453D01*
X035438Y004586D01*
X035438Y004810D01*
X035448Y004810D01*
X035688Y005050D01*
X035688Y005389D01*
X035518Y005560D01*
X036038Y005560D01*
X035868Y005389D01*
X035868Y005050D01*
X036108Y004810D01*
X036448Y004810D01*
X036455Y004817D01*
X036880Y004391D01*
X037013Y004391D01*
X038317Y004391D01*
X038411Y004485D01*
X038817Y004891D01*
X038817Y004891D01*
X038894Y004968D01*
X039092Y004770D01*
X039228Y004770D01*
X039228Y005169D01*
X039328Y005169D01*
X039328Y004770D01*
X039464Y004770D01*
X039728Y005033D01*
X039728Y005170D01*
X039328Y005170D01*
X039328Y005270D01*
X039228Y005270D01*
X039228Y005670D01*
X039092Y005670D01*
X038911Y005670D01*
X038911Y005768D02*
X041120Y005768D01*
X041185Y005867D02*
X039505Y005867D01*
X039448Y005810D02*
X039688Y006050D01*
X039688Y006389D01*
X039448Y006630D01*
X039108Y006630D01*
X038911Y006433D01*
X038911Y007085D01*
X040191Y008365D01*
X040191Y007817D01*
X040070Y007696D01*
X040002Y007696D01*
X039912Y007659D01*
X039843Y007590D01*
X039806Y007500D01*
X039806Y007402D01*
X039843Y007312D01*
X039912Y007243D01*
X040002Y007206D01*
X040100Y007206D01*
X040190Y007243D01*
X040259Y007312D01*
X040296Y007402D01*
X040296Y007470D01*
X040511Y007685D01*
X040511Y007817D01*
X040511Y010417D01*
X040417Y010511D01*
X039417Y011511D01*
X039285Y011511D01*
X013485Y011511D01*
X013391Y011417D01*
X012485Y010511D01*
X012238Y010511D01*
X012190Y010559D01*
X012100Y010596D01*
X012002Y010596D01*
X011912Y010559D01*
X011843Y010490D01*
X011806Y010400D01*
X011806Y010302D01*
X011843Y010212D01*
X011912Y010143D01*
X012002Y010106D01*
X012100Y010106D01*
X012190Y010143D01*
X012238Y010191D01*
X012485Y010191D01*
X012617Y010191D01*
X013413Y010987D01*
X013443Y010912D01*
X013512Y010843D01*
X013602Y010806D01*
X013700Y010806D01*
X013790Y010843D01*
X013838Y010891D01*
X014891Y010891D01*
X014812Y010859D01*
X014743Y010790D01*
X014706Y010700D01*
X014706Y010602D01*
X014743Y010512D01*
X014745Y010511D01*
X013838Y010511D01*
X013790Y010559D01*
X013700Y010596D01*
X013602Y010596D01*
X013512Y010559D01*
X013443Y010490D01*
X013406Y010400D01*
X013406Y010302D01*
X013443Y010212D01*
X013512Y010143D01*
X013602Y010106D01*
X013700Y010106D01*
X013790Y010143D01*
X013838Y010191D01*
X015085Y010191D01*
X015217Y010191D01*
X015517Y010491D01*
X031185Y010491D01*
X031406Y010270D01*
X031406Y010202D01*
X031443Y010112D01*
X031512Y010043D01*
X031602Y010006D01*
X031700Y010006D01*
X031790Y010043D01*
X031859Y010112D01*
X031896Y010202D01*
X031896Y010300D01*
X031859Y010390D01*
X031790Y010459D01*
X031700Y010496D01*
X031632Y010496D01*
X031437Y010691D01*
X039085Y010691D01*
X039691Y010085D01*
X039691Y008717D01*
X037685Y006711D01*
X037591Y006617D01*
X037591Y006486D01*
X037448Y006630D01*
X037108Y006630D01*
X036868Y006389D01*
X036868Y006050D01*
X036875Y006043D01*
X036712Y005880D01*
X036518Y005880D01*
X036688Y006050D01*
X036688Y006389D01*
X036448Y006630D01*
X036108Y006630D01*
X036101Y006623D01*
X035938Y006786D01*
X035844Y006880D01*
X029564Y006880D01*
X029534Y006910D01*
X036694Y006910D01*
X036788Y007003D01*
X039084Y009300D01*
X039381Y009300D01*
X039598Y009516D01*
X039598Y009823D01*
X039381Y010040D01*
X039075Y010040D01*
X038858Y009823D01*
X038858Y009526D01*
X036562Y007230D01*
X035014Y007230D01*
X035038Y007253D01*
X037084Y009300D01*
X037381Y009300D01*
X037598Y009516D01*
X037598Y009823D01*
X037381Y010040D01*
X037075Y010040D01*
X036858Y009823D01*
X036858Y009526D01*
X034812Y007480D01*
X033164Y007480D01*
X033238Y007553D01*
X033759Y008075D01*
X033827Y008075D01*
X033917Y008112D01*
X033986Y008181D01*
X034023Y008271D01*
X034023Y008368D01*
X033986Y008458D01*
X033917Y008527D01*
X035859Y008527D01*
X035761Y008429D02*
X033998Y008429D01*
X034023Y008330D02*
X035662Y008330D01*
X035564Y008232D02*
X034007Y008232D01*
X033938Y008133D02*
X035465Y008133D01*
X035367Y008035D02*
X033719Y008035D01*
X033621Y007936D02*
X035268Y007936D01*
X035170Y007838D02*
X033522Y007838D01*
X033424Y007739D02*
X035071Y007739D01*
X034973Y007640D02*
X033325Y007640D01*
X033226Y007542D02*
X034874Y007542D01*
X034878Y007320D02*
X023320Y007320D01*
X022951Y006951D01*
X014151Y006951D01*
X013551Y007551D01*
X013323Y007640D02*
X009931Y007640D01*
X010029Y007542D02*
X013306Y007542D01*
X013306Y007502D02*
X013311Y007492D01*
X013300Y007496D01*
X013202Y007496D01*
X013112Y007459D01*
X013043Y007390D01*
X013006Y007300D01*
X013006Y007202D01*
X013043Y007112D01*
X013112Y007043D01*
X013202Y007006D01*
X013270Y007006D01*
X013685Y006591D01*
X013623Y006458D02*
X016630Y006458D01*
X016606Y006359D02*
X013722Y006359D01*
X013525Y006556D02*
X016710Y006556D01*
X016851Y006351D02*
X021751Y006351D01*
X022383Y005720D01*
X023678Y005720D01*
X024378Y006420D01*
X033878Y006420D01*
X034178Y006120D01*
X033986Y005965D02*
X024150Y005965D01*
X024248Y006064D02*
X033936Y006064D01*
X033909Y006162D02*
X024347Y006162D01*
X024051Y005867D02*
X027299Y005867D01*
X027200Y005768D02*
X023953Y005768D01*
X023922Y005670D02*
X027102Y005670D01*
X027003Y005571D02*
X024223Y005571D01*
X024301Y005473D02*
X026905Y005473D01*
X026806Y005374D02*
X024323Y005374D01*
X024398Y005275D02*
X026707Y005275D01*
X026609Y005177D02*
X024497Y005177D01*
X024478Y004970D02*
X024078Y005370D01*
X023855Y005473D02*
X015137Y005473D01*
X015118Y005454D02*
X014779Y005454D01*
X014538Y005694D01*
X014538Y006034D01*
X014779Y006274D01*
X015118Y006274D01*
X015358Y006034D01*
X015358Y005694D01*
X015118Y005454D01*
X015235Y005571D02*
X022305Y005571D01*
X022206Y005670D02*
X015334Y005670D01*
X015358Y005768D02*
X022108Y005768D01*
X022009Y005867D02*
X015358Y005867D01*
X015358Y005965D02*
X021911Y005965D01*
X021812Y006064D02*
X015329Y006064D01*
X015230Y006162D02*
X016694Y006162D01*
X016623Y006261D02*
X015131Y006261D01*
X014765Y006261D02*
X014131Y006261D01*
X014230Y006162D02*
X014667Y006162D01*
X014568Y006064D02*
X014329Y006064D01*
X014358Y005965D02*
X014538Y005965D01*
X014538Y005867D02*
X014358Y005867D01*
X014358Y005768D02*
X014538Y005768D01*
X014563Y005670D02*
X014334Y005670D01*
X014235Y005571D02*
X014662Y005571D01*
X014760Y005473D02*
X014137Y005473D01*
X013760Y005473D02*
X013193Y005473D01*
X013158Y005407D02*
X013158Y005407D01*
X012998Y005473D02*
X012898Y005473D01*
X012898Y005571D02*
X012998Y005571D01*
X012998Y005670D02*
X012898Y005670D01*
X012898Y005768D02*
X012998Y005768D01*
X013292Y005571D02*
X013662Y005571D01*
X013563Y005670D02*
X013390Y005670D01*
X013398Y005768D02*
X013538Y005768D01*
X013631Y005374D02*
X023833Y005374D01*
X023852Y005275D02*
X023667Y005275D01*
X023789Y005177D02*
X023924Y005177D01*
X023823Y005078D02*
X024143Y005078D01*
X024242Y004980D02*
X023872Y004980D01*
X023856Y004770D02*
X023578Y005047D01*
X023397Y004881D02*
X017087Y004881D01*
X017711Y004783D02*
X023616Y004783D01*
X023715Y004684D02*
X018335Y004684D01*
X018960Y004586D02*
X031386Y004586D01*
X031287Y004684D02*
X026969Y004684D01*
X027067Y004783D02*
X031189Y004783D01*
X031090Y004881D02*
X027166Y004881D01*
X027264Y004980D02*
X030992Y004980D01*
X030893Y005078D02*
X027363Y005078D01*
X027461Y005177D02*
X028624Y005177D01*
X028732Y005177D02*
X030794Y005177D01*
X030778Y005420D02*
X028678Y005420D01*
X027478Y005420D01*
X026828Y004770D01*
X023856Y004770D01*
X023341Y004980D02*
X016463Y004980D01*
X015839Y005078D02*
X023333Y005078D01*
X023366Y005177D02*
X015215Y005177D01*
X014628Y005275D02*
X023489Y005275D01*
X023876Y005571D02*
X023933Y005571D01*
X024478Y004970D02*
X026628Y004970D01*
X027378Y005720D01*
X036778Y005720D01*
X037278Y006220D01*
X036868Y006261D02*
X036688Y006261D01*
X036688Y006359D02*
X036868Y006359D01*
X036936Y006458D02*
X036619Y006458D01*
X036521Y006556D02*
X037035Y006556D01*
X036868Y006162D02*
X036688Y006162D01*
X036688Y006064D02*
X036868Y006064D01*
X036797Y005965D02*
X036603Y005965D01*
X036278Y006220D02*
X035778Y006720D01*
X029378Y006720D01*
X030864Y005560D02*
X035038Y005560D01*
X034868Y005389D01*
X034868Y005050D01*
X035108Y004810D01*
X035118Y004810D01*
X035118Y004586D01*
X035012Y004480D01*
X031944Y004480D01*
X030938Y005486D01*
X030864Y005560D01*
X030951Y005473D02*
X034951Y005473D01*
X034868Y005374D02*
X031050Y005374D01*
X031148Y005275D02*
X034868Y005275D01*
X034868Y005177D02*
X031247Y005177D01*
X031346Y005078D02*
X034868Y005078D01*
X034938Y004980D02*
X031444Y004980D01*
X031543Y004881D02*
X035037Y004881D01*
X035118Y004783D02*
X031641Y004783D01*
X031740Y004684D02*
X035118Y004684D01*
X035118Y004586D02*
X031838Y004586D01*
X031937Y004487D02*
X035019Y004487D01*
X035078Y004320D02*
X031878Y004320D01*
X030778Y005420D01*
X031484Y004487D02*
X019584Y004487D01*
X020208Y004389D02*
X031583Y004389D01*
X031681Y004290D02*
X020832Y004290D01*
X021456Y004191D02*
X031780Y004191D01*
X029569Y002910D02*
X037599Y002910D01*
X037368Y002812D02*
X030193Y002812D01*
X030818Y002713D02*
X037136Y002713D01*
X036801Y002615D02*
X031442Y002615D01*
X032066Y002516D02*
X036456Y002516D01*
X036085Y002418D02*
X032690Y002418D01*
X033314Y002319D02*
X035456Y002319D01*
X037831Y003009D02*
X028945Y003009D01*
X028321Y003107D02*
X038059Y003107D01*
X038229Y003206D02*
X027697Y003206D01*
X027073Y003305D02*
X038399Y003305D01*
X038569Y003403D02*
X026449Y003403D01*
X025825Y003502D02*
X038739Y003502D01*
X038909Y003600D02*
X025201Y003600D01*
X024577Y003699D02*
X039042Y003699D01*
X039172Y003797D02*
X023952Y003797D01*
X023328Y003896D02*
X039302Y003896D01*
X039432Y003994D02*
X022704Y003994D01*
X022080Y004093D02*
X039561Y004093D01*
X039691Y004191D02*
X035176Y004191D01*
X035275Y004290D02*
X039801Y004290D01*
X039902Y004389D02*
X035373Y004389D01*
X035438Y004487D02*
X036784Y004487D01*
X036686Y004586D02*
X035438Y004586D01*
X035438Y004684D02*
X036587Y004684D01*
X036489Y004783D02*
X035438Y004783D01*
X035519Y004881D02*
X036037Y004881D01*
X035938Y004980D02*
X035618Y004980D01*
X035688Y005078D02*
X035868Y005078D01*
X035868Y005177D02*
X035688Y005177D01*
X035688Y005275D02*
X035868Y005275D01*
X035868Y005374D02*
X035688Y005374D01*
X035605Y005473D02*
X035951Y005473D01*
X036278Y005220D02*
X036946Y004551D01*
X038251Y004551D01*
X038751Y005051D01*
X038751Y007151D01*
X040051Y008451D01*
X040051Y010251D01*
X039251Y011051D01*
X013651Y011051D01*
X013463Y010892D02*
X013319Y010892D01*
X013220Y010794D02*
X014747Y010794D01*
X014706Y010695D02*
X013122Y010695D01*
X013023Y010597D02*
X014709Y010597D01*
X014951Y010651D02*
X015151Y010851D01*
X039151Y010851D01*
X039851Y010151D01*
X039851Y008651D01*
X037751Y006551D01*
X037751Y005693D01*
X037278Y005220D01*
X038610Y004684D02*
X040205Y004684D01*
X040104Y004586D02*
X038512Y004586D01*
X038413Y004487D02*
X040003Y004487D01*
X040307Y004783D02*
X039477Y004783D01*
X039576Y004881D02*
X040408Y004881D01*
X040496Y004980D02*
X039674Y004980D01*
X039728Y005078D02*
X040575Y005078D01*
X040654Y005177D02*
X039328Y005177D01*
X039328Y005270D02*
X039728Y005270D01*
X039728Y005406D01*
X039464Y005670D01*
X039328Y005670D01*
X039328Y005270D01*
X039328Y005275D02*
X039228Y005275D01*
X039228Y005374D02*
X039328Y005374D01*
X039328Y005473D02*
X039228Y005473D01*
X039228Y005571D02*
X039328Y005571D01*
X039328Y005670D02*
X039228Y005670D01*
X039092Y005670D02*
X038911Y005489D01*
X038911Y006007D01*
X039108Y005810D01*
X039448Y005810D01*
X039464Y005670D02*
X041049Y005670D01*
X040970Y005571D02*
X039563Y005571D01*
X039661Y005473D02*
X040891Y005473D01*
X040812Y005374D02*
X039728Y005374D01*
X039728Y005275D02*
X040733Y005275D01*
X039328Y005078D02*
X039228Y005078D01*
X039228Y004980D02*
X039328Y004980D01*
X039328Y004881D02*
X039228Y004881D01*
X039228Y004783D02*
X039328Y004783D01*
X039079Y004783D02*
X038709Y004783D01*
X038807Y004881D02*
X038980Y004881D01*
X038993Y005571D02*
X038911Y005571D01*
X038911Y005867D02*
X039051Y005867D01*
X038953Y005965D02*
X038911Y005965D01*
X039603Y005965D02*
X041250Y005965D01*
X041315Y006064D02*
X039688Y006064D01*
X039688Y006162D02*
X041376Y006162D01*
X041429Y006261D02*
X039688Y006261D01*
X039688Y006359D02*
X041482Y006359D01*
X041535Y006458D02*
X039619Y006458D01*
X039521Y006556D02*
X041582Y006556D01*
X041622Y006655D02*
X038911Y006655D01*
X038911Y006556D02*
X039035Y006556D01*
X038936Y006458D02*
X038911Y006458D01*
X038911Y006754D02*
X041661Y006754D01*
X041700Y006852D02*
X038911Y006852D01*
X038911Y006951D02*
X041740Y006951D01*
X041779Y007049D02*
X038911Y007049D01*
X038974Y007148D02*
X041818Y007148D01*
X041858Y007246D02*
X040193Y007246D01*
X040272Y007345D02*
X041891Y007345D01*
X041914Y007443D02*
X040296Y007443D01*
X040368Y007542D02*
X041937Y007542D01*
X041960Y007640D02*
X040467Y007640D01*
X040511Y007739D02*
X041983Y007739D01*
X042006Y007838D02*
X040511Y007838D01*
X040511Y007936D02*
X042028Y007936D01*
X042051Y008035D02*
X040511Y008035D01*
X040511Y008133D02*
X042074Y008133D01*
X042084Y008232D02*
X040511Y008232D01*
X040511Y008330D02*
X042092Y008330D01*
X042099Y008429D02*
X040511Y008429D01*
X040511Y008527D02*
X042107Y008527D01*
X042114Y008626D02*
X040511Y008626D01*
X040511Y008724D02*
X042122Y008724D01*
X042129Y008823D02*
X040511Y008823D01*
X040511Y008922D02*
X042137Y008922D01*
X042143Y009020D02*
X040511Y009020D01*
X040511Y009119D02*
X042135Y009119D01*
X042128Y009217D02*
X040511Y009217D01*
X040511Y009316D02*
X042120Y009316D01*
X042113Y009414D02*
X040511Y009414D01*
X040511Y009513D02*
X042105Y009513D01*
X042098Y009611D02*
X040511Y009611D01*
X040511Y009710D02*
X042090Y009710D01*
X042083Y009808D02*
X040511Y009808D01*
X040511Y009907D02*
X042069Y009907D01*
X042046Y010006D02*
X040511Y010006D01*
X040511Y010104D02*
X042023Y010104D01*
X042001Y010203D02*
X040511Y010203D01*
X040511Y010301D02*
X041978Y010301D01*
X041955Y010400D02*
X040511Y010400D01*
X040430Y010498D02*
X041932Y010498D01*
X041909Y010597D02*
X040332Y010597D01*
X040233Y010695D02*
X041886Y010695D01*
X041849Y010794D02*
X040135Y010794D01*
X040036Y010892D02*
X041810Y010892D01*
X041770Y010991D02*
X039938Y010991D01*
X039839Y011089D02*
X041731Y011089D01*
X041692Y011188D02*
X039741Y011188D01*
X039642Y011287D02*
X041652Y011287D01*
X041613Y011385D02*
X039543Y011385D01*
X039445Y011484D02*
X041574Y011484D01*
X041524Y011582D02*
X013388Y011582D01*
X013396Y011602D02*
X013359Y011512D01*
X013290Y011443D01*
X013200Y011406D01*
X013102Y011406D01*
X013012Y011443D01*
X012943Y011512D01*
X012906Y011602D01*
X012906Y011700D01*
X012943Y011790D01*
X013012Y011859D01*
X013102Y011896D01*
X013170Y011896D01*
X013691Y012417D01*
X013785Y012511D01*
X024065Y012511D01*
X024112Y012559D01*
X024202Y012596D01*
X024300Y012596D01*
X024390Y012559D01*
X024459Y012490D01*
X024496Y012400D01*
X024496Y012302D01*
X024459Y012212D01*
X024390Y012143D01*
X024300Y012106D01*
X024202Y012106D01*
X024112Y012143D01*
X024065Y012191D01*
X013917Y012191D01*
X013396Y011670D01*
X013396Y011602D01*
X013407Y011681D02*
X041471Y011681D01*
X041418Y011779D02*
X013506Y011779D01*
X013604Y011878D02*
X041365Y011878D01*
X041301Y011976D02*
X013703Y011976D01*
X013801Y012075D02*
X041236Y012075D01*
X041171Y012173D02*
X024420Y012173D01*
X024484Y012272D02*
X041106Y012272D01*
X041032Y012371D02*
X024496Y012371D01*
X024468Y012469D02*
X040953Y012469D01*
X040874Y012568D02*
X024369Y012568D01*
X024134Y012568D02*
X008601Y012568D01*
X008601Y012601D02*
X008201Y012601D01*
X008201Y012201D01*
X008338Y012201D01*
X008601Y012465D01*
X008601Y012601D01*
X008601Y012701D02*
X008201Y012701D01*
X008101Y012701D01*
X008101Y012601D01*
X007701Y012601D01*
X007701Y012465D01*
X007965Y012201D01*
X008101Y012201D01*
X008101Y012601D01*
X008201Y012601D01*
X008201Y012701D01*
X008201Y013101D01*
X008338Y013101D01*
X008601Y012838D01*
X008601Y012701D01*
X008601Y012765D02*
X011199Y012765D01*
X010626Y012863D02*
X008575Y012863D01*
X008477Y012962D02*
X010236Y012962D01*
X009846Y013060D02*
X008378Y013060D01*
X008201Y013060D02*
X008101Y013060D01*
X008101Y013101D02*
X007965Y013101D01*
X007701Y012838D01*
X007701Y012701D01*
X008101Y012701D01*
X008101Y013101D01*
X008101Y012962D02*
X008201Y012962D01*
X008201Y012863D02*
X008101Y012863D01*
X008101Y012765D02*
X008201Y012765D01*
X008201Y012666D02*
X011889Y012666D01*
X013349Y012075D02*
X009412Y012075D01*
X009421Y012097D02*
X009380Y011998D01*
X009341Y011959D01*
X009341Y009128D01*
X009341Y008970D01*
X008924Y008552D01*
X008924Y008497D01*
X008882Y008398D01*
X008806Y008322D01*
X008707Y008281D01*
X008600Y008281D01*
X008501Y008322D01*
X008425Y008398D01*
X008384Y008497D01*
X008384Y008605D01*
X008425Y008704D01*
X008501Y008780D01*
X008600Y008821D01*
X008655Y008821D01*
X008961Y009128D01*
X008961Y011959D01*
X008922Y011998D01*
X008881Y012097D01*
X008881Y012205D01*
X008922Y012304D01*
X008998Y012380D01*
X009097Y012421D01*
X009205Y012421D01*
X009304Y012380D01*
X009380Y012304D01*
X009421Y012205D01*
X009421Y012097D01*
X009421Y012173D02*
X013447Y012173D01*
X013546Y012272D02*
X009393Y012272D01*
X009314Y012371D02*
X013644Y012371D01*
X013743Y012469D02*
X008601Y012469D01*
X008507Y012371D02*
X008989Y012371D01*
X008909Y012272D02*
X008408Y012272D01*
X008201Y012272D02*
X008101Y012272D01*
X008101Y012371D02*
X008201Y012371D01*
X008201Y012469D02*
X008101Y012469D01*
X008101Y012568D02*
X008201Y012568D01*
X008101Y012666D02*
X007561Y012666D01*
X007561Y012568D02*
X007701Y012568D01*
X007701Y012469D02*
X007549Y012469D01*
X007450Y012371D02*
X007795Y012371D01*
X007894Y012272D02*
X007352Y012272D01*
X007341Y012173D02*
X008881Y012173D01*
X008890Y012075D02*
X007341Y012075D01*
X007341Y011976D02*
X008944Y011976D01*
X008961Y011878D02*
X007341Y011878D01*
X007341Y011779D02*
X008961Y011779D01*
X008961Y011681D02*
X007341Y011681D01*
X007341Y011582D02*
X008961Y011582D01*
X008961Y011484D02*
X007341Y011484D01*
X007341Y011385D02*
X008961Y011385D01*
X008961Y011287D02*
X007341Y011287D01*
X007341Y011188D02*
X008961Y011188D01*
X008961Y011089D02*
X007341Y011089D01*
X007341Y010991D02*
X008961Y010991D01*
X008961Y010892D02*
X007341Y010892D01*
X007341Y010794D02*
X008961Y010794D01*
X008961Y010695D02*
X007341Y010695D01*
X007341Y010597D02*
X008961Y010597D01*
X008961Y010498D02*
X007341Y010498D01*
X007341Y010400D02*
X008961Y010400D01*
X008961Y010301D02*
X007341Y010301D01*
X007341Y010203D02*
X008961Y010203D01*
X008961Y010104D02*
X007341Y010104D01*
X007341Y010006D02*
X008961Y010006D01*
X008961Y009907D02*
X007341Y009907D01*
X007341Y009808D02*
X008961Y009808D01*
X008961Y009710D02*
X007341Y009710D01*
X007341Y009611D02*
X008961Y009611D01*
X008961Y009513D02*
X007341Y009513D01*
X007341Y009414D02*
X008961Y009414D01*
X008961Y009316D02*
X007341Y009316D01*
X007341Y009217D02*
X008961Y009217D01*
X008952Y009119D02*
X007341Y009119D01*
X007341Y009020D02*
X008854Y009020D01*
X008755Y008922D02*
X007341Y008922D01*
X007341Y008823D02*
X008657Y008823D01*
X008445Y008724D02*
X007341Y008724D01*
X007341Y008626D02*
X008392Y008626D01*
X008384Y008527D02*
X007341Y008527D01*
X007341Y008429D02*
X008412Y008429D01*
X008493Y008330D02*
X007341Y008330D01*
X007341Y008232D02*
X012206Y008232D01*
X012206Y008202D02*
X012243Y008112D01*
X012312Y008043D01*
X012402Y008006D01*
X012470Y008006D01*
X012716Y007760D01*
X012849Y007760D01*
X013414Y007760D01*
X013412Y007759D01*
X013343Y007690D01*
X013306Y007600D01*
X013306Y007502D01*
X013097Y007443D02*
X010128Y007443D01*
X010226Y007345D02*
X013025Y007345D01*
X013006Y007246D02*
X010325Y007246D01*
X010423Y007148D02*
X013029Y007148D01*
X013107Y007049D02*
X010522Y007049D01*
X010620Y006951D02*
X013325Y006951D01*
X013424Y006852D02*
X010719Y006852D01*
X010379Y006655D02*
X007341Y006655D01*
X007341Y006556D02*
X010477Y006556D01*
X010280Y006754D02*
X007341Y006754D01*
X007341Y006852D02*
X010181Y006852D01*
X010083Y006951D02*
X007341Y006951D01*
X007341Y007049D02*
X009984Y007049D01*
X009886Y007148D02*
X007341Y007148D01*
X007341Y007246D02*
X009787Y007246D01*
X009689Y007345D02*
X007341Y007345D01*
X007341Y007443D02*
X009590Y007443D01*
X009416Y007542D02*
X007341Y007542D01*
X007341Y007640D02*
X009332Y007640D01*
X009306Y007739D02*
X007341Y007739D01*
X007341Y007838D02*
X009322Y007838D01*
X009390Y007936D02*
X007341Y007936D01*
X007341Y008035D02*
X012334Y008035D01*
X012235Y008133D02*
X007341Y008133D01*
X006961Y008133D02*
X003958Y008133D01*
X003919Y008149D02*
X004039Y008099D01*
X004131Y008007D01*
X004181Y007887D01*
X004181Y007757D01*
X004131Y007637D01*
X004039Y007545D01*
X003919Y007495D01*
X003789Y007495D01*
X003669Y007545D01*
X003577Y007637D01*
X003527Y007757D01*
X003527Y007887D01*
X003577Y008007D01*
X003669Y008099D01*
X003789Y008149D01*
X003919Y008149D01*
X003750Y008133D02*
X001905Y008133D01*
X001910Y008035D02*
X003604Y008035D01*
X003547Y007936D02*
X001916Y007936D01*
X001921Y007838D02*
X003527Y007838D01*
X003534Y007739D02*
X001937Y007739D01*
X001954Y007640D02*
X003575Y007640D01*
X003675Y007542D02*
X001971Y007542D01*
X001987Y007443D02*
X006961Y007443D01*
X006961Y007345D02*
X002004Y007345D01*
X002020Y007246D02*
X006961Y007246D01*
X006961Y007148D02*
X002037Y007148D01*
X002054Y007049D02*
X006961Y007049D01*
X006961Y006951D02*
X002070Y006951D01*
X002087Y006852D02*
X006961Y006852D01*
X006961Y006754D02*
X002104Y006754D01*
X002121Y006655D02*
X006961Y006655D01*
X006961Y006556D02*
X002147Y006556D01*
X002172Y006458D02*
X006903Y006458D01*
X006881Y006359D02*
X002197Y006359D01*
X002222Y006261D02*
X006896Y006261D01*
X006958Y006162D02*
X002247Y006162D01*
X002288Y006064D02*
X010568Y006064D01*
X010538Y005965D02*
X002343Y005965D01*
X002398Y005867D02*
X010538Y005867D01*
X010538Y005768D02*
X002460Y005768D01*
X002534Y005670D02*
X010563Y005670D01*
X010662Y005571D02*
X002607Y005571D01*
X002681Y005473D02*
X010760Y005473D01*
X010778Y005194D02*
X010778Y005194D01*
X010710Y005177D02*
X007079Y005177D01*
X007143Y005078D02*
X010320Y005078D01*
X009930Y004980D02*
X007169Y004980D01*
X007167Y004881D02*
X009565Y004881D01*
X009618Y004901D02*
X009618Y004901D01*
X009297Y004783D02*
X007126Y004783D01*
X007037Y004684D02*
X009030Y004684D01*
X006646Y004684D02*
X005856Y004684D01*
X005945Y004783D02*
X006557Y004783D01*
X006517Y004881D02*
X005986Y004881D01*
X005988Y004980D02*
X006515Y004980D01*
X006540Y005078D02*
X005962Y005078D01*
X005898Y005177D02*
X006605Y005177D01*
X007344Y006162D02*
X010667Y006162D01*
X010765Y006261D02*
X007406Y006261D01*
X006961Y007542D02*
X004033Y007542D01*
X004133Y007640D02*
X006961Y007640D01*
X006961Y007739D02*
X004174Y007739D01*
X004181Y007838D02*
X006961Y007838D01*
X006961Y007936D02*
X004161Y007936D01*
X004104Y008035D02*
X006961Y008035D01*
X006961Y008232D02*
X001899Y008232D01*
X001894Y008330D02*
X006961Y008330D01*
X006961Y008429D02*
X001888Y008429D01*
X001883Y008527D02*
X006961Y008527D01*
X006961Y008626D02*
X001877Y008626D01*
X001872Y008724D02*
X006961Y008724D01*
X006961Y008823D02*
X001866Y008823D01*
X001861Y008922D02*
X006961Y008922D01*
X006961Y009020D02*
X001857Y009020D01*
X001862Y009119D02*
X006961Y009119D01*
X006961Y009217D02*
X001868Y009217D01*
X001873Y009316D02*
X003630Y009316D01*
X003669Y009277D02*
X003577Y009369D01*
X003527Y009489D01*
X003527Y009619D01*
X003577Y009740D01*
X003669Y009832D01*
X003789Y009881D01*
X003919Y009881D01*
X004039Y009832D01*
X004131Y009740D01*
X004181Y009619D01*
X004181Y009489D01*
X004131Y009369D01*
X004039Y009277D01*
X003919Y009227D01*
X003789Y009227D01*
X003669Y009277D01*
X003558Y009414D02*
X001879Y009414D01*
X001884Y009513D02*
X003527Y009513D01*
X003527Y009611D02*
X001890Y009611D01*
X001895Y009710D02*
X003564Y009710D01*
X003645Y009808D02*
X001901Y009808D01*
X001906Y009907D02*
X006961Y009907D01*
X006961Y010006D02*
X001912Y010006D01*
X001917Y010104D02*
X006961Y010104D01*
X006961Y010203D02*
X001924Y010203D01*
X001941Y010301D02*
X006961Y010301D01*
X006961Y010400D02*
X001958Y010400D01*
X001974Y010498D02*
X006961Y010498D01*
X006961Y010597D02*
X001991Y010597D01*
X002007Y010695D02*
X006961Y010695D01*
X006961Y010794D02*
X002024Y010794D01*
X002041Y010892D02*
X006961Y010892D01*
X006961Y010991D02*
X002057Y010991D01*
X002074Y011089D02*
X006961Y011089D01*
X006961Y011188D02*
X002090Y011188D01*
X002107Y011287D02*
X006961Y011287D01*
X006961Y011385D02*
X002127Y011385D01*
X002152Y011484D02*
X006961Y011484D01*
X006961Y011582D02*
X002177Y011582D01*
X002202Y011681D02*
X006961Y011681D01*
X006961Y011779D02*
X002228Y011779D01*
X002253Y011878D02*
X006961Y011878D01*
X006961Y011976D02*
X002300Y011976D01*
X002355Y012075D02*
X006961Y012075D01*
X006961Y012173D02*
X002410Y012173D01*
X002476Y012272D02*
X006951Y012272D01*
X006852Y012371D02*
X002550Y012371D01*
X002623Y012469D02*
X006753Y012469D01*
X006741Y012568D02*
X002697Y012568D01*
X002771Y012666D02*
X006741Y012666D01*
X006741Y012765D02*
X002844Y012765D01*
X002935Y012863D02*
X006783Y012863D01*
X006882Y012962D02*
X003040Y012962D01*
X003144Y013060D02*
X006981Y013060D01*
X007322Y013060D02*
X007924Y013060D01*
X007825Y012962D02*
X007420Y012962D01*
X007519Y012863D02*
X007727Y012863D01*
X007701Y012765D02*
X007561Y012765D01*
X008704Y013455D02*
X003626Y013455D01*
X003776Y013553D02*
X008452Y013553D01*
X008252Y013652D02*
X003925Y013652D01*
X004096Y013750D02*
X008052Y013750D01*
X007840Y013849D02*
X004323Y013849D01*
X004551Y013947D02*
X007614Y013947D01*
X007278Y014046D02*
X004830Y014046D01*
X005242Y014144D02*
X006942Y014144D01*
X008972Y013356D02*
X003476Y013356D01*
X003354Y013257D02*
X009239Y013257D01*
X009507Y013159D02*
X003249Y013159D01*
X009358Y011976D02*
X013250Y011976D01*
X013058Y011878D02*
X009341Y011878D01*
X009341Y011779D02*
X012939Y011779D01*
X012906Y011681D02*
X009341Y011681D01*
X009341Y011582D02*
X012915Y011582D01*
X012972Y011484D02*
X009341Y011484D01*
X009341Y011385D02*
X013359Y011385D01*
X013330Y011484D02*
X013457Y011484D01*
X013551Y011351D02*
X039351Y011351D01*
X040351Y010351D01*
X040351Y007751D01*
X040051Y007451D01*
X039824Y007542D02*
X039368Y007542D01*
X039270Y007443D02*
X039806Y007443D01*
X039830Y007345D02*
X039171Y007345D01*
X039073Y007246D02*
X039910Y007246D01*
X039894Y007640D02*
X039467Y007640D01*
X039565Y007739D02*
X040113Y007739D01*
X040191Y007838D02*
X039664Y007838D01*
X039762Y007936D02*
X040191Y007936D01*
X040191Y008035D02*
X039861Y008035D01*
X039959Y008133D02*
X040191Y008133D01*
X040191Y008232D02*
X040058Y008232D01*
X040156Y008330D02*
X040191Y008330D01*
X039600Y008626D02*
X038410Y008626D01*
X038312Y008527D02*
X039501Y008527D01*
X039403Y008429D02*
X038213Y008429D01*
X038115Y008330D02*
X039304Y008330D01*
X039205Y008232D02*
X038016Y008232D01*
X037918Y008133D02*
X039107Y008133D01*
X039008Y008035D02*
X037819Y008035D01*
X037721Y007936D02*
X038910Y007936D01*
X038811Y007838D02*
X037622Y007838D01*
X037524Y007739D02*
X038713Y007739D01*
X038614Y007640D02*
X037425Y007640D01*
X037326Y007542D02*
X038516Y007542D01*
X038417Y007443D02*
X037228Y007443D01*
X037129Y007345D02*
X038319Y007345D01*
X038220Y007246D02*
X037031Y007246D01*
X036932Y007148D02*
X038121Y007148D01*
X038023Y007049D02*
X036834Y007049D01*
X036735Y006951D02*
X037924Y006951D01*
X037826Y006852D02*
X035872Y006852D01*
X035970Y006754D02*
X037727Y006754D01*
X037629Y006655D02*
X036069Y006655D01*
X036628Y007070D02*
X023470Y007070D01*
X023151Y006751D01*
X013751Y006751D01*
X013251Y007251D01*
X013328Y006754D02*
X013522Y006754D01*
X013393Y007739D02*
X009832Y007739D01*
X009781Y007838D02*
X012639Y007838D01*
X012540Y007936D02*
X009713Y007936D01*
X008814Y008330D02*
X012219Y008330D01*
X012206Y008300D02*
X012243Y008390D01*
X012312Y008459D01*
X012402Y008496D01*
X012500Y008496D01*
X012590Y008459D01*
X012619Y008430D01*
X012643Y008490D01*
X012705Y008551D01*
X012643Y008612D01*
X012606Y008702D01*
X012606Y008800D01*
X012643Y008890D01*
X012712Y008959D01*
X012802Y008996D01*
X012900Y008996D01*
X012990Y008959D01*
X013019Y008930D01*
X013043Y008990D01*
X013112Y009059D01*
X013172Y009084D01*
X013143Y009112D01*
X013106Y009202D01*
X013106Y009300D01*
X013143Y009390D01*
X013212Y009459D01*
X013291Y009491D01*
X012338Y009491D01*
X012290Y009443D01*
X012200Y009406D01*
X012102Y009406D01*
X012012Y009443D01*
X011943Y009512D01*
X011906Y009602D01*
X011906Y009700D01*
X011943Y009790D01*
X012012Y009859D01*
X012102Y009896D01*
X012200Y009896D01*
X012290Y009859D01*
X012338Y009811D01*
X023185Y009811D01*
X023691Y010317D01*
X023785Y010411D01*
X024580Y010411D01*
X024713Y010411D01*
X025084Y010040D01*
X025381Y010040D01*
X025598Y009823D01*
X025598Y009516D01*
X025381Y009300D01*
X025075Y009300D01*
X024858Y009516D01*
X024858Y009813D01*
X024580Y010091D01*
X023917Y010091D01*
X023317Y009491D01*
X023185Y009491D01*
X013412Y009491D01*
X013490Y009459D01*
X013559Y009390D01*
X013596Y009300D01*
X013596Y009280D01*
X026612Y009280D01*
X026858Y009526D01*
X026858Y009823D01*
X027075Y010040D01*
X027381Y010040D01*
X027598Y009823D01*
X027598Y009516D01*
X027381Y009300D01*
X027084Y009300D01*
X026838Y009053D01*
X026764Y008980D01*
X028312Y008980D01*
X028858Y009526D01*
X028858Y009823D01*
X029075Y010040D01*
X029381Y010040D01*
X029598Y009823D01*
X029598Y009516D01*
X029381Y009300D01*
X029084Y009300D01*
X028538Y008753D01*
X028464Y008680D01*
X030012Y008680D01*
X030858Y009526D01*
X030858Y009823D01*
X031075Y010040D01*
X031381Y010040D01*
X031598Y009823D01*
X031598Y009516D01*
X031381Y009300D01*
X031084Y009300D01*
X030238Y008453D01*
X030144Y008360D01*
X013149Y008360D01*
X013096Y008360D01*
X013096Y008332D01*
X013117Y008311D01*
X031643Y008311D01*
X032858Y009526D01*
X032858Y009823D01*
X033075Y010040D01*
X033381Y010040D01*
X033598Y009823D01*
X033598Y009516D01*
X033381Y009300D01*
X033084Y009300D01*
X031869Y008085D01*
X031864Y008080D01*
X032212Y008080D01*
X033312Y009180D01*
X033444Y009180D01*
X034512Y009180D01*
X034858Y009526D01*
X034858Y009823D01*
X035075Y010040D01*
X035381Y010040D01*
X035598Y009823D01*
X035598Y009516D01*
X035381Y009300D01*
X035084Y009300D01*
X034644Y008860D01*
X034512Y008860D01*
X033444Y008860D01*
X032438Y007853D01*
X032364Y007780D01*
X033012Y007780D01*
X033533Y008301D01*
X033533Y008368D01*
X033570Y008458D01*
X033639Y008527D01*
X033112Y008527D01*
X033013Y008429D02*
X033558Y008429D01*
X033533Y008330D02*
X032915Y008330D01*
X032816Y008232D02*
X033464Y008232D01*
X033365Y008133D02*
X032718Y008133D01*
X032619Y008035D02*
X033267Y008035D01*
X033168Y007936D02*
X032521Y007936D01*
X032422Y007838D02*
X033070Y007838D01*
X033078Y007620D02*
X023028Y007620D01*
X022728Y007320D01*
X016583Y007320D01*
X016351Y007551D01*
X013283Y008820D02*
X013251Y008851D01*
X013283Y008820D02*
X028378Y008820D01*
X029228Y009670D01*
X029514Y009907D02*
X029942Y009907D01*
X029858Y009823D02*
X029858Y009516D01*
X030075Y009300D01*
X030381Y009300D01*
X030598Y009516D01*
X030598Y009823D01*
X030381Y010040D01*
X030075Y010040D01*
X029858Y009823D01*
X029858Y009808D02*
X029598Y009808D01*
X029598Y009710D02*
X029858Y009710D01*
X029858Y009611D02*
X029598Y009611D01*
X029594Y009513D02*
X029862Y009513D01*
X029960Y009414D02*
X029496Y009414D01*
X029397Y009316D02*
X030059Y009316D01*
X030397Y009316D02*
X030648Y009316D01*
X030746Y009414D02*
X030496Y009414D01*
X030594Y009513D02*
X030845Y009513D01*
X030858Y009611D02*
X030598Y009611D01*
X030598Y009710D02*
X030858Y009710D01*
X030858Y009808D02*
X030598Y009808D01*
X030514Y009907D02*
X030942Y009907D01*
X031041Y010006D02*
X030415Y010006D01*
X030041Y010006D02*
X029415Y010006D01*
X029041Y010006D02*
X028415Y010006D01*
X028381Y010040D02*
X028075Y010040D01*
X027858Y009823D01*
X027858Y009516D01*
X028075Y009300D01*
X028381Y009300D01*
X028598Y009516D01*
X028598Y009823D01*
X028381Y010040D01*
X028514Y009907D02*
X028942Y009907D01*
X028858Y009808D02*
X028598Y009808D01*
X028598Y009710D02*
X028858Y009710D01*
X028858Y009611D02*
X028598Y009611D01*
X028594Y009513D02*
X028845Y009513D01*
X028746Y009414D02*
X028496Y009414D01*
X028397Y009316D02*
X028648Y009316D01*
X028549Y009217D02*
X027002Y009217D01*
X026903Y009119D02*
X028451Y009119D01*
X028352Y009020D02*
X026805Y009020D01*
X026678Y009120D02*
X013483Y009120D01*
X013351Y009251D01*
X013168Y009414D02*
X012219Y009414D01*
X012083Y009414D02*
X009341Y009414D01*
X009341Y009316D02*
X013113Y009316D01*
X013106Y009217D02*
X009341Y009217D01*
X009341Y009119D02*
X013141Y009119D01*
X013074Y009020D02*
X009341Y009020D01*
X009293Y008922D02*
X012675Y008922D01*
X012616Y008823D02*
X009194Y008823D01*
X009096Y008724D02*
X012606Y008724D01*
X012638Y008626D02*
X008997Y008626D01*
X008924Y008527D02*
X012681Y008527D01*
X012851Y008351D02*
X013051Y008151D01*
X031709Y008151D01*
X033228Y009670D01*
X033514Y009907D02*
X033942Y009907D01*
X033858Y009823D02*
X033858Y009516D01*
X034075Y009300D01*
X034381Y009300D01*
X034598Y009516D01*
X034598Y009823D01*
X034381Y010040D01*
X034075Y010040D01*
X033858Y009823D01*
X033858Y009808D02*
X033598Y009808D01*
X033598Y009710D02*
X033858Y009710D01*
X033858Y009611D02*
X033598Y009611D01*
X033594Y009513D02*
X033862Y009513D01*
X033960Y009414D02*
X033496Y009414D01*
X033397Y009316D02*
X034059Y009316D01*
X034397Y009316D02*
X034648Y009316D01*
X034746Y009414D02*
X034496Y009414D01*
X034594Y009513D02*
X034845Y009513D01*
X034858Y009611D02*
X034598Y009611D01*
X034598Y009710D02*
X034858Y009710D01*
X034858Y009808D02*
X034598Y009808D01*
X034514Y009907D02*
X034942Y009907D01*
X035041Y010006D02*
X034415Y010006D01*
X034041Y010006D02*
X033415Y010006D01*
X033041Y010006D02*
X032415Y010006D01*
X032381Y010040D02*
X032075Y010040D01*
X031858Y009823D01*
X031858Y009516D01*
X032075Y009300D01*
X032381Y009300D01*
X032598Y009516D01*
X032598Y009823D01*
X032381Y010040D01*
X032514Y009907D02*
X032942Y009907D01*
X032858Y009808D02*
X032598Y009808D01*
X032598Y009710D02*
X032858Y009710D01*
X032858Y009611D02*
X032598Y009611D01*
X032594Y009513D02*
X032845Y009513D01*
X032746Y009414D02*
X032496Y009414D01*
X032397Y009316D02*
X032648Y009316D01*
X032549Y009217D02*
X031002Y009217D01*
X030903Y009119D02*
X032451Y009119D01*
X032352Y009020D02*
X030805Y009020D01*
X030706Y008922D02*
X032254Y008922D01*
X032155Y008823D02*
X030608Y008823D01*
X030509Y008724D02*
X032056Y008724D01*
X031958Y008626D02*
X030410Y008626D01*
X030312Y008527D02*
X031859Y008527D01*
X031761Y008429D02*
X030213Y008429D01*
X030078Y008520D02*
X013083Y008520D01*
X012851Y008751D01*
X012282Y008429D02*
X008895Y008429D01*
X006961Y009316D02*
X004078Y009316D01*
X004150Y009414D02*
X006961Y009414D01*
X006961Y009513D02*
X004181Y009513D01*
X004181Y009611D02*
X006961Y009611D01*
X006961Y009710D02*
X004144Y009710D01*
X004062Y009808D02*
X006961Y009808D01*
X009341Y009808D02*
X011962Y009808D01*
X011910Y009710D02*
X009341Y009710D01*
X009341Y009611D02*
X011906Y009611D01*
X011943Y009513D02*
X009341Y009513D01*
X009341Y009907D02*
X023281Y009907D01*
X023379Y010006D02*
X009341Y010006D01*
X009341Y010104D02*
X023478Y010104D01*
X023576Y010203D02*
X015229Y010203D01*
X015327Y010301D02*
X023675Y010301D01*
X023773Y010400D02*
X015426Y010400D01*
X015451Y010651D02*
X015151Y010351D01*
X013651Y010351D01*
X013453Y010203D02*
X012629Y010203D01*
X012727Y010301D02*
X013407Y010301D01*
X013406Y010400D02*
X012826Y010400D01*
X012924Y010498D02*
X013452Y010498D01*
X012669Y010695D02*
X009341Y010695D01*
X009341Y010597D02*
X012571Y010597D01*
X012768Y010794D02*
X009341Y010794D01*
X009341Y010892D02*
X012866Y010892D01*
X012965Y010991D02*
X009341Y010991D01*
X009341Y011089D02*
X013063Y011089D01*
X013162Y011188D02*
X009341Y011188D01*
X009341Y011287D02*
X013260Y011287D01*
X013551Y011351D02*
X012551Y010351D01*
X012051Y010351D01*
X011853Y010203D02*
X009341Y010203D01*
X009341Y010301D02*
X011807Y010301D01*
X011806Y010400D02*
X009341Y010400D01*
X009341Y010498D02*
X011852Y010498D01*
X012151Y009651D02*
X023251Y009651D01*
X023851Y010251D01*
X024646Y010251D01*
X025228Y009670D01*
X025514Y009907D02*
X025942Y009907D01*
X025858Y009823D02*
X025858Y009516D01*
X026075Y009300D01*
X026381Y009300D01*
X026598Y009516D01*
X026598Y009823D01*
X026381Y010040D01*
X026075Y010040D01*
X025858Y009823D01*
X025858Y009808D02*
X025598Y009808D01*
X025598Y009710D02*
X025858Y009710D01*
X025858Y009611D02*
X025598Y009611D01*
X025594Y009513D02*
X025862Y009513D01*
X025960Y009414D02*
X025496Y009414D01*
X025397Y009316D02*
X026059Y009316D01*
X026397Y009316D02*
X026648Y009316D01*
X026746Y009414D02*
X026496Y009414D01*
X026594Y009513D02*
X026845Y009513D01*
X026858Y009611D02*
X026598Y009611D01*
X026598Y009710D02*
X026858Y009710D01*
X026858Y009808D02*
X026598Y009808D01*
X026514Y009907D02*
X026942Y009907D01*
X027041Y010006D02*
X026415Y010006D01*
X026041Y010006D02*
X025415Y010006D01*
X025020Y010104D02*
X031452Y010104D01*
X031415Y010006D02*
X032041Y010006D01*
X031942Y009907D02*
X031514Y009907D01*
X031598Y009808D02*
X031858Y009808D01*
X031858Y009710D02*
X031598Y009710D01*
X031598Y009611D02*
X031858Y009611D01*
X031862Y009513D02*
X031594Y009513D01*
X031496Y009414D02*
X031960Y009414D01*
X032059Y009316D02*
X031397Y009316D01*
X030549Y009217D02*
X029002Y009217D01*
X028903Y009119D02*
X030451Y009119D01*
X030352Y009020D02*
X028805Y009020D01*
X028706Y008922D02*
X030254Y008922D01*
X030155Y008823D02*
X028608Y008823D01*
X028509Y008724D02*
X030056Y008724D01*
X030078Y008520D02*
X031228Y009670D01*
X031851Y010104D02*
X039672Y010104D01*
X039691Y010006D02*
X039415Y010006D01*
X039514Y009907D02*
X039691Y009907D01*
X039691Y009808D02*
X039598Y009808D01*
X039598Y009710D02*
X039691Y009710D01*
X039691Y009611D02*
X039598Y009611D01*
X039594Y009513D02*
X039691Y009513D01*
X039691Y009414D02*
X039496Y009414D01*
X039397Y009316D02*
X039691Y009316D01*
X039691Y009217D02*
X039002Y009217D01*
X038903Y009119D02*
X039691Y009119D01*
X039691Y009020D02*
X038805Y009020D01*
X038706Y008922D02*
X039691Y008922D01*
X039691Y008823D02*
X038607Y008823D01*
X038509Y008724D02*
X039691Y008724D01*
X038549Y009217D02*
X037002Y009217D01*
X036903Y009119D02*
X038451Y009119D01*
X038352Y009020D02*
X036805Y009020D01*
X036706Y008922D02*
X038254Y008922D01*
X038155Y008823D02*
X036607Y008823D01*
X036509Y008724D02*
X038056Y008724D01*
X037958Y008626D02*
X036410Y008626D01*
X036312Y008527D02*
X037859Y008527D01*
X037761Y008429D02*
X036213Y008429D01*
X036115Y008330D02*
X037662Y008330D01*
X037564Y008232D02*
X036016Y008232D01*
X035918Y008133D02*
X037465Y008133D01*
X037367Y008035D02*
X035819Y008035D01*
X035721Y007936D02*
X037268Y007936D01*
X037170Y007838D02*
X035622Y007838D01*
X035524Y007739D02*
X037071Y007739D01*
X036973Y007640D02*
X035425Y007640D01*
X035326Y007542D02*
X036874Y007542D01*
X036775Y007443D02*
X035228Y007443D01*
X035129Y007345D02*
X036677Y007345D01*
X036578Y007246D02*
X035031Y007246D01*
X034878Y007320D02*
X037228Y009670D01*
X037514Y009907D02*
X037942Y009907D01*
X037858Y009823D02*
X038075Y010040D01*
X038381Y010040D01*
X038598Y009823D01*
X038598Y009516D01*
X038381Y009300D01*
X038075Y009300D01*
X037858Y009516D01*
X037858Y009823D01*
X037858Y009808D02*
X037598Y009808D01*
X037598Y009710D02*
X037858Y009710D01*
X037858Y009611D02*
X037598Y009611D01*
X037594Y009513D02*
X037862Y009513D01*
X037960Y009414D02*
X037496Y009414D01*
X037397Y009316D02*
X038059Y009316D01*
X038397Y009316D02*
X038648Y009316D01*
X038746Y009414D02*
X038496Y009414D01*
X038594Y009513D02*
X038845Y009513D01*
X038858Y009611D02*
X038598Y009611D01*
X038598Y009710D02*
X038858Y009710D01*
X038858Y009808D02*
X038598Y009808D01*
X038514Y009907D02*
X038942Y009907D01*
X039041Y010006D02*
X038415Y010006D01*
X038041Y010006D02*
X037415Y010006D01*
X037041Y010006D02*
X036415Y010006D01*
X036381Y010040D02*
X036075Y010040D01*
X035858Y009823D01*
X035858Y009516D01*
X036075Y009300D01*
X036381Y009300D01*
X036598Y009516D01*
X036598Y009823D01*
X036381Y010040D01*
X036514Y009907D02*
X036942Y009907D01*
X036858Y009808D02*
X036598Y009808D01*
X036598Y009710D02*
X036858Y009710D01*
X036858Y009611D02*
X036598Y009611D01*
X036594Y009513D02*
X036845Y009513D01*
X036746Y009414D02*
X036496Y009414D01*
X036397Y009316D02*
X036648Y009316D01*
X036549Y009217D02*
X035002Y009217D01*
X034903Y009119D02*
X036451Y009119D01*
X036352Y009020D02*
X034805Y009020D01*
X034706Y008922D02*
X036254Y008922D01*
X036155Y008823D02*
X033408Y008823D01*
X033309Y008724D02*
X036056Y008724D01*
X035958Y008626D02*
X033210Y008626D01*
X032955Y008823D02*
X032608Y008823D01*
X032706Y008922D02*
X033054Y008922D01*
X033152Y009020D02*
X032805Y009020D01*
X032903Y009119D02*
X033251Y009119D01*
X033378Y009020D02*
X032278Y007920D01*
X012783Y007920D01*
X012451Y008251D01*
X012206Y008300D02*
X012206Y008202D01*
X013098Y008330D02*
X031662Y008330D01*
X031918Y008133D02*
X032265Y008133D01*
X032364Y008232D02*
X032016Y008232D01*
X032115Y008330D02*
X032462Y008330D01*
X032561Y008429D02*
X032213Y008429D01*
X032312Y008527D02*
X032659Y008527D01*
X032758Y008626D02*
X032410Y008626D01*
X032509Y008724D02*
X032856Y008724D01*
X033378Y009020D02*
X034578Y009020D01*
X035228Y009670D01*
X035514Y009907D02*
X035942Y009907D01*
X035858Y009808D02*
X035598Y009808D01*
X035598Y009710D02*
X035858Y009710D01*
X035858Y009611D02*
X035598Y009611D01*
X035594Y009513D02*
X035862Y009513D01*
X035960Y009414D02*
X035496Y009414D01*
X035397Y009316D02*
X036059Y009316D01*
X034549Y009217D02*
X033002Y009217D01*
X033639Y008527D02*
X033729Y008565D01*
X033827Y008565D01*
X033917Y008527D01*
X033778Y008320D02*
X033078Y007620D01*
X036628Y007070D02*
X039228Y009670D01*
X039573Y010203D02*
X031896Y010203D01*
X031896Y010301D02*
X039475Y010301D01*
X039376Y010400D02*
X031849Y010400D01*
X031630Y010498D02*
X039278Y010498D01*
X039179Y010597D02*
X031532Y010597D01*
X031251Y010651D02*
X031651Y010251D01*
X031406Y010203D02*
X024921Y010203D01*
X024823Y010301D02*
X031375Y010301D01*
X031276Y010400D02*
X024724Y010400D01*
X024666Y010006D02*
X024415Y010006D01*
X024381Y010040D02*
X024075Y010040D01*
X023858Y009823D01*
X023858Y009516D01*
X024075Y009300D01*
X024381Y009300D01*
X024598Y009516D01*
X024598Y009823D01*
X024381Y010040D01*
X024514Y009907D02*
X024764Y009907D01*
X024858Y009808D02*
X024598Y009808D01*
X024598Y009710D02*
X024858Y009710D01*
X024858Y009611D02*
X024598Y009611D01*
X024594Y009513D02*
X024862Y009513D01*
X024960Y009414D02*
X024496Y009414D01*
X024397Y009316D02*
X025059Y009316D01*
X024059Y009316D02*
X013590Y009316D01*
X013535Y009414D02*
X023960Y009414D01*
X023862Y009513D02*
X023339Y009513D01*
X023438Y009611D02*
X023858Y009611D01*
X023858Y009710D02*
X023536Y009710D01*
X023635Y009808D02*
X023858Y009808D01*
X023942Y009907D02*
X023733Y009907D01*
X023832Y010006D02*
X024041Y010006D01*
X026678Y009120D02*
X027228Y009670D01*
X027514Y009907D02*
X027942Y009907D01*
X027858Y009808D02*
X027598Y009808D01*
X027598Y009710D02*
X027858Y009710D01*
X027858Y009611D02*
X027598Y009611D01*
X027594Y009513D02*
X027862Y009513D01*
X027960Y009414D02*
X027496Y009414D01*
X027397Y009316D02*
X028059Y009316D01*
X028041Y010006D02*
X027415Y010006D01*
X031251Y010651D02*
X015451Y010651D01*
X013851Y012351D02*
X013151Y011651D01*
X013900Y012173D02*
X024082Y012173D01*
X024251Y012351D02*
X013851Y012351D01*
X013938Y012666D02*
X040795Y012666D01*
X040716Y012765D02*
X014748Y012765D01*
X015350Y012863D02*
X040637Y012863D01*
X040558Y012962D02*
X015974Y012962D01*
X016598Y013060D02*
X040479Y013060D01*
X040386Y013159D02*
X017222Y013159D01*
X017846Y013257D02*
X040285Y013257D01*
X040183Y013356D02*
X018470Y013356D01*
X019094Y013455D02*
X040082Y013455D01*
X039981Y013553D02*
X019718Y013553D01*
X020343Y013652D02*
X039880Y013652D01*
X039779Y013750D02*
X020967Y013750D01*
X021591Y013849D02*
X039663Y013849D01*
X039533Y013947D02*
X022215Y013947D01*
X022839Y014046D02*
X039403Y014046D01*
X039273Y014144D02*
X023463Y014144D01*
X024087Y014243D02*
X039143Y014243D01*
X039014Y014341D02*
X024711Y014341D01*
X025335Y014440D02*
X038872Y014440D01*
X038702Y014539D02*
X025959Y014539D01*
X026584Y014637D02*
X038532Y014637D01*
X038362Y014736D02*
X027208Y014736D01*
X027832Y014834D02*
X038192Y014834D01*
X038013Y014933D02*
X028456Y014933D01*
X029080Y015031D02*
X037781Y015031D01*
X037549Y015130D02*
X029704Y015130D01*
X030328Y015228D02*
X037317Y015228D01*
X037071Y015327D02*
X030952Y015327D01*
X031576Y015425D02*
X036726Y015425D01*
X036382Y015524D02*
X032200Y015524D01*
X032825Y015622D02*
X035949Y015622D01*
X035320Y015721D02*
X033449Y015721D01*
X035415Y010006D02*
X036041Y010006D01*
X037521Y006556D02*
X037591Y006556D01*
X035278Y005220D02*
X035278Y004520D01*
X035078Y004320D01*
X021714Y006162D02*
X017009Y006162D01*
X012704Y005473D02*
X012137Y005473D01*
X012235Y005571D02*
X012605Y005571D01*
X012507Y005670D02*
X012334Y005670D01*
X012358Y005768D02*
X012498Y005768D01*
X012259Y005374D02*
X002755Y005374D01*
X005935Y003797D02*
X006305Y003797D01*
D14*
X007151Y006351D03*
X008654Y008551D03*
X009151Y012151D03*
D15*
X009151Y009049D01*
X008654Y008551D01*
X009551Y007751D02*
X010651Y006651D01*
X013161Y006651D01*
X013948Y005864D01*
X007151Y006351D02*
X007151Y012651D01*
M02*
