G75*
G70*
%OFA0B0*%
%FSLAX24Y24*%
%IPPOS*%
%LPD*%
%AMOC8*
5,1,8,0,0,1.08239X$1,22.5*
%
%ADD10C,0.0090*%
%ADD11C,0.0060*%
%ADD12C,0.0050*%
%ADD13C,0.0070*%
%ADD14C,0.0100*%
%ADD15C,0.0025*%
%ADD16R,0.0015X0.6045*%
%ADD17R,0.0015X0.6045*%
%ADD18R,0.0015X0.0045*%
%ADD19R,0.0015X0.0045*%
%ADD20R,0.0015X0.0165*%
%ADD21R,0.0015X0.0345*%
%ADD22R,0.0015X0.0465*%
%ADD23R,0.0015X0.0555*%
%ADD24R,0.0015X0.0630*%
%ADD25R,0.0015X0.0705*%
%ADD26R,0.0015X0.4335*%
%ADD27R,0.0015X0.0765*%
%ADD28R,0.0015X0.4320*%
%ADD29R,0.0015X0.0795*%
%ADD30R,0.0015X0.4305*%
%ADD31R,0.0015X0.0855*%
%ADD32R,0.0015X0.4290*%
%ADD33R,0.0015X0.0915*%
%ADD34R,0.0015X0.4275*%
%ADD35R,0.0015X0.0360*%
%ADD36R,0.0015X0.4260*%
%ADD37R,0.0015X0.0315*%
%ADD38R,0.0015X0.4245*%
%ADD39R,0.0015X0.0300*%
%ADD40R,0.0015X0.4230*%
%ADD41R,0.0015X0.0270*%
%ADD42R,0.0015X0.0255*%
%ADD43R,0.0015X0.4215*%
%ADD44R,0.0015X0.0240*%
%ADD45R,0.0015X0.4200*%
%ADD46R,0.0015X0.0225*%
%ADD47R,0.0015X0.4185*%
%ADD48R,0.0015X0.0210*%
%ADD49R,0.0015X0.4170*%
%ADD50R,0.0015X0.4155*%
%ADD51R,0.0015X0.0195*%
%ADD52R,0.0015X0.0405*%
%ADD53R,0.0015X0.0105*%
%ADD54R,0.0015X0.0060*%
%ADD55R,0.0015X0.0075*%
%ADD56R,0.0015X0.0180*%
%ADD57R,0.0015X0.1155*%
%ADD58R,0.0015X0.0390*%
%ADD59R,0.0015X0.0090*%
%ADD60R,0.0015X0.0150*%
%ADD61R,0.0015X0.0135*%
%ADD62R,0.0015X0.0375*%
%ADD63R,0.0015X0.0120*%
%ADD64R,0.0015X0.0330*%
%ADD65R,0.0015X0.0435*%
%ADD66R,0.0015X0.0030*%
%ADD67R,0.0015X0.0480*%
%ADD68R,0.0015X0.0495*%
%ADD69R,0.0015X0.0015*%
%ADD70R,0.0015X0.0285*%
%ADD71R,0.0015X0.0450*%
%ADD72R,0.0015X0.0525*%
%ADD73R,0.0015X0.0885*%
%ADD74R,0.0015X0.3015*%
%ADD75R,0.0015X0.4020*%
%ADD76R,0.0015X0.0600*%
%ADD77R,0.0015X0.0570*%
%ADD78R,0.0015X0.0825*%
%ADD79R,0.0015X0.1440*%
%ADD80R,0.0015X0.1545*%
%ADD81R,0.0015X0.1500*%
%ADD82R,0.0015X0.1485*%
%ADD83R,0.0015X0.1455*%
%ADD84R,0.0015X0.1425*%
%ADD85R,0.0015X0.0510*%
%ADD86R,0.0015X0.0720*%
%ADD87R,0.0015X0.1410*%
%ADD88R,0.0015X0.0750*%
%ADD89R,0.0015X0.0945*%
%ADD90R,0.0015X0.0420*%
%ADD91R,0.0015X0.1395*%
%ADD92R,0.0015X0.1710*%
%ADD93R,0.0015X0.1695*%
%ADD94R,0.0015X0.1515*%
%ADD95R,0.0015X0.2565*%
%ADD96R,0.0015X0.1575*%
%ADD97R,0.0015X0.4350*%
%ADD98R,0.0015X0.4365*%
%ADD99R,0.0015X0.4395*%
%ADD100R,0.0015X0.0060*%
%ADD101R,0.0015X0.5985*%
%ADD102R,0.0015X0.5955*%
%ADD103R,0.0015X0.5910*%
D10*
X017706Y001206D02*
X017706Y001542D01*
X017818Y001653D01*
X018265Y001653D01*
X018377Y001542D01*
X018377Y001206D01*
X017706Y001206D01*
X017706Y001906D02*
X018377Y001906D01*
X018377Y002241D01*
X018265Y002353D01*
X018042Y002353D01*
X017930Y002241D01*
X017930Y001906D01*
X018042Y003306D02*
X018042Y003641D01*
X017930Y003753D01*
X017818Y003753D01*
X017706Y003641D01*
X017706Y003306D01*
X018377Y003306D01*
X018377Y003641D01*
X018265Y003753D01*
X018153Y003753D01*
X018042Y003641D01*
X018042Y004005D02*
X018042Y004452D01*
X018153Y004452D02*
X017706Y004452D01*
X017706Y004705D02*
X017706Y005040D01*
X017818Y005152D01*
X018265Y005152D01*
X018377Y005040D01*
X018377Y004705D01*
X017706Y004705D01*
X018153Y004452D02*
X018377Y004229D01*
X018153Y004005D01*
X017706Y004005D01*
X017818Y005405D02*
X017706Y005517D01*
X017706Y005740D01*
X017818Y005852D01*
X018042Y005852D01*
X018042Y005628D01*
X018265Y005405D02*
X017818Y005405D01*
X018265Y005405D02*
X018377Y005517D01*
X018377Y005740D01*
X018265Y005852D01*
X018377Y006105D02*
X017706Y006105D01*
X017706Y006552D01*
X018042Y006328D02*
X018042Y006105D01*
X018377Y006105D02*
X018377Y006552D01*
D11*
X001765Y000838D02*
X001691Y000765D01*
X001765Y000691D01*
X001985Y000691D01*
X001765Y000838D02*
X001691Y000911D01*
X001765Y000985D01*
X001985Y000985D01*
X001985Y001152D02*
X001765Y001152D01*
X001691Y001225D01*
X001765Y001298D01*
X001691Y001372D01*
X001765Y001445D01*
X001985Y001445D01*
X001985Y001612D02*
X001765Y001612D01*
X001691Y001685D01*
X001765Y001759D01*
X001691Y001832D01*
X001765Y001906D01*
X001985Y001906D01*
X001765Y002072D02*
X001691Y002072D01*
X001691Y002146D01*
X001765Y002146D01*
X001765Y002072D01*
X001691Y002302D02*
X001691Y002523D01*
X001765Y002596D01*
X001838Y002523D01*
X001838Y002376D01*
X001911Y002302D01*
X001985Y002376D01*
X001985Y002596D01*
X001911Y002763D02*
X001985Y002836D01*
X001985Y002983D01*
X001911Y003056D01*
X001838Y003056D01*
X001838Y002763D01*
X001765Y002763D02*
X001911Y002763D01*
X001765Y002763D02*
X001691Y002836D01*
X001691Y002983D01*
X001765Y003223D02*
X001691Y003297D01*
X001691Y003443D01*
X001838Y003517D02*
X001838Y003223D01*
X001765Y003223D02*
X001911Y003223D01*
X001985Y003297D01*
X001985Y003443D01*
X001911Y003517D01*
X001838Y003517D01*
X001838Y003684D02*
X001838Y003977D01*
X001911Y003977D01*
X001985Y003904D01*
X001985Y003757D01*
X001911Y003684D01*
X001765Y003684D01*
X001691Y003757D01*
X001691Y003904D01*
X001765Y004144D02*
X001911Y004144D01*
X001985Y004217D01*
X001985Y004437D01*
X002132Y004437D02*
X001691Y004437D01*
X001691Y004217D01*
X001765Y004144D01*
X002441Y004174D02*
X002441Y004027D01*
X002515Y003953D01*
X002661Y004027D02*
X002661Y004174D01*
X002588Y004247D01*
X002515Y004247D01*
X002441Y004174D01*
X002661Y004027D02*
X002735Y003953D01*
X002808Y003953D01*
X002882Y004027D01*
X002882Y004174D01*
X002808Y004247D01*
X002735Y004414D02*
X002735Y004561D01*
X002808Y004487D02*
X002515Y004487D01*
X002441Y004561D01*
X002515Y004721D02*
X002441Y004794D01*
X002441Y005014D01*
X002735Y005014D01*
X002661Y005181D02*
X002735Y005254D01*
X002735Y005475D01*
X002882Y005475D02*
X002441Y005475D01*
X002441Y005254D01*
X002515Y005181D01*
X002661Y005181D01*
X002735Y004721D02*
X002515Y004721D01*
X001985Y004678D02*
X001985Y004898D01*
X001838Y004824D02*
X001838Y004678D01*
X001911Y004604D01*
X001985Y004678D01*
X001838Y004824D02*
X001765Y004898D01*
X001691Y004824D01*
X001691Y004604D01*
X001765Y005138D02*
X001691Y005211D01*
X001765Y005138D02*
X002058Y005138D01*
X001985Y005065D02*
X001985Y005211D01*
X001985Y005371D02*
X001765Y005371D01*
X001691Y005445D01*
X001691Y005665D01*
X001985Y005665D01*
X001911Y005832D02*
X001985Y005905D01*
X001985Y006125D01*
X002132Y006125D02*
X001691Y006125D01*
X001691Y005905D01*
X001765Y005832D01*
X001911Y005832D01*
X001985Y006292D02*
X001985Y006366D01*
X001691Y006366D01*
X001691Y006439D02*
X001691Y006292D01*
X001765Y006599D02*
X001691Y006672D01*
X001691Y006819D01*
X001765Y006893D01*
X001911Y006893D01*
X001985Y006819D01*
X001985Y006672D01*
X001911Y006599D01*
X001765Y006599D01*
X002132Y006366D02*
X002205Y006366D01*
X002441Y006168D02*
X002515Y006242D01*
X002661Y006242D01*
X002735Y006168D01*
X002735Y006022D01*
X002661Y005948D01*
X002515Y005948D01*
X002441Y006022D01*
X002441Y006168D01*
X002441Y005788D02*
X002441Y005641D01*
X002441Y005715D02*
X002735Y005715D01*
X002735Y005641D01*
X002882Y005715D02*
X002955Y005715D01*
X003044Y005902D02*
X003044Y005975D01*
X003118Y006049D01*
X003485Y006049D01*
X003485Y006215D02*
X003411Y006215D01*
X003411Y006289D01*
X003485Y006289D01*
X003485Y006215D01*
X003265Y006215D02*
X003191Y006215D01*
X003191Y006289D01*
X003265Y006289D01*
X003265Y006215D01*
X003191Y006049D02*
X003191Y005828D01*
X003265Y005755D01*
X003485Y005755D01*
X003411Y005588D02*
X003265Y005588D01*
X003191Y005515D01*
X003191Y005295D01*
X003632Y005295D01*
X003485Y005295D02*
X003485Y005515D01*
X003411Y005588D01*
X003485Y004674D02*
X003485Y004527D01*
X003558Y004601D02*
X003265Y004601D01*
X003191Y004674D01*
X003191Y004361D02*
X003411Y004361D01*
X003485Y004287D01*
X003485Y004067D01*
X003191Y004067D01*
X003338Y003900D02*
X003338Y003607D01*
X003265Y003607D02*
X003411Y003607D01*
X003485Y003680D01*
X003485Y003827D01*
X003411Y003900D01*
X003338Y003900D01*
X003191Y003827D02*
X003191Y003680D01*
X003265Y003607D01*
X003191Y003440D02*
X003411Y003440D01*
X003485Y003367D01*
X003411Y003293D01*
X003191Y003293D01*
X003191Y003146D02*
X003485Y003146D01*
X003485Y003220D01*
X003411Y003293D01*
X003191Y002986D02*
X003191Y002840D01*
X003191Y002913D02*
X003632Y002913D01*
X003632Y002840D01*
X003632Y002606D02*
X003191Y002606D01*
X003191Y002533D02*
X003191Y002679D01*
X003632Y002606D02*
X003632Y002533D01*
X003632Y002299D02*
X003705Y002299D01*
X003485Y002299D02*
X003191Y002299D01*
X003191Y002226D02*
X003191Y002373D01*
X003485Y002299D02*
X003485Y002226D01*
X003411Y002066D02*
X003411Y001919D01*
X003558Y001992D02*
X003632Y002066D01*
X003558Y001992D02*
X003191Y001992D01*
X003191Y001759D02*
X003191Y001612D01*
X003191Y001685D02*
X003632Y001685D01*
X003632Y001612D01*
X003485Y001445D02*
X003191Y001445D01*
X003191Y001225D01*
X003265Y001152D01*
X003485Y001152D01*
X003632Y000985D02*
X003632Y000691D01*
X003191Y000691D01*
X003411Y000691D02*
X003411Y000838D01*
X002882Y001265D02*
X002808Y001191D01*
X002735Y001191D01*
X002661Y001265D01*
X002661Y001411D01*
X002588Y001485D01*
X002515Y001485D01*
X002441Y001411D01*
X002441Y001265D01*
X002515Y001191D01*
X002882Y001265D02*
X002882Y001411D01*
X002808Y001485D01*
X002661Y001652D02*
X002515Y001652D01*
X002441Y001725D01*
X002441Y001872D01*
X002588Y001945D02*
X002588Y001652D01*
X002661Y001652D02*
X002735Y001725D01*
X002735Y001872D01*
X002661Y001945D01*
X002588Y001945D01*
X002588Y002112D02*
X002588Y002406D01*
X002661Y002406D01*
X002735Y002332D01*
X002735Y002185D01*
X002661Y002112D01*
X002515Y002112D01*
X002441Y002185D01*
X002441Y002332D01*
X002515Y002572D02*
X002661Y002572D01*
X002735Y002646D01*
X002735Y002792D01*
X002661Y002866D01*
X002588Y002866D01*
X002588Y002572D01*
X002515Y002572D02*
X002441Y002646D01*
X002441Y002792D01*
X002515Y003033D02*
X002661Y003033D01*
X002735Y003106D01*
X002735Y003326D01*
X002882Y003326D02*
X002441Y003326D01*
X002441Y003106D01*
X002515Y003033D01*
X001765Y007059D02*
X001691Y007059D01*
X001691Y007133D01*
X001765Y007133D01*
X001765Y007059D01*
X001765Y007290D02*
X001691Y007363D01*
X001691Y007583D01*
X001765Y007750D02*
X001691Y007823D01*
X001691Y007970D01*
X001765Y008044D01*
X001911Y008044D01*
X001985Y007970D01*
X001985Y007823D01*
X001911Y007750D01*
X001765Y007750D01*
X001985Y007583D02*
X001985Y007363D01*
X001911Y007290D01*
X001765Y007290D01*
X001691Y008210D02*
X001985Y008210D01*
X001985Y008284D01*
X001911Y008357D01*
X001985Y008430D01*
X001911Y008504D01*
X001691Y008504D01*
X001691Y008357D02*
X001911Y008357D01*
X005860Y008323D02*
X005862Y008278D01*
X005867Y008232D01*
X005875Y008188D01*
X005887Y008144D01*
X005903Y008101D01*
X005921Y008059D01*
X005943Y008019D01*
X005967Y007981D01*
X005994Y007945D01*
X006024Y007910D01*
X006057Y007879D01*
X006092Y007849D01*
X005860Y008323D02*
X005862Y008368D01*
X005867Y008414D01*
X005875Y008458D01*
X005887Y008502D01*
X005903Y008545D01*
X005921Y008587D01*
X005943Y008627D01*
X005967Y008665D01*
X005994Y008701D01*
X006024Y008736D01*
X006057Y008767D01*
X006092Y008797D01*
X007060Y008323D02*
X007058Y008277D01*
X007053Y008231D01*
X007044Y008185D01*
X007032Y008140D01*
X007016Y008097D01*
X006997Y008055D01*
X006974Y008014D01*
X006949Y007975D01*
X006921Y007939D01*
X006890Y007904D01*
X006856Y007872D01*
X006820Y007843D01*
X007060Y008323D02*
X007058Y008370D01*
X007052Y008418D01*
X007043Y008464D01*
X007030Y008510D01*
X007014Y008554D01*
X006994Y008598D01*
X006970Y008639D01*
X006944Y008678D01*
X006914Y008715D01*
X006881Y008750D01*
X006846Y008782D01*
X006809Y008811D01*
X012750Y008323D02*
X012752Y008278D01*
X012757Y008232D01*
X012765Y008188D01*
X012777Y008144D01*
X012793Y008101D01*
X012811Y008059D01*
X012833Y008019D01*
X012857Y007981D01*
X012884Y007945D01*
X012914Y007910D01*
X012947Y007879D01*
X012982Y007849D01*
X012750Y008323D02*
X012752Y008368D01*
X012757Y008414D01*
X012765Y008458D01*
X012777Y008502D01*
X012793Y008545D01*
X012811Y008587D01*
X012833Y008627D01*
X012857Y008665D01*
X012884Y008701D01*
X012914Y008736D01*
X012947Y008767D01*
X012982Y008797D01*
X013950Y008323D02*
X013948Y008277D01*
X013943Y008231D01*
X013934Y008185D01*
X013922Y008140D01*
X013906Y008097D01*
X013887Y008055D01*
X013864Y008014D01*
X013839Y007975D01*
X013811Y007939D01*
X013780Y007904D01*
X013746Y007872D01*
X013710Y007843D01*
X013950Y008323D02*
X013948Y008370D01*
X013942Y008418D01*
X013933Y008464D01*
X013920Y008510D01*
X013904Y008554D01*
X013884Y008598D01*
X013860Y008639D01*
X013834Y008678D01*
X013804Y008715D01*
X013771Y008750D01*
X013736Y008782D01*
X013699Y008811D01*
X016849Y009942D02*
X017715Y010442D01*
X015715Y013906D01*
X014849Y013406D01*
X016849Y009942D01*
X014849Y013406D02*
X014349Y014272D01*
X015215Y014772D01*
X015715Y013906D01*
X010353Y014173D02*
X010323Y014138D01*
X010292Y014105D01*
X010257Y014075D01*
X010221Y014048D01*
X010183Y014024D01*
X010143Y014002D01*
X010101Y013984D01*
X010058Y013968D01*
X010014Y013956D01*
X009970Y013948D01*
X009924Y013943D01*
X009879Y013941D01*
X009834Y013943D01*
X009788Y013948D01*
X009744Y013956D01*
X009700Y013968D01*
X009657Y013984D01*
X009615Y014002D01*
X009575Y014024D01*
X009537Y014048D01*
X009501Y014075D01*
X009466Y014105D01*
X009435Y014138D01*
X009405Y014173D01*
X009879Y015141D02*
X009925Y015139D01*
X009971Y015134D01*
X010017Y015125D01*
X010062Y015113D01*
X010105Y015097D01*
X010147Y015078D01*
X010188Y015055D01*
X010227Y015030D01*
X010263Y015002D01*
X010298Y014971D01*
X010330Y014937D01*
X010359Y014901D01*
X009879Y015141D02*
X009832Y015139D01*
X009784Y015133D01*
X009738Y015124D01*
X009692Y015111D01*
X009648Y015095D01*
X009604Y015075D01*
X009563Y015051D01*
X009524Y015025D01*
X009487Y014995D01*
X009452Y014962D01*
X009420Y014927D01*
X009391Y014890D01*
X016691Y005247D02*
X016691Y004953D01*
X016985Y005247D01*
X017058Y005247D01*
X017132Y005174D01*
X017132Y005027D01*
X017058Y004953D01*
X017132Y004640D02*
X016691Y004640D01*
X016691Y004493D02*
X016691Y004787D01*
X016985Y004493D02*
X017132Y004640D01*
X017058Y004326D02*
X016765Y004326D01*
X016691Y004253D01*
X016691Y004106D01*
X016765Y004033D01*
X017058Y004326D01*
X017132Y004253D01*
X017132Y004106D01*
X017058Y004033D01*
X016765Y004033D01*
X016691Y003866D02*
X016691Y003572D01*
X016985Y003866D01*
X017058Y003866D01*
X017132Y003792D01*
X017132Y003646D01*
X017058Y003572D01*
X017058Y003406D02*
X016911Y003406D01*
X016838Y003332D01*
X016838Y003112D01*
X016838Y003259D02*
X016691Y003406D01*
X016691Y003112D02*
X017132Y003112D01*
X017132Y003332D01*
X017058Y003406D01*
X016985Y002945D02*
X016691Y002945D01*
X016911Y002945D02*
X016911Y002652D01*
X016985Y002652D02*
X017132Y002798D01*
X016985Y002945D01*
X016985Y002652D02*
X016691Y002652D01*
X016691Y002485D02*
X017132Y002485D01*
X016985Y002338D01*
X017132Y002191D01*
X016691Y002191D01*
D12*
X014254Y002098D02*
X014254Y006098D01*
X013254Y007098D01*
X006754Y007098D01*
X005754Y006098D01*
X005754Y002098D01*
X006754Y001098D01*
X007041Y001245D01*
X007335Y001378D01*
X007635Y001497D01*
X007940Y001602D01*
X008249Y001693D01*
X008563Y001768D01*
X008880Y001829D01*
X009199Y001874D01*
X009520Y001905D01*
X009843Y001920D01*
X010165Y001920D01*
X010488Y001905D01*
X010809Y001874D01*
X011128Y001829D01*
X011445Y001768D01*
X011759Y001693D01*
X012068Y001602D01*
X012373Y001497D01*
X012673Y001378D01*
X012967Y001245D01*
X013254Y001098D01*
X014254Y002098D01*
X015713Y009714D02*
X015633Y009736D01*
X015713Y009714D02*
X015814Y009773D01*
X015835Y009853D01*
X015718Y010055D01*
X015639Y010076D01*
X015537Y010018D01*
X015516Y009938D01*
X015835Y010122D02*
X015856Y010202D01*
X015958Y010260D01*
X016037Y010239D01*
X016154Y010037D01*
X016133Y009957D01*
X016032Y009899D01*
X015952Y009920D01*
X015893Y010021D01*
X015995Y010079D01*
X016212Y010205D02*
X016154Y010306D01*
X016175Y010386D01*
X016327Y010474D01*
X016502Y010170D01*
X016444Y010271D02*
X016292Y010184D01*
X016212Y010205D01*
X015364Y010802D02*
X015213Y010714D01*
X015133Y010736D01*
X015016Y010938D01*
X015037Y011018D01*
X015189Y011105D01*
X015364Y010802D01*
X015452Y010920D02*
X015393Y011021D01*
X015495Y011079D01*
X015654Y011037D02*
X015537Y011239D01*
X015458Y011260D01*
X015356Y011202D01*
X015335Y011122D01*
X015452Y010920D02*
X015532Y010899D01*
X015633Y010957D01*
X015654Y011037D01*
X015712Y011205D02*
X015792Y011184D01*
X015944Y011271D01*
X016002Y011170D02*
X015827Y011474D01*
X015675Y011386D01*
X015654Y011306D01*
X015712Y011205D01*
X015183Y011736D02*
X015008Y012040D01*
X014981Y011619D01*
X014806Y011923D01*
X014689Y011855D02*
X014537Y011768D01*
X014516Y011688D01*
X014633Y011486D01*
X014713Y011464D01*
X014864Y011552D01*
X014689Y011855D01*
X015154Y012056D02*
X015175Y012136D01*
X015276Y012195D01*
X015356Y012173D01*
X015473Y011971D01*
X015452Y011891D01*
X015350Y011833D01*
X015271Y011854D01*
X015212Y011955D01*
X015314Y012014D01*
X014457Y012428D02*
X014500Y012587D01*
X014383Y012790D01*
X014587Y012705D02*
X014790Y012822D01*
X014747Y012663D02*
X014630Y012865D01*
X014457Y012428D02*
X014298Y012471D01*
X014181Y012673D01*
X013763Y013179D02*
X013587Y013482D01*
X013747Y013439D01*
X013790Y013599D01*
X013965Y013295D01*
X013617Y013162D02*
X013595Y013082D01*
X013494Y013024D01*
X013414Y013045D01*
X013327Y012927D02*
X013125Y012810D01*
X013008Y012743D02*
X012833Y013046D01*
X012681Y012959D01*
X012660Y012879D01*
X012718Y012778D01*
X012798Y012756D01*
X012950Y012844D01*
X012848Y012786D02*
X012806Y012626D01*
X013327Y012927D02*
X013152Y013230D01*
X013298Y013247D02*
X013319Y013327D01*
X013420Y013385D01*
X013500Y013364D01*
X013617Y013162D01*
X013761Y013698D02*
X012486Y012961D01*
X010754Y012972D02*
X009254Y012972D01*
X009254Y010972D01*
X010754Y010972D01*
X010754Y012972D01*
X009379Y011222D02*
X009381Y011244D01*
X009387Y011265D01*
X009396Y011284D01*
X009408Y011302D01*
X009424Y011318D01*
X009441Y011330D01*
X009461Y011339D01*
X009482Y011345D01*
X009504Y011347D01*
X009526Y011345D01*
X009547Y011339D01*
X009566Y011330D01*
X009584Y011318D01*
X009600Y011302D01*
X009612Y011284D01*
X009621Y011265D01*
X009627Y011244D01*
X009629Y011222D01*
X009627Y011200D01*
X009621Y011179D01*
X009612Y011160D01*
X009600Y011142D01*
X009584Y011126D01*
X009567Y011114D01*
X009547Y011105D01*
X009526Y011099D01*
X009504Y011097D01*
X009482Y011099D01*
X009461Y011105D01*
X009441Y011114D01*
X009424Y011126D01*
X009408Y011142D01*
X009396Y011159D01*
X009387Y011179D01*
X009381Y011200D01*
X009379Y011222D01*
D13*
X009780Y010018D02*
X009780Y009528D01*
X009943Y009528D02*
X009616Y009528D01*
X009943Y009855D02*
X009780Y010018D01*
X010132Y009937D02*
X010214Y010018D01*
X010377Y010018D01*
X010459Y009937D01*
X010459Y009610D01*
X010377Y009528D01*
X010214Y009528D01*
X010132Y009610D01*
X010397Y008687D02*
X010315Y008605D01*
X010315Y008523D01*
X010397Y008441D01*
X010315Y008360D01*
X010315Y008278D01*
X010397Y008196D01*
X010560Y008196D01*
X010642Y008278D01*
X010831Y008278D02*
X010912Y008196D01*
X011157Y008196D01*
X011157Y008687D01*
X010912Y008687D01*
X010831Y008605D01*
X010831Y008278D01*
X010642Y008605D02*
X010560Y008687D01*
X010397Y008687D01*
X010397Y008441D02*
X010478Y008441D01*
X011346Y008196D02*
X011673Y008196D01*
X011673Y008687D01*
X011346Y008687D01*
X011510Y008441D02*
X011673Y008441D01*
X012189Y008687D02*
X012189Y008196D01*
X011862Y008196D01*
X010953Y007773D02*
X010708Y007773D01*
X010626Y007692D01*
X010626Y007610D01*
X010708Y007528D01*
X010953Y007528D01*
X010953Y007283D02*
X010708Y007283D01*
X010626Y007365D01*
X010626Y007446D01*
X010708Y007528D01*
X010437Y007528D02*
X010110Y007528D01*
X010110Y007610D02*
X010110Y007283D01*
X010437Y007283D02*
X010437Y007610D01*
X010274Y007773D01*
X010110Y007610D01*
X009922Y007773D02*
X009595Y007773D01*
X009758Y007773D02*
X009758Y007283D01*
X009243Y007283D02*
X009243Y007773D01*
X009406Y007773D02*
X009079Y007773D01*
X009049Y008134D02*
X009376Y008134D01*
X009376Y008624D01*
X008861Y008624D02*
X008861Y008134D01*
X008534Y008134D01*
X008345Y008134D02*
X008100Y008134D01*
X008018Y008216D01*
X008018Y008542D01*
X008100Y008624D01*
X008345Y008624D01*
X008345Y008134D01*
X008697Y008379D02*
X008861Y008379D01*
X008861Y008624D02*
X008534Y008624D01*
X007829Y008542D02*
X007748Y008624D01*
X007584Y008624D01*
X007502Y008542D01*
X007502Y008461D01*
X007829Y008134D01*
X007502Y008134D01*
X004882Y008327D02*
X004882Y008817D01*
X004637Y008817D01*
X004555Y008735D01*
X004555Y008572D01*
X004637Y008490D01*
X004882Y008490D01*
X004719Y008490D02*
X004555Y008327D01*
X004366Y008408D02*
X004285Y008327D01*
X004121Y008327D01*
X004039Y008408D01*
X004039Y008490D01*
X004121Y008572D01*
X004203Y008572D01*
X004121Y008572D02*
X004039Y008654D01*
X004039Y008735D01*
X004121Y008817D01*
X004285Y008817D01*
X004366Y008735D01*
X009440Y013134D02*
X009767Y013134D01*
X009603Y013134D02*
X009603Y013624D01*
X009767Y013461D01*
X009956Y013542D02*
X010037Y013624D01*
X010201Y013624D01*
X010283Y013542D01*
X010283Y013215D01*
X010201Y013134D01*
X010037Y013134D01*
X009956Y013215D01*
X010463Y013134D02*
X010626Y013134D01*
X010545Y013134D02*
X010545Y013624D01*
X010626Y013624D02*
X010463Y013624D01*
X010452Y015474D02*
X010779Y015474D01*
X010779Y015965D01*
X010264Y015965D02*
X010264Y015474D01*
X009937Y015474D01*
X009748Y015474D02*
X009503Y015474D01*
X009421Y015556D01*
X009421Y015883D01*
X009503Y015965D01*
X009748Y015965D01*
X009748Y015474D01*
X010100Y015720D02*
X010264Y015720D01*
X010264Y015965D02*
X009937Y015965D01*
X009233Y015801D02*
X009069Y015965D01*
X009069Y015474D01*
X008906Y015474D02*
X009233Y015474D01*
X009534Y017446D02*
X009861Y017446D01*
X009534Y017773D01*
X009534Y017855D01*
X009615Y017937D01*
X009779Y017937D01*
X009861Y017855D01*
X010049Y017855D02*
X010049Y017691D01*
X010131Y017610D01*
X010376Y017610D01*
X010213Y017610D02*
X010049Y017446D01*
X010376Y017446D02*
X010376Y017937D01*
X010131Y017937D01*
X010049Y017855D01*
X013824Y016251D02*
X013794Y016139D01*
X013917Y015927D01*
X013775Y015845D02*
X014200Y016090D01*
X014077Y016302D01*
X013965Y016332D01*
X013824Y016251D01*
X014223Y015886D02*
X014335Y015856D01*
X014417Y015714D01*
X014387Y015603D01*
X014316Y015562D01*
X014204Y015592D01*
X014123Y015733D01*
X014011Y015763D01*
X013940Y015722D01*
X013910Y015611D01*
X013992Y015469D01*
X014104Y015439D01*
X014198Y015276D02*
X014168Y015164D01*
X014250Y015022D01*
X014361Y014993D01*
X014645Y015156D01*
X014674Y015268D01*
X014593Y015409D01*
X014481Y015439D01*
X014805Y015041D02*
X014887Y014899D01*
X014846Y014970D02*
X014422Y014725D01*
X014462Y014654D02*
X014381Y014796D01*
X015143Y008843D02*
X015143Y008352D01*
X015306Y008352D02*
X014979Y008352D01*
X015306Y008679D02*
X015143Y008843D01*
X015495Y008761D02*
X015495Y008597D01*
X015577Y008516D01*
X015822Y008516D01*
X015658Y008516D02*
X015495Y008352D01*
X015822Y008352D02*
X015822Y008843D01*
X015577Y008843D01*
X015495Y008761D01*
X010953Y007773D02*
X010953Y007283D01*
D14*
X012550Y008323D02*
X012552Y008267D01*
X012558Y008211D01*
X012568Y008156D01*
X012581Y008102D01*
X012599Y008048D01*
X012620Y007996D01*
X012644Y007946D01*
X012673Y007897D01*
X012704Y007851D01*
X012739Y007807D01*
X012776Y007765D01*
X012817Y007727D01*
X012860Y007691D01*
X012905Y007658D01*
X012953Y007628D01*
X012550Y008323D02*
X012552Y008376D01*
X012557Y008430D01*
X012566Y008482D01*
X012578Y008534D01*
X012594Y008585D01*
X012613Y008635D01*
X012636Y008684D01*
X012662Y008731D01*
X012690Y008776D01*
X012722Y008819D01*
X012756Y008859D01*
X012794Y008898D01*
X012833Y008934D01*
X014150Y008323D02*
X014148Y008269D01*
X014143Y008215D01*
X014134Y008162D01*
X014121Y008109D01*
X014105Y008058D01*
X014085Y008008D01*
X014062Y007959D01*
X014036Y007911D01*
X014007Y007866D01*
X013974Y007823D01*
X013939Y007782D01*
X013901Y007743D01*
X013861Y007707D01*
X013818Y007674D01*
X013773Y007644D01*
X013726Y007617D01*
X014150Y008323D02*
X014148Y008377D01*
X014143Y008430D01*
X014134Y008484D01*
X014121Y008536D01*
X014105Y008587D01*
X014085Y008638D01*
X014063Y008687D01*
X014037Y008734D01*
X014007Y008779D01*
X013975Y008822D01*
X013940Y008863D01*
X013902Y008902D01*
X013862Y008938D01*
X006063Y007628D02*
X006015Y007658D01*
X005970Y007691D01*
X005927Y007727D01*
X005886Y007765D01*
X005849Y007807D01*
X005814Y007851D01*
X005783Y007897D01*
X005754Y007946D01*
X005730Y007996D01*
X005709Y008048D01*
X005691Y008102D01*
X005678Y008156D01*
X005668Y008211D01*
X005662Y008267D01*
X005660Y008323D01*
X005662Y008376D01*
X005667Y008430D01*
X005676Y008482D01*
X005688Y008534D01*
X005704Y008585D01*
X005723Y008635D01*
X005746Y008684D01*
X005772Y008731D01*
X005800Y008776D01*
X005832Y008819D01*
X005866Y008859D01*
X005904Y008898D01*
X005943Y008934D01*
X007260Y008323D02*
X007258Y008269D01*
X007253Y008215D01*
X007244Y008162D01*
X007231Y008109D01*
X007215Y008058D01*
X007195Y008008D01*
X007172Y007959D01*
X007146Y007911D01*
X007117Y007866D01*
X007084Y007823D01*
X007049Y007782D01*
X007011Y007743D01*
X006971Y007707D01*
X006928Y007674D01*
X006883Y007644D01*
X006836Y007617D01*
X007260Y008323D02*
X007258Y008377D01*
X007253Y008430D01*
X007244Y008484D01*
X007231Y008536D01*
X007215Y008587D01*
X007195Y008638D01*
X007173Y008687D01*
X007147Y008734D01*
X007117Y008779D01*
X007085Y008822D01*
X007050Y008863D01*
X007012Y008902D01*
X006972Y008938D01*
X009268Y014024D02*
X009304Y013985D01*
X009343Y013947D01*
X009383Y013913D01*
X009426Y013881D01*
X009471Y013853D01*
X009518Y013827D01*
X009567Y013804D01*
X009617Y013785D01*
X009668Y013769D01*
X009720Y013757D01*
X009772Y013748D01*
X009826Y013743D01*
X009879Y013741D01*
X009935Y013743D01*
X009991Y013749D01*
X010046Y013759D01*
X010100Y013772D01*
X010154Y013790D01*
X010206Y013811D01*
X010256Y013835D01*
X010305Y013864D01*
X010351Y013895D01*
X010395Y013930D01*
X010437Y013967D01*
X010475Y014008D01*
X010511Y014051D01*
X010544Y014096D01*
X010574Y014144D01*
X009879Y015341D02*
X009825Y015339D01*
X009772Y015334D01*
X009718Y015325D01*
X009666Y015312D01*
X009615Y015296D01*
X009564Y015276D01*
X009515Y015254D01*
X009468Y015228D01*
X009423Y015198D01*
X009380Y015166D01*
X009339Y015131D01*
X009300Y015093D01*
X009264Y015053D01*
X009879Y015341D02*
X009933Y015339D01*
X009987Y015334D01*
X010040Y015325D01*
X010093Y015312D01*
X010144Y015296D01*
X010194Y015276D01*
X010243Y015253D01*
X010291Y015227D01*
X010336Y015198D01*
X010379Y015165D01*
X010420Y015130D01*
X010459Y015092D01*
X010495Y015052D01*
X010528Y015009D01*
X010558Y014964D01*
X010585Y014917D01*
X008353Y016530D02*
X008353Y016800D01*
X008033Y016850D01*
X007933Y017100D02*
X008113Y017360D01*
X007933Y017550D01*
X007673Y017370D01*
X007423Y017480D02*
X007363Y017780D01*
X007103Y017780D01*
X007053Y017480D01*
X006783Y017380D02*
X006543Y017550D01*
X006353Y017360D01*
X006523Y017120D01*
X006463Y017020D01*
X006913Y016830D01*
X006783Y017380D02*
X006824Y017403D01*
X006867Y017424D01*
X006912Y017442D01*
X006957Y017457D01*
X007003Y017470D01*
X007050Y017480D01*
X007424Y017478D02*
X007476Y017463D01*
X007527Y017444D01*
X007577Y017422D01*
X007625Y017397D01*
X007672Y017368D01*
X006923Y016830D02*
X006941Y016863D01*
X006962Y016893D01*
X006986Y016922D01*
X007013Y016948D01*
X007042Y016970D01*
X007074Y016990D01*
X007107Y017007D01*
X007142Y017020D01*
X007178Y017029D01*
X007215Y017035D01*
X007252Y017037D01*
X007289Y017035D01*
X007326Y017030D01*
X007362Y017020D01*
X007397Y017008D01*
X007431Y016991D01*
X007462Y016972D01*
X007492Y016949D01*
X007519Y016923D01*
X007543Y016895D01*
X007564Y016864D01*
X007582Y016832D01*
X007597Y016798D01*
X007608Y016762D01*
X007616Y016726D01*
X007620Y016689D01*
X007620Y016651D01*
X007616Y016614D01*
X007608Y016578D01*
X007597Y016542D01*
X007582Y016508D01*
X007564Y016476D01*
X007543Y016445D01*
X007519Y016417D01*
X007492Y016391D01*
X007462Y016368D01*
X007431Y016349D01*
X007397Y016332D01*
X007362Y016320D01*
X007326Y016310D01*
X007289Y016305D01*
X007252Y016303D01*
X007215Y016305D01*
X007178Y016311D01*
X007142Y016320D01*
X007107Y016333D01*
X007074Y016350D01*
X007042Y016370D01*
X007013Y016392D01*
X006986Y016418D01*
X006962Y016447D01*
X006941Y016477D01*
X006923Y016510D01*
X006913Y016510D02*
X006463Y016310D01*
X006523Y016210D01*
X006353Y015970D01*
X006543Y015790D01*
X006783Y015950D01*
X007053Y015850D02*
X007103Y015550D01*
X007363Y015550D01*
X007423Y015850D01*
X007673Y015960D02*
X007933Y015780D01*
X008113Y015970D01*
X007933Y016230D01*
X008033Y016480D02*
X008353Y016530D01*
X008033Y016472D02*
X008020Y016422D01*
X008003Y016373D01*
X007984Y016325D01*
X007961Y016278D01*
X007936Y016233D01*
X007668Y015960D02*
X007622Y015933D01*
X007574Y015909D01*
X007525Y015888D01*
X007474Y015870D01*
X007423Y015856D01*
X007052Y015850D02*
X006996Y015863D01*
X006941Y015880D01*
X006888Y015901D01*
X006836Y015925D01*
X006786Y015953D01*
X008036Y016855D02*
X008022Y016907D01*
X008005Y016958D01*
X007985Y017008D01*
X007962Y017057D01*
X007935Y017104D01*
D15*
X014041Y013806D02*
X014383Y013714D01*
X014291Y013373D01*
X014041Y013806D01*
X014048Y013794D02*
X014087Y013794D01*
X014062Y013770D02*
X014174Y013770D01*
X014262Y013747D02*
X014075Y013747D01*
X014089Y013723D02*
X014350Y013723D01*
X014379Y013700D02*
X014103Y013700D01*
X014116Y013676D02*
X014373Y013676D01*
X014366Y013653D02*
X014130Y013653D01*
X014143Y013629D02*
X014360Y013629D01*
X014354Y013606D02*
X014157Y013606D01*
X014170Y013582D02*
X014347Y013582D01*
X014341Y013559D02*
X014184Y013559D01*
X014198Y013535D02*
X014335Y013535D01*
X014329Y013511D02*
X014211Y013511D01*
X014225Y013488D02*
X014322Y013488D01*
X014316Y013464D02*
X014238Y013464D01*
X014252Y013441D02*
X014310Y013441D01*
X014303Y013417D02*
X014265Y013417D01*
X014279Y013394D02*
X014297Y013394D01*
D16*
X006222Y012321D03*
D17*
X006237Y012321D03*
X006252Y012321D03*
D18*
X006267Y009321D03*
X006282Y009321D03*
X006297Y009321D03*
X006312Y009321D03*
X006327Y009321D03*
X006342Y009321D03*
X006357Y009321D03*
X006372Y009321D03*
X006387Y009321D03*
X006402Y009321D03*
X006417Y009321D03*
X006432Y009321D03*
X006447Y009321D03*
X006462Y009321D03*
X006477Y009321D03*
X006492Y009321D03*
X006507Y009321D03*
X006522Y009321D03*
X006537Y009321D03*
X006552Y009321D03*
X006567Y009321D03*
X006582Y009321D03*
X006597Y009321D03*
X006612Y009321D03*
X006627Y009321D03*
X006642Y009321D03*
X006657Y009321D03*
X006672Y009321D03*
X006687Y009321D03*
X006702Y009321D03*
X006717Y009321D03*
X006732Y009321D03*
X006747Y009321D03*
X006762Y009321D03*
X006777Y009321D03*
X006792Y009321D03*
X006807Y009321D03*
X006822Y009321D03*
X006837Y009321D03*
X006852Y009321D03*
X006867Y009321D03*
X006882Y009321D03*
X006897Y009321D03*
X006912Y009321D03*
X006927Y009321D03*
X006942Y009321D03*
X006957Y009321D03*
X006972Y009321D03*
X006987Y009321D03*
X007002Y009321D03*
X007017Y009321D03*
X007032Y009321D03*
X007047Y009321D03*
X007062Y009321D03*
X007077Y009321D03*
X007092Y009321D03*
X007107Y009321D03*
X007122Y009321D03*
X007137Y009321D03*
X007152Y009321D03*
X007167Y009321D03*
X007182Y009321D03*
X007197Y009321D03*
X007212Y009321D03*
X007227Y009321D03*
X007242Y009321D03*
X007257Y009321D03*
X007272Y009321D03*
X007287Y009321D03*
X007302Y009321D03*
X007317Y009321D03*
X007332Y009321D03*
X007347Y009321D03*
X007362Y009321D03*
X007377Y009321D03*
X007392Y009321D03*
X007407Y009321D03*
X007422Y009321D03*
X007437Y009321D03*
X007452Y009321D03*
X007467Y009321D03*
X007482Y009321D03*
X007497Y009321D03*
X007512Y009321D03*
X007527Y009321D03*
X007542Y009321D03*
X007557Y009321D03*
X007572Y009321D03*
X007587Y009321D03*
X007602Y009321D03*
X007617Y009321D03*
X007632Y009321D03*
X007647Y009321D03*
X007662Y009321D03*
X007677Y009321D03*
X007692Y009321D03*
X007707Y009321D03*
X007722Y009321D03*
X007737Y009321D03*
X007752Y009321D03*
X007767Y009321D03*
X007782Y009321D03*
X007797Y009321D03*
X007812Y009321D03*
X007827Y009321D03*
X007842Y009321D03*
X007857Y009321D03*
X007872Y009321D03*
X007887Y009321D03*
X007902Y009321D03*
X007917Y009321D03*
X007932Y009321D03*
X007947Y009321D03*
X007962Y009321D03*
X007977Y009321D03*
X007992Y009321D03*
X008007Y009321D03*
X008022Y009321D03*
X008037Y009321D03*
X008052Y009321D03*
X008067Y009321D03*
X008082Y009321D03*
X008097Y009321D03*
X008112Y009321D03*
X008127Y009321D03*
X008142Y009321D03*
X008157Y009321D03*
X008172Y009321D03*
X008187Y009321D03*
X008202Y009321D03*
X008217Y009321D03*
X008232Y009321D03*
X008247Y009321D03*
D19*
X007047Y010446D03*
X007137Y012261D03*
X006912Y012696D03*
X006897Y012696D03*
X006882Y012696D03*
X006912Y012921D03*
X006927Y012921D03*
X006942Y012921D03*
X007017Y013326D03*
X006972Y013941D03*
X006957Y013941D03*
X007017Y014061D03*
X007032Y014061D03*
X006537Y015321D03*
X006522Y015321D03*
X006507Y015321D03*
X006492Y015321D03*
X006477Y015321D03*
X006462Y015321D03*
X006447Y015321D03*
X006432Y015321D03*
X006417Y015321D03*
X006402Y015321D03*
X006387Y015321D03*
X006372Y015321D03*
X006357Y015321D03*
X006342Y015321D03*
X006327Y015321D03*
X006312Y015321D03*
X006297Y015321D03*
X006282Y015321D03*
X006267Y015321D03*
X008067Y015321D03*
X008082Y015321D03*
X008097Y015321D03*
X008112Y015321D03*
X008127Y015321D03*
X008142Y015321D03*
X008157Y015321D03*
X008172Y015321D03*
X008187Y015321D03*
X008202Y015321D03*
X008217Y015321D03*
X008232Y015321D03*
X008247Y015321D03*
D20*
X007212Y014001D03*
X007512Y013746D03*
X007707Y013746D03*
X007797Y013521D03*
X007422Y013521D03*
X007077Y013521D03*
X007062Y013521D03*
X007047Y013521D03*
X006852Y013326D03*
X007062Y013131D03*
X007077Y013131D03*
X007092Y013131D03*
X007197Y012801D03*
X007392Y012861D03*
X007512Y012681D03*
X007527Y012681D03*
X007542Y012681D03*
X007407Y012411D03*
X007527Y012201D03*
X007542Y012201D03*
X007557Y012201D03*
X007572Y012201D03*
X007587Y012201D03*
X007602Y012201D03*
X007617Y012201D03*
X007632Y012201D03*
X007647Y012201D03*
X007662Y012201D03*
X007677Y012201D03*
X007692Y012201D03*
X007707Y012201D03*
X007722Y012201D03*
X007737Y012201D03*
X007752Y012201D03*
X007767Y012201D03*
X007782Y012201D03*
X007797Y012201D03*
X007812Y012201D03*
X007827Y012201D03*
X007827Y011931D03*
X007077Y011781D03*
X007062Y011781D03*
X007047Y011781D03*
X007032Y011781D03*
X006957Y011781D03*
X006942Y011781D03*
X006927Y011781D03*
X006837Y012021D03*
X006897Y012261D03*
X006807Y012486D03*
X006957Y010971D03*
X006942Y010956D03*
X006927Y010956D03*
X006912Y010941D03*
X006882Y010926D03*
X007557Y010986D03*
X007587Y010971D03*
X007602Y010971D03*
X007617Y010956D03*
X007632Y010956D03*
X007647Y010941D03*
X007677Y010926D03*
X008082Y010311D03*
X007692Y009711D03*
X007647Y009681D03*
X007002Y009636D03*
X006972Y009651D03*
X006942Y009666D03*
X006927Y009666D03*
X006912Y009681D03*
X006867Y009711D03*
X006477Y010311D03*
D21*
X006492Y010311D03*
X007572Y009741D03*
X008067Y010311D03*
X007677Y011421D03*
X007662Y011421D03*
X007437Y011871D03*
X006897Y011421D03*
X006882Y011421D03*
D22*
X006507Y010311D03*
X007347Y010176D03*
X007467Y009996D03*
X008052Y010311D03*
D23*
X008037Y010311D03*
X006522Y010311D03*
D24*
X006537Y010318D03*
X008022Y010318D03*
D25*
X008007Y010311D03*
X006552Y010311D03*
D26*
X006552Y013176D03*
X008007Y013176D03*
D27*
X007992Y010311D03*
X006567Y010311D03*
D28*
X006567Y013183D03*
X007992Y013183D03*
D29*
X007977Y010311D03*
X006582Y010311D03*
D30*
X006582Y013191D03*
X007977Y013191D03*
D31*
X007962Y010311D03*
X006597Y010311D03*
D32*
X006597Y013198D03*
X007962Y013198D03*
D33*
X007947Y010311D03*
X006612Y010311D03*
D34*
X006612Y013206D03*
X007947Y013206D03*
D35*
X007422Y011878D03*
X007692Y011413D03*
X007707Y011413D03*
X006867Y011413D03*
X006852Y011413D03*
X006777Y011998D03*
X007122Y010723D03*
X007257Y010423D03*
X006627Y010603D03*
X006627Y010018D03*
X007932Y010018D03*
X007932Y010603D03*
D36*
X007932Y013213D03*
X006627Y013213D03*
D37*
X007497Y011856D03*
X007512Y011856D03*
X007527Y011856D03*
X007587Y011436D03*
X007602Y011436D03*
X007617Y011436D03*
X006972Y011436D03*
X006957Y011436D03*
X006942Y011436D03*
X006642Y010641D03*
X006897Y010326D03*
X007047Y010146D03*
X006642Y009981D03*
X007917Y009981D03*
X007917Y010641D03*
D38*
X007917Y013221D03*
X006642Y013221D03*
D39*
X007212Y012013D03*
X007032Y011443D03*
X007017Y011443D03*
X007002Y011443D03*
X006987Y011443D03*
X007527Y011443D03*
X007542Y011443D03*
X007557Y011443D03*
X007572Y011443D03*
X007017Y010918D03*
X006657Y010678D03*
X006657Y009943D03*
X007587Y009718D03*
X007902Y009943D03*
D40*
X007902Y013228D03*
X007887Y013228D03*
X006672Y013228D03*
X006657Y013228D03*
D41*
X007482Y013198D03*
X007497Y013198D03*
X007512Y013198D03*
X007527Y013198D03*
X007542Y013198D03*
X007557Y013198D03*
X007572Y013198D03*
X007587Y013198D03*
X007602Y013198D03*
X007617Y013198D03*
X007632Y013198D03*
X007647Y013198D03*
X007662Y013198D03*
X007677Y013198D03*
X007692Y013198D03*
X007707Y013198D03*
X007722Y013198D03*
X007737Y013198D03*
X007752Y013198D03*
X007767Y013198D03*
X007782Y013198D03*
X007797Y013198D03*
X007812Y013198D03*
X007827Y013198D03*
X006792Y012013D03*
X007122Y011458D03*
X007137Y011458D03*
X007152Y011458D03*
X007167Y011458D03*
X007182Y011458D03*
X007197Y011458D03*
X007212Y011458D03*
X007392Y011458D03*
X007407Y011458D03*
X007422Y011458D03*
X007437Y011458D03*
X007002Y010933D03*
X006672Y010708D03*
X007092Y010108D03*
X006672Y009913D03*
X007677Y010333D03*
X007887Y010708D03*
X007887Y009913D03*
D42*
X007872Y009891D03*
X007602Y009711D03*
X007137Y010086D03*
X007122Y010086D03*
X007107Y010101D03*
X006687Y009891D03*
X006687Y010731D03*
X007872Y010731D03*
D43*
X007872Y013236D03*
X006687Y013236D03*
D44*
X006807Y012013D03*
X007197Y012013D03*
X006702Y010753D03*
X006882Y010333D03*
X007152Y010078D03*
X007167Y010078D03*
X007182Y010063D03*
X007197Y010063D03*
X007212Y010063D03*
X007227Y010063D03*
X007242Y010063D03*
X006702Y009868D03*
X007857Y009868D03*
X007857Y010753D03*
D45*
X007857Y013243D03*
X006702Y013243D03*
D46*
X007212Y013491D03*
X007827Y013551D03*
X006777Y012456D03*
X006987Y012261D03*
X007002Y012261D03*
X006732Y010791D03*
X006717Y010776D03*
X007257Y010056D03*
X007272Y010056D03*
X007617Y009696D03*
X007812Y009816D03*
X007827Y009831D03*
X007842Y009846D03*
X007842Y010776D03*
X007827Y010791D03*
X006747Y009816D03*
X006732Y009831D03*
X006717Y009846D03*
D47*
X006732Y013251D03*
X006717Y013251D03*
D48*
X006777Y013318D03*
X006792Y013318D03*
X007167Y013498D03*
X007182Y013498D03*
X007197Y013498D03*
X007392Y013543D03*
X007212Y013153D03*
X007197Y013153D03*
X007182Y013153D03*
X007047Y012268D03*
X007032Y012268D03*
X007017Y012268D03*
X006972Y012268D03*
X006957Y012268D03*
X006942Y012268D03*
X007182Y012013D03*
X006987Y010948D03*
X006762Y010828D03*
X006747Y010813D03*
X007797Y010828D03*
X007812Y010813D03*
X007797Y009793D03*
X006762Y009793D03*
D49*
X006747Y013258D03*
D50*
X006762Y013266D03*
D51*
X006807Y013326D03*
X007122Y013506D03*
X007137Y013506D03*
X007152Y013506D03*
X007557Y013746D03*
X007812Y013536D03*
X007167Y013146D03*
X007152Y013146D03*
X007212Y012471D03*
X007392Y012396D03*
X007062Y012261D03*
X006927Y012261D03*
X006792Y012471D03*
X006822Y012021D03*
X006822Y010881D03*
X006807Y010866D03*
X006792Y010851D03*
X006777Y010836D03*
X007737Y010881D03*
X007752Y010866D03*
X007767Y010851D03*
X007782Y010836D03*
X007782Y009786D03*
X007767Y009771D03*
X007752Y009756D03*
X007737Y009741D03*
X007632Y009681D03*
X006822Y009741D03*
X006807Y009756D03*
X006792Y009771D03*
X006777Y009786D03*
D52*
X007452Y010011D03*
X007062Y010881D03*
X006777Y011391D03*
X007392Y011901D03*
X007782Y011391D03*
X007797Y011391D03*
D53*
X007737Y011751D03*
X007632Y011751D03*
X007587Y011961D03*
X007782Y011961D03*
X007482Y012201D03*
X007482Y012441D03*
X007497Y012441D03*
X007512Y012441D03*
X007527Y012441D03*
X007542Y012441D03*
X007557Y012441D03*
X007572Y012441D03*
X007587Y012441D03*
X007602Y012441D03*
X007617Y012441D03*
X007632Y012441D03*
X007647Y012441D03*
X007662Y012441D03*
X007677Y012441D03*
X007692Y012441D03*
X007707Y012441D03*
X007722Y012441D03*
X007737Y012441D03*
X007752Y012441D03*
X007767Y012441D03*
X007782Y012441D03*
X007797Y012441D03*
X007812Y012441D03*
X007827Y012441D03*
X007782Y012891D03*
X007767Y012891D03*
X007677Y012891D03*
X007662Y012891D03*
X007602Y012891D03*
X007437Y012891D03*
X007107Y012801D03*
X007107Y012516D03*
X007092Y012516D03*
X007122Y012516D03*
X006897Y012516D03*
X006882Y012516D03*
X006777Y012711D03*
X006777Y012891D03*
X006912Y013101D03*
X006927Y013101D03*
X006912Y013551D03*
X006897Y013551D03*
X006882Y013551D03*
X006882Y013761D03*
X006867Y013761D03*
X006852Y013761D03*
X006837Y013761D03*
X006822Y013761D03*
X006807Y013761D03*
X006792Y013761D03*
X006777Y013761D03*
X006897Y013761D03*
X006912Y013761D03*
X006927Y013761D03*
X006942Y013761D03*
X006957Y013761D03*
X006972Y013761D03*
X006987Y013761D03*
X007002Y013761D03*
X007017Y013761D03*
X007032Y013761D03*
X007047Y013761D03*
X007062Y013761D03*
X007077Y013761D03*
X007092Y013761D03*
X007107Y013761D03*
X007122Y013761D03*
X007137Y013761D03*
X007152Y013761D03*
X007167Y013761D03*
X007182Y013761D03*
X007197Y013761D03*
X007212Y013761D03*
X007482Y013746D03*
X007497Y013491D03*
X007512Y013491D03*
X007527Y013491D03*
X007692Y013491D03*
X007707Y013491D03*
X007722Y013491D03*
X007122Y014031D03*
X006867Y013971D03*
X007122Y011751D03*
X006867Y010326D03*
D54*
X008277Y009343D03*
X007047Y012013D03*
X007032Y012013D03*
X007017Y012013D03*
X007002Y012013D03*
X006987Y012013D03*
X006972Y012013D03*
X006957Y012013D03*
X006942Y012013D03*
X006867Y012703D03*
X006852Y012703D03*
X006837Y012703D03*
X007017Y012808D03*
X007032Y012808D03*
X007047Y012808D03*
X006897Y012913D03*
X006882Y012913D03*
X006867Y012913D03*
X006822Y013078D03*
X006807Y013078D03*
X006792Y013078D03*
X006777Y013078D03*
X006987Y013318D03*
X007002Y013318D03*
X006792Y013573D03*
X006927Y013948D03*
X006942Y013948D03*
X007047Y014053D03*
X007392Y013303D03*
X007407Y013303D03*
X007422Y013303D03*
X007437Y013303D03*
X007452Y013303D03*
X007467Y013303D03*
X008262Y015313D03*
X008277Y015313D03*
D55*
X008292Y015291D03*
X007077Y014046D03*
X007062Y014046D03*
X006912Y013956D03*
X006822Y013566D03*
X006807Y013566D03*
X006777Y013566D03*
X006837Y013086D03*
X006852Y013086D03*
X006852Y012906D03*
X006837Y012906D03*
X006822Y012906D03*
X006822Y012711D03*
X006807Y012711D03*
X007062Y012801D03*
X007467Y012906D03*
X007482Y012906D03*
X007497Y012906D03*
X007512Y012906D03*
X007527Y012906D03*
X007542Y012906D03*
X007557Y012906D03*
X006867Y012261D03*
X007062Y012021D03*
X007617Y011976D03*
X007632Y011976D03*
X007647Y011976D03*
X007662Y011976D03*
X007677Y011976D03*
X007692Y011976D03*
X007707Y011976D03*
X007722Y011976D03*
X007737Y011976D03*
X007752Y011976D03*
X007512Y010446D03*
X008292Y009351D03*
D56*
X007722Y009733D03*
X007707Y009718D03*
X007677Y009703D03*
X007662Y009688D03*
X006897Y009688D03*
X006882Y009703D03*
X006852Y009718D03*
X006837Y009733D03*
X006837Y010888D03*
X006852Y010903D03*
X006867Y010918D03*
X006897Y010933D03*
X006972Y010963D03*
X007662Y010933D03*
X007692Y010918D03*
X007707Y010903D03*
X007722Y010888D03*
X007017Y011788D03*
X007002Y011788D03*
X006987Y011788D03*
X006972Y011788D03*
X007167Y012013D03*
X007092Y012268D03*
X007077Y012268D03*
X006912Y012268D03*
X007197Y012478D03*
X007212Y012808D03*
X007137Y013138D03*
X007122Y013138D03*
X007107Y013138D03*
X006837Y013318D03*
X006822Y013318D03*
X007092Y013513D03*
X007107Y013513D03*
X007407Y013528D03*
X007527Y013738D03*
X007542Y013738D03*
X007677Y013738D03*
X007692Y013738D03*
X007827Y012853D03*
X007542Y011923D03*
X006777Y013993D03*
D57*
X006777Y014766D03*
X006792Y014766D03*
X006807Y014766D03*
X006822Y014766D03*
X006837Y014766D03*
X006852Y014766D03*
X006867Y014766D03*
X006882Y014766D03*
X006897Y014766D03*
X006912Y014766D03*
X006927Y014766D03*
X006942Y014766D03*
X006957Y014766D03*
X006972Y014766D03*
X006987Y014766D03*
X007002Y014766D03*
X007017Y014766D03*
X007032Y014766D03*
X007047Y014766D03*
X007062Y014766D03*
X007077Y014766D03*
X007092Y014766D03*
X007107Y014766D03*
X007122Y014766D03*
X007137Y014766D03*
X007152Y014766D03*
X007167Y014766D03*
X007182Y014766D03*
X007197Y014766D03*
X007212Y014766D03*
D58*
X006807Y011398D03*
X006792Y011398D03*
X007752Y011398D03*
X007767Y011398D03*
X007647Y010333D03*
X007377Y010153D03*
X007557Y009748D03*
D59*
X007602Y011968D03*
X007767Y011968D03*
X007107Y012013D03*
X007092Y012013D03*
X007077Y012013D03*
X006927Y012013D03*
X006912Y012013D03*
X006897Y012013D03*
X006912Y012523D03*
X006927Y012523D03*
X006942Y012523D03*
X006957Y012523D03*
X006972Y012523D03*
X006987Y012523D03*
X007002Y012523D03*
X007017Y012523D03*
X007032Y012523D03*
X007047Y012523D03*
X007062Y012523D03*
X007077Y012523D03*
X007077Y012808D03*
X007092Y012808D03*
X006807Y012898D03*
X006792Y012898D03*
X006792Y012718D03*
X006867Y013093D03*
X006882Y013093D03*
X006897Y013093D03*
X006972Y013318D03*
X006867Y013558D03*
X006852Y013558D03*
X006837Y013558D03*
X006882Y013963D03*
X006897Y013963D03*
X007092Y014038D03*
X007107Y014038D03*
X007737Y013738D03*
X007677Y013483D03*
X007662Y013483D03*
X007647Y013483D03*
X007632Y013483D03*
X007617Y013483D03*
X007602Y013483D03*
X007587Y013483D03*
X007572Y013483D03*
X007557Y013483D03*
X007542Y013483D03*
X007572Y012898D03*
X007587Y012898D03*
X007692Y012898D03*
X007707Y012898D03*
X007722Y012898D03*
X007737Y012898D03*
X007752Y012898D03*
X007452Y012898D03*
D60*
X007497Y012673D03*
X007557Y012673D03*
X007692Y012673D03*
X007707Y012673D03*
X007422Y012418D03*
X007182Y012493D03*
X007107Y012268D03*
X007152Y012013D03*
X006852Y012013D03*
X006897Y011773D03*
X006912Y011773D03*
X007092Y011773D03*
X007512Y012208D03*
X006822Y012493D03*
X007167Y012808D03*
X007182Y012808D03*
X007047Y013123D03*
X007032Y013123D03*
X006867Y013318D03*
X007002Y013528D03*
X007017Y013528D03*
X007032Y013528D03*
X007437Y013513D03*
X007782Y013513D03*
X007197Y014008D03*
X007182Y014008D03*
X006792Y013993D03*
X007182Y011038D03*
X007197Y011038D03*
X007212Y011038D03*
X007227Y011038D03*
X007242Y011038D03*
X007257Y011038D03*
X007272Y011038D03*
X007287Y011038D03*
X007302Y011038D03*
X007317Y011038D03*
X007332Y011038D03*
X007347Y011038D03*
X007362Y011038D03*
X007377Y011038D03*
X007422Y011023D03*
X007437Y011023D03*
X007452Y011023D03*
X007467Y011023D03*
X007482Y011008D03*
X007497Y011008D03*
X007512Y011008D03*
X007527Y010993D03*
X007542Y010993D03*
X007572Y010978D03*
X007137Y011023D03*
X007122Y011023D03*
X006957Y009658D03*
X006987Y009643D03*
X007017Y009628D03*
X007032Y009628D03*
X007047Y009613D03*
X007062Y009613D03*
X007077Y009613D03*
X007107Y009598D03*
X007122Y009598D03*
X007137Y009598D03*
X007182Y009583D03*
X007197Y009583D03*
X007212Y009583D03*
X007227Y009583D03*
X007242Y009583D03*
X007257Y009583D03*
X007272Y009583D03*
X007287Y009583D03*
X007302Y009583D03*
X007317Y009583D03*
X007332Y009583D03*
X007347Y009583D03*
X007362Y009583D03*
X007377Y009583D03*
X007422Y009598D03*
X007437Y009598D03*
X007452Y009598D03*
X007482Y009613D03*
D61*
X007467Y009606D03*
X007407Y009591D03*
X007392Y009591D03*
X007167Y009591D03*
X007152Y009591D03*
X007092Y009606D03*
X007152Y011031D03*
X007167Y011031D03*
X007392Y011031D03*
X007407Y011031D03*
X007662Y011766D03*
X007677Y011766D03*
X007692Y011766D03*
X007707Y011766D03*
X007722Y011766D03*
X007812Y011946D03*
X007557Y011946D03*
X007497Y012201D03*
X007137Y012021D03*
X006882Y012261D03*
X006837Y012501D03*
X007152Y012501D03*
X007167Y012501D03*
X007437Y012426D03*
X007482Y012666D03*
X007572Y012666D03*
X007677Y012666D03*
X007722Y012666D03*
X007632Y012876D03*
X007812Y012876D03*
X007407Y012876D03*
X007152Y012801D03*
X007017Y013116D03*
X007002Y013116D03*
X006987Y013116D03*
X006987Y013536D03*
X006972Y013536D03*
X006957Y013536D03*
X006822Y013986D03*
X006807Y013986D03*
X007167Y014016D03*
X007497Y013746D03*
X007722Y013746D03*
X007752Y013506D03*
X007767Y013506D03*
X007452Y013506D03*
X007107Y011766D03*
D62*
X007407Y011886D03*
X007722Y011406D03*
X007737Y011406D03*
X007047Y010896D03*
X007137Y010686D03*
X007152Y010656D03*
X007167Y010626D03*
X007182Y010596D03*
X007197Y010551D03*
X007212Y010521D03*
X007227Y010491D03*
X007242Y010461D03*
X007272Y010386D03*
X007392Y010116D03*
X007407Y010086D03*
X007422Y010056D03*
X007437Y010026D03*
X006912Y010326D03*
X006837Y011406D03*
X006822Y011406D03*
D63*
X006882Y011758D03*
X006882Y012013D03*
X006867Y012013D03*
X007122Y012013D03*
X007122Y012268D03*
X007137Y012508D03*
X006867Y012508D03*
X006852Y012508D03*
X007122Y012808D03*
X007137Y012808D03*
X007422Y012883D03*
X007617Y012883D03*
X007647Y012883D03*
X007797Y012883D03*
X007737Y012658D03*
X007662Y012658D03*
X007467Y012433D03*
X007452Y012433D03*
X007572Y011953D03*
X007647Y011758D03*
X007797Y011953D03*
X006972Y013108D03*
X006957Y013108D03*
X006942Y013108D03*
X006942Y013543D03*
X006927Y013543D03*
X006852Y013978D03*
X006837Y013978D03*
X007137Y014023D03*
X007152Y014023D03*
X007467Y013498D03*
X007482Y013498D03*
X007737Y013498D03*
X007692Y010333D03*
D64*
X007662Y010333D03*
X007032Y010903D03*
X006927Y011428D03*
X006912Y011428D03*
X007452Y011863D03*
X007467Y011863D03*
X007482Y011863D03*
X007632Y011428D03*
X007647Y011428D03*
D65*
X007827Y011376D03*
X006927Y010326D03*
X007362Y010161D03*
D66*
X007497Y010453D03*
X006957Y012688D03*
X006942Y012688D03*
X006927Y012688D03*
X006972Y012808D03*
X006987Y012808D03*
X007002Y012808D03*
X006987Y012928D03*
X006972Y012928D03*
X006957Y012928D03*
X007032Y013318D03*
X007047Y013318D03*
X006987Y013933D03*
X006987Y014068D03*
X007002Y014068D03*
D67*
X006942Y010333D03*
X007017Y010258D03*
X007032Y010243D03*
X007617Y010333D03*
D68*
X007572Y010296D03*
X007557Y010281D03*
X007542Y010266D03*
X007332Y010191D03*
X007002Y010266D03*
X006987Y010281D03*
X006972Y010296D03*
X006957Y010311D03*
X007092Y010851D03*
D69*
X007482Y010461D03*
X007002Y012681D03*
X006987Y012681D03*
X006972Y012681D03*
X007002Y012936D03*
X007017Y012936D03*
X007062Y013326D03*
X007017Y013926D03*
X007002Y013926D03*
X006972Y014076D03*
D70*
X007047Y011451D03*
X007062Y011451D03*
X007077Y011451D03*
X007092Y011451D03*
X007107Y011451D03*
X007452Y011451D03*
X007467Y011451D03*
X007482Y011451D03*
X007497Y011451D03*
X007512Y011451D03*
X007902Y010686D03*
X007077Y010116D03*
X007062Y010131D03*
D71*
X007632Y010333D03*
X007077Y010858D03*
D72*
X007107Y010836D03*
X007317Y010206D03*
D73*
X007227Y011766D03*
D74*
X007227Y013836D03*
D75*
X007242Y013333D03*
X007257Y013333D03*
X007272Y013333D03*
X007287Y013333D03*
X007302Y013333D03*
X007317Y013333D03*
X007332Y013333D03*
X007347Y013333D03*
X007362Y013333D03*
D76*
X007287Y010243D03*
D77*
X007302Y010228D03*
D78*
X007377Y011736D03*
D79*
X007377Y012973D03*
X007437Y014623D03*
X007452Y014623D03*
X007767Y014623D03*
X007782Y014623D03*
D80*
X007377Y014571D03*
D81*
X007392Y014593D03*
D82*
X007407Y014601D03*
X007812Y014601D03*
D83*
X007797Y014616D03*
X007422Y014616D03*
D84*
X007467Y014631D03*
X007482Y014631D03*
X007752Y014631D03*
D85*
X007602Y010318D03*
X007587Y010303D03*
X007482Y009988D03*
D86*
X007497Y009898D03*
D87*
X007512Y014638D03*
X007497Y014638D03*
X007527Y014638D03*
X007677Y014638D03*
X007692Y014638D03*
X007707Y014638D03*
X007722Y014638D03*
X007737Y014638D03*
D88*
X007512Y009913D03*
D89*
X007527Y010026D03*
D90*
X007542Y009763D03*
X007812Y011383D03*
D91*
X007557Y014646D03*
X007542Y014646D03*
D92*
X007572Y014488D03*
X007587Y014488D03*
X007602Y014488D03*
X007617Y014488D03*
X007632Y014488D03*
X007647Y014488D03*
D93*
X007662Y014496D03*
D94*
X007827Y014586D03*
D95*
X007842Y012441D03*
D96*
X007842Y014556D03*
D97*
X008022Y013168D03*
D98*
X008037Y013161D03*
D99*
X008052Y013146D03*
D100*
X008262Y009328D03*
D101*
X008307Y012321D03*
D102*
X008322Y012321D03*
D103*
X008337Y012328D03*
M02*
