G75*
G70*
%OFA0B0*%
%FSLAX24Y24*%
%IPPOS*%
%LPD*%
%AMOC8*
5,1,8,0,0,1.08239X$1,22.5*
%
%ADD10C,0.0060*%
%ADD11C,0.0050*%
%ADD12C,0.0080*%
%ADD13C,0.0160*%
%ADD14C,0.0100*%
%ADD15C,0.0240*%
%ADD16R,0.0240X0.0340*%
%ADD17C,0.0020*%
%ADD18R,0.0800X0.0200*%
%ADD19C,0.0200*%
%ADD20R,0.0200X0.0250*%
%ADD21C,0.0025*%
%ADD22C,0.0120*%
D10*
X004543Y004352D02*
X004543Y004502D01*
X004593Y004552D01*
X004593Y006452D01*
X004543Y006502D01*
X004543Y006652D01*
X004545Y006669D01*
X004549Y006686D01*
X004556Y006702D01*
X004566Y006716D01*
X004579Y006729D01*
X004593Y006739D01*
X004609Y006746D01*
X004626Y006750D01*
X004643Y006752D01*
X005343Y006752D01*
X005360Y006750D01*
X005377Y006746D01*
X005393Y006739D01*
X005407Y006729D01*
X005420Y006716D01*
X005430Y006702D01*
X005437Y006686D01*
X005441Y006669D01*
X005443Y006652D01*
X005443Y006502D01*
X005393Y006452D01*
X005393Y004552D01*
X005443Y004502D01*
X005443Y004352D01*
X005441Y004335D01*
X005437Y004318D01*
X005430Y004302D01*
X005420Y004288D01*
X005407Y004275D01*
X005393Y004265D01*
X005377Y004258D01*
X005360Y004254D01*
X005343Y004252D01*
X004643Y004252D01*
X004626Y004254D01*
X004609Y004258D01*
X004593Y004265D01*
X004579Y004275D01*
X004566Y004288D01*
X004556Y004302D01*
X004549Y004318D01*
X004545Y004335D01*
X004543Y004352D01*
X005523Y005236D02*
X005523Y005456D01*
X005596Y005530D01*
X005743Y005530D01*
X005816Y005456D01*
X005816Y005236D01*
X005816Y005383D02*
X005963Y005530D01*
X005890Y005696D02*
X005963Y005770D01*
X005963Y005916D01*
X005890Y005990D01*
X005816Y005990D01*
X005743Y005916D01*
X005743Y005843D01*
X005743Y005916D02*
X005670Y005990D01*
X005596Y005990D01*
X005523Y005916D01*
X005523Y005770D01*
X005596Y005696D01*
X005743Y006152D02*
X005743Y007852D01*
X005745Y007869D01*
X005749Y007886D01*
X005756Y007902D01*
X005766Y007916D01*
X005779Y007929D01*
X005793Y007939D01*
X005809Y007946D01*
X005826Y007950D01*
X005843Y007952D01*
X006643Y007952D01*
X006660Y007950D01*
X006677Y007946D01*
X006693Y007939D01*
X006707Y007929D01*
X006720Y007916D01*
X006730Y007902D01*
X006737Y007886D01*
X006741Y007869D01*
X006743Y007852D01*
X006743Y006152D01*
X006741Y006135D01*
X006737Y006118D01*
X006730Y006102D01*
X006720Y006088D01*
X006707Y006075D01*
X006693Y006065D01*
X006677Y006058D01*
X006660Y006054D01*
X006643Y006052D01*
X005843Y006052D01*
X005826Y006054D01*
X005809Y006058D01*
X005793Y006065D01*
X005779Y006075D01*
X005766Y006088D01*
X005756Y006102D01*
X005749Y006118D01*
X005745Y006135D01*
X005743Y006152D01*
X006243Y006502D02*
X006243Y006852D01*
X006243Y006902D01*
X006243Y007102D02*
X006243Y007152D01*
X006243Y007502D01*
X006593Y008252D02*
X004893Y008252D01*
X004876Y008254D01*
X004859Y008258D01*
X004843Y008265D01*
X004829Y008275D01*
X004816Y008288D01*
X004806Y008302D01*
X004799Y008318D01*
X004795Y008335D01*
X004793Y008352D01*
X004793Y009152D01*
X004795Y009169D01*
X004799Y009186D01*
X004806Y009202D01*
X004816Y009216D01*
X004829Y009229D01*
X004843Y009239D01*
X004859Y009246D01*
X004876Y009250D01*
X004893Y009252D01*
X006593Y009252D01*
X006610Y009250D01*
X006627Y009246D01*
X006643Y009239D01*
X006657Y009229D01*
X006670Y009216D01*
X006680Y009202D01*
X006687Y009186D01*
X006691Y009169D01*
X006693Y009152D01*
X006693Y008352D01*
X006691Y008335D01*
X006687Y008318D01*
X006680Y008302D01*
X006670Y008288D01*
X006657Y008275D01*
X006643Y008265D01*
X006627Y008258D01*
X006610Y008254D01*
X006593Y008252D01*
X006243Y008752D02*
X005893Y008752D01*
X005843Y008752D01*
X005643Y008752D02*
X005593Y008752D01*
X005243Y008752D01*
X005343Y009552D02*
X006143Y009552D01*
X006160Y009554D01*
X006177Y009558D01*
X006193Y009565D01*
X006207Y009575D01*
X006220Y009588D01*
X006230Y009602D01*
X006237Y009618D01*
X006241Y009635D01*
X006243Y009652D01*
X006243Y011352D01*
X006241Y011369D01*
X006237Y011386D01*
X006230Y011402D01*
X006220Y011416D01*
X006207Y011429D01*
X006193Y011439D01*
X006177Y011446D01*
X006160Y011450D01*
X006143Y011452D01*
X005343Y011452D01*
X005326Y011450D01*
X005309Y011446D01*
X005293Y011439D01*
X005279Y011429D01*
X005266Y011416D01*
X005256Y011402D01*
X005249Y011386D01*
X005245Y011369D01*
X005243Y011352D01*
X005243Y009652D01*
X005245Y009635D01*
X005249Y009618D01*
X005256Y009602D01*
X005266Y009588D01*
X005279Y009575D01*
X005293Y009565D01*
X005309Y009558D01*
X005326Y009554D01*
X005343Y009552D01*
X005743Y010002D02*
X005743Y010352D01*
X005743Y010402D01*
X005743Y010602D02*
X005743Y010652D01*
X005743Y011002D01*
X006398Y010774D02*
X006398Y010480D01*
X006472Y010407D01*
X006618Y010407D01*
X006692Y010480D01*
X006859Y010627D02*
X007152Y010627D01*
X007079Y010847D02*
X006859Y010627D01*
X006692Y010774D02*
X006618Y010847D01*
X006472Y010847D01*
X006398Y010774D01*
X006243Y011502D02*
X006243Y012502D01*
X005243Y012502D01*
X005243Y014502D01*
X006243Y014502D01*
X006243Y012502D01*
X006373Y012197D02*
X006373Y011977D01*
X006520Y012050D01*
X006593Y012050D01*
X006667Y011977D01*
X006667Y011830D01*
X006593Y011757D01*
X006447Y011757D01*
X006373Y011830D01*
X006243Y011502D02*
X005243Y011502D01*
X005243Y012502D01*
X005152Y012782D02*
X005152Y013075D01*
X005005Y013222D01*
X004859Y013075D01*
X004859Y012782D01*
X004692Y012782D02*
X004545Y012929D01*
X004618Y012929D02*
X004398Y012929D01*
X004398Y012782D02*
X004398Y013222D01*
X004618Y013222D01*
X004692Y013149D01*
X004692Y013002D01*
X004618Y012929D01*
X004859Y013002D02*
X005152Y013002D01*
X005079Y013782D02*
X004859Y013782D01*
X004859Y014222D01*
X005079Y014222D01*
X005152Y014149D01*
X005152Y014075D01*
X005079Y014002D01*
X004859Y014002D01*
X004692Y014002D02*
X004692Y014149D01*
X004618Y014222D01*
X004398Y014222D01*
X004398Y013782D01*
X004398Y013929D02*
X004618Y013929D01*
X004692Y014002D01*
X004545Y013929D02*
X004692Y013782D01*
X005079Y013782D02*
X005152Y013855D01*
X005152Y013929D01*
X005079Y014002D01*
X005243Y014502D02*
X005243Y015502D01*
X006243Y015502D01*
X006243Y014502D01*
X006593Y014197D02*
X006373Y013977D01*
X006667Y013977D01*
X006593Y013757D02*
X006593Y014197D01*
X006593Y013197D02*
X006373Y012977D01*
X006667Y012977D01*
X006593Y012757D02*
X006593Y013197D01*
X006667Y012197D02*
X006373Y012197D01*
X007079Y010847D02*
X007079Y010407D01*
X007127Y009822D02*
X006834Y009822D01*
X006667Y009749D02*
X006593Y009822D01*
X006447Y009822D01*
X006373Y009749D01*
X006373Y009455D01*
X006447Y009382D01*
X006593Y009382D01*
X006667Y009455D01*
X006834Y009455D02*
X006834Y009382D01*
X006834Y009455D02*
X007127Y009749D01*
X007127Y009822D01*
X007243Y009502D02*
X008243Y009502D01*
X008093Y009502D01*
X008093Y023502D01*
X008243Y023502D01*
X007243Y023502D01*
X007243Y009502D01*
X008043Y008802D02*
X010443Y008802D01*
X010393Y009502D02*
X010243Y009502D01*
X011243Y009502D01*
X011243Y023502D01*
X010243Y023502D01*
X009643Y023502D01*
X009529Y023657D02*
X009529Y024097D01*
X009823Y024097D01*
X009990Y024097D02*
X010283Y024097D01*
X010136Y024097D02*
X010136Y023657D01*
X010243Y023502D02*
X010393Y023502D01*
X010393Y009502D01*
X010243Y009502D02*
X008243Y009502D01*
X008973Y008402D02*
X008973Y008002D01*
X008973Y007602D01*
X009113Y007602D02*
X009363Y007602D01*
X009363Y008402D01*
X009113Y008402D01*
X009113Y007602D01*
X008973Y008002D02*
X008693Y008002D01*
X008043Y008802D02*
X007987Y008800D01*
X007932Y008794D01*
X007877Y008785D01*
X007822Y008771D01*
X007769Y008754D01*
X007718Y008733D01*
X007667Y008708D01*
X007619Y008680D01*
X007573Y008649D01*
X007529Y008615D01*
X007487Y008577D01*
X007448Y008537D01*
X007413Y008495D01*
X007380Y008449D01*
X007350Y008402D01*
X007324Y008353D01*
X007301Y008302D01*
X007282Y008249D01*
X007267Y008196D01*
X007255Y008141D01*
X007247Y008086D01*
X007243Y008030D01*
X007243Y007974D01*
X007247Y007918D01*
X007255Y007863D01*
X007267Y007808D01*
X007282Y007755D01*
X007301Y007702D01*
X007324Y007651D01*
X007350Y007602D01*
X007380Y007555D01*
X007413Y007509D01*
X007448Y007467D01*
X007487Y007427D01*
X007529Y007389D01*
X007573Y007355D01*
X007619Y007324D01*
X007667Y007296D01*
X007718Y007271D01*
X007769Y007250D01*
X007822Y007233D01*
X007877Y007219D01*
X007932Y007210D01*
X007987Y007204D01*
X008043Y007202D01*
X010443Y007202D01*
X010499Y007204D01*
X010554Y007210D01*
X010609Y007219D01*
X010664Y007233D01*
X010717Y007250D01*
X010768Y007271D01*
X010819Y007296D01*
X010867Y007324D01*
X010913Y007355D01*
X010957Y007389D01*
X010999Y007427D01*
X011038Y007467D01*
X011073Y007509D01*
X011106Y007555D01*
X011136Y007602D01*
X011162Y007651D01*
X011185Y007702D01*
X011204Y007755D01*
X011219Y007808D01*
X011231Y007863D01*
X011239Y007918D01*
X011243Y007974D01*
X011243Y008030D01*
X011239Y008086D01*
X011231Y008141D01*
X011219Y008196D01*
X011204Y008249D01*
X011185Y008302D01*
X011162Y008353D01*
X011136Y008402D01*
X011106Y008449D01*
X011073Y008495D01*
X011038Y008537D01*
X010999Y008577D01*
X010957Y008615D01*
X010913Y008649D01*
X010867Y008680D01*
X010819Y008708D01*
X010768Y008733D01*
X010717Y008754D01*
X010664Y008771D01*
X010609Y008785D01*
X010554Y008794D01*
X010499Y008800D01*
X010443Y008802D01*
X009793Y008002D02*
X009513Y008002D01*
X009513Y007602D01*
X009513Y008002D02*
X009513Y008402D01*
X008237Y006032D02*
X007944Y006032D01*
X008091Y006032D02*
X008091Y006472D01*
X007944Y006325D01*
X007777Y006252D02*
X007704Y006179D01*
X007484Y006179D01*
X007630Y006179D02*
X007777Y006032D01*
X007777Y006252D02*
X007777Y006399D01*
X007704Y006472D01*
X007484Y006472D01*
X007484Y006032D01*
X007317Y006179D02*
X007317Y006472D01*
X007432Y006657D02*
X007359Y006730D01*
X007432Y006657D02*
X007579Y006657D01*
X007652Y006730D01*
X007652Y006877D01*
X007579Y006950D01*
X007505Y006950D01*
X007359Y006877D01*
X007359Y007097D01*
X007652Y007097D01*
X007192Y007024D02*
X007118Y007097D01*
X006972Y007097D01*
X006898Y007024D01*
X006898Y006730D01*
X006972Y006657D01*
X007118Y006657D01*
X007192Y006730D01*
X007023Y006472D02*
X007023Y006179D01*
X007170Y006032D01*
X007317Y006179D01*
X005963Y005236D02*
X005523Y005236D01*
X006821Y003121D02*
X006748Y003048D01*
X006748Y002827D01*
X007188Y002827D01*
X007041Y002827D02*
X007041Y003048D01*
X006968Y003121D01*
X006821Y003121D01*
X007041Y002974D02*
X007188Y003121D01*
X007188Y002661D02*
X007041Y002514D01*
X007188Y002367D01*
X006748Y002367D01*
X006821Y002200D02*
X006748Y002127D01*
X006748Y001907D01*
X007188Y001907D01*
X007041Y001907D02*
X007041Y002127D01*
X006968Y002200D01*
X006821Y002200D01*
X006748Y002661D02*
X007188Y002661D01*
X006143Y002627D02*
X006141Y002588D01*
X006135Y002549D01*
X006126Y002511D01*
X006113Y002474D01*
X006096Y002438D01*
X006076Y002405D01*
X006052Y002373D01*
X006026Y002344D01*
X005997Y002318D01*
X005965Y002294D01*
X005932Y002274D01*
X005896Y002257D01*
X005859Y002244D01*
X005821Y002235D01*
X005782Y002229D01*
X005743Y002227D01*
X005295Y002228D02*
X005264Y002266D01*
X005236Y002306D01*
X005212Y002348D01*
X005191Y002391D01*
X005174Y002437D01*
X005161Y002483D01*
X005151Y002531D01*
X005145Y002579D01*
X005143Y002627D01*
X005743Y002377D02*
X005773Y002379D01*
X005803Y002384D01*
X005832Y002393D01*
X005859Y002406D01*
X005885Y002421D01*
X005909Y002440D01*
X005930Y002461D01*
X005949Y002485D01*
X005964Y002511D01*
X005977Y002538D01*
X005986Y002567D01*
X005991Y002597D01*
X005993Y002627D01*
X005743Y003027D02*
X005704Y003025D01*
X005665Y003019D01*
X005627Y003010D01*
X005590Y002997D01*
X005554Y002980D01*
X005521Y002960D01*
X005489Y002936D01*
X005460Y002910D01*
X005434Y002881D01*
X005410Y002849D01*
X005390Y002816D01*
X005373Y002780D01*
X005360Y002743D01*
X005351Y002705D01*
X005345Y002666D01*
X005343Y002627D01*
X005493Y002627D02*
X005495Y002657D01*
X005500Y002687D01*
X005509Y002716D01*
X005522Y002743D01*
X005537Y002769D01*
X005556Y002793D01*
X005577Y002814D01*
X005601Y002833D01*
X005627Y002848D01*
X005654Y002861D01*
X005683Y002870D01*
X005713Y002875D01*
X005743Y002877D01*
X005269Y002259D02*
X005299Y002224D01*
X005330Y002191D01*
X005365Y002161D01*
X005401Y002134D01*
X005439Y002110D01*
X005479Y002088D01*
X005521Y002070D01*
X005564Y002054D01*
X005608Y002042D01*
X005652Y002034D01*
X005698Y002029D01*
X005743Y002027D01*
X005788Y002029D01*
X005834Y002034D01*
X005878Y002042D01*
X005922Y002054D01*
X005965Y002070D01*
X006007Y002088D01*
X006047Y002110D01*
X006085Y002134D01*
X006121Y002161D01*
X006156Y002191D01*
X006187Y002224D01*
X006217Y002259D01*
X005743Y003227D02*
X005697Y003225D01*
X005651Y003220D01*
X005605Y003211D01*
X005560Y003199D01*
X005517Y003183D01*
X005475Y003164D01*
X005434Y003141D01*
X005395Y003116D01*
X005359Y003088D01*
X005324Y003057D01*
X005292Y003023D01*
X005263Y002987D01*
X005743Y003227D02*
X005790Y003225D01*
X005838Y003219D01*
X005884Y003210D01*
X005930Y003197D01*
X005974Y003181D01*
X006018Y003161D01*
X006059Y003137D01*
X006098Y003111D01*
X006135Y003081D01*
X006170Y003048D01*
X006202Y003013D01*
X006231Y002976D01*
X006343Y002627D02*
X006341Y002581D01*
X006336Y002535D01*
X006327Y002489D01*
X006315Y002445D01*
X006299Y002401D01*
X006280Y002359D01*
X006258Y002318D01*
X006232Y002280D01*
X006204Y002243D01*
X006343Y002627D02*
X006341Y002674D01*
X006336Y002721D01*
X006326Y002767D01*
X006313Y002813D01*
X006297Y002857D01*
X006277Y002900D01*
X006254Y002941D01*
X006228Y002980D01*
X006199Y003017D01*
X005282Y003011D02*
X005254Y002974D01*
X005228Y002936D01*
X005206Y002895D01*
X005187Y002853D01*
X005171Y002809D01*
X005159Y002765D01*
X005150Y002719D01*
X005145Y002673D01*
X005143Y002627D01*
X005079Y011782D02*
X004859Y011782D01*
X004859Y012222D01*
X005079Y012222D01*
X005152Y012149D01*
X005152Y012075D01*
X005079Y012002D01*
X004859Y012002D01*
X004692Y012002D02*
X004618Y011929D01*
X004398Y011929D01*
X004545Y011929D02*
X004692Y011782D01*
X004692Y012002D02*
X004692Y012149D01*
X004618Y012222D01*
X004398Y012222D01*
X004398Y011782D01*
X005079Y011782D02*
X005152Y011855D01*
X005152Y011929D01*
X005079Y012002D01*
X005243Y015502D02*
X005243Y022502D01*
X006243Y022502D01*
X006243Y015502D01*
X006472Y016782D02*
X006398Y016855D01*
X006472Y016782D02*
X006618Y016782D01*
X006692Y016855D01*
X006692Y016929D01*
X006618Y017002D01*
X006545Y017002D01*
X006618Y017002D02*
X006692Y017075D01*
X006692Y017149D01*
X006618Y017222D01*
X006472Y017222D01*
X006398Y017149D01*
X006398Y017782D02*
X006692Y018075D01*
X006692Y018149D01*
X006618Y018222D01*
X006472Y018222D01*
X006398Y018149D01*
X006398Y017782D02*
X006692Y017782D01*
X006692Y018782D02*
X006398Y018782D01*
X006545Y018782D02*
X006545Y019222D01*
X006398Y019075D01*
X006472Y019782D02*
X006398Y019855D01*
X006692Y020149D01*
X006692Y019855D01*
X006618Y019782D01*
X006472Y019782D01*
X006398Y019855D02*
X006398Y020149D01*
X006472Y020222D01*
X006618Y020222D01*
X006692Y020149D01*
X006692Y020782D02*
X006398Y020782D01*
X006545Y020782D02*
X006545Y021222D01*
X006398Y021075D01*
X006472Y021782D02*
X006398Y021855D01*
X006692Y022149D01*
X006692Y021855D01*
X006618Y021782D01*
X006472Y021782D01*
X006398Y021855D02*
X006398Y022149D01*
X006472Y022222D01*
X006618Y022222D01*
X006692Y022149D01*
X006893Y024752D02*
X007593Y024752D01*
X007610Y024754D01*
X007627Y024758D01*
X007643Y024765D01*
X007657Y024775D01*
X007670Y024788D01*
X007680Y024802D01*
X007687Y024818D01*
X007691Y024835D01*
X007693Y024852D01*
X007693Y025002D01*
X007643Y025052D01*
X007643Y026952D01*
X007693Y027002D01*
X007693Y027152D01*
X007691Y027169D01*
X007687Y027186D01*
X007680Y027202D01*
X007670Y027216D01*
X007657Y027229D01*
X007643Y027239D01*
X007627Y027246D01*
X007610Y027250D01*
X007593Y027252D01*
X006893Y027252D01*
X006876Y027250D01*
X006859Y027246D01*
X006843Y027239D01*
X006829Y027229D01*
X006816Y027216D01*
X006806Y027202D01*
X006799Y027186D01*
X006795Y027169D01*
X006793Y027152D01*
X006793Y027002D01*
X006843Y026952D01*
X006843Y025052D01*
X006793Y025002D01*
X006793Y024852D01*
X006795Y024835D01*
X006799Y024818D01*
X006806Y024802D01*
X006816Y024788D01*
X006829Y024775D01*
X006843Y024765D01*
X006859Y024758D01*
X006876Y024754D01*
X006893Y024752D01*
X006713Y025657D02*
X006273Y025657D01*
X006273Y025877D01*
X006346Y025950D01*
X006493Y025950D01*
X006566Y025877D01*
X006566Y025657D01*
X006566Y025804D02*
X006713Y025950D01*
X006713Y026117D02*
X006713Y026411D01*
X006713Y026264D02*
X006273Y026264D01*
X006420Y026117D01*
X005463Y028657D02*
X005463Y028804D01*
X005463Y028730D02*
X005023Y028730D01*
X005023Y028657D02*
X005023Y028804D01*
X005096Y028964D02*
X005023Y029037D01*
X005023Y029184D01*
X005096Y029257D01*
X005096Y029424D02*
X005170Y029424D01*
X005243Y029497D01*
X005243Y029644D01*
X005316Y029718D01*
X005390Y029718D01*
X005463Y029644D01*
X005463Y029497D01*
X005390Y029424D01*
X005390Y029257D02*
X005463Y029184D01*
X005463Y029037D01*
X005390Y028964D01*
X005096Y028964D01*
X005096Y029424D02*
X005023Y029497D01*
X005023Y029644D01*
X005096Y029718D01*
X005023Y029884D02*
X005023Y030104D01*
X005096Y030178D01*
X005243Y030178D01*
X005316Y030104D01*
X005316Y029884D01*
X005463Y029884D02*
X005023Y029884D01*
X006273Y029923D02*
X006273Y029702D01*
X006713Y029702D01*
X006713Y029923D01*
X006640Y029996D01*
X006566Y029996D01*
X006493Y029923D01*
X006493Y029702D01*
X006566Y029536D02*
X006640Y029536D01*
X006713Y029462D01*
X006713Y029315D01*
X006640Y029242D01*
X006493Y029315D02*
X006493Y029462D01*
X006566Y029536D01*
X006346Y029536D02*
X006273Y029462D01*
X006273Y029315D01*
X006346Y029242D01*
X006420Y029242D01*
X006493Y029315D01*
X006640Y029075D02*
X006273Y029075D01*
X006273Y028782D02*
X006640Y028782D01*
X006713Y028855D01*
X006713Y029002D01*
X006640Y029075D01*
X006493Y029923D02*
X006420Y029996D01*
X006346Y029996D01*
X006273Y029923D01*
X008243Y027402D02*
X008043Y027202D01*
X008043Y027052D01*
X008043Y026702D01*
X008043Y025752D01*
X008043Y025352D01*
X008043Y025202D01*
X008243Y025002D01*
X008843Y025002D01*
X008943Y025002D01*
X008943Y024902D01*
X009543Y024902D01*
X009543Y025002D01*
X009643Y025002D01*
X010243Y025002D01*
X010443Y025202D01*
X010443Y025352D01*
X010443Y025702D01*
X010443Y026702D01*
X010443Y027052D01*
X010443Y027202D01*
X010243Y027402D01*
X009643Y027402D01*
X009543Y027402D01*
X009543Y027502D01*
X008943Y027502D01*
X008943Y027402D01*
X008843Y027402D01*
X008243Y027402D01*
X008193Y027052D02*
X008195Y027080D01*
X008201Y027107D01*
X008210Y027133D01*
X008223Y027158D01*
X008240Y027181D01*
X008259Y027201D01*
X008281Y027218D01*
X008305Y027232D01*
X008331Y027242D01*
X008358Y027249D01*
X008386Y027252D01*
X008414Y027251D01*
X008441Y027246D01*
X008468Y027237D01*
X008493Y027225D01*
X008516Y027210D01*
X008537Y027191D01*
X008555Y027170D01*
X008570Y027146D01*
X008581Y027120D01*
X008589Y027094D01*
X008593Y027066D01*
X008593Y027038D01*
X008589Y027010D01*
X008581Y026984D01*
X008570Y026958D01*
X008555Y026934D01*
X008537Y026913D01*
X008516Y026894D01*
X008493Y026879D01*
X008468Y026867D01*
X008441Y026858D01*
X008414Y026853D01*
X008386Y026852D01*
X008358Y026855D01*
X008331Y026862D01*
X008305Y026872D01*
X008281Y026886D01*
X008259Y026903D01*
X008240Y026923D01*
X008223Y026946D01*
X008210Y026971D01*
X008201Y026997D01*
X008195Y027024D01*
X008193Y027052D01*
X008393Y026702D02*
X008393Y025702D01*
X008243Y025352D02*
X008245Y025380D01*
X008251Y025407D01*
X008260Y025433D01*
X008273Y025458D01*
X008290Y025481D01*
X008309Y025501D01*
X008331Y025518D01*
X008355Y025532D01*
X008381Y025542D01*
X008408Y025549D01*
X008436Y025552D01*
X008464Y025551D01*
X008491Y025546D01*
X008518Y025537D01*
X008543Y025525D01*
X008566Y025510D01*
X008587Y025491D01*
X008605Y025470D01*
X008620Y025446D01*
X008631Y025420D01*
X008639Y025394D01*
X008643Y025366D01*
X008643Y025338D01*
X008639Y025310D01*
X008631Y025284D01*
X008620Y025258D01*
X008605Y025234D01*
X008587Y025213D01*
X008566Y025194D01*
X008543Y025179D01*
X008518Y025167D01*
X008491Y025158D01*
X008464Y025153D01*
X008436Y025152D01*
X008408Y025155D01*
X008381Y025162D01*
X008355Y025172D01*
X008331Y025186D01*
X008309Y025203D01*
X008290Y025223D01*
X008273Y025246D01*
X008260Y025271D01*
X008251Y025297D01*
X008245Y025324D01*
X008243Y025352D01*
X008148Y024097D02*
X008368Y024097D01*
X008442Y024024D01*
X008442Y023877D01*
X008368Y023804D01*
X008148Y023804D01*
X008295Y023804D02*
X008442Y023657D01*
X008609Y023657D02*
X008609Y024097D01*
X008902Y024097D01*
X009069Y024024D02*
X009069Y023950D01*
X009142Y023877D01*
X009289Y023877D01*
X009362Y023804D01*
X009362Y023730D01*
X009289Y023657D01*
X009142Y023657D01*
X009069Y023730D01*
X008902Y023657D02*
X008609Y023657D01*
X008609Y023877D02*
X008755Y023877D01*
X008843Y023502D02*
X008243Y023502D01*
X008148Y023657D02*
X008148Y024097D01*
X009069Y024024D02*
X009142Y024097D01*
X009289Y024097D01*
X009362Y024024D01*
X009529Y023877D02*
X009676Y023877D01*
X009529Y023657D02*
X009823Y023657D01*
X009643Y023502D02*
X009641Y023463D01*
X009635Y023424D01*
X009626Y023386D01*
X009613Y023349D01*
X009596Y023313D01*
X009576Y023280D01*
X009552Y023248D01*
X009526Y023219D01*
X009497Y023193D01*
X009465Y023169D01*
X009432Y023149D01*
X009396Y023132D01*
X009359Y023119D01*
X009321Y023110D01*
X009282Y023104D01*
X009243Y023102D01*
X009204Y023104D01*
X009165Y023110D01*
X009127Y023119D01*
X009090Y023132D01*
X009054Y023149D01*
X009021Y023169D01*
X008989Y023193D01*
X008960Y023219D01*
X008934Y023248D01*
X008910Y023280D01*
X008890Y023313D01*
X008873Y023349D01*
X008860Y023386D01*
X008851Y023424D01*
X008845Y023463D01*
X008843Y023502D01*
X009893Y025352D02*
X009895Y025380D01*
X009901Y025407D01*
X009910Y025433D01*
X009923Y025458D01*
X009940Y025481D01*
X009959Y025501D01*
X009981Y025518D01*
X010005Y025532D01*
X010031Y025542D01*
X010058Y025549D01*
X010086Y025552D01*
X010114Y025551D01*
X010141Y025546D01*
X010168Y025537D01*
X010193Y025525D01*
X010216Y025510D01*
X010237Y025491D01*
X010255Y025470D01*
X010270Y025446D01*
X010281Y025420D01*
X010289Y025394D01*
X010293Y025366D01*
X010293Y025338D01*
X010289Y025310D01*
X010281Y025284D01*
X010270Y025258D01*
X010255Y025234D01*
X010237Y025213D01*
X010216Y025194D01*
X010193Y025179D01*
X010168Y025167D01*
X010141Y025158D01*
X010114Y025153D01*
X010086Y025152D01*
X010058Y025155D01*
X010031Y025162D01*
X010005Y025172D01*
X009981Y025186D01*
X009959Y025203D01*
X009940Y025223D01*
X009923Y025246D01*
X009910Y025271D01*
X009901Y025297D01*
X009895Y025324D01*
X009893Y025352D01*
X010143Y025702D02*
X010143Y026702D01*
X009893Y027052D02*
X009895Y027080D01*
X009901Y027107D01*
X009910Y027133D01*
X009923Y027158D01*
X009940Y027181D01*
X009959Y027201D01*
X009981Y027218D01*
X010005Y027232D01*
X010031Y027242D01*
X010058Y027249D01*
X010086Y027252D01*
X010114Y027251D01*
X010141Y027246D01*
X010168Y027237D01*
X010193Y027225D01*
X010216Y027210D01*
X010237Y027191D01*
X010255Y027170D01*
X010270Y027146D01*
X010281Y027120D01*
X010289Y027094D01*
X010293Y027066D01*
X010293Y027038D01*
X010289Y027010D01*
X010281Y026984D01*
X010270Y026958D01*
X010255Y026934D01*
X010237Y026913D01*
X010216Y026894D01*
X010193Y026879D01*
X010168Y026867D01*
X010141Y026858D01*
X010114Y026853D01*
X010086Y026852D01*
X010058Y026855D01*
X010031Y026862D01*
X010005Y026872D01*
X009981Y026886D01*
X009959Y026903D01*
X009940Y026923D01*
X009923Y026946D01*
X009910Y026971D01*
X009901Y026997D01*
X009895Y027024D01*
X009893Y027052D01*
X009743Y027152D02*
X009443Y027152D01*
X009093Y027052D01*
X009043Y027152D02*
X008743Y027152D01*
X009143Y026202D02*
X009145Y026222D01*
X009151Y026240D01*
X009160Y026258D01*
X009172Y026273D01*
X009187Y026285D01*
X009205Y026294D01*
X009223Y026300D01*
X009243Y026302D01*
X009263Y026300D01*
X009281Y026294D01*
X009299Y026285D01*
X009314Y026273D01*
X009326Y026258D01*
X009335Y026240D01*
X009341Y026222D01*
X009343Y026202D01*
X009341Y026182D01*
X009335Y026164D01*
X009326Y026146D01*
X009314Y026131D01*
X009299Y026119D01*
X009281Y026110D01*
X009263Y026104D01*
X009243Y026102D01*
X009223Y026104D01*
X009205Y026110D01*
X009187Y026119D01*
X009172Y026131D01*
X009160Y026146D01*
X009151Y026164D01*
X009145Y026182D01*
X009143Y026202D01*
X008543Y026202D02*
X008545Y026254D01*
X008551Y026306D01*
X008561Y026358D01*
X008574Y026408D01*
X008591Y026458D01*
X008612Y026506D01*
X008637Y026552D01*
X008665Y026596D01*
X008696Y026638D01*
X008730Y026678D01*
X008767Y026715D01*
X008807Y026749D01*
X008849Y026780D01*
X008893Y026808D01*
X008939Y026833D01*
X008987Y026854D01*
X009037Y026871D01*
X009087Y026884D01*
X009139Y026894D01*
X009191Y026900D01*
X009243Y026902D01*
X009295Y026900D01*
X009347Y026894D01*
X009399Y026884D01*
X009449Y026871D01*
X009499Y026854D01*
X009547Y026833D01*
X009593Y026808D01*
X009637Y026780D01*
X009679Y026749D01*
X009719Y026715D01*
X009756Y026678D01*
X009790Y026638D01*
X009821Y026596D01*
X009849Y026552D01*
X009874Y026506D01*
X009895Y026458D01*
X009912Y026408D01*
X009925Y026358D01*
X009935Y026306D01*
X009941Y026254D01*
X009943Y026202D01*
X009941Y026150D01*
X009935Y026098D01*
X009925Y026046D01*
X009912Y025996D01*
X009895Y025946D01*
X009874Y025898D01*
X009849Y025852D01*
X009821Y025808D01*
X009790Y025766D01*
X009756Y025726D01*
X009719Y025689D01*
X009679Y025655D01*
X009637Y025624D01*
X009593Y025596D01*
X009547Y025571D01*
X009499Y025550D01*
X009449Y025533D01*
X009399Y025520D01*
X009347Y025510D01*
X009295Y025504D01*
X009243Y025502D01*
X009191Y025504D01*
X009139Y025510D01*
X009087Y025520D01*
X009037Y025533D01*
X008987Y025550D01*
X008939Y025571D01*
X008893Y025596D01*
X008849Y025624D01*
X008807Y025655D01*
X008767Y025689D01*
X008730Y025726D01*
X008696Y025766D01*
X008665Y025808D01*
X008637Y025852D01*
X008612Y025898D01*
X008591Y025946D01*
X008574Y025996D01*
X008561Y026046D01*
X008551Y026098D01*
X008545Y026150D01*
X008543Y026202D01*
X010793Y027002D02*
X010843Y026952D01*
X010843Y025052D01*
X010793Y025002D01*
X010793Y024852D01*
X010795Y024835D01*
X010799Y024818D01*
X010806Y024802D01*
X010816Y024788D01*
X010829Y024775D01*
X010843Y024765D01*
X010859Y024758D01*
X010876Y024754D01*
X010893Y024752D01*
X011593Y024752D01*
X011610Y024754D01*
X011627Y024758D01*
X011643Y024765D01*
X011657Y024775D01*
X011670Y024788D01*
X011680Y024802D01*
X011687Y024818D01*
X011691Y024835D01*
X011693Y024852D01*
X011693Y025002D01*
X011643Y025052D01*
X011643Y026952D01*
X011693Y027002D01*
X011693Y027152D01*
X011691Y027169D01*
X011687Y027186D01*
X011680Y027202D01*
X011670Y027216D01*
X011657Y027229D01*
X011643Y027239D01*
X011627Y027246D01*
X011610Y027250D01*
X011593Y027252D01*
X010893Y027252D01*
X010876Y027250D01*
X010859Y027246D01*
X010843Y027239D01*
X010829Y027229D01*
X010816Y027216D01*
X010806Y027202D01*
X010799Y027186D01*
X010795Y027169D01*
X010793Y027152D01*
X010793Y027002D01*
X011773Y026462D02*
X011773Y026315D01*
X011846Y026242D01*
X011846Y026075D02*
X011993Y026075D01*
X012066Y026002D01*
X012066Y025782D01*
X012066Y025929D02*
X012213Y026075D01*
X012213Y026242D02*
X011920Y026536D01*
X011846Y026536D01*
X011773Y026462D01*
X011846Y026075D02*
X011773Y026002D01*
X011773Y025782D01*
X012213Y025782D01*
X012213Y026242D02*
X012213Y026536D01*
X011893Y025002D02*
X013593Y025002D01*
X013610Y025000D01*
X013627Y024996D01*
X013643Y024989D01*
X013657Y024979D01*
X013670Y024966D01*
X013680Y024952D01*
X013687Y024936D01*
X013691Y024919D01*
X013693Y024902D01*
X013693Y024102D01*
X013691Y024085D01*
X013687Y024068D01*
X013680Y024052D01*
X013670Y024038D01*
X013657Y024025D01*
X013643Y024015D01*
X013627Y024008D01*
X013610Y024004D01*
X013593Y024002D01*
X011893Y024002D01*
X013593Y024002D01*
X013610Y024000D01*
X013627Y023996D01*
X013643Y023989D01*
X013657Y023979D01*
X013670Y023966D01*
X013680Y023952D01*
X013687Y023936D01*
X013691Y023919D01*
X013693Y023902D01*
X013693Y023102D01*
X013691Y023085D01*
X013687Y023068D01*
X013680Y023052D01*
X013670Y023038D01*
X013657Y023025D01*
X013643Y023015D01*
X013627Y023008D01*
X013610Y023004D01*
X013593Y023002D01*
X011893Y023002D01*
X011876Y023004D01*
X011859Y023008D01*
X011843Y023015D01*
X011829Y023025D01*
X011816Y023038D01*
X011806Y023052D01*
X011799Y023068D01*
X011795Y023085D01*
X011793Y023102D01*
X011793Y023902D01*
X011795Y023919D01*
X011799Y023936D01*
X011806Y023952D01*
X011816Y023966D01*
X011829Y023979D01*
X011843Y023989D01*
X011859Y023996D01*
X011876Y024000D01*
X011893Y024002D01*
X011876Y024004D01*
X011859Y024008D01*
X011843Y024015D01*
X011829Y024025D01*
X011816Y024038D01*
X011806Y024052D01*
X011799Y024068D01*
X011795Y024085D01*
X011793Y024102D01*
X011793Y024902D01*
X011795Y024919D01*
X011799Y024936D01*
X011806Y024952D01*
X011816Y024966D01*
X011829Y024979D01*
X011843Y024989D01*
X011859Y024996D01*
X011876Y025000D01*
X011893Y025002D01*
X012243Y024502D02*
X012593Y024502D01*
X012643Y024502D01*
X012843Y024502D02*
X012893Y024502D01*
X013243Y024502D01*
X013192Y024524D02*
X013118Y024597D01*
X012972Y024597D01*
X012898Y024524D01*
X012898Y024230D01*
X012972Y024157D01*
X013118Y024157D01*
X013192Y024230D01*
X013359Y024230D02*
X013432Y024157D01*
X013579Y024157D01*
X013652Y024230D01*
X013652Y024304D01*
X013579Y024377D01*
X013505Y024377D01*
X013579Y024377D02*
X013652Y024450D01*
X013652Y024524D01*
X013579Y024597D01*
X013432Y024597D01*
X013359Y024524D01*
X013243Y023502D02*
X012893Y023502D01*
X012843Y023502D01*
X012856Y023432D02*
X012563Y023432D01*
X012593Y023502D02*
X012243Y023502D01*
X012176Y023432D02*
X012323Y023432D01*
X012396Y023505D01*
X012593Y023502D02*
X012643Y023502D01*
X012710Y023432D02*
X012710Y023872D01*
X012563Y023725D01*
X012396Y023799D02*
X012323Y023872D01*
X012176Y023872D01*
X012102Y023799D01*
X012102Y023505D01*
X012176Y023432D01*
X012243Y022502D02*
X013243Y022502D01*
X013243Y021502D01*
X012243Y021502D01*
X012243Y016502D01*
X013243Y016502D01*
X013243Y021502D01*
X013520Y021322D02*
X013520Y020882D01*
X013373Y020882D02*
X013667Y020882D01*
X013834Y021102D02*
X014127Y021102D01*
X014054Y020882D02*
X014054Y021322D01*
X013834Y021102D01*
X013520Y021322D02*
X013373Y021175D01*
X013373Y021882D02*
X013667Y021882D01*
X013520Y021882D02*
X013520Y022322D01*
X013373Y022175D01*
X013834Y022102D02*
X013980Y022175D01*
X014054Y022175D01*
X014127Y022102D01*
X014127Y021955D01*
X014054Y021882D01*
X013907Y021882D01*
X013834Y021955D01*
X013834Y022102D02*
X013834Y022322D01*
X014127Y022322D01*
X014054Y020322D02*
X013907Y020322D01*
X013834Y020249D01*
X013980Y020102D02*
X014054Y020102D01*
X014127Y020029D01*
X014127Y019955D01*
X014054Y019882D01*
X013907Y019882D01*
X013834Y019955D01*
X013667Y019882D02*
X013373Y019882D01*
X013520Y019882D02*
X013520Y020322D01*
X013373Y020175D01*
X014054Y020102D02*
X014127Y020175D01*
X014127Y020249D01*
X014054Y020322D01*
X013980Y017322D02*
X013834Y017175D01*
X013980Y017322D02*
X013980Y016882D01*
X013834Y016882D02*
X014127Y016882D01*
X014054Y016322D02*
X013907Y016322D01*
X013834Y016249D01*
X013834Y015955D01*
X014127Y016249D01*
X014127Y015955D01*
X014054Y015882D01*
X013907Y015882D01*
X013834Y015955D01*
X013667Y015882D02*
X013373Y015882D01*
X013520Y015882D02*
X013520Y016322D01*
X013373Y016175D01*
X013373Y016882D02*
X013667Y016882D01*
X013520Y016882D02*
X013520Y017322D01*
X013373Y017175D01*
X014054Y016322D02*
X014127Y016249D01*
X013593Y015002D02*
X011893Y015002D01*
X011876Y015000D01*
X011859Y014996D01*
X011843Y014989D01*
X011829Y014979D01*
X011816Y014966D01*
X011806Y014952D01*
X011799Y014936D01*
X011795Y014919D01*
X011793Y014902D01*
X011793Y014102D01*
X011795Y014085D01*
X011799Y014068D01*
X011806Y014052D01*
X011816Y014038D01*
X011829Y014025D01*
X011843Y014015D01*
X011859Y014008D01*
X011876Y014004D01*
X011893Y014002D01*
X013593Y014002D01*
X013610Y014004D01*
X013627Y014008D01*
X013643Y014015D01*
X013657Y014025D01*
X013670Y014038D01*
X013680Y014052D01*
X013687Y014068D01*
X013691Y014085D01*
X013693Y014102D01*
X013693Y014902D01*
X013691Y014919D01*
X013687Y014936D01*
X013680Y014952D01*
X013670Y014966D01*
X013657Y014979D01*
X013643Y014989D01*
X013627Y014996D01*
X013610Y015000D01*
X013593Y015002D01*
X013243Y014502D02*
X012893Y014502D01*
X012843Y014502D01*
X012643Y014502D02*
X012593Y014502D01*
X012243Y014502D01*
X012152Y015157D02*
X011859Y015157D01*
X012152Y015450D01*
X012152Y015524D01*
X012079Y015597D01*
X011932Y015597D01*
X011859Y015524D01*
X011692Y015524D02*
X011618Y015597D01*
X011472Y015597D01*
X011398Y015524D01*
X011398Y015230D01*
X011472Y015157D01*
X011618Y015157D01*
X011692Y015230D01*
X011667Y015882D02*
X011520Y016029D01*
X011593Y016029D02*
X011373Y016029D01*
X011373Y015882D02*
X011373Y016322D01*
X011593Y016322D01*
X011667Y016249D01*
X011667Y016102D01*
X011593Y016029D01*
X011834Y016102D02*
X012054Y016102D01*
X012127Y016029D01*
X012127Y015955D01*
X012054Y015882D01*
X011834Y015882D01*
X011834Y016322D01*
X012054Y016322D01*
X012127Y016249D01*
X012127Y016175D01*
X012054Y016102D01*
X012054Y016882D02*
X011834Y016882D01*
X011834Y017322D01*
X012054Y017322D01*
X012127Y017249D01*
X012127Y017175D01*
X012054Y017102D01*
X011834Y017102D01*
X011667Y017102D02*
X011667Y017249D01*
X011593Y017322D01*
X011373Y017322D01*
X011373Y016882D01*
X011373Y017029D02*
X011593Y017029D01*
X011667Y017102D01*
X011520Y017029D02*
X011667Y016882D01*
X012054Y016882D02*
X012127Y016955D01*
X012127Y017029D01*
X012054Y017102D01*
X012054Y019882D02*
X011834Y019882D01*
X011834Y020322D01*
X012054Y020322D01*
X012127Y020249D01*
X012127Y020175D01*
X012054Y020102D01*
X011834Y020102D01*
X011667Y020102D02*
X011593Y020029D01*
X011373Y020029D01*
X011520Y020029D02*
X011667Y019882D01*
X011667Y020102D02*
X011667Y020249D01*
X011593Y020322D01*
X011373Y020322D01*
X011373Y019882D01*
X011373Y020882D02*
X011373Y021322D01*
X011593Y021322D01*
X011667Y021249D01*
X011667Y021102D01*
X011593Y021029D01*
X011373Y021029D01*
X011520Y021029D02*
X011667Y020882D01*
X011834Y020882D02*
X011834Y021322D01*
X012054Y021322D01*
X012127Y021249D01*
X012127Y021175D01*
X012054Y021102D01*
X011834Y021102D01*
X011834Y020882D02*
X012054Y020882D01*
X012127Y020955D01*
X012127Y021029D01*
X012054Y021102D01*
X012243Y021502D02*
X012243Y022502D01*
X012054Y022322D02*
X012127Y022249D01*
X012127Y022175D01*
X012054Y022102D01*
X011834Y022102D01*
X011667Y022102D02*
X011593Y022029D01*
X011373Y022029D01*
X011520Y022029D02*
X011667Y021882D01*
X011834Y021882D02*
X011834Y022322D01*
X012054Y022322D01*
X012054Y022102D02*
X012127Y022029D01*
X012127Y021955D01*
X012054Y021882D01*
X011834Y021882D01*
X011667Y022102D02*
X011667Y022249D01*
X011593Y022322D01*
X011373Y022322D01*
X011373Y021882D01*
X012054Y020102D02*
X012127Y020029D01*
X012127Y019955D01*
X012054Y019882D01*
X009463Y018947D02*
X009023Y018947D01*
X009023Y019167D01*
X009096Y019241D01*
X009243Y019241D01*
X009316Y019167D01*
X009316Y018947D01*
X009463Y018787D02*
X009463Y018640D01*
X009463Y018714D02*
X009023Y018714D01*
X009023Y018787D02*
X009023Y018640D01*
X009096Y018474D02*
X009023Y018400D01*
X009023Y018180D01*
X009463Y018180D01*
X009463Y018400D01*
X009390Y018474D01*
X009096Y018474D01*
X009096Y018013D02*
X009023Y017940D01*
X009023Y017793D01*
X009096Y017720D01*
X009096Y017553D02*
X009170Y017553D01*
X009243Y017479D01*
X009316Y017553D01*
X009390Y017553D01*
X009463Y017479D01*
X009463Y017333D01*
X009390Y017259D01*
X009390Y017093D02*
X009463Y017019D01*
X009463Y016872D01*
X009390Y016799D01*
X009096Y016799D01*
X009023Y016872D01*
X009023Y017019D01*
X009096Y017093D01*
X009096Y017259D02*
X009023Y017333D01*
X009023Y017479D01*
X009096Y017553D01*
X009243Y017479D02*
X009243Y017406D01*
X009463Y017720D02*
X009170Y018013D01*
X009096Y018013D01*
X009463Y018013D02*
X009463Y017720D01*
X009463Y016639D02*
X009463Y016492D01*
X009463Y016565D02*
X009023Y016565D01*
X009023Y016492D02*
X009023Y016639D01*
X009096Y016325D02*
X009023Y016252D01*
X009023Y016032D01*
X009463Y016032D01*
X009316Y016032D02*
X009316Y016252D01*
X009243Y016325D01*
X009096Y016325D01*
X011373Y013322D02*
X011373Y012882D01*
X011373Y013029D02*
X011593Y013029D01*
X011667Y013102D01*
X011667Y013249D01*
X011593Y013322D01*
X011373Y013322D01*
X011520Y013029D02*
X011667Y012882D01*
X011834Y012882D02*
X012054Y012882D01*
X012127Y012955D01*
X012127Y013029D01*
X012054Y013102D01*
X011834Y013102D01*
X011834Y012882D02*
X011834Y013322D01*
X012054Y013322D01*
X012127Y013249D01*
X012127Y013175D01*
X012054Y013102D01*
X012243Y013502D02*
X012243Y012502D01*
X013243Y012502D01*
X013243Y011502D01*
X013243Y010502D01*
X012243Y010502D01*
X012243Y011502D01*
X013243Y011502D01*
X012243Y011502D01*
X012243Y012502D01*
X012054Y012322D02*
X012127Y012249D01*
X012127Y012175D01*
X012054Y012102D01*
X011834Y012102D01*
X011667Y012102D02*
X011593Y012029D01*
X011373Y012029D01*
X011520Y012029D02*
X011667Y011882D01*
X011834Y011882D02*
X012054Y011882D01*
X012127Y011955D01*
X012127Y012029D01*
X012054Y012102D01*
X012054Y012322D02*
X011834Y012322D01*
X011834Y011882D01*
X011667Y012102D02*
X011667Y012249D01*
X011593Y012322D01*
X011373Y012322D01*
X011373Y011882D01*
X011373Y011322D02*
X011593Y011322D01*
X011667Y011249D01*
X011667Y011102D01*
X011593Y011029D01*
X011373Y011029D01*
X011520Y011029D02*
X011667Y010882D01*
X011834Y010882D02*
X011834Y011322D01*
X012054Y011322D01*
X012127Y011249D01*
X012127Y011175D01*
X012054Y011102D01*
X011834Y011102D01*
X011834Y010882D02*
X012054Y010882D01*
X012127Y010955D01*
X012127Y011029D01*
X012054Y011102D01*
X012243Y010502D02*
X012243Y009502D01*
X013243Y009502D01*
X013243Y010502D01*
X013520Y010249D02*
X013373Y010102D01*
X013593Y010102D01*
X013667Y010029D01*
X013667Y009955D01*
X013593Y009882D01*
X013447Y009882D01*
X013373Y009955D01*
X013373Y010102D01*
X013520Y010249D02*
X013667Y010322D01*
X013373Y010882D02*
X013373Y010955D01*
X013667Y011249D01*
X013667Y011322D01*
X013373Y011322D01*
X013447Y011882D02*
X013373Y011955D01*
X013373Y012029D01*
X013447Y012102D01*
X013593Y012102D01*
X013667Y012029D01*
X013667Y011955D01*
X013593Y011882D01*
X013447Y011882D01*
X013447Y012102D02*
X013373Y012175D01*
X013373Y012249D01*
X013447Y012322D01*
X013593Y012322D01*
X013667Y012249D01*
X013667Y012175D01*
X013593Y012102D01*
X013243Y012502D02*
X013243Y013502D01*
X012243Y013502D01*
X013373Y013249D02*
X013373Y013175D01*
X013447Y013102D01*
X013667Y013102D01*
X013667Y013249D02*
X013593Y013322D01*
X013447Y013322D01*
X013373Y013249D01*
X013667Y013249D02*
X013667Y012955D01*
X013593Y012882D01*
X013447Y012882D01*
X013373Y012955D01*
X012054Y010322D02*
X012127Y010249D01*
X012127Y010175D01*
X012054Y010102D01*
X011834Y010102D01*
X011667Y010102D02*
X011667Y010249D01*
X011593Y010322D01*
X011373Y010322D01*
X011373Y009882D01*
X011373Y010029D02*
X011593Y010029D01*
X011667Y010102D01*
X011520Y010029D02*
X011667Y009882D01*
X011834Y009882D02*
X011834Y010322D01*
X012054Y010322D01*
X012054Y010102D02*
X012127Y010029D01*
X012127Y009955D01*
X012054Y009882D01*
X011834Y009882D01*
X011893Y009252D02*
X013593Y009252D01*
X013610Y009250D01*
X013627Y009246D01*
X013643Y009239D01*
X013657Y009229D01*
X013670Y009216D01*
X013680Y009202D01*
X013687Y009186D01*
X013691Y009169D01*
X013693Y009152D01*
X013693Y008352D01*
X013691Y008335D01*
X013687Y008318D01*
X013680Y008302D01*
X013670Y008288D01*
X013657Y008275D01*
X013643Y008265D01*
X013627Y008258D01*
X013610Y008254D01*
X013593Y008252D01*
X011893Y008252D01*
X011876Y008254D01*
X011859Y008258D01*
X011843Y008265D01*
X011829Y008275D01*
X011816Y008288D01*
X011806Y008302D01*
X011799Y008318D01*
X011795Y008335D01*
X011793Y008352D01*
X011793Y009152D01*
X011795Y009169D01*
X011799Y009186D01*
X011806Y009202D01*
X011816Y009216D01*
X011829Y009229D01*
X011843Y009239D01*
X011859Y009246D01*
X011876Y009250D01*
X011893Y009252D01*
X012243Y008752D02*
X012593Y008752D01*
X012643Y008752D01*
X012843Y008752D02*
X012893Y008752D01*
X013243Y008752D01*
X013243Y008097D02*
X013097Y008097D01*
X013023Y008024D01*
X013023Y007730D01*
X013097Y007657D01*
X013243Y007657D01*
X013317Y007730D01*
X013484Y007730D02*
X013557Y007657D01*
X013704Y007657D01*
X013777Y007730D01*
X013777Y008024D01*
X013704Y008097D01*
X013557Y008097D01*
X013484Y008024D01*
X013484Y007950D01*
X013557Y007877D01*
X013777Y007877D01*
X013317Y008024D02*
X013243Y008097D01*
X012743Y007852D02*
X012743Y006152D01*
X012741Y006135D01*
X012737Y006118D01*
X012730Y006102D01*
X012720Y006088D01*
X012707Y006075D01*
X012693Y006065D01*
X012677Y006058D01*
X012660Y006054D01*
X012643Y006052D01*
X011843Y006052D01*
X011826Y006054D01*
X011809Y006058D01*
X011793Y006065D01*
X011779Y006075D01*
X011766Y006088D01*
X011756Y006102D01*
X011749Y006118D01*
X011745Y006135D01*
X011743Y006152D01*
X011743Y007852D01*
X011745Y007869D01*
X011749Y007886D01*
X011756Y007902D01*
X011766Y007916D01*
X011779Y007929D01*
X011793Y007939D01*
X011809Y007946D01*
X011826Y007950D01*
X011843Y007952D01*
X012643Y007952D01*
X012660Y007950D01*
X012677Y007946D01*
X012693Y007939D01*
X012707Y007929D01*
X012720Y007916D01*
X012730Y007902D01*
X012737Y007886D01*
X012741Y007869D01*
X012743Y007852D01*
X012243Y007502D02*
X012243Y007152D01*
X012243Y007102D01*
X012243Y006902D02*
X012243Y006852D01*
X012243Y006502D01*
X012273Y005764D02*
X012713Y005764D01*
X012713Y005617D02*
X012713Y005911D01*
X012843Y006302D02*
X012843Y004702D01*
X012845Y004685D01*
X012849Y004668D01*
X012856Y004652D01*
X012866Y004638D01*
X012879Y004625D01*
X012893Y004615D01*
X012909Y004608D01*
X012926Y004604D01*
X012943Y004602D01*
X013543Y004602D01*
X013560Y004604D01*
X013577Y004608D01*
X013593Y004615D01*
X013607Y004625D01*
X013620Y004638D01*
X013630Y004652D01*
X013637Y004668D01*
X013641Y004685D01*
X013643Y004702D01*
X013643Y006302D01*
X013641Y006319D01*
X013637Y006336D01*
X013630Y006352D01*
X013620Y006366D01*
X013607Y006379D01*
X013593Y006389D01*
X013577Y006396D01*
X013560Y006400D01*
X013543Y006402D01*
X012943Y006402D01*
X012926Y006400D01*
X012909Y006396D01*
X012893Y006389D01*
X012879Y006379D01*
X012866Y006366D01*
X012856Y006352D01*
X012849Y006336D01*
X012845Y006319D01*
X012843Y006302D01*
X012993Y005902D02*
X013243Y005502D01*
X013493Y005502D01*
X013243Y005502D02*
X013243Y005252D01*
X013243Y005502D02*
X012993Y005502D01*
X013243Y005502D02*
X013243Y006102D01*
X012993Y005902D02*
X013493Y005902D01*
X013243Y005502D01*
X012713Y005377D02*
X012713Y005157D01*
X012273Y005157D01*
X012273Y005377D01*
X012346Y005450D01*
X012640Y005450D01*
X012713Y005377D01*
X012420Y005617D02*
X012273Y005764D01*
X011588Y006230D02*
X011588Y006377D01*
X011515Y006450D01*
X011515Y006617D02*
X011588Y006690D01*
X011588Y006837D01*
X011515Y006911D01*
X011441Y006911D01*
X011368Y006837D01*
X011368Y006617D01*
X011515Y006617D01*
X011368Y006617D02*
X011221Y006764D01*
X011148Y006911D01*
X011221Y006450D02*
X011148Y006377D01*
X011148Y006230D01*
X011221Y006157D01*
X011515Y006157D01*
X011588Y006230D01*
X011847Y003722D02*
X011773Y003649D01*
X011773Y003355D01*
X011847Y003282D01*
X011993Y003282D01*
X012067Y003355D01*
X012234Y003355D02*
X012234Y003429D01*
X012307Y003502D01*
X012454Y003502D01*
X012527Y003429D01*
X012527Y003355D01*
X012454Y003282D01*
X012307Y003282D01*
X012234Y003355D01*
X012307Y003502D02*
X012234Y003575D01*
X012234Y003649D01*
X012307Y003722D01*
X012454Y003722D01*
X012527Y003649D01*
X012527Y003575D01*
X012454Y003502D01*
X012067Y003649D02*
X011993Y003722D01*
X011847Y003722D01*
X011893Y003002D02*
X013593Y003002D01*
X013610Y003000D01*
X013627Y002996D01*
X013643Y002989D01*
X013657Y002979D01*
X013670Y002966D01*
X013680Y002952D01*
X013687Y002936D01*
X013691Y002919D01*
X013693Y002902D01*
X013693Y002102D01*
X013691Y002085D01*
X013687Y002068D01*
X013680Y002052D01*
X013670Y002038D01*
X013657Y002025D01*
X013643Y002015D01*
X013627Y002008D01*
X013610Y002004D01*
X013593Y002002D01*
X011893Y002002D01*
X011876Y002004D01*
X011859Y002008D01*
X011843Y002015D01*
X011829Y002025D01*
X011816Y002038D01*
X011806Y002052D01*
X011799Y002068D01*
X011795Y002085D01*
X011793Y002102D01*
X011793Y002902D01*
X011795Y002919D01*
X011799Y002936D01*
X011806Y002952D01*
X011816Y002966D01*
X011829Y002979D01*
X011843Y002989D01*
X011859Y002996D01*
X011876Y003000D01*
X011893Y003002D01*
X012243Y002502D02*
X012593Y002502D01*
X012643Y002502D01*
X012843Y002502D02*
X012893Y002502D01*
X013243Y002502D01*
X011373Y010882D02*
X011373Y011322D01*
X005152Y016855D02*
X005079Y016782D01*
X004859Y016782D01*
X004859Y017222D01*
X005079Y017222D01*
X005152Y017149D01*
X005152Y017075D01*
X005079Y017002D01*
X004859Y017002D01*
X004692Y017002D02*
X004618Y016929D01*
X004398Y016929D01*
X004545Y016929D02*
X004692Y016782D01*
X004692Y017002D02*
X004692Y017149D01*
X004618Y017222D01*
X004398Y017222D01*
X004398Y016782D01*
X005079Y017002D02*
X005152Y016929D01*
X005152Y016855D01*
X005079Y017782D02*
X004859Y017782D01*
X004859Y018222D01*
X005079Y018222D01*
X005152Y018149D01*
X005152Y018075D01*
X005079Y018002D01*
X004859Y018002D01*
X004692Y018002D02*
X004618Y017929D01*
X004398Y017929D01*
X004545Y017929D02*
X004692Y017782D01*
X004692Y018002D02*
X004692Y018149D01*
X004618Y018222D01*
X004398Y018222D01*
X004398Y017782D01*
X005079Y017782D02*
X005152Y017855D01*
X005152Y017929D01*
X005079Y018002D01*
X005079Y018782D02*
X004859Y018782D01*
X004859Y019222D01*
X005079Y019222D01*
X005152Y019149D01*
X005152Y019075D01*
X005079Y019002D01*
X004859Y019002D01*
X004692Y019002D02*
X004618Y018929D01*
X004398Y018929D01*
X004545Y018929D02*
X004692Y018782D01*
X004692Y019002D02*
X004692Y019149D01*
X004618Y019222D01*
X004398Y019222D01*
X004398Y018782D01*
X005079Y018782D02*
X005152Y018855D01*
X005152Y018929D01*
X005079Y019002D01*
X005079Y019782D02*
X004859Y019782D01*
X004859Y020222D01*
X005079Y020222D01*
X005152Y020149D01*
X005152Y020075D01*
X005079Y020002D01*
X004859Y020002D01*
X004692Y020002D02*
X004618Y019929D01*
X004398Y019929D01*
X004545Y019929D02*
X004692Y019782D01*
X004692Y020002D02*
X004692Y020149D01*
X004618Y020222D01*
X004398Y020222D01*
X004398Y019782D01*
X005079Y019782D02*
X005152Y019855D01*
X005152Y019929D01*
X005079Y020002D01*
X005152Y020782D02*
X005152Y021075D01*
X005005Y021222D01*
X004859Y021075D01*
X004859Y020782D01*
X004692Y020782D02*
X004545Y020929D01*
X004618Y020929D02*
X004398Y020929D01*
X004398Y020782D02*
X004398Y021222D01*
X004618Y021222D01*
X004692Y021149D01*
X004692Y021002D01*
X004618Y020929D01*
X004859Y021002D02*
X005152Y021002D01*
X005152Y021782D02*
X005152Y022075D01*
X005005Y022222D01*
X004859Y022075D01*
X004859Y021782D01*
X004692Y021782D02*
X004545Y021929D01*
X004618Y021929D02*
X004398Y021929D01*
X004398Y021782D02*
X004398Y022222D01*
X004618Y022222D01*
X004692Y022149D01*
X004692Y022002D01*
X004618Y021929D01*
X004859Y022002D02*
X005152Y022002D01*
D11*
X004743Y023502D02*
X004743Y027502D01*
X005743Y027502D01*
X005743Y023502D01*
X004743Y023502D01*
X004743Y027502D02*
X004743Y028502D01*
X005743Y028502D01*
X005743Y027502D01*
X006881Y028727D02*
X011611Y028727D01*
X011613Y028730D02*
X011613Y034910D01*
X011611Y034917D02*
X006881Y034917D01*
X006873Y034900D02*
X006873Y028740D01*
X008168Y027792D02*
X008168Y027641D01*
X008243Y027566D01*
X008393Y027716D02*
X008393Y027792D01*
X008468Y027867D01*
X008543Y027867D01*
X008618Y027792D01*
X008618Y027641D01*
X008543Y027566D01*
X008393Y027792D02*
X008318Y027867D01*
X008243Y027867D01*
X008168Y027792D01*
X009918Y027616D02*
X010368Y027616D01*
X010368Y027466D02*
X010368Y027767D01*
X010068Y027466D02*
X009918Y027616D01*
X009943Y024667D02*
X009868Y024592D01*
X009868Y024441D01*
X009943Y024366D01*
X009943Y024667D02*
X010018Y024667D01*
X010318Y024366D01*
X010318Y024667D01*
X008618Y024592D02*
X008168Y024592D01*
X008393Y024366D01*
X008393Y024667D01*
X008993Y032002D02*
X008743Y034502D01*
X007493Y034502D01*
X007243Y032002D01*
X009493Y032002D02*
X009743Y034502D01*
X010993Y034502D01*
X011243Y032002D01*
X012903Y025801D02*
X013346Y025752D01*
X012903Y025703D01*
X012903Y025801D01*
X012903Y025773D02*
X013151Y025773D01*
X013104Y025725D02*
X012903Y025725D01*
X012903Y025703D02*
X012890Y025705D01*
X012879Y025710D01*
X012868Y025717D01*
X012861Y025727D01*
X012856Y025739D01*
X012854Y025752D01*
X012856Y025765D01*
X012861Y025776D01*
X012868Y025787D01*
X012879Y025794D01*
X012890Y025799D01*
X012903Y025801D01*
X013444Y025752D02*
X013446Y025765D01*
X013451Y025777D01*
X013460Y025788D01*
X013470Y025796D01*
X013483Y025800D01*
X013496Y025801D01*
X013509Y025798D01*
X013521Y025792D01*
X013531Y025783D01*
X013538Y025772D01*
X013542Y025759D01*
X013542Y025745D01*
X013538Y025732D01*
X013531Y025721D01*
X013521Y025712D01*
X013509Y025706D01*
X013496Y025703D01*
X013483Y025704D01*
X013470Y025708D01*
X013460Y025716D01*
X013451Y025727D01*
X013446Y025739D01*
X013444Y025752D01*
X013843Y022367D02*
X013843Y022066D01*
X013843Y022216D02*
X013393Y022216D01*
X013543Y022066D01*
X013393Y021906D02*
X013393Y021756D01*
X013393Y021831D02*
X013768Y021831D01*
X013843Y021756D01*
X013843Y021681D01*
X013768Y021606D01*
X009774Y009602D02*
X009774Y009152D01*
X010074Y009152D01*
X009614Y009152D02*
X009614Y009452D01*
X009464Y009602D01*
X009314Y009452D01*
X009314Y009152D01*
X009314Y009377D02*
X009614Y009377D01*
X009154Y009602D02*
X008854Y009602D01*
X009004Y009602D02*
X009004Y009152D01*
X008693Y009152D02*
X008393Y009602D01*
X008693Y009602D02*
X008393Y009152D01*
X006793Y005551D02*
X006793Y005054D01*
X006793Y004949D01*
X006793Y004054D01*
X006793Y003949D01*
X006793Y003453D01*
X007393Y003677D02*
X007393Y005327D01*
X007343Y005364D01*
X007291Y005398D01*
X007237Y005429D01*
X007181Y005456D01*
X006793Y005551D02*
X006729Y005552D01*
X006665Y005549D01*
X006601Y005542D01*
X006538Y005532D01*
X006476Y005517D01*
X006415Y005499D01*
X006354Y005477D01*
X006296Y005452D01*
X006793Y005551D02*
X006852Y005546D01*
X006910Y005539D01*
X006968Y005528D01*
X007025Y005513D01*
X007081Y005496D01*
X007136Y005476D01*
X007190Y005452D01*
X006793Y003453D02*
X006729Y003452D01*
X006665Y003455D01*
X006601Y003462D01*
X006538Y003472D01*
X006476Y003487D01*
X006415Y003505D01*
X006354Y003527D01*
X006296Y003552D01*
X007190Y003552D02*
X007244Y003579D01*
X007295Y003609D01*
X007345Y003642D01*
X007393Y003677D01*
X006296Y003552D02*
X006239Y003581D01*
X006183Y003614D01*
X006130Y003649D01*
X006079Y003689D01*
X006031Y003731D01*
X005985Y003776D01*
X005942Y003823D01*
X005902Y003873D01*
X005865Y003926D01*
X005832Y003981D01*
X005801Y004037D01*
X005775Y004096D01*
X005752Y004156D01*
X005732Y004217D01*
X005717Y004279D01*
X005705Y004342D01*
X005697Y004406D01*
X005693Y004470D01*
X005693Y004534D01*
X005697Y004598D01*
X005705Y004662D01*
X005717Y004725D01*
X005732Y004787D01*
X005752Y004848D01*
X005775Y004908D01*
X005801Y004967D01*
X005832Y005023D01*
X005865Y005078D01*
X005902Y005131D01*
X005942Y005181D01*
X005985Y005228D01*
X006031Y005273D01*
X006079Y005315D01*
X006130Y005355D01*
X006183Y005390D01*
X006239Y005423D01*
X006296Y005452D01*
X006793Y003453D02*
X006852Y003458D01*
X006910Y003465D01*
X006968Y003476D01*
X007025Y003491D01*
X007081Y003508D01*
X007136Y003528D01*
X007190Y003552D01*
X006810Y014507D02*
X006576Y014507D01*
X006518Y014565D01*
X006518Y014740D01*
X006868Y014740D01*
X006868Y014565D01*
X006810Y014507D01*
X006868Y014875D02*
X006518Y014875D01*
X006868Y015108D01*
X006518Y015108D01*
X006576Y015243D02*
X006693Y015243D01*
X006693Y015360D01*
X006576Y015477D02*
X006518Y015418D01*
X006518Y015302D01*
X006576Y015243D01*
X006576Y015477D02*
X006810Y015477D01*
X006868Y015418D01*
X006868Y015302D01*
X006810Y015243D01*
X006243Y014502D02*
X005243Y014502D01*
X004935Y015507D02*
X004877Y015507D01*
X004818Y015565D01*
X004760Y015507D01*
X004701Y015507D01*
X004643Y015565D01*
X004643Y015682D01*
X004701Y015740D01*
X004760Y015875D02*
X004643Y015992D01*
X004760Y016108D01*
X004993Y016108D01*
X004935Y016243D02*
X004877Y016243D01*
X004818Y016302D01*
X004760Y016243D01*
X004701Y016243D01*
X004643Y016302D01*
X004643Y016418D01*
X004701Y016477D01*
X004818Y016360D02*
X004818Y016302D01*
X004935Y016243D02*
X004993Y016302D01*
X004993Y016418D01*
X004935Y016477D01*
X004993Y015875D02*
X004760Y015875D01*
X004935Y015740D02*
X004993Y015682D01*
X004993Y015565D01*
X004935Y015507D01*
X004818Y015565D02*
X004818Y015623D01*
D12*
X007721Y005895D02*
X008548Y005895D01*
X007721Y005895D02*
X007721Y001683D01*
X011265Y001683D01*
X011265Y003769D01*
X011265Y005620D02*
X011265Y005895D01*
X010438Y005895D01*
X011265Y001683D02*
X011265Y000541D01*
X007721Y000541D01*
X007721Y001683D01*
X012458Y026792D02*
X012458Y027102D01*
X012561Y027205D01*
X012768Y027205D01*
X012871Y027102D01*
X012871Y026792D01*
X013078Y026792D02*
X012458Y026792D01*
X012458Y027436D02*
X012458Y027643D01*
X012458Y027540D02*
X013078Y027540D01*
X013078Y027643D02*
X013078Y027436D01*
X013333Y027643D02*
X013953Y027643D01*
X013953Y027436D02*
X013953Y027850D01*
X013850Y028081D02*
X013746Y028184D01*
X013746Y028494D01*
X013643Y028494D02*
X013953Y028494D01*
X013953Y028184D01*
X013850Y028081D01*
X013539Y028391D02*
X013643Y028494D01*
X013539Y028391D02*
X013539Y028184D01*
X013078Y028176D02*
X013078Y027969D01*
X012975Y027866D01*
X012561Y027866D01*
X012458Y027969D01*
X012458Y028176D01*
X012561Y028280D01*
X012561Y028510D02*
X012458Y028614D01*
X012458Y028821D01*
X012561Y028924D01*
X012664Y028924D01*
X012768Y028821D01*
X012871Y028924D01*
X012975Y028924D01*
X013078Y028821D01*
X013078Y028614D01*
X012975Y028510D01*
X012975Y028280D02*
X013078Y028176D01*
X013333Y027643D02*
X013539Y027436D01*
X013333Y027205D02*
X013746Y027205D01*
X013953Y026999D01*
X013746Y026792D01*
X013333Y026792D01*
X012768Y028717D02*
X012768Y028821D01*
X012561Y029155D02*
X012458Y029258D01*
X012458Y029465D01*
X012561Y029569D01*
X012664Y029569D01*
X013078Y029155D01*
X013078Y029569D01*
X013078Y029800D02*
X013078Y030110D01*
X012975Y030213D01*
X012561Y030213D01*
X012458Y030110D01*
X012458Y029800D01*
X013078Y029800D01*
X013078Y030444D02*
X013078Y030651D01*
X013078Y030547D02*
X012458Y030547D01*
X012458Y030444D02*
X012458Y030651D01*
X012458Y030874D02*
X012458Y031184D01*
X012561Y031287D01*
X012768Y031287D01*
X012871Y031184D01*
X012871Y030874D01*
X013078Y030874D02*
X012458Y030874D01*
D13*
X010443Y009002D02*
X008043Y009002D01*
X007981Y009000D01*
X007920Y008994D01*
X007859Y008985D01*
X007799Y008972D01*
X007740Y008955D01*
X007682Y008934D01*
X007625Y008910D01*
X007570Y008883D01*
X007517Y008852D01*
X007465Y008818D01*
X007416Y008781D01*
X007369Y008741D01*
X007325Y008698D01*
X007284Y008653D01*
X007245Y008605D01*
X007209Y008554D01*
X007177Y008502D01*
X007148Y008448D01*
X007122Y008392D01*
X007100Y008334D01*
X007081Y008276D01*
X007066Y008216D01*
X007055Y008155D01*
X007047Y008094D01*
X007043Y008033D01*
X007043Y007971D01*
X007047Y007910D01*
X007055Y007849D01*
X007066Y007788D01*
X007081Y007728D01*
X007100Y007670D01*
X007122Y007612D01*
X007148Y007556D01*
X007177Y007502D01*
X007209Y007450D01*
X007245Y007399D01*
X007284Y007351D01*
X007325Y007306D01*
X007369Y007263D01*
X007416Y007223D01*
X007465Y007186D01*
X007517Y007152D01*
X007570Y007121D01*
X007625Y007094D01*
X007682Y007070D01*
X007740Y007049D01*
X007799Y007032D01*
X007859Y007019D01*
X007920Y007010D01*
X007981Y007004D01*
X008043Y007002D01*
X010443Y007002D01*
X010505Y007004D01*
X010566Y007010D01*
X010627Y007019D01*
X010687Y007032D01*
X010746Y007049D01*
X010804Y007070D01*
X010861Y007094D01*
X010916Y007121D01*
X010969Y007152D01*
X011021Y007186D01*
X011070Y007223D01*
X011117Y007263D01*
X011161Y007306D01*
X011202Y007351D01*
X011241Y007399D01*
X011277Y007450D01*
X011309Y007502D01*
X011338Y007556D01*
X011364Y007612D01*
X011386Y007670D01*
X011405Y007728D01*
X011420Y007788D01*
X011431Y007849D01*
X011439Y007910D01*
X011443Y007971D01*
X011443Y008033D01*
X011439Y008094D01*
X011431Y008155D01*
X011420Y008216D01*
X011405Y008276D01*
X011386Y008334D01*
X011364Y008392D01*
X011338Y008448D01*
X011309Y008502D01*
X011277Y008554D01*
X011241Y008605D01*
X011202Y008653D01*
X011161Y008698D01*
X011117Y008741D01*
X011070Y008781D01*
X011021Y008818D01*
X010969Y008852D01*
X010916Y008883D01*
X010861Y008910D01*
X010804Y008934D01*
X010746Y008955D01*
X010687Y008972D01*
X010627Y008985D01*
X010566Y008994D01*
X010505Y009000D01*
X010443Y009002D01*
D14*
X011943Y007102D02*
X012243Y007102D01*
X012543Y007102D01*
X012543Y006902D02*
X012243Y006902D01*
X011943Y006902D01*
X012643Y008452D02*
X012643Y008752D01*
X012643Y009052D01*
X012843Y009052D02*
X012843Y008752D01*
X012843Y008452D01*
X012843Y014202D02*
X012843Y014502D01*
X012843Y014802D01*
X012643Y014802D02*
X012643Y014502D01*
X012643Y014202D01*
X012643Y023202D02*
X012643Y023502D01*
X012643Y023802D01*
X012843Y023802D02*
X012843Y023502D01*
X012843Y023202D01*
X012843Y024202D02*
X012843Y024502D01*
X012843Y024802D01*
X012643Y024802D02*
X012643Y024502D01*
X012643Y024202D01*
X006043Y010602D02*
X005743Y010602D01*
X005443Y010602D01*
X005443Y010402D02*
X005743Y010402D01*
X006043Y010402D01*
X005843Y009052D02*
X005843Y008752D01*
X005843Y008452D01*
X005643Y008452D02*
X005643Y008752D01*
X005643Y009052D01*
X005943Y007102D02*
X006243Y007102D01*
X006543Y007102D01*
X006543Y006902D02*
X006243Y006902D01*
X005943Y006902D01*
X006363Y003127D02*
X006363Y002127D01*
X005062Y002208D02*
X005034Y002256D01*
X005010Y002305D01*
X004990Y002357D01*
X004973Y002409D01*
X004960Y002463D01*
X004951Y002517D01*
X004945Y002572D01*
X004943Y002627D01*
X005048Y002230D02*
X005078Y002182D01*
X005111Y002137D01*
X005147Y002094D01*
X005185Y002053D01*
X005227Y002016D01*
X005271Y001981D01*
X005317Y001950D01*
X005366Y001921D01*
X005416Y001897D01*
X005468Y001876D01*
X005522Y001858D01*
X005576Y001845D01*
X005631Y001835D01*
X005687Y001829D01*
X005743Y001827D01*
X004943Y002627D02*
X004945Y002683D01*
X004951Y002740D01*
X004961Y002795D01*
X004975Y002850D01*
X004992Y002903D01*
X005014Y002956D01*
X005039Y003006D01*
X005743Y001827D02*
X005796Y001829D01*
X005850Y001834D01*
X005902Y001843D01*
X005954Y001855D01*
X006005Y001871D01*
X006055Y001890D01*
X006104Y001913D01*
X006151Y001939D01*
X006196Y001967D01*
X006239Y001999D01*
X006279Y002033D01*
X006318Y002071D01*
X006354Y002110D01*
X005743Y003427D02*
X005689Y003425D01*
X005635Y003420D01*
X005582Y003411D01*
X005529Y003398D01*
X005478Y003382D01*
X005428Y003362D01*
X005379Y003339D01*
X005331Y003313D01*
X005286Y003284D01*
X005243Y003251D01*
X005202Y003216D01*
X005163Y003178D01*
X005127Y003138D01*
X005094Y003095D01*
X005064Y003050D01*
X005037Y003003D01*
X005743Y003427D02*
X005797Y003425D01*
X005850Y003420D01*
X005904Y003411D01*
X005956Y003398D01*
X006007Y003382D01*
X006058Y003362D01*
X006107Y003340D01*
X006154Y003314D01*
X006199Y003284D01*
X006242Y003252D01*
X006283Y003217D01*
X006322Y003179D01*
X006358Y003139D01*
X012643Y002802D02*
X012643Y002502D01*
X012643Y002202D01*
X012843Y002202D02*
X012843Y002502D01*
X012843Y002802D01*
D15*
X004993Y003502D02*
X004993Y003902D01*
X004993Y007102D02*
X004993Y007502D01*
X007243Y024002D02*
X007243Y024402D01*
X007243Y027602D02*
X007243Y028002D01*
X011243Y028002D02*
X011243Y027602D01*
X011243Y024402D02*
X011243Y024002D01*
D16*
X011243Y024582D03*
X011243Y027422D03*
X007243Y027422D03*
X007243Y024582D03*
X004993Y006922D03*
X004993Y004082D03*
D17*
X008043Y025752D02*
X008143Y025752D01*
X008143Y026702D01*
X008043Y026702D01*
X008743Y026702D02*
X008743Y025702D01*
X009743Y025702D01*
X009743Y026702D01*
X008743Y026702D01*
X008993Y026202D02*
X008995Y026233D01*
X009001Y026264D01*
X009011Y026294D01*
X009024Y026322D01*
X009041Y026349D01*
X009061Y026373D01*
X009084Y026395D01*
X009109Y026413D01*
X009137Y026428D01*
X009166Y026440D01*
X009196Y026448D01*
X009227Y026452D01*
X009259Y026452D01*
X009290Y026448D01*
X009320Y026440D01*
X009349Y026428D01*
X009377Y026413D01*
X009402Y026395D01*
X009425Y026373D01*
X009445Y026349D01*
X009462Y026322D01*
X009475Y026294D01*
X009485Y026264D01*
X009491Y026233D01*
X009493Y026202D01*
X009491Y026171D01*
X009485Y026140D01*
X009475Y026110D01*
X009462Y026082D01*
X009445Y026055D01*
X009425Y026031D01*
X009402Y026009D01*
X009377Y025991D01*
X009349Y025976D01*
X009320Y025964D01*
X009290Y025956D01*
X009259Y025952D01*
X009227Y025952D01*
X009196Y025956D01*
X009166Y025964D01*
X009137Y025976D01*
X009109Y025991D01*
X009084Y026009D01*
X009061Y026031D01*
X009041Y026055D01*
X009024Y026082D01*
X009011Y026110D01*
X009001Y026140D01*
X008995Y026171D01*
X008993Y026202D01*
X010343Y025702D02*
X010343Y026702D01*
X010443Y026702D01*
X010443Y025702D02*
X010343Y025702D01*
D18*
X013243Y004852D03*
D19*
X013243Y004352D02*
X013243Y004002D01*
X013243Y006652D02*
X013243Y007002D01*
D20*
X013243Y006527D03*
X013243Y004477D03*
D21*
X006243Y027752D02*
X005993Y028002D01*
X006243Y028252D01*
X006243Y027752D01*
X006243Y027756D02*
X006239Y027756D01*
X006243Y027779D02*
X006216Y027779D01*
X006192Y027803D02*
X006243Y027803D01*
X006243Y027826D02*
X006169Y027826D01*
X006145Y027850D02*
X006243Y027850D01*
X006243Y027873D02*
X006122Y027873D01*
X006098Y027897D02*
X006243Y027897D01*
X006243Y027920D02*
X006075Y027920D01*
X006051Y027944D02*
X006243Y027944D01*
X006243Y027967D02*
X006028Y027967D01*
X006004Y027991D02*
X006243Y027991D01*
X006243Y028014D02*
X006006Y028014D01*
X006029Y028038D02*
X006243Y028038D01*
X006243Y028061D02*
X006053Y028061D01*
X006076Y028085D02*
X006243Y028085D01*
X006243Y028108D02*
X006100Y028108D01*
X006123Y028132D02*
X006243Y028132D01*
X006243Y028155D02*
X006147Y028155D01*
X006170Y028179D02*
X006243Y028179D01*
X006243Y028202D02*
X006194Y028202D01*
X006217Y028226D02*
X006243Y028226D01*
X006241Y028249D02*
X006243Y028249D01*
D22*
X012509Y025776D02*
X012509Y025727D01*
X013641Y025112D01*
X013690Y025161D01*
X013690Y026342D01*
X013641Y026391D01*
X012509Y025776D01*
M02*
