G75*
G70*
%OFA0B0*%
%FSLAX24Y24*%
%IPPOS*%
%LPD*%
%AMOC8*
5,1,8,0,0,1.08239X$1,22.5*
%
%ADD10C,0.0050*%
%ADD11C,0.0080*%
%ADD12C,0.0060*%
%ADD13C,0.0120*%
%ADD14C,0.0030*%
D10*
X008127Y005377D02*
X008360Y005377D01*
X008244Y005377D02*
X008244Y005727D01*
X008360Y005610D01*
X008495Y005610D02*
X008553Y005552D01*
X008495Y005494D01*
X008495Y005435D01*
X008553Y005377D01*
X008670Y005377D01*
X008729Y005435D01*
X008612Y005552D02*
X008553Y005552D01*
X008495Y005610D02*
X008495Y005669D01*
X008553Y005727D01*
X008670Y005727D01*
X008729Y005669D01*
X008729Y005977D02*
X008495Y005977D01*
X008360Y006035D02*
X008302Y005977D01*
X008185Y005977D01*
X008127Y006035D01*
X008127Y006269D01*
X008185Y006327D01*
X008302Y006327D01*
X008360Y006269D01*
X008360Y006210D01*
X008302Y006152D01*
X008127Y006152D01*
X008495Y006210D02*
X008495Y006269D01*
X008553Y006327D01*
X008670Y006327D01*
X008729Y006269D01*
X008495Y006210D02*
X008729Y005977D01*
X009263Y005977D02*
X009497Y005977D01*
X009380Y005977D02*
X009380Y006327D01*
X009497Y006210D01*
X009632Y006269D02*
X009632Y006035D01*
X009690Y005977D01*
X009807Y005977D01*
X009865Y006035D01*
X009632Y006269D01*
X009690Y006327D01*
X009807Y006327D01*
X009865Y006269D01*
X009865Y006035D01*
X010000Y005977D02*
X010233Y005977D01*
X010117Y005977D02*
X010117Y006327D01*
X010233Y006210D01*
X010368Y006152D02*
X010427Y006094D01*
X010602Y006094D01*
X010602Y005977D02*
X010602Y006327D01*
X010427Y006327D01*
X010368Y006269D01*
X010368Y006152D01*
X010427Y005727D02*
X010368Y005669D01*
X010368Y005552D01*
X010427Y005494D01*
X010602Y005494D01*
X010602Y005377D02*
X010602Y005727D01*
X010427Y005727D01*
X010233Y005610D02*
X010117Y005727D01*
X010117Y005377D01*
X010233Y005377D02*
X010000Y005377D01*
X009865Y005435D02*
X009632Y005669D01*
X009632Y005435D01*
X009690Y005377D01*
X009807Y005377D01*
X009865Y005435D01*
X009865Y005669D01*
X009807Y005727D01*
X009690Y005727D01*
X009632Y005669D01*
X009497Y005552D02*
X009263Y005552D01*
X009322Y005377D02*
X009322Y005727D01*
X009497Y005552D01*
X011263Y005552D02*
X011263Y005435D01*
X011322Y005377D01*
X011439Y005377D01*
X011497Y005435D01*
X011497Y005552D02*
X011380Y005610D01*
X011322Y005610D01*
X011263Y005552D01*
X011263Y005727D02*
X011497Y005727D01*
X011497Y005552D01*
X011632Y005435D02*
X011690Y005377D01*
X011807Y005377D01*
X011865Y005435D01*
X011632Y005669D01*
X011632Y005435D01*
X011865Y005435D02*
X011865Y005669D01*
X011807Y005727D01*
X011690Y005727D01*
X011632Y005669D01*
X011690Y005977D02*
X011807Y005977D01*
X011865Y006035D01*
X011632Y006269D01*
X011632Y006035D01*
X011690Y005977D01*
X011865Y006035D02*
X011865Y006269D01*
X011807Y006327D01*
X011690Y006327D01*
X011632Y006269D01*
X011497Y006269D02*
X011439Y006327D01*
X011322Y006327D01*
X011263Y006269D01*
X011263Y006210D01*
X011497Y005977D01*
X011263Y005977D01*
X012000Y005977D02*
X012233Y005977D01*
X012117Y005977D02*
X012117Y006327D01*
X012233Y006210D01*
X012368Y006152D02*
X012427Y006094D01*
X012602Y006094D01*
X012602Y005977D02*
X012602Y006327D01*
X012427Y006327D01*
X012368Y006269D01*
X012368Y006152D01*
X012427Y005727D02*
X012368Y005669D01*
X012368Y005552D01*
X012427Y005494D01*
X012602Y005494D01*
X012602Y005377D02*
X012602Y005727D01*
X012427Y005727D01*
X012233Y005610D02*
X012117Y005727D01*
X012117Y005377D01*
X012233Y005377D02*
X012000Y005377D01*
X013127Y005377D02*
X013360Y005377D01*
X013127Y005610D01*
X013127Y005669D01*
X013185Y005727D01*
X013302Y005727D01*
X013360Y005669D01*
X013495Y005669D02*
X013495Y005610D01*
X013553Y005552D01*
X013495Y005494D01*
X013495Y005435D01*
X013553Y005377D01*
X013670Y005377D01*
X013729Y005435D01*
X013612Y005552D02*
X013553Y005552D01*
X013495Y005669D02*
X013553Y005727D01*
X013670Y005727D01*
X013729Y005669D01*
X013670Y005977D02*
X013729Y006035D01*
X013670Y005977D02*
X013553Y005977D01*
X013495Y006035D01*
X013495Y006094D01*
X013553Y006152D01*
X013612Y006152D01*
X013553Y006152D02*
X013495Y006210D01*
X013495Y006269D01*
X013553Y006327D01*
X013670Y006327D01*
X013729Y006269D01*
X013360Y006269D02*
X013360Y006035D01*
X013127Y006269D01*
X013127Y006035D01*
X013185Y005977D01*
X013302Y005977D01*
X013360Y006035D01*
X013360Y006269D02*
X013302Y006327D01*
X013185Y006327D01*
X013127Y006269D01*
X012602Y006577D02*
X012602Y006927D01*
X012427Y006927D01*
X012368Y006869D01*
X012368Y006752D01*
X012427Y006694D01*
X012602Y006694D01*
X012233Y006810D02*
X012117Y006927D01*
X012117Y006577D01*
X012233Y006577D02*
X012000Y006577D01*
X011865Y006635D02*
X011632Y006869D01*
X011632Y006635D01*
X011690Y006577D01*
X011807Y006577D01*
X011865Y006635D01*
X011865Y006869D01*
X011807Y006927D01*
X011690Y006927D01*
X011632Y006869D01*
X011497Y006869D02*
X011439Y006927D01*
X011322Y006927D01*
X011263Y006869D01*
X011497Y006635D01*
X011439Y006577D01*
X011322Y006577D01*
X011263Y006635D01*
X011263Y006869D01*
X011497Y006869D02*
X011497Y006635D01*
X011522Y007177D02*
X011639Y007177D01*
X011697Y007235D01*
X011697Y007294D01*
X011639Y007352D01*
X011522Y007352D01*
X011463Y007294D01*
X011463Y007235D01*
X011522Y007177D01*
X011522Y007352D02*
X011463Y007410D01*
X011463Y007469D01*
X011522Y007527D01*
X011639Y007527D01*
X011697Y007469D01*
X011697Y007410D01*
X011639Y007352D01*
X011832Y007352D02*
X012007Y007352D01*
X012065Y007410D01*
X012065Y007469D01*
X012007Y007527D01*
X011890Y007527D01*
X011832Y007469D01*
X011832Y007235D01*
X011890Y007177D01*
X012007Y007177D01*
X012065Y007235D01*
X012200Y007352D02*
X012258Y007294D01*
X012433Y007294D01*
X012433Y007177D02*
X012433Y007527D01*
X012258Y007527D01*
X012200Y007469D01*
X012200Y007352D01*
X012007Y007777D02*
X011890Y007777D01*
X011832Y007835D01*
X011832Y008069D01*
X011890Y008127D01*
X012007Y008127D01*
X012065Y008069D01*
X012065Y008010D01*
X012007Y007952D01*
X011832Y007952D01*
X011697Y007952D02*
X011580Y008010D01*
X011522Y008010D01*
X011463Y007952D01*
X011463Y007835D01*
X011522Y007777D01*
X011639Y007777D01*
X011697Y007835D01*
X011697Y007952D02*
X011697Y008127D01*
X011463Y008127D01*
X011522Y008377D02*
X011639Y008377D01*
X011697Y008435D01*
X011832Y008435D02*
X011890Y008377D01*
X012007Y008377D01*
X012065Y008435D01*
X012007Y008552D02*
X011832Y008552D01*
X011832Y008435D02*
X011832Y008669D01*
X011890Y008727D01*
X012007Y008727D01*
X012065Y008669D01*
X012065Y008610D01*
X012007Y008552D01*
X012200Y008552D02*
X012200Y008669D01*
X012258Y008727D01*
X012433Y008727D01*
X012433Y008377D01*
X012433Y008494D02*
X012258Y008494D01*
X012200Y008552D01*
X012258Y008127D02*
X012200Y008069D01*
X012200Y007952D01*
X012258Y007894D01*
X012433Y007894D01*
X012433Y007777D02*
X012433Y008127D01*
X012258Y008127D01*
X012065Y007835D02*
X012007Y007777D01*
X011522Y008377D02*
X011463Y008435D01*
X011463Y008494D01*
X011522Y008552D01*
X011580Y008552D01*
X011522Y008552D02*
X011463Y008610D01*
X011463Y008669D01*
X011522Y008727D01*
X011639Y008727D01*
X011697Y008669D01*
X011639Y008977D02*
X011697Y009035D01*
X011697Y009094D01*
X011639Y009152D01*
X011522Y009152D01*
X011463Y009094D01*
X011463Y009035D01*
X011522Y008977D01*
X011639Y008977D01*
X011639Y009152D02*
X011697Y009210D01*
X011697Y009269D01*
X011639Y009327D01*
X011522Y009327D01*
X011463Y009269D01*
X011463Y009210D01*
X011522Y009152D01*
X011832Y009210D02*
X011832Y009269D01*
X011890Y009327D01*
X012007Y009327D01*
X012065Y009269D01*
X012065Y009210D01*
X012007Y009152D01*
X011890Y009152D01*
X011832Y009094D01*
X011832Y009035D01*
X011890Y008977D01*
X012007Y008977D01*
X012065Y009035D01*
X012065Y009094D01*
X012007Y009152D01*
X011890Y009152D02*
X011832Y009210D01*
X012200Y009269D02*
X012200Y009152D01*
X012258Y009094D01*
X012433Y009094D01*
X012433Y008977D02*
X012433Y009327D01*
X012258Y009327D01*
X012200Y009269D01*
X012007Y009577D02*
X012065Y009635D01*
X012065Y009694D01*
X012007Y009752D01*
X011890Y009752D01*
X011832Y009694D01*
X011832Y009635D01*
X011890Y009577D01*
X012007Y009577D01*
X012007Y009752D02*
X012065Y009810D01*
X012065Y009869D01*
X012007Y009927D01*
X011890Y009927D01*
X011832Y009869D01*
X011832Y009810D01*
X011890Y009752D01*
X011697Y009752D02*
X011697Y009927D01*
X011463Y009927D01*
X011522Y009810D02*
X011463Y009752D01*
X011463Y009635D01*
X011522Y009577D01*
X011639Y009577D01*
X011697Y009635D01*
X011697Y009752D02*
X011580Y009810D01*
X011522Y009810D01*
X011522Y010177D02*
X011639Y010177D01*
X011697Y010235D01*
X011832Y010235D02*
X011890Y010177D01*
X012007Y010177D01*
X012065Y010235D01*
X012065Y010294D01*
X012007Y010352D01*
X011890Y010352D01*
X011832Y010294D01*
X011832Y010235D01*
X011890Y010352D02*
X011832Y010410D01*
X011832Y010469D01*
X011890Y010527D01*
X012007Y010527D01*
X012065Y010469D01*
X012065Y010410D01*
X012007Y010352D01*
X012200Y010352D02*
X012258Y010294D01*
X012433Y010294D01*
X012433Y010177D02*
X012433Y010527D01*
X012258Y010527D01*
X012200Y010469D01*
X012200Y010352D01*
X012258Y009927D02*
X012200Y009869D01*
X012200Y009752D01*
X012258Y009694D01*
X012433Y009694D01*
X012433Y009577D02*
X012433Y009927D01*
X012258Y009927D01*
X011522Y010177D02*
X011463Y010235D01*
X011463Y010294D01*
X011522Y010352D01*
X011580Y010352D01*
X011522Y010352D02*
X011463Y010410D01*
X011463Y010469D01*
X011522Y010527D01*
X011639Y010527D01*
X011697Y010469D01*
X011697Y010777D02*
X011463Y010777D01*
X011580Y010777D02*
X011580Y011127D01*
X011697Y011010D01*
X011832Y011010D02*
X011890Y010952D01*
X012007Y010952D01*
X012065Y011010D01*
X012065Y011069D01*
X012007Y011127D01*
X011890Y011127D01*
X011832Y011069D01*
X011832Y011010D01*
X011890Y010952D02*
X011832Y010894D01*
X011832Y010835D01*
X011890Y010777D01*
X012007Y010777D01*
X012065Y010835D01*
X012065Y010894D01*
X012007Y010952D01*
X012200Y010952D02*
X012200Y011069D01*
X012258Y011127D01*
X012433Y011127D01*
X012433Y010777D01*
X012433Y010894D02*
X012258Y010894D01*
X012200Y010952D01*
X012065Y011377D02*
X012065Y011435D01*
X011832Y011669D01*
X011832Y011727D01*
X012065Y011727D01*
X012200Y011669D02*
X012200Y011552D01*
X012258Y011494D01*
X012433Y011494D01*
X012433Y011377D02*
X012433Y011727D01*
X012258Y011727D01*
X012200Y011669D01*
X012065Y011977D02*
X012065Y012035D01*
X011832Y012269D01*
X011832Y012327D01*
X012065Y012327D01*
X012200Y012269D02*
X012200Y012152D01*
X012258Y012094D01*
X012433Y012094D01*
X012433Y011977D02*
X012433Y012327D01*
X012258Y012327D01*
X012200Y012269D01*
X012217Y012577D02*
X012217Y012927D01*
X012333Y012810D01*
X012468Y012752D02*
X012702Y012752D01*
X012585Y012869D02*
X012585Y012635D01*
X012333Y012577D02*
X012100Y012577D01*
X011965Y012694D02*
X011848Y012577D01*
X011732Y012694D01*
X011732Y012927D01*
X011597Y012869D02*
X011539Y012927D01*
X011422Y012927D01*
X011363Y012869D01*
X011363Y012810D01*
X011597Y012577D01*
X011363Y012577D01*
X011463Y012327D02*
X011697Y012327D01*
X011697Y012152D01*
X011580Y012210D01*
X011522Y012210D01*
X011463Y012152D01*
X011463Y012035D01*
X011522Y011977D01*
X011639Y011977D01*
X011697Y012035D01*
X011639Y011727D02*
X011697Y011669D01*
X011697Y011610D01*
X011639Y011552D01*
X011463Y011552D01*
X011463Y011435D02*
X011463Y011669D01*
X011522Y011727D01*
X011639Y011727D01*
X011697Y011435D02*
X011639Y011377D01*
X011522Y011377D01*
X011463Y011435D01*
X010433Y011377D02*
X010433Y011727D01*
X010258Y011727D01*
X010200Y011669D01*
X010200Y011552D01*
X010258Y011494D01*
X010433Y011494D01*
X010065Y011435D02*
X010065Y011377D01*
X010065Y011435D02*
X009832Y011669D01*
X009832Y011727D01*
X010065Y011727D01*
X010065Y011977D02*
X010065Y012035D01*
X009832Y012269D01*
X009832Y012327D01*
X010065Y012327D01*
X010200Y012269D02*
X010200Y012152D01*
X010258Y012094D01*
X010433Y012094D01*
X010433Y011977D02*
X010433Y012327D01*
X010258Y012327D01*
X010200Y012269D01*
X010258Y012577D02*
X010200Y012635D01*
X010200Y012752D01*
X010317Y012752D01*
X010433Y012869D02*
X010433Y012635D01*
X010375Y012577D01*
X010258Y012577D01*
X010065Y012577D02*
X010065Y012927D01*
X009832Y012577D01*
X009832Y012927D01*
X009697Y012927D02*
X009522Y012927D01*
X009463Y012869D01*
X009463Y012635D01*
X009522Y012577D01*
X009697Y012577D01*
X009697Y012927D01*
X009697Y013177D02*
X009522Y013177D01*
X009463Y013235D01*
X009463Y013469D01*
X009522Y013527D01*
X009697Y013527D01*
X009697Y013177D01*
X009832Y013177D02*
X009832Y013527D01*
X010065Y013527D02*
X009832Y013177D01*
X010065Y013177D02*
X010065Y013527D01*
X010200Y013469D02*
X010258Y013527D01*
X010375Y013527D01*
X010433Y013469D01*
X010433Y013235D01*
X010375Y013177D01*
X010258Y013177D01*
X010200Y013235D01*
X010200Y013352D01*
X010317Y013352D01*
X010375Y012927D02*
X010433Y012869D01*
X010375Y012927D02*
X010258Y012927D01*
X010200Y012869D01*
X009522Y012327D02*
X009697Y012152D01*
X009463Y012152D01*
X009522Y011977D02*
X009522Y012327D01*
X008729Y012269D02*
X008729Y012210D01*
X008670Y012152D01*
X008495Y012152D01*
X008495Y012035D02*
X008495Y012269D01*
X008553Y012327D01*
X008670Y012327D01*
X008729Y012269D01*
X008729Y012035D02*
X008670Y011977D01*
X008553Y011977D01*
X008495Y012035D01*
X009463Y011669D02*
X009463Y011610D01*
X009522Y011552D01*
X009639Y011552D01*
X009697Y011610D01*
X009697Y011669D01*
X009639Y011727D01*
X009522Y011727D01*
X009463Y011669D01*
X009522Y011552D02*
X009463Y011494D01*
X009463Y011435D01*
X009522Y011377D01*
X009639Y011377D01*
X009697Y011435D01*
X009697Y011494D01*
X009639Y011552D01*
X009639Y011127D02*
X009522Y011127D01*
X009463Y011069D01*
X009697Y010835D01*
X009639Y010777D01*
X009522Y010777D01*
X009463Y010835D01*
X009463Y011069D01*
X009639Y011127D02*
X009697Y011069D01*
X009697Y010835D01*
X009832Y010835D02*
X009890Y010777D01*
X010007Y010777D01*
X010065Y010835D01*
X010065Y010894D01*
X010007Y010952D01*
X009890Y010952D01*
X009832Y010894D01*
X009832Y010835D01*
X009890Y010952D02*
X009832Y011010D01*
X009832Y011069D01*
X009890Y011127D01*
X010007Y011127D01*
X010065Y011069D01*
X010065Y011010D01*
X010007Y010952D01*
X010200Y010952D02*
X010200Y011069D01*
X010258Y011127D01*
X010433Y011127D01*
X010433Y010777D01*
X010433Y010894D02*
X010258Y010894D01*
X010200Y010952D01*
X010258Y010527D02*
X010200Y010469D01*
X010200Y010352D01*
X010258Y010294D01*
X010433Y010294D01*
X010433Y010177D02*
X010433Y010527D01*
X010258Y010527D01*
X010065Y010469D02*
X010065Y010410D01*
X010007Y010352D01*
X009890Y010352D01*
X009832Y010294D01*
X009832Y010235D01*
X009890Y010177D01*
X010007Y010177D01*
X010065Y010235D01*
X010065Y010294D01*
X010007Y010352D01*
X009890Y010352D02*
X009832Y010410D01*
X009832Y010469D01*
X009890Y010527D01*
X010007Y010527D01*
X010065Y010469D01*
X009697Y010469D02*
X009639Y010527D01*
X009522Y010527D01*
X009463Y010469D01*
X009463Y010410D01*
X009697Y010177D01*
X009463Y010177D01*
X009522Y009927D02*
X009697Y009752D01*
X009463Y009752D01*
X009522Y009577D02*
X009522Y009927D01*
X009832Y009869D02*
X009832Y009810D01*
X009890Y009752D01*
X010007Y009752D01*
X010065Y009810D01*
X010065Y009869D01*
X010007Y009927D01*
X009890Y009927D01*
X009832Y009869D01*
X009890Y009752D02*
X009832Y009694D01*
X009832Y009635D01*
X009890Y009577D01*
X010007Y009577D01*
X010065Y009635D01*
X010065Y009694D01*
X010007Y009752D01*
X010200Y009752D02*
X010258Y009694D01*
X010433Y009694D01*
X010433Y009577D02*
X010433Y009927D01*
X010258Y009927D01*
X010200Y009869D01*
X010200Y009752D01*
X010258Y009327D02*
X010200Y009269D01*
X010200Y009152D01*
X010258Y009094D01*
X010433Y009094D01*
X010433Y008977D02*
X010433Y009327D01*
X010258Y009327D01*
X010065Y009269D02*
X010065Y009210D01*
X010007Y009152D01*
X009890Y009152D01*
X009832Y009094D01*
X009832Y009035D01*
X009890Y008977D01*
X010007Y008977D01*
X010065Y009035D01*
X010065Y009094D01*
X010007Y009152D01*
X009890Y009152D02*
X009832Y009210D01*
X009832Y009269D01*
X009890Y009327D01*
X010007Y009327D01*
X010065Y009269D01*
X009697Y009327D02*
X009463Y009327D01*
X009463Y009269D01*
X009697Y009035D01*
X009697Y008977D01*
X009639Y008727D02*
X009697Y008669D01*
X009639Y008727D02*
X009522Y008727D01*
X009463Y008669D01*
X009463Y008610D01*
X009697Y008377D01*
X009463Y008377D01*
X009522Y008127D02*
X009697Y007952D01*
X009463Y007952D01*
X009522Y007777D02*
X009522Y008127D01*
X009832Y008069D02*
X009832Y007835D01*
X009890Y007777D01*
X010007Y007777D01*
X010065Y007835D01*
X010007Y007952D02*
X009832Y007952D01*
X009832Y008069D02*
X009890Y008127D01*
X010007Y008127D01*
X010065Y008069D01*
X010065Y008010D01*
X010007Y007952D01*
X010200Y007952D02*
X010200Y008069D01*
X010258Y008127D01*
X010433Y008127D01*
X010433Y007777D01*
X010433Y007894D02*
X010258Y007894D01*
X010200Y007952D01*
X010258Y007527D02*
X010200Y007469D01*
X010200Y007352D01*
X010258Y007294D01*
X010433Y007294D01*
X010433Y007177D02*
X010433Y007527D01*
X010258Y007527D01*
X010065Y007469D02*
X010065Y007410D01*
X010007Y007352D01*
X009832Y007352D01*
X009832Y007235D02*
X009832Y007469D01*
X009890Y007527D01*
X010007Y007527D01*
X010065Y007469D01*
X010065Y007235D02*
X010007Y007177D01*
X009890Y007177D01*
X009832Y007235D01*
X009697Y007235D02*
X009463Y007469D01*
X009463Y007527D01*
X009697Y007527D01*
X009697Y007235D02*
X009697Y007177D01*
X009639Y006927D02*
X009697Y006869D01*
X009697Y006810D01*
X009639Y006752D01*
X009463Y006752D01*
X009463Y006635D02*
X009463Y006869D01*
X009522Y006927D01*
X009639Y006927D01*
X009832Y006869D02*
X009890Y006927D01*
X010007Y006927D01*
X010065Y006869D01*
X010065Y006810D01*
X010007Y006752D01*
X009832Y006752D01*
X009832Y006635D02*
X009832Y006869D01*
X009832Y006635D02*
X009890Y006577D01*
X010007Y006577D01*
X010065Y006635D01*
X010200Y006752D02*
X010258Y006694D01*
X010433Y006694D01*
X010433Y006577D02*
X010433Y006927D01*
X010258Y006927D01*
X010200Y006869D01*
X010200Y006752D01*
X009697Y006635D02*
X009639Y006577D01*
X009522Y006577D01*
X009463Y006635D01*
X009890Y008377D02*
X009832Y008435D01*
X009832Y008669D01*
X009890Y008727D01*
X010007Y008727D01*
X010065Y008669D01*
X010065Y008610D01*
X010007Y008552D01*
X009832Y008552D01*
X009890Y008377D02*
X010007Y008377D01*
X010065Y008435D01*
X010200Y008552D02*
X010200Y008669D01*
X010258Y008727D01*
X010433Y008727D01*
X010433Y008377D01*
X010433Y008494D02*
X010258Y008494D01*
X010200Y008552D01*
X008729Y008977D02*
X008495Y008977D01*
X008612Y008977D02*
X008612Y009327D01*
X008729Y009210D01*
X008360Y009210D02*
X008360Y009269D01*
X008302Y009327D01*
X008185Y009327D01*
X008127Y009269D01*
X008127Y009035D01*
X008185Y008977D01*
X008302Y008977D01*
X008360Y009035D01*
X008302Y009152D02*
X008127Y009152D01*
X008302Y009152D02*
X008360Y009210D01*
X013127Y009269D02*
X013127Y009035D01*
X013185Y008977D01*
X013302Y008977D01*
X013360Y009035D01*
X013127Y009269D01*
X013185Y009327D01*
X013302Y009327D01*
X013360Y009269D01*
X013360Y009035D01*
X013495Y008977D02*
X013729Y008977D01*
X013495Y009210D01*
X013495Y009269D01*
X013553Y009327D01*
X013670Y009327D01*
X013729Y009269D01*
X018127Y009635D02*
X018127Y009869D01*
X018185Y009927D01*
X018302Y009927D01*
X018360Y009869D01*
X018360Y009810D01*
X018302Y009752D01*
X018127Y009752D01*
X018127Y009635D02*
X018185Y009577D01*
X018302Y009577D01*
X018360Y009635D01*
X018495Y009752D02*
X018729Y009752D01*
X018553Y009927D01*
X018553Y009577D01*
X019458Y009635D02*
X019458Y009869D01*
X019517Y009927D01*
X019692Y009927D01*
X019692Y009577D01*
X019517Y009577D01*
X019458Y009635D01*
X019517Y009327D02*
X019692Y009327D01*
X019692Y008977D01*
X019517Y008977D01*
X019458Y009035D01*
X019458Y009269D01*
X019517Y009327D01*
X019827Y009327D02*
X019827Y008977D01*
X020060Y009327D01*
X020060Y008977D01*
X020195Y009035D02*
X020253Y008977D01*
X020370Y008977D01*
X020429Y009035D01*
X020429Y009269D01*
X020370Y009327D01*
X020253Y009327D01*
X020195Y009269D01*
X020195Y009152D02*
X020312Y009152D01*
X020195Y009152D02*
X020195Y009035D01*
X020144Y008727D02*
X020144Y008377D01*
X020260Y008377D02*
X020027Y008377D01*
X019892Y008435D02*
X019834Y008377D01*
X019717Y008377D01*
X019658Y008435D01*
X019658Y008494D01*
X019717Y008552D01*
X019775Y008552D01*
X019717Y008552D02*
X019658Y008610D01*
X019658Y008669D01*
X019717Y008727D01*
X019834Y008727D01*
X019892Y008669D01*
X020144Y008727D02*
X020260Y008610D01*
X020395Y008552D02*
X020453Y008494D01*
X020629Y008494D01*
X020629Y008377D02*
X020629Y008727D01*
X020453Y008727D01*
X020395Y008669D01*
X020395Y008552D01*
X020453Y008127D02*
X020395Y008069D01*
X020395Y007952D01*
X020453Y007894D01*
X020629Y007894D01*
X020629Y007777D02*
X020629Y008127D01*
X020453Y008127D01*
X020260Y008010D02*
X020144Y008127D01*
X020144Y007777D01*
X020260Y007777D02*
X020027Y007777D01*
X019892Y007835D02*
X019834Y007777D01*
X019717Y007777D01*
X019658Y007835D01*
X019658Y007894D01*
X019717Y007952D01*
X019775Y007952D01*
X019717Y007952D02*
X019658Y008010D01*
X019658Y008069D01*
X019717Y008127D01*
X019834Y008127D01*
X019892Y008069D01*
X019524Y008069D02*
X019465Y008127D01*
X019349Y008127D01*
X019290Y008069D01*
X019290Y008010D01*
X019349Y007952D01*
X019290Y007894D01*
X019290Y007835D01*
X019349Y007777D01*
X019465Y007777D01*
X019524Y007835D01*
X019407Y007952D02*
X019349Y007952D01*
X019290Y007527D02*
X019290Y007469D01*
X019524Y007235D01*
X019524Y007177D01*
X019658Y007235D02*
X019717Y007177D01*
X019834Y007177D01*
X019892Y007235D01*
X020027Y007177D02*
X020260Y007177D01*
X020144Y007177D02*
X020144Y007527D01*
X020260Y007410D01*
X020395Y007352D02*
X020453Y007294D01*
X020629Y007294D01*
X020629Y007177D02*
X020629Y007527D01*
X020453Y007527D01*
X020395Y007469D01*
X020395Y007352D01*
X020453Y006927D02*
X020395Y006869D01*
X020395Y006752D01*
X020453Y006694D01*
X020629Y006694D01*
X020629Y006577D02*
X020629Y006927D01*
X020453Y006927D01*
X020260Y006810D02*
X020144Y006927D01*
X020144Y006577D01*
X020260Y006577D02*
X020027Y006577D01*
X019892Y006635D02*
X019834Y006577D01*
X019717Y006577D01*
X019658Y006635D01*
X019658Y006694D01*
X019717Y006752D01*
X019775Y006752D01*
X019717Y006752D02*
X019658Y006810D01*
X019658Y006869D01*
X019717Y006927D01*
X019834Y006927D01*
X019892Y006869D01*
X019524Y006869D02*
X019465Y006927D01*
X019349Y006927D01*
X019290Y006869D01*
X019290Y006635D01*
X019349Y006577D01*
X019465Y006577D01*
X019524Y006635D01*
X019465Y006752D02*
X019290Y006752D01*
X019465Y006752D02*
X019524Y006810D01*
X019524Y006869D01*
X019658Y007235D02*
X019658Y007294D01*
X019717Y007352D01*
X019775Y007352D01*
X019717Y007352D02*
X019658Y007410D01*
X019658Y007469D01*
X019717Y007527D01*
X019834Y007527D01*
X019892Y007469D01*
X019524Y007527D02*
X019290Y007527D01*
X018729Y006927D02*
X018729Y006752D01*
X018612Y006810D01*
X018553Y006810D01*
X018495Y006752D01*
X018495Y006635D01*
X018553Y006577D01*
X018670Y006577D01*
X018729Y006635D01*
X018360Y006635D02*
X018302Y006577D01*
X018185Y006577D01*
X018127Y006635D01*
X018127Y006869D01*
X018185Y006927D01*
X018302Y006927D01*
X018360Y006869D01*
X018360Y006810D01*
X018302Y006752D01*
X018127Y006752D01*
X018495Y006927D02*
X018729Y006927D01*
X019407Y006327D02*
X019407Y005977D01*
X019524Y005977D02*
X019290Y005977D01*
X019349Y005727D02*
X019290Y005669D01*
X019290Y005610D01*
X019349Y005552D01*
X019290Y005494D01*
X019290Y005435D01*
X019349Y005377D01*
X019465Y005377D01*
X019524Y005435D01*
X019407Y005552D02*
X019349Y005552D01*
X019349Y005727D02*
X019465Y005727D01*
X019524Y005669D01*
X019658Y005552D02*
X019892Y005552D01*
X019717Y005727D01*
X019717Y005377D01*
X020027Y005377D02*
X020260Y005377D01*
X020144Y005377D02*
X020144Y005727D01*
X020260Y005610D01*
X020395Y005552D02*
X020453Y005494D01*
X020629Y005494D01*
X020629Y005377D02*
X020629Y005727D01*
X020453Y005727D01*
X020395Y005669D01*
X020395Y005552D01*
X020260Y005977D02*
X020027Y005977D01*
X020144Y005977D02*
X020144Y006327D01*
X020260Y006210D01*
X020395Y006152D02*
X020395Y006269D01*
X020453Y006327D01*
X020629Y006327D01*
X020629Y005977D01*
X020629Y006094D02*
X020453Y006094D01*
X020395Y006152D01*
X019892Y006152D02*
X019658Y006152D01*
X019524Y006210D02*
X019407Y006327D01*
X019717Y006327D02*
X019892Y006152D01*
X019717Y005977D02*
X019717Y006327D01*
X018729Y005552D02*
X018612Y005669D01*
X018495Y005727D01*
X018360Y005669D02*
X018302Y005727D01*
X018185Y005727D01*
X018127Y005669D01*
X018127Y005610D01*
X018185Y005552D01*
X018127Y005494D01*
X018127Y005435D01*
X018185Y005377D01*
X018302Y005377D01*
X018360Y005435D01*
X018495Y005435D02*
X018495Y005494D01*
X018553Y005552D01*
X018729Y005552D01*
X018729Y005435D01*
X018670Y005377D01*
X018553Y005377D01*
X018495Y005435D01*
X018244Y005552D02*
X018185Y005552D01*
X021290Y005552D02*
X021524Y005552D01*
X021349Y005727D01*
X021349Y005377D01*
X021658Y005552D02*
X021892Y005552D01*
X021717Y005727D01*
X021717Y005377D01*
X022027Y005377D02*
X022260Y005377D01*
X022144Y005377D02*
X022144Y005727D01*
X022260Y005610D01*
X022395Y005552D02*
X022453Y005494D01*
X022629Y005494D01*
X022629Y005377D02*
X022629Y005727D01*
X022453Y005727D01*
X022395Y005669D01*
X022395Y005552D01*
X022260Y005977D02*
X022027Y005977D01*
X022144Y005977D02*
X022144Y006327D01*
X022260Y006210D01*
X022395Y006152D02*
X022395Y006269D01*
X022453Y006327D01*
X022629Y006327D01*
X022629Y005977D01*
X022629Y006094D02*
X022453Y006094D01*
X022395Y006152D01*
X022260Y006577D02*
X022027Y006577D01*
X022144Y006577D02*
X022144Y006927D01*
X022260Y006810D01*
X022395Y006752D02*
X022453Y006694D01*
X022629Y006694D01*
X022629Y006577D02*
X022629Y006927D01*
X022453Y006927D01*
X022395Y006869D01*
X022395Y006752D01*
X022260Y007177D02*
X022027Y007177D01*
X022144Y007177D02*
X022144Y007527D01*
X022260Y007410D01*
X022395Y007352D02*
X022453Y007294D01*
X022629Y007294D01*
X022629Y007177D02*
X022629Y007527D01*
X022453Y007527D01*
X022395Y007469D01*
X022395Y007352D01*
X022260Y007777D02*
X022027Y007777D01*
X022144Y007777D02*
X022144Y008127D01*
X022260Y008010D01*
X022395Y007952D02*
X022453Y007894D01*
X022629Y007894D01*
X022629Y007777D02*
X022629Y008127D01*
X022453Y008127D01*
X022395Y008069D01*
X022395Y007952D01*
X022260Y008377D02*
X022027Y008377D01*
X022144Y008377D02*
X022144Y008727D01*
X022260Y008610D01*
X022395Y008552D02*
X022453Y008494D01*
X022629Y008494D01*
X022629Y008377D02*
X022629Y008727D01*
X022453Y008727D01*
X022395Y008669D01*
X022395Y008552D01*
X022202Y008977D02*
X022260Y009035D01*
X022202Y008977D02*
X022085Y008977D01*
X022027Y009035D01*
X022027Y009094D01*
X022085Y009152D01*
X022144Y009152D01*
X022085Y009152D02*
X022027Y009210D01*
X022027Y009269D01*
X022085Y009327D01*
X022202Y009327D01*
X022260Y009269D01*
X022395Y009152D02*
X022629Y009152D01*
X022512Y009269D02*
X022512Y009035D01*
X022389Y009577D02*
X022299Y009577D01*
X022254Y009622D01*
X022139Y009622D02*
X022094Y009577D01*
X022004Y009577D01*
X021959Y009622D01*
X021845Y009622D02*
X021845Y009802D01*
X021800Y009847D01*
X021710Y009847D01*
X021664Y009802D01*
X021664Y009622D01*
X021710Y009577D01*
X021800Y009577D01*
X021845Y009622D01*
X021959Y009802D02*
X022004Y009847D01*
X022094Y009847D01*
X022139Y009802D01*
X022139Y009622D01*
X022254Y009802D02*
X022299Y009847D01*
X022389Y009847D01*
X022434Y009802D01*
X022434Y009622D01*
X022389Y009577D01*
X022548Y009667D02*
X022548Y009847D01*
X022548Y009667D02*
X022639Y009577D01*
X022729Y009667D01*
X022729Y009847D01*
X023127Y009869D02*
X023360Y009635D01*
X023302Y009577D01*
X023185Y009577D01*
X023127Y009635D01*
X023127Y009869D01*
X023185Y009927D01*
X023302Y009927D01*
X023360Y009869D01*
X023360Y009635D01*
X023495Y009635D02*
X023553Y009577D01*
X023670Y009577D01*
X023729Y009635D01*
X023729Y009752D02*
X023612Y009810D01*
X023553Y009810D01*
X023495Y009752D01*
X023495Y009635D01*
X023729Y009752D02*
X023729Y009927D01*
X023495Y009927D01*
X022629Y010352D02*
X022395Y010352D01*
X022260Y010410D02*
X022144Y010527D01*
X022144Y010177D01*
X022260Y010177D02*
X022027Y010177D01*
X021892Y010294D02*
X021892Y010527D01*
X021892Y010294D02*
X021775Y010177D01*
X021658Y010294D01*
X021658Y010527D01*
X021524Y010469D02*
X021465Y010527D01*
X021349Y010527D01*
X021290Y010469D01*
X021290Y010410D01*
X021524Y010177D01*
X021290Y010177D01*
X021210Y009847D02*
X021120Y009847D01*
X021075Y009802D01*
X021255Y009622D01*
X021210Y009577D01*
X021120Y009577D01*
X021075Y009622D01*
X021075Y009802D01*
X021210Y009847D02*
X021255Y009802D01*
X021255Y009622D01*
X021370Y009532D02*
X021550Y009532D01*
X021465Y009327D02*
X021349Y009327D01*
X021290Y009269D01*
X021290Y009210D01*
X021349Y009152D01*
X021290Y009094D01*
X021290Y009035D01*
X021349Y008977D01*
X021465Y008977D01*
X021524Y009035D01*
X021658Y009094D02*
X021775Y008977D01*
X021892Y009094D01*
X021892Y009327D01*
X021658Y009327D02*
X021658Y009094D01*
X021524Y009269D02*
X021465Y009327D01*
X021407Y009152D02*
X021349Y009152D01*
X021349Y008727D02*
X021465Y008727D01*
X021524Y008669D01*
X021658Y008669D02*
X021658Y008610D01*
X021717Y008552D01*
X021658Y008494D01*
X021658Y008435D01*
X021717Y008377D01*
X021834Y008377D01*
X021892Y008435D01*
X021775Y008552D02*
X021717Y008552D01*
X021658Y008669D02*
X021717Y008727D01*
X021834Y008727D01*
X021892Y008669D01*
X021524Y008377D02*
X021290Y008610D01*
X021290Y008669D01*
X021349Y008727D01*
X021290Y008377D02*
X021524Y008377D01*
X021349Y008127D02*
X021524Y007952D01*
X021290Y007952D01*
X021349Y007777D02*
X021349Y008127D01*
X021658Y008069D02*
X021658Y008010D01*
X021717Y007952D01*
X021658Y007894D01*
X021658Y007835D01*
X021717Y007777D01*
X021834Y007777D01*
X021892Y007835D01*
X021775Y007952D02*
X021717Y007952D01*
X021658Y008069D02*
X021717Y008127D01*
X021834Y008127D01*
X021892Y008069D01*
X021834Y007527D02*
X021717Y007527D01*
X021658Y007469D01*
X021658Y007410D01*
X021717Y007352D01*
X021658Y007294D01*
X021658Y007235D01*
X021717Y007177D01*
X021834Y007177D01*
X021892Y007235D01*
X021775Y007352D02*
X021717Y007352D01*
X021524Y007294D02*
X021465Y007352D01*
X021349Y007352D01*
X021290Y007294D01*
X021290Y007235D01*
X021349Y007177D01*
X021465Y007177D01*
X021524Y007235D01*
X021524Y007294D01*
X021465Y007352D02*
X021524Y007410D01*
X021524Y007469D01*
X021465Y007527D01*
X021349Y007527D01*
X021290Y007469D01*
X021290Y007410D01*
X021349Y007352D01*
X021834Y007527D02*
X021892Y007469D01*
X021717Y006927D02*
X021892Y006752D01*
X021658Y006752D01*
X021524Y006635D02*
X021290Y006869D01*
X021290Y006635D01*
X021349Y006577D01*
X021465Y006577D01*
X021524Y006635D01*
X021524Y006869D01*
X021465Y006927D01*
X021349Y006927D01*
X021290Y006869D01*
X021717Y006927D02*
X021717Y006577D01*
X021717Y006327D02*
X021892Y006152D01*
X021658Y006152D01*
X021524Y006269D02*
X021465Y006327D01*
X021349Y006327D01*
X021290Y006269D01*
X021290Y006210D01*
X021524Y005977D01*
X021290Y005977D01*
X021717Y005977D02*
X021717Y006327D01*
X023127Y006635D02*
X023185Y006577D01*
X023302Y006577D01*
X023360Y006635D01*
X023127Y006869D01*
X023127Y006635D01*
X023360Y006635D02*
X023360Y006869D01*
X023302Y006927D01*
X023185Y006927D01*
X023127Y006869D01*
X023495Y006927D02*
X023612Y006869D01*
X023729Y006752D01*
X023553Y006752D01*
X023495Y006694D01*
X023495Y006635D01*
X023553Y006577D01*
X023670Y006577D01*
X023729Y006635D01*
X023729Y006752D01*
X023495Y005627D02*
X023612Y005569D01*
X023729Y005452D01*
X023553Y005452D01*
X023495Y005394D01*
X023495Y005335D01*
X023553Y005277D01*
X023670Y005277D01*
X023729Y005335D01*
X023729Y005452D01*
X023360Y005452D02*
X023185Y005627D01*
X023185Y005277D01*
X023127Y005452D02*
X023360Y005452D01*
X024685Y003027D02*
X024627Y002969D01*
X024860Y002735D01*
X024802Y002677D01*
X024685Y002677D01*
X024627Y002735D01*
X024627Y002969D01*
X024685Y003027D02*
X024802Y003027D01*
X024860Y002969D01*
X024860Y002735D01*
X024995Y002677D02*
X025229Y002677D01*
X025112Y002677D02*
X025112Y003027D01*
X025229Y002910D01*
X025054Y000827D02*
X025112Y000769D01*
X025112Y000535D01*
X025054Y000477D01*
X024937Y000477D01*
X024879Y000535D01*
X024879Y000593D01*
X024937Y000652D01*
X025112Y000652D01*
X025054Y000827D02*
X024937Y000827D01*
X024879Y000769D01*
X021112Y000827D02*
X020879Y000827D01*
X020995Y000827D02*
X020995Y000477D01*
X020879Y000593D01*
X020795Y002677D02*
X021029Y002677D01*
X020795Y002910D01*
X020795Y002969D01*
X020853Y003027D01*
X020970Y003027D01*
X021029Y002969D01*
X027627Y005435D02*
X027685Y005377D01*
X027802Y005377D01*
X027860Y005435D01*
X027860Y005552D02*
X027744Y005610D01*
X027685Y005610D01*
X027627Y005552D01*
X027627Y005435D01*
X027860Y005552D02*
X027860Y005727D01*
X027627Y005727D01*
X027995Y005669D02*
X027995Y005435D01*
X028053Y005377D01*
X028170Y005377D01*
X028229Y005435D01*
X028170Y005552D02*
X028229Y005610D01*
X028229Y005669D01*
X028170Y005727D01*
X028053Y005727D01*
X027995Y005669D01*
X027995Y005552D02*
X028170Y005552D01*
X028588Y005957D02*
X028678Y005957D01*
X028723Y006002D01*
X028633Y006092D02*
X028588Y006092D01*
X028543Y006047D01*
X028543Y006002D01*
X028588Y005957D01*
X028588Y006092D02*
X028543Y006137D01*
X028543Y006182D01*
X028588Y006227D01*
X028678Y006227D01*
X028723Y006182D01*
X028838Y005912D02*
X029018Y005912D01*
X029132Y006002D02*
X029132Y006182D01*
X029177Y006227D01*
X029267Y006227D01*
X029312Y006182D01*
X029312Y006002D01*
X029267Y005957D01*
X029177Y005957D01*
X029132Y006002D01*
X029427Y006002D02*
X029472Y005957D01*
X029562Y005957D01*
X029607Y006002D01*
X029607Y006182D01*
X029562Y006227D01*
X029472Y006227D01*
X029427Y006182D01*
X029722Y006182D02*
X029767Y006227D01*
X029857Y006227D01*
X029902Y006182D01*
X029902Y006002D01*
X029857Y005957D01*
X029767Y005957D01*
X029722Y006002D01*
X030016Y006047D02*
X030016Y006227D01*
X030016Y006047D02*
X030106Y005957D01*
X030196Y006047D01*
X030196Y006227D01*
X029985Y006535D02*
X029985Y006769D01*
X030102Y006652D02*
X029868Y006652D01*
X029733Y006710D02*
X029617Y006827D01*
X029617Y006477D01*
X029733Y006477D02*
X029500Y006477D01*
X029365Y006594D02*
X029365Y006827D01*
X029365Y006594D02*
X029248Y006477D01*
X029132Y006594D01*
X029132Y006827D01*
X028997Y006769D02*
X028939Y006827D01*
X028822Y006827D01*
X028763Y006769D01*
X028763Y006710D01*
X028997Y006477D01*
X028763Y006477D01*
X029122Y007077D02*
X029122Y007427D01*
X029297Y007252D01*
X029063Y007252D01*
X029432Y007194D02*
X029432Y007135D01*
X029490Y007077D01*
X029607Y007077D01*
X029665Y007135D01*
X029548Y007252D02*
X029490Y007252D01*
X029432Y007194D01*
X029490Y007252D02*
X029432Y007310D01*
X029432Y007369D01*
X029490Y007427D01*
X029607Y007427D01*
X029665Y007369D01*
X029800Y007369D02*
X029800Y007252D01*
X029858Y007194D01*
X030033Y007194D01*
X030033Y007077D02*
X030033Y007427D01*
X029858Y007427D01*
X029800Y007369D01*
X029607Y007677D02*
X029665Y007735D01*
X029607Y007677D02*
X029490Y007677D01*
X029432Y007735D01*
X029432Y007794D01*
X029490Y007852D01*
X029548Y007852D01*
X029490Y007852D02*
X029432Y007910D01*
X029432Y007969D01*
X029490Y008027D01*
X029607Y008027D01*
X029665Y007969D01*
X029800Y007969D02*
X029800Y007852D01*
X029858Y007794D01*
X030033Y007794D01*
X030033Y007677D02*
X030033Y008027D01*
X029858Y008027D01*
X029800Y007969D01*
X029665Y008277D02*
X029432Y008510D01*
X029432Y008569D01*
X029490Y008627D01*
X029607Y008627D01*
X029665Y008569D01*
X029800Y008569D02*
X029858Y008627D01*
X030033Y008627D01*
X030033Y008277D01*
X030033Y008394D02*
X029858Y008394D01*
X029800Y008452D01*
X029800Y008569D01*
X029665Y008277D02*
X029432Y008277D01*
X029297Y008335D02*
X029239Y008277D01*
X029122Y008277D01*
X029063Y008335D01*
X029063Y008569D01*
X029122Y008627D01*
X029239Y008627D01*
X029297Y008569D01*
X029297Y008510D01*
X029239Y008452D01*
X029063Y008452D01*
X029122Y008027D02*
X029239Y008027D01*
X029297Y007969D01*
X029122Y008027D02*
X029063Y007969D01*
X029063Y007910D01*
X029297Y007677D01*
X029063Y007677D01*
X028229Y007469D02*
X028229Y007410D01*
X028170Y007352D01*
X028053Y007352D01*
X027995Y007294D01*
X027995Y007235D01*
X028053Y007177D01*
X028170Y007177D01*
X028229Y007235D01*
X028229Y007294D01*
X028170Y007352D01*
X028053Y007352D02*
X027995Y007410D01*
X027995Y007469D01*
X028053Y007527D01*
X028170Y007527D01*
X028229Y007469D01*
X027860Y007469D02*
X027860Y007410D01*
X027802Y007352D01*
X027627Y007352D01*
X027627Y007235D02*
X027627Y007469D01*
X027685Y007527D01*
X027802Y007527D01*
X027860Y007469D01*
X027860Y007235D02*
X027802Y007177D01*
X027685Y007177D01*
X027627Y007235D01*
X028922Y005627D02*
X028863Y005569D01*
X028863Y005510D01*
X028922Y005452D01*
X028863Y005394D01*
X028863Y005335D01*
X028922Y005277D01*
X029039Y005277D01*
X029097Y005335D01*
X029232Y005394D02*
X029348Y005277D01*
X029465Y005394D01*
X029465Y005627D01*
X029600Y005569D02*
X029658Y005627D01*
X029775Y005627D01*
X029833Y005569D01*
X029717Y005452D02*
X029658Y005452D01*
X029600Y005394D01*
X029600Y005335D01*
X029658Y005277D01*
X029775Y005277D01*
X029833Y005335D01*
X029968Y005452D02*
X030202Y005452D01*
X030085Y005569D02*
X030085Y005335D01*
X029658Y005452D02*
X029600Y005510D01*
X029600Y005569D01*
X029232Y005627D02*
X029232Y005394D01*
X029097Y005569D02*
X029039Y005627D01*
X028922Y005627D01*
X028922Y005452D02*
X028980Y005452D01*
X031063Y005394D02*
X031180Y005277D01*
X031297Y005394D01*
X031297Y005627D01*
X031432Y005627D02*
X031665Y005627D01*
X031665Y005452D01*
X031548Y005510D01*
X031490Y005510D01*
X031432Y005452D01*
X031432Y005335D01*
X031490Y005277D01*
X031607Y005277D01*
X031665Y005335D01*
X031800Y005452D02*
X032033Y005452D01*
X031917Y005569D02*
X031917Y005335D01*
X032627Y005435D02*
X032627Y005494D01*
X032685Y005552D01*
X032860Y005552D01*
X032860Y005435D01*
X032802Y005377D01*
X032685Y005377D01*
X032627Y005435D01*
X032860Y005552D02*
X032744Y005669D01*
X032627Y005727D01*
X032995Y005669D02*
X032995Y005435D01*
X033053Y005377D01*
X033170Y005377D01*
X033229Y005435D01*
X033170Y005552D02*
X032995Y005552D01*
X032995Y005669D02*
X033053Y005727D01*
X033170Y005727D01*
X033229Y005669D01*
X033229Y005610D01*
X033170Y005552D01*
X032033Y005935D02*
X032033Y006169D01*
X031975Y006227D01*
X031858Y006227D01*
X031800Y006169D01*
X031800Y006052D02*
X031917Y006052D01*
X031800Y006052D02*
X031800Y005935D01*
X031858Y005877D01*
X031975Y005877D01*
X032033Y005935D01*
X031665Y005877D02*
X031665Y006227D01*
X031432Y005877D01*
X031432Y006227D01*
X031297Y006227D02*
X031297Y005877D01*
X031122Y005877D01*
X031063Y005935D01*
X031063Y006169D01*
X031122Y006227D01*
X031297Y006227D01*
X031297Y006477D02*
X031122Y006477D01*
X031063Y006535D01*
X031063Y006769D01*
X031122Y006827D01*
X031297Y006827D01*
X031297Y006477D01*
X031432Y006477D02*
X031432Y006827D01*
X031665Y006827D02*
X031432Y006477D01*
X031665Y006477D02*
X031665Y006827D01*
X031800Y006769D02*
X031858Y006827D01*
X031975Y006827D01*
X032033Y006769D01*
X032033Y006535D01*
X031975Y006477D01*
X031858Y006477D01*
X031800Y006535D01*
X031800Y006652D01*
X031917Y006652D01*
X032033Y007077D02*
X032033Y007427D01*
X031858Y007427D01*
X031800Y007369D01*
X031800Y007252D01*
X031858Y007194D01*
X032033Y007194D01*
X031665Y007135D02*
X031607Y007077D01*
X031490Y007077D01*
X031432Y007135D01*
X031432Y007194D01*
X031490Y007252D01*
X031548Y007252D01*
X031490Y007252D02*
X031432Y007310D01*
X031432Y007369D01*
X031490Y007427D01*
X031607Y007427D01*
X031665Y007369D01*
X031607Y007677D02*
X031665Y007735D01*
X031607Y007677D02*
X031490Y007677D01*
X031432Y007735D01*
X031432Y007794D01*
X031490Y007852D01*
X031548Y007852D01*
X031490Y007852D02*
X031432Y007910D01*
X031432Y007969D01*
X031490Y008027D01*
X031607Y008027D01*
X031665Y007969D01*
X031800Y007969D02*
X031800Y007852D01*
X031858Y007794D01*
X032033Y007794D01*
X032033Y007677D02*
X032033Y008027D01*
X031858Y008027D01*
X031800Y007969D01*
X031607Y008277D02*
X031665Y008335D01*
X031607Y008277D02*
X031490Y008277D01*
X031432Y008335D01*
X031432Y008394D01*
X031490Y008452D01*
X031548Y008452D01*
X031490Y008452D02*
X031432Y008510D01*
X031432Y008569D01*
X031490Y008627D01*
X031607Y008627D01*
X031665Y008569D01*
X031800Y008569D02*
X031858Y008627D01*
X032033Y008627D01*
X032033Y008277D01*
X032033Y008394D02*
X031858Y008394D01*
X031800Y008452D01*
X031800Y008569D01*
X031665Y008877D02*
X031432Y009110D01*
X031432Y009169D01*
X031490Y009227D01*
X031607Y009227D01*
X031665Y009169D01*
X031800Y009169D02*
X031800Y009052D01*
X031858Y008994D01*
X032033Y008994D01*
X032033Y008877D02*
X032033Y009227D01*
X031858Y009227D01*
X031800Y009169D01*
X031665Y008877D02*
X031432Y008877D01*
X031297Y008877D02*
X031297Y008935D01*
X031063Y009169D01*
X031063Y009227D01*
X031297Y009227D01*
X031432Y009477D02*
X031665Y009477D01*
X031432Y009710D01*
X031432Y009769D01*
X031490Y009827D01*
X031607Y009827D01*
X031665Y009769D01*
X031800Y009769D02*
X031800Y009652D01*
X031858Y009594D01*
X032033Y009594D01*
X032033Y009477D02*
X032033Y009827D01*
X031858Y009827D01*
X031800Y009769D01*
X031665Y010077D02*
X031432Y010310D01*
X031432Y010369D01*
X031490Y010427D01*
X031607Y010427D01*
X031665Y010369D01*
X031800Y010369D02*
X031800Y010252D01*
X031858Y010194D01*
X032033Y010194D01*
X032033Y010077D02*
X032033Y010427D01*
X031858Y010427D01*
X031800Y010369D01*
X031665Y010677D02*
X031432Y010677D01*
X031548Y010677D02*
X031548Y011027D01*
X031665Y010910D01*
X031800Y010852D02*
X031858Y010794D01*
X032033Y010794D01*
X032033Y010677D02*
X032033Y011027D01*
X031858Y011027D01*
X031800Y010969D01*
X031800Y010852D01*
X031665Y011277D02*
X031432Y011277D01*
X031548Y011277D02*
X031548Y011627D01*
X031665Y011510D01*
X031800Y011452D02*
X031858Y011394D01*
X032033Y011394D01*
X032033Y011277D02*
X032033Y011627D01*
X031858Y011627D01*
X031800Y011569D01*
X031800Y011452D01*
X031665Y011877D02*
X031432Y011877D01*
X031548Y011877D02*
X031548Y012227D01*
X031665Y012110D01*
X031800Y012052D02*
X031858Y011994D01*
X032033Y011994D01*
X032033Y011877D02*
X032033Y012227D01*
X031858Y012227D01*
X031800Y012169D01*
X031800Y012052D01*
X031665Y012477D02*
X031432Y012477D01*
X031548Y012477D02*
X031548Y012827D01*
X031665Y012710D01*
X031800Y012652D02*
X031858Y012594D01*
X032033Y012594D01*
X032033Y012477D02*
X032033Y012827D01*
X031858Y012827D01*
X031800Y012769D01*
X031800Y012652D01*
X031865Y013077D02*
X031865Y013427D01*
X031690Y013427D01*
X031632Y013369D01*
X031632Y013252D01*
X031690Y013194D01*
X031865Y013194D01*
X031497Y013194D02*
X031439Y013252D01*
X031322Y013252D01*
X031263Y013194D01*
X031263Y013135D01*
X031322Y013077D01*
X031439Y013077D01*
X031497Y013135D01*
X031497Y013194D01*
X031439Y013252D02*
X031497Y013310D01*
X031497Y013369D01*
X031439Y013427D01*
X031322Y013427D01*
X031263Y013369D01*
X031263Y013310D01*
X031322Y013252D01*
X031322Y013677D02*
X031263Y013735D01*
X031263Y013794D01*
X031322Y013852D01*
X031497Y013852D01*
X031497Y013735D01*
X031439Y013677D01*
X031322Y013677D01*
X031497Y013852D02*
X031380Y013969D01*
X031263Y014027D01*
X031263Y014277D02*
X031497Y014277D01*
X031263Y014510D01*
X031263Y014569D01*
X031322Y014627D01*
X031439Y014627D01*
X031497Y014569D01*
X031632Y014569D02*
X031632Y014452D01*
X031690Y014394D01*
X031865Y014394D01*
X031865Y014277D02*
X031865Y014627D01*
X031690Y014627D01*
X031632Y014569D01*
X031690Y014027D02*
X031632Y013969D01*
X031632Y013852D01*
X031690Y013794D01*
X031865Y013794D01*
X031865Y013677D02*
X031865Y014027D01*
X031690Y014027D01*
X032627Y014435D02*
X032685Y014377D01*
X032802Y014377D01*
X032860Y014435D01*
X032860Y014552D01*
X032685Y014552D01*
X032627Y014494D01*
X032627Y014435D01*
X032860Y014552D02*
X032744Y014669D01*
X032627Y014727D01*
X032995Y014727D02*
X033112Y014669D01*
X033229Y014552D01*
X033053Y014552D01*
X032995Y014494D01*
X032995Y014435D01*
X033053Y014377D01*
X033170Y014377D01*
X033229Y014435D01*
X033229Y014552D01*
X033229Y013527D02*
X032995Y013527D01*
X032995Y013469D01*
X033229Y013235D01*
X033229Y013177D01*
X032860Y013235D02*
X032627Y013469D01*
X032627Y013235D01*
X032685Y013177D01*
X032802Y013177D01*
X032860Y013235D01*
X032860Y013469D01*
X032802Y013527D01*
X032685Y013527D01*
X032627Y013469D01*
X031297Y012769D02*
X031297Y012535D01*
X031063Y012769D01*
X031063Y012535D01*
X031122Y012477D01*
X031239Y012477D01*
X031297Y012535D01*
X031297Y012769D02*
X031239Y012827D01*
X031122Y012827D01*
X031063Y012769D01*
X031122Y012227D02*
X031239Y012227D01*
X031297Y012169D01*
X031122Y012227D02*
X031063Y012169D01*
X031063Y012110D01*
X031297Y011877D01*
X031063Y011877D01*
X031063Y011627D02*
X031297Y011627D01*
X031297Y011452D01*
X031180Y011510D01*
X031122Y011510D01*
X031063Y011452D01*
X031063Y011335D01*
X031122Y011277D01*
X031239Y011277D01*
X031297Y011335D01*
X031297Y011027D02*
X031063Y011027D01*
X031063Y010969D01*
X031297Y010735D01*
X031297Y010677D01*
X031239Y010427D02*
X031297Y010369D01*
X031239Y010427D02*
X031122Y010427D01*
X031063Y010369D01*
X031063Y010310D01*
X031297Y010077D01*
X031063Y010077D01*
X031122Y009827D02*
X031297Y009652D01*
X031063Y009652D01*
X031122Y009477D02*
X031122Y009827D01*
X031432Y010077D02*
X031665Y010077D01*
X032627Y010235D02*
X032685Y010177D01*
X032802Y010177D01*
X032860Y010235D01*
X032627Y010469D01*
X032627Y010235D01*
X032860Y010235D02*
X032860Y010469D01*
X032802Y010527D01*
X032685Y010527D01*
X032627Y010469D01*
X032995Y010469D02*
X032995Y010410D01*
X033053Y010352D01*
X033170Y010352D01*
X033229Y010410D01*
X033229Y010469D01*
X033170Y010527D01*
X033053Y010527D01*
X032995Y010469D01*
X033053Y010352D02*
X032995Y010294D01*
X032995Y010235D01*
X033053Y010177D01*
X033170Y010177D01*
X033229Y010235D01*
X033229Y010294D01*
X033170Y010352D01*
X031297Y008569D02*
X031239Y008627D01*
X031122Y008627D01*
X031063Y008569D01*
X031297Y008335D01*
X031239Y008277D01*
X031122Y008277D01*
X031063Y008335D01*
X031063Y008569D01*
X031297Y008569D02*
X031297Y008335D01*
X031239Y008027D02*
X031122Y008027D01*
X031063Y007969D01*
X031063Y007910D01*
X031122Y007852D01*
X031063Y007794D01*
X031063Y007735D01*
X031122Y007677D01*
X031239Y007677D01*
X031297Y007735D01*
X031180Y007852D02*
X031122Y007852D01*
X031297Y007969D02*
X031239Y008027D01*
X031297Y007427D02*
X031297Y007252D01*
X031180Y007310D01*
X031122Y007310D01*
X031063Y007252D01*
X031063Y007135D01*
X031122Y007077D01*
X031239Y007077D01*
X031297Y007135D01*
X031297Y007427D02*
X031063Y007427D01*
X032627Y007469D02*
X032860Y007235D01*
X032802Y007177D01*
X032685Y007177D01*
X032627Y007235D01*
X032627Y007469D01*
X032685Y007527D01*
X032802Y007527D01*
X032860Y007469D01*
X032860Y007235D01*
X032995Y007235D02*
X032995Y007469D01*
X033053Y007527D01*
X033170Y007527D01*
X033229Y007469D01*
X033229Y007410D01*
X033170Y007352D01*
X032995Y007352D01*
X032995Y007235D02*
X033053Y007177D01*
X033170Y007177D01*
X033229Y007235D01*
X031063Y005627D02*
X031063Y005394D01*
X030170Y003027D02*
X030053Y003027D01*
X029995Y002969D01*
X029995Y002910D01*
X030229Y002677D01*
X029995Y002677D01*
X029860Y002735D02*
X029627Y002969D01*
X029627Y002735D01*
X029685Y002677D01*
X029802Y002677D01*
X029860Y002735D01*
X029860Y002969D01*
X029802Y003027D01*
X029685Y003027D01*
X029627Y002969D01*
X030170Y003027D02*
X030229Y002969D01*
X030222Y000827D02*
X030105Y000827D01*
X030047Y000769D01*
X030105Y000652D02*
X030280Y000652D01*
X030280Y000769D02*
X030280Y000535D01*
X030222Y000477D01*
X030105Y000477D01*
X030047Y000535D01*
X030047Y000593D01*
X030105Y000652D01*
X030222Y000827D02*
X030280Y000769D01*
X029912Y000827D02*
X029679Y000827D01*
X029795Y000827D02*
X029795Y000477D01*
X029679Y000593D01*
X034679Y000535D02*
X034737Y000477D01*
X034854Y000477D01*
X034912Y000535D01*
X034912Y000593D01*
X034679Y000827D01*
X034912Y000827D01*
X035047Y000769D02*
X035105Y000827D01*
X035222Y000827D01*
X035280Y000769D01*
X035280Y000535D01*
X035222Y000477D01*
X035105Y000477D01*
X035047Y000535D01*
X035047Y000593D01*
X035105Y000652D01*
X035280Y000652D01*
X035779Y000769D02*
X035837Y000827D01*
X035954Y000827D01*
X036012Y000769D01*
X036012Y000710D01*
X035954Y000652D01*
X035895Y000652D01*
X035954Y000652D02*
X036012Y000593D01*
X036012Y000535D01*
X035954Y000477D01*
X035837Y000477D01*
X035779Y000535D01*
X036147Y000593D02*
X036264Y000477D01*
X036264Y000827D01*
X036380Y000827D02*
X036147Y000827D01*
X036070Y002677D02*
X035953Y002677D01*
X035895Y002735D01*
X035895Y002794D01*
X035953Y002852D01*
X036012Y002852D01*
X035953Y002852D02*
X035895Y002910D01*
X035895Y002969D01*
X035953Y003027D01*
X036070Y003027D01*
X036129Y002969D01*
X036178Y003184D02*
X036353Y003359D01*
X036353Y003125D01*
X036178Y003184D02*
X036529Y003184D01*
X036470Y003493D02*
X036412Y003493D01*
X036353Y003552D01*
X036353Y003610D01*
X036353Y003552D02*
X036295Y003493D01*
X036237Y003493D01*
X036178Y003552D01*
X036178Y003669D01*
X036237Y003727D01*
X036470Y003727D02*
X036529Y003669D01*
X036529Y003552D01*
X036470Y003493D01*
X035760Y002969D02*
X035702Y003027D01*
X035585Y003027D01*
X035527Y002969D01*
X035527Y002910D01*
X035760Y002677D01*
X035527Y002677D01*
X035229Y002735D02*
X035170Y002677D01*
X035053Y002677D01*
X034995Y002735D01*
X034995Y002794D01*
X035053Y002852D01*
X035112Y002852D01*
X035053Y002852D02*
X034995Y002910D01*
X034995Y002969D01*
X035053Y003027D01*
X035170Y003027D01*
X035229Y002969D01*
X034860Y002969D02*
X034802Y003027D01*
X034685Y003027D01*
X034627Y002969D01*
X034860Y002735D01*
X034802Y002677D01*
X034685Y002677D01*
X034627Y002735D01*
X034627Y002969D01*
X034860Y002969D02*
X034860Y002735D01*
X036070Y002677D02*
X036129Y002735D01*
X038379Y003235D02*
X038437Y003177D01*
X038379Y003235D02*
X038379Y003352D01*
X038437Y003410D01*
X038495Y003410D01*
X038554Y003352D01*
X038554Y003294D01*
X038554Y003352D02*
X038612Y003410D01*
X038670Y003410D01*
X038729Y003352D01*
X038729Y003235D01*
X038670Y003177D01*
X038670Y003545D02*
X038729Y003604D01*
X038729Y003720D01*
X038670Y003779D01*
X038612Y003779D01*
X038554Y003720D01*
X038495Y003779D01*
X038437Y003779D01*
X038379Y003720D01*
X038379Y003604D01*
X038437Y003545D01*
X038554Y003662D02*
X038554Y003720D01*
X038670Y005977D02*
X038729Y006035D01*
X038729Y006152D01*
X038670Y006210D01*
X038612Y006210D01*
X038554Y006152D01*
X038495Y006210D01*
X038437Y006210D01*
X038379Y006152D01*
X038379Y006035D01*
X038437Y005977D01*
X038554Y006094D02*
X038554Y006152D01*
X038612Y006345D02*
X038554Y006404D01*
X038554Y006579D01*
X038670Y006579D02*
X038729Y006520D01*
X038729Y006404D01*
X038670Y006345D01*
X038612Y006345D01*
X038437Y006345D02*
X038379Y006404D01*
X038379Y006520D01*
X038437Y006579D01*
X038670Y006579D01*
X036529Y006352D02*
X036178Y006352D01*
X036353Y006527D01*
X036353Y006293D01*
X036237Y006159D02*
X036178Y006100D01*
X036178Y005984D01*
X036237Y005925D01*
X036470Y006159D01*
X036529Y006100D01*
X036529Y005984D01*
X036470Y005925D01*
X036237Y005925D01*
X036237Y006159D02*
X036470Y006159D01*
X030033Y008877D02*
X030033Y009227D01*
X029858Y009227D01*
X029800Y009169D01*
X029800Y009052D01*
X029858Y008994D01*
X030033Y008994D01*
X029665Y008877D02*
X029432Y009110D01*
X029432Y009169D01*
X029490Y009227D01*
X029607Y009227D01*
X029665Y009169D01*
X029665Y008877D02*
X029432Y008877D01*
X029297Y008935D02*
X029297Y009052D01*
X029122Y009052D01*
X029063Y008994D01*
X029063Y008935D01*
X029122Y008877D01*
X029239Y008877D01*
X029297Y008935D01*
X029297Y009052D02*
X029180Y009169D01*
X029063Y009227D01*
X029122Y009477D02*
X029239Y009477D01*
X029297Y009535D01*
X029432Y009477D02*
X029665Y009477D01*
X029432Y009710D01*
X029432Y009769D01*
X029490Y009827D01*
X029607Y009827D01*
X029665Y009769D01*
X029800Y009769D02*
X029800Y009652D01*
X029858Y009594D01*
X030033Y009594D01*
X030033Y009477D02*
X030033Y009827D01*
X029858Y009827D01*
X029800Y009769D01*
X029665Y010077D02*
X029432Y010310D01*
X029432Y010369D01*
X029490Y010427D01*
X029607Y010427D01*
X029665Y010369D01*
X029800Y010369D02*
X029800Y010252D01*
X029858Y010194D01*
X030033Y010194D01*
X030033Y010077D02*
X030033Y010427D01*
X029858Y010427D01*
X029800Y010369D01*
X029665Y010677D02*
X029432Y010677D01*
X029548Y010677D02*
X029548Y011027D01*
X029665Y010910D01*
X029800Y010852D02*
X029858Y010794D01*
X030033Y010794D01*
X030033Y010677D02*
X030033Y011027D01*
X029858Y011027D01*
X029800Y010969D01*
X029800Y010852D01*
X029665Y011277D02*
X029432Y011277D01*
X029548Y011277D02*
X029548Y011627D01*
X029665Y011510D01*
X029800Y011452D02*
X029858Y011394D01*
X030033Y011394D01*
X030033Y011277D02*
X030033Y011627D01*
X029858Y011627D01*
X029800Y011569D01*
X029800Y011452D01*
X029665Y011877D02*
X029432Y011877D01*
X029548Y011877D02*
X029548Y012227D01*
X029665Y012110D01*
X029800Y012052D02*
X029858Y011994D01*
X030033Y011994D01*
X030033Y011877D02*
X030033Y012227D01*
X029858Y012227D01*
X029800Y012169D01*
X029800Y012052D01*
X029865Y012477D02*
X029865Y012827D01*
X029690Y012827D01*
X029632Y012769D01*
X029632Y012652D01*
X029690Y012594D01*
X029865Y012594D01*
X029497Y012535D02*
X029439Y012477D01*
X029322Y012477D01*
X029263Y012535D01*
X029263Y012769D01*
X029322Y012827D01*
X029439Y012827D01*
X029497Y012769D01*
X029497Y012710D01*
X029439Y012652D01*
X029263Y012652D01*
X029180Y012227D02*
X029180Y011877D01*
X029297Y011877D02*
X029063Y011877D01*
X029122Y011627D02*
X029297Y011452D01*
X029063Y011452D01*
X029122Y011277D02*
X029122Y011627D01*
X029297Y012110D02*
X029180Y012227D01*
X029497Y013077D02*
X029497Y013135D01*
X029263Y013369D01*
X029263Y013427D01*
X029497Y013427D01*
X029632Y013369D02*
X029632Y013252D01*
X029690Y013194D01*
X029865Y013194D01*
X029865Y013077D02*
X029865Y013427D01*
X029690Y013427D01*
X029632Y013369D01*
X029439Y013677D02*
X029322Y013677D01*
X029263Y013735D01*
X029263Y013852D01*
X029322Y013910D01*
X029380Y013910D01*
X029497Y013852D01*
X029497Y014027D01*
X029263Y014027D01*
X029263Y014277D02*
X029497Y014277D01*
X029380Y014277D02*
X029380Y014627D01*
X029497Y014510D01*
X029632Y014452D02*
X029690Y014394D01*
X029865Y014394D01*
X029865Y014277D02*
X029865Y014627D01*
X029690Y014627D01*
X029632Y014569D01*
X029632Y014452D01*
X029690Y014027D02*
X029632Y013969D01*
X029632Y013852D01*
X029690Y013794D01*
X029865Y013794D01*
X029865Y013677D02*
X029865Y014027D01*
X029690Y014027D01*
X029497Y013735D02*
X029439Y013677D01*
X028229Y013352D02*
X028229Y013235D01*
X028170Y013177D01*
X028053Y013177D01*
X027995Y013235D01*
X027995Y013294D01*
X028053Y013352D01*
X028229Y013352D01*
X028112Y013469D01*
X027995Y013527D01*
X027860Y013469D02*
X027860Y013410D01*
X027802Y013352D01*
X027627Y013352D01*
X027627Y013235D02*
X027627Y013469D01*
X027685Y013527D01*
X027802Y013527D01*
X027860Y013469D01*
X027860Y013235D02*
X027802Y013177D01*
X027685Y013177D01*
X027627Y013235D01*
X027685Y014377D02*
X027802Y014377D01*
X027860Y014435D01*
X027860Y014552D02*
X027744Y014610D01*
X027685Y014610D01*
X027627Y014552D01*
X027627Y014435D01*
X027685Y014377D01*
X027860Y014552D02*
X027860Y014727D01*
X027627Y014727D01*
X027995Y014727D02*
X028112Y014669D01*
X028229Y014552D01*
X028053Y014552D01*
X027995Y014494D01*
X027995Y014435D01*
X028053Y014377D01*
X028170Y014377D01*
X028229Y014435D01*
X028229Y014552D01*
X023729Y014435D02*
X023670Y014377D01*
X023553Y014377D01*
X023495Y014435D01*
X023495Y014494D01*
X023553Y014552D01*
X023612Y014552D01*
X023553Y014552D02*
X023495Y014610D01*
X023495Y014669D01*
X023553Y014727D01*
X023670Y014727D01*
X023729Y014669D01*
X023360Y014552D02*
X023127Y014552D01*
X023185Y014377D02*
X023185Y014727D01*
X023360Y014552D01*
X022529Y014494D02*
X022353Y014494D01*
X022295Y014552D01*
X022295Y014669D01*
X022353Y014727D01*
X022529Y014727D01*
X022529Y014377D01*
X022529Y014127D02*
X022353Y014127D01*
X022295Y014069D01*
X022295Y013952D01*
X022353Y013894D01*
X022529Y013894D01*
X022529Y013777D02*
X022529Y014127D01*
X022160Y014010D02*
X022044Y014127D01*
X022044Y013777D01*
X022160Y013777D02*
X021927Y013777D01*
X021792Y013777D02*
X021558Y013777D01*
X021675Y013777D02*
X021675Y014127D01*
X021792Y014010D01*
X021792Y014377D02*
X021558Y014377D01*
X021675Y014377D02*
X021675Y014727D01*
X021792Y014610D01*
X021927Y014377D02*
X022160Y014377D01*
X022044Y014377D02*
X022044Y014727D01*
X022160Y014610D01*
X021424Y014669D02*
X021365Y014727D01*
X021249Y014727D01*
X021190Y014669D01*
X021190Y014610D01*
X021424Y014377D01*
X021190Y014377D01*
X021190Y014127D02*
X021424Y014127D01*
X021424Y013952D01*
X021307Y014010D01*
X021249Y014010D01*
X021190Y013952D01*
X021190Y013835D01*
X021249Y013777D01*
X021365Y013777D01*
X021424Y013835D01*
X021424Y013527D02*
X021190Y013527D01*
X021190Y013469D01*
X021424Y013235D01*
X021424Y013177D01*
X021558Y013177D02*
X021792Y013177D01*
X021675Y013177D02*
X021675Y013527D01*
X021792Y013410D01*
X021927Y013177D02*
X022160Y013177D01*
X022044Y013177D02*
X022044Y013527D01*
X022160Y013410D01*
X022295Y013352D02*
X022353Y013294D01*
X022529Y013294D01*
X022529Y013177D02*
X022529Y013527D01*
X022353Y013527D01*
X022295Y013469D01*
X022295Y013352D01*
X022353Y012927D02*
X022295Y012869D01*
X022295Y012752D01*
X022353Y012694D01*
X022529Y012694D01*
X022529Y012577D02*
X022529Y012927D01*
X022353Y012927D01*
X022160Y012810D02*
X022044Y012927D01*
X022044Y012577D01*
X022160Y012577D02*
X021927Y012577D01*
X021792Y012577D02*
X021558Y012577D01*
X021675Y012577D02*
X021675Y012927D01*
X021792Y012810D01*
X021424Y012810D02*
X021365Y012752D01*
X021190Y012752D01*
X021190Y012635D02*
X021190Y012869D01*
X021249Y012927D01*
X021365Y012927D01*
X021424Y012869D01*
X021424Y012810D01*
X021424Y012635D02*
X021365Y012577D01*
X021249Y012577D01*
X021190Y012635D01*
X021307Y012327D02*
X021307Y011977D01*
X021424Y011977D02*
X021190Y011977D01*
X021249Y011727D02*
X021424Y011552D01*
X021190Y011552D01*
X021249Y011377D02*
X021249Y011727D01*
X021558Y011669D02*
X021558Y011610D01*
X021792Y011377D01*
X021558Y011377D01*
X021617Y011127D02*
X021734Y011127D01*
X021792Y011069D01*
X021617Y011127D02*
X021558Y011069D01*
X021558Y011010D01*
X021792Y010777D01*
X021558Y010777D01*
X021424Y010777D02*
X021424Y010835D01*
X021190Y011069D01*
X021190Y011127D01*
X021424Y011127D01*
X021927Y011377D02*
X022160Y011377D01*
X022044Y011377D02*
X022044Y011727D01*
X022160Y011610D01*
X022295Y011552D02*
X022353Y011494D01*
X022529Y011494D01*
X022529Y011377D02*
X022529Y011727D01*
X022353Y011727D01*
X022295Y011669D01*
X022295Y011552D01*
X021792Y011669D02*
X021734Y011727D01*
X021617Y011727D01*
X021558Y011669D01*
X021558Y011977D02*
X021792Y011977D01*
X021558Y012210D01*
X021558Y012269D01*
X021617Y012327D01*
X021734Y012327D01*
X021792Y012269D01*
X022044Y012327D02*
X022160Y012210D01*
X022295Y012152D02*
X022353Y012094D01*
X022529Y012094D01*
X022529Y011977D02*
X022529Y012327D01*
X022353Y012327D01*
X022295Y012269D01*
X022295Y012152D01*
X022160Y011977D02*
X021927Y011977D01*
X022044Y011977D02*
X022044Y012327D01*
X021424Y012210D02*
X021307Y012327D01*
X020629Y012327D02*
X020629Y011977D01*
X020629Y012094D02*
X020453Y012094D01*
X020395Y012152D01*
X020395Y012269D01*
X020453Y012327D01*
X020629Y012327D01*
X020629Y012577D02*
X020629Y012927D01*
X020453Y012927D01*
X020395Y012869D01*
X020395Y012752D01*
X020453Y012694D01*
X020629Y012694D01*
X020260Y012810D02*
X020144Y012927D01*
X020144Y012577D01*
X020260Y012577D02*
X020027Y012577D01*
X019892Y012577D02*
X019658Y012577D01*
X019775Y012577D02*
X019775Y012927D01*
X019892Y012810D01*
X019524Y012810D02*
X019524Y012869D01*
X019465Y012927D01*
X019349Y012927D01*
X019290Y012869D01*
X019290Y012810D01*
X019349Y012752D01*
X019465Y012752D01*
X019524Y012810D01*
X019465Y012752D02*
X019524Y012694D01*
X019524Y012635D01*
X019465Y012577D01*
X019349Y012577D01*
X019290Y012635D01*
X019290Y012694D01*
X019349Y012752D01*
X019349Y012327D02*
X019290Y012269D01*
X019524Y012035D01*
X019465Y011977D01*
X019349Y011977D01*
X019290Y012035D01*
X019290Y012269D01*
X019349Y012327D02*
X019465Y012327D01*
X019524Y012269D01*
X019524Y012035D01*
X019658Y011977D02*
X019892Y011977D01*
X019658Y012210D01*
X019658Y012269D01*
X019717Y012327D01*
X019834Y012327D01*
X019892Y012269D01*
X020144Y012327D02*
X020260Y012210D01*
X020144Y012327D02*
X020144Y011977D01*
X020260Y011977D02*
X020027Y011977D01*
X020144Y011727D02*
X020144Y011377D01*
X020260Y011377D02*
X020027Y011377D01*
X019892Y011377D02*
X019658Y011610D01*
X019658Y011669D01*
X019717Y011727D01*
X019834Y011727D01*
X019892Y011669D01*
X020144Y011727D02*
X020260Y011610D01*
X020395Y011552D02*
X020395Y011669D01*
X020453Y011727D01*
X020629Y011727D01*
X020629Y011377D01*
X020629Y011494D02*
X020453Y011494D01*
X020395Y011552D01*
X020453Y011127D02*
X020395Y011069D01*
X020395Y010952D01*
X020453Y010894D01*
X020629Y010894D01*
X020629Y010777D02*
X020629Y011127D01*
X020453Y011127D01*
X020260Y011010D02*
X020144Y011127D01*
X020144Y010777D01*
X020260Y010777D02*
X020027Y010777D01*
X019892Y010777D02*
X019658Y011010D01*
X019658Y011069D01*
X019717Y011127D01*
X019834Y011127D01*
X019892Y011069D01*
X019892Y010777D02*
X019658Y010777D01*
X019524Y010835D02*
X019465Y010777D01*
X019349Y010777D01*
X019290Y010835D01*
X019290Y010894D01*
X019349Y010952D01*
X019524Y010952D01*
X019524Y010835D01*
X019524Y010952D02*
X019407Y011069D01*
X019290Y011127D01*
X019349Y011377D02*
X019465Y011377D01*
X019524Y011435D01*
X019658Y011377D02*
X019892Y011377D01*
X019407Y011552D02*
X019349Y011552D01*
X019290Y011494D01*
X019290Y011435D01*
X019349Y011377D01*
X019349Y011552D02*
X019290Y011610D01*
X019290Y011669D01*
X019349Y011727D01*
X019465Y011727D01*
X019524Y011669D01*
X018670Y012577D02*
X018729Y012635D01*
X018670Y012577D02*
X018553Y012577D01*
X018495Y012635D01*
X018495Y012694D01*
X018553Y012752D01*
X018612Y012752D01*
X018553Y012752D02*
X018495Y012810D01*
X018495Y012869D01*
X018553Y012927D01*
X018670Y012927D01*
X018729Y012869D01*
X018360Y012869D02*
X018302Y012927D01*
X018185Y012927D01*
X018127Y012869D01*
X018127Y012635D01*
X018185Y012577D01*
X018302Y012577D01*
X018360Y012635D01*
X018302Y012752D02*
X018127Y012752D01*
X018302Y012752D02*
X018360Y012810D01*
X018360Y012869D01*
X019290Y013235D02*
X019290Y013294D01*
X019349Y013352D01*
X019524Y013352D01*
X019524Y013235D01*
X019465Y013177D01*
X019349Y013177D01*
X019290Y013235D01*
X019407Y013469D02*
X019524Y013352D01*
X019407Y013469D02*
X019290Y013527D01*
X019775Y013527D02*
X019775Y013177D01*
X019892Y013177D02*
X019658Y013177D01*
X019892Y013410D02*
X019775Y013527D01*
X020144Y013527D02*
X020144Y013177D01*
X020260Y013177D02*
X020027Y013177D01*
X020260Y013410D02*
X020144Y013527D01*
X020395Y013469D02*
X020395Y013352D01*
X020453Y013294D01*
X020629Y013294D01*
X020629Y013177D02*
X020629Y013527D01*
X020453Y013527D01*
X020395Y013469D01*
X020260Y013777D02*
X020027Y013777D01*
X020144Y013777D02*
X020144Y014127D01*
X020260Y014010D01*
X020395Y013952D02*
X020453Y013894D01*
X020629Y013894D01*
X020629Y013777D02*
X020629Y014127D01*
X020453Y014127D01*
X020395Y014069D01*
X020395Y013952D01*
X020260Y014377D02*
X020027Y014377D01*
X020144Y014377D02*
X020144Y014727D01*
X020260Y014610D01*
X020395Y014552D02*
X020395Y014669D01*
X020453Y014727D01*
X020629Y014727D01*
X020629Y014377D01*
X020629Y014494D02*
X020453Y014494D01*
X020395Y014552D01*
X019892Y014610D02*
X019775Y014727D01*
X019775Y014377D01*
X019892Y014377D02*
X019658Y014377D01*
X019524Y014377D02*
X019290Y014377D01*
X019407Y014377D02*
X019407Y014727D01*
X019524Y014610D01*
X019349Y014127D02*
X019524Y013952D01*
X019290Y013952D01*
X019349Y013777D02*
X019349Y014127D01*
X019775Y014127D02*
X019775Y013777D01*
X019892Y013777D02*
X019658Y013777D01*
X019892Y014010D02*
X019775Y014127D01*
X018729Y014435D02*
X018670Y014377D01*
X018553Y014377D01*
X018495Y014435D01*
X018495Y014494D01*
X018553Y014552D01*
X018612Y014552D01*
X018553Y014552D02*
X018495Y014610D01*
X018495Y014669D01*
X018553Y014727D01*
X018670Y014727D01*
X018729Y014669D01*
X018360Y014669D02*
X018302Y014727D01*
X018185Y014727D01*
X018127Y014669D01*
X018127Y014610D01*
X018185Y014552D01*
X018127Y014494D01*
X018127Y014435D01*
X018185Y014377D01*
X018302Y014377D01*
X018360Y014435D01*
X018244Y014552D02*
X018185Y014552D01*
X013729Y012210D02*
X013612Y012327D01*
X013612Y011977D01*
X013729Y011977D02*
X013495Y011977D01*
X013360Y012035D02*
X013127Y012269D01*
X013127Y012035D01*
X013185Y011977D01*
X013302Y011977D01*
X013360Y012035D01*
X013360Y012269D01*
X013302Y012327D01*
X013185Y012327D01*
X013127Y012269D01*
X011965Y012694D02*
X011965Y012927D01*
X011867Y013257D02*
X011777Y013257D01*
X011732Y013302D01*
X011732Y013482D01*
X011777Y013527D01*
X011867Y013527D01*
X011912Y013482D01*
X011912Y013302D01*
X011867Y013257D01*
X012027Y013302D02*
X012072Y013257D01*
X012162Y013257D01*
X012207Y013302D01*
X012207Y013482D01*
X012162Y013527D01*
X012072Y013527D01*
X012027Y013482D01*
X012322Y013482D02*
X012367Y013527D01*
X012457Y013527D01*
X012502Y013482D01*
X012502Y013302D01*
X012457Y013257D01*
X012367Y013257D01*
X012322Y013302D01*
X012616Y013347D02*
X012616Y013527D01*
X012616Y013347D02*
X012706Y013257D01*
X012796Y013347D01*
X012796Y013527D01*
X012585Y013835D02*
X012585Y014069D01*
X012702Y013952D02*
X012468Y013952D01*
X012333Y013835D02*
X012275Y013777D01*
X012158Y013777D01*
X012100Y013835D01*
X012100Y013894D01*
X012158Y013952D01*
X012217Y013952D01*
X012158Y013952D02*
X012100Y014010D01*
X012100Y014069D01*
X012158Y014127D01*
X012275Y014127D01*
X012333Y014069D01*
X011965Y014127D02*
X011965Y013894D01*
X011848Y013777D01*
X011732Y013894D01*
X011732Y014127D01*
X011597Y014069D02*
X011539Y014127D01*
X011422Y014127D01*
X011363Y014069D01*
X011363Y014010D01*
X011422Y013952D01*
X011363Y013894D01*
X011363Y013835D01*
X011422Y013777D01*
X011539Y013777D01*
X011597Y013835D01*
X011480Y013952D02*
X011422Y013952D01*
X011233Y013527D02*
X011233Y013257D01*
X011323Y013257D02*
X011143Y013257D01*
X011323Y013437D02*
X011233Y013527D01*
X011438Y013212D02*
X011618Y013212D01*
X010433Y013835D02*
X010375Y013777D01*
X010258Y013777D01*
X010200Y013835D01*
X010200Y013952D01*
X010317Y013952D01*
X010433Y014069D02*
X010433Y013835D01*
X010433Y014069D02*
X010375Y014127D01*
X010258Y014127D01*
X010200Y014069D01*
X010065Y014127D02*
X009832Y013777D01*
X009832Y014127D01*
X009697Y014127D02*
X009697Y013777D01*
X009522Y013777D01*
X009463Y013835D01*
X009463Y014069D01*
X009522Y014127D01*
X009697Y014127D01*
X009580Y014377D02*
X009463Y014494D01*
X009463Y014727D01*
X009697Y014727D02*
X009697Y014494D01*
X009580Y014377D01*
X009832Y014435D02*
X009890Y014377D01*
X010007Y014377D01*
X010065Y014435D01*
X010065Y014552D02*
X009948Y014610D01*
X009890Y014610D01*
X009832Y014552D01*
X009832Y014435D01*
X010065Y014552D02*
X010065Y014727D01*
X009832Y014727D01*
X010200Y014552D02*
X010433Y014552D01*
X010317Y014669D02*
X010317Y014435D01*
X010065Y014127D02*
X010065Y013777D01*
X008729Y014377D02*
X008495Y014377D01*
X008612Y014377D02*
X008612Y014727D01*
X008729Y014610D01*
X011563Y014494D02*
X011680Y014377D01*
X011797Y014494D01*
X011797Y014727D01*
X011932Y014727D02*
X012165Y014727D01*
X012165Y014552D01*
X012048Y014610D01*
X011990Y014610D01*
X011932Y014552D01*
X011932Y014435D01*
X011990Y014377D01*
X012107Y014377D01*
X012165Y014435D01*
X012300Y014552D02*
X012533Y014552D01*
X012417Y014669D02*
X012417Y014435D01*
X013195Y014377D02*
X013429Y014377D01*
X013195Y014610D01*
X013195Y014669D01*
X013253Y014727D01*
X013370Y014727D01*
X013429Y014669D01*
X011563Y014727D02*
X011563Y014494D01*
X017705Y018052D02*
X017707Y018065D01*
X017712Y018077D01*
X017721Y018088D01*
X017731Y018096D01*
X017744Y018100D01*
X017757Y018101D01*
X017770Y018098D01*
X017782Y018092D01*
X017792Y018083D01*
X017799Y018072D01*
X017803Y018059D01*
X017803Y018045D01*
X017799Y018032D01*
X017792Y018021D01*
X017782Y018012D01*
X017770Y018006D01*
X017757Y018003D01*
X017744Y018004D01*
X017731Y018008D01*
X017721Y018016D01*
X017712Y018027D01*
X017707Y018039D01*
X017705Y018052D01*
X017754Y018200D02*
X017704Y018643D01*
X017803Y018643D01*
X017754Y018200D01*
X017752Y018213D02*
X017755Y018213D01*
X017747Y018262D02*
X017760Y018262D01*
X017766Y018310D02*
X017741Y018310D01*
X017736Y018359D02*
X017771Y018359D01*
X017777Y018407D02*
X017730Y018407D01*
X017725Y018456D02*
X017782Y018456D01*
X017787Y018504D02*
X017720Y018504D01*
X017714Y018553D02*
X017793Y018553D01*
X017798Y018601D02*
X017709Y018601D01*
X017705Y018643D02*
X017707Y018656D01*
X017712Y018667D01*
X017719Y018678D01*
X017730Y018685D01*
X017741Y018690D01*
X017754Y018692D01*
X017767Y018690D01*
X017779Y018685D01*
X017789Y018678D01*
X017796Y018667D01*
X017801Y018656D01*
X017803Y018643D01*
X020579Y018593D02*
X020637Y018652D01*
X020812Y018652D01*
X020812Y018769D02*
X020812Y018535D01*
X020754Y018477D01*
X020637Y018477D01*
X020579Y018535D01*
X020579Y018593D01*
X020579Y018769D02*
X020637Y018827D01*
X020754Y018827D01*
X020812Y018769D01*
X020947Y018769D02*
X021005Y018827D01*
X021122Y018827D01*
X021180Y018769D01*
X021180Y018652D01*
X021122Y018593D01*
X021064Y018593D01*
X020947Y018652D01*
X020947Y018477D01*
X021180Y018477D01*
X023679Y018535D02*
X023737Y018477D01*
X023854Y018477D01*
X023912Y018535D01*
X023912Y018593D01*
X023854Y018652D01*
X023737Y018652D01*
X023679Y018593D01*
X023679Y018535D01*
X023737Y018652D02*
X023679Y018710D01*
X023679Y018769D01*
X023737Y018827D01*
X023854Y018827D01*
X023912Y018769D01*
X023912Y018710D01*
X023854Y018652D01*
X024047Y018593D02*
X024105Y018652D01*
X024280Y018652D01*
X024280Y018769D02*
X024280Y018535D01*
X024222Y018477D01*
X024105Y018477D01*
X024047Y018535D01*
X024047Y018593D01*
X024047Y018769D02*
X024105Y018827D01*
X024222Y018827D01*
X024280Y018769D01*
X024170Y020677D02*
X024053Y020677D01*
X023995Y020735D01*
X023995Y020969D01*
X024053Y021027D01*
X024170Y021027D01*
X024229Y020969D01*
X024229Y020910D01*
X024170Y020852D01*
X023995Y020852D01*
X023860Y020735D02*
X023627Y020969D01*
X023627Y020735D01*
X023685Y020677D01*
X023802Y020677D01*
X023860Y020735D01*
X023860Y020969D01*
X023802Y021027D01*
X023685Y021027D01*
X023627Y020969D01*
X024170Y020677D02*
X024229Y020735D01*
X021229Y020735D02*
X021170Y020677D01*
X021053Y020677D01*
X020995Y020735D01*
X020995Y020969D01*
X021053Y021027D01*
X021170Y021027D01*
X021229Y020969D01*
X021229Y020910D01*
X021170Y020852D01*
X020995Y020852D01*
X020860Y020852D02*
X020685Y020852D01*
X020627Y020794D01*
X020627Y020735D01*
X020685Y020677D01*
X020802Y020677D01*
X020860Y020735D01*
X020860Y020852D01*
X020744Y020969D01*
X020627Y021027D01*
X028627Y020969D02*
X028860Y020735D01*
X028802Y020677D01*
X028685Y020677D01*
X028627Y020735D01*
X028627Y020969D01*
X028685Y021027D01*
X028802Y021027D01*
X028860Y020969D01*
X028860Y020735D01*
X028995Y020735D02*
X029053Y020677D01*
X029170Y020677D01*
X029229Y020735D01*
X029229Y020794D01*
X029170Y020852D01*
X029053Y020852D01*
X028995Y020794D01*
X028995Y020735D01*
X029053Y020852D02*
X028995Y020910D01*
X028995Y020969D01*
X029053Y021027D01*
X029170Y021027D01*
X029229Y020969D01*
X029229Y020910D01*
X029170Y020852D01*
X029203Y018675D02*
X029261Y018617D01*
X029261Y018383D01*
X029203Y018325D01*
X029086Y018325D01*
X029028Y018383D01*
X029028Y018442D01*
X029086Y018500D01*
X029261Y018500D01*
X029203Y018675D02*
X029086Y018675D01*
X029028Y018617D01*
X028893Y018383D02*
X028660Y018617D01*
X028660Y018675D01*
X028660Y018325D02*
X028893Y018325D01*
X028893Y018383D01*
X033679Y018652D02*
X033854Y018652D01*
X033912Y018710D01*
X033912Y018769D01*
X033854Y018827D01*
X033737Y018827D01*
X033679Y018769D01*
X033679Y018652D01*
X033795Y018535D01*
X033912Y018477D01*
X034047Y018535D02*
X034047Y018593D01*
X034105Y018652D01*
X034280Y018652D01*
X034280Y018769D02*
X034280Y018535D01*
X034222Y018477D01*
X034105Y018477D01*
X034047Y018535D01*
X034047Y018769D02*
X034105Y018827D01*
X034222Y018827D01*
X034280Y018769D01*
X035679Y018769D02*
X035679Y018652D01*
X035854Y018652D01*
X035912Y018710D01*
X035912Y018769D01*
X035854Y018827D01*
X035737Y018827D01*
X035679Y018769D01*
X035679Y018652D02*
X035795Y018535D01*
X035912Y018477D01*
X036047Y018477D02*
X036047Y018652D01*
X036164Y018593D01*
X036222Y018593D01*
X036280Y018652D01*
X036280Y018769D01*
X036222Y018827D01*
X036105Y018827D01*
X036047Y018769D01*
X036047Y018477D02*
X036280Y018477D01*
X036353Y018427D02*
X036353Y018252D01*
X036412Y018193D01*
X036470Y018193D01*
X036529Y018252D01*
X036529Y018369D01*
X036470Y018427D01*
X036353Y018427D01*
X036237Y018310D01*
X036178Y018193D01*
X036353Y018059D02*
X036353Y017825D01*
X036178Y017884D02*
X036353Y018059D01*
X036178Y017884D02*
X036529Y017884D01*
X038379Y018035D02*
X038379Y018152D01*
X038437Y018210D01*
X038495Y018210D01*
X038554Y018152D01*
X038554Y017977D01*
X038437Y017977D01*
X038379Y018035D01*
X038554Y017977D02*
X038670Y018094D01*
X038729Y018210D01*
X038670Y018345D02*
X038729Y018404D01*
X038729Y018520D01*
X038670Y018579D01*
X038612Y018579D01*
X038554Y018520D01*
X038495Y018579D01*
X038437Y018579D01*
X038379Y018520D01*
X038379Y018404D01*
X038437Y018345D01*
X038554Y018462D02*
X038554Y018520D01*
X038554Y016579D02*
X038554Y016404D01*
X038612Y016345D01*
X038670Y016345D01*
X038729Y016404D01*
X038729Y016520D01*
X038670Y016579D01*
X038437Y016579D01*
X038379Y016520D01*
X038379Y016404D01*
X038437Y016345D01*
X038437Y016210D02*
X038379Y016152D01*
X038379Y016035D01*
X038437Y015977D01*
X038554Y015977D02*
X038612Y016094D01*
X038612Y016152D01*
X038554Y016210D01*
X038437Y016210D01*
X038554Y015977D02*
X038729Y015977D01*
X038729Y016210D01*
X036529Y016100D02*
X036470Y016159D01*
X036237Y015925D01*
X036470Y015925D01*
X036529Y015984D01*
X036529Y016100D01*
X036470Y016159D02*
X036237Y016159D01*
X036178Y016100D01*
X036178Y015984D01*
X036237Y015925D01*
X036178Y016293D02*
X036237Y016410D01*
X036353Y016527D01*
X036353Y016352D01*
X036412Y016293D01*
X036470Y016293D01*
X036529Y016352D01*
X036529Y016469D01*
X036470Y016527D01*
X036353Y016527D01*
X036070Y020677D02*
X035953Y020677D01*
X035895Y020735D01*
X035895Y020794D01*
X035953Y020852D01*
X036129Y020852D01*
X036129Y020735D01*
X036070Y020677D01*
X036129Y020852D02*
X036012Y020969D01*
X035895Y021027D01*
X035760Y020852D02*
X035644Y020969D01*
X035527Y021027D01*
X035585Y020852D02*
X035760Y020852D01*
X035760Y020735D01*
X035702Y020677D01*
X035585Y020677D01*
X035527Y020735D01*
X035527Y020794D01*
X035585Y020852D01*
X034229Y020735D02*
X034229Y020677D01*
X034229Y020735D02*
X033995Y020969D01*
X033995Y021027D01*
X034229Y021027D01*
X033860Y020969D02*
X033860Y020735D01*
X033627Y020969D01*
X033627Y020735D01*
X033685Y020677D01*
X033802Y020677D01*
X033860Y020735D01*
X033860Y020969D02*
X033802Y021027D01*
X033685Y021027D01*
X033627Y020969D01*
X023729Y012752D02*
X023553Y012927D01*
X023553Y012577D01*
X023495Y012752D02*
X023729Y012752D01*
X023360Y012635D02*
X023127Y012869D01*
X023127Y012635D01*
X023185Y012577D01*
X023302Y012577D01*
X023360Y012635D01*
X023360Y012869D01*
X023302Y012927D01*
X023185Y012927D01*
X023127Y012869D01*
X022529Y011127D02*
X022353Y011127D01*
X022295Y011069D01*
X022295Y010952D01*
X022353Y010894D01*
X022529Y010894D01*
X022529Y010777D02*
X022529Y011127D01*
X022160Y011010D02*
X022044Y011127D01*
X022044Y010777D01*
X022160Y010777D02*
X021927Y010777D01*
X022512Y010469D02*
X022512Y010235D01*
X020429Y010235D02*
X020370Y010177D01*
X020253Y010177D01*
X020195Y010235D01*
X020195Y010352D01*
X020312Y010352D01*
X020429Y010469D02*
X020429Y010235D01*
X020429Y010469D02*
X020370Y010527D01*
X020253Y010527D01*
X020195Y010469D01*
X020060Y010527D02*
X019827Y010177D01*
X019827Y010527D01*
X019692Y010527D02*
X019517Y010527D01*
X019458Y010469D01*
X019458Y010235D01*
X019517Y010177D01*
X019692Y010177D01*
X019692Y010527D01*
X020060Y010527D02*
X020060Y010177D01*
X020060Y009927D02*
X019827Y009577D01*
X019827Y009927D01*
X020060Y009927D02*
X020060Y009577D01*
X020195Y009635D02*
X020195Y009752D01*
X020312Y009752D01*
X020429Y009635D02*
X020370Y009577D01*
X020253Y009577D01*
X020195Y009635D01*
X020429Y009635D02*
X020429Y009869D01*
X020370Y009927D01*
X020253Y009927D01*
X020195Y009869D01*
X019407Y008727D02*
X019407Y008377D01*
X019524Y008377D02*
X019290Y008377D01*
X019524Y008610D02*
X019407Y008727D01*
X027627Y010235D02*
X027627Y010469D01*
X027685Y010527D01*
X027802Y010527D01*
X027860Y010469D01*
X027860Y010410D01*
X027802Y010352D01*
X027627Y010352D01*
X027627Y010235D02*
X027685Y010177D01*
X027802Y010177D01*
X027860Y010235D01*
X027995Y010469D02*
X028229Y010235D01*
X028229Y010177D01*
X028229Y010527D02*
X027995Y010527D01*
X027995Y010469D01*
X029063Y010735D02*
X029063Y010794D01*
X029122Y010852D01*
X029297Y010852D01*
X029297Y010735D01*
X029239Y010677D01*
X029122Y010677D01*
X029063Y010735D01*
X029180Y010969D02*
X029297Y010852D01*
X029180Y010969D02*
X029063Y011027D01*
X029180Y010427D02*
X029180Y010077D01*
X029297Y010077D02*
X029063Y010077D01*
X029122Y009827D02*
X029063Y009769D01*
X029063Y009710D01*
X029122Y009652D01*
X029063Y009594D01*
X029063Y009535D01*
X029122Y009477D01*
X029122Y009652D02*
X029180Y009652D01*
X029297Y009769D02*
X029239Y009827D01*
X029122Y009827D01*
X029432Y010077D02*
X029665Y010077D01*
X029297Y010310D02*
X029180Y010427D01*
X036178Y010984D02*
X036237Y010925D01*
X036470Y011159D01*
X036529Y011100D01*
X036529Y010984D01*
X036470Y010925D01*
X036237Y010925D01*
X036178Y010984D02*
X036178Y011100D01*
X036237Y011159D01*
X036470Y011159D01*
X036470Y011293D02*
X036353Y011293D01*
X036295Y011352D01*
X036295Y011410D01*
X036353Y011527D01*
X036178Y011527D01*
X036178Y011293D01*
X036470Y011293D02*
X036529Y011352D01*
X036529Y011469D01*
X036470Y011527D01*
X038379Y011520D02*
X038437Y011579D01*
X038670Y011579D01*
X038729Y011520D01*
X038729Y011404D01*
X038670Y011345D01*
X038612Y011345D01*
X038554Y011404D01*
X038554Y011579D01*
X038379Y011520D02*
X038379Y011404D01*
X038437Y011345D01*
X038554Y011210D02*
X038554Y010977D01*
X038729Y011152D01*
X038379Y011152D01*
D11*
X010954Y005252D02*
X008954Y005252D01*
X008954Y006452D01*
X012954Y006452D01*
X012954Y007052D01*
X008954Y007052D01*
X008954Y006452D01*
X008954Y005852D02*
X012954Y005852D01*
X012954Y006452D01*
X012954Y005852D02*
X012954Y005252D01*
X010954Y005252D01*
X010954Y014852D01*
X008954Y014852D01*
X008954Y014252D01*
X008954Y013652D01*
X012954Y013652D01*
X012954Y014252D01*
X008954Y014252D01*
X008954Y013652D02*
X008954Y013052D01*
X012954Y013052D01*
X012954Y013652D01*
X012954Y014252D02*
X012954Y014852D01*
X010954Y014852D01*
X012954Y013052D02*
X012954Y012452D01*
X008954Y012452D01*
X008954Y011852D01*
X012954Y011852D01*
X012954Y012452D01*
X012954Y011852D02*
X012954Y011252D01*
X008954Y011252D01*
X008954Y010652D01*
X012954Y010652D01*
X012954Y011252D01*
X012954Y010652D02*
X012954Y010052D01*
X008954Y010052D01*
X008954Y009452D01*
X012954Y009452D01*
X012954Y010052D01*
X012954Y009452D02*
X012954Y008852D01*
X008954Y008852D01*
X008954Y008252D01*
X012954Y008252D01*
X012954Y008852D01*
X012954Y008252D02*
X012954Y007652D01*
X008954Y007652D01*
X008954Y007052D01*
X008954Y007652D02*
X008954Y008252D01*
X008954Y008852D02*
X008954Y009452D01*
X008954Y010052D02*
X008954Y010652D01*
X008954Y011252D02*
X008954Y011852D01*
X008954Y012452D02*
X008954Y013052D01*
X012954Y007652D02*
X012954Y007052D01*
X018954Y007052D02*
X018954Y006452D01*
X022954Y006452D01*
X022954Y007052D01*
X018954Y007052D01*
X018954Y007652D01*
X022954Y007652D01*
X022954Y008252D01*
X018954Y008252D01*
X018954Y007652D01*
X018954Y008252D02*
X018954Y008852D01*
X022954Y008852D01*
X022954Y009452D01*
X018954Y009452D01*
X018954Y008852D01*
X018954Y009452D02*
X018954Y010052D01*
X022954Y010052D01*
X022954Y010652D01*
X018954Y010652D01*
X018954Y010052D01*
X018954Y010652D02*
X018954Y011252D01*
X022954Y011252D01*
X022954Y011852D01*
X018954Y011852D01*
X018954Y011252D01*
X018954Y011852D02*
X018954Y012452D01*
X022954Y012452D01*
X022954Y013052D01*
X018954Y013052D01*
X018954Y012452D01*
X018954Y013052D02*
X018954Y013652D01*
X018954Y014252D01*
X022954Y014252D01*
X022954Y014852D01*
X020954Y014852D01*
X020954Y005252D01*
X022954Y005252D01*
X022954Y005852D01*
X018954Y005852D01*
X018954Y006452D02*
X018954Y005252D01*
X020954Y005252D01*
X022954Y005852D02*
X022954Y006452D01*
X022954Y007052D02*
X022954Y007652D01*
X022954Y008252D02*
X022954Y008852D01*
X022954Y009452D02*
X022954Y010052D01*
X022954Y010652D02*
X022954Y011252D01*
X022954Y011852D02*
X022954Y012452D01*
X022954Y013052D02*
X022954Y013652D01*
X018954Y013652D01*
X018954Y014252D02*
X018954Y014852D01*
X020954Y014852D01*
X022954Y014252D02*
X022954Y013652D01*
X028454Y013552D02*
X028454Y012952D01*
X032454Y012952D01*
X032454Y013552D01*
X028454Y013552D01*
X028454Y014152D01*
X032454Y014152D01*
X032454Y013552D02*
X032454Y014752D01*
X030454Y014752D01*
X030454Y005152D01*
X032454Y005152D01*
X032454Y005752D01*
X032454Y006352D01*
X028454Y006352D01*
X028454Y005752D01*
X032454Y005752D01*
X032454Y006352D02*
X032454Y006952D01*
X028454Y006952D01*
X028454Y006352D01*
X028454Y006952D02*
X028454Y007552D01*
X032454Y007552D01*
X032454Y008152D01*
X028454Y008152D01*
X028454Y007552D01*
X028454Y008152D02*
X028454Y008752D01*
X032454Y008752D01*
X032454Y009352D01*
X028454Y009352D01*
X028454Y008752D01*
X028454Y009352D02*
X028454Y009952D01*
X032454Y009952D01*
X032454Y010552D01*
X028454Y010552D01*
X028454Y009952D01*
X028454Y010552D02*
X028454Y011152D01*
X032454Y011152D01*
X032454Y011752D01*
X028454Y011752D01*
X028454Y011152D01*
X028454Y011752D02*
X028454Y012352D01*
X032454Y012352D01*
X032454Y012952D01*
X032454Y012352D02*
X032454Y011752D01*
X032454Y011152D02*
X032454Y010552D01*
X032454Y009952D02*
X032454Y009352D01*
X032454Y008752D02*
X032454Y008152D01*
X032454Y007552D02*
X032454Y006952D01*
X030454Y005152D02*
X028454Y005152D01*
X028454Y005752D01*
X028454Y012352D02*
X028454Y012952D01*
X028454Y014152D02*
X028454Y014752D01*
X030454Y014752D01*
D12*
X030503Y015282D02*
X030503Y015722D01*
X030209Y015282D01*
X030209Y015722D01*
X030042Y015722D02*
X030042Y015282D01*
X030042Y015429D02*
X029749Y015722D01*
X029582Y015649D02*
X029509Y015722D01*
X029362Y015722D01*
X029289Y015649D01*
X029289Y015576D01*
X029362Y015502D01*
X029289Y015429D01*
X029289Y015355D01*
X029362Y015282D01*
X029509Y015282D01*
X029582Y015355D01*
X029749Y015282D02*
X029969Y015502D01*
X029435Y015502D02*
X029362Y015502D01*
X030670Y015502D02*
X030963Y015502D01*
X030963Y015576D02*
X030816Y015722D01*
X030670Y015576D01*
X030670Y015282D01*
X030963Y015282D02*
X030963Y015576D01*
X031130Y015576D02*
X031203Y015502D01*
X031424Y015502D01*
X031424Y015282D02*
X031203Y015282D01*
X031130Y015355D01*
X031130Y015429D01*
X031203Y015502D01*
X031130Y015576D02*
X031130Y015649D01*
X031203Y015722D01*
X031424Y015722D01*
X031424Y015282D01*
X029545Y017782D02*
X029619Y017855D01*
X029619Y017928D01*
X029545Y018002D01*
X029619Y018075D01*
X029619Y018149D01*
X029545Y018222D01*
X029398Y018222D01*
X029325Y018149D01*
X029158Y018222D02*
X028938Y018002D01*
X028865Y018075D02*
X029158Y017782D01*
X029325Y017855D02*
X029398Y017782D01*
X029545Y017782D01*
X029545Y018002D02*
X029472Y018002D01*
X028865Y017782D02*
X028865Y018222D01*
X028698Y018222D02*
X028698Y017782D01*
X028404Y017782D02*
X028698Y018222D01*
X028404Y018222D02*
X028404Y017782D01*
X028237Y017928D02*
X028237Y018222D01*
X028237Y018002D02*
X027944Y018002D01*
X027944Y017928D02*
X028091Y017782D01*
X028237Y017928D01*
X027944Y017928D02*
X027944Y018222D01*
X027777Y018149D02*
X027704Y018222D01*
X027484Y018222D01*
X027484Y017782D01*
X027704Y017782D01*
X027777Y017855D01*
X027777Y017928D01*
X027704Y018002D01*
X027484Y018002D01*
X027704Y018002D02*
X027777Y018075D01*
X027777Y018149D01*
X021924Y015722D02*
X021924Y015282D01*
X021703Y015282D01*
X021630Y015355D01*
X021630Y015429D01*
X021703Y015502D01*
X021924Y015502D01*
X021924Y015722D02*
X021703Y015722D01*
X021630Y015649D01*
X021630Y015576D01*
X021703Y015502D01*
X021463Y015502D02*
X021170Y015502D01*
X021170Y015576D02*
X021170Y015282D01*
X021003Y015282D02*
X021003Y015722D01*
X020709Y015282D01*
X020709Y015722D01*
X020542Y015722D02*
X020542Y015282D01*
X020542Y015429D02*
X020249Y015722D01*
X020082Y015649D02*
X020009Y015722D01*
X019862Y015722D01*
X019789Y015649D01*
X020082Y015355D01*
X020009Y015282D01*
X019862Y015282D01*
X019789Y015355D01*
X019789Y015649D01*
X020082Y015649D02*
X020082Y015355D01*
X020249Y015282D02*
X020469Y015502D01*
X021170Y015576D02*
X021316Y015722D01*
X021463Y015576D01*
X021463Y015282D01*
X011924Y015282D02*
X011703Y015282D01*
X011630Y015355D01*
X011630Y015429D01*
X011703Y015502D01*
X011924Y015502D01*
X011924Y015282D02*
X011924Y015722D01*
X011703Y015722D01*
X011630Y015649D01*
X011630Y015576D01*
X011703Y015502D01*
X011463Y015502D02*
X011170Y015502D01*
X011170Y015576D02*
X011170Y015282D01*
X011003Y015282D02*
X011003Y015722D01*
X010709Y015282D01*
X010709Y015722D01*
X010542Y015722D02*
X010542Y015282D01*
X010542Y015429D02*
X010249Y015722D01*
X010082Y015576D02*
X009935Y015722D01*
X009935Y015282D01*
X009789Y015282D02*
X010082Y015282D01*
X010249Y015282D02*
X010469Y015502D01*
X011170Y015576D02*
X011316Y015722D01*
X011463Y015576D01*
X011463Y015282D01*
X026935Y003722D02*
X026935Y003282D01*
X026789Y003282D02*
X027082Y003282D01*
X027249Y003282D02*
X027469Y003502D01*
X027542Y003429D02*
X027249Y003722D01*
X027082Y003576D02*
X026935Y003722D01*
X027542Y003722D02*
X027542Y003282D01*
X027709Y003282D02*
X027709Y003722D01*
X028003Y003722D02*
X027709Y003282D01*
X028003Y003282D02*
X028003Y003722D01*
X028170Y003576D02*
X028170Y003282D01*
X028170Y003502D02*
X028463Y003502D01*
X028463Y003576D02*
X028316Y003722D01*
X028170Y003576D01*
X028463Y003576D02*
X028463Y003282D01*
X028630Y003355D02*
X028703Y003282D01*
X028924Y003282D01*
X028924Y003722D01*
X028703Y003722D01*
X028630Y003649D01*
X028630Y003576D01*
X028703Y003502D01*
X028924Y003502D01*
X028703Y003502D02*
X028630Y003429D01*
X028630Y003355D01*
X035483Y009660D02*
X035557Y009587D01*
X035850Y009881D01*
X035924Y009807D01*
X035924Y009660D01*
X035850Y009587D01*
X035557Y009587D01*
X035483Y009660D02*
X035483Y009807D01*
X035557Y009881D01*
X035850Y009881D01*
X035924Y010047D02*
X035703Y010268D01*
X035777Y010341D02*
X035483Y010047D01*
X035483Y010341D02*
X035924Y010341D01*
X035924Y010508D02*
X035483Y010508D01*
X035483Y010801D02*
X035924Y010508D01*
X035924Y010801D02*
X035483Y010801D01*
X035630Y010968D02*
X035924Y010968D01*
X035703Y010968D02*
X035703Y011262D01*
X035630Y011262D02*
X035924Y011262D01*
X035850Y011428D02*
X035924Y011502D01*
X035924Y011722D01*
X035483Y011722D01*
X035483Y011502D01*
X035557Y011428D01*
X035630Y011428D01*
X035703Y011502D01*
X035703Y011722D01*
X035703Y011502D02*
X035777Y011428D01*
X035850Y011428D01*
X035630Y011262D02*
X035483Y011115D01*
X035630Y010968D01*
D13*
X018393Y017904D02*
X017778Y019036D01*
X017729Y019036D01*
X017114Y017904D01*
X017163Y017855D01*
X018344Y017855D01*
X018393Y017904D01*
D14*
X016739Y017752D02*
X016615Y017752D01*
X016493Y017814D02*
X016493Y017629D01*
X016431Y017567D01*
X016246Y017567D01*
X016246Y017814D01*
X016125Y017937D02*
X016063Y017937D01*
X016063Y017567D01*
X016125Y017567D02*
X016001Y017567D01*
X015879Y017567D02*
X015756Y017567D01*
X015818Y017567D02*
X015818Y017937D01*
X015879Y017937D01*
X016002Y018067D02*
X016002Y018314D01*
X015817Y018314D01*
X015755Y018252D01*
X015755Y018067D01*
X015634Y018129D02*
X015572Y018067D01*
X015387Y018067D01*
X015387Y018005D02*
X015387Y018314D01*
X015572Y018314D01*
X015634Y018252D01*
X015634Y018129D01*
X015510Y017944D02*
X015448Y017944D01*
X015387Y018005D01*
X015326Y017999D02*
X015326Y017937D01*
X015326Y017814D02*
X015326Y017567D01*
X015265Y017567D02*
X015388Y017567D01*
X015572Y017567D02*
X015572Y017876D01*
X015510Y017937D01*
X015388Y017814D02*
X015326Y017814D01*
X015510Y017752D02*
X015634Y017752D01*
X015143Y017567D02*
X015019Y017567D01*
X015081Y017567D02*
X015081Y017937D01*
X015143Y017937D01*
X015204Y018067D02*
X015265Y018129D01*
X015265Y018252D01*
X015204Y018314D01*
X015080Y018314D01*
X015018Y018252D01*
X015018Y018190D01*
X015265Y018190D01*
X015204Y018067D02*
X015080Y018067D01*
X014897Y018067D02*
X014897Y018314D01*
X014774Y018314D02*
X014897Y018190D01*
X014774Y018314D02*
X014712Y018314D01*
X014590Y018252D02*
X014528Y018314D01*
X014405Y018314D01*
X014343Y018252D01*
X014343Y018129D01*
X014405Y018067D01*
X014528Y018067D01*
X014590Y018129D01*
X014590Y018252D01*
X014222Y018314D02*
X014222Y018129D01*
X014160Y018067D01*
X013975Y018067D01*
X013975Y018314D01*
X013854Y018252D02*
X013792Y018314D01*
X013607Y018314D01*
X013668Y018190D02*
X013792Y018190D01*
X013854Y018252D01*
X013854Y018067D02*
X013668Y018067D01*
X013607Y018129D01*
X013668Y018190D01*
X013485Y018190D02*
X013300Y018190D01*
X013238Y018252D01*
X013238Y018376D01*
X013300Y018437D01*
X013485Y018437D01*
X013485Y018067D01*
X013485Y017876D02*
X013485Y017629D01*
X013423Y017567D01*
X013300Y017437D02*
X013300Y017067D01*
X013485Y017067D01*
X013547Y017129D01*
X013547Y017252D01*
X013485Y017314D01*
X013300Y017314D01*
X013178Y017314D02*
X013117Y017314D01*
X013117Y017067D01*
X013178Y017067D02*
X013055Y017067D01*
X012933Y017129D02*
X012871Y017067D01*
X012748Y017067D01*
X012686Y017129D01*
X012686Y017252D01*
X012748Y017314D01*
X012871Y017314D01*
X012933Y017252D01*
X012933Y017129D01*
X012994Y016814D02*
X012994Y016629D01*
X012932Y016567D01*
X012747Y016567D01*
X012747Y016814D01*
X012626Y016752D02*
X012564Y016814D01*
X012379Y016814D01*
X012258Y016814D02*
X012196Y016814D01*
X012196Y016567D01*
X012258Y016567D02*
X012134Y016567D01*
X012012Y016629D02*
X011950Y016567D01*
X011827Y016567D01*
X011765Y016629D01*
X011765Y016752D01*
X011827Y016814D01*
X011950Y016814D01*
X012012Y016752D01*
X012012Y016629D01*
X012196Y016937D02*
X012196Y016999D01*
X012379Y016937D02*
X012379Y016567D01*
X012564Y016567D01*
X012626Y016629D01*
X012626Y016752D01*
X013116Y016814D02*
X013240Y016814D01*
X013178Y016876D02*
X013178Y016629D01*
X013116Y016567D01*
X013361Y016629D02*
X013423Y016690D01*
X013546Y016690D01*
X013608Y016752D01*
X013546Y016814D01*
X013361Y016814D01*
X013361Y016629D02*
X013423Y016567D01*
X013608Y016567D01*
X013729Y016567D02*
X013729Y016937D01*
X013729Y016814D02*
X013915Y016814D01*
X013976Y016752D01*
X013976Y016629D01*
X013915Y016567D01*
X013729Y016567D01*
X014098Y016690D02*
X014345Y016690D01*
X014345Y016629D02*
X014345Y016752D01*
X014283Y016814D01*
X014159Y016814D01*
X014098Y016752D01*
X014098Y016690D01*
X014159Y016567D02*
X014283Y016567D01*
X014345Y016629D01*
X014466Y016690D02*
X014713Y016690D01*
X014713Y016629D02*
X014713Y016752D01*
X014651Y016814D01*
X014528Y016814D01*
X014466Y016752D01*
X014466Y016690D01*
X014528Y016567D02*
X014651Y016567D01*
X014713Y016629D01*
X014834Y016690D02*
X015081Y016690D01*
X015081Y016629D02*
X015081Y016752D01*
X015019Y016814D01*
X014896Y016814D01*
X014834Y016752D01*
X014834Y016690D01*
X014896Y016567D02*
X015019Y016567D01*
X015081Y016629D01*
X015203Y016629D02*
X015264Y016690D01*
X015388Y016690D01*
X015449Y016752D01*
X015388Y016814D01*
X015203Y016814D01*
X015203Y016629D02*
X015264Y016567D01*
X015449Y016567D01*
X015572Y016567D02*
X015634Y016567D01*
X015634Y016629D01*
X015572Y016629D01*
X015572Y016567D01*
X015755Y016629D02*
X015755Y016814D01*
X015755Y016629D02*
X015817Y016567D01*
X015879Y016629D01*
X015940Y016567D01*
X016002Y016629D01*
X016002Y016814D01*
X016123Y016814D02*
X016123Y016629D01*
X016185Y016567D01*
X016247Y016629D01*
X016309Y016567D01*
X016370Y016629D01*
X016370Y016814D01*
X016492Y016814D02*
X016492Y016629D01*
X016553Y016567D01*
X016615Y016629D01*
X016677Y016567D01*
X016739Y016629D01*
X016739Y016814D01*
X016677Y017067D02*
X016739Y017129D01*
X016677Y017067D02*
X016553Y017067D01*
X016492Y017129D01*
X016492Y017190D01*
X016553Y017252D01*
X016677Y017252D01*
X016739Y017314D01*
X016739Y017376D01*
X016677Y017437D01*
X016553Y017437D01*
X016492Y017376D01*
X016370Y017252D02*
X016370Y017129D01*
X016309Y017067D01*
X016185Y017067D01*
X016123Y017190D02*
X016370Y017190D01*
X016370Y017252D02*
X016309Y017314D01*
X016185Y017314D01*
X016123Y017252D01*
X016123Y017190D01*
X016002Y017190D02*
X015755Y017190D01*
X015755Y017252D01*
X015817Y017314D01*
X015940Y017314D01*
X016002Y017252D01*
X016002Y017129D01*
X015940Y017067D01*
X015817Y017067D01*
X015634Y017129D02*
X015634Y017252D01*
X015572Y017314D01*
X015448Y017314D01*
X015387Y017252D01*
X015387Y017190D01*
X015634Y017190D01*
X015634Y017129D02*
X015572Y017067D01*
X015448Y017067D01*
X015265Y017129D02*
X015265Y017252D01*
X015204Y017314D01*
X015018Y017314D01*
X015018Y017437D02*
X015018Y017067D01*
X015204Y017067D01*
X015265Y017129D01*
X014529Y017067D02*
X014344Y017067D01*
X014282Y017129D01*
X014344Y017190D01*
X014467Y017190D01*
X014529Y017252D01*
X014467Y017314D01*
X014282Y017314D01*
X014160Y017314D02*
X014037Y017314D01*
X014099Y017376D02*
X014099Y017129D01*
X014037Y017067D01*
X013915Y017129D02*
X013853Y017067D01*
X013668Y017067D01*
X013668Y017314D01*
X013915Y017314D02*
X013915Y017129D01*
X013915Y017567D02*
X013915Y017814D01*
X013730Y017814D01*
X013668Y017752D01*
X013668Y017567D01*
X013547Y017814D02*
X013423Y017814D01*
X013117Y017499D02*
X013117Y017437D01*
X012933Y017567D02*
X012748Y017567D01*
X012686Y017629D01*
X012686Y017752D01*
X012748Y017814D01*
X012933Y017814D01*
X012933Y017937D02*
X012933Y017567D01*
X012565Y017629D02*
X012565Y017814D01*
X012565Y017629D02*
X012503Y017567D01*
X012318Y017567D01*
X012318Y017505D02*
X012379Y017444D01*
X012441Y017444D01*
X012318Y017505D02*
X012318Y017814D01*
X012318Y018067D02*
X012380Y018129D01*
X012380Y018376D01*
X012442Y018314D02*
X012318Y018314D01*
X012196Y018252D02*
X012196Y018129D01*
X012134Y018067D01*
X012011Y018067D01*
X011949Y018129D01*
X011949Y018252D01*
X012011Y018314D01*
X012134Y018314D01*
X012196Y018252D01*
X012563Y018252D02*
X012625Y018314D01*
X012748Y018314D01*
X012810Y018252D01*
X012810Y018129D01*
X012748Y018067D01*
X012625Y018067D01*
X012563Y018129D01*
X012563Y018252D01*
X012932Y018314D02*
X012993Y018314D01*
X013117Y018190D01*
X013117Y018067D02*
X013117Y018314D01*
X014036Y017752D02*
X014036Y017690D01*
X014283Y017690D01*
X014283Y017629D02*
X014283Y017752D01*
X014222Y017814D01*
X014098Y017814D01*
X014036Y017752D01*
X014098Y017567D02*
X014222Y017567D01*
X014283Y017629D01*
X014405Y017567D02*
X014405Y017752D01*
X014466Y017814D01*
X014528Y017752D01*
X014528Y017567D01*
X014652Y017567D02*
X014652Y017814D01*
X014590Y017814D01*
X014528Y017752D01*
X014774Y017567D02*
X014897Y017567D01*
X014835Y017567D02*
X014835Y017937D01*
X014897Y017937D01*
X015879Y018444D02*
X015879Y018814D01*
X015694Y018814D01*
X015632Y018752D01*
X015632Y018629D01*
X015694Y018567D01*
X015879Y018567D01*
X016001Y018567D02*
X016063Y018629D01*
X016063Y018876D01*
X016125Y018814D02*
X016001Y018814D01*
X016247Y018814D02*
X016370Y018814D01*
X016309Y018876D02*
X016309Y018629D01*
X016247Y018567D01*
X016492Y018567D02*
X016492Y018752D01*
X016553Y018814D01*
X016677Y018814D01*
X016739Y018752D01*
X016739Y018937D02*
X016739Y018567D01*
X016739Y018437D02*
X016553Y018437D01*
X016492Y018376D01*
X016492Y018129D01*
X016553Y018067D01*
X016739Y018067D01*
X016739Y018437D01*
X016309Y018314D02*
X016185Y018314D01*
X016123Y018252D01*
X016123Y018067D01*
X016309Y018067D01*
X016370Y018129D01*
X016309Y018190D01*
X016123Y018190D01*
X016615Y017937D02*
X016677Y017876D01*
X016677Y017567D01*
X015511Y018567D02*
X015511Y018629D01*
X015449Y018629D01*
X015449Y018567D01*
X015511Y018567D01*
X015327Y018567D02*
X015080Y018937D01*
X015142Y019067D02*
X015142Y019252D01*
X015018Y019376D01*
X015018Y019437D01*
X014897Y019567D02*
X014897Y019814D01*
X014774Y019937D01*
X014650Y019814D01*
X014650Y019567D01*
X014529Y019567D02*
X014529Y019937D01*
X014282Y019567D01*
X014282Y019937D01*
X014160Y019752D02*
X013975Y019752D01*
X013914Y019690D01*
X013914Y019629D01*
X013975Y019567D01*
X014099Y019567D01*
X014160Y019629D01*
X014160Y019752D01*
X014037Y019876D01*
X013914Y019937D01*
X013792Y019752D02*
X013545Y019752D01*
X013424Y019567D02*
X013177Y019567D01*
X013055Y019567D02*
X012809Y019937D01*
X012687Y019876D02*
X012687Y019814D01*
X012625Y019752D01*
X012440Y019752D01*
X012440Y019629D02*
X012440Y019876D01*
X012502Y019937D01*
X012625Y019937D01*
X012687Y019876D01*
X012687Y019629D02*
X012625Y019567D01*
X012502Y019567D01*
X012440Y019629D01*
X012809Y019567D02*
X013055Y019937D01*
X013424Y019937D02*
X013424Y019567D01*
X013914Y019314D02*
X013914Y019067D01*
X013914Y019252D02*
X014160Y019252D01*
X014160Y019314D02*
X014037Y019437D01*
X013914Y019314D01*
X014160Y019314D02*
X014160Y019067D01*
X014282Y019129D02*
X014344Y019067D01*
X014467Y019067D01*
X014529Y019129D01*
X014467Y019252D02*
X014344Y019252D01*
X014282Y019190D01*
X014282Y019129D01*
X014467Y019252D02*
X014529Y019314D01*
X014529Y019376D01*
X014467Y019437D01*
X014344Y019437D01*
X014282Y019376D01*
X014650Y019252D02*
X014897Y019252D01*
X015142Y019252D02*
X015265Y019376D01*
X015265Y019437D01*
X015387Y019376D02*
X015387Y019314D01*
X015448Y019252D01*
X015634Y019252D01*
X015755Y019252D02*
X016002Y019252D01*
X016123Y019129D02*
X016185Y019067D01*
X016309Y019067D01*
X016370Y019129D01*
X016370Y019376D01*
X016309Y019437D01*
X016185Y019437D01*
X016123Y019376D01*
X016002Y019567D02*
X016002Y019814D01*
X015879Y019937D01*
X015755Y019814D01*
X015755Y019567D01*
X015634Y019567D02*
X015634Y019937D01*
X015448Y019937D01*
X015387Y019876D01*
X015387Y019752D01*
X015448Y019690D01*
X015634Y019690D01*
X015510Y019690D02*
X015387Y019567D01*
X015448Y019437D02*
X015387Y019376D01*
X015448Y019437D02*
X015634Y019437D01*
X015634Y019067D01*
X015448Y019067D01*
X015387Y019129D01*
X015387Y019190D01*
X015448Y019252D01*
X015142Y019567D02*
X015142Y019937D01*
X015265Y019937D02*
X015018Y019937D01*
X014897Y019752D02*
X014650Y019752D01*
X014712Y018937D02*
X014958Y018567D01*
X015449Y018752D02*
X015511Y018752D01*
X015511Y018814D01*
X015449Y018814D01*
X015449Y018752D01*
X016492Y019129D02*
X016553Y019067D01*
X016677Y019067D01*
X016739Y019129D01*
X016739Y019376D01*
X016677Y019437D01*
X016553Y019437D01*
X016492Y019376D01*
X016553Y019567D02*
X016677Y019567D01*
X016739Y019629D01*
X016677Y019752D02*
X016553Y019752D01*
X016492Y019690D01*
X016492Y019629D01*
X016553Y019567D01*
X016370Y019567D02*
X016370Y019937D01*
X016185Y019937D01*
X016123Y019876D01*
X016123Y019752D01*
X016185Y019690D01*
X016370Y019690D01*
X016492Y019876D02*
X016553Y019937D01*
X016677Y019937D01*
X016739Y019876D01*
X016739Y019814D01*
X016677Y019752D01*
X016002Y019752D02*
X015755Y019752D01*
X011951Y019567D02*
X011765Y019567D01*
X011704Y019629D01*
X011704Y019876D01*
X011765Y019937D01*
X011951Y019937D01*
X011951Y019567D01*
X011582Y019567D02*
X011335Y019567D01*
X011214Y019690D02*
X011091Y019567D01*
X010967Y019690D01*
X010967Y019937D01*
X011214Y019937D02*
X011214Y019690D01*
X011459Y019752D02*
X011582Y019752D01*
X011582Y019937D02*
X011582Y019567D01*
X011582Y019937D02*
X011335Y019937D01*
X010477Y019937D02*
X010477Y019567D01*
X010292Y019567D01*
X010230Y019629D01*
X010230Y019690D01*
X010292Y019752D01*
X010477Y019752D01*
X010292Y019752D02*
X010230Y019814D01*
X010230Y019876D01*
X010292Y019937D01*
X010477Y019937D01*
X010109Y019876D02*
X010109Y019629D01*
X010047Y019567D01*
X009924Y019567D01*
X009862Y019629D01*
X009862Y019876D01*
X009924Y019937D01*
X010047Y019937D01*
X010109Y019876D01*
X009741Y019814D02*
X009617Y019937D01*
X009494Y019814D01*
X009494Y019567D01*
X009372Y019567D02*
X009372Y019937D01*
X009187Y019937D01*
X009126Y019876D01*
X009126Y019752D01*
X009187Y019690D01*
X009372Y019690D01*
X009249Y019690D02*
X009126Y019567D01*
X009004Y019567D02*
X008819Y019567D01*
X008757Y019629D01*
X008757Y019876D01*
X008819Y019937D01*
X009004Y019937D01*
X009004Y019567D01*
X009494Y019752D02*
X009741Y019752D01*
X009741Y019814D02*
X009741Y019567D01*
X009678Y018314D02*
X009863Y018314D01*
X009925Y018252D01*
X009925Y018129D01*
X009863Y018067D01*
X009678Y018067D01*
X009557Y018129D02*
X009495Y018067D01*
X009372Y018067D01*
X009310Y018129D01*
X009310Y018252D01*
X009372Y018314D01*
X009495Y018314D01*
X009557Y018252D01*
X009557Y018129D01*
X009188Y018067D02*
X009188Y018314D01*
X009127Y018314D01*
X009065Y018252D01*
X009003Y018314D01*
X008942Y018252D01*
X008942Y018067D01*
X009065Y018067D02*
X009065Y018252D01*
X010047Y018129D02*
X010047Y018067D01*
X010109Y018067D01*
X010109Y018129D01*
X010047Y018129D01*
X010231Y018129D02*
X010292Y018190D01*
X010416Y018190D01*
X010477Y018252D01*
X010416Y018314D01*
X010231Y018314D01*
X010231Y018129D02*
X010292Y018067D01*
X010477Y018067D01*
X010599Y018190D02*
X010846Y018190D01*
X010846Y018129D02*
X010846Y018252D01*
X010784Y018314D01*
X010661Y018314D01*
X010599Y018252D01*
X010599Y018190D01*
X010661Y018067D02*
X010784Y018067D01*
X010846Y018129D01*
X010967Y018129D02*
X011029Y018067D01*
X011214Y018067D01*
X011336Y018067D02*
X011521Y018067D01*
X011582Y018129D01*
X011582Y018314D01*
X011704Y018314D02*
X011828Y018314D01*
X011766Y018376D02*
X011766Y018129D01*
X011704Y018067D01*
X011459Y017944D02*
X011397Y017944D01*
X011336Y018005D01*
X011336Y018314D01*
X011214Y018314D02*
X011029Y018314D01*
X010967Y018252D01*
X010967Y018129D01*
X011214Y017944D02*
X011214Y018314D01*
X011213Y016814D02*
X011398Y016814D01*
X011460Y016752D01*
X011460Y016629D01*
X011398Y016567D01*
X011213Y016567D01*
X011091Y016629D02*
X011030Y016567D01*
X010906Y016567D01*
X010844Y016629D01*
X010844Y016752D01*
X010906Y016814D01*
X011030Y016814D01*
X011091Y016752D01*
X011091Y016629D01*
X010723Y016567D02*
X010723Y016814D01*
X010661Y016814D01*
X010600Y016752D01*
X010538Y016814D01*
X010476Y016752D01*
X010476Y016567D01*
X010600Y016567D02*
X010600Y016752D01*
X011582Y016629D02*
X011582Y016567D01*
X011644Y016567D01*
X011644Y016629D01*
X011582Y016629D01*
M02*
