G75*
G70*
%OFA0B0*%
%FSLAX24Y24*%
%IPPOS*%
%LPD*%
%AMOC8*
5,1,8,0,0,1.08239X$1,22.5*
%
%ADD10C,0.0060*%
%ADD11C,0.0080*%
%ADD12C,0.0050*%
%ADD13C,0.0120*%
D10*
X016683Y001931D02*
X016757Y001857D01*
X017050Y001857D01*
X017124Y001931D01*
X017124Y002077D01*
X017050Y002151D01*
X016903Y002077D02*
X016903Y001857D01*
X016683Y001931D02*
X016683Y002077D01*
X016757Y002151D01*
X016830Y002151D01*
X016903Y002077D01*
X017124Y002318D02*
X017124Y002611D01*
X017124Y002464D02*
X016683Y002464D01*
X016830Y002611D01*
X016757Y002778D02*
X016903Y002778D01*
X016977Y002851D01*
X016977Y003072D01*
X017124Y003072D02*
X016683Y003072D01*
X016683Y002851D01*
X016757Y002778D01*
X017683Y002851D02*
X017757Y002778D01*
X017903Y002778D01*
X017977Y002851D01*
X017977Y003072D01*
X018124Y003072D02*
X017683Y003072D01*
X017683Y002851D01*
X017757Y002611D02*
X017683Y002538D01*
X017683Y002391D01*
X017757Y002318D01*
X017830Y002318D01*
X018124Y002611D01*
X018124Y002318D01*
X018050Y002151D02*
X017757Y002151D01*
X017683Y002077D01*
X017683Y001931D01*
X017757Y001857D01*
X018050Y002151D01*
X018124Y002077D01*
X018124Y001931D01*
X018050Y001857D01*
X017757Y001857D01*
X018583Y002004D02*
X019024Y002004D01*
X019024Y002151D02*
X019024Y001857D01*
X018730Y002151D02*
X018583Y002004D01*
X018657Y002318D02*
X018583Y002391D01*
X018583Y002538D01*
X018657Y002611D01*
X018657Y002778D02*
X018803Y002778D01*
X018877Y002851D01*
X018877Y003072D01*
X019024Y003072D02*
X018583Y003072D01*
X018583Y002851D01*
X018657Y002778D01*
X019024Y002611D02*
X018730Y002318D01*
X018657Y002318D01*
X019024Y002318D02*
X019024Y002611D01*
X019683Y002538D02*
X019683Y002391D01*
X019757Y002318D01*
X019830Y002318D01*
X020124Y002611D01*
X020124Y002318D01*
X020124Y002151D02*
X019830Y001857D01*
X019757Y001857D01*
X019683Y001931D01*
X019683Y002077D01*
X019757Y002151D01*
X020124Y002151D02*
X020124Y001857D01*
X020683Y001931D02*
X020683Y002077D01*
X020757Y002151D01*
X020757Y002318D02*
X020683Y002391D01*
X020683Y002538D01*
X020757Y002611D01*
X020757Y002778D02*
X020903Y002778D01*
X020977Y002851D01*
X020977Y003072D01*
X021124Y003072D02*
X020683Y003072D01*
X020683Y002851D01*
X020757Y002778D01*
X021124Y002611D02*
X020830Y002318D01*
X020757Y002318D01*
X021050Y002151D02*
X021124Y002077D01*
X021124Y001931D01*
X021050Y001857D01*
X020977Y001857D01*
X020903Y001931D01*
X020903Y002004D01*
X020903Y001931D02*
X020830Y001857D01*
X020757Y001857D01*
X020683Y001931D01*
X021124Y002318D02*
X021124Y002611D01*
X021683Y002538D02*
X021683Y002391D01*
X021757Y002318D01*
X021830Y002318D01*
X022124Y002611D01*
X022124Y002318D01*
X022124Y002151D02*
X022050Y002151D01*
X021757Y001857D01*
X021683Y001857D01*
X021683Y002151D01*
X021683Y002538D02*
X021757Y002611D01*
X021757Y002778D02*
X021903Y002778D01*
X021977Y002851D01*
X021977Y003072D01*
X022124Y003072D02*
X021683Y003072D01*
X021683Y002851D01*
X021757Y002778D01*
X022683Y002851D02*
X022757Y002778D01*
X022903Y002778D01*
X022977Y002851D01*
X022977Y003072D01*
X023124Y003072D02*
X022683Y003072D01*
X022683Y002851D01*
X022757Y002611D02*
X022683Y002538D01*
X022683Y002391D01*
X022757Y002318D01*
X022830Y002318D01*
X023124Y002611D01*
X023124Y002318D01*
X023050Y002151D02*
X022977Y002151D01*
X022903Y002077D01*
X022903Y001931D01*
X022977Y001857D01*
X023050Y001857D01*
X023124Y001931D01*
X023124Y002077D01*
X023050Y002151D01*
X022903Y002077D02*
X022830Y002151D01*
X022757Y002151D01*
X022683Y002077D01*
X022683Y001931D01*
X022757Y001857D01*
X022830Y001857D01*
X022903Y001931D01*
X023683Y001931D02*
X023757Y001857D01*
X024050Y001857D01*
X024124Y001931D01*
X024124Y002151D01*
X023683Y002151D01*
X023683Y001931D01*
X023683Y002318D02*
X024124Y002318D01*
X023683Y002611D01*
X024124Y002611D01*
X024050Y002778D02*
X023903Y002778D01*
X023903Y002925D01*
X023757Y003072D02*
X024050Y003072D01*
X024124Y002998D01*
X024124Y002851D01*
X024050Y002778D01*
X023757Y002778D02*
X023683Y002851D01*
X023683Y002998D01*
X023757Y003072D01*
X024683Y002998D02*
X024683Y002851D01*
X024757Y002778D01*
X024830Y002778D01*
X024903Y002851D01*
X024977Y002778D01*
X025050Y002778D01*
X025124Y002851D01*
X025124Y002998D01*
X025050Y003072D01*
X024903Y002925D02*
X024903Y002851D01*
X024977Y002611D02*
X024683Y002611D01*
X024977Y002611D02*
X025124Y002464D01*
X024977Y002318D01*
X024683Y002318D01*
X024757Y002151D02*
X024683Y002077D01*
X024683Y001931D01*
X024757Y001857D01*
X024830Y001857D01*
X024903Y001931D01*
X024977Y001857D01*
X025050Y001857D01*
X025124Y001931D01*
X025124Y002077D01*
X025050Y002151D01*
X024903Y002004D02*
X024903Y001931D01*
X024683Y002998D02*
X024757Y003072D01*
X024703Y004532D02*
X024630Y004605D01*
X024630Y004899D01*
X024703Y004972D01*
X024924Y004972D01*
X024924Y004532D01*
X024703Y004532D01*
X024463Y004532D02*
X024243Y004532D01*
X024170Y004605D01*
X024170Y004678D01*
X024243Y004752D01*
X024463Y004752D01*
X024463Y004972D02*
X024243Y004972D01*
X024170Y004899D01*
X024170Y004825D01*
X024243Y004752D01*
X024003Y004899D02*
X024003Y004605D01*
X023929Y004532D01*
X023783Y004532D01*
X023709Y004605D01*
X023709Y004752D01*
X023856Y004752D01*
X023709Y004899D02*
X023783Y004972D01*
X023929Y004972D01*
X024003Y004899D01*
X024463Y004972D02*
X024463Y004532D01*
X023542Y004532D02*
X023542Y004825D01*
X023396Y004972D01*
X023249Y004825D01*
X023249Y004532D01*
X023082Y004605D02*
X023009Y004532D01*
X022862Y004532D01*
X022789Y004605D01*
X022622Y004678D02*
X022328Y004972D01*
X022622Y004972D02*
X022622Y004532D01*
X022548Y004752D02*
X022328Y004532D01*
X022789Y004899D02*
X022862Y004972D01*
X023009Y004972D01*
X023082Y004899D01*
X023082Y004605D01*
X023249Y004752D02*
X023542Y004752D01*
X023542Y005532D02*
X023542Y005972D01*
X023322Y005972D01*
X023249Y005899D01*
X023249Y005752D01*
X023322Y005678D01*
X023542Y005678D01*
X023396Y005678D02*
X023249Y005532D01*
X023082Y005605D02*
X023009Y005532D01*
X022862Y005532D01*
X022789Y005605D01*
X022789Y005899D01*
X022862Y005972D01*
X023009Y005972D01*
X023082Y005899D01*
X023082Y005605D01*
X022935Y005678D02*
X022789Y005532D01*
X023709Y005605D02*
X023783Y005532D01*
X023929Y005532D01*
X024003Y005605D01*
X024003Y005899D01*
X023929Y005972D01*
X023783Y005972D01*
X023709Y005899D01*
X023709Y005752D02*
X023856Y005752D01*
X023709Y005752D02*
X023709Y005605D01*
X024170Y005605D02*
X024243Y005532D01*
X024463Y005532D01*
X024463Y005972D01*
X024243Y005972D01*
X024170Y005899D01*
X024170Y005825D01*
X024243Y005752D01*
X024463Y005752D01*
X024243Y005752D02*
X024170Y005678D01*
X024170Y005605D01*
X024630Y005605D02*
X024703Y005532D01*
X024924Y005532D01*
X024924Y005972D01*
X024703Y005972D01*
X024630Y005899D01*
X024630Y005605D01*
X024777Y006532D02*
X024777Y006972D01*
X024924Y006972D02*
X024630Y006972D01*
X024463Y006899D02*
X024463Y006825D01*
X024390Y006752D01*
X024243Y006752D01*
X024170Y006678D01*
X024170Y006605D01*
X024243Y006532D01*
X024390Y006532D01*
X024463Y006605D01*
X024463Y006899D02*
X024390Y006972D01*
X024243Y006972D01*
X024170Y006899D01*
X024003Y006972D02*
X023783Y006972D01*
X023709Y006899D01*
X023709Y006752D01*
X023783Y006678D01*
X024003Y006678D01*
X024003Y006532D02*
X024003Y006972D01*
X023856Y006678D02*
X023709Y006532D01*
X023542Y006605D02*
X023469Y006532D01*
X023322Y006532D01*
X023249Y006605D01*
X023249Y006678D01*
X023322Y006752D01*
X023469Y006752D01*
X023542Y006825D01*
X023542Y006899D01*
X023469Y006972D01*
X023322Y006972D01*
X023249Y006899D01*
X023082Y006972D02*
X022789Y006972D01*
X022935Y006972D02*
X022935Y006532D01*
X023683Y007632D02*
X023609Y007705D01*
X023609Y007999D01*
X023683Y008072D01*
X023829Y008072D01*
X023903Y007999D01*
X023903Y007705D01*
X023829Y007632D01*
X023683Y007632D01*
X024070Y007705D02*
X024070Y007999D01*
X024143Y008072D01*
X024363Y008072D01*
X024363Y007632D01*
X024143Y007632D01*
X024070Y007705D01*
X024530Y008072D02*
X024824Y008072D01*
X024677Y008072D02*
X024677Y007632D01*
X024824Y008632D02*
X024824Y009072D01*
X024603Y009072D01*
X024530Y008999D01*
X024530Y008852D01*
X024603Y008778D01*
X024824Y008778D01*
X024677Y008778D02*
X024530Y008632D01*
X024216Y008632D02*
X024216Y009072D01*
X024070Y009072D02*
X024363Y009072D01*
X023903Y008999D02*
X023903Y008705D01*
X023829Y008632D01*
X023683Y008632D01*
X023609Y008705D01*
X023442Y008632D02*
X023442Y009072D01*
X023609Y008999D02*
X023683Y009072D01*
X023829Y009072D01*
X023903Y008999D01*
X023442Y008778D02*
X023149Y009072D01*
X023369Y008852D02*
X023149Y008632D01*
X023609Y009632D02*
X023829Y009852D01*
X023903Y009778D02*
X023609Y010072D01*
X023903Y010072D02*
X023903Y009632D01*
X024070Y009705D02*
X024143Y009632D01*
X024290Y009632D01*
X024363Y009705D01*
X024363Y009999D01*
X024290Y010072D01*
X024143Y010072D01*
X024070Y009999D01*
X024530Y010072D02*
X024824Y010072D01*
X024677Y010072D02*
X024677Y009632D01*
X024677Y010632D02*
X024677Y011072D01*
X024824Y011072D02*
X024530Y011072D01*
X024363Y011072D02*
X024216Y010925D01*
X024070Y011072D01*
X024070Y010632D01*
X023903Y010705D02*
X023829Y010632D01*
X023683Y010632D01*
X023609Y010705D01*
X023609Y010778D01*
X023683Y010852D01*
X023829Y010852D01*
X023903Y010925D01*
X023903Y010999D01*
X023829Y011072D01*
X023683Y011072D01*
X023609Y010999D01*
X023756Y011532D02*
X023903Y011532D01*
X023829Y011532D02*
X023829Y011972D01*
X023756Y011972D02*
X023903Y011972D01*
X024070Y011899D02*
X024143Y011972D01*
X024363Y011972D01*
X024363Y011532D01*
X024143Y011532D01*
X024070Y011605D01*
X024070Y011899D01*
X024530Y011972D02*
X024824Y011972D01*
X024677Y011972D02*
X024677Y011532D01*
X024363Y011072D02*
X024363Y010632D01*
X024363Y012532D02*
X024363Y012972D01*
X024143Y012972D01*
X024070Y012899D01*
X024070Y012752D01*
X024143Y012678D01*
X024363Y012678D01*
X024216Y012678D02*
X024070Y012532D01*
X023903Y012605D02*
X023829Y012532D01*
X023683Y012532D01*
X023609Y012605D01*
X023609Y012678D01*
X023683Y012752D01*
X023829Y012752D01*
X023903Y012825D01*
X023903Y012899D01*
X023829Y012972D01*
X023683Y012972D01*
X023609Y012899D01*
X023442Y012972D02*
X023149Y012972D01*
X023296Y012972D02*
X023296Y012532D01*
X023683Y013532D02*
X023609Y013605D01*
X023609Y013752D01*
X023756Y013752D01*
X023609Y013899D02*
X023683Y013972D01*
X023829Y013972D01*
X023903Y013899D01*
X023903Y013605D01*
X023829Y013532D01*
X023683Y013532D01*
X024216Y013532D02*
X024216Y013972D01*
X024070Y013972D02*
X024363Y013972D01*
X024530Y013972D02*
X024530Y013678D01*
X024677Y013532D01*
X024824Y013678D01*
X024824Y013972D01*
X024824Y012972D02*
X024530Y012972D01*
X024677Y012972D02*
X024677Y012532D01*
X027084Y013197D02*
X027230Y013344D01*
X027524Y013344D01*
X027524Y013511D02*
X027524Y013804D01*
X027524Y013658D02*
X027084Y013658D01*
X027157Y013971D02*
X027084Y014045D01*
X027084Y014191D01*
X027157Y014265D01*
X027304Y014265D01*
X027304Y014118D01*
X027451Y014265D02*
X027524Y014191D01*
X027524Y014045D01*
X027451Y013971D01*
X027157Y013971D01*
X027084Y013197D02*
X027230Y013050D01*
X027524Y013050D01*
X027451Y009946D02*
X027157Y009946D01*
X027084Y009872D01*
X027084Y009652D01*
X027524Y009652D01*
X027524Y009872D01*
X027451Y009946D01*
X027524Y009486D02*
X027084Y009486D01*
X027524Y009192D01*
X027084Y009192D01*
X027157Y009025D02*
X027304Y009025D01*
X027304Y008878D01*
X027451Y008732D02*
X027524Y008805D01*
X027524Y008952D01*
X027451Y009025D01*
X027157Y009025D02*
X027084Y008952D01*
X027084Y008805D01*
X027157Y008732D01*
X027451Y008732D01*
X020124Y003072D02*
X019683Y003072D01*
X019683Y002851D01*
X019757Y002778D01*
X019903Y002778D01*
X019977Y002851D01*
X019977Y003072D01*
X019757Y002611D02*
X019683Y002538D01*
X005724Y014832D02*
X005284Y014832D01*
X005284Y015052D01*
X005357Y015125D01*
X005651Y015125D01*
X005724Y015052D01*
X005724Y014832D01*
X006384Y015005D02*
X006384Y015152D01*
X006457Y015225D01*
X006530Y015225D01*
X006604Y015152D01*
X006604Y015078D01*
X006604Y015152D02*
X006677Y015225D01*
X006751Y015225D01*
X006824Y015152D01*
X006824Y015005D01*
X006751Y014932D01*
X006457Y014932D02*
X006384Y015005D01*
X006530Y015392D02*
X006384Y015539D01*
X006530Y015686D01*
X006824Y015686D01*
X006751Y015852D02*
X006824Y015926D01*
X006824Y016072D01*
X006751Y016146D01*
X006677Y016146D01*
X006604Y016072D01*
X006530Y016146D01*
X006457Y016146D01*
X006384Y016072D01*
X006384Y015926D01*
X006457Y015852D01*
X006604Y015999D02*
X006604Y016072D01*
X007334Y016072D02*
X007334Y015852D01*
X007774Y015852D01*
X007774Y016072D01*
X007701Y016146D01*
X007407Y016146D01*
X007334Y016072D01*
X007334Y015686D02*
X007774Y015686D01*
X007774Y015392D02*
X007334Y015686D01*
X007334Y015392D02*
X007774Y015392D01*
X007701Y015225D02*
X007774Y015152D01*
X007774Y015005D01*
X007701Y014932D01*
X007407Y014932D01*
X007334Y015005D01*
X007334Y015152D01*
X007407Y015225D01*
X007554Y015225D01*
X007554Y015078D01*
X006824Y015392D02*
X006530Y015392D01*
X005724Y015439D02*
X005577Y015586D01*
X005284Y015586D01*
X005504Y015586D02*
X005504Y015292D01*
X005577Y015292D02*
X005724Y015439D01*
X005577Y015292D02*
X005284Y015292D01*
X004724Y015342D02*
X004284Y015342D01*
X004430Y015342D02*
X004724Y015636D01*
X004504Y015415D02*
X004284Y015636D01*
X003774Y015562D02*
X003774Y015415D01*
X003701Y015342D01*
X003627Y015342D01*
X003554Y015415D01*
X003554Y015562D01*
X003480Y015636D01*
X003407Y015636D01*
X003334Y015562D01*
X003334Y015415D01*
X003407Y015342D01*
X003407Y015175D02*
X003334Y015102D01*
X003334Y014955D01*
X003407Y014882D01*
X003701Y014882D01*
X003774Y014955D01*
X003774Y015102D01*
X003701Y015175D01*
X003774Y015562D02*
X003701Y015636D01*
X004284Y015102D02*
X004284Y014955D01*
X004357Y014882D01*
X004504Y014955D02*
X004577Y014882D01*
X004651Y014882D01*
X004724Y014955D01*
X004724Y015102D01*
X004651Y015175D01*
X004504Y015102D02*
X004430Y015175D01*
X004357Y015175D01*
X004284Y015102D01*
X004504Y015102D02*
X004504Y014955D01*
X005724Y015752D02*
X005724Y016046D01*
X005724Y015899D02*
X005284Y015899D01*
X005284Y016213D02*
X005577Y016213D01*
X005724Y016359D01*
X005577Y016506D01*
X005284Y016506D01*
X005504Y016506D02*
X005504Y016213D01*
X013183Y016251D02*
X013257Y016178D01*
X013330Y016178D01*
X013403Y016251D01*
X013477Y016178D01*
X013550Y016178D01*
X013624Y016251D01*
X013624Y016398D01*
X013550Y016472D01*
X013403Y016325D02*
X013403Y016251D01*
X013183Y016251D02*
X013183Y016398D01*
X013257Y016472D01*
X013183Y016011D02*
X013477Y016011D01*
X013624Y015864D01*
X013477Y015718D01*
X013183Y015718D01*
X013257Y015551D02*
X013183Y015477D01*
X013183Y015331D01*
X013257Y015257D01*
X013330Y015257D01*
X013403Y015331D01*
X013477Y015257D01*
X013550Y015257D01*
X013624Y015331D01*
X013624Y015477D01*
X013550Y015551D01*
X013403Y015404D02*
X013403Y015331D01*
X014183Y015331D02*
X014183Y015551D01*
X014624Y015551D01*
X014624Y015331D01*
X014550Y015257D01*
X014257Y015257D01*
X014183Y015331D01*
X014183Y015718D02*
X014624Y015718D01*
X014183Y016011D01*
X014624Y016011D01*
X014550Y016178D02*
X014624Y016251D01*
X014624Y016398D01*
X014550Y016472D01*
X014257Y016472D01*
X014183Y016398D01*
X014183Y016251D01*
X014257Y016178D01*
X014403Y016178D02*
X014403Y016325D01*
X014403Y016178D02*
X014550Y016178D01*
X015183Y016178D02*
X015183Y016472D01*
X015183Y016325D02*
X015624Y016325D01*
X015624Y016011D02*
X015183Y016011D01*
X015183Y015791D01*
X015257Y015718D01*
X015550Y015718D01*
X015624Y015791D01*
X015624Y016011D01*
X016183Y016011D02*
X016183Y015791D01*
X016257Y015718D01*
X016550Y015718D01*
X016624Y015791D01*
X016624Y016011D01*
X016183Y016011D01*
X016183Y016178D02*
X016183Y016472D01*
X016183Y016325D02*
X016624Y016325D01*
X017183Y016325D02*
X017624Y016325D01*
X017550Y016011D02*
X017257Y016011D01*
X017183Y015938D01*
X017183Y015791D01*
X017257Y015718D01*
X017183Y015551D02*
X017624Y015551D01*
X017477Y015551D02*
X017183Y015257D01*
X017403Y015477D02*
X017624Y015257D01*
X017550Y015718D02*
X017624Y015791D01*
X017624Y015938D01*
X017550Y016011D01*
X017183Y016178D02*
X017183Y016472D01*
X018183Y016472D02*
X018183Y016178D01*
X018183Y016325D02*
X018624Y016325D01*
X018624Y016011D02*
X018183Y016011D01*
X018330Y015864D01*
X018183Y015718D01*
X018624Y015718D01*
X018550Y015551D02*
X018624Y015477D01*
X018624Y015331D01*
X018550Y015257D01*
X018477Y015257D01*
X018403Y015331D01*
X018403Y015477D01*
X018330Y015551D01*
X018257Y015551D01*
X018183Y015477D01*
X018183Y015331D01*
X018257Y015257D01*
X016624Y015404D02*
X016624Y015551D01*
X016624Y015477D02*
X016183Y015477D01*
X016183Y015404D02*
X016183Y015551D01*
X015624Y015477D02*
X015624Y015331D01*
X015550Y015257D01*
X015257Y015257D01*
X015183Y015331D01*
X015183Y015477D01*
X015257Y015551D01*
X015550Y015551D01*
X015624Y015477D01*
D11*
X008628Y006652D02*
X008628Y006342D01*
X008835Y006342D02*
X008835Y006652D01*
X008732Y006755D01*
X008628Y006652D01*
X008835Y006652D02*
X008939Y006755D01*
X009042Y006755D01*
X009042Y006342D01*
X009273Y006445D02*
X009273Y006652D01*
X009376Y006755D01*
X009583Y006755D01*
X009687Y006652D01*
X009687Y006445D01*
X009583Y006342D01*
X009376Y006342D01*
X009273Y006445D01*
X009918Y006342D02*
X010228Y006342D01*
X010331Y006445D01*
X010331Y006652D01*
X010228Y006755D01*
X009918Y006755D01*
X010550Y006445D02*
X010550Y006342D01*
X010653Y006342D01*
X010653Y006445D01*
X010550Y006445D01*
X010884Y006445D02*
X010884Y006652D01*
X010988Y006755D01*
X011195Y006755D01*
X011298Y006652D01*
X011298Y006445D01*
X011195Y006342D01*
X010988Y006342D01*
X010884Y006445D01*
X011521Y006342D02*
X011728Y006342D01*
X011624Y006342D02*
X011624Y006755D01*
X011728Y006755D01*
X011959Y006755D02*
X012269Y006755D01*
X012372Y006652D01*
X012372Y006445D01*
X012269Y006342D01*
X011959Y006342D01*
X011959Y006962D01*
X011624Y006962D02*
X011624Y007066D01*
X011624Y007342D02*
X011314Y007342D01*
X011314Y007962D01*
X011314Y007755D02*
X011624Y007755D01*
X011728Y007652D01*
X011728Y007445D01*
X011624Y007342D01*
X011959Y007342D02*
X011959Y007755D01*
X012372Y007755D02*
X012372Y007445D01*
X012269Y007342D01*
X011959Y007342D01*
X012595Y007342D02*
X012698Y007445D01*
X012698Y007859D01*
X012595Y007755D02*
X012802Y007755D01*
X013033Y007859D02*
X013136Y007962D01*
X013343Y007962D01*
X013446Y007859D01*
X013446Y007755D01*
X013343Y007652D01*
X013136Y007652D01*
X013033Y007548D01*
X013033Y007445D01*
X013136Y007342D01*
X013343Y007342D01*
X013446Y007445D01*
X014322Y007342D02*
X014632Y007342D01*
X014735Y007445D01*
X014735Y007652D01*
X014632Y007755D01*
X014322Y007755D01*
X014322Y007962D02*
X014322Y007342D01*
X014322Y006962D02*
X014322Y006342D01*
X014632Y006342D01*
X014735Y006445D01*
X014735Y006652D01*
X014632Y006755D01*
X014322Y006755D01*
X014091Y006652D02*
X013988Y006548D01*
X013781Y006548D01*
X013677Y006445D01*
X013781Y006342D01*
X014091Y006342D01*
X014091Y006652D02*
X013988Y006755D01*
X013677Y006755D01*
X013446Y006755D02*
X013240Y006755D01*
X013343Y006859D02*
X013343Y006445D01*
X013240Y006342D01*
X013017Y006445D02*
X012913Y006342D01*
X012603Y006342D01*
X012603Y006755D01*
X013017Y006755D02*
X013017Y006445D01*
X014966Y006548D02*
X015380Y006548D01*
X015380Y006445D02*
X015380Y006652D01*
X015277Y006755D01*
X015070Y006755D01*
X014966Y006652D01*
X014966Y006548D01*
X015070Y006342D02*
X015277Y006342D01*
X015380Y006445D01*
X015611Y006548D02*
X016024Y006548D01*
X016024Y006445D02*
X016024Y006652D01*
X015921Y006755D01*
X015714Y006755D01*
X015611Y006652D01*
X015611Y006548D01*
X015714Y006342D02*
X015921Y006342D01*
X016024Y006445D01*
X016255Y006548D02*
X016669Y006548D01*
X016669Y006445D02*
X016669Y006652D01*
X016566Y006755D01*
X016359Y006755D01*
X016255Y006652D01*
X016255Y006548D01*
X016359Y006342D02*
X016566Y006342D01*
X016669Y006445D01*
X016900Y006445D02*
X017003Y006548D01*
X017210Y006548D01*
X017314Y006652D01*
X017210Y006755D01*
X016900Y006755D01*
X016900Y006445D02*
X017003Y006342D01*
X017314Y006342D01*
X017210Y007342D02*
X017003Y007342D01*
X016900Y007445D01*
X016900Y007548D01*
X017003Y007652D01*
X017210Y007652D01*
X017314Y007755D01*
X017314Y007859D01*
X017210Y007962D01*
X017003Y007962D01*
X016900Y007859D01*
X016669Y007652D02*
X016566Y007755D01*
X016359Y007755D01*
X016255Y007652D01*
X016255Y007548D01*
X016669Y007548D01*
X016669Y007445D02*
X016669Y007652D01*
X016669Y007445D02*
X016566Y007342D01*
X016359Y007342D01*
X016024Y007445D02*
X016024Y007652D01*
X015921Y007755D01*
X015714Y007755D01*
X015611Y007652D01*
X015611Y007548D01*
X016024Y007548D01*
X016024Y007445D02*
X015921Y007342D01*
X015714Y007342D01*
X015380Y007445D02*
X015380Y007652D01*
X015277Y007755D01*
X015070Y007755D01*
X014966Y007652D01*
X014966Y007548D01*
X015380Y007548D01*
X015380Y007445D02*
X015277Y007342D01*
X015070Y007342D01*
X015062Y008542D02*
X015062Y008955D01*
X015165Y008955D01*
X015062Y009162D02*
X015062Y009266D01*
X015388Y009162D02*
X015491Y009059D01*
X015491Y008542D01*
X015818Y008542D02*
X016024Y008542D01*
X015921Y008542D02*
X015921Y009162D01*
X016024Y009162D01*
X016255Y008955D02*
X016255Y008542D01*
X016566Y008542D01*
X016669Y008645D01*
X016669Y008955D01*
X016900Y009162D02*
X017314Y009162D01*
X017314Y008542D01*
X017314Y008852D02*
X017107Y008852D01*
X017210Y009742D02*
X016900Y009742D01*
X016900Y010362D01*
X016900Y010155D02*
X017210Y010155D01*
X017314Y010052D01*
X017314Y009845D01*
X017210Y009742D01*
X016669Y009845D02*
X016566Y009948D01*
X016255Y009948D01*
X016255Y010052D02*
X016255Y009742D01*
X016566Y009742D01*
X016669Y009845D01*
X016566Y010155D02*
X016359Y010155D01*
X016255Y010052D01*
X016024Y010155D02*
X015714Y010155D01*
X015611Y010052D01*
X015611Y009742D01*
X015380Y009845D02*
X015277Y009742D01*
X014966Y009742D01*
X014966Y009638D02*
X014966Y010155D01*
X015277Y010155D01*
X015380Y010052D01*
X015380Y009845D01*
X015173Y009535D02*
X015070Y009535D01*
X014966Y009638D01*
X014735Y009845D02*
X014735Y010052D01*
X014632Y010155D01*
X014425Y010155D01*
X014322Y010052D01*
X014322Y009948D01*
X014735Y009948D01*
X014735Y009845D02*
X014632Y009742D01*
X014425Y009742D01*
X014091Y009742D02*
X014091Y010155D01*
X014091Y009948D02*
X013884Y010155D01*
X013781Y010155D01*
X013554Y010052D02*
X013554Y009845D01*
X013450Y009742D01*
X013244Y009742D01*
X013140Y009845D01*
X013140Y010052D01*
X013244Y010155D01*
X013450Y010155D01*
X013554Y010052D01*
X012909Y010155D02*
X012909Y009845D01*
X012806Y009742D01*
X012496Y009742D01*
X012496Y010155D01*
X012265Y010052D02*
X012161Y009948D01*
X011955Y009948D01*
X011851Y009845D01*
X011955Y009742D01*
X012265Y009742D01*
X012265Y010052D02*
X012161Y010155D01*
X011851Y010155D01*
X011620Y010155D02*
X011310Y010155D01*
X011207Y010052D01*
X011207Y009845D01*
X011310Y009742D01*
X011620Y009742D01*
X011620Y009535D02*
X011620Y010155D01*
X010976Y010155D02*
X010976Y009742D01*
X010976Y009948D02*
X010769Y010155D01*
X010665Y010155D01*
X010439Y010052D02*
X010439Y009845D01*
X010335Y009742D01*
X010128Y009742D01*
X010025Y009845D01*
X010025Y010052D01*
X010128Y010155D01*
X010335Y010155D01*
X010439Y010052D01*
X009794Y010155D02*
X009587Y010155D01*
X009691Y010259D02*
X009691Y009845D01*
X009587Y009742D01*
X009364Y009845D02*
X009261Y009742D01*
X009054Y009742D01*
X008951Y009845D01*
X008951Y010052D01*
X009054Y010155D01*
X009261Y010155D01*
X009364Y010052D01*
X009364Y009845D01*
X008720Y010155D02*
X008513Y010155D01*
X008616Y010259D02*
X008616Y009845D01*
X008513Y009742D01*
X008290Y009845D02*
X008187Y009742D01*
X007877Y009742D01*
X007877Y009638D02*
X007980Y009535D01*
X008083Y009535D01*
X007877Y009638D02*
X007877Y010155D01*
X007646Y010155D02*
X007335Y010155D01*
X007232Y010052D01*
X007232Y009845D01*
X007335Y009742D01*
X007646Y009742D01*
X007646Y009535D02*
X007646Y010155D01*
X008290Y010155D02*
X008290Y009845D01*
X009476Y008955D02*
X009476Y008852D01*
X009579Y008852D01*
X009579Y008955D01*
X009476Y008955D01*
X009810Y008955D02*
X009810Y008438D01*
X009914Y008335D01*
X010017Y008335D01*
X010120Y008542D02*
X009810Y008542D01*
X009579Y008542D02*
X009579Y008645D01*
X009476Y008645D01*
X009476Y008542D01*
X009579Y008542D01*
X010120Y008542D02*
X010224Y008645D01*
X010224Y008955D01*
X010455Y008852D02*
X010558Y008955D01*
X010868Y008955D01*
X010868Y009162D02*
X010868Y008542D01*
X010558Y008542D01*
X010455Y008645D01*
X010455Y008852D01*
X010980Y008066D02*
X010980Y007962D01*
X010980Y007755D02*
X010980Y007342D01*
X011083Y007342D02*
X010876Y007342D01*
X010653Y007445D02*
X010550Y007342D01*
X010343Y007342D01*
X010240Y007445D01*
X010240Y007652D01*
X010343Y007755D01*
X010550Y007755D01*
X010653Y007652D01*
X010653Y007445D01*
X010980Y007755D02*
X011083Y007755D01*
X011736Y008542D02*
X011839Y008645D01*
X011839Y009059D01*
X011942Y008955D02*
X011736Y008955D01*
X012173Y008852D02*
X012173Y008542D01*
X012587Y008542D02*
X012587Y008955D01*
X012277Y008955D01*
X012173Y008852D01*
X012818Y008852D02*
X012818Y008748D01*
X013232Y008748D01*
X013232Y008645D02*
X013232Y008852D01*
X013128Y008955D01*
X012921Y008955D01*
X012818Y008852D01*
X012921Y008542D02*
X013128Y008542D01*
X013232Y008645D01*
X013462Y008542D02*
X013462Y008852D01*
X013566Y008955D01*
X013669Y008852D01*
X013669Y008542D01*
X013876Y008542D02*
X013876Y008955D01*
X013773Y008955D01*
X013669Y008852D01*
X014099Y008542D02*
X014306Y008542D01*
X014202Y008542D02*
X014202Y009162D01*
X014306Y009162D01*
X014632Y009162D02*
X014632Y008542D01*
X014735Y008542D02*
X014529Y008542D01*
X014958Y008542D02*
X015165Y008542D01*
X015388Y008852D02*
X015595Y008852D01*
X014735Y009162D02*
X014632Y009162D01*
X016024Y009742D02*
X016024Y010155D01*
X016024Y010742D02*
X015714Y010742D01*
X015611Y010845D01*
X015714Y010948D01*
X015921Y010948D01*
X016024Y011052D01*
X015921Y011155D01*
X015611Y011155D01*
X016255Y011155D02*
X016255Y010742D01*
X016566Y010742D01*
X016669Y010845D01*
X016669Y011155D01*
X016900Y011155D02*
X016900Y011259D01*
X017003Y011362D01*
X017314Y011362D01*
X017314Y010742D01*
X017003Y010742D01*
X016900Y010845D01*
X016900Y010948D01*
X017003Y011052D01*
X017314Y011052D01*
X017003Y011052D02*
X016900Y011155D01*
X014735Y011052D02*
X014425Y011052D01*
X014322Y010948D01*
X014322Y010845D01*
X014425Y010742D01*
X014735Y010742D01*
X014735Y011362D01*
X014425Y011362D01*
X014322Y011259D01*
X014322Y011155D01*
X014425Y011052D01*
X014091Y011362D02*
X013988Y011362D01*
X013988Y010742D01*
X014091Y010742D02*
X013884Y010742D01*
X013661Y010845D02*
X013558Y010948D01*
X013248Y010948D01*
X013248Y011052D02*
X013248Y010742D01*
X013558Y010742D01*
X013661Y010845D01*
X013558Y011155D02*
X013351Y011155D01*
X013248Y011052D01*
X013017Y011052D02*
X012913Y011155D01*
X012603Y011155D01*
X012372Y011155D02*
X012165Y011155D01*
X012269Y011259D02*
X012269Y010845D01*
X012165Y010742D01*
X011942Y010845D02*
X011942Y011052D01*
X011839Y011155D01*
X011632Y011155D01*
X011529Y011052D01*
X011529Y010948D01*
X011942Y010948D01*
X011942Y010845D02*
X011839Y010742D01*
X011632Y010742D01*
X011298Y010742D02*
X011298Y011155D01*
X011298Y010948D02*
X011091Y011155D01*
X010988Y011155D01*
X010116Y011155D02*
X009910Y010742D01*
X009703Y011155D01*
X009472Y011259D02*
X009368Y011362D01*
X009162Y011362D01*
X009058Y011259D01*
X009058Y011155D01*
X009162Y011052D01*
X009058Y010948D01*
X009058Y010845D01*
X009162Y010742D01*
X009368Y010742D01*
X009472Y010845D01*
X009265Y011052D02*
X009162Y011052D01*
X008827Y010845D02*
X008724Y010845D01*
X008724Y010742D01*
X008827Y010742D01*
X008827Y010845D01*
X008505Y010845D02*
X008091Y011259D01*
X008091Y010845D01*
X008195Y010742D01*
X008402Y010742D01*
X008505Y010845D01*
X008505Y011259D01*
X008402Y011362D01*
X008195Y011362D01*
X008091Y011259D01*
X006898Y010155D02*
X006691Y010155D01*
X006587Y010052D01*
X006587Y009948D01*
X007001Y009948D01*
X007001Y009845D02*
X007001Y010052D01*
X006898Y010155D01*
X007001Y009845D02*
X006898Y009742D01*
X006691Y009742D01*
X006357Y009742D02*
X006046Y009742D01*
X005943Y009845D01*
X006046Y009948D01*
X006253Y009948D01*
X006357Y010052D01*
X006253Y010155D01*
X005943Y010155D01*
X005712Y009845D02*
X005609Y009845D01*
X005609Y009742D01*
X005712Y009742D01*
X005712Y009845D01*
X005390Y009845D02*
X005286Y009742D01*
X004976Y009742D01*
X004745Y009845D02*
X004642Y009742D01*
X004435Y009742D01*
X004332Y009845D01*
X004332Y010052D01*
X004435Y010155D01*
X004642Y010155D01*
X004745Y010052D01*
X004745Y009845D01*
X004976Y010155D02*
X005286Y010155D01*
X005390Y010052D01*
X005390Y009845D01*
X004101Y009742D02*
X004101Y010155D01*
X003997Y010155D01*
X003894Y010052D01*
X003791Y010155D01*
X003687Y010052D01*
X003687Y009742D01*
X003894Y009742D02*
X003894Y010052D01*
X012603Y010845D02*
X012706Y010948D01*
X012913Y010948D01*
X013017Y011052D01*
X013017Y010742D02*
X012706Y010742D01*
X012603Y010845D01*
X017210Y007342D02*
X017314Y007445D01*
X026954Y004702D02*
X027254Y004702D01*
X027254Y008502D01*
X027254Y010202D02*
X027254Y012702D01*
X026954Y012702D01*
D12*
X019321Y009192D02*
X019272Y008749D01*
X019223Y009192D01*
X019321Y009192D01*
X019223Y009192D01*
X019272Y008749D01*
X019321Y009192D01*
X019223Y009192D01*
X019272Y008749D01*
X019321Y009192D01*
X019223Y009192D01*
X019272Y008749D01*
X019321Y009192D01*
X019223Y009192D01*
X019272Y008749D01*
X019321Y009192D01*
X019223Y009192D01*
X019272Y008749D01*
X019321Y009192D01*
X019223Y009192D01*
X019272Y008749D01*
X019321Y009192D01*
X019223Y009192D01*
X019272Y008749D01*
X019321Y009192D01*
X019223Y009192D01*
X019272Y008749D01*
X019321Y009192D01*
X019223Y009192D01*
X019272Y008749D01*
X019321Y009192D01*
X019223Y009192D01*
X019272Y008749D01*
X019321Y009192D01*
X019320Y009182D02*
X019224Y009182D01*
X019320Y009182D01*
X019224Y009182D01*
X019320Y009182D01*
X019224Y009182D01*
X019320Y009182D01*
X019224Y009182D01*
X019320Y009182D01*
X019224Y009182D01*
X019320Y009182D01*
X019224Y009182D01*
X019229Y009134D02*
X019315Y009134D01*
X019229Y009134D01*
X019315Y009134D01*
X019229Y009134D01*
X019315Y009134D01*
X019229Y009134D01*
X019315Y009134D01*
X019229Y009134D01*
X019315Y009134D01*
X019229Y009134D01*
X019315Y009134D01*
X019309Y009085D02*
X019235Y009085D01*
X019309Y009085D01*
X019235Y009085D01*
X019309Y009085D01*
X019235Y009085D01*
X019309Y009085D01*
X019235Y009085D01*
X019309Y009085D01*
X019235Y009085D01*
X019309Y009085D01*
X019235Y009085D01*
X019240Y009036D02*
X019304Y009036D01*
X019240Y009036D01*
X019304Y009036D01*
X019240Y009036D01*
X019304Y009036D01*
X019240Y009036D01*
X019304Y009036D01*
X019240Y009036D01*
X019304Y009036D01*
X019240Y009036D01*
X019304Y009036D01*
X019299Y008988D02*
X019246Y008988D01*
X019299Y008988D01*
X019246Y008988D01*
X019299Y008988D01*
X019246Y008988D01*
X019299Y008988D01*
X019246Y008988D01*
X019299Y008988D01*
X019246Y008988D01*
X019299Y008988D01*
X019246Y008988D01*
X019251Y008939D02*
X019293Y008939D01*
X019251Y008939D01*
X019293Y008939D01*
X019251Y008939D01*
X019293Y008939D01*
X019251Y008939D01*
X019293Y008939D01*
X019251Y008939D01*
X019293Y008939D01*
X019251Y008939D01*
X019293Y008939D01*
X019288Y008891D02*
X019256Y008891D01*
X019288Y008891D01*
X019256Y008891D01*
X019288Y008891D01*
X019256Y008891D01*
X019288Y008891D01*
X019256Y008891D01*
X019288Y008891D01*
X019256Y008891D01*
X019288Y008891D01*
X019256Y008891D01*
X019262Y008842D02*
X019282Y008842D01*
X019262Y008842D01*
X019282Y008842D01*
X019262Y008842D01*
X019282Y008842D01*
X019262Y008842D01*
X019282Y008842D01*
X019262Y008842D01*
X019282Y008842D01*
X019262Y008842D01*
X019282Y008842D01*
X019277Y008794D02*
X019267Y008794D01*
X019277Y008794D01*
X019267Y008794D01*
X019277Y008794D01*
X019267Y008794D01*
X019277Y008794D01*
X019267Y008794D01*
X019277Y008794D01*
X019267Y008794D01*
X019277Y008794D01*
X019267Y008794D01*
X019223Y008602D02*
X019225Y008615D01*
X019230Y008627D01*
X019239Y008638D01*
X019249Y008646D01*
X019262Y008650D01*
X019275Y008651D01*
X019288Y008648D01*
X019300Y008642D01*
X019310Y008633D01*
X019317Y008622D01*
X019321Y008609D01*
X019321Y008595D01*
X019317Y008582D01*
X019310Y008571D01*
X019300Y008562D01*
X019288Y008556D01*
X019275Y008553D01*
X019262Y008554D01*
X019249Y008558D01*
X019239Y008566D01*
X019230Y008577D01*
X019225Y008589D01*
X019223Y008602D01*
X019225Y008615D01*
X019230Y008627D01*
X019239Y008638D01*
X019249Y008646D01*
X019262Y008650D01*
X019275Y008651D01*
X019288Y008648D01*
X019300Y008642D01*
X019310Y008633D01*
X019317Y008622D01*
X019321Y008609D01*
X019321Y008595D01*
X019317Y008582D01*
X019310Y008571D01*
X019300Y008562D01*
X019288Y008556D01*
X019275Y008553D01*
X019262Y008554D01*
X019249Y008558D01*
X019239Y008566D01*
X019230Y008577D01*
X019225Y008589D01*
X019223Y008602D01*
X019225Y008615D01*
X019230Y008627D01*
X019239Y008638D01*
X019249Y008646D01*
X019262Y008650D01*
X019275Y008651D01*
X019288Y008648D01*
X019300Y008642D01*
X019310Y008633D01*
X019317Y008622D01*
X019321Y008609D01*
X019321Y008595D01*
X019317Y008582D01*
X019310Y008571D01*
X019300Y008562D01*
X019288Y008556D01*
X019275Y008553D01*
X019262Y008554D01*
X019249Y008558D01*
X019239Y008566D01*
X019230Y008577D01*
X019225Y008589D01*
X019223Y008602D01*
X019225Y008615D01*
X019230Y008627D01*
X019239Y008638D01*
X019249Y008646D01*
X019262Y008650D01*
X019275Y008651D01*
X019288Y008648D01*
X019300Y008642D01*
X019310Y008633D01*
X019317Y008622D01*
X019321Y008609D01*
X019321Y008595D01*
X019317Y008582D01*
X019310Y008571D01*
X019300Y008562D01*
X019288Y008556D01*
X019275Y008553D01*
X019262Y008554D01*
X019249Y008558D01*
X019239Y008566D01*
X019230Y008577D01*
X019225Y008589D01*
X019223Y008602D01*
X019225Y008615D01*
X019230Y008627D01*
X019239Y008638D01*
X019249Y008646D01*
X019262Y008650D01*
X019275Y008651D01*
X019288Y008648D01*
X019300Y008642D01*
X019310Y008633D01*
X019317Y008622D01*
X019321Y008609D01*
X019321Y008595D01*
X019317Y008582D01*
X019310Y008571D01*
X019300Y008562D01*
X019288Y008556D01*
X019275Y008553D01*
X019262Y008554D01*
X019249Y008558D01*
X019239Y008566D01*
X019230Y008577D01*
X019225Y008589D01*
X019223Y008602D01*
X019225Y008615D01*
X019230Y008627D01*
X019239Y008638D01*
X019249Y008646D01*
X019262Y008650D01*
X019275Y008651D01*
X019288Y008648D01*
X019300Y008642D01*
X019310Y008633D01*
X019317Y008622D01*
X019321Y008609D01*
X019321Y008595D01*
X019317Y008582D01*
X019310Y008571D01*
X019300Y008562D01*
X019288Y008556D01*
X019275Y008553D01*
X019262Y008554D01*
X019249Y008558D01*
X019239Y008566D01*
X019230Y008577D01*
X019225Y008589D01*
X019223Y008602D01*
X019225Y008615D01*
X019230Y008627D01*
X019239Y008638D01*
X019249Y008646D01*
X019262Y008650D01*
X019275Y008651D01*
X019288Y008648D01*
X019300Y008642D01*
X019310Y008633D01*
X019317Y008622D01*
X019321Y008609D01*
X019321Y008595D01*
X019317Y008582D01*
X019310Y008571D01*
X019300Y008562D01*
X019288Y008556D01*
X019275Y008553D01*
X019262Y008554D01*
X019249Y008558D01*
X019239Y008566D01*
X019230Y008577D01*
X019225Y008589D01*
X019223Y008602D01*
X019225Y008615D01*
X019230Y008627D01*
X019239Y008638D01*
X019249Y008646D01*
X019262Y008650D01*
X019275Y008651D01*
X019288Y008648D01*
X019300Y008642D01*
X019310Y008633D01*
X019317Y008622D01*
X019321Y008609D01*
X019321Y008595D01*
X019317Y008582D01*
X019310Y008571D01*
X019300Y008562D01*
X019288Y008556D01*
X019275Y008553D01*
X019262Y008554D01*
X019249Y008558D01*
X019239Y008566D01*
X019230Y008577D01*
X019225Y008589D01*
X019223Y008602D01*
X019225Y008615D01*
X019230Y008627D01*
X019239Y008638D01*
X019249Y008646D01*
X019262Y008650D01*
X019275Y008651D01*
X019288Y008648D01*
X019300Y008642D01*
X019310Y008633D01*
X019317Y008622D01*
X019321Y008609D01*
X019321Y008595D01*
X019317Y008582D01*
X019310Y008571D01*
X019300Y008562D01*
X019288Y008556D01*
X019275Y008553D01*
X019262Y008554D01*
X019249Y008558D01*
X019239Y008566D01*
X019230Y008577D01*
X019225Y008589D01*
X019223Y008602D01*
X019225Y008615D01*
X019230Y008627D01*
X019239Y008638D01*
X019249Y008646D01*
X019262Y008650D01*
X019275Y008651D01*
X019288Y008648D01*
X019300Y008642D01*
X019310Y008633D01*
X019317Y008622D01*
X019321Y008609D01*
X019321Y008595D01*
X019317Y008582D01*
X019310Y008571D01*
X019300Y008562D01*
X019288Y008556D01*
X019275Y008553D01*
X019262Y008554D01*
X019249Y008558D01*
X019239Y008566D01*
X019230Y008577D01*
X019225Y008589D01*
X019223Y008602D01*
X019225Y008615D01*
X019230Y008627D01*
X019239Y008638D01*
X019249Y008646D01*
X019262Y008650D01*
X019275Y008651D01*
X019288Y008648D01*
X019300Y008642D01*
X019310Y008633D01*
X019317Y008622D01*
X019321Y008609D01*
X019321Y008595D01*
X019317Y008582D01*
X019310Y008571D01*
X019300Y008562D01*
X019288Y008556D01*
X019275Y008553D01*
X019262Y008554D01*
X019249Y008558D01*
X019239Y008566D01*
X019230Y008577D01*
X019225Y008589D01*
X019223Y008602D01*
X019223Y009192D02*
X019225Y009205D01*
X019230Y009216D01*
X019237Y009227D01*
X019248Y009234D01*
X019259Y009239D01*
X019272Y009241D01*
X019285Y009239D01*
X019297Y009234D01*
X019307Y009227D01*
X019314Y009216D01*
X019319Y009205D01*
X019321Y009192D01*
X019319Y009205D01*
X019314Y009216D01*
X019307Y009227D01*
X019297Y009234D01*
X019285Y009239D01*
X019272Y009241D01*
X019259Y009239D01*
X019248Y009234D01*
X019237Y009227D01*
X019230Y009216D01*
X019225Y009205D01*
X019223Y009192D01*
X019225Y009205D01*
X019230Y009216D01*
X019237Y009227D01*
X019248Y009234D01*
X019259Y009239D01*
X019272Y009241D01*
X019285Y009239D01*
X019297Y009234D01*
X019307Y009227D01*
X019314Y009216D01*
X019319Y009205D01*
X019321Y009192D01*
X019319Y009205D01*
X019314Y009216D01*
X019307Y009227D01*
X019297Y009234D01*
X019285Y009239D01*
X019272Y009241D01*
X019259Y009239D01*
X019248Y009234D01*
X019237Y009227D01*
X019230Y009216D01*
X019225Y009205D01*
X019223Y009192D01*
X019225Y009205D01*
X019230Y009216D01*
X019237Y009227D01*
X019248Y009234D01*
X019259Y009239D01*
X019272Y009241D01*
X019285Y009239D01*
X019297Y009234D01*
X019307Y009227D01*
X019314Y009216D01*
X019319Y009205D01*
X019321Y009192D01*
X019319Y009205D01*
X019314Y009216D01*
X019307Y009227D01*
X019297Y009234D01*
X019285Y009239D01*
X019272Y009241D01*
X019259Y009239D01*
X019248Y009234D01*
X019237Y009227D01*
X019230Y009216D01*
X019225Y009205D01*
X019223Y009192D01*
X019225Y009205D01*
X019230Y009216D01*
X019237Y009227D01*
X019248Y009234D01*
X019259Y009239D01*
X019272Y009241D01*
X019285Y009239D01*
X019297Y009234D01*
X019307Y009227D01*
X019314Y009216D01*
X019319Y009205D01*
X019321Y009192D01*
X019319Y009205D01*
X019314Y009216D01*
X019307Y009227D01*
X019297Y009234D01*
X019285Y009239D01*
X019272Y009241D01*
X019259Y009239D01*
X019248Y009234D01*
X019237Y009227D01*
X019230Y009216D01*
X019225Y009205D01*
X019223Y009192D01*
X019225Y009205D01*
X019230Y009216D01*
X019237Y009227D01*
X019248Y009234D01*
X019259Y009239D01*
X019272Y009241D01*
X019285Y009239D01*
X019297Y009234D01*
X019307Y009227D01*
X019314Y009216D01*
X019319Y009205D01*
X019321Y009192D01*
X019319Y009205D01*
X019314Y009216D01*
X019307Y009227D01*
X019297Y009234D01*
X019285Y009239D01*
X019272Y009241D01*
X019259Y009239D01*
X019248Y009234D01*
X019237Y009227D01*
X019230Y009216D01*
X019225Y009205D01*
X019223Y009192D01*
X019225Y009205D01*
X019230Y009216D01*
X019237Y009227D01*
X019248Y009234D01*
X019259Y009239D01*
X019272Y009241D01*
X019285Y009239D01*
X019297Y009234D01*
X019307Y009227D01*
X019314Y009216D01*
X019319Y009205D01*
X019321Y009192D01*
D13*
X019297Y009586D02*
X019247Y009586D01*
X018632Y008454D01*
X018681Y008405D01*
X019863Y008405D01*
X019912Y008454D01*
X019297Y009586D01*
M02*
