G04 EAGLE Gerber RS-274X export*
G75*
%MOMM*%
%FSLAX34Y34*%
%LPD*%
%INTop Copper*%
%IPPOS*%
%AMOC8*
5,1,8,0,0,1.08239X$1,22.5*%
G01*
%ADD10C,0.254000*%
%ADD11C,0.304800*%
%ADD12C,1.016000*%
%ADD13C,0.406400*%
%ADD14C,0.609600*%
%ADD15C,1.270000*%


D10*
X717800Y163580D02*
X725520Y163580D01*
X717800Y163580D02*
X706120Y175260D01*
X690880Y175260D01*
X688340Y177800D01*
X688340Y320040D01*
X700540Y332240D02*
X706720Y332240D01*
X700540Y332240D02*
X688340Y320040D01*
X725520Y171580D02*
X737740Y171580D01*
X741680Y167640D01*
X681220Y289060D02*
X681220Y306740D01*
X681220Y289060D02*
X683260Y287020D01*
X683260Y170180D01*
X685800Y167640D01*
X706720Y387240D02*
X768460Y387240D01*
X777240Y378460D01*
X777240Y182880D01*
X773940Y179580D02*
X725520Y179580D01*
X773940Y179580D02*
X777240Y182880D01*
X566220Y203400D02*
X566220Y306740D01*
X566220Y203400D02*
X568960Y200660D01*
X725520Y147580D02*
X736860Y147580D01*
X739140Y149860D01*
X568960Y175260D02*
X568960Y200660D01*
X696080Y139580D02*
X725520Y139580D01*
X696080Y139580D02*
X685800Y149860D01*
X673100Y149860D01*
X660400Y162560D01*
X561220Y195700D02*
X561220Y306740D01*
X561220Y195700D02*
X561340Y195580D01*
X400720Y367240D02*
X385020Y367240D01*
X368300Y350520D01*
X340360Y350520D01*
X292980Y350520D01*
X280280Y368300D01*
X387640Y362240D02*
X400720Y362240D01*
X350520Y325120D02*
X340360Y325120D01*
X350520Y325120D02*
X387640Y362240D01*
X340360Y325120D02*
X313300Y325120D01*
X295520Y307340D01*
X706720Y552240D02*
X740620Y552240D01*
X744220Y548640D01*
X744220Y541900D01*
X772550Y541900D01*
X775970Y538480D01*
X807720Y557240D02*
X706720Y557240D01*
X807720Y557240D02*
X825790Y557240D01*
X844550Y538480D01*
X806840Y558120D02*
X806840Y574040D01*
X806840Y558120D02*
X807720Y557240D01*
X400720Y337240D02*
X392240Y337240D01*
X264160Y226060D02*
X264160Y214240D01*
X264160Y226060D02*
X307340Y269240D01*
X342900Y269240D01*
X353060Y279400D01*
X353060Y298060D01*
X392240Y337240D01*
X390500Y342240D02*
X400720Y342240D01*
X303920Y274320D02*
X243840Y214240D01*
X303920Y274320D02*
X340360Y274320D01*
X347980Y281940D01*
X347980Y299720D01*
X390500Y342240D01*
X386360Y442240D02*
X400720Y442240D01*
X386360Y442240D02*
X381000Y436880D01*
X235140Y371250D02*
X235140Y354520D01*
X299720Y424180D02*
X312420Y436880D01*
X381000Y436880D01*
X235140Y354520D02*
X235140Y296100D01*
X193040Y254000D01*
X400720Y437240D02*
X431440Y437240D01*
X436880Y431800D01*
X227140Y371250D02*
X227140Y346520D01*
X227140Y313500D01*
X193040Y279400D01*
X454660Y429260D02*
X454660Y436880D01*
X218190Y371250D02*
X218190Y352810D01*
X218190Y329950D01*
X193040Y304800D01*
X400720Y422240D02*
X418500Y422240D01*
X424180Y416560D01*
X441960Y416560D01*
X454660Y429260D01*
X676220Y306740D02*
X676220Y286440D01*
X678180Y284480D01*
X685160Y155580D02*
X698500Y155580D01*
X725520Y155580D01*
X685160Y155580D02*
X678180Y162560D01*
X678180Y284480D01*
X698500Y166760D02*
X698500Y155580D01*
X706720Y392240D02*
X771080Y392240D01*
X788920Y163580D02*
X839120Y163580D01*
X788920Y163580D02*
X782320Y170180D01*
X782320Y381000D01*
X771080Y392240D01*
X511220Y588600D02*
X511220Y612740D01*
X511220Y588600D02*
X538480Y561340D01*
X543560Y561340D01*
X698246Y663194D02*
X698246Y698500D01*
X698246Y663194D02*
X711200Y650240D01*
X264033Y177047D02*
X264033Y156718D01*
X264033Y177047D02*
X260740Y180340D01*
X264160Y183760D02*
X264160Y197240D01*
X264160Y183760D02*
X260740Y180340D01*
X264160Y197240D02*
X264160Y198120D01*
X284480Y197240D01*
X431220Y250880D02*
X431220Y306740D01*
X431220Y250880D02*
X416560Y236220D01*
X416560Y170180D01*
X411480Y165100D01*
X402980Y165100D01*
X401320Y163440D01*
X401320Y182000D01*
X436880Y163440D02*
X438540Y163440D01*
X436220Y248260D02*
X436220Y306740D01*
X436220Y248260D02*
X421640Y233680D01*
X421640Y170180D01*
X426720Y165100D01*
X436000Y165100D01*
X436880Y163440D01*
X436880Y182000D01*
X398400Y134240D02*
X398400Y111360D01*
X398400Y134240D02*
X401320Y137160D01*
X401320Y146440D01*
X406400Y127000D02*
X406400Y111360D01*
X406400Y127000D02*
X426720Y147320D01*
X436000Y147320D01*
X436880Y146440D01*
X390400Y131180D02*
X390400Y111360D01*
X390400Y131180D02*
X376800Y144780D01*
X376800Y167640D01*
X400720Y577240D02*
X413360Y577240D01*
X447040Y543560D01*
X535940Y543560D01*
X553720Y528320D01*
X359800Y190500D02*
X359800Y167640D01*
X359800Y190500D02*
X359800Y199780D01*
X365760Y205740D01*
X718060Y211580D02*
X725520Y211580D01*
X718060Y211580D02*
X713740Y215900D01*
X708660Y312420D02*
X708660Y313300D01*
X516220Y591220D02*
X516220Y612740D01*
X516220Y591220D02*
X538480Y568960D01*
X553720Y568960D01*
X774700Y683260D02*
X774700Y698500D01*
X774700Y683260D02*
X779780Y678180D01*
X789940Y678180D01*
X756920Y615560D02*
X756920Y597780D01*
X756920Y615560D02*
X758580Y617220D01*
X722020Y577240D02*
X706720Y577240D01*
X722020Y577240D02*
X726440Y581660D01*
X756040Y581660D02*
X756920Y580780D01*
X756920Y581660D01*
X726440Y581660D01*
X756920Y581660D02*
X776360Y581660D01*
X777240Y580780D01*
X529200Y797560D02*
X528320Y810260D01*
X471200Y686160D02*
X459100Y686160D01*
X471200Y686160D02*
X519820Y685800D01*
X521580Y665480D02*
X541020Y665480D01*
X471220Y637980D02*
X471220Y612740D01*
X471220Y637980D02*
X475860Y640080D01*
X431600Y748660D02*
X431600Y766880D01*
X474980Y810260D01*
X528320Y810260D01*
D11*
X539360Y637540D02*
X541020Y637540D01*
X541020Y665480D01*
X531220Y622660D02*
X531220Y612740D01*
X531220Y622660D02*
X538480Y629920D01*
X538480Y636660D01*
X539360Y637540D01*
D10*
X621220Y637340D02*
X621220Y612740D01*
X621220Y637340D02*
X621420Y637540D01*
X621420Y657860D02*
X622300Y657860D01*
X622300Y647700D02*
X622300Y638420D01*
X622300Y647700D02*
X622300Y657860D01*
X622300Y638420D02*
X621420Y637540D01*
X400720Y527240D02*
X367220Y526860D01*
X364100Y528320D02*
X363220Y528320D01*
X378260Y472240D02*
X400720Y472240D01*
X378260Y472240D02*
X363220Y472440D01*
X359020Y472440D01*
X366200Y432240D02*
X400720Y432240D01*
X366200Y432240D02*
X360680Y426720D01*
X351400Y426720D01*
X368300Y292980D02*
X367420Y292100D01*
X368300Y292980D02*
X368300Y302260D01*
X386080Y320040D01*
X401320Y320040D01*
X401320Y331640D01*
X400720Y332240D01*
X180340Y203200D02*
X167640Y203200D01*
X180340Y203200D02*
X193040Y203200D01*
X706720Y467240D02*
X728100Y467240D01*
X728100Y464820D01*
X400720Y567240D02*
X369180Y567240D01*
X366640Y568960D01*
X486220Y306740D02*
X486220Y272660D01*
X485140Y272660D01*
X244090Y390750D02*
X235140Y390750D01*
X227140Y390750D02*
X218190Y390750D01*
X227140Y390750D02*
X235140Y390750D01*
X839120Y259580D02*
X857640Y259580D01*
X858520Y263280D01*
X725520Y299580D02*
X708660Y299580D01*
X712220Y91580D02*
X725520Y91580D01*
X712220Y91580D02*
X709540Y88900D01*
X703820Y235580D02*
X725520Y235580D01*
X703820Y235580D02*
X703580Y232800D01*
X839120Y211580D02*
X856880Y211580D01*
X858520Y212480D01*
X180340Y187960D02*
X168520Y177800D01*
X180340Y187960D02*
X180340Y203200D01*
X706720Y377240D02*
X753940Y377240D01*
X759460Y371720D01*
X612140Y276860D02*
X612140Y265040D01*
X612140Y276860D02*
X611220Y277780D01*
X611220Y306740D01*
X857640Y259580D02*
X858520Y258700D01*
X709540Y88900D02*
X709540Y77860D01*
X711200Y76200D01*
X706720Y467240D02*
X683380Y467240D01*
X683260Y467360D01*
X471220Y590600D02*
X471220Y612740D01*
X471220Y590600D02*
X464820Y579120D01*
X464820Y576580D01*
X412940Y527240D02*
X400720Y527240D01*
X412940Y527240D02*
X424180Y538480D01*
X424180Y553720D01*
X415740Y567240D02*
X400720Y567240D01*
X415740Y567240D02*
X424180Y558800D01*
X424180Y553720D01*
X304800Y375340D02*
X304800Y373380D01*
X303920Y373380D01*
X303920Y393700D01*
X292100Y393700D01*
X244500Y393700D01*
X244090Y390750D01*
X400720Y432240D02*
X421200Y432240D01*
X426720Y426720D01*
X429260Y424180D01*
X441960Y424180D01*
X447040Y429260D01*
X447040Y434340D01*
X444500Y436880D01*
X444500Y464820D01*
X436880Y472440D01*
X416560Y472440D01*
X416360Y472240D02*
X400720Y472240D01*
X416360Y472240D02*
X416560Y472440D01*
X303540Y651520D02*
X302260Y651520D01*
X303540Y651520D02*
X302260Y662940D01*
X281940Y706120D02*
X281940Y717540D01*
X679500Y377240D02*
X706720Y377240D01*
X679500Y377240D02*
X678180Y375920D01*
X723900Y312420D02*
X723900Y301200D01*
X725520Y299580D01*
X725520Y235580D02*
X738500Y235580D01*
X744220Y241300D01*
X367220Y526860D02*
X365560Y526860D01*
X364100Y528320D01*
X487680Y109220D02*
X502040Y109220D01*
X666220Y597640D02*
X666220Y612740D01*
X666220Y597640D02*
X660400Y591820D01*
X627380Y591820D01*
X621220Y597980D01*
X621220Y612740D01*
X622300Y647700D02*
X607060Y647700D01*
X253660Y792480D02*
X238760Y792480D01*
X338160Y792480D02*
X350520Y792480D01*
X731012Y698500D02*
X731012Y653288D01*
X739140Y645160D01*
X760340Y645160D01*
X762000Y646820D01*
X805180Y646820D01*
X519820Y667240D02*
X519820Y685800D01*
X519820Y667240D02*
X521580Y665480D01*
X466200Y681160D02*
X459100Y681160D01*
X466200Y681160D02*
X471200Y686160D01*
X486220Y272660D02*
X499500Y272660D01*
X500380Y271780D01*
X681220Y612740D02*
X681220Y624340D01*
X678180Y627380D01*
X670560Y627380D01*
X666220Y623040D02*
X666220Y612740D01*
X666220Y623040D02*
X670560Y627380D01*
X703580Y195580D02*
X725520Y195580D01*
X703580Y195580D02*
X703580Y202320D01*
X703580Y195580D02*
X698500Y190500D01*
X698500Y183760D01*
X703580Y280280D02*
X703580Y287020D01*
X708660Y292100D01*
X708660Y296300D01*
X708660Y297180D02*
X708660Y299580D01*
X704340Y283580D02*
X725520Y283580D01*
X704340Y283580D02*
X703580Y280280D01*
X823720Y211580D02*
X839120Y211580D01*
X823720Y211580D02*
X822960Y210820D01*
X826000Y259580D02*
X839120Y259580D01*
X826000Y259580D02*
X825500Y259080D01*
X734060Y195580D02*
X725520Y195580D01*
X734060Y195580D02*
X741680Y187960D01*
D12*
X979678Y410442D02*
X979678Y498348D01*
X979678Y410442D02*
X1004040Y381000D01*
X982680Y294640D02*
X947180Y294640D01*
X982680Y294640D02*
X982680Y317200D01*
X1008380Y342900D01*
X1008380Y380260D01*
X1004040Y381000D01*
X934720Y335280D02*
X889000Y335280D01*
X863600Y335280D01*
X934720Y335280D02*
X947420Y322580D01*
X947420Y294880D01*
X947180Y294640D01*
D13*
X941210Y194870D02*
X925270Y194870D01*
X914400Y205740D01*
X914400Y210820D01*
X914400Y246380D01*
X944880Y276860D01*
X944880Y292340D01*
X947180Y294640D01*
D10*
X622580Y740410D02*
X585470Y740410D01*
X581660Y739140D01*
D11*
X899160Y212480D02*
X912740Y212480D01*
X914400Y210820D01*
X886460Y315840D02*
X886460Y332740D01*
X889000Y335280D01*
D13*
X708660Y297180D02*
X708660Y296300D01*
D10*
X596220Y612740D02*
X596220Y628360D01*
X586740Y636660D01*
X400720Y402240D02*
X364840Y402240D01*
X363220Y401320D01*
X361560Y401320D01*
X546220Y306740D02*
X546220Y272660D01*
X546100Y272660D01*
X545180Y402240D02*
X400720Y402240D01*
X545180Y402240D02*
X546100Y401320D01*
X546100Y306860D01*
X546220Y306740D01*
X596220Y535260D02*
X596220Y612740D01*
X596220Y535260D02*
X571500Y510540D01*
X694000Y582240D02*
X706720Y582240D01*
X694000Y582240D02*
X685800Y574040D01*
X706720Y547240D02*
X706720Y542240D01*
X706720Y547240D02*
X689740Y547240D01*
X685800Y551180D01*
X685800Y574040D01*
X451220Y623200D02*
X448700Y625720D01*
X451220Y623200D02*
X451220Y612740D01*
X448700Y625720D02*
X417440Y625720D01*
X411480Y622300D01*
X392040Y622300D01*
X931470Y201370D02*
X941210Y201370D01*
X931470Y201370D02*
X924560Y208280D01*
X924560Y246380D01*
X929640Y251460D01*
X946540Y251460D01*
X947420Y252340D01*
X975360Y252340D01*
D13*
X951790Y201370D02*
X941210Y201370D01*
X951790Y201370D02*
X955040Y198120D01*
X939800Y162560D02*
X922020Y162560D01*
X939800Y162560D02*
X955040Y177800D01*
X955040Y198120D01*
D10*
X706120Y601980D02*
X706120Y611260D01*
X706120Y601980D02*
X708660Y599440D01*
X723900Y599440D01*
X723900Y586740D01*
X719400Y582240D01*
X706720Y582240D01*
X723900Y599440D02*
X723900Y611260D01*
X733180Y611260D01*
X751840Y629920D01*
X789940Y629920D01*
X795020Y624840D01*
X795020Y605400D01*
D13*
X922020Y180340D02*
X922020Y162560D01*
X922020Y160020D01*
X922020Y180340D02*
X911860Y190500D01*
X886460Y190500D01*
X881380Y195580D01*
X881380Y281940D01*
X863600Y299720D01*
X863600Y314960D01*
X571500Y510540D02*
X513080Y510540D01*
X492760Y530860D01*
X464820Y530860D01*
X545180Y402240D02*
X552100Y402240D01*
X558800Y408940D01*
X558800Y421640D01*
X553720Y426720D01*
X520700Y426720D01*
X513080Y434340D01*
X513080Y510540D01*
X921780Y162560D02*
X922020Y162560D01*
D14*
X192160Y171840D02*
X192160Y180340D01*
X192160Y171840D02*
X161680Y141360D01*
X149860Y141360D01*
X149860Y137160D01*
X124460Y111760D01*
X124460Y83820D01*
X134620Y73660D01*
X166120Y73660D01*
X219075Y156718D02*
X219075Y170425D01*
X209160Y180340D01*
D10*
X561340Y87630D02*
X612140Y87630D01*
X561340Y87630D02*
X561340Y78740D01*
X553720Y71120D01*
X477520Y71120D01*
X467360Y81280D01*
X467360Y248920D01*
X457200Y259080D01*
X437700Y352240D02*
X400720Y352240D01*
X441960Y347980D02*
X441960Y330200D01*
X441960Y347980D02*
X437700Y352240D01*
X336160Y295520D02*
X336160Y287020D01*
X336160Y295520D02*
X392880Y352240D01*
X400720Y352240D01*
X706720Y382240D02*
X765840Y382240D01*
X772160Y193040D02*
X767080Y187960D01*
X829180Y171580D02*
X839120Y171580D01*
X829180Y171580D02*
X828040Y172720D01*
X772160Y193040D02*
X772160Y375920D01*
X765840Y382240D01*
X656220Y306740D02*
X656220Y296280D01*
X657860Y294640D01*
X657860Y182880D01*
X660400Y180340D01*
X713740Y180340D02*
X713740Y185420D01*
X715900Y187580D01*
X725520Y187580D01*
X725520Y123580D02*
X686680Y123580D01*
X652780Y157480D01*
X652780Y292100D01*
X651220Y293660D02*
X651220Y306740D01*
X651220Y293660D02*
X652780Y292100D01*
X687060Y115580D02*
X725520Y115580D01*
X687060Y115580D02*
X647700Y154940D01*
X647700Y289560D01*
X646220Y291040D02*
X646220Y306740D01*
X646220Y291040D02*
X647700Y289560D01*
X687440Y107580D02*
X725520Y107580D01*
X687440Y107580D02*
X642620Y152400D01*
X642620Y287020D01*
X641220Y288420D02*
X641220Y306740D01*
X641220Y288420D02*
X642620Y287020D01*
X687820Y99580D02*
X725520Y99580D01*
X687820Y99580D02*
X637540Y149860D01*
X637540Y284480D01*
X636220Y285800D02*
X636220Y306740D01*
X636220Y285800D02*
X637540Y284480D01*
X631220Y283180D02*
X631220Y306740D01*
X631220Y283180D02*
X632460Y281940D01*
X632460Y147320D01*
X670560Y109220D02*
X670560Y101600D01*
X670560Y109220D02*
X632460Y147320D01*
X826020Y99580D02*
X839120Y99580D01*
X826020Y99580D02*
X825500Y99060D01*
X626220Y280560D02*
X626220Y306740D01*
X626220Y280560D02*
X627380Y279400D01*
X627380Y144780D01*
X655320Y116840D02*
X655320Y106680D01*
X655320Y116840D02*
X627380Y144780D01*
X822060Y107580D02*
X839120Y107580D01*
X822060Y107580D02*
X820420Y109220D01*
X621220Y277940D02*
X621220Y306740D01*
X621220Y277940D02*
X622300Y276860D01*
X622300Y142240D01*
X640080Y124460D01*
X640080Y111760D01*
X826760Y115580D02*
X839120Y115580D01*
X826760Y115580D02*
X822960Y119380D01*
X817880Y119380D01*
X609600Y129540D02*
X601980Y137160D01*
X601980Y279400D01*
X606220Y283640D01*
X606220Y306740D01*
X609600Y129540D02*
X609600Y116840D01*
X828920Y123580D02*
X839120Y123580D01*
X828920Y123580D02*
X825500Y127000D01*
X810260Y127000D01*
X807720Y124460D01*
X599440Y132080D02*
X596900Y134620D01*
X596900Y281940D01*
X601220Y286260D01*
X601220Y306740D01*
X599440Y132080D02*
X599440Y124460D01*
X820920Y131580D02*
X839120Y131580D01*
X820920Y131580D02*
X817880Y134620D01*
X661220Y298900D02*
X661220Y306740D01*
X661220Y298900D02*
X662940Y297180D01*
X662940Y200660D01*
X670560Y193040D01*
X670560Y167640D01*
X825620Y139580D02*
X839120Y139580D01*
X825620Y139580D02*
X822960Y142240D01*
X789940Y142240D01*
X782320Y149860D01*
X725520Y131580D02*
X691380Y131580D01*
X688340Y134620D01*
X591220Y136560D02*
X591220Y306740D01*
X591220Y136560D02*
X589280Y134620D01*
X586220Y145300D02*
X586220Y306740D01*
X586220Y145300D02*
X581660Y142240D01*
X815080Y147580D02*
X839120Y147580D01*
X815080Y147580D02*
X812800Y149860D01*
X581220Y157920D02*
X581220Y306740D01*
X581220Y157920D02*
X574040Y149860D01*
X858520Y131200D02*
X858520Y116840D01*
X858520Y148200D02*
X852560Y148200D01*
X845180Y155580D02*
X839120Y155580D01*
X845180Y155580D02*
X852560Y148200D01*
X788300Y562240D02*
X706720Y562240D01*
X788300Y562240D02*
X795020Y568960D01*
X795020Y588400D01*
X278520Y287020D02*
X261620Y287020D01*
X400720Y387240D02*
X428100Y387240D01*
X429260Y386080D01*
X400720Y377240D02*
X379780Y377240D01*
X368880Y366340D02*
X304800Y366340D01*
X368880Y366340D02*
X379780Y377240D01*
X561220Y612740D02*
X561220Y744100D01*
X561340Y749300D01*
X557530Y753110D01*
X530580Y753110D01*
X556220Y721400D02*
X556220Y612740D01*
X556220Y721400D02*
X549910Y727710D01*
X530580Y727710D01*
X513080Y796680D02*
X512200Y797560D01*
X513080Y796680D02*
X513080Y731520D01*
X516890Y727710D01*
X530580Y727710D01*
X671220Y306740D02*
X671220Y208940D01*
X670560Y208280D01*
X795780Y179580D02*
X839120Y179580D01*
X795780Y179580D02*
X795020Y180340D01*
X622580Y727710D02*
X600710Y727710D01*
X594360Y721360D01*
X594360Y699080D01*
X593780Y698500D01*
X396600Y748660D02*
X396600Y761640D01*
X393700Y764540D01*
X519040Y134620D02*
X519040Y109220D01*
X519040Y87630D01*
X546100Y114300D02*
X546100Y241300D01*
X546100Y114300D02*
X541020Y109220D01*
X519040Y109220D01*
X534390Y739140D02*
X530580Y740410D01*
X534390Y739140D02*
X553720Y739140D01*
X544320Y412240D02*
X400720Y412240D01*
X544320Y412240D02*
X546100Y414020D01*
D13*
X519040Y87630D02*
X485140Y87630D01*
X519040Y87630D02*
X535940Y87630D01*
D10*
X401600Y662660D02*
X401600Y668660D01*
X408940Y632460D02*
X449580Y632460D01*
X408940Y632460D02*
X401320Y640080D01*
X401600Y662660D01*
X449580Y632460D02*
X456220Y625820D01*
X456220Y612740D01*
X459100Y691160D02*
X498120Y691160D01*
X505460Y698500D01*
X506340Y703580D01*
X476220Y612740D02*
X476220Y590580D01*
X477520Y584200D01*
X459100Y691160D02*
X442240Y691160D01*
X441960Y690880D01*
X491220Y651780D02*
X491220Y612740D01*
X491220Y651780D02*
X487320Y655680D01*
X444140Y655680D01*
X441600Y658220D01*
X441600Y668660D01*
X436600Y668660D02*
X436600Y655600D01*
X441960Y650240D01*
X482600Y650240D01*
X486220Y646620D01*
X486220Y612740D01*
X459100Y701160D02*
X439540Y701160D01*
X429260Y690880D01*
X461220Y612740D02*
X461220Y595420D01*
X457200Y591820D01*
X459100Y726160D02*
X451840Y726160D01*
X429260Y703580D01*
X447040Y576580D02*
X459740Y563880D01*
X480060Y563880D01*
X481220Y598280D02*
X481220Y612740D01*
X481220Y598280D02*
X485140Y594360D01*
X485140Y568960D02*
X480060Y563880D01*
X485140Y568960D02*
X485140Y594360D01*
X501220Y612740D02*
X501220Y623140D01*
X508000Y629920D01*
X467360Y734060D02*
X467360Y744220D01*
X464460Y731160D02*
X459100Y731160D01*
X464460Y731160D02*
X467360Y734060D01*
X459100Y736160D02*
X459100Y747400D01*
X457200Y749300D01*
X496220Y633380D02*
X496220Y612740D01*
X496220Y633380D02*
X500380Y637540D01*
X506220Y612740D02*
X506220Y585980D01*
X538480Y553720D01*
X553720Y553720D01*
X709168Y667512D02*
X709168Y698500D01*
X709168Y667512D02*
X723900Y652780D01*
X723900Y647700D01*
X521220Y612740D02*
X521220Y593840D01*
X538480Y576580D01*
X543560Y576580D01*
X741934Y673354D02*
X741934Y698500D01*
X741934Y673354D02*
X741680Y665480D01*
X743340Y663820D02*
X762000Y663820D01*
X743340Y663820D02*
X741680Y665480D01*
X541220Y612740D02*
X541220Y594160D01*
X543560Y591820D01*
X763778Y681482D02*
X763778Y698500D01*
X763778Y681482D02*
X764540Y680720D01*
X536220Y612740D02*
X536220Y586460D01*
X538480Y584200D02*
X553720Y584200D01*
X538480Y584200D02*
X536220Y586460D01*
X720090Y674370D02*
X720090Y698500D01*
X720090Y674370D02*
X718820Y673100D01*
X259080Y734940D02*
X236220Y734940D01*
X236220Y753500D01*
X110490Y694690D02*
X110490Y665480D01*
X110490Y694690D02*
X124460Y708660D01*
X190500Y708660D01*
X203000Y696160D02*
X259080Y696160D01*
X379100Y696160D01*
X203000Y696160D02*
X190500Y708660D01*
X259080Y717940D02*
X259080Y696160D01*
X148590Y692150D02*
X148590Y690880D01*
X148590Y692150D02*
X160020Y703580D01*
X187960Y703580D01*
X236220Y706120D02*
X236220Y717940D01*
X322860Y691160D02*
X379100Y691160D01*
X322860Y691160D02*
X317500Y685800D01*
X254000Y685800D01*
X205740Y685800D01*
X187960Y703580D01*
X256540Y665480D02*
X256540Y651120D01*
X335640Y686160D02*
X379100Y686160D01*
X335640Y686160D02*
X332740Y683260D01*
X190500Y690880D02*
X173990Y690880D01*
X190500Y690880D02*
X205740Y675640D01*
X233680Y675640D01*
X325120Y675640D01*
X327660Y673100D01*
X337820Y673100D01*
X345440Y680720D01*
X378660Y680720D01*
X379100Y681160D01*
X233680Y675640D02*
X233680Y651120D01*
X135890Y665480D02*
X123190Y690880D01*
X159630Y634120D02*
X233680Y634120D01*
X159630Y634120D02*
X135890Y665480D01*
X233680Y634120D02*
X256540Y634120D01*
X279400Y634120D01*
X304400Y634120D01*
X302260Y633720D01*
X170180Y802640D02*
X170180Y803402D01*
X170180Y802640D02*
X190500Y782320D01*
X256540Y782320D01*
X259080Y779780D01*
X259080Y770500D01*
X299720Y753500D02*
X320040Y753500D01*
X329320Y753500D01*
X330200Y754380D01*
X330200Y774700D01*
X335280Y779780D01*
X416600Y754340D02*
X416600Y748660D01*
X391160Y779780D02*
X335280Y779780D01*
X391160Y779780D02*
X416600Y754340D01*
X279400Y753500D02*
X259080Y753500D01*
X421600Y756960D02*
X421600Y748660D01*
X421600Y756960D02*
X375920Y802640D01*
X299720Y802640D01*
X289560Y792480D01*
X289560Y756920D01*
X287020Y754380D01*
X280280Y754380D01*
X279400Y753500D01*
X379100Y711160D02*
X414020Y711160D01*
X419100Y711200D01*
X431800Y787400D02*
X431800Y789060D01*
X406400Y789060D02*
X406400Y787400D01*
X373380Y762000D02*
X359420Y762000D01*
X496580Y754380D02*
X496580Y753100D01*
X497840Y772160D01*
X419100Y787400D02*
X408060Y787400D01*
X419100Y787400D02*
X431800Y787400D01*
X408060Y787400D02*
X406400Y789060D01*
X419100Y787400D02*
X419100Y772160D01*
X359020Y741680D02*
X359020Y721360D01*
X379100Y721160D02*
X379100Y716160D01*
X379100Y721160D02*
X402200Y721160D01*
X359020Y721360D01*
X359020Y741680D02*
X353060Y746760D01*
X345440Y754380D01*
X345440Y758180D01*
X341620Y762000D01*
X478780Y754380D02*
X479180Y731520D01*
X472400Y711160D02*
X459100Y711160D01*
X472400Y711160D02*
X480060Y718820D01*
X479180Y731520D01*
X379100Y706160D02*
X379100Y701160D01*
X322580Y717940D02*
X302260Y717940D01*
X284480Y735720D01*
X281940Y735340D01*
X327620Y706160D02*
X379100Y706160D01*
X327620Y706160D02*
X322580Y711200D01*
X322580Y717940D01*
X325120Y393700D02*
X332740Y386080D01*
X370840Y386080D01*
X377000Y392240D01*
X400720Y392240D01*
X325120Y393700D02*
X320920Y393700D01*
X346320Y375920D02*
X368300Y375920D01*
X374620Y382240D01*
X400720Y382240D01*
X279400Y770500D02*
X279400Y777240D01*
X274660Y781980D01*
X274660Y792480D01*
X320040Y777240D02*
X320040Y770500D01*
X320040Y777240D02*
X317160Y781980D01*
X317160Y792480D01*
X299720Y787400D02*
X299720Y770500D01*
X351400Y622300D02*
X353060Y622300D01*
X353060Y637540D01*
X360680Y637540D01*
X406600Y668660D02*
X406600Y675440D01*
X406400Y690880D01*
X353060Y649360D02*
X353060Y637540D01*
X353060Y649360D02*
X351400Y650240D01*
X706720Y522240D02*
X714740Y522240D01*
X759460Y477520D01*
X759460Y464480D01*
X771820Y452120D01*
X719980Y532240D02*
X706720Y532240D01*
X719980Y532240D02*
X759460Y492760D01*
X771820Y492760D01*
X792820Y492760D02*
X809380Y492760D01*
X809380Y472440D02*
X792820Y472440D01*
X792820Y452120D02*
X809380Y452120D01*
X91440Y210820D02*
X78740Y223520D01*
X91440Y210820D02*
X144780Y210820D01*
X149860Y215900D01*
X200660Y215900D01*
X215900Y231140D01*
X223520Y238760D01*
X248920Y238760D01*
X294640Y281940D01*
X294640Y287020D01*
X295520Y287020D02*
X319160Y287020D01*
X320040Y287020D01*
X320040Y287900D01*
X319160Y287020D01*
X324240Y291220D01*
X390260Y357240D01*
X400720Y357240D01*
X937260Y70240D02*
X960120Y70240D01*
X916280Y73360D02*
X916280Y66700D01*
X934720Y58420D02*
X937260Y60960D01*
X937260Y70240D01*
X295520Y287020D02*
X294640Y287020D01*
X820420Y63500D02*
X883920Y63500D01*
X889000Y58420D01*
X916280Y58420D01*
X916280Y73360D01*
X916280Y58420D02*
X934720Y58420D01*
D11*
X982980Y88900D02*
X982980Y111760D01*
X977900Y116840D01*
X945760Y116840D01*
X897280Y109880D02*
X897280Y99360D01*
X897280Y109880D02*
X904240Y116840D01*
X919480Y116840D01*
X928760Y116840D01*
X916280Y113640D02*
X916280Y99360D01*
X916280Y113640D02*
X919480Y116840D01*
D10*
X566220Y612740D02*
X566420Y612940D01*
X566420Y759460D01*
X560070Y765810D01*
X530580Y765810D01*
X571500Y613020D02*
X571220Y612740D01*
X571500Y613020D02*
X571500Y749300D01*
X588010Y765810D01*
X622580Y765810D01*
X167640Y515620D02*
X91440Y515620D01*
X167640Y515620D02*
X205740Y553720D01*
X381000Y553720D01*
X387480Y547240D01*
X400720Y547240D01*
X91440Y515620D02*
X78740Y502920D01*
X210820Y548640D02*
X378460Y548640D01*
X384860Y542240D01*
X400720Y542240D01*
X165100Y502920D02*
X104140Y502920D01*
X165100Y502920D02*
X210820Y548640D01*
X215900Y543560D02*
X375920Y543560D01*
X382240Y537240D01*
X400720Y537240D01*
X162560Y490220D02*
X91440Y490220D01*
X162560Y490220D02*
X215900Y543560D01*
X91440Y490220D02*
X78740Y477520D01*
X104140Y477520D02*
X160020Y477520D01*
X220980Y538480D02*
X373380Y538480D01*
X379620Y532240D01*
X400720Y532240D01*
X220980Y538480D02*
X160020Y477520D01*
X157480Y464820D02*
X91440Y464820D01*
X78740Y452120D01*
X157480Y464820D02*
X205740Y513080D01*
X377540Y517240D02*
X400720Y517240D01*
X377540Y517240D02*
X373380Y513080D01*
X205740Y513080D01*
X380160Y512240D02*
X400720Y512240D01*
X380160Y512240D02*
X375920Y508000D01*
X210820Y508000D01*
X154940Y452120D02*
X104140Y452120D01*
X154940Y452120D02*
X210820Y508000D01*
X152400Y439420D02*
X91440Y439420D01*
X78740Y426720D01*
X382780Y507240D02*
X400720Y507240D01*
X382780Y507240D02*
X378460Y502920D01*
X215900Y502920D01*
X152400Y439420D01*
X385400Y502240D02*
X400720Y502240D01*
X385400Y502240D02*
X381000Y497840D01*
X149860Y426720D02*
X104140Y426720D01*
X149860Y426720D02*
X220980Y497840D01*
X381000Y497840D01*
X147320Y414020D02*
X91440Y414020D01*
X78740Y401320D01*
X147320Y414020D02*
X226060Y492760D01*
X388020Y497240D02*
X400720Y497240D01*
X388020Y497240D02*
X383540Y492760D01*
X226060Y492760D01*
X144780Y401320D02*
X104140Y401320D01*
X144780Y401320D02*
X231140Y487680D01*
X390640Y492240D02*
X400720Y492240D01*
X390640Y492240D02*
X386080Y487680D01*
X231140Y487680D01*
X400720Y487240D02*
X413580Y487240D01*
X431800Y505460D01*
X431800Y510540D01*
X421280Y482240D02*
X400720Y482240D01*
X421280Y482240D02*
X444500Y505460D01*
X444500Y515620D01*
X676220Y485720D02*
X676220Y612740D01*
X676220Y485720D02*
X662940Y472440D01*
X528320Y472440D01*
X671220Y511200D02*
X671220Y612740D01*
X671220Y511200D02*
X660400Y500380D01*
X528320Y500380D01*
X471220Y328880D02*
X471220Y306740D01*
X471220Y328880D02*
X472440Y330200D01*
X464820Y337820D02*
X490220Y337820D01*
X496220Y331820D02*
X496220Y306740D01*
X496220Y331820D02*
X490220Y337820D01*
X480060Y345440D02*
X459740Y345440D01*
X456220Y341920D02*
X456220Y306740D01*
X456220Y341920D02*
X459740Y345440D01*
X533120Y442240D02*
X706720Y442240D01*
X533120Y442240D02*
X528320Y447040D01*
X400720Y587240D02*
X137660Y587240D01*
X78740Y528320D01*
X426220Y578620D02*
X426220Y612740D01*
X426220Y578620D02*
X424180Y576580D01*
X400720Y417240D02*
X386760Y417240D01*
X386080Y416560D01*
X244090Y279650D02*
X193040Y228600D01*
X244090Y279650D02*
X244090Y347980D01*
X244090Y371250D01*
X142240Y388620D02*
X91440Y388620D01*
X78740Y375920D01*
X142240Y388620D02*
X236220Y482600D01*
X373380Y482600D01*
X378740Y477240D01*
X400720Y477240D01*
X400720Y462240D02*
X375880Y462240D01*
X370840Y457200D01*
X289560Y449580D02*
X213360Y449580D01*
X289560Y449580D02*
X297180Y457200D01*
X370840Y457200D01*
X139700Y375920D02*
X104140Y375920D01*
X139700Y375920D02*
X213360Y449580D01*
X124460Y325120D02*
X104140Y325120D01*
X124460Y325120D02*
X132080Y332740D01*
X132080Y358140D01*
X378500Y457240D02*
X400720Y457240D01*
X378500Y457240D02*
X373380Y452120D01*
X292100Y444500D02*
X218440Y444500D01*
X292100Y444500D02*
X299720Y452120D01*
X373380Y452120D01*
X218440Y444500D02*
X132080Y358140D01*
X127000Y299720D02*
X104140Y299720D01*
X127000Y299720D02*
X139700Y312420D01*
X139700Y355600D01*
X381120Y452240D02*
X400720Y452240D01*
X381120Y452240D02*
X375920Y447040D01*
X294640Y439420D02*
X223520Y439420D01*
X294640Y439420D02*
X302260Y447040D01*
X375920Y447040D01*
X223520Y439420D02*
X139700Y355600D01*
X380160Y407240D02*
X400720Y407240D01*
X380160Y407240D02*
X375920Y411480D01*
X246380Y411480D01*
X383740Y447240D02*
X400720Y447240D01*
X383740Y447240D02*
X378460Y441960D01*
X297180Y434340D02*
X228600Y434340D01*
X297180Y434340D02*
X304800Y441960D01*
X378460Y441960D01*
X193040Y398780D02*
X193040Y355600D01*
X193040Y398780D02*
X228600Y434340D01*
X706720Y527240D02*
X717020Y527240D01*
X771820Y472440D01*
X391160Y271780D02*
X384420Y271780D01*
X391160Y271780D02*
X403860Y284480D01*
X403860Y309880D01*
X416560Y322580D01*
X416560Y342900D01*
X412220Y347240D01*
X400720Y347240D01*
X976070Y201370D02*
X984110Y201370D01*
X976070Y201370D02*
X972820Y198120D01*
X972820Y177800D01*
X977900Y172720D01*
X977900Y160900D01*
D13*
X996696Y476504D02*
X996696Y498348D01*
X996696Y476504D02*
X1000760Y472440D01*
D10*
X1001470Y201370D02*
X984110Y201370D01*
X1001470Y201370D02*
X1005840Y205740D01*
X334440Y228600D02*
X332740Y230300D01*
X334440Y228600D02*
X360680Y228600D01*
X878840Y86360D02*
X886460Y93980D01*
X886460Y114300D01*
X904240Y132080D01*
X955040Y132080D01*
X967740Y144780D01*
X967740Y157480D01*
X970280Y160020D01*
X977020Y160020D01*
X977900Y160900D01*
X343080Y251460D02*
X342240Y252300D01*
X343080Y251460D02*
X367420Y251460D01*
X367420Y271780D01*
D15*
X973940Y796140D02*
X973940Y797560D01*
X973940Y796140D02*
X947420Y769620D01*
X947420Y706120D01*
X952500Y698500D01*
X954180Y670560D01*
D12*
X945642Y498348D02*
X945642Y415522D01*
X906040Y381000D01*
X871220Y393700D02*
X871220Y435200D01*
X871220Y393700D02*
X881380Y383540D01*
X908580Y383540D01*
X906040Y381000D01*
D10*
X984110Y194870D02*
X1004010Y194870D01*
X1005840Y193040D01*
X1005840Y183760D01*
X992730Y188370D02*
X984110Y188370D01*
X992730Y188370D02*
X995680Y185420D01*
X995680Y170180D01*
X998220Y167640D01*
X1004960Y167640D01*
X1005840Y166760D01*
X998220Y235340D02*
X975360Y235340D01*
X984110Y207870D02*
X995270Y207870D01*
X998220Y210820D01*
X998220Y235340D01*
X941210Y207870D02*
X932590Y207870D01*
X929640Y210820D01*
X929640Y231140D01*
X932180Y233680D01*
X945760Y233680D01*
X947420Y235340D01*
X731000Y291580D02*
X725520Y291580D01*
X731000Y291580D02*
X734060Y294640D01*
X714320Y337240D02*
X706720Y337240D01*
X734060Y317500D02*
X734060Y294640D01*
X734060Y317500D02*
X714320Y337240D01*
X831100Y291580D02*
X839120Y291580D01*
X831100Y291580D02*
X828040Y294640D01*
X794660Y437240D02*
X706720Y437240D01*
X828040Y403860D02*
X828040Y294640D01*
X828040Y403860D02*
X794660Y437240D01*
X829320Y275580D02*
X839120Y275580D01*
X829320Y275580D02*
X822960Y281940D01*
X792040Y432240D02*
X706720Y432240D01*
X822960Y401320D02*
X822960Y281940D01*
X822960Y401320D02*
X792040Y432240D01*
X824620Y267580D02*
X839120Y267580D01*
X824620Y267580D02*
X817880Y274320D01*
X789420Y427240D02*
X706720Y427240D01*
X817880Y398780D02*
X817880Y274320D01*
X817880Y398780D02*
X789420Y427240D01*
X822840Y251580D02*
X839120Y251580D01*
X822840Y251580D02*
X812800Y261620D01*
X786800Y422240D02*
X706720Y422240D01*
X812800Y396240D02*
X812800Y261620D01*
X812800Y396240D02*
X786800Y422240D01*
X820680Y243580D02*
X839120Y243580D01*
X820680Y243580D02*
X807720Y256540D01*
X784180Y417240D02*
X706720Y417240D01*
X807720Y393700D02*
X807720Y256540D01*
X807720Y393700D02*
X784180Y417240D01*
X808740Y227580D02*
X839120Y227580D01*
X808740Y227580D02*
X802640Y233680D01*
X781560Y412240D02*
X706720Y412240D01*
X802640Y391160D02*
X802640Y233680D01*
X802640Y391160D02*
X781560Y412240D01*
X809120Y219580D02*
X839120Y219580D01*
X809120Y219580D02*
X797560Y231140D01*
X778940Y407240D02*
X706720Y407240D01*
X797560Y388620D02*
X797560Y231140D01*
X797560Y388620D02*
X778940Y407240D01*
X817500Y203580D02*
X839120Y203580D01*
X817500Y203580D02*
X792480Y228600D01*
X776320Y402240D02*
X706720Y402240D01*
X792480Y386080D02*
X792480Y228600D01*
X792480Y386080D02*
X776320Y402240D01*
X773700Y397240D02*
X706720Y397240D01*
X773700Y397240D02*
X787400Y383540D01*
X795020Y205740D02*
X802640Y205740D01*
X795020Y205740D02*
X787400Y213360D01*
X787400Y383540D01*
X752220Y203580D02*
X725520Y203580D01*
X752220Y203580D02*
X754380Y205740D01*
X750440Y219580D02*
X725520Y219580D01*
X750440Y219580D02*
X764540Y233680D01*
X730040Y367240D02*
X706720Y367240D01*
X764540Y332740D02*
X764540Y233680D01*
X764540Y332740D02*
X730040Y367240D01*
X725520Y227580D02*
X750820Y227580D01*
X759460Y236220D01*
X727420Y362240D02*
X706720Y362240D01*
X759460Y330200D02*
X759460Y236220D01*
X759460Y330200D02*
X727420Y362240D01*
X725520Y243580D02*
X731260Y243580D01*
X754380Y266700D01*
X724800Y357240D02*
X706720Y357240D01*
X754380Y327660D02*
X754380Y266700D01*
X754380Y327660D02*
X724800Y357240D01*
X725520Y251580D02*
X731640Y251580D01*
X749300Y269240D01*
X722180Y352240D02*
X706720Y352240D01*
X749300Y325120D02*
X749300Y269240D01*
X749300Y325120D02*
X722180Y352240D01*
X725520Y267580D02*
X734940Y267580D01*
X744220Y276860D01*
X719560Y347240D02*
X706720Y347240D01*
X744220Y322580D02*
X744220Y276860D01*
X744220Y322580D02*
X719560Y347240D01*
X725520Y275580D02*
X732780Y275580D01*
X739140Y281940D01*
X716940Y342240D02*
X706720Y342240D01*
X739140Y320040D02*
X739140Y281940D01*
X739140Y320040D02*
X716940Y342240D01*
X243967Y177047D02*
X243967Y156718D01*
X243967Y177047D02*
X247260Y180340D01*
X243840Y183760D02*
X243840Y197240D01*
X243840Y183760D02*
X247260Y180340D01*
X243840Y197240D02*
X243840Y198120D01*
X224400Y198120D01*
X223520Y197240D01*
D12*
X883680Y670560D02*
X910180Y670560D01*
X903732Y498348D02*
X928624Y498348D01*
X903732Y498348D02*
X891540Y510540D01*
X891540Y640080D01*
X906780Y655320D01*
X906780Y667160D01*
X910180Y670560D01*
D10*
X977900Y143900D02*
X997340Y143900D01*
X998220Y144780D01*
D14*
X928624Y471424D02*
X928624Y498348D01*
X928624Y471424D02*
X927100Y469900D01*
X157480Y96520D02*
X137160Y96520D01*
D13*
X137160Y96660D02*
X166120Y96660D01*
X137160Y96520D02*
X137160Y96660D01*
M02*
