G75*
G70*
%OFA0B0*%
%FSLAX24Y24*%
%IPPOS*%
%LPD*%
%AMOC8*
5,1,8,0,0,1.08239X$1,22.5*
%
%ADD10C,0.0070*%
D10*
X004483Y001038D02*
X004483Y001365D01*
X004565Y001447D01*
X004810Y001447D01*
X004810Y000956D01*
X004565Y000956D01*
X004483Y001038D01*
X004999Y000956D02*
X004999Y001447D01*
X005326Y001447D02*
X004999Y000956D01*
X005326Y000956D02*
X005326Y001447D01*
X005515Y001365D02*
X005596Y001447D01*
X005760Y001447D01*
X005842Y001365D01*
X005842Y001038D01*
X005760Y000956D01*
X005596Y000956D01*
X005515Y001038D01*
X005515Y001202D01*
X005678Y001202D01*
X005678Y001956D02*
X005515Y002120D01*
X005515Y002447D01*
X005326Y002365D02*
X005326Y002038D01*
X005244Y001956D01*
X005081Y001956D01*
X004999Y002038D01*
X004810Y002038D02*
X004729Y001956D01*
X004565Y001956D01*
X004483Y002038D01*
X004483Y002365D02*
X004565Y002447D01*
X004729Y002447D01*
X004810Y002365D01*
X004810Y002038D01*
X004999Y002365D02*
X005081Y002447D01*
X005244Y002447D01*
X005326Y002365D01*
X005678Y001956D02*
X005842Y002120D01*
X005842Y002447D01*
X005859Y002956D02*
X005859Y003447D01*
X006022Y003283D01*
X006185Y003447D01*
X006185Y002956D01*
X005670Y003038D02*
X005588Y002956D01*
X005425Y002956D01*
X005343Y003038D01*
X005343Y003365D01*
X005425Y003447D01*
X005588Y003447D01*
X005670Y003365D01*
X005670Y003038D01*
X005154Y003038D02*
X005072Y002956D01*
X004909Y002956D01*
X004827Y003038D01*
X004827Y003120D01*
X004909Y003202D01*
X005072Y003202D01*
X005154Y003283D01*
X005154Y003365D01*
X005072Y003447D01*
X004909Y003447D01*
X004827Y003365D01*
X004639Y003447D02*
X004475Y003447D01*
X004557Y003447D02*
X004557Y002956D01*
X004639Y002956D02*
X004475Y002956D01*
X004483Y003956D02*
X004729Y004202D01*
X004810Y004120D02*
X004483Y004447D01*
X004810Y004447D02*
X004810Y003956D01*
X004999Y004038D02*
X005081Y003956D01*
X005244Y003956D01*
X005326Y004038D01*
X005326Y004365D01*
X005244Y004447D01*
X005081Y004447D01*
X004999Y004365D01*
X005515Y004365D02*
X005596Y004447D01*
X005760Y004447D01*
X005842Y004365D01*
X005842Y004283D01*
X005760Y004202D01*
X005596Y004202D01*
X005515Y004120D01*
X005515Y004038D01*
X005596Y003956D01*
X005760Y003956D01*
X005842Y004038D01*
X005859Y004956D02*
X005859Y005447D01*
X006022Y005283D01*
X006185Y005447D01*
X006185Y004956D01*
X005670Y004956D02*
X005506Y004956D01*
X005588Y004956D02*
X005588Y005447D01*
X005670Y005447D02*
X005506Y005447D01*
X005326Y005365D02*
X005326Y005283D01*
X005244Y005202D01*
X005081Y005202D01*
X004999Y005120D01*
X004999Y005038D01*
X005081Y004956D01*
X005244Y004956D01*
X005326Y005038D01*
X005326Y005365D02*
X005244Y005447D01*
X005081Y005447D01*
X004999Y005365D01*
X004810Y005365D02*
X004810Y005038D01*
X004729Y004956D01*
X004565Y004956D01*
X004484Y005038D01*
X004484Y005365D01*
X004565Y005447D01*
X004729Y005447D01*
X004810Y005365D01*
X004729Y005956D02*
X004565Y005956D01*
X004483Y006038D01*
X004483Y006120D01*
X004565Y006202D01*
X004729Y006202D01*
X004810Y006283D01*
X004810Y006365D01*
X004729Y006447D01*
X004565Y006447D01*
X004483Y006365D01*
X004330Y006586D02*
X005361Y006586D01*
X005244Y006447D02*
X005326Y006365D01*
X005326Y006038D01*
X005244Y005956D01*
X005081Y005956D01*
X004999Y006038D01*
X004810Y006038D02*
X004729Y005956D01*
X004999Y006365D02*
X005081Y006447D01*
X005244Y006447D01*
X005326Y006956D02*
X004999Y006956D01*
X004810Y006956D02*
X004565Y006956D01*
X004484Y007038D01*
X004484Y007365D01*
X004565Y007447D01*
X004810Y007447D01*
X004810Y006956D01*
X005326Y006956D02*
X005326Y007447D01*
X005515Y007365D02*
X005596Y007447D01*
X005760Y007447D01*
X005842Y007365D01*
X005842Y007038D01*
X005760Y006956D01*
X005596Y006956D01*
X005515Y007038D01*
X005515Y007365D01*
X006030Y007447D02*
X006030Y006956D01*
X006030Y007202D02*
X006357Y007202D01*
X006357Y007447D02*
X006357Y006956D01*
X006392Y007586D02*
X004330Y007586D01*
M02*
