G75*
G70*
%OFA0B0*%
%FSLAX24Y24*%
%IPPOS*%
%LPD*%
%AMOC8*
5,1,8,0,0,1.08239X$1,22.5*
%
%ADD10C,0.0000*%
%ADD11C,0.0520*%
%ADD12OC8,0.0520*%
%ADD13R,0.0260X0.0800*%
%ADD14R,0.0520X0.2756*%
%ADD15C,0.0050*%
%ADD16C,0.0160*%
%ADD17C,0.0320*%
%ADD18C,0.0475*%
%ADD19C,0.0460*%
D10*
X000431Y003135D02*
X000431Y022131D01*
X010801Y022131D01*
X010801Y003135D01*
X009181Y003135D01*
X002181Y003135D02*
X000431Y003135D01*
D11*
X001181Y012375D02*
X001181Y012895D01*
X002181Y012895D02*
X002181Y012375D01*
X003181Y012375D02*
X003181Y012895D01*
X004181Y012895D02*
X004181Y012375D01*
X005181Y012375D02*
X005181Y012895D01*
X006181Y012895D02*
X006181Y012375D01*
X007181Y012375D02*
X007181Y012895D01*
X008181Y012895D02*
X008181Y012375D01*
X009181Y012375D02*
X009181Y012895D01*
X010181Y012895D02*
X010181Y012375D01*
X010181Y018375D02*
X010181Y018895D01*
X009181Y018895D02*
X009181Y018375D01*
X008181Y018375D02*
X008181Y018895D01*
X007181Y018895D02*
X007181Y018375D01*
X006181Y018375D02*
X006181Y018895D01*
X005181Y018895D02*
X005181Y018375D01*
X004181Y018375D02*
X004181Y018895D01*
X003181Y018895D02*
X003181Y018375D01*
X002181Y018375D02*
X002181Y018895D01*
X001181Y018895D02*
X001181Y018375D01*
D12*
X001181Y019635D03*
X002181Y019635D03*
X002181Y021635D03*
X001181Y021635D03*
X004181Y021635D03*
X005181Y021635D03*
X006181Y021635D03*
X007181Y021635D03*
X007181Y019635D03*
X006181Y019635D03*
X005181Y019635D03*
X004181Y019635D03*
X004181Y011635D03*
X005181Y011635D03*
X006181Y011635D03*
X007181Y011635D03*
X007181Y009635D03*
X006181Y009635D03*
X005181Y009635D03*
X004181Y009635D03*
X002181Y009635D03*
X001181Y009635D03*
X001181Y011635D03*
X002181Y011635D03*
X004431Y004885D03*
X005431Y004885D03*
X008931Y004885D03*
X009931Y004885D03*
X010181Y009635D03*
X009181Y009635D03*
X009181Y011635D03*
X010181Y011635D03*
X010181Y019635D03*
X009181Y019635D03*
X009181Y021635D03*
X010181Y021635D03*
D13*
X009431Y008345D03*
X008931Y008345D03*
X008431Y008345D03*
X007931Y008345D03*
X007431Y008345D03*
X006931Y008345D03*
X006431Y008345D03*
X005931Y008345D03*
X004931Y008345D03*
X004431Y008345D03*
X003931Y008345D03*
X003431Y008345D03*
X002931Y008345D03*
X002431Y008345D03*
X001931Y008345D03*
X001431Y008345D03*
X001431Y005925D03*
X001931Y005925D03*
X002431Y005925D03*
X002931Y005925D03*
X003431Y005925D03*
X003931Y005925D03*
X004431Y005925D03*
X004931Y005925D03*
X005931Y005925D03*
X006431Y005925D03*
X006931Y005925D03*
X007431Y005925D03*
X007931Y005925D03*
X008431Y005925D03*
X008931Y005925D03*
X009431Y005925D03*
D14*
X008181Y001660D03*
X007181Y001660D03*
X006181Y001660D03*
X005181Y001660D03*
X004181Y001660D03*
X003181Y001660D03*
D15*
X002181Y000722D02*
X002619Y000285D01*
X008744Y000285D01*
X008619Y000135D01*
X002744Y000135D01*
X002619Y000285D01*
X002181Y000722D01*
X002744Y000160D01*
X002744Y000160D01*
X002619Y000285D01*
X002181Y000722D02*
X002181Y003135D01*
X008619Y000160D02*
X009181Y000722D01*
X009181Y003135D01*
X008619Y000160D02*
X008619Y000160D01*
D16*
X007181Y001660D02*
X007181Y003135D01*
X008431Y004385D01*
X008431Y005925D01*
X008181Y006535D02*
X008109Y006565D01*
X007754Y006565D01*
X007681Y006535D01*
X007609Y006565D01*
X007254Y006565D01*
X007181Y006535D01*
X007109Y006565D01*
X006754Y006565D01*
X006711Y006547D01*
X006703Y006566D01*
X006453Y006816D01*
X006363Y006906D01*
X006245Y006955D01*
X005454Y006955D01*
X005703Y007204D01*
X005751Y007321D01*
X005751Y007449D01*
X005751Y007772D01*
X005778Y007765D01*
X005931Y007765D01*
X005931Y008345D01*
X005931Y007385D01*
X006181Y007135D01*
X008181Y007135D01*
X008254Y006565D02*
X008181Y006535D01*
X008254Y006565D02*
X008609Y006565D01*
X008611Y006564D01*
X008611Y006821D01*
X008611Y006949D01*
X008660Y007066D01*
X008910Y007316D01*
X009000Y007406D01*
X009118Y007455D01*
X009549Y007455D01*
X009861Y007768D01*
X009861Y008862D01*
X009799Y008800D01*
X009801Y008793D01*
X009801Y007897D01*
X009765Y007809D01*
X009697Y007741D01*
X009609Y007705D01*
X009254Y007705D01*
X009181Y007735D01*
X009109Y007705D01*
X008754Y007705D01*
X008681Y007735D01*
X008609Y007705D01*
X008254Y007705D01*
X008181Y007735D01*
X008109Y007705D01*
X007754Y007705D01*
X007681Y007735D01*
X007609Y007705D01*
X007254Y007705D01*
X007181Y007735D01*
X007109Y007705D01*
X006754Y007705D01*
X006681Y007735D01*
X006609Y007705D01*
X006254Y007705D01*
X006165Y007741D01*
X006130Y007777D01*
X006085Y007765D01*
X005932Y007765D01*
X005932Y008345D01*
X005931Y008345D01*
X005931Y008245D02*
X005932Y008245D01*
X005931Y008086D02*
X005932Y008086D01*
X005931Y007928D02*
X005932Y007928D01*
X005931Y007769D02*
X005932Y007769D01*
X005761Y007769D02*
X005751Y007769D01*
X005751Y007611D02*
X009705Y007611D01*
X009725Y007769D02*
X009861Y007769D01*
X009861Y007928D02*
X009801Y007928D01*
X009801Y008086D02*
X009861Y008086D01*
X009861Y008245D02*
X009801Y008245D01*
X009801Y008404D02*
X009861Y008404D01*
X009861Y008562D02*
X009801Y008562D01*
X009801Y008721D02*
X009861Y008721D01*
X009681Y009135D02*
X009681Y021135D01*
X010181Y021635D01*
X009181Y021635D02*
X008681Y021135D01*
X008681Y009135D01*
X008431Y008885D01*
X008431Y008345D01*
X007931Y008885D02*
X008181Y009135D01*
X008181Y010135D01*
X007681Y010635D01*
X007681Y021135D01*
X007181Y021635D01*
X006681Y021135D02*
X006181Y021635D01*
X005681Y021135D02*
X005181Y021635D01*
X004681Y021135D02*
X004181Y021635D01*
X004681Y021135D02*
X004681Y009135D01*
X004431Y008885D01*
X004431Y008345D01*
X004181Y007735D02*
X004109Y007705D01*
X003754Y007705D01*
X003681Y007735D01*
X003609Y007705D01*
X003254Y007705D01*
X003181Y007735D01*
X003109Y007705D01*
X002754Y007705D01*
X002681Y007735D01*
X002609Y007705D01*
X002254Y007705D01*
X002181Y007735D01*
X002109Y007705D01*
X001754Y007705D01*
X001665Y007741D01*
X001630Y007777D01*
X001585Y007765D01*
X001432Y007765D01*
X001432Y008345D01*
X001431Y008345D01*
X001431Y008345D01*
X001121Y008345D01*
X001121Y008769D01*
X001134Y008814D01*
X001157Y008855D01*
X001191Y008889D01*
X001232Y008913D01*
X001278Y008925D01*
X001431Y008925D01*
X001431Y008345D01*
X001121Y008345D01*
X001121Y007921D01*
X001134Y007875D01*
X001157Y007834D01*
X001191Y007801D01*
X001232Y007777D01*
X001278Y007765D01*
X001431Y007765D01*
X001431Y008345D01*
X001431Y007385D01*
X001533Y007401D02*
X001461Y007228D01*
X001461Y007041D01*
X001533Y006869D01*
X001611Y006790D01*
X001611Y006564D01*
X001609Y006565D01*
X001254Y006565D01*
X001165Y006528D01*
X001098Y006461D01*
X001061Y006373D01*
X001061Y005477D01*
X001098Y005389D01*
X001111Y005376D01*
X001111Y004949D01*
X001111Y004821D01*
X001160Y004704D01*
X002000Y003864D01*
X002118Y003815D01*
X002245Y003815D01*
X002799Y003815D01*
X003396Y003217D01*
X003231Y003217D01*
X003231Y003135D01*
X003131Y003135D01*
X003131Y003217D01*
X002898Y003217D01*
X002852Y003205D01*
X002811Y003182D01*
X002778Y003148D01*
X002770Y003135D01*
X002686Y003135D01*
X002686Y003235D01*
X002609Y003421D01*
X002467Y003563D01*
X002282Y003640D01*
X002081Y003640D01*
X002021Y003615D01*
X000911Y003615D01*
X000911Y009198D01*
X000974Y009135D01*
X001229Y009135D01*
X001439Y008925D01*
X001432Y008925D01*
X001432Y008345D01*
X001431Y008345D01*
X001431Y008404D02*
X001432Y008404D01*
X001431Y008562D02*
X001432Y008562D01*
X001431Y008721D02*
X001432Y008721D01*
X001431Y008879D02*
X001432Y008879D01*
X001326Y009038D02*
X000911Y009038D01*
X000911Y009196D02*
X000913Y009196D01*
X000911Y008879D02*
X001181Y008879D01*
X001121Y008721D02*
X000911Y008721D01*
X000911Y008562D02*
X001121Y008562D01*
X001121Y008404D02*
X000911Y008404D01*
X000911Y008245D02*
X001121Y008245D01*
X001121Y008086D02*
X000911Y008086D01*
X000911Y007928D02*
X001121Y007928D01*
X001261Y007769D02*
X000911Y007769D01*
X000911Y007611D02*
X005111Y007611D01*
X005111Y007518D02*
X005111Y007706D01*
X005109Y007705D01*
X004754Y007705D01*
X004681Y007735D01*
X004609Y007705D01*
X004254Y007705D01*
X004181Y007735D01*
X004500Y007406D02*
X004250Y007156D01*
X004160Y007066D01*
X004111Y006949D01*
X004111Y006564D01*
X004109Y006565D01*
X003754Y006565D01*
X003681Y006535D01*
X003609Y006565D01*
X003254Y006565D01*
X003181Y006535D01*
X003109Y006565D01*
X002754Y006565D01*
X002681Y006535D01*
X002609Y006565D01*
X002254Y006565D01*
X002251Y006564D01*
X002251Y006790D01*
X002330Y006869D01*
X002401Y007041D01*
X002401Y007228D01*
X002330Y007401D01*
X002198Y007533D01*
X002025Y007605D01*
X001838Y007605D01*
X001665Y007533D01*
X001533Y007401D01*
X001584Y007452D02*
X000911Y007452D01*
X000911Y007294D02*
X001489Y007294D01*
X001461Y007135D02*
X000911Y007135D01*
X000911Y006977D02*
X001488Y006977D01*
X001584Y006818D02*
X000911Y006818D01*
X000911Y006660D02*
X001611Y006660D01*
X001931Y007135D02*
X001931Y005925D01*
X002251Y006660D02*
X004111Y006660D01*
X004111Y006818D02*
X002279Y006818D01*
X002375Y006977D02*
X004123Y006977D01*
X004229Y007135D02*
X002401Y007135D01*
X002374Y007294D02*
X004388Y007294D01*
X004500Y007406D02*
X004618Y007455D01*
X004745Y007455D01*
X005049Y007455D01*
X005111Y007518D01*
X005431Y007385D02*
X005181Y007135D01*
X004681Y007135D01*
X004431Y006885D01*
X004431Y005925D01*
X004931Y005925D02*
X004931Y005385D01*
X005431Y004885D01*
X005681Y004385D02*
X004181Y004385D01*
X003931Y004635D01*
X003931Y005925D01*
X003431Y005925D02*
X003431Y004885D01*
X002931Y004635D02*
X003681Y003885D01*
X006431Y003885D01*
X007181Y004635D01*
X007431Y004885D01*
X007431Y005925D01*
X006931Y005925D02*
X006931Y005135D01*
X006431Y004635D01*
X006181Y003635D02*
X006181Y001660D01*
X006181Y003635D02*
X007181Y003635D01*
X007931Y004385D01*
X007931Y005135D01*
X007931Y005925D01*
X008611Y006660D02*
X006609Y006660D01*
X006451Y006818D02*
X008611Y006818D01*
X008623Y006977D02*
X005476Y006977D01*
X005634Y007135D02*
X008729Y007135D01*
X008888Y007294D02*
X005740Y007294D01*
X005751Y007452D02*
X009111Y007452D01*
X009181Y007135D02*
X009681Y007135D01*
X010181Y007635D01*
X010181Y009635D01*
X009681Y009135D02*
X009431Y008885D01*
X009431Y008345D01*
X008931Y008885D02*
X009181Y009135D01*
X009181Y009635D01*
X008931Y008885D02*
X008931Y008345D01*
X009181Y007135D02*
X008931Y006885D01*
X008931Y005925D01*
X009431Y005925D02*
X009431Y005385D01*
X009931Y004885D01*
X009531Y004578D02*
X009531Y004551D01*
X009516Y004535D01*
X009204Y004535D01*
X009371Y004703D01*
X009371Y004885D01*
X009371Y004992D01*
X009431Y004932D01*
X009431Y004678D01*
X009531Y004578D01*
X009511Y004599D02*
X009267Y004599D01*
X009371Y004757D02*
X009431Y004757D01*
X009371Y004885D02*
X008932Y004885D01*
X009371Y004885D01*
X009371Y004916D02*
X009431Y004916D01*
X008932Y004885D02*
X008932Y004885D01*
X007931Y008345D02*
X007931Y008885D01*
X007431Y009385D02*
X007431Y008345D01*
X006931Y008345D02*
X006931Y009135D01*
X006681Y009385D01*
X006681Y021135D01*
X006181Y019635D02*
X006181Y018635D01*
X005181Y018635D02*
X005181Y019635D01*
X005681Y021135D02*
X005681Y009135D01*
X005431Y008885D01*
X005431Y007385D01*
X005181Y006635D02*
X004931Y006385D01*
X004931Y005925D01*
X005181Y006635D02*
X006181Y006635D01*
X006431Y006385D01*
X006431Y005925D01*
X005931Y005925D02*
X005931Y004635D01*
X005681Y004385D01*
X004931Y004705D02*
X004871Y004705D01*
X004871Y004885D01*
X004871Y004992D01*
X004931Y004932D01*
X004931Y004705D01*
X004931Y004757D02*
X004871Y004757D01*
X004871Y004885D02*
X004432Y004885D01*
X004871Y004885D01*
X004871Y004916D02*
X004931Y004916D01*
X004432Y004885D02*
X004432Y004885D01*
X003931Y003385D02*
X003681Y003385D01*
X002931Y004135D01*
X002181Y004135D01*
X001431Y004885D01*
X001431Y005925D01*
X001061Y005867D02*
X000911Y005867D01*
X000911Y006025D02*
X001061Y006025D01*
X001061Y006184D02*
X000911Y006184D01*
X000911Y006343D02*
X001061Y006343D01*
X001138Y006501D02*
X000911Y006501D01*
X000911Y005708D02*
X001061Y005708D01*
X001061Y005550D02*
X000911Y005550D01*
X000911Y005391D02*
X001097Y005391D01*
X001111Y005233D02*
X000911Y005233D01*
X000911Y005074D02*
X001111Y005074D01*
X001111Y004916D02*
X000911Y004916D01*
X000911Y004757D02*
X001138Y004757D01*
X001265Y004599D02*
X000911Y004599D01*
X000911Y004440D02*
X001424Y004440D01*
X001582Y004281D02*
X000911Y004281D01*
X000911Y004123D02*
X001741Y004123D01*
X001899Y003964D02*
X000911Y003964D01*
X000911Y003806D02*
X002808Y003806D01*
X002966Y003647D02*
X000911Y003647D01*
X002431Y004885D02*
X002431Y005925D01*
X002931Y005925D02*
X002931Y004635D01*
X003125Y003489D02*
X002542Y003489D01*
X002647Y003330D02*
X003284Y003330D01*
X003231Y003172D02*
X003131Y003172D01*
X002801Y003172D02*
X002686Y003172D01*
X003931Y003385D02*
X004181Y003135D01*
X004181Y001660D01*
X004611Y007452D02*
X002279Y007452D01*
X002431Y008345D02*
X002431Y009385D01*
X002181Y009635D01*
X001931Y008885D02*
X001181Y009635D01*
X001931Y008885D02*
X001931Y008345D01*
X001638Y007769D02*
X001602Y007769D01*
X001432Y007769D02*
X001431Y007769D01*
X001431Y007928D02*
X001432Y007928D01*
X001431Y008086D02*
X001432Y008086D01*
X001431Y008245D02*
X001432Y008245D01*
X002931Y008345D02*
X002931Y011885D01*
X002681Y012135D01*
X002681Y015635D01*
X001681Y016635D01*
X001681Y021135D01*
X001181Y021635D01*
X002181Y021635D02*
X002681Y021135D01*
X002681Y016635D01*
X003681Y015635D01*
X003681Y010135D01*
X003431Y009885D01*
X003431Y008345D01*
X003931Y008345D02*
X003931Y009385D01*
X004181Y009635D01*
X004931Y008885D02*
X004931Y008345D01*
X004931Y008885D02*
X005181Y009135D01*
X005181Y009635D01*
X006181Y009635D02*
X006181Y009135D01*
X006431Y008885D01*
X006431Y008345D01*
X006138Y007769D02*
X006102Y007769D01*
X007431Y009385D02*
X007181Y009635D01*
X007181Y011635D02*
X007181Y012635D01*
X006181Y012635D02*
X006181Y011635D01*
X005181Y011635D02*
X005181Y012635D01*
X004181Y012635D02*
X004181Y011635D01*
X002181Y011635D02*
X002181Y012635D01*
X001181Y012635D02*
X001181Y011635D01*
X001181Y018635D02*
X001181Y019635D01*
X002181Y019635D02*
X002181Y018635D01*
X004181Y018635D02*
X004181Y019635D01*
X007181Y019635D02*
X007181Y018635D01*
X009181Y018635D02*
X009181Y019635D01*
X010181Y019635D02*
X010181Y018635D01*
X010181Y012635D02*
X010181Y011635D01*
X009181Y011635D02*
X009181Y012635D01*
D17*
X009931Y004885D02*
X009931Y004385D01*
X009681Y004135D01*
X009181Y004135D01*
X008181Y003135D01*
X008181Y001660D01*
X003181Y001660D02*
X003181Y003135D01*
X002681Y003635D01*
X001181Y003635D01*
X000931Y003885D01*
X000931Y005385D01*
X000931Y006885D01*
X001431Y007385D01*
D18*
X000931Y005385D03*
X002431Y004885D03*
X003431Y004885D03*
X006181Y007135D03*
X007931Y005135D03*
X008181Y007135D03*
D19*
X007181Y004635D03*
X006431Y004635D03*
X001931Y007135D03*
M02*
