G75*
G70*
%OFA0B0*%
%FSLAX24Y24*%
%IPPOS*%
%LPD*%
%AMOC8*
5,1,8,0,0,1.08239X$1,22.5*
%
%ADD10C,0.0100*%
%ADD11C,0.0050*%
%ADD12C,0.0070*%
%ADD13C,0.0060*%
%ADD14R,0.0770X0.1740*%
%ADD15R,0.0500X0.0500*%
%ADD16C,0.0040*%
%ADD17R,0.0290X0.0010*%
%ADD18R,0.0120X0.0010*%
%ADD19R,0.0140X0.0010*%
%ADD20R,0.0310X0.0010*%
%ADD21R,0.0130X0.0010*%
%ADD22R,0.0320X0.0010*%
%ADD23R,0.0330X0.0010*%
%ADD24R,0.0160X0.0010*%
%ADD25R,0.0340X0.0010*%
%ADD26R,0.0170X0.0010*%
%ADD27R,0.0180X0.0010*%
%ADD28R,0.0080X0.0010*%
%ADD29R,0.0030X0.0010*%
%ADD30R,0.0200X0.0010*%
%ADD31R,0.0040X0.0010*%
%ADD32R,0.0020X0.0010*%
%ADD33R,0.0150X0.0010*%
%ADD34R,0.0090X0.0010*%
%ADD35R,0.0100X0.0010*%
%ADD36R,0.0110X0.0010*%
%ADD37R,0.0060X0.0010*%
%ADD38R,0.0270X0.0010*%
%ADD39R,0.0250X0.0010*%
%ADD40R,0.0230X0.0010*%
%ADD41R,0.0210X0.0010*%
%ADD42R,0.0240X0.0010*%
%ADD43R,0.0220X0.0010*%
%ADD44R,0.0190X0.0010*%
%ADD45R,0.0260X0.0010*%
%ADD46R,0.0280X0.0010*%
%ADD47R,0.0370X0.0010*%
%ADD48R,0.0300X0.0010*%
%ADD49R,0.0360X0.0010*%
%ADD50R,0.0390X0.0010*%
%ADD51R,0.0350X0.0010*%
%ADD52R,0.0400X0.0010*%
%ADD53R,0.0380X0.0010*%
%ADD54R,0.0410X0.0010*%
%ADD55R,0.0420X0.0010*%
%ADD56R,0.0430X0.0010*%
%ADD57R,0.0070X0.0010*%
%ADD58R,0.0050X0.0010*%
%ADD59R,0.0010X0.0010*%
%ADD60R,0.0620X0.0010*%
%ADD61R,0.0610X0.0010*%
%ADD62R,0.0600X0.0010*%
%ADD63R,0.0450X0.0010*%
%ADD64R,0.0440X0.0010*%
%ADD65R,0.1520X0.0010*%
%ADD66R,0.3290X0.0010*%
%ADD67R,0.0770X0.0010*%
%ADD68R,0.0470X0.0010*%
%ADD69R,0.1590X0.0010*%
%ADD70R,0.3240X0.0010*%
%ADD71R,0.0740X0.0010*%
%ADD72R,0.0560X0.0010*%
%ADD73R,0.1600X0.0010*%
%ADD74R,0.3210X0.0010*%
%ADD75R,0.0720X0.0010*%
%ADD76R,0.0580X0.0010*%
%ADD77R,0.1620X0.0010*%
%ADD78R,0.3190X0.0010*%
%ADD79R,0.0700X0.0010*%
%ADD80R,0.1630X0.0010*%
%ADD81R,0.3170X0.0010*%
%ADD82R,0.0690X0.0010*%
%ADD83R,0.1650X0.0010*%
%ADD84R,0.3160X0.0010*%
%ADD85R,0.0680X0.0010*%
%ADD86R,0.0630X0.0010*%
%ADD87R,0.1670X0.0010*%
%ADD88R,0.3150X0.0010*%
%ADD89R,0.0660X0.0010*%
%ADD90R,0.0650X0.0010*%
%ADD91R,0.1680X0.0010*%
%ADD92R,0.3120X0.0010*%
%ADD93R,0.1690X0.0010*%
%ADD94R,0.3110X0.0010*%
%ADD95R,0.3100X0.0010*%
%ADD96R,0.3220X0.0010*%
%ADD97R,0.0900X0.0010*%
%ADD98R,0.0830X0.0010*%
%ADD99R,0.1700X0.0010*%
%ADD100R,0.1110X0.0010*%
%ADD101R,0.0840X0.0010*%
%ADD102R,0.0860X0.0010*%
%ADD103R,0.0880X0.0010*%
%ADD104R,0.1100X0.0010*%
%ADD105R,0.0820X0.0010*%
%ADD106R,0.0850X0.0010*%
%ADD107R,0.1080X0.0010*%
%ADD108R,0.0800X0.0010*%
%ADD109R,0.1710X0.0010*%
%ADD110R,0.0790X0.0010*%
%ADD111R,0.1720X0.0010*%
%ADD112R,0.1060X0.0010*%
%ADD113R,0.0810X0.0010*%
%ADD114R,0.1030X0.0010*%
%ADD115R,0.0750X0.0010*%
%ADD116R,0.1730X0.0010*%
%ADD117R,0.1020X0.0010*%
%ADD118R,0.0730X0.0010*%
%ADD119R,0.1010X0.0010*%
%ADD120R,0.0710X0.0010*%
%ADD121R,0.0780X0.0010*%
%ADD122R,0.1000X0.0010*%
%ADD123R,0.0990X0.0010*%
%ADD124R,0.0670X0.0010*%
%ADD125R,0.0760X0.0010*%
%ADD126R,0.0980X0.0010*%
%ADD127R,0.0960X0.0010*%
%ADD128R,0.0870X0.0010*%
%ADD129R,0.0950X0.0010*%
%ADD130R,0.0890X0.0010*%
%ADD131R,0.1090X0.0010*%
%ADD132R,0.1070X0.0010*%
%ADD133R,0.0640X0.0010*%
%ADD134R,0.0970X0.0010*%
%ADD135R,0.1040X0.0010*%
%ADD136R,0.1050X0.0010*%
%ADD137R,0.0590X0.0010*%
%ADD138R,0.0570X0.0010*%
%ADD139R,0.0550X0.0010*%
%ADD140R,0.0530X0.0010*%
%ADD141R,0.0510X0.0010*%
%ADD142R,0.1660X0.0010*%
%ADD143R,0.0480X0.0010*%
%ADD144R,0.0460X0.0010*%
%ADD145R,0.1640X0.0010*%
%ADD146R,0.0520X0.0010*%
%ADD147R,0.0940X0.0010*%
%ADD148R,0.0930X0.0010*%
%ADD149R,0.0540X0.0010*%
%ADD150R,0.0500X0.0010*%
%ADD151R,0.1610X0.0010*%
%ADD152R,0.0490X0.0010*%
%ADD153R,0.0920X0.0010*%
%ADD154R,0.0910X0.0010*%
%ADD155R,0.1270X0.0010*%
%ADD156R,0.1260X0.0010*%
%ADD157R,0.1250X0.0010*%
%ADD158R,0.1240X0.0010*%
%ADD159R,0.1220X0.0010*%
%ADD160R,0.1200X0.0010*%
%ADD161R,0.1190X0.0010*%
%ADD162R,0.1170X0.0010*%
%ADD163R,0.1160X0.0010*%
%ADD164R,0.1150X0.0010*%
%ADD165R,0.1130X0.0010*%
%ADD166R,0.1120X0.0010*%
%ADD167R,0.1180X0.0010*%
%ADD168R,0.1230X0.0010*%
%ADD169R,0.1280X0.0010*%
%ADD170R,0.1290X0.0010*%
%ADD171R,0.1210X0.0010*%
%ADD172R,0.1300X0.0010*%
%ADD173R,0.1350X0.0010*%
%ADD174R,0.1390X0.0010*%
%ADD175R,0.1440X0.0010*%
%ADD176R,0.2100X0.0010*%
%ADD177R,0.2110X0.0010*%
%ADD178R,0.2120X0.0010*%
%ADD179R,0.2130X0.0010*%
%ADD180R,0.2140X0.0010*%
%ADD181R,0.2150X0.0010*%
%ADD182R,0.2160X0.0010*%
%ADD183R,0.2170X0.0010*%
%ADD184R,0.2090X0.0010*%
%ADD185R,0.1840X0.0010*%
%ADD186R,0.1810X0.0010*%
%ADD187R,0.1790X0.0010*%
%ADD188R,0.1750X0.0010*%
%ADD189R,0.1570X0.0010*%
%ADD190R,0.1560X0.0010*%
%ADD191R,0.1550X0.0010*%
%ADD192R,0.1540X0.0010*%
%ADD193R,0.1530X0.0010*%
%ADD194R,0.1510X0.0010*%
%ADD195R,0.1500X0.0010*%
%ADD196R,0.1490X0.0010*%
%ADD197R,0.1480X0.0010*%
%ADD198R,0.1470X0.0010*%
%ADD199R,0.1460X0.0010*%
%ADD200R,0.1450X0.0010*%
%ADD201R,0.1430X0.0010*%
D10*
X013372Y016850D02*
X013372Y017410D01*
X013092Y017410D01*
X012998Y017317D01*
X012998Y017130D01*
X013092Y017037D01*
X013372Y017037D01*
X013606Y017037D02*
X013886Y017037D01*
X013980Y017130D01*
X013886Y017224D01*
X013606Y017224D01*
X013606Y017317D02*
X013606Y017037D01*
X013606Y017317D02*
X013699Y017410D01*
X013886Y017410D01*
X014214Y017410D02*
X014494Y017410D01*
X014587Y017317D01*
X014587Y017130D01*
X014494Y017037D01*
X014214Y017037D01*
X014214Y017597D01*
X014821Y017410D02*
X014821Y017037D01*
X014821Y017317D02*
X015195Y017317D01*
X015195Y017410D02*
X015195Y017037D01*
X015195Y017410D02*
X015008Y017597D01*
X014821Y017410D01*
X016037Y017504D02*
X016037Y017130D01*
X016130Y017037D01*
X016411Y017037D01*
X016411Y017597D01*
X016130Y017597D01*
X016037Y017504D01*
X016645Y017504D02*
X016738Y017597D01*
X016925Y017597D01*
X017018Y017504D01*
X017018Y017130D01*
X016925Y017037D01*
X016738Y017037D01*
X016645Y017130D01*
X017252Y017037D02*
X017626Y017037D01*
X017626Y017597D01*
X018468Y017317D02*
X018468Y017224D01*
X018841Y017224D01*
X018841Y017317D02*
X018748Y017410D01*
X018561Y017410D01*
X018468Y017317D01*
X018561Y017037D02*
X018748Y017037D01*
X018841Y017130D01*
X018841Y017317D01*
X019060Y017410D02*
X019246Y017410D01*
X019153Y017504D02*
X019153Y017130D01*
X019060Y017037D01*
X019481Y017037D02*
X019481Y017317D01*
X019574Y017410D01*
X019761Y017410D01*
X019761Y017224D02*
X019481Y017224D01*
X019481Y017037D02*
X019761Y017037D01*
X019854Y017130D01*
X019761Y017224D01*
X020080Y017410D02*
X020174Y017410D01*
X020361Y017224D01*
X020361Y017410D02*
X020361Y017037D01*
X020579Y017037D02*
X020766Y017037D01*
X020672Y017037D02*
X020672Y017410D01*
X020766Y017410D01*
X020672Y017597D02*
X020672Y017691D01*
X021000Y017504D02*
X021000Y017317D01*
X021093Y017224D01*
X021373Y017224D01*
X021373Y017037D02*
X021373Y017597D01*
X021093Y017597D01*
X021000Y017504D01*
X022215Y017410D02*
X022496Y017410D01*
X022589Y017317D01*
X022496Y017224D01*
X022309Y017224D01*
X022215Y017130D01*
X022309Y017037D01*
X022589Y017037D01*
X022823Y017037D02*
X022823Y017410D01*
X023197Y017410D02*
X023197Y017130D01*
X023103Y017037D01*
X022823Y017037D01*
X023431Y017130D02*
X023524Y017037D01*
X023804Y017037D01*
X023804Y017597D01*
X023524Y017597D01*
X023431Y017504D01*
X023431Y017410D01*
X023524Y017317D01*
X023804Y017317D01*
X023524Y017317D02*
X023431Y017224D01*
X023431Y017130D01*
X012764Y017410D02*
X012577Y017410D01*
X012671Y017504D02*
X012671Y017130D01*
X012577Y017037D01*
X012359Y017130D02*
X012359Y017317D01*
X012266Y017410D01*
X012079Y017410D01*
X011985Y017317D01*
X011985Y017224D01*
X012359Y017224D01*
X012359Y017130D02*
X012266Y017037D01*
X012079Y017037D01*
X011751Y017037D02*
X011751Y017410D01*
X011751Y017224D02*
X011565Y017410D01*
X011471Y017410D01*
X010637Y017410D02*
X010450Y017037D01*
X010264Y017410D01*
X010030Y017317D02*
X009656Y017317D01*
X009749Y017037D02*
X009749Y017597D01*
X010030Y017317D01*
D11*
X005870Y014860D02*
X005811Y014860D01*
X005695Y014860D02*
X005461Y014860D01*
X005461Y014802D02*
X005461Y014919D01*
X005520Y015047D02*
X005461Y015106D01*
X005461Y015223D01*
X005520Y015281D01*
X005636Y015281D01*
X005695Y015223D01*
X005695Y015106D01*
X005636Y015047D01*
X005520Y015047D01*
X005695Y014860D02*
X005695Y014802D01*
X005695Y014667D02*
X005695Y014492D01*
X005636Y014434D01*
X005520Y014434D01*
X005461Y014492D01*
X005461Y014667D01*
X005811Y014667D01*
X005695Y014299D02*
X005461Y014299D01*
X005461Y014124D01*
X005520Y014065D01*
X005695Y014065D01*
X005695Y013937D02*
X005695Y013820D01*
X005753Y013878D02*
X005520Y013878D01*
X005461Y013937D01*
X005520Y013685D02*
X005461Y013627D01*
X005461Y013510D01*
X005520Y013452D01*
X005636Y013510D02*
X005636Y013627D01*
X005578Y013685D01*
X005520Y013685D01*
X005636Y013510D02*
X005695Y013452D01*
X005753Y013452D01*
X005811Y013510D01*
X005811Y013627D01*
X005753Y013685D01*
X005170Y013658D02*
X005111Y013717D01*
X004936Y013717D01*
X004936Y013600D02*
X005111Y013600D01*
X005170Y013658D01*
X005111Y013600D02*
X005170Y013542D01*
X005170Y013483D01*
X004936Y013483D01*
X004995Y013348D02*
X005111Y013348D01*
X005170Y013290D01*
X005170Y013173D01*
X005111Y013115D01*
X004995Y013115D01*
X004936Y013173D01*
X004936Y013290D01*
X004995Y013348D01*
X004936Y012980D02*
X004936Y012805D01*
X004995Y012747D01*
X005111Y012747D01*
X005170Y012805D01*
X005170Y012980D01*
X005461Y012948D02*
X005461Y012773D01*
X005520Y012715D01*
X005636Y012715D01*
X005695Y012773D01*
X005695Y012948D01*
X005811Y012948D02*
X005461Y012948D01*
X005914Y012777D02*
X005973Y012835D01*
X006090Y012835D01*
X006148Y012777D01*
X006148Y012543D01*
X006090Y012485D01*
X005973Y012485D01*
X005914Y012543D01*
X005695Y012522D02*
X005636Y012580D01*
X005578Y012580D01*
X005578Y012347D01*
X005636Y012347D02*
X005695Y012405D01*
X005695Y012522D01*
X005636Y012347D02*
X005520Y012347D01*
X005461Y012405D01*
X005461Y012522D01*
X005170Y012369D02*
X005170Y012252D01*
X005111Y012194D01*
X004995Y012194D01*
X004936Y012252D01*
X004936Y012369D01*
X004995Y012428D01*
X005111Y012428D01*
X005170Y012369D01*
X004995Y012562D02*
X004995Y012621D01*
X004936Y012621D01*
X004936Y012562D01*
X004995Y012562D01*
X005461Y012153D02*
X005461Y012037D01*
X005520Y011978D01*
X005636Y011978D01*
X005695Y012037D01*
X005695Y012153D01*
X005636Y012212D01*
X005578Y012212D01*
X005578Y011978D01*
X005578Y011844D02*
X005578Y011610D01*
X005636Y011610D02*
X005695Y011668D01*
X005695Y011785D01*
X005636Y011844D01*
X005578Y011844D01*
X005461Y011785D02*
X005461Y011668D01*
X005520Y011610D01*
X005636Y011610D01*
X005578Y011475D02*
X005520Y011475D01*
X005461Y011417D01*
X005461Y011300D01*
X005520Y011242D01*
X005636Y011300D02*
X005636Y011417D01*
X005578Y011475D01*
X005753Y011475D02*
X005811Y011417D01*
X005811Y011300D01*
X005753Y011242D01*
X005695Y011242D01*
X005636Y011300D01*
X005170Y011212D02*
X004995Y011212D01*
X004936Y011270D01*
X004936Y011446D01*
X005170Y011446D01*
X005111Y011580D02*
X004995Y011580D01*
X004936Y011639D01*
X004936Y011814D01*
X005286Y011814D01*
X005170Y011814D02*
X005170Y011639D01*
X005111Y011580D01*
X005170Y011949D02*
X005170Y012007D01*
X004936Y012007D01*
X004936Y011949D02*
X004936Y012065D01*
X005286Y012007D02*
X005345Y012007D01*
X006283Y012543D02*
X006341Y012485D01*
X006458Y012485D01*
X006516Y012543D01*
X006516Y012777D01*
X006458Y012835D01*
X006341Y012835D01*
X006283Y012777D01*
X006651Y012835D02*
X006651Y012602D01*
X006768Y012485D01*
X006885Y012602D01*
X006885Y012835D01*
X007113Y012829D02*
X007113Y012596D01*
X007230Y012479D01*
X007347Y012596D01*
X007347Y012829D01*
X007482Y012829D02*
X007715Y012829D01*
X007715Y012654D01*
X007598Y012712D01*
X007540Y012712D01*
X007482Y012654D01*
X007482Y012537D01*
X007540Y012479D01*
X007657Y012479D01*
X007715Y012537D01*
X007850Y012654D02*
X008083Y012654D01*
X007967Y012771D02*
X007967Y012537D01*
X008453Y012547D02*
X008511Y012489D01*
X008628Y012489D01*
X008686Y012547D01*
X008570Y012664D02*
X008511Y012664D01*
X008453Y012606D01*
X008453Y012547D01*
X008511Y012664D02*
X008453Y012722D01*
X008453Y012781D01*
X008511Y012839D01*
X008628Y012839D01*
X008686Y012781D01*
X008821Y012722D02*
X008938Y012489D01*
X009055Y012722D01*
X009190Y012722D02*
X009190Y012781D01*
X009248Y012839D01*
X009365Y012839D01*
X009423Y012781D01*
X009306Y012664D02*
X009248Y012664D01*
X009190Y012606D01*
X009190Y012547D01*
X009248Y012489D01*
X009365Y012489D01*
X009423Y012547D01*
X009558Y012664D02*
X009791Y012664D01*
X009675Y012781D02*
X009675Y012547D01*
X009248Y012664D02*
X009190Y012722D01*
X005730Y010451D02*
X005438Y010451D01*
X005379Y010393D01*
X005379Y010335D01*
X005496Y010276D02*
X005496Y010451D01*
X005496Y010276D02*
X005555Y010218D01*
X005730Y010218D01*
X005671Y010083D02*
X005730Y010025D01*
X005730Y009850D01*
X005846Y009850D02*
X005496Y009850D01*
X005496Y010025D01*
X005555Y010083D01*
X005671Y010083D01*
X005170Y010037D02*
X005111Y010095D01*
X005053Y010095D01*
X005053Y009862D01*
X004995Y009862D02*
X005111Y009862D01*
X005170Y009920D01*
X005170Y010037D01*
X005111Y010230D02*
X004995Y010230D01*
X004936Y010288D01*
X004936Y010463D01*
X005286Y010463D01*
X005170Y010463D02*
X005170Y010288D01*
X005111Y010230D01*
X004936Y010037D02*
X004936Y009920D01*
X004995Y009862D01*
X005053Y009727D02*
X005053Y009493D01*
X004995Y009493D02*
X005111Y009493D01*
X005170Y009552D01*
X005170Y009668D01*
X005111Y009727D01*
X005053Y009727D01*
X004936Y009668D02*
X004936Y009552D01*
X004995Y009493D01*
X005053Y009358D02*
X005053Y009125D01*
X004995Y009125D02*
X005111Y009125D01*
X005170Y009183D01*
X005170Y009300D01*
X005111Y009358D01*
X005053Y009358D01*
X004936Y009300D02*
X004936Y009183D01*
X004995Y009125D01*
X004995Y008990D02*
X005053Y008932D01*
X005053Y008815D01*
X005111Y008757D01*
X005170Y008815D01*
X005170Y008990D01*
X004995Y008990D02*
X004936Y008932D01*
X004936Y008757D01*
X004936Y008631D02*
X004936Y008573D01*
X004995Y008573D01*
X004995Y008631D01*
X004936Y008631D01*
X004995Y008438D02*
X005170Y008438D01*
X004995Y008438D02*
X004936Y008379D01*
X004995Y008321D01*
X004936Y008263D01*
X004995Y008204D01*
X005170Y008204D01*
X005170Y008069D02*
X004995Y008069D01*
X004936Y008011D01*
X004995Y007953D01*
X004936Y007894D01*
X004995Y007836D01*
X005170Y007836D01*
X005170Y007701D02*
X004995Y007701D01*
X004936Y007643D01*
X004995Y007584D01*
X004936Y007526D01*
X004995Y007468D01*
X005170Y007468D01*
X005496Y007453D02*
X005730Y007453D01*
X005730Y007394D01*
X005846Y007453D02*
X005905Y007453D01*
X005846Y007640D02*
X005846Y007698D01*
X005496Y007698D01*
X005496Y007640D02*
X005496Y007757D01*
X005496Y007885D02*
X005496Y008002D01*
X005496Y007944D02*
X005846Y007944D01*
X005846Y007885D01*
X005730Y008131D02*
X005496Y008131D01*
X005496Y008248D02*
X005671Y008248D01*
X005730Y008306D01*
X005671Y008364D01*
X005496Y008364D01*
X005555Y008499D02*
X005671Y008499D01*
X005730Y008558D01*
X005730Y008674D01*
X005671Y008733D01*
X005613Y008733D01*
X005613Y008499D01*
X005555Y008499D02*
X005496Y008558D01*
X005496Y008674D01*
X005496Y008867D02*
X005730Y008867D01*
X005730Y009043D01*
X005671Y009101D01*
X005496Y009101D01*
X005555Y009294D02*
X005496Y009353D01*
X005555Y009294D02*
X005788Y009294D01*
X005730Y009236D02*
X005730Y009353D01*
X005671Y008248D02*
X005730Y008189D01*
X005730Y008131D01*
X005496Y007511D02*
X005496Y007394D01*
X005496Y007207D02*
X005788Y007207D01*
X005846Y007266D01*
X005671Y007266D02*
X005671Y007149D01*
X005496Y007020D02*
X005496Y006903D01*
X005496Y006962D02*
X005846Y006962D01*
X005846Y006903D01*
X005730Y006769D02*
X005496Y006769D01*
X005496Y006593D01*
X005555Y006535D01*
X005730Y006535D01*
X005846Y006400D02*
X005846Y006167D01*
X005496Y006167D01*
X005671Y006167D02*
X005671Y006283D01*
X005111Y010598D02*
X005053Y010657D01*
X005053Y010773D01*
X004995Y010832D01*
X004936Y010773D01*
X004936Y010598D01*
X005111Y010598D02*
X005170Y010657D01*
X005170Y010832D01*
X005170Y010966D02*
X005170Y011083D01*
X005228Y011025D02*
X004995Y011025D01*
X004936Y011083D01*
X021489Y012490D02*
X021548Y012432D01*
X021664Y012432D01*
X021723Y012490D01*
X021723Y012724D01*
X021664Y012782D01*
X021548Y012782D01*
X021489Y012724D01*
X021858Y012724D02*
X021916Y012782D01*
X022033Y012782D01*
X022091Y012724D01*
X022091Y012490D01*
X022033Y012432D01*
X021916Y012432D01*
X021858Y012490D01*
X022226Y012548D02*
X022226Y012782D01*
X022459Y012782D02*
X022459Y012548D01*
X022343Y012432D01*
X022226Y012548D01*
X022989Y012480D02*
X022989Y012714D01*
X023048Y012772D01*
X023223Y012772D01*
X023223Y012422D01*
X023048Y012422D01*
X022989Y012480D01*
X023358Y012422D02*
X023358Y012772D01*
X023591Y012772D02*
X023358Y012422D01*
X023591Y012422D02*
X023591Y012772D01*
X023726Y012714D02*
X023784Y012772D01*
X023901Y012772D01*
X023959Y012714D01*
X023959Y012480D01*
X023901Y012422D01*
X023784Y012422D01*
X023726Y012480D01*
X023726Y012597D01*
X023843Y012597D01*
X024419Y012627D02*
X024419Y012510D01*
X024478Y012452D01*
X024594Y012452D01*
X024653Y012510D01*
X024653Y012627D02*
X024536Y012685D01*
X024478Y012685D01*
X024419Y012627D01*
X024419Y012802D02*
X024653Y012802D01*
X024653Y012627D01*
X024788Y012452D02*
X025021Y012452D01*
X024904Y012452D02*
X024904Y012802D01*
X025021Y012685D01*
X025156Y012627D02*
X025214Y012568D01*
X025389Y012568D01*
X025389Y012452D02*
X025389Y012802D01*
X025214Y012802D01*
X025156Y012744D01*
X025156Y012627D01*
X025919Y012558D02*
X025919Y012500D01*
X025978Y012442D01*
X026094Y012442D01*
X026153Y012500D01*
X026153Y012617D01*
X025978Y012617D01*
X025919Y012558D01*
X026036Y012734D02*
X025919Y012792D01*
X026036Y012734D02*
X026153Y012617D01*
X026288Y012442D02*
X026521Y012442D01*
X026404Y012442D02*
X026404Y012792D01*
X026521Y012675D01*
X026656Y012617D02*
X026656Y012734D01*
X026714Y012792D01*
X026889Y012792D01*
X026889Y012442D01*
X026889Y012558D02*
X026714Y012558D01*
X026656Y012617D01*
D12*
X008339Y006195D02*
X008339Y006032D01*
X008421Y005950D01*
X008748Y005950D01*
X008830Y006032D01*
X008830Y006195D01*
X008748Y006277D01*
X008585Y006277D02*
X008585Y006113D01*
X008585Y006277D02*
X008421Y006277D01*
X008339Y006195D01*
X008339Y006465D02*
X008830Y006465D01*
X008339Y006792D01*
X008830Y006792D01*
X008830Y006981D02*
X008339Y006981D01*
X008339Y007226D01*
X008421Y007308D01*
X008748Y007308D01*
X008830Y007226D01*
X008830Y006981D01*
X009339Y007145D02*
X009503Y007308D01*
X009830Y007308D01*
X009830Y006981D02*
X009503Y006981D01*
X009339Y007145D01*
X009421Y006792D02*
X009339Y006711D01*
X009339Y006547D01*
X009421Y006465D01*
X009585Y006465D02*
X009666Y006629D01*
X009666Y006711D01*
X009585Y006792D01*
X009421Y006792D01*
X009585Y006465D02*
X009830Y006465D01*
X009830Y006792D01*
X010339Y006726D02*
X010339Y006563D01*
X010421Y006481D01*
X010748Y006808D01*
X010421Y006808D01*
X010339Y006726D01*
X010421Y006481D02*
X010748Y006481D01*
X010830Y006563D01*
X010830Y006726D01*
X010748Y006808D01*
X010830Y006292D02*
X010503Y006292D01*
X010339Y006129D01*
X010503Y005965D01*
X010830Y005965D01*
X011339Y005965D02*
X011830Y005965D01*
X011830Y006211D01*
X011748Y006292D01*
X011585Y006292D01*
X011503Y006211D01*
X011503Y005965D01*
X011503Y006129D02*
X011339Y006292D01*
X011421Y006481D02*
X011339Y006563D01*
X011339Y006726D01*
X011421Y006808D01*
X011503Y006808D01*
X011585Y006726D01*
X011585Y006563D01*
X011666Y006481D01*
X011748Y006481D01*
X011830Y006563D01*
X011830Y006726D01*
X011748Y006808D01*
X012339Y006808D02*
X012830Y006808D01*
X012830Y006481D02*
X012339Y006481D01*
X012503Y006645D01*
X012339Y006808D01*
X012339Y006292D02*
X012503Y006129D01*
X012503Y006211D02*
X012503Y005965D01*
X012339Y005965D02*
X012830Y005965D01*
X012830Y006211D01*
X012748Y006292D01*
X012585Y006292D01*
X012503Y006211D01*
X013339Y006292D02*
X013339Y005965D01*
X013830Y005965D01*
X013830Y006292D01*
X013830Y006481D02*
X013339Y006481D01*
X013339Y006808D02*
X013830Y006808D01*
X013830Y006481D02*
X013339Y006808D01*
X013585Y006129D02*
X013585Y005965D01*
X014339Y005965D02*
X014339Y006211D01*
X014421Y006292D01*
X014748Y006292D01*
X014830Y006211D01*
X014830Y005965D01*
X014339Y005965D01*
X014421Y006481D02*
X014748Y006808D01*
X014421Y006808D01*
X014339Y006726D01*
X014339Y006563D01*
X014421Y006481D01*
X014748Y006481D01*
X014830Y006563D01*
X014830Y006726D01*
X014748Y006808D01*
X015339Y006808D02*
X015339Y006481D01*
X015339Y006645D02*
X015830Y006645D01*
X015666Y006481D01*
X015748Y006292D02*
X015421Y006292D01*
X015339Y006211D01*
X015339Y005965D01*
X015830Y005965D01*
X015830Y006211D01*
X015748Y006292D01*
X016339Y006211D02*
X016339Y005965D01*
X016830Y005965D01*
X016830Y006211D01*
X016748Y006292D01*
X016421Y006292D01*
X016339Y006211D01*
X016339Y006481D02*
X016666Y006808D01*
X016748Y006808D01*
X016830Y006726D01*
X016830Y006563D01*
X016748Y006481D01*
X016339Y006481D02*
X016339Y006808D01*
X017339Y006726D02*
X017339Y006563D01*
X017421Y006481D01*
X017421Y006292D02*
X017748Y006292D01*
X017830Y006211D01*
X017830Y005965D01*
X017339Y005965D01*
X017339Y006211D01*
X017421Y006292D01*
X017748Y006481D02*
X017830Y006563D01*
X017830Y006726D01*
X017748Y006808D01*
X017666Y006808D01*
X017585Y006726D01*
X017503Y006808D01*
X017421Y006808D01*
X017339Y006726D01*
X017585Y006726D02*
X017585Y006645D01*
X018339Y006726D02*
X018830Y006726D01*
X018585Y006481D01*
X018585Y006808D01*
X018421Y006292D02*
X018748Y006292D01*
X018830Y006211D01*
X018830Y005965D01*
X018339Y005965D01*
X018339Y006211D01*
X018421Y006292D01*
X019339Y006211D02*
X019339Y005965D01*
X019830Y005965D01*
X019830Y006211D01*
X019748Y006292D01*
X019421Y006292D01*
X019339Y006211D01*
X019421Y006481D02*
X019339Y006563D01*
X019339Y006726D01*
X019421Y006808D01*
X019585Y006808D01*
X019666Y006726D01*
X019666Y006645D01*
X019585Y006481D01*
X019830Y006481D01*
X019830Y006808D01*
X020339Y006726D02*
X020339Y006563D01*
X020421Y006481D01*
X020585Y006481D01*
X020585Y006726D01*
X020503Y006808D01*
X020421Y006808D01*
X020339Y006726D01*
X020585Y006481D02*
X020748Y006645D01*
X020830Y006808D01*
X020748Y006292D02*
X020421Y006292D01*
X020339Y006211D01*
X020339Y005965D01*
X020830Y005965D01*
X020830Y006211D01*
X020748Y006292D01*
X021339Y006211D02*
X021339Y005965D01*
X021830Y005965D01*
X021830Y006211D01*
X021748Y006292D01*
X021421Y006292D01*
X021339Y006211D01*
X021339Y006481D02*
X021421Y006481D01*
X021748Y006808D01*
X021830Y006808D01*
X021830Y006481D01*
X022339Y006308D02*
X022666Y006308D01*
X022830Y006145D01*
X022666Y005981D01*
X022339Y005981D01*
X022585Y005981D02*
X022585Y006308D01*
X023339Y006308D02*
X023585Y006063D01*
X023503Y005981D02*
X023830Y006308D01*
X023830Y005981D02*
X023339Y005981D01*
X009748Y006113D02*
X009421Y006113D01*
X009585Y005950D02*
X009585Y006277D01*
D13*
X009444Y009217D02*
X008444Y009217D01*
X008444Y010217D01*
X009444Y010217D01*
X009444Y009217D01*
X008131Y009187D02*
X007131Y009187D01*
X007131Y011187D01*
X008131Y011187D01*
X008131Y012187D01*
X007131Y012187D01*
X007131Y011187D01*
X008131Y011187D02*
X008131Y009187D01*
X008444Y010217D02*
X008444Y012217D01*
X009444Y012217D01*
X009444Y010217D01*
X021057Y003644D02*
X021351Y003644D01*
X021204Y003644D02*
X021204Y004084D01*
X021351Y003937D01*
X021518Y003937D02*
X021664Y003644D01*
X021811Y003937D01*
X021978Y003570D02*
X022271Y003570D01*
X022732Y003644D02*
X022732Y003717D01*
X022438Y004011D01*
X022438Y004084D01*
X022732Y004084D01*
X022899Y004011D02*
X022899Y003937D01*
X022972Y003864D01*
X022899Y003790D01*
X022899Y003717D01*
X022972Y003644D01*
X023119Y003644D01*
X023192Y003717D01*
X023359Y003717D02*
X023432Y003644D01*
X023579Y003644D01*
X023653Y003717D01*
X023359Y004011D01*
X023359Y003717D01*
X023359Y004011D02*
X023432Y004084D01*
X023579Y004084D01*
X023653Y004011D01*
X023653Y003717D01*
X023819Y003717D02*
X023819Y003790D01*
X023893Y003864D01*
X024113Y003864D01*
X024113Y003717D01*
X024040Y003644D01*
X023893Y003644D01*
X023819Y003717D01*
X023966Y004011D02*
X024113Y003864D01*
X024280Y003864D02*
X024353Y003790D01*
X024573Y003790D01*
X024573Y003644D02*
X024573Y004084D01*
X024353Y004084D01*
X024280Y004011D01*
X024280Y003864D01*
X023966Y004011D02*
X023819Y004084D01*
X023192Y004011D02*
X023119Y004084D01*
X022972Y004084D01*
X022899Y004011D01*
X022972Y003864D02*
X023045Y003864D01*
X024740Y003717D02*
X024740Y004011D01*
X024813Y004084D01*
X025034Y004084D01*
X025034Y003644D01*
X024813Y003644D01*
X024740Y003717D01*
X023934Y009177D02*
X022934Y009177D01*
X022934Y010177D01*
X023934Y010177D01*
X023934Y009177D01*
X023934Y010177D02*
X023934Y012177D01*
X022934Y012177D01*
X022934Y010177D01*
X022434Y009187D02*
X021434Y009187D01*
X021434Y011187D01*
X022434Y011187D01*
X022434Y012187D01*
X021434Y012187D01*
X021434Y011187D01*
X022434Y011187D02*
X022434Y009187D01*
D14*
X021929Y010187D03*
X023429Y011187D03*
X008939Y011227D03*
X007626Y010187D03*
D15*
X008954Y009697D03*
X007631Y011677D03*
X021934Y011677D03*
X023444Y009657D03*
D16*
X025270Y008124D02*
X025317Y008124D01*
X025410Y008030D01*
X025410Y007937D02*
X025410Y008124D01*
X025518Y008077D02*
X025565Y008124D01*
X025658Y008124D01*
X025705Y008077D01*
X025705Y007983D01*
X025658Y007937D01*
X025565Y007937D01*
X025518Y007983D01*
X025518Y008077D01*
X025808Y008077D02*
X025901Y008077D01*
X025854Y008170D02*
X025854Y007937D01*
X025854Y007764D02*
X025854Y007717D01*
X025854Y007624D02*
X025854Y007437D01*
X025808Y007437D02*
X025901Y007437D01*
X026009Y007577D02*
X026056Y007530D01*
X026196Y007530D01*
X026196Y007437D02*
X026196Y007717D01*
X026056Y007717D01*
X026009Y007670D01*
X026009Y007577D01*
X025901Y007624D02*
X025854Y007624D01*
X025705Y007624D02*
X025705Y007437D01*
X025705Y007530D02*
X025611Y007624D01*
X025565Y007624D01*
X025412Y007624D02*
X025319Y007624D01*
X025272Y007577D01*
X025272Y007437D01*
X025412Y007437D01*
X025459Y007483D01*
X025412Y007530D01*
X025272Y007530D01*
X025165Y007624D02*
X025071Y007624D01*
X025118Y007670D02*
X025118Y007483D01*
X025071Y007437D01*
X024968Y007483D02*
X024968Y007577D01*
X024921Y007624D01*
X024828Y007624D01*
X024781Y007577D01*
X024781Y007530D01*
X024968Y007530D01*
X024968Y007483D02*
X024921Y007437D01*
X024828Y007437D01*
X024379Y007624D02*
X024285Y007437D01*
X024192Y007624D01*
X024084Y007577D02*
X023897Y007577D01*
X023944Y007437D02*
X023944Y007717D01*
X024084Y007577D01*
X023495Y007577D02*
X023401Y007577D01*
X023448Y007670D02*
X023401Y007717D01*
X023448Y007670D02*
X023448Y007437D01*
X023298Y007483D02*
X023252Y007530D01*
X023112Y007530D01*
X023112Y007577D02*
X023112Y007437D01*
X023252Y007437D01*
X023298Y007483D01*
X023252Y007624D02*
X023158Y007624D01*
X023112Y007577D01*
X023004Y007624D02*
X023004Y007437D01*
X022910Y007437D02*
X022910Y007577D01*
X022864Y007624D01*
X022817Y007577D01*
X022817Y007437D01*
X022709Y007437D02*
X022616Y007437D01*
X022662Y007437D02*
X022662Y007624D01*
X022709Y007624D01*
X022662Y007717D02*
X022662Y007764D01*
X022513Y007717D02*
X022466Y007717D01*
X022466Y007437D01*
X022513Y007437D02*
X022419Y007437D01*
X022316Y007483D02*
X022270Y007437D01*
X022130Y007437D01*
X022130Y007390D02*
X022176Y007343D01*
X022223Y007343D01*
X022130Y007390D02*
X022130Y007624D01*
X022316Y007624D02*
X022316Y007483D01*
X022910Y007577D02*
X022957Y007624D01*
X023004Y007624D01*
X025808Y008217D02*
X025854Y008170D01*
X026304Y008077D02*
X026304Y008030D01*
X026490Y008030D01*
X026490Y007983D02*
X026490Y008077D01*
X026444Y008124D01*
X026350Y008124D01*
X026304Y008077D01*
X026350Y007937D02*
X026444Y007937D01*
X026490Y007983D01*
X026598Y007937D02*
X026598Y008217D01*
X026598Y008124D02*
X026738Y008124D01*
X026785Y008077D01*
X026785Y007983D01*
X026738Y007937D01*
X026598Y007937D01*
X026893Y007937D02*
X027033Y007937D01*
X027080Y007983D01*
X027033Y008030D01*
X026893Y008030D01*
X026893Y008077D02*
X026893Y007937D01*
X026893Y008077D02*
X026940Y008124D01*
X027033Y008124D01*
X027188Y008077D02*
X027188Y007937D01*
X027281Y007937D02*
X027281Y008077D01*
X027234Y008124D01*
X027188Y008077D01*
X027281Y008077D02*
X027328Y008124D01*
X027374Y008124D01*
X027374Y007937D01*
X027374Y007717D02*
X027234Y007717D01*
X027188Y007670D01*
X027188Y007624D01*
X027234Y007577D01*
X027374Y007577D01*
X027234Y007577D02*
X027188Y007530D01*
X027188Y007483D01*
X027234Y007437D01*
X027374Y007437D01*
X027374Y007717D01*
X027080Y007624D02*
X027080Y007483D01*
X027033Y007437D01*
X026893Y007437D01*
X026893Y007624D01*
X026785Y007577D02*
X026738Y007624D01*
X026598Y007624D01*
X026645Y007530D02*
X026738Y007530D01*
X026785Y007577D01*
X026785Y007437D02*
X026645Y007437D01*
X026598Y007483D01*
X026645Y007530D01*
D17*
X020674Y007517D03*
X020624Y007387D03*
X019724Y006997D03*
X019184Y007167D03*
X019214Y007507D03*
X018434Y007517D03*
X018214Y008147D03*
X017614Y008147D03*
X017024Y008147D03*
X017024Y008157D03*
X017024Y008717D03*
X016404Y009307D03*
X018794Y008717D03*
X019384Y008717D03*
X019704Y010037D03*
X019664Y010377D03*
X019384Y010577D03*
X019384Y010587D03*
X019634Y010797D03*
X019384Y010997D03*
X019384Y011007D03*
X019384Y011017D03*
X018584Y011487D03*
X018794Y012357D03*
X018794Y012367D03*
X018794Y012777D03*
X018204Y012777D03*
X018204Y012357D03*
X017294Y013727D03*
X016004Y014197D03*
X015774Y014007D03*
X015284Y014897D03*
X015664Y015557D03*
X015664Y015567D03*
X016964Y014877D03*
X017624Y014837D03*
X014064Y012777D03*
X014064Y012367D03*
X014064Y012357D03*
X014664Y012357D03*
X016404Y011287D03*
X016404Y011277D03*
X016404Y011267D03*
X016404Y011257D03*
X016404Y011247D03*
X016404Y011237D03*
X016404Y011227D03*
X013474Y011007D03*
X013474Y010587D03*
X012884Y010587D03*
X012884Y010577D03*
X012884Y009647D03*
X012884Y009577D03*
X012294Y009577D03*
X012294Y009647D03*
X012514Y008877D03*
X012014Y008597D03*
X013554Y009127D03*
X013764Y007507D03*
X013364Y007207D03*
X013364Y007197D03*
X012764Y007217D03*
X012764Y007227D03*
X012754Y007207D03*
X015504Y007177D03*
X015494Y007517D03*
X016294Y007177D03*
X017134Y007367D03*
X017514Y007217D03*
X017524Y007197D03*
D18*
X017539Y007137D03*
X017429Y007237D03*
X017429Y007247D03*
X017429Y007267D03*
X017599Y007457D03*
X017809Y007177D03*
X017809Y007167D03*
X017809Y007157D03*
X018079Y007307D03*
X018079Y007317D03*
X018079Y007327D03*
X018079Y007337D03*
X018079Y007347D03*
X018079Y007357D03*
X018079Y007367D03*
X018079Y007377D03*
X018079Y007387D03*
X018079Y007397D03*
X018079Y007407D03*
X018079Y007417D03*
X018079Y007427D03*
X018079Y007437D03*
X018079Y007447D03*
X018079Y007457D03*
X018079Y007467D03*
X018079Y007477D03*
X018079Y007487D03*
X018079Y007497D03*
X018079Y007507D03*
X018079Y007517D03*
X018079Y007527D03*
X018079Y007537D03*
X018079Y007547D03*
X017909Y008037D03*
X017619Y008087D03*
X017319Y008037D03*
X017029Y008087D03*
X017149Y008537D03*
X016909Y008547D03*
X017319Y008817D03*
X017499Y008537D03*
X017739Y008537D03*
X017909Y008817D03*
X018329Y008537D03*
X018509Y008817D03*
X018909Y008547D03*
X019099Y008817D03*
X019119Y009047D03*
X019399Y009327D03*
X019659Y009607D03*
X019399Y009877D03*
X019399Y009887D03*
X019399Y009897D03*
X019369Y009977D03*
X019359Y009987D03*
X019659Y009917D03*
X019659Y009907D03*
X020329Y009797D03*
X020589Y009847D03*
X019479Y010887D03*
X019789Y011237D03*
X019779Y011247D03*
X019769Y011267D03*
X018889Y012477D03*
X018799Y012867D03*
X018539Y012987D03*
X018509Y012907D03*
X018109Y012657D03*
X017919Y012907D03*
X017939Y012977D03*
X017639Y012987D03*
X017419Y013367D03*
X017269Y013617D03*
X018109Y014147D03*
X018329Y013767D03*
X016969Y014957D03*
X017029Y015257D03*
X017029Y015267D03*
X017179Y015717D03*
X016869Y015717D03*
X016589Y015717D03*
X016279Y015717D03*
X015999Y015717D03*
X015749Y015847D03*
X016489Y016197D03*
X015269Y015007D03*
X014389Y013497D03*
X014389Y013487D03*
X014309Y013277D03*
X014079Y012967D03*
X014079Y012957D03*
X014079Y012947D03*
X014159Y012667D03*
X014159Y012477D03*
X014319Y012317D03*
X014569Y012477D03*
X014749Y012477D03*
X014749Y012667D03*
X014569Y012667D03*
X014979Y013017D03*
X015239Y012987D03*
X015239Y012977D03*
X014979Y013317D03*
X013819Y012317D03*
X013769Y011127D03*
X013569Y010887D03*
X012979Y010887D03*
X012959Y011017D03*
X013179Y011127D03*
X012909Y010167D03*
X013529Y010017D03*
X013529Y010007D03*
X013429Y009687D03*
X013429Y009547D03*
X013429Y009537D03*
X013529Y009247D03*
X013359Y008807D03*
X014199Y007557D03*
X014389Y007517D03*
X014389Y007507D03*
X014599Y007457D03*
X014609Y007427D03*
X014609Y007417D03*
X014619Y007407D03*
X014619Y007397D03*
X014619Y007387D03*
X014619Y007377D03*
X014629Y007357D03*
X014629Y007347D03*
X014639Y007327D03*
X014649Y007297D03*
X014779Y007317D03*
X014809Y007407D03*
X014819Y006997D03*
X013899Y007287D03*
X013899Y007297D03*
X013899Y007307D03*
X013899Y007397D03*
X013899Y007407D03*
X013899Y007417D03*
X013889Y007427D03*
X013889Y007437D03*
X013649Y007457D03*
X013639Y007437D03*
X013639Y007427D03*
X013629Y007417D03*
X013629Y007407D03*
X013269Y007267D03*
X013269Y007257D03*
X013269Y007247D03*
X013069Y007267D03*
X011499Y007267D03*
X011499Y007277D03*
X011499Y007287D03*
X011499Y007297D03*
X011499Y007307D03*
X011499Y007317D03*
X011499Y007327D03*
X011499Y007337D03*
X011499Y007347D03*
X011499Y007357D03*
X011499Y007367D03*
X011499Y007377D03*
X011499Y007387D03*
X011499Y007397D03*
X011499Y007407D03*
X011499Y007417D03*
X011499Y007257D03*
X011499Y007247D03*
X011499Y007237D03*
X011499Y007227D03*
X011499Y007217D03*
X011499Y007207D03*
X011499Y007197D03*
X011499Y007187D03*
X011499Y007177D03*
X011499Y007167D03*
X011499Y007157D03*
X011499Y007147D03*
X015919Y007287D03*
X015919Y007297D03*
X015919Y007307D03*
X015919Y007317D03*
X015919Y007327D03*
X015919Y007337D03*
X015919Y007347D03*
X015919Y007357D03*
X015919Y007367D03*
X015919Y007377D03*
X015919Y007387D03*
X015919Y007397D03*
X015919Y007407D03*
X015919Y007417D03*
X015919Y007427D03*
X015919Y007437D03*
X015919Y007447D03*
X015919Y007457D03*
X015919Y007567D03*
X015919Y007577D03*
X015919Y007587D03*
X015919Y007597D03*
X015919Y007607D03*
X015919Y007617D03*
X015919Y007627D03*
X016609Y007517D03*
X016609Y007507D03*
X018209Y008087D03*
X018499Y008047D03*
X018749Y007517D03*
X018889Y007517D03*
X018889Y007527D03*
X018889Y007507D03*
X018889Y007497D03*
X018879Y007377D03*
X018879Y007367D03*
X018879Y007357D03*
X018879Y007347D03*
X018879Y007337D03*
X018879Y007327D03*
X018879Y007317D03*
X018879Y007307D03*
X018879Y007297D03*
X018879Y007287D03*
X018879Y007277D03*
X018879Y007267D03*
X018879Y007257D03*
X018879Y007247D03*
X018879Y007237D03*
X018879Y007227D03*
X018879Y007217D03*
X018879Y007207D03*
X018879Y007197D03*
X018879Y007187D03*
X018879Y007177D03*
X018879Y007167D03*
X019079Y007397D03*
X019079Y007407D03*
X019079Y007417D03*
X019089Y007427D03*
X019089Y007437D03*
X019099Y007457D03*
X019329Y007447D03*
X019339Y007437D03*
X019339Y007427D03*
X019349Y007417D03*
X019349Y007407D03*
X019349Y007397D03*
X019349Y007297D03*
X019349Y007287D03*
X019559Y007147D03*
X019559Y007137D03*
X019549Y007527D03*
X020049Y007147D03*
X020529Y007147D03*
X020529Y007157D03*
X020539Y007167D03*
X019089Y008047D03*
X019509Y008327D03*
D19*
X019499Y008317D03*
X019279Y008317D03*
X019389Y008087D03*
X018899Y008317D03*
X019099Y008827D03*
X019389Y008827D03*
X019389Y008837D03*
X019389Y008847D03*
X019389Y008857D03*
X019389Y008867D03*
X019389Y008877D03*
X019389Y008887D03*
X019389Y008897D03*
X019389Y008907D03*
X019389Y008917D03*
X019389Y008927D03*
X019389Y008937D03*
X019389Y008947D03*
X019389Y008957D03*
X019389Y008967D03*
X019389Y008977D03*
X019389Y008987D03*
X019389Y008997D03*
X019389Y009007D03*
X019389Y009017D03*
X019389Y009027D03*
X019389Y009037D03*
X019389Y009047D03*
X019389Y009057D03*
X019389Y009067D03*
X019389Y009077D03*
X019389Y009087D03*
X019389Y009097D03*
X019389Y009107D03*
X019389Y009117D03*
X019389Y009127D03*
X019389Y009137D03*
X019389Y009147D03*
X019389Y009157D03*
X019389Y009167D03*
X019389Y009177D03*
X019389Y009187D03*
X019389Y009197D03*
X019389Y009207D03*
X019389Y009217D03*
X019389Y009227D03*
X019389Y009237D03*
X019389Y009247D03*
X019389Y009257D03*
X019389Y009267D03*
X019389Y009277D03*
X019389Y009287D03*
X019389Y009297D03*
X019669Y009587D03*
X019979Y009587D03*
X019979Y009597D03*
X019979Y009607D03*
X019979Y009577D03*
X019979Y009567D03*
X019979Y009557D03*
X019979Y009547D03*
X019979Y009537D03*
X019979Y009527D03*
X019979Y009517D03*
X019979Y009507D03*
X019979Y009497D03*
X019979Y009487D03*
X019979Y009477D03*
X019979Y009467D03*
X019979Y009457D03*
X019979Y009447D03*
X019979Y009437D03*
X019979Y009427D03*
X019979Y009417D03*
X019979Y009407D03*
X019979Y009397D03*
X019979Y009387D03*
X019979Y009377D03*
X019979Y009367D03*
X019979Y009357D03*
X019979Y009347D03*
X019979Y009337D03*
X019669Y008887D03*
X019389Y008817D03*
X019389Y008807D03*
X019389Y008797D03*
X019389Y008787D03*
X018319Y008317D03*
X018099Y008317D03*
X017729Y008317D03*
X017509Y008317D03*
X017139Y008317D03*
X016919Y008317D03*
X017139Y008547D03*
X017029Y008787D03*
X017029Y008797D03*
X017029Y008807D03*
X017029Y008817D03*
X017029Y008827D03*
X017029Y008837D03*
X017029Y008847D03*
X017029Y008857D03*
X017029Y008867D03*
X017029Y008877D03*
X017029Y008887D03*
X017029Y008897D03*
X017029Y008907D03*
X017029Y008917D03*
X017029Y008927D03*
X017029Y008937D03*
X017029Y008947D03*
X017619Y008947D03*
X017619Y008937D03*
X017619Y008927D03*
X017619Y008917D03*
X017619Y008907D03*
X017619Y008897D03*
X017619Y008887D03*
X017619Y008877D03*
X017619Y008867D03*
X017619Y008857D03*
X017619Y008847D03*
X017619Y008837D03*
X017619Y008827D03*
X017619Y008817D03*
X017619Y008807D03*
X017619Y008797D03*
X017619Y008787D03*
X017619Y008777D03*
X018209Y008777D03*
X018209Y008787D03*
X018209Y008797D03*
X018209Y008807D03*
X018209Y008817D03*
X018209Y008827D03*
X018209Y008837D03*
X018209Y008847D03*
X018209Y008857D03*
X018209Y008867D03*
X018209Y008877D03*
X018209Y008887D03*
X018209Y008897D03*
X018209Y008907D03*
X018209Y008917D03*
X018209Y008927D03*
X018209Y008937D03*
X018209Y008947D03*
X017909Y008027D03*
X017319Y008027D03*
X017209Y007617D03*
X016949Y007597D03*
X016939Y007587D03*
X016939Y007577D03*
X016939Y007567D03*
X016939Y007507D03*
X016939Y007497D03*
X016939Y007487D03*
X016949Y007477D03*
X016729Y007407D03*
X016729Y007397D03*
X016439Y007397D03*
X016439Y007407D03*
X016439Y007387D03*
X016439Y007377D03*
X016439Y007327D03*
X016439Y007317D03*
X016439Y007307D03*
X016439Y007297D03*
X016439Y007287D03*
X016429Y007267D03*
X016419Y007257D03*
X016429Y007427D03*
X016419Y007447D03*
X016289Y007557D03*
X016169Y007447D03*
X016159Y007437D03*
X016159Y007427D03*
X016149Y007407D03*
X016149Y007397D03*
X016149Y007297D03*
X016149Y007287D03*
X016159Y007277D03*
X016159Y007267D03*
X016169Y007257D03*
X015909Y007257D03*
X015639Y007277D03*
X015639Y007287D03*
X015629Y007257D03*
X015639Y007407D03*
X015639Y007417D03*
X015639Y007427D03*
X015629Y007437D03*
X015629Y007447D03*
X015619Y007457D03*
X015489Y007557D03*
X015379Y007447D03*
X015369Y007437D03*
X015369Y007427D03*
X015359Y007417D03*
X015349Y007357D03*
X015349Y007337D03*
X015359Y007287D03*
X015359Y007277D03*
X015369Y007267D03*
X015379Y007257D03*
X015119Y007257D03*
X015109Y007247D03*
X014819Y007427D03*
X014829Y007457D03*
X014829Y007467D03*
X014839Y007487D03*
X014839Y007497D03*
X014849Y007517D03*
X014849Y007527D03*
X014859Y007537D03*
X014859Y007547D03*
X014589Y007497D03*
X014589Y007487D03*
X014579Y007517D03*
X014579Y007527D03*
X014579Y007537D03*
X014379Y007417D03*
X014379Y007407D03*
X014379Y007397D03*
X014379Y007387D03*
X014379Y007377D03*
X014379Y007367D03*
X014379Y007357D03*
X014379Y007347D03*
X014379Y007337D03*
X014379Y007327D03*
X014379Y007317D03*
X014379Y007307D03*
X014379Y007297D03*
X014379Y007287D03*
X014379Y007277D03*
X014379Y007147D03*
X014379Y007137D03*
X014379Y007127D03*
X014379Y007117D03*
X014379Y007107D03*
X014379Y007097D03*
X014379Y007087D03*
X014379Y007077D03*
X014379Y007067D03*
X014379Y007057D03*
X014379Y007047D03*
X014379Y007037D03*
X014379Y007027D03*
X014379Y007017D03*
X014379Y007007D03*
X014379Y006997D03*
X014729Y007117D03*
X014739Y007107D03*
X014709Y007167D03*
X014709Y007177D03*
X014809Y007017D03*
X014109Y007267D03*
X014099Y007277D03*
X014089Y007317D03*
X014089Y007327D03*
X014089Y007337D03*
X014089Y007347D03*
X014089Y007357D03*
X014089Y007367D03*
X014089Y007377D03*
X014089Y007387D03*
X014089Y007397D03*
X014099Y007417D03*
X014099Y007427D03*
X014109Y007437D03*
X013869Y007467D03*
X013439Y007417D03*
X013339Y007557D03*
X013279Y007287D03*
X013279Y007227D03*
X013069Y007237D03*
X013069Y007247D03*
X013069Y007177D03*
X012869Y007287D03*
X012869Y007297D03*
X012869Y007307D03*
X012859Y007277D03*
X012869Y007397D03*
X012859Y007417D03*
X012489Y007417D03*
X012489Y007427D03*
X012489Y007437D03*
X012479Y007447D03*
X012349Y007557D03*
X012229Y007437D03*
X012219Y007427D03*
X012219Y007417D03*
X012209Y007407D03*
X012209Y007397D03*
X012209Y007297D03*
X012219Y007267D03*
X012229Y007257D03*
X012479Y007247D03*
X012489Y007267D03*
X012489Y007277D03*
X011989Y007417D03*
X011989Y007427D03*
X011819Y007547D03*
X011579Y007547D03*
X011509Y007447D03*
X012439Y008287D03*
X012079Y008737D03*
X011989Y009057D03*
X011989Y009067D03*
X011989Y009077D03*
X011989Y009087D03*
X011989Y009097D03*
X011989Y009107D03*
X011989Y009117D03*
X011989Y009127D03*
X011989Y009137D03*
X011989Y009147D03*
X011989Y009157D03*
X012589Y009467D03*
X013179Y009467D03*
X013419Y009567D03*
X013419Y009667D03*
X013539Y010037D03*
X013179Y010067D03*
X013179Y010077D03*
X013179Y010087D03*
X013179Y010097D03*
X013179Y010107D03*
X013179Y010117D03*
X013179Y010127D03*
X013179Y010137D03*
X013179Y010147D03*
X013179Y010157D03*
X013179Y010167D03*
X012899Y010147D03*
X012889Y010107D03*
X012889Y010097D03*
X012799Y010697D03*
X012959Y010997D03*
X013179Y011137D03*
X013479Y011087D03*
X013769Y011137D03*
X014069Y011087D03*
X013389Y010697D03*
X013759Y010437D03*
X013769Y010447D03*
X013539Y009217D03*
X013179Y009167D03*
X013179Y009157D03*
X013179Y009147D03*
X013179Y009137D03*
X013179Y009127D03*
X013179Y009117D03*
X013179Y009107D03*
X013179Y009097D03*
X013179Y009087D03*
X013179Y009077D03*
X013179Y009067D03*
X013359Y008817D03*
X013479Y008577D03*
X013479Y008287D03*
X014509Y008127D03*
X014509Y008087D03*
X014509Y008077D03*
X015539Y008087D03*
X015539Y008097D03*
X015539Y008107D03*
X015539Y008117D03*
X015549Y008727D03*
X016399Y009887D03*
X016399Y010627D03*
X016399Y010637D03*
X016399Y010647D03*
X016399Y010657D03*
X016399Y010667D03*
X018349Y011767D03*
X018359Y011757D03*
X018209Y012277D03*
X018209Y012867D03*
X018209Y012877D03*
X018209Y012887D03*
X018209Y012897D03*
X018209Y012907D03*
X018209Y012917D03*
X018209Y012927D03*
X018209Y012937D03*
X018209Y012947D03*
X018209Y012957D03*
X018209Y012967D03*
X018209Y012977D03*
X017929Y012957D03*
X017929Y012947D03*
X017919Y012927D03*
X017919Y012917D03*
X017639Y012997D03*
X017419Y013377D03*
X018329Y013757D03*
X018109Y014137D03*
X018499Y013457D03*
X018539Y012977D03*
X018509Y012927D03*
X016399Y013117D03*
X015249Y013117D03*
X015249Y013127D03*
X015249Y013137D03*
X015249Y013147D03*
X015249Y013157D03*
X015249Y013167D03*
X015249Y013177D03*
X015249Y013187D03*
X015249Y013197D03*
X015249Y013207D03*
X015249Y013217D03*
X015249Y013227D03*
X015249Y013237D03*
X015249Y013247D03*
X015249Y013257D03*
X015249Y013267D03*
X015249Y013277D03*
X015249Y013287D03*
X015249Y013297D03*
X015249Y013307D03*
X015249Y013317D03*
X015249Y013327D03*
X015249Y013337D03*
X015249Y013347D03*
X015249Y013357D03*
X015249Y013367D03*
X015249Y013377D03*
X014969Y013337D03*
X014659Y013337D03*
X014659Y013347D03*
X014659Y013357D03*
X014659Y013367D03*
X014659Y013377D03*
X014659Y013387D03*
X014659Y013397D03*
X014659Y013407D03*
X014659Y013417D03*
X014659Y013427D03*
X014659Y013437D03*
X014659Y013447D03*
X014659Y013457D03*
X014659Y013467D03*
X014659Y013477D03*
X014659Y013487D03*
X014659Y013497D03*
X014659Y013507D03*
X014659Y013517D03*
X014659Y013527D03*
X014659Y013537D03*
X014659Y013547D03*
X014659Y013557D03*
X014659Y013567D03*
X014659Y013577D03*
X014549Y013747D03*
X014379Y013457D03*
X014379Y013447D03*
X014659Y013327D03*
X014659Y013317D03*
X014659Y013307D03*
X014659Y013017D03*
X014659Y013007D03*
X014659Y012997D03*
X014659Y012987D03*
X014659Y012977D03*
X014659Y012967D03*
X014659Y012957D03*
X014659Y012947D03*
X014659Y012937D03*
X014659Y012927D03*
X014659Y012917D03*
X014659Y012907D03*
X014659Y012897D03*
X014659Y012887D03*
X014659Y012877D03*
X014659Y012867D03*
X014369Y012917D03*
X014069Y012917D03*
X014069Y012927D03*
X014069Y012907D03*
X014069Y012897D03*
X014069Y012887D03*
X014069Y012877D03*
X014069Y012867D03*
X014069Y012257D03*
X014069Y012247D03*
X014069Y012237D03*
X014069Y012227D03*
X013819Y012287D03*
X013819Y012297D03*
X014319Y012297D03*
X014749Y012147D03*
X014959Y012917D03*
X014969Y012987D03*
X015249Y013007D03*
X015249Y013017D03*
X015249Y013027D03*
X015249Y013037D03*
X015249Y013047D03*
X015249Y013057D03*
X015249Y013067D03*
X015249Y013077D03*
X015249Y013087D03*
X015249Y013097D03*
X015249Y013107D03*
X015549Y014147D03*
X015419Y014297D03*
X015409Y014307D03*
X015409Y014317D03*
X015409Y014377D03*
X015679Y014387D03*
X015689Y014377D03*
X015689Y014367D03*
X015689Y014357D03*
X015689Y014347D03*
X015689Y014337D03*
X015689Y014327D03*
X015689Y014317D03*
X015539Y014877D03*
X015539Y014887D03*
X015539Y014897D03*
X015539Y014907D03*
X015539Y014917D03*
X015539Y014927D03*
X015539Y015247D03*
X015539Y015257D03*
X015539Y015267D03*
X015539Y015277D03*
X015539Y015287D03*
X016439Y015277D03*
X016439Y015377D03*
X016729Y015387D03*
X016729Y015397D03*
X016729Y015407D03*
X016729Y015417D03*
X016729Y015427D03*
X016729Y015437D03*
X016729Y015367D03*
X016729Y015357D03*
X016729Y015347D03*
X016729Y015337D03*
X016729Y015327D03*
X016729Y015317D03*
X016729Y015307D03*
X016729Y015297D03*
X016729Y015287D03*
X016729Y015277D03*
X016729Y015267D03*
X016729Y015257D03*
X017029Y015277D03*
X017319Y015277D03*
X017319Y015287D03*
X017319Y015297D03*
X017319Y015307D03*
X017319Y015317D03*
X017319Y015327D03*
X017319Y015337D03*
X017319Y015347D03*
X017319Y015357D03*
X017319Y015367D03*
X017319Y015377D03*
X017319Y015387D03*
X017319Y015397D03*
X017319Y015407D03*
X017319Y015417D03*
X017319Y015427D03*
X017319Y015437D03*
X017319Y015267D03*
X017319Y015257D03*
X017319Y015247D03*
X017319Y015237D03*
X016969Y014947D03*
X016729Y014937D03*
X016729Y014927D03*
X016729Y014917D03*
X016729Y014907D03*
X016729Y014897D03*
X016729Y014887D03*
X016729Y014877D03*
X017319Y014937D03*
X017649Y014937D03*
X017189Y015707D03*
X016859Y015947D03*
X016599Y015707D03*
X016489Y016207D03*
X016489Y016217D03*
X016729Y016217D03*
X016729Y016227D03*
X016729Y016237D03*
X016729Y016247D03*
X016729Y016257D03*
X016729Y016207D03*
X016879Y016257D03*
X016439Y016757D03*
X016139Y016207D03*
X015739Y015827D03*
X015739Y015817D03*
X015739Y015807D03*
X019739Y011297D03*
X019749Y011287D03*
X019759Y011277D03*
X019299Y010697D03*
X019679Y010437D03*
X019669Y009937D03*
X019389Y009937D03*
X019379Y009957D03*
X019979Y009917D03*
X020339Y009777D03*
X020549Y009897D03*
X020569Y009877D03*
X020139Y007547D03*
X020059Y007437D03*
X020059Y007427D03*
X019839Y007387D03*
X019839Y007377D03*
X019839Y007367D03*
X019839Y007357D03*
X019839Y007347D03*
X019839Y007337D03*
X019839Y007327D03*
X019839Y007317D03*
X019839Y007307D03*
X019829Y007287D03*
X019829Y007277D03*
X019819Y007267D03*
X019829Y007417D03*
X019829Y007427D03*
X019819Y007437D03*
X019559Y007427D03*
X019559Y007417D03*
X019559Y007277D03*
X019569Y007107D03*
X019579Y007097D03*
X018869Y007407D03*
X018589Y007367D03*
X018589Y007357D03*
X018589Y007347D03*
X018589Y007337D03*
X018589Y007327D03*
X018579Y007287D03*
X018579Y007277D03*
X018569Y007267D03*
X018569Y007257D03*
X018559Y007247D03*
X018579Y007407D03*
X018569Y007437D03*
X018559Y007447D03*
X018439Y007557D03*
X018309Y007437D03*
X018299Y007427D03*
X018299Y007417D03*
X018289Y007397D03*
X018289Y007387D03*
X018289Y007377D03*
X018289Y007367D03*
X018289Y007357D03*
X018289Y007347D03*
X018289Y007337D03*
X018289Y007327D03*
X018289Y007317D03*
X018289Y007307D03*
X018289Y007297D03*
X018299Y007287D03*
X018299Y007277D03*
X018309Y007257D03*
X018069Y007267D03*
X018069Y007277D03*
X017999Y007147D03*
X017819Y007267D03*
X017819Y007277D03*
X017599Y007417D03*
X017489Y007557D03*
X017439Y007287D03*
X017439Y007227D03*
X020309Y007417D03*
X020549Y007257D03*
X020549Y007247D03*
X020779Y007237D03*
X020779Y007307D03*
X020769Y007317D03*
X020979Y007357D03*
X020979Y007367D03*
X020979Y007377D03*
X020989Y007347D03*
X020989Y007337D03*
X020999Y007307D03*
X020979Y007487D03*
X020979Y007497D03*
X020979Y007507D03*
X020979Y007517D03*
X020989Y007527D03*
X020989Y007537D03*
X021339Y007537D03*
X021339Y007547D03*
X021339Y007557D03*
X021339Y007567D03*
X021339Y007577D03*
X021339Y007587D03*
X021339Y007597D03*
X021339Y007607D03*
X021339Y007617D03*
X021339Y007527D03*
X021339Y007517D03*
X021339Y007507D03*
X021339Y007497D03*
X021339Y007487D03*
X021339Y007477D03*
X021339Y007467D03*
X021339Y007457D03*
X021339Y007447D03*
X021339Y007437D03*
X021339Y007427D03*
X021339Y007417D03*
X021339Y007407D03*
X021339Y007397D03*
X021339Y007387D03*
X021339Y007377D03*
X021339Y007367D03*
X021339Y007357D03*
X021339Y007347D03*
X021339Y007337D03*
X021339Y007327D03*
X021339Y007317D03*
X021339Y007307D03*
X021339Y007297D03*
X021339Y007287D03*
X021339Y007277D03*
X021339Y007267D03*
X021339Y007257D03*
X021339Y007247D03*
X021339Y007237D03*
X021269Y007137D03*
D20*
X021254Y007157D03*
X020654Y007477D03*
X020664Y007497D03*
X019714Y007007D03*
X019204Y007187D03*
X019214Y007487D03*
X019384Y008167D03*
X018794Y008167D03*
X018214Y008697D03*
X017614Y008697D03*
X017024Y008697D03*
X017024Y008707D03*
X017024Y008167D03*
X017124Y007697D03*
X017614Y008167D03*
X016294Y007187D03*
X015504Y007187D03*
X013754Y007187D03*
X013764Y007487D03*
X012354Y007507D03*
X012014Y008587D03*
X012504Y008857D03*
X012944Y008817D03*
X012884Y009597D03*
X012884Y009607D03*
X012884Y009627D03*
X012884Y009637D03*
X012294Y009637D03*
X012294Y009627D03*
X012294Y009597D03*
X012884Y010607D03*
X012884Y010617D03*
X012884Y010627D03*
X012884Y010637D03*
X012884Y010647D03*
X012884Y010657D03*
X012884Y010667D03*
X012884Y010677D03*
X012884Y010687D03*
X013474Y010687D03*
X013474Y010677D03*
X013474Y010667D03*
X013474Y010657D03*
X013474Y010647D03*
X013474Y010637D03*
X013474Y010627D03*
X013474Y010617D03*
X013474Y010607D03*
X013474Y010897D03*
X013474Y010907D03*
X013474Y010917D03*
X013474Y010927D03*
X013474Y010937D03*
X013474Y010947D03*
X013474Y010957D03*
X013474Y010967D03*
X013474Y010977D03*
X013474Y010987D03*
X013184Y011207D03*
X014064Y012377D03*
X014064Y012387D03*
X014064Y012397D03*
X014064Y012407D03*
X014064Y012417D03*
X014064Y012427D03*
X014064Y012437D03*
X014064Y012447D03*
X014064Y012457D03*
X014064Y012467D03*
X014064Y012677D03*
X014064Y012687D03*
X014064Y012697D03*
X014064Y012707D03*
X014064Y012717D03*
X014064Y012727D03*
X014064Y012737D03*
X014064Y012747D03*
X014064Y012757D03*
X016014Y014207D03*
X017294Y013737D03*
X018404Y013157D03*
X018414Y013167D03*
X018424Y013177D03*
X018454Y013207D03*
X018214Y012747D03*
X018214Y012397D03*
X018794Y012397D03*
X018794Y012407D03*
X018794Y012417D03*
X018794Y012427D03*
X018794Y012437D03*
X018794Y012447D03*
X018794Y012457D03*
X018794Y012467D03*
X018794Y012387D03*
X018794Y012377D03*
X018794Y012677D03*
X018794Y012687D03*
X018794Y012697D03*
X018794Y012707D03*
X018794Y012717D03*
X018794Y012727D03*
X018794Y012737D03*
X018794Y012747D03*
X018794Y012757D03*
X018794Y012767D03*
X019094Y011207D03*
X019384Y010987D03*
X019384Y010977D03*
X019384Y010967D03*
X019384Y010957D03*
X019384Y010947D03*
X019384Y010937D03*
X019384Y010927D03*
X019384Y010917D03*
X019384Y010907D03*
X019384Y010897D03*
X019384Y010687D03*
X019384Y010677D03*
X019384Y010667D03*
X019384Y010657D03*
X019384Y010647D03*
X019384Y010637D03*
X019384Y010627D03*
X019384Y010617D03*
X019384Y010607D03*
X019644Y010777D03*
X019704Y010047D03*
X019384Y008697D03*
X016404Y009857D03*
X016404Y011297D03*
X016404Y011307D03*
X016404Y011317D03*
X016404Y011327D03*
X016404Y011337D03*
X016404Y011347D03*
X017624Y014817D03*
X017624Y014827D03*
X016734Y016147D03*
X015664Y015527D03*
D21*
X015784Y015207D03*
X015264Y014997D03*
X015404Y014367D03*
X015404Y014357D03*
X015404Y014347D03*
X015404Y014337D03*
X015404Y014327D03*
X014544Y013757D03*
X014384Y013477D03*
X014384Y013467D03*
X014304Y013287D03*
X014364Y012987D03*
X014364Y012977D03*
X014364Y012907D03*
X014074Y012937D03*
X013974Y012667D03*
X013974Y012477D03*
X013814Y012307D03*
X014324Y012307D03*
X014754Y012137D03*
X014954Y012907D03*
X014974Y012997D03*
X014974Y013007D03*
X015244Y012997D03*
X014974Y013327D03*
X017274Y013627D03*
X017934Y012967D03*
X018114Y012667D03*
X018304Y012667D03*
X018304Y012477D03*
X018114Y012477D03*
X018504Y012917D03*
X018704Y012667D03*
X018884Y012667D03*
X018704Y012477D03*
X018384Y013227D03*
X016494Y014957D03*
X016434Y015267D03*
X016434Y015387D03*
X016274Y015707D03*
X016274Y015937D03*
X016004Y015937D03*
X016004Y015707D03*
X015744Y015837D03*
X016594Y015937D03*
X016864Y015937D03*
X016864Y015707D03*
X016894Y016247D03*
X019094Y011137D03*
X019294Y010887D03*
X019474Y010697D03*
X019384Y010497D03*
X019674Y010447D03*
X019664Y009927D03*
X019394Y009927D03*
X019394Y009917D03*
X019394Y009907D03*
X019384Y009947D03*
X019374Y009967D03*
X019664Y009597D03*
X019664Y009447D03*
X019394Y009317D03*
X019394Y009307D03*
X020334Y009787D03*
X020554Y009887D03*
X020574Y009867D03*
X020584Y009857D03*
X019504Y008547D03*
X019274Y008547D03*
X018684Y008547D03*
X018684Y008317D03*
X018794Y008087D03*
X018504Y008037D03*
X018754Y007507D03*
X018754Y007497D03*
X018754Y007487D03*
X018874Y007397D03*
X018874Y007387D03*
X019094Y007447D03*
X019104Y007467D03*
X019314Y007467D03*
X019324Y007457D03*
X019354Y007307D03*
X019344Y007277D03*
X019344Y007267D03*
X019334Y007257D03*
X019184Y007137D03*
X018884Y007147D03*
X018884Y007157D03*
X018584Y007297D03*
X018584Y007307D03*
X018584Y007317D03*
X018584Y007377D03*
X018584Y007387D03*
X018584Y007397D03*
X018574Y007417D03*
X018574Y007427D03*
X018304Y007267D03*
X018074Y007287D03*
X018074Y007297D03*
X017814Y007297D03*
X017814Y007307D03*
X017814Y007317D03*
X017814Y007327D03*
X017814Y007337D03*
X017814Y007347D03*
X017814Y007357D03*
X017814Y007367D03*
X017814Y007377D03*
X017814Y007387D03*
X017814Y007397D03*
X017814Y007407D03*
X017814Y007417D03*
X017814Y007427D03*
X017814Y007437D03*
X017814Y007447D03*
X017814Y007457D03*
X017814Y007467D03*
X017814Y007477D03*
X017814Y007487D03*
X017814Y007497D03*
X017814Y007507D03*
X017814Y007517D03*
X017814Y007527D03*
X017814Y007537D03*
X017814Y007547D03*
X017604Y007447D03*
X017604Y007437D03*
X017604Y007427D03*
X017594Y007467D03*
X017434Y007277D03*
X017214Y007277D03*
X017214Y007287D03*
X017214Y007297D03*
X017214Y007307D03*
X017214Y007317D03*
X017214Y007327D03*
X017214Y007337D03*
X017214Y007267D03*
X017214Y007257D03*
X017214Y007247D03*
X017214Y007237D03*
X017214Y007227D03*
X017214Y007217D03*
X017214Y007207D03*
X017214Y007197D03*
X017214Y007187D03*
X017214Y007177D03*
X017214Y007167D03*
X017214Y007157D03*
X017214Y007147D03*
X017214Y007447D03*
X017214Y007457D03*
X017214Y007467D03*
X017214Y007477D03*
X017214Y007487D03*
X017214Y007497D03*
X017214Y007507D03*
X017214Y007517D03*
X017214Y007527D03*
X017214Y007537D03*
X017214Y007547D03*
X017214Y007557D03*
X017214Y007567D03*
X017214Y007577D03*
X017214Y007587D03*
X017214Y007597D03*
X017214Y007607D03*
X016934Y007557D03*
X016934Y007547D03*
X016934Y007537D03*
X016934Y007527D03*
X016934Y007517D03*
X016734Y007387D03*
X016734Y007377D03*
X016734Y007367D03*
X016734Y007357D03*
X016734Y007347D03*
X016734Y007337D03*
X016734Y007327D03*
X016734Y007317D03*
X016734Y007307D03*
X016734Y007297D03*
X016734Y007287D03*
X016734Y007277D03*
X016734Y007267D03*
X016734Y007257D03*
X016734Y007247D03*
X016734Y007237D03*
X016734Y007227D03*
X016734Y007217D03*
X016734Y007207D03*
X016734Y007197D03*
X016734Y007187D03*
X016734Y007177D03*
X016734Y007167D03*
X016734Y007157D03*
X016734Y007147D03*
X016434Y007277D03*
X016444Y007337D03*
X016444Y007347D03*
X016444Y007357D03*
X016444Y007367D03*
X016434Y007417D03*
X016424Y007437D03*
X016614Y007487D03*
X016614Y007497D03*
X016154Y007417D03*
X016144Y007387D03*
X016144Y007377D03*
X016144Y007367D03*
X016144Y007357D03*
X016144Y007347D03*
X016144Y007337D03*
X016144Y007327D03*
X016144Y007317D03*
X016144Y007307D03*
X015914Y007277D03*
X015914Y007267D03*
X015644Y007297D03*
X015644Y007307D03*
X015644Y007317D03*
X015644Y007327D03*
X015644Y007337D03*
X015644Y007347D03*
X015644Y007357D03*
X015644Y007367D03*
X015644Y007377D03*
X015644Y007387D03*
X015644Y007397D03*
X015354Y007397D03*
X015354Y007407D03*
X015354Y007387D03*
X015354Y007377D03*
X015354Y007367D03*
X015344Y007347D03*
X015354Y007327D03*
X015354Y007317D03*
X015354Y007307D03*
X015354Y007297D03*
X015124Y007297D03*
X015124Y007307D03*
X015124Y007317D03*
X015124Y007327D03*
X015124Y007337D03*
X015124Y007347D03*
X015124Y007357D03*
X015124Y007367D03*
X015124Y007377D03*
X015124Y007387D03*
X015124Y007397D03*
X015124Y007407D03*
X015124Y007417D03*
X015124Y007427D03*
X015124Y007437D03*
X015124Y007447D03*
X015124Y007457D03*
X015124Y007557D03*
X015124Y007567D03*
X015124Y007577D03*
X015124Y007587D03*
X015124Y007597D03*
X015124Y007607D03*
X015124Y007617D03*
X015124Y007627D03*
X015124Y007287D03*
X015124Y007277D03*
X015124Y007267D03*
X014804Y007377D03*
X014804Y007387D03*
X014804Y007397D03*
X014814Y007417D03*
X014824Y007437D03*
X014824Y007447D03*
X014794Y007367D03*
X014794Y007357D03*
X014794Y007347D03*
X014784Y007337D03*
X014784Y007327D03*
X014634Y007337D03*
X014624Y007367D03*
X014604Y007437D03*
X014604Y007447D03*
X014594Y007467D03*
X014594Y007477D03*
X014574Y007547D03*
X014714Y007157D03*
X014714Y007147D03*
X014724Y007137D03*
X014724Y007127D03*
X014814Y007007D03*
X014384Y007157D03*
X014204Y007147D03*
X014094Y007287D03*
X014094Y007297D03*
X014094Y007307D03*
X014094Y007407D03*
X013884Y007447D03*
X013874Y007457D03*
X013894Y007277D03*
X013894Y007267D03*
X013884Y007257D03*
X013734Y007137D03*
X013634Y007397D03*
X013644Y007447D03*
X013654Y007467D03*
X013444Y007457D03*
X013444Y007447D03*
X013444Y007437D03*
X013444Y007427D03*
X013434Y007467D03*
X013274Y007277D03*
X013274Y007237D03*
X013074Y007257D03*
X013074Y007167D03*
X012874Y007317D03*
X012874Y007327D03*
X012874Y007337D03*
X012874Y007347D03*
X012874Y007357D03*
X012874Y007367D03*
X012874Y007377D03*
X012874Y007387D03*
X012864Y007407D03*
X012504Y007377D03*
X012504Y007367D03*
X012504Y007357D03*
X012504Y007347D03*
X012504Y007337D03*
X012504Y007327D03*
X012504Y007317D03*
X012494Y007307D03*
X012494Y007297D03*
X012494Y007287D03*
X012494Y007387D03*
X012494Y007397D03*
X012494Y007407D03*
X012204Y007387D03*
X012204Y007377D03*
X012204Y007367D03*
X012204Y007357D03*
X012204Y007347D03*
X012204Y007337D03*
X012204Y007327D03*
X012204Y007317D03*
X012204Y007307D03*
X012214Y007287D03*
X012214Y007277D03*
X011994Y007277D03*
X011994Y007287D03*
X011994Y007297D03*
X011994Y007307D03*
X011994Y007317D03*
X011994Y007327D03*
X011994Y007337D03*
X011994Y007347D03*
X011994Y007357D03*
X011994Y007367D03*
X011994Y007377D03*
X011994Y007387D03*
X011994Y007397D03*
X011994Y007407D03*
X011994Y007267D03*
X011994Y007257D03*
X011994Y007247D03*
X011994Y007237D03*
X011994Y007227D03*
X011994Y007217D03*
X011994Y007207D03*
X011994Y007197D03*
X011994Y007187D03*
X011994Y007177D03*
X011994Y007167D03*
X011994Y007157D03*
X011994Y007147D03*
X011744Y007147D03*
X011744Y007157D03*
X011744Y007167D03*
X011744Y007177D03*
X011744Y007187D03*
X011744Y007197D03*
X011744Y007207D03*
X011744Y007217D03*
X011744Y007227D03*
X011744Y007237D03*
X011744Y007247D03*
X011744Y007257D03*
X011744Y007267D03*
X011744Y007277D03*
X011744Y007287D03*
X011744Y007297D03*
X011744Y007307D03*
X011744Y007317D03*
X011744Y007327D03*
X011744Y007337D03*
X011744Y007347D03*
X011744Y007357D03*
X011744Y007367D03*
X011744Y007377D03*
X011744Y007387D03*
X011744Y007397D03*
X011744Y007407D03*
X011744Y007417D03*
X011504Y007427D03*
X011504Y007437D03*
X012444Y008577D03*
X012564Y008817D03*
X012084Y008757D03*
X012084Y008747D03*
X012294Y009137D03*
X012044Y009427D03*
X012294Y009497D03*
X012294Y009727D03*
X012884Y009727D03*
X012884Y009497D03*
X012884Y009137D03*
X013534Y009227D03*
X013534Y009237D03*
X013424Y009557D03*
X013424Y009677D03*
X013534Y010027D03*
X013774Y010457D03*
X013564Y010697D03*
X013384Y010887D03*
X012964Y011007D03*
X012974Y010697D03*
X012904Y010157D03*
X012884Y010087D03*
X013974Y010887D03*
X016404Y010617D03*
X016404Y010607D03*
X016404Y010597D03*
X016404Y010587D03*
X016404Y010577D03*
X016404Y010567D03*
X016404Y010557D03*
X018884Y010887D03*
X019774Y011257D03*
X018324Y008547D03*
X018094Y008547D03*
X017734Y008547D03*
X017504Y008547D03*
X019094Y008037D03*
X019554Y007407D03*
X019554Y007397D03*
X019554Y007387D03*
X019554Y007377D03*
X019554Y007367D03*
X019554Y007357D03*
X019554Y007347D03*
X019554Y007337D03*
X019554Y007327D03*
X019554Y007317D03*
X019554Y007307D03*
X019554Y007297D03*
X019554Y007287D03*
X019554Y007187D03*
X019554Y007177D03*
X019554Y007167D03*
X019554Y007157D03*
X019564Y007127D03*
X019564Y007117D03*
X019834Y007297D03*
X019834Y007397D03*
X019834Y007407D03*
X020054Y007407D03*
X020054Y007417D03*
X020054Y007397D03*
X020054Y007387D03*
X020054Y007377D03*
X020054Y007367D03*
X020054Y007357D03*
X020054Y007347D03*
X020054Y007337D03*
X020054Y007327D03*
X020054Y007317D03*
X020054Y007307D03*
X020054Y007297D03*
X020054Y007287D03*
X020054Y007277D03*
X020054Y007267D03*
X020054Y007257D03*
X020054Y007247D03*
X020054Y007237D03*
X020054Y007227D03*
X020054Y007217D03*
X020054Y007207D03*
X020054Y007197D03*
X020054Y007187D03*
X020054Y007177D03*
X020054Y007167D03*
X020054Y007157D03*
X020314Y007157D03*
X020314Y007167D03*
X020314Y007177D03*
X020314Y007187D03*
X020314Y007197D03*
X020314Y007207D03*
X020314Y007217D03*
X020314Y007227D03*
X020314Y007237D03*
X020314Y007247D03*
X020314Y007257D03*
X020314Y007267D03*
X020314Y007277D03*
X020314Y007287D03*
X020314Y007297D03*
X020314Y007307D03*
X020314Y007317D03*
X020314Y007327D03*
X020314Y007337D03*
X020314Y007347D03*
X020314Y007357D03*
X020314Y007367D03*
X020314Y007377D03*
X020314Y007387D03*
X020314Y007397D03*
X020314Y007407D03*
X020544Y007427D03*
X020544Y007437D03*
X020554Y007447D03*
X020554Y007457D03*
X020544Y007327D03*
X020544Y007317D03*
X020544Y007307D03*
X020544Y007297D03*
X020544Y007287D03*
X020544Y007277D03*
X020544Y007267D03*
X020714Y007147D03*
X020784Y007247D03*
X020784Y007257D03*
X020784Y007267D03*
X020784Y007277D03*
X020784Y007287D03*
X020784Y007297D03*
X020974Y007387D03*
X020974Y007397D03*
X020974Y007407D03*
X020974Y007417D03*
X020974Y007427D03*
X020974Y007437D03*
X020974Y007447D03*
X020974Y007457D03*
X020974Y007467D03*
X020974Y007477D03*
X020314Y007147D03*
X017814Y007287D03*
X015914Y007557D03*
D22*
X016289Y007507D03*
X015499Y007507D03*
X017029Y008177D03*
X017029Y008187D03*
X017119Y007687D03*
X017619Y008177D03*
X017619Y008187D03*
X018209Y008177D03*
X018209Y008167D03*
X018209Y008687D03*
X017619Y008687D03*
X017029Y008687D03*
X018799Y008697D03*
X018799Y008687D03*
X019389Y008687D03*
X019389Y008177D03*
X018439Y007507D03*
X018439Y007197D03*
X019209Y007197D03*
X019209Y007207D03*
X019219Y007217D03*
X019709Y007017D03*
X020639Y007367D03*
X016409Y011357D03*
X018209Y012407D03*
X018209Y012417D03*
X018209Y012427D03*
X018209Y012437D03*
X018209Y012447D03*
X018209Y012457D03*
X018209Y012467D03*
X018209Y012677D03*
X018209Y012687D03*
X018209Y012697D03*
X018209Y012707D03*
X018209Y012717D03*
X018209Y012727D03*
X018209Y012737D03*
X018439Y013187D03*
X018449Y013197D03*
X017299Y013747D03*
X016399Y013077D03*
X015019Y013657D03*
X015549Y014207D03*
X016029Y014217D03*
X015109Y014557D03*
X015099Y014547D03*
X015089Y014537D03*
X015079Y014517D03*
X015079Y014507D03*
X015059Y014477D03*
X015289Y014887D03*
X015659Y015517D03*
X016139Y015507D03*
X016729Y015507D03*
X016139Y016137D03*
X012889Y009617D03*
X012299Y009617D03*
X012299Y009607D03*
X012499Y008847D03*
X012489Y008837D03*
X012949Y008807D03*
X013389Y008877D03*
X013399Y008867D03*
X013409Y008857D03*
X013419Y008847D03*
X013429Y008837D03*
X013439Y008827D03*
X013769Y009007D03*
X013569Y009107D03*
X013769Y007217D03*
X013759Y007207D03*
X013759Y007197D03*
X012359Y007197D03*
D23*
X012354Y007207D03*
X012354Y007497D03*
X013764Y007477D03*
X015494Y007497D03*
X015504Y007197D03*
X016294Y007197D03*
X017114Y007377D03*
X018434Y007497D03*
X019214Y007477D03*
X019094Y007967D03*
X018794Y008177D03*
X018794Y008187D03*
X018204Y008187D03*
X018214Y008677D03*
X017614Y008677D03*
X017024Y008677D03*
X016404Y009317D03*
X013574Y009097D03*
X012954Y008797D03*
X012484Y008827D03*
X012014Y008577D03*
X013184Y011217D03*
X013774Y011217D03*
X016404Y011367D03*
X016404Y011377D03*
X016404Y011387D03*
X016404Y011397D03*
X016404Y011407D03*
X016404Y011417D03*
X016404Y011427D03*
X019094Y011217D03*
X019644Y010767D03*
X019384Y008677D03*
X020644Y007357D03*
X019704Y007027D03*
X015544Y014217D03*
X015054Y014457D03*
X015054Y014467D03*
X015064Y014487D03*
X015074Y014497D03*
X015084Y014527D03*
X015114Y014567D03*
X015124Y014577D03*
X015294Y014877D03*
X016734Y015517D03*
X016734Y016137D03*
X016434Y016717D03*
X017624Y014807D03*
D24*
X017319Y014947D03*
X017319Y015227D03*
X017029Y015287D03*
X017029Y015377D03*
X016729Y015227D03*
X016729Y014947D03*
X016449Y015297D03*
X016449Y015307D03*
X016449Y015317D03*
X016449Y015327D03*
X016449Y015337D03*
X016449Y015347D03*
X016609Y015697D03*
X017199Y015697D03*
X017199Y015687D03*
X016489Y016227D03*
X015729Y015787D03*
X015729Y015777D03*
X015789Y015227D03*
X015549Y014947D03*
X015269Y014987D03*
X015439Y014417D03*
X015429Y014407D03*
X015439Y014277D03*
X015669Y014287D03*
X015669Y014407D03*
X014649Y013597D03*
X014549Y013737D03*
X014369Y013427D03*
X014659Y013297D03*
X014659Y013027D03*
X014369Y012947D03*
X014369Y012937D03*
X014959Y012937D03*
X014959Y012947D03*
X014959Y012957D03*
X014959Y012967D03*
X014959Y013357D03*
X013819Y012277D03*
X014219Y011237D03*
X013769Y011147D03*
X013179Y011147D03*
X012959Y010987D03*
X012959Y010977D03*
X013739Y010407D03*
X013709Y010357D03*
X013699Y010347D03*
X013689Y010337D03*
X013529Y010057D03*
X013189Y010187D03*
X012889Y010117D03*
X012589Y010177D03*
X012589Y010047D03*
X012589Y009457D03*
X012589Y009177D03*
X012289Y009117D03*
X012289Y009047D03*
X012289Y009037D03*
X011989Y009037D03*
X011999Y009177D03*
X012069Y008717D03*
X012889Y008977D03*
X012889Y008987D03*
X012889Y008997D03*
X012889Y009007D03*
X012889Y009017D03*
X012889Y009027D03*
X012889Y009037D03*
X012889Y009047D03*
X012889Y009057D03*
X012889Y009067D03*
X012889Y009077D03*
X012889Y009087D03*
X012889Y009097D03*
X012889Y009107D03*
X013189Y009037D03*
X013549Y009197D03*
X013179Y009457D03*
X013409Y009577D03*
X013409Y009587D03*
X013409Y009647D03*
X013479Y008587D03*
X013479Y008277D03*
X013479Y007997D03*
X013429Y007407D03*
X013289Y007297D03*
X012839Y007447D03*
X012829Y007457D03*
X012249Y007467D03*
X012239Y007457D03*
X012249Y007227D03*
X011979Y007447D03*
X011519Y007457D03*
X012439Y007987D03*
X012439Y007997D03*
X012439Y008277D03*
X013859Y007237D03*
X014119Y007247D03*
X014369Y007257D03*
X014369Y007437D03*
X014709Y007197D03*
X014709Y007187D03*
X014759Y007087D03*
X014809Y007027D03*
X015389Y007237D03*
X015399Y007227D03*
X015499Y007147D03*
X015389Y007467D03*
X015609Y007467D03*
X015889Y007237D03*
X016189Y007467D03*
X016399Y007467D03*
X016719Y007417D03*
X016959Y007607D03*
X017029Y008097D03*
X016929Y008557D03*
X017129Y008557D03*
X017319Y008827D03*
X017319Y008837D03*
X017519Y008557D03*
X017909Y008827D03*
X017909Y008837D03*
X018109Y008557D03*
X018499Y008837D03*
X018699Y008557D03*
X018889Y008557D03*
X019289Y008557D03*
X019489Y008557D03*
X019679Y008877D03*
X019679Y009457D03*
X020349Y009757D03*
X020519Y009937D03*
X020509Y009947D03*
X020529Y009927D03*
X019979Y009907D03*
X019679Y009947D03*
X019389Y010507D03*
X019719Y011327D03*
X019709Y011337D03*
X019699Y011347D03*
X019689Y011367D03*
X018389Y011717D03*
X018379Y011727D03*
X018519Y012937D03*
X018529Y012957D03*
X018219Y012997D03*
X017639Y013017D03*
X017419Y013387D03*
X016399Y010737D03*
X016399Y010727D03*
X016399Y010717D03*
X016399Y010707D03*
X016399Y010697D03*
X016399Y010687D03*
X016409Y009277D03*
X015549Y008737D03*
X015549Y008427D03*
X017829Y007257D03*
X017829Y007247D03*
X018059Y007247D03*
X018339Y007227D03*
X018439Y007147D03*
X018539Y007227D03*
X018319Y007457D03*
X018329Y007467D03*
X018859Y007427D03*
X019309Y007237D03*
X019569Y007257D03*
X019589Y007077D03*
X019729Y007167D03*
X019569Y007447D03*
X020079Y007457D03*
X020299Y007437D03*
X020749Y007327D03*
X021009Y007287D03*
X021019Y007277D03*
X021009Y007567D03*
X019389Y008097D03*
D25*
X019389Y008187D03*
X019389Y008197D03*
X019389Y008207D03*
X019389Y008647D03*
X019389Y008657D03*
X019389Y008667D03*
X018799Y008667D03*
X018799Y008677D03*
X018209Y008667D03*
X018209Y008657D03*
X018209Y008217D03*
X018209Y008207D03*
X018209Y008197D03*
X018499Y007967D03*
X017909Y007967D03*
X017619Y008197D03*
X017619Y008207D03*
X017619Y008217D03*
X017319Y007967D03*
X017109Y007677D03*
X017109Y007387D03*
X016289Y007497D03*
X015499Y007207D03*
X014279Y007167D03*
X012349Y007487D03*
X012949Y008787D03*
X013589Y009087D03*
X013599Y009077D03*
X013789Y008997D03*
X016399Y009847D03*
X017029Y008667D03*
X017029Y008657D03*
X017029Y008647D03*
X017029Y008207D03*
X017029Y008197D03*
X017619Y008657D03*
X017619Y008667D03*
X018439Y007207D03*
X019689Y007057D03*
X019689Y007047D03*
X019699Y007037D03*
X020649Y007177D03*
X020649Y007347D03*
X021239Y007167D03*
X021239Y007697D03*
X019649Y010367D03*
X019649Y010757D03*
X016399Y011437D03*
X016399Y011447D03*
X016399Y011457D03*
X016399Y011467D03*
X016399Y011477D03*
X015029Y013667D03*
X015549Y014227D03*
X016039Y014227D03*
X015139Y014597D03*
X015129Y014587D03*
X015049Y014447D03*
X015039Y014437D03*
X015039Y014427D03*
X015029Y014417D03*
X015029Y014407D03*
X015659Y015497D03*
X015659Y015507D03*
X016139Y015517D03*
X016139Y015527D03*
X016729Y015527D03*
X016729Y016127D03*
X016139Y016127D03*
X016139Y016117D03*
X017619Y014797D03*
X017299Y013757D03*
D26*
X017274Y013647D03*
X017424Y013397D03*
X018224Y013007D03*
X018494Y013437D03*
X018324Y013737D03*
X018104Y014117D03*
X017644Y014907D03*
X017024Y015367D03*
X016734Y015217D03*
X017204Y015667D03*
X017204Y015677D03*
X015724Y015757D03*
X015724Y015767D03*
X015544Y015217D03*
X015654Y014277D03*
X014644Y013607D03*
X014364Y013417D03*
X014364Y013407D03*
X014314Y013317D03*
X014304Y013307D03*
X014954Y013367D03*
X014954Y013377D03*
X014954Y013387D03*
X014674Y012277D03*
X014744Y012167D03*
X014314Y012277D03*
X012954Y010967D03*
X012954Y010957D03*
X013684Y010327D03*
X013194Y010197D03*
X013184Y010047D03*
X013184Y009777D03*
X013404Y009637D03*
X013404Y009627D03*
X013404Y009617D03*
X013404Y009607D03*
X013404Y009597D03*
X013544Y009187D03*
X013184Y009187D03*
X013194Y009027D03*
X012894Y008967D03*
X012894Y008957D03*
X012894Y008947D03*
X012594Y009187D03*
X012294Y009107D03*
X012294Y009097D03*
X012294Y009087D03*
X012294Y009077D03*
X012294Y009067D03*
X012294Y009057D03*
X011984Y009027D03*
X012004Y009187D03*
X012294Y009517D03*
X012294Y009707D03*
X012594Y009777D03*
X012884Y009707D03*
X012884Y009517D03*
X012594Y010187D03*
X012064Y008707D03*
X012444Y008597D03*
X012444Y008007D03*
X011824Y007537D03*
X011744Y007447D03*
X011574Y007537D03*
X011974Y007457D03*
X012354Y007147D03*
X012454Y007227D03*
X012834Y007247D03*
X014134Y007237D03*
X014204Y007157D03*
X014364Y007247D03*
X014364Y007447D03*
X014124Y007457D03*
X014774Y007077D03*
X014804Y007037D03*
X015054Y007157D03*
X015604Y007227D03*
X015844Y007157D03*
X016194Y007227D03*
X016294Y007147D03*
X016394Y007227D03*
X016714Y007427D03*
X016964Y007457D03*
X017124Y007717D03*
X017314Y008017D03*
X017614Y008097D03*
X017914Y008017D03*
X018204Y008097D03*
X018304Y008557D03*
X018504Y008847D03*
X018504Y008857D03*
X018504Y008867D03*
X018504Y008877D03*
X018504Y008887D03*
X018504Y008897D03*
X018504Y008907D03*
X018504Y008917D03*
X018504Y008927D03*
X018504Y008937D03*
X018504Y008947D03*
X019094Y008947D03*
X019094Y008957D03*
X019094Y008967D03*
X019094Y008977D03*
X019094Y008987D03*
X019094Y008997D03*
X019094Y009007D03*
X019094Y009017D03*
X019094Y009027D03*
X019094Y008937D03*
X019094Y008927D03*
X019094Y008917D03*
X019094Y008907D03*
X019094Y008897D03*
X019094Y008887D03*
X019094Y008877D03*
X019094Y008867D03*
X019094Y008857D03*
X019094Y008847D03*
X018794Y008097D03*
X019094Y008017D03*
X019574Y007457D03*
X019574Y007247D03*
X019804Y007247D03*
X020134Y007537D03*
X020294Y007447D03*
X020564Y007227D03*
X020714Y007157D03*
X021034Y007267D03*
X021014Y007577D03*
X021024Y007587D03*
X021244Y007717D03*
X019684Y009467D03*
X019684Y009477D03*
X019684Y009487D03*
X019684Y009497D03*
X019684Y009507D03*
X019684Y009517D03*
X019684Y009527D03*
X019684Y009537D03*
X019684Y009547D03*
X019684Y009557D03*
X019684Y009567D03*
X019974Y009627D03*
X020354Y009747D03*
X020504Y009957D03*
X020494Y009967D03*
X019684Y009957D03*
X019674Y010427D03*
X018864Y010897D03*
X019094Y011157D03*
X019694Y011357D03*
X018414Y011687D03*
X018404Y011697D03*
X018394Y011707D03*
X018794Y012847D03*
X016404Y010807D03*
X016404Y010797D03*
X016404Y010787D03*
X016404Y010777D03*
X016404Y010767D03*
X016404Y010757D03*
X016404Y010747D03*
X017614Y008767D03*
X017714Y008557D03*
X017584Y007407D03*
X017994Y007157D03*
X015544Y008147D03*
X014514Y008147D03*
X014514Y008417D03*
X014514Y008737D03*
D27*
X013479Y008597D03*
X013479Y008267D03*
X013479Y008007D03*
X013759Y007547D03*
X014199Y007537D03*
X014359Y007457D03*
X014709Y007227D03*
X014709Y007217D03*
X014709Y007207D03*
X014799Y007057D03*
X014799Y007047D03*
X015059Y007167D03*
X015499Y007547D03*
X015849Y007167D03*
X016289Y007547D03*
X016979Y007617D03*
X016979Y007447D03*
X017459Y007307D03*
X017569Y007397D03*
X017489Y007547D03*
X017539Y007147D03*
X018509Y008017D03*
X019209Y007547D03*
X018849Y007437D03*
X019789Y007467D03*
X020289Y007457D03*
X021029Y007597D03*
X021049Y007257D03*
X019389Y008767D03*
X018799Y008767D03*
X018209Y008767D03*
X017909Y008847D03*
X017909Y008857D03*
X017909Y008867D03*
X017909Y008877D03*
X017909Y008887D03*
X017909Y008897D03*
X017909Y008907D03*
X017909Y008917D03*
X017909Y008927D03*
X017909Y008937D03*
X017909Y008947D03*
X017319Y008947D03*
X017319Y008937D03*
X017319Y008927D03*
X017319Y008917D03*
X017319Y008907D03*
X017319Y008897D03*
X017319Y008887D03*
X017319Y008877D03*
X017319Y008867D03*
X017319Y008857D03*
X017319Y008847D03*
X017019Y008767D03*
X015549Y008747D03*
X015549Y008417D03*
X015549Y008157D03*
X013389Y007147D03*
X012439Y008267D03*
X012059Y008697D03*
X011979Y009017D03*
X011629Y008657D03*
X012589Y009447D03*
X013179Y009447D03*
X013199Y009017D03*
X012899Y008937D03*
X013179Y010037D03*
X013199Y010207D03*
X013529Y010067D03*
X013669Y010307D03*
X013679Y010317D03*
X013469Y010507D03*
X013459Y010497D03*
X012879Y010507D03*
X012869Y010497D03*
X012599Y010197D03*
X012589Y010037D03*
X012949Y010947D03*
X013179Y011157D03*
X013479Y011077D03*
X013769Y011157D03*
X014069Y011077D03*
X014069Y012287D03*
X013819Y012267D03*
X014069Y012847D03*
X014319Y013327D03*
X014329Y013337D03*
X014339Y013347D03*
X014359Y013387D03*
X014359Y013397D03*
X014659Y013287D03*
X014659Y013037D03*
X014659Y012847D03*
X014679Y012267D03*
X014739Y012177D03*
X014949Y013397D03*
X014949Y013407D03*
X014949Y013417D03*
X014949Y013427D03*
X014949Y013437D03*
X014949Y013447D03*
X014949Y013457D03*
X014949Y013467D03*
X014949Y013477D03*
X014949Y013487D03*
X014639Y013617D03*
X014549Y013727D03*
X015549Y014157D03*
X016489Y014937D03*
X016729Y014957D03*
X016969Y014937D03*
X017319Y014957D03*
X017319Y015217D03*
X017319Y015447D03*
X017209Y015647D03*
X017209Y015657D03*
X017019Y015357D03*
X017019Y015297D03*
X016729Y015207D03*
X016729Y015447D03*
X015789Y015237D03*
X015549Y015207D03*
X015379Y015147D03*
X015269Y014977D03*
X015269Y014967D03*
X015549Y014957D03*
X015719Y015737D03*
X015719Y015747D03*
X016139Y016197D03*
X016489Y016237D03*
X016729Y016197D03*
X017639Y014897D03*
X018099Y014107D03*
X018319Y013727D03*
X018229Y013017D03*
X018209Y012847D03*
X017639Y013027D03*
X017279Y013657D03*
X018209Y012287D03*
X018799Y012287D03*
X018809Y012277D03*
X018419Y011677D03*
X018429Y011667D03*
X018859Y010927D03*
X018859Y010917D03*
X018859Y010907D03*
X019389Y010517D03*
X019979Y009897D03*
X020359Y009737D03*
X020489Y009977D03*
X020479Y009987D03*
X020469Y009997D03*
X019679Y011377D03*
D28*
X019849Y011167D03*
X019859Y011147D03*
X019869Y011137D03*
X019269Y010857D03*
X019269Y010847D03*
X019269Y010737D03*
X018909Y010857D03*
X019089Y011107D03*
X019309Y010047D03*
X019419Y009757D03*
X019419Y009747D03*
X019419Y009737D03*
X019419Y009727D03*
X019419Y009717D03*
X019649Y009637D03*
X019859Y009707D03*
X019859Y009827D03*
X019869Y009837D03*
X019879Y009847D03*
X019649Y009887D03*
X020069Y009677D03*
X019419Y009467D03*
X019419Y009457D03*
X019419Y009447D03*
X019419Y009437D03*
X019089Y008797D03*
X018929Y008517D03*
X018929Y008347D03*
X018659Y008357D03*
X018659Y008507D03*
X018659Y008517D03*
X018349Y008507D03*
X018349Y008357D03*
X018069Y008357D03*
X018069Y008497D03*
X018069Y008507D03*
X017759Y008507D03*
X017759Y008497D03*
X017759Y008367D03*
X017759Y008357D03*
X017479Y008357D03*
X017479Y008347D03*
X017479Y008507D03*
X017169Y008507D03*
X017169Y008497D03*
X017169Y008367D03*
X016889Y008357D03*
X016889Y008517D03*
X017319Y008797D03*
X018499Y008797D03*
X019249Y008517D03*
X019249Y008507D03*
X019249Y008357D03*
X019529Y008357D03*
X019529Y008367D03*
X019529Y008507D03*
X018729Y007547D03*
X017999Y007137D03*
X017619Y007227D03*
X016589Y007547D03*
X015649Y008207D03*
X015639Y008197D03*
X015449Y008207D03*
X015439Y008357D03*
X015449Y008367D03*
X015459Y008787D03*
X015449Y008797D03*
X015439Y008807D03*
X015639Y008787D03*
X015649Y008797D03*
X015659Y008807D03*
X015659Y008937D03*
X015659Y008947D03*
X014619Y008807D03*
X014399Y008807D03*
X014399Y008947D03*
X014609Y008367D03*
X014619Y008357D03*
X014419Y008197D03*
X013579Y008217D03*
X013379Y008217D03*
X013379Y008057D03*
X013389Y008637D03*
X013379Y008647D03*
X013369Y008657D03*
X013359Y008667D03*
X013359Y008787D03*
X013569Y008817D03*
X013579Y008807D03*
X013589Y008797D03*
X013279Y009237D03*
X013289Y009247D03*
X013269Y009407D03*
X013089Y009407D03*
X013069Y009387D03*
X013069Y009257D03*
X013079Y009247D03*
X013099Y009227D03*
X012699Y009247D03*
X012689Y009237D03*
X012679Y009407D03*
X012499Y009407D03*
X012489Y009397D03*
X012479Y009387D03*
X012509Y009227D03*
X012259Y008997D03*
X012349Y008817D03*
X012339Y008807D03*
X012329Y008797D03*
X012359Y008637D03*
X012529Y008637D03*
X012539Y008647D03*
X012549Y008657D03*
X012559Y008667D03*
X012099Y008787D03*
X012099Y009237D03*
X012109Y009257D03*
X012109Y009387D03*
X012089Y009407D03*
X012039Y009457D03*
X011919Y009227D03*
X012499Y009827D03*
X012479Y009847D03*
X012489Y009987D03*
X012499Y009997D03*
X012679Y009997D03*
X012699Y009847D03*
X012699Y009837D03*
X012889Y010067D03*
X012919Y010197D03*
X012919Y010207D03*
X013089Y009997D03*
X013079Y009987D03*
X013069Y009977D03*
X013069Y009847D03*
X013079Y009837D03*
X013089Y009827D03*
X013279Y009827D03*
X013289Y009837D03*
X013459Y009737D03*
X013509Y009907D03*
X013509Y009917D03*
X013449Y009507D03*
X013509Y009317D03*
X013769Y010487D03*
X013949Y010707D03*
X013949Y010717D03*
X013949Y010727D03*
X013949Y010737D03*
X013949Y010857D03*
X013589Y010867D03*
X013589Y010727D03*
X013359Y010727D03*
X013359Y010737D03*
X013359Y010857D03*
X013179Y011107D03*
X012959Y011057D03*
X012999Y010867D03*
X012999Y010857D03*
X012999Y010727D03*
X014239Y011217D03*
X014759Y012107D03*
X014769Y012497D03*
X014769Y012637D03*
X014549Y012637D03*
X014549Y012497D03*
X014319Y012337D03*
X014179Y012497D03*
X014179Y012637D03*
X013949Y012627D03*
X013949Y012517D03*
X013949Y012507D03*
X013819Y012337D03*
X014099Y013017D03*
X014159Y013077D03*
X014569Y013077D03*
X014559Y013237D03*
X014569Y013247D03*
X014749Y013247D03*
X014749Y013077D03*
X014989Y013037D03*
X014959Y012877D03*
X015149Y012787D03*
X015159Y012797D03*
X015159Y012807D03*
X015169Y012827D03*
X015219Y012897D03*
X015219Y012907D03*
X015219Y012917D03*
X014989Y013277D03*
X014539Y013787D03*
X015459Y014997D03*
X015449Y015167D03*
X015399Y015287D03*
X015629Y015177D03*
X015789Y015187D03*
X015659Y015017D03*
X015649Y015007D03*
X015639Y014997D03*
X016049Y014997D03*
X016059Y015177D03*
X016219Y015177D03*
X016229Y014997D03*
X016619Y015017D03*
X016629Y015007D03*
X016639Y014997D03*
X016649Y015177D03*
X016829Y015167D03*
X016819Y014997D03*
X017029Y015237D03*
X017029Y015417D03*
X017209Y015147D03*
X017209Y015017D03*
X017219Y015007D03*
X017409Y014997D03*
X017429Y015157D03*
X017419Y015167D03*
X017159Y015767D03*
X017159Y015777D03*
X017159Y015787D03*
X016889Y015757D03*
X016889Y015887D03*
X016569Y015877D03*
X016569Y015867D03*
X016569Y015777D03*
X016569Y015767D03*
X016299Y015767D03*
X016299Y015777D03*
X016299Y015757D03*
X016299Y015877D03*
X016299Y015887D03*
X015979Y015887D03*
X015979Y015877D03*
X015979Y015767D03*
X015979Y015757D03*
X015769Y015917D03*
X015769Y015927D03*
X016929Y016217D03*
X016939Y016207D03*
X016949Y016197D03*
X016959Y016187D03*
X018119Y014177D03*
X018399Y013387D03*
X018389Y013377D03*
X018379Y013247D03*
X018589Y013227D03*
X018609Y013237D03*
X018619Y013247D03*
X018619Y013257D03*
X018559Y013407D03*
X018739Y013087D03*
X018499Y012877D03*
X018679Y012637D03*
X018679Y012627D03*
X018679Y012507D03*
X018679Y012497D03*
X018909Y012507D03*
X018909Y012637D03*
X018329Y012627D03*
X018329Y012517D03*
X018329Y012507D03*
X018089Y012507D03*
X018089Y012627D03*
X017909Y012877D03*
X017949Y013007D03*
X017649Y012937D03*
X017649Y012927D03*
X017409Y013337D03*
X016399Y010467D03*
X012539Y008217D03*
X012539Y008057D03*
X012349Y008057D03*
X012339Y008217D03*
X011509Y008217D03*
X011479Y008237D03*
X013469Y007227D03*
X013649Y007227D03*
X014209Y007137D03*
X015099Y007647D03*
X019819Y007067D03*
D29*
X019754Y007067D03*
X019074Y007237D03*
X017644Y007247D03*
X019164Y009107D03*
X019234Y010147D03*
X019224Y010157D03*
X019214Y010167D03*
X018934Y010647D03*
X018934Y010657D03*
X018934Y010667D03*
X019684Y010867D03*
X019954Y011027D03*
X017754Y012697D03*
X017754Y012707D03*
X017404Y013307D03*
X018344Y013827D03*
X018604Y013357D03*
X018744Y013127D03*
X017634Y015047D03*
X017134Y015917D03*
X016974Y016167D03*
X015794Y016007D03*
X015314Y015177D03*
X015314Y015167D03*
X014534Y013817D03*
X014384Y013567D03*
X014194Y013237D03*
X014994Y013057D03*
X015114Y012687D03*
X015114Y012677D03*
X014764Y012077D03*
X012844Y010887D03*
X012774Y010777D03*
X012774Y010767D03*
X013774Y010507D03*
X013924Y010627D03*
X012884Y009767D03*
X012294Y009767D03*
X013484Y009447D03*
X011454Y008287D03*
X013624Y007237D03*
X016404Y010427D03*
X020784Y007457D03*
D30*
X020669Y007547D03*
X020579Y007417D03*
X021059Y007247D03*
X019619Y007067D03*
X019179Y007147D03*
X019589Y007467D03*
X019099Y008007D03*
X018509Y008007D03*
X018209Y008107D03*
X017909Y007997D03*
X017619Y008107D03*
X017319Y007997D03*
X017559Y007387D03*
X018439Y007157D03*
X018209Y008757D03*
X017619Y008757D03*
X016399Y009877D03*
X015549Y008757D03*
X015549Y008407D03*
X015549Y008167D03*
X015859Y007197D03*
X015859Y007187D03*
X015069Y007187D03*
X015069Y007197D03*
X015069Y007207D03*
X014789Y007067D03*
X014709Y007237D03*
X014709Y007247D03*
X014709Y007257D03*
X014199Y007527D03*
X013729Y007147D03*
X013399Y007387D03*
X012819Y007237D03*
X012719Y007147D03*
X012359Y007157D03*
X012709Y007547D03*
X012439Y008017D03*
X012439Y008257D03*
X012049Y008677D03*
X011849Y008877D03*
X011839Y008867D03*
X011829Y008857D03*
X011819Y008847D03*
X011809Y008837D03*
X011799Y008827D03*
X011789Y008817D03*
X011779Y008807D03*
X011859Y008887D03*
X011869Y008897D03*
X011879Y008907D03*
X011889Y008917D03*
X011899Y008927D03*
X011909Y008937D03*
X011919Y008947D03*
X011929Y008957D03*
X011939Y008967D03*
X011949Y008977D03*
X011959Y008987D03*
X011969Y008997D03*
X011659Y008687D03*
X011649Y008677D03*
X011639Y008667D03*
X012589Y009437D03*
X013179Y009437D03*
X013209Y008997D03*
X013219Y008987D03*
X013229Y008977D03*
X013239Y008967D03*
X013249Y008957D03*
X013259Y008947D03*
X013269Y008937D03*
X013279Y008927D03*
X013289Y008917D03*
X013299Y008907D03*
X013309Y008897D03*
X013319Y008887D03*
X012909Y008907D03*
X013479Y008257D03*
X013479Y008017D03*
X011579Y007527D03*
X012589Y010027D03*
X012609Y010217D03*
X012619Y010227D03*
X012849Y010467D03*
X012859Y010477D03*
X013209Y010227D03*
X013439Y010467D03*
X013449Y010477D03*
X013479Y010517D03*
X013629Y010257D03*
X013619Y010247D03*
X014009Y010907D03*
X014009Y010917D03*
X014009Y010927D03*
X014069Y011067D03*
X013769Y011167D03*
X012939Y010917D03*
X012939Y010907D03*
X014069Y012297D03*
X014309Y012257D03*
X014659Y012297D03*
X014689Y012247D03*
X014699Y012237D03*
X014739Y012187D03*
X014659Y013047D03*
X014659Y013277D03*
X014629Y013637D03*
X014619Y013647D03*
X014609Y013657D03*
X014599Y013667D03*
X014589Y013677D03*
X014579Y013687D03*
X014569Y013697D03*
X014559Y013707D03*
X014959Y013557D03*
X014959Y013547D03*
X014959Y013537D03*
X016489Y014927D03*
X016729Y014967D03*
X016729Y015197D03*
X017019Y015307D03*
X017019Y015317D03*
X017019Y015327D03*
X017019Y015337D03*
X017309Y015467D03*
X017319Y015457D03*
X017229Y015597D03*
X017219Y015607D03*
X017219Y015617D03*
X017219Y015627D03*
X017319Y015207D03*
X017319Y014967D03*
X016969Y014927D03*
X016139Y014967D03*
X016139Y015197D03*
X015549Y015197D03*
X015349Y015087D03*
X015269Y014957D03*
X015549Y014967D03*
X015709Y015707D03*
X015709Y015717D03*
X017939Y013937D03*
X017929Y013927D03*
X017919Y013917D03*
X017909Y013907D03*
X017889Y013887D03*
X017879Y013877D03*
X017869Y013867D03*
X017859Y013857D03*
X017839Y013837D03*
X017829Y013827D03*
X017819Y013817D03*
X017809Y013807D03*
X017789Y013787D03*
X017779Y013777D03*
X017769Y013767D03*
X017759Y013757D03*
X017739Y013737D03*
X017729Y013727D03*
X017719Y013717D03*
X017709Y013707D03*
X017709Y013697D03*
X017689Y013687D03*
X017679Y013677D03*
X017669Y013667D03*
X017659Y013657D03*
X017659Y013647D03*
X017609Y013597D03*
X017559Y013547D03*
X017509Y013497D03*
X017459Y013447D03*
X017429Y013417D03*
X017279Y013667D03*
X017779Y013177D03*
X017769Y013167D03*
X017759Y013157D03*
X017759Y013147D03*
X017749Y013137D03*
X017729Y013127D03*
X017719Y013117D03*
X017709Y013107D03*
X017709Y013097D03*
X017699Y013087D03*
X017679Y013077D03*
X017669Y013067D03*
X017659Y013047D03*
X017649Y013037D03*
X017799Y013187D03*
X017809Y013207D03*
X017819Y013217D03*
X017829Y013227D03*
X017859Y013257D03*
X017869Y013267D03*
X017879Y013277D03*
X017909Y013307D03*
X017919Y013317D03*
X017929Y013327D03*
X017939Y013337D03*
X017949Y013347D03*
X017959Y013357D03*
X017969Y013367D03*
X017979Y013377D03*
X017989Y013387D03*
X017999Y013397D03*
X018009Y013407D03*
X018019Y013417D03*
X018029Y013427D03*
X018039Y013437D03*
X018049Y013447D03*
X018059Y013457D03*
X018069Y013467D03*
X018079Y013477D03*
X018089Y013487D03*
X018099Y013497D03*
X018109Y013507D03*
X018119Y013517D03*
X018129Y013527D03*
X018139Y013537D03*
X018149Y013547D03*
X018159Y013557D03*
X018169Y013567D03*
X018179Y013577D03*
X018189Y013587D03*
X018199Y013597D03*
X018209Y013607D03*
X018219Y013617D03*
X018229Y013627D03*
X018239Y013637D03*
X018249Y013647D03*
X018259Y013657D03*
X018269Y013667D03*
X018279Y013677D03*
X018289Y013687D03*
X018299Y013697D03*
X018309Y013707D03*
X018489Y013417D03*
X018339Y013147D03*
X018329Y013137D03*
X018319Y013127D03*
X018309Y013117D03*
X018299Y013107D03*
X018289Y013097D03*
X018249Y013047D03*
X018239Y013037D03*
X018799Y012837D03*
X018819Y012247D03*
X018829Y012237D03*
X018859Y012207D03*
X018869Y012197D03*
X018879Y012187D03*
X018899Y012177D03*
X018909Y012167D03*
X018909Y012157D03*
X018919Y012147D03*
X018929Y012137D03*
X018949Y012127D03*
X018959Y012117D03*
X018959Y012107D03*
X018969Y012097D03*
X018979Y012087D03*
X018999Y012077D03*
X019009Y012067D03*
X019009Y012057D03*
X019019Y012047D03*
X018719Y011757D03*
X018709Y011767D03*
X018699Y011777D03*
X018689Y011787D03*
X018679Y011797D03*
X018669Y011807D03*
X018659Y011817D03*
X018649Y011827D03*
X018639Y011837D03*
X018629Y011847D03*
X018619Y011857D03*
X018609Y011867D03*
X018599Y011877D03*
X018589Y011887D03*
X018579Y011897D03*
X018459Y011627D03*
X018469Y011617D03*
X018209Y012297D03*
X019459Y011607D03*
X019469Y011597D03*
X019479Y011587D03*
X019489Y011577D03*
X019509Y011567D03*
X019509Y011557D03*
X019519Y011547D03*
X019529Y011537D03*
X019539Y011527D03*
X019559Y011517D03*
X019559Y011507D03*
X019569Y011497D03*
X019579Y011487D03*
X019589Y011477D03*
X019609Y011467D03*
X019609Y011457D03*
X019619Y011447D03*
X019629Y011437D03*
X019639Y011427D03*
X019759Y010717D03*
X019769Y010707D03*
X019779Y010697D03*
X019789Y010687D03*
X019799Y010677D03*
X019809Y010667D03*
X019819Y010657D03*
X019829Y010647D03*
X019839Y010637D03*
X019849Y010627D03*
X019859Y010617D03*
X019869Y010607D03*
X019879Y010597D03*
X019889Y010587D03*
X019899Y010577D03*
X019909Y010567D03*
X019919Y010557D03*
X019929Y010547D03*
X019939Y010537D03*
X019949Y010527D03*
X019959Y010517D03*
X019969Y010507D03*
X019979Y010497D03*
X019989Y010487D03*
X019999Y010477D03*
X020009Y010467D03*
X020019Y010457D03*
X020029Y010447D03*
X020039Y010437D03*
X020049Y010427D03*
X020059Y010417D03*
X020069Y010407D03*
X020079Y010397D03*
X020089Y010387D03*
X020099Y010377D03*
X020109Y010367D03*
X020119Y010357D03*
X020129Y010347D03*
X020139Y010337D03*
X020149Y010327D03*
X020159Y010317D03*
X020169Y010307D03*
X020179Y010297D03*
X020189Y010287D03*
X020199Y010277D03*
X020209Y010267D03*
X020219Y010257D03*
X020229Y010247D03*
X020239Y010237D03*
X020249Y010227D03*
X020259Y010217D03*
X020269Y010207D03*
X020279Y010197D03*
X020289Y010187D03*
X020299Y010177D03*
X020309Y010167D03*
X020319Y010157D03*
X020329Y010147D03*
X020339Y010137D03*
X020349Y010127D03*
X020359Y010117D03*
X020369Y010107D03*
X020379Y010097D03*
X020389Y010087D03*
X020399Y010077D03*
X020409Y010067D03*
X020419Y010057D03*
X020429Y010047D03*
X020439Y010037D03*
X020449Y010027D03*
X019689Y009977D03*
X018849Y010957D03*
X017959Y013957D03*
X017969Y013967D03*
X017979Y013977D03*
X017989Y013987D03*
X018009Y014007D03*
X018019Y014017D03*
X018029Y014027D03*
X018039Y014037D03*
X018049Y014047D03*
X018059Y014057D03*
X018069Y014067D03*
X018079Y014077D03*
X018089Y014087D03*
X018099Y014097D03*
D31*
X018119Y014197D03*
X018339Y013817D03*
X018599Y013367D03*
X018609Y013347D03*
X018619Y013337D03*
X018739Y013117D03*
X018799Y012877D03*
X018499Y012857D03*
X017949Y013027D03*
X017669Y012867D03*
X017669Y012857D03*
X017749Y012727D03*
X017749Y012717D03*
X017409Y013317D03*
X017259Y013567D03*
X017639Y015027D03*
X017639Y015037D03*
X017029Y015227D03*
X017029Y015427D03*
X017139Y015897D03*
X017139Y015907D03*
X016489Y016167D03*
X015989Y016327D03*
X015789Y015997D03*
X015789Y015987D03*
X016439Y015427D03*
X015339Y015207D03*
X015329Y015187D03*
X015309Y015157D03*
X014989Y013267D03*
X015119Y012707D03*
X015119Y012697D03*
X014199Y013227D03*
X014249Y011197D03*
X013779Y011087D03*
X013929Y010637D03*
X013189Y011087D03*
X012959Y011077D03*
X012919Y010217D03*
X013489Y009817D03*
X013489Y009807D03*
X013489Y009797D03*
X013489Y009787D03*
X013479Y009457D03*
X013489Y009437D03*
X013489Y009427D03*
X013489Y009417D03*
X013489Y009407D03*
X013489Y009397D03*
X011899Y009257D03*
X011459Y008277D03*
X012639Y007237D03*
X013069Y007287D03*
X013479Y007237D03*
X015779Y007237D03*
X017419Y007467D03*
X019829Y007077D03*
X019159Y009097D03*
X019249Y010127D03*
X019239Y010137D03*
X018929Y010677D03*
X019089Y011087D03*
X019929Y011067D03*
X019939Y011047D03*
X019949Y011037D03*
X018499Y012047D03*
D32*
X017759Y012677D03*
X017759Y012687D03*
X017259Y013557D03*
X018119Y014207D03*
X017629Y015057D03*
X017629Y015067D03*
X017619Y015087D03*
X017129Y015927D03*
X017129Y015937D03*
X015969Y016317D03*
X015799Y016027D03*
X015799Y016017D03*
X014529Y013827D03*
X014379Y013577D03*
X015109Y012667D03*
X015109Y012657D03*
X014319Y012347D03*
X014259Y011187D03*
X013919Y010617D03*
X013919Y010607D03*
X012949Y011087D03*
X012829Y010877D03*
X012779Y010797D03*
X012779Y010787D03*
X011899Y009267D03*
X012259Y008977D03*
X011539Y008647D03*
X013489Y007247D03*
X017409Y007457D03*
X019839Y007087D03*
X019209Y010177D03*
X019199Y010187D03*
X018939Y010637D03*
X018619Y011197D03*
X019969Y011007D03*
X019979Y010997D03*
D33*
X019734Y011307D03*
X019734Y011317D03*
X019384Y011087D03*
X019094Y011147D03*
X018794Y011087D03*
X018654Y011237D03*
X018374Y011737D03*
X018364Y011747D03*
X018204Y012857D03*
X018214Y012987D03*
X018384Y013217D03*
X018494Y013447D03*
X018324Y013747D03*
X018104Y014127D03*
X017274Y013637D03*
X017644Y013007D03*
X017924Y012937D03*
X018524Y012947D03*
X018534Y012967D03*
X018794Y012857D03*
X017644Y014917D03*
X017644Y014927D03*
X017024Y015387D03*
X016724Y015377D03*
X016724Y015247D03*
X016724Y015237D03*
X016444Y015287D03*
X016444Y015357D03*
X016444Y015367D03*
X016264Y015697D03*
X016264Y015947D03*
X016014Y015947D03*
X016014Y015697D03*
X015734Y015797D03*
X015784Y015217D03*
X015544Y015227D03*
X015544Y015237D03*
X015544Y014937D03*
X015424Y014397D03*
X015414Y014387D03*
X015424Y014287D03*
X015674Y014297D03*
X015684Y014307D03*
X015674Y014397D03*
X016494Y014947D03*
X016854Y015697D03*
X016604Y015947D03*
X014654Y013587D03*
X014374Y013437D03*
X014304Y013297D03*
X014364Y012967D03*
X014364Y012957D03*
X014364Y012927D03*
X014654Y012857D03*
X014954Y012927D03*
X014964Y012977D03*
X014964Y013347D03*
X014064Y012857D03*
X014064Y012277D03*
X014064Y012267D03*
X014314Y012287D03*
X014744Y012157D03*
X016404Y010677D03*
X013754Y010427D03*
X013744Y010417D03*
X013734Y010397D03*
X013734Y010387D03*
X013724Y010377D03*
X013714Y010367D03*
X013534Y010047D03*
X013184Y010057D03*
X013184Y010177D03*
X012894Y010137D03*
X012894Y010127D03*
X012584Y010127D03*
X012584Y010137D03*
X012584Y010147D03*
X012584Y010157D03*
X012584Y010167D03*
X012584Y010117D03*
X012584Y010107D03*
X012584Y010097D03*
X012584Y010087D03*
X012584Y010077D03*
X012584Y010067D03*
X012584Y010057D03*
X012594Y009767D03*
X012884Y009717D03*
X012884Y009507D03*
X013184Y009767D03*
X013414Y009657D03*
X013544Y009207D03*
X013184Y009177D03*
X013184Y009057D03*
X013184Y009047D03*
X012884Y009117D03*
X012884Y009127D03*
X012584Y009127D03*
X012584Y009137D03*
X012584Y009147D03*
X012584Y009157D03*
X012584Y009167D03*
X012584Y009117D03*
X012584Y009107D03*
X012584Y009097D03*
X012584Y009087D03*
X012584Y009077D03*
X012584Y009067D03*
X012584Y009057D03*
X012584Y009047D03*
X012584Y009037D03*
X012584Y009027D03*
X012584Y009017D03*
X012584Y009007D03*
X012584Y008997D03*
X012584Y008987D03*
X012584Y008977D03*
X012584Y008967D03*
X012584Y008957D03*
X012584Y008947D03*
X012584Y008937D03*
X012584Y008927D03*
X012584Y008917D03*
X012584Y008907D03*
X012584Y008897D03*
X012584Y008887D03*
X012284Y009027D03*
X012294Y009127D03*
X011994Y009167D03*
X011994Y009047D03*
X012074Y008727D03*
X012444Y008587D03*
X012434Y007977D03*
X012434Y007967D03*
X012704Y007557D03*
X012844Y007437D03*
X012854Y007427D03*
X012854Y007267D03*
X012844Y007257D03*
X013074Y007227D03*
X013074Y007217D03*
X013074Y007207D03*
X013074Y007197D03*
X013074Y007187D03*
X012484Y007257D03*
X012474Y007237D03*
X012474Y007457D03*
X012464Y007467D03*
X012234Y007447D03*
X012234Y007247D03*
X012244Y007237D03*
X011984Y007437D03*
X011744Y007437D03*
X011744Y007427D03*
X013474Y007967D03*
X013474Y007977D03*
X013474Y007987D03*
X013754Y007557D03*
X014114Y007447D03*
X014194Y007547D03*
X014374Y007427D03*
X014374Y007267D03*
X014114Y007257D03*
X013874Y007247D03*
X014584Y007507D03*
X014834Y007477D03*
X014844Y007507D03*
X015044Y007147D03*
X014744Y007097D03*
X015384Y007247D03*
X015384Y007457D03*
X015634Y007267D03*
X015624Y007247D03*
X015614Y007237D03*
X015844Y007147D03*
X015904Y007247D03*
X016174Y007247D03*
X016184Y007237D03*
X016174Y007457D03*
X016414Y007457D03*
X016414Y007247D03*
X016404Y007237D03*
X016954Y007467D03*
X017444Y007297D03*
X018064Y007257D03*
X018314Y007247D03*
X018324Y007237D03*
X018294Y007407D03*
X018314Y007447D03*
X018544Y007467D03*
X018554Y007457D03*
X018554Y007237D03*
X018864Y007417D03*
X019204Y007557D03*
X019564Y007437D03*
X019564Y007267D03*
X019584Y007087D03*
X019814Y007257D03*
X019814Y007447D03*
X019804Y007457D03*
X019724Y007547D03*
X020064Y007447D03*
X020304Y007427D03*
X020564Y007467D03*
X020664Y007557D03*
X020994Y007557D03*
X020994Y007547D03*
X020994Y007327D03*
X020994Y007317D03*
X021004Y007297D03*
X020774Y007227D03*
X020554Y007237D03*
X019324Y007247D03*
X019094Y008027D03*
X018504Y008027D03*
X018504Y008827D03*
X018794Y008827D03*
X018794Y008837D03*
X018794Y008847D03*
X018794Y008857D03*
X018794Y008867D03*
X018794Y008877D03*
X018794Y008887D03*
X018794Y008897D03*
X018794Y008907D03*
X018794Y008917D03*
X018794Y008927D03*
X018794Y008937D03*
X018794Y008947D03*
X018794Y008957D03*
X018794Y008817D03*
X018794Y008807D03*
X018794Y008797D03*
X018794Y008787D03*
X018794Y008777D03*
X019094Y008837D03*
X019104Y009037D03*
X019384Y008777D03*
X019974Y009327D03*
X019974Y009617D03*
X019674Y009577D03*
X020344Y009767D03*
X020534Y009917D03*
X020544Y009907D03*
X017024Y008777D03*
X015544Y008137D03*
X015544Y008127D03*
X015544Y008077D03*
X014514Y008137D03*
X014504Y008117D03*
X014504Y008107D03*
X014504Y008097D03*
X014514Y008427D03*
X014514Y008727D03*
X012294Y009507D03*
X012294Y009717D03*
D34*
X012294Y009747D03*
X012514Y010007D03*
X012664Y010007D03*
X012684Y009827D03*
X012884Y009747D03*
X013104Y010007D03*
X013274Y009997D03*
X013514Y009947D03*
X013514Y009937D03*
X013514Y009927D03*
X013454Y009727D03*
X013444Y009517D03*
X013254Y009417D03*
X013104Y009417D03*
X012884Y009477D03*
X012664Y009417D03*
X012514Y009417D03*
X012294Y009477D03*
X012074Y009417D03*
X012044Y009447D03*
X012104Y009247D03*
X012084Y009227D03*
X012294Y009157D03*
X012674Y009227D03*
X012884Y009157D03*
X013264Y009227D03*
X013514Y009287D03*
X013514Y009297D03*
X013514Y009307D03*
X014414Y008797D03*
X014424Y008787D03*
X014604Y008787D03*
X014614Y008797D03*
X014434Y008377D03*
X014414Y008207D03*
X014604Y008197D03*
X014614Y008207D03*
X015454Y008197D03*
X015644Y008367D03*
X015654Y008357D03*
X016894Y008347D03*
X017164Y008347D03*
X017164Y008357D03*
X017164Y008517D03*
X017484Y008517D03*
X017754Y008517D03*
X017754Y008347D03*
X018074Y008347D03*
X018074Y008517D03*
X018344Y008517D03*
X018344Y008347D03*
X018664Y008347D03*
X018664Y008527D03*
X018924Y008527D03*
X018924Y008337D03*
X019254Y008347D03*
X019254Y008527D03*
X019524Y008517D03*
X019524Y008347D03*
X019094Y008807D03*
X018824Y008967D03*
X018504Y008807D03*
X017914Y008797D03*
X017914Y008057D03*
X018504Y008057D03*
X019654Y008907D03*
X019414Y009387D03*
X019414Y009397D03*
X019414Y009407D03*
X019414Y009417D03*
X019414Y009427D03*
X019874Y009687D03*
X019864Y009697D03*
X019884Y009677D03*
X019894Y009857D03*
X020074Y009847D03*
X020324Y009817D03*
X019414Y009817D03*
X019414Y009807D03*
X019414Y009797D03*
X019414Y009787D03*
X019414Y009777D03*
X019414Y009767D03*
X019324Y010027D03*
X019314Y010037D03*
X019384Y010487D03*
X019674Y010467D03*
X019494Y010717D03*
X019504Y010867D03*
X019274Y010867D03*
X019274Y010727D03*
X018904Y010867D03*
X019094Y011117D03*
X019854Y011157D03*
X018904Y012497D03*
X018904Y012647D03*
X018684Y012647D03*
X018324Y012637D03*
X018324Y012497D03*
X018094Y012497D03*
X018094Y012637D03*
X017914Y012887D03*
X017644Y012947D03*
X017414Y013347D03*
X017264Y013597D03*
X018114Y014167D03*
X018334Y013787D03*
X018414Y013397D03*
X018574Y013217D03*
X018544Y013007D03*
X018744Y013067D03*
X018744Y013077D03*
X017654Y014957D03*
X017654Y014967D03*
X017404Y015177D03*
X017234Y015177D03*
X017224Y015167D03*
X017214Y015157D03*
X017234Y014997D03*
X016964Y014977D03*
X016814Y015177D03*
X017024Y015407D03*
X016884Y015747D03*
X016884Y015897D03*
X016884Y015907D03*
X016574Y015907D03*
X016574Y015897D03*
X016574Y015887D03*
X016574Y015757D03*
X016574Y015747D03*
X016294Y015747D03*
X016294Y015897D03*
X016294Y015907D03*
X015984Y015907D03*
X015984Y015897D03*
X015984Y015747D03*
X015764Y015897D03*
X015764Y015907D03*
X015464Y015177D03*
X016494Y014977D03*
X017164Y015747D03*
X017164Y015757D03*
X016924Y016227D03*
X014394Y013527D03*
X014304Y013267D03*
X014144Y013067D03*
X014104Y013027D03*
X014094Y013007D03*
X014094Y012997D03*
X014364Y013007D03*
X014364Y012887D03*
X014364Y012877D03*
X014584Y013067D03*
X014734Y013067D03*
X014734Y013257D03*
X014584Y013257D03*
X014994Y013287D03*
X015224Y012927D03*
X015164Y012817D03*
X014954Y012887D03*
X014764Y012647D03*
X014764Y012487D03*
X014554Y012487D03*
X014554Y012647D03*
X014174Y012647D03*
X014174Y012487D03*
X013954Y012497D03*
X013954Y012637D03*
X014754Y012117D03*
X013774Y011117D03*
X013774Y011107D03*
X013584Y010877D03*
X013584Y010717D03*
X013364Y010717D03*
X013364Y010867D03*
X012994Y010717D03*
X012774Y010717D03*
X012964Y011047D03*
X013184Y011117D03*
X013954Y010867D03*
X013774Y010477D03*
X012564Y008797D03*
X012564Y008787D03*
X012094Y008777D03*
X012354Y008227D03*
X012524Y008227D03*
X012524Y008047D03*
X012354Y008047D03*
X011484Y008227D03*
X013074Y007277D03*
X013394Y008047D03*
X013564Y008047D03*
X013574Y008057D03*
X013564Y008227D03*
X013394Y008227D03*
X013564Y008637D03*
X013574Y008647D03*
X016404Y010477D03*
X016404Y010487D03*
X020714Y007137D03*
D35*
X019719Y007557D03*
X019089Y008057D03*
X019259Y008337D03*
X019519Y008337D03*
X019519Y008527D03*
X018919Y008537D03*
X018669Y008337D03*
X018339Y008337D03*
X018339Y008527D03*
X018079Y008527D03*
X018079Y008337D03*
X017749Y008337D03*
X017749Y008527D03*
X017489Y008527D03*
X017489Y008337D03*
X017159Y008337D03*
X017159Y008527D03*
X016899Y008527D03*
X016899Y008337D03*
X017319Y008057D03*
X016599Y007537D03*
X016299Y007137D03*
X015839Y007137D03*
X015509Y007137D03*
X015049Y007137D03*
X015469Y008187D03*
X015619Y008187D03*
X015629Y008377D03*
X015469Y008377D03*
X015479Y008777D03*
X015619Y008777D03*
X014589Y008777D03*
X014439Y008777D03*
X014589Y008377D03*
X014589Y008187D03*
X014439Y008187D03*
X013359Y008797D03*
X013519Y009267D03*
X013519Y009277D03*
X013449Y009717D03*
X013519Y009957D03*
X013519Y009967D03*
X013259Y010007D03*
X013109Y009817D03*
X012889Y010077D03*
X012919Y010187D03*
X012519Y009817D03*
X012259Y009007D03*
X012379Y008627D03*
X012509Y008037D03*
X011819Y007557D03*
X011569Y007557D03*
X012359Y007137D03*
X012719Y007137D03*
X013069Y007147D03*
X017319Y008807D03*
X017909Y008807D03*
X019129Y009067D03*
X019409Y009367D03*
X019409Y009377D03*
X019659Y009437D03*
X019649Y009627D03*
X019409Y009827D03*
X019409Y009837D03*
X019409Y009847D03*
X019339Y010017D03*
X019649Y009897D03*
X020059Y009857D03*
X020609Y009837D03*
X019489Y010877D03*
X019389Y011097D03*
X019279Y010717D03*
X018899Y010877D03*
X018799Y011097D03*
X018639Y011227D03*
X019809Y011217D03*
X019819Y011197D03*
X019829Y011187D03*
X019839Y011177D03*
X018209Y012267D03*
X018099Y012487D03*
X018099Y012647D03*
X018319Y012647D03*
X018319Y012487D03*
X018689Y012487D03*
X018899Y012487D03*
X018899Y012657D03*
X018499Y012887D03*
X018759Y013037D03*
X018769Y013027D03*
X018749Y013057D03*
X018429Y013407D03*
X018329Y013777D03*
X018109Y014157D03*
X017269Y013607D03*
X017639Y012967D03*
X017639Y012957D03*
X017949Y012997D03*
X015229Y012947D03*
X015229Y012937D03*
X014989Y013297D03*
X014539Y013777D03*
X014129Y013057D03*
X014119Y013047D03*
X014109Y013037D03*
X014089Y012987D03*
X013959Y012647D03*
X013959Y012487D03*
X014759Y012657D03*
X014069Y011097D03*
X013959Y010877D03*
X013479Y011097D03*
X012989Y010877D03*
X012959Y011037D03*
X016409Y010497D03*
X018739Y007537D03*
X018439Y007137D03*
X016969Y014967D03*
X017029Y015247D03*
X017169Y015737D03*
X016879Y015737D03*
X016879Y015917D03*
X016579Y015917D03*
X016579Y015737D03*
X016289Y015737D03*
X016289Y015917D03*
X015989Y015917D03*
X015989Y015737D03*
X015759Y015877D03*
X015759Y015887D03*
X016429Y015407D03*
X016429Y015397D03*
X016429Y015247D03*
X016489Y016187D03*
X016909Y016237D03*
D36*
X016874Y015927D03*
X016874Y015727D03*
X016584Y015727D03*
X016584Y015927D03*
X016284Y015927D03*
X016284Y015727D03*
X015994Y015727D03*
X015994Y015927D03*
X015754Y015867D03*
X015754Y015857D03*
X015784Y015197D03*
X016434Y015257D03*
X016494Y014967D03*
X017024Y015397D03*
X017174Y015727D03*
X017654Y014947D03*
X017414Y013357D03*
X017634Y012977D03*
X017914Y012897D03*
X017944Y012987D03*
X018314Y012657D03*
X018504Y012897D03*
X018544Y012997D03*
X018754Y013047D03*
X018384Y013237D03*
X018694Y012657D03*
X019094Y011127D03*
X019284Y010877D03*
X019284Y010707D03*
X019484Y010707D03*
X019674Y010457D03*
X019344Y010007D03*
X019354Y009997D03*
X019404Y009867D03*
X019404Y009857D03*
X019654Y009617D03*
X019404Y009357D03*
X019404Y009347D03*
X019404Y009337D03*
X019124Y009057D03*
X019264Y008537D03*
X019264Y008327D03*
X019514Y008537D03*
X019664Y008897D03*
X018914Y008327D03*
X018674Y008327D03*
X018674Y008537D03*
X018334Y008327D03*
X018084Y008327D03*
X018084Y008537D03*
X017744Y008327D03*
X017494Y008327D03*
X017154Y008327D03*
X016904Y008327D03*
X016904Y008537D03*
X017324Y008047D03*
X017914Y008047D03*
X018744Y007527D03*
X018884Y007487D03*
X018894Y007537D03*
X018894Y007547D03*
X019544Y007547D03*
X019544Y007537D03*
X019734Y007157D03*
X020134Y007557D03*
X020324Y007547D03*
X020324Y007537D03*
X020324Y007527D03*
X020324Y007517D03*
X020324Y007507D03*
X017804Y007187D03*
X017804Y007147D03*
X017424Y007257D03*
X016744Y007487D03*
X016744Y007497D03*
X016744Y007507D03*
X016744Y007517D03*
X016744Y007527D03*
X016744Y007537D03*
X016744Y007547D03*
X016604Y007527D03*
X015914Y007637D03*
X015114Y007637D03*
X014774Y007307D03*
X014774Y007297D03*
X014644Y007307D03*
X014644Y007317D03*
X014394Y007527D03*
X014394Y007537D03*
X014394Y007547D03*
X013544Y008037D03*
X013414Y008037D03*
X013414Y008627D03*
X013544Y008627D03*
X013524Y009257D03*
X013434Y009527D03*
X013434Y009697D03*
X013444Y009707D03*
X013254Y009817D03*
X013524Y009977D03*
X013524Y009987D03*
X013524Y009997D03*
X013774Y010467D03*
X013574Y010707D03*
X013374Y010707D03*
X013374Y010877D03*
X012984Y010707D03*
X012784Y010707D03*
X012964Y011027D03*
X012914Y010177D03*
X012664Y009817D03*
X012884Y009737D03*
X012884Y009487D03*
X012884Y009147D03*
X012564Y008807D03*
X012504Y008627D03*
X012094Y008767D03*
X012264Y009017D03*
X012294Y009147D03*
X012294Y009487D03*
X012044Y009437D03*
X012294Y009737D03*
X014234Y011227D03*
X014754Y012127D03*
X014324Y012327D03*
X014164Y012657D03*
X013964Y012657D03*
X013814Y012327D03*
X014364Y012897D03*
X014364Y012997D03*
X014084Y012977D03*
X014564Y012657D03*
X014954Y012897D03*
X014984Y013027D03*
X015234Y012967D03*
X015234Y012957D03*
X014984Y013307D03*
X014394Y013507D03*
X014394Y013517D03*
X014544Y013767D03*
X016404Y010547D03*
X016404Y010537D03*
X016404Y010527D03*
X016404Y010517D03*
X016404Y010507D03*
X019794Y011227D03*
X019814Y011207D03*
X020324Y009807D03*
X013384Y007137D03*
X013064Y007157D03*
X012004Y007507D03*
X012004Y007517D03*
X012004Y007527D03*
X012004Y007537D03*
X012004Y007547D03*
X012374Y008037D03*
D37*
X012649Y007467D03*
X013069Y007137D03*
X013759Y007567D03*
X013599Y008687D03*
X013599Y008697D03*
X013599Y008707D03*
X013599Y008717D03*
X013599Y008727D03*
X013599Y008737D03*
X013599Y008747D03*
X013599Y008757D03*
X013599Y008767D03*
X013349Y008767D03*
X013349Y008757D03*
X013349Y008747D03*
X013349Y008737D03*
X013349Y008727D03*
X013349Y008717D03*
X013349Y008707D03*
X013349Y008697D03*
X013299Y009267D03*
X013299Y009277D03*
X013299Y009287D03*
X013299Y009357D03*
X013299Y009367D03*
X013499Y009357D03*
X013499Y009347D03*
X013059Y009347D03*
X013059Y009357D03*
X013059Y009367D03*
X013059Y009287D03*
X013059Y009277D03*
X012889Y009467D03*
X012709Y009367D03*
X012709Y009357D03*
X012709Y009287D03*
X012709Y009277D03*
X012709Y009267D03*
X012469Y009277D03*
X012469Y009287D03*
X012469Y009297D03*
X012469Y009347D03*
X012469Y009357D03*
X012469Y009367D03*
X012299Y009467D03*
X012119Y009367D03*
X012119Y009357D03*
X012119Y009277D03*
X012039Y009467D03*
X012259Y008987D03*
X012319Y008767D03*
X012319Y008757D03*
X012319Y008747D03*
X012319Y008737D03*
X012319Y008727D03*
X012319Y008717D03*
X012319Y008707D03*
X012319Y008697D03*
X012319Y008687D03*
X012569Y008697D03*
X012569Y008707D03*
X012569Y008717D03*
X012569Y008727D03*
X012569Y008737D03*
X012569Y008747D03*
X012569Y008757D03*
X012569Y008767D03*
X011469Y008267D03*
X012469Y009867D03*
X012469Y009877D03*
X012469Y009887D03*
X012469Y009937D03*
X012469Y009947D03*
X012469Y009957D03*
X012709Y009957D03*
X012709Y009947D03*
X012709Y009877D03*
X012709Y009867D03*
X012889Y010057D03*
X013059Y009957D03*
X013059Y009947D03*
X013059Y009937D03*
X013059Y009877D03*
X013299Y009877D03*
X013299Y009867D03*
X013299Y009857D03*
X013299Y009947D03*
X013299Y009957D03*
X013499Y009867D03*
X013499Y009857D03*
X013479Y009767D03*
X013939Y010667D03*
X013939Y010677D03*
X013939Y010767D03*
X013939Y010777D03*
X013939Y010787D03*
X013939Y010797D03*
X013939Y010807D03*
X013939Y010817D03*
X013939Y010827D03*
X013599Y010827D03*
X013599Y010837D03*
X013599Y010817D03*
X013599Y010807D03*
X013599Y010797D03*
X013599Y010787D03*
X013599Y010777D03*
X013599Y010767D03*
X013599Y010757D03*
X013599Y010747D03*
X013349Y010767D03*
X013349Y010777D03*
X013349Y010787D03*
X013349Y010797D03*
X013349Y010807D03*
X013349Y010817D03*
X013349Y010827D03*
X013179Y011097D03*
X012959Y011067D03*
X013009Y010827D03*
X013009Y010817D03*
X013009Y010807D03*
X013009Y010797D03*
X013009Y010787D03*
X013009Y010777D03*
X013009Y010767D03*
X013009Y010757D03*
X014239Y011207D03*
X014759Y012097D03*
X014779Y012517D03*
X014779Y012527D03*
X014779Y012617D03*
X014779Y012627D03*
X014539Y012617D03*
X014539Y012607D03*
X014539Y012527D03*
X014189Y012527D03*
X014189Y012537D03*
X014189Y012547D03*
X014189Y012557D03*
X014189Y012567D03*
X014189Y012577D03*
X014189Y012587D03*
X014189Y012597D03*
X014189Y012607D03*
X014189Y012617D03*
X014189Y012517D03*
X013939Y012547D03*
X013939Y012557D03*
X013939Y012567D03*
X013939Y012577D03*
X013939Y012587D03*
X013939Y012597D03*
X013939Y012607D03*
X014369Y012867D03*
X014189Y013107D03*
X014189Y013117D03*
X014189Y013127D03*
X014189Y013137D03*
X014189Y013147D03*
X014189Y013157D03*
X014189Y013167D03*
X014189Y013177D03*
X014189Y013187D03*
X014189Y013197D03*
X014539Y013197D03*
X014539Y013207D03*
X014539Y013127D03*
X014539Y013117D03*
X014779Y013117D03*
X014779Y013107D03*
X014779Y013207D03*
X014779Y013217D03*
X014989Y013047D03*
X014959Y012867D03*
X015129Y012737D03*
X015129Y012727D03*
X015189Y012847D03*
X015199Y012857D03*
X015209Y012877D03*
X014389Y013547D03*
X015669Y015047D03*
X015669Y015117D03*
X015669Y015127D03*
X015389Y015267D03*
X015379Y015257D03*
X015369Y015247D03*
X015359Y015237D03*
X016019Y015127D03*
X016019Y015117D03*
X016019Y015047D03*
X016019Y015037D03*
X016259Y015037D03*
X016259Y015047D03*
X016259Y015117D03*
X016259Y015127D03*
X016609Y015127D03*
X016609Y015117D03*
X016609Y015047D03*
X016849Y015047D03*
X016849Y015057D03*
X016849Y015037D03*
X016849Y015117D03*
X016849Y015127D03*
X016849Y015137D03*
X017199Y015127D03*
X017199Y015117D03*
X017199Y015047D03*
X017439Y015037D03*
X017439Y015027D03*
X017439Y015127D03*
X017439Y015137D03*
X017649Y014997D03*
X018119Y014187D03*
X018339Y013807D03*
X018379Y013357D03*
X018379Y013347D03*
X018379Y013337D03*
X018379Y013327D03*
X018379Y013287D03*
X018379Y013277D03*
X018379Y013267D03*
X018569Y013397D03*
X018629Y013307D03*
X018629Y013297D03*
X018629Y013287D03*
X018739Y013107D03*
X018739Y013097D03*
X018539Y013017D03*
X018669Y012597D03*
X018669Y012587D03*
X018669Y012577D03*
X018669Y012567D03*
X018669Y012557D03*
X018669Y012547D03*
X018669Y012537D03*
X018919Y012537D03*
X018919Y012547D03*
X018919Y012587D03*
X018919Y012597D03*
X018919Y012607D03*
X018339Y012597D03*
X018339Y012587D03*
X018339Y012577D03*
X018339Y012567D03*
X018339Y012557D03*
X018339Y012547D03*
X017909Y012867D03*
X017949Y013017D03*
X017699Y012827D03*
X017689Y012837D03*
X017659Y012887D03*
X017729Y012777D03*
X017739Y012767D03*
X017739Y012757D03*
X017739Y012747D03*
X017409Y013327D03*
X019889Y011117D03*
X019889Y011107D03*
X019899Y011097D03*
X019259Y010827D03*
X019259Y010817D03*
X019259Y010807D03*
X019259Y010797D03*
X019259Y010787D03*
X019259Y010777D03*
X019259Y010767D03*
X018919Y010767D03*
X018919Y010777D03*
X018919Y010757D03*
X018919Y010717D03*
X018919Y010707D03*
X018919Y010817D03*
X018919Y010827D03*
X019089Y011097D03*
X019669Y010477D03*
X019279Y010087D03*
X019269Y010097D03*
X019289Y010077D03*
X019429Y009617D03*
X019429Y009607D03*
X019429Y009597D03*
X019429Y009587D03*
X019429Y009577D03*
X019429Y009567D03*
X019429Y009557D03*
X019849Y009737D03*
X019849Y009747D03*
X019849Y009757D03*
X019849Y009767D03*
X019849Y009777D03*
X019849Y009787D03*
X019849Y009797D03*
X020099Y009797D03*
X020099Y009807D03*
X020099Y009787D03*
X020099Y009747D03*
X020099Y009737D03*
X020099Y009727D03*
X020099Y009717D03*
X019149Y009087D03*
X019239Y008487D03*
X019239Y008477D03*
X019239Y008467D03*
X019239Y008457D03*
X019239Y008447D03*
X019239Y008437D03*
X019239Y008427D03*
X019239Y008417D03*
X019239Y008407D03*
X019239Y008397D03*
X019239Y008387D03*
X018939Y008387D03*
X018939Y008377D03*
X018939Y008487D03*
X018939Y008497D03*
X018649Y008487D03*
X018649Y008477D03*
X018649Y008467D03*
X018649Y008387D03*
X018649Y008377D03*
X018359Y008397D03*
X018359Y008407D03*
X018359Y008417D03*
X018359Y008427D03*
X018359Y008437D03*
X018359Y008447D03*
X018359Y008457D03*
X018359Y008467D03*
X018359Y008477D03*
X018059Y008467D03*
X018059Y008457D03*
X018059Y008447D03*
X018059Y008437D03*
X018059Y008427D03*
X018059Y008417D03*
X018059Y008407D03*
X018059Y008397D03*
X018059Y008387D03*
X017769Y008397D03*
X017769Y008407D03*
X017769Y008417D03*
X017769Y008427D03*
X017769Y008437D03*
X017769Y008447D03*
X017769Y008457D03*
X017769Y008467D03*
X017469Y008467D03*
X017469Y008477D03*
X017469Y008457D03*
X017469Y008447D03*
X017469Y008437D03*
X017469Y008427D03*
X017469Y008417D03*
X017469Y008407D03*
X017469Y008397D03*
X017469Y008387D03*
X017179Y008397D03*
X017179Y008407D03*
X017179Y008417D03*
X017179Y008427D03*
X017179Y008437D03*
X017179Y008447D03*
X017179Y008457D03*
X017179Y008467D03*
X016879Y008467D03*
X016879Y008477D03*
X016879Y008457D03*
X016879Y008447D03*
X016879Y008437D03*
X016879Y008427D03*
X016879Y008417D03*
X016879Y008407D03*
X016879Y008397D03*
X016879Y008387D03*
X017909Y008787D03*
X018499Y008787D03*
X019539Y008477D03*
X019539Y008467D03*
X019539Y008457D03*
X019539Y008447D03*
X019539Y008417D03*
X019539Y008407D03*
X019539Y008397D03*
X019539Y008387D03*
X019389Y008077D03*
X019209Y007567D03*
X018799Y008077D03*
X016579Y007557D03*
X015669Y008827D03*
X015669Y008837D03*
X015669Y008847D03*
X015669Y008907D03*
X015669Y008917D03*
X015429Y008917D03*
X015429Y008927D03*
X015429Y008907D03*
X015429Y008847D03*
X015429Y008837D03*
X015429Y008827D03*
X014629Y008827D03*
X014629Y008917D03*
X014629Y008927D03*
X014389Y008917D03*
X014389Y008907D03*
X014389Y008847D03*
X014389Y008837D03*
X016399Y010437D03*
X016399Y010447D03*
X016899Y015797D03*
X016899Y015807D03*
X016899Y015817D03*
X016899Y015827D03*
X016899Y015837D03*
X016899Y015847D03*
X017149Y015857D03*
X016489Y016177D03*
X016139Y016217D03*
X015999Y016337D03*
X016439Y016767D03*
D38*
X016734Y016167D03*
X015674Y015587D03*
X016734Y015487D03*
X016504Y014877D03*
X015994Y014187D03*
X015984Y014177D03*
X015794Y014017D03*
X014994Y013627D03*
X015284Y014907D03*
X017294Y013717D03*
X018204Y012797D03*
X018204Y012337D03*
X018794Y012337D03*
X018794Y012347D03*
X018794Y012797D03*
X016404Y011157D03*
X014664Y012337D03*
X014064Y012337D03*
X013834Y012227D03*
X013474Y011027D03*
X012884Y010567D03*
X012884Y009657D03*
X012884Y009567D03*
X012294Y009567D03*
X012294Y009657D03*
X012934Y008837D03*
X012014Y008607D03*
X012754Y007497D03*
X012754Y007487D03*
X012744Y007187D03*
X013374Y007177D03*
X015104Y007467D03*
X015104Y007477D03*
X015104Y007487D03*
X015104Y007497D03*
X015104Y007507D03*
X015104Y007517D03*
X015104Y007527D03*
X015104Y007537D03*
X015104Y007547D03*
X015894Y007537D03*
X015894Y007527D03*
X015894Y007517D03*
X015894Y007507D03*
X015894Y007497D03*
X015894Y007487D03*
X015894Y007477D03*
X015894Y007467D03*
X017144Y007357D03*
X017524Y007477D03*
X017134Y007707D03*
X017024Y008137D03*
X017614Y008727D03*
X018204Y008727D03*
X018794Y008727D03*
X018794Y008137D03*
X019094Y007977D03*
X019384Y008137D03*
X018434Y007527D03*
X017534Y007177D03*
X020614Y007397D03*
X021274Y007147D03*
X019704Y010027D03*
X019384Y010567D03*
X019614Y010827D03*
X019384Y011027D03*
X016404Y009867D03*
X017634Y014847D03*
D39*
X017634Y014857D03*
X016974Y014897D03*
X016494Y014897D03*
X016734Y015477D03*
X015784Y015277D03*
X015684Y015617D03*
X015684Y015627D03*
X016734Y016177D03*
X015284Y014927D03*
X015974Y014167D03*
X015964Y014157D03*
X014984Y013607D03*
X014654Y012817D03*
X014654Y012327D03*
X014064Y012327D03*
X014064Y012817D03*
X014044Y011017D03*
X013474Y010547D03*
X013544Y010147D03*
X013534Y010137D03*
X012884Y010547D03*
X012884Y009667D03*
X012884Y009557D03*
X012294Y009557D03*
X012294Y009667D03*
X011744Y008797D03*
X011734Y008787D03*
X012024Y008627D03*
X012934Y008857D03*
X012734Y007517D03*
X013354Y007507D03*
X013384Y007167D03*
X013734Y007157D03*
X014194Y007507D03*
X015504Y007167D03*
X016294Y007167D03*
X016674Y007447D03*
X016674Y007457D03*
X016674Y007467D03*
X016674Y007477D03*
X017024Y008127D03*
X017024Y008737D03*
X017614Y008737D03*
X018204Y008737D03*
X018794Y008737D03*
X018794Y008127D03*
X019384Y008127D03*
X018814Y007477D03*
X018814Y007467D03*
X018814Y007457D03*
X018814Y007447D03*
X019184Y007157D03*
X020674Y007537D03*
X020134Y009077D03*
X020134Y009267D03*
X019974Y009667D03*
X019694Y010007D03*
X019674Y010387D03*
X019384Y010547D03*
X019384Y011047D03*
X019094Y011197D03*
X018554Y011507D03*
X018544Y011517D03*
X018794Y012317D03*
X018794Y012327D03*
X018794Y012807D03*
X018794Y012817D03*
X018204Y012817D03*
X018204Y012327D03*
X016404Y011087D03*
X017504Y007517D03*
X017514Y007507D03*
D40*
X017524Y007367D03*
X017514Y007357D03*
X017504Y007347D03*
X017494Y007337D03*
X017544Y007157D03*
X017994Y007177D03*
X018434Y007537D03*
X018504Y007987D03*
X018214Y008117D03*
X017904Y007987D03*
X017614Y008117D03*
X017024Y008117D03*
X016294Y007537D03*
X015544Y008177D03*
X014514Y008177D03*
X014514Y008387D03*
X014514Y008767D03*
X013544Y009157D03*
X013184Y009217D03*
X012884Y009547D03*
X012884Y009677D03*
X012594Y009807D03*
X012294Y009677D03*
X012294Y009547D03*
X012004Y009217D03*
X011714Y008757D03*
X011704Y008747D03*
X012034Y008647D03*
X012594Y009217D03*
X013184Y009807D03*
X013184Y010017D03*
X013524Y010097D03*
X013524Y010107D03*
X013564Y010177D03*
X013574Y010187D03*
X013584Y010197D03*
X014024Y010967D03*
X014024Y010977D03*
X013774Y011187D03*
X013184Y011187D03*
X013824Y012237D03*
X014064Y012827D03*
X014654Y012827D03*
X014974Y013587D03*
X015944Y014137D03*
X015954Y014147D03*
X016974Y014907D03*
X016734Y015187D03*
X016734Y015467D03*
X015784Y015267D03*
X015784Y015257D03*
X015544Y015187D03*
X015344Y015047D03*
X015694Y015657D03*
X015694Y015667D03*
X016734Y016187D03*
X017634Y014877D03*
X017284Y013687D03*
X018204Y012827D03*
X018794Y012827D03*
X018794Y012307D03*
X018204Y012317D03*
X018514Y011557D03*
X018524Y011547D03*
X018534Y011537D03*
X019094Y011187D03*
X018814Y011037D03*
X018824Y011017D03*
X019384Y011057D03*
X019674Y010397D03*
X019694Y009997D03*
X019974Y009657D03*
X020384Y009717D03*
X020144Y009257D03*
X019804Y009257D03*
X019794Y009237D03*
X019794Y009107D03*
X019804Y009097D03*
X019804Y009087D03*
X021084Y007237D03*
X016404Y010957D03*
X016404Y010967D03*
X016404Y010977D03*
X016404Y010987D03*
X016404Y010997D03*
X016404Y011007D03*
X016404Y011017D03*
X014204Y007517D03*
X014714Y007287D03*
X013374Y007367D03*
X013344Y007337D03*
X013334Y007327D03*
X013344Y007527D03*
X013334Y007537D03*
X012724Y007527D03*
X012354Y007537D03*
X011824Y007507D03*
D41*
X011824Y007517D03*
X011744Y007457D03*
X013314Y007317D03*
X014514Y008167D03*
X014514Y008397D03*
X014514Y008757D03*
X013474Y008617D03*
X012914Y008887D03*
X012914Y008897D03*
X013184Y009207D03*
X013544Y009167D03*
X012884Y009537D03*
X012884Y009687D03*
X012594Y009797D03*
X012294Y009687D03*
X012294Y009537D03*
X012004Y009207D03*
X012594Y009207D03*
X012444Y008617D03*
X012044Y008667D03*
X011674Y008707D03*
X011664Y008697D03*
X013184Y009797D03*
X013184Y010027D03*
X013214Y010237D03*
X013224Y010247D03*
X013234Y010257D03*
X013244Y010267D03*
X013254Y010277D03*
X013264Y010287D03*
X013274Y010297D03*
X013284Y010307D03*
X013294Y010317D03*
X013304Y010327D03*
X013314Y010337D03*
X013324Y010347D03*
X013334Y010357D03*
X013344Y010367D03*
X013354Y010377D03*
X013364Y010387D03*
X013374Y010397D03*
X013384Y010407D03*
X013394Y010417D03*
X013404Y010427D03*
X013414Y010437D03*
X013424Y010447D03*
X013434Y010457D03*
X013614Y010237D03*
X013604Y010227D03*
X013524Y010077D03*
X012844Y010457D03*
X012834Y010447D03*
X012824Y010437D03*
X012814Y010427D03*
X012804Y010417D03*
X012794Y010407D03*
X012784Y010397D03*
X012774Y010387D03*
X012764Y010377D03*
X012754Y010367D03*
X012744Y010357D03*
X012734Y010347D03*
X012724Y010337D03*
X012714Y010327D03*
X012704Y010317D03*
X012694Y010307D03*
X012684Y010297D03*
X012674Y010287D03*
X012664Y010277D03*
X012654Y010267D03*
X012644Y010257D03*
X012634Y010247D03*
X012624Y010237D03*
X012884Y010527D03*
X012934Y010897D03*
X013184Y011177D03*
X013474Y011067D03*
X013774Y011177D03*
X014014Y010937D03*
X013824Y012247D03*
X014064Y012837D03*
X014654Y012837D03*
X014704Y012227D03*
X014714Y012217D03*
X014724Y012207D03*
X014734Y012197D03*
X016404Y013107D03*
X017284Y013677D03*
X017484Y013477D03*
X017494Y013487D03*
X017514Y013507D03*
X017524Y013517D03*
X017534Y013527D03*
X017544Y013537D03*
X017564Y013557D03*
X017574Y013567D03*
X017584Y013577D03*
X017594Y013587D03*
X017614Y013607D03*
X017624Y013617D03*
X017634Y013627D03*
X017644Y013637D03*
X017754Y013747D03*
X017804Y013797D03*
X017854Y013847D03*
X017904Y013897D03*
X017954Y013947D03*
X018004Y013997D03*
X017474Y013467D03*
X017464Y013457D03*
X017444Y013437D03*
X017434Y013427D03*
X017804Y013197D03*
X017844Y013237D03*
X017854Y013247D03*
X017894Y013287D03*
X017904Y013297D03*
X017664Y013057D03*
X018204Y012837D03*
X018254Y013057D03*
X018264Y013067D03*
X018794Y012297D03*
X018844Y012227D03*
X018854Y012217D03*
X018474Y011607D03*
X018484Y011597D03*
X019094Y011177D03*
X019384Y011067D03*
X019384Y010527D03*
X019674Y010407D03*
X018844Y010967D03*
X018844Y010977D03*
X018794Y011067D03*
X019974Y009647D03*
X020164Y009237D03*
X020174Y009217D03*
X020184Y009177D03*
X020184Y009167D03*
X020174Y009127D03*
X020164Y009107D03*
X019774Y009137D03*
X019774Y009147D03*
X019774Y009157D03*
X019774Y009167D03*
X019774Y009177D03*
X019774Y009187D03*
X019774Y009197D03*
X019774Y009207D03*
X019384Y008757D03*
X018794Y008757D03*
X018504Y007997D03*
X017544Y007377D03*
X017474Y007317D03*
X016294Y007157D03*
X015864Y007207D03*
X015864Y007217D03*
X015864Y007227D03*
X015504Y007157D03*
X015074Y007217D03*
X015074Y007227D03*
X015074Y007237D03*
X017024Y008757D03*
X019724Y007527D03*
X020134Y007517D03*
X016404Y010887D03*
X016404Y010897D03*
X016404Y010907D03*
X016404Y010917D03*
X016404Y010927D03*
X016404Y010937D03*
X016404Y010947D03*
X014964Y013567D03*
X015844Y014047D03*
X015854Y014057D03*
X015864Y014067D03*
X015874Y014077D03*
X015884Y014087D03*
X016974Y014917D03*
X016724Y015457D03*
X017234Y015587D03*
X017264Y015527D03*
X017274Y015507D03*
X017284Y015497D03*
X017294Y015487D03*
X017304Y015477D03*
X016134Y015457D03*
X015784Y015247D03*
X015344Y015077D03*
X015344Y015067D03*
X015274Y014947D03*
X015704Y015687D03*
X015704Y015697D03*
D42*
X015689Y015647D03*
X015689Y015637D03*
X016139Y015467D03*
X016139Y014987D03*
X015549Y014987D03*
X015339Y015037D03*
X015279Y014937D03*
X015549Y014177D03*
X015819Y014037D03*
X014979Y013597D03*
X016399Y013097D03*
X017289Y013697D03*
X017639Y014867D03*
X017319Y014987D03*
X017319Y015187D03*
X016729Y014987D03*
X016489Y014907D03*
X016139Y016177D03*
X016509Y016247D03*
X014659Y012317D03*
X014309Y012237D03*
X014069Y012317D03*
X014069Y011047D03*
X014059Y011037D03*
X014049Y011027D03*
X014039Y011007D03*
X014039Y010997D03*
X014029Y010987D03*
X013479Y011047D03*
X013479Y010537D03*
X013559Y010167D03*
X013549Y010157D03*
X013529Y010127D03*
X013529Y010117D03*
X012889Y010537D03*
X012929Y008867D03*
X012029Y008637D03*
X011729Y008777D03*
X011719Y008767D03*
X012439Y008237D03*
X013479Y008237D03*
X013349Y007517D03*
X013359Y007357D03*
X013349Y007347D03*
X013389Y007157D03*
X013759Y007527D03*
X012729Y007167D03*
X012359Y007167D03*
X011579Y007507D03*
X015549Y008387D03*
X017499Y007527D03*
X017489Y007327D03*
X017989Y007187D03*
X018439Y007167D03*
X019209Y007527D03*
X019099Y007987D03*
X020139Y007507D03*
X020599Y007407D03*
X019389Y008747D03*
X019819Y009077D03*
X019819Y009267D03*
X020149Y009087D03*
X020389Y009707D03*
X019979Y009867D03*
X019389Y010537D03*
X018539Y011527D03*
X016399Y011077D03*
X016399Y011067D03*
X016399Y011057D03*
X016399Y011047D03*
X016399Y011037D03*
X016399Y011027D03*
X018799Y008747D03*
D43*
X018209Y008747D03*
X017619Y008747D03*
X017029Y008747D03*
X016399Y009287D03*
X015549Y008767D03*
X015549Y008397D03*
X015499Y007537D03*
X014709Y007277D03*
X014709Y007267D03*
X013759Y007537D03*
X013389Y007377D03*
X012719Y007537D03*
X012719Y007157D03*
X012439Y008027D03*
X012439Y008247D03*
X012039Y008657D03*
X011699Y008737D03*
X011689Y008727D03*
X011679Y008717D03*
X012589Y009427D03*
X013179Y009427D03*
X012919Y008877D03*
X013479Y008247D03*
X013479Y008027D03*
X011579Y007517D03*
X012589Y010017D03*
X013519Y010087D03*
X013589Y010207D03*
X013599Y010217D03*
X013479Y010527D03*
X013479Y011057D03*
X014019Y010957D03*
X014019Y010947D03*
X014069Y011057D03*
X014309Y012247D03*
X014069Y012307D03*
X014659Y012307D03*
X014659Y013057D03*
X014659Y013267D03*
X014969Y013577D03*
X015549Y014167D03*
X015899Y014097D03*
X015909Y014107D03*
X015919Y014117D03*
X015929Y014127D03*
X016489Y014917D03*
X016729Y014977D03*
X016139Y014977D03*
X016139Y015187D03*
X015549Y014977D03*
X015339Y015057D03*
X015699Y015677D03*
X016139Y016187D03*
X016439Y016747D03*
X017239Y015577D03*
X017239Y015567D03*
X017249Y015557D03*
X017249Y015547D03*
X017259Y015537D03*
X017269Y015517D03*
X017319Y015197D03*
X017319Y014977D03*
X017639Y014887D03*
X018209Y012307D03*
X018489Y011587D03*
X018499Y011577D03*
X018509Y011567D03*
X018799Y011057D03*
X018809Y011047D03*
X018819Y011027D03*
X018829Y011007D03*
X018829Y010997D03*
X018839Y010987D03*
X019689Y009987D03*
X019979Y009877D03*
X019799Y009247D03*
X019789Y009227D03*
X019779Y009217D03*
X019779Y009127D03*
X019789Y009117D03*
X020159Y009097D03*
X020169Y009117D03*
X020179Y009137D03*
X020179Y009147D03*
X020179Y009157D03*
X020179Y009187D03*
X020179Y009197D03*
X020179Y009207D03*
X020169Y009227D03*
X020159Y009247D03*
X019389Y008117D03*
X019099Y007997D03*
X018799Y008117D03*
X019209Y007537D03*
X019739Y007187D03*
X021069Y007617D03*
X017489Y007537D03*
X017169Y007347D03*
X017319Y007987D03*
D44*
X017314Y008007D03*
X017024Y008107D03*
X017914Y008007D03*
X018434Y007547D03*
X017994Y007167D03*
X019294Y007227D03*
X019734Y007177D03*
X019724Y007537D03*
X020134Y007527D03*
X020714Y007167D03*
X021044Y007607D03*
X019384Y008107D03*
X018794Y008107D03*
X019974Y009637D03*
X019974Y009887D03*
X019684Y009967D03*
X019674Y010417D03*
X020454Y010017D03*
X020464Y010007D03*
X020364Y009727D03*
X019384Y011077D03*
X019094Y011167D03*
X018794Y011077D03*
X018854Y010947D03*
X018854Y010937D03*
X018454Y011637D03*
X018444Y011647D03*
X018434Y011657D03*
X018814Y012257D03*
X018814Y012267D03*
X018234Y013027D03*
X018274Y013077D03*
X018284Y013087D03*
X018494Y013427D03*
X018314Y013717D03*
X017424Y013407D03*
X015664Y014417D03*
X016134Y014747D03*
X016134Y014757D03*
X016134Y014767D03*
X016134Y014777D03*
X016134Y014787D03*
X016134Y014797D03*
X016134Y014807D03*
X016134Y014817D03*
X016134Y014827D03*
X016134Y014837D03*
X016134Y014847D03*
X016134Y014857D03*
X016134Y014867D03*
X016134Y014877D03*
X016134Y014887D03*
X016134Y014897D03*
X016134Y014907D03*
X016134Y014917D03*
X016134Y014927D03*
X016134Y014937D03*
X016134Y014947D03*
X016134Y014957D03*
X016134Y015207D03*
X016134Y015217D03*
X016134Y015227D03*
X016134Y015237D03*
X016134Y015247D03*
X016134Y015257D03*
X016134Y015267D03*
X016134Y015277D03*
X016134Y015287D03*
X016134Y015297D03*
X016134Y015307D03*
X016134Y015317D03*
X016134Y015327D03*
X016134Y015337D03*
X016134Y015347D03*
X016134Y015357D03*
X016134Y015367D03*
X016134Y015377D03*
X016134Y015387D03*
X016134Y015397D03*
X016134Y015407D03*
X016134Y015417D03*
X016134Y015427D03*
X016134Y015437D03*
X016134Y015447D03*
X015714Y015727D03*
X015374Y015137D03*
X015364Y015127D03*
X015364Y015117D03*
X015354Y015107D03*
X015354Y015097D03*
X017024Y015347D03*
X017214Y015637D03*
X014634Y013627D03*
X014554Y013717D03*
X014354Y013377D03*
X014354Y013367D03*
X014344Y013357D03*
X014954Y013497D03*
X014954Y013507D03*
X014954Y013517D03*
X014954Y013527D03*
X014664Y012287D03*
X014684Y012257D03*
X014314Y012267D03*
X013824Y012257D03*
X013174Y011167D03*
X012944Y010937D03*
X012944Y010927D03*
X012884Y010517D03*
X012864Y010487D03*
X012604Y010207D03*
X012594Y009787D03*
X012884Y009697D03*
X012884Y009527D03*
X013184Y009787D03*
X013204Y010217D03*
X013454Y010487D03*
X013654Y010287D03*
X013664Y010297D03*
X013644Y010277D03*
X013634Y010267D03*
X014004Y010897D03*
X012294Y009697D03*
X012294Y009527D03*
X012004Y009197D03*
X011974Y009007D03*
X012054Y008687D03*
X012444Y008607D03*
X012904Y008917D03*
X012904Y008927D03*
X013204Y009007D03*
X013184Y009197D03*
X013544Y009177D03*
X013474Y008607D03*
X014514Y008747D03*
X014514Y008407D03*
X014514Y008157D03*
X013334Y007547D03*
X013414Y007397D03*
X013304Y007307D03*
X013844Y007227D03*
X014354Y007237D03*
X015064Y007177D03*
X015854Y007177D03*
X016704Y007437D03*
X012814Y007467D03*
X012354Y007547D03*
X011824Y007527D03*
X012594Y009197D03*
X016404Y010817D03*
X016404Y010827D03*
X016404Y010837D03*
X016404Y010847D03*
X016404Y010857D03*
X016404Y010867D03*
X016404Y010877D03*
X019654Y011407D03*
X019654Y011417D03*
X019664Y011397D03*
X019674Y011387D03*
D45*
X019389Y011037D03*
X019589Y010857D03*
X019599Y010847D03*
X019609Y010837D03*
X019389Y010557D03*
X019699Y010017D03*
X019389Y008737D03*
X018499Y007977D03*
X018209Y008127D03*
X017909Y007977D03*
X017619Y008127D03*
X017319Y007977D03*
X017519Y007497D03*
X017519Y007487D03*
X017539Y007167D03*
X016289Y007527D03*
X015899Y007547D03*
X015499Y007527D03*
X013759Y007517D03*
X013369Y007487D03*
X013369Y007477D03*
X013359Y007497D03*
X012739Y007507D03*
X012349Y007527D03*
X012739Y007177D03*
X012019Y008617D03*
X012939Y008847D03*
X013549Y009147D03*
X013479Y010557D03*
X013479Y011037D03*
X013769Y011197D03*
X013179Y011197D03*
X012889Y010557D03*
X014069Y012807D03*
X014659Y012807D03*
X014989Y013617D03*
X015799Y014027D03*
X015279Y014917D03*
X015339Y015017D03*
X015339Y015027D03*
X015779Y015287D03*
X015679Y015597D03*
X015679Y015607D03*
X016139Y015477D03*
X016499Y014887D03*
X017289Y013707D03*
X018209Y012807D03*
X016399Y011147D03*
X016399Y011137D03*
X016399Y011127D03*
X016399Y011117D03*
X016399Y011107D03*
X016399Y011097D03*
X016399Y009297D03*
X017029Y008727D03*
X019209Y007517D03*
X016139Y016167D03*
X016439Y016737D03*
D46*
X016509Y016257D03*
X016729Y016157D03*
X016139Y016157D03*
X015669Y015577D03*
X016139Y015487D03*
X016969Y014887D03*
X015549Y014187D03*
X014999Y013637D03*
X014659Y012797D03*
X014659Y012787D03*
X014659Y012347D03*
X014299Y012227D03*
X014069Y012347D03*
X014069Y012787D03*
X014069Y012797D03*
X016399Y013087D03*
X018209Y012787D03*
X018209Y012347D03*
X018789Y012787D03*
X018569Y011497D03*
X019619Y010817D03*
X019629Y010807D03*
X019389Y008727D03*
X019389Y008147D03*
X018799Y008147D03*
X018209Y008137D03*
X017619Y008137D03*
X017619Y008717D03*
X018209Y008717D03*
X018439Y007177D03*
X017529Y007187D03*
X020679Y007527D03*
X016399Y011167D03*
X016399Y011177D03*
X016399Y011187D03*
X016399Y011197D03*
X016399Y011207D03*
X016399Y011217D03*
X013469Y011017D03*
X013479Y010577D03*
X013479Y010567D03*
X013549Y009137D03*
X012939Y008827D03*
X012759Y007477D03*
X012349Y007517D03*
X012359Y007177D03*
X012749Y007197D03*
X013369Y007187D03*
X013739Y007167D03*
D47*
X014264Y007187D03*
X012014Y008557D03*
X013644Y009047D03*
X016404Y009327D03*
X017094Y007647D03*
X017094Y007417D03*
X017094Y007407D03*
X017934Y007207D03*
X017934Y007197D03*
X019674Y007197D03*
X019674Y007497D03*
X020194Y007497D03*
X020194Y007487D03*
X021224Y007177D03*
X019644Y010357D03*
X019654Y010737D03*
X016404Y011557D03*
X013774Y011227D03*
X015364Y013407D03*
X015364Y013417D03*
X015544Y014247D03*
X015014Y014357D03*
X015014Y014367D03*
X015654Y015477D03*
X016734Y015557D03*
X016734Y016097D03*
X017304Y013777D03*
D48*
X018209Y012767D03*
X018209Y012757D03*
X018209Y012387D03*
X018209Y012377D03*
X018209Y012367D03*
X019639Y010787D03*
X019379Y010597D03*
X019389Y008707D03*
X018799Y008707D03*
X018209Y008707D03*
X017619Y008707D03*
X017619Y008157D03*
X018209Y008157D03*
X018799Y008157D03*
X019389Y008157D03*
X019209Y007497D03*
X019199Y007177D03*
X018439Y007187D03*
X017519Y007207D03*
X016289Y007517D03*
X013759Y007497D03*
X013749Y007177D03*
X013359Y007217D03*
X012359Y007187D03*
X012509Y008867D03*
X013559Y009117D03*
X013749Y009017D03*
X012889Y009587D03*
X012299Y009587D03*
X012879Y010597D03*
X013469Y010597D03*
X013469Y010997D03*
X013769Y011207D03*
X014659Y012367D03*
X014659Y012377D03*
X014659Y012387D03*
X014659Y012397D03*
X014659Y012407D03*
X014659Y012417D03*
X014659Y012427D03*
X014659Y012437D03*
X014659Y012447D03*
X014659Y012457D03*
X014659Y012467D03*
X014659Y012677D03*
X014659Y012687D03*
X014659Y012697D03*
X014659Y012707D03*
X014659Y012717D03*
X014659Y012727D03*
X014659Y012737D03*
X014659Y012747D03*
X014659Y012757D03*
X014659Y012767D03*
X014659Y012777D03*
X014069Y012767D03*
X015009Y013647D03*
X015549Y014197D03*
X015659Y015537D03*
X015659Y015547D03*
X016139Y015497D03*
X016729Y015497D03*
X016139Y016147D03*
X016439Y016727D03*
X021259Y007707D03*
X020669Y007507D03*
X020659Y007487D03*
X020629Y007377D03*
D49*
X020659Y007217D03*
X020659Y007207D03*
X021229Y007687D03*
X019669Y007507D03*
X019389Y008247D03*
X019389Y008257D03*
X019389Y008267D03*
X019389Y008277D03*
X019389Y008287D03*
X019389Y008297D03*
X019389Y008307D03*
X019389Y008567D03*
X019389Y008577D03*
X019389Y008587D03*
X019389Y008597D03*
X019389Y008607D03*
X019389Y008617D03*
X019389Y008627D03*
X018209Y008627D03*
X018209Y008617D03*
X018209Y008607D03*
X018209Y008597D03*
X018209Y008587D03*
X018209Y008577D03*
X018209Y008567D03*
X018209Y008307D03*
X018209Y008297D03*
X018209Y008287D03*
X018209Y008277D03*
X018209Y008267D03*
X018209Y008257D03*
X018209Y008247D03*
X018209Y008237D03*
X018209Y008227D03*
X017619Y008227D03*
X017619Y008237D03*
X017619Y008247D03*
X017619Y008257D03*
X017619Y008267D03*
X017619Y008277D03*
X017619Y008287D03*
X017619Y008297D03*
X017619Y008307D03*
X017619Y008567D03*
X017619Y008577D03*
X017619Y008587D03*
X017619Y008597D03*
X017619Y008607D03*
X017619Y008617D03*
X017619Y008627D03*
X017619Y008637D03*
X017029Y008637D03*
X017029Y008627D03*
X017029Y008617D03*
X017029Y008607D03*
X017029Y008597D03*
X017029Y008587D03*
X017029Y008577D03*
X017029Y008567D03*
X017029Y008307D03*
X017029Y008297D03*
X017029Y008287D03*
X017029Y008277D03*
X017029Y008267D03*
X017029Y008257D03*
X017029Y008247D03*
X017029Y008237D03*
X017099Y007657D03*
X016289Y007477D03*
X015499Y007477D03*
X015499Y007217D03*
X014269Y007177D03*
X012359Y007217D03*
X012349Y007477D03*
X013629Y009057D03*
X013619Y009067D03*
X016399Y009837D03*
X016399Y011497D03*
X016399Y011507D03*
X016399Y011517D03*
X016399Y011527D03*
X016399Y011537D03*
X016399Y011547D03*
X016399Y013067D03*
X015359Y013387D03*
X015359Y013397D03*
X015549Y014237D03*
X015019Y014377D03*
X015019Y014387D03*
X015159Y014627D03*
X015169Y014637D03*
X015659Y015487D03*
X016139Y015537D03*
X016139Y015547D03*
X016139Y015557D03*
X016139Y016097D03*
X016139Y016107D03*
X016439Y016707D03*
X016729Y015547D03*
X017299Y013767D03*
X019649Y010747D03*
X018439Y007477D03*
X018439Y007217D03*
D50*
X019684Y007227D03*
X019684Y007237D03*
X021214Y007187D03*
X017084Y007437D03*
X017084Y007627D03*
X014254Y007487D03*
X014254Y007217D03*
X014254Y007207D03*
X013764Y007317D03*
X013764Y007327D03*
X013764Y007337D03*
X013764Y007347D03*
X013764Y007357D03*
X013764Y007367D03*
X013764Y007377D03*
X013764Y007387D03*
X012014Y008547D03*
X012964Y008757D03*
X013654Y009037D03*
X016404Y009337D03*
X019094Y011227D03*
X019654Y010727D03*
X016404Y011627D03*
X016404Y011637D03*
X016404Y011647D03*
X016404Y011657D03*
X016404Y011667D03*
X016404Y011677D03*
X016404Y011687D03*
X016404Y013047D03*
X015414Y013517D03*
X015374Y013457D03*
X015374Y013447D03*
X015004Y014317D03*
X015004Y014327D03*
X016074Y014247D03*
X015654Y015447D03*
X015654Y015457D03*
X016134Y015597D03*
X016724Y015597D03*
D51*
X016734Y015537D03*
X016734Y016107D03*
X016734Y016117D03*
X015154Y014617D03*
X015144Y014607D03*
X015024Y014397D03*
X016054Y014237D03*
X016404Y011487D03*
X013194Y011227D03*
X013804Y008987D03*
X012954Y008777D03*
X012014Y008567D03*
X015494Y007487D03*
X016294Y007487D03*
X016294Y007217D03*
X016294Y007207D03*
X017104Y007397D03*
X017104Y007667D03*
X017024Y008217D03*
X017024Y008227D03*
X017614Y008647D03*
X018204Y008647D03*
X018204Y008637D03*
X018794Y008637D03*
X018794Y008647D03*
X018794Y008657D03*
X018794Y008627D03*
X018794Y008617D03*
X018794Y008607D03*
X018794Y008597D03*
X018794Y008587D03*
X018794Y008577D03*
X018794Y008567D03*
X018794Y008307D03*
X018794Y008297D03*
X018794Y008287D03*
X018794Y008277D03*
X018794Y008267D03*
X018794Y008257D03*
X018794Y008247D03*
X018794Y008237D03*
X018794Y008227D03*
X018794Y008217D03*
X018794Y008207D03*
X018794Y008197D03*
X019394Y008217D03*
X019394Y008227D03*
X019394Y008237D03*
X019394Y008637D03*
X019664Y007517D03*
X020654Y007337D03*
X020654Y007197D03*
X020654Y007187D03*
X018434Y007487D03*
D52*
X019219Y007387D03*
X019219Y007377D03*
X019219Y007367D03*
X019219Y007357D03*
X019219Y007347D03*
X019219Y007337D03*
X019219Y007327D03*
X019219Y007317D03*
X021209Y007197D03*
X021209Y007667D03*
X016399Y009827D03*
X013669Y009027D03*
X014249Y007477D03*
X014249Y007467D03*
X014249Y007227D03*
X019259Y011907D03*
X017309Y013797D03*
X015389Y013487D03*
X015379Y013467D03*
X014999Y014297D03*
X014999Y014307D03*
X015199Y014657D03*
X016139Y015607D03*
X016139Y015617D03*
X016139Y015627D03*
X016139Y015637D03*
X016139Y015647D03*
X016139Y015657D03*
X016139Y015667D03*
X016139Y015677D03*
X016139Y015687D03*
X016139Y015957D03*
X016139Y015967D03*
X016139Y015977D03*
X016139Y015987D03*
X016139Y015997D03*
X016139Y016007D03*
X016139Y016017D03*
X016139Y016027D03*
X016139Y016037D03*
X016139Y016047D03*
X016729Y016047D03*
X016729Y016037D03*
X016729Y016027D03*
X016729Y016017D03*
X016729Y016007D03*
X016729Y015997D03*
X016729Y015987D03*
X016729Y015977D03*
X016729Y015967D03*
X016729Y015957D03*
X016729Y015687D03*
X016729Y015677D03*
X016729Y015667D03*
X016729Y015657D03*
X016729Y015647D03*
X016729Y015637D03*
X016729Y015627D03*
X016729Y015617D03*
X016729Y015607D03*
X016439Y016697D03*
D53*
X016729Y016087D03*
X016729Y016077D03*
X016729Y016067D03*
X016729Y016057D03*
X016139Y016057D03*
X016139Y016067D03*
X016139Y016077D03*
X016139Y016087D03*
X016139Y015587D03*
X016139Y015577D03*
X016139Y015567D03*
X015659Y015467D03*
X016729Y015567D03*
X016729Y015577D03*
X016729Y015587D03*
X015189Y014647D03*
X015009Y014347D03*
X015009Y014337D03*
X015549Y014267D03*
X015549Y014257D03*
X015419Y013527D03*
X015369Y013437D03*
X015369Y013427D03*
X016399Y013057D03*
X017309Y013787D03*
X016399Y011617D03*
X016399Y011607D03*
X016399Y011597D03*
X016399Y011587D03*
X016399Y011577D03*
X016399Y011567D03*
X013219Y011237D03*
X013829Y008977D03*
X012959Y008767D03*
X014259Y007497D03*
X014259Y007197D03*
X017089Y007427D03*
X017089Y007637D03*
X017939Y007237D03*
X017939Y007227D03*
X017939Y007217D03*
X019679Y007217D03*
X019679Y007207D03*
X020189Y007467D03*
X020189Y007477D03*
X019679Y007477D03*
X019679Y007487D03*
X021219Y007677D03*
D54*
X021204Y007657D03*
X021204Y007207D03*
X016404Y009347D03*
X016404Y011697D03*
X016404Y011707D03*
X016404Y011717D03*
X016404Y011727D03*
X016404Y011737D03*
X016404Y011747D03*
X016404Y011757D03*
X016404Y013037D03*
X015404Y013507D03*
X015394Y013497D03*
X015384Y013477D03*
X014994Y014287D03*
X015214Y014667D03*
X015564Y014427D03*
X016024Y014737D03*
X015654Y015437D03*
X017314Y013807D03*
X019234Y011937D03*
X019244Y011927D03*
X019254Y011917D03*
X012964Y008747D03*
D55*
X012959Y008737D03*
X012009Y008537D03*
X016399Y009817D03*
X018349Y012017D03*
X018339Y012027D03*
X018329Y012037D03*
X019209Y011977D03*
X019219Y011967D03*
X019219Y011957D03*
X019229Y011947D03*
X016089Y014257D03*
X015669Y014537D03*
X015579Y014447D03*
X015569Y014437D03*
X014989Y014277D03*
X015659Y015427D03*
X016439Y016687D03*
X021199Y007217D03*
D56*
X021194Y007227D03*
X021194Y007647D03*
X019984Y009317D03*
X016404Y009357D03*
X016404Y011767D03*
X016404Y011777D03*
X016404Y011787D03*
X016404Y011797D03*
X016404Y011807D03*
X016404Y011817D03*
X016404Y011827D03*
X016404Y013027D03*
X017314Y013817D03*
X016014Y014727D03*
X015654Y014527D03*
X015644Y014517D03*
X015634Y014507D03*
X015604Y014477D03*
X015594Y014467D03*
X015584Y014457D03*
X015224Y014677D03*
X018354Y012007D03*
X018364Y011997D03*
D57*
X018084Y012517D03*
X018084Y012527D03*
X018084Y012537D03*
X018084Y012547D03*
X018084Y012557D03*
X018084Y012567D03*
X018084Y012577D03*
X018084Y012587D03*
X018084Y012597D03*
X018084Y012607D03*
X018084Y012617D03*
X018334Y012617D03*
X018334Y012607D03*
X018334Y012537D03*
X018334Y012527D03*
X018494Y012867D03*
X018674Y012617D03*
X018674Y012607D03*
X018674Y012527D03*
X018674Y012517D03*
X018914Y012517D03*
X018914Y012527D03*
X018914Y012617D03*
X018914Y012627D03*
X018624Y013267D03*
X018624Y013277D03*
X018384Y013257D03*
X018384Y013367D03*
X018334Y013797D03*
X017264Y013587D03*
X017654Y012917D03*
X017654Y012907D03*
X017654Y012897D03*
X017704Y012817D03*
X017714Y012807D03*
X017714Y012797D03*
X017724Y012787D03*
X018634Y011217D03*
X018914Y010847D03*
X018914Y010837D03*
X018914Y010747D03*
X018914Y010737D03*
X018914Y010727D03*
X019264Y010747D03*
X019264Y010757D03*
X019264Y010837D03*
X019874Y011127D03*
X019294Y010067D03*
X019304Y010057D03*
X019424Y009707D03*
X019424Y009697D03*
X019424Y009687D03*
X019424Y009677D03*
X019424Y009667D03*
X019424Y009657D03*
X019424Y009647D03*
X019424Y009637D03*
X019424Y009627D03*
X019424Y009547D03*
X019424Y009537D03*
X019424Y009527D03*
X019424Y009517D03*
X019424Y009507D03*
X019424Y009497D03*
X019424Y009487D03*
X019424Y009477D03*
X019654Y009427D03*
X019644Y009647D03*
X019854Y009717D03*
X019854Y009727D03*
X019854Y009807D03*
X019854Y009817D03*
X019654Y009877D03*
X020084Y009837D03*
X020094Y009827D03*
X020094Y009817D03*
X020094Y009707D03*
X020094Y009697D03*
X020084Y009687D03*
X020324Y009827D03*
X019144Y009077D03*
X019244Y008497D03*
X019244Y008377D03*
X019244Y008367D03*
X019534Y008377D03*
X019534Y008487D03*
X019534Y008497D03*
X018934Y008507D03*
X018934Y008367D03*
X018934Y008357D03*
X018654Y008367D03*
X018654Y008497D03*
X018354Y008497D03*
X018354Y008487D03*
X018354Y008387D03*
X018354Y008377D03*
X018354Y008367D03*
X018064Y008367D03*
X018064Y008377D03*
X018064Y008477D03*
X018064Y008487D03*
X017764Y008487D03*
X017764Y008477D03*
X017764Y008387D03*
X017764Y008377D03*
X017474Y008377D03*
X017474Y008367D03*
X017474Y008487D03*
X017474Y008497D03*
X017174Y008487D03*
X017174Y008477D03*
X017174Y008387D03*
X017174Y008377D03*
X016884Y008377D03*
X016884Y008367D03*
X016884Y008487D03*
X016884Y008497D03*
X016884Y008507D03*
X017324Y008787D03*
X017314Y008067D03*
X017024Y008077D03*
X017614Y008077D03*
X017914Y008067D03*
X018214Y008077D03*
X018504Y008067D03*
X018724Y007557D03*
X019094Y007227D03*
X019094Y008067D03*
X020774Y007467D03*
X015894Y007647D03*
X014414Y008367D03*
X014404Y008357D03*
X014394Y008817D03*
X014394Y008827D03*
X014394Y008927D03*
X014394Y008937D03*
X014624Y008937D03*
X014624Y008947D03*
X014624Y008817D03*
X015434Y008817D03*
X015434Y008937D03*
X015434Y008947D03*
X015664Y008927D03*
X015664Y008817D03*
X013594Y008787D03*
X013594Y008777D03*
X013594Y008677D03*
X013594Y008667D03*
X013584Y008657D03*
X013354Y008677D03*
X013354Y008687D03*
X013354Y008777D03*
X013294Y009257D03*
X013294Y009377D03*
X013294Y009387D03*
X013284Y009397D03*
X013454Y009487D03*
X013454Y009497D03*
X013464Y009477D03*
X013504Y009337D03*
X013504Y009327D03*
X013084Y009237D03*
X013064Y009267D03*
X013064Y009377D03*
X013074Y009397D03*
X012884Y009167D03*
X012704Y009257D03*
X012704Y009377D03*
X012704Y009387D03*
X012694Y009397D03*
X012474Y009377D03*
X012474Y009267D03*
X012474Y009257D03*
X012484Y009247D03*
X012494Y009237D03*
X012294Y009167D03*
X012114Y009267D03*
X012114Y009377D03*
X012104Y009397D03*
X011904Y009237D03*
X012324Y008787D03*
X012324Y008777D03*
X012324Y008677D03*
X012324Y008667D03*
X012334Y008657D03*
X012344Y008647D03*
X012564Y008677D03*
X012564Y008687D03*
X012564Y008777D03*
X011474Y008257D03*
X011474Y008247D03*
X012294Y009757D03*
X012474Y009857D03*
X012484Y009837D03*
X012474Y009967D03*
X012474Y009977D03*
X012694Y009987D03*
X012704Y009977D03*
X012704Y009967D03*
X012704Y009857D03*
X012884Y009757D03*
X013064Y009857D03*
X013064Y009867D03*
X013064Y009967D03*
X013284Y009987D03*
X013294Y009977D03*
X013294Y009967D03*
X013294Y009847D03*
X013464Y009747D03*
X013474Y009757D03*
X013504Y009877D03*
X013504Y009887D03*
X013504Y009897D03*
X013774Y010497D03*
X013944Y010687D03*
X013944Y010697D03*
X013944Y010747D03*
X013944Y010757D03*
X013944Y010837D03*
X013944Y010847D03*
X013774Y011097D03*
X013594Y010857D03*
X013594Y010847D03*
X013594Y010737D03*
X013354Y010747D03*
X013354Y010757D03*
X013354Y010837D03*
X013354Y010847D03*
X013004Y010847D03*
X013004Y010837D03*
X013004Y010747D03*
X013004Y010737D03*
X012774Y010737D03*
X012774Y010727D03*
X014184Y012507D03*
X014184Y012627D03*
X013944Y012617D03*
X013944Y012537D03*
X013944Y012527D03*
X014544Y012517D03*
X014544Y012507D03*
X014544Y012627D03*
X014774Y012507D03*
X015134Y012747D03*
X015134Y012757D03*
X015134Y012767D03*
X015144Y012777D03*
X015184Y012837D03*
X015214Y012887D03*
X014774Y013097D03*
X014764Y013087D03*
X014774Y013227D03*
X014764Y013237D03*
X014544Y013227D03*
X014544Y013217D03*
X014544Y013107D03*
X014544Y013097D03*
X014554Y013087D03*
X014304Y013257D03*
X014184Y013097D03*
X014174Y013087D03*
X014394Y013537D03*
X014534Y013797D03*
X015544Y014547D03*
X015444Y015007D03*
X015444Y015157D03*
X015394Y015277D03*
X015644Y015167D03*
X015654Y015157D03*
X015664Y015147D03*
X015664Y015137D03*
X015664Y015037D03*
X015664Y015027D03*
X016024Y015027D03*
X016024Y015017D03*
X016034Y015007D03*
X016024Y015137D03*
X016024Y015147D03*
X016034Y015157D03*
X016044Y015167D03*
X016234Y015167D03*
X016244Y015157D03*
X016254Y015147D03*
X016254Y015137D03*
X016254Y015027D03*
X016254Y015017D03*
X016244Y015007D03*
X016494Y014987D03*
X016614Y015027D03*
X016614Y015037D03*
X016614Y015137D03*
X016614Y015147D03*
X016624Y015157D03*
X016634Y015167D03*
X016834Y015157D03*
X016844Y015147D03*
X016844Y015027D03*
X016844Y015017D03*
X016834Y015007D03*
X016964Y014987D03*
X017204Y015027D03*
X017204Y015037D03*
X017204Y015137D03*
X017434Y015147D03*
X017434Y015017D03*
X017424Y015007D03*
X017654Y014987D03*
X017654Y014977D03*
X017154Y015797D03*
X017154Y015807D03*
X017154Y015817D03*
X017154Y015827D03*
X017154Y015837D03*
X017154Y015847D03*
X016894Y015857D03*
X016894Y015867D03*
X016894Y015877D03*
X016894Y015787D03*
X016894Y015777D03*
X016894Y015767D03*
X016564Y015787D03*
X016564Y015797D03*
X016564Y015807D03*
X016564Y015817D03*
X016564Y015827D03*
X016564Y015837D03*
X016564Y015847D03*
X016564Y015857D03*
X016304Y015857D03*
X016304Y015867D03*
X016304Y015847D03*
X016304Y015837D03*
X016304Y015827D03*
X016304Y015817D03*
X016304Y015807D03*
X016304Y015797D03*
X016304Y015787D03*
X015974Y015787D03*
X015974Y015797D03*
X015974Y015807D03*
X015974Y015817D03*
X015974Y015827D03*
X015974Y015837D03*
X015974Y015847D03*
X015974Y015857D03*
X015974Y015867D03*
X015974Y015777D03*
X015774Y015937D03*
X015774Y015947D03*
X016014Y016347D03*
X016334Y016447D03*
X016964Y016177D03*
X016434Y015417D03*
X016434Y015237D03*
X016404Y010457D03*
D58*
X015674Y008897D03*
X015674Y008887D03*
X015674Y008877D03*
X015674Y008867D03*
X015674Y008857D03*
X015424Y008857D03*
X015424Y008867D03*
X015424Y008877D03*
X015424Y008887D03*
X015424Y008897D03*
X014634Y008897D03*
X014634Y008907D03*
X014634Y008887D03*
X014634Y008877D03*
X014634Y008867D03*
X014634Y008857D03*
X014634Y008847D03*
X014634Y008837D03*
X014384Y008857D03*
X014384Y008867D03*
X014384Y008877D03*
X014384Y008887D03*
X014384Y008897D03*
X013494Y009367D03*
X013494Y009377D03*
X013494Y009387D03*
X013474Y009467D03*
X013304Y009347D03*
X013304Y009337D03*
X013304Y009327D03*
X013304Y009317D03*
X013304Y009307D03*
X013304Y009297D03*
X013054Y009297D03*
X013054Y009307D03*
X013054Y009317D03*
X013054Y009327D03*
X013054Y009337D03*
X012714Y009337D03*
X012714Y009347D03*
X012714Y009327D03*
X012714Y009317D03*
X012714Y009307D03*
X012714Y009297D03*
X012464Y009307D03*
X012464Y009317D03*
X012464Y009327D03*
X012464Y009337D03*
X012124Y009337D03*
X012124Y009347D03*
X012124Y009327D03*
X012124Y009317D03*
X012124Y009307D03*
X012124Y009297D03*
X012124Y009287D03*
X011904Y009247D03*
X012094Y008797D03*
X012714Y009887D03*
X012714Y009897D03*
X012714Y009907D03*
X012714Y009917D03*
X012714Y009927D03*
X012714Y009937D03*
X012464Y009927D03*
X012464Y009917D03*
X012464Y009907D03*
X012464Y009897D03*
X013054Y009897D03*
X013054Y009907D03*
X013054Y009917D03*
X013054Y009927D03*
X013054Y009887D03*
X013304Y009887D03*
X013304Y009897D03*
X013304Y009907D03*
X013304Y009917D03*
X013304Y009927D03*
X013304Y009937D03*
X013494Y009847D03*
X013494Y009837D03*
X013494Y009827D03*
X013484Y009777D03*
X013934Y010647D03*
X013934Y010657D03*
X012774Y010747D03*
X012774Y010757D03*
X014764Y012087D03*
X014784Y012537D03*
X014784Y012547D03*
X014784Y012557D03*
X014784Y012567D03*
X014784Y012577D03*
X014784Y012587D03*
X014784Y012597D03*
X014784Y012607D03*
X014534Y012597D03*
X014534Y012587D03*
X014534Y012577D03*
X014534Y012567D03*
X014534Y012557D03*
X014534Y012547D03*
X014534Y012537D03*
X014364Y013017D03*
X014534Y013137D03*
X014534Y013147D03*
X014534Y013157D03*
X014534Y013167D03*
X014534Y013177D03*
X014534Y013187D03*
X014784Y013187D03*
X014784Y013197D03*
X014784Y013177D03*
X014784Y013167D03*
X014784Y013157D03*
X014784Y013147D03*
X014784Y013137D03*
X014784Y013127D03*
X015204Y012867D03*
X015124Y012717D03*
X014194Y013207D03*
X014194Y013217D03*
X014394Y013557D03*
X014534Y013807D03*
X015674Y015057D03*
X015674Y015067D03*
X015674Y015077D03*
X015674Y015087D03*
X015674Y015097D03*
X015674Y015107D03*
X016014Y015107D03*
X016014Y015097D03*
X016014Y015087D03*
X016014Y015077D03*
X016014Y015067D03*
X016014Y015057D03*
X016264Y015057D03*
X016264Y015067D03*
X016264Y015077D03*
X016264Y015087D03*
X016264Y015097D03*
X016264Y015107D03*
X016434Y015227D03*
X016604Y015107D03*
X016604Y015097D03*
X016604Y015087D03*
X016604Y015077D03*
X016604Y015067D03*
X016604Y015057D03*
X016854Y015067D03*
X016854Y015077D03*
X016854Y015087D03*
X016854Y015097D03*
X016854Y015107D03*
X017194Y015107D03*
X017194Y015097D03*
X017194Y015087D03*
X017194Y015077D03*
X017194Y015067D03*
X017194Y015057D03*
X017444Y015057D03*
X017444Y015067D03*
X017444Y015077D03*
X017444Y015087D03*
X017444Y015097D03*
X017444Y015107D03*
X017444Y015117D03*
X017444Y015047D03*
X017644Y015017D03*
X017644Y015007D03*
X017144Y015867D03*
X017144Y015877D03*
X017144Y015887D03*
X015784Y015957D03*
X015784Y015967D03*
X015784Y015977D03*
X015354Y015227D03*
X015344Y015217D03*
X015334Y015197D03*
X017264Y013577D03*
X017664Y012877D03*
X017684Y012847D03*
X017744Y012737D03*
X018374Y013297D03*
X018374Y013307D03*
X018374Y013317D03*
X018584Y013387D03*
X018594Y013377D03*
X018624Y013327D03*
X018624Y013317D03*
X018924Y012577D03*
X018924Y012567D03*
X018924Y012557D03*
X018634Y011207D03*
X018924Y010807D03*
X018924Y010797D03*
X018924Y010787D03*
X018924Y010697D03*
X018924Y010687D03*
X019254Y010117D03*
X019264Y010107D03*
X020104Y009777D03*
X020104Y009767D03*
X020104Y009757D03*
X019654Y008917D03*
X019094Y008787D03*
X018944Y008477D03*
X018944Y008467D03*
X018944Y008457D03*
X018944Y008447D03*
X018944Y008437D03*
X018944Y008427D03*
X018944Y008417D03*
X018944Y008407D03*
X018944Y008397D03*
X018644Y008397D03*
X018644Y008407D03*
X018644Y008417D03*
X018644Y008427D03*
X018644Y008437D03*
X018644Y008447D03*
X018644Y008457D03*
X019544Y008437D03*
X019544Y008427D03*
X017634Y007237D03*
X015884Y007657D03*
X015084Y007657D03*
X013264Y007467D03*
X019904Y011087D03*
X019914Y011077D03*
X019934Y011057D03*
D59*
X019964Y011017D03*
X019984Y010987D03*
X018944Y010627D03*
X019174Y010217D03*
X019184Y010207D03*
X019194Y010197D03*
X019174Y009117D03*
X020794Y007447D03*
X015864Y007667D03*
X015074Y007667D03*
X013254Y007457D03*
X012634Y007457D03*
X012624Y007247D03*
X011534Y008637D03*
X011904Y009277D03*
X012784Y010807D03*
X012784Y010817D03*
X013974Y011227D03*
X014164Y011227D03*
X015104Y012647D03*
X014194Y013247D03*
X015514Y014137D03*
X017254Y013547D03*
X017404Y013297D03*
X017764Y012667D03*
X017764Y012657D03*
X019374Y012047D03*
X018344Y013837D03*
X018124Y014217D03*
X017624Y015077D03*
X017614Y015097D03*
X016214Y016347D03*
X016064Y016347D03*
X015804Y016037D03*
X016144Y016597D03*
X016724Y016597D03*
D60*
X016609Y016317D03*
X014989Y014107D03*
X016409Y012717D03*
X016409Y012507D03*
X017329Y013927D03*
X016409Y009637D03*
X016399Y009527D03*
X015029Y008377D03*
X012959Y008037D03*
X011749Y007467D03*
X020739Y009157D03*
X020739Y009167D03*
D61*
X020584Y009427D03*
X020504Y009567D03*
X016404Y009517D03*
X016404Y009507D03*
X016404Y009497D03*
X016404Y009647D03*
X016404Y009657D03*
X016404Y009667D03*
X015024Y008367D03*
X015024Y008357D03*
X015024Y008207D03*
X015024Y008197D03*
X014064Y008597D03*
X012954Y008527D03*
X012954Y008227D03*
X012964Y008057D03*
X012964Y008047D03*
X011964Y008007D03*
X011924Y008047D03*
X011924Y008217D03*
X011924Y008227D03*
X011754Y007487D03*
X011754Y007477D03*
X016404Y012417D03*
X016404Y012427D03*
X016404Y012437D03*
X016404Y012447D03*
X016404Y012457D03*
X016404Y012467D03*
X016404Y012477D03*
X016404Y012487D03*
X016404Y012497D03*
X016404Y012727D03*
X016404Y012737D03*
X016404Y012747D03*
X016404Y012757D03*
X016404Y012767D03*
X016404Y012777D03*
X016404Y012787D03*
D62*
X016409Y012407D03*
X017329Y013917D03*
X014989Y014117D03*
X016619Y016307D03*
X016399Y009677D03*
X015029Y008677D03*
X014059Y008607D03*
X012959Y008217D03*
X011979Y007997D03*
X011919Y008057D03*
X011759Y007497D03*
X020509Y009577D03*
X020599Y009417D03*
X020609Y009407D03*
X020729Y009187D03*
X020729Y009177D03*
D63*
X021184Y007627D03*
X016404Y009367D03*
X015034Y008947D03*
X015034Y008937D03*
X015034Y008927D03*
X015034Y008917D03*
X015034Y008907D03*
X015034Y008897D03*
X015034Y008887D03*
X015034Y008877D03*
X015034Y008867D03*
X015034Y008857D03*
X015034Y008847D03*
X015034Y008837D03*
X015034Y008827D03*
X015034Y008817D03*
X015034Y008807D03*
X015034Y008797D03*
X015034Y008787D03*
X015034Y008777D03*
X015034Y008767D03*
X013984Y008767D03*
X013984Y008777D03*
X013984Y008787D03*
X013984Y008797D03*
X013984Y008807D03*
X013984Y008817D03*
X013984Y008827D03*
X013984Y008837D03*
X013984Y008847D03*
X013984Y008857D03*
X013874Y008967D03*
X012954Y008707D03*
X012954Y008697D03*
X012954Y008687D03*
X012954Y008677D03*
X012954Y008667D03*
X012954Y008657D03*
X012954Y008647D03*
X012954Y008637D03*
X012954Y008627D03*
X012954Y008617D03*
X012954Y008607D03*
X012004Y008527D03*
X013774Y011237D03*
X016404Y011887D03*
X018394Y011957D03*
X019154Y012037D03*
X019174Y012027D03*
X019184Y012007D03*
X019094Y011237D03*
X017314Y013827D03*
X016114Y014267D03*
X016004Y014717D03*
X015244Y014687D03*
D64*
X015609Y014487D03*
X015619Y014497D03*
X014989Y014267D03*
X014989Y014257D03*
X014989Y014247D03*
X015659Y015417D03*
X016439Y016677D03*
X016399Y013017D03*
X016399Y011877D03*
X016399Y011867D03*
X016399Y011857D03*
X016399Y011847D03*
X016399Y011837D03*
X018369Y011987D03*
X018379Y011977D03*
X018389Y011967D03*
X019179Y012017D03*
X019189Y011997D03*
X019199Y011987D03*
X016399Y009807D03*
X012959Y008727D03*
X012959Y008717D03*
X019979Y009027D03*
X021189Y007637D03*
D65*
X020279Y007967D03*
X017129Y014627D03*
X017129Y014637D03*
D66*
X015254Y007967D03*
D67*
X015024Y008117D03*
X013954Y008157D03*
X012964Y007967D03*
X011924Y008447D03*
X015024Y014027D03*
X016754Y014847D03*
X016754Y014857D03*
X017344Y014017D03*
D68*
X015994Y014697D03*
X014984Y014227D03*
X014984Y014217D03*
X015664Y015397D03*
X016404Y012997D03*
X016404Y011957D03*
X018434Y011907D03*
X020504Y009697D03*
X020504Y009687D03*
X016404Y009377D03*
X015034Y008747D03*
X013994Y008737D03*
X012074Y007967D03*
D69*
X020344Y007977D03*
X017144Y014537D03*
X017144Y014547D03*
D70*
X015239Y007977D03*
D71*
X015029Y008437D03*
X015029Y008607D03*
X014049Y008517D03*
X013939Y008387D03*
X013929Y008197D03*
X012959Y008287D03*
X012959Y008457D03*
X012959Y007977D03*
X011929Y008287D03*
X011929Y008467D03*
X017339Y013997D03*
X020759Y009017D03*
D72*
X020669Y009327D03*
X019779Y010097D03*
X019599Y010307D03*
X016399Y009727D03*
X016399Y009437D03*
X015029Y008697D03*
X014039Y008647D03*
X012019Y007977D03*
X016399Y012237D03*
X016399Y012247D03*
X016399Y012257D03*
X016399Y012267D03*
X016399Y012277D03*
X016399Y012887D03*
X016399Y012897D03*
X017329Y013897D03*
X015949Y014607D03*
X015939Y014597D03*
X015359Y014787D03*
X015359Y014797D03*
X015349Y014767D03*
X015339Y014757D03*
X015329Y014737D03*
X015319Y014727D03*
X016439Y016617D03*
D73*
X020469Y008767D03*
X020369Y007987D03*
D74*
X015234Y007987D03*
D75*
X015029Y008427D03*
X015029Y008617D03*
X014059Y008537D03*
X012959Y008277D03*
X012959Y007987D03*
X011929Y008277D03*
X011919Y008477D03*
X017339Y013987D03*
X020759Y009037D03*
X020759Y009027D03*
D76*
X020719Y009227D03*
X020709Y009237D03*
X020709Y009247D03*
X020699Y009267D03*
X020639Y009367D03*
X020629Y009377D03*
X020509Y009587D03*
X019769Y010117D03*
X019609Y010287D03*
X016399Y009707D03*
X016399Y009467D03*
X015029Y008687D03*
X014049Y008627D03*
X011999Y007987D03*
X016399Y012297D03*
X016399Y012307D03*
X016399Y012317D03*
X016399Y012327D03*
X016399Y012847D03*
X016399Y012857D03*
X017329Y013907D03*
X015919Y014567D03*
X014989Y014127D03*
X016439Y016607D03*
D77*
X017149Y014517D03*
X020409Y008867D03*
X020409Y008857D03*
X020419Y008837D03*
X020429Y008827D03*
X020439Y008817D03*
X020479Y008747D03*
X020489Y008727D03*
X020499Y008707D03*
X020509Y008697D03*
X020509Y008687D03*
X020519Y008677D03*
X020519Y008667D03*
X020389Y007997D03*
D78*
X015234Y007997D03*
D79*
X015029Y008417D03*
X015029Y008627D03*
X012959Y008487D03*
X012959Y008267D03*
X012959Y007997D03*
X020759Y009057D03*
X017339Y013977D03*
D80*
X017144Y014507D03*
X020414Y008847D03*
X020524Y008657D03*
X020524Y008647D03*
X020404Y008007D03*
D81*
X015234Y008007D03*
D82*
X015024Y008157D03*
X014064Y008557D03*
X012964Y008007D03*
X011924Y008267D03*
X011924Y008487D03*
X015004Y014057D03*
X020754Y009067D03*
D83*
X020534Y008627D03*
X020534Y008617D03*
X020424Y008017D03*
X017144Y014497D03*
D84*
X015239Y008017D03*
D85*
X015029Y008407D03*
X015029Y008637D03*
X012959Y008497D03*
X012959Y008257D03*
X012959Y008017D03*
X020529Y009477D03*
X020749Y009077D03*
X017339Y013967D03*
X014999Y014067D03*
D86*
X014994Y014097D03*
X016404Y012707D03*
X016404Y012697D03*
X016404Y012687D03*
X016404Y012677D03*
X016404Y012667D03*
X016404Y012657D03*
X016404Y012647D03*
X016404Y012637D03*
X016404Y012627D03*
X016404Y012617D03*
X016404Y012607D03*
X016404Y012597D03*
X016404Y012587D03*
X016404Y012577D03*
X016404Y012567D03*
X016404Y012557D03*
X016404Y012547D03*
X016404Y012537D03*
X016404Y012527D03*
X016404Y012517D03*
X017334Y013937D03*
X016404Y009627D03*
X016404Y009617D03*
X016404Y009607D03*
X016404Y009597D03*
X016404Y009587D03*
X016404Y009577D03*
X016404Y009567D03*
X016404Y009557D03*
X016404Y009547D03*
X016404Y009537D03*
X015024Y008187D03*
X014064Y008587D03*
X012954Y008517D03*
X011934Y008517D03*
X011924Y008237D03*
X011924Y008037D03*
X011944Y008017D03*
X020504Y009547D03*
X020504Y009557D03*
X020744Y009147D03*
X020744Y009137D03*
D87*
X020544Y008577D03*
X020544Y008567D03*
X020444Y008027D03*
D88*
X015234Y008027D03*
D89*
X015029Y008397D03*
X015029Y008647D03*
X012959Y008247D03*
X012959Y008027D03*
X011929Y008507D03*
X014999Y014077D03*
X016579Y016337D03*
X020519Y009507D03*
X020539Y009457D03*
X020749Y009107D03*
X020749Y009097D03*
D90*
X020554Y009447D03*
X020514Y009517D03*
X020514Y009527D03*
X015024Y008177D03*
X014064Y008577D03*
X012954Y008507D03*
X011924Y008247D03*
X011924Y008027D03*
X014994Y014087D03*
X017334Y013947D03*
D91*
X017139Y014477D03*
X020549Y008557D03*
X020549Y008547D03*
X020479Y008057D03*
X020459Y008037D03*
D92*
X015239Y008037D03*
D93*
X020474Y008047D03*
X020484Y008067D03*
X020554Y008527D03*
X020554Y008537D03*
X017134Y014467D03*
D94*
X015234Y008047D03*
D95*
X015229Y008057D03*
D96*
X015159Y008067D03*
D97*
X015029Y008217D03*
X016289Y008757D03*
X012959Y008207D03*
X012959Y008067D03*
X018959Y011367D03*
X018969Y011357D03*
X019009Y011277D03*
X016439Y016367D03*
D98*
X017344Y014047D03*
X011924Y008417D03*
X011924Y008337D03*
X011924Y008327D03*
X011944Y008077D03*
X011954Y008067D03*
X013984Y008097D03*
D99*
X020499Y008077D03*
X020509Y008087D03*
X020519Y008097D03*
X020559Y008497D03*
X020559Y008507D03*
X020559Y008517D03*
D100*
X016204Y008077D03*
X014044Y012037D03*
D101*
X014049Y012167D03*
X015279Y013677D03*
X015039Y014007D03*
X016439Y016417D03*
X016439Y016427D03*
X020749Y008957D03*
X015029Y008557D03*
X015029Y008547D03*
X015029Y008537D03*
X015029Y008527D03*
X015029Y008517D03*
X015029Y008507D03*
X015029Y008497D03*
X015029Y008487D03*
X015029Y008307D03*
X015029Y008297D03*
X015029Y008287D03*
X015029Y008277D03*
X015029Y008267D03*
X015029Y008077D03*
X013999Y008327D03*
X012959Y008337D03*
X012959Y008347D03*
X012959Y008397D03*
X012959Y008407D03*
X012959Y008167D03*
X012959Y008157D03*
X012959Y008147D03*
X012959Y008137D03*
X012959Y008127D03*
X012959Y008117D03*
X012959Y008107D03*
X011939Y008087D03*
X011929Y008097D03*
X011929Y008107D03*
X011929Y008117D03*
X011929Y008127D03*
X011929Y008137D03*
X011929Y008147D03*
X011929Y008157D03*
X011929Y008407D03*
D102*
X012959Y008387D03*
X012959Y008377D03*
X012959Y008367D03*
X012959Y008357D03*
X012959Y008187D03*
X012959Y008177D03*
X012959Y008097D03*
X012959Y008087D03*
X013989Y008077D03*
X013999Y008347D03*
X015029Y008337D03*
X015029Y008327D03*
X015029Y008237D03*
X019009Y011247D03*
X018889Y011457D03*
X015279Y013687D03*
X014049Y012157D03*
X016439Y016397D03*
X016439Y016407D03*
X020739Y008937D03*
D103*
X020739Y008927D03*
X019009Y011257D03*
X018929Y011407D03*
X018919Y011417D03*
X015279Y013717D03*
X016439Y016387D03*
X015029Y008347D03*
X012959Y008197D03*
X012959Y008077D03*
X011929Y008197D03*
D104*
X016209Y008087D03*
X015259Y013857D03*
X017329Y014167D03*
D105*
X016779Y014797D03*
X016439Y016437D03*
X014059Y012177D03*
X015029Y008567D03*
X015029Y008477D03*
X015029Y008087D03*
X014009Y008317D03*
X013979Y008107D03*
X012959Y008327D03*
X012959Y008417D03*
X020749Y008967D03*
D106*
X020744Y008947D03*
X018884Y011467D03*
X018874Y011477D03*
X017344Y014057D03*
X015034Y008317D03*
X015034Y008257D03*
X015034Y008247D03*
X014004Y008337D03*
X013984Y008087D03*
X011924Y008167D03*
X011924Y008177D03*
X011924Y008347D03*
X011924Y008357D03*
X011924Y008367D03*
X011924Y008377D03*
X011924Y008387D03*
X011924Y008397D03*
D107*
X016169Y008337D03*
X016169Y008227D03*
X016209Y008107D03*
X016209Y008097D03*
X014039Y012057D03*
X017329Y014157D03*
D108*
X016769Y014817D03*
X014069Y012197D03*
X019049Y011727D03*
X019059Y011717D03*
X019109Y011667D03*
X019129Y011637D03*
X019139Y011627D03*
X019159Y011617D03*
X020749Y008977D03*
X015029Y008577D03*
X015029Y008467D03*
X015029Y008097D03*
X014009Y008297D03*
X014009Y008307D03*
X013969Y008127D03*
X012959Y008317D03*
X012959Y008427D03*
X011929Y008317D03*
D109*
X020524Y008107D03*
X020564Y008457D03*
X020564Y008467D03*
X020564Y008477D03*
X020564Y008487D03*
X017134Y014457D03*
D110*
X017344Y014027D03*
X016764Y014827D03*
X019024Y011747D03*
X019034Y011737D03*
X019064Y011707D03*
X019074Y011697D03*
X019084Y011687D03*
X019094Y011677D03*
X019114Y011657D03*
X019124Y011647D03*
X014014Y008287D03*
X013964Y008137D03*
X015024Y008107D03*
X011924Y008437D03*
D111*
X020529Y008117D03*
X020539Y008127D03*
X020549Y008147D03*
X020559Y008167D03*
X020569Y008187D03*
X020569Y008197D03*
X020569Y008427D03*
X020569Y008437D03*
X020569Y008447D03*
D112*
X016209Y008117D03*
X016179Y008267D03*
X016179Y008277D03*
X016179Y008287D03*
X016179Y008297D03*
X016179Y008307D03*
X016179Y008477D03*
X016179Y008487D03*
X016179Y008557D03*
X014039Y012067D03*
X014039Y012077D03*
X015259Y013837D03*
D113*
X015034Y014017D03*
X016774Y014807D03*
X017344Y014037D03*
X014064Y012187D03*
X011924Y008427D03*
X013974Y008117D03*
D114*
X016214Y008127D03*
X016194Y008447D03*
X016194Y008587D03*
X015264Y013817D03*
D115*
X015014Y014037D03*
X014044Y008507D03*
X013994Y008447D03*
X013984Y008437D03*
X013974Y008427D03*
X013944Y008397D03*
X014044Y008237D03*
X014054Y008227D03*
X013944Y008177D03*
X013934Y008187D03*
X013924Y008207D03*
X015024Y008127D03*
X011924Y008457D03*
D116*
X020544Y008137D03*
X020554Y008157D03*
X020564Y008177D03*
X020574Y008207D03*
X020574Y008217D03*
X020574Y008227D03*
X020574Y008237D03*
X020574Y008247D03*
X020574Y008257D03*
X020574Y008267D03*
X020574Y008277D03*
X020574Y008287D03*
X020574Y008297D03*
X020574Y008307D03*
X020574Y008317D03*
X020574Y008327D03*
X020574Y008337D03*
X020574Y008347D03*
X020574Y008357D03*
X020574Y008367D03*
X020574Y008377D03*
X020574Y008387D03*
X020574Y008397D03*
X020574Y008407D03*
X020574Y008417D03*
X017134Y014447D03*
D117*
X017339Y014137D03*
X015269Y013807D03*
X014029Y012097D03*
X016199Y008607D03*
X016199Y008597D03*
X016199Y008437D03*
X016219Y008137D03*
D118*
X015024Y008137D03*
X014054Y008527D03*
X013934Y008377D03*
X013934Y008367D03*
X013934Y008357D03*
X012954Y008467D03*
D119*
X016204Y008427D03*
X016204Y008617D03*
X016214Y008147D03*
X020704Y008877D03*
D120*
X020754Y009047D03*
X015024Y008147D03*
X014064Y008547D03*
X012954Y008477D03*
X015004Y014047D03*
D121*
X016759Y014837D03*
X014069Y012207D03*
X015029Y008587D03*
X015029Y008457D03*
X014019Y008277D03*
X013959Y008147D03*
X012959Y008307D03*
X012959Y008437D03*
X011929Y008307D03*
X020759Y008987D03*
D122*
X016209Y008627D03*
X016209Y008417D03*
X016219Y008157D03*
X014029Y012107D03*
X015269Y013797D03*
X017339Y014127D03*
D123*
X014024Y012117D03*
X016214Y008637D03*
X016214Y008407D03*
X016224Y008167D03*
X020714Y008887D03*
D124*
X020754Y009087D03*
X020534Y009467D03*
X020524Y009487D03*
X020524Y009497D03*
X015024Y008167D03*
X014064Y008567D03*
X011924Y008497D03*
X011924Y008257D03*
X017334Y013957D03*
X016564Y016347D03*
D125*
X016749Y014867D03*
X017339Y014007D03*
X014069Y012217D03*
X014039Y008497D03*
X014029Y008487D03*
X014019Y008477D03*
X014009Y008467D03*
X013999Y008457D03*
X013959Y008417D03*
X013949Y008407D03*
X014029Y008267D03*
X014039Y008257D03*
X014039Y008247D03*
X014059Y008217D03*
X013949Y008167D03*
X015029Y008447D03*
X015029Y008597D03*
X012959Y008447D03*
X012959Y008297D03*
X011929Y008297D03*
X020759Y008997D03*
X020759Y009007D03*
D126*
X016329Y008937D03*
X016329Y008927D03*
X016329Y008917D03*
X016329Y008907D03*
X016329Y008897D03*
X016329Y008887D03*
X016329Y008877D03*
X016329Y008867D03*
X016329Y008857D03*
X016219Y008647D03*
X016219Y008397D03*
X016229Y008177D03*
X015269Y013787D03*
X017339Y014117D03*
D127*
X017339Y014107D03*
X015279Y013767D03*
X020719Y008897D03*
X016319Y008827D03*
X016229Y008667D03*
X016229Y008377D03*
X016229Y008357D03*
X016229Y008187D03*
D128*
X015034Y008227D03*
X011924Y008187D03*
X018894Y011447D03*
X018904Y011437D03*
X018914Y011427D03*
X015284Y013697D03*
X015284Y013707D03*
X017344Y014067D03*
D129*
X016244Y008687D03*
X016234Y008677D03*
X016234Y008367D03*
X016234Y008207D03*
X016234Y008197D03*
D130*
X011924Y008207D03*
X014044Y012147D03*
X015284Y013727D03*
X017344Y014077D03*
X016434Y016377D03*
X018934Y011397D03*
X018944Y011387D03*
X018954Y011377D03*
X019014Y011267D03*
D131*
X015264Y013847D03*
X014044Y012047D03*
X016164Y008347D03*
X016164Y008217D03*
D132*
X016174Y008237D03*
X016174Y008247D03*
X016174Y008257D03*
X016174Y008317D03*
X016174Y008327D03*
X016174Y008497D03*
X016174Y008507D03*
X016174Y008517D03*
X016174Y008527D03*
X016174Y008537D03*
X016174Y008547D03*
D133*
X015029Y008657D03*
X015029Y008667D03*
X015029Y008387D03*
X012959Y008237D03*
X020509Y009537D03*
X020569Y009437D03*
X020749Y009127D03*
X020749Y009117D03*
X016589Y016327D03*
D134*
X015274Y013777D03*
X014024Y012127D03*
X016324Y008947D03*
X016324Y008847D03*
X016324Y008837D03*
X016224Y008657D03*
X016224Y008387D03*
D135*
X016189Y008457D03*
X016189Y008577D03*
X014039Y012087D03*
D136*
X015264Y013827D03*
X017334Y014147D03*
X016184Y008567D03*
X016184Y008467D03*
D137*
X016404Y009477D03*
X016404Y009487D03*
X016404Y009687D03*
X016404Y009697D03*
X014054Y008617D03*
X012954Y008537D03*
X016404Y012337D03*
X016404Y012347D03*
X016404Y012357D03*
X016404Y012367D03*
X016404Y012377D03*
X016404Y012387D03*
X016404Y012397D03*
X016404Y012797D03*
X016404Y012807D03*
X016404Y012817D03*
X016404Y012827D03*
X016404Y012837D03*
X019614Y010277D03*
X019624Y010267D03*
X019634Y010257D03*
X019644Y010247D03*
X019654Y010237D03*
X019664Y010227D03*
X019674Y010217D03*
X019684Y010207D03*
X019694Y010197D03*
X019704Y010187D03*
X019714Y010177D03*
X019724Y010167D03*
X019734Y010157D03*
X019744Y010147D03*
X019754Y010137D03*
X019764Y010127D03*
X020614Y009397D03*
X020624Y009387D03*
X020724Y009217D03*
X020724Y009207D03*
X020724Y009197D03*
X016654Y016267D03*
X016644Y016277D03*
X016644Y016287D03*
X016634Y016297D03*
D138*
X015354Y014777D03*
X015334Y014747D03*
X015894Y014547D03*
X015904Y014557D03*
X015924Y014577D03*
X015934Y014587D03*
X014984Y014137D03*
X016404Y012877D03*
X016404Y012867D03*
X016404Y012287D03*
X019604Y010297D03*
X019774Y010107D03*
X020514Y009597D03*
X020644Y009357D03*
X020654Y009347D03*
X020664Y009337D03*
X020674Y009317D03*
X020674Y009307D03*
X020684Y009297D03*
X020684Y009287D03*
X020694Y009277D03*
X020704Y009257D03*
X016404Y009447D03*
X016404Y009457D03*
X016404Y009717D03*
X014044Y008637D03*
X012954Y008547D03*
D139*
X012954Y008557D03*
X014034Y008657D03*
X014034Y008667D03*
X016404Y009427D03*
X019594Y010317D03*
X019784Y010087D03*
X020514Y009607D03*
X016404Y012227D03*
X017324Y013887D03*
X015954Y014617D03*
X015364Y014807D03*
X015364Y014817D03*
X015314Y014717D03*
X015304Y014707D03*
X015294Y014697D03*
X014984Y014147D03*
D140*
X014984Y014167D03*
X014984Y014177D03*
X015364Y014827D03*
X015644Y015307D03*
X015644Y015317D03*
X015964Y014637D03*
X017324Y013877D03*
X016404Y012937D03*
X016404Y012177D03*
X016404Y012167D03*
X016404Y012157D03*
X016404Y012147D03*
X016404Y012137D03*
X020514Y009617D03*
X016404Y009417D03*
X016404Y009407D03*
X014024Y008677D03*
X013944Y008927D03*
X013944Y008937D03*
X012954Y008567D03*
X016434Y016637D03*
D141*
X015654Y015347D03*
X015364Y014847D03*
X015974Y014657D03*
X014984Y014187D03*
X016404Y012967D03*
X016404Y012957D03*
X016404Y012127D03*
X016404Y012117D03*
X016404Y012107D03*
X016404Y012097D03*
X016404Y012087D03*
X017324Y013867D03*
X019784Y010067D03*
X016404Y009767D03*
X016404Y009397D03*
X014014Y008697D03*
X013954Y008917D03*
X013914Y008957D03*
X012954Y008577D03*
D142*
X020539Y008597D03*
X020539Y008607D03*
X020539Y008587D03*
X017139Y014487D03*
D143*
X017319Y013847D03*
X016399Y012987D03*
X016399Y012017D03*
X016399Y012007D03*
X016399Y011997D03*
X016399Y011987D03*
X016399Y011977D03*
X016399Y011967D03*
X016399Y009787D03*
X015029Y008737D03*
X013999Y008727D03*
X013969Y008877D03*
X012959Y008587D03*
X019779Y010057D03*
X020509Y009677D03*
X020509Y009667D03*
X019979Y009037D03*
X015989Y014687D03*
X015659Y015387D03*
X016439Y016657D03*
D144*
X016439Y016667D03*
X015659Y015407D03*
X015999Y014707D03*
X014989Y014237D03*
X016399Y013007D03*
X017319Y013837D03*
X016399Y011947D03*
X016399Y011937D03*
X016399Y011927D03*
X016399Y011917D03*
X016399Y011907D03*
X016399Y011897D03*
X018399Y011947D03*
X018409Y011937D03*
X018419Y011927D03*
X018429Y011917D03*
X016399Y009797D03*
X015029Y008757D03*
X013989Y008757D03*
X013989Y008747D03*
X013979Y008867D03*
X012959Y008597D03*
X019979Y009307D03*
D145*
X020529Y008637D03*
D146*
X019979Y009057D03*
X019979Y009287D03*
X020519Y009627D03*
X019589Y010337D03*
X016399Y009757D03*
X015029Y008717D03*
X014019Y008687D03*
X016409Y012947D03*
X015969Y014647D03*
X015369Y014837D03*
X015649Y015327D03*
X015649Y015337D03*
D147*
X017339Y014097D03*
X015279Y013757D03*
X015279Y013747D03*
X020729Y008907D03*
X016309Y008817D03*
X016309Y008807D03*
X016249Y008697D03*
D148*
X016254Y008707D03*
X016264Y008717D03*
X016304Y008797D03*
D149*
X015029Y008707D03*
X013939Y008947D03*
X016399Y009737D03*
X016399Y009747D03*
X019589Y010327D03*
X019779Y010077D03*
X019979Y009277D03*
X019979Y009067D03*
X016399Y012187D03*
X016399Y012197D03*
X016399Y012207D03*
X016399Y012217D03*
X016399Y012907D03*
X016399Y012917D03*
X016399Y012927D03*
X014979Y014157D03*
X015959Y014627D03*
X015639Y015297D03*
X016439Y016627D03*
D150*
X016439Y016647D03*
X015659Y015367D03*
X015659Y015357D03*
X015369Y014857D03*
X015979Y014667D03*
X017319Y013857D03*
X016399Y012077D03*
X020519Y009647D03*
X020519Y009637D03*
X019979Y009047D03*
X015029Y008727D03*
X014009Y008707D03*
X013959Y008907D03*
D151*
X020444Y008807D03*
X020454Y008797D03*
X020464Y008787D03*
X020464Y008777D03*
X020474Y008757D03*
X020484Y008737D03*
X020494Y008717D03*
X017144Y014527D03*
D152*
X015984Y014677D03*
X015364Y014867D03*
X015664Y015377D03*
X014984Y014207D03*
X014984Y014197D03*
X016404Y012977D03*
X016404Y012067D03*
X016404Y012057D03*
X016404Y012047D03*
X016404Y012037D03*
X016404Y012027D03*
X019594Y010347D03*
X020514Y009657D03*
X019974Y009297D03*
X016404Y009387D03*
X016404Y009777D03*
X013964Y008897D03*
X013964Y008887D03*
X014004Y008717D03*
D153*
X016269Y008727D03*
X016279Y008737D03*
X016299Y008787D03*
X019009Y011297D03*
X018999Y011317D03*
X015279Y013737D03*
X014039Y012137D03*
D154*
X017344Y014087D03*
X016434Y016357D03*
X018974Y011347D03*
X018984Y011337D03*
X018994Y011327D03*
X019004Y011307D03*
X019014Y011287D03*
X020734Y008917D03*
X016294Y008777D03*
X016294Y008767D03*
X016284Y008747D03*
D155*
X013684Y011267D03*
X013684Y011277D03*
X013694Y011297D03*
X013704Y011317D03*
X013714Y011327D03*
X013724Y011347D03*
X013734Y011367D03*
X013744Y011377D03*
X013744Y011387D03*
X013754Y011397D03*
X013754Y011407D03*
X013764Y011417D03*
X013784Y011447D03*
X013804Y011477D03*
X013804Y011487D03*
X013814Y011497D03*
X013814Y011507D03*
X013824Y011517D03*
X013824Y011527D03*
X013834Y011537D03*
X013844Y011557D03*
X013854Y011577D03*
X013864Y011587D03*
X013874Y011597D03*
X013874Y011607D03*
X013884Y011617D03*
X013884Y011627D03*
X013894Y011647D03*
X013904Y011657D03*
X013904Y011667D03*
X013914Y011677D03*
X013934Y011707D03*
X013944Y011727D03*
X013944Y011737D03*
X013954Y011747D03*
X013964Y011757D03*
X013964Y011767D03*
X013974Y011777D03*
X013984Y011797D03*
X013994Y011817D03*
X014004Y011827D03*
X014004Y011837D03*
X014014Y011847D03*
X014024Y011857D03*
X014024Y011867D03*
X014034Y011877D03*
X014034Y011887D03*
X014054Y011917D03*
X014064Y011937D03*
X013674Y011257D03*
X013664Y011247D03*
X015244Y013957D03*
X017304Y014227D03*
D156*
X014059Y011927D03*
X014049Y011907D03*
X014039Y011897D03*
X013989Y011807D03*
X013979Y011787D03*
X013939Y011717D03*
X013929Y011697D03*
X013919Y011687D03*
X013889Y011637D03*
X013849Y011567D03*
X013839Y011547D03*
X013789Y011467D03*
X013789Y011457D03*
X013779Y011437D03*
X013769Y011427D03*
X013729Y011357D03*
X013719Y011337D03*
X013699Y011307D03*
X013689Y011287D03*
D157*
X014064Y011947D03*
X015244Y013947D03*
D158*
X017309Y014217D03*
X014059Y011957D03*
D159*
X014059Y011967D03*
X015249Y013927D03*
D160*
X015249Y013917D03*
X014059Y011977D03*
D161*
X014054Y011987D03*
D162*
X014054Y011997D03*
X015254Y013897D03*
D163*
X014049Y012007D03*
D164*
X014044Y012017D03*
X015254Y013887D03*
X017324Y014187D03*
D165*
X017324Y014177D03*
X015254Y013877D03*
X014044Y012027D03*
D166*
X015259Y013867D03*
D167*
X015249Y013907D03*
X017319Y014197D03*
D168*
X015244Y013937D03*
D169*
X015249Y013967D03*
X015249Y013977D03*
D170*
X015254Y013987D03*
X015264Y013997D03*
D171*
X017314Y014207D03*
D172*
X017299Y014237D03*
D173*
X017284Y014247D03*
D174*
X017274Y014257D03*
D175*
X017259Y014267D03*
X017089Y014767D03*
X017089Y014777D03*
D176*
X016939Y014277D03*
D177*
X016944Y014287D03*
X016974Y014387D03*
D178*
X016949Y014297D03*
D179*
X016954Y014307D03*
X016974Y014377D03*
D180*
X016969Y014367D03*
X016959Y014317D03*
D181*
X016964Y014327D03*
X016974Y014357D03*
D182*
X016969Y014337D03*
D183*
X016974Y014347D03*
D184*
X016984Y014397D03*
D185*
X017099Y014407D03*
D186*
X017104Y014417D03*
D187*
X017114Y014427D03*
D188*
X017124Y014437D03*
D189*
X017144Y014557D03*
X017144Y014567D03*
D190*
X017139Y014577D03*
D191*
X017144Y014587D03*
D192*
X017139Y014597D03*
X017139Y014607D03*
D193*
X017134Y014617D03*
D194*
X017124Y014647D03*
D195*
X017119Y014657D03*
X017119Y014667D03*
D196*
X017114Y014677D03*
X017114Y014687D03*
D197*
X017109Y014697D03*
X017109Y014707D03*
D198*
X017104Y014717D03*
X017104Y014727D03*
D199*
X017099Y014737D03*
D200*
X017094Y014747D03*
X017094Y014757D03*
D201*
X017084Y014787D03*
M02*
