G75*
G70*
%OFA0B0*%
%FSLAX24Y24*%
%IPPOS*%
%LPD*%
%AMOC8*
5,1,8,0,0,1.08239X$1,22.5*
%
%ADD10C,0.0720*%
%ADD11R,0.0720X0.0720*%
%ADD12OC8,0.0720*%
%ADD13R,0.0635X0.0635*%
%ADD14C,0.0635*%
%ADD15C,0.1340*%
%ADD16C,0.0580*%
D10*
X008705Y004671D02*
X008705Y005311D01*
X009705Y005311D02*
X009705Y004671D01*
X010705Y004671D02*
X010705Y005311D01*
X011705Y005311D02*
X011705Y004671D01*
X012705Y004671D02*
X012705Y005311D01*
X013705Y005311D02*
X013705Y004671D01*
X014705Y004671D02*
X014705Y005311D01*
X015705Y005311D02*
X015705Y004671D01*
X016705Y004671D02*
X016705Y005311D01*
X017705Y005311D02*
X017705Y004671D01*
X018705Y004671D02*
X018705Y005311D01*
X019705Y005311D02*
X019705Y004671D01*
X020705Y004671D02*
X020705Y005311D01*
X021705Y005311D02*
X021705Y004671D01*
X022705Y004671D02*
X022705Y005311D01*
X023705Y005311D02*
X023705Y004671D01*
X023612Y014228D02*
X022972Y014228D01*
X022292Y015908D02*
X022292Y016548D01*
X024292Y016548D02*
X024292Y015908D01*
X010119Y015908D02*
X010119Y016548D01*
X008119Y016548D02*
X008119Y015908D01*
X008799Y014228D02*
X009439Y014228D01*
D11*
X013705Y014728D03*
D12*
X014705Y014728D03*
X015705Y014728D03*
X016705Y014728D03*
X017705Y014728D03*
X018705Y014728D03*
X018705Y015728D03*
X017705Y015728D03*
X016705Y015728D03*
X015705Y015728D03*
X014705Y015728D03*
X013705Y015728D03*
D13*
X006363Y009700D03*
X024867Y011700D03*
X026442Y011700D03*
D14*
X026442Y010700D03*
X026442Y009700D03*
X024867Y009700D03*
X024867Y010700D03*
X006363Y010700D03*
X006363Y011700D03*
D15*
X005969Y004991D03*
X005969Y016409D03*
X026442Y016409D03*
X026442Y004991D03*
D16*
X024079Y008535D03*
X015418Y010306D03*
X010694Y012866D03*
X011087Y016409D03*
M02*
