%
M48
M72
T01C0.0200
T02C0.0320
%
T01
X2431Y4885
X3431Y4885
X4681Y7385
X6431Y4635
X7181Y4635
X7931Y5135
X8181Y6885
X7181Y6885
X1431Y7385
T02
X1181Y12135
X1181Y14135
X1181Y16135
X1181Y18135
X1181Y20135
X3181Y20135
X4181Y20135
X4181Y19135
X4181Y18135
X4181Y17135
X4181Y16135
X4181Y15135
X4181Y14135
X4181Y13135
X4181Y12135
X4181Y11135
X3181Y12135
X3181Y14135
X3181Y16135
X3181Y18135
X7181Y18135
X7181Y19135
X7181Y20135
X8181Y20135
X8181Y18135
X8181Y16135
X8181Y14135
X8181Y12135
X7181Y12135
X7181Y13135
X7181Y14135
X7181Y15135
X7181Y16135
X7181Y17135
X7181Y11135
X10181Y12135
X10181Y14135
X10181Y16135
X10181Y18135
X10181Y20135
X9931Y4885
X8931Y4885
X5431Y4885
X4431Y4885
M30
