G04 EAGLE Gerber RS-274X export*
G75*
%MOMM*%
%FSLAX34Y34*%
%LPD*%
%INSoldermask Bottom*%
%IPPOS*%
%AMOC8*
5,1,8,0,0,1.08239X$1,22.5*%
G01*
%ADD10R,1.625600X6.578600*%
%ADD11C,1.422400*%
%ADD12P,1.759533X8X22.500000*%
%ADD13R,1.625600X1.625600*%
%ADD14P,1.759533X8X292.500000*%
%ADD15C,5.943600*%
%ADD16P,1.759533X8X202.500000*%


D10*
X787400Y50800D03*
X762000Y50800D03*
X736600Y50800D03*
X711200Y50800D03*
X685800Y50800D03*
X660400Y50800D03*
X635000Y50800D03*
X609600Y50800D03*
X584200Y50800D03*
X558800Y50800D03*
X533400Y50800D03*
X508000Y50800D03*
X482600Y50800D03*
X457200Y50800D03*
X431800Y50800D03*
X406400Y50800D03*
X381000Y50800D03*
X355600Y50800D03*
X330200Y50800D03*
X304800Y50800D03*
X279400Y50800D03*
X254000Y50800D03*
X228600Y50800D03*
X203200Y50800D03*
X177800Y50800D03*
X152400Y50800D03*
X127000Y50800D03*
X101600Y50800D03*
X76200Y50800D03*
X50800Y50800D03*
X25400Y50800D03*
D11*
X114300Y393446D02*
X114300Y406654D01*
X139700Y406654D02*
X139700Y393446D01*
X165100Y393446D02*
X165100Y406654D01*
X190500Y406654D02*
X190500Y393446D01*
X215900Y393446D02*
X215900Y406654D01*
X241300Y406654D02*
X241300Y393446D01*
X266700Y393446D02*
X266700Y406654D01*
X292100Y406654D02*
X292100Y393446D01*
X317500Y393446D02*
X317500Y406654D01*
X342900Y406654D02*
X342900Y393446D01*
X368300Y393446D02*
X368300Y406654D01*
X393700Y406654D02*
X393700Y393446D01*
X419100Y393446D02*
X419100Y406654D01*
X444500Y406654D02*
X444500Y393446D01*
X444500Y545846D02*
X444500Y559054D01*
X419100Y559054D02*
X419100Y545846D01*
X393700Y545846D02*
X393700Y559054D01*
X368300Y559054D02*
X368300Y545846D01*
X342900Y545846D02*
X342900Y559054D01*
X317500Y559054D02*
X317500Y545846D01*
X292100Y545846D02*
X292100Y559054D01*
X266700Y559054D02*
X266700Y545846D01*
X241300Y545846D02*
X241300Y559054D01*
X215900Y559054D02*
X215900Y545846D01*
X190500Y545846D02*
X190500Y559054D01*
X165100Y559054D02*
X165100Y545846D01*
X139700Y545846D02*
X139700Y559054D01*
X114300Y559054D02*
X114300Y545846D01*
D12*
X381000Y711200D03*
X406400Y711200D03*
X431800Y711200D03*
X457200Y711200D03*
X482600Y711200D03*
X508000Y711200D03*
X381000Y736600D03*
X406400Y736600D03*
X431800Y736600D03*
X457200Y736600D03*
X482600Y736600D03*
X508000Y736600D03*
X533400Y711200D03*
X533400Y736600D03*
X558800Y711200D03*
X584200Y711200D03*
X609600Y711200D03*
X635000Y711200D03*
X660400Y711200D03*
X685800Y711200D03*
X558800Y736600D03*
X584200Y736600D03*
X609600Y736600D03*
X635000Y736600D03*
X660400Y736600D03*
X685800Y736600D03*
X711200Y711200D03*
X711200Y736600D03*
X736600Y711200D03*
X762000Y711200D03*
X787400Y711200D03*
X812800Y711200D03*
X838200Y711200D03*
X863600Y711200D03*
X736600Y736600D03*
X762000Y736600D03*
X787400Y736600D03*
X812800Y736600D03*
X838200Y736600D03*
X863600Y736600D03*
D11*
X832104Y552450D02*
X818896Y552450D01*
X818896Y527050D02*
X832104Y527050D01*
X832104Y400050D02*
X818896Y400050D01*
X818896Y374650D02*
X832104Y374650D01*
X832104Y501650D02*
X818896Y501650D01*
X818896Y476250D02*
X832104Y476250D01*
X832104Y425450D02*
X818896Y425450D01*
X818896Y450850D02*
X832104Y450850D01*
X895096Y374650D02*
X908304Y374650D01*
X908304Y400050D02*
X895096Y400050D01*
X895096Y425450D02*
X908304Y425450D01*
X908304Y450850D02*
X895096Y450850D01*
X895096Y476250D02*
X908304Y476250D01*
X908304Y501650D02*
X895096Y501650D01*
X895096Y527050D02*
X908304Y527050D01*
X908304Y552450D02*
X895096Y552450D01*
D13*
X711200Y336550D03*
D14*
X711200Y311150D03*
D13*
X139700Y596900D03*
D12*
X165100Y596900D03*
D13*
X368300Y349250D03*
D14*
X393700Y349250D03*
X368300Y323850D03*
X393700Y323850D03*
X368300Y298450D03*
X393700Y298450D03*
X368300Y273050D03*
X393700Y273050D03*
X368300Y247650D03*
X393700Y247650D03*
D13*
X863600Y292100D03*
D14*
X863600Y266700D03*
X863600Y241300D03*
X863600Y215900D03*
X863600Y190500D03*
X863600Y165100D03*
D15*
X1003300Y127000D03*
X1003300Y698500D03*
D13*
X952500Y609600D03*
D16*
X927100Y609600D03*
M02*
