G04 EAGLE Gerber RS-274X export*
G75*
%MOMM*%
%FSLAX34Y34*%
%LPD*%
%INTop Copper*%
%IPPOS*%
%AMOC8*
5,1,8,0,0,1.08239X$1,22.5*%
G01*
%ADD10C,2.540000*%
%ADD11C,0.609600*%
%ADD12C,0.812800*%
%ADD13C,0.406400*%
%ADD14C,0.304800*%


D10*
X444100Y33600D02*
X444100Y38500D01*
X355600Y127000D01*
X342900Y127000D01*
D11*
X787400Y80900D02*
X787400Y59300D01*
X787400Y80900D02*
X779400Y88900D01*
D10*
X342900Y558800D02*
X342900Y584200D01*
X393700Y635000D01*
X419100Y635000D01*
X266300Y102000D02*
X266300Y33600D01*
X266300Y102000D02*
X241300Y127000D01*
D11*
X736600Y80900D02*
X736600Y59300D01*
X736600Y80900D02*
X728600Y88900D01*
D10*
X241300Y558800D02*
X241300Y635000D01*
X88500Y75800D02*
X88500Y33600D01*
X88500Y75800D02*
X139700Y127000D01*
D11*
X685800Y80900D02*
X685800Y59300D01*
X685800Y80900D02*
X677800Y88900D01*
D10*
X139700Y558800D02*
X139700Y584200D01*
X88900Y635000D01*
X63500Y635000D01*
D12*
X525400Y334900D02*
X525400Y88900D01*
X800100Y419100D02*
X800100Y435938D01*
D13*
X800038Y436000D01*
D12*
X647638Y474100D02*
X647638Y393763D01*
X647700Y393700D02*
X774700Y393700D01*
X800100Y419100D01*
D13*
X647700Y393700D02*
X647638Y393763D01*
D12*
X561500Y708500D02*
X520700Y708500D01*
X561500Y708500D02*
X584200Y685800D01*
X584200Y393700D01*
X525400Y334900D01*
X584263Y393763D02*
X647638Y393763D01*
X584263Y393763D02*
X584200Y393700D01*
D14*
X673038Y419100D02*
X673038Y436000D01*
X698438Y436000D02*
X698438Y419100D01*
X723838Y419100D02*
X723838Y436000D01*
X749238Y436000D02*
X749238Y419100D01*
X774638Y419100D02*
X774638Y436000D01*
D13*
X558800Y541900D02*
X558800Y569340D01*
X560960Y571500D01*
X603300Y56900D02*
X603300Y-6100D01*
X622300Y75900D02*
X622300Y190500D01*
X622300Y75900D02*
X603300Y56900D01*
D12*
X444500Y736600D02*
X444500Y737800D01*
X444500Y736600D02*
X469900Y736600D01*
X266700Y736600D02*
X266700Y737800D01*
X266700Y736600D02*
X292100Y736600D01*
X88900Y736600D02*
X88900Y737800D01*
X88900Y736600D02*
X114300Y736600D01*
D13*
X558800Y524900D02*
X558800Y508000D01*
X800038Y463550D02*
X800038Y453000D01*
X800038Y463550D02*
X800038Y474100D01*
X800038Y466700D02*
X800038Y463550D01*
X801638Y454600D02*
X800038Y453000D01*
D14*
X774638Y463550D02*
X774638Y474100D01*
X774638Y463550D02*
X774638Y453000D01*
X749238Y463550D02*
X749238Y474100D01*
X749238Y463550D02*
X749238Y453000D01*
X723838Y463550D02*
X723838Y474100D01*
X723838Y463550D02*
X723838Y453000D01*
X698438Y463550D02*
X698438Y474100D01*
X698438Y463550D02*
X698438Y453000D01*
X673038Y463550D02*
X673038Y474100D01*
X673038Y463550D02*
X673038Y453000D01*
D13*
X647638Y491100D02*
X647638Y529438D01*
X648400Y530200D01*
X512200Y596900D02*
X512200Y613800D01*
X523900Y625500D01*
X531700Y625500D01*
D12*
X509700Y635000D02*
X509700Y677500D01*
X520700Y688500D01*
D13*
X535560Y590540D02*
X535560Y571500D01*
X535560Y590540D02*
X529200Y596900D01*
M02*
