G75*
G70*
%OFA0B0*%
%FSLAX24Y24*%
%IPPOS*%
%LPD*%
%AMOC8*
5,1,8,0,0,1.08239X$1,22.5*
%
%ADD10R,0.0394X0.0433*%
%ADD11R,0.0315X0.0315*%
%ADD12R,0.0433X0.0394*%
%ADD13R,0.0630X0.0551*%
%ADD14R,0.0701X0.0402*%
%ADD15R,0.0551X0.0630*%
%ADD16R,0.0354X0.0138*%
%ADD17R,0.0453X0.0173*%
%ADD18R,0.0453X0.0248*%
%ADD19R,0.0550X0.0137*%
%ADD20R,0.0472X0.0217*%
%ADD21R,0.0640X0.0640*%
%ADD22OC8,0.0640*%
%ADD23C,0.0000*%
%ADD24R,0.0512X0.0571*%
%ADD25R,0.0748X0.0748*%
%ADD26R,0.0531X0.0157*%
%ADD27C,0.0160*%
%ADD28C,0.0120*%
%ADD29C,0.0100*%
%ADD30C,0.0400*%
%ADD31C,0.0450*%
%ADD32C,0.0500*%
%ADD33C,0.0320*%
%ADD34C,0.0200*%
%ADD35C,0.0240*%
D10*
X012647Y007633D03*
X013317Y007633D03*
X009082Y010798D03*
X009082Y011467D03*
X005894Y014906D03*
X005894Y015576D03*
X007997Y018199D03*
X008666Y018199D03*
X011934Y018199D03*
X012603Y018199D03*
X015871Y018199D03*
X016540Y018199D03*
X019808Y018199D03*
X020477Y018199D03*
X018782Y015576D03*
X018782Y014906D03*
X017582Y014906D03*
X017582Y015576D03*
X014394Y015576D03*
X014394Y014906D03*
X020247Y010195D03*
X020917Y010195D03*
D11*
X021816Y018199D03*
X022406Y018199D03*
X018469Y018199D03*
X017879Y018199D03*
X014532Y018199D03*
X013942Y018199D03*
X010595Y018199D03*
X010005Y018199D03*
D12*
X014147Y008341D03*
X014817Y008341D03*
X011767Y007633D03*
X011097Y007633D03*
X010317Y007633D03*
X009647Y007633D03*
X024022Y007258D03*
X024692Y007258D03*
D13*
X021173Y011283D03*
X019992Y011283D03*
D14*
X009394Y014891D03*
X009394Y015591D03*
D15*
X010894Y015832D03*
X010894Y014651D03*
X005930Y013159D03*
X005930Y010640D03*
D16*
X020431Y007600D03*
X020431Y007344D03*
X020431Y007089D03*
X020431Y006833D03*
X020431Y006577D03*
X020431Y006321D03*
X020431Y006065D03*
X022734Y006065D03*
X022734Y006321D03*
X022734Y006577D03*
X022734Y006833D03*
X022734Y007089D03*
X022734Y007344D03*
X022734Y007600D03*
D17*
X020966Y008725D03*
X020966Y009040D03*
X020198Y009040D03*
X020198Y008725D03*
X020198Y012725D03*
X020198Y013040D03*
X020966Y013040D03*
X020966Y012725D03*
X020966Y014725D03*
X020966Y015040D03*
X020198Y015040D03*
X020198Y014725D03*
D18*
X020198Y014373D03*
X020966Y014373D03*
X020966Y015392D03*
X020198Y015392D03*
X020198Y013392D03*
X020966Y013392D03*
X020966Y012373D03*
X020198Y012373D03*
X020198Y009392D03*
X020966Y009392D03*
X020966Y008373D03*
X020198Y008373D03*
D19*
X017671Y009119D03*
X017671Y009375D03*
X017671Y009631D03*
X017671Y009887D03*
X017671Y010143D03*
X017671Y010399D03*
X017671Y010655D03*
X017671Y010911D03*
X017671Y011166D03*
X017671Y011422D03*
X017671Y011678D03*
X017671Y011934D03*
X017671Y012190D03*
X017671Y012446D03*
X014793Y012446D03*
X014793Y012190D03*
X014793Y011934D03*
X014793Y011678D03*
X014793Y011422D03*
X014793Y011166D03*
X014793Y010911D03*
X014793Y010655D03*
X014793Y010399D03*
X014793Y010143D03*
X014793Y009887D03*
X014793Y009631D03*
X014793Y009375D03*
X014793Y009119D03*
X012721Y009119D03*
X012721Y009375D03*
X012721Y009631D03*
X012721Y009887D03*
X012721Y010143D03*
X012721Y010399D03*
X012721Y010655D03*
X012721Y010911D03*
X012721Y011166D03*
X012721Y011422D03*
X012721Y011678D03*
X012721Y011934D03*
X012721Y012190D03*
X012721Y012446D03*
X009843Y012446D03*
X009843Y012190D03*
X009843Y011934D03*
X009843Y011678D03*
X009843Y011422D03*
X009843Y011166D03*
X009843Y010911D03*
X009843Y010655D03*
X009843Y010399D03*
X009843Y010143D03*
X009843Y009887D03*
X009843Y009631D03*
X009843Y009375D03*
X009843Y009119D03*
D20*
X008406Y014867D03*
X008406Y015241D03*
X008406Y015615D03*
X007383Y015615D03*
X007383Y014867D03*
X011970Y014867D03*
X011970Y015241D03*
X011970Y015615D03*
X012994Y015615D03*
X012994Y014867D03*
X015694Y014867D03*
X015694Y015241D03*
X015694Y015615D03*
X016717Y015615D03*
X016717Y014867D03*
D21*
X025170Y009900D03*
X014205Y005994D03*
D22*
X015205Y005994D03*
X016205Y005994D03*
X017205Y005994D03*
X018205Y005994D03*
X024170Y009900D03*
X024170Y010900D03*
X025170Y010900D03*
X025170Y011900D03*
X024170Y011900D03*
X024170Y012900D03*
X025170Y012900D03*
X025170Y013900D03*
X024170Y013900D03*
D23*
X026442Y004616D02*
X005969Y004616D01*
X005892Y004618D01*
X005815Y004624D01*
X005738Y004633D01*
X005662Y004646D01*
X005586Y004663D01*
X005512Y004684D01*
X005438Y004708D01*
X005366Y004736D01*
X005296Y004767D01*
X005227Y004802D01*
X005159Y004840D01*
X005094Y004881D01*
X005031Y004926D01*
X004970Y004974D01*
X004911Y005024D01*
X004855Y005077D01*
X004802Y005133D01*
X004752Y005192D01*
X004704Y005253D01*
X004659Y005316D01*
X004618Y005381D01*
X004580Y005449D01*
X004545Y005518D01*
X004514Y005588D01*
X004486Y005660D01*
X004462Y005734D01*
X004441Y005808D01*
X004424Y005884D01*
X004411Y005960D01*
X004402Y006037D01*
X004396Y006114D01*
X004394Y006191D01*
X004394Y017608D01*
X004396Y017685D01*
X004402Y017762D01*
X004411Y017839D01*
X004424Y017915D01*
X004441Y017991D01*
X004462Y018065D01*
X004486Y018139D01*
X004514Y018211D01*
X004545Y018281D01*
X004580Y018350D01*
X004618Y018418D01*
X004659Y018483D01*
X004704Y018546D01*
X004752Y018607D01*
X004802Y018666D01*
X004855Y018722D01*
X004911Y018775D01*
X004970Y018825D01*
X005031Y018873D01*
X005094Y018918D01*
X005159Y018959D01*
X005227Y018997D01*
X005296Y019032D01*
X005366Y019063D01*
X005438Y019091D01*
X005512Y019115D01*
X005586Y019136D01*
X005662Y019153D01*
X005738Y019166D01*
X005815Y019175D01*
X005892Y019181D01*
X005969Y019183D01*
X026442Y019183D01*
X026519Y019181D01*
X026596Y019175D01*
X026673Y019166D01*
X026749Y019153D01*
X026825Y019136D01*
X026899Y019115D01*
X026973Y019091D01*
X027045Y019063D01*
X027115Y019032D01*
X027184Y018997D01*
X027252Y018959D01*
X027317Y018918D01*
X027380Y018873D01*
X027441Y018825D01*
X027500Y018775D01*
X027556Y018722D01*
X027609Y018666D01*
X027659Y018607D01*
X027707Y018546D01*
X027752Y018483D01*
X027793Y018418D01*
X027831Y018350D01*
X027866Y018281D01*
X027897Y018211D01*
X027925Y018139D01*
X027949Y018065D01*
X027970Y017991D01*
X027987Y017915D01*
X028000Y017839D01*
X028009Y017762D01*
X028015Y017685D01*
X028017Y017608D01*
X028016Y017608D02*
X028016Y006191D01*
X028017Y006191D02*
X028015Y006114D01*
X028009Y006037D01*
X028000Y005960D01*
X027987Y005884D01*
X027970Y005808D01*
X027949Y005734D01*
X027925Y005660D01*
X027897Y005588D01*
X027866Y005518D01*
X027831Y005449D01*
X027793Y005381D01*
X027752Y005316D01*
X027707Y005253D01*
X027659Y005192D01*
X027609Y005133D01*
X027556Y005077D01*
X027500Y005024D01*
X027441Y004974D01*
X027380Y004926D01*
X027317Y004881D01*
X027252Y004840D01*
X027184Y004802D01*
X027115Y004767D01*
X027045Y004736D01*
X026973Y004708D01*
X026899Y004684D01*
X026825Y004663D01*
X026749Y004646D01*
X026673Y004633D01*
X026596Y004624D01*
X026519Y004618D01*
X026442Y004616D01*
X026519Y004618D01*
X026596Y004624D01*
X026673Y004633D01*
X026749Y004646D01*
X026825Y004663D01*
X026899Y004684D01*
X026973Y004708D01*
X027045Y004736D01*
X027115Y004767D01*
X027184Y004802D01*
X027252Y004840D01*
X027317Y004881D01*
X027380Y004926D01*
X027441Y004974D01*
X027500Y005024D01*
X027556Y005077D01*
X027609Y005133D01*
X027659Y005192D01*
X027707Y005253D01*
X027752Y005316D01*
X027793Y005381D01*
X027831Y005449D01*
X027866Y005518D01*
X027897Y005588D01*
X027925Y005660D01*
X027949Y005734D01*
X027970Y005808D01*
X027987Y005884D01*
X028000Y005960D01*
X028009Y006037D01*
X028015Y006114D01*
X028017Y006191D01*
X025812Y006191D02*
X025814Y006241D01*
X025820Y006291D01*
X025830Y006340D01*
X025844Y006388D01*
X025861Y006435D01*
X025882Y006480D01*
X025907Y006524D01*
X025935Y006565D01*
X025967Y006604D01*
X026001Y006641D01*
X026038Y006675D01*
X026078Y006705D01*
X026120Y006732D01*
X026164Y006756D01*
X026210Y006777D01*
X026257Y006793D01*
X026305Y006806D01*
X026355Y006815D01*
X026404Y006820D01*
X026455Y006821D01*
X026505Y006818D01*
X026554Y006811D01*
X026603Y006800D01*
X026651Y006785D01*
X026697Y006767D01*
X026742Y006745D01*
X026785Y006719D01*
X026826Y006690D01*
X026865Y006658D01*
X026901Y006623D01*
X026933Y006585D01*
X026963Y006545D01*
X026990Y006502D01*
X027013Y006458D01*
X027032Y006412D01*
X027048Y006364D01*
X027060Y006315D01*
X027068Y006266D01*
X027072Y006216D01*
X027072Y006166D01*
X027068Y006116D01*
X027060Y006067D01*
X027048Y006018D01*
X027032Y005970D01*
X027013Y005924D01*
X026990Y005880D01*
X026963Y005837D01*
X026933Y005797D01*
X026901Y005759D01*
X026865Y005724D01*
X026826Y005692D01*
X026785Y005663D01*
X026742Y005637D01*
X026697Y005615D01*
X026651Y005597D01*
X026603Y005582D01*
X026554Y005571D01*
X026505Y005564D01*
X026455Y005561D01*
X026404Y005562D01*
X026355Y005567D01*
X026305Y005576D01*
X026257Y005589D01*
X026210Y005605D01*
X026164Y005626D01*
X026120Y005650D01*
X026078Y005677D01*
X026038Y005707D01*
X026001Y005741D01*
X025967Y005778D01*
X025935Y005817D01*
X025907Y005858D01*
X025882Y005902D01*
X025861Y005947D01*
X025844Y005994D01*
X025830Y006042D01*
X025820Y006091D01*
X025814Y006141D01*
X025812Y006191D01*
X005969Y004616D02*
X005892Y004618D01*
X005815Y004624D01*
X005738Y004633D01*
X005662Y004646D01*
X005586Y004663D01*
X005512Y004684D01*
X005438Y004708D01*
X005366Y004736D01*
X005296Y004767D01*
X005227Y004802D01*
X005159Y004840D01*
X005094Y004881D01*
X005031Y004926D01*
X004970Y004974D01*
X004911Y005024D01*
X004855Y005077D01*
X004802Y005133D01*
X004752Y005192D01*
X004704Y005253D01*
X004659Y005316D01*
X004618Y005381D01*
X004580Y005449D01*
X004545Y005518D01*
X004514Y005588D01*
X004486Y005660D01*
X004462Y005734D01*
X004441Y005808D01*
X004424Y005884D01*
X004411Y005960D01*
X004402Y006037D01*
X004396Y006114D01*
X004394Y006191D01*
X005339Y006191D02*
X005341Y006241D01*
X005347Y006291D01*
X005357Y006340D01*
X005371Y006388D01*
X005388Y006435D01*
X005409Y006480D01*
X005434Y006524D01*
X005462Y006565D01*
X005494Y006604D01*
X005528Y006641D01*
X005565Y006675D01*
X005605Y006705D01*
X005647Y006732D01*
X005691Y006756D01*
X005737Y006777D01*
X005784Y006793D01*
X005832Y006806D01*
X005882Y006815D01*
X005931Y006820D01*
X005982Y006821D01*
X006032Y006818D01*
X006081Y006811D01*
X006130Y006800D01*
X006178Y006785D01*
X006224Y006767D01*
X006269Y006745D01*
X006312Y006719D01*
X006353Y006690D01*
X006392Y006658D01*
X006428Y006623D01*
X006460Y006585D01*
X006490Y006545D01*
X006517Y006502D01*
X006540Y006458D01*
X006559Y006412D01*
X006575Y006364D01*
X006587Y006315D01*
X006595Y006266D01*
X006599Y006216D01*
X006599Y006166D01*
X006595Y006116D01*
X006587Y006067D01*
X006575Y006018D01*
X006559Y005970D01*
X006540Y005924D01*
X006517Y005880D01*
X006490Y005837D01*
X006460Y005797D01*
X006428Y005759D01*
X006392Y005724D01*
X006353Y005692D01*
X006312Y005663D01*
X006269Y005637D01*
X006224Y005615D01*
X006178Y005597D01*
X006130Y005582D01*
X006081Y005571D01*
X006032Y005564D01*
X005982Y005561D01*
X005931Y005562D01*
X005882Y005567D01*
X005832Y005576D01*
X005784Y005589D01*
X005737Y005605D01*
X005691Y005626D01*
X005647Y005650D01*
X005605Y005677D01*
X005565Y005707D01*
X005528Y005741D01*
X005494Y005778D01*
X005462Y005817D01*
X005434Y005858D01*
X005409Y005902D01*
X005388Y005947D01*
X005371Y005994D01*
X005357Y006042D01*
X005347Y006091D01*
X005341Y006141D01*
X005339Y006191D01*
X004394Y017608D02*
X004396Y017685D01*
X004402Y017762D01*
X004411Y017839D01*
X004424Y017915D01*
X004441Y017991D01*
X004462Y018065D01*
X004486Y018139D01*
X004514Y018211D01*
X004545Y018281D01*
X004580Y018350D01*
X004618Y018418D01*
X004659Y018483D01*
X004704Y018546D01*
X004752Y018607D01*
X004802Y018666D01*
X004855Y018722D01*
X004911Y018775D01*
X004970Y018825D01*
X005031Y018873D01*
X005094Y018918D01*
X005159Y018959D01*
X005227Y018997D01*
X005296Y019032D01*
X005366Y019063D01*
X005438Y019091D01*
X005512Y019115D01*
X005586Y019136D01*
X005662Y019153D01*
X005738Y019166D01*
X005815Y019175D01*
X005892Y019181D01*
X005969Y019183D01*
X005339Y017608D02*
X005341Y017658D01*
X005347Y017708D01*
X005357Y017757D01*
X005371Y017805D01*
X005388Y017852D01*
X005409Y017897D01*
X005434Y017941D01*
X005462Y017982D01*
X005494Y018021D01*
X005528Y018058D01*
X005565Y018092D01*
X005605Y018122D01*
X005647Y018149D01*
X005691Y018173D01*
X005737Y018194D01*
X005784Y018210D01*
X005832Y018223D01*
X005882Y018232D01*
X005931Y018237D01*
X005982Y018238D01*
X006032Y018235D01*
X006081Y018228D01*
X006130Y018217D01*
X006178Y018202D01*
X006224Y018184D01*
X006269Y018162D01*
X006312Y018136D01*
X006353Y018107D01*
X006392Y018075D01*
X006428Y018040D01*
X006460Y018002D01*
X006490Y017962D01*
X006517Y017919D01*
X006540Y017875D01*
X006559Y017829D01*
X006575Y017781D01*
X006587Y017732D01*
X006595Y017683D01*
X006599Y017633D01*
X006599Y017583D01*
X006595Y017533D01*
X006587Y017484D01*
X006575Y017435D01*
X006559Y017387D01*
X006540Y017341D01*
X006517Y017297D01*
X006490Y017254D01*
X006460Y017214D01*
X006428Y017176D01*
X006392Y017141D01*
X006353Y017109D01*
X006312Y017080D01*
X006269Y017054D01*
X006224Y017032D01*
X006178Y017014D01*
X006130Y016999D01*
X006081Y016988D01*
X006032Y016981D01*
X005982Y016978D01*
X005931Y016979D01*
X005882Y016984D01*
X005832Y016993D01*
X005784Y017006D01*
X005737Y017022D01*
X005691Y017043D01*
X005647Y017067D01*
X005605Y017094D01*
X005565Y017124D01*
X005528Y017158D01*
X005494Y017195D01*
X005462Y017234D01*
X005434Y017275D01*
X005409Y017319D01*
X005388Y017364D01*
X005371Y017411D01*
X005357Y017459D01*
X005347Y017508D01*
X005341Y017558D01*
X005339Y017608D01*
X026442Y019183D02*
X026519Y019181D01*
X026596Y019175D01*
X026673Y019166D01*
X026749Y019153D01*
X026825Y019136D01*
X026899Y019115D01*
X026973Y019091D01*
X027045Y019063D01*
X027115Y019032D01*
X027184Y018997D01*
X027252Y018959D01*
X027317Y018918D01*
X027380Y018873D01*
X027441Y018825D01*
X027500Y018775D01*
X027556Y018722D01*
X027609Y018666D01*
X027659Y018607D01*
X027707Y018546D01*
X027752Y018483D01*
X027793Y018418D01*
X027831Y018350D01*
X027866Y018281D01*
X027897Y018211D01*
X027925Y018139D01*
X027949Y018065D01*
X027970Y017991D01*
X027987Y017915D01*
X028000Y017839D01*
X028009Y017762D01*
X028015Y017685D01*
X028017Y017608D01*
X025812Y017608D02*
X025814Y017658D01*
X025820Y017708D01*
X025830Y017757D01*
X025844Y017805D01*
X025861Y017852D01*
X025882Y017897D01*
X025907Y017941D01*
X025935Y017982D01*
X025967Y018021D01*
X026001Y018058D01*
X026038Y018092D01*
X026078Y018122D01*
X026120Y018149D01*
X026164Y018173D01*
X026210Y018194D01*
X026257Y018210D01*
X026305Y018223D01*
X026355Y018232D01*
X026404Y018237D01*
X026455Y018238D01*
X026505Y018235D01*
X026554Y018228D01*
X026603Y018217D01*
X026651Y018202D01*
X026697Y018184D01*
X026742Y018162D01*
X026785Y018136D01*
X026826Y018107D01*
X026865Y018075D01*
X026901Y018040D01*
X026933Y018002D01*
X026963Y017962D01*
X026990Y017919D01*
X027013Y017875D01*
X027032Y017829D01*
X027048Y017781D01*
X027060Y017732D01*
X027068Y017683D01*
X027072Y017633D01*
X027072Y017583D01*
X027068Y017533D01*
X027060Y017484D01*
X027048Y017435D01*
X027032Y017387D01*
X027013Y017341D01*
X026990Y017297D01*
X026963Y017254D01*
X026933Y017214D01*
X026901Y017176D01*
X026865Y017141D01*
X026826Y017109D01*
X026785Y017080D01*
X026742Y017054D01*
X026697Y017032D01*
X026651Y017014D01*
X026603Y016999D01*
X026554Y016988D01*
X026505Y016981D01*
X026455Y016978D01*
X026404Y016979D01*
X026355Y016984D01*
X026305Y016993D01*
X026257Y017006D01*
X026210Y017022D01*
X026164Y017043D01*
X026120Y017067D01*
X026078Y017094D01*
X026038Y017124D01*
X026001Y017158D01*
X025967Y017195D01*
X025935Y017234D01*
X025907Y017275D01*
X025882Y017319D01*
X025861Y017364D01*
X025844Y017411D01*
X025830Y017459D01*
X025820Y017508D01*
X025814Y017558D01*
X025812Y017608D01*
D24*
X004965Y013248D03*
X004965Y010551D03*
D25*
X004965Y011427D03*
X004965Y012372D03*
D26*
X006018Y012411D03*
X006018Y012155D03*
X006018Y011900D03*
X006018Y011644D03*
X006018Y011388D03*
D27*
X006389Y011387D02*
X006390Y011388D01*
X006464Y011388D01*
X006464Y011462D01*
X006484Y011482D01*
X006484Y011640D01*
X008251Y011640D01*
X008355Y011640D01*
X008450Y011679D01*
X009368Y012597D01*
X009368Y012295D01*
X009368Y012194D01*
X009235Y012194D01*
X009132Y012194D01*
X009036Y012155D01*
X008935Y012053D01*
X008862Y011980D01*
X008822Y011884D01*
X008802Y011884D01*
X008685Y011767D01*
X008685Y011168D01*
X008736Y011117D01*
X008718Y011084D01*
X008705Y011038D01*
X008705Y010816D01*
X009063Y010816D01*
X009063Y010779D01*
X008705Y010779D01*
X008705Y010558D01*
X008718Y010512D01*
X008741Y010471D01*
X008775Y010437D01*
X008816Y010414D01*
X008862Y010401D01*
X009064Y010401D01*
X009064Y010779D01*
X009101Y010779D01*
X009101Y010401D01*
X009303Y010401D01*
X009348Y010414D01*
X009368Y010425D01*
X009368Y010247D01*
X009368Y009991D01*
X009388Y009971D01*
X009388Y009887D01*
X009472Y009887D01*
X009473Y009887D01*
X009388Y009887D01*
X009388Y009795D01*
X009397Y009759D01*
X009388Y009723D01*
X009388Y009631D01*
X009388Y009546D01*
X009368Y009526D01*
X009368Y009224D01*
X009368Y008968D01*
X009485Y008851D01*
X010154Y008851D01*
X010095Y008791D01*
X010052Y008688D01*
X010052Y008668D01*
X009993Y008609D01*
X009932Y008462D01*
X009932Y008303D01*
X009993Y008156D01*
X010052Y008097D01*
X010052Y008029D01*
X010017Y008029D01*
X009966Y007978D01*
X009933Y007997D01*
X009888Y008009D01*
X009666Y008009D01*
X009666Y007651D01*
X009629Y007651D01*
X009629Y007614D01*
X009666Y007614D01*
X009666Y007256D01*
X009888Y007256D01*
X009933Y007268D01*
X009966Y007287D01*
X010017Y007236D01*
X010616Y007236D01*
X010725Y007345D01*
X010737Y007325D01*
X010770Y007292D01*
X010811Y007268D01*
X010857Y007256D01*
X011079Y007256D01*
X011079Y007614D01*
X011116Y007614D01*
X011116Y007256D01*
X011338Y007256D01*
X011383Y007268D01*
X011416Y007287D01*
X011467Y007236D01*
X012066Y007236D01*
X012183Y007353D01*
X012183Y007383D01*
X012251Y007383D01*
X012251Y007333D01*
X012368Y007216D01*
X012927Y007216D01*
X012982Y007271D01*
X013037Y007216D01*
X013057Y007216D01*
X013057Y006443D01*
X013057Y006340D01*
X013096Y006244D01*
X013494Y005847D01*
X013567Y005774D01*
X013663Y005734D01*
X013685Y005734D01*
X013685Y005591D01*
X013802Y005474D01*
X014608Y005474D01*
X014725Y005591D01*
X014725Y005739D01*
X014990Y005474D01*
X015421Y005474D01*
X015719Y005773D01*
X015998Y005494D01*
X016185Y005494D01*
X016185Y005974D01*
X016225Y005974D01*
X016225Y005494D01*
X016412Y005494D01*
X016434Y005515D01*
X016434Y005490D01*
X016473Y005394D01*
X016650Y005217D01*
X016723Y005144D01*
X016819Y005104D01*
X017524Y005104D01*
X017627Y005104D01*
X017723Y005144D01*
X018053Y005474D01*
X018421Y005474D01*
X018725Y005779D01*
X018725Y006138D01*
X018763Y006100D01*
X018858Y006061D01*
X020073Y006061D01*
X020073Y005972D01*
X020086Y005926D01*
X020109Y005885D01*
X020143Y005852D01*
X020184Y005828D01*
X020230Y005816D01*
X020430Y005816D01*
X020430Y006052D01*
X020431Y006052D01*
X020431Y005816D01*
X020631Y005816D01*
X020677Y005828D01*
X020718Y005852D01*
X020752Y005885D01*
X020775Y005926D01*
X020788Y005972D01*
X020788Y006065D01*
X020788Y006149D01*
X020808Y006169D01*
X020808Y006323D01*
X020984Y006323D01*
X021079Y006362D01*
X021153Y006435D01*
X021258Y006541D01*
X021293Y006456D01*
X021406Y006344D01*
X021553Y006283D01*
X021712Y006283D01*
X021859Y006344D01*
X021872Y006357D01*
X021872Y006231D01*
X021912Y006135D01*
X021985Y006062D01*
X022203Y005844D01*
X022298Y005805D01*
X022402Y005805D01*
X022465Y005805D01*
X022474Y005796D01*
X022994Y005796D01*
X023111Y005913D01*
X023111Y006061D01*
X023319Y006061D01*
X023422Y006061D01*
X023518Y006100D01*
X023581Y006164D01*
X023693Y006164D01*
X023840Y006225D01*
X023952Y006337D01*
X024013Y006484D01*
X024013Y006643D01*
X023952Y006790D01*
X023882Y006861D01*
X024322Y006861D01*
X024373Y006912D01*
X024406Y006893D01*
X024451Y006881D01*
X024673Y006881D01*
X024673Y007239D01*
X024710Y007239D01*
X024710Y006881D01*
X024932Y006881D01*
X024978Y006893D01*
X025019Y006917D01*
X025052Y006950D01*
X025076Y006991D01*
X025088Y007037D01*
X025088Y007239D01*
X024710Y007239D01*
X024710Y007276D01*
X024673Y007276D01*
X024673Y007634D01*
X024451Y007634D01*
X024406Y007622D01*
X024373Y007603D01*
X024322Y007654D01*
X023993Y007654D01*
X023827Y007821D01*
X023731Y007860D01*
X023628Y007860D01*
X023427Y007860D01*
X023476Y007978D01*
X023476Y008137D01*
X023415Y008284D01*
X023303Y008397D01*
X023156Y008458D01*
X023045Y008458D01*
X023045Y008575D01*
X022984Y008722D01*
X022871Y008834D01*
X022724Y008895D01*
X022701Y008895D01*
X022701Y009043D01*
X022640Y009190D01*
X022528Y009303D01*
X022519Y009306D01*
X022576Y009443D01*
X022576Y009602D01*
X022515Y009749D01*
X022436Y009828D01*
X022436Y009949D01*
X022396Y010045D01*
X022323Y010118D01*
X022084Y010356D01*
X023599Y010356D01*
X023705Y010250D01*
X023745Y010210D01*
X023650Y010115D01*
X023650Y009684D01*
X023955Y009380D01*
X024385Y009380D01*
X024650Y009644D01*
X024650Y009497D01*
X024767Y009380D01*
X025573Y009380D01*
X025690Y009497D01*
X025690Y010302D01*
X025573Y010419D01*
X025425Y010419D01*
X025690Y010684D01*
X025690Y011115D01*
X025405Y011399D01*
X025690Y011684D01*
X025690Y012115D01*
X025405Y012399D01*
X025690Y012684D01*
X025690Y013115D01*
X025405Y013399D01*
X025690Y013684D01*
X025690Y014115D01*
X025385Y014419D01*
X024955Y014419D01*
X024656Y014121D01*
X024377Y014399D01*
X024190Y014399D01*
X024190Y013920D01*
X024150Y013920D01*
X024150Y014399D01*
X023963Y014399D01*
X023754Y014191D01*
X023754Y014688D01*
X023754Y016688D01*
X023699Y016820D01*
X023598Y016921D01*
X023332Y017188D01*
X023199Y017243D01*
X023056Y017243D01*
X022004Y017243D01*
X020068Y017243D01*
X020068Y017782D01*
X020087Y017782D01*
X020142Y017837D01*
X020197Y017782D01*
X020757Y017782D01*
X020867Y017893D01*
X020900Y017860D01*
X021047Y017799D01*
X021206Y017799D01*
X021353Y017860D01*
X021432Y017939D01*
X021478Y017939D01*
X021575Y017841D01*
X022056Y017841D01*
X022125Y017910D01*
X022138Y017897D01*
X022179Y017874D01*
X022225Y017861D01*
X022406Y017861D01*
X022406Y018198D01*
X022406Y018198D01*
X022406Y017861D01*
X022587Y017861D01*
X022633Y017874D01*
X022674Y017897D01*
X022708Y017931D01*
X022731Y017972D01*
X022744Y018018D01*
X022744Y018199D01*
X022744Y018380D01*
X022731Y018426D01*
X022708Y018467D01*
X022674Y018500D01*
X022633Y018524D01*
X022587Y018536D01*
X022406Y018536D01*
X022225Y018536D01*
X022179Y018524D01*
X022138Y018500D01*
X022125Y018487D01*
X022056Y018556D01*
X021575Y018556D01*
X021478Y018459D01*
X021432Y018459D01*
X021353Y018538D01*
X021206Y018599D01*
X021047Y018599D01*
X020900Y018538D01*
X020867Y018505D01*
X020757Y018615D01*
X020197Y018615D01*
X020142Y018560D01*
X020087Y018615D01*
X019528Y018615D01*
X019411Y018498D01*
X019411Y017899D01*
X019528Y017782D01*
X019548Y017782D01*
X019548Y017243D01*
X018060Y017243D01*
X017928Y017188D01*
X017827Y017086D01*
X017378Y016638D01*
X017277Y016536D01*
X017222Y016404D01*
X017222Y015975D01*
X016646Y015975D01*
X016521Y015923D01*
X016465Y015923D01*
X016465Y017660D01*
X016426Y017755D01*
X016399Y017782D01*
X016820Y017782D01*
X016930Y017893D01*
X016963Y017860D01*
X017110Y017799D01*
X017269Y017799D01*
X017416Y017860D01*
X017495Y017939D01*
X017541Y017939D01*
X017638Y017841D01*
X018119Y017841D01*
X018188Y017910D01*
X018201Y017897D01*
X018242Y017874D01*
X018288Y017861D01*
X018469Y017861D01*
X018469Y018198D01*
X018469Y018198D01*
X018469Y017861D01*
X018650Y017861D01*
X018696Y017874D01*
X018737Y017897D01*
X018771Y017931D01*
X018794Y017972D01*
X018807Y018018D01*
X018807Y018199D01*
X018807Y018380D01*
X018794Y018426D01*
X018771Y018467D01*
X018737Y018500D01*
X018696Y018524D01*
X018650Y018536D01*
X018469Y018536D01*
X018288Y018536D01*
X018242Y018524D01*
X018201Y018500D01*
X018188Y018487D01*
X018119Y018556D01*
X017638Y018556D01*
X017541Y018459D01*
X017495Y018459D01*
X017416Y018538D01*
X017269Y018599D01*
X017110Y018599D01*
X016963Y018538D01*
X016930Y018505D01*
X016820Y018615D01*
X016260Y018615D01*
X016205Y018560D01*
X016150Y018615D01*
X015591Y018615D01*
X015474Y018498D01*
X015474Y017899D01*
X015591Y017782D01*
X015664Y017782D01*
X015945Y017500D01*
X015945Y017058D01*
X015740Y017263D01*
X015667Y017336D01*
X015571Y017376D01*
X014372Y017376D01*
X014379Y017382D01*
X014816Y017820D01*
X014837Y017834D01*
X014852Y017856D01*
X014871Y017874D01*
X014881Y017898D01*
X014895Y017920D01*
X014900Y017946D01*
X014910Y017970D01*
X014910Y017996D01*
X014915Y018021D01*
X014910Y018047D01*
X014910Y018073D01*
X014900Y018097D01*
X014895Y018123D01*
X014890Y018131D01*
X014890Y018439D01*
X014772Y018556D01*
X014292Y018556D01*
X014237Y018501D01*
X014182Y018556D01*
X013701Y018556D01*
X013604Y018459D01*
X013558Y018459D01*
X013479Y018538D01*
X013332Y018599D01*
X013173Y018599D01*
X013026Y018538D01*
X012993Y018505D01*
X012883Y018615D01*
X012323Y018615D01*
X012268Y018560D01*
X012213Y018615D01*
X012138Y018615D01*
X011917Y018836D01*
X011821Y018876D01*
X011718Y018876D01*
X008196Y018876D01*
X008093Y018876D01*
X007997Y018836D01*
X007776Y018616D01*
X007776Y018615D01*
X007717Y018615D01*
X007600Y018498D01*
X007600Y017899D01*
X007717Y017782D01*
X007737Y017782D01*
X007737Y017326D01*
X006512Y016101D01*
X006472Y016006D01*
X006472Y015902D01*
X006472Y015834D01*
X006442Y015804D01*
X006291Y015804D01*
X006291Y015875D01*
X006174Y015992D01*
X005615Y015992D01*
X005497Y015875D01*
X005497Y015276D01*
X005549Y015225D01*
X005530Y015192D01*
X005517Y015147D01*
X005517Y014925D01*
X005876Y014925D01*
X005876Y014888D01*
X005913Y014888D01*
X005913Y014925D01*
X006271Y014925D01*
X006271Y015147D01*
X006267Y015164D01*
X006390Y015164D01*
X006407Y015146D01*
X006407Y014994D01*
X006453Y014884D01*
X006537Y014799D01*
X006723Y014613D01*
X006834Y014567D01*
X006953Y014567D01*
X007055Y014567D01*
X007063Y014559D01*
X007702Y014559D01*
X007819Y014676D01*
X007819Y015058D01*
X007702Y015175D01*
X007086Y015175D01*
X007114Y015203D01*
X007157Y015307D01*
X007702Y015307D01*
X007819Y015424D01*
X007819Y015806D01*
X007702Y015923D01*
X007069Y015923D01*
X008217Y017071D01*
X008257Y017167D01*
X008257Y017270D01*
X008257Y017782D01*
X008276Y017782D01*
X008331Y017837D01*
X008386Y017782D01*
X008946Y017782D01*
X009056Y017893D01*
X009089Y017860D01*
X009236Y017799D01*
X009395Y017799D01*
X009542Y017860D01*
X009621Y017939D01*
X009667Y017939D01*
X009764Y017841D01*
X010245Y017841D01*
X010314Y017910D01*
X010327Y017897D01*
X010368Y017874D01*
X010414Y017861D01*
X010595Y017861D01*
X010595Y018198D01*
X010595Y018198D01*
X010595Y017861D01*
X010776Y017861D01*
X010822Y017874D01*
X010863Y017897D01*
X010897Y017931D01*
X010920Y017972D01*
X010933Y018018D01*
X010933Y018199D01*
X010933Y018356D01*
X011537Y018356D01*
X011537Y017899D01*
X011654Y017782D01*
X012213Y017782D01*
X012268Y017837D01*
X012323Y017782D01*
X012883Y017782D01*
X012993Y017893D01*
X013022Y017864D01*
X012914Y017756D01*
X012853Y017609D01*
X012853Y017450D01*
X012883Y017376D01*
X008946Y017376D01*
X008843Y017376D01*
X008747Y017336D01*
X008174Y016763D01*
X008134Y016668D01*
X008134Y016564D01*
X008134Y015923D01*
X008087Y015923D01*
X007970Y015806D01*
X007970Y015424D01*
X007996Y015397D01*
X007792Y015397D01*
X007819Y015556D02*
X007970Y015556D01*
X007970Y015714D02*
X007819Y015714D01*
X007752Y015873D02*
X008036Y015873D01*
X008134Y016031D02*
X007177Y016031D01*
X007336Y016190D02*
X008134Y016190D01*
X008134Y016348D02*
X007494Y016348D01*
X007653Y016507D02*
X008134Y016507D01*
X008134Y016665D02*
X007811Y016665D01*
X007970Y016824D02*
X008234Y016824D01*
X008128Y016982D02*
X008393Y016982D01*
X008246Y017141D02*
X008552Y017141D01*
X008710Y017300D02*
X008257Y017300D01*
X008257Y017458D02*
X012853Y017458D01*
X012856Y017617D02*
X008257Y017617D01*
X008257Y017775D02*
X012933Y017775D01*
X012930Y018568D02*
X013099Y018568D01*
X013407Y018568D02*
X015544Y018568D01*
X015474Y018409D02*
X014890Y018409D01*
X014890Y018251D02*
X015474Y018251D01*
X015474Y018092D02*
X014902Y018092D01*
X014898Y017934D02*
X015474Y017934D01*
X015671Y017775D02*
X014771Y017775D01*
X014613Y017617D02*
X015829Y017617D01*
X015945Y017458D02*
X014454Y017458D01*
X014379Y017382D02*
X014379Y017382D01*
X015704Y017300D02*
X015945Y017300D01*
X015945Y017141D02*
X015862Y017141D01*
X016465Y017141D02*
X017881Y017141D01*
X017827Y017086D02*
X017827Y017086D01*
X017723Y016982D02*
X016465Y016982D01*
X016465Y016824D02*
X017564Y016824D01*
X017406Y016665D02*
X016465Y016665D01*
X016465Y016507D02*
X017265Y016507D01*
X017222Y016348D02*
X016465Y016348D01*
X016465Y016190D02*
X017222Y016190D01*
X017222Y016031D02*
X016465Y016031D01*
X016465Y015307D02*
X016521Y015307D01*
X016646Y015255D01*
X017206Y015255D01*
X017236Y015225D01*
X017218Y015192D01*
X017205Y015147D01*
X017205Y014925D01*
X017563Y014925D01*
X017563Y014888D01*
X017205Y014888D01*
X017205Y014666D01*
X017218Y014620D01*
X017241Y014579D01*
X017275Y014546D01*
X017316Y014522D01*
X017362Y014510D01*
X017564Y014510D01*
X017564Y014888D01*
X017601Y014888D01*
X017601Y014925D01*
X017959Y014925D01*
X017959Y015147D01*
X017947Y015192D01*
X017928Y015225D01*
X017979Y015276D01*
X017979Y015875D01*
X017942Y015912D01*
X017942Y016184D01*
X018281Y016523D01*
X019638Y016523D01*
X022004Y016523D01*
X022979Y016523D01*
X023034Y016467D01*
X023034Y015005D01*
X021372Y015005D01*
X021372Y015040D01*
X020966Y015040D01*
X020966Y015040D01*
X021372Y015040D01*
X021372Y015092D01*
X021611Y015092D01*
X021730Y015092D01*
X021841Y015138D01*
X021919Y015216D01*
X021974Y015216D01*
X022121Y015277D01*
X022233Y015389D01*
X022294Y015536D01*
X022294Y015696D01*
X022233Y015843D01*
X022121Y015955D01*
X021974Y016016D01*
X021815Y016016D01*
X021668Y015955D01*
X021555Y015843D01*
X021494Y015696D01*
X021494Y015692D01*
X021299Y015692D01*
X021275Y015716D01*
X020657Y015716D01*
X020582Y015642D01*
X020507Y015716D01*
X019889Y015716D01*
X019772Y015599D01*
X019772Y015289D01*
X019495Y015289D01*
X019400Y015249D01*
X019326Y015176D01*
X019179Y015028D01*
X019179Y015206D01*
X019128Y015257D01*
X019147Y015290D01*
X019159Y015335D01*
X019159Y015557D01*
X018801Y015557D01*
X018801Y015594D01*
X019159Y015594D01*
X019159Y015816D01*
X019147Y015862D01*
X019123Y015903D01*
X019089Y015936D01*
X019048Y015960D01*
X019003Y015972D01*
X018801Y015972D01*
X018801Y015594D01*
X018764Y015594D01*
X018764Y015972D01*
X018562Y015972D01*
X018516Y015960D01*
X018475Y015936D01*
X018441Y015903D01*
X018418Y015862D01*
X018405Y015816D01*
X018405Y015594D01*
X018763Y015594D01*
X018763Y015557D01*
X018405Y015557D01*
X018405Y015335D01*
X018418Y015290D01*
X018436Y015257D01*
X018385Y015206D01*
X018385Y014607D01*
X018502Y014490D01*
X018522Y014490D01*
X018522Y013140D01*
X018088Y012706D01*
X018038Y012706D01*
X018029Y012714D01*
X017314Y012714D01*
X017305Y012706D01*
X017177Y012706D01*
X017164Y012737D01*
X017037Y012864D01*
X016872Y012933D01*
X016693Y012933D01*
X016527Y012864D01*
X016429Y012765D01*
X016465Y012854D01*
X016465Y012958D01*
X016465Y014559D01*
X017036Y014559D01*
X017153Y014676D01*
X017153Y015058D01*
X017036Y015175D01*
X016465Y015175D01*
X016465Y015307D01*
X016465Y015238D02*
X017223Y015238D01*
X017205Y015080D02*
X017132Y015080D01*
X017153Y014921D02*
X017563Y014921D01*
X017601Y014921D02*
X018385Y014921D01*
X018385Y014763D02*
X017959Y014763D01*
X017959Y014666D02*
X017959Y014888D01*
X017601Y014888D01*
X017601Y014510D01*
X017803Y014510D01*
X017848Y014522D01*
X017889Y014546D01*
X017923Y014579D01*
X017947Y014620D01*
X017959Y014666D01*
X017937Y014604D02*
X018388Y014604D01*
X018522Y014446D02*
X016465Y014446D01*
X016465Y014287D02*
X018522Y014287D01*
X018522Y014129D02*
X016465Y014129D01*
X016465Y013970D02*
X018522Y013970D01*
X018522Y013812D02*
X016465Y013812D01*
X016465Y013653D02*
X018522Y013653D01*
X018522Y013494D02*
X016465Y013494D01*
X016465Y013336D02*
X018522Y013336D01*
X018522Y013177D02*
X016465Y013177D01*
X016465Y013019D02*
X018401Y013019D01*
X018242Y012860D02*
X017041Y012860D01*
X016524Y012860D02*
X016465Y012860D01*
X016398Y012731D02*
X016332Y012572D01*
X016332Y012393D01*
X016401Y012228D01*
X016527Y012101D01*
X016693Y012033D01*
X016872Y012033D01*
X017037Y012101D01*
X017122Y012186D01*
X017216Y012186D01*
X017216Y012106D01*
X017196Y012086D01*
X017196Y011830D01*
X017196Y011574D01*
X017196Y011318D01*
X017196Y011171D01*
X016912Y011171D01*
X016808Y011171D01*
X016713Y011131D01*
X016492Y010910D01*
X016492Y011334D01*
X016453Y011430D01*
X016379Y011503D01*
X015984Y011899D01*
X015888Y011938D01*
X015785Y011938D01*
X015605Y011938D01*
X016398Y012731D01*
X016386Y012702D02*
X016369Y012702D01*
X016332Y012543D02*
X016210Y012543D01*
X016336Y012385D02*
X016052Y012385D01*
X015893Y012226D02*
X016402Y012226D01*
X016608Y012068D02*
X015735Y012068D01*
X015959Y011909D02*
X017196Y011909D01*
X017196Y011751D02*
X016132Y011751D01*
X016290Y011592D02*
X017196Y011592D01*
X017196Y011433D02*
X016449Y011433D01*
X016492Y011275D02*
X017196Y011275D01*
X016698Y011116D02*
X016492Y011116D01*
X016492Y010958D02*
X016540Y010958D01*
X016958Y010641D02*
X017196Y010641D01*
X017196Y010651D02*
X017196Y010503D01*
X017196Y010247D01*
X017216Y010227D01*
X017216Y010143D01*
X017301Y010143D01*
X017301Y010143D01*
X017301Y010143D01*
X017216Y010143D01*
X017216Y010058D01*
X017196Y010038D01*
X017196Y009782D01*
X017196Y009526D01*
X017196Y009271D01*
X017196Y008968D01*
X017314Y008851D01*
X018029Y008851D01*
X018038Y008859D01*
X018154Y008859D01*
X018154Y008852D01*
X018215Y008705D01*
X018327Y008593D01*
X018474Y008532D01*
X018586Y008532D01*
X018613Y008505D01*
X018709Y008465D01*
X018812Y008465D01*
X019365Y008465D01*
X019305Y008405D01*
X019244Y008258D01*
X019244Y008099D01*
X019305Y007952D01*
X019384Y007873D01*
X019384Y007783D01*
X019424Y007688D01*
X019497Y007614D01*
X019560Y007552D01*
X019565Y007546D01*
X019506Y007522D01*
X019393Y007409D01*
X019332Y007262D01*
X019332Y007103D01*
X019393Y006956D01*
X019477Y006872D01*
X019432Y006762D01*
X019432Y006603D01*
X019441Y006581D01*
X019018Y006581D01*
X018085Y007514D01*
X017989Y007553D01*
X017886Y007553D01*
X017062Y007553D01*
X016792Y007823D01*
X016792Y010475D01*
X016968Y010651D01*
X017196Y010651D01*
X017196Y010482D02*
X016799Y010482D01*
X016792Y010324D02*
X017196Y010324D01*
X017216Y010165D02*
X016792Y010165D01*
X016792Y010007D02*
X017196Y010007D01*
X017196Y009848D02*
X016792Y009848D01*
X016792Y009689D02*
X017196Y009689D01*
X017196Y009531D02*
X016792Y009531D01*
X016792Y009372D02*
X017196Y009372D01*
X017196Y009214D02*
X016792Y009214D01*
X016792Y009055D02*
X017196Y009055D01*
X017268Y008897D02*
X016792Y008897D01*
X016792Y008738D02*
X018201Y008738D01*
X018359Y008580D02*
X016792Y008580D01*
X016792Y008421D02*
X019321Y008421D01*
X019246Y008263D02*
X016792Y008263D01*
X016792Y008104D02*
X019244Y008104D01*
X019312Y007945D02*
X016792Y007945D01*
X016829Y007787D02*
X019384Y007787D01*
X019483Y007628D02*
X016987Y007628D01*
X015868Y007073D02*
X016434Y006507D01*
X016434Y006473D01*
X016412Y006494D01*
X016225Y006494D01*
X016225Y006014D01*
X016185Y006014D01*
X016185Y006494D01*
X015998Y006494D01*
X015719Y006215D01*
X015565Y006369D01*
X015565Y006420D01*
X015813Y006668D01*
X015868Y006800D01*
X015868Y006943D01*
X015868Y007073D01*
X015868Y006994D02*
X015946Y006994D01*
X015868Y006836D02*
X016105Y006836D01*
X016264Y006677D02*
X015817Y006677D01*
X015664Y006519D02*
X016422Y006519D01*
X016225Y006360D02*
X016185Y006360D01*
X016185Y006201D02*
X016225Y006201D01*
X016225Y006043D02*
X016185Y006043D01*
X016185Y005884D02*
X016225Y005884D01*
X016225Y005726D02*
X016185Y005726D01*
X016185Y005567D02*
X016225Y005567D01*
X016467Y005409D02*
X007350Y005409D01*
X007350Y005567D02*
X013709Y005567D01*
X013685Y005726D02*
X007350Y005726D01*
X007350Y005884D02*
X013456Y005884D01*
X013298Y006043D02*
X007350Y006043D01*
X007350Y006116D02*
X007356Y006122D01*
X007350Y006198D01*
X007350Y006274D01*
X007344Y006280D01*
X007342Y006307D01*
X007351Y006320D01*
X007337Y006387D01*
X007332Y006456D01*
X007319Y006466D01*
X007312Y006501D01*
X007319Y006516D01*
X007295Y006580D01*
X007280Y006647D01*
X007266Y006656D01*
X007254Y006689D01*
X007259Y006705D01*
X007226Y006765D01*
X007202Y006829D01*
X007187Y006836D01*
X007170Y006867D01*
X007172Y006883D01*
X007131Y006938D01*
X007099Y006998D01*
X007083Y007002D01*
X007062Y007031D01*
X007062Y007047D01*
X007013Y007096D01*
X006972Y007150D01*
X006956Y007153D01*
X006931Y007178D01*
X006929Y007194D01*
X006874Y007235D01*
X006825Y007283D01*
X006809Y007283D01*
X006781Y007305D01*
X006776Y007320D01*
X006716Y007353D01*
X006661Y007394D01*
X006645Y007392D01*
X006614Y007409D01*
X006607Y007424D01*
X006543Y007448D01*
X006483Y007480D01*
X006467Y007476D01*
X006434Y007488D01*
X006425Y007502D01*
X006358Y007516D01*
X006294Y007540D01*
X006279Y007534D01*
X006245Y007541D01*
X006234Y007554D01*
X006166Y007558D01*
X006099Y007573D01*
X006085Y007564D01*
X006058Y007566D01*
X006052Y007572D01*
X005976Y007572D01*
X005901Y007577D01*
X005895Y007572D01*
X004594Y007572D01*
X004594Y010098D01*
X004626Y010066D01*
X005304Y010066D01*
X005421Y010183D01*
X005421Y010853D01*
X005422Y010853D01*
X005454Y010885D01*
X005454Y010242D01*
X005571Y010125D01*
X006288Y010125D01*
X006405Y010242D01*
X006405Y011037D01*
X006313Y011130D01*
X006354Y011141D01*
X006395Y011165D01*
X006428Y011198D01*
X006452Y011239D01*
X006464Y011285D01*
X006464Y011387D01*
X006389Y011387D01*
X006464Y011433D02*
X008685Y011433D01*
X008685Y011275D02*
X006461Y011275D01*
X006326Y011116D02*
X008736Y011116D01*
X008705Y010958D02*
X006405Y010958D01*
X006405Y010799D02*
X009063Y010799D01*
X009064Y010641D02*
X009101Y010641D01*
X009101Y010482D02*
X009064Y010482D01*
X008735Y010482D02*
X006405Y010482D01*
X006405Y010324D02*
X009368Y010324D01*
X009368Y010165D02*
X006329Y010165D01*
X006405Y010641D02*
X008705Y010641D01*
X009368Y010007D02*
X004594Y010007D01*
X004594Y009848D02*
X009388Y009848D01*
X009388Y009689D02*
X004594Y009689D01*
X004594Y009531D02*
X009372Y009531D01*
X009388Y009631D02*
X009472Y009631D01*
X009473Y009631D01*
X009388Y009631D01*
X009843Y009644D02*
X009843Y009874D01*
X009843Y009644D01*
X009843Y009644D01*
X009843Y009689D02*
X009843Y009689D01*
X009843Y009848D02*
X009843Y009848D01*
X009843Y009874D02*
X009843Y009874D01*
X010213Y009887D02*
X010213Y009887D01*
X010298Y009887D01*
X010298Y009971D01*
X010318Y009991D01*
X010318Y010231D01*
X010356Y010194D01*
X010503Y010133D01*
X010662Y010133D01*
X010752Y010170D01*
X010752Y009449D01*
X010318Y009014D01*
X010318Y009224D01*
X010318Y009526D01*
X010298Y009546D01*
X010298Y009631D01*
X010298Y009723D01*
X010288Y009759D01*
X010298Y009795D01*
X010298Y009887D01*
X010213Y009887D01*
X010298Y009848D02*
X010752Y009848D01*
X010752Y010007D02*
X010318Y010007D01*
X010318Y010165D02*
X010424Y010165D01*
X010740Y010165D02*
X010752Y010165D01*
X010752Y009689D02*
X010298Y009689D01*
X010298Y009631D02*
X010213Y009631D01*
X010213Y009631D01*
X010298Y009631D01*
X010313Y009531D02*
X010752Y009531D01*
X010676Y009372D02*
X010318Y009372D01*
X010318Y009214D02*
X010517Y009214D01*
X010359Y009055D02*
X010318Y009055D01*
X010073Y008738D02*
X004594Y008738D01*
X004594Y008580D02*
X009981Y008580D01*
X009932Y008421D02*
X004594Y008421D01*
X004594Y008263D02*
X009949Y008263D01*
X010045Y008104D02*
X004594Y008104D01*
X004594Y007945D02*
X009292Y007945D01*
X009287Y007940D02*
X009263Y007899D01*
X009251Y007853D01*
X009251Y007651D01*
X009629Y007651D01*
X009629Y008009D01*
X009407Y008009D01*
X009361Y007997D01*
X009320Y007973D01*
X009287Y007940D01*
X009251Y007787D02*
X004594Y007787D01*
X004594Y007628D02*
X009629Y007628D01*
X009629Y007614D02*
X009251Y007614D01*
X009251Y007412D01*
X009263Y007366D01*
X009287Y007325D01*
X009320Y007292D01*
X009361Y007268D01*
X009407Y007256D01*
X009629Y007256D01*
X009629Y007614D01*
X009629Y007470D02*
X009666Y007470D01*
X009666Y007311D02*
X009629Y007311D01*
X009301Y007311D02*
X006779Y007311D01*
X006956Y007153D02*
X013057Y007153D01*
X013057Y006994D02*
X007101Y006994D01*
X007187Y006836D02*
X013057Y006836D01*
X013057Y006677D02*
X007259Y006677D01*
X007318Y006519D02*
X013057Y006519D01*
X013057Y006360D02*
X007343Y006360D01*
X007350Y006201D02*
X013139Y006201D01*
X013577Y006499D02*
X013577Y007216D01*
X013596Y007216D01*
X013714Y007333D01*
X013714Y007932D01*
X013596Y008049D01*
X013516Y008049D01*
X013294Y008271D01*
X013294Y008383D01*
X013238Y008519D01*
X013751Y008519D01*
X013751Y008360D01*
X014129Y008360D01*
X014129Y008323D01*
X013751Y008323D01*
X013751Y008121D01*
X013763Y008075D01*
X013787Y008034D01*
X013820Y008000D01*
X013861Y007977D01*
X013907Y007964D01*
X014129Y007964D01*
X014129Y008323D01*
X014166Y008323D01*
X014166Y007964D01*
X014388Y007964D01*
X014433Y007977D01*
X014466Y007996D01*
X014517Y007944D01*
X015116Y007944D01*
X015148Y007976D01*
X015148Y007021D01*
X014900Y006773D01*
X014845Y006640D01*
X014845Y006497D01*
X014845Y006369D01*
X014725Y006249D01*
X014725Y006397D01*
X014608Y006514D01*
X013802Y006514D01*
X013685Y006397D01*
X013685Y006391D01*
X013577Y006499D01*
X013577Y006519D02*
X014845Y006519D01*
X014861Y006677D02*
X013577Y006677D01*
X013577Y006836D02*
X014963Y006836D01*
X015122Y006994D02*
X013577Y006994D01*
X013577Y007153D02*
X015148Y007153D01*
X015148Y007311D02*
X013692Y007311D01*
X013714Y007470D02*
X015148Y007470D01*
X015148Y007628D02*
X013714Y007628D01*
X013714Y007787D02*
X015148Y007787D01*
X015148Y007945D02*
X015117Y007945D01*
X014817Y008341D02*
X015458Y008341D01*
X015508Y008291D01*
X014516Y007945D02*
X013700Y007945D01*
X013755Y008104D02*
X013462Y008104D01*
X013303Y008263D02*
X013751Y008263D01*
X013751Y008421D02*
X013279Y008421D01*
X014129Y008263D02*
X014166Y008263D01*
X014166Y008104D02*
X014129Y008104D01*
X012273Y007311D02*
X012142Y007311D01*
X011572Y008029D02*
X011467Y008029D01*
X011416Y007978D01*
X011383Y007997D01*
X011338Y008009D01*
X011116Y008009D01*
X011116Y007651D01*
X011079Y007651D01*
X011079Y008009D01*
X010857Y008009D01*
X010811Y007997D01*
X010770Y007973D01*
X010737Y007940D01*
X010725Y007920D01*
X010616Y008029D01*
X010612Y008029D01*
X010612Y008097D01*
X010671Y008156D01*
X010732Y008303D01*
X010732Y008462D01*
X010681Y008586D01*
X011269Y009174D01*
X011312Y009277D01*
X011312Y009388D01*
X011312Y011027D01*
X011312Y011138D01*
X011269Y011241D01*
X011091Y011420D01*
X010988Y011463D01*
X010876Y011463D01*
X010768Y011463D01*
X010709Y011522D01*
X010562Y011583D01*
X010403Y011583D01*
X010318Y011547D01*
X010318Y011574D01*
X010298Y011594D01*
X010298Y011678D01*
X010213Y011678D01*
X010213Y011678D01*
X010213Y011678D01*
X010298Y011678D01*
X010298Y011763D01*
X010318Y011783D01*
X010318Y011930D01*
X010350Y011930D01*
X010446Y011970D01*
X010624Y012148D01*
X010697Y012221D01*
X010737Y012317D01*
X010737Y012839D01*
X010737Y012943D01*
X010697Y013038D01*
X010475Y013261D01*
X010402Y013334D01*
X010306Y013374D01*
X009151Y013374D01*
X009048Y013374D01*
X008952Y013334D01*
X008033Y012415D01*
X007936Y012415D01*
X009802Y014281D01*
X009842Y014377D01*
X009842Y014480D01*
X009842Y014504D01*
X009945Y014607D01*
X009945Y015174D01*
X009878Y015241D01*
X009945Y015308D01*
X009945Y015356D01*
X010496Y015356D01*
X010536Y015317D01*
X011253Y015317D01*
X011292Y015356D01*
X011554Y015356D01*
X011554Y015241D01*
X011554Y015109D01*
X011561Y015085D01*
X011534Y015058D01*
X011534Y014676D01*
X011651Y014559D01*
X011710Y014559D01*
X011710Y014493D01*
X011750Y014397D01*
X011823Y014324D01*
X012012Y014135D01*
X012085Y014062D01*
X012180Y014023D01*
X015434Y014023D01*
X015434Y012877D01*
X015211Y012654D01*
X015151Y012714D01*
X014435Y012714D01*
X014426Y012706D01*
X014293Y012706D01*
X014271Y012759D01*
X014159Y012872D01*
X014012Y012933D01*
X013853Y012933D01*
X013706Y012872D01*
X013593Y012759D01*
X013532Y012612D01*
X013532Y012453D01*
X013593Y012306D01*
X013706Y012194D01*
X013853Y012133D01*
X014012Y012133D01*
X014141Y012186D01*
X014318Y012186D01*
X014318Y012086D01*
X014318Y011830D01*
X014318Y011574D01*
X014318Y011271D01*
X014338Y011251D01*
X014338Y011167D01*
X014422Y011167D01*
X014423Y011166D01*
X014338Y011166D01*
X014338Y011074D01*
X014347Y011039D01*
X014338Y011003D01*
X014338Y010911D01*
X014792Y010911D01*
X014792Y010910D01*
X014338Y010910D01*
X014338Y010818D01*
X014347Y010783D01*
X014338Y010747D01*
X014338Y010655D01*
X014423Y010655D01*
X014422Y010654D01*
X014338Y010654D01*
X014338Y010570D01*
X014318Y010550D01*
X014318Y010393D01*
X014275Y010393D01*
X014182Y010486D01*
X014182Y011432D01*
X014144Y011524D01*
X014074Y011594D01*
X013778Y011890D01*
X013686Y011928D01*
X013587Y011928D01*
X013196Y011928D01*
X013196Y012039D01*
X013196Y012341D01*
X013196Y012597D01*
X013079Y012714D01*
X012364Y012714D01*
X012246Y012597D01*
X012246Y012341D01*
X012246Y012039D01*
X012246Y011783D01*
X012246Y011527D01*
X012246Y011271D01*
X012246Y011015D01*
X012246Y010759D01*
X012266Y010739D01*
X012266Y010655D01*
X012351Y010655D01*
X012351Y010655D01*
X012351Y010654D01*
X012266Y010654D01*
X012266Y010570D01*
X012246Y010550D01*
X012246Y010247D01*
X012246Y010147D01*
X012188Y010147D01*
X012085Y010147D01*
X011989Y010107D01*
X011685Y009803D01*
X011612Y009730D01*
X011572Y009634D01*
X011572Y008728D01*
X011572Y008029D01*
X011572Y008104D02*
X010619Y008104D01*
X010700Y007945D02*
X010742Y007945D01*
X010715Y008263D02*
X011572Y008263D01*
X011572Y008421D02*
X010732Y008421D01*
X010683Y008580D02*
X011572Y008580D01*
X011572Y008738D02*
X010834Y008738D01*
X010992Y008897D02*
X011572Y008897D01*
X011572Y009055D02*
X011151Y009055D01*
X011286Y009214D02*
X011572Y009214D01*
X011572Y009372D02*
X011312Y009372D01*
X011312Y009531D02*
X011572Y009531D01*
X011595Y009689D02*
X011312Y009689D01*
X011312Y009848D02*
X011730Y009848D01*
X011888Y010007D02*
X011312Y010007D01*
X011312Y010165D02*
X012246Y010165D01*
X012246Y010324D02*
X011312Y010324D01*
X011312Y010482D02*
X012246Y010482D01*
X012266Y010641D02*
X011312Y010641D01*
X011312Y010799D02*
X012246Y010799D01*
X012246Y010958D02*
X011312Y010958D01*
X011312Y011116D02*
X012246Y011116D01*
X012246Y011275D02*
X011236Y011275D01*
X011058Y011433D02*
X012246Y011433D01*
X012246Y011592D02*
X010299Y011592D01*
X010298Y011751D02*
X012246Y011751D01*
X012246Y011909D02*
X010318Y011909D01*
X010544Y012068D02*
X012246Y012068D01*
X012246Y012226D02*
X010699Y012226D01*
X010737Y012385D02*
X012246Y012385D01*
X012246Y012543D02*
X010737Y012543D01*
X010737Y012702D02*
X012351Y012702D01*
X013092Y012702D02*
X013569Y012702D01*
X013532Y012543D02*
X013196Y012543D01*
X013196Y012385D02*
X013560Y012385D01*
X013673Y012226D02*
X013196Y012226D01*
X013196Y012068D02*
X014318Y012068D01*
X014318Y011909D02*
X013732Y011909D01*
X013918Y011751D02*
X014318Y011751D01*
X014318Y011592D02*
X014076Y011592D01*
X014182Y011433D02*
X014318Y011433D01*
X014318Y011275D02*
X014182Y011275D01*
X014182Y011116D02*
X014338Y011116D01*
X014338Y010958D02*
X014182Y010958D01*
X014182Y010799D02*
X014343Y010799D01*
X014338Y010641D02*
X014182Y010641D01*
X014186Y010482D02*
X014318Y010482D01*
X014793Y010667D02*
X014793Y010903D01*
X014793Y010667D01*
X014793Y010667D01*
X014793Y010799D02*
X014793Y010799D01*
X014793Y010903D02*
X014793Y010910D01*
X014793Y010910D01*
X014793Y010911D01*
X014793Y010911D01*
X014793Y011154D01*
X014793Y011154D01*
X014793Y010911D01*
X015248Y010911D01*
X015248Y011003D01*
X015238Y011039D01*
X015248Y011074D01*
X015248Y011162D01*
X015535Y011162D01*
X015722Y010975D01*
X015722Y009620D01*
X015572Y009683D01*
X015393Y009683D01*
X015278Y009635D01*
X015268Y009635D01*
X015268Y009782D01*
X015268Y010038D01*
X015268Y010294D01*
X015268Y010550D01*
X015248Y010570D01*
X015248Y010654D01*
X015163Y010654D01*
X015163Y010655D01*
X015248Y010655D01*
X015248Y010747D01*
X015238Y010783D01*
X015248Y010818D01*
X015248Y010910D01*
X014793Y010910D01*
X014793Y010903D01*
X014793Y010958D02*
X014793Y010958D01*
X014793Y011116D02*
X014793Y011116D01*
X015248Y011116D02*
X015581Y011116D01*
X015722Y010958D02*
X015248Y010958D01*
X015243Y010799D02*
X015722Y010799D01*
X015722Y010641D02*
X015248Y010641D01*
X015268Y010482D02*
X015722Y010482D01*
X015722Y010324D02*
X015268Y010324D01*
X015268Y010165D02*
X015722Y010165D01*
X015722Y010007D02*
X015268Y010007D01*
X015268Y009848D02*
X015722Y009848D01*
X015722Y009689D02*
X015268Y009689D01*
X013824Y010137D02*
X013631Y010137D01*
X013413Y010355D01*
X013322Y010393D01*
X013222Y010393D01*
X013196Y010393D01*
X013196Y010550D01*
X013176Y010570D01*
X013176Y010654D01*
X013092Y010654D01*
X013092Y010655D01*
X013176Y010655D01*
X013176Y010739D01*
X013196Y010759D01*
X013196Y011015D01*
X013196Y011271D01*
X013196Y011428D01*
X013533Y011428D01*
X013682Y011279D01*
X013682Y010432D01*
X013682Y010333D01*
X013720Y010241D01*
X013824Y010137D01*
X013796Y010165D02*
X013603Y010165D01*
X013686Y010324D02*
X013445Y010324D01*
X013682Y010482D02*
X013196Y010482D01*
X013176Y010641D02*
X013682Y010641D01*
X013682Y010799D02*
X013196Y010799D01*
X013196Y010958D02*
X013682Y010958D01*
X013682Y011116D02*
X013196Y011116D01*
X013196Y011275D02*
X013682Y011275D01*
X013092Y010655D02*
X013092Y010655D01*
X011032Y011083D02*
X010932Y011183D01*
X010482Y011183D01*
X011032Y011083D02*
X011032Y009333D01*
X010332Y008633D01*
X010332Y008383D01*
X010332Y007648D01*
X010317Y007633D01*
X010332Y007907D01*
X010332Y008383D01*
X009666Y007945D02*
X009629Y007945D01*
X009629Y007787D02*
X009666Y007787D01*
X009251Y007470D02*
X006502Y007470D01*
X007350Y006116D02*
X007350Y004816D01*
X025060Y004816D01*
X025060Y006116D01*
X025055Y006122D01*
X025060Y006198D01*
X025060Y006274D01*
X025066Y006280D01*
X025068Y006307D01*
X025059Y006320D01*
X025074Y006387D01*
X025079Y006456D01*
X025091Y006466D01*
X025099Y006501D01*
X025092Y006516D01*
X025116Y006580D01*
X025130Y006647D01*
X025144Y006656D01*
X025157Y006689D01*
X025152Y006705D01*
X025185Y006765D01*
X025209Y006829D01*
X025224Y006836D01*
X025241Y006867D01*
X025238Y006883D01*
X025279Y006938D01*
X025312Y006998D01*
X025328Y007002D01*
X025349Y007031D01*
X025349Y007047D01*
X025397Y007096D01*
X025439Y007150D01*
X025455Y007153D01*
X025480Y007178D01*
X025482Y007194D01*
X025537Y007235D01*
X025585Y007283D01*
X025601Y007283D01*
X025630Y007305D01*
X025634Y007320D01*
X025695Y007353D01*
X025749Y007394D01*
X025766Y007392D01*
X025797Y007409D01*
X025803Y007424D01*
X025868Y007448D01*
X025928Y007480D01*
X025943Y007476D01*
X025977Y007488D01*
X025985Y007502D01*
X026052Y007516D01*
X026117Y007540D01*
X026131Y007534D01*
X026166Y007541D01*
X026177Y007554D01*
X026245Y007558D01*
X026312Y007573D01*
X026326Y007564D01*
X026353Y007566D01*
X026359Y007572D01*
X026434Y007572D01*
X026510Y007577D01*
X026516Y007572D01*
X027816Y007572D01*
X027816Y016227D01*
X026516Y016227D01*
X026510Y016222D01*
X026434Y016227D01*
X026359Y016227D01*
X026353Y016233D01*
X026326Y016235D01*
X026312Y016226D01*
X026245Y016241D01*
X026177Y016246D01*
X026166Y016258D01*
X026131Y016265D01*
X026117Y016259D01*
X026052Y016283D01*
X025985Y016297D01*
X025977Y016311D01*
X025943Y016323D01*
X025928Y016319D01*
X025868Y016351D01*
X025803Y016375D01*
X025797Y016390D01*
X025766Y016407D01*
X025749Y016405D01*
X025695Y016446D01*
X025634Y016479D01*
X025630Y016494D01*
X025601Y016516D01*
X025585Y016516D01*
X025537Y016564D01*
X025482Y016605D01*
X025480Y016621D01*
X025455Y016646D01*
X025439Y016649D01*
X025397Y016703D01*
X025349Y016752D01*
X025349Y016768D01*
X025328Y016797D01*
X025312Y016801D01*
X025279Y016861D01*
X025238Y016916D01*
X025241Y016932D01*
X025224Y016963D01*
X025209Y016970D01*
X025185Y017034D01*
X025152Y017094D01*
X025157Y017110D01*
X025144Y017143D01*
X025130Y017152D01*
X025116Y017219D01*
X025092Y017283D01*
X025099Y017298D01*
X025091Y017333D01*
X025079Y017343D01*
X025074Y017412D01*
X025059Y017479D01*
X025068Y017492D01*
X025066Y017519D01*
X025060Y017525D01*
X025060Y017601D01*
X025055Y017677D01*
X025060Y017683D01*
X025060Y018983D01*
X007350Y018983D01*
X007350Y017683D01*
X007356Y017677D01*
X007350Y017601D01*
X007350Y017525D01*
X007344Y017519D01*
X007342Y017492D01*
X007351Y017479D01*
X007337Y017412D01*
X007332Y017343D01*
X007319Y017333D01*
X007312Y017298D01*
X007319Y017283D01*
X007295Y017219D01*
X007280Y017152D01*
X007266Y017143D01*
X007254Y017110D01*
X007259Y017094D01*
X007226Y017034D01*
X007202Y016970D01*
X007187Y016963D01*
X007170Y016932D01*
X007172Y016916D01*
X007131Y016861D01*
X007099Y016801D01*
X007083Y016797D01*
X007062Y016768D01*
X007062Y016752D01*
X007013Y016703D01*
X006972Y016649D01*
X006956Y016646D01*
X006931Y016621D01*
X006929Y016605D01*
X006874Y016564D01*
X006825Y016516D01*
X006809Y016516D01*
X006781Y016494D01*
X006776Y016479D01*
X006716Y016446D01*
X006661Y016405D01*
X006645Y016407D01*
X006614Y016390D01*
X006607Y016375D01*
X006543Y016351D01*
X006483Y016319D01*
X006467Y016323D01*
X006434Y016311D01*
X006425Y016297D01*
X006358Y016283D01*
X006294Y016259D01*
X006279Y016265D01*
X006245Y016258D01*
X006234Y016246D01*
X006166Y016241D01*
X006099Y016226D01*
X006085Y016235D01*
X006058Y016233D01*
X006052Y016227D01*
X005976Y016227D01*
X005901Y016222D01*
X005895Y016227D01*
X004594Y016227D01*
X004594Y013701D01*
X004626Y013733D01*
X005304Y013733D01*
X005421Y013616D01*
X005421Y012946D01*
X005422Y012946D01*
X005454Y012914D01*
X005454Y013557D01*
X005571Y013674D01*
X006288Y013674D01*
X006405Y013557D01*
X006405Y012939D01*
X007287Y012939D01*
X008900Y014551D01*
X008868Y014583D01*
X008830Y014567D01*
X008733Y014567D01*
X008725Y014559D01*
X008087Y014559D01*
X007970Y014676D01*
X007970Y015058D01*
X007996Y015085D01*
X007990Y015109D01*
X007990Y015241D01*
X008406Y015241D01*
X008406Y015241D01*
X007990Y015241D01*
X007990Y015373D01*
X007996Y015397D01*
X007990Y015238D02*
X007128Y015238D01*
X007797Y015080D02*
X007992Y015080D01*
X007970Y014921D02*
X007819Y014921D01*
X007819Y014763D02*
X007970Y014763D01*
X008042Y014604D02*
X007747Y014604D01*
X008477Y014129D02*
X004594Y014129D01*
X004594Y014287D02*
X008635Y014287D01*
X008794Y014446D02*
X004594Y014446D01*
X004594Y014604D02*
X005539Y014604D01*
X005530Y014620D02*
X005553Y014579D01*
X005587Y014546D01*
X005628Y014522D01*
X005674Y014510D01*
X005876Y014510D01*
X005876Y014888D01*
X005517Y014888D01*
X005517Y014666D01*
X005530Y014620D01*
X005517Y014763D02*
X004594Y014763D01*
X004594Y014921D02*
X005876Y014921D01*
X005913Y014921D02*
X006437Y014921D01*
X006407Y015080D02*
X006271Y015080D01*
X006271Y014888D02*
X005913Y014888D01*
X005913Y014510D01*
X006115Y014510D01*
X006161Y014522D01*
X006202Y014546D01*
X006235Y014579D01*
X006259Y014620D01*
X006271Y014666D01*
X006271Y014888D01*
X006271Y014763D02*
X006573Y014763D01*
X006744Y014604D02*
X006250Y014604D01*
X005913Y014604D02*
X005876Y014604D01*
X005876Y014763D02*
X005913Y014763D01*
X005517Y015080D02*
X004594Y015080D01*
X004594Y015238D02*
X005535Y015238D01*
X005497Y015397D02*
X004594Y015397D01*
X004594Y015556D02*
X005497Y015556D01*
X005497Y015714D02*
X004594Y015714D01*
X004594Y015873D02*
X005497Y015873D01*
X006291Y015873D02*
X006472Y015873D01*
X006483Y016031D02*
X004594Y016031D01*
X004594Y016190D02*
X006600Y016190D01*
X006537Y016348D02*
X006759Y016348D01*
X006797Y016507D02*
X006917Y016507D01*
X006985Y016665D02*
X007076Y016665D01*
X007111Y016824D02*
X007234Y016824D01*
X007206Y016982D02*
X007393Y016982D01*
X007266Y017141D02*
X007552Y017141D01*
X007710Y017300D02*
X007312Y017300D01*
X007347Y017458D02*
X007737Y017458D01*
X007737Y017617D02*
X007351Y017617D01*
X007350Y017775D02*
X007737Y017775D01*
X007600Y017934D02*
X007350Y017934D01*
X007350Y018092D02*
X007600Y018092D01*
X007600Y018251D02*
X007350Y018251D01*
X007350Y018409D02*
X007600Y018409D01*
X007670Y018568D02*
X007350Y018568D01*
X007350Y018726D02*
X007887Y018726D01*
X007350Y018885D02*
X025060Y018885D01*
X025060Y018726D02*
X012027Y018726D01*
X012261Y018568D02*
X012276Y018568D01*
X011537Y018251D02*
X010933Y018251D01*
X010933Y018199D02*
X010596Y018199D01*
X010596Y018199D01*
X010933Y018199D01*
X010933Y018092D02*
X011537Y018092D01*
X011537Y017934D02*
X010898Y017934D01*
X010595Y017934D02*
X010595Y017934D01*
X010595Y018092D02*
X010595Y018092D01*
X009672Y017934D02*
X009616Y017934D01*
X012342Y016196D02*
X012502Y016356D01*
X014912Y016356D01*
X015197Y016071D01*
X015197Y015668D01*
X015197Y015564D01*
X015236Y015469D01*
X015257Y015448D01*
X015257Y015424D01*
X015284Y015397D01*
X014791Y015397D01*
X014791Y015276D02*
X014791Y015875D01*
X014674Y015992D01*
X014115Y015992D01*
X014098Y015976D01*
X013983Y015976D01*
X013962Y015998D01*
X013796Y016066D01*
X013617Y016066D01*
X013452Y015998D01*
X013430Y015975D01*
X013357Y015975D01*
X012922Y015975D01*
X012797Y015923D01*
X012675Y015923D01*
X012558Y015806D01*
X012558Y015424D01*
X012675Y015307D01*
X012797Y015307D01*
X012922Y015255D01*
X013288Y015255D01*
X013289Y015255D01*
X013359Y015255D01*
X013431Y015255D01*
X013431Y015255D01*
X013452Y015235D01*
X013617Y015166D01*
X013796Y015166D01*
X013962Y015235D01*
X013983Y015256D01*
X014018Y015256D01*
X014049Y015225D01*
X014030Y015192D01*
X014017Y015147D01*
X014017Y014925D01*
X014376Y014925D01*
X014376Y014888D01*
X014017Y014888D01*
X014017Y014666D01*
X014030Y014620D01*
X014053Y014579D01*
X014087Y014546D01*
X014093Y014543D01*
X012340Y014543D01*
X012306Y014576D01*
X012406Y014676D01*
X012406Y015058D01*
X012380Y015085D01*
X012386Y015109D01*
X012386Y015241D01*
X011971Y015241D01*
X011971Y015241D01*
X012386Y015241D01*
X012386Y015373D01*
X012380Y015397D01*
X012585Y015397D01*
X012558Y015556D02*
X012406Y015556D01*
X012406Y015424D02*
X012406Y015806D01*
X012342Y015871D01*
X012342Y016196D01*
X012342Y016190D02*
X015078Y016190D01*
X015197Y016031D02*
X013880Y016031D01*
X013533Y016031D02*
X012342Y016031D01*
X012342Y015873D02*
X012624Y015873D01*
X012558Y015714D02*
X012406Y015714D01*
X012406Y015424D02*
X012380Y015397D01*
X012386Y015238D02*
X013448Y015238D01*
X013313Y015175D02*
X012675Y015175D01*
X012558Y015058D01*
X012558Y014676D01*
X012675Y014559D01*
X013313Y014559D01*
X013430Y014676D01*
X013430Y015058D01*
X013313Y015175D01*
X013408Y015080D02*
X014017Y015080D01*
X014035Y015238D02*
X013966Y015238D01*
X014017Y014763D02*
X013430Y014763D01*
X013430Y014921D02*
X014376Y014921D01*
X014413Y014921D02*
X015257Y014921D01*
X015257Y015058D02*
X015257Y014676D01*
X015374Y014559D01*
X015434Y014559D01*
X015434Y014543D01*
X014696Y014543D01*
X014702Y014546D01*
X014735Y014579D01*
X014759Y014620D01*
X014771Y014666D01*
X014771Y014888D01*
X014413Y014888D01*
X014413Y014925D01*
X014771Y014925D01*
X014771Y015147D01*
X014759Y015192D01*
X014740Y015225D01*
X014791Y015276D01*
X014753Y015238D02*
X015277Y015238D01*
X015277Y015241D02*
X015277Y015109D01*
X015284Y015085D01*
X015257Y015058D01*
X015279Y015080D02*
X014771Y015080D01*
X014771Y014763D02*
X015257Y014763D01*
X015329Y014604D02*
X014750Y014604D01*
X014039Y014604D02*
X013359Y014604D01*
X012629Y014604D02*
X012335Y014604D01*
X012406Y014763D02*
X012558Y014763D01*
X012558Y014921D02*
X012406Y014921D01*
X012385Y015080D02*
X012579Y015080D01*
X011970Y015241D02*
X011554Y015241D01*
X011970Y015241D01*
X011970Y015241D01*
X011554Y015238D02*
X009881Y015238D01*
X009945Y015080D02*
X010479Y015080D01*
X010475Y015076D02*
X010451Y015035D01*
X010439Y014989D01*
X010439Y014708D01*
X010836Y014708D01*
X010836Y014593D01*
X010439Y014593D01*
X010439Y014312D01*
X010451Y014266D01*
X010475Y014225D01*
X010508Y014191D01*
X010549Y014168D01*
X010595Y014156D01*
X010836Y014156D01*
X010836Y014592D01*
X010952Y014592D01*
X010952Y014156D01*
X011194Y014156D01*
X011239Y014168D01*
X011280Y014191D01*
X011314Y014225D01*
X011338Y014266D01*
X011350Y014312D01*
X011350Y014593D01*
X010952Y014593D01*
X010952Y014708D01*
X011350Y014708D01*
X011350Y014989D01*
X011338Y015035D01*
X011314Y015076D01*
X011280Y015109D01*
X011239Y015133D01*
X011194Y015145D01*
X010952Y015145D01*
X010952Y014709D01*
X010836Y014709D01*
X010836Y015145D01*
X010595Y015145D01*
X010549Y015133D01*
X010508Y015109D01*
X010475Y015076D01*
X010439Y014921D02*
X009945Y014921D01*
X009945Y014763D02*
X010439Y014763D01*
X010836Y014763D02*
X010952Y014763D01*
X010952Y014921D02*
X010836Y014921D01*
X010836Y015080D02*
X010952Y015080D01*
X011310Y015080D02*
X011556Y015080D01*
X011534Y014921D02*
X011350Y014921D01*
X011350Y014763D02*
X011534Y014763D01*
X011606Y014604D02*
X010952Y014604D01*
X010836Y014604D02*
X009942Y014604D01*
X009842Y014446D02*
X010439Y014446D01*
X010445Y014287D02*
X009805Y014287D01*
X009650Y014129D02*
X012018Y014129D01*
X012012Y014135D02*
X012012Y014135D01*
X011860Y014287D02*
X011343Y014287D01*
X011350Y014446D02*
X011730Y014446D01*
X010952Y014446D02*
X010836Y014446D01*
X010836Y014287D02*
X010952Y014287D01*
X010397Y013336D02*
X015434Y013336D01*
X015434Y013494D02*
X009015Y013494D01*
X008957Y013336D02*
X008857Y013336D01*
X008795Y013177D02*
X008698Y013177D01*
X008637Y013019D02*
X008540Y013019D01*
X008478Y012860D02*
X008381Y012860D01*
X008320Y012702D02*
X008223Y012702D01*
X008161Y012543D02*
X008064Y012543D01*
X007367Y013019D02*
X006405Y013019D01*
X006405Y013177D02*
X007526Y013177D01*
X007684Y013336D02*
X006405Y013336D01*
X006405Y013494D02*
X007843Y013494D01*
X008001Y013653D02*
X006309Y013653D01*
X005550Y013653D02*
X005384Y013653D01*
X005421Y013494D02*
X005454Y013494D01*
X005454Y013336D02*
X005421Y013336D01*
X005421Y013177D02*
X005454Y013177D01*
X005454Y013019D02*
X005421Y013019D01*
X004594Y013812D02*
X008160Y013812D01*
X008318Y013970D02*
X004594Y013970D01*
X006484Y011592D02*
X008685Y011592D01*
X008685Y011751D02*
X008521Y011751D01*
X008680Y011909D02*
X008832Y011909D01*
X008822Y011884D02*
X008822Y011884D01*
X008839Y012068D02*
X008949Y012068D01*
X008997Y012226D02*
X009368Y012226D01*
X009368Y012385D02*
X009156Y012385D01*
X009314Y012543D02*
X009368Y012543D01*
X010558Y013177D02*
X015434Y013177D01*
X015434Y013019D02*
X010705Y013019D01*
X010737Y012860D02*
X013694Y012860D01*
X014170Y012860D02*
X015417Y012860D01*
X015259Y012702D02*
X015163Y012702D01*
X015434Y013653D02*
X009174Y013653D01*
X009332Y013812D02*
X015434Y013812D01*
X015434Y013970D02*
X009491Y013970D01*
X012494Y016348D02*
X014919Y016348D01*
X014791Y015873D02*
X015197Y015873D01*
X015197Y015714D02*
X014791Y015714D01*
X014791Y015556D02*
X015200Y015556D01*
X015284Y015397D02*
X015277Y015373D01*
X015277Y015241D01*
X015693Y015241D01*
X015693Y015241D01*
X015277Y015241D01*
X017082Y014604D02*
X017227Y014604D01*
X017205Y014763D02*
X017153Y014763D01*
X017564Y014763D02*
X017601Y014763D01*
X017601Y014604D02*
X017564Y014604D01*
X017959Y015080D02*
X018385Y015080D01*
X018418Y015238D02*
X017941Y015238D01*
X017979Y015397D02*
X018405Y015397D01*
X018405Y015556D02*
X017979Y015556D01*
X017979Y015714D02*
X018405Y015714D01*
X018424Y015873D02*
X017979Y015873D01*
X017942Y016031D02*
X023034Y016031D01*
X023034Y015873D02*
X022203Y015873D01*
X022287Y015714D02*
X023034Y015714D01*
X023034Y015556D02*
X022294Y015556D01*
X022236Y015397D02*
X023034Y015397D01*
X023034Y015238D02*
X022028Y015238D01*
X021372Y015080D02*
X023034Y015080D01*
X023285Y014725D02*
X023394Y014616D01*
X023285Y014725D02*
X020966Y014725D01*
X020966Y014373D02*
X021372Y014373D01*
X021372Y014445D01*
X023034Y014445D01*
X023034Y013747D01*
X023034Y013603D01*
X023066Y013528D01*
X022964Y013630D01*
X022861Y013672D01*
X022750Y013672D01*
X021319Y013672D01*
X021275Y013716D01*
X020657Y013716D01*
X020582Y013642D01*
X020507Y013716D01*
X019889Y013716D01*
X019772Y013599D01*
X019772Y013300D01*
X019750Y013300D01*
X019647Y013300D01*
X019557Y013263D01*
X019557Y013891D01*
X019779Y014113D01*
X019825Y014113D01*
X019889Y014049D01*
X020507Y014049D01*
X020596Y014138D01*
X020629Y014105D01*
X020670Y014081D01*
X020716Y014069D01*
X020966Y014069D01*
X021216Y014069D01*
X021262Y014081D01*
X021303Y014105D01*
X021336Y014138D01*
X021360Y014179D01*
X021372Y014225D01*
X021372Y014373D01*
X020966Y014373D01*
X020966Y014373D01*
X020966Y014372D02*
X020966Y014069D01*
X020966Y014372D01*
X020966Y014372D01*
X020966Y014287D02*
X020966Y014287D01*
X020966Y014129D02*
X020966Y014129D01*
X021327Y014129D02*
X023034Y014129D01*
X023034Y014287D02*
X021372Y014287D01*
X020605Y014129D02*
X020587Y014129D01*
X020571Y013653D02*
X020593Y013653D01*
X020966Y013392D02*
X022805Y013392D01*
X023801Y012397D01*
X024668Y012397D01*
X025170Y012900D01*
X025690Y012860D02*
X027816Y012860D01*
X027816Y012702D02*
X025690Y012702D01*
X025549Y012543D02*
X027816Y012543D01*
X027816Y012385D02*
X025420Y012385D01*
X025579Y012226D02*
X027816Y012226D01*
X027816Y012068D02*
X025690Y012068D01*
X025690Y011909D02*
X027816Y011909D01*
X027816Y011751D02*
X025690Y011751D01*
X025598Y011592D02*
X027816Y011592D01*
X027816Y011433D02*
X025439Y011433D01*
X025530Y011275D02*
X027816Y011275D01*
X027816Y011116D02*
X025688Y011116D01*
X025690Y010958D02*
X027816Y010958D01*
X027816Y010799D02*
X025690Y010799D01*
X025646Y010641D02*
X027816Y010641D01*
X027816Y010482D02*
X025488Y010482D01*
X025669Y010324D02*
X027816Y010324D01*
X027816Y010165D02*
X025690Y010165D01*
X025690Y010007D02*
X027816Y010007D01*
X027816Y009848D02*
X025690Y009848D01*
X025690Y009689D02*
X027816Y009689D01*
X027816Y009531D02*
X025690Y009531D01*
X024650Y009531D02*
X024537Y009531D01*
X023803Y009531D02*
X022576Y009531D01*
X022546Y009372D02*
X027816Y009372D01*
X027816Y009214D02*
X022617Y009214D01*
X022696Y009055D02*
X027816Y009055D01*
X027816Y008897D02*
X022701Y008897D01*
X022967Y008738D02*
X027816Y008738D01*
X027816Y008580D02*
X023043Y008580D01*
X023244Y008421D02*
X027816Y008421D01*
X027816Y008263D02*
X023424Y008263D01*
X023476Y008104D02*
X027816Y008104D01*
X027816Y007945D02*
X023462Y007945D01*
X023861Y007787D02*
X027816Y007787D01*
X027816Y007628D02*
X024954Y007628D01*
X024932Y007634D02*
X024710Y007634D01*
X024710Y007276D01*
X025088Y007276D01*
X025088Y007478D01*
X025076Y007524D01*
X025052Y007565D01*
X025019Y007598D01*
X024978Y007622D01*
X024932Y007634D01*
X024710Y007628D02*
X024673Y007628D01*
X024673Y007470D02*
X024710Y007470D01*
X024710Y007311D02*
X024673Y007311D01*
X024673Y007153D02*
X024710Y007153D01*
X024710Y006994D02*
X024673Y006994D01*
X025077Y006994D02*
X025310Y006994D01*
X025223Y006836D02*
X023907Y006836D01*
X023999Y006677D02*
X025152Y006677D01*
X025093Y006519D02*
X024013Y006519D01*
X023962Y006360D02*
X025068Y006360D01*
X025060Y006201D02*
X023784Y006201D01*
X023111Y006043D02*
X025060Y006043D01*
X025060Y005884D02*
X023082Y005884D01*
X022163Y005884D02*
X020751Y005884D01*
X020788Y006043D02*
X022004Y006043D01*
X021884Y006201D02*
X020808Y006201D01*
X020788Y006065D02*
X020704Y006065D01*
X020703Y006065D01*
X020788Y006065D01*
X020431Y006043D02*
X020430Y006043D01*
X020430Y005884D02*
X020431Y005884D01*
X020110Y005884D02*
X018725Y005884D01*
X018725Y006043D02*
X020073Y006043D01*
X019432Y006677D02*
X018921Y006677D01*
X018763Y006836D02*
X019463Y006836D01*
X019377Y006994D02*
X018604Y006994D01*
X018446Y007153D02*
X019332Y007153D01*
X019353Y007311D02*
X018287Y007311D01*
X018129Y007470D02*
X019454Y007470D01*
X019560Y007552D02*
X019560Y007552D01*
X020966Y008373D02*
X020980Y008369D01*
X021771Y007538D02*
X021776Y007533D01*
X021267Y006519D02*
X021236Y006519D01*
X021389Y006360D02*
X021074Y006360D01*
X018673Y005726D02*
X025060Y005726D01*
X025060Y005567D02*
X018514Y005567D01*
X017988Y005409D02*
X025060Y005409D01*
X025060Y005250D02*
X017829Y005250D01*
X016617Y005250D02*
X007350Y005250D01*
X007350Y005092D02*
X025060Y005092D01*
X025060Y004933D02*
X007350Y004933D01*
X010692Y007311D02*
X010751Y007311D01*
X011079Y007311D02*
X011116Y007311D01*
X011116Y007470D02*
X011079Y007470D01*
X011079Y007787D02*
X011116Y007787D01*
X011116Y007945D02*
X011079Y007945D01*
X009439Y008897D02*
X004594Y008897D01*
X004594Y009055D02*
X009368Y009055D01*
X009368Y009214D02*
X004594Y009214D01*
X004594Y009372D02*
X009368Y009372D01*
X005531Y010165D02*
X005403Y010165D01*
X005421Y010324D02*
X005454Y010324D01*
X005454Y010482D02*
X005421Y010482D01*
X005421Y010641D02*
X005454Y010641D01*
X005454Y010799D02*
X005421Y010799D01*
X014725Y006360D02*
X014836Y006360D01*
X015575Y006360D02*
X015864Y006360D01*
X015766Y005726D02*
X015673Y005726D01*
X015514Y005567D02*
X015925Y005567D01*
X014897Y005567D02*
X014701Y005567D01*
X014725Y005726D02*
X014738Y005726D01*
X022436Y009848D02*
X023650Y009848D01*
X023650Y010007D02*
X022412Y010007D01*
X022275Y010165D02*
X023700Y010165D01*
X023632Y010324D02*
X022117Y010324D01*
X021611Y010876D02*
X021632Y010896D01*
X021655Y010938D01*
X021668Y010983D01*
X021668Y011225D01*
X021231Y011225D01*
X021231Y011340D01*
X021668Y011340D01*
X021668Y011523D01*
X021995Y011523D01*
X022268Y011250D01*
X022341Y011177D01*
X022436Y011137D01*
X023672Y011137D01*
X023650Y011115D01*
X023650Y010876D01*
X021611Y010876D01*
X021661Y010958D02*
X023650Y010958D01*
X023651Y011116D02*
X021668Y011116D01*
X021231Y011275D02*
X022243Y011275D01*
X022084Y011433D02*
X021668Y011433D01*
X021115Y011340D02*
X021115Y011225D01*
X020678Y011225D01*
X020678Y010983D01*
X020690Y010938D01*
X020714Y010896D01*
X020734Y010876D01*
X020458Y010876D01*
X020506Y010924D01*
X020506Y011523D01*
X020678Y011523D01*
X020678Y011340D01*
X021115Y011340D01*
X021115Y011275D02*
X020506Y011275D01*
X020506Y011433D02*
X020678Y011433D01*
X020678Y011116D02*
X020506Y011116D01*
X020506Y010958D02*
X020685Y010958D01*
X022344Y011909D02*
X022507Y011909D01*
X022503Y011751D02*
X022665Y011751D01*
X022737Y011679D02*
X022790Y011657D01*
X022596Y011657D01*
X022250Y012003D01*
X022154Y012043D01*
X022051Y012043D01*
X019568Y012043D01*
X019639Y012113D01*
X019825Y012113D01*
X019889Y012049D01*
X020507Y012049D01*
X020596Y012138D01*
X020629Y012105D01*
X020670Y012081D01*
X020716Y012069D01*
X020966Y012069D01*
X021216Y012069D01*
X021262Y012081D01*
X021303Y012105D01*
X021336Y012138D01*
X021360Y012179D01*
X021372Y012225D01*
X021372Y012373D01*
X021372Y012465D01*
X021951Y012465D01*
X022737Y011679D01*
X022992Y012159D02*
X022206Y012946D01*
X022110Y012985D01*
X022007Y012985D01*
X021372Y012985D01*
X021372Y013040D01*
X020966Y013040D01*
X020966Y013040D01*
X021372Y013040D01*
X021372Y013112D01*
X022689Y013112D01*
X023563Y012239D01*
X023642Y012160D01*
X023643Y012159D01*
X022992Y012159D01*
X022925Y012226D02*
X023576Y012226D01*
X023417Y012385D02*
X022767Y012385D01*
X022608Y012543D02*
X023259Y012543D01*
X023100Y012702D02*
X022449Y012702D01*
X022291Y012860D02*
X022942Y012860D01*
X022783Y013019D02*
X021372Y013019D01*
X021372Y012385D02*
X022031Y012385D01*
X022190Y012226D02*
X021372Y012226D01*
X021372Y012373D02*
X020966Y012373D01*
X021372Y012373D01*
X020966Y012373D02*
X020966Y012373D01*
X020966Y012372D02*
X020966Y012069D01*
X020966Y012372D01*
X020966Y012372D01*
X020966Y012226D02*
X020966Y012226D01*
X020526Y012068D02*
X022348Y012068D01*
X019870Y012068D02*
X019594Y012068D01*
X019557Y013336D02*
X019772Y013336D01*
X019772Y013494D02*
X019557Y013494D01*
X019557Y013653D02*
X019826Y013653D01*
X019557Y013812D02*
X023034Y013812D01*
X023034Y013970D02*
X019636Y013970D01*
X019231Y015080D02*
X019179Y015080D01*
X019146Y015238D02*
X019389Y015238D01*
X019159Y015397D02*
X019772Y015397D01*
X019772Y015556D02*
X019159Y015556D01*
X019159Y015714D02*
X019887Y015714D01*
X020510Y015714D02*
X020654Y015714D01*
X021278Y015714D02*
X021502Y015714D01*
X021585Y015873D02*
X019140Y015873D01*
X018801Y015873D02*
X018764Y015873D01*
X018764Y015714D02*
X018801Y015714D01*
X017948Y016190D02*
X023034Y016190D01*
X023034Y016348D02*
X018107Y016348D01*
X018265Y016507D02*
X022994Y016507D01*
X023537Y016982D02*
X025204Y016982D01*
X025145Y017141D02*
X023378Y017141D01*
X023696Y016824D02*
X025300Y016824D01*
X025426Y016665D02*
X023754Y016665D01*
X023754Y016507D02*
X025613Y016507D01*
X025873Y016348D02*
X023754Y016348D01*
X023754Y016190D02*
X027816Y016190D01*
X027816Y016031D02*
X023754Y016031D01*
X023754Y015873D02*
X027816Y015873D01*
X027816Y015714D02*
X023754Y015714D01*
X023754Y015556D02*
X027816Y015556D01*
X027816Y015397D02*
X023754Y015397D01*
X023754Y015238D02*
X027816Y015238D01*
X027816Y015080D02*
X023754Y015080D01*
X023754Y014921D02*
X027816Y014921D01*
X027816Y014763D02*
X023754Y014763D01*
X023754Y014604D02*
X027816Y014604D01*
X027816Y014446D02*
X023754Y014446D01*
X023754Y014287D02*
X023851Y014287D01*
X024150Y014287D02*
X024190Y014287D01*
X024190Y014129D02*
X024150Y014129D01*
X024150Y013970D02*
X024190Y013970D01*
X024489Y014287D02*
X024822Y014287D01*
X024664Y014129D02*
X024648Y014129D01*
X025518Y014287D02*
X027816Y014287D01*
X027816Y014129D02*
X025676Y014129D01*
X025690Y013970D02*
X027816Y013970D01*
X027816Y013812D02*
X025690Y013812D01*
X025659Y013653D02*
X027816Y013653D01*
X027816Y013494D02*
X025500Y013494D01*
X025469Y013336D02*
X027816Y013336D01*
X027816Y013177D02*
X025627Y013177D01*
X025690Y013019D02*
X027816Y013019D01*
X023034Y013653D02*
X022908Y013653D01*
X017196Y012068D02*
X016956Y012068D01*
X022539Y009689D02*
X023650Y009689D01*
X024348Y007628D02*
X024429Y007628D01*
X025088Y007470D02*
X025908Y007470D01*
X025632Y007311D02*
X025088Y007311D01*
X025088Y007153D02*
X025454Y007153D01*
X017378Y016638D02*
X017378Y016638D01*
X016465Y017300D02*
X019548Y017300D01*
X019548Y017458D02*
X016465Y017458D01*
X016465Y017617D02*
X019548Y017617D01*
X019548Y017775D02*
X016406Y017775D01*
X016213Y018568D02*
X016198Y018568D01*
X016867Y018568D02*
X017036Y018568D01*
X017344Y018568D02*
X019481Y018568D01*
X019411Y018409D02*
X018799Y018409D01*
X018807Y018251D02*
X019411Y018251D01*
X019411Y018092D02*
X018807Y018092D01*
X018807Y018199D02*
X018470Y018199D01*
X018807Y018199D01*
X018470Y018199D02*
X018470Y018199D01*
X018469Y018199D02*
X018469Y018199D01*
X018469Y018536D01*
X018469Y018199D01*
X018469Y018251D02*
X018469Y018251D01*
X018469Y018409D02*
X018469Y018409D01*
X018469Y018092D02*
X018469Y018092D01*
X018469Y017934D02*
X018469Y017934D01*
X018772Y017934D02*
X019411Y017934D01*
X020068Y017775D02*
X025060Y017775D01*
X025059Y017617D02*
X020068Y017617D01*
X020068Y017458D02*
X025064Y017458D01*
X025098Y017300D02*
X020068Y017300D01*
X021427Y017934D02*
X021483Y017934D01*
X022406Y017934D02*
X022406Y017934D01*
X022406Y018092D02*
X022406Y018092D01*
X022407Y018199D02*
X022407Y018199D01*
X022744Y018199D01*
X022407Y018199D01*
X022406Y018199D02*
X022406Y018199D01*
X022406Y018536D01*
X022406Y018199D01*
X022406Y018251D02*
X022406Y018251D01*
X022406Y018409D02*
X022406Y018409D01*
X022736Y018409D02*
X025060Y018409D01*
X025060Y018251D02*
X022744Y018251D01*
X022744Y018092D02*
X025060Y018092D01*
X025060Y017934D02*
X022709Y017934D01*
X021281Y018568D02*
X025060Y018568D01*
X020973Y018568D02*
X020804Y018568D01*
X020150Y018568D02*
X020135Y018568D01*
X017546Y017934D02*
X017490Y017934D01*
D28*
X017190Y018199D02*
X017879Y018199D01*
X017190Y018199D02*
X016540Y018199D01*
X015871Y018199D02*
X015871Y017943D01*
X016205Y017608D01*
X016205Y012906D01*
X015234Y011934D01*
X014793Y011934D01*
X014793Y011678D02*
X015836Y011678D01*
X016232Y011283D01*
X016232Y007621D01*
X017205Y006648D01*
X017205Y005994D01*
X016694Y005541D02*
X016694Y006615D01*
X015982Y007326D01*
X015982Y011083D01*
X015642Y011422D01*
X014793Y011422D01*
X014793Y011166D02*
X014356Y011166D01*
X014352Y011163D01*
X015352Y011163D01*
X015442Y010643D02*
X014342Y010643D01*
X013242Y010643D02*
X013232Y010653D01*
X012632Y010653D01*
X012721Y010655D02*
X012160Y010655D01*
X012132Y010683D01*
X012032Y010783D01*
X012032Y010683D02*
X012132Y010683D01*
X012188Y010683D01*
X012160Y010655D01*
X012136Y009887D02*
X011832Y009583D01*
X011832Y008779D01*
X011832Y007698D01*
X011767Y007633D01*
X012894Y008304D02*
X013317Y007881D01*
X013317Y007633D01*
X013317Y006392D01*
X013714Y005994D01*
X014205Y005994D01*
X016694Y005541D02*
X016871Y005364D01*
X017575Y005364D01*
X018205Y005994D01*
X018910Y006321D02*
X020431Y006321D01*
X020431Y006577D01*
X020436Y006583D01*
X020932Y006583D01*
X021148Y006799D01*
X021148Y007083D01*
X021148Y007647D01*
X020877Y007919D01*
X020417Y007919D01*
X020208Y008127D01*
X020198Y008373D01*
X020198Y008725D02*
X018760Y008725D01*
X018554Y008932D01*
X018366Y009119D01*
X017671Y009119D01*
X017671Y009375D02*
X018885Y009375D01*
X019073Y009188D01*
X019220Y009040D01*
X020198Y009040D01*
X020198Y009392D02*
X019582Y009392D01*
X019399Y009392D01*
X019161Y009631D01*
X017671Y009631D01*
X017671Y009887D02*
X019165Y009887D01*
X019894Y010616D01*
X020269Y010616D01*
X020269Y010272D01*
X020247Y010250D01*
X020247Y010195D01*
X020269Y010616D02*
X023707Y010616D01*
X023926Y010397D01*
X024672Y010397D01*
X025170Y009900D01*
X024668Y011397D02*
X022488Y011397D01*
X022103Y011783D01*
X019301Y011783D01*
X018173Y010655D01*
X017671Y010655D01*
X017671Y010911D02*
X016860Y010911D01*
X016532Y010583D01*
X016532Y007716D01*
X016955Y007293D01*
X017938Y007293D01*
X018910Y006321D01*
X019832Y006683D02*
X019982Y006833D01*
X020431Y006833D01*
X020782Y006833D01*
X020932Y006983D01*
X020932Y007483D01*
X020814Y007600D01*
X020431Y007600D01*
X020431Y007344D02*
X020135Y007344D01*
X019707Y007772D01*
X019707Y007772D01*
X019644Y007835D01*
X019644Y008179D01*
X020980Y008369D02*
X021241Y008369D01*
X021771Y007839D01*
X021771Y007538D01*
X021776Y007533D02*
X021808Y007600D01*
X022734Y007600D01*
X023680Y007600D01*
X024022Y007258D01*
X023245Y006970D02*
X023245Y006748D01*
X023074Y006577D01*
X022734Y006577D01*
X022734Y006833D02*
X022282Y006833D01*
X022132Y006683D01*
X021632Y006683D01*
X022132Y006683D02*
X022132Y006283D01*
X022350Y006065D01*
X022734Y006065D01*
X022734Y006321D02*
X023370Y006321D01*
X023613Y006564D01*
X022734Y007089D02*
X022734Y007344D01*
X022734Y007089D02*
X021154Y007089D01*
X021148Y007083D01*
X020431Y007089D02*
X019826Y007089D01*
X019732Y007183D01*
X021560Y008725D02*
X022228Y008058D01*
X023076Y008058D01*
X022645Y008495D02*
X022250Y008495D01*
X021705Y009040D01*
X020966Y009040D01*
X020966Y009392D02*
X021712Y009392D01*
X022140Y008964D01*
X022301Y008964D01*
X021560Y008725D02*
X020966Y008725D01*
X022176Y009522D02*
X022176Y009897D01*
X021878Y010195D01*
X020917Y010195D01*
X019988Y011279D02*
X019157Y011279D01*
X018277Y010399D01*
X017671Y010399D01*
X017671Y010143D02*
X017222Y010143D01*
X016982Y010383D01*
X017671Y011166D02*
X018325Y011166D01*
X019531Y012373D01*
X020198Y012373D01*
X020198Y012725D01*
X020198Y013040D02*
X019698Y013040D01*
X019567Y012909D01*
X019567Y012759D01*
X018231Y011422D01*
X017671Y011422D01*
X017671Y011678D02*
X018137Y011678D01*
X019297Y012839D01*
X019297Y013999D01*
X019671Y014373D01*
X020198Y014373D01*
X020198Y014725D01*
X020198Y015040D02*
X019837Y015029D01*
X019547Y015029D01*
X019047Y014529D01*
X019047Y012949D01*
X018032Y011934D01*
X017671Y011934D01*
X017671Y012190D02*
X017140Y012190D01*
X016932Y011983D01*
X016932Y011583D01*
X017622Y012193D02*
X017669Y012193D01*
X017671Y012190D01*
X017671Y012446D02*
X016819Y012446D01*
X016782Y012483D01*
X017671Y012446D02*
X018196Y012446D01*
X018782Y013033D01*
X018782Y014906D01*
X020198Y015040D02*
X020198Y015392D01*
X019709Y016883D02*
X019808Y016981D01*
X019808Y018199D01*
X020477Y018199D02*
X021127Y018199D01*
X021816Y018199D01*
X021908Y016907D02*
X021932Y016883D01*
X021932Y016907D02*
X021908Y016907D01*
X015769Y016866D02*
X015769Y015616D01*
X015457Y015616D01*
X015457Y016179D01*
X015019Y016616D01*
X012394Y016616D01*
X012082Y016304D01*
X012082Y015616D01*
X008394Y015616D01*
X008394Y016616D01*
X008894Y017116D01*
X015519Y017116D01*
X015769Y016866D01*
X015769Y016826D02*
X008604Y016826D01*
X008486Y016707D02*
X015769Y016707D01*
X015769Y016589D02*
X015046Y016589D01*
X015165Y016470D02*
X015769Y016470D01*
X015769Y016352D02*
X015284Y016352D01*
X015402Y016233D02*
X015769Y016233D01*
X015769Y016115D02*
X015457Y016115D01*
X015457Y015996D02*
X015769Y015996D01*
X015769Y015878D02*
X015457Y015878D01*
X015457Y015759D02*
X015769Y015759D01*
X015769Y015641D02*
X015457Y015641D01*
X015694Y014867D02*
X015694Y014283D01*
X015694Y014116D01*
X015694Y012769D01*
X015115Y012190D01*
X014793Y012190D01*
X014793Y012446D02*
X014019Y012446D01*
X013932Y012533D01*
X012232Y014283D02*
X015694Y014283D01*
X012232Y014283D02*
X011970Y014544D01*
X011970Y014544D01*
X011970Y014867D01*
X012082Y015641D02*
X008394Y015641D01*
X008394Y015759D02*
X012082Y015759D01*
X012082Y015878D02*
X008394Y015878D01*
X008394Y015996D02*
X012082Y015996D01*
X012082Y016115D02*
X008394Y016115D01*
X008394Y016233D02*
X012082Y016233D01*
X012130Y016352D02*
X008394Y016352D01*
X008394Y016470D02*
X012249Y016470D01*
X012367Y016589D02*
X008394Y016589D01*
X008723Y016945D02*
X015691Y016945D01*
X015572Y017063D02*
X008841Y017063D01*
X007997Y017218D02*
X006732Y015954D01*
X006732Y015458D01*
X006737Y015462D01*
X008934Y014218D02*
X009371Y014218D01*
X009253Y014100D02*
X008815Y014100D01*
X008697Y013981D02*
X009134Y013981D01*
X009016Y013862D02*
X008578Y013862D01*
X008460Y013744D02*
X008897Y013744D01*
X008779Y013625D02*
X008341Y013625D01*
X008223Y013507D02*
X008660Y013507D01*
X008542Y013388D02*
X008104Y013388D01*
X007986Y013270D02*
X008423Y013270D01*
X008304Y013151D02*
X007867Y013151D01*
X007748Y013033D02*
X008186Y013033D01*
X008067Y012914D02*
X007630Y012914D01*
X007511Y012796D02*
X007949Y012796D01*
X007830Y012677D02*
X006292Y012677D01*
X006294Y012679D02*
X007394Y012679D01*
X009207Y014491D01*
X009207Y014929D01*
X009582Y014929D01*
X009582Y014429D01*
X007549Y012395D01*
X006377Y012395D01*
X006359Y012414D01*
X005769Y012414D01*
X005769Y012664D01*
X006280Y012664D01*
X006294Y012679D01*
X005769Y012558D02*
X007712Y012558D01*
X007593Y012440D02*
X005769Y012440D01*
X006018Y012155D02*
X008141Y012155D01*
X009099Y013114D01*
X010254Y013114D01*
X010477Y012891D01*
X010477Y012369D01*
X010298Y012190D01*
X009843Y012190D01*
X009843Y011934D02*
X009184Y011934D01*
X009082Y011833D01*
X009082Y011467D01*
X009843Y011166D02*
X010466Y011166D01*
X010482Y011183D01*
X010382Y011583D02*
X010286Y011678D01*
X010162Y012446D02*
X009843Y012446D01*
X010162Y012446D02*
X010207Y012491D01*
X010207Y012804D01*
X010144Y012866D01*
X009269Y012866D01*
X008303Y011900D01*
X006018Y011900D01*
X005769Y011425D02*
X006342Y011425D01*
X006408Y011491D01*
X006894Y011491D01*
X006894Y011054D01*
X006304Y011054D01*
X006263Y011095D01*
X005769Y011095D01*
X005769Y011425D01*
X005769Y011373D02*
X006894Y011373D01*
X006894Y011254D02*
X005769Y011254D01*
X005769Y011136D02*
X006894Y011136D01*
X009082Y010798D02*
X009130Y010911D01*
X009843Y010911D01*
X009843Y010655D02*
X010454Y010655D01*
X010582Y010533D01*
X009843Y009887D02*
X009236Y009887D01*
X009182Y009833D01*
X009332Y009631D02*
X009332Y009583D01*
X009332Y009631D02*
X009843Y009631D01*
X011832Y008779D02*
X015508Y008779D01*
X015482Y009233D02*
X015340Y009375D01*
X014793Y009375D01*
X015482Y009233D02*
X015540Y009375D01*
X012721Y009887D02*
X012136Y009887D01*
X019988Y011279D02*
X019992Y011283D01*
X020966Y012725D02*
X022059Y012725D01*
X022884Y011900D01*
X024170Y011900D01*
X024668Y011397D02*
X025170Y011900D01*
X020198Y013040D02*
X020198Y013392D01*
X014650Y018022D02*
X014158Y017529D01*
X013253Y017529D01*
X014532Y018199D02*
X014650Y018022D01*
X013942Y018199D02*
X013253Y018199D01*
X012603Y018199D01*
X011934Y018199D02*
X011934Y018452D01*
X011769Y018616D01*
X008144Y018616D01*
X007997Y018468D01*
X007997Y018199D01*
X007997Y017218D01*
X008666Y018199D02*
X009316Y018199D01*
X010005Y018199D01*
X009582Y014811D02*
X009207Y014811D01*
X009207Y014692D02*
X009582Y014692D01*
X009582Y014574D02*
X009207Y014574D01*
X009171Y014455D02*
X009582Y014455D01*
X009490Y014337D02*
X009052Y014337D01*
D29*
X009843Y012190D02*
X009850Y012183D01*
X009843Y011678D02*
X010286Y011678D01*
X012721Y011678D02*
X013636Y011678D01*
X013932Y011383D01*
X013932Y010383D01*
X014172Y010143D01*
X014793Y010143D01*
X014793Y009887D02*
X013528Y009887D01*
X013272Y010143D01*
X012721Y010143D01*
X012721Y009631D02*
X014793Y009631D01*
X014793Y009119D02*
X012721Y009119D01*
X010382Y009883D02*
X009782Y009883D01*
X009832Y009683D02*
X009832Y009633D01*
X009834Y009631D01*
X009843Y009631D01*
X009832Y009633D02*
X010282Y009633D01*
X009182Y009583D02*
X009182Y009833D01*
X011767Y007633D02*
X012647Y007633D01*
D30*
X012894Y008304D03*
X013519Y008366D03*
X011382Y008633D03*
X010332Y008383D03*
X009732Y008583D03*
X010582Y009683D03*
X010582Y010533D03*
X010482Y011183D03*
X011782Y010583D03*
X013482Y011083D03*
X011682Y012083D03*
X013932Y012533D03*
X014732Y013783D03*
X015032Y014908D03*
X013720Y014908D03*
X012532Y015283D03*
X013720Y016220D03*
X013253Y017529D03*
X013253Y018199D03*
X011394Y017616D03*
X009316Y018199D03*
X007544Y018789D03*
X010232Y016208D03*
X007832Y015241D03*
X007144Y014241D03*
X004788Y016033D03*
X010200Y013533D03*
X011545Y014283D03*
X006926Y011366D03*
X007300Y010325D03*
X008522Y010793D03*
X007722Y009153D03*
X004788Y007766D03*
X007544Y005010D03*
X009709Y006585D03*
X011087Y006585D03*
X017282Y008333D03*
X018554Y008932D03*
X019073Y009188D03*
X019582Y009392D03*
X019644Y008179D03*
X019732Y007183D03*
X019832Y006683D03*
X018986Y007122D03*
X021632Y006683D03*
X021776Y007533D03*
X023076Y008058D03*
X022645Y008495D03*
X022301Y008964D03*
X022176Y009522D03*
X024700Y007860D03*
X023245Y006970D03*
X023613Y006564D03*
X023271Y005975D03*
X024867Y005010D03*
X020394Y005616D03*
X026677Y009131D03*
X027623Y007766D03*
X026652Y011430D03*
X026672Y013420D03*
X026692Y014773D03*
X027623Y016033D03*
X023494Y018199D03*
X024867Y018789D03*
X021127Y018199D03*
X021127Y017393D03*
X022884Y016193D03*
X021894Y015616D03*
X022414Y014283D03*
X019742Y013848D03*
X017582Y014241D03*
X018769Y016304D03*
X016644Y017366D03*
X017190Y018199D03*
X021601Y012283D03*
X021970Y011345D03*
X016932Y011583D03*
X015482Y010683D03*
X016982Y010383D03*
D31*
X015019Y007304D03*
X022851Y012595D03*
D32*
X016782Y012483D03*
X013707Y015616D03*
X006732Y015458D03*
X015482Y009233D03*
D33*
X015508Y009207D02*
X015508Y008779D01*
X015508Y008291D01*
X015508Y006872D01*
X015205Y006569D01*
X015205Y005994D01*
X023394Y013675D02*
X024170Y012900D01*
X023394Y013675D02*
X023394Y014616D01*
X023394Y016616D01*
X023128Y016883D01*
X021932Y016883D01*
X019709Y016883D01*
X018132Y016883D01*
X017582Y016333D01*
X017582Y015576D01*
X017543Y015615D02*
X016717Y015615D01*
X014394Y015616D02*
X013707Y015616D01*
X013359Y015615D01*
X012994Y015615D01*
X006732Y015458D02*
X006706Y015484D01*
D34*
X006732Y015458D02*
X006707Y015432D01*
X006707Y015054D01*
X006893Y014867D01*
X007383Y014867D01*
X008406Y014867D02*
X008770Y014867D01*
X008832Y014929D01*
X008832Y015616D01*
X008831Y015615D01*
X006758Y015484D02*
X006732Y015458D01*
X014367Y015633D02*
X014378Y015633D01*
X014394Y015616D01*
X017543Y015615D02*
X017582Y015576D01*
X020966Y015392D02*
X021671Y015392D01*
X021894Y015616D01*
D35*
X014394Y015576D02*
X014367Y015633D01*
X006732Y015484D02*
X006732Y015458D01*
X006706Y015484D02*
X005882Y015484D01*
X005894Y015576D01*
X015482Y009233D02*
X015508Y009207D01*
M02*
