G04 EAGLE Gerber RS-274X export*
G75*
%MOMM*%
%FSLAX34Y34*%
%LPD*%
%INTop Copper*%
%IPPOS*%
%AMOC8*
5,1,8,0,0,1.08239X$1,22.5*%
G01*
%ADD10R,0.381000X0.381000*%
%ADD11C,0.300000*%
%ADD12R,1.000000X1.100000*%
%ADD13R,1.524000X1.524000*%
%ADD14P,1.649562X8X22.500000*%
%ADD15C,0.025400*%
%ADD16C,0.050800*%
%ADD17C,0.762000*%

G36*
X199702Y2549D02*
X199702Y2549D01*
X199760Y2547D01*
X199842Y2569D01*
X199926Y2581D01*
X199979Y2604D01*
X200035Y2619D01*
X200108Y2662D01*
X200185Y2697D01*
X200230Y2735D01*
X200280Y2764D01*
X200338Y2826D01*
X200402Y2880D01*
X200434Y2929D01*
X200474Y2972D01*
X200513Y3047D01*
X200560Y3117D01*
X200577Y3173D01*
X200604Y3225D01*
X200615Y3293D01*
X200645Y3388D01*
X200648Y3488D01*
X200659Y3556D01*
X200659Y199644D01*
X200651Y199702D01*
X200653Y199760D01*
X200631Y199842D01*
X200619Y199926D01*
X200596Y199979D01*
X200581Y200035D01*
X200538Y200108D01*
X200503Y200185D01*
X200465Y200230D01*
X200436Y200280D01*
X200374Y200338D01*
X200320Y200402D01*
X200271Y200434D01*
X200228Y200474D01*
X200153Y200513D01*
X200083Y200560D01*
X200027Y200577D01*
X199975Y200604D01*
X199907Y200615D01*
X199812Y200645D01*
X199712Y200648D01*
X199644Y200659D01*
X3556Y200659D01*
X3498Y200651D01*
X3440Y200653D01*
X3358Y200631D01*
X3274Y200619D01*
X3221Y200596D01*
X3165Y200581D01*
X3092Y200538D01*
X3015Y200503D01*
X2970Y200465D01*
X2920Y200436D01*
X2862Y200374D01*
X2798Y200320D01*
X2766Y200271D01*
X2726Y200228D01*
X2687Y200153D01*
X2640Y200083D01*
X2623Y200027D01*
X2596Y199975D01*
X2585Y199907D01*
X2555Y199812D01*
X2552Y199712D01*
X2541Y199644D01*
X2541Y3556D01*
X2549Y3498D01*
X2547Y3440D01*
X2569Y3358D01*
X2581Y3274D01*
X2604Y3221D01*
X2619Y3165D01*
X2662Y3092D01*
X2697Y3015D01*
X2735Y2970D01*
X2764Y2920D01*
X2826Y2862D01*
X2880Y2798D01*
X2929Y2766D01*
X2972Y2726D01*
X3047Y2687D01*
X3117Y2640D01*
X3173Y2623D01*
X3225Y2596D01*
X3293Y2585D01*
X3388Y2555D01*
X3488Y2552D01*
X3556Y2541D01*
X199644Y2541D01*
X199702Y2549D01*
G37*
%LPC*%
G36*
X88693Y62102D02*
X88693Y62102D01*
X87502Y63293D01*
X87502Y77458D01*
X87503Y77464D01*
X87503Y125737D01*
X87502Y125745D01*
X87502Y139907D01*
X88693Y141098D01*
X165307Y141098D01*
X166498Y139907D01*
X166498Y63293D01*
X165307Y62102D01*
X88693Y62102D01*
G37*
%LPD*%
G36*
X149411Y78241D02*
X149411Y78241D01*
X149469Y78239D01*
X149551Y78261D01*
X149635Y78273D01*
X149688Y78296D01*
X149744Y78311D01*
X149817Y78354D01*
X149894Y78389D01*
X149939Y78427D01*
X149989Y78456D01*
X150047Y78518D01*
X150111Y78572D01*
X150143Y78621D01*
X150183Y78664D01*
X150222Y78739D01*
X150269Y78809D01*
X150286Y78865D01*
X150313Y78917D01*
X150324Y78985D01*
X150354Y79080D01*
X150357Y79180D01*
X150368Y79248D01*
X150368Y123953D01*
X150360Y124011D01*
X150362Y124069D01*
X150340Y124151D01*
X150328Y124235D01*
X150305Y124288D01*
X150290Y124344D01*
X150247Y124417D01*
X150212Y124494D01*
X150174Y124539D01*
X150145Y124589D01*
X150083Y124647D01*
X150029Y124711D01*
X149980Y124743D01*
X149937Y124783D01*
X149862Y124822D01*
X149792Y124869D01*
X149736Y124886D01*
X149684Y124913D01*
X149616Y124924D01*
X149521Y124954D01*
X149421Y124957D01*
X149353Y124968D01*
X104648Y124968D01*
X104590Y124960D01*
X104532Y124962D01*
X104450Y124940D01*
X104366Y124928D01*
X104313Y124905D01*
X104257Y124890D01*
X104184Y124847D01*
X104107Y124812D01*
X104062Y124774D01*
X104012Y124745D01*
X103954Y124683D01*
X103890Y124629D01*
X103858Y124580D01*
X103818Y124537D01*
X103779Y124462D01*
X103732Y124392D01*
X103715Y124336D01*
X103688Y124284D01*
X103677Y124216D01*
X103647Y124121D01*
X103644Y124021D01*
X103633Y123953D01*
X103633Y79248D01*
X103641Y79190D01*
X103639Y79132D01*
X103661Y79050D01*
X103673Y78966D01*
X103696Y78913D01*
X103711Y78857D01*
X103754Y78784D01*
X103789Y78707D01*
X103827Y78662D01*
X103856Y78612D01*
X103918Y78554D01*
X103972Y78490D01*
X104021Y78458D01*
X104064Y78418D01*
X104139Y78379D01*
X104209Y78332D01*
X104265Y78315D01*
X104317Y78288D01*
X104385Y78277D01*
X104480Y78247D01*
X104580Y78244D01*
X104648Y78233D01*
X149353Y78233D01*
X149411Y78241D01*
G37*
%LPC*%
G36*
X61078Y43267D02*
X61078Y43267D01*
X59887Y44458D01*
X59887Y57142D01*
X61078Y58333D01*
X63618Y58333D01*
X63676Y58341D01*
X63734Y58339D01*
X63816Y58361D01*
X63900Y58373D01*
X63953Y58396D01*
X64009Y58411D01*
X64082Y58454D01*
X64159Y58489D01*
X64204Y58527D01*
X64254Y58556D01*
X64312Y58618D01*
X64376Y58672D01*
X64408Y58721D01*
X64448Y58764D01*
X64487Y58839D01*
X64534Y58909D01*
X64551Y58965D01*
X64578Y59017D01*
X64589Y59085D01*
X64619Y59180D01*
X64622Y59280D01*
X64633Y59348D01*
X64633Y67652D01*
X64625Y67710D01*
X64627Y67768D01*
X64605Y67850D01*
X64593Y67934D01*
X64570Y67987D01*
X64555Y68043D01*
X64512Y68116D01*
X64477Y68193D01*
X64439Y68238D01*
X64410Y68288D01*
X64348Y68346D01*
X64294Y68410D01*
X64245Y68442D01*
X64202Y68482D01*
X64127Y68521D01*
X64057Y68568D01*
X64001Y68585D01*
X63949Y68612D01*
X63881Y68623D01*
X63786Y68653D01*
X63686Y68656D01*
X63618Y68667D01*
X61078Y68667D01*
X59887Y69858D01*
X59887Y82542D01*
X61078Y83733D01*
X63618Y83733D01*
X63676Y83741D01*
X63734Y83739D01*
X63816Y83761D01*
X63900Y83773D01*
X63953Y83796D01*
X64009Y83811D01*
X64082Y83854D01*
X64159Y83889D01*
X64204Y83927D01*
X64254Y83956D01*
X64312Y84018D01*
X64376Y84072D01*
X64408Y84121D01*
X64448Y84164D01*
X64487Y84239D01*
X64534Y84309D01*
X64551Y84365D01*
X64578Y84417D01*
X64589Y84485D01*
X64619Y84580D01*
X64622Y84680D01*
X64633Y84748D01*
X64633Y93052D01*
X64625Y93110D01*
X64627Y93168D01*
X64605Y93250D01*
X64593Y93334D01*
X64570Y93387D01*
X64555Y93443D01*
X64512Y93516D01*
X64477Y93593D01*
X64439Y93638D01*
X64410Y93688D01*
X64348Y93746D01*
X64294Y93810D01*
X64245Y93842D01*
X64202Y93882D01*
X64127Y93921D01*
X64057Y93968D01*
X64001Y93985D01*
X63949Y94012D01*
X63881Y94023D01*
X63786Y94053D01*
X63686Y94056D01*
X63618Y94067D01*
X61078Y94067D01*
X59887Y95258D01*
X59887Y107942D01*
X61078Y109133D01*
X63618Y109133D01*
X63676Y109141D01*
X63734Y109139D01*
X63816Y109161D01*
X63900Y109173D01*
X63953Y109196D01*
X64009Y109211D01*
X64082Y109254D01*
X64159Y109289D01*
X64204Y109327D01*
X64254Y109356D01*
X64312Y109418D01*
X64376Y109472D01*
X64408Y109521D01*
X64448Y109564D01*
X64487Y109639D01*
X64534Y109709D01*
X64551Y109765D01*
X64578Y109817D01*
X64589Y109885D01*
X64619Y109980D01*
X64622Y110080D01*
X64633Y110148D01*
X64633Y160312D01*
X64621Y160399D01*
X64618Y160486D01*
X64601Y160539D01*
X64593Y160594D01*
X64558Y160674D01*
X64531Y160757D01*
X64503Y160796D01*
X64477Y160853D01*
X64381Y160966D01*
X64336Y161030D01*
X50150Y175216D01*
X50080Y175268D01*
X50016Y175328D01*
X49967Y175354D01*
X49923Y175387D01*
X49841Y175418D01*
X49763Y175458D01*
X49716Y175466D01*
X49657Y175488D01*
X49510Y175500D01*
X49432Y175513D01*
X36068Y175513D01*
X36010Y175505D01*
X35952Y175507D01*
X35870Y175485D01*
X35786Y175473D01*
X35733Y175450D01*
X35677Y175435D01*
X35604Y175392D01*
X35527Y175357D01*
X35482Y175319D01*
X35432Y175290D01*
X35374Y175228D01*
X35310Y175174D01*
X35278Y175125D01*
X35238Y175082D01*
X35199Y175007D01*
X35152Y174937D01*
X35135Y174881D01*
X35108Y174829D01*
X35097Y174761D01*
X35067Y174666D01*
X35064Y174566D01*
X35053Y174498D01*
X35053Y169338D01*
X33862Y168147D01*
X16938Y168147D01*
X15747Y169338D01*
X15747Y186262D01*
X16938Y187453D01*
X33862Y187453D01*
X35053Y186262D01*
X35053Y181102D01*
X35061Y181044D01*
X35059Y180986D01*
X35081Y180904D01*
X35093Y180820D01*
X35116Y180767D01*
X35131Y180711D01*
X35174Y180638D01*
X35209Y180561D01*
X35247Y180516D01*
X35276Y180466D01*
X35338Y180408D01*
X35392Y180344D01*
X35441Y180312D01*
X35484Y180272D01*
X35559Y180233D01*
X35629Y180186D01*
X35685Y180169D01*
X35737Y180142D01*
X35805Y180131D01*
X35900Y180101D01*
X36000Y180098D01*
X36068Y180087D01*
X51747Y180087D01*
X69207Y162627D01*
X69207Y110148D01*
X69215Y110092D01*
X69213Y110041D01*
X69214Y110040D01*
X69213Y110032D01*
X69235Y109950D01*
X69247Y109866D01*
X69270Y109813D01*
X69285Y109757D01*
X69328Y109684D01*
X69363Y109607D01*
X69401Y109562D01*
X69430Y109512D01*
X69492Y109454D01*
X69546Y109390D01*
X69595Y109358D01*
X69638Y109318D01*
X69713Y109279D01*
X69783Y109232D01*
X69839Y109215D01*
X69891Y109188D01*
X69959Y109177D01*
X70054Y109147D01*
X70154Y109144D01*
X70222Y109133D01*
X72762Y109133D01*
X73953Y107942D01*
X73953Y95258D01*
X72762Y94067D01*
X70222Y94067D01*
X70164Y94059D01*
X70106Y94061D01*
X70024Y94039D01*
X69940Y94027D01*
X69887Y94004D01*
X69831Y93989D01*
X69758Y93946D01*
X69681Y93911D01*
X69636Y93873D01*
X69586Y93844D01*
X69528Y93782D01*
X69464Y93728D01*
X69432Y93679D01*
X69392Y93636D01*
X69353Y93561D01*
X69306Y93491D01*
X69289Y93435D01*
X69262Y93383D01*
X69251Y93315D01*
X69221Y93220D01*
X69218Y93120D01*
X69207Y93052D01*
X69207Y84748D01*
X69214Y84694D01*
X69213Y84660D01*
X69214Y84657D01*
X69213Y84632D01*
X69235Y84550D01*
X69247Y84466D01*
X69270Y84413D01*
X69285Y84357D01*
X69328Y84284D01*
X69363Y84207D01*
X69401Y84162D01*
X69430Y84112D01*
X69492Y84054D01*
X69546Y83990D01*
X69595Y83958D01*
X69638Y83918D01*
X69713Y83879D01*
X69783Y83832D01*
X69839Y83815D01*
X69891Y83788D01*
X69959Y83777D01*
X70054Y83747D01*
X70154Y83744D01*
X70222Y83733D01*
X72762Y83733D01*
X73953Y82542D01*
X73953Y69858D01*
X72762Y68667D01*
X70222Y68667D01*
X70164Y68659D01*
X70106Y68661D01*
X70024Y68639D01*
X69940Y68627D01*
X69887Y68604D01*
X69831Y68589D01*
X69758Y68546D01*
X69681Y68511D01*
X69636Y68473D01*
X69586Y68444D01*
X69528Y68382D01*
X69464Y68328D01*
X69432Y68279D01*
X69392Y68236D01*
X69353Y68161D01*
X69306Y68091D01*
X69289Y68035D01*
X69262Y67983D01*
X69251Y67915D01*
X69221Y67820D01*
X69218Y67720D01*
X69207Y67652D01*
X69207Y59348D01*
X69214Y59297D01*
X69213Y59278D01*
X69215Y59274D01*
X69213Y59232D01*
X69235Y59150D01*
X69247Y59066D01*
X69270Y59013D01*
X69285Y58957D01*
X69328Y58884D01*
X69363Y58807D01*
X69401Y58762D01*
X69430Y58712D01*
X69492Y58654D01*
X69546Y58590D01*
X69595Y58558D01*
X69638Y58518D01*
X69713Y58479D01*
X69783Y58432D01*
X69839Y58415D01*
X69891Y58388D01*
X69959Y58377D01*
X70054Y58347D01*
X70154Y58344D01*
X70222Y58333D01*
X72762Y58333D01*
X73953Y57142D01*
X73953Y44458D01*
X72762Y43267D01*
X61078Y43267D01*
G37*
%LPD*%
%LPC*%
G36*
X174112Y159259D02*
X174112Y159259D01*
X167297Y162082D01*
X162082Y167297D01*
X159259Y174112D01*
X159259Y181488D01*
X162082Y188303D01*
X167297Y193518D01*
X174112Y196341D01*
X181488Y196341D01*
X188303Y193518D01*
X193518Y188303D01*
X196341Y181488D01*
X196341Y174112D01*
X193518Y167297D01*
X188303Y162082D01*
X181488Y159259D01*
X174112Y159259D01*
G37*
%LPD*%
%LPC*%
G36*
X174112Y6859D02*
X174112Y6859D01*
X167297Y9682D01*
X162082Y14897D01*
X159259Y21712D01*
X159259Y29088D01*
X162082Y35903D01*
X167297Y41118D01*
X174112Y43941D01*
X181488Y43941D01*
X188303Y41118D01*
X193518Y35903D01*
X196341Y29088D01*
X196341Y21712D01*
X193518Y14897D01*
X188303Y9682D01*
X181488Y6859D01*
X174112Y6859D01*
G37*
%LPD*%
%LPC*%
G36*
X110598Y80517D02*
X110598Y80517D01*
X108450Y81407D01*
X106807Y83050D01*
X105917Y85198D01*
X105917Y87522D01*
X106807Y89670D01*
X108450Y91313D01*
X110598Y92203D01*
X112922Y92203D01*
X115070Y91313D01*
X116186Y90196D01*
X116233Y90161D01*
X116273Y90119D01*
X116346Y90076D01*
X116414Y90026D01*
X116468Y90005D01*
X116519Y89975D01*
X116600Y89954D01*
X116679Y89924D01*
X116738Y89920D01*
X116794Y89905D01*
X116878Y89908D01*
X116963Y89901D01*
X117020Y89912D01*
X117078Y89914D01*
X117159Y89940D01*
X117241Y89957D01*
X117293Y89984D01*
X117349Y90002D01*
X117405Y90042D01*
X117494Y90088D01*
X117566Y90156D01*
X117622Y90196D01*
X119543Y92117D01*
X119595Y92187D01*
X119655Y92251D01*
X119681Y92300D01*
X119714Y92344D01*
X119745Y92426D01*
X119785Y92504D01*
X119793Y92552D01*
X119815Y92610D01*
X119825Y92725D01*
X119826Y92730D01*
X119827Y92753D01*
X119827Y92758D01*
X119840Y92835D01*
X119840Y93343D01*
X119828Y93430D01*
X119825Y93517D01*
X119808Y93570D01*
X119800Y93625D01*
X119765Y93704D01*
X119738Y93788D01*
X119710Y93827D01*
X119684Y93884D01*
X119588Y93997D01*
X119543Y94061D01*
X118467Y95137D01*
X118467Y97593D01*
X118463Y97622D01*
X118466Y97652D01*
X118443Y97763D01*
X118427Y97875D01*
X118415Y97902D01*
X118410Y97930D01*
X118357Y98031D01*
X118311Y98134D01*
X118292Y98157D01*
X118279Y98183D01*
X118201Y98265D01*
X118128Y98351D01*
X118103Y98368D01*
X118083Y98389D01*
X117985Y98446D01*
X117891Y98509D01*
X117863Y98518D01*
X117838Y98533D01*
X117728Y98560D01*
X117620Y98595D01*
X117590Y98595D01*
X117562Y98603D01*
X117449Y98599D01*
X117336Y98602D01*
X117307Y98595D01*
X117278Y98594D01*
X117170Y98559D01*
X117061Y98530D01*
X117035Y98515D01*
X117007Y98506D01*
X116944Y98461D01*
X116816Y98385D01*
X116773Y98339D01*
X116734Y98311D01*
X115070Y96647D01*
X112922Y95757D01*
X110598Y95757D01*
X108450Y96647D01*
X106807Y98290D01*
X105917Y100438D01*
X105917Y102762D01*
X106807Y104910D01*
X108450Y106553D01*
X110598Y107443D01*
X112922Y107443D01*
X115070Y106553D01*
X116226Y105397D01*
X116250Y105379D01*
X116269Y105357D01*
X116363Y105294D01*
X116453Y105226D01*
X116481Y105215D01*
X116505Y105199D01*
X116613Y105165D01*
X116719Y105125D01*
X116748Y105122D01*
X116776Y105113D01*
X116890Y105110D01*
X117002Y105101D01*
X117031Y105107D01*
X117060Y105106D01*
X117170Y105135D01*
X117281Y105157D01*
X117307Y105170D01*
X117335Y105178D01*
X117433Y105236D01*
X117533Y105288D01*
X117555Y105308D01*
X117580Y105323D01*
X117657Y105406D01*
X117739Y105484D01*
X117754Y105509D01*
X117774Y105530D01*
X117802Y105585D01*
X122000Y105585D01*
X127000Y105585D01*
X127058Y105593D01*
X127116Y105591D01*
X127198Y105613D01*
X127281Y105624D01*
X127335Y105648D01*
X127391Y105663D01*
X127464Y105706D01*
X127541Y105741D01*
X127585Y105778D01*
X127635Y105808D01*
X127693Y105870D01*
X127758Y105924D01*
X127790Y105973D01*
X127830Y106016D01*
X127868Y106091D01*
X127915Y106161D01*
X127933Y106217D01*
X127959Y106269D01*
X127971Y106337D01*
X128001Y106432D01*
X128004Y106532D01*
X128015Y106600D01*
X128007Y106658D01*
X128008Y106716D01*
X127987Y106798D01*
X127975Y106882D01*
X127951Y106935D01*
X127936Y106992D01*
X127908Y107039D01*
X127947Y107109D01*
X127952Y107127D01*
X127960Y107143D01*
X127972Y107214D01*
X128012Y107386D01*
X128008Y107430D01*
X128015Y107474D01*
X128015Y110511D01*
X128562Y110365D01*
X128611Y110359D01*
X128657Y110344D01*
X128751Y110342D01*
X128844Y110330D01*
X128893Y110338D01*
X128941Y110337D01*
X129032Y110360D01*
X129125Y110375D01*
X129169Y110396D01*
X129216Y110409D01*
X129297Y110457D01*
X129382Y110497D01*
X129419Y110529D01*
X129461Y110554D01*
X129525Y110622D01*
X129596Y110684D01*
X129622Y110726D01*
X129655Y110761D01*
X129698Y110845D01*
X129749Y110924D01*
X129763Y110971D01*
X129785Y111014D01*
X129797Y111087D01*
X129829Y111197D01*
X129830Y111283D01*
X129840Y111345D01*
X129840Y112575D01*
X136287Y119022D01*
X136414Y119040D01*
X136415Y119040D01*
X136417Y119040D01*
X136546Y119099D01*
X136673Y119156D01*
X136674Y119157D01*
X136676Y119158D01*
X136782Y119248D01*
X136890Y119339D01*
X136891Y119341D01*
X136892Y119342D01*
X136900Y119354D01*
X137048Y119576D01*
X137057Y119605D01*
X137070Y119626D01*
X137287Y120150D01*
X138930Y121793D01*
X141078Y122683D01*
X143402Y122683D01*
X145550Y121793D01*
X147193Y120150D01*
X148083Y118002D01*
X148083Y115678D01*
X147193Y113530D01*
X145550Y111887D01*
X143402Y110997D01*
X141078Y110997D01*
X138930Y111887D01*
X137814Y113004D01*
X137767Y113039D01*
X137727Y113081D01*
X137654Y113124D01*
X137586Y113174D01*
X137532Y113195D01*
X137481Y113225D01*
X137400Y113246D01*
X137321Y113276D01*
X137262Y113280D01*
X137206Y113295D01*
X137122Y113292D01*
X137037Y113299D01*
X136980Y113288D01*
X136922Y113286D01*
X136841Y113260D01*
X136759Y113243D01*
X136707Y113216D01*
X136651Y113198D01*
X136595Y113158D01*
X136506Y113112D01*
X136434Y113044D01*
X136378Y113004D01*
X134457Y111083D01*
X134405Y111013D01*
X134345Y110949D01*
X134319Y110900D01*
X134286Y110856D01*
X134255Y110774D01*
X134215Y110696D01*
X134207Y110648D01*
X134185Y110590D01*
X134173Y110442D01*
X134160Y110365D01*
X134160Y109857D01*
X134172Y109770D01*
X134175Y109683D01*
X134192Y109630D01*
X134200Y109575D01*
X134235Y109496D01*
X134262Y109412D01*
X134290Y109373D01*
X134316Y109316D01*
X134412Y109203D01*
X134457Y109139D01*
X135533Y108063D01*
X135533Y105607D01*
X135537Y105577D01*
X135534Y105548D01*
X135557Y105437D01*
X135573Y105325D01*
X135585Y105298D01*
X135590Y105270D01*
X135643Y105169D01*
X135689Y105066D01*
X135708Y105043D01*
X135721Y105017D01*
X135799Y104935D01*
X135872Y104849D01*
X135897Y104832D01*
X135917Y104811D01*
X136015Y104754D01*
X136109Y104691D01*
X136137Y104682D01*
X136162Y104667D01*
X136272Y104640D01*
X136380Y104605D01*
X136410Y104605D01*
X136438Y104597D01*
X136551Y104601D01*
X136664Y104598D01*
X136693Y104605D01*
X136722Y104606D01*
X136830Y104641D01*
X136939Y104670D01*
X136965Y104685D01*
X136993Y104694D01*
X137056Y104739D01*
X137184Y104815D01*
X137227Y104861D01*
X137266Y104889D01*
X138930Y106553D01*
X141078Y107443D01*
X143402Y107443D01*
X145550Y106553D01*
X147193Y104910D01*
X148083Y102762D01*
X148083Y100438D01*
X147193Y98290D01*
X145550Y96647D01*
X143402Y95757D01*
X141078Y95757D01*
X138930Y96647D01*
X137266Y98311D01*
X137242Y98329D01*
X137223Y98351D01*
X137129Y98414D01*
X137039Y98482D01*
X137011Y98493D01*
X136987Y98509D01*
X136879Y98543D01*
X136773Y98583D01*
X136744Y98586D01*
X136716Y98595D01*
X136602Y98598D01*
X136490Y98607D01*
X136461Y98601D01*
X136432Y98602D01*
X136322Y98573D01*
X136211Y98551D01*
X136185Y98538D01*
X136157Y98530D01*
X136059Y98472D01*
X135959Y98420D01*
X135937Y98400D01*
X135912Y98385D01*
X135835Y98302D01*
X135753Y98224D01*
X135738Y98199D01*
X135718Y98178D01*
X135666Y98077D01*
X135609Y97979D01*
X135602Y97951D01*
X135588Y97924D01*
X135575Y97847D01*
X135539Y97704D01*
X135541Y97641D01*
X135533Y97593D01*
X135533Y95137D01*
X134537Y94141D01*
X134485Y94071D01*
X134425Y94007D01*
X134399Y93958D01*
X134366Y93914D01*
X134335Y93832D01*
X134295Y93754D01*
X134287Y93707D01*
X134265Y93648D01*
X134253Y93500D01*
X134240Y93423D01*
X134240Y92755D01*
X134252Y92668D01*
X134255Y92581D01*
X134272Y92528D01*
X134280Y92474D01*
X134315Y92394D01*
X134342Y92311D01*
X134370Y92271D01*
X134396Y92214D01*
X134492Y92101D01*
X134537Y92037D01*
X136378Y90196D01*
X136425Y90161D01*
X136465Y90119D01*
X136538Y90076D01*
X136605Y90026D01*
X136660Y90005D01*
X136710Y89975D01*
X136792Y89954D01*
X136871Y89924D01*
X136929Y89920D01*
X136986Y89905D01*
X137070Y89908D01*
X137154Y89901D01*
X137211Y89912D01*
X137270Y89914D01*
X137350Y89940D01*
X137433Y89957D01*
X137485Y89984D01*
X137540Y90002D01*
X137597Y90042D01*
X137685Y90088D01*
X137757Y90156D01*
X137814Y90196D01*
X138930Y91313D01*
X141078Y92203D01*
X143402Y92203D01*
X145550Y91313D01*
X147193Y89670D01*
X148083Y87522D01*
X148083Y85198D01*
X147193Y83050D01*
X145550Y81407D01*
X143402Y80517D01*
X141078Y80517D01*
X138930Y81407D01*
X137287Y83050D01*
X137070Y83574D01*
X137069Y83575D01*
X137069Y83576D01*
X137000Y83693D01*
X136926Y83818D01*
X136924Y83820D01*
X136924Y83821D01*
X136822Y83916D01*
X136719Y84014D01*
X136717Y84014D01*
X136716Y84015D01*
X136591Y84080D01*
X136466Y84144D01*
X136465Y84144D01*
X136463Y84145D01*
X136448Y84147D01*
X136286Y84179D01*
X134703Y85763D01*
X134576Y85890D01*
X134552Y85907D01*
X134533Y85930D01*
X134439Y85993D01*
X134349Y86061D01*
X134321Y86071D01*
X134297Y86087D01*
X134189Y86122D01*
X134083Y86162D01*
X134054Y86164D01*
X134026Y86173D01*
X133913Y86176D01*
X133800Y86186D01*
X133771Y86180D01*
X133742Y86180D01*
X133632Y86152D01*
X133521Y86130D01*
X133495Y86116D01*
X133467Y86109D01*
X133370Y86051D01*
X133269Y85999D01*
X133247Y85978D01*
X133222Y85963D01*
X133145Y85881D01*
X133063Y85803D01*
X133048Y85778D01*
X133028Y85756D01*
X132976Y85655D01*
X132919Y85558D01*
X132912Y85529D01*
X132898Y85503D01*
X132885Y85426D01*
X132849Y85282D01*
X132851Y85220D01*
X132850Y85215D01*
X131953Y83050D01*
X130310Y81407D01*
X128162Y80517D01*
X125838Y80517D01*
X123690Y81407D01*
X122047Y83050D01*
X121154Y85207D01*
X121156Y85230D01*
X121133Y85341D01*
X121117Y85453D01*
X121105Y85480D01*
X121100Y85509D01*
X121048Y85609D01*
X121001Y85713D01*
X120982Y85735D01*
X120969Y85761D01*
X120891Y85843D01*
X120818Y85930D01*
X120793Y85946D01*
X120773Y85967D01*
X120675Y86025D01*
X120581Y86087D01*
X120553Y86096D01*
X120528Y86111D01*
X120418Y86139D01*
X120310Y86173D01*
X120280Y86174D01*
X120252Y86181D01*
X120139Y86178D01*
X120026Y86180D01*
X119997Y86173D01*
X119968Y86172D01*
X119860Y86137D01*
X119751Y86109D01*
X119725Y86094D01*
X119697Y86085D01*
X119634Y86039D01*
X119506Y85963D01*
X119463Y85918D01*
X119424Y85890D01*
X119297Y85763D01*
X117713Y84178D01*
X117586Y84160D01*
X117585Y84160D01*
X117583Y84160D01*
X117453Y84100D01*
X117327Y84044D01*
X117326Y84043D01*
X117324Y84042D01*
X117218Y83952D01*
X117110Y83861D01*
X117109Y83859D01*
X117108Y83858D01*
X117100Y83846D01*
X116952Y83624D01*
X116943Y83595D01*
X116930Y83574D01*
X116713Y83050D01*
X115070Y81407D01*
X112922Y80517D01*
X110598Y80517D01*
G37*
%LPD*%
%LPC*%
G36*
X21402Y91947D02*
X21402Y91947D01*
X15747Y97602D01*
X15747Y105598D01*
X21402Y111253D01*
X29398Y111253D01*
X35053Y105598D01*
X35053Y104902D01*
X35061Y104844D01*
X35059Y104786D01*
X35081Y104704D01*
X35093Y104620D01*
X35116Y104567D01*
X35131Y104511D01*
X35174Y104438D01*
X35209Y104361D01*
X35247Y104316D01*
X35276Y104266D01*
X35338Y104208D01*
X35392Y104144D01*
X35441Y104112D01*
X35484Y104072D01*
X35559Y104033D01*
X35629Y103986D01*
X35685Y103969D01*
X35737Y103942D01*
X35805Y103931D01*
X35900Y103901D01*
X36000Y103898D01*
X36068Y103887D01*
X41872Y103887D01*
X41930Y103895D01*
X41988Y103893D01*
X42070Y103915D01*
X42154Y103927D01*
X42207Y103950D01*
X42263Y103965D01*
X42336Y104008D01*
X42413Y104043D01*
X42458Y104081D01*
X42508Y104110D01*
X42566Y104172D01*
X42630Y104226D01*
X42662Y104275D01*
X42702Y104318D01*
X42741Y104393D01*
X42788Y104463D01*
X42805Y104519D01*
X42832Y104571D01*
X42843Y104639D01*
X42873Y104734D01*
X42876Y104834D01*
X42887Y104902D01*
X42887Y107942D01*
X44078Y109133D01*
X55762Y109133D01*
X56953Y107942D01*
X56953Y95258D01*
X55762Y94067D01*
X44078Y94067D01*
X42887Y95258D01*
X42887Y98298D01*
X42879Y98356D01*
X42881Y98414D01*
X42859Y98496D01*
X42847Y98580D01*
X42824Y98633D01*
X42809Y98689D01*
X42766Y98762D01*
X42731Y98839D01*
X42693Y98884D01*
X42664Y98934D01*
X42602Y98992D01*
X42548Y99056D01*
X42499Y99088D01*
X42456Y99128D01*
X42381Y99167D01*
X42311Y99214D01*
X42255Y99231D01*
X42203Y99258D01*
X42135Y99269D01*
X42040Y99299D01*
X41940Y99302D01*
X41872Y99313D01*
X36068Y99313D01*
X36010Y99305D01*
X35952Y99307D01*
X35870Y99285D01*
X35786Y99273D01*
X35733Y99250D01*
X35677Y99235D01*
X35604Y99192D01*
X35527Y99157D01*
X35482Y99119D01*
X35432Y99090D01*
X35374Y99028D01*
X35310Y98974D01*
X35278Y98925D01*
X35238Y98882D01*
X35199Y98807D01*
X35152Y98737D01*
X35135Y98681D01*
X35108Y98629D01*
X35097Y98561D01*
X35067Y98466D01*
X35064Y98366D01*
X35053Y98298D01*
X35053Y97602D01*
X29398Y91947D01*
X21402Y91947D01*
G37*
%LPD*%
%LPC*%
G36*
X21402Y66547D02*
X21402Y66547D01*
X15747Y72202D01*
X15747Y80198D01*
X21402Y85853D01*
X29398Y85853D01*
X35053Y80198D01*
X35053Y79502D01*
X35061Y79444D01*
X35059Y79386D01*
X35081Y79304D01*
X35093Y79220D01*
X35116Y79167D01*
X35131Y79111D01*
X35174Y79038D01*
X35209Y78961D01*
X35247Y78916D01*
X35276Y78866D01*
X35338Y78808D01*
X35392Y78744D01*
X35441Y78712D01*
X35484Y78672D01*
X35559Y78633D01*
X35629Y78586D01*
X35685Y78569D01*
X35737Y78542D01*
X35805Y78531D01*
X35900Y78501D01*
X36000Y78498D01*
X36068Y78487D01*
X41872Y78487D01*
X41930Y78495D01*
X41988Y78493D01*
X42070Y78515D01*
X42154Y78527D01*
X42207Y78550D01*
X42263Y78565D01*
X42336Y78608D01*
X42413Y78643D01*
X42458Y78681D01*
X42508Y78710D01*
X42566Y78772D01*
X42630Y78826D01*
X42662Y78875D01*
X42702Y78918D01*
X42741Y78993D01*
X42788Y79063D01*
X42805Y79119D01*
X42832Y79171D01*
X42843Y79239D01*
X42873Y79334D01*
X42876Y79434D01*
X42887Y79502D01*
X42887Y82542D01*
X44078Y83733D01*
X55762Y83733D01*
X56953Y82542D01*
X56953Y69858D01*
X55762Y68667D01*
X44078Y68667D01*
X42887Y69858D01*
X42887Y72898D01*
X42879Y72956D01*
X42881Y73014D01*
X42859Y73096D01*
X42847Y73180D01*
X42824Y73233D01*
X42809Y73289D01*
X42766Y73362D01*
X42731Y73439D01*
X42693Y73484D01*
X42664Y73534D01*
X42602Y73592D01*
X42548Y73656D01*
X42499Y73688D01*
X42456Y73728D01*
X42381Y73767D01*
X42311Y73814D01*
X42255Y73831D01*
X42203Y73858D01*
X42135Y73869D01*
X42040Y73899D01*
X41940Y73902D01*
X41872Y73913D01*
X36068Y73913D01*
X36010Y73905D01*
X35952Y73907D01*
X35870Y73885D01*
X35786Y73873D01*
X35733Y73850D01*
X35677Y73835D01*
X35604Y73792D01*
X35527Y73757D01*
X35482Y73719D01*
X35432Y73690D01*
X35374Y73628D01*
X35310Y73574D01*
X35278Y73525D01*
X35238Y73482D01*
X35199Y73407D01*
X35152Y73337D01*
X35135Y73281D01*
X35108Y73229D01*
X35097Y73161D01*
X35067Y73066D01*
X35064Y72966D01*
X35053Y72898D01*
X35053Y72202D01*
X29398Y66547D01*
X21402Y66547D01*
G37*
%LPD*%
%LPC*%
G36*
X21402Y41147D02*
X21402Y41147D01*
X15747Y46802D01*
X15747Y54798D01*
X21402Y60453D01*
X29398Y60453D01*
X35053Y54798D01*
X35053Y54102D01*
X35061Y54044D01*
X35059Y53986D01*
X35081Y53904D01*
X35093Y53820D01*
X35116Y53767D01*
X35131Y53711D01*
X35174Y53638D01*
X35209Y53561D01*
X35247Y53516D01*
X35276Y53466D01*
X35338Y53408D01*
X35392Y53344D01*
X35441Y53312D01*
X35484Y53272D01*
X35559Y53233D01*
X35629Y53186D01*
X35685Y53169D01*
X35737Y53142D01*
X35805Y53131D01*
X35900Y53101D01*
X36000Y53098D01*
X36068Y53087D01*
X41872Y53087D01*
X41930Y53095D01*
X41988Y53093D01*
X42070Y53115D01*
X42154Y53127D01*
X42207Y53150D01*
X42263Y53165D01*
X42336Y53208D01*
X42413Y53243D01*
X42458Y53281D01*
X42508Y53310D01*
X42566Y53372D01*
X42630Y53426D01*
X42662Y53475D01*
X42702Y53518D01*
X42741Y53593D01*
X42788Y53663D01*
X42805Y53719D01*
X42832Y53771D01*
X42843Y53839D01*
X42873Y53934D01*
X42876Y54034D01*
X42887Y54102D01*
X42887Y57142D01*
X44078Y58333D01*
X55762Y58333D01*
X56953Y57142D01*
X56953Y44458D01*
X55762Y43267D01*
X44078Y43267D01*
X42887Y44458D01*
X42887Y47498D01*
X42879Y47556D01*
X42881Y47614D01*
X42859Y47696D01*
X42847Y47780D01*
X42824Y47833D01*
X42809Y47889D01*
X42766Y47962D01*
X42731Y48039D01*
X42693Y48084D01*
X42664Y48134D01*
X42602Y48192D01*
X42548Y48256D01*
X42499Y48288D01*
X42456Y48328D01*
X42381Y48367D01*
X42311Y48414D01*
X42255Y48431D01*
X42203Y48458D01*
X42135Y48469D01*
X42040Y48499D01*
X41940Y48502D01*
X41872Y48513D01*
X36068Y48513D01*
X36010Y48505D01*
X35952Y48507D01*
X35870Y48485D01*
X35786Y48473D01*
X35733Y48450D01*
X35677Y48435D01*
X35604Y48392D01*
X35527Y48357D01*
X35482Y48319D01*
X35432Y48290D01*
X35374Y48228D01*
X35310Y48174D01*
X35278Y48125D01*
X35238Y48082D01*
X35199Y48007D01*
X35152Y47937D01*
X35135Y47881D01*
X35108Y47829D01*
X35097Y47761D01*
X35067Y47666D01*
X35064Y47566D01*
X35053Y47498D01*
X35053Y46802D01*
X29398Y41147D01*
X21402Y41147D01*
G37*
%LPD*%
%LPC*%
G36*
X187959Y93099D02*
X187959Y93099D01*
X187959Y94116D01*
X187951Y94174D01*
X187952Y94232D01*
X187931Y94314D01*
X187919Y94397D01*
X187895Y94451D01*
X187881Y94507D01*
X187838Y94580D01*
X187803Y94657D01*
X187765Y94701D01*
X187735Y94752D01*
X187674Y94809D01*
X187619Y94874D01*
X187571Y94906D01*
X187528Y94946D01*
X187453Y94985D01*
X187383Y95031D01*
X187327Y95049D01*
X187275Y95076D01*
X187207Y95087D01*
X187112Y95117D01*
X187012Y95120D01*
X186944Y95131D01*
X180419Y95131D01*
X180419Y98934D01*
X180592Y99581D01*
X180927Y100160D01*
X181400Y100633D01*
X181936Y100942D01*
X181974Y100972D01*
X182017Y100995D01*
X182085Y101059D01*
X182159Y101118D01*
X182188Y101157D01*
X182223Y101191D01*
X182271Y101272D01*
X182326Y101348D01*
X182342Y101394D01*
X182367Y101436D01*
X182390Y101527D01*
X182422Y101615D01*
X182425Y101664D01*
X182437Y101711D01*
X182434Y101805D01*
X182440Y101899D01*
X182430Y101947D01*
X182428Y101996D01*
X182399Y102085D01*
X182379Y102177D01*
X182356Y102220D01*
X182341Y102266D01*
X182298Y102326D01*
X182243Y102427D01*
X182182Y102488D01*
X182146Y102539D01*
X180927Y103758D01*
X180927Y116442D01*
X182118Y117633D01*
X184073Y117633D01*
X184102Y117637D01*
X184132Y117634D01*
X184243Y117657D01*
X184355Y117673D01*
X184382Y117685D01*
X184410Y117690D01*
X184511Y117743D01*
X184614Y117789D01*
X184637Y117808D01*
X184663Y117821D01*
X184745Y117899D01*
X184831Y117972D01*
X184848Y117997D01*
X184869Y118017D01*
X184926Y118115D01*
X184989Y118209D01*
X184998Y118237D01*
X185013Y118262D01*
X185040Y118372D01*
X185075Y118480D01*
X185075Y118510D01*
X185083Y118538D01*
X185079Y118651D01*
X185082Y118764D01*
X185075Y118793D01*
X185074Y118822D01*
X185039Y118930D01*
X185010Y119039D01*
X184995Y119065D01*
X184986Y119093D01*
X184941Y119156D01*
X184865Y119284D01*
X184819Y119327D01*
X184791Y119366D01*
X183007Y121150D01*
X182117Y123298D01*
X182117Y125622D01*
X183007Y127770D01*
X184650Y129413D01*
X186798Y130303D01*
X189122Y130303D01*
X191270Y129413D01*
X192913Y127770D01*
X193803Y125622D01*
X193803Y123298D01*
X192913Y121150D01*
X191129Y119366D01*
X191111Y119342D01*
X191089Y119323D01*
X191026Y119229D01*
X190958Y119139D01*
X190947Y119111D01*
X190931Y119087D01*
X190897Y118979D01*
X190857Y118873D01*
X190854Y118844D01*
X190845Y118816D01*
X190842Y118702D01*
X190833Y118590D01*
X190839Y118561D01*
X190838Y118532D01*
X190867Y118422D01*
X190889Y118311D01*
X190902Y118285D01*
X190910Y118257D01*
X190968Y118159D01*
X191020Y118059D01*
X191040Y118037D01*
X191055Y118012D01*
X191138Y117935D01*
X191216Y117853D01*
X191241Y117838D01*
X191262Y117818D01*
X191363Y117766D01*
X191461Y117709D01*
X191489Y117702D01*
X191516Y117688D01*
X191593Y117675D01*
X191736Y117639D01*
X191799Y117641D01*
X191847Y117633D01*
X193802Y117633D01*
X194993Y116442D01*
X194993Y103758D01*
X193774Y102539D01*
X193745Y102501D01*
X193709Y102468D01*
X193660Y102387D01*
X193603Y102312D01*
X193586Y102267D01*
X193560Y102225D01*
X193535Y102134D01*
X193502Y102047D01*
X193498Y101998D01*
X193485Y101951D01*
X193486Y101857D01*
X193478Y101763D01*
X193488Y101716D01*
X193489Y101667D01*
X193516Y101577D01*
X193534Y101485D01*
X193557Y101441D01*
X193571Y101395D01*
X193622Y101316D01*
X193665Y101232D01*
X193699Y101197D01*
X193725Y101156D01*
X193783Y101109D01*
X193861Y101026D01*
X193936Y100982D01*
X193984Y100942D01*
X194520Y100633D01*
X194993Y100160D01*
X195328Y99581D01*
X195501Y98934D01*
X195501Y95131D01*
X188976Y95131D01*
X188918Y95123D01*
X188860Y95124D01*
X188778Y95103D01*
X188695Y95091D01*
X188641Y95067D01*
X188585Y95053D01*
X188512Y95010D01*
X188435Y94975D01*
X188391Y94937D01*
X188340Y94907D01*
X188283Y94846D01*
X188218Y94791D01*
X188186Y94743D01*
X188146Y94700D01*
X188107Y94625D01*
X188061Y94555D01*
X188043Y94499D01*
X188016Y94447D01*
X188005Y94379D01*
X187975Y94284D01*
X187972Y94184D01*
X187961Y94116D01*
X187961Y93099D01*
X187959Y93099D01*
G37*
%LPD*%
%LPC*%
G36*
X21402Y142747D02*
X21402Y142747D01*
X15747Y148402D01*
X15747Y156398D01*
X21402Y162053D01*
X29398Y162053D01*
X35053Y156398D01*
X35053Y148402D01*
X29398Y142747D01*
X21402Y142747D01*
G37*
%LPD*%
%LPC*%
G36*
X21402Y117347D02*
X21402Y117347D01*
X15747Y123002D01*
X15747Y130998D01*
X21402Y136653D01*
X29398Y136653D01*
X35053Y130998D01*
X35053Y123002D01*
X29398Y117347D01*
X21402Y117347D01*
G37*
%LPD*%
%LPC*%
G36*
X27431Y27431D02*
X27431Y27431D01*
X27431Y35561D01*
X29609Y35561D01*
X35561Y29609D01*
X35561Y27431D01*
X27431Y27431D01*
G37*
%LPD*%
%LPC*%
G36*
X15239Y27431D02*
X15239Y27431D01*
X15239Y29609D01*
X21191Y35561D01*
X23369Y35561D01*
X23369Y27431D01*
X15239Y27431D01*
G37*
%LPD*%
%LPC*%
G36*
X27431Y15239D02*
X27431Y15239D01*
X27431Y23369D01*
X35561Y23369D01*
X35561Y21191D01*
X29609Y15239D01*
X27431Y15239D01*
G37*
%LPD*%
%LPC*%
G36*
X21191Y15239D02*
X21191Y15239D01*
X15239Y21191D01*
X15239Y23369D01*
X23369Y23369D01*
X23369Y15239D01*
X21191Y15239D01*
G37*
%LPD*%
%LPC*%
G36*
X189991Y85059D02*
X189991Y85059D01*
X189991Y91069D01*
X195501Y91069D01*
X195501Y87266D01*
X195328Y86619D01*
X194993Y86040D01*
X194520Y85567D01*
X193941Y85232D01*
X193294Y85059D01*
X189991Y85059D01*
G37*
%LPD*%
%LPC*%
G36*
X182626Y85059D02*
X182626Y85059D01*
X181979Y85232D01*
X181400Y85567D01*
X180927Y86040D01*
X180592Y86619D01*
X180419Y87266D01*
X180419Y91069D01*
X185929Y91069D01*
X185929Y85059D01*
X182626Y85059D01*
G37*
%LPD*%
%LPC*%
G36*
X123015Y107615D02*
X123015Y107615D01*
X123015Y110511D01*
X123560Y110365D01*
X123992Y110116D01*
X124065Y110086D01*
X124132Y110048D01*
X124196Y110034D01*
X124256Y110009D01*
X124333Y110001D01*
X124409Y109984D01*
X124474Y109987D01*
X124539Y109980D01*
X124615Y109994D01*
X124693Y109998D01*
X124745Y110018D01*
X124819Y110031D01*
X124935Y110088D01*
X125008Y110116D01*
X125440Y110365D01*
X125985Y110511D01*
X125985Y107615D01*
X123015Y107615D01*
G37*
%LPD*%
%LPC*%
G36*
X118089Y107615D02*
X118089Y107615D01*
X118235Y108160D01*
X118767Y109081D01*
X119519Y109833D01*
X120440Y110365D01*
X120985Y110511D01*
X120985Y107615D01*
X118089Y107615D01*
G37*
%LPD*%
%LPC*%
G36*
X25399Y25399D02*
X25399Y25399D01*
X25399Y25401D01*
X25401Y25401D01*
X25401Y25399D01*
X25399Y25399D01*
G37*
%LPD*%
D10*
X127000Y101600D03*
D11*
X122000Y106600D03*
X127000Y106600D03*
X132000Y106600D03*
X122000Y101600D03*
X132000Y101600D03*
X122000Y96600D03*
X127000Y96600D03*
X132000Y96600D03*
D12*
X187960Y110100D03*
X187960Y93100D03*
D13*
X25400Y177800D03*
D14*
X25400Y152400D03*
X25400Y127000D03*
X25400Y101600D03*
X25400Y76200D03*
X25400Y50800D03*
X25400Y25400D03*
D12*
X49920Y50800D03*
X66920Y50800D03*
X49920Y76200D03*
X66920Y76200D03*
X49920Y101600D03*
X66920Y101600D03*
D15*
X132000Y96600D02*
X132080Y96520D01*
X132080Y91440D01*
X137160Y86360D01*
X142240Y86360D01*
D16*
X49920Y76200D02*
X25400Y76200D01*
D17*
X142240Y86360D03*
D15*
X127000Y86360D02*
X127000Y96600D01*
D16*
X49920Y101600D02*
X25400Y101600D01*
D17*
X127000Y86360D03*
D15*
X127000Y101600D02*
X127000Y106600D01*
X122000Y106600D02*
X122000Y114220D01*
X119380Y116840D01*
X111760Y116840D01*
X127000Y116840D02*
X127000Y106600D01*
D17*
X111760Y116840D03*
X127000Y116840D03*
D15*
X132000Y111680D02*
X132000Y106600D01*
X132000Y111680D02*
X137160Y116840D01*
X142240Y116840D01*
D16*
X187960Y110100D02*
X187960Y124460D01*
X66920Y101600D02*
X66920Y76200D01*
X66920Y50800D01*
X66920Y101600D02*
X66920Y161680D01*
X50800Y177800D01*
X25400Y177800D01*
D17*
X142240Y116840D03*
X187960Y124460D03*
D15*
X142240Y101600D02*
X132000Y101600D01*
D16*
X49920Y50800D02*
X25400Y50800D01*
D17*
X142240Y101600D03*
D15*
X122000Y96600D02*
X122000Y91520D01*
X116840Y86360D01*
X111760Y86360D01*
D17*
X111760Y86360D03*
D15*
X111760Y101600D02*
X122000Y101600D01*
D17*
X111760Y101600D03*
M02*
