%
M48
M72
T01C0.0150
T02C0.0200
T03C0.0236
T04C0.0315
T05C0.0354
T06C0.0400
T07C0.0630
T08C0.0787
T09C0.1102
%
T01
X7061Y10826
X16361Y14626
X16761Y15026
X17661Y14926
X16961Y11876
X17661Y11526
X18761Y10326
X19661Y11326
X21861Y11126
X21861Y11626
X22661Y11626
X24161Y12526
X23961Y13426
X24661Y13526
X26961Y15426
X26961Y15926
X25861Y20176
X25961Y21026
X24961Y21926
X23011Y20826
X22461Y23026
X22761Y23426
X21361Y23076
X22961Y26126
X23461Y28726
X28161Y28326
X28161Y23426
X29461Y21826
X28161Y21226
X28161Y20726
X17261Y21626
X16461Y21926
X15861Y22451
X16611Y23176
X16961Y23526
X17161Y22926
X15261Y23951
X14161Y24326
X13361Y24726
X13561Y23151
X14761Y22026
X16761Y25126
X15561Y27326
X13861Y28426
X12661Y28426
X16361Y18126
X21861Y10126
X22661Y9926
X22261Y9426
T02
X22661Y12126
X21061Y12976
X20161Y12976
X19361Y12576
X18861Y14726
X16361Y15926
X16761Y16426
X17461Y17376
X17961Y17026
X18911Y16576
X19711Y17526
X19711Y18926
X18911Y19976
X17961Y20826
X16761Y19226
X17461Y18376
X13261Y19576
X13261Y20076
X10361Y21426
X7961Y21926
X7861Y23926
X6861Y23926
X6161Y24726
X6861Y25826
X7861Y25826
X8561Y24726
X4561Y24626
X3961Y25826
X3961Y27026
X1761Y25926
X861Y24626
X1761Y23426
X1561Y22726
X3461Y22426
X3961Y23026
X5561Y21126
X5561Y20426
X5561Y19726
X5561Y19026
X5961Y17626
X5961Y16626
X5461Y15926
X7261Y15326
X9687Y14526
X10761Y15426
X12061Y15826
X12961Y15826
X12961Y16376
X13961Y14526
X13261Y13426
X14061Y11626
X14061Y10826
X14061Y9426
X14061Y8126
X12561Y9426
X10461Y9826
X10461Y9026
X10061Y8226
X8861Y8326
X8261Y10026
X8261Y10826
X7061Y10026
X5861Y10026
X4461Y8726
X3361Y8726
X2161Y10426
X2161Y13226
X1061Y15926
X1361Y17826
X2561Y18726
X3711Y18376
X10761Y17576
X15961Y13776
X11861Y11626
X7861Y13126
X6661Y12926
X5861Y13026
X5961Y7826
X8161Y6426
X10061Y5626
X11561Y5926
X11861Y7226
X13961Y6076
X15261Y4626
X15861Y5576
X17661Y5826
X18261Y5226
X18061Y4826
X18961Y5126
X20761Y3526
X20261Y2026
X18961Y1526
X21761Y2026
X24661Y3526
X25661Y2026
X25661Y1126
X29361Y2026
X18461Y7676
X17461Y9826
X16761Y10326
X16161Y9526
X21561Y14726
X21961Y15626
X22711Y14726
X24136Y14426
X23361Y16476
X22311Y17626
X22311Y18926
X23361Y18776
X22111Y19976
X20861Y21626
X19561Y23126
X21961Y26126
X24061Y25726
X19261Y27026
X28161Y29126
X28161Y19226
X26961Y13926
X26061Y10476
X14861Y2776
X14061Y2176
X14461Y1376
X15261Y1376
X15661Y2176
X9261Y3526
X8161Y4526
X8061Y1526
X6061Y1526
X3561Y1626
X4261Y3626
X4161Y5426
X661Y3826
T03
X11461Y23726
T04
X25561Y11926
X26561Y11926
X26561Y10926
X25561Y10926
X25561Y9926
X26561Y9926
X26561Y8926
X25561Y8926
X861Y8526
X861Y9526
X861Y7526
T05
X13945Y2726
X15677Y2726
X7861Y24726
X6861Y24726
T06
X16761Y28826
X17761Y28826
X18761Y28826
X19761Y28826
X24961Y27926
X24961Y26926
X24961Y25926
X24961Y24926
X24961Y23926
X24961Y22926
X33461Y22926
X33461Y23926
X33461Y24926
X33461Y21926
X33461Y20926
X33461Y19926
X33461Y18926
X33461Y17926
X33461Y16926
X33461Y15926
X33461Y14926
X33461Y13926
X33461Y12926
X33461Y11926
X33461Y10926
X33461Y9926
X33461Y8926
X33461Y7926
X23361Y6626
X22361Y6626
X21361Y6626
X20361Y6626
X19361Y6626
X19661Y8326
T07
X7061Y4126
X7061Y2126
T08
X5861Y26726
X9861Y26726
T09
X1661Y2226
X32811Y2226
X32811Y28126
X1661Y28126
M30
