G75*
G70*
%OFA0B0*%
%FSLAX24Y24*%
%IPPOS*%
%LPD*%
%AMOC8*
5,1,8,0,0,1.08239X$1,22.5*
%
%ADD10R,0.0946X0.0316*%
%ADD11R,0.0217X0.0630*%
%ADD12R,0.0297X0.0552*%
%ADD13R,0.0434X0.0198*%
%ADD14R,0.0198X0.0434*%
%ADD15R,0.0789X0.0867*%
%ADD16R,0.0720X0.0720*%
%ADD17C,0.0720*%
%ADD18R,0.0513X0.0474*%
%ADD19R,0.0474X0.0513*%
%ADD20OC8,0.0720*%
%ADD21R,0.0867X0.1064*%
%ADD22R,0.0277X0.0986*%
%ADD23C,0.0434*%
%ADD24R,0.0631X0.0710*%
%ADD25R,0.0828X0.1419*%
%ADD26C,0.2180*%
%ADD27R,0.0710X0.0631*%
%ADD28R,0.0730X0.0380*%
%ADD29R,0.0552X0.0552*%
%ADD30R,0.0840X0.2180*%
%ADD31R,0.0592X0.0671*%
%ADD32R,0.0635X0.0635*%
%ADD33C,0.0635*%
%ADD34R,0.0631X0.0474*%
%ADD35R,0.0592X0.0592*%
%ADD36R,0.0592X0.0867*%
%ADD37R,0.0316X0.0946*%
%ADD38R,0.0474X0.0631*%
%ADD39R,0.0867X0.0671*%
%ADD40R,0.0867X0.1576*%
%ADD41C,0.0867*%
%ADD42C,0.0674*%
%ADD43R,0.0533X0.0253*%
%ADD44R,0.0533X0.0328*%
%ADD45R,0.0749X0.0237*%
%ADD46C,0.0710*%
%ADD47R,0.1025X0.1182*%
%ADD48R,0.0970X0.0210*%
D10*
X021138Y009576D03*
X021138Y010076D03*
X021138Y010576D03*
X021138Y011076D03*
X023835Y011076D03*
X023835Y010576D03*
X023835Y010076D03*
X023835Y009576D03*
D11*
X017825Y010965D03*
X017569Y010965D03*
X017313Y010965D03*
X017057Y010965D03*
X016801Y010965D03*
X016545Y010965D03*
X016289Y010965D03*
X016033Y010965D03*
X015777Y010965D03*
X015521Y010965D03*
X015266Y010965D03*
X015010Y010965D03*
X014754Y010965D03*
X014498Y010965D03*
X014498Y008086D03*
X014754Y008086D03*
X015010Y008086D03*
X015266Y008086D03*
X015521Y008086D03*
X015777Y008086D03*
X016033Y008086D03*
X016289Y008086D03*
X016545Y008086D03*
X016801Y008086D03*
X017057Y008086D03*
X017313Y008086D03*
X017569Y008086D03*
X017825Y008086D03*
D12*
X010435Y011314D03*
X010061Y011314D03*
X009687Y011314D03*
X009687Y012337D03*
X010435Y012337D03*
X007435Y012337D03*
X006687Y012337D03*
X006687Y011314D03*
X007061Y011314D03*
X007435Y011314D03*
X007435Y009337D03*
X007061Y009337D03*
X006687Y009337D03*
X006687Y008314D03*
X007435Y008314D03*
X003735Y011314D03*
X003361Y011314D03*
X002987Y011314D03*
X002987Y012337D03*
X003735Y012337D03*
D13*
X015629Y014781D03*
X015629Y014978D03*
X015629Y015174D03*
X015629Y015371D03*
X015629Y015568D03*
X015629Y015765D03*
X015629Y015962D03*
X015629Y016159D03*
X015629Y016356D03*
X015629Y016552D03*
X015629Y016749D03*
X015629Y016946D03*
X015629Y017143D03*
X015629Y017340D03*
X015629Y017537D03*
X015629Y017734D03*
X015629Y017930D03*
X015629Y018127D03*
X015629Y018324D03*
X015629Y018521D03*
X015629Y018718D03*
X015629Y018915D03*
X015629Y019111D03*
X015629Y019308D03*
X015629Y019505D03*
X015629Y019702D03*
X015629Y019899D03*
X015629Y020096D03*
X015629Y020293D03*
X015629Y020489D03*
X015629Y020686D03*
X015629Y020883D03*
X015629Y021080D03*
X015629Y021277D03*
X015629Y021474D03*
X015629Y021671D03*
X024094Y021671D03*
X024094Y021474D03*
X024094Y021277D03*
X024094Y021080D03*
X024094Y020883D03*
X024094Y020686D03*
X024094Y020489D03*
X024094Y020293D03*
X024094Y020096D03*
X024094Y019899D03*
X024094Y019702D03*
X024094Y019505D03*
X024094Y019308D03*
X024094Y019111D03*
X024094Y018915D03*
X024094Y018718D03*
X024094Y018521D03*
X024094Y018324D03*
X024094Y018127D03*
X024094Y017930D03*
X024094Y017734D03*
X024094Y017537D03*
X024094Y017340D03*
X024094Y017143D03*
X024094Y016946D03*
X024094Y016749D03*
X024094Y016552D03*
X024094Y016356D03*
X024094Y016159D03*
X024094Y015962D03*
X024094Y015765D03*
X024094Y015568D03*
X024094Y015371D03*
X024094Y015174D03*
X024094Y014978D03*
X024094Y014781D03*
D14*
X023306Y013993D03*
X023109Y013993D03*
X022912Y013993D03*
X022716Y013993D03*
X022519Y013993D03*
X022322Y013993D03*
X022125Y013993D03*
X021928Y013993D03*
X021731Y013993D03*
X021534Y013993D03*
X021338Y013993D03*
X021141Y013993D03*
X020944Y013993D03*
X020747Y013993D03*
X020550Y013993D03*
X020353Y013993D03*
X020157Y013993D03*
X019960Y013993D03*
X019763Y013993D03*
X019566Y013993D03*
X019369Y013993D03*
X019172Y013993D03*
X018975Y013993D03*
X018779Y013993D03*
X018582Y013993D03*
X018385Y013993D03*
X018188Y013993D03*
X017991Y013993D03*
X017794Y013993D03*
X017597Y013993D03*
X017401Y013993D03*
X017204Y013993D03*
X017007Y013993D03*
X016810Y013993D03*
X016613Y013993D03*
X016416Y013993D03*
X016416Y022458D03*
X016613Y022458D03*
X016810Y022458D03*
X017007Y022458D03*
X017204Y022458D03*
X017401Y022458D03*
X017597Y022458D03*
X017794Y022458D03*
X017991Y022458D03*
X018188Y022458D03*
X018385Y022458D03*
X018582Y022458D03*
X018779Y022458D03*
X018975Y022458D03*
X019172Y022458D03*
X019369Y022458D03*
X019566Y022458D03*
X019763Y022458D03*
X019960Y022458D03*
X020157Y022458D03*
X020353Y022458D03*
X020550Y022458D03*
X020747Y022458D03*
X020944Y022458D03*
X021141Y022458D03*
X021338Y022458D03*
X021534Y022458D03*
X021731Y022458D03*
X021928Y022458D03*
X022125Y022458D03*
X022322Y022458D03*
X022519Y022458D03*
X022716Y022458D03*
X022912Y022458D03*
X023109Y022458D03*
X023306Y022458D03*
D15*
X022961Y025299D03*
X022961Y026952D03*
X020961Y026952D03*
X020961Y025299D03*
D16*
X024961Y027926D03*
X019761Y028826D03*
X033461Y024926D03*
X033461Y007926D03*
X023361Y006626D03*
D17*
X022361Y006626D03*
X021361Y006626D03*
X020361Y006626D03*
X019361Y006626D03*
X024961Y022926D03*
X024961Y023926D03*
X024961Y024926D03*
X024961Y025926D03*
X024961Y026926D03*
D18*
X028161Y025760D03*
X028161Y025091D03*
X029661Y024060D03*
X029661Y023391D03*
X029496Y021226D03*
X028827Y021226D03*
X025346Y020176D03*
X024677Y020176D03*
X025727Y015926D03*
X025727Y015426D03*
X026396Y015426D03*
X026396Y015926D03*
X023461Y013360D03*
X023461Y012691D03*
X023727Y011926D03*
X024396Y011926D03*
X020161Y010960D03*
X020161Y010291D03*
X017161Y012591D03*
X017161Y013260D03*
X014296Y015826D03*
X014296Y016326D03*
X013627Y016326D03*
X013627Y015826D03*
X009996Y015426D03*
X009327Y015426D03*
X007196Y016626D03*
X006527Y016626D03*
X006527Y017626D03*
X007196Y017626D03*
X007196Y019026D03*
X006527Y019026D03*
X006527Y020426D03*
X007196Y020426D03*
X009661Y020560D03*
X009661Y019891D03*
X009661Y021291D03*
X009661Y021960D03*
X011861Y020560D03*
X011861Y019891D03*
X013927Y020076D03*
X013927Y019551D03*
X014596Y019551D03*
X014596Y020076D03*
X014796Y023226D03*
X014127Y023226D03*
X015827Y023926D03*
X016496Y023926D03*
X004461Y023560D03*
X004461Y022891D03*
X003396Y023126D03*
X002727Y023126D03*
X001511Y020760D03*
X000961Y020760D03*
X000961Y020091D03*
X001511Y020091D03*
X004311Y020010D03*
X004311Y019341D03*
X004461Y025691D03*
X004461Y026360D03*
X003396Y026226D03*
X002727Y026226D03*
X016461Y006760D03*
X017061Y006760D03*
X017061Y006091D03*
X016461Y006091D03*
X019661Y004160D03*
X019661Y003491D03*
X023761Y002160D03*
X023761Y001491D03*
X027561Y001491D03*
X027561Y002160D03*
X029661Y009391D03*
X029661Y010060D03*
X010861Y005160D03*
X010861Y004491D03*
D19*
X015861Y006091D03*
X015861Y006760D03*
X011211Y008391D03*
X011211Y009060D03*
X011211Y009791D03*
X011211Y010460D03*
X011061Y011491D03*
X011061Y012160D03*
X008261Y012160D03*
X008261Y011491D03*
X005861Y009160D03*
X005861Y008491D03*
X005361Y007860D03*
X005361Y007191D03*
X004461Y009691D03*
X004461Y010360D03*
X004661Y014391D03*
X004661Y015060D03*
X003861Y016491D03*
X003861Y017160D03*
X004261Y018041D03*
X004261Y018710D03*
X003211Y018710D03*
X003211Y018041D03*
X001661Y017160D03*
X001661Y016491D03*
X001561Y021291D03*
X001561Y021960D03*
X013527Y022026D03*
X014196Y022026D03*
X015427Y023226D03*
X016096Y023226D03*
X021361Y023591D03*
X021361Y024260D03*
X022211Y024260D03*
X022211Y023591D03*
X024111Y023260D03*
X024111Y022591D03*
X026827Y021826D03*
X026827Y021226D03*
X027496Y021226D03*
X027496Y021826D03*
X023961Y026291D03*
X023961Y026960D03*
X022196Y028326D03*
X021527Y028326D03*
X022061Y013360D03*
X022661Y013360D03*
X022661Y012691D03*
X022061Y012691D03*
X018761Y012591D03*
X018161Y012591D03*
X018161Y013260D03*
X018761Y013260D03*
X014061Y012860D03*
X014061Y012191D03*
X022727Y008226D03*
X023396Y008226D03*
X003561Y003060D03*
X003561Y002391D03*
D20*
X019661Y008326D03*
X033461Y008926D03*
X033461Y009926D03*
X033461Y010926D03*
X033461Y011926D03*
X033461Y012926D03*
X033461Y013926D03*
X033461Y014926D03*
X033461Y015926D03*
X033461Y016926D03*
X033461Y017926D03*
X033461Y018926D03*
X033461Y019926D03*
X033461Y020926D03*
X033461Y021926D03*
X033461Y022926D03*
X033461Y023926D03*
X018761Y028826D03*
X017761Y028826D03*
X016761Y028826D03*
D21*
X016563Y003710D03*
X016563Y001545D03*
X013059Y001545D03*
X013059Y003710D03*
D22*
X014181Y003749D03*
X014496Y003749D03*
X014811Y003749D03*
X015126Y003749D03*
X015441Y003749D03*
D23*
X015677Y002726D03*
X013945Y002726D03*
D24*
X008261Y008235D03*
X008261Y009416D03*
X008961Y011235D03*
X008961Y012416D03*
X005861Y012416D03*
X005861Y011235D03*
X004461Y011235D03*
X003361Y010616D03*
X002161Y011235D03*
X002161Y012416D03*
X004461Y012416D03*
X003361Y009435D03*
X003361Y008116D03*
X004461Y008116D03*
X004461Y006935D03*
X003361Y006935D03*
X004661Y016035D03*
X004661Y017216D03*
X016361Y013116D03*
X016361Y011935D03*
D25*
X010829Y007026D03*
X009294Y007026D03*
D26*
X001661Y002226D03*
X032811Y002226D03*
X032811Y028126D03*
X001661Y028126D03*
D27*
X006271Y021126D03*
X007452Y021126D03*
X007452Y019726D03*
X006271Y019726D03*
X006271Y018326D03*
X007452Y018326D03*
X007452Y015926D03*
X006271Y015926D03*
X006971Y007026D03*
X008152Y007026D03*
D28*
X020761Y002776D03*
X020761Y001276D03*
X022761Y001276D03*
X024661Y001276D03*
X024661Y002776D03*
X022761Y002776D03*
X026661Y002776D03*
X028361Y002776D03*
X028361Y001276D03*
X026661Y001276D03*
X030361Y001276D03*
X030361Y002776D03*
X029161Y027576D03*
X029161Y029076D03*
X027161Y029076D03*
X027161Y027576D03*
D29*
X030461Y024139D03*
X030461Y023312D03*
X020861Y028212D03*
X020861Y029039D03*
X015561Y028939D03*
X015561Y028112D03*
X014461Y028112D03*
X014461Y028939D03*
X013261Y028939D03*
X013261Y028112D03*
X011961Y028112D03*
X011961Y028939D03*
X030461Y009539D03*
X030461Y008712D03*
X019661Y002839D03*
X019661Y002012D03*
X010861Y002012D03*
X010861Y002839D03*
D30*
X012761Y007526D03*
X012761Y011326D03*
D31*
X012627Y005126D03*
X013296Y005126D03*
D32*
X025561Y011926D03*
X000861Y007526D03*
D33*
X000861Y008526D03*
X000861Y009526D03*
X025561Y009926D03*
X025561Y010926D03*
X026561Y010926D03*
X026561Y009926D03*
X026561Y008926D03*
X025561Y008926D03*
X026561Y011926D03*
D34*
X003194Y016452D03*
X003194Y017200D03*
X002328Y016826D03*
D35*
X001779Y015378D03*
X001779Y014473D03*
X003944Y024173D03*
X003944Y025078D03*
D36*
X001779Y024626D03*
X003944Y014926D03*
D37*
X003711Y019502D03*
X003211Y019502D03*
X002711Y019502D03*
X002211Y019502D03*
X002211Y021549D03*
X002711Y021549D03*
X003211Y021549D03*
X003711Y021549D03*
D38*
X010437Y020659D03*
X011185Y020659D03*
X010811Y019793D03*
D39*
X003401Y005931D03*
X003401Y005026D03*
X003401Y004120D03*
D40*
X000921Y005026D03*
D41*
X005861Y026726D03*
X009861Y026726D03*
D42*
X007861Y024726D03*
X006861Y024726D03*
D43*
X015377Y025868D03*
X015377Y026183D03*
X016145Y026183D03*
X016145Y025868D03*
D44*
X016145Y025516D03*
X015377Y025516D03*
X015377Y026536D03*
X016145Y026536D03*
D45*
X026834Y020377D03*
X026834Y020121D03*
X026834Y019865D03*
X026834Y019610D03*
X026834Y019354D03*
X026834Y019098D03*
X026834Y018842D03*
X026834Y018586D03*
X026834Y018330D03*
X026834Y018074D03*
X029488Y018074D03*
X029488Y018330D03*
X029488Y018586D03*
X029488Y018842D03*
X029488Y019098D03*
X029488Y019354D03*
X029488Y019610D03*
X029488Y019865D03*
X029488Y020121D03*
X029488Y020377D03*
D46*
X007061Y004126D03*
X007061Y002126D03*
D47*
X004817Y002126D03*
X004817Y004527D03*
X009305Y004527D03*
X009305Y002126D03*
D48*
X009431Y016451D03*
X009431Y016701D03*
X009431Y016951D03*
X009431Y017201D03*
X009431Y017451D03*
X009431Y017701D03*
X009431Y017951D03*
X009431Y018201D03*
X009431Y018451D03*
X009431Y018701D03*
X012091Y018701D03*
X012091Y018451D03*
X012091Y018201D03*
X012091Y017951D03*
X012091Y017701D03*
X012091Y017451D03*
X012091Y017201D03*
X012091Y016951D03*
X012091Y016701D03*
X012091Y016451D03*
M02*
