%
M48
M72
T01C0.0150
T02C0.0315
T03C0.0400
%
T01
X3406Y3161
X5006Y6161
X6706Y7061
X6806Y6361
X8256Y6661
X8406Y6061
X11006Y6061
X12106Y6461
X12506Y6061
X13006Y6061
X14006Y6061
X14006Y6961
X13506Y7261
X13906Y7561
X12706Y7061
X12306Y7561
X11506Y7461
X9856Y8661
X9306Y8861
X6606Y8961
X4806Y8961
X2606Y8261
X2606Y7161
X11006Y5161
X11006Y4561
X11906Y4561
X12806Y4761
X13406Y4661
X14106Y4661
X14106Y3161
X13506Y1861
X16106Y2861
X20506Y4261
X20106Y6361
X19106Y7061
X17406Y6361
X17306Y6861
X16806Y6861
X16206Y6311
X15806Y6311
X13656Y9061
X13506Y10161
X13956Y10161
X18506Y9461
X20506Y9961
X21506Y9961
X21106Y8561
X20906Y7361
T02
X17206Y9261
X16206Y9261
T03
X3006Y1161
X4006Y1161
X5006Y1161
X6006Y1161
X7006Y1161
X8006Y1161
X9006Y1161
X10006Y1161
X11006Y1161
X12006Y1161
X13006Y1161
X14006Y1161
X15006Y1161
X16006Y1161
X17006Y1161
X18006Y1161
X19006Y1161
X20006Y1161
X21006Y1161
X22006Y1161
X22006Y2811
X22006Y3811
X22006Y4811
X22006Y5811
X22006Y6811
X22006Y7811
X22006Y11161
X21006Y11161
X20006Y11161
X19006Y11161
X18006Y11161
X17006Y11161
X16006Y11161
X15006Y11161
X14006Y11161
X13006Y11161
X12006Y11161
X11006Y11161
X10006Y11161
X9006Y11161
X8006Y11161
X7006Y11161
X6006Y11161
X5006Y11161
X4006Y11161
X3006Y11161
M30
