%
M48
M72
T01C0.0150
T02C0.0200
T03C0.0250
T04C0.0354
T05C0.0400
T06C0.1260
%
T01
X32779Y6173
X22838Y7304
X22100Y7452
X21805Y7649
X21214Y7649
X21263Y7255
X20771Y7747
X22838Y7747
X19393Y6517
X20771Y5434
X17622Y4401
X21263Y5434
X26923Y8387
X27021Y10159
X28028Y10714
X27907Y12029
X26972Y11930
X25791Y11832
X24610Y12472
X24659Y12964
X24118Y12423
X24265Y11389
X23675Y10799
X31992Y10503
X31947Y17055
X31422Y17940
X30889Y17264
X30417Y16409
X30622Y14940
X29622Y14640
X28522Y13440
X29236Y12029
X31746Y13653
X31979Y14060
X33124Y13899
X34010Y14440
X34354Y10503
X37897Y3810
X40653Y6566
X33960Y16803
X36465Y18368
X33763Y18919
X33813Y17984
X29925Y20100
X27021Y16852
X27267Y16556
X25693Y15769
X22100Y13948
X21805Y14194
X21510Y14440
X21214Y14686
X20525Y14883
X18950Y13456
X20574Y12619
X20574Y13554
X23134Y13801
X25545Y14440
X22641Y16852
X19393Y20346
X17906Y20783
X20230Y23151
X22592Y23495
X24118Y22019
X22691Y21429
X22346Y21429
X22100Y21084
X21805Y21429
X21510Y20887
X21263Y20592
X19393Y21921
X16588Y18869
X14078Y18968
X12700Y16852
X10387Y16901
X10191Y18919
X9701Y20447
X10643Y20462
X13389Y20740
X15555Y17688
X13980Y16310
X15063Y16114
X16736Y15375
X17819Y15179
X17819Y14736
X17130Y16064
X18212Y16310
X20624Y16360
X17474Y12866
X16293Y12767
X14669Y13259
X14669Y14440
X9848Y14178
X9784Y13358
X7864Y12873
X7887Y11581
X6301Y11547
X8848Y11578
X9983Y11574
X11099Y11931
X12002Y12008
X12241Y12595
X13488Y12078
X14324Y10503
X11175Y10848
X11175Y9962
X9699Y9076
X10224Y8371
X8911Y8387
X6008Y6566
X12553Y4204
X12159Y6468
X14669Y5976
X8763Y3810
X7464Y13973
X7887Y14355
X6008Y14440
X6008Y22314
X8763Y25070
X15850Y25070
X23330Y25119
X31598Y22708
X40653Y22314
X37897Y25070
X40653Y14440
X31204Y25119
T02
X22395Y12669
X11175Y16950
X13389Y22413
X25693Y16409
T03
X29679Y16999
X23872Y20100
X20624Y17541
X18015Y16704
X12781Y10240
X15260Y12866
X16244Y15720
T04
X7681Y13574
X7681Y15306
T05
X35023Y4795
X34023Y4795
X33023Y4795
X32023Y4795
X31023Y4795
X30023Y4795
X29023Y4795
X28023Y4795
X27023Y4795
X26023Y4795
X25023Y4795
X24023Y4795
X26023Y24086
X25023Y24086
X24023Y24086
X19212Y24086
X18212Y24086
X17212Y24086
X27023Y24086
X28023Y24086
X29023Y24086
X31023Y24086
X30023Y24086
X36023Y24086
X35023Y24086
X34023Y24086
X33023Y24086
X32023Y24086
X37122Y9940
X38122Y9940
X38122Y10940
X37122Y10940
X37122Y11940
X38122Y11940
X38122Y12940
X37122Y12940
X37122Y13940
X38122Y13940
X38122Y14940
X37122Y14940
X37122Y15940
X38122Y15940
X37122Y17940
X38122Y17940
X38122Y16940
X37122Y16940
X38122Y18940
X37122Y18940
X38004Y22314
X37004Y22314
X36023Y4795
T06
X7189Y4991
X39472Y4991
X39472Y23889
X7189Y23889
M30
