G75*
G70*
%OFA0B0*%
%FSLAX24Y24*%
%IPPOS*%
%LPD*%
%AMOC8*
5,1,8,0,0,1.08239X$1,22.5*
%
%ADD10C,0.0000*%
%ADD11R,0.0300X0.0500*%
%ADD12R,0.0640X0.0640*%
%ADD13C,0.0640*%
%ADD14R,0.0984X0.0787*%
%ADD15R,0.1299X0.0197*%
%ADD16R,0.2100X0.0760*%
%ADD17R,0.0433X0.0394*%
%ADD18R,0.0394X0.0433*%
%ADD19R,0.0591X0.0787*%
%ADD20R,0.1496X0.0787*%
%ADD21R,0.0591X0.0512*%
%ADD22R,0.1102X0.0945*%
%ADD23R,0.0650X0.0300*%
%ADD24C,0.0640*%
%ADD25R,0.0630X0.0460*%
%ADD26R,0.0472X0.0472*%
%ADD27R,0.0555X0.0555*%
%ADD28C,0.0555*%
%ADD29C,0.0120*%
%ADD30C,0.0400*%
%ADD31C,0.0160*%
%ADD32C,0.0100*%
%ADD33C,0.0320*%
%ADD34C,0.0240*%
D10*
X001351Y000161D02*
X024973Y000161D01*
X024973Y011972D01*
X001351Y011972D01*
X001351Y000161D01*
X001790Y006591D02*
X001792Y006626D01*
X001798Y006661D01*
X001808Y006695D01*
X001821Y006728D01*
X001838Y006759D01*
X001859Y006787D01*
X001882Y006814D01*
X001909Y006837D01*
X001937Y006858D01*
X001968Y006875D01*
X002001Y006888D01*
X002035Y006898D01*
X002070Y006904D01*
X002105Y006906D01*
X002140Y006904D01*
X002175Y006898D01*
X002209Y006888D01*
X002242Y006875D01*
X002273Y006858D01*
X002301Y006837D01*
X002328Y006814D01*
X002351Y006787D01*
X002372Y006759D01*
X002389Y006728D01*
X002402Y006695D01*
X002412Y006661D01*
X002418Y006626D01*
X002420Y006591D01*
X002418Y006556D01*
X002412Y006521D01*
X002402Y006487D01*
X002389Y006454D01*
X002372Y006423D01*
X002351Y006395D01*
X002328Y006368D01*
X002301Y006345D01*
X002273Y006324D01*
X002242Y006307D01*
X002209Y006294D01*
X002175Y006284D01*
X002140Y006278D01*
X002105Y006276D01*
X002070Y006278D01*
X002035Y006284D01*
X002001Y006294D01*
X001968Y006307D01*
X001937Y006324D01*
X001909Y006345D01*
X001882Y006368D01*
X001859Y006395D01*
X001838Y006423D01*
X001821Y006454D01*
X001808Y006487D01*
X001798Y006521D01*
X001792Y006556D01*
X001790Y006591D01*
X003522Y006591D02*
X003524Y006628D01*
X003530Y006665D01*
X003539Y006700D01*
X003553Y006735D01*
X003569Y006768D01*
X003590Y006799D01*
X003613Y006828D01*
X003639Y006854D01*
X003668Y006877D01*
X003699Y006898D01*
X003732Y006914D01*
X003767Y006928D01*
X003802Y006937D01*
X003839Y006943D01*
X003876Y006945D01*
X003913Y006943D01*
X003950Y006937D01*
X003985Y006928D01*
X004020Y006914D01*
X004053Y006898D01*
X004084Y006877D01*
X004113Y006854D01*
X004139Y006828D01*
X004162Y006799D01*
X004183Y006768D01*
X004199Y006735D01*
X004213Y006700D01*
X004222Y006665D01*
X004228Y006628D01*
X004230Y006591D01*
X004228Y006554D01*
X004222Y006517D01*
X004213Y006482D01*
X004199Y006447D01*
X004183Y006414D01*
X004162Y006383D01*
X004139Y006354D01*
X004113Y006328D01*
X004084Y006305D01*
X004053Y006284D01*
X004020Y006268D01*
X003985Y006254D01*
X003950Y006245D01*
X003913Y006239D01*
X003876Y006237D01*
X003839Y006239D01*
X003802Y006245D01*
X003767Y006254D01*
X003732Y006268D01*
X003699Y006284D01*
X003668Y006305D01*
X003639Y006328D01*
X003613Y006354D01*
X003590Y006383D01*
X003569Y006414D01*
X003553Y006447D01*
X003539Y006482D01*
X003530Y006517D01*
X003524Y006554D01*
X003522Y006591D01*
X022955Y005755D02*
X022957Y005781D01*
X022963Y005807D01*
X022973Y005832D01*
X022986Y005855D01*
X023002Y005875D01*
X023022Y005893D01*
X023044Y005908D01*
X023067Y005920D01*
X023093Y005928D01*
X023119Y005932D01*
X023145Y005932D01*
X023171Y005928D01*
X023197Y005920D01*
X023221Y005908D01*
X023242Y005893D01*
X023262Y005875D01*
X023278Y005855D01*
X023291Y005832D01*
X023301Y005807D01*
X023307Y005781D01*
X023309Y005755D01*
X023307Y005729D01*
X023301Y005703D01*
X023291Y005678D01*
X023278Y005655D01*
X023262Y005635D01*
X023242Y005617D01*
X023220Y005602D01*
X023197Y005590D01*
X023171Y005582D01*
X023145Y005578D01*
X023119Y005578D01*
X023093Y005582D01*
X023067Y005590D01*
X023043Y005602D01*
X023022Y005617D01*
X023002Y005635D01*
X022986Y005655D01*
X022973Y005678D01*
X022963Y005703D01*
X022957Y005729D01*
X022955Y005755D01*
X022955Y007487D02*
X022957Y007513D01*
X022963Y007539D01*
X022973Y007564D01*
X022986Y007587D01*
X023002Y007607D01*
X023022Y007625D01*
X023044Y007640D01*
X023067Y007652D01*
X023093Y007660D01*
X023119Y007664D01*
X023145Y007664D01*
X023171Y007660D01*
X023197Y007652D01*
X023221Y007640D01*
X023242Y007625D01*
X023262Y007607D01*
X023278Y007587D01*
X023291Y007564D01*
X023301Y007539D01*
X023307Y007513D01*
X023309Y007487D01*
X023307Y007461D01*
X023301Y007435D01*
X023291Y007410D01*
X023278Y007387D01*
X023262Y007367D01*
X023242Y007349D01*
X023220Y007334D01*
X023197Y007322D01*
X023171Y007314D01*
X023145Y007310D01*
X023119Y007310D01*
X023093Y007314D01*
X023067Y007322D01*
X023043Y007334D01*
X023022Y007349D01*
X023002Y007367D01*
X022986Y007387D01*
X022973Y007410D01*
X022963Y007435D01*
X022957Y007461D01*
X022955Y007487D01*
D11*
X014939Y008490D03*
X014439Y008490D03*
X013939Y008490D03*
X013439Y008490D03*
X012939Y008490D03*
X012439Y008490D03*
X011939Y008490D03*
X011439Y008490D03*
X010939Y008490D03*
X010439Y008490D03*
X009939Y008490D03*
X009439Y008490D03*
X008939Y008490D03*
X008439Y008490D03*
X008439Y004726D03*
X008939Y004726D03*
X009439Y004726D03*
X009939Y004726D03*
X010439Y004726D03*
X010939Y004726D03*
X011439Y004726D03*
X011939Y004726D03*
X012439Y004726D03*
X012939Y004726D03*
X013439Y004726D03*
X013939Y004726D03*
X014439Y004726D03*
X014939Y004726D03*
D12*
X023823Y010791D03*
D13*
X022823Y010791D03*
X021823Y010791D03*
X020823Y010791D03*
X019823Y010791D03*
D14*
X022147Y008373D03*
X024313Y008373D03*
X024313Y004869D03*
X022147Y004869D03*
D15*
X021911Y005991D03*
X021911Y006306D03*
X021911Y006621D03*
X021911Y006936D03*
X021911Y007251D03*
D16*
X012601Y010621D03*
X008801Y010621D03*
D17*
X007285Y010621D03*
X006616Y010621D03*
X014116Y010621D03*
X014785Y010621D03*
X019658Y009551D03*
X019658Y008882D03*
D18*
X018024Y010004D03*
X017354Y010004D03*
X007650Y007189D03*
X007650Y006520D03*
X010898Y003695D03*
X010898Y003025D03*
X015524Y003764D03*
X016311Y003764D03*
X016311Y004433D03*
X015524Y004433D03*
X020051Y004433D03*
X020051Y003764D03*
X005229Y010004D03*
X004559Y010004D03*
X004559Y011185D03*
X005229Y011185D03*
D19*
X017276Y002957D03*
X018181Y002957D03*
X019087Y002957D03*
D20*
X018181Y005437D03*
D21*
X020888Y004433D03*
X020888Y003764D03*
D22*
X004506Y004347D03*
X002105Y004347D03*
X002105Y008835D03*
X004506Y008835D03*
D23*
X016701Y008901D03*
X018701Y008901D03*
X018701Y007401D03*
X016701Y007401D03*
D24*
X016662Y001269D02*
X016662Y000629D01*
X017662Y000629D02*
X017662Y001269D01*
X018662Y001269D02*
X018662Y000629D01*
X019662Y000629D02*
X019662Y001269D01*
X020662Y001269D02*
X020662Y000629D01*
X021662Y000629D02*
X021662Y001269D01*
X022662Y001269D02*
X022662Y000629D01*
X015662Y000629D02*
X015662Y001269D01*
X014662Y001269D02*
X014662Y000629D01*
X013662Y000629D02*
X013662Y001269D01*
X012662Y001269D02*
X012662Y000629D01*
X011662Y000629D02*
X011662Y001269D01*
X010662Y001269D02*
X010662Y000629D01*
X009662Y000629D02*
X009662Y001269D01*
X008662Y001269D02*
X008662Y000629D01*
X007662Y000629D02*
X007662Y001269D01*
X006662Y001269D02*
X006662Y000629D01*
X005662Y000629D02*
X005662Y001269D01*
X004662Y001269D02*
X004662Y000629D01*
X003662Y000629D02*
X003662Y001269D01*
X002662Y001269D02*
X002662Y000629D01*
D25*
X012851Y002861D03*
X012851Y003461D03*
D26*
X002551Y010004D03*
X001725Y010004D03*
X001725Y011185D03*
X002551Y011185D03*
D27*
X023939Y001342D03*
D28*
X023939Y002342D03*
X023939Y003342D03*
D29*
X024397Y003362D02*
X024793Y003362D01*
X024793Y003480D02*
X024377Y003480D01*
X024397Y003433D02*
X024327Y003601D01*
X024198Y003730D01*
X024030Y003800D01*
X023848Y003800D01*
X023680Y003730D01*
X023632Y003682D01*
X021450Y003682D01*
X021363Y003769D01*
X021363Y004094D01*
X021359Y004098D01*
X021363Y004102D01*
X021363Y004763D01*
X021325Y004802D01*
X021325Y004885D01*
X021475Y005035D01*
X021475Y004401D01*
X021581Y004296D01*
X022714Y004296D01*
X022819Y004401D01*
X022819Y005338D01*
X022714Y005443D01*
X022572Y005443D01*
X022715Y005586D01*
X022752Y005675D01*
X022752Y005761D01*
X022774Y005761D01*
X022774Y005684D01*
X022829Y005553D01*
X022929Y005452D01*
X023061Y005398D01*
X023203Y005398D01*
X023334Y005452D01*
X023434Y005553D01*
X023489Y005684D01*
X023489Y005826D01*
X023437Y005951D01*
X023469Y005951D01*
X023558Y005988D01*
X023738Y006168D01*
X023805Y006235D01*
X023842Y006324D01*
X023842Y007800D01*
X024793Y007800D01*
X024793Y005443D01*
X023746Y005443D01*
X023641Y005338D01*
X023641Y004401D01*
X023746Y004296D01*
X024793Y004296D01*
X024793Y000341D01*
X023081Y000341D01*
X023085Y000345D01*
X023162Y000529D01*
X023162Y001368D01*
X023085Y001552D01*
X022945Y001693D01*
X022761Y001769D01*
X022562Y001769D01*
X022378Y001693D01*
X022238Y001552D01*
X022162Y001368D01*
X022162Y000529D01*
X022238Y000345D01*
X022242Y000341D01*
X022081Y000341D01*
X022085Y000345D01*
X022162Y000529D01*
X022162Y001368D01*
X022085Y001552D01*
X021945Y001693D01*
X021761Y001769D01*
X021562Y001769D01*
X021378Y001693D01*
X021238Y001552D01*
X021162Y001368D01*
X021162Y000529D01*
X021238Y000345D01*
X021242Y000341D01*
X021081Y000341D01*
X021085Y000345D01*
X021162Y000529D01*
X021162Y001368D01*
X021085Y001552D01*
X020945Y001693D01*
X020761Y001769D01*
X020562Y001769D01*
X020378Y001693D01*
X020238Y001552D01*
X020162Y001368D01*
X020162Y000529D01*
X020238Y000345D01*
X020242Y000341D01*
X020081Y000341D01*
X020085Y000345D01*
X020162Y000529D01*
X020162Y001368D01*
X020085Y001552D01*
X019945Y001693D01*
X019761Y001769D01*
X019562Y001769D01*
X019378Y001693D01*
X019238Y001552D01*
X019162Y001368D01*
X019162Y000529D01*
X019238Y000345D01*
X019242Y000341D01*
X019081Y000341D01*
X019085Y000345D01*
X019162Y000529D01*
X019162Y001368D01*
X019085Y001552D01*
X018945Y001693D01*
X018761Y001769D01*
X018562Y001769D01*
X018378Y001693D01*
X018238Y001552D01*
X018162Y001368D01*
X018162Y000529D01*
X018238Y000345D01*
X018242Y000341D01*
X018081Y000341D01*
X018085Y000345D01*
X018162Y000529D01*
X018162Y001368D01*
X018085Y001552D01*
X017945Y001693D01*
X017761Y001769D01*
X017562Y001769D01*
X017400Y001701D01*
X016554Y002547D01*
X016486Y002615D01*
X016398Y002651D01*
X015450Y002651D01*
X014793Y003308D01*
X014853Y003333D01*
X014960Y003440D01*
X015018Y003580D01*
X015018Y003731D01*
X014960Y003871D01*
X014853Y003977D01*
X014714Y004035D01*
X014562Y004035D01*
X014517Y004017D01*
X014201Y004333D01*
X014207Y004339D01*
X014227Y004327D01*
X014268Y004316D01*
X014424Y004316D01*
X014424Y004711D01*
X014454Y004711D01*
X014454Y004316D01*
X014610Y004316D01*
X014651Y004327D01*
X014672Y004339D01*
X014715Y004296D01*
X014945Y004296D01*
X015062Y004179D01*
X015147Y004144D01*
X015147Y004142D01*
X015205Y004084D01*
X015199Y004078D01*
X015178Y004042D01*
X015167Y004001D01*
X015167Y003802D01*
X015485Y003802D01*
X015485Y003725D01*
X015167Y003725D01*
X015167Y003526D01*
X015178Y003485D01*
X015199Y003449D01*
X015229Y003419D01*
X015265Y003398D01*
X015306Y003387D01*
X015485Y003387D01*
X015485Y003725D01*
X015562Y003725D01*
X015562Y003387D01*
X015742Y003387D01*
X015782Y003398D01*
X015819Y003419D01*
X015849Y003449D01*
X015870Y003485D01*
X015881Y003526D01*
X015881Y003725D01*
X015562Y003725D01*
X015562Y003802D01*
X015881Y003802D01*
X015881Y004001D01*
X015870Y004042D01*
X015849Y004078D01*
X015843Y004084D01*
X015901Y004142D01*
X015901Y004192D01*
X015934Y004192D01*
X015934Y004142D01*
X015992Y004084D01*
X015986Y004078D01*
X015965Y004042D01*
X015954Y004001D01*
X015954Y003802D01*
X016272Y003802D01*
X016272Y003725D01*
X015954Y003725D01*
X015954Y003526D01*
X015965Y003485D01*
X015986Y003449D01*
X016016Y003419D01*
X016053Y003398D01*
X016093Y003387D01*
X016273Y003387D01*
X016273Y003725D01*
X016350Y003725D01*
X016350Y003802D01*
X016668Y003802D01*
X016668Y004001D01*
X016657Y004042D01*
X016636Y004078D01*
X016630Y004084D01*
X016688Y004142D01*
X016688Y004192D01*
X017122Y004192D01*
X017798Y003516D01*
X017710Y003429D01*
X017699Y003448D01*
X017669Y003478D01*
X017633Y003499D01*
X017592Y003510D01*
X017336Y003510D01*
X017336Y003017D01*
X017216Y003017D01*
X017216Y003510D01*
X016959Y003510D01*
X016919Y003499D01*
X016882Y003478D01*
X016852Y003448D01*
X016831Y003412D01*
X016820Y003371D01*
X016820Y003016D01*
X017216Y003016D01*
X017216Y002897D01*
X016820Y002897D01*
X016820Y002542D01*
X016831Y002501D01*
X016852Y002465D01*
X016882Y002435D01*
X016919Y002414D01*
X016959Y002403D01*
X017216Y002403D01*
X017216Y002896D01*
X017336Y002896D01*
X017336Y002403D01*
X017592Y002403D01*
X017633Y002414D01*
X017669Y002435D01*
X017699Y002465D01*
X017710Y002484D01*
X017811Y002383D01*
X018551Y002383D01*
X018634Y002466D01*
X018717Y002383D01*
X019457Y002383D01*
X019562Y002488D01*
X019562Y002577D01*
X019911Y002577D01*
X020434Y002054D01*
X020558Y002002D01*
X020694Y002002D01*
X023632Y002002D01*
X023680Y001955D01*
X023848Y001885D01*
X024030Y001885D01*
X024198Y001955D01*
X024327Y002083D01*
X024397Y002251D01*
X024397Y002433D01*
X024327Y002601D01*
X024198Y002730D01*
X024030Y002800D01*
X023848Y002800D01*
X023680Y002730D01*
X023632Y002682D01*
X020767Y002682D01*
X020391Y003058D01*
X020391Y003436D01*
X020413Y003457D01*
X020413Y003433D01*
X020518Y003328D01*
X020843Y003328D01*
X021117Y003054D01*
X021242Y003002D01*
X021377Y003002D01*
X023632Y003002D01*
X023680Y002955D01*
X023848Y002885D01*
X024030Y002885D01*
X024198Y002955D01*
X024327Y003083D01*
X024397Y003251D01*
X024397Y003433D01*
X024328Y003599D02*
X024793Y003599D01*
X024793Y003718D02*
X024211Y003718D01*
X024793Y003836D02*
X021363Y003836D01*
X021363Y003955D02*
X024793Y003955D01*
X024793Y004073D02*
X021363Y004073D01*
X021363Y004192D02*
X024793Y004192D01*
X023731Y004310D02*
X022729Y004310D01*
X022819Y004429D02*
X023641Y004429D01*
X023641Y004547D02*
X022819Y004547D01*
X022819Y004666D02*
X023641Y004666D01*
X023641Y004784D02*
X022819Y004784D01*
X022819Y004903D02*
X023641Y004903D01*
X023641Y005022D02*
X022819Y005022D01*
X022819Y005140D02*
X023641Y005140D01*
X023641Y005259D02*
X022819Y005259D01*
X022780Y005377D02*
X023680Y005377D01*
X023377Y005496D02*
X024793Y005496D01*
X024793Y005614D02*
X023460Y005614D01*
X023489Y005733D02*
X024793Y005733D01*
X024793Y005851D02*
X023478Y005851D01*
X023514Y005970D02*
X024793Y005970D01*
X024793Y006088D02*
X023658Y006088D01*
X023777Y006207D02*
X024793Y006207D01*
X024793Y006326D02*
X023842Y006326D01*
X023842Y006444D02*
X024793Y006444D01*
X024793Y006563D02*
X023842Y006563D01*
X023842Y006681D02*
X024793Y006681D01*
X024793Y006800D02*
X023842Y006800D01*
X023842Y006918D02*
X024793Y006918D01*
X024793Y007037D02*
X023842Y007037D01*
X023842Y007155D02*
X024793Y007155D01*
X024793Y007274D02*
X023842Y007274D01*
X023842Y007392D02*
X024793Y007392D01*
X024793Y007511D02*
X023842Y007511D01*
X023842Y007629D02*
X024793Y007629D01*
X024793Y007748D02*
X023842Y007748D01*
X023362Y007762D02*
X023334Y007790D01*
X023203Y007845D01*
X023061Y007845D01*
X022929Y007790D01*
X022829Y007690D01*
X022774Y007558D01*
X022774Y007416D01*
X022829Y007285D01*
X022929Y007185D01*
X023061Y007130D01*
X023203Y007130D01*
X023334Y007185D01*
X023362Y007212D01*
X023362Y006471D01*
X023322Y006431D01*
X022994Y006431D01*
X022906Y006395D01*
X022838Y006327D01*
X022752Y006241D01*
X022741Y006241D01*
X022741Y006479D01*
X022741Y006763D01*
X022741Y007109D01*
X022720Y007130D01*
X022721Y007132D01*
X022721Y007251D01*
X021912Y007251D01*
X021912Y007251D01*
X022721Y007251D01*
X022721Y007371D01*
X022710Y007411D01*
X022689Y007448D01*
X022659Y007478D01*
X022623Y007499D01*
X022582Y007510D01*
X021911Y007510D01*
X021240Y007510D01*
X021200Y007499D01*
X021163Y007478D01*
X021134Y007448D01*
X021112Y007411D01*
X021102Y007371D01*
X021102Y007251D01*
X021102Y007132D01*
X021102Y007130D01*
X021082Y007109D01*
X021082Y006881D01*
X012502Y006881D01*
X012399Y006881D01*
X012303Y006842D01*
X011268Y005807D01*
X011232Y005771D01*
X011231Y005770D01*
X011230Y005769D01*
X011211Y005723D01*
X011191Y005676D01*
X011191Y005674D01*
X011191Y005673D01*
X011191Y005624D01*
X011184Y005135D01*
X011164Y005156D01*
X010715Y005156D01*
X010672Y005113D01*
X010651Y005125D01*
X010610Y005136D01*
X010454Y005136D01*
X010454Y004741D01*
X010424Y004741D01*
X010424Y005136D01*
X010268Y005136D01*
X010227Y005125D01*
X010207Y005113D01*
X010196Y005124D01*
X012080Y007008D01*
X015082Y007008D01*
X015178Y007008D01*
X015266Y007044D01*
X016017Y007795D01*
X019019Y007795D01*
X019115Y007795D01*
X019203Y007832D01*
X019794Y008422D01*
X019861Y008490D01*
X019867Y008505D01*
X019949Y008505D01*
X020054Y008610D01*
X020054Y009153D01*
X019991Y009216D01*
X020054Y009280D01*
X020054Y009822D01*
X019949Y009928D01*
X019367Y009928D01*
X019289Y009850D01*
X019266Y009850D01*
X019184Y009932D01*
X019044Y009990D01*
X018906Y009990D01*
X018906Y010079D01*
X018848Y010219D01*
X018741Y010326D01*
X018601Y010384D01*
X018450Y010384D01*
X018352Y010343D01*
X018295Y010400D01*
X017752Y010400D01*
X017689Y010337D01*
X017626Y010400D01*
X017614Y010400D01*
X017614Y011466D01*
X022503Y011466D01*
X022563Y011406D01*
X022563Y011225D01*
X022540Y011215D01*
X022399Y011074D01*
X022323Y010891D01*
X022323Y010692D01*
X022399Y010508D01*
X022540Y010367D01*
X022724Y010291D01*
X022922Y010291D01*
X023106Y010367D01*
X023247Y010508D01*
X023323Y010692D01*
X023323Y010891D01*
X023247Y011074D01*
X023106Y011215D01*
X023083Y011225D01*
X023083Y011462D01*
X023083Y011565D01*
X023043Y011661D01*
X022912Y011792D01*
X024793Y011792D01*
X024793Y008947D01*
X023807Y008947D01*
X023805Y008952D01*
X023384Y009373D01*
X023384Y009489D01*
X023326Y009628D01*
X023219Y009735D01*
X023080Y009793D01*
X022928Y009793D01*
X022789Y009735D01*
X022682Y009628D01*
X022624Y009489D01*
X022624Y009338D01*
X022682Y009198D01*
X022789Y009091D01*
X022928Y009033D01*
X023045Y009033D01*
X023362Y008716D01*
X023362Y007762D01*
X023362Y007867D02*
X022781Y007867D01*
X022819Y007905D02*
X022819Y008841D01*
X022714Y008947D01*
X021581Y008947D01*
X021475Y008841D01*
X021475Y007905D01*
X021581Y007800D01*
X022714Y007800D01*
X022819Y007905D01*
X022819Y007985D02*
X023362Y007985D01*
X023362Y008104D02*
X022819Y008104D01*
X022819Y008222D02*
X023362Y008222D01*
X023362Y008341D02*
X022819Y008341D01*
X022819Y008459D02*
X023362Y008459D01*
X023362Y008578D02*
X022819Y008578D01*
X022819Y008696D02*
X023362Y008696D01*
X023263Y008815D02*
X022819Y008815D01*
X022727Y008933D02*
X023144Y008933D01*
X022883Y009052D02*
X021079Y009052D01*
X021079Y008933D02*
X021567Y008933D01*
X021475Y008815D02*
X021079Y008815D01*
X021079Y008696D02*
X021475Y008696D01*
X021475Y008578D02*
X021079Y008578D01*
X021079Y008480D02*
X021079Y010356D01*
X021620Y010356D01*
X021639Y010346D02*
X021571Y010381D01*
X021510Y010425D01*
X021457Y010478D01*
X021412Y010540D01*
X021378Y010607D01*
X021355Y010679D01*
X021343Y010751D01*
X021783Y010751D01*
X021863Y010751D01*
X021863Y010312D01*
X021935Y010323D01*
X022007Y010346D01*
X022075Y010381D01*
X022136Y010425D01*
X022189Y010478D01*
X022234Y010540D01*
X022268Y010607D01*
X022291Y010679D01*
X022303Y010751D01*
X021863Y010751D01*
X021863Y010831D01*
X022303Y010831D01*
X022291Y010904D01*
X022268Y010975D01*
X022234Y011043D01*
X022189Y011104D01*
X022136Y011157D01*
X022075Y011202D01*
X022007Y011236D01*
X021935Y011259D01*
X021863Y011271D01*
X021863Y010831D01*
X021783Y010831D01*
X021783Y010751D01*
X021783Y010312D01*
X021711Y010323D01*
X021639Y010346D01*
X021783Y010356D02*
X021863Y010356D01*
X021863Y010475D02*
X021783Y010475D01*
X021783Y010593D02*
X021863Y010593D01*
X021863Y010712D02*
X021783Y010712D01*
X021783Y010830D02*
X021323Y010830D01*
X021343Y010831D02*
X021783Y010831D01*
X021783Y011271D01*
X021711Y011259D01*
X021639Y011236D01*
X021571Y011202D01*
X021510Y011157D01*
X021457Y011104D01*
X021412Y011043D01*
X021378Y010975D01*
X021355Y010904D01*
X021343Y010831D01*
X021323Y010891D02*
X021323Y010692D01*
X021247Y010508D01*
X021106Y010367D01*
X021079Y010356D01*
X021079Y010237D02*
X024793Y010237D01*
X024793Y010119D02*
X021079Y010119D01*
X021079Y010000D02*
X024793Y010000D01*
X024793Y009882D02*
X021079Y009882D01*
X021079Y009763D02*
X022856Y009763D01*
X022698Y009645D02*
X021079Y009645D01*
X021079Y009526D02*
X022640Y009526D01*
X022624Y009408D02*
X021079Y009408D01*
X021079Y009289D02*
X022644Y009289D01*
X022709Y009171D02*
X021079Y009171D01*
X020156Y009171D02*
X020037Y009171D01*
X020054Y009289D02*
X020156Y009289D01*
X020156Y009408D02*
X020054Y009408D01*
X020054Y009526D02*
X020156Y009526D01*
X020156Y009645D02*
X020054Y009645D01*
X020054Y009763D02*
X020156Y009763D01*
X020156Y009882D02*
X019995Y009882D01*
X020156Y010000D02*
X018906Y010000D01*
X018889Y010119D02*
X020156Y010119D01*
X020156Y010150D02*
X020156Y008479D01*
X019895Y008218D01*
X019779Y008218D01*
X019639Y008161D01*
X019532Y008054D01*
X019474Y007914D01*
X019474Y007763D01*
X019532Y007623D01*
X019639Y007516D01*
X019779Y007458D01*
X019930Y007458D01*
X020070Y007516D01*
X020177Y007623D01*
X020234Y007763D01*
X020234Y007879D01*
X020460Y008104D01*
X020459Y008104D01*
X020460Y008104D02*
X020517Y007968D01*
X020623Y007861D01*
X020763Y007803D01*
X020914Y007803D01*
X021054Y007861D01*
X021161Y007968D01*
X021219Y008107D01*
X021219Y008259D01*
X021161Y008398D01*
X021079Y008480D01*
X021100Y008459D02*
X021475Y008459D01*
X021475Y008341D02*
X021185Y008341D01*
X021219Y008222D02*
X021475Y008222D01*
X021475Y008104D02*
X021217Y008104D01*
X021168Y007985D02*
X021475Y007985D01*
X021514Y007867D02*
X021060Y007867D01*
X020618Y007867D02*
X020234Y007867D01*
X020228Y007748D02*
X022887Y007748D01*
X022804Y007629D02*
X020179Y007629D01*
X020057Y007511D02*
X022774Y007511D01*
X022784Y007392D02*
X022715Y007392D01*
X022721Y007274D02*
X022840Y007274D01*
X022721Y007155D02*
X023000Y007155D01*
X023263Y007155D02*
X023362Y007155D01*
X023362Y007037D02*
X022741Y007037D01*
X022741Y006918D02*
X023362Y006918D01*
X023362Y006800D02*
X022741Y006800D01*
X022741Y006681D02*
X023362Y006681D01*
X023362Y006563D02*
X022741Y006563D01*
X022741Y006444D02*
X023335Y006444D01*
X023422Y006191D02*
X023602Y006371D01*
X023602Y008816D01*
X023004Y009413D01*
X023384Y009408D02*
X024793Y009408D01*
X024793Y009526D02*
X023369Y009526D01*
X023310Y009645D02*
X024793Y009645D01*
X024793Y009763D02*
X023152Y009763D01*
X023468Y009289D02*
X024793Y009289D01*
X024793Y009171D02*
X023586Y009171D01*
X023705Y009052D02*
X024793Y009052D01*
X024218Y010291D02*
X023428Y010291D01*
X023323Y010397D01*
X023323Y011186D01*
X023135Y011186D01*
X023083Y011304D02*
X024793Y011304D01*
X024793Y011186D02*
X024323Y011186D01*
X024218Y011291D01*
X023428Y011291D01*
X023323Y011186D01*
X023323Y011067D02*
X023250Y011067D01*
X023299Y010949D02*
X023323Y010949D01*
X023323Y010830D02*
X023323Y010830D01*
X023323Y010712D02*
X023323Y010712D01*
X023323Y010593D02*
X023282Y010593D01*
X023323Y010475D02*
X023213Y010475D01*
X023079Y010356D02*
X023364Y010356D01*
X022567Y010356D02*
X022026Y010356D01*
X022185Y010475D02*
X022433Y010475D01*
X022364Y010593D02*
X022261Y010593D01*
X022296Y010712D02*
X022323Y010712D01*
X022323Y010830D02*
X021863Y010830D01*
X021863Y010949D02*
X021783Y010949D01*
X021783Y011067D02*
X021863Y011067D01*
X021863Y011186D02*
X021783Y011186D01*
X021550Y011186D02*
X021135Y011186D01*
X021106Y011215D02*
X020922Y011291D01*
X020724Y011291D01*
X020540Y011215D01*
X020399Y011074D01*
X020323Y010891D01*
X020247Y011074D01*
X020106Y011215D01*
X019922Y011291D01*
X019724Y011291D01*
X019540Y011215D01*
X019399Y011074D01*
X019323Y010891D01*
X019323Y010692D01*
X019399Y010508D01*
X019540Y010367D01*
X019724Y010291D01*
X019922Y010291D01*
X019988Y010318D01*
X020156Y010150D01*
X020069Y010237D02*
X018829Y010237D01*
X018668Y010356D02*
X019567Y010356D01*
X019433Y010475D02*
X017614Y010475D01*
X017614Y010593D02*
X019364Y010593D01*
X019323Y010712D02*
X017614Y010712D01*
X017614Y010830D02*
X019323Y010830D01*
X019347Y010949D02*
X017614Y010949D01*
X017614Y011067D02*
X019396Y011067D01*
X019511Y011186D02*
X017614Y011186D01*
X017614Y011304D02*
X022563Y011304D01*
X022546Y011423D02*
X017614Y011423D01*
X017094Y011423D02*
X006681Y011423D01*
X006724Y011466D02*
X017094Y011466D01*
X017094Y010400D01*
X017083Y010400D01*
X016978Y010295D01*
X016978Y009713D01*
X017083Y009607D01*
X017626Y009607D01*
X017689Y009671D01*
X017752Y009607D01*
X018266Y009607D01*
X018266Y009196D01*
X018231Y009161D01*
X017170Y009161D01*
X017100Y009231D01*
X016301Y009231D01*
X016231Y009161D01*
X016048Y009161D01*
X015944Y009161D01*
X015849Y009122D01*
X015477Y008750D01*
X015269Y008750D01*
X015269Y008815D01*
X015542Y008815D01*
X015661Y008933D02*
X011242Y008933D01*
X011242Y008893D02*
X011250Y009996D01*
X011395Y010142D01*
X011476Y010061D01*
X013725Y010061D01*
X013831Y010167D01*
X013831Y010244D01*
X014407Y010244D01*
X014465Y010302D01*
X014470Y010296D01*
X014507Y010275D01*
X014548Y010264D01*
X014747Y010264D01*
X014747Y010583D01*
X014824Y010583D01*
X014824Y010660D01*
X015162Y010660D01*
X015162Y010839D01*
X015151Y010880D01*
X015130Y010916D01*
X015100Y010946D01*
X015063Y010967D01*
X015023Y010978D01*
X014824Y010978D01*
X014824Y010660D01*
X014747Y010660D01*
X014747Y010978D01*
X014548Y010978D01*
X014507Y010967D01*
X014470Y010946D01*
X014465Y010940D01*
X014407Y010998D01*
X013831Y010998D01*
X013831Y011076D01*
X013725Y011181D01*
X011476Y011181D01*
X011371Y011076D01*
X011371Y010913D01*
X011281Y010876D01*
X011196Y010791D01*
X010740Y010335D01*
X010700Y010296D01*
X010664Y010332D01*
X010622Y010374D01*
X010621Y010375D01*
X010205Y010791D01*
X010120Y010876D01*
X010031Y010913D01*
X010031Y011076D01*
X009925Y011181D01*
X007676Y011181D01*
X007571Y011076D01*
X007571Y010998D01*
X006994Y010998D01*
X006936Y010940D01*
X006931Y010946D01*
X006894Y010967D01*
X006854Y010978D01*
X006654Y010978D01*
X006654Y010660D01*
X006577Y010660D01*
X006577Y010978D01*
X006378Y010978D01*
X006338Y010967D01*
X006335Y010966D01*
X006335Y011077D01*
X006724Y011466D01*
X006562Y011304D02*
X017094Y011304D01*
X017094Y011186D02*
X006444Y011186D01*
X006335Y011067D02*
X007571Y011067D01*
X006945Y010949D02*
X006926Y010949D01*
X006654Y010949D02*
X006577Y010949D01*
X006577Y010830D02*
X006654Y010830D01*
X006654Y010712D02*
X006577Y010712D01*
X006577Y010583D02*
X006654Y010583D01*
X006654Y010264D01*
X006854Y010264D01*
X006894Y010275D01*
X006931Y010296D01*
X006936Y010302D01*
X006994Y010244D01*
X007571Y010244D01*
X007571Y010167D01*
X007676Y010061D01*
X009925Y010061D01*
X010006Y010142D01*
X010150Y009998D01*
X010142Y008920D01*
X009715Y008920D01*
X009689Y008894D01*
X009664Y008920D01*
X009215Y008920D01*
X009189Y008894D01*
X009164Y008920D01*
X008715Y008920D01*
X008689Y008894D01*
X008664Y008920D01*
X008215Y008920D01*
X008109Y008815D01*
X008109Y008165D01*
X008168Y008107D01*
X008115Y008054D01*
X008057Y007914D01*
X008057Y007763D01*
X008115Y007623D01*
X008190Y007548D01*
X007959Y007548D01*
X007921Y007585D01*
X007378Y007585D01*
X007341Y007548D01*
X006335Y007548D01*
X006335Y010277D01*
X006338Y010275D01*
X006378Y010264D01*
X006577Y010264D01*
X006577Y010583D01*
X006577Y010475D02*
X006654Y010475D01*
X006654Y010356D02*
X006577Y010356D01*
X006335Y010237D02*
X007571Y010237D01*
X007618Y010119D02*
X006335Y010119D01*
X006335Y010000D02*
X010147Y010000D01*
X010149Y009882D02*
X006335Y009882D01*
X006335Y009763D02*
X010148Y009763D01*
X010147Y009645D02*
X006335Y009645D01*
X006335Y009526D02*
X010146Y009526D01*
X010146Y009408D02*
X006335Y009408D01*
X006335Y009289D02*
X010145Y009289D01*
X010144Y009171D02*
X006335Y009171D01*
X006335Y009052D02*
X010143Y009052D01*
X010142Y008933D02*
X006335Y008933D01*
X006335Y008815D02*
X008110Y008815D01*
X008109Y008696D02*
X006335Y008696D01*
X006335Y008578D02*
X008109Y008578D01*
X008109Y008459D02*
X006335Y008459D01*
X006335Y008341D02*
X008109Y008341D01*
X008109Y008222D02*
X006335Y008222D01*
X006335Y008104D02*
X008165Y008104D01*
X008087Y007985D02*
X006335Y007985D01*
X006335Y007867D02*
X008057Y007867D01*
X008063Y007748D02*
X006335Y007748D01*
X006335Y007629D02*
X008112Y007629D01*
X008437Y007838D02*
X008437Y008429D01*
X009439Y008490D02*
X009441Y008493D01*
X009441Y007881D01*
X009691Y007594D02*
X009725Y007559D01*
X009865Y007501D01*
X010016Y007501D01*
X010156Y007559D01*
X010263Y007666D01*
X010321Y007806D01*
X010321Y007957D01*
X010278Y008060D01*
X010664Y008060D01*
X010689Y008085D01*
X010715Y008060D01*
X011164Y008060D01*
X011207Y008103D01*
X011227Y008091D01*
X011268Y008080D01*
X011424Y008080D01*
X011424Y008475D01*
X011454Y008475D01*
X011454Y008080D01*
X011610Y008080D01*
X011628Y008085D01*
X011571Y007947D01*
X011571Y007796D01*
X011628Y007656D01*
X011735Y007549D01*
X011875Y007491D01*
X012026Y007491D01*
X012166Y007549D01*
X012201Y007584D01*
X012235Y007549D01*
X012375Y007491D01*
X012526Y007491D01*
X012666Y007549D01*
X012701Y007584D01*
X012735Y007549D01*
X012875Y007491D01*
X013026Y007491D01*
X013166Y007549D01*
X013206Y007589D01*
X013235Y007559D01*
X013375Y007501D01*
X013526Y007501D01*
X013666Y007559D01*
X013706Y007599D01*
X013735Y007569D01*
X013875Y007511D01*
X014026Y007511D01*
X014166Y007569D01*
X014201Y007604D01*
X014235Y007569D01*
X014375Y007511D01*
X014526Y007511D01*
X014666Y007569D01*
X014773Y007676D01*
X014831Y007816D01*
X014831Y007967D01*
X014792Y008060D01*
X015164Y008060D01*
X015269Y008165D01*
X015269Y008230D01*
X015533Y008230D01*
X015636Y008230D01*
X015732Y008270D01*
X016104Y008641D01*
X016231Y008641D01*
X016301Y008571D01*
X017100Y008571D01*
X017170Y008641D01*
X018231Y008641D01*
X018301Y008571D01*
X019100Y008571D01*
X019206Y008677D01*
X019206Y009126D01*
X019100Y009231D01*
X019047Y009231D01*
X019184Y009288D01*
X019261Y009365D01*
X019261Y009280D01*
X019324Y009216D01*
X019261Y009153D01*
X019261Y008610D01*
X019282Y008590D01*
X018968Y008275D01*
X015870Y008275D01*
X015781Y008239D01*
X015714Y008171D01*
X015031Y007488D01*
X011933Y007488D01*
X011844Y007451D01*
X011777Y007384D01*
X009814Y005421D01*
X009740Y005421D01*
X009752Y005450D01*
X009752Y005601D01*
X009694Y005741D01*
X009587Y005848D01*
X009448Y005905D01*
X009416Y005905D01*
X009241Y006081D01*
X009241Y007188D01*
X009241Y007553D01*
X009365Y007501D01*
X009516Y007501D01*
X009656Y007559D01*
X009691Y007594D01*
X009842Y007511D02*
X009539Y007511D01*
X009342Y007511D02*
X009241Y007511D01*
X009241Y007392D02*
X011786Y007392D01*
X011827Y007511D02*
X010039Y007511D01*
X010226Y007629D02*
X011655Y007629D01*
X011590Y007748D02*
X010297Y007748D01*
X010321Y007867D02*
X011571Y007867D01*
X011586Y007985D02*
X010309Y007985D01*
X009941Y007881D02*
X009941Y008493D01*
X009939Y008490D01*
X011242Y008893D02*
X011268Y008900D01*
X011424Y008900D01*
X011424Y008505D01*
X011454Y008505D01*
X011454Y008900D01*
X011610Y008900D01*
X011651Y008889D01*
X011672Y008877D01*
X011715Y008920D01*
X012164Y008920D01*
X012189Y008894D01*
X012215Y008920D01*
X012664Y008920D01*
X012689Y008894D01*
X012715Y008920D01*
X013164Y008920D01*
X013189Y008894D01*
X013215Y008920D01*
X013664Y008920D01*
X013689Y008894D01*
X013715Y008920D01*
X014164Y008920D01*
X014189Y008894D01*
X014215Y008920D01*
X014664Y008920D01*
X014689Y008894D01*
X014715Y008920D01*
X015164Y008920D01*
X015269Y008815D01*
X015779Y009052D02*
X011243Y009052D01*
X011244Y009171D02*
X016240Y009171D01*
X017161Y009171D02*
X018240Y009171D01*
X018266Y009289D02*
X011245Y009289D01*
X011245Y009408D02*
X018266Y009408D01*
X018266Y009526D02*
X011246Y009526D01*
X011247Y009645D02*
X017046Y009645D01*
X016978Y009763D02*
X011248Y009763D01*
X011249Y009882D02*
X016978Y009882D01*
X016978Y010000D02*
X011254Y010000D01*
X011372Y010119D02*
X011418Y010119D01*
X010880Y010475D02*
X010521Y010475D01*
X010403Y010593D02*
X010998Y010593D01*
X011117Y010712D02*
X010284Y010712D01*
X010166Y010830D02*
X011235Y010830D01*
X011371Y010949D02*
X010031Y010949D01*
X010031Y011067D02*
X011371Y011067D01*
X010761Y010356D02*
X010640Y010356D01*
X010029Y010119D02*
X009983Y010119D01*
X011424Y008815D02*
X011454Y008815D01*
X011454Y008696D02*
X011424Y008696D01*
X011424Y008578D02*
X011454Y008578D01*
X011454Y008459D02*
X011424Y008459D01*
X011424Y008341D02*
X011454Y008341D01*
X011454Y008222D02*
X011424Y008222D01*
X011424Y008104D02*
X011454Y008104D01*
X011951Y007871D02*
X011939Y008490D01*
X012439Y008490D02*
X012451Y007871D01*
X012951Y007871D02*
X012939Y008490D01*
X013451Y008291D02*
X013451Y007881D01*
X013951Y007891D02*
X013939Y008490D01*
X013951Y008621D01*
X014439Y008490D02*
X014451Y007891D01*
X014802Y007748D02*
X015291Y007748D01*
X015409Y007867D02*
X014831Y007867D01*
X014823Y007985D02*
X015528Y007985D01*
X015646Y008104D02*
X015207Y008104D01*
X015269Y008222D02*
X015765Y008222D01*
X015803Y008341D02*
X019033Y008341D01*
X019152Y008459D02*
X015922Y008459D01*
X016040Y008578D02*
X016294Y008578D01*
X017107Y008578D02*
X018294Y008578D01*
X019107Y008578D02*
X019270Y008578D01*
X019261Y008696D02*
X019206Y008696D01*
X019206Y008815D02*
X019261Y008815D01*
X019261Y008933D02*
X019206Y008933D01*
X019206Y009052D02*
X019261Y009052D01*
X019279Y009171D02*
X019161Y009171D01*
X019185Y009289D02*
X019261Y009289D01*
X019461Y009610D02*
X018969Y009610D01*
X019461Y009610D02*
X019658Y009551D01*
X019321Y009882D02*
X019234Y009882D01*
X018383Y010356D02*
X018339Y010356D01*
X017708Y010356D02*
X017670Y010356D01*
X017094Y010475D02*
X015162Y010475D01*
X015162Y010403D02*
X015162Y010583D01*
X014824Y010583D01*
X014824Y010264D01*
X015023Y010264D01*
X015063Y010275D01*
X015100Y010296D01*
X015130Y010326D01*
X015151Y010363D01*
X015162Y010403D01*
X015147Y010356D02*
X017039Y010356D01*
X016978Y010237D02*
X013831Y010237D01*
X013783Y010119D02*
X016978Y010119D01*
X017094Y010593D02*
X014824Y010593D01*
X014824Y010475D02*
X014747Y010475D01*
X014747Y010356D02*
X014824Y010356D01*
X014824Y010712D02*
X014747Y010712D01*
X014747Y010830D02*
X014824Y010830D01*
X014824Y010949D02*
X014747Y010949D01*
X014475Y010949D02*
X014456Y010949D01*
X015095Y010949D02*
X017094Y010949D01*
X017094Y011067D02*
X013831Y011067D01*
X015162Y010830D02*
X017094Y010830D01*
X017094Y010712D02*
X015162Y010712D01*
X017663Y009645D02*
X017715Y009645D01*
X019658Y008882D02*
X019658Y008626D01*
X019067Y008035D01*
X015917Y008035D01*
X015130Y007248D01*
X011980Y007248D01*
X009914Y005181D01*
X008585Y005181D01*
X008439Y005035D01*
X008439Y004726D01*
X008439Y003073D01*
X009662Y001850D01*
X009662Y000949D01*
X009162Y000991D02*
X009162Y000991D01*
X009162Y000873D02*
X009162Y000873D01*
X009162Y000754D02*
X009162Y000754D01*
X009162Y000635D02*
X009162Y000635D01*
X009162Y000529D02*
X009162Y001368D01*
X009162Y000529D01*
X009238Y000345D01*
X009242Y000341D01*
X009081Y000341D01*
X009085Y000345D01*
X009162Y000529D01*
X009156Y000517D02*
X009167Y000517D01*
X009216Y000398D02*
X009107Y000398D01*
X008242Y000341D02*
X008081Y000341D01*
X008085Y000345D01*
X008162Y000529D01*
X008238Y000345D01*
X008242Y000341D01*
X008216Y000398D02*
X008107Y000398D01*
X008156Y000517D02*
X008167Y000517D01*
X008162Y000529D02*
X008162Y001368D01*
X008162Y000529D01*
X008162Y000635D02*
X008162Y000635D01*
X008162Y000754D02*
X008162Y000754D01*
X008162Y000873D02*
X008162Y000873D01*
X008162Y000991D02*
X008162Y000991D01*
X008162Y001110D02*
X008162Y001110D01*
X008162Y001228D02*
X008162Y001228D01*
X008162Y001347D02*
X008162Y001347D01*
X008162Y001368D02*
X008085Y001552D01*
X007945Y001693D01*
X007761Y001769D01*
X007562Y001769D01*
X007378Y001693D01*
X007238Y001552D01*
X007162Y001368D01*
X007162Y000529D01*
X007238Y000345D01*
X007242Y000341D01*
X007081Y000341D01*
X007085Y000345D01*
X007162Y000529D01*
X007162Y001368D01*
X007085Y001552D01*
X006945Y001693D01*
X006761Y001769D01*
X006562Y001769D01*
X006378Y001693D01*
X006238Y001552D01*
X006162Y001368D01*
X006162Y000529D01*
X006238Y000345D01*
X006242Y000341D01*
X006081Y000341D01*
X006085Y000345D01*
X006162Y000529D01*
X006162Y001368D01*
X006085Y001552D01*
X005945Y001693D01*
X005761Y001769D01*
X005562Y001769D01*
X005378Y001693D01*
X005238Y001552D01*
X005162Y001368D01*
X005162Y000529D01*
X005238Y000345D01*
X005242Y000341D01*
X005081Y000341D01*
X005085Y000345D01*
X005162Y000529D01*
X005162Y001368D01*
X005085Y001552D01*
X004945Y001693D01*
X004761Y001769D01*
X004562Y001769D01*
X004378Y001693D01*
X004238Y001552D01*
X004162Y001368D01*
X004162Y000529D01*
X004238Y000345D01*
X004242Y000341D01*
X004081Y000341D01*
X004085Y000345D01*
X004162Y000529D01*
X004162Y001368D01*
X004085Y001552D01*
X003962Y001676D01*
X003962Y001728D01*
X003962Y001847D01*
X003916Y001957D01*
X003422Y002451D01*
X003422Y006291D01*
X003423Y006289D01*
X003574Y006138D01*
X003770Y006057D01*
X003982Y006057D01*
X004179Y006138D01*
X004329Y006289D01*
X004411Y006485D01*
X004411Y006698D01*
X004329Y006894D01*
X004275Y006948D01*
X006015Y006948D01*
X007273Y006948D01*
X007273Y006898D01*
X007331Y006840D01*
X007325Y006834D01*
X007304Y006798D01*
X007293Y006757D01*
X007293Y006558D01*
X007611Y006558D01*
X007611Y006481D01*
X007293Y006481D01*
X007293Y006282D01*
X007304Y006241D01*
X007325Y006205D01*
X007355Y006175D01*
X007391Y006154D01*
X007432Y006143D01*
X007611Y006143D01*
X007611Y006481D01*
X007688Y006481D01*
X007688Y006143D01*
X007868Y006143D01*
X007908Y006154D01*
X007945Y006175D01*
X007975Y006205D01*
X007996Y006241D01*
X008007Y006282D01*
X008007Y006481D01*
X007688Y006481D01*
X007688Y006558D01*
X008007Y006558D01*
X008007Y006757D01*
X007996Y006798D01*
X007975Y006834D01*
X007969Y006840D01*
X008027Y006898D01*
X008027Y006948D01*
X008641Y006948D01*
X008641Y005897D01*
X008686Y005787D01*
X008771Y005703D01*
X008992Y005481D01*
X008992Y005450D01*
X009004Y005421D01*
X008537Y005421D01*
X008449Y005384D01*
X008381Y005317D01*
X008236Y005171D01*
X008229Y005156D01*
X008215Y005156D01*
X008109Y005051D01*
X008109Y004402D01*
X008199Y004312D01*
X008199Y003120D01*
X008199Y003025D01*
X008236Y002937D01*
X009422Y001751D01*
X009422Y001710D01*
X009378Y001693D01*
X009238Y001552D01*
X009162Y001368D01*
X009085Y001552D01*
X008945Y001693D01*
X008761Y001769D01*
X008562Y001769D01*
X008378Y001693D01*
X008238Y001552D01*
X008162Y001368D01*
X008202Y001465D02*
X008121Y001465D01*
X008054Y001584D02*
X008270Y001584D01*
X008402Y001702D02*
X007921Y001702D01*
X007402Y001702D02*
X006921Y001702D01*
X007054Y001584D02*
X007270Y001584D01*
X007202Y001465D02*
X007121Y001465D01*
X007162Y001347D02*
X007162Y001347D01*
X007162Y001228D02*
X007162Y001228D01*
X007162Y001110D02*
X007162Y001110D01*
X007162Y000991D02*
X007162Y000991D01*
X007162Y000873D02*
X007162Y000873D01*
X007162Y000754D02*
X007162Y000754D01*
X007162Y000635D02*
X007162Y000635D01*
X007156Y000517D02*
X007167Y000517D01*
X007216Y000398D02*
X007107Y000398D01*
X006216Y000398D02*
X006107Y000398D01*
X006156Y000517D02*
X006167Y000517D01*
X006162Y000635D02*
X006162Y000635D01*
X006162Y000754D02*
X006162Y000754D01*
X006162Y000873D02*
X006162Y000873D01*
X006162Y000991D02*
X006162Y000991D01*
X006162Y001110D02*
X006162Y001110D01*
X006162Y001228D02*
X006162Y001228D01*
X006162Y001347D02*
X006162Y001347D01*
X006121Y001465D02*
X006202Y001465D01*
X006270Y001584D02*
X006054Y001584D01*
X005921Y001702D02*
X006402Y001702D01*
X005402Y001702D02*
X004921Y001702D01*
X005054Y001584D02*
X005270Y001584D01*
X005202Y001465D02*
X005121Y001465D01*
X005162Y001347D02*
X005162Y001347D01*
X005162Y001228D02*
X005162Y001228D01*
X005162Y001110D02*
X005162Y001110D01*
X005162Y000991D02*
X005162Y000991D01*
X005162Y000873D02*
X005162Y000873D01*
X005162Y000754D02*
X005162Y000754D01*
X005162Y000635D02*
X005162Y000635D01*
X005156Y000517D02*
X005167Y000517D01*
X005216Y000398D02*
X005107Y000398D01*
X004216Y000398D02*
X004107Y000398D01*
X004156Y000517D02*
X004167Y000517D01*
X004162Y000635D02*
X004162Y000635D01*
X004162Y000754D02*
X004162Y000754D01*
X004162Y000873D02*
X004162Y000873D01*
X004162Y000991D02*
X004162Y000991D01*
X004162Y001110D02*
X004162Y001110D01*
X004162Y001228D02*
X004162Y001228D01*
X004162Y001347D02*
X004162Y001347D01*
X004121Y001465D02*
X004202Y001465D01*
X004270Y001584D02*
X004054Y001584D01*
X003962Y001702D02*
X004402Y001702D01*
X003962Y001821D02*
X009351Y001821D01*
X009402Y001702D02*
X008921Y001702D01*
X009054Y001584D02*
X009270Y001584D01*
X009202Y001465D02*
X009121Y001465D01*
X009162Y001347D02*
X009162Y001347D01*
X009162Y001228D02*
X009162Y001228D01*
X009162Y001110D02*
X009162Y001110D01*
X009233Y001939D02*
X003923Y001939D01*
X003815Y002058D02*
X009114Y002058D01*
X008996Y002176D02*
X003697Y002176D01*
X003578Y002295D02*
X008877Y002295D01*
X008759Y002414D02*
X003459Y002414D01*
X003422Y002532D02*
X008640Y002532D01*
X008522Y002651D02*
X003422Y002651D01*
X003422Y002769D02*
X008403Y002769D01*
X008285Y002888D02*
X003422Y002888D01*
X003422Y003006D02*
X008207Y003006D01*
X008199Y003125D02*
X003422Y003125D01*
X003422Y003243D02*
X008199Y003243D01*
X008199Y003362D02*
X003422Y003362D01*
X003422Y003480D02*
X008199Y003480D01*
X008199Y003599D02*
X003422Y003599D01*
X003422Y003718D02*
X003923Y003718D01*
X003934Y003715D02*
X004446Y003715D01*
X004446Y004287D01*
X004566Y004287D01*
X004566Y003715D01*
X005078Y003715D01*
X005119Y003726D01*
X005156Y003747D01*
X005185Y003776D01*
X005206Y003813D01*
X005217Y003854D01*
X005217Y004287D01*
X004566Y004287D01*
X004566Y004407D01*
X004446Y004407D01*
X004446Y004287D01*
X003795Y004287D01*
X003795Y003854D01*
X003806Y003813D01*
X003827Y003776D01*
X003857Y003747D01*
X003893Y003726D01*
X003934Y003715D01*
X003800Y003836D02*
X003422Y003836D01*
X003422Y003955D02*
X003795Y003955D01*
X003795Y004073D02*
X003422Y004073D01*
X003422Y004192D02*
X003795Y004192D01*
X003422Y004310D02*
X004446Y004310D01*
X004446Y004407D02*
X003795Y004407D01*
X003795Y004841D01*
X003806Y004881D01*
X003827Y004918D01*
X003857Y004948D01*
X003893Y004969D01*
X003934Y004980D01*
X004446Y004980D01*
X004446Y004407D01*
X004446Y004429D02*
X004566Y004429D01*
X004566Y004407D02*
X004566Y004980D01*
X005078Y004980D01*
X005119Y004969D01*
X005156Y004948D01*
X005185Y004918D01*
X005206Y004881D01*
X005217Y004841D01*
X005217Y004407D01*
X004566Y004407D01*
X004566Y004310D02*
X008199Y004310D01*
X008199Y004192D02*
X005217Y004192D01*
X005217Y004073D02*
X008199Y004073D01*
X008199Y003955D02*
X005217Y003955D01*
X005213Y003836D02*
X008199Y003836D01*
X008199Y003718D02*
X005089Y003718D01*
X004566Y003718D02*
X004446Y003718D01*
X004446Y003836D02*
X004566Y003836D01*
X004566Y003955D02*
X004446Y003955D01*
X004446Y004073D02*
X004566Y004073D01*
X004566Y004192D02*
X004446Y004192D01*
X004446Y004547D02*
X004566Y004547D01*
X004566Y004666D02*
X004446Y004666D01*
X004446Y004784D02*
X004566Y004784D01*
X004566Y004903D02*
X004446Y004903D01*
X003818Y004903D02*
X003422Y004903D01*
X003422Y004784D02*
X003795Y004784D01*
X003795Y004666D02*
X003422Y004666D01*
X003422Y004547D02*
X003795Y004547D01*
X003795Y004429D02*
X003422Y004429D01*
X002822Y004429D02*
X002816Y004429D01*
X002816Y004407D02*
X002816Y004841D01*
X002805Y004881D01*
X002784Y004918D01*
X002754Y004948D01*
X002717Y004969D01*
X002677Y004980D01*
X002164Y004980D01*
X002164Y004407D01*
X002045Y004407D01*
X002045Y004980D01*
X001532Y004980D01*
X001531Y004979D01*
X001531Y008183D01*
X002730Y008183D01*
X002836Y008288D01*
X002836Y008611D01*
X002978Y008611D01*
X003075Y008571D01*
X003226Y008571D01*
X003366Y008629D01*
X003473Y008736D01*
X003531Y008876D01*
X003531Y009027D01*
X003473Y009166D01*
X003366Y009273D01*
X003226Y009331D01*
X003075Y009331D01*
X002978Y009291D01*
X002836Y009291D01*
X002836Y009382D01*
X002730Y009488D01*
X001531Y009488D01*
X001531Y009608D01*
X001666Y009608D01*
X001666Y009945D01*
X001783Y009945D01*
X001783Y009608D01*
X001982Y009608D01*
X002023Y009618D01*
X002059Y009640D01*
X002089Y009669D01*
X002110Y009706D01*
X002121Y009746D01*
X002121Y009946D01*
X001783Y009946D01*
X001783Y010062D01*
X002121Y010062D01*
X002121Y010261D01*
X002110Y010302D01*
X002089Y010338D01*
X002059Y010368D01*
X002023Y010389D01*
X001982Y010400D01*
X001783Y010400D01*
X001783Y010062D01*
X001666Y010062D01*
X001666Y010400D01*
X001531Y010400D01*
X001531Y010789D01*
X001666Y010789D01*
X001666Y011126D01*
X001783Y011126D01*
X001783Y010789D01*
X001982Y010789D01*
X002023Y010800D01*
X002059Y010821D01*
X002089Y010850D01*
X002110Y010887D01*
X002121Y010928D01*
X002121Y011127D01*
X001783Y011127D01*
X001783Y011243D01*
X002121Y011243D01*
X002121Y011442D01*
X002110Y011483D01*
X002089Y011519D01*
X002059Y011549D01*
X002023Y011570D01*
X001982Y011581D01*
X001783Y011581D01*
X001783Y011243D01*
X001666Y011243D01*
X001666Y011581D01*
X001531Y011581D01*
X001531Y011792D01*
X006315Y011792D01*
X005967Y011445D01*
X005605Y011445D01*
X005605Y011476D01*
X005500Y011581D01*
X004957Y011581D01*
X004894Y011518D01*
X004831Y011581D01*
X004288Y011581D01*
X004182Y011476D01*
X004182Y011445D01*
X002968Y011445D01*
X002968Y011496D01*
X002862Y011601D01*
X002241Y011601D01*
X002135Y011496D01*
X002135Y010874D01*
X002241Y010769D01*
X002862Y010769D01*
X002968Y010874D01*
X002968Y010925D01*
X004182Y010925D01*
X004182Y010894D01*
X004288Y010788D01*
X004831Y010788D01*
X004894Y010852D01*
X004957Y010788D01*
X005500Y010788D01*
X005605Y010894D01*
X005605Y010925D01*
X005815Y010925D01*
X005815Y010062D01*
X005670Y010207D01*
X005605Y010234D01*
X005605Y010295D01*
X005500Y010400D01*
X004957Y010400D01*
X004894Y010337D01*
X004831Y010400D01*
X004288Y010400D01*
X004182Y010295D01*
X004182Y010244D01*
X002968Y010244D01*
X002968Y010315D01*
X002862Y010420D01*
X002241Y010420D01*
X002135Y010315D01*
X002135Y009693D01*
X002241Y009588D01*
X002862Y009588D01*
X002968Y009693D01*
X002968Y009764D01*
X004182Y009764D01*
X004182Y009713D01*
X004288Y009607D01*
X004831Y009607D01*
X004894Y009671D01*
X004957Y009607D01*
X005441Y009607D01*
X005441Y009120D01*
X005359Y009038D01*
X005301Y008898D01*
X005301Y008747D01*
X005359Y008607D01*
X005466Y008501D01*
X005606Y008443D01*
X005757Y008443D01*
X005815Y008467D01*
X005815Y007548D01*
X003259Y007548D01*
X003149Y007502D01*
X003065Y007418D01*
X003065Y007418D01*
X002952Y007305D01*
X002868Y007221D01*
X002822Y007111D01*
X002822Y002386D01*
X002822Y002267D01*
X002868Y002157D01*
X003355Y001669D01*
X003238Y001552D01*
X003162Y001368D01*
X003162Y000529D01*
X003238Y000345D01*
X003242Y000341D01*
X003046Y000341D01*
X003072Y000377D01*
X003106Y000444D01*
X003130Y000516D01*
X003142Y000591D01*
X003142Y000909D01*
X002702Y000909D01*
X002702Y000989D01*
X003142Y000989D01*
X003142Y001306D01*
X003130Y001381D01*
X003106Y001453D01*
X003072Y001520D01*
X003028Y001581D01*
X002974Y001635D01*
X002913Y001679D01*
X002846Y001713D01*
X002774Y001737D01*
X002702Y001748D01*
X002702Y000989D01*
X002621Y000989D01*
X002621Y000909D01*
X002182Y000909D01*
X002182Y000591D01*
X002193Y000516D01*
X002217Y000444D01*
X002251Y000377D01*
X002277Y000341D01*
X001531Y000341D01*
X001531Y003715D01*
X001532Y003715D01*
X002045Y003715D01*
X002045Y004287D01*
X002164Y004287D01*
X002164Y003715D01*
X002677Y003715D01*
X002717Y003726D01*
X002754Y003747D01*
X002784Y003776D01*
X002805Y003813D01*
X002816Y003854D01*
X002816Y004287D01*
X002165Y004287D01*
X002165Y004407D01*
X002816Y004407D01*
X002822Y004310D02*
X002165Y004310D01*
X002164Y004192D02*
X002045Y004192D01*
X002045Y004073D02*
X002164Y004073D01*
X002164Y003955D02*
X002045Y003955D01*
X002045Y003836D02*
X002164Y003836D01*
X002164Y003718D02*
X002045Y003718D01*
X001531Y003599D02*
X002822Y003599D01*
X002822Y003480D02*
X001531Y003480D01*
X001531Y003362D02*
X002822Y003362D01*
X002822Y003243D02*
X001531Y003243D01*
X001531Y003125D02*
X002822Y003125D01*
X002822Y003006D02*
X001531Y003006D01*
X001531Y002888D02*
X002822Y002888D01*
X002822Y002769D02*
X001531Y002769D01*
X001531Y002651D02*
X002822Y002651D01*
X002822Y002532D02*
X001531Y002532D01*
X001531Y002414D02*
X002822Y002414D01*
X002822Y002295D02*
X001531Y002295D01*
X001531Y002176D02*
X002860Y002176D01*
X002967Y002058D02*
X001531Y002058D01*
X001531Y001939D02*
X003085Y001939D01*
X003204Y001821D02*
X001531Y001821D01*
X001531Y001702D02*
X002455Y001702D01*
X002477Y001713D02*
X002410Y001679D01*
X002349Y001635D01*
X002295Y001581D01*
X002251Y001520D01*
X002217Y001453D01*
X002193Y001381D01*
X002182Y001306D01*
X002182Y000989D01*
X002621Y000989D01*
X002621Y001748D01*
X002549Y001737D01*
X002477Y001713D01*
X002621Y001702D02*
X002702Y001702D01*
X002702Y001584D02*
X002621Y001584D01*
X002621Y001465D02*
X002702Y001465D01*
X002702Y001347D02*
X002621Y001347D01*
X002621Y001228D02*
X002702Y001228D01*
X002702Y001110D02*
X002621Y001110D01*
X002621Y000991D02*
X002702Y000991D01*
X003142Y000991D02*
X003162Y000991D01*
X003162Y000873D02*
X003142Y000873D01*
X003142Y000754D02*
X003162Y000754D01*
X003162Y000635D02*
X003142Y000635D01*
X003130Y000517D02*
X003167Y000517D01*
X003216Y000398D02*
X003083Y000398D01*
X002240Y000398D02*
X001531Y000398D01*
X001531Y000517D02*
X002193Y000517D01*
X002182Y000635D02*
X001531Y000635D01*
X001531Y000754D02*
X002182Y000754D01*
X002182Y000873D02*
X001531Y000873D01*
X001531Y000991D02*
X002182Y000991D01*
X002182Y001110D02*
X001531Y001110D01*
X001531Y001228D02*
X002182Y001228D01*
X002188Y001347D02*
X001531Y001347D01*
X001531Y001465D02*
X002223Y001465D01*
X002298Y001584D02*
X001531Y001584D01*
X002868Y001702D02*
X003322Y001702D01*
X003270Y001584D02*
X003025Y001584D01*
X003100Y001465D02*
X003202Y001465D01*
X003162Y001347D02*
X003135Y001347D01*
X003142Y001228D02*
X003162Y001228D01*
X003162Y001110D02*
X003142Y001110D01*
X002822Y003718D02*
X002687Y003718D01*
X002811Y003836D02*
X002822Y003836D01*
X002816Y003955D02*
X002822Y003955D01*
X002816Y004073D02*
X002822Y004073D01*
X002816Y004192D02*
X002822Y004192D01*
X002164Y004429D02*
X002045Y004429D01*
X002045Y004547D02*
X002164Y004547D01*
X002164Y004666D02*
X002045Y004666D01*
X002045Y004784D02*
X002164Y004784D01*
X002164Y004903D02*
X002045Y004903D01*
X001531Y005022D02*
X002822Y005022D01*
X002822Y005140D02*
X001531Y005140D01*
X001531Y005259D02*
X002822Y005259D01*
X002822Y005377D02*
X001531Y005377D01*
X001531Y005496D02*
X002822Y005496D01*
X002822Y005614D02*
X001531Y005614D01*
X001531Y005733D02*
X002822Y005733D01*
X002822Y005851D02*
X001531Y005851D01*
X001531Y005970D02*
X002822Y005970D01*
X002822Y006088D02*
X001531Y006088D01*
X001531Y006207D02*
X001789Y006207D01*
X001824Y006172D02*
X001685Y006311D01*
X001610Y006493D01*
X001610Y006690D01*
X001685Y006872D01*
X001824Y007011D01*
X002006Y007086D01*
X002203Y007086D01*
X002385Y007011D01*
X002524Y006872D01*
X002599Y006690D01*
X002599Y006493D01*
X002524Y006311D01*
X002385Y006172D01*
X002203Y006096D01*
X002006Y006096D01*
X001824Y006172D01*
X001679Y006326D02*
X001531Y006326D01*
X001531Y006444D02*
X001630Y006444D01*
X001610Y006563D02*
X001531Y006563D01*
X001531Y006681D02*
X001610Y006681D01*
X001655Y006800D02*
X001531Y006800D01*
X001531Y006918D02*
X001732Y006918D01*
X001887Y007037D02*
X001531Y007037D01*
X001531Y007155D02*
X002841Y007155D01*
X002822Y007037D02*
X002322Y007037D01*
X002478Y006918D02*
X002822Y006918D01*
X002822Y006800D02*
X002554Y006800D01*
X002599Y006681D02*
X002822Y006681D01*
X002822Y006563D02*
X002599Y006563D01*
X002579Y006444D02*
X002822Y006444D01*
X002822Y006326D02*
X002530Y006326D01*
X002420Y006207D02*
X002822Y006207D01*
X003422Y006207D02*
X003505Y006207D01*
X003422Y006088D02*
X003694Y006088D01*
X003422Y005970D02*
X008641Y005970D01*
X008641Y006088D02*
X004059Y006088D01*
X004248Y006207D02*
X007324Y006207D01*
X007293Y006326D02*
X004344Y006326D01*
X004394Y006444D02*
X007293Y006444D01*
X007293Y006563D02*
X004411Y006563D01*
X004411Y006681D02*
X007293Y006681D01*
X007305Y006800D02*
X004368Y006800D01*
X004305Y006918D02*
X007273Y006918D01*
X007995Y006800D02*
X008641Y006800D01*
X008641Y006918D02*
X008027Y006918D01*
X008007Y006681D02*
X008641Y006681D01*
X008641Y006563D02*
X008007Y006563D01*
X008007Y006444D02*
X008641Y006444D01*
X008641Y006326D02*
X008007Y006326D01*
X007976Y006207D02*
X008641Y006207D01*
X008660Y005851D02*
X003422Y005851D01*
X003422Y005733D02*
X008741Y005733D01*
X008771Y005703D02*
X008771Y005703D01*
X008859Y005614D02*
X003422Y005614D01*
X003422Y005496D02*
X008978Y005496D01*
X008442Y005377D02*
X003422Y005377D01*
X003422Y005259D02*
X008323Y005259D01*
X008198Y005140D02*
X003422Y005140D01*
X003422Y005022D02*
X008109Y005022D01*
X008109Y004903D02*
X005194Y004903D01*
X005217Y004784D02*
X008109Y004784D01*
X008109Y004666D02*
X005217Y004666D01*
X005217Y004547D02*
X008109Y004547D01*
X008109Y004429D02*
X005217Y004429D01*
X002822Y004547D02*
X002816Y004547D01*
X002816Y004666D02*
X002822Y004666D01*
X002816Y004784D02*
X002822Y004784D01*
X002822Y004903D02*
X002792Y004903D01*
X002921Y007274D02*
X001531Y007274D01*
X001531Y007392D02*
X003039Y007392D01*
X002952Y007305D02*
X002952Y007305D01*
X003170Y007511D02*
X001531Y007511D01*
X001531Y007629D02*
X005815Y007629D01*
X005815Y007748D02*
X001531Y007748D01*
X001531Y007867D02*
X005815Y007867D01*
X005815Y007985D02*
X001531Y007985D01*
X001531Y008104D02*
X005815Y008104D01*
X005815Y008222D02*
X005171Y008222D01*
X005132Y008183D02*
X005237Y008288D01*
X005237Y009382D01*
X005132Y009488D01*
X003880Y009488D01*
X003775Y009382D01*
X003775Y008288D01*
X003880Y008183D01*
X005132Y008183D01*
X005237Y008341D02*
X005815Y008341D01*
X005815Y008459D02*
X005797Y008459D01*
X005566Y008459D02*
X005237Y008459D01*
X005237Y008578D02*
X005389Y008578D01*
X005322Y008696D02*
X005237Y008696D01*
X005237Y008815D02*
X005301Y008815D01*
X005316Y008933D02*
X005237Y008933D01*
X005237Y009052D02*
X005373Y009052D01*
X005441Y009171D02*
X005237Y009171D01*
X005237Y009289D02*
X005441Y009289D01*
X005441Y009408D02*
X005212Y009408D01*
X005441Y009526D02*
X001531Y009526D01*
X001666Y009645D02*
X001783Y009645D01*
X001783Y009763D02*
X001666Y009763D01*
X001666Y009882D02*
X001783Y009882D01*
X001783Y010000D02*
X002135Y010000D01*
X002121Y009882D02*
X002135Y009882D01*
X002121Y009763D02*
X002135Y009763D01*
X002183Y009645D02*
X002064Y009645D01*
X002810Y009408D02*
X003800Y009408D01*
X003775Y009289D02*
X003328Y009289D01*
X003469Y009171D02*
X003775Y009171D01*
X003775Y009052D02*
X003520Y009052D01*
X003531Y008933D02*
X003775Y008933D01*
X003775Y008815D02*
X003505Y008815D01*
X003433Y008696D02*
X003775Y008696D01*
X003775Y008578D02*
X003242Y008578D01*
X003059Y008578D02*
X002836Y008578D01*
X002836Y008459D02*
X003775Y008459D01*
X003775Y008341D02*
X002836Y008341D01*
X002770Y008222D02*
X003841Y008222D01*
X005681Y008823D02*
X005681Y009856D01*
X005534Y010004D01*
X005229Y010004D01*
X005605Y010237D02*
X005815Y010237D01*
X005815Y010119D02*
X005758Y010119D01*
X005815Y010356D02*
X005544Y010356D01*
X005815Y010475D02*
X001531Y010475D01*
X001531Y010593D02*
X005815Y010593D01*
X005815Y010712D02*
X001531Y010712D01*
X001666Y010830D02*
X001783Y010830D01*
X001783Y010949D02*
X001666Y010949D01*
X001666Y011067D02*
X001783Y011067D01*
X001783Y011186D02*
X002135Y011186D01*
X002121Y011304D02*
X002135Y011304D01*
X002121Y011423D02*
X002135Y011423D01*
X002181Y011541D02*
X002067Y011541D01*
X001783Y011541D02*
X001666Y011541D01*
X001666Y011423D02*
X001783Y011423D01*
X001783Y011304D02*
X001666Y011304D01*
X002121Y011067D02*
X002135Y011067D01*
X002121Y010949D02*
X002135Y010949D01*
X002179Y010830D02*
X002069Y010830D01*
X002071Y010356D02*
X002177Y010356D01*
X002135Y010237D02*
X002121Y010237D01*
X002121Y010119D02*
X002135Y010119D01*
X002551Y010004D02*
X004559Y010004D01*
X004182Y009763D02*
X002968Y009763D01*
X002919Y009645D02*
X004250Y009645D01*
X004868Y009645D02*
X004920Y009645D01*
X004913Y010356D02*
X004875Y010356D01*
X004244Y010356D02*
X002926Y010356D01*
X002924Y010830D02*
X004246Y010830D01*
X004872Y010830D02*
X004915Y010830D01*
X005542Y010830D02*
X005815Y010830D01*
X006064Y011541D02*
X005540Y011541D01*
X004917Y011541D02*
X004871Y011541D01*
X004248Y011541D02*
X002922Y011541D01*
X001531Y011660D02*
X006182Y011660D01*
X006301Y011779D02*
X001531Y011779D01*
X001666Y010356D02*
X001783Y010356D01*
X001783Y010237D02*
X001666Y010237D01*
X001666Y010119D02*
X001783Y010119D01*
X009241Y007274D02*
X011667Y007274D01*
X011549Y007155D02*
X009241Y007155D01*
X009241Y007037D02*
X011430Y007037D01*
X011311Y006918D02*
X009241Y006918D01*
X009241Y006800D02*
X011193Y006800D01*
X011074Y006681D02*
X009241Y006681D01*
X009241Y006563D02*
X010956Y006563D01*
X010837Y006444D02*
X009241Y006444D01*
X009241Y006326D02*
X010719Y006326D01*
X010600Y006207D02*
X009241Y006207D01*
X009241Y006088D02*
X010482Y006088D01*
X010363Y005970D02*
X009352Y005970D01*
X009578Y005851D02*
X010245Y005851D01*
X010126Y005733D02*
X009698Y005733D01*
X009747Y005614D02*
X010007Y005614D01*
X009889Y005496D02*
X009752Y005496D01*
X010212Y005140D02*
X010698Y005140D01*
X010454Y005022D02*
X010424Y005022D01*
X010424Y004903D02*
X010454Y004903D01*
X010454Y004784D02*
X010424Y004784D01*
X010424Y004711D02*
X010454Y004711D01*
X010454Y004316D01*
X010610Y004316D01*
X010639Y004324D01*
X010639Y004091D01*
X010626Y004091D01*
X010521Y003986D01*
X010521Y003404D01*
X010579Y003346D01*
X010573Y003340D01*
X010552Y003304D01*
X010541Y003263D01*
X010541Y003064D01*
X010859Y003064D01*
X010859Y002987D01*
X010541Y002987D01*
X010541Y002788D01*
X010547Y002763D01*
X010505Y002763D01*
X010179Y003089D01*
X010179Y004312D01*
X010207Y004339D01*
X010227Y004327D01*
X010268Y004316D01*
X010424Y004316D01*
X010424Y004711D01*
X010424Y004666D02*
X010454Y004666D01*
X010454Y004547D02*
X010424Y004547D01*
X010424Y004429D02*
X010454Y004429D01*
X010639Y004310D02*
X010179Y004310D01*
X010179Y004192D02*
X010639Y004192D01*
X010608Y004073D02*
X010179Y004073D01*
X010179Y003955D02*
X010521Y003955D01*
X010521Y003836D02*
X010179Y003836D01*
X010179Y003718D02*
X010521Y003718D01*
X010521Y003599D02*
X010179Y003599D01*
X010179Y003480D02*
X010521Y003480D01*
X010563Y003362D02*
X010179Y003362D01*
X010179Y003243D02*
X010541Y003243D01*
X010541Y003125D02*
X010179Y003125D01*
X010262Y003006D02*
X010859Y003006D01*
X010936Y003006D02*
X012356Y003006D01*
X012356Y002888D02*
X011255Y002888D01*
X011255Y002987D02*
X010936Y002987D01*
X010936Y003064D01*
X011255Y003064D01*
X011255Y003263D01*
X011244Y003304D01*
X011223Y003340D01*
X011217Y003346D01*
X011275Y003404D01*
X011275Y003781D01*
X011426Y003781D01*
X011566Y003839D01*
X011601Y003874D01*
X011635Y003839D01*
X011775Y003781D01*
X011926Y003781D01*
X012066Y003839D01*
X012173Y003946D01*
X012231Y004086D01*
X012231Y004106D01*
X012241Y004096D01*
X012466Y003871D01*
X012461Y003871D01*
X012356Y003766D01*
X012356Y003166D01*
X012356Y002557D01*
X012461Y002451D01*
X013215Y002451D01*
X013233Y002407D01*
X013340Y002300D01*
X013480Y002242D01*
X013631Y002242D01*
X013771Y002300D01*
X013877Y002407D01*
X013918Y002504D01*
X014654Y001769D01*
X014562Y001769D01*
X014378Y001693D01*
X014238Y001552D01*
X014162Y001368D01*
X014162Y000529D01*
X014238Y000345D01*
X014242Y000341D01*
X014081Y000341D01*
X014085Y000345D01*
X014162Y000529D01*
X014162Y001368D01*
X014085Y001552D01*
X013945Y001693D01*
X013761Y001769D01*
X013562Y001769D01*
X013378Y001693D01*
X013238Y001552D01*
X013162Y001368D01*
X013162Y000529D01*
X013238Y000345D01*
X013242Y000341D01*
X013081Y000341D01*
X013085Y000345D01*
X013162Y000529D01*
X013162Y001368D01*
X013085Y001552D01*
X012945Y001693D01*
X012761Y001769D01*
X012681Y001769D01*
X011790Y002659D01*
X011723Y002727D01*
X011634Y002763D01*
X011248Y002763D01*
X011255Y002788D01*
X011255Y002987D01*
X011255Y003125D02*
X012356Y003125D01*
X012356Y003243D02*
X011255Y003243D01*
X011233Y003362D02*
X012356Y003362D01*
X012356Y003480D02*
X011275Y003480D01*
X011275Y003599D02*
X012356Y003599D01*
X012356Y003718D02*
X011275Y003718D01*
X011275Y003781D02*
X011275Y003781D01*
X011559Y003836D02*
X011642Y003836D01*
X012059Y003836D02*
X012426Y003836D01*
X012383Y003955D02*
X012176Y003955D01*
X012225Y004073D02*
X012264Y004073D01*
X011941Y004251D02*
X011851Y004161D01*
X011941Y004251D02*
X011941Y004731D01*
X011949Y004739D01*
X011939Y004726D01*
X011439Y004726D02*
X011451Y004261D01*
X011351Y004161D01*
X009939Y004726D02*
X009939Y002990D01*
X010406Y002523D01*
X011587Y002523D01*
X012662Y001449D01*
X012662Y000949D01*
X013162Y000991D02*
X013162Y000991D01*
X013162Y000873D02*
X013162Y000873D01*
X013162Y000754D02*
X013162Y000754D01*
X013162Y000635D02*
X013162Y000635D01*
X013156Y000517D02*
X013167Y000517D01*
X013216Y000398D02*
X013107Y000398D01*
X014107Y000398D02*
X014216Y000398D01*
X014167Y000517D02*
X014156Y000517D01*
X014162Y000635D02*
X014162Y000635D01*
X014162Y000754D02*
X014162Y000754D01*
X014162Y000873D02*
X014162Y000873D01*
X014162Y000991D02*
X014162Y000991D01*
X014162Y001110D02*
X014162Y001110D01*
X014162Y001228D02*
X014162Y001228D01*
X014162Y001347D02*
X014162Y001347D01*
X014121Y001465D02*
X014202Y001465D01*
X014270Y001584D02*
X014054Y001584D01*
X013921Y001702D02*
X014402Y001702D01*
X014602Y001821D02*
X012629Y001821D01*
X012510Y001939D02*
X014483Y001939D01*
X014364Y002058D02*
X012392Y002058D01*
X012273Y002176D02*
X014246Y002176D01*
X014127Y002295D02*
X013759Y002295D01*
X013880Y002414D02*
X014009Y002414D01*
X013351Y002295D02*
X012155Y002295D01*
X012036Y002414D02*
X013230Y002414D01*
X012380Y002532D02*
X011917Y002532D01*
X011799Y002651D02*
X012356Y002651D01*
X012356Y002769D02*
X011250Y002769D01*
X010546Y002769D02*
X010499Y002769D01*
X010541Y002888D02*
X010381Y002888D01*
X010351Y002161D02*
X009439Y003073D01*
X009439Y004726D01*
X008939Y004726D02*
X008939Y003073D01*
X010662Y001350D01*
X010662Y000949D01*
X011662Y000949D02*
X011662Y001350D01*
X010851Y002161D01*
X010351Y002161D01*
X012921Y001702D02*
X013402Y001702D01*
X013270Y001584D02*
X013054Y001584D01*
X013121Y001465D02*
X013202Y001465D01*
X013162Y001347D02*
X013162Y001347D01*
X013162Y001228D02*
X013162Y001228D01*
X013162Y001110D02*
X013162Y001110D01*
X014851Y001911D02*
X013301Y003461D01*
X012851Y003461D01*
X013949Y004246D02*
X013949Y004716D01*
X013939Y004726D01*
X013951Y004561D01*
X014224Y004310D02*
X014701Y004310D01*
X014454Y004429D02*
X014424Y004429D01*
X014424Y004547D02*
X014454Y004547D01*
X014454Y004666D02*
X014424Y004666D01*
X014424Y004741D02*
X014424Y005136D01*
X014268Y005136D01*
X014227Y005125D01*
X014207Y005113D01*
X014164Y005156D01*
X013715Y005156D01*
X013689Y005131D01*
X013664Y005156D01*
X013215Y005156D01*
X013189Y005131D01*
X013164Y005156D01*
X012715Y005156D01*
X012689Y005131D01*
X012664Y005156D01*
X012215Y005156D01*
X012204Y005146D01*
X012209Y005512D01*
X012743Y006046D01*
X020577Y006046D01*
X020488Y005957D01*
X020451Y005868D01*
X020451Y005773D01*
X020451Y004802D01*
X020413Y004763D01*
X020413Y004102D01*
X020417Y004098D01*
X020413Y004094D01*
X020413Y004070D01*
X020370Y004112D01*
X020376Y004118D01*
X020397Y004155D01*
X020408Y004195D01*
X020408Y004394D01*
X020090Y004394D01*
X020090Y004471D01*
X020408Y004471D01*
X020408Y004671D01*
X020397Y004711D01*
X020376Y004748D01*
X020346Y004777D01*
X020310Y004799D01*
X020269Y004809D01*
X020090Y004809D01*
X020090Y004472D01*
X020013Y004472D01*
X020013Y004809D01*
X019833Y004809D01*
X019793Y004799D01*
X019756Y004777D01*
X019726Y004748D01*
X019705Y004711D01*
X019694Y004671D01*
X019694Y004471D01*
X020013Y004471D01*
X020013Y004394D01*
X019694Y004394D01*
X019694Y004195D01*
X019705Y004155D01*
X019726Y004118D01*
X019732Y004112D01*
X019674Y004055D01*
X019674Y003473D01*
X019711Y003436D01*
X019711Y003257D01*
X019562Y003257D01*
X019562Y003425D01*
X019457Y003530D01*
X018717Y003530D01*
X018634Y003447D01*
X018551Y003530D01*
X018481Y003530D01*
X018481Y003617D01*
X018436Y003727D01*
X018351Y003811D01*
X017416Y004746D01*
X017306Y004792D01*
X017186Y004792D01*
X016620Y004792D01*
X016583Y004829D01*
X016040Y004829D01*
X016002Y004792D01*
X015833Y004792D01*
X015795Y004829D01*
X015269Y004829D01*
X015269Y005051D01*
X015233Y005087D01*
X015233Y005239D01*
X015255Y005261D01*
X015313Y005401D01*
X015313Y005552D01*
X015255Y005691D01*
X015148Y005798D01*
X015009Y005856D01*
X014858Y005856D01*
X014718Y005798D01*
X014611Y005691D01*
X014553Y005552D01*
X014553Y005401D01*
X014611Y005261D01*
X014633Y005239D01*
X014633Y005130D01*
X014610Y005136D01*
X014454Y005136D01*
X014454Y004741D01*
X014424Y004741D01*
X014424Y004784D02*
X014454Y004784D01*
X014454Y004903D02*
X014424Y004903D01*
X014424Y005022D02*
X014454Y005022D01*
X014633Y005140D02*
X014180Y005140D01*
X014613Y005259D02*
X012206Y005259D01*
X012207Y005377D02*
X014563Y005377D01*
X014553Y005496D02*
X012209Y005496D01*
X012311Y005614D02*
X014579Y005614D01*
X014652Y005733D02*
X012430Y005733D01*
X012548Y005851D02*
X014846Y005851D01*
X015021Y005851D02*
X017253Y005851D01*
X017253Y005905D02*
X017253Y004969D01*
X017359Y004863D01*
X019004Y004863D01*
X019109Y004969D01*
X019109Y005905D01*
X019004Y006011D01*
X017359Y006011D01*
X017253Y005905D01*
X017318Y005970D02*
X012667Y005970D01*
X011906Y006444D02*
X011516Y006444D01*
X011398Y006326D02*
X011787Y006326D01*
X011669Y006207D02*
X011279Y006207D01*
X011160Y006088D02*
X011550Y006088D01*
X011431Y005970D02*
X011042Y005970D01*
X010923Y005851D02*
X011313Y005851D01*
X011215Y005733D02*
X010805Y005733D01*
X010686Y005614D02*
X011190Y005614D01*
X011189Y005496D02*
X010568Y005496D01*
X010449Y005377D02*
X011187Y005377D01*
X011186Y005259D02*
X010331Y005259D01*
X011180Y005140D02*
X011184Y005140D01*
X012680Y005140D02*
X012698Y005140D01*
X013180Y005140D02*
X013198Y005140D01*
X013680Y005140D02*
X013699Y005140D01*
X013451Y004751D02*
X013439Y004726D01*
X013451Y004311D01*
X015351Y002411D01*
X016351Y002411D01*
X017662Y001100D01*
X017662Y000949D01*
X018162Y000991D02*
X018162Y000991D01*
X018162Y000873D02*
X018162Y000873D01*
X018162Y000754D02*
X018162Y000754D01*
X018162Y000635D02*
X018162Y000635D01*
X018156Y000517D02*
X018167Y000517D01*
X018216Y000398D02*
X018107Y000398D01*
X019107Y000398D02*
X019216Y000398D01*
X019167Y000517D02*
X019156Y000517D01*
X019162Y000635D02*
X019162Y000635D01*
X019162Y000754D02*
X019162Y000754D01*
X019162Y000873D02*
X019162Y000873D01*
X019162Y000991D02*
X019162Y000991D01*
X019162Y001110D02*
X019162Y001110D01*
X019162Y001228D02*
X019162Y001228D01*
X019162Y001347D02*
X019162Y001347D01*
X019121Y001465D02*
X019202Y001465D01*
X019270Y001584D02*
X019054Y001584D01*
X018921Y001702D02*
X019402Y001702D01*
X019921Y001702D02*
X020402Y001702D01*
X020270Y001584D02*
X020054Y001584D01*
X020121Y001465D02*
X020202Y001465D01*
X020162Y001347D02*
X020162Y001347D01*
X020162Y001228D02*
X020162Y001228D01*
X020162Y001110D02*
X020162Y001110D01*
X020162Y000991D02*
X020162Y000991D01*
X020162Y000873D02*
X020162Y000873D01*
X020162Y000754D02*
X020162Y000754D01*
X020162Y000635D02*
X020162Y000635D01*
X020156Y000517D02*
X020167Y000517D01*
X020216Y000398D02*
X020107Y000398D01*
X021107Y000398D02*
X021216Y000398D01*
X021167Y000517D02*
X021156Y000517D01*
X021162Y000635D02*
X021162Y000635D01*
X021162Y000754D02*
X021162Y000754D01*
X021162Y000873D02*
X021162Y000873D01*
X021162Y000991D02*
X021162Y000991D01*
X021162Y001110D02*
X021162Y001110D01*
X021162Y001228D02*
X021162Y001228D01*
X021162Y001347D02*
X021162Y001347D01*
X021121Y001465D02*
X021202Y001465D01*
X021270Y001584D02*
X021054Y001584D01*
X020921Y001702D02*
X021402Y001702D01*
X021921Y001702D02*
X022402Y001702D01*
X022270Y001584D02*
X022054Y001584D01*
X022121Y001465D02*
X022202Y001465D01*
X022162Y001347D02*
X022162Y001347D01*
X022162Y001228D02*
X022162Y001228D01*
X022162Y001110D02*
X022162Y001110D01*
X022162Y000991D02*
X022162Y000991D01*
X022162Y000873D02*
X022162Y000873D01*
X022162Y000754D02*
X022162Y000754D01*
X022162Y000635D02*
X022162Y000635D01*
X022156Y000517D02*
X022167Y000517D01*
X022216Y000398D02*
X022107Y000398D01*
X023107Y000398D02*
X024793Y000398D01*
X024793Y000517D02*
X023156Y000517D01*
X023162Y000635D02*
X024793Y000635D01*
X024793Y000754D02*
X023162Y000754D01*
X023162Y000873D02*
X024793Y000873D01*
X024793Y000991D02*
X024397Y000991D01*
X024397Y000990D02*
X024397Y001694D01*
X024291Y001800D01*
X023587Y001800D01*
X023482Y001694D01*
X023482Y000990D01*
X023587Y000885D01*
X024291Y000885D01*
X024397Y000990D01*
X024397Y001110D02*
X024793Y001110D01*
X024793Y001228D02*
X024397Y001228D01*
X024397Y001347D02*
X024793Y001347D01*
X024793Y001465D02*
X024397Y001465D01*
X024397Y001584D02*
X024793Y001584D01*
X024793Y001702D02*
X024389Y001702D01*
X024162Y001939D02*
X024793Y001939D01*
X024793Y001821D02*
X017280Y001821D01*
X017162Y001939D02*
X023716Y001939D01*
X023490Y001702D02*
X022921Y001702D01*
X023054Y001584D02*
X023482Y001584D01*
X023482Y001465D02*
X023121Y001465D01*
X023162Y001347D02*
X023482Y001347D01*
X023482Y001228D02*
X023162Y001228D01*
X023162Y001110D02*
X023482Y001110D01*
X023482Y000991D02*
X023162Y000991D01*
X024302Y002058D02*
X024793Y002058D01*
X024793Y002176D02*
X024366Y002176D01*
X024397Y002295D02*
X024793Y002295D01*
X024793Y002414D02*
X024397Y002414D01*
X024356Y002532D02*
X024793Y002532D01*
X024793Y002651D02*
X024278Y002651D01*
X024104Y002769D02*
X024793Y002769D01*
X024793Y002888D02*
X024037Y002888D01*
X023841Y002888D02*
X020561Y002888D01*
X020443Y003006D02*
X021232Y003006D01*
X021046Y003125D02*
X020391Y003125D01*
X020391Y003243D02*
X020927Y003243D01*
X020484Y003362D02*
X020391Y003362D01*
X019711Y003362D02*
X019562Y003362D01*
X019506Y003480D02*
X019674Y003480D01*
X019674Y003599D02*
X018481Y003599D01*
X018439Y003718D02*
X019674Y003718D01*
X019674Y003836D02*
X018326Y003836D01*
X018351Y003811D02*
X018351Y003811D01*
X018208Y003955D02*
X019674Y003955D01*
X019693Y004073D02*
X018089Y004073D01*
X017971Y004192D02*
X019695Y004192D01*
X019694Y004310D02*
X017852Y004310D01*
X017734Y004429D02*
X020013Y004429D01*
X020090Y004429D02*
X020413Y004429D01*
X020408Y004547D02*
X020413Y004547D01*
X020408Y004666D02*
X020413Y004666D01*
X020434Y004784D02*
X020334Y004784D01*
X020451Y004903D02*
X019044Y004903D01*
X019109Y005022D02*
X020451Y005022D01*
X020451Y005140D02*
X019109Y005140D01*
X019109Y005259D02*
X020451Y005259D01*
X020451Y005377D02*
X019109Y005377D01*
X019109Y005496D02*
X020451Y005496D01*
X020451Y005614D02*
X019109Y005614D01*
X019109Y005733D02*
X020451Y005733D01*
X020451Y005851D02*
X019109Y005851D01*
X019044Y005970D02*
X020501Y005970D01*
X020722Y005851D02*
X022512Y005851D01*
X022512Y005733D02*
X020691Y005733D01*
X020691Y005821D02*
X020691Y004492D01*
X021085Y004492D01*
X021085Y004984D01*
X021626Y005525D01*
X022315Y005525D01*
X022512Y005722D01*
X022512Y006018D01*
X020888Y006018D01*
X020691Y005821D01*
X020691Y005614D02*
X022404Y005614D01*
X022625Y005496D02*
X022886Y005496D01*
X022803Y005614D02*
X022727Y005614D01*
X022752Y005733D02*
X022774Y005733D01*
X022852Y006001D02*
X023042Y006191D01*
X023422Y006191D01*
X022836Y006326D02*
X022741Y006326D01*
X022852Y006001D02*
X021472Y006001D01*
X021482Y005991D01*
X021682Y005991D01*
X022512Y005970D02*
X020840Y005970D01*
X020691Y005496D02*
X021596Y005496D01*
X021478Y005377D02*
X020691Y005377D01*
X020691Y005259D02*
X021359Y005259D01*
X021241Y005140D02*
X020691Y005140D01*
X020691Y005022D02*
X021122Y005022D01*
X021085Y004903D02*
X020691Y004903D01*
X020691Y004784D02*
X021085Y004784D01*
X021085Y004666D02*
X020691Y004666D01*
X020691Y004547D02*
X021085Y004547D01*
X021363Y004547D02*
X021475Y004547D01*
X021475Y004429D02*
X021363Y004429D01*
X021363Y004310D02*
X021566Y004310D01*
X021475Y004666D02*
X021363Y004666D01*
X021342Y004784D02*
X021475Y004784D01*
X021475Y004903D02*
X021343Y004903D01*
X021462Y005022D02*
X021475Y005022D01*
X020090Y004784D02*
X020013Y004784D01*
X020013Y004666D02*
X020090Y004666D01*
X020090Y004547D02*
X020013Y004547D01*
X019694Y004547D02*
X017615Y004547D01*
X017496Y004666D02*
X019694Y004666D01*
X019768Y004784D02*
X017324Y004784D01*
X017319Y004903D02*
X015269Y004903D01*
X015269Y005022D02*
X017253Y005022D01*
X017253Y005140D02*
X015233Y005140D01*
X015253Y005259D02*
X017253Y005259D01*
X017253Y005377D02*
X015303Y005377D01*
X015313Y005496D02*
X017253Y005496D01*
X017253Y005614D02*
X015287Y005614D01*
X015214Y005733D02*
X017253Y005733D01*
X015248Y007037D02*
X021082Y007037D01*
X021082Y006918D02*
X011990Y006918D01*
X011872Y006800D02*
X012261Y006800D01*
X012143Y006681D02*
X011753Y006681D01*
X011635Y006563D02*
X012024Y006563D01*
X012074Y007511D02*
X012327Y007511D01*
X012574Y007511D02*
X012827Y007511D01*
X013074Y007511D02*
X013352Y007511D01*
X013549Y007511D02*
X015054Y007511D01*
X015172Y007629D02*
X014726Y007629D01*
X015495Y007274D02*
X016216Y007274D01*
X016216Y007230D02*
X016226Y007189D01*
X016248Y007153D01*
X016277Y007123D01*
X016314Y007102D01*
X016354Y007091D01*
X016685Y007091D01*
X016685Y007386D01*
X016216Y007386D01*
X016216Y007230D01*
X016246Y007155D02*
X015377Y007155D01*
X015614Y007392D02*
X016685Y007392D01*
X016685Y007386D02*
X016685Y007416D01*
X016216Y007416D01*
X016216Y007572D01*
X016226Y007613D01*
X016248Y007649D01*
X016277Y007679D01*
X016314Y007700D01*
X016354Y007711D01*
X016685Y007711D01*
X016685Y007416D01*
X016716Y007416D01*
X017186Y007416D01*
X017186Y007572D01*
X017175Y007613D01*
X017154Y007649D01*
X017124Y007679D01*
X017087Y007700D01*
X017047Y007711D01*
X016716Y007711D01*
X016716Y007416D01*
X016716Y007386D01*
X017186Y007386D01*
X017186Y007230D01*
X017175Y007189D01*
X017154Y007153D01*
X017124Y007123D01*
X017087Y007102D01*
X017047Y007091D01*
X016716Y007091D01*
X016716Y007386D01*
X016685Y007386D01*
X016716Y007392D02*
X018685Y007392D01*
X018685Y007386D02*
X018216Y007386D01*
X018216Y007230D01*
X018226Y007189D01*
X018248Y007153D01*
X018277Y007123D01*
X018314Y007102D01*
X018354Y007091D01*
X018685Y007091D01*
X018685Y007386D01*
X018685Y007416D01*
X018216Y007416D01*
X018216Y007572D01*
X018226Y007613D01*
X018248Y007649D01*
X018277Y007679D01*
X018314Y007700D01*
X018354Y007711D01*
X018685Y007711D01*
X018685Y007416D01*
X018716Y007416D01*
X019186Y007416D01*
X019186Y007572D01*
X019175Y007613D01*
X019154Y007649D01*
X019124Y007679D01*
X019087Y007700D01*
X019047Y007711D01*
X018716Y007711D01*
X018716Y007416D01*
X018716Y007386D01*
X019186Y007386D01*
X019186Y007230D01*
X019175Y007189D01*
X019154Y007153D01*
X019124Y007123D01*
X019087Y007102D01*
X019047Y007091D01*
X018716Y007091D01*
X018716Y007386D01*
X018685Y007386D01*
X018716Y007392D02*
X021107Y007392D01*
X021102Y007274D02*
X019186Y007274D01*
X019155Y007155D02*
X021102Y007155D01*
X021102Y007251D02*
X021911Y007251D01*
X021911Y007251D01*
X021102Y007251D01*
X021911Y007252D02*
X021911Y007510D01*
X021911Y007252D01*
X021911Y007252D01*
X021911Y007274D02*
X021911Y007274D01*
X021911Y007392D02*
X021911Y007392D01*
X020509Y007985D02*
X020341Y007985D01*
X020396Y008380D02*
X019854Y007838D01*
X019504Y007985D02*
X019356Y007985D01*
X019238Y007867D02*
X019474Y007867D01*
X019481Y007748D02*
X015970Y007748D01*
X015851Y007629D02*
X016236Y007629D01*
X016216Y007511D02*
X015733Y007511D01*
X016685Y007511D02*
X016716Y007511D01*
X016716Y007629D02*
X016685Y007629D01*
X017165Y007629D02*
X018236Y007629D01*
X018216Y007511D02*
X017186Y007511D01*
X017186Y007274D02*
X018216Y007274D01*
X018246Y007155D02*
X017155Y007155D01*
X016716Y007155D02*
X016685Y007155D01*
X016685Y007274D02*
X016716Y007274D01*
X018685Y007274D02*
X018716Y007274D01*
X018716Y007155D02*
X018685Y007155D01*
X018685Y007511D02*
X018716Y007511D01*
X018716Y007629D02*
X018685Y007629D01*
X019165Y007629D02*
X019530Y007629D01*
X019652Y007511D02*
X019186Y007511D01*
X019475Y008104D02*
X019582Y008104D01*
X019593Y008222D02*
X019899Y008222D01*
X020017Y008341D02*
X019712Y008341D01*
X019831Y008459D02*
X020136Y008459D01*
X020156Y008578D02*
X020022Y008578D01*
X020054Y008696D02*
X020156Y008696D01*
X020156Y008815D02*
X020054Y008815D01*
X020054Y008933D02*
X020156Y008933D01*
X020156Y009052D02*
X020054Y009052D01*
X020396Y008380D02*
X020396Y010250D01*
X019854Y010791D01*
X019823Y010791D01*
X020299Y010949D02*
X020347Y010949D01*
X020323Y010891D02*
X020323Y010692D01*
X020314Y010671D01*
X020344Y010641D01*
X020323Y010692D01*
X020323Y010891D01*
X020323Y010830D02*
X020323Y010830D01*
X020323Y010712D02*
X020323Y010712D01*
X020823Y010791D02*
X020839Y010791D01*
X020839Y008183D01*
X024218Y010291D02*
X024323Y010397D01*
X024323Y011186D01*
X024323Y011067D02*
X024793Y011067D01*
X024793Y010949D02*
X024323Y010949D01*
X024323Y010830D02*
X024793Y010830D01*
X024793Y010712D02*
X024323Y010712D01*
X024323Y010593D02*
X024793Y010593D01*
X024793Y010475D02*
X024323Y010475D01*
X024282Y010356D02*
X024793Y010356D01*
X024793Y011423D02*
X023083Y011423D01*
X023083Y011541D02*
X024793Y011541D01*
X024793Y011660D02*
X023044Y011660D01*
X022926Y011779D02*
X024793Y011779D01*
X022511Y011186D02*
X022096Y011186D01*
X022216Y011067D02*
X022396Y011067D01*
X022347Y010949D02*
X022276Y010949D01*
X021430Y011067D02*
X021250Y011067D01*
X021247Y011074D02*
X021106Y011215D01*
X021247Y011074D02*
X021323Y010891D01*
X021299Y010949D02*
X021369Y010949D01*
X021350Y010712D02*
X021323Y010712D01*
X021282Y010593D02*
X021385Y010593D01*
X021461Y010475D02*
X021213Y010475D01*
X020396Y011067D02*
X020250Y011067D01*
X020135Y011186D02*
X020511Y011186D01*
X007688Y006444D02*
X007611Y006444D01*
X007611Y006326D02*
X007688Y006326D01*
X007688Y006207D02*
X007611Y006207D01*
X012939Y004726D02*
X012951Y004311D01*
X015101Y002161D01*
X015851Y002161D01*
X016662Y001350D01*
X016662Y000949D01*
X015662Y000949D02*
X015662Y001600D01*
X015351Y001911D01*
X014851Y001911D01*
X016400Y002651D02*
X016820Y002651D01*
X016820Y002769D02*
X015332Y002769D01*
X015213Y002888D02*
X016820Y002888D01*
X017216Y002888D02*
X017336Y002888D01*
X017336Y002769D02*
X017216Y002769D01*
X017216Y002651D02*
X017336Y002651D01*
X017336Y002532D02*
X017216Y002532D01*
X017216Y002414D02*
X017336Y002414D01*
X017632Y002414D02*
X017781Y002414D01*
X018582Y002414D02*
X018686Y002414D01*
X019487Y002414D02*
X020074Y002414D01*
X019956Y002532D02*
X019562Y002532D01*
X020193Y002295D02*
X016806Y002295D01*
X016919Y002414D02*
X016688Y002414D01*
X016569Y002532D02*
X016823Y002532D01*
X016925Y002176D02*
X020311Y002176D01*
X020430Y002058D02*
X017043Y002058D01*
X017399Y001702D02*
X017402Y001702D01*
X017921Y001702D02*
X018402Y001702D01*
X018270Y001584D02*
X018054Y001584D01*
X018121Y001465D02*
X018202Y001465D01*
X018162Y001347D02*
X018162Y001347D01*
X018162Y001228D02*
X018162Y001228D01*
X018162Y001110D02*
X018162Y001110D01*
X020680Y002769D02*
X023774Y002769D01*
X024250Y003006D02*
X024793Y003006D01*
X024793Y003125D02*
X024344Y003125D01*
X024393Y003243D02*
X024793Y003243D01*
X023667Y003718D02*
X021415Y003718D01*
X020413Y004073D02*
X020410Y004073D01*
X020407Y004192D02*
X020413Y004192D01*
X020408Y004310D02*
X020413Y004310D01*
X018667Y003480D02*
X018601Y003480D01*
X017762Y003480D02*
X017665Y003480D01*
X017715Y003599D02*
X016668Y003599D01*
X016668Y003526D02*
X016668Y003725D01*
X016350Y003725D01*
X016350Y003387D01*
X016529Y003387D01*
X016570Y003398D01*
X016606Y003419D01*
X016636Y003449D01*
X016657Y003485D01*
X016668Y003526D01*
X016654Y003480D02*
X016886Y003480D01*
X016820Y003362D02*
X014882Y003362D01*
X014858Y003243D02*
X016820Y003243D01*
X016820Y003125D02*
X014976Y003125D01*
X015095Y003006D02*
X017216Y003006D01*
X017216Y003125D02*
X017336Y003125D01*
X017336Y003243D02*
X017216Y003243D01*
X017216Y003362D02*
X017336Y003362D01*
X017336Y003480D02*
X017216Y003480D01*
X017596Y003718D02*
X016668Y003718D01*
X016668Y003836D02*
X017478Y003836D01*
X017359Y003955D02*
X016668Y003955D01*
X016639Y004073D02*
X017241Y004073D01*
X017122Y004192D02*
X016688Y004192D01*
X015983Y004073D02*
X015852Y004073D01*
X015881Y003955D02*
X015954Y003955D01*
X015954Y003836D02*
X015881Y003836D01*
X015881Y003718D02*
X015954Y003718D01*
X015954Y003599D02*
X015881Y003599D01*
X015867Y003480D02*
X015968Y003480D01*
X016273Y003480D02*
X016350Y003480D01*
X016350Y003599D02*
X016273Y003599D01*
X016273Y003718D02*
X016350Y003718D01*
X015562Y003718D02*
X015485Y003718D01*
X015485Y003599D02*
X015562Y003599D01*
X015562Y003480D02*
X015485Y003480D01*
X015181Y003480D02*
X014977Y003480D01*
X015018Y003599D02*
X015167Y003599D01*
X015167Y003718D02*
X015018Y003718D01*
X014974Y003836D02*
X015167Y003836D01*
X015167Y003955D02*
X014876Y003955D01*
X015196Y004073D02*
X014461Y004073D01*
X014343Y004192D02*
X015049Y004192D01*
X015901Y004192D02*
X015934Y004192D01*
X014638Y003655D02*
X014540Y003655D01*
X013949Y004246D01*
X012951Y004741D02*
X012939Y004726D01*
D30*
X011851Y004161D03*
X011351Y004161D03*
X010406Y004098D03*
X010356Y003262D03*
X013555Y002622D03*
X015524Y003262D03*
X016311Y003262D03*
X016557Y002868D03*
X017197Y002130D03*
X018851Y002161D03*
X017246Y003754D03*
X014726Y004161D03*
X014638Y003655D03*
X015917Y005083D03*
X014933Y005476D03*
X014490Y005919D03*
X015967Y007396D03*
X014451Y007891D03*
X013951Y007891D03*
X013451Y007881D03*
X012951Y007871D03*
X012451Y007871D03*
X011951Y007871D03*
X011439Y007838D03*
X009941Y007881D03*
X009441Y007881D03*
X008437Y007838D03*
X007896Y007838D03*
X006469Y007691D03*
X005681Y008823D03*
X003910Y007838D03*
X003151Y008951D03*
X006616Y010004D03*
X006616Y011136D03*
X003311Y010604D03*
X001744Y010594D03*
X010012Y009216D03*
X011439Y009216D03*
X013555Y009610D03*
X014786Y010102D03*
X014786Y011136D03*
X018132Y009413D03*
X018969Y009610D03*
X018526Y010004D03*
X020839Y008183D03*
X019854Y007838D03*
X020839Y007445D03*
X020835Y007031D03*
X019461Y007396D03*
X017689Y007396D03*
X019854Y005083D03*
X023083Y005217D03*
X022912Y006571D03*
X022902Y006991D03*
X023004Y009413D03*
X010603Y006657D03*
X009372Y005525D03*
X007108Y006510D03*
X003910Y005870D03*
X002461Y005161D03*
X002071Y005571D03*
X001711Y005131D03*
X003614Y004640D03*
X003614Y004098D03*
X002441Y003561D03*
X002081Y003191D03*
X001711Y003561D03*
X005386Y004098D03*
X005386Y004640D03*
X023142Y002861D03*
D31*
X021911Y006306D02*
X012636Y006306D01*
X011951Y005621D01*
X011939Y004726D01*
X011439Y004726D02*
X011451Y005621D01*
X012451Y006621D01*
X021911Y006621D01*
X021332Y007251D02*
X021162Y007251D01*
X022512Y007261D02*
X022702Y007261D01*
X018701Y008901D02*
X018526Y008928D01*
X018526Y010004D01*
X018024Y010004D01*
X017354Y010004D02*
X017354Y011716D01*
X017345Y011726D01*
X006616Y011726D01*
X006075Y011185D01*
X006075Y007248D01*
X008437Y008429D02*
X008439Y008431D01*
X008439Y008490D01*
X008939Y008490D02*
X008941Y008493D01*
X008801Y010621D02*
X007285Y010621D01*
X006075Y011185D02*
X005229Y011185D01*
X004559Y011185D02*
X002551Y011185D01*
X001911Y011228D02*
X001911Y010841D01*
X001921Y010831D01*
X001911Y011228D02*
X001725Y011185D01*
X012951Y010621D02*
X014116Y010621D01*
X017345Y011726D02*
X022610Y011726D01*
X022823Y011514D01*
X022823Y010791D01*
X018701Y008901D02*
X016701Y008901D01*
X015996Y008901D01*
X015585Y008490D01*
X014939Y008490D01*
X013439Y008490D02*
X013451Y008291D01*
X012441Y004739D02*
X012439Y004726D01*
X012851Y003461D02*
X012851Y002861D01*
X012951Y002981D01*
D32*
X021682Y005991D02*
X021911Y005991D01*
X021911Y005991D01*
X022902Y006991D02*
X022702Y007191D01*
X022702Y007261D01*
D33*
X020888Y003764D02*
X021309Y003342D01*
X023939Y003342D01*
X023939Y002342D02*
X020626Y002342D01*
X020051Y002917D01*
X020051Y003764D01*
X019185Y002888D02*
X019087Y002957D01*
X019185Y002888D02*
X019215Y002917D01*
X020051Y002917D01*
X003151Y008951D02*
X002160Y008951D01*
X002105Y008835D01*
D34*
X003319Y007248D02*
X006075Y007248D01*
X007650Y007248D01*
X007650Y007189D01*
X007650Y007248D02*
X008941Y007248D01*
X008941Y008493D01*
X010439Y008490D02*
X010451Y010121D01*
X009951Y010621D01*
X008801Y010621D01*
X010951Y010121D02*
X011451Y010621D01*
X012601Y010621D01*
X012951Y010621D01*
X010951Y010121D02*
X010939Y008490D01*
X008941Y007248D02*
X008941Y005957D01*
X009372Y005525D01*
X010939Y004726D02*
X010939Y003736D01*
X010898Y003695D01*
X012451Y004311D02*
X012851Y003911D01*
X012851Y003461D01*
X012851Y002861D02*
X013414Y002861D01*
X013555Y002720D01*
X013555Y002622D01*
X012451Y004311D02*
X012439Y004726D01*
X014933Y004732D02*
X014939Y004726D01*
X015232Y004433D01*
X015524Y004433D01*
X015524Y004492D01*
X016252Y004492D01*
X016311Y004433D01*
X016311Y004492D01*
X017246Y004492D01*
X018181Y003557D01*
X018181Y002957D01*
X014960Y004764D02*
X014933Y004738D01*
X014933Y004732D01*
X014933Y004738D02*
X014933Y005476D01*
X003662Y001787D02*
X003662Y000949D01*
X003662Y001787D02*
X003122Y002327D01*
X003122Y007051D01*
X003319Y007248D01*
M02*
