G75*
G70*
%OFA0B0*%
%FSLAX24Y24*%
%IPPOS*%
%LPD*%
%AMOC8*
5,1,8,0,0,1.08239X$1,22.5*
%
%ADD10R,0.0515X0.0515*%
%ADD11C,0.0515*%
%ADD12C,0.0320*%
%ADD13C,0.0240*%
%ADD14C,0.0160*%
%ADD15C,0.0120*%
%ADD16C,0.0100*%
D10*
X011461Y004598D03*
X021115Y008019D03*
X013381Y012324D03*
X015399Y014243D03*
D11*
X014399Y014243D03*
X013399Y014243D03*
X014381Y012324D03*
X015381Y012324D03*
X020115Y011019D03*
X021115Y011019D03*
X021115Y010019D03*
X020115Y010019D03*
X020115Y009019D03*
X021115Y009019D03*
X020115Y008019D03*
X014461Y004598D03*
X013461Y004598D03*
X012461Y004598D03*
D12*
X010822Y006271D03*
X010379Y006369D03*
X011806Y006665D03*
X012200Y007403D03*
X012692Y007403D03*
X010773Y007993D03*
X010428Y008240D03*
X009739Y008633D03*
X009050Y009716D03*
X009247Y010208D03*
X010526Y010651D03*
X011461Y011045D03*
X011904Y011045D03*
X011904Y011586D03*
X011363Y011832D03*
X012889Y011488D03*
X013922Y011930D03*
X014893Y011228D03*
X015637Y011291D03*
X016030Y010995D03*
X016375Y011291D03*
X017211Y011291D03*
X017859Y011586D03*
X017851Y012713D03*
X019869Y013008D03*
X022436Y012472D03*
X019680Y015228D03*
X016924Y014440D03*
X012889Y013456D03*
X012347Y014686D03*
X008656Y012078D03*
X007377Y011291D03*
X007918Y010749D03*
X005408Y009175D03*
X005802Y008486D03*
X006442Y008486D03*
X007082Y008486D03*
X007377Y008929D03*
X008066Y006812D03*
X008017Y005533D03*
X008017Y004499D03*
X006294Y003810D03*
X003538Y006566D03*
X012397Y009814D03*
X012790Y009568D03*
X013332Y009519D03*
X014800Y009790D03*
X015145Y009322D03*
X016030Y009120D03*
X017408Y009371D03*
X017859Y009716D03*
X017408Y010203D03*
X022436Y006566D03*
X019680Y003810D03*
X015152Y004401D03*
X003538Y012472D03*
X006688Y014391D03*
X007721Y013702D03*
X007721Y015080D03*
X006294Y015228D03*
D13*
X008656Y012078D02*
X009837Y012078D01*
X010084Y011832D01*
X010084Y011684D01*
X010084Y006369D01*
X010084Y004204D01*
X010477Y003810D01*
X014562Y003810D01*
X015152Y004401D01*
X017859Y007108D01*
X017859Y009716D01*
X020115Y011019D02*
X020115Y012037D01*
X017318Y014834D01*
X012495Y014834D01*
X012347Y014686D01*
X014893Y011228D02*
X014800Y011135D01*
X014800Y009790D01*
D14*
X012397Y009814D02*
X011019Y008436D01*
X010625Y008436D01*
X010428Y008240D01*
X012397Y009814D02*
X012397Y012275D01*
X013381Y013259D01*
X016924Y013259D01*
X016924Y014440D01*
X016924Y013259D02*
X018105Y013259D01*
X018499Y012866D01*
X018499Y008141D01*
X018621Y008019D01*
X020115Y008019D01*
X010379Y006369D02*
X010084Y006369D01*
D15*
X006080Y004924D02*
X006080Y003597D01*
X010267Y003597D01*
X009829Y004034D01*
X009784Y004144D01*
X009784Y004264D01*
X009784Y006310D01*
X009784Y008293D01*
X009671Y008293D01*
X009546Y008345D01*
X009451Y008441D01*
X009399Y008566D01*
X009399Y008701D01*
X009451Y008826D01*
X009499Y008874D01*
X009499Y008927D01*
X009051Y009376D01*
X008982Y009376D01*
X008857Y009428D01*
X008762Y009523D01*
X008710Y009648D01*
X008710Y009784D01*
X008762Y009908D01*
X008857Y010004D01*
X008982Y010056D01*
X009118Y010056D01*
X009243Y010004D01*
X009338Y009908D01*
X009390Y009784D01*
X009390Y009715D01*
X009784Y009322D01*
X009784Y011625D01*
X009784Y011708D01*
X009713Y011778D01*
X008821Y011778D01*
X008724Y011738D01*
X008589Y011738D01*
X008464Y011790D01*
X008368Y011886D01*
X008316Y012010D01*
X008316Y012146D01*
X008368Y012271D01*
X008464Y012366D01*
X008589Y012418D01*
X008724Y012418D01*
X008821Y012378D01*
X009897Y012378D01*
X010007Y012332D01*
X010092Y012248D01*
X010338Y012002D01*
X010384Y011892D01*
X010384Y011772D01*
X010384Y011728D01*
X011595Y011728D01*
X011616Y011779D01*
X011712Y011874D01*
X011837Y011926D01*
X011972Y011926D01*
X012097Y011874D01*
X012137Y011835D01*
X012137Y012223D01*
X012137Y012327D01*
X012176Y012422D01*
X013160Y013406D01*
X013234Y013480D01*
X013329Y013519D01*
X016664Y013519D01*
X016664Y014219D01*
X016636Y014248D01*
X016584Y014373D01*
X016584Y014508D01*
X016595Y014534D01*
X015836Y014534D01*
X015836Y013911D01*
X015731Y013806D01*
X015066Y013806D01*
X014961Y013911D01*
X014961Y014534D01*
X014727Y014534D01*
X014769Y014491D01*
X014836Y014330D01*
X014836Y014156D01*
X014769Y013996D01*
X014646Y013873D01*
X014486Y013806D01*
X014311Y013806D01*
X014151Y013873D01*
X014028Y013996D01*
X013961Y014156D01*
X013961Y014330D01*
X014028Y014491D01*
X014070Y014534D01*
X013698Y014534D01*
X013717Y014515D01*
X013756Y014462D01*
X013785Y014404D01*
X013806Y014341D01*
X013816Y014276D01*
X013816Y014262D01*
X013417Y014262D01*
X013417Y014225D01*
X013816Y014225D01*
X013816Y014211D01*
X013806Y014146D01*
X013785Y014083D01*
X013756Y014025D01*
X013717Y013971D01*
X013670Y013925D01*
X013617Y013886D01*
X013559Y013857D01*
X013496Y013836D01*
X013431Y013826D01*
X013417Y013826D01*
X013417Y014224D01*
X013380Y014224D01*
X013380Y013826D01*
X013366Y013826D01*
X013301Y013836D01*
X013238Y013857D01*
X013180Y013886D01*
X013127Y013925D01*
X013080Y013971D01*
X013041Y014025D01*
X013012Y014083D01*
X012991Y014146D01*
X012981Y014211D01*
X012981Y014225D01*
X013379Y014225D01*
X013379Y014262D01*
X012981Y014262D01*
X012981Y014276D01*
X012991Y014341D01*
X013012Y014404D01*
X013041Y014462D01*
X013080Y014515D01*
X013099Y014534D01*
X012652Y014534D01*
X012636Y014494D01*
X012540Y014398D01*
X012415Y014346D01*
X012280Y014346D01*
X012155Y014398D01*
X012059Y014494D01*
X012007Y014619D01*
X012007Y014754D01*
X012059Y014879D01*
X012155Y014975D01*
X012251Y015015D01*
X012325Y015088D01*
X012435Y015134D01*
X012555Y015134D01*
X017377Y015134D01*
X017488Y015088D01*
X017572Y015004D01*
X020369Y012207D01*
X020415Y012096D01*
X020415Y011977D01*
X020415Y011338D01*
X020486Y011267D01*
X020552Y011106D01*
X020552Y010932D01*
X020486Y010771D01*
X020363Y010648D01*
X020202Y010582D01*
X020028Y010582D01*
X019867Y010648D01*
X019744Y010771D01*
X019678Y010932D01*
X019678Y011106D01*
X019744Y011267D01*
X019815Y011338D01*
X019815Y011912D01*
X018722Y013005D01*
X018759Y012917D01*
X018759Y012814D01*
X018759Y008279D01*
X019756Y008279D01*
X019867Y008390D01*
X020028Y008456D01*
X020202Y008456D01*
X020363Y008390D01*
X020486Y008267D01*
X020552Y008106D01*
X020552Y007932D01*
X020486Y007771D01*
X020363Y007648D01*
X020202Y007582D01*
X020028Y007582D01*
X019867Y007648D01*
X019756Y007759D01*
X018673Y007759D01*
X018569Y007759D01*
X018474Y007799D01*
X018352Y007921D01*
X018278Y007994D01*
X018239Y008089D01*
X018239Y012758D01*
X017997Y012999D01*
X016976Y012999D01*
X013488Y012999D01*
X013251Y012762D01*
X013713Y012762D01*
X013818Y012656D01*
X013818Y011992D01*
X013713Y011887D01*
X013049Y011887D01*
X012943Y011992D01*
X012943Y012454D01*
X012656Y012167D01*
X012656Y010035D01*
X012685Y010007D01*
X012726Y009908D01*
X012858Y009908D01*
X012983Y009856D01*
X013078Y009761D01*
X013083Y009751D01*
X013139Y009807D01*
X013264Y009859D01*
X013399Y009859D01*
X013524Y009807D01*
X013620Y009712D01*
X013672Y009587D01*
X013672Y009451D01*
X013620Y009326D01*
X013572Y009278D01*
X013572Y009271D01*
X013572Y009176D01*
X013535Y009088D01*
X012932Y008485D01*
X012932Y007644D01*
X012980Y007595D01*
X013032Y007471D01*
X013032Y007402D01*
X014665Y005769D01*
X014701Y005681D01*
X014701Y005585D01*
X014701Y004972D01*
X014709Y004969D01*
X014832Y004846D01*
X014899Y004685D01*
X014899Y004628D01*
X014960Y004689D01*
X015056Y004729D01*
X017559Y007232D01*
X017559Y009066D01*
X017476Y009031D01*
X017341Y009031D01*
X017216Y009083D01*
X017158Y009141D01*
X017116Y009141D01*
X017018Y009240D01*
X016883Y009375D01*
X016883Y010457D01*
X016390Y010951D01*
X016307Y010951D01*
X016182Y011002D01*
X016087Y011098D01*
X016035Y011223D01*
X016035Y011358D01*
X016087Y011483D01*
X016182Y011579D01*
X016307Y011631D01*
X016443Y011631D01*
X016567Y011579D01*
X016663Y011483D01*
X016715Y011358D01*
X016715Y011276D01*
X017178Y010812D01*
X017178Y010951D01*
X017144Y010951D01*
X017019Y011002D01*
X016923Y011098D01*
X016871Y011223D01*
X016871Y011358D01*
X016923Y011483D01*
X017019Y011579D01*
X017144Y011631D01*
X017279Y011631D01*
X017404Y011579D01*
X017500Y011483D01*
X017551Y011358D01*
X017551Y011276D01*
X017638Y011189D01*
X017638Y010999D01*
X017638Y010454D01*
X017697Y010396D01*
X017748Y010271D01*
X017748Y010136D01*
X017699Y010018D01*
X017791Y010056D01*
X017927Y010056D01*
X018052Y010004D01*
X018147Y009908D01*
X018199Y009784D01*
X018199Y009648D01*
X018159Y009552D01*
X018159Y007167D01*
X018159Y007048D01*
X018113Y006938D01*
X015481Y004305D01*
X015441Y004208D01*
X015345Y004113D01*
X015248Y004073D01*
X014816Y003640D01*
X014772Y003597D01*
X019894Y003597D01*
X019894Y004924D01*
X019889Y004930D01*
X019894Y004998D01*
X019894Y005066D01*
X019899Y005071D01*
X019902Y005113D01*
X019894Y005125D01*
X019907Y005185D01*
X019911Y005247D01*
X019923Y005256D01*
X019933Y005304D01*
X019927Y005317D01*
X019948Y005375D01*
X019961Y005435D01*
X019974Y005443D01*
X019991Y005489D01*
X019987Y005503D01*
X020016Y005557D01*
X020038Y005615D01*
X020051Y005621D01*
X020074Y005664D01*
X020072Y005678D01*
X020109Y005728D01*
X020139Y005782D01*
X020153Y005786D01*
X020182Y005825D01*
X020182Y005839D01*
X020226Y005883D01*
X020263Y005932D01*
X020277Y005935D01*
X020312Y005969D01*
X020314Y005983D01*
X020363Y006020D01*
X020407Y006064D01*
X020421Y006064D01*
X020460Y006093D01*
X020465Y006107D01*
X020519Y006137D01*
X020568Y006174D01*
X020583Y006172D01*
X020625Y006195D01*
X020631Y006208D01*
X020689Y006230D01*
X020743Y006260D01*
X020757Y006255D01*
X020803Y006272D01*
X020811Y006285D01*
X020871Y006298D01*
X020929Y006319D01*
X020942Y006313D01*
X020990Y006324D01*
X021000Y006335D01*
X021061Y006339D01*
X021121Y006352D01*
X021134Y006344D01*
X021175Y006347D01*
X021180Y006353D01*
X021249Y006353D01*
X021316Y006357D01*
X021322Y006353D01*
X022650Y006353D01*
X022650Y012686D01*
X021322Y012686D01*
X021316Y012681D01*
X021249Y012686D01*
X021180Y012686D01*
X021175Y012691D01*
X021134Y012694D01*
X021121Y012686D01*
X021061Y012699D01*
X021000Y012703D01*
X020990Y012714D01*
X020942Y012725D01*
X020929Y012719D01*
X020871Y012740D01*
X020811Y012753D01*
X020803Y012766D01*
X020757Y012783D01*
X020743Y012779D01*
X020689Y012808D01*
X020631Y012830D01*
X020625Y012843D01*
X020583Y012866D01*
X020568Y012864D01*
X020519Y012901D01*
X020465Y012931D01*
X020460Y012945D01*
X020421Y012974D01*
X020407Y012974D01*
X020363Y013018D01*
X020314Y013055D01*
X020312Y013069D01*
X020277Y013104D01*
X020263Y013106D01*
X020226Y013155D01*
X020182Y013199D01*
X020182Y013213D01*
X020153Y013252D01*
X020139Y013256D01*
X020109Y013311D01*
X020072Y013360D01*
X020074Y013374D01*
X019202Y013374D01*
X019320Y013256D02*
X020141Y013256D01*
X020074Y013374D02*
X020051Y013417D01*
X020038Y013423D01*
X020016Y013481D01*
X019987Y013535D01*
X019991Y013549D01*
X019974Y013595D01*
X019961Y013603D01*
X019948Y013663D01*
X019927Y013721D01*
X019933Y013734D01*
X019923Y013782D01*
X019911Y013791D01*
X019907Y013853D01*
X019894Y013913D01*
X019902Y013925D01*
X019899Y013967D01*
X019894Y013972D01*
X019894Y014040D01*
X019889Y014108D01*
X019894Y014114D01*
X019894Y015441D01*
X006080Y015441D01*
X006080Y014114D01*
X006085Y014108D01*
X006080Y014040D01*
X006080Y013972D01*
X006075Y013967D01*
X006072Y013925D01*
X006080Y013913D01*
X006067Y013853D01*
X006063Y013791D01*
X006052Y013782D01*
X006041Y013734D01*
X006047Y013721D01*
X006026Y013663D01*
X006013Y013603D01*
X006000Y013595D01*
X005983Y013549D01*
X005987Y013535D01*
X005958Y013481D01*
X005936Y013423D01*
X005923Y013417D01*
X005900Y013374D01*
X013128Y013374D01*
X013010Y013256D02*
X005833Y013256D01*
X005835Y013256D02*
X005865Y013310D01*
X005902Y013360D01*
X005900Y013374D01*
X005835Y013256D02*
X005821Y013252D01*
X005792Y013213D01*
X005792Y013199D01*
X005748Y013155D01*
X005711Y013106D01*
X005697Y013104D01*
X005662Y013069D01*
X005660Y013055D01*
X005611Y013018D01*
X005567Y012974D01*
X005553Y012974D01*
X005514Y012945D01*
X005510Y012931D01*
X005455Y012901D01*
X005406Y012864D01*
X005392Y012866D01*
X005349Y012843D01*
X005343Y012830D01*
X005285Y012808D01*
X005231Y012779D01*
X005217Y012783D01*
X005171Y012766D01*
X005163Y012753D01*
X005103Y012740D01*
X005045Y012719D01*
X005032Y012725D01*
X004984Y012714D01*
X004975Y012703D01*
X004913Y012699D01*
X004853Y012686D01*
X004841Y012694D01*
X004799Y012691D01*
X004794Y012686D01*
X004726Y012686D01*
X004658Y012681D01*
X004652Y012686D01*
X003325Y012686D01*
X003325Y006353D01*
X004652Y006353D01*
X004658Y006357D01*
X004726Y006353D01*
X004794Y006353D01*
X004799Y006347D01*
X004841Y006344D01*
X004853Y006352D01*
X004913Y006339D01*
X004975Y006335D01*
X004984Y006324D01*
X005032Y006313D01*
X005045Y006319D01*
X005103Y006298D01*
X005163Y006285D01*
X005171Y006272D01*
X005217Y006255D01*
X005231Y006260D01*
X005285Y006230D01*
X005343Y006208D01*
X005349Y006195D01*
X005392Y006172D01*
X005406Y006174D01*
X005455Y006137D01*
X005510Y006107D01*
X005514Y006093D01*
X005553Y006064D01*
X005567Y006064D01*
X005611Y006020D01*
X005660Y005983D01*
X005662Y005969D01*
X005697Y005935D01*
X005711Y005932D01*
X005748Y005883D01*
X005792Y005839D01*
X005792Y005825D01*
X005821Y005786D01*
X005835Y005782D01*
X005865Y005728D01*
X005902Y005678D01*
X005900Y005664D01*
X005923Y005621D01*
X005936Y005615D01*
X005958Y005557D01*
X005987Y005503D01*
X005983Y005489D01*
X006000Y005443D01*
X006013Y005435D01*
X006026Y005375D01*
X006047Y005317D01*
X006041Y005304D01*
X006052Y005256D01*
X006063Y005247D01*
X006067Y005185D01*
X006080Y005125D01*
X006072Y005113D01*
X006075Y005071D01*
X006080Y005066D01*
X006080Y004998D01*
X006085Y004930D01*
X006080Y004924D01*
X006083Y004958D02*
X009784Y004958D01*
X009784Y005076D02*
X006075Y005076D01*
X006066Y005195D02*
X009784Y005195D01*
X009784Y005313D02*
X006045Y005313D01*
X006013Y005432D02*
X009784Y005432D01*
X009784Y005550D02*
X005961Y005550D01*
X005900Y005669D02*
X009784Y005669D01*
X009784Y005788D02*
X005820Y005788D01*
X005731Y005906D02*
X009784Y005906D01*
X009784Y006025D02*
X005607Y006025D01*
X005447Y006143D02*
X009784Y006143D01*
X009784Y006262D02*
X005200Y006262D01*
X003325Y006380D02*
X009784Y006380D01*
X009784Y006499D02*
X003325Y006499D01*
X003325Y006617D02*
X009784Y006617D01*
X009784Y006736D02*
X003325Y006736D01*
X003325Y006854D02*
X009784Y006854D01*
X009784Y006973D02*
X003325Y006973D01*
X003325Y007092D02*
X009784Y007092D01*
X009784Y007210D02*
X003325Y007210D01*
X003325Y007329D02*
X009784Y007329D01*
X009784Y007447D02*
X003325Y007447D01*
X003325Y007566D02*
X009784Y007566D01*
X009784Y007684D02*
X003325Y007684D01*
X003325Y007803D02*
X009784Y007803D01*
X009784Y007921D02*
X003325Y007921D01*
X003325Y008040D02*
X009784Y008040D01*
X009784Y008158D02*
X003325Y008158D01*
X003325Y008277D02*
X009784Y008277D01*
X009496Y008396D02*
X005459Y008396D01*
X005414Y008350D02*
X005514Y008451D01*
X005569Y008582D01*
X005569Y008724D01*
X005514Y008855D01*
X005414Y008956D01*
X005283Y009010D01*
X005140Y009010D01*
X005009Y008956D01*
X004909Y008855D01*
X004854Y008724D01*
X004854Y008582D01*
X004909Y008451D01*
X005009Y008350D01*
X005140Y008296D01*
X005283Y008296D01*
X005414Y008350D01*
X005541Y008514D02*
X009420Y008514D01*
X009399Y008633D02*
X005569Y008633D01*
X005557Y008751D02*
X009420Y008751D01*
X009495Y008870D02*
X005500Y008870D01*
X005335Y008988D02*
X009438Y008988D01*
X009320Y009107D02*
X003325Y009107D01*
X003325Y009225D02*
X009201Y009225D01*
X009083Y009344D02*
X003325Y009344D01*
X003325Y009462D02*
X008823Y009462D01*
X008738Y009581D02*
X003325Y009581D01*
X003325Y009699D02*
X008710Y009699D01*
X008724Y009818D02*
X003325Y009818D01*
X003325Y009937D02*
X008790Y009937D01*
X008981Y010055D02*
X005348Y010055D01*
X005283Y010028D02*
X005414Y010082D01*
X005514Y010183D01*
X005569Y010314D01*
X005569Y010456D01*
X005514Y010587D01*
X005414Y010688D01*
X005283Y010742D01*
X005140Y010742D01*
X005009Y010688D01*
X004909Y010587D01*
X004854Y010456D01*
X004854Y010314D01*
X004909Y010183D01*
X005009Y010082D01*
X005140Y010028D01*
X005283Y010028D01*
X005075Y010055D02*
X003325Y010055D01*
X003325Y010174D02*
X004918Y010174D01*
X004863Y010292D02*
X003325Y010292D01*
X003325Y010411D02*
X004854Y010411D01*
X004885Y010529D02*
X003325Y010529D01*
X003325Y010648D02*
X004969Y010648D01*
X005454Y010648D02*
X009784Y010648D01*
X009784Y010766D02*
X003325Y010766D01*
X003325Y010885D02*
X009784Y010885D01*
X009784Y011003D02*
X003325Y011003D01*
X003325Y011122D02*
X009784Y011122D01*
X009784Y011241D02*
X003325Y011241D01*
X003325Y011359D02*
X009784Y011359D01*
X009784Y011478D02*
X003325Y011478D01*
X003325Y011596D02*
X009784Y011596D01*
X009777Y011715D02*
X003325Y011715D01*
X003325Y011833D02*
X008420Y011833D01*
X008341Y011952D02*
X003325Y011952D01*
X003325Y012070D02*
X008316Y012070D01*
X008334Y012189D02*
X003325Y012189D01*
X003325Y012307D02*
X008405Y012307D01*
X010032Y012307D02*
X012137Y012307D01*
X012137Y012189D02*
X010151Y012189D01*
X010269Y012070D02*
X012137Y012070D01*
X012137Y011952D02*
X010359Y011952D01*
X010384Y011833D02*
X011671Y011833D01*
X011904Y011586D02*
X011806Y011488D01*
X010084Y011488D01*
X010084Y011684D01*
X010384Y011248D02*
X011758Y011248D01*
X011833Y011248D01*
X011837Y011246D01*
X011972Y011246D01*
X012097Y011298D01*
X012137Y011337D01*
X012137Y010035D01*
X012108Y010007D01*
X012057Y009882D01*
X012057Y009842D01*
X010911Y008696D01*
X010573Y008696D01*
X010478Y008657D01*
X010404Y008584D01*
X010404Y008584D01*
X010400Y008579D01*
X010384Y008579D01*
X010384Y011248D01*
X010384Y011241D02*
X012137Y011241D01*
X012137Y011122D02*
X010384Y011122D01*
X010384Y011003D02*
X012137Y011003D01*
X012137Y010885D02*
X010384Y010885D01*
X010384Y010766D02*
X012137Y010766D01*
X012137Y010648D02*
X010384Y010648D01*
X010384Y010529D02*
X012137Y010529D01*
X012137Y010411D02*
X010384Y010411D01*
X010384Y010292D02*
X012137Y010292D01*
X012137Y010174D02*
X010384Y010174D01*
X010384Y010055D02*
X012137Y010055D01*
X012079Y009937D02*
X010384Y009937D01*
X010384Y009818D02*
X012033Y009818D01*
X011914Y009699D02*
X010384Y009699D01*
X010384Y009581D02*
X011796Y009581D01*
X011677Y009462D02*
X010384Y009462D01*
X010384Y009344D02*
X011558Y009344D01*
X011440Y009225D02*
X010384Y009225D01*
X010384Y009107D02*
X011321Y009107D01*
X011203Y008988D02*
X010384Y008988D01*
X010384Y008870D02*
X011084Y008870D01*
X010966Y008751D02*
X010384Y008751D01*
X010384Y008633D02*
X010453Y008633D01*
X010768Y008176D02*
X010967Y008176D01*
X011070Y008176D01*
X011166Y008216D01*
X012424Y009474D01*
X012461Y009474D01*
X012502Y009376D01*
X012550Y009327D01*
X012550Y009225D01*
X011603Y008277D01*
X011227Y008277D01*
X011345Y008396D02*
X011721Y008396D01*
X011840Y008514D02*
X011464Y008514D01*
X011582Y008633D02*
X011958Y008633D01*
X012077Y008751D02*
X011701Y008751D01*
X011820Y008870D02*
X012195Y008870D01*
X012314Y008988D02*
X011938Y008988D01*
X012057Y009107D02*
X012432Y009107D01*
X012550Y009225D02*
X012175Y009225D01*
X012294Y009344D02*
X012534Y009344D01*
X012466Y009462D02*
X012412Y009462D01*
X012790Y009568D02*
X012790Y009125D01*
X011806Y008141D01*
X011806Y006665D01*
X011461Y006320D01*
X011461Y004598D01*
X011024Y004602D02*
X010384Y004602D01*
X010384Y004484D02*
X011024Y004484D01*
X011024Y004365D02*
X010384Y004365D01*
X010384Y004328D02*
X010384Y006029D01*
X010446Y006029D01*
X010571Y006081D01*
X010667Y006177D01*
X010719Y006302D01*
X010719Y006437D01*
X010667Y006562D01*
X010571Y006658D01*
X010446Y006709D01*
X010384Y006709D01*
X010384Y007900D01*
X010496Y007900D01*
X010621Y007951D01*
X010716Y008047D01*
X010768Y008172D01*
X010768Y008176D01*
X010762Y008158D02*
X011566Y008158D01*
X011566Y008189D02*
X011566Y008093D01*
X011566Y006906D01*
X011518Y006857D01*
X011466Y006732D01*
X011466Y006664D01*
X011258Y006456D01*
X011221Y006368D01*
X011221Y006272D01*
X011221Y005035D01*
X011129Y005035D01*
X011024Y004930D01*
X011024Y004266D01*
X011129Y004160D01*
X011794Y004160D01*
X011899Y004266D01*
X011899Y004930D01*
X011794Y005035D01*
X011701Y005035D01*
X011701Y006221D01*
X011805Y006325D01*
X011874Y006325D01*
X011999Y006376D01*
X012094Y006472D01*
X012146Y006597D01*
X012146Y006625D01*
X013221Y005550D01*
X011701Y005550D01*
X011701Y005432D02*
X013221Y005432D01*
X013221Y005550D02*
X013221Y004972D01*
X013214Y004969D01*
X013091Y004846D01*
X013024Y004685D01*
X013024Y004511D01*
X013091Y004350D01*
X013214Y004227D01*
X013374Y004160D01*
X013549Y004160D01*
X013709Y004227D01*
X013832Y004350D01*
X013899Y004511D01*
X013899Y004685D01*
X013832Y004846D01*
X013709Y004969D01*
X013701Y004972D01*
X013701Y005601D01*
X013701Y005697D01*
X013665Y005785D01*
X012440Y007010D01*
X012440Y007162D01*
X012446Y007168D01*
X012499Y007115D01*
X012624Y007063D01*
X012692Y007063D01*
X014221Y005534D01*
X014221Y004972D01*
X014214Y004969D01*
X014091Y004846D01*
X014024Y004685D01*
X014024Y004511D01*
X014091Y004350D01*
X014214Y004227D01*
X014374Y004160D01*
X014488Y004160D01*
X014438Y004110D01*
X010601Y004110D01*
X010384Y004328D01*
X010465Y004246D02*
X011043Y004246D01*
X010584Y004128D02*
X014455Y004128D01*
X014194Y004246D02*
X013729Y004246D01*
X013839Y004365D02*
X014084Y004365D01*
X014035Y004484D02*
X013888Y004484D01*
X013899Y004602D02*
X014024Y004602D01*
X014039Y004721D02*
X013884Y004721D01*
X013835Y004839D02*
X014088Y004839D01*
X014203Y004958D02*
X013720Y004958D01*
X013701Y005076D02*
X014221Y005076D01*
X014221Y005195D02*
X013701Y005195D01*
X013701Y005313D02*
X014221Y005313D01*
X014221Y005432D02*
X013701Y005432D01*
X013701Y005550D02*
X014205Y005550D01*
X014086Y005669D02*
X013701Y005669D01*
X013662Y005788D02*
X013968Y005788D01*
X013849Y005906D02*
X013544Y005906D01*
X013425Y006025D02*
X013731Y006025D01*
X013612Y006143D02*
X013307Y006143D01*
X013188Y006262D02*
X013494Y006262D01*
X013375Y006380D02*
X013070Y006380D01*
X012951Y006499D02*
X013256Y006499D01*
X013138Y006617D02*
X012832Y006617D01*
X012714Y006736D02*
X013019Y006736D01*
X012901Y006854D02*
X012595Y006854D01*
X012477Y006973D02*
X012782Y006973D01*
X012555Y007092D02*
X012440Y007092D01*
X012200Y006911D02*
X013461Y005649D01*
X013461Y004598D01*
X013024Y004602D02*
X012899Y004602D01*
X012899Y004685D02*
X012832Y004846D01*
X012709Y004969D01*
X012549Y005035D01*
X012374Y005035D01*
X012214Y004969D01*
X012091Y004846D01*
X012024Y004685D01*
X012024Y004511D01*
X012091Y004350D01*
X012214Y004227D01*
X012374Y004160D01*
X012549Y004160D01*
X012709Y004227D01*
X012832Y004350D01*
X012899Y004511D01*
X012899Y004685D01*
X012884Y004721D02*
X013039Y004721D01*
X013088Y004839D02*
X012835Y004839D01*
X012720Y004958D02*
X013203Y004958D01*
X013221Y005076D02*
X011701Y005076D01*
X011701Y005195D02*
X013221Y005195D01*
X013221Y005313D02*
X011701Y005313D01*
X011221Y005313D02*
X010384Y005313D01*
X010384Y005195D02*
X011221Y005195D01*
X011221Y005076D02*
X010384Y005076D01*
X010384Y004958D02*
X011052Y004958D01*
X011024Y004839D02*
X010384Y004839D01*
X010384Y004721D02*
X011024Y004721D01*
X011899Y004721D02*
X012039Y004721D01*
X012024Y004602D02*
X011899Y004602D01*
X011899Y004484D02*
X012035Y004484D01*
X012084Y004365D02*
X011899Y004365D01*
X011880Y004246D02*
X012194Y004246D01*
X012729Y004246D02*
X013194Y004246D01*
X013084Y004365D02*
X012839Y004365D01*
X012888Y004484D02*
X013035Y004484D01*
X012203Y004958D02*
X011871Y004958D01*
X011899Y004839D02*
X012088Y004839D01*
X011221Y005432D02*
X010384Y005432D01*
X010384Y005550D02*
X011221Y005550D01*
X011221Y005669D02*
X010384Y005669D01*
X010384Y005788D02*
X011221Y005788D01*
X011221Y005906D02*
X010384Y005906D01*
X010384Y006025D02*
X011221Y006025D01*
X011221Y006143D02*
X010633Y006143D01*
X010702Y006262D02*
X011221Y006262D01*
X011227Y006380D02*
X010719Y006380D01*
X010693Y006499D02*
X011301Y006499D01*
X011419Y006617D02*
X010612Y006617D01*
X010384Y006736D02*
X011467Y006736D01*
X011517Y006854D02*
X010384Y006854D01*
X010384Y006973D02*
X011566Y006973D01*
X011566Y007092D02*
X010384Y007092D01*
X010384Y007210D02*
X011566Y007210D01*
X011566Y007329D02*
X010384Y007329D01*
X010384Y007447D02*
X011566Y007447D01*
X011566Y007566D02*
X010384Y007566D01*
X010384Y007684D02*
X011566Y007684D01*
X011566Y007803D02*
X010384Y007803D01*
X010548Y007921D02*
X011566Y007921D01*
X011566Y008040D02*
X010709Y008040D01*
X011566Y008189D02*
X011603Y008277D01*
X012200Y007403D02*
X012200Y006911D01*
X012154Y006617D02*
X012146Y006617D01*
X012105Y006499D02*
X012272Y006499D01*
X012391Y006380D02*
X012002Y006380D01*
X011742Y006262D02*
X012509Y006262D01*
X012628Y006143D02*
X011701Y006143D01*
X011701Y006025D02*
X012746Y006025D01*
X012865Y005906D02*
X011701Y005906D01*
X011701Y005788D02*
X012983Y005788D01*
X013102Y005669D02*
X011701Y005669D01*
X009784Y004839D02*
X006080Y004839D01*
X006080Y004721D02*
X009784Y004721D01*
X009784Y004602D02*
X006080Y004602D01*
X006080Y004484D02*
X009784Y004484D01*
X009784Y004365D02*
X006080Y004365D01*
X006080Y004246D02*
X009784Y004246D01*
X009790Y004128D02*
X006080Y004128D01*
X006080Y004009D02*
X009854Y004009D01*
X009972Y003891D02*
X006080Y003891D01*
X006080Y003772D02*
X010091Y003772D01*
X010210Y003654D02*
X006080Y003654D01*
X012692Y007403D02*
X012692Y008584D01*
X013332Y009224D01*
X013332Y009519D01*
X013627Y009344D02*
X014805Y009344D01*
X014805Y009390D02*
X014805Y009255D01*
X014856Y009130D01*
X014952Y009034D01*
X015077Y008982D01*
X015212Y008982D01*
X015337Y009034D01*
X015433Y009130D01*
X015485Y009255D01*
X015485Y009390D01*
X015433Y009515D01*
X015375Y009573D01*
X015375Y010703D01*
X015622Y010951D01*
X015704Y010951D01*
X015829Y011002D01*
X015925Y011098D01*
X015977Y011223D01*
X015977Y011358D01*
X015925Y011483D01*
X015829Y011579D01*
X015704Y011631D01*
X015569Y011631D01*
X015444Y011579D01*
X015348Y011483D01*
X015297Y011358D01*
X015297Y011276D01*
X015233Y011212D01*
X015233Y011296D01*
X015181Y011421D01*
X015086Y011516D01*
X014961Y011568D01*
X014825Y011568D01*
X014700Y011516D01*
X014605Y011421D01*
X014565Y011324D01*
X014546Y011305D01*
X014546Y011305D01*
X014546Y011305D01*
X014537Y011285D01*
X014500Y011195D01*
X014500Y011195D01*
X014500Y011075D01*
X014500Y009954D01*
X014460Y009857D01*
X014460Y009722D01*
X014512Y009597D01*
X014607Y009501D01*
X014732Y009450D01*
X014829Y009450D01*
X014805Y009390D01*
X014702Y009462D02*
X013672Y009462D01*
X013672Y009581D02*
X014528Y009581D01*
X014469Y009699D02*
X013625Y009699D01*
X013498Y009818D02*
X014460Y009818D01*
X014493Y009937D02*
X012714Y009937D01*
X012656Y010055D02*
X014500Y010055D01*
X014500Y010174D02*
X012656Y010174D01*
X012656Y010292D02*
X014500Y010292D01*
X014500Y010411D02*
X012656Y010411D01*
X012656Y010529D02*
X014500Y010529D01*
X014500Y010648D02*
X012656Y010648D01*
X012656Y010766D02*
X014500Y010766D01*
X014500Y010885D02*
X012656Y010885D01*
X012656Y011003D02*
X014500Y011003D01*
X014500Y011122D02*
X012656Y011122D01*
X012656Y011241D02*
X014519Y011241D01*
X014579Y011359D02*
X012656Y011359D01*
X012656Y011478D02*
X014662Y011478D01*
X014468Y011887D02*
X014294Y011887D01*
X014133Y011953D01*
X014010Y012076D01*
X013943Y012237D01*
X013943Y012411D01*
X014010Y012572D01*
X014133Y012695D01*
X014294Y012762D01*
X014468Y012762D01*
X014629Y012695D01*
X014752Y012572D01*
X014818Y012411D01*
X014818Y012237D01*
X014752Y012076D01*
X014629Y011953D01*
X014468Y011887D01*
X014625Y011952D02*
X015192Y011952D01*
X015221Y011937D02*
X015283Y011917D01*
X015348Y011907D01*
X015362Y011907D01*
X015362Y012305D01*
X015400Y012305D01*
X015400Y012343D01*
X015798Y012343D01*
X015798Y012357D01*
X015788Y012422D01*
X015768Y012484D01*
X015738Y012543D01*
X015699Y012596D01*
X015653Y012643D01*
X015600Y012681D01*
X015541Y012711D01*
X015479Y012731D01*
X015414Y012742D01*
X015400Y012742D01*
X015400Y012343D01*
X015362Y012343D01*
X015362Y012742D01*
X015348Y012742D01*
X015283Y012731D01*
X015221Y012711D01*
X015162Y012681D01*
X015109Y012643D01*
X015062Y012596D01*
X015024Y012543D01*
X014994Y012484D01*
X014974Y012422D01*
X014963Y012357D01*
X014963Y012343D01*
X015362Y012343D01*
X015362Y012305D01*
X014963Y012305D01*
X014963Y012291D01*
X014974Y012226D01*
X014994Y012164D01*
X015024Y012105D01*
X015062Y012052D01*
X015109Y012006D01*
X015162Y011967D01*
X015221Y011937D01*
X015362Y011952D02*
X015400Y011952D01*
X015400Y011907D02*
X015414Y011907D01*
X015479Y011917D01*
X015541Y011937D01*
X015600Y011967D01*
X015653Y012006D01*
X015699Y012052D01*
X015738Y012105D01*
X015768Y012164D01*
X015788Y012226D01*
X015798Y012291D01*
X015798Y012305D01*
X015400Y012305D01*
X015400Y011907D01*
X015400Y012070D02*
X015362Y012070D01*
X015362Y012189D02*
X015400Y012189D01*
X015400Y012307D02*
X018239Y012307D01*
X018239Y012189D02*
X015776Y012189D01*
X015712Y012070D02*
X018239Y012070D01*
X018239Y011952D02*
X015569Y011952D01*
X015049Y012070D02*
X014746Y012070D01*
X014798Y012189D02*
X014986Y012189D01*
X014818Y012307D02*
X015362Y012307D01*
X015362Y012426D02*
X015400Y012426D01*
X015400Y012545D02*
X015362Y012545D01*
X015362Y012663D02*
X015400Y012663D01*
X015625Y012663D02*
X018239Y012663D01*
X018239Y012545D02*
X015737Y012545D01*
X015787Y012426D02*
X018239Y012426D01*
X018215Y012782D02*
X013271Y012782D01*
X013389Y012900D02*
X018097Y012900D01*
X018759Y012900D02*
X018827Y012900D01*
X018759Y012782D02*
X018946Y012782D01*
X019064Y012663D02*
X018759Y012663D01*
X018759Y012545D02*
X019183Y012545D01*
X019302Y012426D02*
X018759Y012426D01*
X018759Y012307D02*
X019420Y012307D01*
X019539Y012189D02*
X018759Y012189D01*
X018759Y012070D02*
X019657Y012070D01*
X019776Y011952D02*
X018759Y011952D01*
X018759Y011833D02*
X019815Y011833D01*
X019815Y011715D02*
X018759Y011715D01*
X018759Y011596D02*
X019815Y011596D01*
X019815Y011478D02*
X018759Y011478D01*
X018759Y011359D02*
X019815Y011359D01*
X019733Y011241D02*
X018759Y011241D01*
X018759Y011122D02*
X019684Y011122D01*
X019678Y011003D02*
X018759Y011003D01*
X018759Y010885D02*
X019697Y010885D01*
X019749Y010766D02*
X018759Y010766D01*
X018759Y010648D02*
X019868Y010648D01*
X019955Y010406D02*
X019896Y010376D01*
X019843Y010337D01*
X019797Y010291D01*
X019758Y010238D01*
X019728Y010179D01*
X019708Y010117D01*
X019698Y010052D01*
X019698Y010038D01*
X020096Y010038D01*
X020096Y010000D01*
X019698Y010000D01*
X019698Y009986D01*
X019708Y009921D01*
X019728Y009859D01*
X019758Y009800D01*
X019797Y009747D01*
X019843Y009701D01*
X019896Y009662D01*
X019955Y009632D01*
X020017Y009612D01*
X020082Y009602D01*
X020096Y009602D01*
X020096Y010000D01*
X020134Y010000D01*
X020134Y010038D01*
X020532Y010038D01*
X020532Y010052D01*
X020522Y010117D01*
X020502Y010179D01*
X020472Y010238D01*
X020433Y010291D01*
X020387Y010337D01*
X020334Y010376D01*
X020275Y010406D01*
X020213Y010426D01*
X020148Y010436D01*
X020134Y010436D01*
X020134Y010038D01*
X020096Y010038D01*
X020096Y010436D01*
X020082Y010436D01*
X020017Y010426D01*
X019955Y010406D01*
X019970Y010411D02*
X018759Y010411D01*
X018759Y010529D02*
X022650Y010529D01*
X022650Y010411D02*
X021312Y010411D01*
X021363Y010390D02*
X021202Y010456D01*
X021028Y010456D01*
X020867Y010390D01*
X020744Y010267D01*
X020678Y010106D01*
X020678Y009932D01*
X020744Y009771D01*
X020867Y009648D01*
X021028Y009582D01*
X021202Y009582D01*
X021363Y009648D01*
X021486Y009771D01*
X021552Y009932D01*
X021552Y010106D01*
X021486Y010267D01*
X021363Y010390D01*
X021461Y010292D02*
X022650Y010292D01*
X022650Y010174D02*
X021524Y010174D01*
X021552Y010055D02*
X022650Y010055D01*
X022650Y009937D02*
X021552Y009937D01*
X021505Y009818D02*
X022650Y009818D01*
X022650Y009699D02*
X021414Y009699D01*
X021363Y009390D02*
X021202Y009456D01*
X021028Y009456D01*
X020867Y009390D01*
X020744Y009267D01*
X020678Y009106D01*
X020678Y008932D01*
X020744Y008771D01*
X020867Y008648D01*
X021028Y008582D01*
X021202Y008582D01*
X021363Y008648D01*
X021486Y008771D01*
X021552Y008932D01*
X021552Y009106D01*
X021486Y009267D01*
X021363Y009390D01*
X021409Y009344D02*
X022650Y009344D01*
X022650Y009462D02*
X018759Y009462D01*
X018759Y009344D02*
X019852Y009344D01*
X019843Y009337D02*
X019797Y009291D01*
X019758Y009238D01*
X019728Y009179D01*
X019708Y009117D01*
X019698Y009052D01*
X019698Y009038D01*
X020096Y009038D01*
X020096Y009000D01*
X019698Y009000D01*
X019698Y008986D01*
X019708Y008921D01*
X019728Y008859D01*
X019758Y008800D01*
X019797Y008747D01*
X019843Y008701D01*
X019896Y008662D01*
X019955Y008632D01*
X020017Y008612D01*
X020082Y008602D01*
X020096Y008602D01*
X020096Y009000D01*
X020134Y009000D01*
X020134Y009038D01*
X020532Y009038D01*
X020532Y009052D01*
X020522Y009117D01*
X020502Y009179D01*
X020472Y009238D01*
X020433Y009291D01*
X020387Y009337D01*
X020334Y009376D01*
X020275Y009406D01*
X020213Y009426D01*
X020148Y009436D01*
X020134Y009436D01*
X020134Y009038D01*
X020096Y009038D01*
X020096Y009436D01*
X020082Y009436D01*
X020017Y009426D01*
X019955Y009406D01*
X019896Y009376D01*
X019843Y009337D01*
X019752Y009225D02*
X018759Y009225D01*
X018759Y009107D02*
X019706Y009107D01*
X019698Y008988D02*
X018759Y008988D01*
X018759Y008870D02*
X019725Y008870D01*
X019794Y008751D02*
X018759Y008751D01*
X018759Y008633D02*
X019954Y008633D01*
X020096Y008633D02*
X020134Y008633D01*
X020134Y008602D02*
X020148Y008602D01*
X020213Y008612D01*
X020275Y008632D01*
X020334Y008662D01*
X020387Y008701D01*
X020433Y008747D01*
X020472Y008800D01*
X020502Y008859D01*
X020522Y008921D01*
X020532Y008986D01*
X020532Y009000D01*
X020134Y009000D01*
X020134Y008602D01*
X020276Y008633D02*
X020905Y008633D01*
X020764Y008751D02*
X020436Y008751D01*
X020505Y008870D02*
X020703Y008870D01*
X020678Y008988D02*
X020532Y008988D01*
X020524Y009107D02*
X020678Y009107D01*
X020727Y009225D02*
X020478Y009225D01*
X020378Y009344D02*
X020821Y009344D01*
X020816Y009699D02*
X020385Y009699D01*
X020387Y009701D02*
X020433Y009747D01*
X020472Y009800D01*
X020502Y009859D01*
X020522Y009921D01*
X020532Y009986D01*
X020532Y010000D01*
X020134Y010000D01*
X020134Y009602D01*
X020148Y009602D01*
X020213Y009612D01*
X020275Y009632D01*
X020334Y009662D01*
X020387Y009701D01*
X020481Y009818D02*
X020725Y009818D01*
X020678Y009937D02*
X020525Y009937D01*
X020532Y010055D02*
X020678Y010055D01*
X020706Y010174D02*
X020504Y010174D01*
X020432Y010292D02*
X020770Y010292D01*
X020918Y010411D02*
X020260Y010411D01*
X020134Y010411D02*
X020096Y010411D01*
X020096Y010292D02*
X020134Y010292D01*
X020134Y010174D02*
X020096Y010174D01*
X020096Y010055D02*
X020134Y010055D01*
X020134Y009937D02*
X020096Y009937D01*
X020096Y009818D02*
X020134Y009818D01*
X020134Y009699D02*
X020096Y009699D01*
X019845Y009699D02*
X018759Y009699D01*
X018759Y009581D02*
X022650Y009581D01*
X022650Y009225D02*
X021503Y009225D01*
X021552Y009107D02*
X022650Y009107D01*
X022650Y008988D02*
X021552Y008988D01*
X021527Y008870D02*
X022650Y008870D01*
X022650Y008751D02*
X021466Y008751D01*
X021325Y008633D02*
X022650Y008633D01*
X022650Y008514D02*
X018759Y008514D01*
X018759Y008396D02*
X019881Y008396D01*
X020096Y008751D02*
X020134Y008751D01*
X020134Y008870D02*
X020096Y008870D01*
X020096Y008988D02*
X020134Y008988D01*
X020134Y009107D02*
X020096Y009107D01*
X020096Y009225D02*
X020134Y009225D01*
X020134Y009344D02*
X020096Y009344D01*
X019749Y009818D02*
X018759Y009818D01*
X018759Y009937D02*
X019705Y009937D01*
X019698Y010055D02*
X018759Y010055D01*
X018759Y010174D02*
X019726Y010174D01*
X019798Y010292D02*
X018759Y010292D01*
X018239Y010292D02*
X017740Y010292D01*
X017748Y010174D02*
X018239Y010174D01*
X018239Y010055D02*
X017929Y010055D01*
X017790Y010055D02*
X017715Y010055D01*
X018119Y009937D02*
X018239Y009937D01*
X018239Y009818D02*
X018185Y009818D01*
X018199Y009699D02*
X018239Y009699D01*
X018239Y009581D02*
X018171Y009581D01*
X018159Y009462D02*
X018239Y009462D01*
X018239Y009344D02*
X018159Y009344D01*
X018159Y009225D02*
X018239Y009225D01*
X018239Y009107D02*
X018159Y009107D01*
X018159Y008988D02*
X018239Y008988D01*
X018239Y008870D02*
X018159Y008870D01*
X018159Y008751D02*
X018239Y008751D01*
X018239Y008633D02*
X018159Y008633D01*
X018159Y008514D02*
X018239Y008514D01*
X018239Y008396D02*
X018159Y008396D01*
X018159Y008277D02*
X018239Y008277D01*
X018239Y008158D02*
X018159Y008158D01*
X018159Y008040D02*
X018259Y008040D01*
X018351Y007921D02*
X018159Y007921D01*
X018159Y007803D02*
X018469Y007803D01*
X018159Y007684D02*
X019831Y007684D01*
X020399Y007684D02*
X020680Y007684D01*
X020678Y007687D02*
X020783Y007582D01*
X021447Y007582D01*
X021552Y007687D01*
X021552Y008351D01*
X021447Y008456D01*
X020783Y008456D01*
X020678Y008351D01*
X020678Y007687D01*
X020678Y007803D02*
X020499Y007803D01*
X020548Y007921D02*
X020678Y007921D01*
X020678Y008040D02*
X020552Y008040D01*
X020531Y008158D02*
X020678Y008158D01*
X020678Y008277D02*
X020476Y008277D01*
X020349Y008396D02*
X020722Y008396D01*
X021508Y008396D02*
X022650Y008396D01*
X022650Y008277D02*
X021552Y008277D01*
X021552Y008158D02*
X022650Y008158D01*
X022650Y008040D02*
X021552Y008040D01*
X021552Y007921D02*
X022650Y007921D01*
X022650Y007803D02*
X021552Y007803D01*
X021550Y007684D02*
X022650Y007684D01*
X022650Y007566D02*
X018159Y007566D01*
X018159Y007447D02*
X022650Y007447D01*
X022650Y007329D02*
X018159Y007329D01*
X018159Y007210D02*
X022650Y007210D01*
X022650Y007092D02*
X018159Y007092D01*
X018128Y006973D02*
X022650Y006973D01*
X022650Y006854D02*
X018030Y006854D01*
X017912Y006736D02*
X022650Y006736D01*
X022650Y006617D02*
X017793Y006617D01*
X017675Y006499D02*
X022650Y006499D01*
X022650Y006380D02*
X017556Y006380D01*
X017437Y006262D02*
X020774Y006262D01*
X020527Y006143D02*
X017319Y006143D01*
X017200Y006025D02*
X020367Y006025D01*
X020243Y005906D02*
X017082Y005906D01*
X016963Y005788D02*
X020154Y005788D01*
X020074Y005669D02*
X016845Y005669D01*
X016726Y005550D02*
X020013Y005550D01*
X019961Y005432D02*
X016608Y005432D01*
X016489Y005313D02*
X019929Y005313D01*
X019908Y005195D02*
X016371Y005195D01*
X016252Y005076D02*
X019899Y005076D01*
X019891Y004958D02*
X016133Y004958D01*
X016015Y004839D02*
X019894Y004839D01*
X019894Y004721D02*
X015896Y004721D01*
X015778Y004602D02*
X019894Y004602D01*
X019894Y004484D02*
X015659Y004484D01*
X015541Y004365D02*
X019894Y004365D01*
X019894Y004246D02*
X015456Y004246D01*
X015360Y004128D02*
X019894Y004128D01*
X019894Y004009D02*
X015185Y004009D01*
X015067Y003891D02*
X019894Y003891D01*
X019894Y003772D02*
X014948Y003772D01*
X014829Y003654D02*
X019894Y003654D01*
X016233Y005906D02*
X014528Y005906D01*
X014647Y005788D02*
X016115Y005788D01*
X015996Y005669D02*
X014701Y005669D01*
X014701Y005550D02*
X015878Y005550D01*
X015759Y005432D02*
X014701Y005432D01*
X014701Y005313D02*
X015641Y005313D01*
X015522Y005195D02*
X014701Y005195D01*
X014701Y005076D02*
X015404Y005076D01*
X015285Y004958D02*
X014720Y004958D01*
X014835Y004839D02*
X015166Y004839D01*
X015036Y004721D02*
X014884Y004721D01*
X014461Y004598D02*
X014461Y005633D01*
X012692Y007403D01*
X012992Y007566D02*
X017559Y007566D01*
X017559Y007684D02*
X012932Y007684D01*
X012932Y007803D02*
X017559Y007803D01*
X017559Y007921D02*
X012932Y007921D01*
X012932Y008040D02*
X017559Y008040D01*
X017559Y008158D02*
X012932Y008158D01*
X012932Y008277D02*
X017559Y008277D01*
X017559Y008396D02*
X012932Y008396D01*
X012961Y008514D02*
X017559Y008514D01*
X017559Y008633D02*
X013080Y008633D01*
X013198Y008751D02*
X017559Y008751D01*
X017559Y008870D02*
X013317Y008870D01*
X013435Y008988D02*
X015062Y008988D01*
X015227Y008988D02*
X017559Y008988D01*
X017192Y009107D02*
X015410Y009107D01*
X015472Y009225D02*
X017032Y009225D01*
X016914Y009344D02*
X015485Y009344D01*
X015454Y009462D02*
X016883Y009462D01*
X016883Y009581D02*
X015375Y009581D01*
X015375Y009699D02*
X016883Y009699D01*
X016883Y009818D02*
X015375Y009818D01*
X015375Y009937D02*
X016883Y009937D01*
X016883Y010055D02*
X015375Y010055D01*
X015375Y010174D02*
X016883Y010174D01*
X016883Y010292D02*
X015375Y010292D01*
X015375Y010411D02*
X016883Y010411D01*
X016811Y010529D02*
X015375Y010529D01*
X015375Y010648D02*
X016693Y010648D01*
X016574Y010766D02*
X015438Y010766D01*
X015556Y010885D02*
X016455Y010885D01*
X016181Y011003D02*
X015830Y011003D01*
X015935Y011122D02*
X016077Y011122D01*
X016035Y011241D02*
X015977Y011241D01*
X015976Y011359D02*
X016035Y011359D01*
X016084Y011478D02*
X015927Y011478D01*
X015788Y011596D02*
X016224Y011596D01*
X016526Y011596D02*
X017061Y011596D01*
X016921Y011478D02*
X016665Y011478D01*
X016715Y011359D02*
X016872Y011359D01*
X016871Y011241D02*
X016750Y011241D01*
X016869Y011122D02*
X016913Y011122D01*
X016987Y011003D02*
X017018Y011003D01*
X017106Y010885D02*
X017178Y010885D01*
X017638Y010885D02*
X018239Y010885D01*
X018239Y011003D02*
X017638Y011003D01*
X017638Y011122D02*
X018239Y011122D01*
X018239Y011241D02*
X017587Y011241D01*
X017551Y011359D02*
X018239Y011359D01*
X018239Y011478D02*
X017502Y011478D01*
X017362Y011596D02*
X018239Y011596D01*
X018239Y011715D02*
X012656Y011715D01*
X012656Y011833D02*
X018239Y011833D01*
X018239Y010766D02*
X017638Y010766D01*
X017638Y010648D02*
X018239Y010648D01*
X018239Y010529D02*
X017638Y010529D01*
X017682Y010411D02*
X018239Y010411D01*
X020362Y010648D02*
X020868Y010648D01*
X020867Y010648D02*
X021028Y010582D01*
X021202Y010582D01*
X021363Y010648D01*
X021486Y010771D01*
X021552Y010932D01*
X021552Y011106D01*
X021486Y011267D01*
X021363Y011390D01*
X021202Y011456D01*
X021028Y011456D01*
X020867Y011390D01*
X020744Y011267D01*
X020678Y011106D01*
X020678Y010932D01*
X020744Y010771D01*
X020867Y010648D01*
X020749Y010766D02*
X020481Y010766D01*
X020533Y010885D02*
X020697Y010885D01*
X020678Y011003D02*
X020552Y011003D01*
X020546Y011122D02*
X020684Y011122D01*
X020733Y011241D02*
X020497Y011241D01*
X020415Y011359D02*
X020836Y011359D01*
X020415Y011478D02*
X022650Y011478D01*
X022650Y011596D02*
X020415Y011596D01*
X020415Y011715D02*
X022650Y011715D01*
X022650Y011833D02*
X020415Y011833D01*
X020415Y011952D02*
X022650Y011952D01*
X022650Y012070D02*
X020415Y012070D01*
X020377Y012189D02*
X022650Y012189D01*
X022650Y012307D02*
X020269Y012307D01*
X020150Y012426D02*
X022650Y012426D01*
X022650Y012545D02*
X020031Y012545D01*
X019913Y012663D02*
X022650Y012663D01*
X020760Y012782D02*
X020754Y012782D01*
X020738Y012782D02*
X019794Y012782D01*
X019676Y012900D02*
X020520Y012900D01*
X020362Y013019D02*
X019557Y013019D01*
X019439Y013137D02*
X020239Y013137D01*
X020010Y013493D02*
X019083Y013493D01*
X018965Y013611D02*
X019960Y013611D01*
X019931Y013730D02*
X018846Y013730D01*
X018728Y013849D02*
X019907Y013849D01*
X019899Y013967D02*
X018609Y013967D01*
X018490Y014086D02*
X019890Y014086D01*
X019894Y014204D02*
X018372Y014204D01*
X018253Y014323D02*
X019894Y014323D01*
X019894Y014441D02*
X018135Y014441D01*
X018016Y014560D02*
X019894Y014560D01*
X019894Y014678D02*
X017898Y014678D01*
X017779Y014797D02*
X019894Y014797D01*
X019894Y014915D02*
X017661Y014915D01*
X017542Y015034D02*
X019894Y015034D01*
X019894Y015152D02*
X006080Y015152D01*
X006080Y015034D02*
X012271Y015034D01*
X012096Y014915D02*
X006080Y014915D01*
X006080Y014797D02*
X012025Y014797D01*
X012007Y014678D02*
X006080Y014678D01*
X006080Y014560D02*
X012032Y014560D01*
X012112Y014441D02*
X006080Y014441D01*
X006080Y014323D02*
X012988Y014323D01*
X012982Y014204D02*
X006080Y014204D01*
X006084Y014086D02*
X013011Y014086D01*
X013084Y013967D02*
X006075Y013967D01*
X006067Y013849D02*
X013263Y013849D01*
X013380Y013849D02*
X013417Y013849D01*
X013534Y013849D02*
X014209Y013849D01*
X014056Y013967D02*
X013712Y013967D01*
X013786Y014086D02*
X013990Y014086D01*
X013961Y014204D02*
X013815Y014204D01*
X013809Y014323D02*
X013961Y014323D01*
X014007Y014441D02*
X013766Y014441D01*
X013417Y014204D02*
X013380Y014204D01*
X013380Y014086D02*
X013417Y014086D01*
X013417Y013967D02*
X013380Y013967D01*
X013266Y013493D02*
X005964Y013493D01*
X006015Y013611D02*
X016664Y013611D01*
X016664Y013730D02*
X006043Y013730D01*
X005735Y013137D02*
X012891Y013137D01*
X012773Y013019D02*
X005612Y013019D01*
X005454Y012900D02*
X012654Y012900D01*
X012536Y012782D02*
X005236Y012782D01*
X005220Y012782D02*
X005214Y012782D01*
X003325Y012663D02*
X012417Y012663D01*
X012298Y012545D02*
X003325Y012545D01*
X003325Y012426D02*
X012180Y012426D01*
X012678Y012189D02*
X012943Y012189D01*
X012943Y012307D02*
X012797Y012307D01*
X012915Y012426D02*
X012943Y012426D01*
X012943Y012070D02*
X012656Y012070D01*
X012656Y011952D02*
X012984Y011952D01*
X012656Y011596D02*
X015486Y011596D01*
X015346Y011478D02*
X015124Y011478D01*
X015207Y011359D02*
X015297Y011359D01*
X015261Y011241D02*
X015233Y011241D01*
X014137Y011952D02*
X013778Y011952D01*
X013818Y012070D02*
X014016Y012070D01*
X013963Y012189D02*
X013818Y012189D01*
X013818Y012307D02*
X013943Y012307D01*
X013949Y012426D02*
X013818Y012426D01*
X013818Y012545D02*
X013999Y012545D01*
X014101Y012663D02*
X013811Y012663D01*
X014661Y012663D02*
X015137Y012663D01*
X015025Y012545D02*
X014763Y012545D01*
X014812Y012426D02*
X014975Y012426D01*
X015024Y013849D02*
X014588Y013849D01*
X014741Y013967D02*
X014961Y013967D01*
X014961Y014086D02*
X014807Y014086D01*
X014836Y014204D02*
X014961Y014204D01*
X014961Y014323D02*
X014836Y014323D01*
X014790Y014441D02*
X014961Y014441D01*
X015836Y014441D02*
X016584Y014441D01*
X016605Y014323D02*
X015836Y014323D01*
X015836Y014204D02*
X016664Y014204D01*
X016664Y014086D02*
X015836Y014086D01*
X015836Y013967D02*
X016664Y013967D01*
X016664Y013849D02*
X015773Y013849D01*
X013031Y014441D02*
X012583Y014441D01*
X009784Y010529D02*
X005538Y010529D01*
X005569Y010411D02*
X009784Y010411D01*
X009784Y010292D02*
X005560Y010292D01*
X005505Y010174D02*
X009784Y010174D01*
X009784Y010055D02*
X009120Y010055D01*
X009310Y009937D02*
X009784Y009937D01*
X009784Y009818D02*
X009376Y009818D01*
X009406Y009699D02*
X009784Y009699D01*
X009784Y009581D02*
X009524Y009581D01*
X009643Y009462D02*
X009784Y009462D01*
X009784Y009344D02*
X009761Y009344D01*
X009739Y009027D02*
X009050Y009716D01*
X009739Y009027D02*
X009739Y008633D01*
X013021Y009818D02*
X013165Y009818D01*
X013572Y009225D02*
X014817Y009225D01*
X014879Y009107D02*
X013543Y009107D01*
X013032Y007447D02*
X017559Y007447D01*
X017559Y007329D02*
X013105Y007329D01*
X013224Y007210D02*
X017537Y007210D01*
X017419Y007092D02*
X013343Y007092D01*
X013461Y006973D02*
X017300Y006973D01*
X017182Y006854D02*
X013580Y006854D01*
X013698Y006736D02*
X017063Y006736D01*
X016945Y006617D02*
X013817Y006617D01*
X013935Y006499D02*
X016826Y006499D01*
X016708Y006380D02*
X014054Y006380D01*
X014172Y006262D02*
X016589Y006262D01*
X016470Y006143D02*
X014291Y006143D01*
X014409Y006025D02*
X016352Y006025D01*
X021362Y010648D02*
X022650Y010648D01*
X022650Y010766D02*
X021481Y010766D01*
X021533Y010885D02*
X022650Y010885D01*
X022650Y011003D02*
X021552Y011003D01*
X021546Y011122D02*
X022650Y011122D01*
X022650Y011241D02*
X021497Y011241D01*
X021394Y011359D02*
X022650Y011359D01*
X019894Y015271D02*
X006080Y015271D01*
X006080Y015390D02*
X019894Y015390D01*
X005088Y008988D02*
X003325Y008988D01*
X003325Y008870D02*
X004923Y008870D01*
X004866Y008751D02*
X003325Y008751D01*
X003325Y008633D02*
X004854Y008633D01*
X004882Y008514D02*
X003325Y008514D01*
X003325Y008396D02*
X004964Y008396D01*
D16*
X015145Y009322D02*
X015145Y010799D01*
X015637Y011291D01*
X016375Y011291D02*
X017113Y010553D01*
X017113Y009470D01*
X017211Y009371D01*
X017408Y009371D01*
X017408Y010203D02*
X017408Y011094D01*
X017211Y011291D01*
M02*
