G75*
G70*
%OFA0B0*%
%FSLAX24Y24*%
%IPPOS*%
%LPD*%
%AMOC8*
5,1,8,0,0,1.08239X$1,22.5*
%
%ADD10C,0.0000*%
%ADD11R,0.0680X0.2630*%
%ADD12C,0.0640*%
%ADD13OC8,0.0720*%
%ADD14R,0.0720X0.0720*%
%ADD15C,0.2380*%
D10*
X008092Y007958D02*
X039530Y007958D01*
X039780Y008208D01*
X039780Y011052D01*
X048775Y011052D01*
X048775Y039267D01*
X007842Y039267D01*
X007842Y008271D01*
X007842Y008208D01*
X008092Y007958D01*
D11*
X008811Y009771D03*
X009811Y009771D03*
X010811Y009771D03*
X011811Y009771D03*
X012811Y009771D03*
X013811Y009771D03*
X014811Y009771D03*
X015811Y009771D03*
X016811Y009771D03*
X017811Y009771D03*
X018811Y009771D03*
X019811Y009771D03*
X020811Y009771D03*
X021811Y009771D03*
X022811Y009771D03*
X023811Y009771D03*
X024811Y009771D03*
X025811Y009771D03*
X026811Y009771D03*
X027811Y009771D03*
X028811Y009771D03*
X029811Y009771D03*
X030811Y009771D03*
X031811Y009771D03*
X032811Y009771D03*
X033811Y009771D03*
X034811Y009771D03*
X035811Y009771D03*
X036811Y009771D03*
X037811Y009771D03*
X038811Y009771D03*
D12*
X022061Y018241D02*
X022061Y018801D01*
X021061Y018801D02*
X021061Y018241D01*
X020061Y018241D02*
X020061Y018801D01*
X019061Y018801D02*
X019061Y018241D01*
X018061Y018241D02*
X018061Y018801D01*
X017061Y018801D02*
X017061Y018241D01*
X016061Y018241D02*
X016061Y018801D01*
X015061Y018801D02*
X015061Y018241D01*
X015061Y021241D02*
X015061Y021801D01*
X016061Y021801D02*
X016061Y021241D01*
X017061Y021241D02*
X017061Y021801D01*
X018061Y021801D02*
X018061Y021241D01*
X019061Y021241D02*
X019061Y021801D01*
X020061Y021801D02*
X020061Y021241D01*
X021061Y021241D02*
X021061Y021801D01*
X022061Y021801D02*
X022061Y021241D01*
X022061Y024991D02*
X022061Y025551D01*
X021061Y025551D02*
X021061Y024991D01*
X020061Y024991D02*
X020061Y025551D01*
X019061Y025551D02*
X019061Y024991D01*
X023061Y024991D02*
X023061Y025551D01*
X024061Y025551D02*
X024061Y024991D01*
X025061Y024991D02*
X025061Y025551D01*
X026061Y025551D02*
X026061Y024991D01*
X027061Y024991D02*
X027061Y025551D01*
X028061Y025551D02*
X028061Y024991D01*
X029061Y024991D02*
X029061Y025551D01*
X030061Y025551D02*
X030061Y024991D01*
X031061Y024991D02*
X031061Y025551D01*
X032061Y025551D02*
X032061Y024991D01*
X032061Y030991D02*
X032061Y031551D01*
X031061Y031551D02*
X031061Y030991D01*
X030061Y030991D02*
X030061Y031551D01*
X029061Y031551D02*
X029061Y030991D01*
X028061Y030991D02*
X028061Y031551D01*
X027061Y031551D02*
X027061Y030991D01*
X026061Y030991D02*
X026061Y031551D01*
X025061Y031551D02*
X025061Y030991D01*
X024061Y030991D02*
X024061Y031551D01*
X023061Y031551D02*
X023061Y030991D01*
X022061Y030991D02*
X022061Y031551D01*
X021061Y031551D02*
X021061Y030991D01*
X020061Y030991D02*
X020061Y031551D01*
X019061Y031551D02*
X019061Y030991D01*
D13*
X019311Y034521D03*
X020311Y034521D03*
X018811Y036021D03*
X022811Y035771D03*
X023811Y035771D03*
X023811Y036771D03*
X022811Y036771D03*
X024811Y036771D03*
X025811Y036771D03*
X026811Y036771D03*
X027811Y036771D03*
X028811Y036771D03*
X029811Y036771D03*
X030811Y036771D03*
X031811Y036771D03*
X032811Y036771D03*
X033811Y036771D03*
X034811Y036771D03*
X035811Y036771D03*
X036811Y036771D03*
X037811Y036771D03*
X038811Y036771D03*
X039811Y036771D03*
X040811Y036771D03*
X041811Y036771D03*
X041811Y035771D03*
X040811Y035771D03*
X039811Y035771D03*
X038811Y035771D03*
X037811Y035771D03*
X036811Y035771D03*
X035811Y035771D03*
X034811Y035771D03*
X033811Y035771D03*
X032811Y035771D03*
X031811Y035771D03*
X030811Y035771D03*
X029811Y035771D03*
X028811Y035771D03*
X027811Y035771D03*
X026811Y035771D03*
X025811Y035771D03*
X024811Y035771D03*
X032186Y032771D03*
X035311Y031271D03*
X031311Y022021D03*
X031311Y021021D03*
X030311Y021021D03*
X030311Y020021D03*
X031311Y020021D03*
X031311Y019021D03*
X030311Y019021D03*
X030311Y018021D03*
X031311Y018021D03*
X033811Y015271D03*
X013811Y038271D03*
X012811Y038271D03*
X011811Y038271D03*
X010811Y038271D03*
X009811Y038271D03*
D14*
X008811Y038271D03*
X018811Y037021D03*
X018311Y034521D03*
X031186Y032771D03*
X036311Y031271D03*
X030311Y022021D03*
X032811Y015271D03*
D15*
X047311Y012771D03*
X047311Y035271D03*
M02*
