G75*
G70*
%OFA0B0*%
%FSLAX24Y24*%
%IPPOS*%
%LPD*%
%AMOC8*
5,1,8,0,0,1.08239X$1,22.5*
%
%ADD10R,0.0394X0.0433*%
%ADD11R,0.0315X0.0315*%
%ADD12R,0.0433X0.0394*%
%ADD13R,0.0630X0.0551*%
%ADD14R,0.0701X0.0402*%
%ADD15R,0.0551X0.0630*%
%ADD16R,0.0354X0.0138*%
%ADD17R,0.0453X0.0173*%
%ADD18R,0.0453X0.0248*%
%ADD19R,0.0550X0.0137*%
%ADD20R,0.0472X0.0217*%
%ADD21R,0.0512X0.1102*%
%ADD22R,0.0984X0.0787*%
%ADD23R,0.1299X0.0197*%
%ADD24C,0.0000*%
%ADD25R,0.0126X0.0496*%
%ADD26R,0.1102X0.0512*%
%ADD27C,0.0120*%
%ADD28C,0.0320*%
%ADD29C,0.0160*%
%ADD30C,0.0320*%
%ADD31C,0.0200*%
%ADD32C,0.0240*%
%ADD33C,0.0450*%
D10*
X011620Y010650D03*
X012289Y010650D03*
X009954Y013065D03*
X009954Y013735D03*
X011486Y018003D03*
X012079Y018003D03*
X012079Y018672D03*
X011486Y018672D03*
X014617Y020774D03*
X014617Y021443D03*
X013843Y023650D03*
X013174Y023650D03*
X010272Y023650D03*
X009603Y023650D03*
X006617Y021443D03*
X006617Y020774D03*
X016745Y023650D03*
X017414Y023650D03*
X017804Y021443D03*
X017804Y020774D03*
X016954Y018485D03*
X016954Y017815D03*
X020312Y023650D03*
X020981Y023650D03*
X021120Y010650D03*
X021789Y010650D03*
D11*
X020942Y024150D03*
X020351Y024150D03*
X017375Y024150D03*
X016784Y024150D03*
X013804Y024150D03*
X013213Y024150D03*
X010233Y024150D03*
X009643Y024150D03*
D12*
X013370Y012771D03*
X014039Y012771D03*
X019120Y010650D03*
X019789Y010650D03*
D13*
X019545Y014650D03*
X018364Y014650D03*
D14*
X009617Y020758D03*
X009617Y021459D03*
D15*
X011117Y021699D03*
X011117Y020518D03*
D16*
X019303Y009918D03*
X019303Y009662D03*
X019303Y009406D03*
X019303Y009150D03*
X019303Y008894D03*
X019303Y008638D03*
X019303Y008382D03*
X021606Y008382D03*
X021606Y008638D03*
X021606Y008894D03*
X021606Y009150D03*
X021606Y009406D03*
X021606Y009662D03*
X021606Y009918D03*
D17*
X019838Y011493D03*
X019838Y011807D03*
X019070Y011807D03*
X019070Y011493D03*
X019070Y016493D03*
X019070Y016807D03*
X019838Y016807D03*
X019838Y016493D03*
X019838Y018493D03*
X019838Y018807D03*
X019070Y018807D03*
X019070Y018493D03*
D18*
X019070Y018140D03*
X019838Y018140D03*
X019838Y017160D03*
X019070Y017160D03*
X019070Y016140D03*
X019838Y016140D03*
X019838Y019160D03*
X019070Y019160D03*
X019070Y012160D03*
X019838Y012160D03*
X019838Y011140D03*
X019070Y011140D03*
D19*
X016894Y013549D03*
X016894Y013805D03*
X016894Y014061D03*
X016894Y014317D03*
X016894Y014573D03*
X016894Y014829D03*
X016894Y015085D03*
X016894Y015340D03*
X016894Y015596D03*
X016894Y015852D03*
X016894Y016108D03*
X016894Y016364D03*
X016894Y016620D03*
X016894Y016876D03*
X014015Y016876D03*
X014015Y016620D03*
X014015Y016364D03*
X014015Y016108D03*
X014015Y015852D03*
X014015Y015596D03*
X014015Y015340D03*
X014015Y015085D03*
X014015Y014829D03*
X014015Y014573D03*
X014015Y014317D03*
X014015Y014061D03*
X014015Y013805D03*
X014015Y013549D03*
D20*
X013216Y020734D03*
X012193Y020734D03*
X012193Y021108D03*
X012193Y021482D03*
X013216Y021482D03*
X015916Y021482D03*
X015916Y021108D03*
X015916Y020734D03*
X016939Y020734D03*
X016939Y021482D03*
X008628Y021482D03*
X008628Y021108D03*
X008628Y020734D03*
X007605Y020734D03*
X007605Y021482D03*
D21*
X013454Y010173D03*
X014454Y010173D03*
X015454Y010173D03*
X016454Y010173D03*
X017454Y010173D03*
D22*
X008663Y014398D03*
X006498Y014398D03*
X006498Y017902D03*
X008663Y017902D03*
D23*
X008899Y016780D03*
X008899Y016465D03*
X008899Y016150D03*
X008899Y015835D03*
X008899Y015520D03*
D24*
X007187Y006307D02*
X023722Y006307D01*
X023092Y007882D02*
X023094Y007932D01*
X023100Y007982D01*
X023110Y008031D01*
X023124Y008079D01*
X023141Y008126D01*
X023162Y008171D01*
X023187Y008215D01*
X023215Y008256D01*
X023247Y008295D01*
X023281Y008332D01*
X023318Y008366D01*
X023358Y008396D01*
X023400Y008423D01*
X023444Y008447D01*
X023490Y008468D01*
X023537Y008484D01*
X023585Y008497D01*
X023635Y008506D01*
X023684Y008511D01*
X023735Y008512D01*
X023785Y008509D01*
X023834Y008502D01*
X023883Y008491D01*
X023931Y008476D01*
X023977Y008458D01*
X024022Y008436D01*
X024065Y008410D01*
X024106Y008381D01*
X024145Y008349D01*
X024181Y008314D01*
X024213Y008276D01*
X024243Y008236D01*
X024270Y008193D01*
X024293Y008149D01*
X024312Y008103D01*
X024328Y008055D01*
X024340Y008006D01*
X024348Y007957D01*
X024352Y007907D01*
X024352Y007857D01*
X024348Y007807D01*
X024340Y007758D01*
X024328Y007709D01*
X024312Y007661D01*
X024293Y007615D01*
X024270Y007571D01*
X024243Y007528D01*
X024213Y007488D01*
X024181Y007450D01*
X024145Y007415D01*
X024106Y007383D01*
X024065Y007354D01*
X024022Y007328D01*
X023977Y007306D01*
X023931Y007288D01*
X023883Y007273D01*
X023834Y007262D01*
X023785Y007255D01*
X023735Y007252D01*
X023684Y007253D01*
X023635Y007258D01*
X023585Y007267D01*
X023537Y007280D01*
X023490Y007296D01*
X023444Y007317D01*
X023400Y007341D01*
X023358Y007368D01*
X023318Y007398D01*
X023281Y007432D01*
X023247Y007469D01*
X023215Y007508D01*
X023187Y007549D01*
X023162Y007593D01*
X023141Y007638D01*
X023124Y007685D01*
X023110Y007733D01*
X023100Y007782D01*
X023094Y007832D01*
X023092Y007882D01*
X023722Y006307D02*
X023799Y006309D01*
X023876Y006315D01*
X023953Y006324D01*
X024029Y006337D01*
X024105Y006354D01*
X024179Y006375D01*
X024253Y006399D01*
X024325Y006427D01*
X024395Y006458D01*
X024464Y006493D01*
X024532Y006531D01*
X024597Y006572D01*
X024660Y006617D01*
X024721Y006665D01*
X024780Y006715D01*
X024836Y006768D01*
X024889Y006824D01*
X024939Y006883D01*
X024987Y006944D01*
X025032Y007007D01*
X025073Y007072D01*
X025111Y007140D01*
X025146Y007209D01*
X025177Y007279D01*
X025205Y007351D01*
X025229Y007425D01*
X025250Y007499D01*
X025267Y007575D01*
X025280Y007651D01*
X025289Y007728D01*
X025295Y007805D01*
X025297Y007882D01*
X025297Y024418D01*
X023092Y024418D02*
X023094Y024468D01*
X023100Y024518D01*
X023110Y024567D01*
X023124Y024615D01*
X023141Y024662D01*
X023162Y024707D01*
X023187Y024751D01*
X023215Y024792D01*
X023247Y024831D01*
X023281Y024868D01*
X023318Y024902D01*
X023358Y024932D01*
X023400Y024959D01*
X023444Y024983D01*
X023490Y025004D01*
X023537Y025020D01*
X023585Y025033D01*
X023635Y025042D01*
X023684Y025047D01*
X023735Y025048D01*
X023785Y025045D01*
X023834Y025038D01*
X023883Y025027D01*
X023931Y025012D01*
X023977Y024994D01*
X024022Y024972D01*
X024065Y024946D01*
X024106Y024917D01*
X024145Y024885D01*
X024181Y024850D01*
X024213Y024812D01*
X024243Y024772D01*
X024270Y024729D01*
X024293Y024685D01*
X024312Y024639D01*
X024328Y024591D01*
X024340Y024542D01*
X024348Y024493D01*
X024352Y024443D01*
X024352Y024393D01*
X024348Y024343D01*
X024340Y024294D01*
X024328Y024245D01*
X024312Y024197D01*
X024293Y024151D01*
X024270Y024107D01*
X024243Y024064D01*
X024213Y024024D01*
X024181Y023986D01*
X024145Y023951D01*
X024106Y023919D01*
X024065Y023890D01*
X024022Y023864D01*
X023977Y023842D01*
X023931Y023824D01*
X023883Y023809D01*
X023834Y023798D01*
X023785Y023791D01*
X023735Y023788D01*
X023684Y023789D01*
X023635Y023794D01*
X023585Y023803D01*
X023537Y023816D01*
X023490Y023832D01*
X023444Y023853D01*
X023400Y023877D01*
X023358Y023904D01*
X023318Y023934D01*
X023281Y023968D01*
X023247Y024005D01*
X023215Y024044D01*
X023187Y024085D01*
X023162Y024129D01*
X023141Y024174D01*
X023124Y024221D01*
X023110Y024269D01*
X023100Y024318D01*
X023094Y024368D01*
X023092Y024418D01*
X023722Y025993D02*
X023799Y025991D01*
X023876Y025985D01*
X023953Y025976D01*
X024029Y025963D01*
X024105Y025946D01*
X024179Y025925D01*
X024253Y025901D01*
X024325Y025873D01*
X024395Y025842D01*
X024464Y025807D01*
X024532Y025769D01*
X024597Y025728D01*
X024660Y025683D01*
X024721Y025635D01*
X024780Y025585D01*
X024836Y025532D01*
X024889Y025476D01*
X024939Y025417D01*
X024987Y025356D01*
X025032Y025293D01*
X025073Y025228D01*
X025111Y025160D01*
X025146Y025091D01*
X025177Y025021D01*
X025205Y024949D01*
X025229Y024875D01*
X025250Y024801D01*
X025267Y024725D01*
X025280Y024649D01*
X025289Y024572D01*
X025295Y024495D01*
X025297Y024418D01*
X023722Y025993D02*
X007187Y025993D01*
X006557Y024418D02*
X006559Y024468D01*
X006565Y024518D01*
X006575Y024567D01*
X006589Y024615D01*
X006606Y024662D01*
X006627Y024707D01*
X006652Y024751D01*
X006680Y024792D01*
X006712Y024831D01*
X006746Y024868D01*
X006783Y024902D01*
X006823Y024932D01*
X006865Y024959D01*
X006909Y024983D01*
X006955Y025004D01*
X007002Y025020D01*
X007050Y025033D01*
X007100Y025042D01*
X007149Y025047D01*
X007200Y025048D01*
X007250Y025045D01*
X007299Y025038D01*
X007348Y025027D01*
X007396Y025012D01*
X007442Y024994D01*
X007487Y024972D01*
X007530Y024946D01*
X007571Y024917D01*
X007610Y024885D01*
X007646Y024850D01*
X007678Y024812D01*
X007708Y024772D01*
X007735Y024729D01*
X007758Y024685D01*
X007777Y024639D01*
X007793Y024591D01*
X007805Y024542D01*
X007813Y024493D01*
X007817Y024443D01*
X007817Y024393D01*
X007813Y024343D01*
X007805Y024294D01*
X007793Y024245D01*
X007777Y024197D01*
X007758Y024151D01*
X007735Y024107D01*
X007708Y024064D01*
X007678Y024024D01*
X007646Y023986D01*
X007610Y023951D01*
X007571Y023919D01*
X007530Y023890D01*
X007487Y023864D01*
X007442Y023842D01*
X007396Y023824D01*
X007348Y023809D01*
X007299Y023798D01*
X007250Y023791D01*
X007200Y023788D01*
X007149Y023789D01*
X007100Y023794D01*
X007050Y023803D01*
X007002Y023816D01*
X006955Y023832D01*
X006909Y023853D01*
X006865Y023877D01*
X006823Y023904D01*
X006783Y023934D01*
X006746Y023968D01*
X006712Y024005D01*
X006680Y024044D01*
X006652Y024085D01*
X006627Y024129D01*
X006606Y024174D01*
X006589Y024221D01*
X006575Y024269D01*
X006565Y024318D01*
X006559Y024368D01*
X006557Y024418D01*
X005612Y024418D02*
X005614Y024495D01*
X005620Y024572D01*
X005629Y024649D01*
X005642Y024725D01*
X005659Y024801D01*
X005680Y024875D01*
X005704Y024949D01*
X005732Y025021D01*
X005763Y025091D01*
X005798Y025160D01*
X005836Y025228D01*
X005877Y025293D01*
X005922Y025356D01*
X005970Y025417D01*
X006020Y025476D01*
X006073Y025532D01*
X006129Y025585D01*
X006188Y025635D01*
X006249Y025683D01*
X006312Y025728D01*
X006377Y025769D01*
X006445Y025807D01*
X006514Y025842D01*
X006584Y025873D01*
X006656Y025901D01*
X006730Y025925D01*
X006804Y025946D01*
X006880Y025963D01*
X006956Y025976D01*
X007033Y025985D01*
X007110Y025991D01*
X007187Y025993D01*
X005612Y024418D02*
X005612Y007882D01*
X006557Y007882D02*
X006559Y007932D01*
X006565Y007982D01*
X006575Y008031D01*
X006589Y008079D01*
X006606Y008126D01*
X006627Y008171D01*
X006652Y008215D01*
X006680Y008256D01*
X006712Y008295D01*
X006746Y008332D01*
X006783Y008366D01*
X006823Y008396D01*
X006865Y008423D01*
X006909Y008447D01*
X006955Y008468D01*
X007002Y008484D01*
X007050Y008497D01*
X007100Y008506D01*
X007149Y008511D01*
X007200Y008512D01*
X007250Y008509D01*
X007299Y008502D01*
X007348Y008491D01*
X007396Y008476D01*
X007442Y008458D01*
X007487Y008436D01*
X007530Y008410D01*
X007571Y008381D01*
X007610Y008349D01*
X007646Y008314D01*
X007678Y008276D01*
X007708Y008236D01*
X007735Y008193D01*
X007758Y008149D01*
X007777Y008103D01*
X007793Y008055D01*
X007805Y008006D01*
X007813Y007957D01*
X007817Y007907D01*
X007817Y007857D01*
X007813Y007807D01*
X007805Y007758D01*
X007793Y007709D01*
X007777Y007661D01*
X007758Y007615D01*
X007735Y007571D01*
X007708Y007528D01*
X007678Y007488D01*
X007646Y007450D01*
X007610Y007415D01*
X007571Y007383D01*
X007530Y007354D01*
X007487Y007328D01*
X007442Y007306D01*
X007396Y007288D01*
X007348Y007273D01*
X007299Y007262D01*
X007250Y007255D01*
X007200Y007252D01*
X007149Y007253D01*
X007100Y007258D01*
X007050Y007267D01*
X007002Y007280D01*
X006955Y007296D01*
X006909Y007317D01*
X006865Y007341D01*
X006823Y007368D01*
X006783Y007398D01*
X006746Y007432D01*
X006712Y007469D01*
X006680Y007508D01*
X006652Y007549D01*
X006627Y007593D01*
X006606Y007638D01*
X006589Y007685D01*
X006575Y007733D01*
X006565Y007782D01*
X006559Y007832D01*
X006557Y007882D01*
X005612Y007882D02*
X005614Y007805D01*
X005620Y007728D01*
X005629Y007651D01*
X005642Y007575D01*
X005659Y007499D01*
X005680Y007425D01*
X005704Y007351D01*
X005732Y007279D01*
X005763Y007209D01*
X005798Y007140D01*
X005836Y007072D01*
X005877Y007007D01*
X005922Y006944D01*
X005970Y006883D01*
X006020Y006824D01*
X006073Y006768D01*
X006129Y006715D01*
X006188Y006665D01*
X006249Y006617D01*
X006312Y006572D01*
X006377Y006531D01*
X006445Y006493D01*
X006514Y006458D01*
X006584Y006427D01*
X006656Y006399D01*
X006730Y006375D01*
X006804Y006354D01*
X006880Y006337D01*
X006956Y006324D01*
X007033Y006315D01*
X007110Y006309D01*
X007187Y006307D01*
X007502Y015284D02*
X007504Y015310D01*
X007510Y015336D01*
X007520Y015361D01*
X007533Y015384D01*
X007549Y015404D01*
X007569Y015422D01*
X007591Y015437D01*
X007614Y015449D01*
X007640Y015457D01*
X007666Y015461D01*
X007692Y015461D01*
X007718Y015457D01*
X007744Y015449D01*
X007768Y015437D01*
X007789Y015422D01*
X007809Y015404D01*
X007825Y015384D01*
X007838Y015361D01*
X007848Y015336D01*
X007854Y015310D01*
X007856Y015284D01*
X007854Y015258D01*
X007848Y015232D01*
X007838Y015207D01*
X007825Y015184D01*
X007809Y015164D01*
X007789Y015146D01*
X007767Y015131D01*
X007744Y015119D01*
X007718Y015111D01*
X007692Y015107D01*
X007666Y015107D01*
X007640Y015111D01*
X007614Y015119D01*
X007590Y015131D01*
X007569Y015146D01*
X007549Y015164D01*
X007533Y015184D01*
X007520Y015207D01*
X007510Y015232D01*
X007504Y015258D01*
X007502Y015284D01*
X007502Y017016D02*
X007504Y017042D01*
X007510Y017068D01*
X007520Y017093D01*
X007533Y017116D01*
X007549Y017136D01*
X007569Y017154D01*
X007591Y017169D01*
X007614Y017181D01*
X007640Y017189D01*
X007666Y017193D01*
X007692Y017193D01*
X007718Y017189D01*
X007744Y017181D01*
X007768Y017169D01*
X007789Y017154D01*
X007809Y017136D01*
X007825Y017116D01*
X007838Y017093D01*
X007848Y017068D01*
X007854Y017042D01*
X007856Y017016D01*
X007854Y016990D01*
X007848Y016964D01*
X007838Y016939D01*
X007825Y016916D01*
X007809Y016896D01*
X007789Y016878D01*
X007767Y016863D01*
X007744Y016851D01*
X007718Y016843D01*
X007692Y016839D01*
X007666Y016839D01*
X007640Y016843D01*
X007614Y016851D01*
X007590Y016863D01*
X007569Y016878D01*
X007549Y016896D01*
X007533Y016916D01*
X007520Y016939D01*
X007510Y016964D01*
X007504Y016990D01*
X007502Y017016D01*
D25*
X010579Y017244D03*
X010829Y017244D03*
X011079Y017244D03*
X011329Y017244D03*
X011579Y017244D03*
X011829Y017244D03*
X012079Y017244D03*
X012329Y017244D03*
X012329Y015056D03*
X012079Y015056D03*
X011829Y015056D03*
X011579Y015056D03*
X011329Y015056D03*
X011079Y015056D03*
X010829Y015056D03*
X010579Y015056D03*
D26*
X021436Y014650D03*
X021436Y015650D03*
X021436Y016650D03*
X021436Y017650D03*
X021436Y018650D03*
X021436Y019650D03*
X021436Y020650D03*
X021436Y013650D03*
X021436Y012650D03*
X021436Y011650D03*
D27*
X021454Y011631D01*
X021454Y011150D01*
X021329Y011025D01*
X020267Y011025D01*
X020152Y011140D01*
X019838Y011140D01*
X019789Y010650D02*
X020579Y010650D01*
X021120Y010650D01*
X021579Y010190D01*
X021579Y009931D01*
X021579Y009918D01*
X021606Y009918D01*
X021593Y009918D02*
X021579Y009931D01*
X021606Y009662D02*
X022122Y009662D01*
X022122Y010576D01*
X022048Y010650D01*
X021789Y010650D01*
X021671Y011047D02*
X021694Y011102D01*
X021694Y011214D01*
X022062Y011214D01*
X022167Y011320D01*
X022167Y011980D01*
X022062Y012086D01*
X021220Y012086D01*
X021189Y012161D01*
X021136Y012214D01*
X022062Y012214D01*
X022167Y012320D01*
X022167Y012410D01*
X022213Y012410D01*
X022262Y012362D01*
X022387Y012310D01*
X022522Y012310D01*
X022647Y012362D01*
X022743Y012457D01*
X022794Y012582D01*
X022794Y012718D01*
X022743Y012843D01*
X022647Y012938D01*
X022522Y012990D01*
X022387Y012990D01*
X022262Y012938D01*
X022213Y012890D01*
X022167Y012890D01*
X022167Y012980D01*
X022062Y013086D01*
X021045Y013086D01*
X020981Y013150D01*
X021045Y013214D01*
X022062Y013214D01*
X022167Y013320D01*
X022167Y013410D01*
X022213Y013410D01*
X022262Y013362D01*
X022387Y013310D01*
X022522Y013310D01*
X022647Y013362D01*
X022743Y013457D01*
X022794Y013582D01*
X022794Y013718D01*
X022743Y013843D01*
X022647Y013938D01*
X022522Y013990D01*
X022387Y013990D01*
X022262Y013938D01*
X022213Y013890D01*
X022167Y013890D01*
X022167Y013980D01*
X022062Y014086D01*
X020917Y014086D01*
X021045Y014214D01*
X022062Y014214D01*
X022167Y014320D01*
X022167Y014410D01*
X022213Y014410D01*
X022262Y014362D01*
X022387Y014310D01*
X022522Y014310D01*
X022647Y014362D01*
X022743Y014457D01*
X022794Y014582D01*
X022794Y014718D01*
X022743Y014843D01*
X022647Y014938D01*
X022522Y014990D01*
X022387Y014990D01*
X022262Y014938D01*
X022213Y014890D01*
X022167Y014890D01*
X022167Y014980D01*
X022062Y015086D01*
X020810Y015086D01*
X020705Y014980D01*
X020705Y014552D01*
X019942Y013789D01*
X017349Y013789D01*
X017349Y014460D01*
X017328Y014481D01*
X017329Y014483D01*
X017329Y014573D01*
X017329Y014589D01*
X017869Y014589D01*
X017869Y014300D01*
X017974Y014194D01*
X018753Y014194D01*
X018859Y014300D01*
X018859Y014845D01*
X019070Y014845D01*
X019070Y014710D01*
X019485Y014710D01*
X019485Y014590D01*
X019605Y014590D01*
X019605Y014710D01*
X020020Y014710D01*
X020020Y014879D01*
X020025Y014881D01*
X020554Y015410D01*
X020705Y015410D01*
X020705Y015320D01*
X020810Y015214D01*
X022062Y015214D01*
X022167Y015320D01*
X022167Y015980D01*
X022062Y016086D01*
X020810Y016086D01*
X020705Y015980D01*
X020705Y015890D01*
X020407Y015890D01*
X020318Y015853D01*
X020251Y015786D01*
X020251Y015786D01*
X019789Y015325D01*
X017349Y015325D01*
X017349Y015356D01*
X018198Y015356D01*
X018287Y015393D01*
X019858Y015393D01*
X019976Y015512D02*
X018405Y015512D01*
X018524Y015630D02*
X020095Y015630D01*
X020213Y015749D02*
X018642Y015749D01*
X018750Y015856D02*
X018770Y015836D01*
X019371Y015836D01*
X019473Y015937D01*
X019484Y015918D01*
X019514Y015888D01*
X019550Y015867D01*
X019591Y015856D01*
X019836Y015856D01*
X019836Y016138D01*
X019840Y016138D01*
X019840Y015856D01*
X020086Y015856D01*
X020126Y015867D01*
X020351Y015867D01*
X020214Y015954D02*
X020225Y015995D01*
X020225Y016138D01*
X019840Y016138D01*
X019840Y016142D01*
X020225Y016142D01*
X020225Y016253D01*
X020772Y016253D01*
X020810Y016214D01*
X022062Y016214D01*
X022167Y016320D01*
X022167Y016980D01*
X022062Y017086D01*
X020810Y017086D01*
X020705Y016980D01*
X020705Y016733D01*
X020225Y016733D01*
X020225Y016807D01*
X019838Y016807D01*
X019838Y016807D01*
X020225Y016807D01*
X020225Y016915D01*
X020219Y016936D01*
X020245Y016961D01*
X020245Y017101D01*
X020554Y017410D01*
X020705Y017410D01*
X020705Y017320D01*
X020810Y017214D01*
X022062Y017214D01*
X022167Y017320D01*
X022167Y017390D01*
X023194Y017390D01*
X023194Y010476D01*
X022895Y010177D01*
X022855Y010177D01*
X022730Y010126D01*
X022635Y010030D01*
X022583Y009905D01*
X022583Y009865D01*
X022362Y009645D01*
X022362Y010623D01*
X022326Y010712D01*
X022252Y010786D01*
X022184Y010853D01*
X022166Y010861D01*
X022166Y010941D01*
X022060Y011047D01*
X021671Y011047D01*
X021694Y011127D02*
X023194Y011127D01*
X023194Y011009D02*
X022098Y011009D01*
X022166Y010890D02*
X023194Y010890D01*
X023194Y010772D02*
X022266Y010772D01*
X022350Y010653D02*
X023194Y010653D01*
X023194Y010535D02*
X022362Y010535D01*
X022362Y010416D02*
X023134Y010416D01*
X023015Y010298D02*
X022362Y010298D01*
X022362Y010179D02*
X022897Y010179D01*
X022665Y010061D02*
X022362Y010061D01*
X022362Y009942D02*
X022598Y009942D01*
X022541Y009824D02*
X022362Y009824D01*
X022362Y009705D02*
X022423Y009705D01*
X022803Y009350D02*
X025117Y009350D01*
X025117Y009243D02*
X023789Y009243D01*
X023784Y009248D01*
X023716Y009243D01*
X023647Y009243D01*
X023642Y009238D01*
X023601Y009235D01*
X023589Y009243D01*
X023528Y009230D01*
X023467Y009226D01*
X023457Y009215D01*
X023410Y009204D01*
X023396Y009210D01*
X023338Y009189D01*
X023278Y009176D01*
X023270Y009163D01*
X023225Y009146D01*
X023211Y009150D01*
X023156Y009121D01*
X023099Y009099D01*
X023093Y009086D01*
X023050Y009063D01*
X023035Y009065D01*
X022986Y009028D01*
X022932Y008998D01*
X022928Y008984D01*
X022889Y008955D01*
X022874Y008955D01*
X022830Y008911D01*
X022781Y008874D01*
X022779Y008860D01*
X022745Y008825D01*
X022730Y008823D01*
X022693Y008774D01*
X022649Y008730D01*
X022649Y008716D01*
X022620Y008677D01*
X022606Y008673D01*
X022577Y008618D01*
X022540Y008569D01*
X022542Y008555D01*
X022518Y008512D01*
X022505Y008506D01*
X022484Y008448D01*
X022454Y008394D01*
X022458Y008380D01*
X022441Y008334D01*
X022429Y008326D01*
X022416Y008266D01*
X022394Y008208D01*
X022400Y008195D01*
X022390Y008147D01*
X022379Y008138D01*
X022374Y008076D01*
X022361Y008016D01*
X022369Y008003D01*
X022366Y007962D01*
X022361Y007957D01*
X022361Y007889D01*
X022356Y007821D01*
X022361Y007815D01*
X022361Y006487D01*
X008548Y006487D01*
X008548Y007815D01*
X008553Y007821D01*
X008548Y007889D01*
X008548Y007957D01*
X008542Y007962D01*
X008540Y008003D01*
X008547Y008016D01*
X008534Y008076D01*
X008530Y008138D01*
X008519Y008147D01*
X008508Y008195D01*
X008515Y008208D01*
X008493Y008266D01*
X008480Y008326D01*
X008468Y008334D01*
X008451Y008380D01*
X008455Y008394D01*
X008425Y008448D01*
X008404Y008506D01*
X008390Y008512D01*
X008367Y008555D01*
X008369Y008569D01*
X008332Y008618D01*
X008302Y008673D01*
X008288Y008677D01*
X008259Y008716D01*
X008259Y008730D01*
X008216Y008774D01*
X008179Y008823D01*
X008164Y008825D01*
X008130Y008860D01*
X008128Y008874D01*
X008078Y008911D01*
X008035Y008955D01*
X008020Y008955D01*
X007981Y008984D01*
X007977Y008998D01*
X007923Y009028D01*
X007873Y009065D01*
X007859Y009063D01*
X007816Y009086D01*
X007810Y009099D01*
X007752Y009121D01*
X007698Y009150D01*
X007684Y009146D01*
X007638Y009163D01*
X007630Y009176D01*
X007570Y009189D01*
X007512Y009210D01*
X007499Y009204D01*
X007452Y009215D01*
X007442Y009226D01*
X007380Y009230D01*
X007320Y009243D01*
X007308Y009235D01*
X007266Y009238D01*
X007261Y009243D01*
X007193Y009243D01*
X007125Y009248D01*
X007119Y009243D01*
X005792Y009243D01*
X005792Y023057D01*
X007119Y023057D01*
X007125Y023052D01*
X007193Y023057D01*
X007261Y023057D01*
X007266Y023062D01*
X007308Y023065D01*
X007320Y023057D01*
X007380Y023070D01*
X007442Y023074D01*
X007452Y023085D01*
X007499Y023096D01*
X007512Y023090D01*
X007570Y023111D01*
X007630Y023124D01*
X007638Y023137D01*
X007684Y023154D01*
X007698Y023150D01*
X007752Y023179D01*
X007810Y023201D01*
X007816Y023214D01*
X007960Y023214D01*
X007923Y023272D02*
X007977Y023302D01*
X007981Y023316D01*
X008020Y023345D01*
X008035Y023345D01*
X008078Y023389D01*
X008128Y023426D01*
X008130Y023440D01*
X008164Y023475D01*
X008179Y023477D01*
X008216Y023526D01*
X008259Y023570D01*
X008259Y023584D01*
X008288Y023623D01*
X008302Y023627D01*
X008332Y023682D01*
X008369Y023731D01*
X008367Y023745D01*
X008390Y023788D01*
X008404Y023794D01*
X008425Y023852D01*
X008455Y023906D01*
X008451Y023920D01*
X008468Y023966D01*
X008480Y023974D01*
X008493Y024034D01*
X008515Y024092D01*
X008508Y024105D01*
X008519Y024153D01*
X008530Y024162D01*
X008534Y024224D01*
X008547Y024284D01*
X008540Y024297D01*
X008542Y024338D01*
X008548Y024343D01*
X008548Y024411D01*
X008553Y024479D01*
X008548Y024485D01*
X008548Y025813D01*
X022361Y025813D01*
X022361Y024485D01*
X022356Y024479D01*
X022361Y024411D01*
X022361Y024343D01*
X022366Y024338D01*
X022369Y024297D01*
X022361Y024284D01*
X022374Y024224D01*
X022379Y024162D01*
X021594Y024162D01*
X021590Y024166D02*
X021403Y024353D01*
X021315Y024390D01*
X021271Y024390D01*
X021174Y024487D01*
X020710Y024487D01*
X020632Y024410D01*
X020607Y024436D01*
X020570Y024457D01*
X020530Y024467D01*
X020370Y024467D01*
X020370Y024169D01*
X020332Y024169D01*
X020332Y024131D01*
X020034Y024131D01*
X020034Y024040D01*
X019935Y023941D01*
X019935Y023359D01*
X020040Y023253D01*
X020072Y023253D01*
X020072Y021990D01*
X017944Y021990D01*
X017819Y021938D01*
X017720Y021840D01*
X017533Y021840D01*
X017516Y021822D01*
X016872Y021822D01*
X016747Y021771D01*
X016694Y021771D01*
X016694Y023253D01*
X017016Y023253D01*
X017080Y023317D01*
X017143Y023253D01*
X017686Y023253D01*
X017784Y023352D01*
X017887Y023310D01*
X018022Y023310D01*
X018147Y023362D01*
X018243Y023457D01*
X018294Y023582D01*
X018294Y023718D01*
X018243Y023843D01*
X018194Y023891D01*
X018194Y024010D01*
X018158Y024098D01*
X018090Y024166D01*
X017903Y024353D01*
X017815Y024390D01*
X017704Y024390D01*
X017607Y024487D01*
X017143Y024487D01*
X017065Y024410D01*
X017040Y024436D01*
X017003Y024457D01*
X016963Y024467D01*
X016803Y024467D01*
X016803Y024169D01*
X016766Y024169D01*
X016766Y024467D01*
X016606Y024467D01*
X016565Y024457D01*
X016529Y024436D01*
X016499Y024406D01*
X016478Y024369D01*
X016467Y024329D01*
X016467Y024169D01*
X016766Y024169D01*
X016766Y024131D01*
X016467Y024131D01*
X016467Y024040D01*
X016368Y023941D01*
X016368Y023613D01*
X016251Y023495D01*
X016214Y023407D01*
X016214Y022823D01*
X016195Y022869D01*
X015945Y023119D01*
X015945Y023119D01*
X015877Y023187D01*
X015789Y023223D01*
X012533Y023223D01*
X012719Y023410D01*
X012797Y023410D01*
X012797Y023359D01*
X012903Y023253D01*
X013445Y023253D01*
X013509Y023317D01*
X013572Y023253D01*
X014115Y023253D01*
X014220Y023359D01*
X014220Y023403D01*
X014262Y023362D01*
X014387Y023310D01*
X014522Y023310D01*
X014647Y023362D01*
X014743Y023457D01*
X014794Y023582D01*
X014794Y023718D01*
X014743Y023843D01*
X014694Y023891D01*
X014694Y024010D01*
X014658Y024098D01*
X014590Y024166D01*
X014403Y024353D01*
X014315Y024390D01*
X014133Y024390D01*
X014036Y024487D01*
X013572Y024487D01*
X013509Y024424D01*
X013445Y024487D01*
X012981Y024487D01*
X012884Y024390D01*
X012695Y024390D01*
X012647Y024438D01*
X012522Y024490D01*
X012387Y024490D01*
X012262Y024438D01*
X012166Y024343D01*
X012114Y024218D01*
X012114Y024082D01*
X012166Y023957D01*
X012262Y023862D01*
X012387Y023810D01*
X012440Y023810D01*
X012416Y023786D01*
X012416Y023786D01*
X012114Y023484D01*
X011253Y023484D01*
X011294Y023582D01*
X011294Y023718D01*
X011243Y023843D01*
X011194Y023891D01*
X011194Y024010D01*
X011158Y024098D01*
X011090Y024166D01*
X010903Y024353D01*
X010815Y024390D01*
X010563Y024390D01*
X010465Y024487D01*
X010001Y024487D01*
X009924Y024410D01*
X009898Y024436D01*
X009862Y024457D01*
X009821Y024467D01*
X009661Y024467D01*
X009661Y024169D01*
X009624Y024169D01*
X009624Y024467D01*
X009464Y024467D01*
X009423Y024457D01*
X009387Y024436D01*
X009357Y024406D01*
X009336Y024369D01*
X009325Y024329D01*
X009325Y024169D01*
X009624Y024169D01*
X009624Y024131D01*
X009325Y024131D01*
X009325Y024040D01*
X009226Y023941D01*
X009226Y023890D01*
X008688Y023890D01*
X008600Y023853D01*
X006907Y022161D01*
X006871Y022073D01*
X006871Y021810D01*
X006834Y021820D01*
X006655Y021820D01*
X006655Y021482D01*
X006578Y021482D01*
X006578Y021820D01*
X006399Y021820D01*
X006358Y021809D01*
X006321Y021788D01*
X006292Y021758D01*
X006271Y021721D01*
X006260Y021681D01*
X006260Y021482D01*
X006578Y021482D01*
X006578Y021405D01*
X006260Y021405D01*
X006260Y021206D01*
X006271Y021165D01*
X006292Y021128D01*
X006297Y021123D01*
X006263Y021088D01*
X006225Y021072D01*
X006157Y021005D01*
X006121Y020916D01*
X006121Y019759D01*
X006157Y019670D01*
X006225Y019603D01*
X006313Y019566D01*
X007721Y019566D01*
X007809Y019603D01*
X007877Y019670D01*
X007913Y019759D01*
X007913Y020446D01*
X007916Y020446D01*
X008021Y020552D01*
X008021Y020917D01*
X007916Y021023D01*
X007859Y021023D01*
X007809Y021072D01*
X007721Y021109D01*
X007351Y021109D01*
X007351Y021194D01*
X007916Y021194D01*
X008021Y021300D01*
X008021Y021665D01*
X007916Y021771D01*
X007351Y021771D01*
X007351Y021926D01*
X008835Y023410D01*
X009226Y023410D01*
X009226Y023359D01*
X009332Y023253D01*
X009418Y023253D01*
X009448Y023223D01*
X009069Y023223D01*
X008981Y023187D01*
X008481Y022687D01*
X008481Y022687D01*
X008413Y022619D01*
X008377Y022531D01*
X008377Y021771D01*
X008318Y021771D01*
X008212Y021665D01*
X008212Y021300D01*
X008241Y021271D01*
X008232Y021238D01*
X008232Y021108D01*
X008232Y020979D01*
X008241Y020946D01*
X008212Y020917D01*
X008212Y020552D01*
X008318Y020446D01*
X008939Y020446D01*
X008947Y020454D01*
X009027Y020454D01*
X009027Y018476D01*
X008096Y018476D01*
X007991Y018370D01*
X007991Y017434D01*
X008027Y017398D01*
X008027Y017109D01*
X007982Y017218D01*
X007881Y017319D01*
X007750Y017373D01*
X007608Y017373D01*
X007476Y017319D01*
X007376Y017218D01*
X007322Y017087D01*
X007322Y016945D01*
X007376Y016814D01*
X007476Y016713D01*
X007608Y016659D01*
X007750Y016659D01*
X007881Y016713D01*
X007982Y016814D01*
X008027Y016923D01*
X008027Y016727D01*
X008063Y016639D01*
X008070Y016633D01*
X008070Y015662D01*
X008090Y015642D01*
X008090Y015640D01*
X008090Y015520D01*
X008090Y015401D01*
X008101Y015360D01*
X008122Y015323D01*
X008151Y015294D01*
X008188Y015273D01*
X008229Y015262D01*
X008899Y015262D01*
X008899Y015520D01*
X008090Y015520D01*
X008899Y015520D01*
X008899Y015520D01*
X008899Y015520D01*
X008899Y015262D01*
X009570Y015262D01*
X009611Y015273D01*
X009647Y015294D01*
X009677Y015323D01*
X009698Y015360D01*
X009709Y015401D01*
X009709Y015520D01*
X008899Y015520D01*
X008899Y015520D01*
X009709Y015520D01*
X009709Y015640D01*
X009708Y015642D01*
X009729Y015662D01*
X009729Y015910D01*
X011855Y015910D01*
X012089Y015676D01*
X012089Y015484D01*
X011692Y015484D01*
X011670Y015462D01*
X011663Y015464D01*
X011579Y015464D01*
X011495Y015464D01*
X011488Y015462D01*
X011467Y015484D01*
X010442Y015484D01*
X010336Y015378D01*
X010336Y014733D01*
X010339Y014730D01*
X010339Y014446D01*
X010339Y014446D01*
X010339Y014102D01*
X010376Y014014D01*
X010443Y013947D01*
X011188Y013202D01*
X011188Y013202D01*
X011256Y013134D01*
X011344Y013098D01*
X013057Y013098D01*
X013055Y013096D01*
X013025Y013066D01*
X013004Y013030D01*
X012993Y012989D01*
X012993Y012810D01*
X013331Y012810D01*
X013331Y012733D01*
X012993Y012733D01*
X012993Y012553D01*
X013004Y012513D01*
X013025Y012476D01*
X013055Y012446D01*
X013091Y012425D01*
X013132Y012414D01*
X013331Y012414D01*
X013331Y012733D01*
X013408Y012733D01*
X013408Y012414D01*
X013607Y012414D01*
X013648Y012425D01*
X013684Y012446D01*
X013690Y012452D01*
X013733Y012409D01*
X013666Y012343D01*
X013614Y012218D01*
X013614Y012149D01*
X013318Y011853D01*
X013251Y011786D01*
X013214Y011698D01*
X013214Y010904D01*
X013124Y010904D01*
X013110Y010890D01*
X012666Y010890D01*
X012666Y010941D01*
X012560Y011047D01*
X012018Y011047D01*
X011954Y010983D01*
X011891Y011047D01*
X011348Y011047D01*
X011243Y010941D01*
X011243Y010890D01*
X011195Y010890D01*
X011147Y010938D01*
X011022Y010990D01*
X010887Y010990D01*
X010762Y010938D01*
X010666Y010843D01*
X010614Y010718D01*
X010614Y010582D01*
X010666Y010457D01*
X010762Y010362D01*
X010887Y010310D01*
X011022Y010310D01*
X011147Y010362D01*
X011195Y010410D01*
X011243Y010410D01*
X011243Y010359D01*
X011348Y010253D01*
X011891Y010253D01*
X011954Y010317D01*
X012018Y010253D01*
X012560Y010253D01*
X012666Y010359D01*
X012666Y010410D01*
X013018Y010410D01*
X013018Y009547D01*
X013124Y009442D01*
X013785Y009442D01*
X013890Y009547D01*
X013890Y010799D01*
X013785Y010904D01*
X013694Y010904D01*
X013694Y011551D01*
X013954Y011810D01*
X014022Y011810D01*
X014147Y011862D01*
X014243Y011957D01*
X014294Y012082D01*
X014294Y012218D01*
X014243Y012343D01*
X014191Y012394D01*
X014330Y012394D01*
X014367Y012431D01*
X014390Y012431D01*
X014390Y011942D01*
X014166Y011718D01*
X014114Y011593D01*
X014114Y010894D01*
X014018Y010799D01*
X014018Y009547D01*
X014114Y009451D01*
X014114Y009082D01*
X014166Y008957D01*
X014262Y008862D01*
X014387Y008810D01*
X014522Y008810D01*
X014647Y008862D01*
X014743Y008957D01*
X014794Y009082D01*
X014794Y009451D01*
X014890Y009547D01*
X014890Y010799D01*
X014794Y010894D01*
X014794Y011385D01*
X015015Y011606D01*
X015739Y010882D01*
X015731Y010884D01*
X015514Y010884D01*
X015514Y010233D01*
X015394Y010233D01*
X015394Y010113D01*
X015038Y010113D01*
X015038Y009601D01*
X015049Y009560D01*
X015070Y009523D01*
X015100Y009494D01*
X015137Y009473D01*
X015177Y009462D01*
X015394Y009462D01*
X015394Y010113D01*
X015514Y010113D01*
X015514Y009462D01*
X015731Y009462D01*
X015772Y009473D01*
X015773Y009473D01*
X015782Y009452D01*
X016001Y009233D01*
X016001Y009233D01*
X016068Y009165D01*
X016157Y009129D01*
X017377Y009129D01*
X017465Y009165D01*
X017590Y009290D01*
X017658Y009358D01*
X017693Y009442D01*
X017785Y009442D01*
X017835Y009492D01*
X018569Y008758D01*
X018637Y008691D01*
X018725Y008654D01*
X018946Y008654D01*
X018946Y008495D01*
X018966Y008474D01*
X018966Y008472D01*
X018966Y008382D01*
X018966Y008292D01*
X018976Y008252D01*
X018998Y008215D01*
X019027Y008185D01*
X019064Y008164D01*
X019105Y008153D01*
X019303Y008153D01*
X019501Y008153D01*
X019542Y008164D01*
X019578Y008185D01*
X019608Y008215D01*
X019629Y008252D01*
X019640Y008292D01*
X019640Y008382D01*
X019303Y008382D01*
X019303Y008382D01*
X019303Y008153D01*
X019303Y008382D01*
X019303Y008382D01*
X019640Y008382D01*
X019640Y008472D01*
X019639Y008474D01*
X019660Y008495D01*
X019660Y008654D01*
X019822Y008654D01*
X019771Y008530D01*
X019771Y008395D01*
X019822Y008270D01*
X019918Y008174D01*
X020043Y008123D01*
X020178Y008123D01*
X020303Y008174D01*
X020399Y008270D01*
X020451Y008395D01*
X020451Y008463D01*
X020523Y008535D01*
X020521Y008530D01*
X020521Y008395D01*
X020572Y008270D01*
X020668Y008174D01*
X020793Y008123D01*
X020928Y008123D01*
X021053Y008174D01*
X021149Y008270D01*
X021201Y008395D01*
X021201Y008398D01*
X021249Y008398D01*
X021249Y008239D01*
X021354Y008133D01*
X021858Y008133D01*
X021867Y008142D01*
X021953Y008142D01*
X022041Y008179D01*
X022090Y008228D01*
X022158Y008295D01*
X022194Y008384D01*
X022194Y008890D01*
X022287Y008890D01*
X022383Y008930D01*
X022456Y009003D01*
X022951Y009498D01*
X022991Y009498D01*
X023116Y009549D01*
X023211Y009645D01*
X023263Y009770D01*
X023263Y009810D01*
X023675Y010221D01*
X023714Y010317D01*
X023714Y017702D01*
X023675Y017797D01*
X023602Y017870D01*
X023506Y017910D01*
X022167Y017910D01*
X022167Y017980D01*
X022062Y018086D01*
X020810Y018086D01*
X020705Y017980D01*
X020705Y017890D01*
X020407Y017890D01*
X020318Y017853D01*
X019929Y017464D01*
X019537Y017464D01*
X019454Y017381D01*
X019371Y017464D01*
X018770Y017464D01*
X018664Y017358D01*
X018664Y017047D01*
X018658Y017047D01*
X018570Y017011D01*
X018476Y016917D01*
X018476Y017832D01*
X018544Y017900D01*
X018706Y017900D01*
X018770Y017836D01*
X019371Y017836D01*
X019473Y017937D01*
X019484Y017918D01*
X019514Y017888D01*
X019550Y017867D01*
X019591Y017856D01*
X019836Y017856D01*
X019836Y018138D01*
X019840Y018138D01*
X019840Y017856D01*
X020086Y017856D01*
X020126Y017867D01*
X020163Y017888D01*
X020193Y017918D01*
X020214Y017954D01*
X020225Y017995D01*
X020225Y018138D01*
X019840Y018138D01*
X019840Y018142D01*
X020225Y018142D01*
X020225Y018253D01*
X020772Y018253D01*
X020810Y018214D01*
X022062Y018214D01*
X022157Y018310D01*
X023522Y018310D01*
X023647Y018362D01*
X023743Y018457D01*
X023794Y018582D01*
X023794Y021218D01*
X023743Y021343D01*
X023647Y021438D01*
X023147Y021938D01*
X023022Y021990D01*
X020552Y021990D01*
X020552Y023253D01*
X020583Y023253D01*
X020646Y023317D01*
X020710Y023253D01*
X021253Y023253D01*
X021332Y023333D01*
X021387Y023310D01*
X021522Y023310D01*
X021647Y023362D01*
X021743Y023457D01*
X021794Y023582D01*
X021794Y023718D01*
X021743Y023843D01*
X021694Y023891D01*
X021694Y024010D01*
X021658Y024098D01*
X021590Y024166D01*
X021681Y024044D02*
X022412Y024044D01*
X022416Y024034D02*
X022429Y023974D01*
X022441Y023966D01*
X022458Y023920D01*
X022454Y023906D01*
X022484Y023852D01*
X022505Y023794D01*
X022518Y023788D01*
X022542Y023745D01*
X022540Y023731D01*
X022577Y023682D01*
X022606Y023627D01*
X022620Y023623D01*
X022649Y023584D01*
X022649Y023570D01*
X022693Y023526D01*
X022730Y023477D01*
X022745Y023475D01*
X022779Y023440D01*
X022781Y023426D01*
X022830Y023389D01*
X022874Y023345D01*
X022889Y023345D01*
X022928Y023316D01*
X022932Y023302D01*
X022986Y023272D01*
X023035Y023235D01*
X023050Y023237D01*
X023093Y023214D01*
X020552Y023214D01*
X020552Y023096D02*
X023381Y023096D01*
X023396Y023090D02*
X023410Y023096D01*
X023457Y023085D01*
X023467Y023074D01*
X023528Y023070D01*
X023589Y023057D01*
X023601Y023065D01*
X023642Y023062D01*
X023647Y023057D01*
X023716Y023057D01*
X023784Y023052D01*
X023789Y023057D01*
X025117Y023057D01*
X025117Y009243D01*
X025117Y009468D02*
X022921Y009468D01*
X023153Y009587D02*
X025117Y009587D01*
X025117Y009705D02*
X023236Y009705D01*
X023277Y009824D02*
X025117Y009824D01*
X025117Y009942D02*
X023395Y009942D01*
X023514Y010061D02*
X025117Y010061D01*
X025117Y010179D02*
X023632Y010179D01*
X023706Y010298D02*
X025117Y010298D01*
X025117Y010416D02*
X023714Y010416D01*
X023714Y010535D02*
X025117Y010535D01*
X025117Y010653D02*
X023714Y010653D01*
X023714Y010772D02*
X025117Y010772D01*
X025117Y010890D02*
X023714Y010890D01*
X023714Y011009D02*
X025117Y011009D01*
X025117Y011127D02*
X023714Y011127D01*
X023714Y011246D02*
X025117Y011246D01*
X025117Y011364D02*
X023714Y011364D01*
X023714Y011483D02*
X025117Y011483D01*
X025117Y011601D02*
X023714Y011601D01*
X023714Y011720D02*
X025117Y011720D01*
X025117Y011838D02*
X023714Y011838D01*
X023714Y011957D02*
X025117Y011957D01*
X025117Y012075D02*
X023714Y012075D01*
X023714Y012194D02*
X025117Y012194D01*
X025117Y012312D02*
X023714Y012312D01*
X023714Y012431D02*
X025117Y012431D01*
X025117Y012549D02*
X023714Y012549D01*
X023714Y012668D02*
X025117Y012668D01*
X025117Y012786D02*
X023714Y012786D01*
X023714Y012905D02*
X025117Y012905D01*
X025117Y013023D02*
X023714Y013023D01*
X023714Y013142D02*
X025117Y013142D01*
X025117Y013260D02*
X023714Y013260D01*
X023714Y013379D02*
X025117Y013379D01*
X025117Y013497D02*
X023714Y013497D01*
X023714Y013616D02*
X025117Y013616D01*
X025117Y013734D02*
X023714Y013734D01*
X023714Y013853D02*
X025117Y013853D01*
X025117Y013971D02*
X023714Y013971D01*
X023714Y014090D02*
X025117Y014090D01*
X025117Y014208D02*
X023714Y014208D01*
X023714Y014327D02*
X025117Y014327D01*
X025117Y014445D02*
X023714Y014445D01*
X023714Y014564D02*
X025117Y014564D01*
X025117Y014682D02*
X023714Y014682D01*
X023714Y014801D02*
X025117Y014801D01*
X025117Y014919D02*
X023714Y014919D01*
X023714Y015038D02*
X025117Y015038D01*
X025117Y015156D02*
X023714Y015156D01*
X023714Y015275D02*
X025117Y015275D01*
X025117Y015393D02*
X023714Y015393D01*
X023714Y015512D02*
X025117Y015512D01*
X025117Y015630D02*
X023714Y015630D01*
X023714Y015749D02*
X025117Y015749D01*
X025117Y015867D02*
X023714Y015867D01*
X023714Y015986D02*
X025117Y015986D01*
X025117Y016104D02*
X023714Y016104D01*
X023714Y016223D02*
X025117Y016223D01*
X025117Y016341D02*
X023714Y016341D01*
X023714Y016460D02*
X025117Y016460D01*
X025117Y016578D02*
X023714Y016578D01*
X023714Y016697D02*
X025117Y016697D01*
X025117Y016815D02*
X023714Y016815D01*
X023714Y016934D02*
X025117Y016934D01*
X025117Y017052D02*
X023714Y017052D01*
X023714Y017171D02*
X025117Y017171D01*
X025117Y017289D02*
X023714Y017289D01*
X023714Y017408D02*
X025117Y017408D01*
X025117Y017526D02*
X023714Y017526D01*
X023714Y017645D02*
X025117Y017645D01*
X025117Y017763D02*
X023689Y017763D01*
X023575Y017882D02*
X025117Y017882D01*
X025117Y018000D02*
X022147Y018000D01*
X022084Y018237D02*
X025117Y018237D01*
X025117Y018119D02*
X020225Y018119D01*
X020225Y018237D02*
X020787Y018237D01*
X020724Y018000D02*
X020225Y018000D01*
X020151Y017882D02*
X020386Y017882D01*
X020228Y017763D02*
X018476Y017763D01*
X018476Y017645D02*
X020109Y017645D01*
X019991Y017526D02*
X018476Y017526D01*
X018476Y017408D02*
X018713Y017408D01*
X018664Y017289D02*
X018476Y017289D01*
X018476Y017171D02*
X018664Y017171D01*
X018664Y017052D02*
X018476Y017052D01*
X018476Y016934D02*
X018492Y016934D01*
X018706Y016807D02*
X018579Y016681D01*
X018579Y016431D01*
X018000Y015852D01*
X016894Y015852D01*
X016894Y015596D02*
X018151Y015596D01*
X018694Y016140D01*
X019070Y016140D01*
X019070Y016493D01*
X019070Y016807D02*
X018706Y016807D01*
X019070Y016807D02*
X019070Y017160D01*
X019428Y017408D02*
X019481Y017408D01*
X019838Y017160D02*
X019964Y017160D01*
X020454Y017650D01*
X021436Y017650D01*
X022136Y017289D02*
X023194Y017289D01*
X023194Y017171D02*
X020314Y017171D01*
X020245Y017052D02*
X020776Y017052D01*
X020705Y016934D02*
X020220Y016934D01*
X020225Y016815D02*
X020705Y016815D01*
X021278Y016493D02*
X021436Y016650D01*
X021278Y016493D02*
X019838Y016493D01*
X019836Y016104D02*
X019840Y016104D01*
X019836Y015986D02*
X019840Y015986D01*
X019836Y015867D02*
X019840Y015867D01*
X020126Y015867D02*
X020163Y015888D01*
X020193Y015918D01*
X020214Y015954D01*
X020222Y015986D02*
X020710Y015986D01*
X020802Y016223D02*
X020225Y016223D01*
X020225Y016104D02*
X023194Y016104D01*
X023194Y015986D02*
X022162Y015986D01*
X022167Y015867D02*
X023194Y015867D01*
X023194Y015749D02*
X022167Y015749D01*
X022167Y015630D02*
X023194Y015630D01*
X023194Y015512D02*
X022167Y015512D01*
X022167Y015393D02*
X023194Y015393D01*
X023194Y015275D02*
X022122Y015275D01*
X022110Y015038D02*
X023194Y015038D01*
X023194Y015156D02*
X020300Y015156D01*
X020418Y015275D02*
X020750Y015275D01*
X020705Y015393D02*
X020537Y015393D01*
X020454Y015650D02*
X019889Y015085D01*
X016894Y015085D01*
X016894Y015340D02*
X016082Y015340D01*
X015723Y014981D01*
X015723Y011944D01*
X016517Y011150D01*
X017611Y011150D01*
X017954Y010806D01*
X017954Y009713D01*
X018773Y008894D01*
X019303Y008894D01*
X020198Y008894D01*
X020710Y009406D01*
X021606Y009406D01*
X021606Y009662D01*
X021249Y009646D02*
X021149Y009646D01*
X021201Y009770D01*
X021201Y009905D01*
X021149Y010030D01*
X021053Y010126D01*
X020928Y010177D01*
X020793Y010177D01*
X020668Y010126D01*
X020620Y010077D01*
X019960Y010077D01*
X019916Y010121D01*
X019828Y010158D01*
X019563Y010158D01*
X019554Y010167D01*
X019051Y010167D01*
X018946Y010061D01*
X018946Y010061D01*
X018444Y010562D01*
X018444Y010894D01*
X018450Y010900D01*
X018706Y010900D01*
X018743Y010863D01*
X018743Y010688D01*
X019081Y010688D01*
X019081Y010612D01*
X018743Y010612D01*
X018743Y010432D01*
X018754Y010391D01*
X018775Y010355D01*
X018805Y010325D01*
X018841Y010304D01*
X018882Y010293D01*
X019081Y010293D01*
X019081Y010612D01*
X019158Y010612D01*
X019158Y010293D01*
X019357Y010293D01*
X019398Y010304D01*
X019434Y010325D01*
X019440Y010331D01*
X019498Y010273D01*
X020080Y010273D01*
X020186Y010379D01*
X020186Y010410D01*
X020338Y010410D01*
X020387Y010362D01*
X020512Y010310D01*
X020647Y010310D01*
X020749Y010352D01*
X020848Y010253D01*
X021177Y010253D01*
X021309Y010121D01*
X021249Y010061D01*
X021249Y009646D01*
X021249Y009705D02*
X021174Y009705D01*
X021201Y009824D02*
X021249Y009824D01*
X021249Y009942D02*
X021185Y009942D01*
X021249Y010061D02*
X021118Y010061D01*
X021251Y010179D02*
X018827Y010179D01*
X018866Y010298D02*
X018709Y010298D01*
X018747Y010416D02*
X018590Y010416D01*
X018472Y010535D02*
X018743Y010535D01*
X018743Y010772D02*
X018444Y010772D01*
X018444Y010890D02*
X018716Y010890D01*
X018444Y010653D02*
X019081Y010653D01*
X019081Y010535D02*
X019158Y010535D01*
X019158Y010416D02*
X019081Y010416D01*
X019081Y010298D02*
X019158Y010298D01*
X019374Y010298D02*
X019474Y010298D01*
X020104Y010298D02*
X020804Y010298D01*
X020861Y009838D02*
X019861Y009838D01*
X019861Y009275D01*
X019736Y009150D01*
X019303Y009150D01*
X019303Y009406D02*
X018730Y009406D01*
X018704Y009431D01*
X019005Y009662D02*
X019303Y009662D01*
X019303Y009918D02*
X019780Y009918D01*
X019861Y009838D01*
X019005Y009662D02*
X018204Y010463D01*
X018204Y010994D01*
X018351Y011140D01*
X019070Y011140D01*
X019070Y011493D02*
X018484Y011493D01*
X018454Y011463D01*
X018331Y011807D02*
X017986Y011463D01*
X017517Y011463D02*
X017517Y011838D01*
X017839Y012160D01*
X019070Y012160D01*
X019070Y011807D02*
X018331Y011807D01*
X018706Y012400D02*
X017791Y012400D01*
X017703Y012363D01*
X017381Y012041D01*
X017313Y011973D01*
X017277Y011885D01*
X017277Y011703D01*
X017229Y011655D01*
X017177Y011530D01*
X017177Y011395D01*
X017179Y011390D01*
X016616Y011390D01*
X015963Y012043D01*
X015963Y012802D01*
X016095Y012670D01*
X016162Y012603D01*
X016250Y012566D01*
X020105Y012566D01*
X020129Y012542D01*
X020105Y012532D01*
X020037Y012464D01*
X019537Y012464D01*
X019454Y012381D01*
X019371Y012464D01*
X018770Y012464D01*
X018706Y012400D01*
X018736Y012431D02*
X015963Y012431D01*
X015963Y012549D02*
X020122Y012549D01*
X020204Y012806D02*
X020986Y012025D01*
X020986Y011681D01*
X020954Y011650D01*
X021436Y011650D01*
X022167Y011601D02*
X023194Y011601D01*
X023194Y011483D02*
X022167Y011483D01*
X022167Y011364D02*
X023194Y011364D01*
X023194Y011246D02*
X022093Y011246D01*
X022167Y011720D02*
X023194Y011720D01*
X023194Y011838D02*
X022167Y011838D01*
X022167Y011957D02*
X023194Y011957D01*
X023194Y012075D02*
X022072Y012075D01*
X022159Y012312D02*
X022382Y012312D01*
X022527Y012312D02*
X023194Y012312D01*
X023194Y012194D02*
X021156Y012194D01*
X021436Y012650D02*
X021280Y012806D01*
X020986Y012806D01*
X020736Y013056D01*
X016392Y013056D01*
X016173Y013275D01*
X016173Y013806D01*
X016428Y014061D01*
X016894Y014061D01*
X016894Y014317D02*
X016340Y014317D01*
X015923Y013900D01*
X015923Y013181D01*
X016298Y012806D01*
X020204Y012806D01*
X020298Y012244D02*
X020214Y012160D01*
X019838Y012160D01*
X019838Y011807D02*
X020362Y011807D01*
X020454Y011806D01*
X020393Y011493D02*
X019838Y011493D01*
X020393Y011493D02*
X020454Y011431D01*
X019504Y012431D02*
X019405Y012431D01*
X020798Y013306D02*
X021142Y013650D01*
X021436Y013650D01*
X022454Y013650D01*
X022341Y013971D02*
X022167Y013971D01*
X022568Y013971D02*
X023194Y013971D01*
X023194Y013853D02*
X022733Y013853D01*
X022788Y013734D02*
X023194Y013734D01*
X023194Y013616D02*
X022794Y013616D01*
X022759Y013497D02*
X023194Y013497D01*
X023194Y013379D02*
X022664Y013379D01*
X022245Y013379D02*
X022167Y013379D01*
X022107Y013260D02*
X023194Y013260D01*
X023194Y013142D02*
X020990Y013142D01*
X020798Y013306D02*
X016517Y013306D01*
X016392Y013431D01*
X016392Y013681D01*
X016516Y013805D01*
X016894Y013805D01*
X016894Y013549D02*
X020041Y013549D01*
X021142Y014650D01*
X021436Y014650D01*
X022454Y014650D01*
X022347Y014327D02*
X022167Y014327D01*
X022562Y014327D02*
X023194Y014327D01*
X023194Y014445D02*
X022730Y014445D01*
X022787Y014564D02*
X023194Y014564D01*
X023194Y014682D02*
X022794Y014682D01*
X022760Y014801D02*
X023194Y014801D01*
X023194Y014919D02*
X022666Y014919D01*
X022243Y014919D02*
X022167Y014919D01*
X021436Y015650D02*
X020454Y015650D01*
X020181Y015038D02*
X020762Y015038D01*
X020705Y014919D02*
X020063Y014919D01*
X020020Y014801D02*
X020705Y014801D01*
X020705Y014682D02*
X019605Y014682D01*
X019605Y014590D02*
X020020Y014590D01*
X020020Y014353D01*
X020009Y014313D01*
X019988Y014276D01*
X019958Y014246D01*
X019922Y014225D01*
X019881Y014214D01*
X019605Y014214D01*
X019605Y014590D01*
X019605Y014564D02*
X019485Y014564D01*
X019485Y014590D02*
X019485Y014214D01*
X019209Y014214D01*
X019168Y014225D01*
X019132Y014246D01*
X019102Y014276D01*
X019081Y014313D01*
X019070Y014353D01*
X019070Y014590D01*
X019485Y014590D01*
X019485Y014682D02*
X018859Y014682D01*
X018859Y014564D02*
X019070Y014564D01*
X019070Y014445D02*
X018859Y014445D01*
X018859Y014327D02*
X019077Y014327D01*
X018767Y014208D02*
X020360Y014208D01*
X020242Y014090D02*
X017349Y014090D01*
X017349Y014208D02*
X017961Y014208D01*
X017869Y014327D02*
X017349Y014327D01*
X017349Y014445D02*
X017869Y014445D01*
X017869Y014564D02*
X017329Y014564D01*
X017329Y014573D02*
X016894Y014573D01*
X017329Y014573D01*
X016894Y014573D02*
X016894Y014573D01*
X016444Y014573D01*
X016204Y014813D01*
X016000Y014919D02*
X016439Y014919D01*
X016439Y014801D02*
X015963Y014801D01*
X015963Y014882D02*
X015963Y014279D01*
X016204Y014520D01*
X016292Y014557D01*
X016459Y014557D01*
X016459Y014573D01*
X016894Y014573D01*
X016894Y014573D01*
X016459Y014573D01*
X016459Y014662D01*
X016459Y014665D01*
X016439Y014686D01*
X016439Y015100D01*
X016182Y015100D01*
X015963Y014882D01*
X015963Y014682D02*
X016442Y014682D01*
X016459Y014564D02*
X015963Y014564D01*
X015963Y014445D02*
X016129Y014445D01*
X016010Y014327D02*
X015963Y014327D01*
X016119Y015038D02*
X016439Y015038D01*
X016894Y014829D02*
X018248Y014829D01*
X018364Y014650D01*
X018859Y014801D02*
X019070Y014801D01*
X019485Y014445D02*
X019605Y014445D01*
X019605Y014327D02*
X019485Y014327D01*
X020013Y014327D02*
X020479Y014327D01*
X020597Y014445D02*
X020020Y014445D01*
X020020Y014564D02*
X020705Y014564D01*
X021039Y014208D02*
X023194Y014208D01*
X023194Y014090D02*
X020921Y014090D01*
X020123Y013971D02*
X017349Y013971D01*
X017349Y013853D02*
X020005Y013853D01*
X021436Y012650D02*
X022454Y012650D01*
X022228Y012905D02*
X022167Y012905D01*
X022124Y013023D02*
X023194Y013023D01*
X023194Y012905D02*
X022681Y012905D01*
X022766Y012786D02*
X023194Y012786D01*
X023194Y012668D02*
X022794Y012668D01*
X022781Y012549D02*
X023194Y012549D01*
X023194Y012431D02*
X022716Y012431D01*
X022684Y009231D02*
X023533Y009231D01*
X023134Y009113D02*
X022566Y009113D01*
X022456Y009003D02*
X022456Y009003D01*
X022447Y008994D02*
X022931Y008994D01*
X022783Y008876D02*
X022194Y008876D01*
X022194Y008757D02*
X022676Y008757D01*
X022588Y008639D02*
X022194Y008639D01*
X022194Y008520D02*
X022523Y008520D01*
X022458Y008402D02*
X022194Y008402D01*
X022145Y008283D02*
X022419Y008283D01*
X022394Y008165D02*
X022007Y008165D01*
X022090Y008228D02*
X022090Y008228D01*
X021905Y008382D02*
X021606Y008382D01*
X021606Y008638D02*
X021036Y008638D01*
X020861Y008463D01*
X021030Y008165D02*
X021323Y008165D01*
X021249Y008283D02*
X021154Y008283D01*
X020692Y008165D02*
X020280Y008165D01*
X020404Y008283D02*
X020567Y008283D01*
X020521Y008402D02*
X020451Y008402D01*
X020507Y008520D02*
X020521Y008520D01*
X020542Y008894D02*
X020111Y008463D01*
X019942Y008165D02*
X019542Y008165D01*
X019637Y008283D02*
X019817Y008283D01*
X019771Y008402D02*
X019640Y008402D01*
X019660Y008520D02*
X019771Y008520D01*
X019815Y008639D02*
X019660Y008639D01*
X019303Y008638D02*
X019303Y008894D01*
X018946Y008639D02*
X008321Y008639D01*
X008386Y008520D02*
X018946Y008520D01*
X018966Y008402D02*
X008450Y008402D01*
X008489Y008283D02*
X018968Y008283D01*
X018966Y008382D02*
X019303Y008382D01*
X019303Y008382D01*
X018966Y008382D01*
X019063Y008165D02*
X008515Y008165D01*
X008541Y008046D02*
X022368Y008046D01*
X022361Y007928D02*
X008548Y007928D01*
X008548Y007809D02*
X022361Y007809D01*
X022361Y007691D02*
X008548Y007691D01*
X008548Y007572D02*
X022361Y007572D01*
X022361Y007454D02*
X008548Y007454D01*
X008548Y007335D02*
X022361Y007335D01*
X022361Y007217D02*
X008548Y007217D01*
X008548Y007098D02*
X022361Y007098D01*
X022361Y006980D02*
X008548Y006980D01*
X008548Y006861D02*
X022361Y006861D01*
X022361Y006743D02*
X008548Y006743D01*
X008548Y006624D02*
X022361Y006624D01*
X022361Y006506D02*
X008548Y006506D01*
X008233Y008757D02*
X018570Y008757D01*
X018452Y008876D02*
X014661Y008876D01*
X014758Y008994D02*
X018333Y008994D01*
X018215Y009113D02*
X014794Y009113D01*
X014794Y009231D02*
X016003Y009231D01*
X015884Y009350D02*
X014794Y009350D01*
X014811Y009468D02*
X015154Y009468D01*
X015042Y009587D02*
X014890Y009587D01*
X014890Y009705D02*
X015038Y009705D01*
X015038Y009824D02*
X014890Y009824D01*
X014890Y009942D02*
X015038Y009942D01*
X015038Y010061D02*
X014890Y010061D01*
X014890Y010179D02*
X015394Y010179D01*
X015394Y010233D02*
X015038Y010233D01*
X015038Y010745D01*
X015049Y010786D01*
X015070Y010822D01*
X015100Y010852D01*
X015137Y010873D01*
X015177Y010884D01*
X015394Y010884D01*
X015394Y010233D01*
X015394Y010298D02*
X015514Y010298D01*
X015514Y010416D02*
X015394Y010416D01*
X015394Y010535D02*
X015514Y010535D01*
X015514Y010653D02*
X015394Y010653D01*
X015394Y010772D02*
X015514Y010772D01*
X015731Y010890D02*
X014799Y010890D01*
X014794Y011009D02*
X015613Y011009D01*
X015494Y011127D02*
X014794Y011127D01*
X014794Y011246D02*
X015376Y011246D01*
X015257Y011364D02*
X014794Y011364D01*
X014892Y011483D02*
X015139Y011483D01*
X015020Y011601D02*
X015011Y011601D01*
X015204Y011756D02*
X015986Y010975D01*
X015986Y009588D01*
X016204Y009369D01*
X017329Y009369D01*
X017454Y009494D01*
X017454Y010173D01*
X017811Y009468D02*
X017859Y009468D01*
X017978Y009350D02*
X017649Y009350D01*
X017531Y009231D02*
X018096Y009231D01*
X019303Y008283D02*
X019303Y008283D01*
X019303Y008165D02*
X019303Y008165D01*
X020542Y008894D02*
X021606Y008894D01*
X021606Y009150D02*
X021948Y009150D01*
X021954Y009144D01*
X021961Y009150D01*
X021954Y009144D02*
X021954Y008431D01*
X021905Y008382D01*
X017177Y011483D02*
X016524Y011483D01*
X016405Y011601D02*
X017206Y011601D01*
X017277Y011720D02*
X016287Y011720D01*
X016168Y011838D02*
X017277Y011838D01*
X017306Y011957D02*
X016050Y011957D01*
X015963Y012075D02*
X017415Y012075D01*
X017533Y012194D02*
X015963Y012194D01*
X015963Y012312D02*
X017652Y012312D01*
X016097Y012668D02*
X015963Y012668D01*
X015963Y012786D02*
X015979Y012786D01*
X015454Y011869D02*
X016454Y010869D01*
X016454Y010173D01*
X015514Y010061D02*
X015394Y010061D01*
X015394Y009942D02*
X015514Y009942D01*
X015514Y009824D02*
X015394Y009824D01*
X015394Y009705D02*
X015514Y009705D01*
X015514Y009587D02*
X015394Y009587D01*
X015394Y009468D02*
X015514Y009468D01*
X015755Y009468D02*
X015775Y009468D01*
X015038Y010298D02*
X014890Y010298D01*
X014890Y010416D02*
X015038Y010416D01*
X015038Y010535D02*
X014890Y010535D01*
X014890Y010653D02*
X015038Y010653D01*
X015046Y010772D02*
X014890Y010772D01*
X014110Y010890D02*
X013799Y010890D01*
X013890Y010772D02*
X014018Y010772D01*
X014018Y010653D02*
X013890Y010653D01*
X013890Y010535D02*
X014018Y010535D01*
X014018Y010416D02*
X013890Y010416D01*
X013890Y010298D02*
X014018Y010298D01*
X014018Y010179D02*
X013890Y010179D01*
X013890Y010061D02*
X014018Y010061D01*
X014018Y009942D02*
X013890Y009942D01*
X013890Y009824D02*
X014018Y009824D01*
X014018Y009705D02*
X013890Y009705D01*
X013890Y009587D02*
X014018Y009587D01*
X014098Y009468D02*
X013811Y009468D01*
X014114Y009350D02*
X005792Y009350D01*
X005792Y009468D02*
X013098Y009468D01*
X013018Y009587D02*
X005792Y009587D01*
X005792Y009705D02*
X013018Y009705D01*
X013018Y009824D02*
X005792Y009824D01*
X005792Y009942D02*
X013018Y009942D01*
X013018Y010061D02*
X005792Y010061D01*
X005792Y010179D02*
X013018Y010179D01*
X013018Y010298D02*
X012604Y010298D01*
X012289Y010650D02*
X013454Y010650D01*
X013454Y010173D01*
X013454Y011650D01*
X013954Y012150D01*
X014090Y011838D02*
X014286Y011838D01*
X014242Y011957D02*
X014390Y011957D01*
X014390Y012075D02*
X014291Y012075D01*
X014294Y012194D02*
X014390Y012194D01*
X014390Y012312D02*
X014255Y012312D01*
X014366Y012431D02*
X014390Y012431D01*
X013712Y012431D02*
X013657Y012431D01*
X013653Y012312D02*
X005792Y012312D01*
X005792Y012194D02*
X013614Y012194D01*
X013540Y012075D02*
X005792Y012075D01*
X005792Y011957D02*
X013421Y011957D01*
X013303Y011838D02*
X005792Y011838D01*
X005792Y011720D02*
X013223Y011720D01*
X013214Y011601D02*
X005792Y011601D01*
X005792Y011483D02*
X013214Y011483D01*
X013214Y011364D02*
X005792Y011364D01*
X005792Y011246D02*
X013214Y011246D01*
X013214Y011127D02*
X005792Y011127D01*
X005792Y011009D02*
X011310Y011009D01*
X011243Y010890D02*
X011195Y010890D01*
X010954Y010650D02*
X011620Y010650D01*
X011935Y010298D02*
X011974Y010298D01*
X011304Y010298D02*
X005792Y010298D01*
X005792Y010416D02*
X010707Y010416D01*
X010634Y010535D02*
X005792Y010535D01*
X005792Y010653D02*
X010614Y010653D01*
X010637Y010772D02*
X005792Y010772D01*
X005792Y010890D02*
X010714Y010890D01*
X011929Y011009D02*
X011980Y011009D01*
X012598Y011009D02*
X013214Y011009D01*
X013110Y010890D02*
X012666Y010890D01*
X013694Y011009D02*
X014114Y011009D01*
X014114Y011127D02*
X013694Y011127D01*
X013694Y011246D02*
X014114Y011246D01*
X014114Y011364D02*
X013694Y011364D01*
X013694Y011483D02*
X014114Y011483D01*
X014118Y011601D02*
X013745Y011601D01*
X013863Y011720D02*
X014168Y011720D01*
X015204Y011756D02*
X015204Y015513D01*
X014865Y015852D01*
X014015Y015852D01*
X014015Y015596D02*
X013580Y015596D01*
X013580Y015507D01*
X013590Y015468D01*
X013580Y015430D01*
X013580Y015340D01*
X013580Y015251D01*
X013590Y015213D01*
X013580Y015174D01*
X013580Y015085D01*
X014015Y015085D01*
X014015Y015085D01*
X014015Y015340D01*
X014015Y015340D01*
X014015Y015313D01*
X014015Y015085D01*
X014450Y015085D01*
X014450Y015174D01*
X014440Y015213D01*
X014450Y015251D01*
X014450Y015340D01*
X014015Y015340D01*
X014015Y015340D01*
X013580Y015340D01*
X014015Y015340D01*
X014015Y015340D01*
X014450Y015340D01*
X014450Y015430D01*
X014440Y015468D01*
X014450Y015507D01*
X014450Y015596D01*
X014015Y015596D01*
X014015Y015340D01*
X014015Y015569D01*
X014015Y015596D01*
X014015Y015596D01*
X014015Y015596D01*
X013580Y015596D01*
X013580Y015686D01*
X013581Y015689D01*
X013560Y015709D01*
X013560Y017019D01*
X013665Y017124D01*
X013711Y017124D01*
X013677Y017207D01*
X013677Y017343D01*
X013729Y017468D01*
X013824Y017563D01*
X013949Y017615D01*
X014084Y017615D01*
X014209Y017563D01*
X014305Y017468D01*
X014357Y017343D01*
X014357Y017207D01*
X014322Y017124D01*
X014365Y017124D01*
X014433Y017056D01*
X015676Y018298D01*
X015676Y019910D01*
X012407Y019910D01*
X012318Y019947D01*
X012251Y020014D01*
X012057Y020208D01*
X011989Y020276D01*
X011952Y020364D01*
X011952Y020446D01*
X011882Y020446D01*
X011776Y020552D01*
X011776Y020917D01*
X011805Y020946D01*
X011796Y020979D01*
X011796Y021108D01*
X012193Y021108D01*
X012193Y021108D01*
X012589Y021108D01*
X012589Y020979D01*
X012580Y020946D01*
X012609Y020917D01*
X012609Y020552D01*
X012503Y020446D01*
X012498Y020446D01*
X012554Y020390D01*
X015676Y020390D01*
X015676Y020446D01*
X015605Y020446D01*
X015500Y020552D01*
X015500Y020917D01*
X015528Y020946D01*
X015520Y020979D01*
X015520Y021108D01*
X015916Y021108D01*
X015916Y021108D01*
X015520Y021108D01*
X015520Y021238D01*
X015528Y021271D01*
X015500Y021300D01*
X015500Y021324D01*
X015476Y021348D01*
X015439Y021436D01*
X015439Y021947D01*
X015142Y022243D01*
X012716Y022243D01*
X012544Y022072D01*
X012544Y021730D01*
X012609Y021665D01*
X012609Y021300D01*
X012580Y021271D01*
X012589Y021238D01*
X012589Y021108D01*
X012193Y021108D01*
X012193Y021108D01*
X011796Y021108D01*
X011796Y021238D01*
X011798Y021243D01*
X011506Y021243D01*
X011467Y021204D01*
X010766Y021204D01*
X010727Y021243D01*
X010147Y021243D01*
X010147Y021184D01*
X010072Y021108D01*
X010147Y021033D01*
X010147Y020984D01*
X010158Y020973D01*
X010194Y020885D01*
X010194Y016727D01*
X010185Y016705D01*
X011920Y016705D01*
X012031Y016816D01*
X011442Y016816D01*
X011420Y016838D01*
X011413Y016836D01*
X011329Y016836D01*
X011329Y017244D01*
X011329Y017244D01*
X011329Y016836D01*
X011245Y016836D01*
X011238Y016838D01*
X011217Y016816D01*
X010442Y016816D01*
X010336Y016922D01*
X010336Y017567D01*
X010442Y017672D01*
X010593Y017672D01*
X010506Y017759D01*
X010438Y017827D01*
X010402Y017915D01*
X010402Y018785D01*
X010438Y018873D01*
X010558Y018993D01*
X010558Y019061D01*
X010610Y019186D01*
X010705Y019282D01*
X010830Y019334D01*
X010966Y019334D01*
X011091Y019282D01*
X011186Y019186D01*
X011238Y019061D01*
X011238Y019041D01*
X011268Y019049D01*
X011447Y019049D01*
X011447Y018711D01*
X011524Y018711D01*
X011447Y018711D01*
X011447Y018634D01*
X011129Y018634D01*
X011129Y018446D01*
X011022Y018490D01*
X010887Y018490D01*
X010882Y018488D01*
X010882Y018638D01*
X010897Y018654D01*
X010966Y018654D01*
X011091Y018706D01*
X011129Y018744D01*
X011129Y018711D01*
X011096Y018711D01*
X011129Y018711D02*
X011447Y018711D01*
X011524Y018711D02*
X011524Y019049D01*
X011703Y019049D01*
X011744Y019038D01*
X011781Y019017D01*
X011782Y019015D01*
X011784Y019017D01*
X011821Y019038D01*
X011861Y019049D01*
X012041Y019049D01*
X012041Y018711D01*
X012118Y018711D01*
X012041Y018711D01*
X012041Y018634D01*
X011722Y018634D01*
X011524Y018634D01*
X011524Y018711D01*
X012041Y018711D01*
X012118Y018711D02*
X012118Y019049D01*
X012297Y019049D01*
X012338Y019038D01*
X012374Y019017D01*
X012404Y018987D01*
X012425Y018950D01*
X012436Y018910D01*
X012436Y018711D01*
X015676Y018711D01*
X015676Y018593D02*
X012436Y018593D01*
X012436Y018634D02*
X012118Y018634D01*
X012118Y018711D01*
X012436Y018711D01*
X012436Y018634D02*
X012436Y018435D01*
X012425Y018394D01*
X012404Y018357D01*
X012398Y018352D01*
X012456Y018294D01*
X012456Y017712D01*
X012417Y017672D01*
X012467Y017672D01*
X012572Y017567D01*
X012572Y016922D01*
X012569Y016919D01*
X012569Y016727D01*
X012533Y016639D01*
X012465Y016571D01*
X012169Y016275D01*
X012533Y015911D01*
X012569Y015823D01*
X012569Y015381D01*
X012572Y015378D01*
X012572Y014813D01*
X013560Y014813D01*
X013560Y014972D01*
X013581Y014992D01*
X013580Y014995D01*
X013580Y015085D01*
X014015Y015085D01*
X014015Y015085D01*
X014015Y015085D01*
X014450Y015085D01*
X014450Y014995D01*
X014449Y014992D01*
X014470Y014972D01*
X014470Y014204D01*
X014470Y014045D01*
X014569Y014045D01*
X014624Y014067D01*
X014785Y014067D01*
X014934Y014006D01*
X014964Y013975D01*
X014964Y015413D01*
X014765Y015612D01*
X014450Y015612D01*
X014450Y015596D01*
X014015Y015596D01*
X014015Y015596D01*
X013578Y015596D01*
X013574Y015593D01*
X014574Y015593D01*
X014450Y015512D02*
X014866Y015512D01*
X014964Y015393D02*
X014450Y015393D01*
X014450Y015275D02*
X014964Y015275D01*
X014964Y015156D02*
X014450Y015156D01*
X014450Y015038D02*
X014964Y015038D01*
X014964Y014919D02*
X014470Y014919D01*
X014470Y014801D02*
X014964Y014801D01*
X014964Y014682D02*
X014470Y014682D01*
X014470Y014564D02*
X014964Y014564D01*
X014964Y014445D02*
X014470Y014445D01*
X014470Y014327D02*
X014964Y014327D01*
X014964Y014208D02*
X014470Y014208D01*
X014470Y014090D02*
X014964Y014090D01*
X014562Y013805D02*
X014015Y013805D01*
X013422Y013805D01*
X013329Y013713D01*
X013861Y013338D02*
X011392Y013338D01*
X010579Y014150D01*
X010579Y014494D01*
X010579Y014494D01*
X010579Y015056D01*
X010336Y015038D02*
X007938Y015038D01*
X007982Y015082D02*
X008036Y015213D01*
X008036Y015355D01*
X007982Y015486D01*
X007881Y015587D01*
X007750Y015641D01*
X007608Y015641D01*
X007476Y015587D01*
X007376Y015486D01*
X007322Y015355D01*
X007322Y015213D01*
X007376Y015082D01*
X007476Y014981D01*
X007608Y014927D01*
X007750Y014927D01*
X007881Y014981D01*
X007982Y015082D01*
X008012Y015156D02*
X010336Y015156D01*
X010336Y015275D02*
X009614Y015275D01*
X009707Y015393D02*
X010351Y015393D01*
X010336Y014919D02*
X009282Y014919D01*
X009335Y014866D02*
X009230Y014972D01*
X008096Y014972D01*
X007991Y014866D01*
X007991Y013930D01*
X008096Y013824D01*
X009230Y013824D01*
X009335Y013930D01*
X009335Y014866D01*
X009335Y014801D02*
X010336Y014801D01*
X010339Y014682D02*
X010153Y014682D01*
X010147Y014688D02*
X010022Y014740D01*
X009887Y014740D01*
X009762Y014688D01*
X009666Y014593D01*
X009614Y014468D01*
X009614Y014332D01*
X009666Y014207D01*
X009714Y014159D01*
X009714Y014131D01*
X009683Y014131D01*
X009577Y014026D01*
X009577Y013444D01*
X009635Y013386D01*
X009629Y013380D01*
X009608Y013344D01*
X009597Y013303D01*
X009597Y013104D01*
X009916Y013104D01*
X009916Y013027D01*
X009993Y013027D01*
X009993Y013104D01*
X010311Y013104D01*
X010311Y013303D01*
X010300Y013344D01*
X010279Y013380D01*
X010273Y013386D01*
X010331Y013444D01*
X010331Y014026D01*
X010226Y014131D01*
X010194Y014131D01*
X010194Y014159D01*
X010243Y014207D01*
X010294Y014332D01*
X010294Y014468D01*
X010243Y014593D01*
X010147Y014688D01*
X010255Y014564D02*
X010339Y014564D01*
X010339Y014445D02*
X010294Y014445D01*
X010292Y014327D02*
X010339Y014327D01*
X010339Y014208D02*
X010243Y014208D01*
X010267Y014090D02*
X010345Y014090D01*
X010331Y013971D02*
X010419Y013971D01*
X010331Y013853D02*
X010537Y013853D01*
X010656Y013734D02*
X010331Y013734D01*
X010331Y013616D02*
X010774Y013616D01*
X010893Y013497D02*
X010331Y013497D01*
X010280Y013379D02*
X011011Y013379D01*
X011130Y013260D02*
X010311Y013260D01*
X010311Y013142D02*
X011248Y013142D01*
X010311Y013027D02*
X010311Y012828D01*
X010300Y012787D01*
X010279Y012751D01*
X010249Y012721D01*
X010213Y012700D01*
X010172Y012689D01*
X009993Y012689D01*
X009993Y013027D01*
X010311Y013027D01*
X010311Y013023D02*
X013002Y013023D01*
X012993Y012905D02*
X010311Y012905D01*
X010300Y012786D02*
X013331Y012786D01*
X013331Y012668D02*
X013408Y012668D01*
X013408Y012549D02*
X013331Y012549D01*
X013331Y012431D02*
X013408Y012431D01*
X013082Y012431D02*
X005792Y012431D01*
X005792Y012549D02*
X012994Y012549D01*
X012993Y012668D02*
X005792Y012668D01*
X005792Y012786D02*
X009609Y012786D01*
X009608Y012787D02*
X009629Y012751D01*
X009659Y012721D01*
X009696Y012700D01*
X009736Y012689D01*
X009916Y012689D01*
X009916Y013027D01*
X009597Y013027D01*
X009597Y012828D01*
X009608Y012787D01*
X009597Y012905D02*
X005792Y012905D01*
X005792Y013023D02*
X009597Y013023D01*
X009597Y013142D02*
X005792Y013142D01*
X005792Y013260D02*
X009597Y013260D01*
X009629Y013379D02*
X005792Y013379D01*
X005792Y013497D02*
X009577Y013497D01*
X009577Y013616D02*
X005792Y013616D01*
X005792Y013734D02*
X009577Y013734D01*
X009577Y013853D02*
X009258Y013853D01*
X009335Y013971D02*
X009577Y013971D01*
X009641Y014090D02*
X009335Y014090D01*
X009335Y014208D02*
X009666Y014208D01*
X009617Y014327D02*
X009335Y014327D01*
X009335Y014445D02*
X009614Y014445D01*
X009654Y014564D02*
X009335Y014564D01*
X009335Y014682D02*
X009756Y014682D01*
X009954Y014400D02*
X009954Y013735D01*
X010829Y014275D02*
X011043Y014061D01*
X014015Y014061D01*
X014015Y014317D02*
X011788Y014317D01*
X011329Y014775D01*
X011329Y015056D01*
X011079Y015056D02*
X011079Y014525D01*
X011204Y014400D01*
X010829Y014275D02*
X010829Y015056D01*
X011579Y015056D02*
X011579Y015464D01*
X011579Y015056D01*
X011579Y015056D01*
X011579Y015156D02*
X011579Y015156D01*
X011579Y015275D02*
X011579Y015275D01*
X011579Y015393D02*
X011579Y015393D01*
X011829Y015056D02*
X011829Y015056D01*
X011829Y014713D01*
X011969Y014573D01*
X014015Y014573D01*
X013560Y014919D02*
X012572Y014919D01*
X012572Y015038D02*
X013580Y015038D01*
X013564Y015073D02*
X014664Y015073D01*
X014015Y015156D02*
X014015Y015156D01*
X014015Y015275D02*
X014015Y015275D01*
X014015Y015340D02*
X014015Y015340D01*
X014015Y015393D02*
X014015Y015393D01*
X014015Y015512D02*
X014015Y015512D01*
X013580Y015512D02*
X012569Y015512D01*
X012569Y015630D02*
X013580Y015630D01*
X013560Y015749D02*
X012569Y015749D01*
X012551Y015867D02*
X013560Y015867D01*
X013560Y015986D02*
X012458Y015986D01*
X012340Y016104D02*
X013560Y016104D01*
X013560Y016223D02*
X012221Y016223D01*
X012235Y016341D02*
X013560Y016341D01*
X013560Y016460D02*
X012353Y016460D01*
X012472Y016578D02*
X013560Y016578D01*
X013560Y016697D02*
X012556Y016697D01*
X012569Y016815D02*
X013560Y016815D01*
X013560Y016934D02*
X012572Y016934D01*
X012572Y017052D02*
X013593Y017052D01*
X013692Y017171D02*
X012572Y017171D01*
X012572Y017289D02*
X013677Y017289D01*
X013704Y017408D02*
X012572Y017408D01*
X012572Y017526D02*
X013787Y017526D01*
X014017Y017275D02*
X014017Y016878D01*
X014015Y016876D01*
X014015Y016620D02*
X014337Y016620D01*
X015916Y018199D01*
X015916Y020150D01*
X012454Y020150D01*
X012192Y020412D01*
X012193Y020412D01*
X012193Y020734D01*
X012609Y020726D02*
X012800Y020726D01*
X012800Y020844D02*
X012609Y020844D01*
X012584Y020963D02*
X012845Y020963D01*
X012800Y020917D02*
X012800Y020552D01*
X012905Y020446D01*
X013527Y020446D01*
X013632Y020552D01*
X013632Y020917D01*
X013527Y021023D01*
X012905Y021023D01*
X012800Y020917D01*
X012589Y021081D02*
X013842Y021081D01*
X013848Y021078D02*
X014010Y021078D01*
X014158Y021140D01*
X014162Y021143D01*
X014248Y021143D01*
X014297Y021094D01*
X014292Y021089D01*
X014271Y021052D01*
X014260Y021011D01*
X014260Y020812D01*
X014578Y020812D01*
X014578Y020735D01*
X014655Y020735D01*
X014655Y020397D01*
X014834Y020397D01*
X014875Y020408D01*
X014912Y020429D01*
X014941Y020459D01*
X014962Y020496D01*
X014973Y020536D01*
X014973Y020735D01*
X014655Y020735D01*
X014655Y020812D01*
X014973Y020812D01*
X014973Y021011D01*
X014962Y021052D01*
X014941Y021089D01*
X014936Y021094D01*
X014993Y021152D01*
X014993Y021734D01*
X014888Y021840D01*
X014345Y021840D01*
X014329Y021823D01*
X014162Y021823D01*
X014158Y021827D01*
X014010Y021888D01*
X013848Y021888D01*
X013700Y021827D01*
X013696Y021823D01*
X013581Y021822D01*
X013149Y021822D01*
X013024Y021771D01*
X012905Y021771D01*
X012800Y021665D01*
X012800Y021300D01*
X012905Y021194D01*
X013024Y021194D01*
X013149Y021142D01*
X013515Y021142D01*
X013582Y021142D01*
X013649Y021142D01*
X013650Y021143D01*
X013697Y021143D01*
X013700Y021140D01*
X013848Y021078D01*
X014016Y021081D02*
X014287Y021081D01*
X014260Y020963D02*
X013587Y020963D01*
X013632Y020844D02*
X014260Y020844D01*
X014260Y020735D02*
X014260Y020536D01*
X014271Y020496D01*
X014292Y020459D01*
X014321Y020429D01*
X014358Y020408D01*
X014399Y020397D01*
X014578Y020397D01*
X014578Y020735D01*
X014260Y020735D01*
X014260Y020726D02*
X013632Y020726D01*
X013632Y020607D02*
X014260Y020607D01*
X014275Y020489D02*
X013569Y020489D01*
X013515Y021142D02*
X013515Y021142D01*
X012900Y021200D02*
X012589Y021200D01*
X012609Y021318D02*
X012800Y021318D01*
X012800Y021437D02*
X012609Y021437D01*
X012609Y021555D02*
X012800Y021555D01*
X012808Y021674D02*
X012601Y021674D01*
X012544Y021792D02*
X013075Y021792D01*
X012544Y021911D02*
X015439Y021911D01*
X015439Y021792D02*
X014936Y021792D01*
X014993Y021674D02*
X015439Y021674D01*
X015439Y021555D02*
X014993Y021555D01*
X014993Y021437D02*
X015439Y021437D01*
X015500Y021318D02*
X014993Y021318D01*
X014993Y021200D02*
X015520Y021200D01*
X015520Y021081D02*
X014946Y021081D01*
X014973Y020963D02*
X015524Y020963D01*
X015500Y020844D02*
X014973Y020844D01*
X014973Y020726D02*
X015500Y020726D01*
X015500Y020607D02*
X014973Y020607D01*
X014958Y020489D02*
X015563Y020489D01*
X015916Y020734D02*
X015916Y020150D01*
X015676Y019896D02*
X010194Y019896D01*
X010194Y019778D02*
X015676Y019778D01*
X015676Y019659D02*
X010194Y019659D01*
X010194Y019541D02*
X015676Y019541D01*
X015676Y019422D02*
X010194Y019422D01*
X010194Y019304D02*
X010757Y019304D01*
X010609Y019185D02*
X010194Y019185D01*
X010194Y019067D02*
X010560Y019067D01*
X010513Y018948D02*
X010194Y018948D01*
X010194Y018830D02*
X010420Y018830D01*
X010402Y018711D02*
X010194Y018711D01*
X010194Y018593D02*
X010402Y018593D01*
X010402Y018474D02*
X010194Y018474D01*
X010194Y018356D02*
X010402Y018356D01*
X010402Y018237D02*
X010194Y018237D01*
X010194Y018119D02*
X010402Y018119D01*
X010402Y018000D02*
X010194Y018000D01*
X010194Y017882D02*
X010416Y017882D01*
X010502Y017763D02*
X010194Y017763D01*
X010194Y017645D02*
X010414Y017645D01*
X010336Y017526D02*
X010194Y017526D01*
X010194Y017408D02*
X010336Y017408D01*
X010336Y017289D02*
X010194Y017289D01*
X010194Y017171D02*
X010336Y017171D01*
X010336Y017052D02*
X010194Y017052D01*
X010194Y016934D02*
X010336Y016934D01*
X010194Y016815D02*
X012030Y016815D01*
X012329Y016775D02*
X012019Y016465D01*
X008899Y016465D01*
X008899Y016150D02*
X011954Y016150D01*
X012329Y015775D01*
X012329Y015056D01*
X012572Y015156D02*
X013580Y015156D01*
X013580Y015275D02*
X012572Y015275D01*
X012569Y015393D02*
X013580Y015393D01*
X014015Y016108D02*
X015059Y016108D01*
X015454Y015713D01*
X015454Y011869D01*
X013861Y013338D02*
X014015Y013492D01*
X014015Y013549D01*
X014562Y013805D02*
X014704Y013663D01*
X015694Y015292D02*
X015694Y015760D01*
X015658Y015848D01*
X015590Y015916D01*
X015195Y016312D01*
X015106Y016348D01*
X014779Y016348D01*
X016590Y018159D01*
X016619Y018188D01*
X016629Y018170D01*
X016635Y018164D01*
X016577Y018106D01*
X016577Y017524D01*
X016654Y017448D01*
X016654Y017124D01*
X016544Y017124D01*
X016536Y017116D01*
X016358Y017116D01*
X016348Y017142D01*
X016234Y017256D01*
X016085Y017317D01*
X015924Y017317D01*
X015775Y017256D01*
X015661Y017142D01*
X015599Y016993D01*
X015599Y016832D01*
X015661Y016683D01*
X015775Y016569D01*
X015924Y016508D01*
X016085Y016508D01*
X016234Y016569D01*
X016300Y016636D01*
X016459Y016636D01*
X016459Y016620D01*
X016459Y016530D01*
X016459Y016528D01*
X016439Y016507D01*
X016439Y015580D01*
X016035Y015580D01*
X015946Y015544D01*
X015694Y015292D01*
X015694Y015393D02*
X015795Y015393D01*
X015694Y015512D02*
X015914Y015512D01*
X015694Y015630D02*
X016439Y015630D01*
X016439Y015749D02*
X015694Y015749D01*
X015639Y015867D02*
X016439Y015867D01*
X016439Y015986D02*
X015521Y015986D01*
X015402Y016104D02*
X016439Y016104D01*
X016439Y016223D02*
X015284Y016223D01*
X015124Y016341D02*
X016439Y016341D01*
X016439Y016460D02*
X014891Y016460D01*
X015009Y016578D02*
X015766Y016578D01*
X015655Y016697D02*
X015128Y016697D01*
X015246Y016815D02*
X015606Y016815D01*
X015599Y016934D02*
X015365Y016934D01*
X015483Y017052D02*
X015624Y017052D01*
X015602Y017171D02*
X015690Y017171D01*
X015720Y017289D02*
X015855Y017289D01*
X015839Y017408D02*
X016654Y017408D01*
X016654Y017289D02*
X016154Y017289D01*
X016319Y017171D02*
X016654Y017171D01*
X016577Y017526D02*
X015957Y017526D01*
X016076Y017645D02*
X016577Y017645D01*
X016577Y017763D02*
X016194Y017763D01*
X016313Y017882D02*
X016577Y017882D01*
X016577Y018000D02*
X016431Y018000D01*
X016550Y018119D02*
X016590Y018119D01*
X016454Y018363D02*
X016454Y023359D01*
X016745Y023650D01*
X016368Y023688D02*
X014794Y023688D01*
X014789Y023570D02*
X016325Y023570D01*
X016232Y023451D02*
X014736Y023451D01*
X014576Y023333D02*
X016214Y023333D01*
X016214Y023214D02*
X015812Y023214D01*
X015969Y023096D02*
X016214Y023096D01*
X016214Y022977D02*
X016087Y022977D01*
X016200Y022859D02*
X016214Y022859D01*
X015992Y022733D02*
X015742Y022983D01*
X009117Y022983D01*
X008617Y022483D01*
X008617Y021483D01*
X012304Y021483D01*
X012304Y022171D01*
X012617Y022483D01*
X015242Y022483D01*
X015679Y022046D01*
X015679Y021483D01*
X015992Y021483D01*
X015992Y022733D01*
X015985Y022740D02*
X008873Y022740D01*
X008755Y022622D02*
X015992Y022622D01*
X015992Y022503D02*
X008636Y022503D01*
X008617Y022385D02*
X012518Y022385D01*
X012399Y022266D02*
X008617Y022266D01*
X008617Y022148D02*
X012304Y022148D01*
X012304Y022029D02*
X008617Y022029D01*
X008617Y021911D02*
X012304Y021911D01*
X012304Y021792D02*
X008617Y021792D01*
X008617Y021674D02*
X012304Y021674D01*
X012304Y021555D02*
X008617Y021555D01*
X008377Y021792D02*
X007351Y021792D01*
X007351Y021911D02*
X008377Y021911D01*
X008377Y022029D02*
X007454Y022029D01*
X007573Y022148D02*
X008377Y022148D01*
X008377Y022266D02*
X007691Y022266D01*
X007810Y022385D02*
X008377Y022385D01*
X008377Y022503D02*
X007928Y022503D01*
X008047Y022622D02*
X008415Y022622D01*
X008534Y022740D02*
X008165Y022740D01*
X008284Y022859D02*
X008652Y022859D01*
X008771Y022977D02*
X008402Y022977D01*
X008521Y023096D02*
X008889Y023096D01*
X009046Y023214D02*
X008639Y023214D01*
X008758Y023333D02*
X009253Y023333D01*
X009603Y023407D02*
X009603Y023650D01*
X008736Y023650D01*
X007111Y022025D01*
X007111Y021150D01*
X007111Y020734D01*
X007111Y020106D01*
X006912Y020429D02*
X006941Y020459D01*
X006962Y020496D01*
X006973Y020536D01*
X006973Y020735D01*
X006655Y020735D01*
X006655Y020397D01*
X006834Y020397D01*
X006875Y020408D01*
X006912Y020429D01*
X006958Y020489D02*
X007287Y020489D01*
X007270Y020498D02*
X007307Y020477D01*
X007347Y020466D01*
X007605Y020466D01*
X007673Y020466D01*
X007673Y019806D01*
X006361Y019806D01*
X006361Y020407D01*
X006399Y020397D01*
X006578Y020397D01*
X006578Y020735D01*
X006655Y020735D01*
X006655Y020812D01*
X006973Y020812D01*
X006973Y020869D01*
X007210Y020869D01*
X007209Y020864D01*
X007209Y020734D01*
X007209Y020605D01*
X007219Y020564D01*
X007240Y020528D01*
X007270Y020498D01*
X007209Y020607D02*
X006973Y020607D01*
X006973Y020726D02*
X007209Y020726D01*
X007209Y020734D02*
X007605Y020734D01*
X007605Y020466D01*
X007605Y020734D01*
X007605Y020734D01*
X007111Y020734D01*
X007209Y020734D02*
X007605Y020734D01*
X007605Y020734D01*
X007605Y020726D02*
X007605Y020726D01*
X007605Y020607D02*
X007605Y020607D01*
X007605Y020489D02*
X007605Y020489D01*
X007673Y020370D02*
X006361Y020370D01*
X006361Y020252D02*
X007673Y020252D01*
X007673Y020133D02*
X006361Y020133D01*
X006361Y020015D02*
X007673Y020015D01*
X007673Y019896D02*
X006361Y019896D01*
X006121Y019896D02*
X005792Y019896D01*
X005792Y019778D02*
X006121Y019778D01*
X006168Y019659D02*
X005792Y019659D01*
X005792Y019541D02*
X009027Y019541D01*
X009027Y019659D02*
X007865Y019659D01*
X007913Y019778D02*
X009027Y019778D01*
X009027Y019896D02*
X007913Y019896D01*
X007913Y020015D02*
X009027Y020015D01*
X009027Y020133D02*
X007913Y020133D01*
X007913Y020252D02*
X009027Y020252D01*
X009027Y020370D02*
X007913Y020370D01*
X007958Y020489D02*
X008275Y020489D01*
X008212Y020607D02*
X008021Y020607D01*
X008021Y020726D02*
X008212Y020726D01*
X008212Y020844D02*
X008021Y020844D01*
X007976Y020963D02*
X008237Y020963D01*
X008232Y021081D02*
X007788Y021081D01*
X007921Y021200D02*
X008232Y021200D01*
X008232Y021108D02*
X008628Y021108D01*
X008232Y021108D01*
X008212Y021318D02*
X008021Y021318D01*
X008021Y021437D02*
X008212Y021437D01*
X008212Y021555D02*
X008021Y021555D01*
X008013Y021674D02*
X008220Y021674D01*
X008628Y021108D02*
X008628Y021108D01*
X009267Y020613D02*
X009291Y020637D01*
X009334Y020740D01*
X009334Y020838D01*
X009954Y020838D01*
X009954Y016775D01*
X008267Y016775D01*
X008267Y017328D01*
X009230Y017328D01*
X009335Y017434D01*
X009335Y018370D01*
X009267Y018439D01*
X009267Y020613D01*
X009267Y020607D02*
X009954Y020607D01*
X009954Y020489D02*
X009267Y020489D01*
X009267Y020370D02*
X009954Y020370D01*
X009954Y020252D02*
X009267Y020252D01*
X009267Y020133D02*
X009954Y020133D01*
X009954Y020015D02*
X009267Y020015D01*
X009267Y019896D02*
X009954Y019896D01*
X009954Y019778D02*
X009267Y019778D01*
X009267Y019659D02*
X009954Y019659D01*
X009954Y019541D02*
X009267Y019541D01*
X009267Y019422D02*
X009954Y019422D01*
X009954Y019304D02*
X009267Y019304D01*
X009267Y019185D02*
X009954Y019185D01*
X009954Y019067D02*
X009267Y019067D01*
X009267Y018948D02*
X009954Y018948D01*
X009954Y018830D02*
X009267Y018830D01*
X009267Y018711D02*
X009954Y018711D01*
X009954Y018593D02*
X009267Y018593D01*
X009267Y018474D02*
X009954Y018474D01*
X009954Y018356D02*
X009335Y018356D01*
X009335Y018237D02*
X009954Y018237D01*
X009954Y018119D02*
X009335Y018119D01*
X009335Y018000D02*
X009954Y018000D01*
X009954Y017882D02*
X009335Y017882D01*
X009335Y017763D02*
X009954Y017763D01*
X009954Y017645D02*
X009335Y017645D01*
X009335Y017526D02*
X009954Y017526D01*
X009954Y017408D02*
X009309Y017408D01*
X009954Y017289D02*
X008267Y017289D01*
X008267Y017171D02*
X009954Y017171D01*
X009954Y017052D02*
X008267Y017052D01*
X008267Y016934D02*
X009954Y016934D01*
X009954Y016815D02*
X008267Y016815D01*
X008027Y016815D02*
X007982Y016815D01*
X008040Y016697D02*
X007840Y016697D01*
X008070Y016578D02*
X005792Y016578D01*
X005792Y016460D02*
X008070Y016460D01*
X008070Y016341D02*
X005792Y016341D01*
X005792Y016223D02*
X008070Y016223D01*
X008070Y016104D02*
X005792Y016104D01*
X005792Y015986D02*
X008070Y015986D01*
X008070Y015867D02*
X005792Y015867D01*
X005792Y015749D02*
X008070Y015749D01*
X008090Y015630D02*
X007776Y015630D01*
X007581Y015630D02*
X005792Y015630D01*
X005792Y015512D02*
X007401Y015512D01*
X007337Y015393D02*
X005792Y015393D01*
X005792Y015275D02*
X007322Y015275D01*
X007345Y015156D02*
X005792Y015156D01*
X005792Y015038D02*
X007420Y015038D01*
X007170Y014866D02*
X007064Y014972D01*
X005931Y014972D01*
X005826Y014866D01*
X005826Y013930D01*
X005931Y013824D01*
X007064Y013824D01*
X007170Y013930D01*
X007170Y014866D01*
X007170Y014801D02*
X007991Y014801D01*
X007991Y014682D02*
X007170Y014682D01*
X007170Y014564D02*
X007991Y014564D01*
X007991Y014445D02*
X007170Y014445D01*
X007170Y014327D02*
X007991Y014327D01*
X007991Y014208D02*
X007170Y014208D01*
X007170Y014090D02*
X007991Y014090D01*
X007991Y013971D02*
X007170Y013971D01*
X007093Y013853D02*
X008068Y013853D01*
X008044Y014919D02*
X007117Y014919D01*
X008036Y015275D02*
X008184Y015275D01*
X008092Y015393D02*
X008020Y015393D01*
X007956Y015512D02*
X008090Y015512D01*
X008899Y015512D02*
X008899Y015512D01*
X008899Y015393D02*
X008899Y015393D01*
X008899Y015275D02*
X008899Y015275D01*
X009709Y015512D02*
X012089Y015512D01*
X012089Y015630D02*
X009709Y015630D01*
X009729Y015749D02*
X012016Y015749D01*
X011898Y015867D02*
X009729Y015867D01*
X011329Y016934D02*
X011329Y016934D01*
X011329Y017052D02*
X011329Y017052D01*
X011329Y017171D02*
X011329Y017171D01*
X011079Y017244D02*
X011079Y017525D01*
X010642Y017963D01*
X010642Y018738D01*
X010898Y018994D01*
X011039Y019304D02*
X015676Y019304D01*
X015676Y019185D02*
X011187Y019185D01*
X011236Y019067D02*
X015676Y019067D01*
X015676Y018948D02*
X012426Y018948D01*
X012436Y018830D02*
X015676Y018830D01*
X015676Y018474D02*
X012436Y018474D01*
X012402Y018356D02*
X015676Y018356D01*
X015614Y018237D02*
X012456Y018237D01*
X012456Y018119D02*
X015496Y018119D01*
X015377Y018000D02*
X012456Y018000D01*
X012456Y017882D02*
X015259Y017882D01*
X015140Y017763D02*
X012456Y017763D01*
X012494Y017645D02*
X015022Y017645D01*
X014903Y017526D02*
X014247Y017526D01*
X014330Y017408D02*
X014785Y017408D01*
X014666Y017289D02*
X014357Y017289D01*
X014342Y017171D02*
X014548Y017171D01*
X014456Y016364D02*
X014015Y016364D01*
X014456Y016364D02*
X016454Y018363D01*
X016916Y018523D02*
X016916Y018861D01*
X016736Y018861D01*
X016696Y018850D01*
X016694Y018849D01*
X016694Y020446D01*
X017250Y020446D01*
X017356Y020552D01*
X017356Y020917D01*
X017250Y021023D01*
X016694Y021023D01*
X016694Y021194D01*
X016747Y021194D01*
X016872Y021142D01*
X017437Y021142D01*
X017485Y021094D01*
X017479Y021089D01*
X017458Y021052D01*
X017447Y021011D01*
X017447Y020812D01*
X017766Y020812D01*
X017766Y020735D01*
X017843Y020735D01*
X017843Y020397D01*
X018022Y020397D01*
X018063Y020408D01*
X018099Y020429D01*
X018129Y020459D01*
X018150Y020496D01*
X018161Y020536D01*
X018161Y020735D01*
X017843Y020735D01*
X017843Y020812D01*
X018161Y020812D01*
X018161Y021011D01*
X018150Y021052D01*
X018129Y021089D01*
X018123Y021094D01*
X018181Y021152D01*
X018181Y021310D01*
X022813Y021310D01*
X023114Y021009D01*
X023114Y018990D01*
X022157Y018990D01*
X022062Y019086D01*
X020810Y019086D01*
X020705Y018980D01*
X020705Y018733D01*
X020225Y018733D01*
X020225Y018807D01*
X019838Y018807D01*
X019838Y018807D01*
X020225Y018807D01*
X020225Y018915D01*
X020219Y018936D01*
X020245Y018961D01*
X020245Y019310D01*
X020714Y019310D01*
X020810Y019214D01*
X022062Y019214D01*
X022167Y019320D01*
X022167Y019980D01*
X022062Y020086D01*
X020810Y020086D01*
X020714Y019990D01*
X020457Y019990D01*
X020457Y020551D01*
X020405Y020676D01*
X020309Y020772D01*
X020028Y021053D01*
X019903Y021105D01*
X019768Y021105D01*
X019643Y021053D01*
X019547Y020957D01*
X019495Y020832D01*
X019495Y020697D01*
X019547Y020572D01*
X019777Y020343D01*
X019777Y019678D01*
X019618Y019519D01*
X019595Y019464D01*
X019537Y019464D01*
X019454Y019381D01*
X019371Y019464D01*
X018770Y019464D01*
X018664Y019358D01*
X018664Y019047D01*
X018188Y019047D01*
X018100Y019011D01*
X017751Y018662D01*
X017714Y018574D01*
X017714Y017031D01*
X017329Y016645D01*
X017329Y016710D01*
X017328Y016712D01*
X017349Y016733D01*
X017349Y017019D01*
X017243Y017124D01*
X017134Y017124D01*
X017134Y017419D01*
X017226Y017419D01*
X017331Y017524D01*
X017331Y018106D01*
X017273Y018164D01*
X017279Y018170D01*
X017300Y018206D01*
X017311Y018247D01*
X017311Y018446D01*
X016993Y018446D01*
X016993Y018523D01*
X017311Y018523D01*
X017311Y018722D01*
X017300Y018763D01*
X017279Y018799D01*
X017249Y018829D01*
X017213Y018850D01*
X017172Y018861D01*
X016993Y018861D01*
X016993Y018523D01*
X016916Y018523D01*
X016916Y018593D02*
X016993Y018593D01*
X016993Y018711D02*
X016916Y018711D01*
X016916Y018830D02*
X016993Y018830D01*
X017249Y018830D02*
X017918Y018830D01*
X018037Y018948D02*
X016694Y018948D01*
X016694Y019067D02*
X018664Y019067D01*
X018664Y019185D02*
X016694Y019185D01*
X016694Y019304D02*
X018664Y019304D01*
X018728Y019422D02*
X016694Y019422D01*
X016694Y019541D02*
X019639Y019541D01*
X019758Y019659D02*
X016694Y019659D01*
X016694Y019778D02*
X019777Y019778D01*
X019777Y019896D02*
X016694Y019896D01*
X016694Y020015D02*
X019777Y020015D01*
X019777Y020133D02*
X016694Y020133D01*
X016694Y020252D02*
X019777Y020252D01*
X019749Y020370D02*
X016694Y020370D01*
X017292Y020489D02*
X017462Y020489D01*
X017458Y020496D02*
X017479Y020459D01*
X017509Y020429D01*
X017546Y020408D01*
X017586Y020397D01*
X017766Y020397D01*
X017766Y020735D01*
X017447Y020735D01*
X017447Y020536D01*
X017458Y020496D01*
X017447Y020607D02*
X017356Y020607D01*
X017356Y020726D02*
X017447Y020726D01*
X017447Y020844D02*
X017356Y020844D01*
X017310Y020963D02*
X017447Y020963D01*
X017475Y021081D02*
X016694Y021081D01*
X015992Y021555D02*
X015679Y021555D01*
X015679Y021674D02*
X015992Y021674D01*
X015992Y021792D02*
X015679Y021792D01*
X015679Y021911D02*
X015992Y021911D01*
X015992Y022029D02*
X015679Y022029D01*
X015577Y022148D02*
X015992Y022148D01*
X015992Y022266D02*
X015459Y022266D01*
X015340Y022385D02*
X015992Y022385D01*
X015866Y022859D02*
X008992Y022859D01*
X009110Y022977D02*
X015748Y022977D01*
X016694Y022977D02*
X020072Y022977D01*
X020072Y022859D02*
X016694Y022859D01*
X016694Y022740D02*
X020072Y022740D01*
X020072Y022622D02*
X016694Y022622D01*
X016694Y022503D02*
X020072Y022503D01*
X020072Y022385D02*
X016694Y022385D01*
X016694Y022266D02*
X020072Y022266D01*
X020072Y022148D02*
X016694Y022148D01*
X016694Y022029D02*
X020072Y022029D01*
X020552Y022029D02*
X025117Y022029D01*
X025117Y021911D02*
X023175Y021911D01*
X023293Y021792D02*
X025117Y021792D01*
X025117Y021674D02*
X023412Y021674D01*
X023530Y021555D02*
X025117Y021555D01*
X025117Y021437D02*
X023649Y021437D01*
X023753Y021318D02*
X025117Y021318D01*
X025117Y021200D02*
X023794Y021200D01*
X023794Y021081D02*
X025117Y021081D01*
X025117Y020963D02*
X023794Y020963D01*
X023794Y020844D02*
X025117Y020844D01*
X025117Y020726D02*
X023794Y020726D01*
X023794Y020607D02*
X025117Y020607D01*
X025117Y020489D02*
X023794Y020489D01*
X023794Y020370D02*
X025117Y020370D01*
X025117Y020252D02*
X023794Y020252D01*
X023794Y020133D02*
X025117Y020133D01*
X025117Y020015D02*
X023794Y020015D01*
X023794Y019896D02*
X025117Y019896D01*
X025117Y019778D02*
X023794Y019778D01*
X023794Y019659D02*
X025117Y019659D01*
X025117Y019541D02*
X023794Y019541D01*
X023794Y019422D02*
X025117Y019422D01*
X025117Y019304D02*
X023794Y019304D01*
X023794Y019185D02*
X025117Y019185D01*
X025117Y019067D02*
X023794Y019067D01*
X023794Y018948D02*
X025117Y018948D01*
X025117Y018830D02*
X023794Y018830D01*
X023794Y018711D02*
X025117Y018711D01*
X025117Y018593D02*
X023794Y018593D01*
X023749Y018474D02*
X025117Y018474D01*
X025117Y018356D02*
X023632Y018356D01*
X023114Y019067D02*
X022081Y019067D01*
X022151Y019304D02*
X023114Y019304D01*
X023114Y019422D02*
X022167Y019422D01*
X022167Y019541D02*
X023114Y019541D01*
X023114Y019659D02*
X022167Y019659D01*
X022167Y019778D02*
X023114Y019778D01*
X023114Y019896D02*
X022167Y019896D01*
X022133Y020015D02*
X023114Y020015D01*
X023114Y020133D02*
X020457Y020133D01*
X020457Y020015D02*
X020739Y020015D01*
X020823Y020245D02*
X020864Y020234D01*
X021376Y020234D01*
X021376Y020590D01*
X021496Y020590D01*
X021496Y020710D01*
X022147Y020710D01*
X022147Y020927D01*
X022136Y020968D01*
X022115Y021004D01*
X022085Y021034D01*
X022049Y021055D01*
X022008Y021066D01*
X021496Y021066D01*
X021496Y020710D01*
X021376Y020710D01*
X021376Y021066D01*
X020864Y021066D01*
X020823Y021055D01*
X020786Y021034D01*
X020757Y021004D01*
X020736Y020968D01*
X020725Y020927D01*
X020725Y020710D01*
X021376Y020710D01*
X021376Y020590D01*
X020725Y020590D01*
X020725Y020373D01*
X020736Y020332D01*
X020757Y020296D01*
X020786Y020266D01*
X020823Y020245D01*
X020812Y020252D02*
X020457Y020252D01*
X020457Y020370D02*
X020725Y020370D01*
X020725Y020489D02*
X020457Y020489D01*
X020433Y020607D02*
X021376Y020607D01*
X021376Y020489D02*
X021496Y020489D01*
X021496Y020590D02*
X021496Y020234D01*
X022008Y020234D01*
X022049Y020245D01*
X022085Y020266D01*
X022115Y020296D01*
X022136Y020332D01*
X022147Y020373D01*
X022147Y020590D01*
X021496Y020590D01*
X021496Y020607D02*
X023114Y020607D01*
X023114Y020489D02*
X022147Y020489D01*
X022146Y020370D02*
X023114Y020370D01*
X023114Y020252D02*
X022060Y020252D01*
X021496Y020252D02*
X021376Y020252D01*
X021376Y020370D02*
X021496Y020370D01*
X021496Y020726D02*
X021376Y020726D01*
X021376Y020844D02*
X021496Y020844D01*
X021496Y020963D02*
X021376Y020963D01*
X022137Y020963D02*
X023114Y020963D01*
X023114Y020844D02*
X022147Y020844D01*
X022147Y020726D02*
X023114Y020726D01*
X023042Y021081D02*
X019960Y021081D01*
X020118Y020963D02*
X020734Y020963D01*
X020725Y020844D02*
X020237Y020844D01*
X020355Y020726D02*
X020725Y020726D01*
X020454Y021650D02*
X020312Y021650D01*
X020312Y023650D01*
X019935Y023688D02*
X018294Y023688D01*
X018289Y023570D02*
X019935Y023570D01*
X019935Y023451D02*
X018236Y023451D01*
X018076Y023333D02*
X019961Y023333D01*
X020072Y023214D02*
X016694Y023214D01*
X016694Y023096D02*
X020072Y023096D01*
X020552Y022977D02*
X025117Y022977D01*
X025117Y022859D02*
X020552Y022859D01*
X020552Y022740D02*
X025117Y022740D01*
X025117Y022622D02*
X020552Y022622D01*
X020552Y022503D02*
X025117Y022503D01*
X025117Y022385D02*
X020552Y022385D01*
X020552Y022266D02*
X025117Y022266D01*
X025117Y022148D02*
X020552Y022148D01*
X019710Y021081D02*
X018134Y021081D01*
X018161Y020963D02*
X019552Y020963D01*
X019500Y020844D02*
X018161Y020844D01*
X018161Y020726D02*
X019495Y020726D01*
X019533Y020607D02*
X018161Y020607D01*
X018146Y020489D02*
X019631Y020489D01*
X018181Y021200D02*
X022924Y021200D01*
X023396Y023090D02*
X023338Y023111D01*
X023278Y023124D01*
X023270Y023137D01*
X023225Y023154D01*
X023211Y023150D01*
X023156Y023179D01*
X023099Y023201D01*
X023093Y023214D01*
X022905Y023333D02*
X021576Y023333D01*
X021736Y023451D02*
X022768Y023451D01*
X022650Y023570D02*
X021789Y023570D01*
X021794Y023688D02*
X022572Y023688D01*
X022501Y023807D02*
X021758Y023807D01*
X021694Y023925D02*
X022456Y023925D01*
X022416Y024034D02*
X022394Y024092D01*
X022400Y024105D01*
X022390Y024153D01*
X022379Y024162D01*
X022362Y024281D02*
X021476Y024281D01*
X021262Y024399D02*
X022361Y024399D01*
X022361Y024518D02*
X008548Y024518D01*
X008548Y024636D02*
X022361Y024636D01*
X022361Y024755D02*
X008548Y024755D01*
X008548Y024873D02*
X022361Y024873D01*
X022361Y024992D02*
X008548Y024992D01*
X008548Y025110D02*
X022361Y025110D01*
X022361Y025229D02*
X008548Y025229D01*
X008548Y025347D02*
X022361Y025347D01*
X022361Y025466D02*
X008548Y025466D01*
X008548Y025584D02*
X022361Y025584D01*
X022361Y025703D02*
X008548Y025703D01*
X008548Y024399D02*
X009353Y024399D01*
X009325Y024281D02*
X008547Y024281D01*
X008529Y024162D02*
X009624Y024162D01*
X009624Y024281D02*
X009661Y024281D01*
X009661Y024399D02*
X009624Y024399D01*
X009325Y024044D02*
X008497Y024044D01*
X008452Y023925D02*
X009226Y023925D01*
X008553Y023807D02*
X008408Y023807D01*
X008434Y023688D02*
X008337Y023688D01*
X008316Y023570D02*
X008259Y023570D01*
X008197Y023451D02*
X008141Y023451D01*
X008079Y023333D02*
X008003Y023333D01*
X007923Y023272D02*
X007873Y023235D01*
X007859Y023237D01*
X007816Y023214D01*
X007842Y023096D02*
X007528Y023096D01*
X007500Y023096D02*
X007498Y023096D01*
X007723Y022977D02*
X005792Y022977D01*
X005792Y022859D02*
X007605Y022859D01*
X007486Y022740D02*
X005792Y022740D01*
X005792Y022622D02*
X007368Y022622D01*
X007249Y022503D02*
X005792Y022503D01*
X005792Y022385D02*
X007131Y022385D01*
X007012Y022266D02*
X005792Y022266D01*
X005792Y022148D02*
X006902Y022148D01*
X006871Y022029D02*
X005792Y022029D01*
X005792Y021911D02*
X006871Y021911D01*
X006655Y021792D02*
X006578Y021792D01*
X006578Y021674D02*
X006655Y021674D01*
X006655Y021555D02*
X006578Y021555D01*
X006578Y021437D02*
X005792Y021437D01*
X005792Y021555D02*
X006260Y021555D01*
X006260Y021674D02*
X005792Y021674D01*
X005792Y021792D02*
X006329Y021792D01*
X006260Y021318D02*
X005792Y021318D01*
X005792Y021200D02*
X006261Y021200D01*
X006246Y021081D02*
X005792Y021081D01*
X005792Y020963D02*
X006140Y020963D01*
X006121Y020844D02*
X005792Y020844D01*
X005792Y020726D02*
X006121Y020726D01*
X006121Y020607D02*
X005792Y020607D01*
X005792Y020489D02*
X006121Y020489D01*
X006121Y020370D02*
X005792Y020370D01*
X005792Y020252D02*
X006121Y020252D01*
X006121Y020133D02*
X005792Y020133D01*
X005792Y020015D02*
X006121Y020015D01*
X006578Y020489D02*
X006655Y020489D01*
X006655Y020607D02*
X006578Y020607D01*
X006578Y020726D02*
X006655Y020726D01*
X006973Y020844D02*
X007209Y020844D01*
X005792Y019422D02*
X009027Y019422D01*
X009027Y019304D02*
X005792Y019304D01*
X005792Y019185D02*
X009027Y019185D01*
X009027Y019067D02*
X005792Y019067D01*
X005792Y018948D02*
X009027Y018948D01*
X009027Y018830D02*
X005792Y018830D01*
X005792Y018711D02*
X009027Y018711D01*
X009027Y018593D02*
X005792Y018593D01*
X005792Y018474D02*
X005929Y018474D01*
X005931Y018476D02*
X005826Y018370D01*
X005826Y017434D01*
X005931Y017328D01*
X007064Y017328D01*
X007170Y017434D01*
X007170Y018370D01*
X007064Y018476D01*
X005931Y018476D01*
X005826Y018356D02*
X005792Y018356D01*
X005792Y018237D02*
X005826Y018237D01*
X005826Y018119D02*
X005792Y018119D01*
X005792Y018000D02*
X005826Y018000D01*
X005826Y017882D02*
X005792Y017882D01*
X005792Y017763D02*
X005826Y017763D01*
X005826Y017645D02*
X005792Y017645D01*
X005792Y017526D02*
X005826Y017526D01*
X005852Y017408D02*
X005792Y017408D01*
X005792Y017289D02*
X007447Y017289D01*
X007356Y017171D02*
X005792Y017171D01*
X005792Y017052D02*
X007322Y017052D01*
X007326Y016934D02*
X005792Y016934D01*
X005792Y016815D02*
X007375Y016815D01*
X007517Y016697D02*
X005792Y016697D01*
X007144Y017408D02*
X008017Y017408D01*
X008027Y017289D02*
X007911Y017289D01*
X008001Y017171D02*
X008027Y017171D01*
X007991Y017526D02*
X007170Y017526D01*
X007170Y017645D02*
X007991Y017645D01*
X007991Y017763D02*
X007170Y017763D01*
X007170Y017882D02*
X007991Y017882D01*
X007991Y018000D02*
X007170Y018000D01*
X007170Y018119D02*
X007991Y018119D01*
X007991Y018237D02*
X007170Y018237D01*
X007170Y018356D02*
X007991Y018356D01*
X008095Y018474D02*
X007066Y018474D01*
X009328Y020726D02*
X009954Y020726D01*
X010194Y020726D02*
X010681Y020726D01*
X010681Y020844D02*
X010194Y020844D01*
X010162Y020963D02*
X010746Y020963D01*
X010743Y020961D02*
X010713Y020931D01*
X010692Y020895D01*
X010681Y020854D01*
X010681Y020578D01*
X011057Y020578D01*
X011057Y020993D01*
X010820Y020993D01*
X010779Y020982D01*
X010743Y020961D01*
X011057Y020963D02*
X011177Y020963D01*
X011177Y020993D02*
X011177Y020578D01*
X011552Y020578D01*
X011552Y020854D01*
X011541Y020895D01*
X011520Y020931D01*
X011490Y020961D01*
X011454Y020982D01*
X011413Y020993D01*
X011177Y020993D01*
X011177Y020844D02*
X011057Y020844D01*
X011057Y020726D02*
X011177Y020726D01*
X011177Y020607D02*
X011057Y020607D01*
X011057Y020578D02*
X011177Y020578D01*
X011177Y020458D01*
X011552Y020458D01*
X011552Y020182D01*
X011541Y020141D01*
X011520Y020105D01*
X011490Y020075D01*
X011454Y020054D01*
X011413Y020043D01*
X011177Y020043D01*
X011177Y020458D01*
X011057Y020458D01*
X011057Y020043D01*
X010820Y020043D01*
X010779Y020054D01*
X010743Y020075D01*
X010713Y020105D01*
X010692Y020141D01*
X010681Y020182D01*
X010681Y020458D01*
X011057Y020458D01*
X011057Y020578D01*
X011057Y020489D02*
X010194Y020489D01*
X010194Y020607D02*
X010681Y020607D01*
X010681Y020370D02*
X010194Y020370D01*
X010194Y020252D02*
X010681Y020252D01*
X010697Y020133D02*
X010194Y020133D01*
X010194Y020015D02*
X012250Y020015D01*
X012132Y020133D02*
X011537Y020133D01*
X011552Y020252D02*
X012013Y020252D01*
X011952Y020370D02*
X011552Y020370D01*
X011552Y020607D02*
X011776Y020607D01*
X011776Y020726D02*
X011552Y020726D01*
X011552Y020844D02*
X011776Y020844D01*
X011801Y020963D02*
X011488Y020963D01*
X011796Y021081D02*
X010099Y021081D01*
X010147Y021200D02*
X011796Y021200D01*
X012609Y020607D02*
X012800Y020607D01*
X012863Y020489D02*
X012546Y020489D01*
X011839Y020489D02*
X011177Y020489D01*
X011177Y020370D02*
X011057Y020370D01*
X011057Y020252D02*
X011177Y020252D01*
X011177Y020133D02*
X011057Y020133D01*
X011447Y018948D02*
X011524Y018948D01*
X011524Y018830D02*
X011447Y018830D01*
X011129Y018593D02*
X010882Y018593D01*
X011061Y018474D02*
X011129Y018474D01*
X011486Y018003D02*
X011579Y017909D01*
X011579Y017244D01*
X012079Y017244D02*
X012079Y018003D01*
X012079Y018003D01*
X012329Y017244D02*
X012329Y016775D01*
X012118Y018830D02*
X012041Y018830D01*
X012041Y018948D02*
X012118Y018948D01*
X014578Y020489D02*
X014655Y020489D01*
X014655Y020607D02*
X014578Y020607D01*
X014578Y020726D02*
X014655Y020726D01*
X015357Y022029D02*
X012544Y022029D01*
X012620Y022148D02*
X015238Y022148D01*
X016694Y021911D02*
X017791Y021911D01*
X016798Y021792D02*
X016694Y021792D01*
X017766Y020726D02*
X017843Y020726D01*
X017843Y020607D02*
X017766Y020607D01*
X017766Y020489D02*
X017843Y020489D01*
X019070Y019160D02*
X019070Y018807D01*
X018236Y018807D01*
X017954Y018526D01*
X017954Y016931D01*
X017387Y016364D01*
X016894Y016364D01*
X016894Y016108D02*
X017631Y016108D01*
X018236Y016713D01*
X018236Y017931D01*
X018444Y018140D01*
X019070Y018140D01*
X019070Y018493D01*
X018724Y017882D02*
X018525Y017882D01*
X017714Y017882D02*
X017331Y017882D01*
X017331Y018000D02*
X017714Y018000D01*
X017714Y018119D02*
X017319Y018119D01*
X017308Y018237D02*
X017714Y018237D01*
X017714Y018356D02*
X017311Y018356D01*
X017311Y018593D02*
X017722Y018593D01*
X017714Y018474D02*
X016993Y018474D01*
X017311Y018711D02*
X017800Y018711D01*
X017714Y017763D02*
X017331Y017763D01*
X017331Y017645D02*
X017714Y017645D01*
X017714Y017526D02*
X017331Y017526D01*
X017134Y017408D02*
X017714Y017408D01*
X017714Y017289D02*
X017134Y017289D01*
X017134Y017171D02*
X017714Y017171D01*
X017714Y017052D02*
X017316Y017052D01*
X017349Y016934D02*
X017617Y016934D01*
X017499Y016815D02*
X017349Y016815D01*
X017329Y016697D02*
X017380Y016697D01*
X016894Y016620D02*
X016891Y016623D01*
X016844Y016623D01*
X016894Y016620D02*
X016459Y016620D01*
X016894Y016620D01*
X016362Y016620D01*
X016154Y016413D01*
X016154Y016013D01*
X016243Y016578D02*
X016459Y016578D01*
X016894Y016620D02*
X016894Y016620D01*
X016894Y016876D02*
X016041Y016876D01*
X016004Y016913D01*
X016894Y016876D02*
X016894Y017815D01*
X016954Y017815D01*
X019417Y017882D02*
X019525Y017882D01*
X019836Y017882D02*
X019840Y017882D01*
X019836Y018000D02*
X019840Y018000D01*
X019836Y018119D02*
X019840Y018119D01*
X019838Y018493D02*
X021278Y018493D01*
X021436Y018650D01*
X020705Y018830D02*
X020225Y018830D01*
X020231Y018948D02*
X020705Y018948D01*
X020791Y019067D02*
X020245Y019067D01*
X020245Y019185D02*
X023114Y019185D01*
X020721Y019304D02*
X020245Y019304D01*
X019495Y019422D02*
X019413Y019422D01*
X020551Y017408D02*
X020705Y017408D01*
X020735Y017289D02*
X020433Y017289D01*
X022095Y017052D02*
X023194Y017052D01*
X023194Y016934D02*
X022167Y016934D01*
X022167Y016815D02*
X023194Y016815D01*
X023194Y016697D02*
X022167Y016697D01*
X022167Y016578D02*
X023194Y016578D01*
X023194Y016460D02*
X022167Y016460D01*
X022167Y016341D02*
X023194Y016341D01*
X023194Y016223D02*
X022070Y016223D01*
X019550Y015867D02*
X019402Y015867D01*
X018750Y015856D02*
X018287Y015393D01*
X014114Y009231D02*
X007376Y009231D01*
X007774Y009113D02*
X014114Y009113D01*
X014151Y008994D02*
X007978Y008994D01*
X008126Y008876D02*
X014248Y008876D01*
X009993Y012786D02*
X009916Y012786D01*
X009916Y012905D02*
X009993Y012905D01*
X009993Y013023D02*
X009916Y013023D01*
X005903Y013853D02*
X005792Y013853D01*
X005792Y013971D02*
X005826Y013971D01*
X005826Y014090D02*
X005792Y014090D01*
X005792Y014208D02*
X005826Y014208D01*
X005826Y014327D02*
X005792Y014327D01*
X005792Y014445D02*
X005826Y014445D01*
X005826Y014564D02*
X005792Y014564D01*
X005792Y014682D02*
X005826Y014682D01*
X005826Y014801D02*
X005792Y014801D01*
X005792Y014919D02*
X005878Y014919D01*
X009767Y023244D02*
X009603Y023407D01*
X009767Y023244D02*
X012213Y023244D01*
X012620Y023650D01*
X013174Y023650D01*
X012824Y023333D02*
X012642Y023333D01*
X012318Y023688D02*
X011294Y023688D01*
X011289Y023570D02*
X012200Y023570D01*
X012437Y023807D02*
X011258Y023807D01*
X011194Y023925D02*
X012198Y023925D01*
X012130Y024044D02*
X011181Y024044D01*
X011094Y024162D02*
X012114Y024162D01*
X012140Y024281D02*
X010976Y024281D01*
X010767Y024150D02*
X010954Y023963D01*
X010954Y023650D01*
X010272Y023650D01*
X010233Y024150D02*
X010767Y024150D01*
X010554Y024399D02*
X012223Y024399D01*
X012454Y024150D02*
X013213Y024150D01*
X012893Y024399D02*
X012686Y024399D01*
X013804Y024150D02*
X014267Y024150D01*
X014454Y023963D01*
X014454Y023650D01*
X013843Y023650D01*
X014194Y023333D02*
X014332Y023333D01*
X014758Y023807D02*
X016368Y023807D01*
X016368Y023925D02*
X014694Y023925D01*
X014681Y024044D02*
X016467Y024044D01*
X016467Y024281D02*
X014476Y024281D01*
X014594Y024162D02*
X016766Y024162D01*
X016766Y024281D02*
X016803Y024281D01*
X016803Y024399D02*
X016766Y024399D01*
X016495Y024399D02*
X014124Y024399D01*
X017375Y024150D02*
X017767Y024150D01*
X017954Y023963D01*
X017954Y023650D01*
X017414Y023650D01*
X017765Y023333D02*
X017832Y023333D01*
X018258Y023807D02*
X019935Y023807D01*
X019935Y023925D02*
X018194Y023925D01*
X018181Y024044D02*
X020034Y024044D01*
X020034Y024169D02*
X020332Y024169D01*
X020332Y024467D01*
X020173Y024467D01*
X020132Y024457D01*
X020095Y024436D01*
X020066Y024406D01*
X020045Y024369D01*
X020034Y024329D01*
X020034Y024169D01*
X020034Y024281D02*
X017976Y024281D01*
X018094Y024162D02*
X020332Y024162D01*
X020332Y024281D02*
X020370Y024281D01*
X020370Y024399D02*
X020332Y024399D01*
X020062Y024399D02*
X017695Y024399D01*
X020942Y024150D02*
X021267Y024150D01*
X021454Y023963D01*
X021454Y023650D01*
X020981Y023650D01*
X021332Y023333D02*
X021332Y023333D01*
X023409Y023096D02*
X023411Y023096D01*
D28*
X023954Y022650D03*
X021454Y023650D03*
X021954Y024650D03*
X017954Y023650D03*
X016954Y023150D03*
X014454Y023650D03*
X013942Y022087D03*
X012754Y021150D03*
X013942Y020775D03*
X015254Y020775D03*
X017798Y020213D03*
X019835Y020765D03*
X020117Y020483D03*
X020579Y020650D03*
X021454Y021213D03*
X022454Y020650D03*
X020361Y018869D03*
X020392Y018150D03*
X020392Y016869D03*
X020392Y016119D03*
X020298Y014619D03*
X022454Y014650D03*
X022454Y013650D03*
X022454Y012650D03*
X020454Y011806D03*
X020298Y012244D03*
X020454Y011431D03*
X020579Y010650D03*
X020267Y010244D03*
X020861Y009838D03*
X020861Y008463D03*
X020111Y008463D03*
X019298Y008025D03*
X018704Y009431D03*
X018454Y011463D03*
X017986Y011463D03*
X017517Y011463D03*
X017017Y011494D03*
X016173Y012431D03*
X015454Y011025D03*
X013954Y012150D03*
X012798Y012744D03*
X013329Y013713D03*
X014704Y015113D03*
X016204Y014813D03*
X017598Y014462D03*
X016154Y016013D03*
X014017Y017275D03*
X012079Y019213D03*
X011486Y019213D03*
X010898Y018994D03*
X010954Y018150D03*
X011736Y020213D03*
X010454Y022075D03*
X010954Y023650D03*
X012454Y024150D03*
X008954Y024650D03*
X006954Y022650D03*
X006611Y022025D03*
X008054Y021108D03*
X007892Y015900D03*
X008142Y015119D03*
X009517Y015056D03*
X009923Y015525D03*
X009954Y014400D03*
X011204Y014400D03*
X009954Y012525D03*
X010954Y010650D03*
X012829Y011213D03*
X014454Y009150D03*
X015454Y009181D03*
X008954Y007650D03*
X006954Y009650D03*
X017486Y018494D03*
X022923Y009838D03*
X023954Y009650D03*
X021954Y007650D03*
D29*
X021961Y009150D02*
X022236Y009150D01*
X022923Y009838D01*
X023454Y010369D01*
X023454Y017650D01*
X021436Y017650D01*
X019838Y019160D02*
X019838Y019372D01*
X020117Y019650D01*
X014680Y012771D02*
X014730Y012721D01*
D30*
X014730Y011801D01*
X014454Y011525D01*
X014454Y010173D01*
X014454Y009150D01*
X014730Y012721D02*
X014730Y013637D01*
X014680Y012771D02*
X014039Y012771D01*
X021436Y018650D02*
X023454Y018650D01*
X023454Y021150D01*
X022954Y021650D01*
X020454Y021650D01*
X018011Y021650D01*
X017804Y021443D01*
X017765Y021482D02*
X016939Y021482D01*
X014617Y021483D02*
X013929Y021483D01*
X013582Y021482D01*
X013216Y021482D01*
X019835Y020765D02*
X020117Y020483D01*
X020117Y019650D01*
X021436Y019650D01*
X020117Y020483D02*
X019954Y020646D01*
D31*
X017804Y021443D02*
X017765Y021482D01*
X014617Y021483D02*
X014600Y021500D01*
X014589Y021500D01*
X009054Y021483D02*
X009054Y020796D01*
X008993Y020734D01*
X008628Y020734D01*
X009053Y021482D02*
X009054Y021483D01*
X007605Y020734D02*
X006656Y020734D01*
X006617Y020774D01*
D32*
X010954Y018150D02*
X011101Y018003D01*
X011486Y018003D01*
X014617Y021443D02*
X014589Y021500D01*
X014704Y013663D02*
X014730Y013637D01*
D33*
X014704Y013663D03*
X016004Y016913D03*
X013929Y021483D03*
X007111Y020106D03*
M02*
