G04 EAGLE Gerber RS-274X export*
G75*
%MOMM*%
%FSLAX34Y34*%
%LPD*%
%INTop Copper*%
%IPPOS*%
%AMOC8*
5,1,8,0,0,1.08239X$1,22.5*%
G01*
%ADD10R,1.900000X0.550000*%
%ADD11R,0.550000X1.900000*%
%ADD12R,11.500000X0.550000*%
%ADD13R,0.550000X11.500000*%
%ADD14R,0.550000X10.700000*%
%ADD15R,0.550000X9.900000*%
%ADD16R,9.900000X0.550000*%
%ADD17R,9.100000X0.550000*%
%ADD18R,0.550000X9.100000*%
%ADD19R,0.550000X8.300000*%
%ADD20R,8.300000X0.550000*%
%ADD21R,7.500000X0.550000*%
%ADD22R,0.550000X7.500000*%
%ADD23R,10.700000X0.550000*%
%ADD24R,6.700000X0.550000*%
%ADD25R,0.550000X6.700000*%
%ADD26R,0.550000X5.900000*%
%ADD27R,5.900000X0.550000*%
%ADD28R,5.100000X0.550000*%
%ADD29R,0.550000X5.100000*%
%ADD30R,0.550000X4.300000*%
%ADD31R,4.300000X0.550000*%
%ADD32R,3.500000X0.550000*%
%ADD33R,0.550000X3.500000*%
%ADD34R,2.700000X0.550000*%
%ADD35R,0.550000X2.700000*%
%ADD36P,1.759533X8X22.500000*%
%ADD37P,1.759533X8X112.500000*%
%ADD38P,1.759533X8X202.500000*%
%ADD39P,1.759533X8X292.500000*%
%ADD40R,1.300000X1.500000*%
%ADD41C,0.304800*%
%ADD42C,0.406400*%


D10*
X105640Y167640D03*
X105640Y175640D03*
X105640Y183640D03*
X105640Y191640D03*
X105640Y199640D03*
X105640Y207640D03*
X105640Y127640D03*
X105640Y135640D03*
X105640Y143640D03*
X105640Y151640D03*
X105640Y159640D03*
D11*
X127640Y105640D03*
X135640Y105640D03*
X143640Y105640D03*
X151640Y105640D03*
X159640Y105640D03*
X167640Y105640D03*
X183640Y105640D03*
X175640Y105640D03*
X191640Y105640D03*
X199640Y105640D03*
X207640Y105640D03*
X215640Y105640D03*
X223640Y105640D03*
X231640Y105640D03*
X239640Y105640D03*
X247640Y105640D03*
X255640Y105640D03*
X263640Y105640D03*
X271640Y105640D03*
X279640Y105640D03*
D10*
X301640Y279640D03*
X105640Y215640D03*
X105640Y223640D03*
X105640Y231640D03*
X105640Y239640D03*
X105640Y247640D03*
X105640Y255640D03*
X105640Y263640D03*
X105640Y279640D03*
X105640Y271640D03*
D11*
X279640Y301640D03*
D12*
X253640Y127640D03*
X253640Y183640D03*
X253640Y135640D03*
X253640Y143640D03*
X253640Y151640D03*
X253640Y159640D03*
X253640Y167640D03*
X253640Y175640D03*
D13*
X135640Y253640D03*
X183640Y253640D03*
X175640Y253640D03*
X167640Y253640D03*
X159640Y253640D03*
X151640Y253640D03*
X143640Y253640D03*
X127640Y253640D03*
D14*
X191640Y257640D03*
D15*
X199640Y261640D03*
D16*
X261640Y199640D03*
D17*
X265640Y207640D03*
D18*
X207640Y265640D03*
D19*
X215640Y269640D03*
D20*
X269640Y215640D03*
D21*
X273640Y223640D03*
D22*
X223640Y273640D03*
D23*
X257640Y191640D03*
D24*
X277640Y231640D03*
D25*
X231640Y277640D03*
D26*
X239640Y281640D03*
D27*
X281640Y239640D03*
D28*
X285640Y247640D03*
D29*
X247640Y285640D03*
D30*
X255640Y289640D03*
D31*
X289640Y255640D03*
D32*
X293640Y263640D03*
D33*
X263640Y293640D03*
D34*
X297640Y271640D03*
D35*
X271640Y297640D03*
D36*
X88900Y38100D03*
X88900Y12700D03*
X114300Y38100D03*
X114300Y12700D03*
X139700Y38100D03*
X139700Y12700D03*
X165100Y38100D03*
X165100Y12700D03*
X190500Y38100D03*
X190500Y12700D03*
X215900Y38100D03*
X215900Y12700D03*
X241300Y38100D03*
X241300Y12700D03*
X266700Y38100D03*
X266700Y12700D03*
X292100Y38100D03*
X292100Y12700D03*
X317500Y38100D03*
X317500Y12700D03*
D37*
X368300Y88900D03*
X393700Y88900D03*
X368300Y114300D03*
X393700Y114300D03*
X368300Y139700D03*
X393700Y139700D03*
X368300Y165100D03*
X393700Y165100D03*
X368300Y190500D03*
X393700Y190500D03*
X368300Y215900D03*
X393700Y215900D03*
X368300Y241300D03*
X393700Y241300D03*
X368300Y266700D03*
X393700Y266700D03*
X368300Y292100D03*
X393700Y292100D03*
X368300Y317500D03*
X393700Y317500D03*
D38*
X317500Y368300D03*
X317500Y393700D03*
X292100Y368300D03*
X292100Y393700D03*
X266700Y368300D03*
X266700Y393700D03*
X241300Y368300D03*
X241300Y393700D03*
X215900Y368300D03*
X215900Y393700D03*
X190500Y368300D03*
X190500Y393700D03*
X165100Y368300D03*
X165100Y393700D03*
X139700Y368300D03*
X139700Y393700D03*
X114300Y368300D03*
X114300Y393700D03*
X88900Y368300D03*
X88900Y393700D03*
D39*
X38100Y317500D03*
X12700Y317500D03*
X38100Y292100D03*
X12700Y292100D03*
X38100Y266700D03*
X12700Y266700D03*
X38100Y241300D03*
X12700Y241300D03*
X38100Y215900D03*
X12700Y215900D03*
X38100Y190500D03*
X12700Y190500D03*
X38100Y165100D03*
X12700Y165100D03*
X38100Y139700D03*
X12700Y139700D03*
X38100Y114300D03*
X12700Y114300D03*
X38100Y88900D03*
X12700Y88900D03*
D40*
G36*
X60331Y49725D02*
X51139Y40533D01*
X40533Y51139D01*
X49725Y60331D01*
X60331Y49725D01*
G37*
G36*
X73767Y63161D02*
X64575Y53969D01*
X53969Y64575D01*
X63161Y73767D01*
X73767Y63161D01*
G37*
D36*
X35560Y35560D03*
X78740Y78740D03*
D40*
G36*
X64575Y352431D02*
X73767Y343239D01*
X63161Y332633D01*
X53969Y341825D01*
X64575Y352431D01*
G37*
G36*
X51139Y365867D02*
X60331Y356675D01*
X49725Y346069D01*
X40533Y355261D01*
X51139Y365867D01*
G37*
D36*
X78740Y327660D03*
X35560Y370840D03*
D40*
G36*
X341825Y53969D02*
X332633Y63161D01*
X343239Y73767D01*
X352431Y64575D01*
X341825Y53969D01*
G37*
G36*
X355261Y40533D02*
X346069Y49725D01*
X356675Y60331D01*
X365867Y51139D01*
X355261Y40533D01*
G37*
D36*
X327660Y78740D03*
X370840Y35560D03*
D40*
G36*
X352431Y341825D02*
X343239Y332633D01*
X332633Y343239D01*
X341825Y352431D01*
X352431Y341825D01*
G37*
G36*
X365867Y355261D02*
X356675Y346069D01*
X346069Y356675D01*
X355261Y365867D01*
X365867Y355261D01*
G37*
D36*
X327660Y327660D03*
X370840Y370840D03*
D41*
X127640Y105640D02*
X127640Y84460D01*
X88900Y45720D01*
X88900Y38100D01*
X135640Y79760D02*
X135640Y105640D01*
X135640Y79760D02*
X101600Y45720D01*
X101600Y25400D01*
X88900Y12700D01*
X143640Y75060D02*
X143640Y105640D01*
X143640Y75060D02*
X114300Y45720D01*
X114300Y38100D01*
X151640Y70360D02*
X151640Y105640D01*
X151640Y70360D02*
X127000Y45720D01*
X127000Y25400D01*
X114300Y12700D01*
X159640Y65660D02*
X159640Y105640D01*
X159640Y65660D02*
X139700Y45720D01*
X139700Y38100D01*
X167640Y60960D02*
X167640Y105640D01*
X167640Y60960D02*
X152400Y45720D01*
X152400Y25400D01*
X139700Y12700D01*
X175640Y56260D02*
X175640Y105640D01*
X175640Y56260D02*
X165100Y45720D01*
X165100Y38100D01*
X183640Y51560D02*
X183640Y105640D01*
X183640Y51560D02*
X177800Y45720D01*
X177800Y25400D01*
X165100Y12700D01*
X191640Y39240D02*
X191640Y105640D01*
X191640Y39240D02*
X190500Y38100D01*
X199640Y49280D02*
X199640Y105640D01*
X199640Y49280D02*
X203200Y45720D01*
X203200Y25400D01*
X190500Y12700D01*
X207640Y51440D02*
X207640Y105640D01*
X207640Y51440D02*
X215900Y43180D01*
X215900Y38100D01*
X215640Y58680D02*
X215640Y105640D01*
X215640Y58680D02*
X228600Y45720D01*
X228600Y25400D01*
X215900Y12700D01*
X223640Y63380D02*
X223640Y105640D01*
X223640Y63380D02*
X241300Y45720D01*
X241300Y38100D01*
X231640Y68080D02*
X231640Y105640D01*
X231640Y68080D02*
X254000Y45720D01*
X254000Y25400D01*
X241300Y12700D01*
X239640Y72780D02*
X239640Y105640D01*
X239640Y72780D02*
X266700Y45720D01*
X266700Y38100D01*
X247640Y77480D02*
X247640Y105640D01*
X247640Y77480D02*
X279400Y45720D01*
X279400Y25400D01*
X266700Y12700D01*
X255640Y82180D02*
X255640Y105640D01*
X255640Y82180D02*
X292100Y45720D01*
X292100Y38100D01*
X263640Y86880D02*
X263640Y105640D01*
X263640Y86880D02*
X304800Y45720D01*
X304800Y25400D01*
X292100Y12700D01*
X271640Y91580D02*
X271640Y105640D01*
X271640Y91580D02*
X317500Y45720D01*
X317500Y38100D01*
X330200Y25400D02*
X330200Y55880D01*
X330200Y25400D02*
X317500Y12700D01*
X330200Y55880D02*
X284480Y101600D01*
X279640Y101600D01*
X279640Y105640D01*
X253640Y127640D02*
X321940Y127640D01*
X360680Y88900D01*
X368300Y88900D01*
X326640Y135640D02*
X253640Y135640D01*
X326640Y135640D02*
X360680Y101600D01*
X381000Y101600D01*
X393700Y88900D01*
X331340Y143640D02*
X253640Y143640D01*
X331340Y143640D02*
X360680Y114300D01*
X368300Y114300D01*
X336040Y151640D02*
X253640Y151640D01*
X336040Y151640D02*
X360680Y127000D01*
X381000Y127000D01*
X393700Y114300D01*
X340740Y159640D02*
X253640Y159640D01*
X340740Y159640D02*
X360680Y139700D01*
X368300Y139700D01*
X345440Y167640D02*
X253640Y167640D01*
X345440Y167640D02*
X360680Y152400D01*
X381000Y152400D01*
X393700Y139700D01*
X350140Y175640D02*
X253640Y175640D01*
X350140Y175640D02*
X360680Y165100D01*
X368300Y165100D01*
X354840Y183640D02*
X253640Y183640D01*
X354840Y183640D02*
X360680Y177800D01*
X381000Y177800D01*
X393700Y165100D01*
X367160Y191640D02*
X257640Y191640D01*
X367160Y191640D02*
X368300Y190500D01*
X357120Y199640D02*
X261640Y199640D01*
X357120Y199640D02*
X360680Y203200D01*
X381000Y203200D01*
X393700Y190500D01*
X354960Y207640D02*
X265640Y207640D01*
X354960Y207640D02*
X363220Y215900D01*
X368300Y215900D01*
X347720Y215640D02*
X269640Y215640D01*
X347720Y215640D02*
X360680Y228600D01*
X381000Y228600D01*
X393700Y215900D01*
X343020Y223640D02*
X273640Y223640D01*
X343020Y223640D02*
X360680Y241300D01*
X368300Y241300D01*
X338320Y231640D02*
X277640Y231640D01*
X338320Y231640D02*
X360680Y254000D01*
X381000Y254000D01*
X393700Y241300D01*
X333620Y239640D02*
X281640Y239640D01*
X333620Y239640D02*
X360680Y266700D01*
X368300Y266700D01*
X328920Y247640D02*
X285640Y247640D01*
X328920Y247640D02*
X360680Y279400D01*
X381000Y279400D01*
X393700Y266700D01*
X324220Y255640D02*
X289640Y255640D01*
X324220Y255640D02*
X360680Y292100D01*
X368300Y292100D01*
X319520Y263640D02*
X293640Y263640D01*
X319520Y263640D02*
X360680Y304800D01*
X381000Y304800D01*
X393700Y292100D01*
X314820Y271640D02*
X297640Y271640D01*
X314820Y271640D02*
X360680Y317500D01*
X368300Y317500D01*
X350520Y330200D02*
X304180Y283860D01*
X350520Y330200D02*
X381000Y330200D01*
X393700Y317500D01*
X304180Y283860D02*
X304180Y279640D01*
X301640Y279640D01*
X279640Y301640D02*
X279640Y322820D01*
X317500Y360680D01*
X317500Y368300D01*
X271640Y327520D02*
X271640Y297640D01*
X271640Y327520D02*
X304800Y360680D01*
X304800Y381000D01*
X317500Y393700D01*
X263640Y332220D02*
X263640Y293640D01*
X263640Y332220D02*
X292100Y360680D01*
X292100Y368300D01*
X255640Y336920D02*
X255640Y289640D01*
X255640Y336920D02*
X279400Y360680D01*
X279400Y381000D01*
X292100Y393700D01*
X247640Y341620D02*
X247640Y285640D01*
X247640Y341620D02*
X266700Y360680D01*
X266700Y368300D01*
X239640Y346320D02*
X239640Y281640D01*
X239640Y346320D02*
X254000Y360680D01*
X254000Y381000D01*
X266700Y393700D01*
X231640Y351020D02*
X231640Y277640D01*
X231640Y351020D02*
X241300Y360680D01*
X241300Y368300D01*
X223640Y355720D02*
X223640Y273640D01*
X223640Y355720D02*
X228600Y360680D01*
X228600Y381000D01*
X241300Y393700D01*
X215640Y368040D02*
X215640Y269640D01*
X215640Y368040D02*
X215900Y368300D01*
X207640Y356240D02*
X207640Y265640D01*
X207640Y356240D02*
X203200Y360680D01*
X203200Y381000D01*
X215900Y393700D01*
X199640Y354080D02*
X199640Y261640D01*
X199640Y354080D02*
X190500Y363220D01*
X190500Y368300D01*
X191640Y346840D02*
X191640Y257640D01*
X191640Y346840D02*
X177800Y360680D01*
X177800Y381000D01*
X190500Y393700D01*
X183640Y342140D02*
X183640Y253640D01*
X183640Y342140D02*
X165100Y360680D01*
X165100Y368300D01*
X175640Y337440D02*
X175640Y253640D01*
X175640Y337440D02*
X152400Y360680D01*
X152400Y381000D01*
X165100Y393700D01*
X167640Y332740D02*
X167640Y253640D01*
X167640Y332740D02*
X139700Y360680D01*
X139700Y368300D01*
X159640Y328040D02*
X159640Y253640D01*
X159640Y328040D02*
X127000Y360680D01*
X127000Y381000D01*
X139700Y393700D01*
X151640Y323340D02*
X151640Y253640D01*
X151640Y323340D02*
X114300Y360680D01*
X114300Y368300D01*
X143640Y318640D02*
X143640Y253640D01*
X143640Y318640D02*
X101600Y360680D01*
X101600Y381000D01*
X114300Y393700D01*
X135640Y313940D02*
X135640Y253640D01*
X135640Y313940D02*
X88900Y360680D01*
X88900Y368300D01*
X127640Y301620D02*
X127640Y253640D01*
X127640Y301620D02*
X127000Y302260D01*
X121920Y304800D02*
X76200Y350520D01*
X76200Y381000D01*
X88900Y393700D01*
X121920Y304800D02*
X127640Y304800D01*
X127640Y301620D01*
X105640Y279640D02*
X83580Y279640D01*
X45720Y317500D01*
X38100Y317500D01*
X78880Y271640D02*
X105640Y271640D01*
X78880Y271640D02*
X45720Y304800D01*
X25400Y304800D01*
X12700Y317500D01*
X74180Y263640D02*
X105640Y263640D01*
X74180Y263640D02*
X45720Y292100D01*
X38100Y292100D01*
X69480Y255640D02*
X105640Y255640D01*
X69480Y255640D02*
X45720Y279400D01*
X25400Y279400D01*
X12700Y292100D01*
X64780Y247640D02*
X105640Y247640D01*
X64780Y247640D02*
X45720Y266700D01*
X38100Y266700D01*
X60080Y239640D02*
X105640Y239640D01*
X60080Y239640D02*
X45720Y254000D01*
X25400Y254000D01*
X12700Y266700D01*
X55380Y231640D02*
X105640Y231640D01*
X55380Y231640D02*
X45720Y241300D01*
X38100Y241300D01*
X50680Y223640D02*
X105640Y223640D01*
X50680Y223640D02*
X45720Y228600D01*
X25400Y228600D01*
X12700Y241300D01*
X38360Y215640D02*
X105640Y215640D01*
X38360Y215640D02*
X38100Y215900D01*
X50160Y207640D02*
X105640Y207640D01*
X50160Y207640D02*
X45720Y203200D01*
X25400Y203200D01*
X12700Y215900D01*
X52320Y199640D02*
X105640Y199640D01*
X52320Y199640D02*
X43180Y190500D01*
X38100Y190500D01*
X59560Y191640D02*
X105640Y191640D01*
X59560Y191640D02*
X45720Y177800D01*
X25400Y177800D01*
X12700Y190500D01*
X64260Y183640D02*
X105640Y183640D01*
X64260Y183640D02*
X45720Y165100D01*
X38100Y165100D01*
X68960Y175640D02*
X105640Y175640D01*
X68960Y175640D02*
X45720Y152400D01*
X25400Y152400D01*
X12700Y165100D01*
X73660Y167640D02*
X105640Y167640D01*
X73660Y167640D02*
X45720Y139700D01*
X38100Y139700D01*
X78360Y159640D02*
X105640Y159640D01*
X78360Y159640D02*
X45720Y127000D01*
X25400Y127000D01*
X12700Y139700D01*
X83060Y151640D02*
X105640Y151640D01*
X83060Y151640D02*
X45720Y114300D01*
X38100Y114300D01*
X87760Y143640D02*
X105640Y143640D01*
X87760Y143640D02*
X45720Y101600D01*
X25400Y101600D01*
X12700Y114300D01*
X92460Y135640D02*
X105640Y135640D01*
X92460Y135640D02*
X45720Y88900D01*
X38100Y88900D01*
X25400Y76200D02*
X12700Y88900D01*
X25400Y76200D02*
X55880Y76200D01*
X101600Y121920D01*
X101600Y127640D01*
X105640Y127640D01*
D42*
X50432Y50432D02*
X35560Y35560D01*
X63868Y63868D02*
X78740Y78740D01*
X78740Y327660D02*
X63868Y342532D01*
X35560Y370839D02*
X35560Y370840D01*
X35560Y370839D02*
X50432Y355968D01*
X327660Y78740D02*
X342532Y63868D01*
X355968Y50432D02*
X370840Y35560D01*
X327660Y327660D02*
X342532Y342532D01*
X355968Y355968D02*
X370840Y370840D01*
M02*
