G75*
G70*
%OFA0B0*%
%FSLAX24Y24*%
%IPPOS*%
%LPD*%
%AMOC8*
5,1,8,0,0,1.08239X$1,22.5*
%
%ADD10C,0.0640*%
%ADD11OC8,0.0640*%
%ADD12R,0.0340X0.0880*%
%ADD13R,0.0600X0.2836*%
%ADD14C,0.0580*%
D10*
X001181Y012355D02*
X001181Y012915D01*
X002181Y012915D02*
X002181Y012355D01*
X003181Y012355D02*
X003181Y012915D01*
X004181Y012915D02*
X004181Y012355D01*
X005181Y012355D02*
X005181Y012915D01*
X006181Y012915D02*
X006181Y012355D01*
X007181Y012355D02*
X007181Y012915D01*
X008181Y012915D02*
X008181Y012355D01*
X009181Y012355D02*
X009181Y012915D01*
X010181Y012915D02*
X010181Y012355D01*
X010181Y018355D02*
X010181Y018915D01*
X009181Y018915D02*
X009181Y018355D01*
X008181Y018355D02*
X008181Y018915D01*
X007181Y018915D02*
X007181Y018355D01*
X006181Y018355D02*
X006181Y018915D01*
X005181Y018915D02*
X005181Y018355D01*
X004181Y018355D02*
X004181Y018915D01*
X003181Y018915D02*
X003181Y018355D01*
X002181Y018355D02*
X002181Y018915D01*
X001181Y018915D02*
X001181Y018355D01*
D11*
X001181Y019635D03*
X001181Y021635D03*
X002181Y021635D03*
X002181Y019635D03*
X004181Y019635D03*
X005181Y019635D03*
X006181Y019635D03*
X007181Y019635D03*
X007181Y021635D03*
X006181Y021635D03*
X005181Y021635D03*
X004181Y021635D03*
X004181Y011635D03*
X005181Y011635D03*
X006181Y011635D03*
X007181Y011635D03*
X007181Y009635D03*
X006181Y009635D03*
X005181Y009635D03*
X004181Y009635D03*
X002181Y009635D03*
X002181Y011635D03*
X001181Y011635D03*
X001181Y009635D03*
X004431Y004885D03*
X005431Y004885D03*
X008931Y004885D03*
X009931Y004885D03*
X010181Y009635D03*
X009181Y009635D03*
X009181Y011635D03*
X010181Y011635D03*
X010181Y019635D03*
X009181Y019635D03*
X009181Y021635D03*
X010181Y021635D03*
D12*
X001431Y005925D03*
X001931Y005925D03*
X002431Y005925D03*
X002931Y005925D03*
X003431Y005925D03*
X003931Y005925D03*
X004431Y005925D03*
X004931Y005925D03*
X005931Y005925D03*
X006431Y005925D03*
X006931Y005925D03*
X007431Y005925D03*
X007931Y005925D03*
X008431Y005925D03*
X008931Y005925D03*
X009431Y005925D03*
X009431Y008345D03*
X008931Y008345D03*
X008431Y008345D03*
X007931Y008345D03*
X007431Y008345D03*
X006931Y008345D03*
X006431Y008345D03*
X005931Y008345D03*
X004931Y008345D03*
X004431Y008345D03*
X003931Y008345D03*
X003431Y008345D03*
X002931Y008345D03*
X002431Y008345D03*
X001931Y008345D03*
X001431Y008345D03*
D13*
X003181Y001660D03*
X004181Y001660D03*
X005181Y001660D03*
X006181Y001660D03*
X007181Y001660D03*
X008181Y001660D03*
D14*
X001931Y007135D03*
M02*
