%
M48
M72
T01C0.0200
T02C0.0236
T03C0.0320
T04C0.0400
T05C0.1260
%
T01
X16861Y5461
X25861Y8361
X27961Y8461
X27961Y7861
T02
X25861Y7361
X25161Y5661
T03
X31861Y6261
X31861Y7261
X34861Y7261
X34861Y6261
X34861Y8261
X31861Y8261
X31861Y9261
X34861Y9261
X19861Y10561
X19861Y11561
X8861Y9261
X5861Y9261
X4161Y9111
X3161Y9111
X2161Y9111
X5861Y8261
X8861Y8261
X8861Y7261
X8861Y6261
X5861Y6261
X4161Y6611
X3161Y6611
X2161Y6611
X5861Y7261
X4161Y11611
X3161Y11611
X2161Y11611
T04
X29111Y8011
X29111Y7011
X40061Y6661
X40061Y5661
X40061Y9261
X40061Y10261
X38861Y1511
X37861Y1511
X36861Y1511
X35861Y1511
X34361Y1511
X33361Y1511
X32361Y1511
X31361Y1511
X29861Y1511
X28861Y1511
X27861Y1511
X26861Y1511
X25361Y1511
X24361Y1511
X22861Y1511
X21861Y1511
X20861Y1511
X19861Y1511
X18361Y1511
X17361Y1511
X16361Y1511
X14861Y1511
X13861Y1511
X11861Y1511
X10861Y1511
X7861Y1511
X6861Y1511
X3861Y1511
X2861Y1511
T05
X961Y961
X961Y12061
X40761Y11961
X40861Y961
M30
