%
M48
M72
T01C0.0150
T02C0.0200
T03C0.0300
T04C0.0354
T05C0.0400
T06C0.1260
%
T01
X18191Y11562
X18591Y11962
X18991Y11862
X18291Y12262
X18091Y12862
X17891Y13162
X24891Y13562
T02
X23891Y13962
X24191Y14262
X24991Y14662
X25391Y15062
X25791Y14562
X26991Y15562
X26691Y15862
X26391Y16262
X25991Y16262
X24991Y16362
X23891Y16162
X23491Y15462
X22791Y16162
X22988Y16562
X20691Y17362
X20391Y18362
X18891Y17462
X18091Y17362
X16991Y17462
X16491Y17462
X16891Y16862
X15743Y17569
X14256Y17705
X13771Y17214
X13308Y17732
X11608Y16026
X11140Y15436
X9985Y15404
X9467Y14919
X10428Y13854
X11172Y12792
X9422Y11917
X7547Y11667
X7672Y12792
X10091Y10262
X11791Y9462
X12691Y9962
X13394Y9962
X14046Y9962
X15291Y10362
X15791Y10162
X16191Y10162
X17091Y10262
X17591Y10262
X18028Y10062
X18391Y10262
X19391Y9962
X19391Y9062
X19391Y7562
X17091Y9062
X15091Y7862
X12453Y6719
X11272Y6916
X10485Y6325
X9500Y7113
X11863Y6129
X14422Y5262
X15529Y4862
X17029Y5369
X19032Y5762
X20306Y5847
X25191Y8062
X26891Y6562
X28194Y6169
X29375Y8062
X27678Y8456
X26391Y10162
X25991Y11662
X25491Y11662
X24891Y12462
X23091Y13362
X21591Y13662
X20891Y13462
X21291Y13362
X21991Y12162
X21691Y11862
X21391Y11562
X22991Y11262
X21991Y9862
X17128Y11662
X16678Y12025
X16341Y11600
X15791Y11937
X15791Y12762
X16691Y13062
X16291Y13462
X15791Y13762
X15176Y14919
X13701Y13903
X13047Y12792
X15128Y11200
X15528Y10800
X18191Y14662
X18291Y15962
X19191Y15962
X22091Y14725
X22391Y14462
X22791Y14562
X26891Y12662
X29894Y12762
X30288Y14062
X30676Y15914
X27568Y16704
X27291Y16062
X26491Y17962
X25791Y19162
X30194Y18072
X36525Y19558
X33769Y22314
X18191Y20562
X16691Y21362
X15991Y21362
X15491Y19462
X12395Y15411
X5816Y19558
X8572Y22314
X5816Y6566
X9359Y4204
X8572Y3810
X10540Y4204
X33769Y3810
X36525Y6566
T03
X29088Y13862
X9491Y16762
X9359Y7944
T04
X7489Y12196
X7489Y13929
T05
X10312Y21330
X11312Y21330
X12312Y21330
X13312Y21330
X14312Y21330
X20442Y21330
X21442Y21330
X22442Y21330
X23442Y21330
X24442Y21330
X25442Y21330
X28348Y21330
X29348Y21330
X33859Y17562
X34859Y17562
X34859Y16562
X33859Y16562
X33859Y15562
X34859Y15562
X34859Y14562
X33859Y14562
X33859Y13562
X34859Y13562
X34859Y12562
X33859Y12562
X33859Y11562
X34859Y11562
X34859Y10562
X33859Y10562
X33859Y9562
X34859Y9562
X34859Y8562
X33859Y8562
X29501Y4795
X28501Y4795
X27501Y4795
X26501Y4795
X25501Y4795
X24501Y4795
X23501Y4795
X22501Y4795
X21501Y4795
T06
X6997Y4991
X6997Y21133
X35344Y21133
X35344Y4991
M30
