G04 EAGLE Gerber RS-274X export*
G75*
%MOMM*%
%FSLAX34Y34*%
%LPD*%
%INBottom Copper*%
%IPPOS*%
%AMOC8*
5,1,8,0,0,1.08239X$1,22.5*%
G01*
%ADD10P,1.319650X8X202.500000*%
%ADD11P,1.649562X8X112.500000*%
%ADD12P,1.649562X8X22.500000*%
%ADD13R,0.762000X1.651000*%
%ADD14R,1.500000X1.300000*%
%ADD15C,0.787400*%
%ADD16C,0.254000*%
%ADD17C,0.914400*%
%ADD18C,1.006400*%

G36*
X170847Y10937D02*
X170847Y10937D01*
X170973Y10944D01*
X171019Y10957D01*
X171067Y10963D01*
X171186Y11005D01*
X171308Y11040D01*
X171350Y11064D01*
X171395Y11080D01*
X171502Y11149D01*
X171612Y11210D01*
X171658Y11250D01*
X171688Y11269D01*
X171722Y11304D01*
X171798Y11369D01*
X175321Y14892D01*
X175400Y14991D01*
X175484Y15085D01*
X175508Y15127D01*
X175538Y15165D01*
X175592Y15279D01*
X175653Y15390D01*
X175666Y15436D01*
X175687Y15480D01*
X175713Y15603D01*
X175748Y15725D01*
X175753Y15786D01*
X175760Y15821D01*
X175759Y15869D01*
X175767Y15969D01*
X175767Y26359D01*
X175756Y26459D01*
X175754Y26559D01*
X175736Y26631D01*
X175727Y26705D01*
X175694Y26799D01*
X175669Y26897D01*
X175635Y26963D01*
X175610Y27033D01*
X175555Y27118D01*
X175509Y27207D01*
X175461Y27263D01*
X175421Y27326D01*
X175349Y27396D01*
X175284Y27472D01*
X175224Y27516D01*
X175170Y27568D01*
X175084Y27620D01*
X175003Y27679D01*
X174935Y27709D01*
X174871Y27747D01*
X174775Y27778D01*
X174683Y27817D01*
X174610Y27831D01*
X174539Y27853D01*
X174439Y27861D01*
X174340Y27879D01*
X174266Y27875D01*
X174192Y27881D01*
X174092Y27866D01*
X173992Y27861D01*
X173921Y27841D01*
X173847Y27829D01*
X173754Y27792D01*
X173657Y27765D01*
X173592Y27728D01*
X173523Y27701D01*
X173441Y27644D01*
X173353Y27594D01*
X173277Y27529D01*
X173237Y27502D01*
X173213Y27475D01*
X173167Y27436D01*
X170368Y24637D01*
X162372Y24637D01*
X156717Y30292D01*
X156717Y38288D01*
X162621Y44192D01*
X162700Y44291D01*
X162784Y44385D01*
X162808Y44427D01*
X162838Y44465D01*
X162892Y44579D01*
X162953Y44690D01*
X162966Y44737D01*
X162987Y44780D01*
X163013Y44904D01*
X163048Y45025D01*
X163053Y45086D01*
X163060Y45121D01*
X163059Y45169D01*
X163067Y45269D01*
X163067Y155038D01*
X186592Y178563D01*
X255849Y178563D01*
X255975Y178577D01*
X256101Y178584D01*
X256148Y178597D01*
X256196Y178603D01*
X256314Y178645D01*
X256436Y178680D01*
X256478Y178704D01*
X256524Y178720D01*
X256630Y178789D01*
X256740Y178850D01*
X256786Y178890D01*
X256816Y178909D01*
X256850Y178944D01*
X256926Y179009D01*
X258238Y180321D01*
X260433Y181230D01*
X262807Y181230D01*
X265002Y180321D01*
X266681Y178642D01*
X267590Y176447D01*
X267590Y174073D01*
X266681Y171878D01*
X265002Y170199D01*
X262807Y169290D01*
X260433Y169290D01*
X258238Y170199D01*
X256926Y171511D01*
X256827Y171590D01*
X256734Y171674D01*
X256691Y171698D01*
X256653Y171728D01*
X256539Y171782D01*
X256428Y171843D01*
X256382Y171856D01*
X256338Y171877D01*
X256215Y171903D01*
X256093Y171938D01*
X256032Y171943D01*
X255998Y171950D01*
X255950Y171949D01*
X255849Y171957D01*
X189959Y171957D01*
X189833Y171943D01*
X189707Y171936D01*
X189661Y171923D01*
X189613Y171917D01*
X189494Y171875D01*
X189372Y171840D01*
X189330Y171816D01*
X189285Y171800D01*
X189178Y171731D01*
X189068Y171670D01*
X189022Y171630D01*
X188992Y171611D01*
X188958Y171576D01*
X188882Y171511D01*
X175763Y158393D01*
X175670Y158275D01*
X175573Y158160D01*
X175562Y158139D01*
X175547Y158120D01*
X175483Y157984D01*
X175414Y157850D01*
X175408Y157827D01*
X175398Y157805D01*
X175366Y157657D01*
X175330Y157512D01*
X175330Y157488D01*
X175325Y157464D01*
X175327Y157314D01*
X175325Y157163D01*
X175330Y157140D01*
X175331Y157115D01*
X175367Y156970D01*
X175399Y156823D01*
X175410Y156801D01*
X175416Y156777D01*
X175485Y156643D01*
X175549Y156508D01*
X175564Y156489D01*
X175575Y156468D01*
X175673Y156353D01*
X175766Y156236D01*
X175785Y156221D01*
X175801Y156202D01*
X175922Y156113D01*
X176040Y156020D01*
X176066Y156006D01*
X176081Y155995D01*
X176125Y155976D01*
X176258Y155908D01*
X177498Y155395D01*
X177523Y155387D01*
X177547Y155375D01*
X177690Y155340D01*
X177833Y155299D01*
X177859Y155298D01*
X177885Y155291D01*
X178033Y155289D01*
X178181Y155282D01*
X178207Y155287D01*
X178233Y155286D01*
X178378Y155318D01*
X178524Y155345D01*
X178548Y155355D01*
X178574Y155361D01*
X178707Y155424D01*
X178844Y155483D01*
X178865Y155499D01*
X178888Y155510D01*
X179004Y155603D01*
X179123Y155691D01*
X179140Y155711D01*
X179161Y155728D01*
X179253Y155844D01*
X179349Y155957D01*
X179361Y155981D01*
X179377Y156001D01*
X179488Y156219D01*
X180359Y158322D01*
X182038Y160001D01*
X184233Y160910D01*
X186607Y160910D01*
X188556Y160103D01*
X188581Y160095D01*
X188605Y160083D01*
X188749Y160048D01*
X188891Y160007D01*
X188917Y160006D01*
X188943Y159999D01*
X189091Y159997D01*
X189239Y159990D01*
X189265Y159995D01*
X189291Y159994D01*
X189436Y160026D01*
X189582Y160053D01*
X189606Y160063D01*
X189632Y160069D01*
X189765Y160132D01*
X189902Y160191D01*
X189923Y160207D01*
X189947Y160218D01*
X190062Y160311D01*
X190181Y160399D01*
X190198Y160419D01*
X190219Y160436D01*
X190311Y160552D01*
X190407Y160665D01*
X190419Y160689D01*
X190435Y160709D01*
X190506Y160849D01*
X192198Y162541D01*
X194393Y163450D01*
X196767Y163450D01*
X198962Y162541D01*
X200641Y160862D01*
X201550Y158667D01*
X201550Y156812D01*
X201564Y156686D01*
X201571Y156560D01*
X201584Y156514D01*
X201590Y156466D01*
X201632Y156347D01*
X201667Y156225D01*
X201691Y156183D01*
X201707Y156138D01*
X201776Y156031D01*
X201837Y155921D01*
X201877Y155875D01*
X201896Y155845D01*
X201931Y155811D01*
X201996Y155735D01*
X204790Y152941D01*
X204868Y152878D01*
X204941Y152809D01*
X205005Y152770D01*
X205063Y152724D01*
X205154Y152681D01*
X205240Y152630D01*
X205311Y152607D01*
X205378Y152575D01*
X205476Y152554D01*
X205572Y152524D01*
X205646Y152518D01*
X205719Y152502D01*
X205819Y152504D01*
X205919Y152496D01*
X205993Y152507D01*
X206067Y152508D01*
X206164Y152532D01*
X206264Y152547D01*
X206333Y152575D01*
X206405Y152593D01*
X206495Y152639D01*
X206588Y152676D01*
X206649Y152718D01*
X206715Y152753D01*
X206792Y152818D01*
X206874Y152875D01*
X206924Y152930D01*
X206980Y152978D01*
X207040Y153059D01*
X207107Y153134D01*
X207143Y153199D01*
X207188Y153259D01*
X207227Y153351D01*
X207276Y153439D01*
X207296Y153510D01*
X207326Y153579D01*
X207343Y153677D01*
X207371Y153774D01*
X207379Y153874D01*
X207387Y153922D01*
X207385Y153957D01*
X207390Y154018D01*
X207390Y156127D01*
X208299Y158322D01*
X209978Y160001D01*
X212173Y160910D01*
X214547Y160910D01*
X216742Y160001D01*
X218054Y158689D01*
X218153Y158610D01*
X218246Y158526D01*
X218289Y158502D01*
X218327Y158472D01*
X218441Y158418D01*
X218552Y158357D01*
X218598Y158344D01*
X218642Y158323D01*
X218765Y158297D01*
X218887Y158262D01*
X218948Y158257D01*
X218982Y158250D01*
X219030Y158251D01*
X219131Y158243D01*
X221647Y158243D01*
X221796Y158260D01*
X221946Y158272D01*
X221969Y158280D01*
X221993Y158283D01*
X222134Y158333D01*
X222278Y158379D01*
X222299Y158392D01*
X222321Y158400D01*
X222448Y158482D01*
X222576Y158559D01*
X222594Y158576D01*
X222614Y158589D01*
X222719Y158697D01*
X222826Y158802D01*
X222839Y158822D01*
X222856Y158840D01*
X222934Y158969D01*
X223015Y159095D01*
X223023Y159118D01*
X223035Y159139D01*
X223081Y159282D01*
X223131Y159424D01*
X223134Y159448D01*
X223141Y159471D01*
X223153Y159620D01*
X223170Y159770D01*
X223167Y159794D01*
X223169Y159818D01*
X223147Y159967D01*
X223129Y160116D01*
X223120Y160144D01*
X223118Y160163D01*
X223100Y160207D01*
X223054Y160349D01*
X222630Y161373D01*
X222630Y163747D01*
X223539Y165942D01*
X225218Y167621D01*
X227413Y168530D01*
X229787Y168530D01*
X231982Y167621D01*
X233294Y166309D01*
X233393Y166230D01*
X233486Y166146D01*
X233529Y166122D01*
X233567Y166092D01*
X233681Y166038D01*
X233791Y165977D01*
X233838Y165964D01*
X233882Y165943D01*
X234005Y165917D01*
X234127Y165882D01*
X234188Y165877D01*
X234222Y165870D01*
X234270Y165871D01*
X234371Y165863D01*
X252828Y165863D01*
X262383Y156308D01*
X262383Y148049D01*
X262397Y147923D01*
X262404Y147797D01*
X262417Y147751D01*
X262423Y147703D01*
X262465Y147584D01*
X262500Y147462D01*
X262524Y147420D01*
X262540Y147375D01*
X262609Y147268D01*
X262670Y147158D01*
X262710Y147112D01*
X262729Y147082D01*
X262764Y147048D01*
X262829Y146972D01*
X265750Y144051D01*
X265828Y143988D01*
X265901Y143919D01*
X265965Y143880D01*
X266023Y143834D01*
X266114Y143791D01*
X266200Y143740D01*
X266271Y143717D01*
X266338Y143685D01*
X266436Y143664D01*
X266532Y143634D01*
X266606Y143628D01*
X266679Y143612D01*
X266779Y143614D01*
X266879Y143606D01*
X266953Y143617D01*
X267027Y143618D01*
X267124Y143642D01*
X267224Y143657D01*
X267293Y143685D01*
X267365Y143703D01*
X267454Y143749D01*
X267548Y143786D01*
X267609Y143828D01*
X267675Y143863D01*
X267751Y143928D01*
X267834Y143985D01*
X267884Y144040D01*
X267940Y144088D01*
X268000Y144169D01*
X268067Y144244D01*
X268103Y144309D01*
X268148Y144369D01*
X268187Y144461D01*
X268236Y144549D01*
X268256Y144620D01*
X268286Y144689D01*
X268303Y144787D01*
X268331Y144884D01*
X268339Y144984D01*
X268347Y145032D01*
X268345Y145067D01*
X268350Y145128D01*
X268350Y145967D01*
X269259Y148162D01*
X270938Y149841D01*
X273133Y150750D01*
X274988Y150750D01*
X275114Y150764D01*
X275240Y150771D01*
X275286Y150784D01*
X275334Y150790D01*
X275453Y150832D01*
X275575Y150867D01*
X275617Y150891D01*
X275662Y150907D01*
X275769Y150976D01*
X275879Y151037D01*
X275925Y151077D01*
X275955Y151096D01*
X275989Y151131D01*
X276065Y151196D01*
X308512Y183643D01*
X349348Y183643D01*
X358046Y174945D01*
X358145Y174866D01*
X358239Y174782D01*
X358281Y174758D01*
X358319Y174728D01*
X358433Y174674D01*
X358544Y174613D01*
X358590Y174600D01*
X358634Y174579D01*
X358757Y174553D01*
X358879Y174518D01*
X358940Y174513D01*
X358975Y174506D01*
X359023Y174507D01*
X359123Y174499D01*
X365317Y174499D01*
X370079Y169737D01*
X370079Y163003D01*
X365379Y158303D01*
X365316Y158225D01*
X365247Y158152D01*
X365208Y158088D01*
X365162Y158030D01*
X365119Y157939D01*
X365068Y157853D01*
X365045Y157782D01*
X365013Y157715D01*
X364992Y157617D01*
X364962Y157521D01*
X364956Y157447D01*
X364940Y157374D01*
X364942Y157274D01*
X364934Y157174D01*
X364945Y157100D01*
X364946Y157026D01*
X364970Y156929D01*
X364985Y156829D01*
X365013Y156760D01*
X365031Y156688D01*
X365077Y156598D01*
X365114Y156505D01*
X365156Y156444D01*
X365191Y156378D01*
X365256Y156301D01*
X365313Y156219D01*
X365368Y156169D01*
X365416Y156113D01*
X365497Y156053D01*
X365572Y155986D01*
X365637Y155950D01*
X365697Y155905D01*
X365789Y155866D01*
X365877Y155817D01*
X365948Y155797D01*
X366017Y155767D01*
X366115Y155750D01*
X366212Y155722D01*
X366312Y155714D01*
X366360Y155706D01*
X366395Y155708D01*
X366456Y155703D01*
X382844Y155703D01*
X382944Y155714D01*
X383044Y155716D01*
X383116Y155734D01*
X383190Y155743D01*
X383285Y155776D01*
X383382Y155801D01*
X383448Y155835D01*
X383518Y155860D01*
X383603Y155915D01*
X383692Y155961D01*
X383749Y156009D01*
X383811Y156049D01*
X383881Y156121D01*
X383957Y156186D01*
X384002Y156246D01*
X384053Y156300D01*
X384105Y156386D01*
X384165Y156467D01*
X384194Y156535D01*
X384232Y156599D01*
X384263Y156695D01*
X384303Y156787D01*
X384316Y156860D01*
X384338Y156931D01*
X384347Y157031D01*
X384364Y157130D01*
X384360Y157204D01*
X384366Y157278D01*
X384352Y157378D01*
X384346Y157478D01*
X384326Y157549D01*
X384315Y157623D01*
X384278Y157716D01*
X384250Y157813D01*
X384213Y157878D01*
X384186Y157947D01*
X384129Y158029D01*
X384080Y158117D01*
X384015Y158193D01*
X383987Y158233D01*
X383961Y158257D01*
X383921Y158303D01*
X379221Y163003D01*
X379221Y169737D01*
X383983Y174499D01*
X390717Y174499D01*
X395479Y169737D01*
X395479Y163003D01*
X390779Y158303D01*
X390716Y158225D01*
X390647Y158152D01*
X390608Y158088D01*
X390562Y158030D01*
X390519Y157939D01*
X390468Y157853D01*
X390445Y157782D01*
X390413Y157715D01*
X390392Y157617D01*
X390362Y157521D01*
X390356Y157447D01*
X390340Y157374D01*
X390342Y157274D01*
X390334Y157174D01*
X390345Y157100D01*
X390346Y157026D01*
X390370Y156929D01*
X390385Y156829D01*
X390413Y156760D01*
X390431Y156688D01*
X390477Y156598D01*
X390514Y156505D01*
X390556Y156444D01*
X390591Y156378D01*
X390656Y156301D01*
X390713Y156219D01*
X390768Y156169D01*
X390816Y156113D01*
X390897Y156053D01*
X390972Y155986D01*
X391037Y155950D01*
X391097Y155905D01*
X391189Y155866D01*
X391277Y155817D01*
X391348Y155797D01*
X391417Y155767D01*
X391515Y155750D01*
X391612Y155722D01*
X391712Y155714D01*
X391760Y155706D01*
X391795Y155708D01*
X391856Y155703D01*
X396781Y155703D01*
X396907Y155717D01*
X397033Y155724D01*
X397079Y155737D01*
X397127Y155743D01*
X397246Y155785D01*
X397368Y155820D01*
X397410Y155844D01*
X397455Y155860D01*
X397562Y155929D01*
X397672Y155990D01*
X397718Y156030D01*
X397748Y156049D01*
X397782Y156084D01*
X397858Y156149D01*
X404175Y162466D01*
X404254Y162565D01*
X404338Y162659D01*
X404362Y162701D01*
X404392Y162739D01*
X404446Y162853D01*
X404507Y162964D01*
X404520Y163010D01*
X404541Y163054D01*
X404567Y163177D01*
X404602Y163299D01*
X404607Y163360D01*
X404614Y163395D01*
X404613Y163443D01*
X404621Y163543D01*
X404621Y169737D01*
X409383Y174499D01*
X416117Y174499D01*
X420879Y169737D01*
X420879Y163003D01*
X416117Y158241D01*
X409923Y158241D01*
X409797Y158227D01*
X409671Y158220D01*
X409625Y158207D01*
X409577Y158201D01*
X409458Y158159D01*
X409336Y158124D01*
X409294Y158100D01*
X409249Y158084D01*
X409142Y158015D01*
X409032Y157954D01*
X408986Y157914D01*
X408956Y157895D01*
X408922Y157860D01*
X408846Y157795D01*
X401734Y150683D01*
X401671Y150605D01*
X401602Y150532D01*
X401563Y150468D01*
X401517Y150410D01*
X401474Y150319D01*
X401423Y150233D01*
X401400Y150162D01*
X401368Y150095D01*
X401347Y149997D01*
X401317Y149901D01*
X401311Y149827D01*
X401295Y149754D01*
X401297Y149654D01*
X401289Y149554D01*
X401300Y149480D01*
X401301Y149406D01*
X401325Y149309D01*
X401340Y149209D01*
X401368Y149140D01*
X401386Y149068D01*
X401432Y148978D01*
X401469Y148885D01*
X401511Y148824D01*
X401546Y148758D01*
X401611Y148681D01*
X401668Y148599D01*
X401723Y148549D01*
X401771Y148493D01*
X401852Y148433D01*
X401927Y148366D01*
X401992Y148330D01*
X402052Y148285D01*
X402144Y148246D01*
X402232Y148197D01*
X402303Y148177D01*
X402372Y148147D01*
X402470Y148130D01*
X402567Y148102D01*
X402667Y148094D01*
X402715Y148086D01*
X402750Y148088D01*
X402811Y148083D01*
X439961Y148083D01*
X440087Y148097D01*
X440213Y148104D01*
X440259Y148117D01*
X440307Y148123D01*
X440426Y148165D01*
X440548Y148200D01*
X440590Y148224D01*
X440635Y148240D01*
X440742Y148309D01*
X440852Y148370D01*
X440898Y148410D01*
X440928Y148429D01*
X440962Y148464D01*
X441038Y148529D01*
X454975Y162466D01*
X455054Y162565D01*
X455138Y162659D01*
X455162Y162701D01*
X455192Y162739D01*
X455246Y162853D01*
X455307Y162964D01*
X455320Y163010D01*
X455341Y163054D01*
X455367Y163177D01*
X455402Y163299D01*
X455407Y163360D01*
X455414Y163395D01*
X455413Y163443D01*
X455421Y163543D01*
X455421Y169737D01*
X460183Y174499D01*
X466917Y174499D01*
X471679Y169737D01*
X471679Y163003D01*
X466917Y158241D01*
X460723Y158241D01*
X460597Y158227D01*
X460471Y158220D01*
X460425Y158207D01*
X460377Y158201D01*
X460258Y158159D01*
X460136Y158124D01*
X460094Y158100D01*
X460049Y158084D01*
X459942Y158015D01*
X459832Y157954D01*
X459786Y157914D01*
X459756Y157895D01*
X459722Y157860D01*
X459646Y157795D01*
X444914Y143063D01*
X444851Y142985D01*
X444782Y142912D01*
X444743Y142848D01*
X444697Y142790D01*
X444654Y142699D01*
X444603Y142613D01*
X444580Y142542D01*
X444548Y142475D01*
X444527Y142377D01*
X444497Y142281D01*
X444491Y142207D01*
X444475Y142134D01*
X444477Y142034D01*
X444469Y141934D01*
X444480Y141860D01*
X444481Y141786D01*
X444505Y141689D01*
X444520Y141589D01*
X444548Y141520D01*
X444566Y141448D01*
X444612Y141358D01*
X444649Y141265D01*
X444691Y141204D01*
X444726Y141138D01*
X444791Y141061D01*
X444848Y140979D01*
X444903Y140929D01*
X444951Y140873D01*
X445032Y140813D01*
X445107Y140746D01*
X445172Y140710D01*
X445232Y140665D01*
X445324Y140626D01*
X445412Y140577D01*
X445483Y140557D01*
X445552Y140527D01*
X445650Y140510D01*
X445747Y140482D01*
X445847Y140474D01*
X445895Y140466D01*
X445930Y140468D01*
X445991Y140463D01*
X483141Y140463D01*
X483267Y140477D01*
X483393Y140484D01*
X483439Y140497D01*
X483487Y140503D01*
X483606Y140545D01*
X483728Y140580D01*
X483770Y140604D01*
X483815Y140620D01*
X483922Y140689D01*
X484032Y140750D01*
X484078Y140790D01*
X484108Y140809D01*
X484142Y140844D01*
X484218Y140909D01*
X505775Y162466D01*
X505854Y162565D01*
X505938Y162659D01*
X505962Y162701D01*
X505992Y162739D01*
X506046Y162853D01*
X506107Y162964D01*
X506120Y163010D01*
X506141Y163054D01*
X506167Y163177D01*
X506202Y163299D01*
X506207Y163360D01*
X506214Y163395D01*
X506213Y163443D01*
X506221Y163543D01*
X506221Y169737D01*
X510983Y174499D01*
X517717Y174499D01*
X522479Y169737D01*
X522479Y163003D01*
X517717Y158241D01*
X511523Y158241D01*
X511397Y158227D01*
X511271Y158220D01*
X511225Y158207D01*
X511177Y158201D01*
X511058Y158159D01*
X510936Y158124D01*
X510894Y158100D01*
X510849Y158084D01*
X510742Y158015D01*
X510632Y157954D01*
X510586Y157914D01*
X510556Y157895D01*
X510522Y157860D01*
X510446Y157795D01*
X488889Y136238D01*
X488094Y135443D01*
X488031Y135364D01*
X487962Y135292D01*
X487923Y135228D01*
X487877Y135170D01*
X487834Y135079D01*
X487783Y134993D01*
X487760Y134922D01*
X487728Y134855D01*
X487707Y134757D01*
X487677Y134661D01*
X487671Y134587D01*
X487655Y134514D01*
X487657Y134414D01*
X487649Y134314D01*
X487660Y134240D01*
X487661Y134166D01*
X487685Y134069D01*
X487700Y133969D01*
X487728Y133900D01*
X487746Y133828D01*
X487792Y133739D01*
X487829Y133645D01*
X487871Y133584D01*
X487905Y133518D01*
X487971Y133441D01*
X488028Y133359D01*
X488083Y133309D01*
X488131Y133253D01*
X488212Y133193D01*
X488287Y133126D01*
X488352Y133090D01*
X488412Y133045D01*
X488504Y133006D01*
X488592Y132957D01*
X488663Y132937D01*
X488732Y132907D01*
X488830Y132890D01*
X488927Y132862D01*
X489027Y132854D01*
X489075Y132846D01*
X489110Y132848D01*
X489171Y132843D01*
X526321Y132843D01*
X526447Y132857D01*
X526573Y132864D01*
X526619Y132877D01*
X526667Y132883D01*
X526786Y132925D01*
X526908Y132960D01*
X526950Y132984D01*
X526995Y133000D01*
X527102Y133069D01*
X527212Y133130D01*
X527258Y133170D01*
X527288Y133189D01*
X527322Y133224D01*
X527398Y133289D01*
X556575Y162466D01*
X556654Y162565D01*
X556738Y162659D01*
X556762Y162701D01*
X556792Y162739D01*
X556846Y162853D01*
X556907Y162964D01*
X556920Y163010D01*
X556941Y163054D01*
X556967Y163177D01*
X557002Y163299D01*
X557007Y163360D01*
X557014Y163395D01*
X557013Y163443D01*
X557021Y163543D01*
X557021Y169737D01*
X561783Y174499D01*
X568517Y174499D01*
X573279Y169737D01*
X573279Y163003D01*
X568517Y158241D01*
X562323Y158241D01*
X562197Y158227D01*
X562071Y158220D01*
X562025Y158207D01*
X561977Y158201D01*
X561858Y158159D01*
X561736Y158124D01*
X561694Y158100D01*
X561649Y158084D01*
X561542Y158015D01*
X561432Y157954D01*
X561386Y157914D01*
X561356Y157895D01*
X561322Y157860D01*
X561246Y157795D01*
X531274Y127823D01*
X531211Y127745D01*
X531142Y127672D01*
X531103Y127608D01*
X531057Y127550D01*
X531014Y127459D01*
X530963Y127373D01*
X530940Y127302D01*
X530908Y127235D01*
X530887Y127137D01*
X530857Y127041D01*
X530851Y126967D01*
X530835Y126894D01*
X530837Y126794D01*
X530829Y126694D01*
X530840Y126620D01*
X530841Y126546D01*
X530865Y126449D01*
X530880Y126349D01*
X530908Y126280D01*
X530926Y126208D01*
X530972Y126118D01*
X531009Y126025D01*
X531051Y125964D01*
X531086Y125898D01*
X531151Y125821D01*
X531208Y125739D01*
X531263Y125689D01*
X531311Y125633D01*
X531392Y125573D01*
X531467Y125506D01*
X531532Y125470D01*
X531592Y125425D01*
X531684Y125386D01*
X531772Y125337D01*
X531843Y125317D01*
X531912Y125287D01*
X532010Y125270D01*
X532107Y125242D01*
X532207Y125234D01*
X532255Y125226D01*
X532290Y125228D01*
X532351Y125223D01*
X539021Y125223D01*
X539147Y125237D01*
X539273Y125244D01*
X539319Y125257D01*
X539367Y125263D01*
X539486Y125305D01*
X539608Y125340D01*
X539650Y125364D01*
X539695Y125380D01*
X539802Y125449D01*
X539912Y125510D01*
X539958Y125550D01*
X539988Y125569D01*
X540022Y125604D01*
X540098Y125669D01*
X567592Y153163D01*
X597441Y153163D01*
X597567Y153177D01*
X597693Y153184D01*
X597739Y153197D01*
X597787Y153203D01*
X597906Y153245D01*
X598028Y153280D01*
X598070Y153304D01*
X598115Y153320D01*
X598222Y153389D01*
X598332Y153450D01*
X598378Y153490D01*
X598408Y153509D01*
X598442Y153544D01*
X598518Y153609D01*
X607375Y162466D01*
X607454Y162565D01*
X607538Y162659D01*
X607562Y162701D01*
X607592Y162739D01*
X607646Y162853D01*
X607707Y162964D01*
X607720Y163010D01*
X607741Y163054D01*
X607767Y163177D01*
X607802Y163299D01*
X607807Y163360D01*
X607814Y163395D01*
X607813Y163443D01*
X607821Y163543D01*
X607821Y169737D01*
X612583Y174499D01*
X619317Y174499D01*
X624079Y169737D01*
X624079Y163003D01*
X619317Y158241D01*
X613123Y158241D01*
X612997Y158227D01*
X612871Y158220D01*
X612825Y158207D01*
X612777Y158201D01*
X612658Y158159D01*
X612536Y158124D01*
X612494Y158100D01*
X612449Y158084D01*
X612342Y158015D01*
X612232Y157954D01*
X612186Y157914D01*
X612156Y157895D01*
X612122Y157860D01*
X612046Y157795D01*
X600808Y146557D01*
X570959Y146557D01*
X570833Y146543D01*
X570707Y146536D01*
X570661Y146523D01*
X570613Y146517D01*
X570494Y146475D01*
X570372Y146440D01*
X570330Y146416D01*
X570285Y146400D01*
X570178Y146331D01*
X570068Y146270D01*
X570022Y146230D01*
X569992Y146211D01*
X569958Y146176D01*
X569882Y146111D01*
X549054Y125283D01*
X548991Y125205D01*
X548922Y125132D01*
X548883Y125068D01*
X548837Y125010D01*
X548794Y124919D01*
X548743Y124833D01*
X548720Y124762D01*
X548688Y124695D01*
X548667Y124597D01*
X548637Y124501D01*
X548631Y124427D01*
X548615Y124354D01*
X548617Y124254D01*
X548609Y124154D01*
X548620Y124080D01*
X548621Y124006D01*
X548645Y123909D01*
X548660Y123809D01*
X548688Y123740D01*
X548706Y123668D01*
X548752Y123578D01*
X548789Y123485D01*
X548831Y123424D01*
X548866Y123358D01*
X548931Y123281D01*
X548988Y123199D01*
X549043Y123149D01*
X549091Y123093D01*
X549172Y123033D01*
X549247Y122966D01*
X549312Y122930D01*
X549372Y122885D01*
X549464Y122846D01*
X549552Y122797D01*
X549623Y122777D01*
X549692Y122747D01*
X549790Y122730D01*
X549887Y122702D01*
X549987Y122694D01*
X550035Y122686D01*
X550070Y122688D01*
X550131Y122683D01*
X564421Y122683D01*
X564547Y122697D01*
X564673Y122704D01*
X564719Y122717D01*
X564767Y122723D01*
X564886Y122765D01*
X565008Y122800D01*
X565050Y122824D01*
X565095Y122840D01*
X565202Y122909D01*
X565312Y122970D01*
X565358Y123010D01*
X565388Y123029D01*
X565422Y123064D01*
X565498Y123129D01*
X572704Y130335D01*
X572783Y130434D01*
X572867Y130528D01*
X572891Y130570D01*
X572921Y130608D01*
X572975Y130722D01*
X573036Y130833D01*
X573049Y130879D01*
X573070Y130923D01*
X573096Y131046D01*
X573131Y131168D01*
X573136Y131229D01*
X573143Y131264D01*
X573142Y131312D01*
X573150Y131412D01*
X573150Y133267D01*
X574059Y135462D01*
X575738Y137141D01*
X577933Y138050D01*
X580307Y138050D01*
X582502Y137141D01*
X584181Y135462D01*
X585090Y133267D01*
X585090Y130893D01*
X584181Y128698D01*
X582502Y127019D01*
X580307Y126110D01*
X578452Y126110D01*
X578326Y126096D01*
X578200Y126089D01*
X578154Y126076D01*
X578106Y126070D01*
X577987Y126028D01*
X577865Y125993D01*
X577823Y125969D01*
X577778Y125953D01*
X577671Y125884D01*
X577561Y125823D01*
X577515Y125783D01*
X577485Y125764D01*
X577451Y125729D01*
X577375Y125664D01*
X567788Y116077D01*
X316757Y116077D01*
X316755Y116077D01*
X316753Y116077D01*
X316579Y116057D01*
X316411Y116037D01*
X316409Y116037D01*
X316407Y116036D01*
X316174Y115961D01*
X316147Y115950D01*
X313773Y115950D01*
X313746Y115961D01*
X313744Y115962D01*
X313742Y115963D01*
X313630Y115995D01*
X313588Y116013D01*
X313529Y116023D01*
X313411Y116057D01*
X313409Y116057D01*
X313407Y116058D01*
X313281Y116068D01*
X313245Y116074D01*
X313218Y116073D01*
X313163Y116077D01*
X313149Y116077D01*
X313103Y116072D01*
X313063Y116074D01*
X312993Y116061D01*
X312897Y116056D01*
X312851Y116043D01*
X312803Y116037D01*
X312741Y116015D01*
X312720Y116011D01*
X312677Y115993D01*
X312562Y115960D01*
X312520Y115936D01*
X312475Y115920D01*
X312404Y115874D01*
X312400Y115872D01*
X312393Y115867D01*
X312368Y115851D01*
X312258Y115790D01*
X312212Y115750D01*
X312182Y115731D01*
X312148Y115696D01*
X312072Y115631D01*
X304866Y108425D01*
X304787Y108326D01*
X304703Y108232D01*
X304679Y108190D01*
X304649Y108152D01*
X304595Y108038D01*
X304534Y107927D01*
X304521Y107881D01*
X304500Y107837D01*
X304474Y107714D01*
X304439Y107592D01*
X304434Y107531D01*
X304427Y107496D01*
X304428Y107448D01*
X304420Y107348D01*
X304420Y105493D01*
X303511Y103298D01*
X301832Y101619D01*
X299637Y100710D01*
X297263Y100710D01*
X295068Y101619D01*
X293812Y102875D01*
X293792Y102892D01*
X293775Y102912D01*
X293655Y103000D01*
X293539Y103092D01*
X293515Y103103D01*
X293494Y103119D01*
X293358Y103178D01*
X293224Y103241D01*
X293198Y103246D01*
X293174Y103257D01*
X293028Y103283D01*
X292883Y103314D01*
X292857Y103314D01*
X292831Y103319D01*
X292683Y103311D01*
X292535Y103308D01*
X292509Y103302D01*
X292483Y103301D01*
X292341Y103260D01*
X292197Y103223D01*
X292174Y103211D01*
X292148Y103204D01*
X292019Y103132D01*
X291887Y103064D01*
X291867Y103047D01*
X291844Y103034D01*
X291658Y102875D01*
X290402Y101619D01*
X288207Y100710D01*
X285833Y100710D01*
X283638Y101619D01*
X283017Y102240D01*
X282997Y102257D01*
X282980Y102277D01*
X282860Y102365D01*
X282744Y102457D01*
X282720Y102468D01*
X282699Y102484D01*
X282563Y102543D01*
X282429Y102606D01*
X282403Y102611D01*
X282379Y102622D01*
X282233Y102648D01*
X282088Y102679D01*
X282062Y102679D01*
X282036Y102684D01*
X281888Y102676D01*
X281740Y102673D01*
X281714Y102667D01*
X281688Y102666D01*
X281546Y102625D01*
X281402Y102588D01*
X281378Y102576D01*
X281353Y102569D01*
X281224Y102497D01*
X281092Y102429D01*
X281072Y102412D01*
X281049Y102399D01*
X280863Y102240D01*
X280242Y101619D01*
X278047Y100710D01*
X275673Y100710D01*
X273478Y101619D01*
X271587Y103510D01*
X271567Y103527D01*
X271550Y103547D01*
X271430Y103635D01*
X271314Y103727D01*
X271290Y103738D01*
X271269Y103754D01*
X271133Y103813D01*
X270999Y103876D01*
X270973Y103881D01*
X270949Y103892D01*
X270803Y103918D01*
X270658Y103949D01*
X270632Y103949D01*
X270606Y103954D01*
X270458Y103946D01*
X270310Y103943D01*
X270284Y103937D01*
X270258Y103936D01*
X270116Y103895D01*
X269972Y103858D01*
X269949Y103846D01*
X269923Y103839D01*
X269794Y103767D01*
X269662Y103699D01*
X269642Y103682D01*
X269619Y103669D01*
X269433Y103510D01*
X267531Y101609D01*
X267432Y101549D01*
X267303Y101477D01*
X267283Y101459D01*
X267260Y101446D01*
X267154Y101342D01*
X267044Y101243D01*
X267029Y101221D01*
X267010Y101203D01*
X266930Y101078D01*
X266846Y100956D01*
X266836Y100932D01*
X266822Y100910D01*
X266773Y100770D01*
X266718Y100632D01*
X266714Y100606D01*
X266706Y100581D01*
X266689Y100434D01*
X266667Y100287D01*
X266670Y100261D01*
X266667Y100235D01*
X266684Y100088D01*
X266696Y99940D01*
X266704Y99915D01*
X266707Y99889D01*
X266783Y99656D01*
X267590Y97707D01*
X267590Y95333D01*
X266681Y93138D01*
X265002Y91459D01*
X262618Y90472D01*
X262486Y90399D01*
X262353Y90330D01*
X262334Y90314D01*
X262313Y90302D01*
X262202Y90201D01*
X262087Y90104D01*
X262073Y90084D01*
X262055Y90068D01*
X261969Y89945D01*
X261880Y89824D01*
X261870Y89801D01*
X261857Y89782D01*
X261802Y89642D01*
X261742Y89504D01*
X261738Y89480D01*
X261729Y89457D01*
X261707Y89309D01*
X261680Y89161D01*
X261682Y89136D01*
X261678Y89113D01*
X261691Y88962D01*
X261698Y88813D01*
X261705Y88789D01*
X261707Y88765D01*
X261753Y88622D01*
X261795Y88478D01*
X261807Y88457D01*
X261814Y88434D01*
X261892Y88305D01*
X261965Y88174D01*
X261984Y88151D01*
X261994Y88135D01*
X262027Y88101D01*
X262123Y87987D01*
X264923Y85188D01*
X264923Y74351D01*
X264937Y74225D01*
X264944Y74099D01*
X264957Y74052D01*
X264963Y74004D01*
X265005Y73886D01*
X265040Y73764D01*
X265064Y73722D01*
X265080Y73676D01*
X265149Y73570D01*
X265210Y73460D01*
X265250Y73414D01*
X265269Y73384D01*
X265304Y73350D01*
X265369Y73274D01*
X266681Y71962D01*
X267590Y69767D01*
X267590Y67393D01*
X266681Y65198D01*
X265002Y63519D01*
X262807Y62610D01*
X260433Y62610D01*
X258238Y63519D01*
X256559Y65198D01*
X255650Y67393D01*
X255650Y69767D01*
X256559Y71962D01*
X257871Y73274D01*
X257950Y73373D01*
X258034Y73466D01*
X258058Y73509D01*
X258088Y73547D01*
X258142Y73661D01*
X258203Y73772D01*
X258216Y73818D01*
X258237Y73862D01*
X258263Y73985D01*
X258298Y74107D01*
X258303Y74168D01*
X258310Y74202D01*
X258309Y74250D01*
X258317Y74351D01*
X258317Y81821D01*
X258303Y81947D01*
X258296Y82073D01*
X258283Y82119D01*
X258277Y82167D01*
X258235Y82286D01*
X258200Y82408D01*
X258176Y82450D01*
X258160Y82495D01*
X258091Y82602D01*
X258030Y82712D01*
X257990Y82758D01*
X257971Y82788D01*
X257936Y82822D01*
X257871Y82898D01*
X209898Y130871D01*
X209799Y130950D01*
X209705Y131034D01*
X209663Y131058D01*
X209625Y131088D01*
X209511Y131142D01*
X209400Y131203D01*
X209354Y131216D01*
X209310Y131237D01*
X209187Y131263D01*
X209065Y131298D01*
X209004Y131303D01*
X208969Y131310D01*
X208921Y131309D01*
X208821Y131317D01*
X189132Y131317D01*
X186751Y133698D01*
X177005Y143444D01*
X176906Y143523D01*
X176812Y143607D01*
X176770Y143631D01*
X176732Y143661D01*
X176618Y143715D01*
X176507Y143776D01*
X176461Y143789D01*
X176417Y143810D01*
X176294Y143836D01*
X176172Y143871D01*
X176111Y143876D01*
X176076Y143883D01*
X176028Y143882D01*
X175928Y143890D01*
X174073Y143890D01*
X171779Y144840D01*
X171634Y144882D01*
X171491Y144927D01*
X171467Y144929D01*
X171444Y144936D01*
X171293Y144943D01*
X171144Y144955D01*
X171120Y144952D01*
X171096Y144953D01*
X170948Y144926D01*
X170799Y144904D01*
X170777Y144895D01*
X170753Y144890D01*
X170615Y144831D01*
X170475Y144775D01*
X170455Y144761D01*
X170433Y144752D01*
X170312Y144662D01*
X170189Y144576D01*
X170173Y144558D01*
X170153Y144544D01*
X170056Y144429D01*
X169956Y144317D01*
X169944Y144296D01*
X169928Y144278D01*
X169860Y144144D01*
X169787Y144012D01*
X169781Y143989D01*
X169770Y143967D01*
X169733Y143822D01*
X169692Y143677D01*
X169690Y143648D01*
X169685Y143629D01*
X169685Y143582D01*
X169673Y143433D01*
X169673Y45269D01*
X169687Y45144D01*
X169694Y45017D01*
X169707Y44971D01*
X169713Y44923D01*
X169755Y44804D01*
X169790Y44683D01*
X169814Y44640D01*
X169830Y44595D01*
X169899Y44489D01*
X169960Y44378D01*
X170000Y44332D01*
X170019Y44302D01*
X170054Y44269D01*
X170119Y44192D01*
X173167Y41144D01*
X173245Y41082D01*
X173318Y41012D01*
X173382Y40974D01*
X173440Y40927D01*
X173531Y40885D01*
X173617Y40833D01*
X173688Y40810D01*
X173755Y40779D01*
X173853Y40757D01*
X173949Y40727D01*
X174023Y40721D01*
X174096Y40705D01*
X174196Y40707D01*
X174296Y40699D01*
X174370Y40710D01*
X174444Y40711D01*
X174541Y40736D01*
X174641Y40751D01*
X174710Y40778D01*
X174782Y40796D01*
X174871Y40842D01*
X174965Y40879D01*
X175026Y40922D01*
X175092Y40956D01*
X175168Y41021D01*
X175251Y41078D01*
X175301Y41133D01*
X175357Y41182D01*
X175417Y41262D01*
X175484Y41337D01*
X175520Y41402D01*
X175565Y41462D01*
X175604Y41554D01*
X175653Y41642D01*
X175673Y41714D01*
X175703Y41782D01*
X175720Y41881D01*
X175748Y41977D01*
X175756Y42077D01*
X175764Y42125D01*
X175762Y42161D01*
X175767Y42221D01*
X175767Y74239D01*
X175753Y74365D01*
X175746Y74491D01*
X175733Y74538D01*
X175727Y74586D01*
X175685Y74704D01*
X175650Y74826D01*
X175626Y74868D01*
X175610Y74914D01*
X175541Y75020D01*
X175480Y75130D01*
X175440Y75176D01*
X175421Y75206D01*
X175386Y75240D01*
X175321Y75316D01*
X175279Y75358D01*
X174370Y77553D01*
X174370Y79927D01*
X175279Y82122D01*
X176958Y83801D01*
X179153Y84710D01*
X181527Y84710D01*
X183722Y83801D01*
X185401Y82122D01*
X186310Y79927D01*
X186310Y77553D01*
X185401Y75358D01*
X183722Y73679D01*
X183313Y73510D01*
X183246Y73473D01*
X183175Y73445D01*
X183095Y73388D01*
X183008Y73341D01*
X182952Y73289D01*
X182889Y73246D01*
X182823Y73173D01*
X182750Y73106D01*
X182707Y73044D01*
X182656Y72987D01*
X182608Y72901D01*
X182552Y72820D01*
X182524Y72749D01*
X182487Y72682D01*
X182460Y72587D01*
X182424Y72496D01*
X182413Y72420D01*
X182392Y72346D01*
X182380Y72198D01*
X182373Y72151D01*
X182375Y72132D01*
X182373Y72103D01*
X182373Y62921D01*
X182384Y62821D01*
X182386Y62720D01*
X182404Y62648D01*
X182413Y62574D01*
X182447Y62480D01*
X182471Y62382D01*
X182505Y62316D01*
X182530Y62246D01*
X182585Y62162D01*
X182631Y62073D01*
X182679Y62016D01*
X182719Y61954D01*
X182791Y61884D01*
X182856Y61807D01*
X182916Y61763D01*
X182970Y61711D01*
X183056Y61660D01*
X183137Y61600D01*
X183205Y61571D01*
X183269Y61532D01*
X183365Y61502D01*
X183457Y61462D01*
X183530Y61449D01*
X183601Y61426D01*
X183701Y61418D01*
X183800Y61400D01*
X183874Y61404D01*
X183948Y61398D01*
X184048Y61413D01*
X184148Y61418D01*
X184219Y61439D01*
X184293Y61450D01*
X184386Y61487D01*
X184483Y61515D01*
X184548Y61551D01*
X184617Y61579D01*
X184699Y61636D01*
X184787Y61685D01*
X184863Y61750D01*
X184903Y61778D01*
X184927Y61804D01*
X184973Y61844D01*
X185848Y62719D01*
X188043Y63628D01*
X190417Y63628D01*
X192612Y62719D01*
X194291Y61040D01*
X195200Y58845D01*
X195200Y56990D01*
X195214Y56864D01*
X195221Y56738D01*
X195234Y56692D01*
X195240Y56644D01*
X195282Y56525D01*
X195317Y56403D01*
X195341Y56361D01*
X195357Y56316D01*
X195426Y56209D01*
X195487Y56099D01*
X195527Y56053D01*
X195546Y56023D01*
X195581Y55989D01*
X195646Y55913D01*
X207773Y43786D01*
X207773Y42221D01*
X207784Y42121D01*
X207786Y42021D01*
X207804Y41949D01*
X207813Y41875D01*
X207846Y41781D01*
X207871Y41683D01*
X207905Y41617D01*
X207930Y41547D01*
X207985Y41462D01*
X208031Y41373D01*
X208079Y41317D01*
X208119Y41254D01*
X208191Y41184D01*
X208256Y41108D01*
X208316Y41064D01*
X208370Y41012D01*
X208456Y40960D01*
X208537Y40901D01*
X208605Y40871D01*
X208669Y40833D01*
X208765Y40802D01*
X208857Y40763D01*
X208930Y40749D01*
X209001Y40727D01*
X209101Y40719D01*
X209200Y40701D01*
X209274Y40705D01*
X209348Y40699D01*
X209448Y40714D01*
X209548Y40719D01*
X209619Y40739D01*
X209693Y40751D01*
X209786Y40788D01*
X209883Y40815D01*
X209948Y40852D01*
X210017Y40879D01*
X210099Y40936D01*
X210187Y40986D01*
X210263Y41051D01*
X210303Y41078D01*
X210327Y41105D01*
X210373Y41144D01*
X213172Y43943D01*
X214631Y43943D01*
X214631Y35306D01*
X214634Y35280D01*
X214632Y35254D01*
X214654Y35107D01*
X214671Y34960D01*
X214679Y34935D01*
X214683Y34909D01*
X214738Y34772D01*
X214788Y34632D01*
X214802Y34610D01*
X214812Y34585D01*
X214897Y34464D01*
X214977Y34339D01*
X214996Y34321D01*
X215011Y34299D01*
X215027Y34285D01*
X214945Y34200D01*
X214931Y34177D01*
X214914Y34158D01*
X214842Y34028D01*
X214766Y33901D01*
X214758Y33876D01*
X214745Y33853D01*
X214705Y33710D01*
X214660Y33569D01*
X214657Y33543D01*
X214650Y33518D01*
X214631Y33274D01*
X214631Y24637D01*
X213172Y24637D01*
X210373Y27436D01*
X210295Y27498D01*
X210222Y27568D01*
X210158Y27606D01*
X210100Y27653D01*
X210009Y27695D01*
X209923Y27747D01*
X209852Y27770D01*
X209785Y27801D01*
X209687Y27823D01*
X209591Y27853D01*
X209517Y27859D01*
X209444Y27875D01*
X209344Y27873D01*
X209244Y27881D01*
X209170Y27870D01*
X209096Y27869D01*
X208999Y27844D01*
X208899Y27829D01*
X208830Y27802D01*
X208758Y27784D01*
X208669Y27738D01*
X208575Y27701D01*
X208514Y27658D01*
X208448Y27624D01*
X208372Y27559D01*
X208289Y27502D01*
X208239Y27447D01*
X208183Y27398D01*
X208123Y27318D01*
X208056Y27243D01*
X208020Y27178D01*
X207975Y27118D01*
X207936Y27026D01*
X207887Y26938D01*
X207867Y26866D01*
X207837Y26798D01*
X207820Y26699D01*
X207792Y26603D01*
X207784Y26503D01*
X207776Y26455D01*
X207778Y26419D01*
X207773Y26359D01*
X207773Y24777D01*
X207781Y24701D01*
X207780Y24624D01*
X207801Y24528D01*
X207813Y24430D01*
X207838Y24358D01*
X207855Y24284D01*
X207897Y24195D01*
X207930Y24102D01*
X207972Y24038D01*
X208004Y23969D01*
X208066Y23892D01*
X208119Y23809D01*
X208174Y23756D01*
X208222Y23697D01*
X208299Y23636D01*
X208370Y23567D01*
X208435Y23528D01*
X208495Y23481D01*
X208628Y23413D01*
X208669Y23388D01*
X208687Y23383D01*
X208713Y23369D01*
X209376Y23095D01*
X211055Y21416D01*
X211964Y19221D01*
X211964Y16847D01*
X211055Y14652D01*
X209926Y13523D01*
X209863Y13444D01*
X209793Y13372D01*
X209755Y13308D01*
X209709Y13250D01*
X209666Y13159D01*
X209614Y13073D01*
X209592Y13002D01*
X209560Y12935D01*
X209539Y12837D01*
X209508Y12741D01*
X209502Y12667D01*
X209487Y12594D01*
X209488Y12494D01*
X209480Y12394D01*
X209491Y12320D01*
X209493Y12246D01*
X209517Y12149D01*
X209532Y12049D01*
X209559Y11980D01*
X209578Y11908D01*
X209624Y11819D01*
X209661Y11725D01*
X209703Y11664D01*
X209737Y11598D01*
X209802Y11522D01*
X209860Y11439D01*
X209915Y11389D01*
X209963Y11333D01*
X210044Y11273D01*
X210118Y11206D01*
X210184Y11170D01*
X210243Y11125D01*
X210335Y11086D01*
X210423Y11037D01*
X210495Y11017D01*
X210563Y10987D01*
X210662Y10970D01*
X210759Y10942D01*
X210859Y10934D01*
X210906Y10926D01*
X210942Y10928D01*
X211003Y10923D01*
X244889Y10923D01*
X244989Y10934D01*
X245089Y10936D01*
X245161Y10954D01*
X245235Y10963D01*
X245330Y10996D01*
X245427Y11021D01*
X245493Y11055D01*
X245563Y11080D01*
X245648Y11135D01*
X245737Y11181D01*
X245794Y11229D01*
X245856Y11269D01*
X245926Y11341D01*
X246002Y11406D01*
X246047Y11466D01*
X246098Y11520D01*
X246150Y11606D01*
X246210Y11687D01*
X246239Y11755D01*
X246277Y11819D01*
X246308Y11915D01*
X246348Y12007D01*
X246361Y12080D01*
X246383Y12151D01*
X246392Y12251D01*
X246409Y12350D01*
X246405Y12424D01*
X246411Y12498D01*
X246397Y12598D01*
X246391Y12698D01*
X246371Y12769D01*
X246360Y12843D01*
X246323Y12936D01*
X246295Y13033D01*
X246258Y13098D01*
X246231Y13167D01*
X246174Y13249D01*
X246125Y13337D01*
X246060Y13413D01*
X246032Y13453D01*
X246006Y13477D01*
X245966Y13523D01*
X241648Y17841D01*
X239267Y20222D01*
X239267Y23311D01*
X239253Y23436D01*
X239246Y23563D01*
X239233Y23609D01*
X239227Y23657D01*
X239185Y23776D01*
X239150Y23897D01*
X239126Y23940D01*
X239110Y23985D01*
X239041Y24091D01*
X238980Y24202D01*
X238940Y24248D01*
X238921Y24278D01*
X238886Y24311D01*
X238821Y24388D01*
X232917Y30292D01*
X232917Y38288D01*
X238572Y43943D01*
X246568Y43943D01*
X252223Y38288D01*
X252223Y30292D01*
X246458Y24527D01*
X246442Y24506D01*
X246422Y24489D01*
X246333Y24370D01*
X246241Y24254D01*
X246230Y24230D01*
X246215Y24209D01*
X246156Y24073D01*
X246092Y23939D01*
X246087Y23913D01*
X246077Y23889D01*
X246050Y23743D01*
X246019Y23598D01*
X246020Y23572D01*
X246015Y23546D01*
X246023Y23398D01*
X246025Y23250D01*
X246031Y23224D01*
X246033Y23198D01*
X246074Y23056D01*
X246110Y22912D01*
X246122Y22888D01*
X246129Y22863D01*
X246202Y22734D01*
X246270Y22602D01*
X246287Y22582D01*
X246299Y22559D01*
X246458Y22373D01*
X249842Y18989D01*
X249941Y18910D01*
X250035Y18826D01*
X250077Y18802D01*
X250115Y18772D01*
X250229Y18718D01*
X250340Y18657D01*
X250386Y18644D01*
X250430Y18623D01*
X250553Y18597D01*
X250675Y18562D01*
X250736Y18557D01*
X250771Y18550D01*
X250819Y18551D01*
X250919Y18543D01*
X277401Y18543D01*
X277527Y18557D01*
X277653Y18564D01*
X277699Y18577D01*
X277747Y18583D01*
X277866Y18625D01*
X277988Y18660D01*
X278030Y18684D01*
X278075Y18700D01*
X278182Y18769D01*
X278292Y18830D01*
X278338Y18870D01*
X278368Y18889D01*
X278402Y18924D01*
X278478Y18989D01*
X285811Y26322D01*
X285890Y26421D01*
X285974Y26515D01*
X285998Y26557D01*
X286028Y26595D01*
X286082Y26709D01*
X286143Y26820D01*
X286156Y26866D01*
X286177Y26910D01*
X286203Y27033D01*
X286238Y27155D01*
X286243Y27216D01*
X286250Y27251D01*
X286249Y27299D01*
X286257Y27399D01*
X286257Y44229D01*
X286246Y44329D01*
X286244Y44429D01*
X286226Y44501D01*
X286217Y44575D01*
X286184Y44670D01*
X286159Y44767D01*
X286125Y44833D01*
X286100Y44903D01*
X286045Y44988D01*
X285999Y45077D01*
X285951Y45134D01*
X285911Y45196D01*
X285839Y45266D01*
X285774Y45342D01*
X285714Y45387D01*
X285660Y45438D01*
X285574Y45490D01*
X285493Y45550D01*
X285425Y45579D01*
X285361Y45617D01*
X285265Y45648D01*
X285173Y45688D01*
X285100Y45701D01*
X285029Y45723D01*
X284929Y45732D01*
X284830Y45749D01*
X284756Y45745D01*
X284682Y45751D01*
X284582Y45737D01*
X284482Y45731D01*
X284411Y45711D01*
X284337Y45700D01*
X284244Y45663D01*
X284147Y45635D01*
X284082Y45598D01*
X284013Y45571D01*
X283931Y45514D01*
X283843Y45465D01*
X283767Y45400D01*
X283727Y45372D01*
X283703Y45346D01*
X283657Y45306D01*
X278069Y39718D01*
X277990Y39619D01*
X277906Y39525D01*
X277882Y39483D01*
X277852Y39445D01*
X277798Y39331D01*
X277737Y39220D01*
X277724Y39174D01*
X277703Y39130D01*
X277677Y39007D01*
X277642Y38885D01*
X277637Y38824D01*
X277630Y38789D01*
X277631Y38741D01*
X277623Y38641D01*
X277623Y30292D01*
X271968Y24637D01*
X263972Y24637D01*
X258317Y30292D01*
X258317Y38641D01*
X258303Y38767D01*
X258296Y38893D01*
X258283Y38939D01*
X258277Y38987D01*
X258235Y39106D01*
X258200Y39228D01*
X258176Y39270D01*
X258160Y39315D01*
X258091Y39422D01*
X258030Y39532D01*
X257990Y39578D01*
X257971Y39608D01*
X257936Y39642D01*
X257871Y39718D01*
X243045Y54544D01*
X242946Y54623D01*
X242852Y54707D01*
X242810Y54731D01*
X242772Y54761D01*
X242658Y54815D01*
X242547Y54876D01*
X242501Y54889D01*
X242457Y54910D01*
X242334Y54936D01*
X242212Y54971D01*
X242151Y54976D01*
X242116Y54983D01*
X242068Y54982D01*
X241968Y54990D01*
X240113Y54990D01*
X237918Y55899D01*
X236239Y57578D01*
X235330Y59773D01*
X235330Y62147D01*
X236239Y64342D01*
X237918Y66021D01*
X240113Y66930D01*
X242487Y66930D01*
X244682Y66021D01*
X246361Y64342D01*
X247270Y62147D01*
X247270Y60292D01*
X247284Y60166D01*
X247291Y60040D01*
X247304Y59994D01*
X247310Y59946D01*
X247352Y59827D01*
X247387Y59705D01*
X247411Y59663D01*
X247427Y59618D01*
X247496Y59511D01*
X247557Y59401D01*
X247597Y59355D01*
X247616Y59325D01*
X247651Y59291D01*
X247716Y59215D01*
X262542Y44389D01*
X262641Y44310D01*
X262735Y44226D01*
X262777Y44202D01*
X262815Y44172D01*
X262929Y44118D01*
X263040Y44057D01*
X263086Y44044D01*
X263130Y44023D01*
X263253Y43997D01*
X263375Y43962D01*
X263436Y43957D01*
X263471Y43950D01*
X263519Y43951D01*
X263619Y43943D01*
X272321Y43943D01*
X272447Y43957D01*
X272573Y43964D01*
X272619Y43977D01*
X272667Y43983D01*
X272786Y44025D01*
X272908Y44060D01*
X272950Y44084D01*
X272995Y44100D01*
X273102Y44169D01*
X273212Y44230D01*
X273258Y44270D01*
X273288Y44289D01*
X273322Y44324D01*
X273398Y44389D01*
X278191Y49182D01*
X278270Y49281D01*
X278354Y49375D01*
X278378Y49417D01*
X278408Y49455D01*
X278462Y49569D01*
X278523Y49680D01*
X278536Y49726D01*
X278557Y49770D01*
X278583Y49893D01*
X278618Y50015D01*
X278623Y50076D01*
X278630Y50111D01*
X278629Y50159D01*
X278637Y50259D01*
X278637Y59788D01*
X328832Y109983D01*
X605061Y109983D01*
X605187Y109997D01*
X605313Y110004D01*
X605359Y110017D01*
X605407Y110023D01*
X605526Y110065D01*
X605648Y110100D01*
X605690Y110124D01*
X605735Y110140D01*
X605842Y110209D01*
X605952Y110270D01*
X605998Y110310D01*
X606028Y110329D01*
X606062Y110364D01*
X606138Y110429D01*
X658175Y162466D01*
X658254Y162565D01*
X658338Y162659D01*
X658362Y162701D01*
X658392Y162739D01*
X658446Y162853D01*
X658507Y162964D01*
X658520Y163010D01*
X658541Y163054D01*
X658567Y163177D01*
X658602Y163299D01*
X658607Y163360D01*
X658614Y163395D01*
X658613Y163443D01*
X658621Y163543D01*
X658621Y169737D01*
X663383Y174499D01*
X670117Y174499D01*
X674879Y169737D01*
X674879Y163003D01*
X670117Y158241D01*
X663923Y158241D01*
X663797Y158227D01*
X663671Y158220D01*
X663625Y158207D01*
X663577Y158201D01*
X663458Y158159D01*
X663336Y158124D01*
X663294Y158100D01*
X663249Y158084D01*
X663142Y158015D01*
X663032Y157954D01*
X662986Y157914D01*
X662956Y157895D01*
X662922Y157860D01*
X662846Y157795D01*
X611284Y106233D01*
X611221Y106155D01*
X611152Y106082D01*
X611113Y106018D01*
X611067Y105960D01*
X611024Y105869D01*
X610973Y105783D01*
X610950Y105712D01*
X610918Y105645D01*
X610897Y105547D01*
X610867Y105451D01*
X610861Y105377D01*
X610845Y105304D01*
X610847Y105204D01*
X610839Y105104D01*
X610850Y105030D01*
X610851Y104956D01*
X610875Y104859D01*
X610890Y104759D01*
X610918Y104690D01*
X610936Y104618D01*
X610982Y104528D01*
X611019Y104435D01*
X611061Y104374D01*
X611096Y104308D01*
X611161Y104231D01*
X611218Y104149D01*
X611273Y104099D01*
X611321Y104043D01*
X611402Y103983D01*
X611477Y103916D01*
X611542Y103880D01*
X611602Y103835D01*
X611694Y103796D01*
X611782Y103747D01*
X611853Y103727D01*
X611922Y103697D01*
X612020Y103680D01*
X612117Y103652D01*
X612217Y103644D01*
X612265Y103636D01*
X612300Y103638D01*
X612361Y103633D01*
X649511Y103633D01*
X649637Y103647D01*
X649763Y103654D01*
X649809Y103667D01*
X649857Y103673D01*
X649976Y103715D01*
X650098Y103750D01*
X650140Y103774D01*
X650185Y103790D01*
X650292Y103859D01*
X650402Y103920D01*
X650448Y103960D01*
X650478Y103979D01*
X650512Y104014D01*
X650588Y104079D01*
X708975Y162466D01*
X709054Y162565D01*
X709138Y162659D01*
X709162Y162701D01*
X709192Y162739D01*
X709246Y162853D01*
X709307Y162964D01*
X709320Y163010D01*
X709341Y163054D01*
X709367Y163177D01*
X709402Y163299D01*
X709407Y163360D01*
X709414Y163395D01*
X709413Y163443D01*
X709421Y163543D01*
X709421Y169737D01*
X714183Y174499D01*
X720917Y174499D01*
X724347Y171069D01*
X724425Y171006D01*
X724498Y170937D01*
X724562Y170898D01*
X724620Y170852D01*
X724711Y170809D01*
X724797Y170758D01*
X724868Y170735D01*
X724935Y170703D01*
X725033Y170682D01*
X725129Y170652D01*
X725203Y170646D01*
X725276Y170630D01*
X725376Y170632D01*
X725476Y170624D01*
X725550Y170635D01*
X725624Y170636D01*
X725721Y170660D01*
X725821Y170675D01*
X725890Y170703D01*
X725962Y170721D01*
X726052Y170767D01*
X726145Y170804D01*
X726206Y170846D01*
X726272Y170881D01*
X726349Y170946D01*
X726431Y171003D01*
X726481Y171058D01*
X726537Y171106D01*
X726597Y171187D01*
X726664Y171262D01*
X726700Y171327D01*
X726745Y171387D01*
X726784Y171479D01*
X726833Y171567D01*
X726853Y171638D01*
X726883Y171707D01*
X726900Y171805D01*
X726928Y171902D01*
X726936Y172002D01*
X726944Y172050D01*
X726942Y172085D01*
X726947Y172146D01*
X726947Y243111D01*
X726933Y243237D01*
X726926Y243363D01*
X726913Y243409D01*
X726907Y243457D01*
X726865Y243576D01*
X726830Y243698D01*
X726806Y243740D01*
X726790Y243785D01*
X726721Y243892D01*
X726660Y244002D01*
X726620Y244048D01*
X726601Y244078D01*
X726566Y244112D01*
X726501Y244188D01*
X705198Y265491D01*
X705099Y265570D01*
X705005Y265654D01*
X704963Y265678D01*
X704925Y265708D01*
X704811Y265762D01*
X704700Y265823D01*
X704654Y265836D01*
X704610Y265857D01*
X704487Y265883D01*
X704365Y265918D01*
X704304Y265923D01*
X704269Y265930D01*
X704221Y265929D01*
X704121Y265937D01*
X156939Y265937D01*
X156813Y265923D01*
X156687Y265916D01*
X156641Y265903D01*
X156593Y265897D01*
X156474Y265855D01*
X156352Y265820D01*
X156310Y265796D01*
X156265Y265780D01*
X156158Y265711D01*
X156048Y265650D01*
X156002Y265610D01*
X155972Y265591D01*
X155938Y265556D01*
X155862Y265491D01*
X129415Y239044D01*
X129367Y238984D01*
X129312Y238930D01*
X129259Y238848D01*
X129198Y238771D01*
X129165Y238702D01*
X129124Y238637D01*
X129091Y238545D01*
X129049Y238456D01*
X129033Y238381D01*
X129007Y238308D01*
X128997Y238211D01*
X128976Y238115D01*
X128977Y238039D01*
X128969Y237962D01*
X128980Y237865D01*
X128982Y237767D01*
X128985Y237756D01*
X128985Y234815D01*
X127909Y232218D01*
X125799Y230108D01*
X125739Y230066D01*
X125673Y229993D01*
X125600Y229927D01*
X125557Y229865D01*
X125506Y229808D01*
X125458Y229721D01*
X125402Y229641D01*
X125374Y229570D01*
X125337Y229503D01*
X125310Y229408D01*
X125274Y229317D01*
X125263Y229241D01*
X125242Y229167D01*
X125230Y229018D01*
X125224Y228972D01*
X125225Y228953D01*
X125223Y228923D01*
X125223Y140872D01*
X122842Y138491D01*
X121249Y136899D01*
X121240Y136887D01*
X121223Y136872D01*
X120817Y136445D01*
X120752Y136359D01*
X120680Y136279D01*
X120647Y136220D01*
X120607Y136167D01*
X120563Y136068D01*
X120511Y135974D01*
X120493Y135909D01*
X120466Y135848D01*
X120446Y135742D01*
X120416Y135638D01*
X120409Y135551D01*
X120401Y135506D01*
X120402Y135466D01*
X120397Y135395D01*
X120397Y132544D01*
X119391Y130117D01*
X117533Y128259D01*
X115106Y127253D01*
X112478Y127253D01*
X110051Y128259D01*
X108193Y130117D01*
X107187Y132544D01*
X107187Y135172D01*
X108193Y137599D01*
X110051Y139457D01*
X112478Y140463D01*
X114841Y140463D01*
X114966Y140477D01*
X115093Y140484D01*
X115139Y140497D01*
X115187Y140503D01*
X115306Y140545D01*
X115428Y140580D01*
X115470Y140604D01*
X115515Y140620D01*
X115622Y140689D01*
X115732Y140750D01*
X115778Y140790D01*
X115808Y140809D01*
X115842Y140844D01*
X115918Y140909D01*
X116495Y141486D01*
X116504Y141497D01*
X116521Y141512D01*
X117649Y142697D01*
X117715Y142734D01*
X117782Y142791D01*
X117820Y142816D01*
X117847Y142846D01*
X117902Y142892D01*
X118171Y143162D01*
X118239Y143247D01*
X118267Y143277D01*
X118274Y143288D01*
X118334Y143355D01*
X118358Y143397D01*
X118388Y143435D01*
X118442Y143549D01*
X118503Y143660D01*
X118516Y143706D01*
X118537Y143750D01*
X118563Y143874D01*
X118598Y143995D01*
X118603Y144056D01*
X118610Y144091D01*
X118609Y144139D01*
X118617Y144239D01*
X118617Y185085D01*
X118606Y185185D01*
X118604Y185285D01*
X118586Y185357D01*
X118577Y185431D01*
X118544Y185526D01*
X118519Y185623D01*
X118485Y185689D01*
X118460Y185759D01*
X118405Y185844D01*
X118359Y185933D01*
X118311Y185990D01*
X118271Y186052D01*
X118199Y186122D01*
X118134Y186199D01*
X118074Y186243D01*
X118020Y186294D01*
X117934Y186346D01*
X117853Y186406D01*
X117785Y186435D01*
X117721Y186473D01*
X117625Y186504D01*
X117533Y186544D01*
X117460Y186557D01*
X117389Y186579D01*
X117289Y186588D01*
X117190Y186605D01*
X117116Y186601D01*
X117042Y186607D01*
X116942Y186593D01*
X116842Y186587D01*
X116771Y186567D01*
X116697Y186556D01*
X116604Y186519D01*
X116507Y186491D01*
X116442Y186454D01*
X116373Y186427D01*
X116291Y186370D01*
X116203Y186321D01*
X116127Y186256D01*
X116087Y186228D01*
X116063Y186202D01*
X116017Y186162D01*
X115022Y185167D01*
X111506Y185167D01*
X111480Y185164D01*
X111454Y185166D01*
X111307Y185144D01*
X111160Y185127D01*
X111135Y185119D01*
X111109Y185115D01*
X110971Y185060D01*
X110832Y185010D01*
X110810Y184996D01*
X110785Y184986D01*
X110664Y184901D01*
X110539Y184821D01*
X110521Y184802D01*
X110499Y184787D01*
X110400Y184677D01*
X110297Y184570D01*
X110283Y184548D01*
X110266Y184528D01*
X110194Y184398D01*
X110118Y184271D01*
X110110Y184246D01*
X110097Y184223D01*
X110057Y184080D01*
X110012Y183939D01*
X110010Y183913D01*
X110002Y183888D01*
X109983Y183644D01*
X109983Y169857D01*
X109991Y169781D01*
X109990Y169704D01*
X110011Y169608D01*
X110023Y169510D01*
X110048Y169438D01*
X110065Y169364D01*
X110107Y169275D01*
X110140Y169182D01*
X110182Y169118D01*
X110215Y169049D01*
X110276Y168972D01*
X110329Y168889D01*
X110384Y168836D01*
X110432Y168776D01*
X110509Y168716D01*
X110580Y168647D01*
X110590Y168641D01*
X112669Y166562D01*
X113745Y163965D01*
X113745Y161155D01*
X112669Y158558D01*
X110682Y156571D01*
X108085Y155495D01*
X105275Y155495D01*
X102678Y156571D01*
X100691Y158558D01*
X99615Y161155D01*
X99615Y163965D01*
X100691Y166562D01*
X102801Y168672D01*
X102861Y168714D01*
X102927Y168787D01*
X103000Y168853D01*
X103043Y168915D01*
X103094Y168972D01*
X103142Y169059D01*
X103198Y169139D01*
X103226Y169210D01*
X103263Y169277D01*
X103290Y169372D01*
X103326Y169463D01*
X103337Y169539D01*
X103358Y169613D01*
X103370Y169762D01*
X103376Y169808D01*
X103375Y169827D01*
X103377Y169857D01*
X103377Y183644D01*
X103374Y183670D01*
X103376Y183696D01*
X103354Y183843D01*
X103337Y183990D01*
X103329Y184015D01*
X103325Y184041D01*
X103270Y184179D01*
X103220Y184318D01*
X103206Y184340D01*
X103196Y184365D01*
X103111Y184486D01*
X103031Y184611D01*
X103012Y184629D01*
X102997Y184651D01*
X102887Y184750D01*
X102780Y184853D01*
X102758Y184867D01*
X102738Y184884D01*
X102608Y184956D01*
X102481Y185032D01*
X102456Y185040D01*
X102433Y185053D01*
X102290Y185093D01*
X102149Y185138D01*
X102123Y185140D01*
X102098Y185148D01*
X101854Y185167D01*
X98338Y185167D01*
X97147Y186358D01*
X97147Y201042D01*
X98228Y202123D01*
X98245Y202143D01*
X98264Y202160D01*
X98353Y202280D01*
X98445Y202396D01*
X98456Y202420D01*
X98472Y202441D01*
X98530Y202577D01*
X98594Y202711D01*
X98599Y202737D01*
X98610Y202761D01*
X98636Y202907D01*
X98667Y203052D01*
X98667Y203078D01*
X98671Y203104D01*
X98664Y203252D01*
X98661Y203400D01*
X98655Y203426D01*
X98653Y203452D01*
X98612Y203594D01*
X98576Y203738D01*
X98564Y203761D01*
X98557Y203787D01*
X98484Y203916D01*
X98416Y204048D01*
X98400Y204068D01*
X98387Y204091D01*
X98228Y204277D01*
X97147Y205358D01*
X97147Y207874D01*
X97144Y207900D01*
X97146Y207926D01*
X97124Y208073D01*
X97107Y208220D01*
X97099Y208245D01*
X97095Y208271D01*
X97040Y208409D01*
X96990Y208548D01*
X96976Y208570D01*
X96966Y208595D01*
X96881Y208716D01*
X96801Y208841D01*
X96782Y208859D01*
X96767Y208881D01*
X96657Y208980D01*
X96550Y209083D01*
X96528Y209097D01*
X96508Y209114D01*
X96378Y209186D01*
X96251Y209262D01*
X96226Y209270D01*
X96203Y209283D01*
X96060Y209323D01*
X95919Y209368D01*
X95893Y209370D01*
X95868Y209378D01*
X95624Y209397D01*
X89916Y209397D01*
X89890Y209394D01*
X89864Y209396D01*
X89717Y209374D01*
X89570Y209357D01*
X89545Y209349D01*
X89519Y209345D01*
X89381Y209290D01*
X89242Y209240D01*
X89220Y209226D01*
X89195Y209216D01*
X89074Y209131D01*
X88949Y209051D01*
X88931Y209032D01*
X88909Y209017D01*
X88810Y208907D01*
X88707Y208800D01*
X88693Y208778D01*
X88676Y208758D01*
X88604Y208628D01*
X88528Y208501D01*
X88520Y208476D01*
X88507Y208453D01*
X88467Y208310D01*
X88422Y208169D01*
X88420Y208143D01*
X88412Y208118D01*
X88393Y207874D01*
X88393Y189611D01*
X88396Y189585D01*
X88394Y189559D01*
X88416Y189412D01*
X88433Y189265D01*
X88441Y189240D01*
X88445Y189214D01*
X88500Y189076D01*
X88550Y188937D01*
X88564Y188915D01*
X88574Y188890D01*
X88659Y188769D01*
X88739Y188644D01*
X88758Y188626D01*
X88773Y188604D01*
X88883Y188505D01*
X88990Y188402D01*
X89012Y188388D01*
X89032Y188371D01*
X89162Y188299D01*
X89289Y188223D01*
X89314Y188215D01*
X89337Y188202D01*
X89480Y188162D01*
X89621Y188117D01*
X89647Y188115D01*
X89672Y188107D01*
X89727Y188103D01*
X90933Y186897D01*
X90933Y168703D01*
X89742Y167512D01*
X80438Y167512D01*
X79247Y168703D01*
X79247Y172974D01*
X79244Y173000D01*
X79246Y173026D01*
X79224Y173173D01*
X79207Y173320D01*
X79199Y173345D01*
X79195Y173371D01*
X79140Y173509D01*
X79090Y173648D01*
X79076Y173670D01*
X79066Y173695D01*
X78981Y173816D01*
X78901Y173941D01*
X78882Y173959D01*
X78867Y173981D01*
X78757Y174080D01*
X78650Y174183D01*
X78628Y174197D01*
X78608Y174214D01*
X78478Y174286D01*
X78351Y174362D01*
X78326Y174370D01*
X78303Y174383D01*
X78160Y174423D01*
X78019Y174468D01*
X77993Y174470D01*
X77968Y174478D01*
X77724Y174497D01*
X75659Y174497D01*
X75533Y174483D01*
X75407Y174476D01*
X75361Y174463D01*
X75313Y174457D01*
X75194Y174415D01*
X75072Y174380D01*
X75030Y174356D01*
X74985Y174340D01*
X74878Y174271D01*
X74768Y174210D01*
X74722Y174170D01*
X74692Y174151D01*
X74658Y174116D01*
X74582Y174051D01*
X46929Y146398D01*
X46850Y146299D01*
X46766Y146205D01*
X46742Y146163D01*
X46712Y146125D01*
X46658Y146011D01*
X46597Y145900D01*
X46584Y145854D01*
X46563Y145810D01*
X46537Y145687D01*
X46502Y145565D01*
X46497Y145504D01*
X46490Y145469D01*
X46491Y145421D01*
X46483Y145321D01*
X46483Y62959D01*
X46497Y62833D01*
X46504Y62707D01*
X46517Y62661D01*
X46523Y62613D01*
X46565Y62494D01*
X46600Y62372D01*
X46624Y62330D01*
X46640Y62285D01*
X46709Y62178D01*
X46770Y62068D01*
X46810Y62022D01*
X46829Y61992D01*
X46864Y61958D01*
X46929Y61882D01*
X97442Y11369D01*
X97541Y11290D01*
X97635Y11206D01*
X97677Y11182D01*
X97715Y11152D01*
X97829Y11098D01*
X97940Y11037D01*
X97986Y11024D01*
X98030Y11003D01*
X98153Y10977D01*
X98275Y10942D01*
X98336Y10937D01*
X98371Y10930D01*
X98419Y10931D01*
X98519Y10923D01*
X170721Y10923D01*
X170847Y10937D01*
G37*
G36*
X93351Y2552D02*
X93351Y2552D01*
X93451Y2554D01*
X93523Y2572D01*
X93597Y2581D01*
X93692Y2614D01*
X93789Y2639D01*
X93855Y2673D01*
X93925Y2698D01*
X94010Y2753D01*
X94099Y2799D01*
X94156Y2847D01*
X94218Y2887D01*
X94288Y2959D01*
X94364Y3024D01*
X94409Y3084D01*
X94460Y3138D01*
X94512Y3224D01*
X94572Y3305D01*
X94601Y3373D01*
X94639Y3437D01*
X94670Y3533D01*
X94710Y3625D01*
X94723Y3698D01*
X94745Y3769D01*
X94754Y3869D01*
X94771Y3968D01*
X94767Y4042D01*
X94773Y4116D01*
X94759Y4216D01*
X94753Y4316D01*
X94733Y4387D01*
X94722Y4461D01*
X94685Y4554D01*
X94657Y4651D01*
X94620Y4716D01*
X94593Y4785D01*
X94536Y4867D01*
X94487Y4955D01*
X94422Y5031D01*
X94394Y5071D01*
X94368Y5095D01*
X94328Y5141D01*
X42258Y57211D01*
X39877Y59592D01*
X39877Y148688D01*
X72292Y181103D01*
X77724Y181103D01*
X77750Y181106D01*
X77776Y181104D01*
X77923Y181126D01*
X78070Y181143D01*
X78095Y181151D01*
X78121Y181155D01*
X78259Y181210D01*
X78398Y181260D01*
X78420Y181274D01*
X78445Y181284D01*
X78566Y181369D01*
X78691Y181449D01*
X78709Y181468D01*
X78731Y181483D01*
X78830Y181593D01*
X78933Y181700D01*
X78947Y181722D01*
X78964Y181742D01*
X79036Y181872D01*
X79112Y181999D01*
X79120Y182024D01*
X79133Y182047D01*
X79173Y182190D01*
X79218Y182331D01*
X79220Y182357D01*
X79228Y182382D01*
X79247Y182626D01*
X79247Y186897D01*
X80461Y188110D01*
X80463Y188111D01*
X80610Y188128D01*
X80635Y188136D01*
X80661Y188140D01*
X80799Y188195D01*
X80938Y188245D01*
X80960Y188259D01*
X80985Y188269D01*
X81106Y188354D01*
X81231Y188434D01*
X81249Y188453D01*
X81271Y188468D01*
X81370Y188578D01*
X81473Y188685D01*
X81487Y188707D01*
X81504Y188727D01*
X81576Y188857D01*
X81652Y188984D01*
X81660Y189009D01*
X81673Y189032D01*
X81713Y189175D01*
X81758Y189316D01*
X81760Y189342D01*
X81768Y189367D01*
X81787Y189611D01*
X81787Y216789D01*
X81784Y216815D01*
X81786Y216841D01*
X81764Y216988D01*
X81747Y217135D01*
X81739Y217160D01*
X81735Y217186D01*
X81680Y217324D01*
X81630Y217463D01*
X81616Y217485D01*
X81606Y217510D01*
X81521Y217631D01*
X81441Y217756D01*
X81422Y217774D01*
X81407Y217796D01*
X81297Y217895D01*
X81190Y217998D01*
X81168Y218012D01*
X81148Y218029D01*
X81018Y218101D01*
X80891Y218177D01*
X80866Y218185D01*
X80843Y218198D01*
X80700Y218238D01*
X80559Y218283D01*
X80533Y218285D01*
X80508Y218293D01*
X80453Y218297D01*
X79247Y219503D01*
X79247Y237697D01*
X80438Y238888D01*
X89742Y238888D01*
X90933Y237697D01*
X90933Y219503D01*
X90033Y218603D01*
X89970Y218524D01*
X89901Y218452D01*
X89862Y218388D01*
X89816Y218330D01*
X89773Y218239D01*
X89722Y218153D01*
X89699Y218082D01*
X89667Y218015D01*
X89646Y217917D01*
X89616Y217821D01*
X89610Y217747D01*
X89594Y217674D01*
X89596Y217574D01*
X89588Y217474D01*
X89599Y217400D01*
X89600Y217326D01*
X89624Y217229D01*
X89639Y217129D01*
X89667Y217060D01*
X89685Y216988D01*
X89731Y216899D01*
X89768Y216805D01*
X89810Y216744D01*
X89844Y216678D01*
X89910Y216602D01*
X89967Y216519D01*
X90022Y216469D01*
X90070Y216413D01*
X90151Y216353D01*
X90226Y216286D01*
X90291Y216250D01*
X90351Y216205D01*
X90443Y216166D01*
X90531Y216117D01*
X90602Y216097D01*
X90671Y216067D01*
X90769Y216050D01*
X90866Y216022D01*
X90966Y216014D01*
X91014Y216006D01*
X91049Y216008D01*
X91110Y216003D01*
X95624Y216003D01*
X95650Y216006D01*
X95676Y216004D01*
X95823Y216026D01*
X95970Y216043D01*
X95995Y216051D01*
X96021Y216055D01*
X96159Y216110D01*
X96298Y216160D01*
X96320Y216174D01*
X96345Y216184D01*
X96466Y216269D01*
X96591Y216349D01*
X96609Y216368D01*
X96631Y216383D01*
X96730Y216493D01*
X96833Y216600D01*
X96847Y216622D01*
X96864Y216642D01*
X96936Y216772D01*
X97012Y216899D01*
X97020Y216924D01*
X97033Y216947D01*
X97073Y217090D01*
X97118Y217231D01*
X97120Y217257D01*
X97128Y217282D01*
X97147Y217526D01*
X97147Y220042D01*
X98338Y221233D01*
X115022Y221233D01*
X116017Y220238D01*
X116096Y220175D01*
X116168Y220106D01*
X116232Y220067D01*
X116290Y220021D01*
X116381Y219978D01*
X116467Y219927D01*
X116538Y219904D01*
X116605Y219872D01*
X116703Y219851D01*
X116799Y219821D01*
X116873Y219815D01*
X116946Y219799D01*
X117046Y219801D01*
X117146Y219793D01*
X117220Y219804D01*
X117294Y219805D01*
X117391Y219829D01*
X117491Y219844D01*
X117560Y219872D01*
X117632Y219890D01*
X117721Y219936D01*
X117815Y219973D01*
X117876Y220015D01*
X117942Y220049D01*
X118018Y220115D01*
X118101Y220172D01*
X118151Y220227D01*
X118207Y220275D01*
X118267Y220356D01*
X118334Y220431D01*
X118370Y220496D01*
X118415Y220556D01*
X118454Y220648D01*
X118503Y220736D01*
X118523Y220807D01*
X118553Y220876D01*
X118570Y220974D01*
X118598Y221071D01*
X118606Y221171D01*
X118614Y221219D01*
X118612Y221254D01*
X118617Y221315D01*
X118617Y228923D01*
X118609Y228999D01*
X118610Y229076D01*
X118589Y229172D01*
X118577Y229270D01*
X118552Y229342D01*
X118535Y229416D01*
X118493Y229505D01*
X118460Y229598D01*
X118418Y229662D01*
X118385Y229731D01*
X118324Y229808D01*
X118271Y229891D01*
X118216Y229944D01*
X118168Y230004D01*
X118091Y230064D01*
X118020Y230133D01*
X118010Y230139D01*
X115931Y232218D01*
X114855Y234815D01*
X114855Y237625D01*
X115931Y240222D01*
X117918Y242209D01*
X120515Y243285D01*
X123498Y243285D01*
X123571Y243272D01*
X123669Y243277D01*
X123766Y243272D01*
X123842Y243286D01*
X123919Y243290D01*
X124013Y243317D01*
X124109Y243334D01*
X124180Y243365D01*
X124254Y243386D01*
X124339Y243434D01*
X124429Y243473D01*
X124491Y243519D01*
X124558Y243556D01*
X124671Y243652D01*
X124709Y243681D01*
X124721Y243696D01*
X124744Y243715D01*
X153572Y272543D01*
X707488Y272543D01*
X733553Y246478D01*
X733553Y88802D01*
X728919Y84168D01*
X728840Y84069D01*
X728756Y83975D01*
X728732Y83933D01*
X728702Y83895D01*
X728648Y83781D01*
X728587Y83670D01*
X728574Y83624D01*
X728553Y83580D01*
X728527Y83457D01*
X728492Y83335D01*
X728487Y83274D01*
X728480Y83239D01*
X728481Y83191D01*
X728473Y83091D01*
X728473Y74742D01*
X722818Y69087D01*
X714822Y69087D01*
X709167Y74742D01*
X709167Y82738D01*
X714822Y88393D01*
X723171Y88393D01*
X723297Y88407D01*
X723423Y88414D01*
X723469Y88427D01*
X723517Y88433D01*
X723636Y88475D01*
X723758Y88510D01*
X723800Y88534D01*
X723845Y88550D01*
X723952Y88619D01*
X724062Y88680D01*
X724108Y88720D01*
X724138Y88739D01*
X724172Y88774D01*
X724248Y88839D01*
X726501Y91092D01*
X726580Y91191D01*
X726664Y91285D01*
X726688Y91327D01*
X726718Y91365D01*
X726772Y91479D01*
X726833Y91590D01*
X726846Y91636D01*
X726867Y91680D01*
X726893Y91803D01*
X726928Y91925D01*
X726933Y91986D01*
X726940Y92021D01*
X726939Y92069D01*
X726947Y92169D01*
X726947Y160594D01*
X726936Y160694D01*
X726934Y160794D01*
X726916Y160866D01*
X726907Y160940D01*
X726874Y161035D01*
X726849Y161132D01*
X726815Y161198D01*
X726790Y161268D01*
X726735Y161353D01*
X726689Y161442D01*
X726641Y161499D01*
X726601Y161561D01*
X726529Y161631D01*
X726464Y161707D01*
X726404Y161752D01*
X726350Y161803D01*
X726264Y161855D01*
X726183Y161915D01*
X726115Y161944D01*
X726051Y161982D01*
X725955Y162013D01*
X725863Y162053D01*
X725790Y162066D01*
X725719Y162088D01*
X725619Y162097D01*
X725520Y162114D01*
X725446Y162110D01*
X725372Y162116D01*
X725272Y162102D01*
X725172Y162096D01*
X725101Y162076D01*
X725027Y162065D01*
X724934Y162028D01*
X724837Y162000D01*
X724772Y161963D01*
X724703Y161936D01*
X724621Y161879D01*
X724533Y161830D01*
X724457Y161765D01*
X724417Y161737D01*
X724393Y161711D01*
X724347Y161671D01*
X720917Y158241D01*
X714723Y158241D01*
X714597Y158227D01*
X714471Y158220D01*
X714425Y158207D01*
X714377Y158201D01*
X714258Y158159D01*
X714136Y158124D01*
X714094Y158100D01*
X714049Y158084D01*
X713942Y158015D01*
X713832Y157954D01*
X713786Y157914D01*
X713756Y157895D01*
X713722Y157860D01*
X713646Y157795D01*
X652878Y97027D01*
X632681Y97027D01*
X632581Y97016D01*
X632481Y97014D01*
X632409Y96996D01*
X632335Y96987D01*
X632240Y96954D01*
X632143Y96929D01*
X632077Y96895D01*
X632007Y96870D01*
X631922Y96815D01*
X631833Y96769D01*
X631776Y96721D01*
X631714Y96681D01*
X631644Y96609D01*
X631568Y96544D01*
X631523Y96484D01*
X631472Y96430D01*
X631420Y96344D01*
X631360Y96263D01*
X631331Y96195D01*
X631293Y96131D01*
X631262Y96035D01*
X631222Y95943D01*
X631209Y95870D01*
X631187Y95799D01*
X631178Y95699D01*
X631161Y95600D01*
X631165Y95526D01*
X631159Y95452D01*
X631173Y95352D01*
X631179Y95252D01*
X631199Y95181D01*
X631210Y95107D01*
X631247Y95014D01*
X631275Y94917D01*
X631312Y94852D01*
X631339Y94783D01*
X631396Y94701D01*
X631445Y94613D01*
X631510Y94537D01*
X631538Y94497D01*
X631564Y94473D01*
X631604Y94427D01*
X633669Y92362D01*
X637192Y88839D01*
X637291Y88760D01*
X637385Y88676D01*
X637427Y88652D01*
X637465Y88622D01*
X637579Y88568D01*
X637690Y88507D01*
X637736Y88494D01*
X637780Y88473D01*
X637903Y88447D01*
X638025Y88412D01*
X638086Y88407D01*
X638121Y88400D01*
X638169Y88401D01*
X638269Y88393D01*
X646618Y88393D01*
X652273Y82738D01*
X652273Y74742D01*
X649474Y71943D01*
X649412Y71865D01*
X649342Y71792D01*
X649304Y71728D01*
X649257Y71670D01*
X649215Y71579D01*
X649163Y71493D01*
X649140Y71422D01*
X649109Y71355D01*
X649087Y71257D01*
X649057Y71161D01*
X649051Y71087D01*
X649035Y71014D01*
X649037Y70914D01*
X649029Y70814D01*
X649040Y70740D01*
X649041Y70666D01*
X649066Y70569D01*
X649081Y70469D01*
X649108Y70400D01*
X649126Y70328D01*
X649172Y70239D01*
X649209Y70145D01*
X649252Y70084D01*
X649286Y70018D01*
X649351Y69942D01*
X649408Y69859D01*
X649463Y69809D01*
X649512Y69753D01*
X649592Y69693D01*
X649667Y69626D01*
X649732Y69590D01*
X649792Y69545D01*
X649884Y69506D01*
X649972Y69457D01*
X650044Y69437D01*
X650112Y69407D01*
X650211Y69390D01*
X650307Y69362D01*
X650407Y69354D01*
X650455Y69346D01*
X650491Y69348D01*
X650551Y69343D01*
X653321Y69343D01*
X653447Y69357D01*
X653573Y69364D01*
X653619Y69377D01*
X653667Y69383D01*
X653786Y69425D01*
X653908Y69460D01*
X653950Y69484D01*
X653995Y69500D01*
X654102Y69569D01*
X654212Y69630D01*
X654258Y69670D01*
X654288Y69689D01*
X654322Y69724D01*
X654398Y69789D01*
X657921Y73312D01*
X658000Y73411D01*
X658084Y73505D01*
X658108Y73547D01*
X658138Y73585D01*
X658192Y73699D01*
X658253Y73810D01*
X658266Y73856D01*
X658287Y73900D01*
X658313Y74023D01*
X658348Y74145D01*
X658353Y74206D01*
X658360Y74241D01*
X658359Y74289D01*
X658367Y74389D01*
X658367Y82738D01*
X664022Y88393D01*
X672018Y88393D01*
X677673Y82738D01*
X677673Y74742D01*
X672018Y69087D01*
X663669Y69087D01*
X663543Y69073D01*
X663417Y69066D01*
X663371Y69053D01*
X663323Y69047D01*
X663204Y69005D01*
X663082Y68970D01*
X663040Y68946D01*
X662995Y68930D01*
X662888Y68861D01*
X662778Y68800D01*
X662732Y68760D01*
X662702Y68741D01*
X662668Y68706D01*
X662592Y68641D01*
X656688Y62737D01*
X650551Y62737D01*
X650451Y62726D01*
X650351Y62724D01*
X650279Y62706D01*
X650205Y62697D01*
X650111Y62664D01*
X650013Y62639D01*
X649947Y62605D01*
X649877Y62580D01*
X649792Y62525D01*
X649703Y62479D01*
X649647Y62431D01*
X649584Y62391D01*
X649514Y62319D01*
X649438Y62254D01*
X649394Y62194D01*
X649342Y62140D01*
X649290Y62054D01*
X649231Y61973D01*
X649201Y61905D01*
X649163Y61841D01*
X649132Y61745D01*
X649093Y61653D01*
X649079Y61580D01*
X649057Y61509D01*
X649049Y61409D01*
X649031Y61310D01*
X649035Y61236D01*
X649029Y61162D01*
X649044Y61062D01*
X649049Y60962D01*
X649069Y60891D01*
X649081Y60817D01*
X649118Y60724D01*
X649145Y60627D01*
X649182Y60562D01*
X649209Y60493D01*
X649266Y60411D01*
X649316Y60323D01*
X649381Y60247D01*
X649408Y60207D01*
X649435Y60183D01*
X649474Y60137D01*
X652273Y57338D01*
X652273Y49342D01*
X646618Y43687D01*
X638622Y43687D01*
X632967Y49342D01*
X632967Y57338D01*
X635766Y60137D01*
X635828Y60215D01*
X635898Y60288D01*
X635936Y60352D01*
X635983Y60410D01*
X636025Y60501D01*
X636077Y60587D01*
X636100Y60658D01*
X636131Y60725D01*
X636153Y60823D01*
X636183Y60919D01*
X636189Y60993D01*
X636205Y61066D01*
X636203Y61166D01*
X636211Y61266D01*
X636200Y61340D01*
X636199Y61414D01*
X636174Y61511D01*
X636159Y61611D01*
X636132Y61680D01*
X636114Y61752D01*
X636068Y61841D01*
X636031Y61935D01*
X635988Y61996D01*
X635954Y62062D01*
X635889Y62138D01*
X635832Y62221D01*
X635777Y62271D01*
X635728Y62327D01*
X635648Y62387D01*
X635573Y62454D01*
X635508Y62490D01*
X635448Y62535D01*
X635356Y62574D01*
X635268Y62623D01*
X635196Y62643D01*
X635128Y62673D01*
X635029Y62690D01*
X634933Y62718D01*
X634833Y62726D01*
X634785Y62734D01*
X634749Y62732D01*
X634689Y62737D01*
X625151Y62737D01*
X625051Y62726D01*
X624951Y62724D01*
X624879Y62706D01*
X624805Y62697D01*
X624711Y62664D01*
X624613Y62639D01*
X624547Y62605D01*
X624477Y62580D01*
X624392Y62525D01*
X624303Y62479D01*
X624247Y62431D01*
X624184Y62391D01*
X624114Y62319D01*
X624038Y62254D01*
X623994Y62194D01*
X623942Y62140D01*
X623890Y62054D01*
X623831Y61973D01*
X623801Y61905D01*
X623763Y61841D01*
X623732Y61745D01*
X623693Y61653D01*
X623679Y61580D01*
X623657Y61509D01*
X623649Y61409D01*
X623631Y61310D01*
X623635Y61236D01*
X623629Y61162D01*
X623644Y61062D01*
X623649Y60962D01*
X623669Y60891D01*
X623681Y60817D01*
X623718Y60724D01*
X623745Y60627D01*
X623782Y60562D01*
X623809Y60493D01*
X623866Y60411D01*
X623916Y60323D01*
X623981Y60247D01*
X624008Y60207D01*
X624035Y60183D01*
X624074Y60137D01*
X626873Y57338D01*
X626873Y49342D01*
X620969Y43438D01*
X620890Y43339D01*
X620806Y43245D01*
X620782Y43203D01*
X620752Y43165D01*
X620698Y43051D01*
X620637Y42940D01*
X620624Y42893D01*
X620603Y42850D01*
X620577Y42726D01*
X620542Y42605D01*
X620537Y42544D01*
X620530Y42509D01*
X620531Y42461D01*
X620523Y42361D01*
X620523Y34192D01*
X613508Y27177D01*
X529492Y27177D01*
X501998Y54671D01*
X501899Y54750D01*
X501805Y54834D01*
X501763Y54858D01*
X501725Y54888D01*
X501611Y54942D01*
X501500Y55003D01*
X501454Y55016D01*
X501410Y55037D01*
X501287Y55063D01*
X501165Y55098D01*
X501104Y55103D01*
X501069Y55110D01*
X501021Y55109D01*
X500921Y55117D01*
X455351Y55117D01*
X455225Y55103D01*
X455099Y55096D01*
X455052Y55083D01*
X455004Y55077D01*
X454886Y55035D01*
X454764Y55000D01*
X454722Y54976D01*
X454676Y54960D01*
X454570Y54891D01*
X454460Y54830D01*
X454414Y54790D01*
X454384Y54771D01*
X454350Y54736D01*
X454274Y54671D01*
X452962Y53359D01*
X450767Y52450D01*
X448393Y52450D01*
X446198Y53359D01*
X444886Y54671D01*
X444787Y54750D01*
X444694Y54834D01*
X444651Y54858D01*
X444613Y54888D01*
X444499Y54942D01*
X444388Y55003D01*
X444342Y55016D01*
X444298Y55037D01*
X444175Y55063D01*
X444053Y55098D01*
X443992Y55103D01*
X443958Y55110D01*
X443910Y55109D01*
X443809Y55117D01*
X421099Y55117D01*
X420973Y55103D01*
X420847Y55096D01*
X420801Y55083D01*
X420753Y55077D01*
X420634Y55035D01*
X420512Y55000D01*
X420470Y54976D01*
X420425Y54960D01*
X420318Y54891D01*
X420208Y54830D01*
X420162Y54790D01*
X420132Y54771D01*
X420098Y54736D01*
X420022Y54671D01*
X408084Y42733D01*
X408021Y42655D01*
X407952Y42582D01*
X407913Y42518D01*
X407867Y42460D01*
X407824Y42369D01*
X407773Y42283D01*
X407750Y42212D01*
X407718Y42145D01*
X407697Y42047D01*
X407667Y41951D01*
X407661Y41877D01*
X407645Y41804D01*
X407647Y41704D01*
X407639Y41604D01*
X407650Y41530D01*
X407651Y41456D01*
X407675Y41359D01*
X407690Y41259D01*
X407718Y41190D01*
X407736Y41118D01*
X407782Y41028D01*
X407819Y40935D01*
X407861Y40874D01*
X407896Y40808D01*
X407961Y40731D01*
X408018Y40649D01*
X408073Y40599D01*
X408121Y40543D01*
X408202Y40483D01*
X408277Y40416D01*
X408342Y40380D01*
X408402Y40335D01*
X408494Y40296D01*
X408582Y40247D01*
X408653Y40227D01*
X408722Y40197D01*
X408820Y40180D01*
X408917Y40152D01*
X409017Y40144D01*
X409065Y40136D01*
X409100Y40138D01*
X409161Y40133D01*
X491203Y40133D01*
X491278Y40141D01*
X491355Y40140D01*
X491451Y40161D01*
X491549Y40173D01*
X491621Y40198D01*
X491695Y40215D01*
X491784Y40257D01*
X491877Y40290D01*
X491941Y40332D01*
X492010Y40364D01*
X492087Y40426D01*
X492170Y40479D01*
X492223Y40534D01*
X492283Y40582D01*
X492344Y40659D01*
X492412Y40730D01*
X492451Y40795D01*
X492498Y40855D01*
X492567Y40988D01*
X492591Y41029D01*
X492597Y41047D01*
X492610Y41073D01*
X492779Y41482D01*
X494458Y43161D01*
X496653Y44070D01*
X499027Y44070D01*
X501222Y43161D01*
X502901Y41482D01*
X503810Y39287D01*
X503810Y36913D01*
X502901Y34718D01*
X501222Y33039D01*
X499027Y32130D01*
X496653Y32130D01*
X494458Y33039D01*
X494416Y33081D01*
X494317Y33160D01*
X494224Y33244D01*
X494181Y33268D01*
X494143Y33298D01*
X494029Y33352D01*
X493919Y33413D01*
X493872Y33426D01*
X493828Y33447D01*
X493705Y33473D01*
X493583Y33508D01*
X493522Y33513D01*
X493488Y33520D01*
X493440Y33519D01*
X493339Y33527D01*
X311111Y33527D01*
X311109Y33527D01*
X311106Y33527D01*
X310936Y33507D01*
X310764Y33487D01*
X310762Y33487D01*
X310760Y33486D01*
X310528Y33411D01*
X308207Y32450D01*
X305833Y32450D01*
X303638Y33359D01*
X303083Y33914D01*
X303004Y33977D01*
X302932Y34047D01*
X302868Y34085D01*
X302810Y34131D01*
X302719Y34174D01*
X302633Y34226D01*
X302562Y34248D01*
X302495Y34280D01*
X302397Y34301D01*
X302301Y34332D01*
X302227Y34338D01*
X302154Y34353D01*
X302054Y34352D01*
X301954Y34360D01*
X301880Y34349D01*
X301806Y34347D01*
X301709Y34323D01*
X301609Y34308D01*
X301540Y34281D01*
X301468Y34262D01*
X301379Y34216D01*
X301285Y34179D01*
X301224Y34137D01*
X301158Y34103D01*
X301081Y34038D01*
X300999Y33980D01*
X300949Y33925D01*
X300893Y33877D01*
X300833Y33796D01*
X300766Y33722D01*
X300730Y33656D01*
X300685Y33597D01*
X300646Y33505D01*
X300597Y33417D01*
X300577Y33345D01*
X300547Y33277D01*
X300530Y33178D01*
X300502Y33081D01*
X300494Y32981D01*
X300486Y32934D01*
X300488Y32898D01*
X300483Y32837D01*
X300483Y21671D01*
X300483Y21669D01*
X300483Y21667D01*
X300503Y21496D01*
X300523Y21324D01*
X300523Y21322D01*
X300524Y21320D01*
X300599Y21088D01*
X301372Y19221D01*
X301372Y16847D01*
X300463Y14652D01*
X299334Y13523D01*
X299271Y13444D01*
X299201Y13372D01*
X299163Y13308D01*
X299117Y13250D01*
X299074Y13159D01*
X299022Y13073D01*
X299000Y13002D01*
X298968Y12935D01*
X298947Y12837D01*
X298916Y12741D01*
X298910Y12667D01*
X298895Y12594D01*
X298896Y12494D01*
X298888Y12394D01*
X298899Y12320D01*
X298901Y12246D01*
X298925Y12149D01*
X298940Y12049D01*
X298967Y11980D01*
X298986Y11908D01*
X299032Y11819D01*
X299069Y11725D01*
X299111Y11664D01*
X299145Y11598D01*
X299210Y11522D01*
X299268Y11439D01*
X299323Y11389D01*
X299371Y11333D01*
X299452Y11273D01*
X299526Y11206D01*
X299592Y11170D01*
X299651Y11125D01*
X299743Y11086D01*
X299831Y11037D01*
X299903Y11017D01*
X299971Y10987D01*
X300070Y10970D01*
X300167Y10942D01*
X300267Y10934D01*
X300314Y10926D01*
X300350Y10928D01*
X300411Y10923D01*
X645701Y10923D01*
X645827Y10937D01*
X645953Y10944D01*
X645999Y10957D01*
X646047Y10963D01*
X646166Y11005D01*
X646288Y11040D01*
X646330Y11064D01*
X646375Y11080D01*
X646482Y11149D01*
X646592Y11210D01*
X646638Y11250D01*
X646668Y11269D01*
X646702Y11304D01*
X646778Y11369D01*
X683321Y47912D01*
X683400Y48011D01*
X683484Y48105D01*
X683508Y48147D01*
X683538Y48185D01*
X683592Y48299D01*
X683653Y48410D01*
X683666Y48456D01*
X683687Y48500D01*
X683713Y48623D01*
X683748Y48745D01*
X683753Y48806D01*
X683760Y48841D01*
X683759Y48889D01*
X683767Y48989D01*
X683767Y57338D01*
X689422Y62993D01*
X697418Y62993D01*
X703073Y57338D01*
X703073Y49342D01*
X697418Y43687D01*
X689069Y43687D01*
X688943Y43673D01*
X688817Y43666D01*
X688771Y43653D01*
X688723Y43647D01*
X688604Y43605D01*
X688482Y43570D01*
X688440Y43546D01*
X688395Y43530D01*
X688288Y43461D01*
X688178Y43400D01*
X688132Y43360D01*
X688102Y43341D01*
X688085Y43323D01*
X688083Y43322D01*
X688065Y43303D01*
X687992Y43241D01*
X651449Y6698D01*
X649892Y5141D01*
X649829Y5062D01*
X649760Y4990D01*
X649721Y4926D01*
X649675Y4868D01*
X649632Y4777D01*
X649581Y4691D01*
X649558Y4620D01*
X649526Y4553D01*
X649505Y4455D01*
X649475Y4359D01*
X649469Y4285D01*
X649453Y4212D01*
X649455Y4112D01*
X649447Y4012D01*
X649458Y3938D01*
X649459Y3864D01*
X649483Y3767D01*
X649498Y3667D01*
X649526Y3598D01*
X649544Y3526D01*
X649590Y3437D01*
X649627Y3343D01*
X649669Y3282D01*
X649704Y3216D01*
X649769Y3140D01*
X649826Y3057D01*
X649881Y3007D01*
X649929Y2951D01*
X650010Y2891D01*
X650085Y2824D01*
X650150Y2788D01*
X650210Y2743D01*
X650302Y2704D01*
X650390Y2655D01*
X650461Y2635D01*
X650530Y2605D01*
X650628Y2588D01*
X650725Y2560D01*
X650825Y2552D01*
X650873Y2544D01*
X650908Y2546D01*
X650969Y2541D01*
X745936Y2541D01*
X745962Y2544D01*
X745988Y2542D01*
X746135Y2564D01*
X746282Y2581D01*
X746307Y2589D01*
X746333Y2593D01*
X746471Y2648D01*
X746610Y2698D01*
X746632Y2712D01*
X746657Y2722D01*
X746778Y2807D01*
X746903Y2887D01*
X746921Y2906D01*
X746943Y2921D01*
X747042Y3031D01*
X747145Y3138D01*
X747159Y3160D01*
X747176Y3180D01*
X747248Y3310D01*
X747324Y3437D01*
X747332Y3462D01*
X747345Y3485D01*
X747385Y3628D01*
X747430Y3769D01*
X747432Y3795D01*
X747440Y3820D01*
X747459Y4064D01*
X747459Y295936D01*
X747456Y295962D01*
X747458Y295988D01*
X747436Y296135D01*
X747419Y296282D01*
X747411Y296307D01*
X747407Y296333D01*
X747352Y296471D01*
X747302Y296610D01*
X747288Y296632D01*
X747278Y296657D01*
X747193Y296778D01*
X747113Y296903D01*
X747094Y296921D01*
X747079Y296943D01*
X746969Y297042D01*
X746862Y297145D01*
X746840Y297159D01*
X746820Y297176D01*
X746690Y297248D01*
X746563Y297324D01*
X746538Y297332D01*
X746515Y297345D01*
X746372Y297385D01*
X746231Y297430D01*
X746205Y297432D01*
X746180Y297440D01*
X745936Y297459D01*
X4064Y297459D01*
X4038Y297456D01*
X4012Y297458D01*
X3865Y297436D01*
X3718Y297419D01*
X3693Y297411D01*
X3667Y297407D01*
X3529Y297352D01*
X3390Y297302D01*
X3368Y297288D01*
X3343Y297278D01*
X3222Y297193D01*
X3097Y297113D01*
X3079Y297094D01*
X3057Y297079D01*
X2958Y296969D01*
X2855Y296862D01*
X2841Y296840D01*
X2824Y296820D01*
X2752Y296690D01*
X2676Y296563D01*
X2668Y296538D01*
X2655Y296515D01*
X2615Y296372D01*
X2570Y296231D01*
X2568Y296205D01*
X2560Y296180D01*
X2541Y295936D01*
X2541Y4064D01*
X2544Y4038D01*
X2542Y4012D01*
X2564Y3865D01*
X2581Y3718D01*
X2589Y3693D01*
X2593Y3667D01*
X2648Y3529D01*
X2698Y3390D01*
X2712Y3368D01*
X2722Y3343D01*
X2807Y3222D01*
X2887Y3097D01*
X2906Y3079D01*
X2921Y3057D01*
X3031Y2958D01*
X3138Y2855D01*
X3160Y2841D01*
X3180Y2824D01*
X3310Y2752D01*
X3437Y2676D01*
X3462Y2668D01*
X3485Y2655D01*
X3628Y2615D01*
X3769Y2570D01*
X3795Y2568D01*
X3820Y2560D01*
X4064Y2541D01*
X93251Y2541D01*
X93351Y2552D01*
G37*
G36*
X395637Y50307D02*
X395637Y50307D01*
X395763Y50314D01*
X395809Y50327D01*
X395857Y50333D01*
X395976Y50375D01*
X396098Y50410D01*
X396140Y50434D01*
X396185Y50450D01*
X396292Y50519D01*
X396402Y50580D01*
X396448Y50620D01*
X396478Y50639D01*
X396512Y50674D01*
X396588Y50739D01*
X415192Y69343D01*
X584017Y69343D01*
X584117Y69354D01*
X584218Y69356D01*
X584290Y69374D01*
X584364Y69383D01*
X584458Y69417D01*
X584556Y69441D01*
X584622Y69475D01*
X584692Y69500D01*
X584776Y69555D01*
X584865Y69601D01*
X584922Y69649D01*
X584984Y69689D01*
X585054Y69761D01*
X585131Y69826D01*
X585175Y69886D01*
X585227Y69940D01*
X585278Y70026D01*
X585338Y70107D01*
X585367Y70175D01*
X585406Y70239D01*
X585436Y70335D01*
X585476Y70427D01*
X585489Y70500D01*
X585512Y70571D01*
X585520Y70671D01*
X585538Y70770D01*
X585534Y70844D01*
X585540Y70918D01*
X585525Y71018D01*
X585520Y71118D01*
X585499Y71189D01*
X585488Y71263D01*
X585451Y71356D01*
X585423Y71453D01*
X585387Y71518D01*
X585359Y71587D01*
X585302Y71669D01*
X585253Y71757D01*
X585188Y71833D01*
X585160Y71873D01*
X585134Y71897D01*
X585094Y71943D01*
X584219Y72818D01*
X583310Y75013D01*
X583310Y76868D01*
X583296Y76994D01*
X583289Y77120D01*
X583276Y77166D01*
X583270Y77214D01*
X583228Y77333D01*
X583193Y77455D01*
X583169Y77497D01*
X583153Y77542D01*
X583084Y77649D01*
X583023Y77759D01*
X582983Y77805D01*
X582964Y77835D01*
X582929Y77869D01*
X582864Y77945D01*
X580738Y80071D01*
X580639Y80150D01*
X580545Y80234D01*
X580503Y80258D01*
X580465Y80288D01*
X580351Y80342D01*
X580240Y80403D01*
X580194Y80416D01*
X580150Y80437D01*
X580027Y80463D01*
X579905Y80498D01*
X579844Y80503D01*
X579809Y80510D01*
X579761Y80509D01*
X579661Y80517D01*
X344899Y80517D01*
X344773Y80503D01*
X344647Y80496D01*
X344601Y80483D01*
X344553Y80477D01*
X344434Y80435D01*
X344312Y80400D01*
X344270Y80376D01*
X344225Y80360D01*
X344118Y80291D01*
X344008Y80230D01*
X343962Y80190D01*
X343932Y80171D01*
X343898Y80136D01*
X343822Y80071D01*
X331536Y67785D01*
X331457Y67686D01*
X331373Y67592D01*
X331349Y67550D01*
X331319Y67512D01*
X331265Y67398D01*
X331204Y67287D01*
X331191Y67241D01*
X331170Y67197D01*
X331144Y67074D01*
X331109Y66952D01*
X331104Y66891D01*
X331097Y66856D01*
X331098Y66808D01*
X331090Y66708D01*
X331090Y64643D01*
X331093Y64617D01*
X331091Y64591D01*
X331113Y64444D01*
X331130Y64297D01*
X331138Y64272D01*
X331142Y64246D01*
X331197Y64108D01*
X331247Y63969D01*
X331261Y63947D01*
X331271Y63922D01*
X331356Y63801D01*
X331436Y63676D01*
X331455Y63658D01*
X331470Y63636D01*
X331580Y63537D01*
X331687Y63434D01*
X331709Y63420D01*
X331729Y63403D01*
X331859Y63331D01*
X331986Y63255D01*
X332011Y63247D01*
X332034Y63234D01*
X332177Y63194D01*
X332318Y63149D01*
X332344Y63147D01*
X332369Y63139D01*
X332613Y63120D01*
X333927Y63120D01*
X336122Y62211D01*
X337801Y60532D01*
X338710Y58337D01*
X338710Y56482D01*
X338724Y56356D01*
X338731Y56230D01*
X338744Y56184D01*
X338750Y56136D01*
X338792Y56017D01*
X338827Y55895D01*
X338851Y55853D01*
X338867Y55808D01*
X338936Y55701D01*
X338997Y55591D01*
X339037Y55545D01*
X339056Y55515D01*
X339091Y55481D01*
X339156Y55405D01*
X343822Y50739D01*
X343921Y50660D01*
X344015Y50576D01*
X344057Y50552D01*
X344095Y50522D01*
X344209Y50468D01*
X344320Y50407D01*
X344366Y50394D01*
X344410Y50373D01*
X344533Y50347D01*
X344655Y50312D01*
X344716Y50307D01*
X344751Y50300D01*
X344799Y50301D01*
X344899Y50293D01*
X395511Y50293D01*
X395637Y50307D01*
G37*
G36*
X610267Y33797D02*
X610267Y33797D01*
X610393Y33804D01*
X610439Y33817D01*
X610487Y33823D01*
X610606Y33865D01*
X610728Y33900D01*
X610770Y33924D01*
X610815Y33940D01*
X610922Y34009D01*
X611032Y34070D01*
X611078Y34110D01*
X611108Y34129D01*
X611142Y34164D01*
X611218Y34229D01*
X613471Y36482D01*
X613550Y36581D01*
X613634Y36675D01*
X613658Y36717D01*
X613688Y36755D01*
X613742Y36869D01*
X613803Y36980D01*
X613816Y37026D01*
X613837Y37070D01*
X613863Y37193D01*
X613883Y37264D01*
X613888Y37280D01*
X613889Y37283D01*
X613898Y37315D01*
X613903Y37376D01*
X613910Y37411D01*
X613909Y37459D01*
X613917Y37559D01*
X613917Y42361D01*
X613903Y42486D01*
X613896Y42613D01*
X613883Y42659D01*
X613877Y42707D01*
X613835Y42826D01*
X613800Y42947D01*
X613776Y42990D01*
X613760Y43035D01*
X613691Y43141D01*
X613630Y43252D01*
X613590Y43298D01*
X613571Y43328D01*
X613536Y43361D01*
X613471Y43438D01*
X607567Y49342D01*
X607567Y57338D01*
X610366Y60137D01*
X610428Y60215D01*
X610498Y60288D01*
X610536Y60352D01*
X610583Y60410D01*
X610625Y60501D01*
X610677Y60587D01*
X610700Y60658D01*
X610731Y60725D01*
X610753Y60823D01*
X610783Y60919D01*
X610789Y60993D01*
X610805Y61066D01*
X610803Y61166D01*
X610811Y61266D01*
X610800Y61340D01*
X610799Y61414D01*
X610774Y61511D01*
X610759Y61611D01*
X610732Y61680D01*
X610714Y61752D01*
X610668Y61841D01*
X610631Y61935D01*
X610588Y61996D01*
X610554Y62062D01*
X610489Y62138D01*
X610432Y62221D01*
X610377Y62271D01*
X610328Y62327D01*
X610248Y62387D01*
X610173Y62454D01*
X610108Y62490D01*
X610048Y62535D01*
X609956Y62574D01*
X609868Y62623D01*
X609796Y62643D01*
X609728Y62673D01*
X609629Y62690D01*
X609533Y62718D01*
X609433Y62726D01*
X609385Y62734D01*
X609349Y62732D01*
X609289Y62737D01*
X506951Y62737D01*
X506851Y62726D01*
X506751Y62724D01*
X506679Y62706D01*
X506605Y62697D01*
X506510Y62664D01*
X506413Y62639D01*
X506347Y62605D01*
X506277Y62580D01*
X506192Y62525D01*
X506103Y62479D01*
X506046Y62431D01*
X505984Y62391D01*
X505914Y62319D01*
X505838Y62254D01*
X505793Y62194D01*
X505742Y62140D01*
X505690Y62054D01*
X505630Y61973D01*
X505601Y61905D01*
X505563Y61841D01*
X505532Y61746D01*
X505492Y61653D01*
X505479Y61580D01*
X505457Y61509D01*
X505448Y61409D01*
X505431Y61310D01*
X505435Y61236D01*
X505429Y61162D01*
X505443Y61063D01*
X505449Y60962D01*
X505469Y60891D01*
X505480Y60817D01*
X505517Y60724D01*
X505545Y60627D01*
X505581Y60562D01*
X505609Y60493D01*
X505666Y60411D01*
X505715Y60323D01*
X505781Y60247D01*
X505808Y60207D01*
X505834Y60183D01*
X505874Y60137D01*
X506669Y59342D01*
X531782Y34229D01*
X531881Y34150D01*
X531975Y34066D01*
X532017Y34042D01*
X532055Y34012D01*
X532169Y33958D01*
X532280Y33897D01*
X532326Y33884D01*
X532370Y33863D01*
X532493Y33837D01*
X532615Y33802D01*
X532676Y33797D01*
X532711Y33790D01*
X532759Y33791D01*
X532859Y33783D01*
X610141Y33783D01*
X610267Y33797D01*
G37*
%LPC*%
G36*
X689422Y69087D02*
X689422Y69087D01*
X683767Y74742D01*
X683767Y82738D01*
X689422Y88393D01*
X697418Y88393D01*
X703073Y82738D01*
X703073Y74742D01*
X697418Y69087D01*
X689422Y69087D01*
G37*
%LPD*%
%LPC*%
G36*
X664022Y43687D02*
X664022Y43687D01*
X658367Y49342D01*
X658367Y57338D01*
X664022Y62993D01*
X672018Y62993D01*
X677673Y57338D01*
X677673Y49342D01*
X672018Y43687D01*
X664022Y43687D01*
G37*
%LPD*%
%LPC*%
G36*
X637983Y158241D02*
X637983Y158241D01*
X633221Y163003D01*
X633221Y169737D01*
X637983Y174499D01*
X644717Y174499D01*
X649479Y169737D01*
X649479Y163003D01*
X644717Y158241D01*
X637983Y158241D01*
G37*
%LPD*%
%LPC*%
G36*
X688783Y158241D02*
X688783Y158241D01*
X684021Y163003D01*
X684021Y169737D01*
X688783Y174499D01*
X695517Y174499D01*
X700279Y169737D01*
X700279Y163003D01*
X695517Y158241D01*
X688783Y158241D01*
G37*
%LPD*%
%LPC*%
G36*
X536383Y158241D02*
X536383Y158241D01*
X531621Y163003D01*
X531621Y169737D01*
X536383Y174499D01*
X543117Y174499D01*
X547879Y169737D01*
X547879Y163003D01*
X543117Y158241D01*
X536383Y158241D01*
G37*
%LPD*%
%LPC*%
G36*
X434783Y158241D02*
X434783Y158241D01*
X430021Y163003D01*
X430021Y169737D01*
X434783Y174499D01*
X441517Y174499D01*
X446279Y169737D01*
X446279Y163003D01*
X441517Y158241D01*
X434783Y158241D01*
G37*
%LPD*%
%LPC*%
G36*
X485583Y158241D02*
X485583Y158241D01*
X480821Y163003D01*
X480821Y169737D01*
X485583Y174499D01*
X492317Y174499D01*
X497079Y169737D01*
X497079Y163003D01*
X492317Y158241D01*
X485583Y158241D01*
G37*
%LPD*%
%LPC*%
G36*
X587183Y158241D02*
X587183Y158241D01*
X582421Y163003D01*
X582421Y169737D01*
X587183Y174499D01*
X593917Y174499D01*
X598679Y169737D01*
X598679Y163003D01*
X593917Y158241D01*
X587183Y158241D01*
G37*
%LPD*%
%LPC*%
G36*
X55750Y106399D02*
X55750Y106399D01*
X53162Y107471D01*
X51181Y109452D01*
X50109Y112040D01*
X50109Y114840D01*
X51181Y117428D01*
X53162Y119409D01*
X55750Y120481D01*
X58550Y120481D01*
X61138Y119409D01*
X63119Y117428D01*
X64191Y114840D01*
X64191Y112040D01*
X63119Y109452D01*
X61138Y107471D01*
X58550Y106399D01*
X55750Y106399D01*
G37*
%LPD*%
%LPC*%
G36*
X55750Y62399D02*
X55750Y62399D01*
X53162Y63471D01*
X51181Y65452D01*
X50109Y68040D01*
X50109Y70840D01*
X51181Y73428D01*
X53162Y75409D01*
X55750Y76481D01*
X58550Y76481D01*
X61138Y75409D01*
X63119Y73428D01*
X64191Y70840D01*
X64191Y68040D01*
X63119Y65452D01*
X61138Y63471D01*
X58550Y62399D01*
X55750Y62399D01*
G37*
%LPD*%
%LPC*%
G36*
X721359Y55879D02*
X721359Y55879D01*
X721359Y62993D01*
X722818Y62993D01*
X728473Y57338D01*
X728473Y55879D01*
X721359Y55879D01*
G37*
%LPD*%
%LPC*%
G36*
X219709Y36829D02*
X219709Y36829D01*
X219709Y43943D01*
X221168Y43943D01*
X226823Y38288D01*
X226823Y36829D01*
X219709Y36829D01*
G37*
%LPD*%
%LPC*%
G36*
X709167Y55879D02*
X709167Y55879D01*
X709167Y57338D01*
X714822Y62993D01*
X716281Y62993D01*
X716281Y55879D01*
X709167Y55879D01*
G37*
%LPD*%
%LPC*%
G36*
X721359Y43687D02*
X721359Y43687D01*
X721359Y50801D01*
X728473Y50801D01*
X728473Y49342D01*
X722818Y43687D01*
X721359Y43687D01*
G37*
%LPD*%
%LPC*%
G36*
X219709Y24637D02*
X219709Y24637D01*
X219709Y31751D01*
X226823Y31751D01*
X226823Y30292D01*
X221168Y24637D01*
X219709Y24637D01*
G37*
%LPD*%
%LPC*%
G36*
X714822Y43687D02*
X714822Y43687D01*
X709167Y49342D01*
X709167Y50801D01*
X716281Y50801D01*
X716281Y43687D01*
X714822Y43687D01*
G37*
%LPD*%
%LPC*%
G36*
X48894Y230504D02*
X48894Y230504D01*
X48894Y238888D01*
X51068Y238888D01*
X51585Y238749D01*
X52048Y238482D01*
X52427Y238103D01*
X52694Y237640D01*
X52833Y237123D01*
X52833Y230504D01*
X48894Y230504D01*
G37*
%LPD*%
%LPC*%
G36*
X48894Y179704D02*
X48894Y179704D01*
X48894Y188088D01*
X51068Y188088D01*
X51585Y187949D01*
X52048Y187682D01*
X52427Y187303D01*
X52694Y186840D01*
X52833Y186323D01*
X52833Y179704D01*
X48894Y179704D01*
G37*
%LPD*%
%LPC*%
G36*
X48894Y218312D02*
X48894Y218312D01*
X48894Y226696D01*
X52833Y226696D01*
X52833Y220077D01*
X52694Y219560D01*
X52427Y219097D01*
X52048Y218718D01*
X51585Y218451D01*
X51068Y218312D01*
X48894Y218312D01*
G37*
%LPD*%
%LPC*%
G36*
X48894Y167512D02*
X48894Y167512D01*
X48894Y175896D01*
X52833Y175896D01*
X52833Y169277D01*
X52694Y168760D01*
X52427Y168297D01*
X52048Y167918D01*
X51585Y167651D01*
X51068Y167512D01*
X48894Y167512D01*
G37*
%LPD*%
%LPC*%
G36*
X41147Y230504D02*
X41147Y230504D01*
X41147Y237123D01*
X41286Y237640D01*
X41553Y238103D01*
X41932Y238482D01*
X42395Y238749D01*
X42912Y238888D01*
X45086Y238888D01*
X45086Y230504D01*
X41147Y230504D01*
G37*
%LPD*%
%LPC*%
G36*
X41147Y179704D02*
X41147Y179704D01*
X41147Y186323D01*
X41286Y186840D01*
X41553Y187303D01*
X41932Y187682D01*
X42395Y187949D01*
X42912Y188088D01*
X45086Y188088D01*
X45086Y179704D01*
X41147Y179704D01*
G37*
%LPD*%
%LPC*%
G36*
X42912Y218312D02*
X42912Y218312D01*
X42395Y218451D01*
X41932Y218718D01*
X41553Y219097D01*
X41286Y219560D01*
X41147Y220077D01*
X41147Y226696D01*
X45086Y226696D01*
X45086Y218312D01*
X42912Y218312D01*
G37*
%LPD*%
%LPC*%
G36*
X42912Y167512D02*
X42912Y167512D01*
X42395Y167651D01*
X41932Y167918D01*
X41553Y168297D01*
X41286Y168760D01*
X41147Y169277D01*
X41147Y175896D01*
X45086Y175896D01*
X45086Y167512D01*
X42912Y167512D01*
G37*
%LPD*%
D10*
X717550Y166370D03*
X692150Y166370D03*
X666750Y166370D03*
X641350Y166370D03*
X615950Y166370D03*
X590550Y166370D03*
X565150Y166370D03*
X539750Y166370D03*
X514350Y166370D03*
X488950Y166370D03*
X463550Y166370D03*
X438150Y166370D03*
X412750Y166370D03*
X387350Y166370D03*
X361950Y166370D03*
X336550Y166370D03*
D11*
X166370Y34290D03*
X191770Y34290D03*
X217170Y34290D03*
X242570Y34290D03*
X267970Y34290D03*
D12*
X617220Y53340D03*
X617220Y78740D03*
X642620Y53340D03*
X642620Y78740D03*
X668020Y53340D03*
X668020Y78740D03*
X693420Y53340D03*
X693420Y78740D03*
X718820Y53340D03*
X718820Y78740D03*
D13*
X46990Y228600D03*
X46990Y177800D03*
X85090Y228600D03*
X85090Y177800D03*
D14*
X106680Y193700D03*
X106680Y212700D03*
D15*
X386080Y73660D03*
X388620Y55880D03*
X444500Y74930D03*
X175260Y121920D03*
X50800Y40640D03*
X15240Y66040D03*
X10160Y243840D03*
X187960Y121920D03*
X104140Y63500D03*
X91440Y119380D03*
X736600Y38100D03*
X297180Y200660D03*
X562610Y44450D03*
X600710Y44450D03*
X433070Y46990D03*
X448310Y46990D03*
X701040Y256540D03*
X718820Y198120D03*
X439420Y259080D03*
X58420Y91440D03*
X68580Y119380D03*
X25400Y154940D03*
X88900Y251460D03*
X53340Y251460D03*
X124460Y274320D03*
X284480Y175260D03*
X320040Y223520D03*
X160020Y208280D03*
X205740Y287020D03*
X259080Y287020D03*
X60960Y152400D03*
X121920Y109220D03*
X142240Y66040D03*
X121920Y81280D03*
X220980Y83820D03*
X218440Y60960D03*
D16*
X706120Y269240D02*
X730250Y245110D01*
X706120Y269240D02*
X154940Y269240D01*
X118872Y139192D02*
X113792Y133858D01*
X118872Y139192D02*
X121920Y142240D01*
X121920Y236220D01*
X154940Y269240D01*
X730250Y245110D02*
X730250Y90170D01*
X718820Y78740D01*
D17*
X113792Y133858D03*
D18*
X121920Y236220D03*
D16*
X607060Y106680D02*
X666750Y166370D01*
X607060Y106680D02*
X330200Y106680D01*
X267970Y34290D02*
X241300Y60960D01*
X281940Y58420D02*
X330200Y106680D01*
X281940Y58420D02*
X281940Y48260D01*
X267970Y34290D01*
D15*
X241300Y60960D03*
D16*
X289560Y55880D02*
X334010Y100330D01*
X651510Y100330D02*
X717550Y166370D01*
X651510Y100330D02*
X334010Y100330D01*
X289560Y55880D02*
X289560Y25400D01*
X279400Y15240D01*
X248920Y15240D01*
X242570Y21590D01*
X242570Y34290D01*
X261620Y175260D02*
X187960Y175260D01*
X166370Y153670D01*
X166370Y34290D01*
D15*
X261620Y175260D03*
D16*
X106680Y162560D02*
X106680Y193700D01*
X647700Y7620D02*
X693420Y53340D01*
X647700Y7620D02*
X200660Y7620D01*
X191770Y16510D01*
X191770Y34290D01*
D18*
X106680Y162560D03*
D16*
X287020Y109220D02*
X287020Y106680D01*
X287020Y109220D02*
X241300Y154940D01*
X325120Y71120D02*
X325120Y66040D01*
X342900Y83820D02*
X581660Y83820D01*
X589280Y76200D01*
X342900Y83820D02*
X325120Y66040D01*
D15*
X287020Y106680D03*
X241300Y154940D03*
X325120Y66040D03*
X589280Y76200D03*
D16*
X251460Y162560D02*
X228600Y162560D01*
X251460Y162560D02*
X259080Y154940D01*
X259080Y146050D01*
X298450Y106680D01*
X566420Y119380D02*
X579120Y132080D01*
X566420Y119380D02*
X311150Y119380D01*
X298450Y106680D01*
D15*
X228600Y162560D03*
X298450Y106680D03*
X579120Y132080D03*
D16*
X228600Y154940D02*
X213360Y154940D01*
X228600Y154940D02*
X276860Y106680D01*
X397510Y46990D02*
X416560Y66040D01*
X397510Y46990D02*
X342900Y46990D01*
X332740Y57150D01*
X416560Y66040D02*
X655320Y66040D01*
X668020Y78740D01*
D15*
X276860Y106680D03*
X213360Y154940D03*
X332740Y57150D03*
D16*
X208280Y144780D02*
X195580Y157480D01*
X208280Y144780D02*
X226060Y144780D01*
X264160Y106680D01*
X402590Y41910D02*
X419100Y58420D01*
X449580Y58420D01*
X402590Y41910D02*
X327090Y41910D01*
X320040Y48960D01*
X617220Y53340D02*
X617220Y35560D01*
X612140Y30480D01*
X530860Y30480D01*
X502920Y58420D01*
X449580Y58420D01*
D15*
X264160Y106680D03*
X195580Y157480D03*
X449580Y58420D03*
X320040Y48960D03*
D16*
X200660Y139700D02*
X185420Y154940D01*
X218440Y139700D02*
X261620Y96520D01*
X218440Y139700D02*
X200660Y139700D01*
X307020Y38420D02*
X308610Y36830D01*
X496570Y36830D01*
X497840Y38100D01*
D15*
X185420Y154940D03*
X261620Y96520D03*
X497840Y38100D03*
X307020Y38420D03*
D16*
X190500Y134620D02*
X175260Y149860D01*
X190500Y134620D02*
X210820Y134620D01*
X261620Y83820D02*
X261620Y68580D01*
X261620Y83820D02*
X210820Y134620D01*
D15*
X261620Y68580D03*
X175260Y149860D03*
D16*
X85090Y177800D02*
X85090Y213360D01*
X85090Y228600D01*
X85750Y212700D02*
X106680Y212700D01*
X85750Y212700D02*
X85090Y213360D01*
X85090Y177800D02*
X73660Y177800D01*
X179070Y77470D02*
X180340Y78740D01*
X179070Y77470D02*
X179070Y13970D01*
X172720Y7620D01*
X96520Y7620D01*
X43180Y60960D01*
X43180Y147320D01*
X73660Y177800D01*
D15*
X180340Y78740D03*
D16*
X347980Y180340D02*
X361950Y166370D01*
X347980Y180340D02*
X309880Y180340D01*
X274320Y144780D01*
D15*
X274320Y144780D03*
D16*
X568960Y149860D02*
X599440Y149860D01*
X615950Y166370D01*
X541020Y121920D02*
X314960Y121920D01*
X541020Y121920D02*
X568960Y149860D01*
D15*
X314960Y121920D03*
D16*
X297180Y53340D02*
X297180Y19812D01*
X295402Y18034D01*
X204470Y42418D02*
X189230Y57658D01*
X629920Y91440D02*
X642620Y78740D01*
X629920Y91440D02*
X467360Y91440D01*
X335280Y91440D02*
X297180Y53340D01*
X335280Y91440D02*
X467360Y91440D01*
X205994Y18034D02*
X205486Y18034D01*
X204470Y19050D01*
X204470Y42418D01*
D15*
X189230Y57658D03*
X205994Y18034D03*
X295402Y18034D03*
X467360Y91440D03*
D16*
X309880Y129540D02*
X303530Y123190D01*
X309880Y129540D02*
X528320Y129540D01*
X565150Y166370D01*
D15*
X303530Y123190D03*
D16*
X485140Y137160D02*
X514350Y166370D01*
X485140Y137160D02*
X304800Y137160D01*
X302260Y134620D01*
D15*
X302260Y134620D03*
D16*
X299720Y144780D02*
X289560Y134620D01*
X299720Y144780D02*
X441960Y144780D01*
X463550Y166370D01*
D15*
X289560Y134620D03*
D16*
X287020Y144780D02*
X294640Y152400D01*
X398780Y152400D01*
X412750Y166370D01*
D15*
X287020Y144780D03*
M02*
