G75*
G70*
%OFA0B0*%
%FSLAX24Y24*%
%IPPOS*%
%LPD*%
%AMOC8*
5,1,8,0,0,1.08239X$1,22.5*
%
%ADD10C,0.0640*%
%ADD11OC8,0.0640*%
%ADD12R,0.0640X0.0640*%
%ADD13R,0.0555X0.0555*%
%ADD14C,0.0555*%
%ADD15C,0.1300*%
D10*
X008705Y004691D02*
X008705Y005291D01*
X009705Y005291D02*
X009705Y004691D01*
X010705Y004691D02*
X010705Y005291D01*
X011705Y005291D02*
X011705Y004691D01*
X012705Y004691D02*
X012705Y005291D01*
X013705Y005291D02*
X013705Y004691D01*
X014705Y004691D02*
X014705Y005291D01*
X015705Y005291D02*
X015705Y004691D01*
X016705Y004691D02*
X016705Y005291D01*
X017705Y005291D02*
X017705Y004691D01*
X018705Y004691D02*
X018705Y005291D01*
X019705Y005291D02*
X019705Y004691D01*
X020705Y004691D02*
X020705Y005291D01*
X021705Y005291D02*
X021705Y004691D01*
X022705Y004691D02*
X022705Y005291D01*
X023705Y005291D02*
X023705Y004691D01*
X023592Y014228D02*
X022992Y014228D01*
X022292Y015928D02*
X022292Y016528D01*
X024292Y016528D02*
X024292Y015928D01*
X010119Y015928D02*
X010119Y016528D01*
X008119Y016528D02*
X008119Y015928D01*
X008819Y014228D02*
X009419Y014228D01*
D11*
X014205Y015728D03*
X015205Y015728D03*
X016205Y015728D03*
X017205Y015728D03*
X018205Y015728D03*
X018205Y014728D03*
X017205Y014728D03*
X016205Y014728D03*
X015205Y014728D03*
X026048Y012972D03*
X026048Y011972D03*
D12*
X014205Y014728D03*
D13*
X026048Y009929D03*
D14*
X026048Y008929D03*
X026048Y007929D03*
D15*
X005969Y004991D03*
X005969Y016409D03*
X026442Y016409D03*
X026442Y004991D03*
M02*
