G75*
G70*
%OFA0B0*%
%FSLAX24Y24*%
%IPPOS*%
%LPD*%
%AMOC8*
5,1,8,0,0,1.08239X$1,22.5*
%
%ADD10C,0.0050*%
%ADD11C,0.0200*%
%ADD12C,0.0060*%
%ADD13R,0.0100X0.0200*%
%ADD14R,0.0200X0.0450*%
%ADD15C,0.0020*%
%ADD16C,0.0120*%
D10*
X004736Y003935D02*
X004811Y003860D01*
X004961Y003860D01*
X005036Y003935D01*
X005196Y003860D02*
X005496Y003860D01*
X005346Y003860D02*
X005346Y004310D01*
X005196Y004160D01*
X005036Y004235D02*
X004961Y004310D01*
X004811Y004310D01*
X004736Y004235D01*
X004736Y003935D01*
X005356Y006682D02*
X005356Y006832D01*
X005356Y006757D02*
X005806Y006757D01*
X005806Y006682D02*
X005806Y006832D01*
X005731Y006989D02*
X005806Y007064D01*
X005806Y007214D01*
X005731Y007289D01*
X005806Y007450D02*
X005806Y007750D01*
X005806Y007600D02*
X005356Y007600D01*
X005506Y007450D01*
X005431Y007289D02*
X005356Y007214D01*
X005356Y007064D01*
X005431Y006989D01*
X005731Y006989D01*
X009236Y004235D02*
X009236Y003935D01*
X009311Y003860D01*
X009461Y003860D01*
X009536Y003935D01*
X009696Y003860D02*
X009996Y004160D01*
X009996Y004235D01*
X009921Y004310D01*
X009771Y004310D01*
X009696Y004235D01*
X009536Y004235D02*
X009461Y004310D01*
X009311Y004310D01*
X009236Y004235D01*
X009696Y003860D02*
X009996Y003860D01*
X009856Y006682D02*
X009856Y006832D01*
X009856Y006757D02*
X010306Y006757D01*
X010306Y006682D02*
X010306Y006832D01*
X010231Y006989D02*
X010306Y007064D01*
X010306Y007214D01*
X010231Y007289D01*
X010306Y007450D02*
X010006Y007750D01*
X009931Y007750D01*
X009856Y007675D01*
X009856Y007525D01*
X009931Y007450D01*
X009931Y007289D02*
X009856Y007214D01*
X009856Y007064D01*
X009931Y006989D01*
X010231Y006989D01*
X010306Y007450D02*
X010306Y007750D01*
X009864Y011310D02*
X009637Y011310D01*
X009751Y011310D02*
X009751Y011650D01*
X009637Y011537D01*
X009505Y011594D02*
X009505Y011480D01*
X009448Y011423D01*
X009278Y011423D01*
X009278Y011310D02*
X009278Y011650D01*
X009448Y011650D01*
X009505Y011594D01*
X009392Y011423D02*
X009505Y011310D01*
X009505Y013310D02*
X009392Y013423D01*
X009448Y013423D02*
X009278Y013423D01*
X009278Y013310D02*
X009278Y013650D01*
X009448Y013650D01*
X009505Y013594D01*
X009505Y013480D01*
X009448Y013423D01*
X009637Y013310D02*
X009864Y013537D01*
X009864Y013594D01*
X009807Y013650D01*
X009694Y013650D01*
X009637Y013594D01*
X009637Y013310D02*
X009864Y013310D01*
X009807Y015310D02*
X009694Y015310D01*
X009637Y015367D01*
X009505Y015310D02*
X009392Y015423D01*
X009448Y015423D02*
X009278Y015423D01*
X009278Y015310D02*
X009278Y015650D01*
X009448Y015650D01*
X009505Y015594D01*
X009505Y015480D01*
X009448Y015423D01*
X009637Y015594D02*
X009694Y015650D01*
X009807Y015650D01*
X009864Y015594D01*
X009864Y015537D01*
X009807Y015480D01*
X009864Y015423D01*
X009864Y015367D01*
X009807Y015310D01*
X009807Y015480D02*
X009751Y015480D01*
X009807Y017310D02*
X009807Y017650D01*
X009637Y017480D01*
X009864Y017480D01*
X009505Y017480D02*
X009448Y017423D01*
X009278Y017423D01*
X009278Y017310D02*
X009278Y017650D01*
X009448Y017650D01*
X009505Y017594D01*
X009505Y017480D01*
X009392Y017423D02*
X009505Y017310D01*
X009505Y019310D02*
X009392Y019423D01*
X009448Y019423D02*
X009278Y019423D01*
X009278Y019310D02*
X009278Y019650D01*
X009448Y019650D01*
X009505Y019594D01*
X009505Y019480D01*
X009448Y019423D01*
X009637Y019367D02*
X009694Y019310D01*
X009807Y019310D01*
X009864Y019367D01*
X009864Y019480D01*
X009807Y019537D01*
X009751Y019537D01*
X009637Y019480D01*
X009637Y019650D01*
X009864Y019650D01*
X008406Y019739D02*
X008406Y020039D01*
X008406Y020200D02*
X008406Y020500D01*
X008406Y020350D02*
X007956Y020350D01*
X008106Y020200D01*
X008031Y020039D02*
X008331Y019739D01*
X008406Y019739D01*
X008331Y019579D02*
X008031Y019579D01*
X007956Y019504D01*
X007956Y019279D01*
X008406Y019279D01*
X008406Y019504D01*
X008331Y019579D01*
X008031Y020039D02*
X007956Y020039D01*
X007956Y019739D01*
X002361Y020677D02*
X002305Y020620D01*
X002191Y020620D01*
X002135Y020677D01*
X002361Y020904D01*
X002361Y020677D01*
X002361Y020904D02*
X002305Y020960D01*
X002191Y020960D01*
X002135Y020904D01*
X002135Y020677D01*
X002002Y020620D02*
X001776Y020620D01*
X001889Y020620D02*
X001889Y020960D01*
X001776Y020847D01*
X001643Y020904D02*
X001643Y020790D01*
X001587Y020733D01*
X001416Y020733D01*
X001416Y020620D02*
X001416Y020960D01*
X001587Y020960D01*
X001643Y020904D01*
X001530Y020733D02*
X001643Y020620D01*
X001587Y018960D02*
X001416Y018960D01*
X001416Y018620D01*
X001416Y018733D02*
X001587Y018733D01*
X001643Y018790D01*
X001643Y018904D01*
X001587Y018960D01*
X001530Y018733D02*
X001643Y018620D01*
X001776Y018677D02*
X001832Y018620D01*
X001946Y018620D01*
X002002Y018677D01*
X002002Y018904D01*
X001946Y018960D01*
X001832Y018960D01*
X001776Y018904D01*
X001776Y018847D01*
X001832Y018790D01*
X002002Y018790D01*
X001946Y016960D02*
X001832Y016960D01*
X001776Y016904D01*
X001776Y016847D01*
X001832Y016790D01*
X001946Y016790D01*
X002002Y016733D01*
X002002Y016677D01*
X001946Y016620D01*
X001832Y016620D01*
X001776Y016677D01*
X001776Y016733D01*
X001832Y016790D01*
X001946Y016790D02*
X002002Y016847D01*
X002002Y016904D01*
X001946Y016960D01*
X001643Y016904D02*
X001643Y016790D01*
X001587Y016733D01*
X001416Y016733D01*
X001416Y016620D02*
X001416Y016960D01*
X001587Y016960D01*
X001643Y016904D01*
X001530Y016733D02*
X001643Y016620D01*
X001587Y014960D02*
X001416Y014960D01*
X001416Y014620D01*
X001416Y014733D02*
X001587Y014733D01*
X001643Y014790D01*
X001643Y014904D01*
X001587Y014960D01*
X001530Y014733D02*
X001643Y014620D01*
X001776Y014620D02*
X001776Y014677D01*
X002002Y014904D01*
X002002Y014960D01*
X001776Y014960D01*
X001587Y012960D02*
X001416Y012960D01*
X001416Y012620D01*
X001416Y012733D02*
X001587Y012733D01*
X001643Y012790D01*
X001643Y012904D01*
X001587Y012960D01*
X001530Y012733D02*
X001643Y012620D01*
X001776Y012677D02*
X001776Y012790D01*
X001946Y012790D01*
X002002Y012733D01*
X002002Y012677D01*
X001946Y012620D01*
X001832Y012620D01*
X001776Y012677D01*
X001776Y012790D02*
X001889Y012904D01*
X002002Y012960D01*
D11*
X001381Y012135D02*
X001181Y012135D01*
X001181Y014135D02*
X001381Y014135D01*
X001381Y016135D02*
X001181Y016135D01*
X001181Y018135D02*
X001381Y018135D01*
X001381Y020135D02*
X001181Y020135D01*
X002981Y020135D02*
X003181Y020135D01*
X003181Y018135D02*
X002981Y018135D01*
X002981Y016135D02*
X003181Y016135D01*
X003181Y014135D02*
X002981Y014135D01*
X002981Y012135D02*
X003181Y012135D01*
X008181Y012135D02*
X008381Y012135D01*
X008381Y014135D02*
X008181Y014135D01*
X008181Y016135D02*
X008381Y016135D01*
X008381Y018135D02*
X008181Y018135D01*
X008181Y020135D02*
X008381Y020135D01*
X009981Y020135D02*
X010181Y020135D01*
X010181Y018135D02*
X009981Y018135D01*
X009981Y016135D02*
X010181Y016135D01*
X010181Y014135D02*
X009981Y014135D01*
X009981Y012135D02*
X010181Y012135D01*
D12*
X009881Y012385D02*
X009881Y011885D01*
X009879Y011868D01*
X009875Y011851D01*
X009868Y011835D01*
X009858Y011821D01*
X009845Y011808D01*
X009831Y011798D01*
X009815Y011791D01*
X009798Y011787D01*
X009781Y011785D01*
X009681Y011785D01*
X009631Y011835D01*
X008731Y011835D01*
X008681Y011785D01*
X008581Y011785D01*
X008564Y011787D01*
X008547Y011791D01*
X008531Y011798D01*
X008517Y011808D01*
X008504Y011821D01*
X008494Y011835D01*
X008487Y011851D01*
X008483Y011868D01*
X008481Y011885D01*
X008481Y012385D01*
X008483Y012402D01*
X008487Y012419D01*
X008494Y012435D01*
X008504Y012449D01*
X008517Y012462D01*
X008531Y012472D01*
X008547Y012479D01*
X008564Y012483D01*
X008581Y012485D01*
X008681Y012485D01*
X008731Y012435D01*
X009631Y012435D01*
X009681Y012485D01*
X009781Y012485D01*
X009798Y012483D01*
X009815Y012479D01*
X009831Y012472D01*
X009845Y012462D01*
X009858Y012449D01*
X009868Y012435D01*
X009875Y012419D01*
X009879Y012402D01*
X009881Y012385D01*
X009781Y013785D02*
X009681Y013785D01*
X009631Y013835D01*
X008731Y013835D01*
X008681Y013785D01*
X008581Y013785D01*
X008564Y013787D01*
X008547Y013791D01*
X008531Y013798D01*
X008517Y013808D01*
X008504Y013821D01*
X008494Y013835D01*
X008487Y013851D01*
X008483Y013868D01*
X008481Y013885D01*
X008481Y014385D01*
X008483Y014402D01*
X008487Y014419D01*
X008494Y014435D01*
X008504Y014449D01*
X008517Y014462D01*
X008531Y014472D01*
X008547Y014479D01*
X008564Y014483D01*
X008581Y014485D01*
X008681Y014485D01*
X008731Y014435D01*
X009631Y014435D01*
X009681Y014485D01*
X009781Y014485D01*
X009798Y014483D01*
X009815Y014479D01*
X009831Y014472D01*
X009845Y014462D01*
X009858Y014449D01*
X009868Y014435D01*
X009875Y014419D01*
X009879Y014402D01*
X009881Y014385D01*
X009881Y013885D01*
X009879Y013868D01*
X009875Y013851D01*
X009868Y013835D01*
X009858Y013821D01*
X009845Y013808D01*
X009831Y013798D01*
X009815Y013791D01*
X009798Y013787D01*
X009781Y013785D01*
X009781Y015785D02*
X009681Y015785D01*
X009631Y015835D01*
X008731Y015835D01*
X008681Y015785D01*
X008581Y015785D01*
X008564Y015787D01*
X008547Y015791D01*
X008531Y015798D01*
X008517Y015808D01*
X008504Y015821D01*
X008494Y015835D01*
X008487Y015851D01*
X008483Y015868D01*
X008481Y015885D01*
X008481Y016385D01*
X008483Y016402D01*
X008487Y016419D01*
X008494Y016435D01*
X008504Y016449D01*
X008517Y016462D01*
X008531Y016472D01*
X008547Y016479D01*
X008564Y016483D01*
X008581Y016485D01*
X008681Y016485D01*
X008731Y016435D01*
X009631Y016435D01*
X009681Y016485D01*
X009781Y016485D01*
X009798Y016483D01*
X009815Y016479D01*
X009831Y016472D01*
X009845Y016462D01*
X009858Y016449D01*
X009868Y016435D01*
X009875Y016419D01*
X009879Y016402D01*
X009881Y016385D01*
X009881Y015885D01*
X009879Y015868D01*
X009875Y015851D01*
X009868Y015835D01*
X009858Y015821D01*
X009845Y015808D01*
X009831Y015798D01*
X009815Y015791D01*
X009798Y015787D01*
X009781Y015785D01*
X009781Y017785D02*
X009681Y017785D01*
X009631Y017835D01*
X008731Y017835D01*
X008681Y017785D01*
X008581Y017785D01*
X008564Y017787D01*
X008547Y017791D01*
X008531Y017798D01*
X008517Y017808D01*
X008504Y017821D01*
X008494Y017835D01*
X008487Y017851D01*
X008483Y017868D01*
X008481Y017885D01*
X008481Y018385D01*
X008483Y018402D01*
X008487Y018419D01*
X008494Y018435D01*
X008504Y018449D01*
X008517Y018462D01*
X008531Y018472D01*
X008547Y018479D01*
X008564Y018483D01*
X008581Y018485D01*
X008681Y018485D01*
X008731Y018435D01*
X009631Y018435D01*
X009681Y018485D01*
X009781Y018485D01*
X009798Y018483D01*
X009815Y018479D01*
X009831Y018472D01*
X009845Y018462D01*
X009858Y018449D01*
X009868Y018435D01*
X009875Y018419D01*
X009879Y018402D01*
X009881Y018385D01*
X009881Y017885D01*
X009879Y017868D01*
X009875Y017851D01*
X009868Y017835D01*
X009858Y017821D01*
X009845Y017808D01*
X009831Y017798D01*
X009815Y017791D01*
X009798Y017787D01*
X009781Y017785D01*
X009781Y019785D02*
X009681Y019785D01*
X009631Y019835D01*
X008731Y019835D01*
X008681Y019785D01*
X008581Y019785D01*
X008564Y019787D01*
X008547Y019791D01*
X008531Y019798D01*
X008517Y019808D01*
X008504Y019821D01*
X008494Y019835D01*
X008487Y019851D01*
X008483Y019868D01*
X008481Y019885D01*
X008481Y020385D01*
X008483Y020402D01*
X008487Y020419D01*
X008494Y020435D01*
X008504Y020449D01*
X008517Y020462D01*
X008531Y020472D01*
X008547Y020479D01*
X008564Y020483D01*
X008581Y020485D01*
X008681Y020485D01*
X008731Y020435D01*
X009631Y020435D01*
X009681Y020485D01*
X009781Y020485D01*
X009798Y020483D01*
X009815Y020479D01*
X009831Y020472D01*
X009845Y020462D01*
X009858Y020449D01*
X009868Y020435D01*
X009875Y020419D01*
X009879Y020402D01*
X009881Y020385D01*
X009881Y019885D01*
X009879Y019868D01*
X009875Y019851D01*
X009868Y019835D01*
X009858Y019821D01*
X009845Y019808D01*
X009831Y019798D01*
X009815Y019791D01*
X009798Y019787D01*
X009781Y019785D01*
X007681Y020635D02*
X007681Y010635D01*
X003681Y010635D01*
X003681Y020385D01*
X003931Y020635D01*
X007681Y020635D01*
X006681Y020535D02*
X006681Y019735D01*
X004681Y019735D01*
X004681Y020535D01*
X006681Y020535D01*
X006281Y020235D02*
X005781Y020235D01*
X005781Y020085D01*
X005781Y020235D02*
X005781Y020385D01*
X005781Y020235D02*
X005381Y020085D01*
X005381Y020385D01*
X005781Y020235D01*
X005231Y020235D01*
X005381Y019385D02*
X005781Y019235D01*
X005781Y019085D01*
X005781Y019235D02*
X005781Y019385D01*
X005781Y019235D02*
X005381Y019085D01*
X005381Y019385D01*
X005231Y019235D02*
X005781Y019235D01*
X006281Y019235D01*
X006131Y019135D02*
X006231Y018935D01*
X006151Y018995D01*
X006231Y019035D01*
X006231Y018935D01*
X006031Y018935D02*
X005951Y018995D01*
X006031Y019035D01*
X006031Y018935D01*
X005931Y019135D01*
X005781Y018385D02*
X005781Y018235D01*
X005781Y018085D01*
X005781Y018235D02*
X005381Y018085D01*
X005381Y018385D01*
X005781Y018235D01*
X006281Y018235D01*
X006131Y018135D02*
X006231Y017935D01*
X006151Y017995D01*
X006231Y018035D01*
X006231Y017935D01*
X006031Y017935D02*
X005951Y017995D01*
X006031Y018035D01*
X006031Y017935D01*
X005931Y018135D01*
X005781Y018235D02*
X005231Y018235D01*
X005381Y017385D02*
X005781Y017235D01*
X005781Y017085D01*
X005781Y017235D02*
X005781Y017385D01*
X005781Y017235D02*
X005381Y017085D01*
X005381Y017385D01*
X005231Y017235D02*
X005781Y017235D01*
X006281Y017235D01*
X006131Y017135D02*
X006231Y016935D01*
X006151Y016995D01*
X006231Y017035D01*
X006231Y016935D01*
X006031Y016935D02*
X005951Y016995D01*
X006031Y017035D01*
X006031Y016935D01*
X005931Y017135D01*
X005781Y016385D02*
X005781Y016235D01*
X005781Y016085D01*
X005781Y016235D02*
X005381Y016085D01*
X005381Y016385D01*
X005781Y016235D01*
X006281Y016235D01*
X006131Y016135D02*
X006231Y015935D01*
X006151Y015995D01*
X006231Y016035D01*
X006231Y015935D01*
X006031Y015935D02*
X005951Y015995D01*
X006031Y016035D01*
X006031Y015935D01*
X005931Y016135D01*
X005781Y016235D02*
X005231Y016235D01*
X005381Y015385D02*
X005781Y015235D01*
X005781Y015085D01*
X005781Y015235D02*
X005781Y015385D01*
X005781Y015235D02*
X005381Y015085D01*
X005381Y015385D01*
X005231Y015235D02*
X005781Y015235D01*
X006281Y015235D01*
X006131Y015135D02*
X006231Y014935D01*
X006151Y014995D01*
X006231Y015035D01*
X006231Y014935D01*
X006031Y014935D02*
X005951Y014995D01*
X006031Y015035D01*
X006031Y014935D01*
X005931Y015135D01*
X005781Y014385D02*
X005781Y014235D01*
X005781Y014085D01*
X005781Y014235D02*
X005381Y014085D01*
X005381Y014385D01*
X005781Y014235D01*
X006281Y014235D01*
X006131Y014135D02*
X006231Y013935D01*
X006151Y013995D01*
X006231Y014035D01*
X006231Y013935D01*
X006031Y013935D02*
X005951Y013995D01*
X006031Y014035D01*
X006031Y013935D01*
X005931Y014135D01*
X005781Y014235D02*
X005231Y014235D01*
X005381Y013385D02*
X005781Y013235D01*
X005781Y013085D01*
X005781Y013235D02*
X005781Y013385D01*
X005781Y013235D02*
X005381Y013085D01*
X005381Y013385D01*
X005231Y013235D02*
X005781Y013235D01*
X006281Y013235D01*
X006131Y013135D02*
X006231Y012935D01*
X006151Y012995D01*
X006231Y013035D01*
X006231Y012935D01*
X006031Y012935D02*
X005951Y012995D01*
X006031Y013035D01*
X006031Y012935D01*
X005931Y013135D01*
X005781Y012385D02*
X005781Y012235D01*
X005781Y012085D01*
X005781Y012235D02*
X005381Y012085D01*
X005381Y012385D01*
X005781Y012235D01*
X006281Y012235D01*
X006131Y012135D02*
X006231Y011935D01*
X006151Y011995D01*
X006231Y012035D01*
X006231Y011935D01*
X006031Y011935D02*
X005951Y011995D01*
X006031Y012035D01*
X006031Y011935D01*
X005931Y012135D01*
X005781Y012235D02*
X005231Y012235D01*
X005381Y011385D02*
X005781Y011235D01*
X005781Y011085D01*
X005781Y011235D02*
X005781Y011385D01*
X005781Y011235D02*
X005381Y011085D01*
X005381Y011385D01*
X005231Y011235D02*
X005781Y011235D01*
X006281Y011235D01*
X006131Y011135D02*
X006231Y010935D01*
X006151Y010995D01*
X006231Y011035D01*
X006231Y010935D01*
X006031Y010935D02*
X005951Y010995D01*
X006031Y011035D01*
X006031Y010935D01*
X005931Y011135D01*
X006681Y010735D02*
X006681Y011535D01*
X004681Y011535D01*
X004681Y010735D01*
X006681Y010735D01*
X006681Y011735D02*
X006681Y012535D01*
X004681Y012535D01*
X004681Y011735D01*
X006681Y011735D01*
X006681Y012735D02*
X006681Y013535D01*
X004681Y013535D01*
X004681Y012735D01*
X006681Y012735D01*
X006681Y013735D02*
X006681Y014535D01*
X004681Y014535D01*
X004681Y013735D01*
X006681Y013735D01*
X006681Y014735D02*
X006681Y015535D01*
X004681Y015535D01*
X004681Y014735D01*
X006681Y014735D01*
X006681Y015735D02*
X006681Y016535D01*
X004681Y016535D01*
X004681Y015735D01*
X006681Y015735D01*
X006681Y016735D02*
X006681Y017535D01*
X004681Y017535D01*
X004681Y016735D01*
X006681Y016735D01*
X006681Y017735D02*
X004681Y017735D01*
X004681Y018535D01*
X006681Y018535D01*
X006681Y017735D01*
X006681Y018735D02*
X004681Y018735D01*
X004681Y019535D01*
X006681Y019535D01*
X006681Y018735D01*
X006231Y019935D02*
X006151Y019995D01*
X006231Y020035D01*
X006231Y019935D01*
X006131Y020135D01*
X006031Y020035D02*
X005951Y019995D01*
X006031Y019935D01*
X006031Y020035D01*
X006031Y019935D02*
X005931Y020135D01*
X002881Y019885D02*
X002881Y020385D01*
X002879Y020402D01*
X002875Y020419D01*
X002868Y020435D01*
X002858Y020449D01*
X002845Y020462D01*
X002831Y020472D01*
X002815Y020479D01*
X002798Y020483D01*
X002781Y020485D01*
X002681Y020485D01*
X002631Y020435D01*
X001731Y020435D01*
X001681Y020485D01*
X001581Y020485D01*
X001564Y020483D01*
X001547Y020479D01*
X001531Y020472D01*
X001517Y020462D01*
X001504Y020449D01*
X001494Y020435D01*
X001487Y020419D01*
X001483Y020402D01*
X001481Y020385D01*
X001481Y019885D01*
X001483Y019868D01*
X001487Y019851D01*
X001494Y019835D01*
X001504Y019821D01*
X001517Y019808D01*
X001531Y019798D01*
X001547Y019791D01*
X001564Y019787D01*
X001581Y019785D01*
X001681Y019785D01*
X001731Y019835D01*
X002631Y019835D01*
X002681Y019785D01*
X002781Y019785D01*
X002798Y019787D01*
X002815Y019791D01*
X002831Y019798D01*
X002845Y019808D01*
X002858Y019821D01*
X002868Y019835D01*
X002875Y019851D01*
X002879Y019868D01*
X002881Y019885D01*
X002781Y018485D02*
X002681Y018485D01*
X002631Y018435D01*
X001731Y018435D01*
X001681Y018485D01*
X001581Y018485D01*
X001564Y018483D01*
X001547Y018479D01*
X001531Y018472D01*
X001517Y018462D01*
X001504Y018449D01*
X001494Y018435D01*
X001487Y018419D01*
X001483Y018402D01*
X001481Y018385D01*
X001481Y017885D01*
X001483Y017868D01*
X001487Y017851D01*
X001494Y017835D01*
X001504Y017821D01*
X001517Y017808D01*
X001531Y017798D01*
X001547Y017791D01*
X001564Y017787D01*
X001581Y017785D01*
X001681Y017785D01*
X001731Y017835D01*
X002631Y017835D01*
X002681Y017785D01*
X002781Y017785D01*
X002798Y017787D01*
X002815Y017791D01*
X002831Y017798D01*
X002845Y017808D01*
X002858Y017821D01*
X002868Y017835D01*
X002875Y017851D01*
X002879Y017868D01*
X002881Y017885D01*
X002881Y018385D01*
X002879Y018402D01*
X002875Y018419D01*
X002868Y018435D01*
X002858Y018449D01*
X002845Y018462D01*
X002831Y018472D01*
X002815Y018479D01*
X002798Y018483D01*
X002781Y018485D01*
X002781Y016485D02*
X002681Y016485D01*
X002631Y016435D01*
X001731Y016435D01*
X001681Y016485D01*
X001581Y016485D01*
X001564Y016483D01*
X001547Y016479D01*
X001531Y016472D01*
X001517Y016462D01*
X001504Y016449D01*
X001494Y016435D01*
X001487Y016419D01*
X001483Y016402D01*
X001481Y016385D01*
X001481Y015885D01*
X001483Y015868D01*
X001487Y015851D01*
X001494Y015835D01*
X001504Y015821D01*
X001517Y015808D01*
X001531Y015798D01*
X001547Y015791D01*
X001564Y015787D01*
X001581Y015785D01*
X001681Y015785D01*
X001731Y015835D01*
X002631Y015835D01*
X002681Y015785D01*
X002781Y015785D01*
X002798Y015787D01*
X002815Y015791D01*
X002831Y015798D01*
X002845Y015808D01*
X002858Y015821D01*
X002868Y015835D01*
X002875Y015851D01*
X002879Y015868D01*
X002881Y015885D01*
X002881Y016385D01*
X002879Y016402D01*
X002875Y016419D01*
X002868Y016435D01*
X002858Y016449D01*
X002845Y016462D01*
X002831Y016472D01*
X002815Y016479D01*
X002798Y016483D01*
X002781Y016485D01*
X002781Y014485D02*
X002681Y014485D01*
X002631Y014435D01*
X001731Y014435D01*
X001681Y014485D01*
X001581Y014485D01*
X001564Y014483D01*
X001547Y014479D01*
X001531Y014472D01*
X001517Y014462D01*
X001504Y014449D01*
X001494Y014435D01*
X001487Y014419D01*
X001483Y014402D01*
X001481Y014385D01*
X001481Y013885D01*
X001483Y013868D01*
X001487Y013851D01*
X001494Y013835D01*
X001504Y013821D01*
X001517Y013808D01*
X001531Y013798D01*
X001547Y013791D01*
X001564Y013787D01*
X001581Y013785D01*
X001681Y013785D01*
X001731Y013835D01*
X002631Y013835D01*
X002681Y013785D01*
X002781Y013785D01*
X002798Y013787D01*
X002815Y013791D01*
X002831Y013798D01*
X002845Y013808D01*
X002858Y013821D01*
X002868Y013835D01*
X002875Y013851D01*
X002879Y013868D01*
X002881Y013885D01*
X002881Y014385D01*
X002879Y014402D01*
X002875Y014419D01*
X002868Y014435D01*
X002858Y014449D01*
X002845Y014462D01*
X002831Y014472D01*
X002815Y014479D01*
X002798Y014483D01*
X002781Y014485D01*
X002781Y012485D02*
X002681Y012485D01*
X002631Y012435D01*
X001731Y012435D01*
X001681Y012485D01*
X001581Y012485D01*
X001564Y012483D01*
X001547Y012479D01*
X001531Y012472D01*
X001517Y012462D01*
X001504Y012449D01*
X001494Y012435D01*
X001487Y012419D01*
X001483Y012402D01*
X001481Y012385D01*
X001481Y011885D01*
X001483Y011868D01*
X001487Y011851D01*
X001494Y011835D01*
X001504Y011821D01*
X001517Y011808D01*
X001531Y011798D01*
X001547Y011791D01*
X001564Y011787D01*
X001581Y011785D01*
X001681Y011785D01*
X001731Y011835D01*
X002631Y011835D01*
X002681Y011785D01*
X002781Y011785D01*
X002798Y011787D01*
X002815Y011791D01*
X002831Y011798D01*
X002845Y011808D01*
X002858Y011821D01*
X002868Y011835D01*
X002875Y011851D01*
X002879Y011868D01*
X002881Y011885D01*
X002881Y012385D01*
X002879Y012402D01*
X002875Y012419D01*
X002868Y012435D01*
X002858Y012449D01*
X002845Y012462D01*
X002831Y012472D01*
X002815Y012479D01*
X002798Y012483D01*
X002781Y012485D01*
X001331Y007905D02*
X005031Y007905D01*
X005054Y007903D01*
X005077Y007898D01*
X005099Y007889D01*
X005119Y007876D01*
X005137Y007861D01*
X005152Y007843D01*
X005165Y007823D01*
X005174Y007801D01*
X005179Y007778D01*
X005181Y007755D01*
X005181Y007335D01*
X005181Y006935D01*
X005181Y006515D01*
X005179Y006492D01*
X005174Y006469D01*
X005165Y006447D01*
X005152Y006427D01*
X005137Y006409D01*
X005119Y006394D01*
X005099Y006381D01*
X005077Y006372D01*
X005054Y006367D01*
X005031Y006365D01*
X001331Y006365D01*
X001308Y006367D01*
X001285Y006372D01*
X001263Y006381D01*
X001243Y006394D01*
X001225Y006409D01*
X001210Y006427D01*
X001197Y006447D01*
X001188Y006469D01*
X001183Y006492D01*
X001181Y006515D01*
X001181Y007755D01*
X001183Y007778D01*
X001188Y007801D01*
X001197Y007823D01*
X001210Y007843D01*
X001225Y007861D01*
X001243Y007876D01*
X001263Y007889D01*
X001285Y007898D01*
X001308Y007903D01*
X001331Y007905D01*
X004081Y005135D02*
X004081Y004635D01*
X004083Y004609D01*
X004088Y004583D01*
X004096Y004558D01*
X004108Y004535D01*
X004122Y004513D01*
X004140Y004494D01*
X004159Y004476D01*
X004181Y004462D01*
X004204Y004450D01*
X004229Y004442D01*
X004255Y004437D01*
X004281Y004435D01*
X005581Y004435D01*
X005607Y004437D01*
X005633Y004442D01*
X005658Y004450D01*
X005681Y004462D01*
X005703Y004476D01*
X005722Y004494D01*
X005740Y004513D01*
X005754Y004535D01*
X005766Y004558D01*
X005774Y004583D01*
X005779Y004609D01*
X005781Y004635D01*
X005781Y005135D01*
X005779Y005161D01*
X005774Y005187D01*
X005766Y005212D01*
X005754Y005235D01*
X005740Y005257D01*
X005722Y005276D01*
X005703Y005294D01*
X005681Y005308D01*
X005658Y005320D01*
X005633Y005328D01*
X005607Y005333D01*
X005581Y005335D01*
X004281Y005335D01*
X004255Y005333D01*
X004229Y005328D01*
X004204Y005320D01*
X004181Y005308D01*
X004159Y005294D01*
X004140Y005276D01*
X004122Y005257D01*
X004108Y005235D01*
X004096Y005212D01*
X004088Y005187D01*
X004083Y005161D01*
X004081Y005135D01*
X004431Y004885D02*
X004801Y004885D01*
X005051Y004885D02*
X005431Y004885D01*
X005831Y006365D02*
X009531Y006365D01*
X009554Y006367D01*
X009577Y006372D01*
X009599Y006381D01*
X009619Y006394D01*
X009637Y006409D01*
X009652Y006427D01*
X009665Y006447D01*
X009674Y006469D01*
X009679Y006492D01*
X009681Y006515D01*
X009681Y006935D01*
X009681Y007335D01*
X009681Y007755D01*
X009679Y007778D01*
X009674Y007801D01*
X009665Y007823D01*
X009652Y007843D01*
X009637Y007861D01*
X009619Y007876D01*
X009599Y007889D01*
X009577Y007898D01*
X009554Y007903D01*
X009531Y007905D01*
X005831Y007905D01*
X005808Y007903D01*
X005785Y007898D01*
X005763Y007889D01*
X005743Y007876D01*
X005725Y007861D01*
X005710Y007843D01*
X005697Y007823D01*
X005688Y007801D01*
X005683Y007778D01*
X005681Y007755D01*
X005681Y006515D01*
X005683Y006492D01*
X005688Y006469D01*
X005697Y006447D01*
X005710Y006427D01*
X005725Y006409D01*
X005743Y006394D01*
X005763Y006381D01*
X005785Y006372D01*
X005808Y006367D01*
X005831Y006365D01*
X005181Y006935D02*
X005154Y006937D01*
X005127Y006942D01*
X005101Y006952D01*
X005077Y006964D01*
X005055Y006980D01*
X005035Y006998D01*
X005018Y007020D01*
X005003Y007043D01*
X004993Y007068D01*
X004985Y007094D01*
X004981Y007121D01*
X004981Y007149D01*
X004985Y007176D01*
X004993Y007202D01*
X005003Y007227D01*
X005018Y007250D01*
X005035Y007272D01*
X005055Y007290D01*
X005077Y007306D01*
X005101Y007318D01*
X005127Y007328D01*
X005154Y007333D01*
X005181Y007335D01*
X008581Y005135D02*
X008581Y004635D01*
X008583Y004609D01*
X008588Y004583D01*
X008596Y004558D01*
X008608Y004535D01*
X008622Y004513D01*
X008640Y004494D01*
X008659Y004476D01*
X008681Y004462D01*
X008704Y004450D01*
X008729Y004442D01*
X008755Y004437D01*
X008781Y004435D01*
X010081Y004435D01*
X010107Y004437D01*
X010133Y004442D01*
X010158Y004450D01*
X010181Y004462D01*
X010203Y004476D01*
X010222Y004494D01*
X010240Y004513D01*
X010254Y004535D01*
X010266Y004558D01*
X010274Y004583D01*
X010279Y004609D01*
X010281Y004635D01*
X010281Y005135D01*
X010279Y005161D01*
X010274Y005187D01*
X010266Y005212D01*
X010254Y005235D01*
X010240Y005257D01*
X010222Y005276D01*
X010203Y005294D01*
X010181Y005308D01*
X010158Y005320D01*
X010133Y005328D01*
X010107Y005333D01*
X010081Y005335D01*
X008781Y005335D01*
X008755Y005333D01*
X008729Y005328D01*
X008704Y005320D01*
X008681Y005308D01*
X008659Y005294D01*
X008640Y005276D01*
X008622Y005257D01*
X008608Y005235D01*
X008596Y005212D01*
X008588Y005187D01*
X008583Y005161D01*
X008581Y005135D01*
X008931Y004885D02*
X009301Y004885D01*
X009551Y004885D02*
X009931Y004885D01*
X009681Y006935D02*
X009654Y006937D01*
X009627Y006942D01*
X009601Y006952D01*
X009577Y006964D01*
X009555Y006980D01*
X009535Y006998D01*
X009518Y007020D01*
X009503Y007043D01*
X009493Y007068D01*
X009485Y007094D01*
X009481Y007121D01*
X009481Y007149D01*
X009485Y007176D01*
X009493Y007202D01*
X009503Y007227D01*
X009518Y007250D01*
X009535Y007272D01*
X009555Y007290D01*
X009577Y007306D01*
X009601Y007318D01*
X009627Y007328D01*
X009654Y007333D01*
X009681Y007335D01*
D13*
X009931Y012135D03*
X009931Y014135D03*
X009931Y016135D03*
X009931Y018135D03*
X009931Y020135D03*
X008431Y020135D03*
X008431Y018135D03*
X008431Y016135D03*
X008431Y014135D03*
X008431Y012135D03*
X002931Y012135D03*
X002931Y014135D03*
X002931Y016135D03*
X002931Y018135D03*
X002931Y020135D03*
X001431Y020135D03*
X001431Y018135D03*
X001431Y016135D03*
X001431Y014135D03*
X001431Y012135D03*
D14*
X001431Y006140D03*
X001931Y006140D03*
X002431Y006140D03*
X002931Y006140D03*
X003431Y006140D03*
X003931Y006140D03*
X004431Y006140D03*
X004931Y006140D03*
X005931Y006140D03*
X006431Y006140D03*
X006931Y006140D03*
X007431Y006140D03*
X007931Y006140D03*
X008431Y006140D03*
X008931Y006140D03*
X009431Y006140D03*
X009431Y008130D03*
X008931Y008130D03*
X008431Y008120D03*
X007931Y008130D03*
X007431Y008130D03*
X006931Y008130D03*
X006431Y008130D03*
X005931Y008130D03*
X004931Y008130D03*
X004431Y008130D03*
X003931Y008120D03*
X003431Y008130D03*
X002931Y008130D03*
X002431Y008130D03*
X001931Y008130D03*
X001431Y008130D03*
D15*
X001181Y007765D02*
X005181Y007765D01*
X005681Y007765D02*
X009681Y007765D01*
D16*
X009551Y005185D02*
X009551Y004585D01*
X009301Y004585D02*
X009301Y005185D01*
X005051Y005185D02*
X005051Y004585D01*
X004801Y004585D02*
X004801Y005185D01*
M02*
