%
M48
M72
T01C0.0200
T02C0.0250
T03C0.0315
T04C0.0354
T05C0.0551
T06C0.0630
T07C0.0709
T08C0.0906
T09C0.1260
T10C0.1614
%
T01
X27077Y15053
X29390Y14167
X30226Y14807
X31407Y15447
X31850Y15447
X31850Y15988
X31604Y14217
X31014Y13232
X36082Y16874
X34852Y18006
X33573Y17612
X32293Y18597
X31653Y18597
X32982Y18597
X27077Y19138
X28799Y18400
X21762Y18793
X18021Y20171
X16988Y20368
X13297Y17908
X13888Y17268
X10836Y18104
X11427Y18695
X10541Y20614
X9901Y20860
X9901Y22337
X10541Y22583
X16939Y18547
X18218Y16825
X17234Y16628
X19596Y15053
X21762Y14856
X21466Y13971
X17431Y14955
X16643Y14955
X14478Y14266
X13297Y14266
X12789Y11191
X11903Y11191
X11805Y9419
X12789Y9419
X21368Y17809
X34951Y23419
X36821Y23419
X35886Y22140
X35000Y21008
X36821Y21008
X35836Y20024
T02
X9754Y11904
X9360Y11510
T03
X34163Y16522
X34163Y14372
X34163Y17522
X30726Y16628
X29726Y16628
X19203Y17415
X19203Y18415
X19203Y19415
X30726Y19778
X29726Y19778
X34163Y13372
T04
X11801Y22829
X10069Y22829
T05
X36132Y7396
X38100Y7396
X40069Y7396
X23730Y22711
X25699Y22711
T06
X38100Y23410
T07
X38100Y21638
T08
X14025Y8852
X7844Y8852
T09
X6604Y6786
X42825Y23321
X6604Y23321
X42825Y6786
T10
X31014Y8360
X24714Y8360
X18415Y8360
M30
