G75*
G70*
%OFA0B0*%
%FSLAX24Y24*%
%IPPOS*%
%LPD*%
%AMOC8*
5,1,8,0,0,1.08239X$1,22.5*
%
%ADD10C,0.0000*%
%ADD11C,0.0060*%
%ADD12C,0.0090*%
%ADD13C,0.0050*%
%ADD14C,0.0120*%
D10*
X000350Y000158D02*
X000350Y009358D01*
X020550Y009358D01*
X020550Y000158D01*
X000350Y000158D01*
X002273Y003292D02*
X002275Y003318D01*
X002281Y003344D01*
X002291Y003369D01*
X002304Y003392D01*
X002320Y003412D01*
X002340Y003430D01*
X002362Y003445D01*
X002385Y003457D01*
X002411Y003465D01*
X002437Y003469D01*
X002463Y003469D01*
X002489Y003465D01*
X002515Y003457D01*
X002539Y003445D01*
X002560Y003430D01*
X002580Y003412D01*
X002596Y003392D01*
X002609Y003369D01*
X002619Y003344D01*
X002625Y003318D01*
X002627Y003292D01*
X002625Y003266D01*
X002619Y003240D01*
X002609Y003215D01*
X002596Y003192D01*
X002580Y003172D01*
X002560Y003154D01*
X002538Y003139D01*
X002515Y003127D01*
X002489Y003119D01*
X002463Y003115D01*
X002437Y003115D01*
X002411Y003119D01*
X002385Y003127D01*
X002361Y003139D01*
X002340Y003154D01*
X002320Y003172D01*
X002304Y003192D01*
X002291Y003215D01*
X002281Y003240D01*
X002275Y003266D01*
X002273Y003292D01*
X002273Y005024D02*
X002275Y005050D01*
X002281Y005076D01*
X002291Y005101D01*
X002304Y005124D01*
X002320Y005144D01*
X002340Y005162D01*
X002362Y005177D01*
X002385Y005189D01*
X002411Y005197D01*
X002437Y005201D01*
X002463Y005201D01*
X002489Y005197D01*
X002515Y005189D01*
X002539Y005177D01*
X002560Y005162D01*
X002580Y005144D01*
X002596Y005124D01*
X002609Y005101D01*
X002619Y005076D01*
X002625Y005050D01*
X002627Y005024D01*
X002625Y004998D01*
X002619Y004972D01*
X002609Y004947D01*
X002596Y004924D01*
X002580Y004904D01*
X002560Y004886D01*
X002538Y004871D01*
X002515Y004859D01*
X002489Y004851D01*
X002463Y004847D01*
X002437Y004847D01*
X002411Y004851D01*
X002385Y004859D01*
X002361Y004871D01*
X002340Y004886D01*
X002320Y004904D01*
X002304Y004924D01*
X002291Y004947D01*
X002281Y004972D01*
X002275Y004998D01*
X002273Y005024D01*
D11*
X002753Y005786D02*
X002679Y005860D01*
X002679Y006006D01*
X002753Y006080D01*
X002826Y006080D01*
X002899Y006006D01*
X002899Y005786D01*
X002753Y005786D02*
X003046Y005786D01*
X003120Y005860D01*
X003120Y006006D01*
X003046Y006080D01*
X003193Y006247D02*
X003193Y006540D01*
X003120Y006707D02*
X003120Y007001D01*
X002826Y006707D01*
X002753Y006707D01*
X002679Y006780D01*
X002679Y006927D01*
X002753Y007001D01*
X002753Y007167D02*
X002679Y007241D01*
X002679Y007387D01*
X002753Y007461D01*
X003046Y007461D01*
X003120Y007387D01*
X003120Y007241D01*
X003046Y007167D01*
X002753Y007167D01*
X002120Y007087D02*
X002046Y007014D01*
X001753Y007014D01*
X001679Y007087D01*
X001679Y007307D01*
X002120Y007307D01*
X002120Y007087D01*
X002120Y007474D02*
X001679Y007474D01*
X001679Y007768D02*
X002120Y007474D01*
X002679Y007621D02*
X002679Y007768D01*
X002679Y007694D02*
X003120Y007694D01*
X003120Y007621D02*
X003120Y007768D01*
X002899Y007935D02*
X002753Y007935D01*
X002679Y008008D01*
X002679Y008228D01*
X003120Y008228D01*
X002973Y008228D02*
X002973Y008008D01*
X002899Y007935D01*
X003679Y008008D02*
X003753Y007935D01*
X003899Y007935D01*
X003973Y008008D01*
X003973Y008228D01*
X004120Y008228D02*
X003679Y008228D01*
X003679Y008008D01*
X003679Y007768D02*
X003679Y007621D01*
X003679Y007694D02*
X004120Y007694D01*
X004120Y007621D02*
X004120Y007768D01*
X004679Y007768D02*
X004679Y007621D01*
X004679Y007694D02*
X005120Y007694D01*
X005120Y007621D02*
X005120Y007768D01*
X004899Y007935D02*
X004973Y008008D01*
X004973Y008228D01*
X005120Y008228D02*
X004679Y008228D01*
X004679Y008008D01*
X004753Y007935D01*
X004899Y007935D01*
X005679Y008008D02*
X005679Y008228D01*
X006120Y008228D01*
X005973Y008228D02*
X005973Y008008D01*
X005899Y007935D01*
X005753Y007935D01*
X005679Y008008D01*
X005679Y007768D02*
X005679Y007621D01*
X005679Y007694D02*
X006120Y007694D01*
X006120Y007621D02*
X006120Y007768D01*
X006679Y007768D02*
X006679Y007621D01*
X006679Y007694D02*
X007120Y007694D01*
X007120Y007621D02*
X007120Y007768D01*
X006899Y007935D02*
X006753Y007935D01*
X006679Y008008D01*
X006679Y008228D01*
X007120Y008228D01*
X006973Y008228D02*
X006973Y008008D01*
X006899Y007935D01*
X007679Y008008D02*
X007753Y007935D01*
X007899Y007935D01*
X007973Y008008D01*
X007973Y008228D01*
X008120Y008228D02*
X007679Y008228D01*
X007679Y008008D01*
X007679Y007768D02*
X007679Y007621D01*
X007679Y007694D02*
X008120Y007694D01*
X008120Y007621D02*
X008120Y007768D01*
X008679Y007768D02*
X008679Y007621D01*
X008679Y007694D02*
X009120Y007694D01*
X009120Y007621D02*
X009120Y007768D01*
X009679Y007768D02*
X009679Y007621D01*
X009679Y007694D02*
X010120Y007694D01*
X010120Y007621D02*
X010120Y007768D01*
X009899Y007935D02*
X009973Y008008D01*
X009973Y008228D01*
X010120Y008228D02*
X009679Y008228D01*
X009679Y008008D01*
X009753Y007935D01*
X009899Y007935D01*
X010679Y008008D02*
X010679Y008228D01*
X011120Y008228D01*
X010973Y008228D02*
X010973Y008008D01*
X010899Y007935D01*
X010753Y007935D01*
X010679Y008008D01*
X010679Y007768D02*
X010679Y007621D01*
X010679Y007694D02*
X011120Y007694D01*
X011120Y007621D02*
X011120Y007768D01*
X011679Y007768D02*
X011679Y007621D01*
X011679Y007694D02*
X012120Y007694D01*
X012120Y007621D02*
X012120Y007768D01*
X011899Y007935D02*
X011753Y007935D01*
X011679Y008008D01*
X011679Y008228D01*
X012120Y008228D01*
X011973Y008228D02*
X011973Y008008D01*
X011899Y007935D01*
X012679Y008008D02*
X012753Y007935D01*
X012899Y007935D01*
X012973Y008008D01*
X012973Y008228D01*
X013120Y008228D02*
X012679Y008228D01*
X012679Y008008D01*
X012679Y007768D02*
X012679Y007621D01*
X012679Y007694D02*
X013120Y007694D01*
X013120Y007621D02*
X013120Y007768D01*
X013679Y007768D02*
X013679Y007621D01*
X013679Y007694D02*
X014120Y007694D01*
X014120Y007621D02*
X014120Y007768D01*
X014679Y007768D02*
X014679Y007621D01*
X014679Y007694D02*
X015120Y007694D01*
X015120Y007621D02*
X015120Y007768D01*
X014899Y007935D02*
X014973Y008008D01*
X014973Y008228D01*
X015120Y008228D02*
X014679Y008228D01*
X014679Y008008D01*
X014753Y007935D01*
X014899Y007935D01*
X015679Y008008D02*
X015679Y008228D01*
X016120Y008228D01*
X015973Y008228D02*
X015973Y008008D01*
X015899Y007935D01*
X015753Y007935D01*
X015679Y008008D01*
X015679Y007768D02*
X015679Y007621D01*
X015679Y007694D02*
X016120Y007694D01*
X016120Y007621D02*
X016120Y007768D01*
X016679Y007768D02*
X016679Y007621D01*
X016679Y007694D02*
X017120Y007694D01*
X017120Y007621D02*
X017120Y007768D01*
X016899Y007935D02*
X016753Y007935D01*
X016679Y008008D01*
X016679Y008228D01*
X017120Y008228D01*
X016973Y008228D02*
X016973Y008008D01*
X016899Y007935D01*
X017679Y008008D02*
X017753Y007935D01*
X017899Y007935D01*
X017973Y008008D01*
X017973Y008228D01*
X018120Y008228D02*
X017679Y008228D01*
X017679Y008008D01*
X017679Y007768D02*
X017679Y007621D01*
X017679Y007694D02*
X018120Y007694D01*
X018120Y007621D02*
X018120Y007768D01*
X018679Y007768D02*
X018679Y007621D01*
X018679Y007694D02*
X019120Y007694D01*
X019120Y007621D02*
X019120Y007768D01*
X019679Y007768D02*
X019679Y007621D01*
X019679Y007694D02*
X020120Y007694D01*
X020120Y007621D02*
X020120Y007768D01*
X019899Y007935D02*
X019973Y008008D01*
X019973Y008228D01*
X020120Y008228D02*
X019679Y008228D01*
X019679Y008008D01*
X019753Y007935D01*
X019899Y007935D01*
X019120Y008228D02*
X018679Y008228D01*
X018679Y008008D01*
X018753Y007935D01*
X018899Y007935D01*
X018973Y008008D01*
X018973Y008228D01*
X019046Y007461D02*
X019120Y007387D01*
X019120Y007241D01*
X019046Y007167D01*
X018753Y007167D01*
X018679Y007241D01*
X018679Y007387D01*
X018753Y007461D01*
X019046Y007461D01*
X019679Y007387D02*
X019679Y007241D01*
X019753Y007167D01*
X020046Y007167D01*
X020120Y007241D01*
X020120Y007387D01*
X020046Y007461D01*
X019753Y007461D01*
X019679Y007387D01*
X019826Y007001D02*
X019679Y006854D01*
X020120Y006854D01*
X020120Y007001D02*
X020120Y006707D01*
X020193Y006540D02*
X020193Y006247D01*
X020046Y006080D02*
X020120Y006006D01*
X020120Y005860D01*
X020046Y005786D01*
X019899Y005786D01*
X019826Y005860D01*
X019826Y005933D01*
X019899Y006080D01*
X019679Y006080D01*
X019679Y005786D01*
X019120Y005860D02*
X019046Y005786D01*
X018973Y005786D01*
X018899Y005860D01*
X018899Y006080D01*
X019046Y006080D01*
X019120Y006006D01*
X019120Y005860D01*
X018899Y006080D02*
X018753Y005933D01*
X018679Y005786D01*
X018120Y006080D02*
X018046Y006080D01*
X017753Y005786D01*
X017679Y005786D01*
X017679Y006080D01*
X017193Y006247D02*
X017193Y006540D01*
X017046Y006707D02*
X017120Y006780D01*
X017120Y006927D01*
X017046Y007001D01*
X016899Y006854D02*
X016899Y006780D01*
X016973Y006707D01*
X017046Y006707D01*
X016899Y006780D02*
X016826Y006707D01*
X016753Y006707D01*
X016679Y006780D01*
X016679Y006927D01*
X016753Y007001D01*
X016753Y007167D02*
X016679Y007241D01*
X016679Y007387D01*
X016753Y007461D01*
X017046Y007461D01*
X017120Y007387D01*
X017120Y007241D01*
X017046Y007167D01*
X016753Y007167D01*
X016120Y007241D02*
X016120Y007387D01*
X016046Y007461D01*
X015753Y007461D01*
X015679Y007387D01*
X015679Y007241D01*
X015753Y007167D01*
X016046Y007167D01*
X016120Y007241D01*
X016120Y007001D02*
X015826Y006707D01*
X015753Y006707D01*
X015679Y006780D01*
X015679Y006927D01*
X015753Y007001D01*
X016120Y007001D02*
X016120Y006707D01*
X016193Y006540D02*
X016193Y006247D01*
X016046Y006080D02*
X015899Y006080D01*
X015899Y005860D01*
X015973Y005786D01*
X016046Y005786D01*
X016120Y005860D01*
X016120Y006006D01*
X016046Y006080D01*
X015899Y006080D02*
X015753Y005933D01*
X015679Y005786D01*
X015120Y005860D02*
X015046Y005786D01*
X014753Y005786D01*
X015046Y006080D01*
X015120Y006006D01*
X015120Y005860D01*
X014753Y005786D02*
X014679Y005860D01*
X014679Y006006D01*
X014753Y006080D01*
X015046Y006080D01*
X015193Y006247D02*
X015193Y006540D01*
X015120Y006707D02*
X015120Y007001D01*
X014826Y006707D01*
X014753Y006707D01*
X014679Y006780D01*
X014679Y006927D01*
X014753Y007001D01*
X014753Y007167D02*
X014679Y007241D01*
X014679Y007387D01*
X014753Y007461D01*
X015046Y007461D01*
X015120Y007387D01*
X015120Y007241D01*
X015046Y007167D01*
X014753Y007167D01*
X014120Y007241D02*
X014120Y007387D01*
X014046Y007461D01*
X013753Y007461D01*
X013679Y007387D01*
X013679Y007241D01*
X013753Y007167D01*
X014046Y007167D01*
X014120Y007241D01*
X014120Y007001D02*
X014120Y006707D01*
X014120Y006854D02*
X013679Y006854D01*
X013826Y007001D01*
X013120Y006927D02*
X013120Y006780D01*
X013046Y006707D01*
X012753Y006707D01*
X013046Y007001D01*
X013120Y006927D01*
X013046Y007001D02*
X012753Y007001D01*
X012679Y006927D01*
X012679Y006780D01*
X012753Y006707D01*
X013193Y006540D02*
X013193Y006247D01*
X013120Y006080D02*
X012826Y005786D01*
X012753Y005786D01*
X012679Y005860D01*
X012679Y006006D01*
X012753Y006080D01*
X013120Y006080D02*
X013120Y005786D01*
X013679Y005860D02*
X013753Y005786D01*
X013826Y005786D01*
X013899Y005860D01*
X013899Y006006D01*
X013826Y006080D01*
X013753Y006080D01*
X013679Y006006D01*
X013679Y005860D01*
X013899Y005860D02*
X013973Y005786D01*
X014046Y005786D01*
X014120Y005860D01*
X014120Y006006D01*
X014046Y006080D01*
X013973Y006080D01*
X013899Y006006D01*
X014193Y006247D02*
X014193Y006540D01*
X012193Y006540D02*
X012193Y006247D01*
X012120Y006080D02*
X012046Y006080D01*
X011753Y005786D01*
X011679Y005786D01*
X011679Y006080D01*
X011193Y006247D02*
X011193Y006540D01*
X011120Y006707D02*
X011120Y007001D01*
X010826Y006707D01*
X010753Y006707D01*
X010679Y006780D01*
X010679Y006927D01*
X010753Y007001D01*
X010753Y007167D02*
X010679Y007241D01*
X010679Y007387D01*
X010753Y007461D01*
X011046Y007461D01*
X011120Y007387D01*
X011120Y007241D01*
X011046Y007167D01*
X010753Y007167D01*
X010120Y007241D02*
X010120Y007387D01*
X010046Y007461D01*
X009753Y007461D01*
X009679Y007387D01*
X009679Y007241D01*
X009753Y007167D01*
X010046Y007167D01*
X010120Y007241D01*
X010120Y007001D02*
X009826Y006707D01*
X009753Y006707D01*
X009679Y006780D01*
X009679Y006927D01*
X009753Y007001D01*
X010120Y007001D02*
X010120Y006707D01*
X010193Y006540D02*
X010193Y006247D01*
X010120Y006080D02*
X010120Y005786D01*
X010120Y005933D02*
X009679Y005933D01*
X009826Y006080D01*
X009193Y006247D02*
X009193Y006540D01*
X009046Y006707D02*
X009120Y006780D01*
X009120Y006927D01*
X009046Y007001D01*
X008753Y006707D01*
X009046Y006707D01*
X008753Y006707D02*
X008679Y006780D01*
X008679Y006927D01*
X008753Y007001D01*
X009046Y007001D01*
X009046Y007167D02*
X008753Y007167D01*
X008679Y007241D01*
X008679Y007387D01*
X008753Y007461D01*
X009046Y007461D01*
X009120Y007387D01*
X009120Y007241D01*
X009046Y007167D01*
X008120Y007241D02*
X008046Y007167D01*
X007753Y007167D01*
X007679Y007241D01*
X007679Y007387D01*
X007753Y007461D01*
X008046Y007461D01*
X008120Y007387D01*
X008120Y007241D01*
X008046Y007001D02*
X007753Y007001D01*
X007679Y006927D01*
X007679Y006780D01*
X007753Y006707D01*
X008046Y007001D01*
X008120Y006927D01*
X008120Y006780D01*
X008046Y006707D01*
X007753Y006707D01*
X008193Y006540D02*
X008193Y006247D01*
X008046Y006080D02*
X008120Y006006D01*
X008120Y005860D01*
X008046Y005786D01*
X007899Y005786D01*
X007826Y005860D01*
X007826Y005933D01*
X007899Y006080D01*
X007679Y006080D01*
X007679Y005786D01*
X007120Y005860D02*
X007046Y005786D01*
X006753Y005786D01*
X006679Y005860D01*
X006679Y006006D01*
X006753Y006080D01*
X006826Y006080D01*
X006899Y006006D01*
X006899Y005786D01*
X007120Y005860D02*
X007120Y006006D01*
X007046Y006080D01*
X007193Y006247D02*
X007193Y006540D01*
X007120Y006707D02*
X007120Y007001D01*
X007120Y006854D02*
X006679Y006854D01*
X006826Y007001D01*
X006753Y007167D02*
X006679Y007241D01*
X006679Y007387D01*
X006753Y007461D01*
X007046Y007461D01*
X007120Y007387D01*
X007120Y007241D01*
X007046Y007167D01*
X006753Y007167D01*
X006120Y007241D02*
X006120Y007387D01*
X006046Y007461D01*
X005753Y007461D01*
X005679Y007387D01*
X005679Y007241D01*
X005753Y007167D01*
X006046Y007167D01*
X006120Y007241D01*
X006120Y007001D02*
X005826Y006707D01*
X005753Y006707D01*
X005679Y006780D01*
X005679Y006927D01*
X005753Y007001D01*
X006120Y007001D02*
X006120Y006707D01*
X006193Y006540D02*
X006193Y006247D01*
X005899Y006080D02*
X005899Y005786D01*
X005679Y005860D02*
X005899Y006080D01*
X006120Y005860D02*
X005679Y005860D01*
X005120Y005860D02*
X005120Y006006D01*
X005046Y006080D01*
X004899Y006080D02*
X004826Y005933D01*
X004826Y005860D01*
X004899Y005786D01*
X005046Y005786D01*
X005120Y005860D01*
X004899Y006080D02*
X004679Y006080D01*
X004679Y005786D01*
X004046Y006080D02*
X003753Y005786D01*
X003679Y005786D01*
X003679Y006080D01*
X004046Y006080D02*
X004120Y006080D01*
X004193Y006247D02*
X004193Y006540D01*
X004046Y006707D02*
X004120Y006780D01*
X004120Y006927D01*
X004046Y007001D01*
X003753Y006707D01*
X004046Y006707D01*
X003753Y006707D02*
X003679Y006780D01*
X003679Y006927D01*
X003753Y007001D01*
X004046Y007001D01*
X004046Y007167D02*
X003753Y007167D01*
X003679Y007241D01*
X003679Y007387D01*
X003753Y007461D01*
X004046Y007461D01*
X004120Y007387D01*
X004120Y007241D01*
X004046Y007167D01*
X004679Y007241D02*
X004679Y007387D01*
X004753Y007461D01*
X005046Y007461D01*
X005120Y007387D01*
X005120Y007241D01*
X005046Y007167D01*
X004753Y007167D01*
X004679Y007241D01*
X004753Y007001D02*
X004679Y006927D01*
X004679Y006780D01*
X004753Y006707D01*
X004826Y006707D01*
X005120Y007001D01*
X005120Y006707D01*
X005193Y006540D02*
X005193Y006247D01*
X008679Y005860D02*
X008899Y006080D01*
X008899Y005786D01*
X008679Y005860D02*
X009120Y005860D01*
X010679Y005860D02*
X010753Y005786D01*
X010826Y005786D01*
X010899Y005860D01*
X010899Y006006D01*
X010826Y006080D01*
X010753Y006080D01*
X010679Y006006D01*
X010679Y005860D01*
X010899Y005860D02*
X010973Y005786D01*
X011046Y005786D01*
X011120Y005860D01*
X011120Y006006D01*
X011046Y006080D01*
X010973Y006080D01*
X010899Y006006D01*
X011679Y006780D02*
X011753Y006707D01*
X011826Y006707D01*
X012120Y007001D01*
X012120Y006707D01*
X011679Y006780D02*
X011679Y006927D01*
X011753Y007001D01*
X011753Y007167D02*
X011679Y007241D01*
X011679Y007387D01*
X011753Y007461D01*
X012046Y007461D01*
X012120Y007387D01*
X012120Y007241D01*
X012046Y007167D01*
X011753Y007167D01*
X012679Y007241D02*
X012753Y007167D01*
X013046Y007167D01*
X013120Y007241D01*
X013120Y007387D01*
X013046Y007461D01*
X012753Y007461D01*
X012679Y007387D01*
X012679Y007241D01*
X013679Y008008D02*
X013753Y007935D01*
X013899Y007935D01*
X013973Y008008D01*
X013973Y008228D01*
X014120Y008228D02*
X013679Y008228D01*
X013679Y008008D01*
X017679Y007387D02*
X017679Y007241D01*
X017753Y007167D01*
X018046Y007167D01*
X018120Y007241D01*
X018120Y007387D01*
X018046Y007461D01*
X017753Y007461D01*
X017679Y007387D01*
X017826Y007001D02*
X017679Y006854D01*
X018120Y006854D01*
X018120Y007001D02*
X018120Y006707D01*
X018193Y006540D02*
X018193Y006247D01*
X019193Y006247D02*
X019193Y006540D01*
X019120Y006707D02*
X019120Y007001D01*
X019120Y006854D02*
X018679Y006854D01*
X018826Y007001D01*
X017120Y006006D02*
X017046Y006080D01*
X017120Y006006D02*
X017120Y005860D01*
X017046Y005786D01*
X016973Y005786D01*
X016899Y005860D01*
X016899Y005933D01*
X016899Y005860D02*
X016826Y005786D01*
X016753Y005786D01*
X016679Y005860D01*
X016679Y006006D01*
X016753Y006080D01*
X018679Y004328D02*
X018679Y004108D01*
X018753Y004035D01*
X018899Y004035D01*
X018973Y004108D01*
X018973Y004328D01*
X019120Y004328D02*
X018679Y004328D01*
X018120Y003928D02*
X017679Y003928D01*
X017679Y003708D01*
X017753Y003635D01*
X017899Y003635D01*
X017973Y003708D01*
X017973Y003928D01*
X018679Y003868D02*
X018679Y003721D01*
X018679Y003794D02*
X019120Y003794D01*
X019120Y003721D02*
X019120Y003868D01*
X019779Y003928D02*
X019779Y003708D01*
X019853Y003635D01*
X019999Y003635D01*
X020073Y003708D01*
X020073Y003928D01*
X020220Y003928D02*
X019779Y003928D01*
X019120Y003487D02*
X019046Y003561D01*
X018753Y003561D01*
X018679Y003487D01*
X018679Y003341D01*
X018753Y003267D01*
X019046Y003267D01*
X019120Y003341D01*
X019120Y003487D01*
X019779Y003468D02*
X019779Y003321D01*
X019779Y003394D02*
X020220Y003394D01*
X020220Y003321D02*
X020220Y003468D01*
X020146Y003161D02*
X019853Y003161D01*
X019779Y003087D01*
X019779Y002941D01*
X019853Y002867D01*
X020146Y002867D01*
X020220Y002941D01*
X020220Y003087D01*
X020146Y003161D01*
X019120Y003101D02*
X019120Y002807D01*
X019120Y002954D02*
X018679Y002954D01*
X018826Y003101D01*
X018120Y003087D02*
X018120Y002941D01*
X018046Y002867D01*
X017753Y002867D01*
X017679Y002941D01*
X017679Y003087D01*
X017753Y003161D01*
X018046Y003161D01*
X018120Y003087D01*
X018120Y003321D02*
X018120Y003468D01*
X018120Y003394D02*
X017679Y003394D01*
X017679Y003321D02*
X017679Y003468D01*
X017120Y003468D02*
X017120Y003321D01*
X017120Y003394D02*
X016679Y003394D01*
X016679Y003321D02*
X016679Y003468D01*
X016753Y003635D02*
X016899Y003635D01*
X016973Y003708D01*
X016973Y003928D01*
X017120Y003928D02*
X016679Y003928D01*
X016679Y003708D01*
X016753Y003635D01*
X016120Y003468D02*
X016120Y003321D01*
X016120Y003394D02*
X015679Y003394D01*
X015679Y003321D02*
X015679Y003468D01*
X015753Y003635D02*
X015899Y003635D01*
X015973Y003708D01*
X015973Y003928D01*
X016120Y003928D02*
X015679Y003928D01*
X015679Y003708D01*
X015753Y003635D01*
X015120Y003468D02*
X015120Y003321D01*
X015120Y003394D02*
X014679Y003394D01*
X014679Y003321D02*
X014679Y003468D01*
X014220Y003468D02*
X014220Y003321D01*
X014220Y003394D02*
X013779Y003394D01*
X013779Y003321D02*
X013779Y003468D01*
X013853Y003635D02*
X013999Y003635D01*
X014073Y003708D01*
X014073Y003928D01*
X014220Y003928D02*
X013779Y003928D01*
X013779Y003708D01*
X013853Y003635D01*
X014679Y003708D02*
X014753Y003635D01*
X014899Y003635D01*
X014973Y003708D01*
X014973Y003928D01*
X015120Y003928D02*
X014679Y003928D01*
X014679Y003708D01*
X014753Y003161D02*
X015046Y003161D01*
X015120Y003087D01*
X015120Y002941D01*
X015046Y002867D01*
X014753Y002867D01*
X014679Y002941D01*
X014679Y003087D01*
X014753Y003161D01*
X014220Y003087D02*
X014220Y002941D01*
X014146Y002867D01*
X013853Y002867D01*
X013779Y002941D01*
X013779Y003087D01*
X013853Y003161D01*
X014146Y003161D01*
X014220Y003087D01*
X014146Y002701D02*
X014220Y002627D01*
X014220Y002480D01*
X014146Y002407D01*
X014073Y002407D01*
X013999Y002480D01*
X013999Y002554D01*
X013999Y002480D02*
X013926Y002407D01*
X013853Y002407D01*
X013779Y002480D01*
X013779Y002627D01*
X013853Y002701D01*
X014679Y002627D02*
X014679Y002480D01*
X014753Y002407D01*
X014826Y002407D01*
X014899Y002480D01*
X014973Y002407D01*
X015046Y002407D01*
X015120Y002480D01*
X015120Y002627D01*
X015046Y002701D01*
X014753Y002701D02*
X014679Y002627D01*
X014899Y002554D02*
X014899Y002480D01*
X015193Y002240D02*
X015193Y001947D01*
X015120Y001780D02*
X015120Y001486D01*
X015120Y001633D02*
X014679Y001633D01*
X014826Y001780D01*
X014293Y001947D02*
X014293Y002240D01*
X013193Y002240D02*
X013193Y001947D01*
X013120Y001780D02*
X012826Y001486D01*
X012753Y001486D01*
X012679Y001560D01*
X012679Y001706D01*
X012753Y001780D01*
X013120Y001780D02*
X013120Y001486D01*
X013779Y001560D02*
X013853Y001486D01*
X014146Y001780D01*
X014220Y001706D01*
X014220Y001560D01*
X014146Y001486D01*
X013853Y001486D01*
X013779Y001560D02*
X013779Y001706D01*
X013853Y001780D01*
X014146Y001780D01*
X015679Y001706D02*
X015679Y001560D01*
X015753Y001486D01*
X015826Y001486D01*
X015899Y001560D01*
X015973Y001486D01*
X016046Y001486D01*
X016120Y001560D01*
X016120Y001706D01*
X016046Y001780D01*
X015899Y001633D02*
X015899Y001560D01*
X015753Y001780D02*
X015679Y001706D01*
X016193Y001947D02*
X016193Y002240D01*
X016120Y002407D02*
X016120Y002701D01*
X015826Y002407D01*
X015753Y002407D01*
X015679Y002480D01*
X015679Y002627D01*
X015753Y002701D01*
X015753Y002867D02*
X015679Y002941D01*
X015679Y003087D01*
X015753Y003161D01*
X016046Y003161D01*
X016120Y003087D01*
X016120Y002941D01*
X016046Y002867D01*
X015753Y002867D01*
X016679Y002941D02*
X016753Y002867D01*
X017046Y002867D01*
X017120Y002941D01*
X017120Y003087D01*
X017046Y003161D01*
X016753Y003161D01*
X016679Y003087D01*
X016679Y002941D01*
X016826Y002701D02*
X016679Y002554D01*
X017120Y002554D01*
X017120Y002701D02*
X017120Y002407D01*
X017193Y002240D02*
X017193Y001947D01*
X017046Y001780D02*
X017120Y001706D01*
X017120Y001560D01*
X017046Y001486D01*
X016973Y001486D01*
X016899Y001560D01*
X016899Y001633D01*
X016899Y001560D02*
X016826Y001486D01*
X016753Y001486D01*
X016679Y001560D01*
X016679Y001706D01*
X016753Y001780D01*
X017679Y001560D02*
X017899Y001780D01*
X017899Y001486D01*
X017679Y001560D02*
X018120Y001560D01*
X018679Y001573D02*
X019120Y001573D01*
X019120Y001719D02*
X019120Y001426D01*
X018826Y001719D02*
X018679Y001573D01*
X019120Y001886D02*
X019120Y002180D01*
X019120Y002033D02*
X018679Y002033D01*
X018826Y002180D01*
X019193Y002347D02*
X019193Y002640D01*
X019779Y002627D02*
X019779Y002480D01*
X019853Y002407D01*
X019926Y002407D01*
X019999Y002480D01*
X020073Y002407D01*
X020146Y002407D01*
X020220Y002480D01*
X020220Y002627D01*
X020146Y002701D01*
X019853Y002701D02*
X019779Y002627D01*
X019999Y002554D02*
X019999Y002480D01*
X020293Y002240D02*
X020293Y001947D01*
X020220Y001780D02*
X019926Y001486D01*
X019853Y001486D01*
X019779Y001560D01*
X019779Y001706D01*
X019853Y001780D01*
X020220Y001780D02*
X020220Y001486D01*
X018193Y001947D02*
X018193Y002240D01*
X018120Y002407D02*
X018120Y002701D01*
X017826Y002701D02*
X017679Y002554D01*
X018120Y002554D01*
X013120Y002554D02*
X012679Y002554D01*
X012826Y002701D01*
X013120Y002701D02*
X013120Y002407D01*
X012193Y002240D02*
X012193Y001947D01*
X012120Y001780D02*
X012120Y001486D01*
X012120Y001633D02*
X011679Y001633D01*
X011826Y001780D01*
X011193Y001947D02*
X011193Y002240D01*
X011120Y002407D02*
X011120Y002701D01*
X010826Y002701D02*
X010679Y002554D01*
X011120Y002554D01*
X011679Y002554D02*
X011826Y002701D01*
X012120Y002701D02*
X012120Y002407D01*
X012120Y002554D02*
X011679Y002554D01*
X011753Y002867D02*
X011679Y002941D01*
X011679Y003087D01*
X011753Y003161D01*
X012046Y003161D01*
X012120Y003087D01*
X012120Y002941D01*
X012046Y002867D01*
X011753Y002867D01*
X011120Y002941D02*
X011120Y003087D01*
X011046Y003161D01*
X010753Y003161D01*
X010679Y003087D01*
X010679Y002941D01*
X010753Y002867D01*
X011046Y002867D01*
X011120Y002941D01*
X010193Y002640D02*
X010193Y002347D01*
X010120Y002180D02*
X010120Y001886D01*
X010120Y001719D02*
X010120Y001426D01*
X010120Y001573D02*
X009679Y001573D01*
X009826Y001719D01*
X009120Y001719D02*
X009120Y001426D01*
X009120Y001573D02*
X008679Y001573D01*
X008826Y001719D01*
X009120Y001886D02*
X009120Y002180D01*
X009120Y002033D02*
X008679Y002033D01*
X008826Y002180D01*
X009193Y002347D02*
X009193Y002640D01*
X009120Y002807D02*
X009120Y003101D01*
X008826Y002807D01*
X008753Y002807D01*
X008679Y002880D01*
X008679Y003027D01*
X008753Y003101D01*
X008753Y003267D02*
X008679Y003341D01*
X008679Y003487D01*
X008753Y003561D01*
X009046Y003561D01*
X009120Y003487D01*
X009120Y003341D01*
X009046Y003267D01*
X008753Y003267D01*
X009679Y003341D02*
X009679Y003487D01*
X009753Y003561D01*
X010046Y003561D01*
X010120Y003487D01*
X010120Y003341D01*
X010046Y003267D01*
X009753Y003267D01*
X009679Y003341D01*
X009753Y003101D02*
X009679Y003027D01*
X009679Y002880D01*
X009753Y002807D01*
X010046Y003101D01*
X010120Y003027D01*
X010120Y002880D01*
X010046Y002807D01*
X009753Y002807D01*
X009753Y003101D02*
X010046Y003101D01*
X010679Y003321D02*
X010679Y003468D01*
X010679Y003394D02*
X011120Y003394D01*
X011120Y003321D02*
X011120Y003468D01*
X010899Y003635D02*
X010973Y003708D01*
X010973Y003928D01*
X011120Y003928D02*
X010679Y003928D01*
X010679Y003708D01*
X010753Y003635D01*
X010899Y003635D01*
X010120Y003721D02*
X010120Y003868D01*
X010120Y003794D02*
X009679Y003794D01*
X009679Y003721D02*
X009679Y003868D01*
X009120Y003868D02*
X009120Y003721D01*
X009120Y003794D02*
X008679Y003794D01*
X008679Y003721D02*
X008679Y003868D01*
X008753Y004035D02*
X008899Y004035D01*
X008973Y004108D01*
X008973Y004328D01*
X009120Y004328D02*
X008679Y004328D01*
X008679Y004108D01*
X008753Y004035D01*
X009679Y004108D02*
X009753Y004035D01*
X009899Y004035D01*
X009973Y004108D01*
X009973Y004328D01*
X010120Y004328D02*
X009679Y004328D01*
X009679Y004108D01*
X008120Y004328D02*
X007679Y004328D01*
X007679Y004108D01*
X007753Y004035D01*
X007899Y004035D01*
X007973Y004108D01*
X007973Y004328D01*
X007120Y004328D02*
X006679Y004328D01*
X006679Y004108D01*
X006753Y004035D01*
X006899Y004035D01*
X006973Y004108D01*
X006973Y004328D01*
X007120Y003868D02*
X007120Y003721D01*
X007120Y003794D02*
X006679Y003794D01*
X006679Y003721D02*
X006679Y003868D01*
X006120Y003828D02*
X005679Y003828D01*
X005679Y003608D01*
X005753Y003535D01*
X005899Y003535D01*
X005973Y003608D01*
X005973Y003828D01*
X006679Y003487D02*
X006753Y003561D01*
X007046Y003561D01*
X007120Y003487D01*
X007120Y003341D01*
X007046Y003267D01*
X006753Y003267D01*
X006679Y003341D01*
X006679Y003487D01*
X006120Y003368D02*
X006120Y003221D01*
X006120Y003294D02*
X005679Y003294D01*
X005679Y003221D02*
X005679Y003368D01*
X005120Y003368D02*
X005120Y003221D01*
X005120Y003294D02*
X004679Y003294D01*
X004679Y003221D02*
X004679Y003368D01*
X004120Y003368D02*
X004120Y003221D01*
X004120Y003294D02*
X003679Y003294D01*
X003679Y003221D02*
X003679Y003368D01*
X003220Y003387D02*
X003220Y003241D01*
X003146Y003167D01*
X002853Y003167D01*
X002779Y003241D01*
X002779Y003387D01*
X002853Y003461D01*
X003146Y003461D01*
X003220Y003387D01*
X003679Y003608D02*
X003753Y003535D01*
X003899Y003535D01*
X003973Y003608D01*
X003973Y003828D01*
X004120Y003828D02*
X003679Y003828D01*
X003679Y003608D01*
X003220Y003621D02*
X003220Y003768D01*
X003220Y003694D02*
X002779Y003694D01*
X002779Y003621D02*
X002779Y003768D01*
X002853Y003935D02*
X002999Y003935D01*
X003073Y004008D01*
X003073Y004228D01*
X003220Y004228D02*
X002779Y004228D01*
X002779Y004008D01*
X002853Y003935D01*
X004679Y003828D02*
X004679Y003608D01*
X004753Y003535D01*
X004899Y003535D01*
X004973Y003608D01*
X004973Y003828D01*
X005120Y003828D02*
X004679Y003828D01*
X004753Y003061D02*
X005046Y003061D01*
X005120Y002987D01*
X005120Y002841D01*
X005046Y002767D01*
X004753Y002767D01*
X004679Y002841D01*
X004679Y002987D01*
X004753Y003061D01*
X004120Y002987D02*
X004120Y002841D01*
X004046Y002767D01*
X003753Y002767D01*
X003679Y002841D01*
X003679Y002987D01*
X003753Y003061D01*
X004046Y003061D01*
X004120Y002987D01*
X003220Y003001D02*
X003220Y002707D01*
X003220Y003001D02*
X002926Y002707D01*
X002853Y002707D01*
X002779Y002780D01*
X002779Y002927D01*
X002853Y003001D01*
X002220Y002655D02*
X002146Y002728D01*
X001853Y002728D01*
X001779Y002655D01*
X001779Y002508D01*
X001853Y002435D01*
X001999Y002435D02*
X001999Y002581D01*
X002146Y002435D02*
X002220Y002508D01*
X002220Y002655D01*
X002146Y002435D02*
X001999Y002435D01*
X001779Y002268D02*
X002220Y001974D01*
X001779Y001974D01*
X001779Y001807D02*
X001779Y001587D01*
X001853Y001514D01*
X002146Y001514D01*
X002220Y001587D01*
X002220Y001807D01*
X001779Y001807D01*
X001220Y001817D02*
X001220Y001964D01*
X001146Y002038D01*
X000853Y002038D02*
X000779Y001964D01*
X000779Y001817D01*
X000853Y001744D01*
X000926Y001744D01*
X000999Y001817D01*
X001073Y001744D01*
X001146Y001744D01*
X001220Y001817D01*
X000999Y001817D02*
X000999Y001891D01*
X001073Y001577D02*
X000779Y001577D01*
X001073Y001577D02*
X001220Y001430D01*
X001073Y001284D01*
X000779Y001284D01*
X002779Y001399D02*
X002853Y001326D01*
X003146Y001619D01*
X003220Y001546D01*
X003220Y001399D01*
X003146Y001326D01*
X002853Y001326D01*
X002779Y001399D02*
X002779Y001546D01*
X002853Y001619D01*
X003146Y001619D01*
X003220Y001786D02*
X003220Y002080D01*
X003220Y001933D02*
X002779Y001933D01*
X002926Y002080D01*
X003293Y002247D02*
X003293Y002540D01*
X003679Y002527D02*
X003679Y002380D01*
X003753Y002307D01*
X003826Y002307D01*
X004120Y002601D01*
X004120Y002307D01*
X004679Y002380D02*
X004753Y002307D01*
X005046Y002601D01*
X005120Y002527D01*
X005120Y002380D01*
X005046Y002307D01*
X004753Y002307D01*
X004679Y002380D02*
X004679Y002527D01*
X004753Y002601D01*
X005046Y002601D01*
X005679Y002527D02*
X005679Y002380D01*
X005753Y002307D01*
X006046Y002601D01*
X006120Y002527D01*
X006120Y002380D01*
X006046Y002307D01*
X005753Y002307D01*
X005679Y002527D02*
X005753Y002601D01*
X006046Y002601D01*
X006046Y002767D02*
X005753Y002767D01*
X005679Y002841D01*
X005679Y002987D01*
X005753Y003061D01*
X006046Y003061D01*
X006120Y002987D01*
X006120Y002841D01*
X006046Y002767D01*
X006679Y002880D02*
X006679Y003027D01*
X006753Y003101D01*
X007046Y003101D01*
X006753Y002807D01*
X007046Y002807D01*
X007120Y002880D01*
X007120Y003027D01*
X007046Y003101D01*
X006753Y002807D02*
X006679Y002880D01*
X007193Y002640D02*
X007193Y002347D01*
X007120Y002180D02*
X007120Y001886D01*
X007046Y001719D02*
X006753Y001719D01*
X006679Y001646D01*
X006679Y001499D01*
X006753Y001426D01*
X007046Y001719D01*
X007120Y001646D01*
X007120Y001499D01*
X007046Y001426D01*
X006753Y001426D01*
X006120Y001460D02*
X006120Y001606D01*
X006046Y001680D01*
X005899Y001606D02*
X005899Y001386D01*
X005753Y001386D02*
X005679Y001460D01*
X005679Y001606D01*
X005753Y001680D01*
X005826Y001680D01*
X005899Y001606D01*
X006120Y001460D02*
X006046Y001386D01*
X005753Y001386D01*
X005120Y001460D02*
X005120Y001606D01*
X005046Y001680D01*
X004973Y001680D01*
X004899Y001606D01*
X004899Y001460D01*
X004973Y001386D01*
X005046Y001386D01*
X005120Y001460D01*
X004899Y001460D02*
X004826Y001386D01*
X004753Y001386D01*
X004679Y001460D01*
X004679Y001606D01*
X004753Y001680D01*
X004826Y001680D01*
X004899Y001606D01*
X004120Y001680D02*
X004120Y001386D01*
X004120Y001680D02*
X003826Y001386D01*
X003753Y001386D01*
X003679Y001460D01*
X003679Y001606D01*
X003753Y001680D01*
X004193Y001847D02*
X004193Y002140D01*
X005193Y002140D02*
X005193Y001847D01*
X006193Y001847D02*
X006193Y002140D01*
X006679Y002033D02*
X007120Y002033D01*
X006826Y002180D02*
X006679Y002033D01*
X007679Y002033D02*
X008120Y002033D01*
X008120Y002180D02*
X008120Y001886D01*
X008046Y001719D02*
X007753Y001719D01*
X007679Y001646D01*
X007679Y001499D01*
X007753Y001426D01*
X008046Y001719D01*
X008120Y001646D01*
X008120Y001499D01*
X008046Y001426D01*
X007753Y001426D01*
X007679Y002033D02*
X007826Y002180D01*
X008193Y002347D02*
X008193Y002640D01*
X008120Y002807D02*
X008120Y003101D01*
X008120Y002954D02*
X007679Y002954D01*
X007826Y003101D01*
X007753Y003267D02*
X007679Y003341D01*
X007679Y003487D01*
X007753Y003561D01*
X008046Y003561D01*
X008120Y003487D01*
X008120Y003341D01*
X008046Y003267D01*
X007753Y003267D01*
X007679Y003721D02*
X007679Y003868D01*
X007679Y003794D02*
X008120Y003794D01*
X008120Y003721D02*
X008120Y003868D01*
X011679Y003928D02*
X011679Y003708D01*
X011753Y003635D01*
X011899Y003635D01*
X011973Y003708D01*
X011973Y003928D01*
X012120Y003928D02*
X011679Y003928D01*
X012679Y003928D02*
X012679Y003708D01*
X012753Y003635D01*
X012899Y003635D01*
X012973Y003708D01*
X012973Y003928D01*
X013120Y003928D02*
X012679Y003928D01*
X012679Y003468D02*
X012679Y003321D01*
X012679Y003394D02*
X013120Y003394D01*
X013120Y003321D02*
X013120Y003468D01*
X013046Y003161D02*
X012753Y003161D01*
X012679Y003087D01*
X012679Y002941D01*
X012753Y002867D01*
X013046Y002867D01*
X013120Y002941D01*
X013120Y003087D01*
X013046Y003161D01*
X012120Y003321D02*
X012120Y003468D01*
X012120Y003394D02*
X011679Y003394D01*
X011679Y003321D02*
X011679Y003468D01*
X009826Y002180D02*
X009679Y002033D01*
X010120Y002033D01*
X010679Y001706D02*
X010753Y001780D01*
X011046Y001780D01*
X010753Y001486D01*
X011046Y001486D01*
X011120Y001560D01*
X011120Y001706D01*
X011046Y001780D01*
X010679Y001706D02*
X010679Y001560D01*
X010753Y001486D01*
X003753Y002601D02*
X003679Y002527D01*
X002220Y002268D02*
X001779Y002268D01*
X001220Y002268D02*
X001220Y002194D01*
X001146Y002194D01*
X001146Y002268D01*
X001220Y002268D01*
X001146Y002435D02*
X001220Y002508D01*
X001220Y002655D01*
X001146Y002728D01*
X000999Y002581D02*
X000999Y002508D01*
X001073Y002435D01*
X001146Y002435D01*
X000999Y002508D02*
X000926Y002435D01*
X000853Y002435D01*
X000779Y002508D01*
X000779Y002655D01*
X000853Y002728D01*
X000973Y007474D02*
X000679Y007474D01*
X000973Y007474D02*
X001120Y007621D01*
X000973Y007768D01*
X000679Y007768D01*
X000679Y007935D02*
X000679Y008228D01*
X000899Y008228D01*
X000826Y008081D01*
X000826Y008008D01*
X000899Y007935D01*
X001046Y007935D01*
X001120Y008008D01*
X001120Y008155D01*
X001046Y008228D01*
X001679Y008155D02*
X001679Y008008D01*
X001753Y007935D01*
X001899Y007935D02*
X001899Y008081D01*
X001899Y007935D02*
X002046Y007935D01*
X002120Y008008D01*
X002120Y008155D01*
X002046Y008228D01*
X001753Y008228D01*
X001679Y008155D01*
X001679Y007768D02*
X002120Y007768D01*
X008679Y008008D02*
X008753Y007935D01*
X008899Y007935D01*
X008973Y008008D01*
X008973Y008228D01*
X009120Y008228D02*
X008679Y008228D01*
X008679Y008008D01*
D12*
X008152Y005428D02*
X008152Y005088D01*
X008067Y005003D01*
X007869Y005088D02*
X007784Y005003D01*
X007613Y005003D01*
X007528Y005088D01*
X007528Y005258D01*
X007613Y005343D01*
X007784Y005343D01*
X007869Y005258D01*
X007869Y005088D01*
X008449Y005088D02*
X008449Y005258D01*
X008534Y005343D01*
X008704Y005343D01*
X008789Y005258D01*
X008789Y005088D01*
X008704Y005003D01*
X008534Y005003D01*
X008449Y005088D01*
X009080Y005343D02*
X009250Y005173D01*
X009462Y005088D02*
X009547Y005003D01*
X009802Y005003D01*
X010014Y005088D02*
X010099Y005173D01*
X010270Y005173D01*
X010355Y005258D01*
X010270Y005343D01*
X010014Y005343D01*
X009802Y005343D02*
X009547Y005343D01*
X009462Y005258D01*
X009462Y005088D01*
X009250Y005003D02*
X009250Y005343D01*
X009080Y005343D02*
X008994Y005343D01*
X008237Y005343D02*
X008067Y005343D01*
X007316Y005343D02*
X007146Y005343D01*
X007231Y005428D02*
X007231Y005088D01*
X007146Y005003D01*
X006948Y005088D02*
X006863Y005003D01*
X006608Y005003D01*
X006608Y004918D02*
X006693Y004833D01*
X006778Y004833D01*
X006608Y004918D02*
X006608Y005343D01*
X006395Y005343D02*
X006140Y005343D01*
X006055Y005258D01*
X006055Y005088D01*
X006140Y005003D01*
X006395Y005003D01*
X006395Y004833D02*
X006395Y005343D01*
X006948Y005343D02*
X006948Y005088D01*
X005843Y005088D02*
X005758Y005003D01*
X005588Y005003D01*
X005843Y005088D02*
X005843Y005258D01*
X005758Y005343D01*
X005588Y005343D01*
X005503Y005258D01*
X005503Y005173D01*
X005843Y005173D01*
X005291Y005258D02*
X005205Y005343D01*
X004950Y005343D01*
X005205Y005173D02*
X005291Y005258D01*
X005205Y005173D02*
X005035Y005173D01*
X004950Y005088D01*
X005035Y005003D01*
X005291Y005003D01*
X004738Y005003D02*
X004738Y005088D01*
X004653Y005088D01*
X004653Y005003D01*
X004738Y005003D01*
X004462Y005088D02*
X004377Y005003D01*
X004122Y005003D01*
X003909Y005088D02*
X003824Y005003D01*
X003654Y005003D01*
X003569Y005088D01*
X003569Y005258D01*
X003654Y005343D01*
X003824Y005343D01*
X003909Y005258D01*
X003909Y005088D01*
X004377Y005343D02*
X004462Y005258D01*
X004462Y005088D01*
X004377Y005343D02*
X004122Y005343D01*
X003357Y005343D02*
X003272Y005343D01*
X003187Y005258D01*
X003102Y005343D01*
X003017Y005258D01*
X003017Y005003D01*
X003187Y005003D02*
X003187Y005258D01*
X003357Y005343D02*
X003357Y005003D01*
X009802Y004833D02*
X009802Y005343D01*
X010567Y005343D02*
X010567Y005003D01*
X010822Y005003D01*
X010907Y005088D01*
X010907Y005343D01*
X011119Y005258D02*
X011204Y005343D01*
X011374Y005343D01*
X011459Y005258D01*
X011459Y005088D01*
X011374Y005003D01*
X011204Y005003D01*
X011119Y005088D01*
X011119Y005258D01*
X011665Y005343D02*
X011750Y005343D01*
X011920Y005173D01*
X012132Y005173D02*
X012472Y005173D01*
X012472Y005088D02*
X012472Y005258D01*
X012387Y005343D01*
X012217Y005343D01*
X012132Y005258D01*
X012132Y005173D01*
X012387Y005003D02*
X012472Y005088D01*
X012387Y005003D02*
X012217Y005003D01*
X011920Y005003D02*
X011920Y005343D01*
X012684Y005343D02*
X012940Y005343D01*
X013025Y005258D01*
X013025Y005088D01*
X012940Y005003D01*
X012684Y005003D01*
X012684Y004918D02*
X012684Y005343D01*
X013237Y005258D02*
X013237Y005003D01*
X013577Y005003D02*
X013577Y005343D01*
X013322Y005343D01*
X013237Y005258D01*
X013789Y005258D02*
X013789Y005003D01*
X014045Y005003D01*
X014130Y005088D01*
X014045Y005173D01*
X013789Y005173D01*
X013789Y005258D02*
X013874Y005343D01*
X014045Y005343D01*
X014342Y005343D02*
X014597Y005343D01*
X014682Y005258D01*
X014682Y005088D01*
X014597Y005003D01*
X014342Y005003D01*
X014342Y005514D01*
X014894Y005514D02*
X015234Y005003D01*
X015787Y005003D02*
X015447Y005514D01*
X015978Y005343D02*
X015978Y005258D01*
X016063Y005258D01*
X016063Y005343D01*
X015978Y005343D01*
X016275Y005258D02*
X016275Y005088D01*
X016360Y005003D01*
X016616Y005003D01*
X016814Y005003D02*
X016899Y005088D01*
X016899Y005428D01*
X016984Y005343D02*
X016814Y005343D01*
X016616Y005343D02*
X016360Y005343D01*
X016275Y005258D01*
X016616Y005343D02*
X016616Y004833D01*
X016063Y005003D02*
X016063Y005088D01*
X015978Y005088D01*
X015978Y005003D01*
X016063Y005003D01*
X017182Y005003D02*
X017267Y005088D01*
X017267Y005428D01*
X017352Y005343D02*
X017182Y005343D01*
X017564Y005258D02*
X017564Y005003D01*
X017905Y005003D02*
X017905Y005514D01*
X017820Y005343D02*
X017649Y005343D01*
X017564Y005258D01*
X017820Y005343D02*
X017905Y005258D01*
X012855Y004833D02*
X012769Y004833D01*
X012684Y004918D01*
X010355Y005003D02*
X010099Y005003D01*
X010014Y005088D01*
D13*
X001399Y005449D02*
X001350Y005006D01*
X001300Y005449D01*
X001399Y005449D01*
X001398Y005438D02*
X001302Y005438D01*
X001301Y005449D02*
X001303Y005462D01*
X001308Y005473D01*
X001315Y005484D01*
X001326Y005491D01*
X001337Y005496D01*
X001350Y005498D01*
X001363Y005496D01*
X001375Y005491D01*
X001385Y005484D01*
X001392Y005473D01*
X001397Y005462D01*
X001399Y005449D01*
X001392Y005389D02*
X001307Y005389D01*
X001312Y005341D02*
X001387Y005341D01*
X001381Y005292D02*
X001318Y005292D01*
X001323Y005244D02*
X001376Y005244D01*
X001371Y005195D02*
X001329Y005195D01*
X001334Y005146D02*
X001365Y005146D01*
X001360Y005098D02*
X001339Y005098D01*
X001345Y005049D02*
X001354Y005049D01*
X001301Y004858D02*
X001303Y004871D01*
X001308Y004883D01*
X001317Y004894D01*
X001327Y004902D01*
X001340Y004906D01*
X001353Y004907D01*
X001366Y004904D01*
X001378Y004898D01*
X001388Y004889D01*
X001395Y004878D01*
X001399Y004865D01*
X001399Y004851D01*
X001395Y004838D01*
X001388Y004827D01*
X001378Y004818D01*
X001366Y004812D01*
X001353Y004809D01*
X001340Y004810D01*
X001327Y004814D01*
X001317Y004822D01*
X001308Y004833D01*
X001303Y004845D01*
X001301Y004858D01*
D14*
X000759Y004661D02*
X001940Y004661D01*
X001989Y004710D01*
X001374Y005842D01*
X001325Y005842D01*
X000710Y004710D01*
X000759Y004661D01*
M02*
