G75*
G70*
%OFA0B0*%
%FSLAX24Y24*%
%IPPOS*%
%LPD*%
%AMOC8*
5,1,8,0,0,1.08239X$1,22.5*
%
%ADD10OC8,0.1080*%
%ADD11C,0.0083*%
%ADD12C,0.0081*%
%ADD13C,0.0082*%
%ADD14C,0.3230*%
%ADD15C,0.1340*%
%ADD16R,0.0907X0.0907*%
%ADD17OC8,0.0635*%
D10*
X015579Y024099D03*
X032579Y024099D03*
D11*
X035659Y024277D02*
X036129Y024277D01*
X035659Y024277D02*
X035659Y024747D01*
X036129Y024747D01*
X036129Y024277D01*
X036129Y024359D02*
X035659Y024359D01*
X035659Y024441D02*
X036129Y024441D01*
X036129Y024523D02*
X035659Y024523D01*
X035659Y024605D02*
X036129Y024605D01*
X036129Y024687D02*
X035659Y024687D01*
X035659Y023451D02*
X036129Y023451D01*
X035659Y023451D02*
X035659Y023921D01*
X036129Y023921D01*
X036129Y023451D01*
X036129Y023533D02*
X035659Y023533D01*
X035659Y023615D02*
X036129Y023615D01*
X036129Y023697D02*
X035659Y023697D01*
X035659Y023779D02*
X036129Y023779D01*
X036129Y023861D02*
X035659Y023861D01*
X037998Y027801D02*
X037998Y028271D01*
X038468Y028271D01*
X038468Y027801D01*
X037998Y027801D01*
X037998Y027883D02*
X038468Y027883D01*
X038468Y027965D02*
X037998Y027965D01*
X037998Y028047D02*
X038468Y028047D01*
X038468Y028129D02*
X037998Y028129D01*
X037998Y028211D02*
X038468Y028211D01*
X038825Y028271D02*
X038825Y027801D01*
X038825Y028271D02*
X039295Y028271D01*
X039295Y027801D01*
X038825Y027801D01*
X038825Y027883D02*
X039295Y027883D01*
X039295Y027965D02*
X038825Y027965D01*
X038825Y028047D02*
X039295Y028047D01*
X039295Y028129D02*
X038825Y028129D01*
X038825Y028211D02*
X039295Y028211D01*
X038825Y028982D02*
X038825Y029452D01*
X039295Y029452D01*
X039295Y028982D01*
X038825Y028982D01*
X038825Y029064D02*
X039295Y029064D01*
X039295Y029146D02*
X038825Y029146D01*
X038825Y029228D02*
X039295Y029228D01*
X039295Y029310D02*
X038825Y029310D01*
X038825Y029392D02*
X039295Y029392D01*
X037998Y029452D02*
X037998Y028982D01*
X037998Y029452D02*
X038468Y029452D01*
X038468Y028982D01*
X037998Y028982D01*
X037998Y029064D02*
X038468Y029064D01*
X038468Y029146D02*
X037998Y029146D01*
X037998Y029228D02*
X038468Y029228D01*
X038468Y029310D02*
X037998Y029310D01*
X037998Y029392D02*
X038468Y029392D01*
X038077Y007661D02*
X038077Y007191D01*
X038077Y007661D02*
X038547Y007661D01*
X038547Y007191D01*
X038077Y007191D01*
X038077Y007273D02*
X038547Y007273D01*
X038547Y007355D02*
X038077Y007355D01*
X038077Y007437D02*
X038547Y007437D01*
X038547Y007519D02*
X038077Y007519D01*
X038077Y007601D02*
X038547Y007601D01*
X038903Y007661D02*
X038903Y007191D01*
X038903Y007661D02*
X039373Y007661D01*
X039373Y007191D01*
X038903Y007191D01*
X038903Y007273D02*
X039373Y007273D01*
X039373Y007355D02*
X038903Y007355D01*
X038903Y007437D02*
X039373Y007437D01*
X039373Y007519D02*
X038903Y007519D01*
X038903Y007601D02*
X039373Y007601D01*
X032051Y007661D02*
X032051Y007191D01*
X031581Y007191D01*
X031581Y007661D01*
X032051Y007661D01*
X032051Y007273D02*
X031581Y007273D01*
X031581Y007355D02*
X032051Y007355D01*
X032051Y007437D02*
X031581Y007437D01*
X031581Y007519D02*
X032051Y007519D01*
X032051Y007601D02*
X031581Y007601D01*
X031224Y007661D02*
X031224Y007191D01*
X030754Y007191D01*
X030754Y007661D01*
X031224Y007661D01*
X031224Y007273D02*
X030754Y007273D01*
X030754Y007355D02*
X031224Y007355D01*
X031224Y007437D02*
X030754Y007437D01*
X030754Y007519D02*
X031224Y007519D01*
X031224Y007601D02*
X030754Y007601D01*
X024258Y007661D02*
X024258Y007191D01*
X024258Y007661D02*
X024728Y007661D01*
X024728Y007191D01*
X024258Y007191D01*
X024258Y007273D02*
X024728Y007273D01*
X024728Y007355D02*
X024258Y007355D01*
X024258Y007437D02*
X024728Y007437D01*
X024728Y007519D02*
X024258Y007519D01*
X024258Y007601D02*
X024728Y007601D01*
X023431Y007661D02*
X023431Y007191D01*
X023431Y007661D02*
X023901Y007661D01*
X023901Y007191D01*
X023431Y007191D01*
X023431Y007273D02*
X023901Y007273D01*
X023901Y007355D02*
X023431Y007355D01*
X023431Y007437D02*
X023901Y007437D01*
X023901Y007519D02*
X023431Y007519D01*
X023431Y007601D02*
X023901Y007601D01*
X016935Y007661D02*
X016935Y007191D01*
X016935Y007661D02*
X017405Y007661D01*
X017405Y007191D01*
X016935Y007191D01*
X016935Y007273D02*
X017405Y007273D01*
X017405Y007355D02*
X016935Y007355D01*
X016935Y007437D02*
X017405Y007437D01*
X017405Y007519D02*
X016935Y007519D01*
X016935Y007601D02*
X017405Y007601D01*
X016108Y007661D02*
X016108Y007191D01*
X016108Y007661D02*
X016578Y007661D01*
X016578Y007191D01*
X016108Y007191D01*
X016108Y007273D02*
X016578Y007273D01*
X016578Y007355D02*
X016108Y007355D01*
X016108Y007437D02*
X016578Y007437D01*
X016578Y007519D02*
X016108Y007519D01*
X016108Y007601D02*
X016578Y007601D01*
D12*
X015788Y007642D02*
X015394Y007642D01*
X015788Y007642D02*
X015788Y007210D01*
X015394Y007210D01*
X015394Y007642D01*
X015394Y007290D02*
X015788Y007290D01*
X015788Y007370D02*
X015394Y007370D01*
X015394Y007450D02*
X015788Y007450D01*
X015788Y007530D02*
X015394Y007530D01*
X015394Y007610D02*
X015788Y007610D01*
X015119Y007642D02*
X014725Y007642D01*
X015119Y007642D02*
X015119Y007210D01*
X014725Y007210D01*
X014725Y007642D01*
X014725Y007290D02*
X015119Y007290D01*
X015119Y007370D02*
X014725Y007370D01*
X014725Y007450D02*
X015119Y007450D01*
X015119Y007530D02*
X014725Y007530D01*
X014725Y007610D02*
X015119Y007610D01*
X021973Y007642D02*
X022367Y007642D01*
X022367Y007210D01*
X021973Y007210D01*
X021973Y007642D01*
X021973Y007290D02*
X022367Y007290D01*
X022367Y007370D02*
X021973Y007370D01*
X021973Y007450D02*
X022367Y007450D01*
X022367Y007530D02*
X021973Y007530D01*
X021973Y007610D02*
X022367Y007610D01*
X022642Y007642D02*
X023036Y007642D01*
X023036Y007210D01*
X022642Y007210D01*
X022642Y007642D01*
X022642Y007290D02*
X023036Y007290D01*
X023036Y007370D02*
X022642Y007370D01*
X022642Y007450D02*
X023036Y007450D01*
X023036Y007530D02*
X022642Y007530D01*
X022642Y007610D02*
X023036Y007610D01*
X032355Y007210D02*
X032749Y007210D01*
X032355Y007210D02*
X032355Y007642D01*
X032749Y007642D01*
X032749Y007210D01*
X032749Y007290D02*
X032355Y007290D01*
X032355Y007370D02*
X032749Y007370D01*
X032749Y007450D02*
X032355Y007450D01*
X032355Y007530D02*
X032749Y007530D01*
X032749Y007610D02*
X032355Y007610D01*
X033024Y007210D02*
X033418Y007210D01*
X033024Y007210D02*
X033024Y007642D01*
X033418Y007642D01*
X033418Y007210D01*
X033418Y007290D02*
X033024Y007290D01*
X033024Y007370D02*
X033418Y007370D01*
X033418Y007450D02*
X033024Y007450D01*
X033024Y007530D02*
X033418Y007530D01*
X033418Y007610D02*
X033024Y007610D01*
X036629Y007642D02*
X037023Y007642D01*
X037023Y007210D01*
X036629Y007210D01*
X036629Y007642D01*
X036629Y007290D02*
X037023Y007290D01*
X037023Y007370D02*
X036629Y007370D01*
X036629Y007450D02*
X037023Y007450D01*
X037023Y007530D02*
X036629Y007530D01*
X036629Y007610D02*
X037023Y007610D01*
X037299Y007642D02*
X037693Y007642D01*
X037693Y007210D01*
X037299Y007210D01*
X037299Y007642D01*
X037299Y007290D02*
X037693Y007290D01*
X037693Y007370D02*
X037299Y007370D01*
X037299Y007450D02*
X037693Y007450D01*
X037693Y007530D02*
X037299Y007530D01*
X037299Y007610D02*
X037693Y007610D01*
X035110Y023567D02*
X035110Y023961D01*
X035110Y023567D02*
X034678Y023567D01*
X034678Y023961D01*
X035110Y023961D01*
X035110Y023647D02*
X034678Y023647D01*
X034678Y023727D02*
X035110Y023727D01*
X035110Y023807D02*
X034678Y023807D01*
X034678Y023887D02*
X035110Y023887D01*
X035110Y024237D02*
X035110Y024631D01*
X035110Y024237D02*
X034678Y024237D01*
X034678Y024631D01*
X035110Y024631D01*
X035110Y024317D02*
X034678Y024317D01*
X034678Y024397D02*
X035110Y024397D01*
X035110Y024477D02*
X034678Y024477D01*
X034678Y024557D02*
X035110Y024557D01*
X036363Y028274D02*
X036757Y028274D01*
X036757Y027842D01*
X036363Y027842D01*
X036363Y028274D01*
X036363Y027922D02*
X036757Y027922D01*
X036757Y028002D02*
X036363Y028002D01*
X036363Y028082D02*
X036757Y028082D01*
X036757Y028162D02*
X036363Y028162D01*
X036363Y028242D02*
X036757Y028242D01*
X037032Y028274D02*
X037426Y028274D01*
X037426Y027842D01*
X037032Y027842D01*
X037032Y028274D01*
X037032Y027922D02*
X037426Y027922D01*
X037426Y028002D02*
X037032Y028002D01*
X037032Y028082D02*
X037426Y028082D01*
X037426Y028162D02*
X037032Y028162D01*
X037032Y028242D02*
X037426Y028242D01*
X037426Y029399D02*
X037032Y029399D01*
X037426Y029399D02*
X037426Y028967D01*
X037032Y028967D01*
X037032Y029399D01*
X037032Y029047D02*
X037426Y029047D01*
X037426Y029127D02*
X037032Y029127D01*
X037032Y029207D02*
X037426Y029207D01*
X037426Y029287D02*
X037032Y029287D01*
X037032Y029367D02*
X037426Y029367D01*
X036757Y029399D02*
X036363Y029399D01*
X036757Y029399D02*
X036757Y028967D01*
X036363Y028967D01*
X036363Y029399D01*
X036363Y029047D02*
X036757Y029047D01*
X036757Y029127D02*
X036363Y029127D01*
X036363Y029207D02*
X036757Y029207D01*
X036757Y029287D02*
X036363Y029287D01*
X036363Y029367D02*
X036757Y029367D01*
D13*
X035759Y025689D02*
X035093Y025689D01*
X035093Y026927D01*
X035759Y026927D01*
X035759Y025689D01*
X035759Y025770D02*
X035093Y025770D01*
X035093Y025851D02*
X035759Y025851D01*
X035759Y025932D02*
X035093Y025932D01*
X035093Y026013D02*
X035759Y026013D01*
X035759Y026094D02*
X035093Y026094D01*
X035093Y026175D02*
X035759Y026175D01*
X035759Y026256D02*
X035093Y026256D01*
X035093Y026337D02*
X035759Y026337D01*
X035759Y026418D02*
X035093Y026418D01*
X035093Y026499D02*
X035759Y026499D01*
X035759Y026580D02*
X035093Y026580D01*
X035093Y026661D02*
X035759Y026661D01*
X035759Y026742D02*
X035093Y026742D01*
X035093Y026823D02*
X035759Y026823D01*
X035759Y026904D02*
X035093Y026904D01*
X033696Y025689D02*
X033030Y025689D01*
X033030Y026927D01*
X033696Y026927D01*
X033696Y025689D01*
X033696Y025770D02*
X033030Y025770D01*
X033030Y025851D02*
X033696Y025851D01*
X033696Y025932D02*
X033030Y025932D01*
X033030Y026013D02*
X033696Y026013D01*
X033696Y026094D02*
X033030Y026094D01*
X033030Y026175D02*
X033696Y026175D01*
X033696Y026256D02*
X033030Y026256D01*
X033030Y026337D02*
X033696Y026337D01*
X033696Y026418D02*
X033030Y026418D01*
X033030Y026499D02*
X033696Y026499D01*
X033696Y026580D02*
X033030Y026580D01*
X033030Y026661D02*
X033696Y026661D01*
X033696Y026742D02*
X033030Y026742D01*
X033030Y026823D02*
X033696Y026823D01*
X033696Y026904D02*
X033030Y026904D01*
X030783Y020739D02*
X030783Y020073D01*
X030783Y020739D02*
X032021Y020739D01*
X032021Y020073D01*
X030783Y020073D01*
X030783Y020154D02*
X032021Y020154D01*
X032021Y020235D02*
X030783Y020235D01*
X030783Y020316D02*
X032021Y020316D01*
X032021Y020397D02*
X030783Y020397D01*
X030783Y020478D02*
X032021Y020478D01*
X032021Y020559D02*
X030783Y020559D01*
X030783Y020640D02*
X032021Y020640D01*
X032021Y020721D02*
X030783Y020721D01*
X030783Y018676D02*
X030783Y018010D01*
X030783Y018676D02*
X032021Y018676D01*
X032021Y018010D01*
X030783Y018010D01*
X030783Y018091D02*
X032021Y018091D01*
X032021Y018172D02*
X030783Y018172D01*
X030783Y018253D02*
X032021Y018253D01*
X032021Y018334D02*
X030783Y018334D01*
X030783Y018415D02*
X032021Y018415D01*
X032021Y018496D02*
X030783Y018496D01*
X030783Y018577D02*
X032021Y018577D01*
X032021Y018658D02*
X030783Y018658D01*
X035638Y018676D02*
X035638Y018010D01*
X035638Y018676D02*
X036876Y018676D01*
X036876Y018010D01*
X035638Y018010D01*
X035638Y018091D02*
X036876Y018091D01*
X036876Y018172D02*
X035638Y018172D01*
X035638Y018253D02*
X036876Y018253D01*
X036876Y018334D02*
X035638Y018334D01*
X035638Y018415D02*
X036876Y018415D01*
X036876Y018496D02*
X035638Y018496D01*
X035638Y018577D02*
X036876Y018577D01*
X036876Y018658D02*
X035638Y018658D01*
X035638Y020073D02*
X035638Y020739D01*
X036876Y020739D01*
X036876Y020073D01*
X035638Y020073D01*
X035638Y020154D02*
X036876Y020154D01*
X036876Y020235D02*
X035638Y020235D01*
X035638Y020316D02*
X036876Y020316D01*
X036876Y020397D02*
X035638Y020397D01*
X035638Y020478D02*
X036876Y020478D01*
X036876Y020559D02*
X035638Y020559D01*
X035638Y020640D02*
X036876Y020640D01*
X036876Y020721D02*
X035638Y020721D01*
X023460Y020739D02*
X023460Y020073D01*
X023460Y020739D02*
X024698Y020739D01*
X024698Y020073D01*
X023460Y020073D01*
X023460Y020154D02*
X024698Y020154D01*
X024698Y020235D02*
X023460Y020235D01*
X023460Y020316D02*
X024698Y020316D01*
X024698Y020397D02*
X023460Y020397D01*
X023460Y020478D02*
X024698Y020478D01*
X024698Y020559D02*
X023460Y020559D01*
X023460Y020640D02*
X024698Y020640D01*
X024698Y020721D02*
X023460Y020721D01*
X023460Y018676D02*
X023460Y018010D01*
X023460Y018676D02*
X024698Y018676D01*
X024698Y018010D01*
X023460Y018010D01*
X023460Y018091D02*
X024698Y018091D01*
X024698Y018172D02*
X023460Y018172D01*
X023460Y018253D02*
X024698Y018253D01*
X024698Y018334D02*
X023460Y018334D01*
X023460Y018415D02*
X024698Y018415D01*
X024698Y018496D02*
X023460Y018496D01*
X023460Y018577D02*
X024698Y018577D01*
X024698Y018658D02*
X023460Y018658D01*
X016138Y018676D02*
X016138Y018010D01*
X016138Y018676D02*
X017376Y018676D01*
X017376Y018010D01*
X016138Y018010D01*
X016138Y018091D02*
X017376Y018091D01*
X017376Y018172D02*
X016138Y018172D01*
X016138Y018253D02*
X017376Y018253D01*
X017376Y018334D02*
X016138Y018334D01*
X016138Y018415D02*
X017376Y018415D01*
X017376Y018496D02*
X016138Y018496D01*
X016138Y018577D02*
X017376Y018577D01*
X017376Y018658D02*
X016138Y018658D01*
X016138Y020073D02*
X016138Y020739D01*
X017376Y020739D01*
X017376Y020073D01*
X016138Y020073D01*
X016138Y020154D02*
X017376Y020154D01*
X017376Y020235D02*
X016138Y020235D01*
X016138Y020316D02*
X017376Y020316D01*
X017376Y020397D02*
X016138Y020397D01*
X016138Y020478D02*
X017376Y020478D01*
X017376Y020559D02*
X016138Y020559D01*
X016138Y020640D02*
X017376Y020640D01*
X017376Y020721D02*
X016138Y020721D01*
D14*
X008070Y024099D03*
X009434Y013863D03*
X016757Y013863D03*
X024079Y013863D03*
X031402Y013863D03*
X038725Y013863D03*
X040089Y024099D03*
D15*
X005969Y006382D03*
X014867Y032485D03*
X005969Y034729D03*
X033292Y032485D03*
X042190Y034729D03*
X042190Y006382D03*
D16*
X031560Y028378D03*
X029906Y028378D03*
X028253Y028378D03*
X026599Y028378D03*
X024946Y028378D03*
X023292Y028378D03*
X021638Y028378D03*
X019985Y028378D03*
X018331Y028378D03*
X016678Y028378D03*
X016678Y030544D03*
X018331Y030544D03*
X019985Y030544D03*
X021638Y030544D03*
X023292Y030544D03*
X024946Y030544D03*
X026599Y030544D03*
X028253Y030544D03*
X029906Y030544D03*
X031560Y030544D03*
D17*
X037583Y030989D03*
X037583Y031973D03*
X037583Y032957D03*
X039709Y032957D03*
X039709Y031973D03*
X039709Y030989D03*
M02*
