G75*
G70*
%OFA0B0*%
%FSLAX24Y24*%
%IPPOS*%
%LPD*%
%AMOC8*
5,1,8,0,0,1.08239X$1,22.5*
%
%ADD10C,0.0040*%
%ADD11C,0.0043*%
%ADD12R,0.0640X0.0640*%
%ADD13C,0.0640*%
%ADD14C,0.0041*%
%ADD15C,0.0394*%
%ADD16C,0.0044*%
%ADD17R,0.0555X0.0555*%
%ADD18C,0.0555*%
%ADD19OC8,0.0560*%
%ADD20C,0.0040*%
%ADD21C,0.1142*%
%ADD22C,0.0700*%
%ADD23C,0.0043*%
%ADD24C,0.0600*%
%ADD25C,0.1300*%
%ADD26C,0.0640*%
D10*
X022560Y013200D02*
X022560Y013790D01*
X022560Y013200D02*
X022364Y013200D01*
X022364Y013790D01*
X022560Y013790D01*
X022560Y013239D02*
X022364Y013239D01*
X022364Y013278D02*
X022560Y013278D01*
X022560Y013317D02*
X022364Y013317D01*
X022364Y013356D02*
X022560Y013356D01*
X022560Y013395D02*
X022364Y013395D01*
X022364Y013434D02*
X022560Y013434D01*
X022560Y013473D02*
X022364Y013473D01*
X022364Y013512D02*
X022560Y013512D01*
X022560Y013551D02*
X022364Y013551D01*
X022364Y013590D02*
X022560Y013590D01*
X022560Y013629D02*
X022364Y013629D01*
X022364Y013668D02*
X022560Y013668D01*
X022560Y013707D02*
X022364Y013707D01*
X022364Y013746D02*
X022560Y013746D01*
X022560Y013785D02*
X022364Y013785D01*
X022875Y013790D02*
X022875Y013200D01*
X022679Y013200D01*
X022679Y013790D01*
X022875Y013790D01*
X022875Y013239D02*
X022679Y013239D01*
X022679Y013278D02*
X022875Y013278D01*
X022875Y013317D02*
X022679Y013317D01*
X022679Y013356D02*
X022875Y013356D01*
X022875Y013395D02*
X022679Y013395D01*
X022679Y013434D02*
X022875Y013434D01*
X022875Y013473D02*
X022679Y013473D01*
X022679Y013512D02*
X022875Y013512D01*
X022875Y013551D02*
X022679Y013551D01*
X022679Y013590D02*
X022875Y013590D01*
X022875Y013629D02*
X022679Y013629D01*
X022679Y013668D02*
X022875Y013668D01*
X022875Y013707D02*
X022679Y013707D01*
X022679Y013746D02*
X022875Y013746D01*
X022875Y013785D02*
X022679Y013785D01*
X023190Y013790D02*
X023190Y013200D01*
X022994Y013200D01*
X022994Y013790D01*
X023190Y013790D01*
X023190Y013239D02*
X022994Y013239D01*
X022994Y013278D02*
X023190Y013278D01*
X023190Y013317D02*
X022994Y013317D01*
X022994Y013356D02*
X023190Y013356D01*
X023190Y013395D02*
X022994Y013395D01*
X022994Y013434D02*
X023190Y013434D01*
X023190Y013473D02*
X022994Y013473D01*
X022994Y013512D02*
X023190Y013512D01*
X023190Y013551D02*
X022994Y013551D01*
X022994Y013590D02*
X023190Y013590D01*
X023190Y013629D02*
X022994Y013629D01*
X022994Y013668D02*
X023190Y013668D01*
X023190Y013707D02*
X022994Y013707D01*
X022994Y013746D02*
X023190Y013746D01*
X023190Y013785D02*
X022994Y013785D01*
X023505Y013790D02*
X023505Y013200D01*
X023309Y013200D01*
X023309Y013790D01*
X023505Y013790D01*
X023505Y013239D02*
X023309Y013239D01*
X023309Y013278D02*
X023505Y013278D01*
X023505Y013317D02*
X023309Y013317D01*
X023309Y013356D02*
X023505Y013356D01*
X023505Y013395D02*
X023309Y013395D01*
X023309Y013434D02*
X023505Y013434D01*
X023505Y013473D02*
X023309Y013473D01*
X023309Y013512D02*
X023505Y013512D01*
X023505Y013551D02*
X023309Y013551D01*
X023309Y013590D02*
X023505Y013590D01*
X023505Y013629D02*
X023309Y013629D01*
X023309Y013668D02*
X023505Y013668D01*
X023505Y013707D02*
X023309Y013707D01*
X023309Y013746D02*
X023505Y013746D01*
X023505Y013785D02*
X023309Y013785D01*
X023820Y013790D02*
X023820Y013200D01*
X023624Y013200D01*
X023624Y013790D01*
X023820Y013790D01*
X023820Y013239D02*
X023624Y013239D01*
X023624Y013278D02*
X023820Y013278D01*
X023820Y013317D02*
X023624Y013317D01*
X023624Y013356D02*
X023820Y013356D01*
X023820Y013395D02*
X023624Y013395D01*
X023624Y013434D02*
X023820Y013434D01*
X023820Y013473D02*
X023624Y013473D01*
X023624Y013512D02*
X023820Y013512D01*
X023820Y013551D02*
X023624Y013551D01*
X023624Y013590D02*
X023820Y013590D01*
X023820Y013629D02*
X023624Y013629D01*
X023624Y013668D02*
X023820Y013668D01*
X023820Y013707D02*
X023624Y013707D01*
X023624Y013746D02*
X023820Y013746D01*
X023820Y013785D02*
X023624Y013785D01*
X024135Y013790D02*
X024135Y013200D01*
X023939Y013200D01*
X023939Y013790D01*
X024135Y013790D01*
X024135Y013239D02*
X023939Y013239D01*
X023939Y013278D02*
X024135Y013278D01*
X024135Y013317D02*
X023939Y013317D01*
X023939Y013356D02*
X024135Y013356D01*
X024135Y013395D02*
X023939Y013395D01*
X023939Y013434D02*
X024135Y013434D01*
X024135Y013473D02*
X023939Y013473D01*
X023939Y013512D02*
X024135Y013512D01*
X024135Y013551D02*
X023939Y013551D01*
X023939Y013590D02*
X024135Y013590D01*
X024135Y013629D02*
X023939Y013629D01*
X023939Y013668D02*
X024135Y013668D01*
X024135Y013707D02*
X023939Y013707D01*
X023939Y013746D02*
X024135Y013746D01*
X024135Y013785D02*
X023939Y013785D01*
X024450Y013790D02*
X024450Y013200D01*
X024254Y013200D01*
X024254Y013790D01*
X024450Y013790D01*
X024450Y013239D02*
X024254Y013239D01*
X024254Y013278D02*
X024450Y013278D01*
X024450Y013317D02*
X024254Y013317D01*
X024254Y013356D02*
X024450Y013356D01*
X024450Y013395D02*
X024254Y013395D01*
X024254Y013434D02*
X024450Y013434D01*
X024450Y013473D02*
X024254Y013473D01*
X024254Y013512D02*
X024450Y013512D01*
X024450Y013551D02*
X024254Y013551D01*
X024254Y013590D02*
X024450Y013590D01*
X024450Y013629D02*
X024254Y013629D01*
X024254Y013668D02*
X024450Y013668D01*
X024450Y013707D02*
X024254Y013707D01*
X024254Y013746D02*
X024450Y013746D01*
X024450Y013785D02*
X024254Y013785D01*
X024765Y013790D02*
X024765Y013200D01*
X024569Y013200D01*
X024569Y013790D01*
X024765Y013790D01*
X024765Y013239D02*
X024569Y013239D01*
X024569Y013278D02*
X024765Y013278D01*
X024765Y013317D02*
X024569Y013317D01*
X024569Y013356D02*
X024765Y013356D01*
X024765Y013395D02*
X024569Y013395D01*
X024569Y013434D02*
X024765Y013434D01*
X024765Y013473D02*
X024569Y013473D01*
X024569Y013512D02*
X024765Y013512D01*
X024765Y013551D02*
X024569Y013551D01*
X024569Y013590D02*
X024765Y013590D01*
X024765Y013629D02*
X024569Y013629D01*
X024569Y013668D02*
X024765Y013668D01*
X024765Y013707D02*
X024569Y013707D01*
X024569Y013746D02*
X024765Y013746D01*
X024765Y013785D02*
X024569Y013785D01*
X025080Y013790D02*
X025080Y013200D01*
X024884Y013200D01*
X024884Y013790D01*
X025080Y013790D01*
X025080Y013239D02*
X024884Y013239D01*
X024884Y013278D02*
X025080Y013278D01*
X025080Y013317D02*
X024884Y013317D01*
X024884Y013356D02*
X025080Y013356D01*
X025080Y013395D02*
X024884Y013395D01*
X024884Y013434D02*
X025080Y013434D01*
X025080Y013473D02*
X024884Y013473D01*
X024884Y013512D02*
X025080Y013512D01*
X025080Y013551D02*
X024884Y013551D01*
X024884Y013590D02*
X025080Y013590D01*
X025080Y013629D02*
X024884Y013629D01*
X024884Y013668D02*
X025080Y013668D01*
X025080Y013707D02*
X024884Y013707D01*
X024884Y013746D02*
X025080Y013746D01*
X025080Y013785D02*
X024884Y013785D01*
X025395Y013790D02*
X025395Y013200D01*
X025199Y013200D01*
X025199Y013790D01*
X025395Y013790D01*
X025395Y013239D02*
X025199Y013239D01*
X025199Y013278D02*
X025395Y013278D01*
X025395Y013317D02*
X025199Y013317D01*
X025199Y013356D02*
X025395Y013356D01*
X025395Y013395D02*
X025199Y013395D01*
X025199Y013434D02*
X025395Y013434D01*
X025395Y013473D02*
X025199Y013473D01*
X025199Y013512D02*
X025395Y013512D01*
X025395Y013551D02*
X025199Y013551D01*
X025199Y013590D02*
X025395Y013590D01*
X025395Y013629D02*
X025199Y013629D01*
X025199Y013668D02*
X025395Y013668D01*
X025395Y013707D02*
X025199Y013707D01*
X025199Y013746D02*
X025395Y013746D01*
X025395Y013785D02*
X025199Y013785D01*
X025710Y013790D02*
X025710Y013200D01*
X025514Y013200D01*
X025514Y013790D01*
X025710Y013790D01*
X025710Y013239D02*
X025514Y013239D01*
X025514Y013278D02*
X025710Y013278D01*
X025710Y013317D02*
X025514Y013317D01*
X025514Y013356D02*
X025710Y013356D01*
X025710Y013395D02*
X025514Y013395D01*
X025514Y013434D02*
X025710Y013434D01*
X025710Y013473D02*
X025514Y013473D01*
X025514Y013512D02*
X025710Y013512D01*
X025710Y013551D02*
X025514Y013551D01*
X025514Y013590D02*
X025710Y013590D01*
X025710Y013629D02*
X025514Y013629D01*
X025514Y013668D02*
X025710Y013668D01*
X025710Y013707D02*
X025514Y013707D01*
X025514Y013746D02*
X025710Y013746D01*
X025710Y013785D02*
X025514Y013785D01*
X026615Y014106D02*
X026615Y014302D01*
X026615Y014106D02*
X026025Y014106D01*
X026025Y014302D01*
X026615Y014302D01*
X026615Y014145D02*
X026025Y014145D01*
X026025Y014184D02*
X026615Y014184D01*
X026615Y014223D02*
X026025Y014223D01*
X026025Y014262D02*
X026615Y014262D01*
X026615Y014301D02*
X026025Y014301D01*
X026615Y014421D02*
X026615Y014617D01*
X026615Y014421D02*
X026025Y014421D01*
X026025Y014617D01*
X026615Y014617D01*
X026615Y014460D02*
X026025Y014460D01*
X026025Y014499D02*
X026615Y014499D01*
X026615Y014538D02*
X026025Y014538D01*
X026025Y014577D02*
X026615Y014577D01*
X026615Y014616D02*
X026025Y014616D01*
X026615Y014736D02*
X026615Y014932D01*
X026615Y014736D02*
X026025Y014736D01*
X026025Y014932D01*
X026615Y014932D01*
X026615Y014775D02*
X026025Y014775D01*
X026025Y014814D02*
X026615Y014814D01*
X026615Y014853D02*
X026025Y014853D01*
X026025Y014892D02*
X026615Y014892D01*
X026615Y014931D02*
X026025Y014931D01*
X026615Y015051D02*
X026615Y015247D01*
X026615Y015051D02*
X026025Y015051D01*
X026025Y015247D01*
X026615Y015247D01*
X026615Y015090D02*
X026025Y015090D01*
X026025Y015129D02*
X026615Y015129D01*
X026615Y015168D02*
X026025Y015168D01*
X026025Y015207D02*
X026615Y015207D01*
X026615Y015246D02*
X026025Y015246D01*
X026615Y015366D02*
X026615Y015562D01*
X026615Y015366D02*
X026025Y015366D01*
X026025Y015562D01*
X026615Y015562D01*
X026615Y015405D02*
X026025Y015405D01*
X026025Y015444D02*
X026615Y015444D01*
X026615Y015483D02*
X026025Y015483D01*
X026025Y015522D02*
X026615Y015522D01*
X026615Y015561D02*
X026025Y015561D01*
X026615Y015680D02*
X026615Y015876D01*
X026615Y015680D02*
X026025Y015680D01*
X026025Y015876D01*
X026615Y015876D01*
X026615Y015719D02*
X026025Y015719D01*
X026025Y015758D02*
X026615Y015758D01*
X026615Y015797D02*
X026025Y015797D01*
X026025Y015836D02*
X026615Y015836D01*
X026615Y015875D02*
X026025Y015875D01*
X026615Y015995D02*
X026615Y016191D01*
X026615Y015995D02*
X026025Y015995D01*
X026025Y016191D01*
X026615Y016191D01*
X026615Y016034D02*
X026025Y016034D01*
X026025Y016073D02*
X026615Y016073D01*
X026615Y016112D02*
X026025Y016112D01*
X026025Y016151D02*
X026615Y016151D01*
X026615Y016190D02*
X026025Y016190D01*
X026615Y016310D02*
X026615Y016506D01*
X026615Y016310D02*
X026025Y016310D01*
X026025Y016506D01*
X026615Y016506D01*
X026615Y016349D02*
X026025Y016349D01*
X026025Y016388D02*
X026615Y016388D01*
X026615Y016427D02*
X026025Y016427D01*
X026025Y016466D02*
X026615Y016466D01*
X026615Y016505D02*
X026025Y016505D01*
X026615Y016625D02*
X026615Y016821D01*
X026615Y016625D02*
X026025Y016625D01*
X026025Y016821D01*
X026615Y016821D01*
X026615Y016664D02*
X026025Y016664D01*
X026025Y016703D02*
X026615Y016703D01*
X026615Y016742D02*
X026025Y016742D01*
X026025Y016781D02*
X026615Y016781D01*
X026615Y016820D02*
X026025Y016820D01*
X026615Y016940D02*
X026615Y017136D01*
X026615Y016940D02*
X026025Y016940D01*
X026025Y017136D01*
X026615Y017136D01*
X026615Y016979D02*
X026025Y016979D01*
X026025Y017018D02*
X026615Y017018D01*
X026615Y017057D02*
X026025Y017057D01*
X026025Y017096D02*
X026615Y017096D01*
X026615Y017135D02*
X026025Y017135D01*
X026615Y017255D02*
X026615Y017451D01*
X026615Y017255D02*
X026025Y017255D01*
X026025Y017451D01*
X026615Y017451D01*
X026615Y017294D02*
X026025Y017294D01*
X026025Y017333D02*
X026615Y017333D01*
X026615Y017372D02*
X026025Y017372D01*
X026025Y017411D02*
X026615Y017411D01*
X026615Y017450D02*
X026025Y017450D01*
X025710Y017767D02*
X025710Y018357D01*
X025710Y017767D02*
X025514Y017767D01*
X025514Y018357D01*
X025710Y018357D01*
X025710Y017806D02*
X025514Y017806D01*
X025514Y017845D02*
X025710Y017845D01*
X025710Y017884D02*
X025514Y017884D01*
X025514Y017923D02*
X025710Y017923D01*
X025710Y017962D02*
X025514Y017962D01*
X025514Y018001D02*
X025710Y018001D01*
X025710Y018040D02*
X025514Y018040D01*
X025514Y018079D02*
X025710Y018079D01*
X025710Y018118D02*
X025514Y018118D01*
X025514Y018157D02*
X025710Y018157D01*
X025710Y018196D02*
X025514Y018196D01*
X025514Y018235D02*
X025710Y018235D01*
X025710Y018274D02*
X025514Y018274D01*
X025514Y018313D02*
X025710Y018313D01*
X025710Y018352D02*
X025514Y018352D01*
X025395Y018357D02*
X025395Y017767D01*
X025199Y017767D01*
X025199Y018357D01*
X025395Y018357D01*
X025395Y017806D02*
X025199Y017806D01*
X025199Y017845D02*
X025395Y017845D01*
X025395Y017884D02*
X025199Y017884D01*
X025199Y017923D02*
X025395Y017923D01*
X025395Y017962D02*
X025199Y017962D01*
X025199Y018001D02*
X025395Y018001D01*
X025395Y018040D02*
X025199Y018040D01*
X025199Y018079D02*
X025395Y018079D01*
X025395Y018118D02*
X025199Y018118D01*
X025199Y018157D02*
X025395Y018157D01*
X025395Y018196D02*
X025199Y018196D01*
X025199Y018235D02*
X025395Y018235D01*
X025395Y018274D02*
X025199Y018274D01*
X025199Y018313D02*
X025395Y018313D01*
X025395Y018352D02*
X025199Y018352D01*
X025080Y018357D02*
X025080Y017767D01*
X024884Y017767D01*
X024884Y018357D01*
X025080Y018357D01*
X025080Y017806D02*
X024884Y017806D01*
X024884Y017845D02*
X025080Y017845D01*
X025080Y017884D02*
X024884Y017884D01*
X024884Y017923D02*
X025080Y017923D01*
X025080Y017962D02*
X024884Y017962D01*
X024884Y018001D02*
X025080Y018001D01*
X025080Y018040D02*
X024884Y018040D01*
X024884Y018079D02*
X025080Y018079D01*
X025080Y018118D02*
X024884Y018118D01*
X024884Y018157D02*
X025080Y018157D01*
X025080Y018196D02*
X024884Y018196D01*
X024884Y018235D02*
X025080Y018235D01*
X025080Y018274D02*
X024884Y018274D01*
X024884Y018313D02*
X025080Y018313D01*
X025080Y018352D02*
X024884Y018352D01*
X024765Y018357D02*
X024765Y017767D01*
X024569Y017767D01*
X024569Y018357D01*
X024765Y018357D01*
X024765Y017806D02*
X024569Y017806D01*
X024569Y017845D02*
X024765Y017845D01*
X024765Y017884D02*
X024569Y017884D01*
X024569Y017923D02*
X024765Y017923D01*
X024765Y017962D02*
X024569Y017962D01*
X024569Y018001D02*
X024765Y018001D01*
X024765Y018040D02*
X024569Y018040D01*
X024569Y018079D02*
X024765Y018079D01*
X024765Y018118D02*
X024569Y018118D01*
X024569Y018157D02*
X024765Y018157D01*
X024765Y018196D02*
X024569Y018196D01*
X024569Y018235D02*
X024765Y018235D01*
X024765Y018274D02*
X024569Y018274D01*
X024569Y018313D02*
X024765Y018313D01*
X024765Y018352D02*
X024569Y018352D01*
X024450Y018357D02*
X024450Y017767D01*
X024254Y017767D01*
X024254Y018357D01*
X024450Y018357D01*
X024450Y017806D02*
X024254Y017806D01*
X024254Y017845D02*
X024450Y017845D01*
X024450Y017884D02*
X024254Y017884D01*
X024254Y017923D02*
X024450Y017923D01*
X024450Y017962D02*
X024254Y017962D01*
X024254Y018001D02*
X024450Y018001D01*
X024450Y018040D02*
X024254Y018040D01*
X024254Y018079D02*
X024450Y018079D01*
X024450Y018118D02*
X024254Y018118D01*
X024254Y018157D02*
X024450Y018157D01*
X024450Y018196D02*
X024254Y018196D01*
X024254Y018235D02*
X024450Y018235D01*
X024450Y018274D02*
X024254Y018274D01*
X024254Y018313D02*
X024450Y018313D01*
X024450Y018352D02*
X024254Y018352D01*
X024135Y018357D02*
X024135Y017767D01*
X023939Y017767D01*
X023939Y018357D01*
X024135Y018357D01*
X024135Y017806D02*
X023939Y017806D01*
X023939Y017845D02*
X024135Y017845D01*
X024135Y017884D02*
X023939Y017884D01*
X023939Y017923D02*
X024135Y017923D01*
X024135Y017962D02*
X023939Y017962D01*
X023939Y018001D02*
X024135Y018001D01*
X024135Y018040D02*
X023939Y018040D01*
X023939Y018079D02*
X024135Y018079D01*
X024135Y018118D02*
X023939Y018118D01*
X023939Y018157D02*
X024135Y018157D01*
X024135Y018196D02*
X023939Y018196D01*
X023939Y018235D02*
X024135Y018235D01*
X024135Y018274D02*
X023939Y018274D01*
X023939Y018313D02*
X024135Y018313D01*
X024135Y018352D02*
X023939Y018352D01*
X023820Y018357D02*
X023820Y017767D01*
X023624Y017767D01*
X023624Y018357D01*
X023820Y018357D01*
X023820Y017806D02*
X023624Y017806D01*
X023624Y017845D02*
X023820Y017845D01*
X023820Y017884D02*
X023624Y017884D01*
X023624Y017923D02*
X023820Y017923D01*
X023820Y017962D02*
X023624Y017962D01*
X023624Y018001D02*
X023820Y018001D01*
X023820Y018040D02*
X023624Y018040D01*
X023624Y018079D02*
X023820Y018079D01*
X023820Y018118D02*
X023624Y018118D01*
X023624Y018157D02*
X023820Y018157D01*
X023820Y018196D02*
X023624Y018196D01*
X023624Y018235D02*
X023820Y018235D01*
X023820Y018274D02*
X023624Y018274D01*
X023624Y018313D02*
X023820Y018313D01*
X023820Y018352D02*
X023624Y018352D01*
X023505Y018357D02*
X023505Y017767D01*
X023309Y017767D01*
X023309Y018357D01*
X023505Y018357D01*
X023505Y017806D02*
X023309Y017806D01*
X023309Y017845D02*
X023505Y017845D01*
X023505Y017884D02*
X023309Y017884D01*
X023309Y017923D02*
X023505Y017923D01*
X023505Y017962D02*
X023309Y017962D01*
X023309Y018001D02*
X023505Y018001D01*
X023505Y018040D02*
X023309Y018040D01*
X023309Y018079D02*
X023505Y018079D01*
X023505Y018118D02*
X023309Y018118D01*
X023309Y018157D02*
X023505Y018157D01*
X023505Y018196D02*
X023309Y018196D01*
X023309Y018235D02*
X023505Y018235D01*
X023505Y018274D02*
X023309Y018274D01*
X023309Y018313D02*
X023505Y018313D01*
X023505Y018352D02*
X023309Y018352D01*
X023190Y018357D02*
X023190Y017767D01*
X022994Y017767D01*
X022994Y018357D01*
X023190Y018357D01*
X023190Y017806D02*
X022994Y017806D01*
X022994Y017845D02*
X023190Y017845D01*
X023190Y017884D02*
X022994Y017884D01*
X022994Y017923D02*
X023190Y017923D01*
X023190Y017962D02*
X022994Y017962D01*
X022994Y018001D02*
X023190Y018001D01*
X023190Y018040D02*
X022994Y018040D01*
X022994Y018079D02*
X023190Y018079D01*
X023190Y018118D02*
X022994Y018118D01*
X022994Y018157D02*
X023190Y018157D01*
X023190Y018196D02*
X022994Y018196D01*
X022994Y018235D02*
X023190Y018235D01*
X023190Y018274D02*
X022994Y018274D01*
X022994Y018313D02*
X023190Y018313D01*
X023190Y018352D02*
X022994Y018352D01*
X022875Y018357D02*
X022875Y017767D01*
X022679Y017767D01*
X022679Y018357D01*
X022875Y018357D01*
X022875Y017806D02*
X022679Y017806D01*
X022679Y017845D02*
X022875Y017845D01*
X022875Y017884D02*
X022679Y017884D01*
X022679Y017923D02*
X022875Y017923D01*
X022875Y017962D02*
X022679Y017962D01*
X022679Y018001D02*
X022875Y018001D01*
X022875Y018040D02*
X022679Y018040D01*
X022679Y018079D02*
X022875Y018079D01*
X022875Y018118D02*
X022679Y018118D01*
X022679Y018157D02*
X022875Y018157D01*
X022875Y018196D02*
X022679Y018196D01*
X022679Y018235D02*
X022875Y018235D01*
X022875Y018274D02*
X022679Y018274D01*
X022679Y018313D02*
X022875Y018313D01*
X022875Y018352D02*
X022679Y018352D01*
X022560Y018357D02*
X022560Y017767D01*
X022364Y017767D01*
X022364Y018357D01*
X022560Y018357D01*
X022560Y017806D02*
X022364Y017806D01*
X022364Y017845D02*
X022560Y017845D01*
X022560Y017884D02*
X022364Y017884D01*
X022364Y017923D02*
X022560Y017923D01*
X022560Y017962D02*
X022364Y017962D01*
X022364Y018001D02*
X022560Y018001D01*
X022560Y018040D02*
X022364Y018040D01*
X022364Y018079D02*
X022560Y018079D01*
X022560Y018118D02*
X022364Y018118D01*
X022364Y018157D02*
X022560Y018157D01*
X022560Y018196D02*
X022364Y018196D01*
X022364Y018235D02*
X022560Y018235D01*
X022560Y018274D02*
X022364Y018274D01*
X022364Y018313D02*
X022560Y018313D01*
X022560Y018352D02*
X022364Y018352D01*
X022048Y017451D02*
X022048Y017255D01*
X021458Y017255D01*
X021458Y017451D01*
X022048Y017451D01*
X022048Y017294D02*
X021458Y017294D01*
X021458Y017333D02*
X022048Y017333D01*
X022048Y017372D02*
X021458Y017372D01*
X021458Y017411D02*
X022048Y017411D01*
X022048Y017450D02*
X021458Y017450D01*
X022048Y017136D02*
X022048Y016940D01*
X021458Y016940D01*
X021458Y017136D01*
X022048Y017136D01*
X022048Y016979D02*
X021458Y016979D01*
X021458Y017018D02*
X022048Y017018D01*
X022048Y017057D02*
X021458Y017057D01*
X021458Y017096D02*
X022048Y017096D01*
X022048Y017135D02*
X021458Y017135D01*
X022048Y016821D02*
X022048Y016625D01*
X021458Y016625D01*
X021458Y016821D01*
X022048Y016821D01*
X022048Y016664D02*
X021458Y016664D01*
X021458Y016703D02*
X022048Y016703D01*
X022048Y016742D02*
X021458Y016742D01*
X021458Y016781D02*
X022048Y016781D01*
X022048Y016820D02*
X021458Y016820D01*
X022048Y016506D02*
X022048Y016310D01*
X021458Y016310D01*
X021458Y016506D01*
X022048Y016506D01*
X022048Y016349D02*
X021458Y016349D01*
X021458Y016388D02*
X022048Y016388D01*
X022048Y016427D02*
X021458Y016427D01*
X021458Y016466D02*
X022048Y016466D01*
X022048Y016505D02*
X021458Y016505D01*
X022048Y016191D02*
X022048Y015995D01*
X021458Y015995D01*
X021458Y016191D01*
X022048Y016191D01*
X022048Y016034D02*
X021458Y016034D01*
X021458Y016073D02*
X022048Y016073D01*
X022048Y016112D02*
X021458Y016112D01*
X021458Y016151D02*
X022048Y016151D01*
X022048Y016190D02*
X021458Y016190D01*
X022048Y015876D02*
X022048Y015680D01*
X021458Y015680D01*
X021458Y015876D01*
X022048Y015876D01*
X022048Y015719D02*
X021458Y015719D01*
X021458Y015758D02*
X022048Y015758D01*
X022048Y015797D02*
X021458Y015797D01*
X021458Y015836D02*
X022048Y015836D01*
X022048Y015875D02*
X021458Y015875D01*
X022048Y015562D02*
X022048Y015366D01*
X021458Y015366D01*
X021458Y015562D01*
X022048Y015562D01*
X022048Y015405D02*
X021458Y015405D01*
X021458Y015444D02*
X022048Y015444D01*
X022048Y015483D02*
X021458Y015483D01*
X021458Y015522D02*
X022048Y015522D01*
X022048Y015561D02*
X021458Y015561D01*
X022048Y015247D02*
X022048Y015051D01*
X021458Y015051D01*
X021458Y015247D01*
X022048Y015247D01*
X022048Y015090D02*
X021458Y015090D01*
X021458Y015129D02*
X022048Y015129D01*
X022048Y015168D02*
X021458Y015168D01*
X021458Y015207D02*
X022048Y015207D01*
X022048Y015246D02*
X021458Y015246D01*
X022048Y014932D02*
X022048Y014736D01*
X021458Y014736D01*
X021458Y014932D01*
X022048Y014932D01*
X022048Y014775D02*
X021458Y014775D01*
X021458Y014814D02*
X022048Y014814D01*
X022048Y014853D02*
X021458Y014853D01*
X021458Y014892D02*
X022048Y014892D01*
X022048Y014931D02*
X021458Y014931D01*
X022048Y014617D02*
X022048Y014421D01*
X021458Y014421D01*
X021458Y014617D01*
X022048Y014617D01*
X022048Y014460D02*
X021458Y014460D01*
X021458Y014499D02*
X022048Y014499D01*
X022048Y014538D02*
X021458Y014538D01*
X021458Y014577D02*
X022048Y014577D01*
X022048Y014616D02*
X021458Y014616D01*
X022048Y014302D02*
X022048Y014106D01*
X021458Y014106D01*
X021458Y014302D01*
X022048Y014302D01*
X022048Y014145D02*
X021458Y014145D01*
X021458Y014184D02*
X022048Y014184D01*
X022048Y014223D02*
X021458Y014223D01*
X021458Y014262D02*
X022048Y014262D01*
X022048Y014301D02*
X021458Y014301D01*
X009038Y015287D02*
X009038Y015483D01*
X010336Y015483D01*
X010336Y015287D01*
X009038Y015287D01*
X009038Y015326D02*
X010336Y015326D01*
X010336Y015365D02*
X009038Y015365D01*
X009038Y015404D02*
X010336Y015404D01*
X010336Y015443D02*
X009038Y015443D01*
X009038Y015482D02*
X010336Y015482D01*
X009038Y015602D02*
X009038Y015798D01*
X010336Y015798D01*
X010336Y015602D01*
X009038Y015602D01*
X009038Y015641D02*
X010336Y015641D01*
X010336Y015680D02*
X009038Y015680D01*
X009038Y015719D02*
X010336Y015719D01*
X010336Y015758D02*
X009038Y015758D01*
X009038Y015797D02*
X010336Y015797D01*
X009038Y015916D02*
X009038Y016112D01*
X010336Y016112D01*
X010336Y015916D01*
X009038Y015916D01*
X009038Y015955D02*
X010336Y015955D01*
X010336Y015994D02*
X009038Y015994D01*
X009038Y016033D02*
X010336Y016033D01*
X010336Y016072D02*
X009038Y016072D01*
X009038Y016111D02*
X010336Y016111D01*
X009038Y016231D02*
X009038Y016427D01*
X010336Y016427D01*
X010336Y016231D01*
X009038Y016231D01*
X009038Y016270D02*
X010336Y016270D01*
X010336Y016309D02*
X009038Y016309D01*
X009038Y016348D02*
X010336Y016348D01*
X010336Y016387D02*
X009038Y016387D01*
X009038Y016426D02*
X010336Y016426D01*
X009038Y016546D02*
X009038Y016742D01*
X010336Y016742D01*
X010336Y016546D01*
X009038Y016546D01*
X009038Y016585D02*
X010336Y016585D01*
X010336Y016624D02*
X009038Y016624D01*
X009038Y016663D02*
X010336Y016663D01*
X010336Y016702D02*
X009038Y016702D01*
X009038Y016741D02*
X010336Y016741D01*
D11*
X019787Y016674D02*
X020217Y016674D01*
X020217Y016282D01*
X019787Y016282D01*
X019787Y016674D01*
X019787Y016324D02*
X020217Y016324D01*
X020217Y016366D02*
X019787Y016366D01*
X019787Y016408D02*
X020217Y016408D01*
X020217Y016450D02*
X019787Y016450D01*
X019787Y016492D02*
X020217Y016492D01*
X020217Y016534D02*
X019787Y016534D01*
X019787Y016576D02*
X020217Y016576D01*
X020217Y016618D02*
X019787Y016618D01*
X019787Y016660D02*
X020217Y016660D01*
X020457Y016674D02*
X020887Y016674D01*
X020887Y016282D01*
X020457Y016282D01*
X020457Y016674D01*
X020457Y016324D02*
X020887Y016324D01*
X020887Y016366D02*
X020457Y016366D01*
X020457Y016408D02*
X020887Y016408D01*
X020887Y016450D02*
X020457Y016450D01*
X020457Y016492D02*
X020887Y016492D01*
X020887Y016534D02*
X020457Y016534D01*
X020457Y016576D02*
X020887Y016576D01*
X020887Y016618D02*
X020457Y016618D01*
X020457Y016660D02*
X020887Y016660D01*
X024053Y018529D02*
X024053Y018959D01*
X024445Y018959D01*
X024445Y018529D01*
X024053Y018529D01*
X024053Y018571D02*
X024445Y018571D01*
X024445Y018613D02*
X024053Y018613D01*
X024053Y018655D02*
X024445Y018655D01*
X024445Y018697D02*
X024053Y018697D01*
X024053Y018739D02*
X024445Y018739D01*
X024445Y018781D02*
X024053Y018781D01*
X024053Y018823D02*
X024445Y018823D01*
X024445Y018865D02*
X024053Y018865D01*
X024053Y018907D02*
X024445Y018907D01*
X024445Y018949D02*
X024053Y018949D01*
X024053Y019198D02*
X024053Y019628D01*
X024445Y019628D01*
X024445Y019198D01*
X024053Y019198D01*
X024053Y019240D02*
X024445Y019240D01*
X024445Y019282D02*
X024053Y019282D01*
X024053Y019324D02*
X024445Y019324D01*
X024445Y019366D02*
X024053Y019366D01*
X024053Y019408D02*
X024445Y019408D01*
X024445Y019450D02*
X024053Y019450D01*
X024053Y019492D02*
X024445Y019492D01*
X024445Y019534D02*
X024053Y019534D01*
X024053Y019576D02*
X024445Y019576D01*
X024445Y019618D02*
X024053Y019618D01*
X022292Y019518D02*
X021900Y019518D01*
X022292Y019518D02*
X022292Y019088D01*
X021900Y019088D01*
X021900Y019518D01*
X021900Y019130D02*
X022292Y019130D01*
X022292Y019172D02*
X021900Y019172D01*
X021900Y019214D02*
X022292Y019214D01*
X022292Y019256D02*
X021900Y019256D01*
X021900Y019298D02*
X022292Y019298D01*
X022292Y019340D02*
X021900Y019340D01*
X021900Y019382D02*
X022292Y019382D01*
X022292Y019424D02*
X021900Y019424D01*
X021900Y019466D02*
X022292Y019466D01*
X022292Y019508D02*
X021900Y019508D01*
X021623Y019518D02*
X021231Y019518D01*
X021623Y019518D02*
X021623Y019088D01*
X021231Y019088D01*
X021231Y019518D01*
X021231Y019130D02*
X021623Y019130D01*
X021623Y019172D02*
X021231Y019172D01*
X021231Y019214D02*
X021623Y019214D01*
X021623Y019256D02*
X021231Y019256D01*
X021231Y019298D02*
X021623Y019298D01*
X021623Y019340D02*
X021231Y019340D01*
X021231Y019382D02*
X021623Y019382D01*
X021623Y019424D02*
X021231Y019424D01*
X021231Y019466D02*
X021623Y019466D01*
X021623Y019508D02*
X021231Y019508D01*
X021062Y022312D02*
X021492Y022312D01*
X021492Y021920D01*
X021062Y021920D01*
X021062Y022312D01*
X021062Y021962D02*
X021492Y021962D01*
X021492Y022004D02*
X021062Y022004D01*
X021062Y022046D02*
X021492Y022046D01*
X021492Y022088D02*
X021062Y022088D01*
X021062Y022130D02*
X021492Y022130D01*
X021492Y022172D02*
X021062Y022172D01*
X021062Y022214D02*
X021492Y022214D01*
X021492Y022256D02*
X021062Y022256D01*
X021062Y022298D02*
X021492Y022298D01*
X021732Y022312D02*
X022162Y022312D01*
X022162Y021920D01*
X021732Y021920D01*
X021732Y022312D01*
X021732Y021962D02*
X022162Y021962D01*
X022162Y022004D02*
X021732Y022004D01*
X021732Y022046D02*
X022162Y022046D01*
X022162Y022088D02*
X021732Y022088D01*
X021732Y022130D02*
X022162Y022130D01*
X022162Y022172D02*
X021732Y022172D01*
X021732Y022214D02*
X022162Y022214D01*
X022162Y022256D02*
X021732Y022256D01*
X021732Y022298D02*
X022162Y022298D01*
X024425Y021920D02*
X024855Y021920D01*
X024425Y021920D02*
X024425Y022312D01*
X024855Y022312D01*
X024855Y021920D01*
X024855Y021962D02*
X024425Y021962D01*
X024425Y022004D02*
X024855Y022004D01*
X024855Y022046D02*
X024425Y022046D01*
X024425Y022088D02*
X024855Y022088D01*
X024855Y022130D02*
X024425Y022130D01*
X024425Y022172D02*
X024855Y022172D01*
X024855Y022214D02*
X024425Y022214D01*
X024425Y022256D02*
X024855Y022256D01*
X024855Y022298D02*
X024425Y022298D01*
X025094Y021920D02*
X025524Y021920D01*
X025094Y021920D02*
X025094Y022312D01*
X025524Y022312D01*
X025524Y021920D01*
X025524Y021962D02*
X025094Y021962D01*
X025094Y022004D02*
X025524Y022004D01*
X025524Y022046D02*
X025094Y022046D01*
X025094Y022088D02*
X025524Y022088D01*
X025524Y022130D02*
X025094Y022130D01*
X025094Y022172D02*
X025524Y022172D01*
X025524Y022214D02*
X025094Y022214D01*
X025094Y022256D02*
X025524Y022256D01*
X025524Y022298D02*
X025094Y022298D01*
X027287Y021174D02*
X027717Y021174D01*
X027717Y020782D01*
X027287Y020782D01*
X027287Y021174D01*
X027287Y020824D02*
X027717Y020824D01*
X027717Y020866D02*
X027287Y020866D01*
X027287Y020908D02*
X027717Y020908D01*
X027717Y020950D02*
X027287Y020950D01*
X027287Y020992D02*
X027717Y020992D01*
X027717Y021034D02*
X027287Y021034D01*
X027287Y021076D02*
X027717Y021076D01*
X027717Y021118D02*
X027287Y021118D01*
X027287Y021160D02*
X027717Y021160D01*
X027957Y021174D02*
X028387Y021174D01*
X028387Y020782D01*
X027957Y020782D01*
X027957Y021174D01*
X027957Y020824D02*
X028387Y020824D01*
X028387Y020866D02*
X027957Y020866D01*
X027957Y020908D02*
X028387Y020908D01*
X028387Y020950D02*
X027957Y020950D01*
X027957Y020992D02*
X028387Y020992D01*
X028387Y021034D02*
X027957Y021034D01*
X027957Y021076D02*
X028387Y021076D01*
X028387Y021118D02*
X027957Y021118D01*
X027957Y021160D02*
X028387Y021160D01*
X027130Y020298D02*
X027130Y019906D01*
X027130Y020298D02*
X027678Y020298D01*
X027678Y019906D01*
X027130Y019906D01*
X027130Y019948D02*
X027678Y019948D01*
X027678Y019990D02*
X027130Y019990D01*
X027130Y020032D02*
X027678Y020032D01*
X027678Y020074D02*
X027130Y020074D01*
X027130Y020116D02*
X027678Y020116D01*
X027678Y020158D02*
X027130Y020158D01*
X027130Y020200D02*
X027678Y020200D01*
X027678Y020242D02*
X027130Y020242D01*
X027130Y020284D02*
X027678Y020284D01*
X027996Y019924D02*
X027996Y019532D01*
X027996Y019924D02*
X028544Y019924D01*
X028544Y019532D01*
X027996Y019532D01*
X027996Y019574D02*
X028544Y019574D01*
X028544Y019616D02*
X027996Y019616D01*
X027996Y019658D02*
X028544Y019658D01*
X028544Y019700D02*
X027996Y019700D01*
X027996Y019742D02*
X028544Y019742D01*
X028544Y019784D02*
X027996Y019784D01*
X027996Y019826D02*
X028544Y019826D01*
X028544Y019868D02*
X027996Y019868D01*
X027996Y019910D02*
X028544Y019910D01*
X027130Y019550D02*
X027130Y019158D01*
X027130Y019550D02*
X027678Y019550D01*
X027678Y019158D01*
X027130Y019158D01*
X027130Y019200D02*
X027678Y019200D01*
X027678Y019242D02*
X027130Y019242D01*
X027130Y019284D02*
X027678Y019284D01*
X027678Y019326D02*
X027130Y019326D01*
X027130Y019368D02*
X027678Y019368D01*
X027678Y019410D02*
X027130Y019410D01*
X027130Y019452D02*
X027678Y019452D01*
X027678Y019494D02*
X027130Y019494D01*
X027130Y019536D02*
X027678Y019536D01*
X026802Y019509D02*
X026802Y019117D01*
X026372Y019117D01*
X026372Y019509D01*
X026802Y019509D01*
X026802Y019159D02*
X026372Y019159D01*
X026372Y019201D02*
X026802Y019201D01*
X026802Y019243D02*
X026372Y019243D01*
X026372Y019285D02*
X026802Y019285D01*
X026802Y019327D02*
X026372Y019327D01*
X026372Y019369D02*
X026802Y019369D01*
X026802Y019411D02*
X026372Y019411D01*
X026372Y019453D02*
X026802Y019453D01*
X026802Y019495D02*
X026372Y019495D01*
X026802Y018840D02*
X026802Y018448D01*
X026372Y018448D01*
X026372Y018840D01*
X026802Y018840D01*
X026802Y018490D02*
X026372Y018490D01*
X026372Y018532D02*
X026802Y018532D01*
X026802Y018574D02*
X026372Y018574D01*
X026372Y018616D02*
X026802Y018616D01*
X026802Y018658D02*
X026372Y018658D01*
X026372Y018700D02*
X026802Y018700D01*
X026802Y018742D02*
X026372Y018742D01*
X026372Y018784D02*
X026802Y018784D01*
X026802Y018826D02*
X026372Y018826D01*
X027037Y018674D02*
X027467Y018674D01*
X027467Y018282D01*
X027037Y018282D01*
X027037Y018674D01*
X027037Y018324D02*
X027467Y018324D01*
X027467Y018366D02*
X027037Y018366D01*
X027037Y018408D02*
X027467Y018408D01*
X027467Y018450D02*
X027037Y018450D01*
X027037Y018492D02*
X027467Y018492D01*
X027467Y018534D02*
X027037Y018534D01*
X027037Y018576D02*
X027467Y018576D01*
X027467Y018618D02*
X027037Y018618D01*
X027037Y018660D02*
X027467Y018660D01*
X027707Y018674D02*
X028137Y018674D01*
X028137Y018282D01*
X027707Y018282D01*
X027707Y018674D01*
X027707Y018324D02*
X028137Y018324D01*
X028137Y018366D02*
X027707Y018366D01*
X027707Y018408D02*
X028137Y018408D01*
X028137Y018450D02*
X027707Y018450D01*
X027707Y018492D02*
X028137Y018492D01*
X028137Y018534D02*
X027707Y018534D01*
X027707Y018576D02*
X028137Y018576D01*
X028137Y018618D02*
X027707Y018618D01*
X027707Y018660D02*
X028137Y018660D01*
X030556Y017763D02*
X030948Y017763D01*
X030556Y017763D02*
X030556Y018193D01*
X030948Y018193D01*
X030948Y017763D01*
X030948Y017805D02*
X030556Y017805D01*
X030556Y017847D02*
X030948Y017847D01*
X030948Y017889D02*
X030556Y017889D01*
X030556Y017931D02*
X030948Y017931D01*
X030948Y017973D02*
X030556Y017973D01*
X030556Y018015D02*
X030948Y018015D01*
X030948Y018057D02*
X030556Y018057D01*
X030556Y018099D02*
X030948Y018099D01*
X030948Y018141D02*
X030556Y018141D01*
X030556Y018183D02*
X030948Y018183D01*
X031226Y017763D02*
X031618Y017763D01*
X031226Y017763D02*
X031226Y018193D01*
X031618Y018193D01*
X031618Y017763D01*
X031618Y017805D02*
X031226Y017805D01*
X031226Y017847D02*
X031618Y017847D01*
X031618Y017889D02*
X031226Y017889D01*
X031226Y017931D02*
X031618Y017931D01*
X031618Y017973D02*
X031226Y017973D01*
X031226Y018015D02*
X031618Y018015D01*
X031618Y018057D02*
X031226Y018057D01*
X031226Y018099D02*
X031618Y018099D01*
X031618Y018141D02*
X031226Y018141D01*
X031226Y018183D02*
X031618Y018183D01*
X031618Y017013D02*
X031226Y017013D01*
X031226Y017443D01*
X031618Y017443D01*
X031618Y017013D01*
X031618Y017055D02*
X031226Y017055D01*
X031226Y017097D02*
X031618Y017097D01*
X031618Y017139D02*
X031226Y017139D01*
X031226Y017181D02*
X031618Y017181D01*
X031618Y017223D02*
X031226Y017223D01*
X031226Y017265D02*
X031618Y017265D01*
X031618Y017307D02*
X031226Y017307D01*
X031226Y017349D02*
X031618Y017349D01*
X031618Y017391D02*
X031226Y017391D01*
X031226Y017433D02*
X031618Y017433D01*
X030948Y017013D02*
X030556Y017013D01*
X030556Y017443D01*
X030948Y017443D01*
X030948Y017013D01*
X030948Y017055D02*
X030556Y017055D01*
X030556Y017097D02*
X030948Y017097D01*
X030948Y017139D02*
X030556Y017139D01*
X030556Y017181D02*
X030948Y017181D01*
X030948Y017223D02*
X030556Y017223D01*
X030556Y017265D02*
X030948Y017265D01*
X030948Y017307D02*
X030556Y017307D01*
X030556Y017349D02*
X030948Y017349D01*
X030948Y017391D02*
X030556Y017391D01*
X030556Y017433D02*
X030948Y017433D01*
X030948Y016263D02*
X030556Y016263D01*
X030556Y016693D01*
X030948Y016693D01*
X030948Y016263D01*
X030948Y016305D02*
X030556Y016305D01*
X030556Y016347D02*
X030948Y016347D01*
X030948Y016389D02*
X030556Y016389D01*
X030556Y016431D02*
X030948Y016431D01*
X030948Y016473D02*
X030556Y016473D01*
X030556Y016515D02*
X030948Y016515D01*
X030948Y016557D02*
X030556Y016557D01*
X030556Y016599D02*
X030948Y016599D01*
X030948Y016641D02*
X030556Y016641D01*
X030556Y016683D02*
X030948Y016683D01*
X031226Y016263D02*
X031618Y016263D01*
X031226Y016263D02*
X031226Y016693D01*
X031618Y016693D01*
X031618Y016263D01*
X031618Y016305D02*
X031226Y016305D01*
X031226Y016347D02*
X031618Y016347D01*
X031618Y016389D02*
X031226Y016389D01*
X031226Y016431D02*
X031618Y016431D01*
X031618Y016473D02*
X031226Y016473D01*
X031226Y016515D02*
X031618Y016515D01*
X031618Y016557D02*
X031226Y016557D01*
X031226Y016599D02*
X031618Y016599D01*
X031618Y016641D02*
X031226Y016641D01*
X031226Y016683D02*
X031618Y016683D01*
X031618Y014763D02*
X031226Y014763D01*
X031226Y015193D01*
X031618Y015193D01*
X031618Y014763D01*
X031618Y014805D02*
X031226Y014805D01*
X031226Y014847D02*
X031618Y014847D01*
X031618Y014889D02*
X031226Y014889D01*
X031226Y014931D02*
X031618Y014931D01*
X031618Y014973D02*
X031226Y014973D01*
X031226Y015015D02*
X031618Y015015D01*
X031618Y015057D02*
X031226Y015057D01*
X031226Y015099D02*
X031618Y015099D01*
X031618Y015141D02*
X031226Y015141D01*
X031226Y015183D02*
X031618Y015183D01*
X030948Y014763D02*
X030556Y014763D01*
X030556Y015193D01*
X030948Y015193D01*
X030948Y014763D01*
X030948Y014805D02*
X030556Y014805D01*
X030556Y014847D02*
X030948Y014847D01*
X030948Y014889D02*
X030556Y014889D01*
X030556Y014931D02*
X030948Y014931D01*
X030948Y014973D02*
X030556Y014973D01*
X030556Y015015D02*
X030948Y015015D01*
X030948Y015057D02*
X030556Y015057D01*
X030556Y015099D02*
X030948Y015099D01*
X030948Y015141D02*
X030556Y015141D01*
X030556Y015183D02*
X030948Y015183D01*
X030948Y014444D02*
X030556Y014444D01*
X030948Y014444D02*
X030948Y014014D01*
X030556Y014014D01*
X030556Y014444D01*
X030556Y014056D02*
X030948Y014056D01*
X030948Y014098D02*
X030556Y014098D01*
X030556Y014140D02*
X030948Y014140D01*
X030948Y014182D02*
X030556Y014182D01*
X030556Y014224D02*
X030948Y014224D01*
X030948Y014266D02*
X030556Y014266D01*
X030556Y014308D02*
X030948Y014308D01*
X030948Y014350D02*
X030556Y014350D01*
X030556Y014392D02*
X030948Y014392D01*
X030948Y014434D02*
X030556Y014434D01*
X031226Y014444D02*
X031618Y014444D01*
X031618Y014014D01*
X031226Y014014D01*
X031226Y014444D01*
X031226Y014056D02*
X031618Y014056D01*
X031618Y014098D02*
X031226Y014098D01*
X031226Y014140D02*
X031618Y014140D01*
X031618Y014182D02*
X031226Y014182D01*
X031226Y014224D02*
X031618Y014224D01*
X031618Y014266D02*
X031226Y014266D01*
X031226Y014308D02*
X031618Y014308D01*
X031618Y014350D02*
X031226Y014350D01*
X031226Y014392D02*
X031618Y014392D01*
X031618Y014434D02*
X031226Y014434D01*
X031226Y013263D02*
X031618Y013263D01*
X031226Y013263D02*
X031226Y013693D01*
X031618Y013693D01*
X031618Y013263D01*
X031618Y013305D02*
X031226Y013305D01*
X031226Y013347D02*
X031618Y013347D01*
X031618Y013389D02*
X031226Y013389D01*
X031226Y013431D02*
X031618Y013431D01*
X031618Y013473D02*
X031226Y013473D01*
X031226Y013515D02*
X031618Y013515D01*
X031618Y013557D02*
X031226Y013557D01*
X031226Y013599D02*
X031618Y013599D01*
X031618Y013641D02*
X031226Y013641D01*
X031226Y013683D02*
X031618Y013683D01*
X030948Y013263D02*
X030556Y013263D01*
X030556Y013693D01*
X030948Y013693D01*
X030948Y013263D01*
X030948Y013305D02*
X030556Y013305D01*
X030556Y013347D02*
X030948Y013347D01*
X030948Y013389D02*
X030556Y013389D01*
X030556Y013431D02*
X030948Y013431D01*
X030948Y013473D02*
X030556Y013473D01*
X030556Y013515D02*
X030948Y013515D01*
X030948Y013557D02*
X030556Y013557D01*
X030556Y013599D02*
X030948Y013599D01*
X030948Y013641D02*
X030556Y013641D01*
X030556Y013683D02*
X030948Y013683D01*
X030948Y012513D02*
X030556Y012513D01*
X030556Y012943D01*
X030948Y012943D01*
X030948Y012513D01*
X030948Y012555D02*
X030556Y012555D01*
X030556Y012597D02*
X030948Y012597D01*
X030948Y012639D02*
X030556Y012639D01*
X030556Y012681D02*
X030948Y012681D01*
X030948Y012723D02*
X030556Y012723D01*
X030556Y012765D02*
X030948Y012765D01*
X030948Y012807D02*
X030556Y012807D01*
X030556Y012849D02*
X030948Y012849D01*
X030948Y012891D02*
X030556Y012891D01*
X030556Y012933D02*
X030948Y012933D01*
X031226Y012513D02*
X031618Y012513D01*
X031226Y012513D02*
X031226Y012943D01*
X031618Y012943D01*
X031618Y012513D01*
X031618Y012555D02*
X031226Y012555D01*
X031226Y012597D02*
X031618Y012597D01*
X031618Y012639D02*
X031226Y012639D01*
X031226Y012681D02*
X031618Y012681D01*
X031618Y012723D02*
X031226Y012723D01*
X031226Y012765D02*
X031618Y012765D01*
X031618Y012807D02*
X031226Y012807D01*
X031226Y012849D02*
X031618Y012849D01*
X031618Y012891D02*
X031226Y012891D01*
X031226Y012933D02*
X031618Y012933D01*
X031617Y012193D02*
X031225Y012193D01*
X031617Y012193D02*
X031617Y011763D01*
X031225Y011763D01*
X031225Y012193D01*
X031225Y011805D02*
X031617Y011805D01*
X031617Y011847D02*
X031225Y011847D01*
X031225Y011889D02*
X031617Y011889D01*
X031617Y011931D02*
X031225Y011931D01*
X031225Y011973D02*
X031617Y011973D01*
X031617Y012015D02*
X031225Y012015D01*
X031225Y012057D02*
X031617Y012057D01*
X031617Y012099D02*
X031225Y012099D01*
X031225Y012141D02*
X031617Y012141D01*
X031617Y012183D02*
X031225Y012183D01*
X030948Y012193D02*
X030556Y012193D01*
X030948Y012193D02*
X030948Y011763D01*
X030556Y011763D01*
X030556Y012193D01*
X030556Y011805D02*
X030948Y011805D01*
X030948Y011847D02*
X030556Y011847D01*
X030556Y011889D02*
X030948Y011889D01*
X030948Y011931D02*
X030556Y011931D01*
X030556Y011973D02*
X030948Y011973D01*
X030948Y012015D02*
X030556Y012015D01*
X030556Y012057D02*
X030948Y012057D01*
X030948Y012099D02*
X030556Y012099D01*
X030556Y012141D02*
X030948Y012141D01*
X030948Y012183D02*
X030556Y012183D01*
X030607Y010005D02*
X030607Y009613D01*
X030059Y009613D01*
X030059Y010005D01*
X030607Y010005D01*
X030607Y009655D02*
X030059Y009655D01*
X030059Y009697D02*
X030607Y009697D01*
X030607Y009739D02*
X030059Y009739D01*
X030059Y009781D02*
X030607Y009781D01*
X030607Y009823D02*
X030059Y009823D01*
X030059Y009865D02*
X030607Y009865D01*
X030607Y009907D02*
X030059Y009907D01*
X030059Y009949D02*
X030607Y009949D01*
X030607Y009991D02*
X030059Y009991D01*
X029741Y009631D02*
X029741Y009239D01*
X029193Y009239D01*
X029193Y009631D01*
X029741Y009631D01*
X029741Y009281D02*
X029193Y009281D01*
X029193Y009323D02*
X029741Y009323D01*
X029741Y009365D02*
X029193Y009365D01*
X029193Y009407D02*
X029741Y009407D01*
X029741Y009449D02*
X029193Y009449D01*
X029193Y009491D02*
X029741Y009491D01*
X029741Y009533D02*
X029193Y009533D01*
X029193Y009575D02*
X029741Y009575D01*
X029741Y009617D02*
X029193Y009617D01*
X030607Y009257D02*
X030607Y008865D01*
X030059Y008865D01*
X030059Y009257D01*
X030607Y009257D01*
X030607Y008907D02*
X030059Y008907D01*
X030059Y008949D02*
X030607Y008949D01*
X030607Y008991D02*
X030059Y008991D01*
X030059Y009033D02*
X030607Y009033D01*
X030607Y009075D02*
X030059Y009075D01*
X030059Y009117D02*
X030607Y009117D01*
X030607Y009159D02*
X030059Y009159D01*
X030059Y009201D02*
X030607Y009201D01*
X030607Y009243D02*
X030059Y009243D01*
X030615Y006840D02*
X030615Y006448D01*
X030185Y006448D01*
X030185Y006840D01*
X030615Y006840D01*
X030615Y006490D02*
X030185Y006490D01*
X030185Y006532D02*
X030615Y006532D01*
X030615Y006574D02*
X030185Y006574D01*
X030185Y006616D02*
X030615Y006616D01*
X030615Y006658D02*
X030185Y006658D01*
X030185Y006700D02*
X030615Y006700D01*
X030615Y006742D02*
X030185Y006742D01*
X030185Y006784D02*
X030615Y006784D01*
X030615Y006826D02*
X030185Y006826D01*
X029596Y006859D02*
X029596Y006429D01*
X029204Y006429D01*
X029204Y006859D01*
X029596Y006859D01*
X029596Y006471D02*
X029204Y006471D01*
X029204Y006513D02*
X029596Y006513D01*
X029596Y006555D02*
X029204Y006555D01*
X029204Y006597D02*
X029596Y006597D01*
X029596Y006639D02*
X029204Y006639D01*
X029204Y006681D02*
X029596Y006681D01*
X029596Y006723D02*
X029204Y006723D01*
X029204Y006765D02*
X029596Y006765D01*
X029596Y006807D02*
X029204Y006807D01*
X029204Y006849D02*
X029596Y006849D01*
X029596Y006190D02*
X029596Y005760D01*
X029204Y005760D01*
X029204Y006190D01*
X029596Y006190D01*
X029596Y005802D02*
X029204Y005802D01*
X029204Y005844D02*
X029596Y005844D01*
X029596Y005886D02*
X029204Y005886D01*
X029204Y005928D02*
X029596Y005928D01*
X029596Y005970D02*
X029204Y005970D01*
X029204Y006012D02*
X029596Y006012D01*
X029596Y006054D02*
X029204Y006054D01*
X029204Y006096D02*
X029596Y006096D01*
X029596Y006138D02*
X029204Y006138D01*
X029204Y006180D02*
X029596Y006180D01*
X030615Y006171D02*
X030615Y005779D01*
X030185Y005779D01*
X030185Y006171D01*
X030615Y006171D01*
X030615Y005821D02*
X030185Y005821D01*
X030185Y005863D02*
X030615Y005863D01*
X030615Y005905D02*
X030185Y005905D01*
X030185Y005947D02*
X030615Y005947D01*
X030615Y005989D02*
X030185Y005989D01*
X030185Y006031D02*
X030615Y006031D01*
X030615Y006073D02*
X030185Y006073D01*
X030185Y006115D02*
X030615Y006115D01*
X030615Y006157D02*
X030185Y006157D01*
X031185Y006171D02*
X031185Y005779D01*
X031185Y006171D02*
X031615Y006171D01*
X031615Y005779D01*
X031185Y005779D01*
X031185Y005821D02*
X031615Y005821D01*
X031615Y005863D02*
X031185Y005863D01*
X031185Y005905D02*
X031615Y005905D01*
X031615Y005947D02*
X031185Y005947D01*
X031185Y005989D02*
X031615Y005989D01*
X031615Y006031D02*
X031185Y006031D01*
X031185Y006073D02*
X031615Y006073D01*
X031615Y006115D02*
X031185Y006115D01*
X031185Y006157D02*
X031615Y006157D01*
X031185Y006448D02*
X031185Y006840D01*
X031615Y006840D01*
X031615Y006448D01*
X031185Y006448D01*
X031185Y006490D02*
X031615Y006490D01*
X031615Y006532D02*
X031185Y006532D01*
X031185Y006574D02*
X031615Y006574D01*
X031615Y006616D02*
X031185Y006616D01*
X031185Y006658D02*
X031615Y006658D01*
X031615Y006700D02*
X031185Y006700D01*
X031185Y006742D02*
X031615Y006742D01*
X031615Y006784D02*
X031185Y006784D01*
X031185Y006826D02*
X031615Y006826D01*
X032693Y006880D02*
X032693Y006488D01*
X032693Y006880D02*
X033241Y006880D01*
X033241Y006488D01*
X032693Y006488D01*
X032693Y006530D02*
X033241Y006530D01*
X033241Y006572D02*
X032693Y006572D01*
X032693Y006614D02*
X033241Y006614D01*
X033241Y006656D02*
X032693Y006656D01*
X032693Y006698D02*
X033241Y006698D01*
X033241Y006740D02*
X032693Y006740D01*
X032693Y006782D02*
X033241Y006782D01*
X033241Y006824D02*
X032693Y006824D01*
X032693Y006866D02*
X033241Y006866D01*
X033559Y006506D02*
X033559Y006114D01*
X033559Y006506D02*
X034107Y006506D01*
X034107Y006114D01*
X033559Y006114D01*
X033559Y006156D02*
X034107Y006156D01*
X034107Y006198D02*
X033559Y006198D01*
X033559Y006240D02*
X034107Y006240D01*
X034107Y006282D02*
X033559Y006282D01*
X033559Y006324D02*
X034107Y006324D01*
X034107Y006366D02*
X033559Y006366D01*
X033559Y006408D02*
X034107Y006408D01*
X034107Y006450D02*
X033559Y006450D01*
X033559Y006492D02*
X034107Y006492D01*
X032693Y006132D02*
X032693Y005740D01*
X032693Y006132D02*
X033241Y006132D01*
X033241Y005740D01*
X032693Y005740D01*
X032693Y005782D02*
X033241Y005782D01*
X033241Y005824D02*
X032693Y005824D01*
X032693Y005866D02*
X033241Y005866D01*
X033241Y005908D02*
X032693Y005908D01*
X032693Y005950D02*
X033241Y005950D01*
X033241Y005992D02*
X032693Y005992D01*
X032693Y006034D02*
X033241Y006034D01*
X033241Y006076D02*
X032693Y006076D01*
X032693Y006118D02*
X033241Y006118D01*
X028615Y006171D02*
X028615Y005779D01*
X028185Y005779D01*
X028185Y006171D01*
X028615Y006171D01*
X028615Y005821D02*
X028185Y005821D01*
X028185Y005863D02*
X028615Y005863D01*
X028615Y005905D02*
X028185Y005905D01*
X028185Y005947D02*
X028615Y005947D01*
X028615Y005989D02*
X028185Y005989D01*
X028185Y006031D02*
X028615Y006031D01*
X028615Y006073D02*
X028185Y006073D01*
X028185Y006115D02*
X028615Y006115D01*
X028615Y006157D02*
X028185Y006157D01*
X028615Y006448D02*
X028615Y006840D01*
X028615Y006448D02*
X028185Y006448D01*
X028185Y006840D01*
X028615Y006840D01*
X028615Y006490D02*
X028185Y006490D01*
X028185Y006532D02*
X028615Y006532D01*
X028615Y006574D02*
X028185Y006574D01*
X028185Y006616D02*
X028615Y006616D01*
X028615Y006658D02*
X028185Y006658D01*
X028185Y006700D02*
X028615Y006700D01*
X028615Y006742D02*
X028185Y006742D01*
X028185Y006784D02*
X028615Y006784D01*
X028615Y006826D02*
X028185Y006826D01*
X027059Y006506D02*
X027059Y006114D01*
X027059Y006506D02*
X027607Y006506D01*
X027607Y006114D01*
X027059Y006114D01*
X027059Y006156D02*
X027607Y006156D01*
X027607Y006198D02*
X027059Y006198D01*
X027059Y006240D02*
X027607Y006240D01*
X027607Y006282D02*
X027059Y006282D01*
X027059Y006324D02*
X027607Y006324D01*
X027607Y006366D02*
X027059Y006366D01*
X027059Y006408D02*
X027607Y006408D01*
X027607Y006450D02*
X027059Y006450D01*
X027059Y006492D02*
X027607Y006492D01*
X026193Y006488D02*
X026193Y006880D01*
X026741Y006880D01*
X026741Y006488D01*
X026193Y006488D01*
X026193Y006530D02*
X026741Y006530D01*
X026741Y006572D02*
X026193Y006572D01*
X026193Y006614D02*
X026741Y006614D01*
X026741Y006656D02*
X026193Y006656D01*
X026193Y006698D02*
X026741Y006698D01*
X026741Y006740D02*
X026193Y006740D01*
X026193Y006782D02*
X026741Y006782D01*
X026741Y006824D02*
X026193Y006824D01*
X026193Y006866D02*
X026741Y006866D01*
X026193Y006132D02*
X026193Y005740D01*
X026193Y006132D02*
X026741Y006132D01*
X026741Y005740D01*
X026193Y005740D01*
X026193Y005782D02*
X026741Y005782D01*
X026741Y005824D02*
X026193Y005824D01*
X026193Y005866D02*
X026741Y005866D01*
X026741Y005908D02*
X026193Y005908D01*
X026193Y005950D02*
X026741Y005950D01*
X026741Y005992D02*
X026193Y005992D01*
X026193Y006034D02*
X026741Y006034D01*
X026741Y006076D02*
X026193Y006076D01*
X026193Y006118D02*
X026741Y006118D01*
X026538Y011893D02*
X026930Y011893D01*
X026930Y011463D01*
X026538Y011463D01*
X026538Y011893D01*
X026538Y011505D02*
X026930Y011505D01*
X026930Y011547D02*
X026538Y011547D01*
X026538Y011589D02*
X026930Y011589D01*
X026930Y011631D02*
X026538Y011631D01*
X026538Y011673D02*
X026930Y011673D01*
X026930Y011715D02*
X026538Y011715D01*
X026538Y011757D02*
X026930Y011757D01*
X026930Y011799D02*
X026538Y011799D01*
X026538Y011841D02*
X026930Y011841D01*
X026930Y011883D02*
X026538Y011883D01*
X026261Y011893D02*
X025869Y011893D01*
X026261Y011893D02*
X026261Y011463D01*
X025869Y011463D01*
X025869Y011893D01*
X025869Y011505D02*
X026261Y011505D01*
X026261Y011547D02*
X025869Y011547D01*
X025869Y011589D02*
X026261Y011589D01*
X026261Y011631D02*
X025869Y011631D01*
X025869Y011673D02*
X026261Y011673D01*
X026261Y011715D02*
X025869Y011715D01*
X025869Y011757D02*
X026261Y011757D01*
X026261Y011799D02*
X025869Y011799D01*
X025869Y011841D02*
X026261Y011841D01*
X026261Y011883D02*
X025869Y011883D01*
X024858Y011896D02*
X024858Y011466D01*
X024466Y011466D01*
X024466Y011896D01*
X024858Y011896D01*
X024858Y011508D02*
X024466Y011508D01*
X024466Y011550D02*
X024858Y011550D01*
X024858Y011592D02*
X024466Y011592D01*
X024466Y011634D02*
X024858Y011634D01*
X024858Y011676D02*
X024466Y011676D01*
X024466Y011718D02*
X024858Y011718D01*
X024858Y011760D02*
X024466Y011760D01*
X024466Y011802D02*
X024858Y011802D01*
X024858Y011844D02*
X024466Y011844D01*
X024466Y011886D02*
X024858Y011886D01*
X024858Y012136D02*
X024858Y012566D01*
X024858Y012136D02*
X024466Y012136D01*
X024466Y012566D01*
X024858Y012566D01*
X024858Y012178D02*
X024466Y012178D01*
X024466Y012220D02*
X024858Y012220D01*
X024858Y012262D02*
X024466Y012262D01*
X024466Y012304D02*
X024858Y012304D01*
X024858Y012346D02*
X024466Y012346D01*
X024466Y012388D02*
X024858Y012388D01*
X024858Y012430D02*
X024466Y012430D01*
X024466Y012472D02*
X024858Y012472D01*
X024858Y012514D02*
X024466Y012514D01*
X024466Y012556D02*
X024858Y012556D01*
X039096Y013760D02*
X039096Y014190D01*
X039096Y013760D02*
X038704Y013760D01*
X038704Y014190D01*
X039096Y014190D01*
X039096Y013802D02*
X038704Y013802D01*
X038704Y013844D02*
X039096Y013844D01*
X039096Y013886D02*
X038704Y013886D01*
X038704Y013928D02*
X039096Y013928D01*
X039096Y013970D02*
X038704Y013970D01*
X038704Y014012D02*
X039096Y014012D01*
X039096Y014054D02*
X038704Y014054D01*
X038704Y014096D02*
X039096Y014096D01*
X039096Y014138D02*
X038704Y014138D01*
X038704Y014180D02*
X039096Y014180D01*
X039096Y014429D02*
X039096Y014859D01*
X039096Y014429D02*
X038704Y014429D01*
X038704Y014859D01*
X039096Y014859D01*
X039096Y014471D02*
X038704Y014471D01*
X038704Y014513D02*
X039096Y014513D01*
X039096Y014555D02*
X038704Y014555D01*
X038704Y014597D02*
X039096Y014597D01*
X039096Y014639D02*
X038704Y014639D01*
X038704Y014681D02*
X039096Y014681D01*
X039096Y014723D02*
X038704Y014723D01*
X038704Y014765D02*
X039096Y014765D01*
X039096Y014807D02*
X038704Y014807D01*
X038704Y014849D02*
X039096Y014849D01*
X042704Y014859D02*
X042704Y014429D01*
X042704Y014859D02*
X043096Y014859D01*
X043096Y014429D01*
X042704Y014429D01*
X042704Y014471D02*
X043096Y014471D01*
X043096Y014513D02*
X042704Y014513D01*
X042704Y014555D02*
X043096Y014555D01*
X043096Y014597D02*
X042704Y014597D01*
X042704Y014639D02*
X043096Y014639D01*
X043096Y014681D02*
X042704Y014681D01*
X042704Y014723D02*
X043096Y014723D01*
X043096Y014765D02*
X042704Y014765D01*
X042704Y014807D02*
X043096Y014807D01*
X043096Y014849D02*
X042704Y014849D01*
X042704Y014190D02*
X042704Y013760D01*
X042704Y014190D02*
X043096Y014190D01*
X043096Y013760D01*
X042704Y013760D01*
X042704Y013802D02*
X043096Y013802D01*
X043096Y013844D02*
X042704Y013844D01*
X042704Y013886D02*
X043096Y013886D01*
X043096Y013928D02*
X042704Y013928D01*
X042704Y013970D02*
X043096Y013970D01*
X043096Y014012D02*
X042704Y014012D01*
X042704Y014054D02*
X043096Y014054D01*
X043096Y014096D02*
X042704Y014096D01*
X042704Y014138D02*
X043096Y014138D01*
X043096Y014180D02*
X042704Y014180D01*
X043204Y011969D02*
X043596Y011969D01*
X043204Y011969D02*
X043204Y012517D01*
X043596Y012517D01*
X043596Y011969D01*
X043596Y012011D02*
X043204Y012011D01*
X043204Y012053D02*
X043596Y012053D01*
X043596Y012095D02*
X043204Y012095D01*
X043204Y012137D02*
X043596Y012137D01*
X043596Y012179D02*
X043204Y012179D01*
X043204Y012221D02*
X043596Y012221D01*
X043596Y012263D02*
X043204Y012263D01*
X043204Y012305D02*
X043596Y012305D01*
X043596Y012347D02*
X043204Y012347D01*
X043204Y012389D02*
X043596Y012389D01*
X043596Y012431D02*
X043204Y012431D01*
X043204Y012473D02*
X043596Y012473D01*
X043596Y012515D02*
X043204Y012515D01*
X041935Y012340D02*
X041935Y011948D01*
X041935Y012340D02*
X042365Y012340D01*
X042365Y011948D01*
X041935Y011948D01*
X041935Y011990D02*
X042365Y011990D01*
X042365Y012032D02*
X041935Y012032D01*
X041935Y012074D02*
X042365Y012074D01*
X042365Y012116D02*
X041935Y012116D01*
X041935Y012158D02*
X042365Y012158D01*
X042365Y012200D02*
X041935Y012200D01*
X041935Y012242D02*
X042365Y012242D01*
X042365Y012284D02*
X041935Y012284D01*
X041935Y012326D02*
X042365Y012326D01*
X041935Y011671D02*
X041935Y011279D01*
X041935Y011671D02*
X042365Y011671D01*
X042365Y011279D01*
X041935Y011279D01*
X041935Y011321D02*
X042365Y011321D01*
X042365Y011363D02*
X041935Y011363D01*
X041935Y011405D02*
X042365Y011405D01*
X042365Y011447D02*
X041935Y011447D01*
X041935Y011489D02*
X042365Y011489D01*
X042365Y011531D02*
X041935Y011531D01*
X041935Y011573D02*
X042365Y011573D01*
X042365Y011615D02*
X041935Y011615D01*
X041935Y011657D02*
X042365Y011657D01*
X042830Y011103D02*
X043222Y011103D01*
X042830Y011103D02*
X042830Y011651D01*
X043222Y011651D01*
X043222Y011103D01*
X043222Y011145D02*
X042830Y011145D01*
X042830Y011187D02*
X043222Y011187D01*
X043222Y011229D02*
X042830Y011229D01*
X042830Y011271D02*
X043222Y011271D01*
X043222Y011313D02*
X042830Y011313D01*
X042830Y011355D02*
X043222Y011355D01*
X043222Y011397D02*
X042830Y011397D01*
X042830Y011439D02*
X043222Y011439D01*
X043222Y011481D02*
X042830Y011481D01*
X042830Y011523D02*
X043222Y011523D01*
X043222Y011565D02*
X042830Y011565D01*
X042830Y011607D02*
X043222Y011607D01*
X043222Y011649D02*
X042830Y011649D01*
X043578Y011103D02*
X043970Y011103D01*
X043578Y011103D02*
X043578Y011651D01*
X043970Y011651D01*
X043970Y011103D01*
X043970Y011145D02*
X043578Y011145D01*
X043578Y011187D02*
X043970Y011187D01*
X043970Y011229D02*
X043578Y011229D01*
X043578Y011271D02*
X043970Y011271D01*
X043970Y011313D02*
X043578Y011313D01*
X043578Y011355D02*
X043970Y011355D01*
X043970Y011397D02*
X043578Y011397D01*
X043578Y011439D02*
X043970Y011439D01*
X043970Y011481D02*
X043578Y011481D01*
X043578Y011523D02*
X043970Y011523D01*
X043970Y011565D02*
X043578Y011565D01*
X043578Y011607D02*
X043970Y011607D01*
X043970Y011649D02*
X043578Y011649D01*
X044865Y011671D02*
X044865Y011279D01*
X044435Y011279D01*
X044435Y011671D01*
X044865Y011671D01*
X044865Y011321D02*
X044435Y011321D01*
X044435Y011363D02*
X044865Y011363D01*
X044865Y011405D02*
X044435Y011405D01*
X044435Y011447D02*
X044865Y011447D01*
X044865Y011489D02*
X044435Y011489D01*
X044435Y011531D02*
X044865Y011531D01*
X044865Y011573D02*
X044435Y011573D01*
X044435Y011615D02*
X044865Y011615D01*
X044865Y011657D02*
X044435Y011657D01*
X044865Y011948D02*
X044865Y012340D01*
X044865Y011948D02*
X044435Y011948D01*
X044435Y012340D01*
X044865Y012340D01*
X044865Y011990D02*
X044435Y011990D01*
X044435Y012032D02*
X044865Y012032D01*
X044865Y012074D02*
X044435Y012074D01*
X044435Y012116D02*
X044865Y012116D01*
X044865Y012158D02*
X044435Y012158D01*
X044435Y012200D02*
X044865Y012200D01*
X044865Y012242D02*
X044435Y012242D01*
X044435Y012284D02*
X044865Y012284D01*
X044865Y012326D02*
X044435Y012326D01*
X041336Y019943D02*
X040944Y019943D01*
X041336Y019943D02*
X041336Y019513D01*
X040944Y019513D01*
X040944Y019943D01*
X040944Y019555D02*
X041336Y019555D01*
X041336Y019597D02*
X040944Y019597D01*
X040944Y019639D02*
X041336Y019639D01*
X041336Y019681D02*
X040944Y019681D01*
X040944Y019723D02*
X041336Y019723D01*
X041336Y019765D02*
X040944Y019765D01*
X040944Y019807D02*
X041336Y019807D01*
X041336Y019849D02*
X040944Y019849D01*
X040944Y019891D02*
X041336Y019891D01*
X041336Y019933D02*
X040944Y019933D01*
X040667Y019943D02*
X040275Y019943D01*
X040667Y019943D02*
X040667Y019513D01*
X040275Y019513D01*
X040275Y019943D01*
X040275Y019555D02*
X040667Y019555D01*
X040667Y019597D02*
X040275Y019597D01*
X040275Y019639D02*
X040667Y019639D01*
X040667Y019681D02*
X040275Y019681D01*
X040275Y019723D02*
X040667Y019723D01*
X040667Y019765D02*
X040275Y019765D01*
X040275Y019807D02*
X040667Y019807D01*
X040667Y019849D02*
X040275Y019849D01*
X040275Y019891D02*
X040667Y019891D01*
X040667Y019933D02*
X040275Y019933D01*
D12*
X043998Y020478D03*
X043998Y016478D03*
D13*
X043998Y017478D03*
X043998Y018478D03*
X043998Y019478D03*
D14*
X041648Y015157D02*
X040152Y015157D01*
X040152Y015943D01*
X041648Y015943D01*
X041648Y015157D01*
X041648Y015197D02*
X040152Y015197D01*
X040152Y015237D02*
X041648Y015237D01*
X041648Y015277D02*
X040152Y015277D01*
X040152Y015317D02*
X041648Y015317D01*
X041648Y015357D02*
X040152Y015357D01*
X040152Y015397D02*
X041648Y015397D01*
X041648Y015437D02*
X040152Y015437D01*
X040152Y015477D02*
X041648Y015477D01*
X041648Y015517D02*
X040152Y015517D01*
X040152Y015557D02*
X041648Y015557D01*
X041648Y015597D02*
X040152Y015597D01*
X040152Y015637D02*
X041648Y015637D01*
X041648Y015677D02*
X040152Y015677D01*
X040152Y015717D02*
X041648Y015717D01*
X041648Y015757D02*
X040152Y015757D01*
X040152Y015797D02*
X041648Y015797D01*
X041648Y015837D02*
X040152Y015837D01*
X040152Y015877D02*
X041648Y015877D01*
X041648Y015917D02*
X040152Y015917D01*
X008959Y014656D02*
X008959Y013870D01*
X008959Y014656D02*
X009943Y014656D01*
X009943Y013870D01*
X008959Y013870D01*
X008959Y013910D02*
X009943Y013910D01*
X009943Y013950D02*
X008959Y013950D01*
X008959Y013990D02*
X009943Y013990D01*
X009943Y014030D02*
X008959Y014030D01*
X008959Y014070D02*
X009943Y014070D01*
X009943Y014110D02*
X008959Y014110D01*
X008959Y014150D02*
X009943Y014150D01*
X009943Y014190D02*
X008959Y014190D01*
X008959Y014230D02*
X009943Y014230D01*
X009943Y014270D02*
X008959Y014270D01*
X008959Y014310D02*
X009943Y014310D01*
X009943Y014350D02*
X008959Y014350D01*
X008959Y014390D02*
X009943Y014390D01*
X009943Y014430D02*
X008959Y014430D01*
X008959Y014470D02*
X009943Y014470D01*
X009943Y014510D02*
X008959Y014510D01*
X008959Y014550D02*
X009943Y014550D01*
X009943Y014590D02*
X008959Y014590D01*
X008959Y014630D02*
X009943Y014630D01*
X006794Y014656D02*
X006794Y013870D01*
X006794Y014656D02*
X007778Y014656D01*
X007778Y013870D01*
X006794Y013870D01*
X006794Y013910D02*
X007778Y013910D01*
X007778Y013950D02*
X006794Y013950D01*
X006794Y013990D02*
X007778Y013990D01*
X007778Y014030D02*
X006794Y014030D01*
X006794Y014070D02*
X007778Y014070D01*
X007778Y014110D02*
X006794Y014110D01*
X006794Y014150D02*
X007778Y014150D01*
X007778Y014190D02*
X006794Y014190D01*
X006794Y014230D02*
X007778Y014230D01*
X007778Y014270D02*
X006794Y014270D01*
X006794Y014310D02*
X007778Y014310D01*
X007778Y014350D02*
X006794Y014350D01*
X006794Y014390D02*
X007778Y014390D01*
X007778Y014430D02*
X006794Y014430D01*
X006794Y014470D02*
X007778Y014470D01*
X007778Y014510D02*
X006794Y014510D01*
X006794Y014550D02*
X007778Y014550D01*
X007778Y014590D02*
X006794Y014590D01*
X006794Y014630D02*
X007778Y014630D01*
X006794Y017373D02*
X006794Y018159D01*
X007778Y018159D01*
X007778Y017373D01*
X006794Y017373D01*
X006794Y017413D02*
X007778Y017413D01*
X007778Y017453D02*
X006794Y017453D01*
X006794Y017493D02*
X007778Y017493D01*
X007778Y017533D02*
X006794Y017533D01*
X006794Y017573D02*
X007778Y017573D01*
X007778Y017613D02*
X006794Y017613D01*
X006794Y017653D02*
X007778Y017653D01*
X007778Y017693D02*
X006794Y017693D01*
X006794Y017733D02*
X007778Y017733D01*
X007778Y017773D02*
X006794Y017773D01*
X006794Y017813D02*
X007778Y017813D01*
X007778Y017853D02*
X006794Y017853D01*
X006794Y017893D02*
X007778Y017893D01*
X007778Y017933D02*
X006794Y017933D01*
X006794Y017973D02*
X007778Y017973D01*
X007778Y018013D02*
X006794Y018013D01*
X006794Y018053D02*
X007778Y018053D01*
X007778Y018093D02*
X006794Y018093D01*
X006794Y018133D02*
X007778Y018133D01*
X008959Y018159D02*
X008959Y017373D01*
X008959Y018159D02*
X009943Y018159D01*
X009943Y017373D01*
X008959Y017373D01*
X008959Y017413D02*
X009943Y017413D01*
X009943Y017453D02*
X008959Y017453D01*
X008959Y017493D02*
X009943Y017493D01*
X009943Y017533D02*
X008959Y017533D01*
X008959Y017573D02*
X009943Y017573D01*
X009943Y017613D02*
X008959Y017613D01*
X008959Y017653D02*
X009943Y017653D01*
X009943Y017693D02*
X008959Y017693D01*
X008959Y017733D02*
X009943Y017733D01*
X009943Y017773D02*
X008959Y017773D01*
X008959Y017813D02*
X009943Y017813D01*
X009943Y017853D02*
X008959Y017853D01*
X008959Y017893D02*
X009943Y017893D01*
X009943Y017933D02*
X008959Y017933D01*
X008959Y017973D02*
X009943Y017973D01*
X009943Y018013D02*
X008959Y018013D01*
X008959Y018053D02*
X009943Y018053D01*
X009943Y018093D02*
X008959Y018093D01*
X008959Y018133D02*
X009943Y018133D01*
D15*
X008467Y016881D03*
X008467Y015148D03*
D16*
X009811Y019603D02*
X010319Y019603D01*
X010319Y019017D01*
X009811Y019017D01*
X009811Y019603D01*
X009811Y019060D02*
X010319Y019060D01*
X010319Y019103D02*
X009811Y019103D01*
X009811Y019146D02*
X010319Y019146D01*
X010319Y019189D02*
X009811Y019189D01*
X009811Y019232D02*
X010319Y019232D01*
X010319Y019275D02*
X009811Y019275D01*
X009811Y019318D02*
X010319Y019318D01*
X010319Y019361D02*
X009811Y019361D01*
X009811Y019404D02*
X010319Y019404D01*
X010319Y019447D02*
X009811Y019447D01*
X009811Y019490D02*
X010319Y019490D01*
X010319Y019533D02*
X009811Y019533D01*
X009811Y019576D02*
X010319Y019576D01*
X010481Y019603D02*
X010989Y019603D01*
X010989Y019017D01*
X010481Y019017D01*
X010481Y019603D01*
X010481Y019060D02*
X010989Y019060D01*
X010989Y019103D02*
X010481Y019103D01*
X010481Y019146D02*
X010989Y019146D01*
X010989Y019189D02*
X010481Y019189D01*
X010481Y019232D02*
X010989Y019232D01*
X010989Y019275D02*
X010481Y019275D01*
X010481Y019318D02*
X010989Y019318D01*
X010989Y019361D02*
X010481Y019361D01*
X010481Y019404D02*
X010989Y019404D01*
X010989Y019447D02*
X010481Y019447D01*
X010481Y019490D02*
X010989Y019490D01*
X010989Y019533D02*
X010481Y019533D01*
X010481Y019576D02*
X010989Y019576D01*
X039701Y012679D02*
X040287Y012679D01*
X039701Y012679D02*
X039701Y013461D01*
X040287Y013461D01*
X040287Y012679D01*
X040287Y012722D02*
X039701Y012722D01*
X039701Y012765D02*
X040287Y012765D01*
X040287Y012808D02*
X039701Y012808D01*
X039701Y012851D02*
X040287Y012851D01*
X040287Y012894D02*
X039701Y012894D01*
X039701Y012937D02*
X040287Y012937D01*
X040287Y012980D02*
X039701Y012980D01*
X039701Y013023D02*
X040287Y013023D01*
X040287Y013066D02*
X039701Y013066D01*
X039701Y013109D02*
X040287Y013109D01*
X040287Y013152D02*
X039701Y013152D01*
X039701Y013195D02*
X040287Y013195D01*
X040287Y013238D02*
X039701Y013238D01*
X039701Y013281D02*
X040287Y013281D01*
X040287Y013324D02*
X039701Y013324D01*
X039701Y013367D02*
X040287Y013367D01*
X040287Y013410D02*
X039701Y013410D01*
X039701Y013453D02*
X040287Y013453D01*
X040607Y012679D02*
X041193Y012679D01*
X040607Y012679D02*
X040607Y013461D01*
X041193Y013461D01*
X041193Y012679D01*
X041193Y012722D02*
X040607Y012722D01*
X040607Y012765D02*
X041193Y012765D01*
X041193Y012808D02*
X040607Y012808D01*
X040607Y012851D02*
X041193Y012851D01*
X041193Y012894D02*
X040607Y012894D01*
X040607Y012937D02*
X041193Y012937D01*
X041193Y012980D02*
X040607Y012980D01*
X040607Y013023D02*
X041193Y013023D01*
X041193Y013066D02*
X040607Y013066D01*
X040607Y013109D02*
X041193Y013109D01*
X041193Y013152D02*
X040607Y013152D01*
X040607Y013195D02*
X041193Y013195D01*
X041193Y013238D02*
X040607Y013238D01*
X040607Y013281D02*
X041193Y013281D01*
X041193Y013324D02*
X040607Y013324D01*
X040607Y013367D02*
X041193Y013367D01*
X041193Y013410D02*
X040607Y013410D01*
X040607Y013453D02*
X041193Y013453D01*
X041513Y012679D02*
X042099Y012679D01*
X041513Y012679D02*
X041513Y013461D01*
X042099Y013461D01*
X042099Y012679D01*
X042099Y012722D02*
X041513Y012722D01*
X041513Y012765D02*
X042099Y012765D01*
X042099Y012808D02*
X041513Y012808D01*
X041513Y012851D02*
X042099Y012851D01*
X042099Y012894D02*
X041513Y012894D01*
X041513Y012937D02*
X042099Y012937D01*
X042099Y012980D02*
X041513Y012980D01*
X041513Y013023D02*
X042099Y013023D01*
X042099Y013066D02*
X041513Y013066D01*
X041513Y013109D02*
X042099Y013109D01*
X042099Y013152D02*
X041513Y013152D01*
X041513Y013195D02*
X042099Y013195D01*
X042099Y013238D02*
X041513Y013238D01*
X041513Y013281D02*
X042099Y013281D01*
X042099Y013324D02*
X041513Y013324D01*
X041513Y013367D02*
X042099Y013367D01*
X042099Y013410D02*
X041513Y013410D01*
X041513Y013453D02*
X042099Y013453D01*
D17*
X043998Y013478D03*
X008172Y019755D03*
D18*
X008172Y020755D03*
X008172Y021755D03*
X043998Y014478D03*
D19*
X035928Y007448D03*
X036928Y006448D03*
X034928Y006448D03*
X017243Y006448D03*
X016243Y007448D03*
X015243Y006448D03*
D20*
X020337Y020398D02*
X022437Y020398D01*
X020337Y020398D02*
X020337Y021158D01*
X022437Y021158D01*
X022437Y020398D01*
X022437Y020437D02*
X020337Y020437D01*
X020337Y020476D02*
X022437Y020476D01*
X022437Y020515D02*
X020337Y020515D01*
X020337Y020554D02*
X022437Y020554D01*
X022437Y020593D02*
X020337Y020593D01*
X020337Y020632D02*
X022437Y020632D01*
X022437Y020671D02*
X020337Y020671D01*
X020337Y020710D02*
X022437Y020710D01*
X022437Y020749D02*
X020337Y020749D01*
X020337Y020788D02*
X022437Y020788D01*
X022437Y020827D02*
X020337Y020827D01*
X020337Y020866D02*
X022437Y020866D01*
X022437Y020905D02*
X020337Y020905D01*
X020337Y020944D02*
X022437Y020944D01*
X022437Y020983D02*
X020337Y020983D01*
X020337Y021022D02*
X022437Y021022D01*
X022437Y021061D02*
X020337Y021061D01*
X020337Y021100D02*
X022437Y021100D01*
X022437Y021139D02*
X020337Y021139D01*
X024137Y020398D02*
X026237Y020398D01*
X024137Y020398D02*
X024137Y021158D01*
X026237Y021158D01*
X026237Y020398D01*
X026237Y020437D02*
X024137Y020437D01*
X024137Y020476D02*
X026237Y020476D01*
X026237Y020515D02*
X024137Y020515D01*
X024137Y020554D02*
X026237Y020554D01*
X026237Y020593D02*
X024137Y020593D01*
X024137Y020632D02*
X026237Y020632D01*
X026237Y020671D02*
X024137Y020671D01*
X024137Y020710D02*
X026237Y020710D01*
X026237Y020749D02*
X024137Y020749D01*
X024137Y020788D02*
X026237Y020788D01*
X026237Y020827D02*
X024137Y020827D01*
X024137Y020866D02*
X026237Y020866D01*
X026237Y020905D02*
X024137Y020905D01*
X024137Y020944D02*
X026237Y020944D01*
X026237Y020983D02*
X024137Y020983D01*
X024137Y021022D02*
X026237Y021022D01*
X026237Y021061D02*
X024137Y021061D01*
X024137Y021100D02*
X026237Y021100D01*
X026237Y021139D02*
X024137Y021139D01*
D21*
X011321Y021605D03*
X011321Y009400D03*
X040849Y009400D03*
X040849Y021605D03*
D22*
X028487Y009400D03*
X027487Y009400D03*
X026487Y009400D03*
X025487Y009400D03*
X024487Y009400D03*
X023487Y009400D03*
X022487Y009400D03*
X021487Y009400D03*
X020487Y009400D03*
X019487Y009400D03*
X018487Y009400D03*
X017487Y009400D03*
X016487Y009400D03*
X015487Y009400D03*
X014487Y009400D03*
X013487Y009400D03*
D23*
X040060Y018810D02*
X040688Y018810D01*
X040060Y018810D02*
X040060Y019122D01*
X040688Y019122D01*
X040688Y018810D01*
X040688Y018852D02*
X040060Y018852D01*
X040060Y018894D02*
X040688Y018894D01*
X040688Y018936D02*
X040060Y018936D01*
X040060Y018978D02*
X040688Y018978D01*
X040688Y019020D02*
X040060Y019020D01*
X040060Y019062D02*
X040688Y019062D01*
X040688Y019104D02*
X040060Y019104D01*
X041398Y018810D02*
X042026Y018810D01*
X041398Y018810D02*
X041398Y019122D01*
X042026Y019122D01*
X042026Y018810D01*
X042026Y018852D02*
X041398Y018852D01*
X041398Y018894D02*
X042026Y018894D01*
X042026Y018936D02*
X041398Y018936D01*
X041398Y018978D02*
X042026Y018978D01*
X042026Y019020D02*
X041398Y019020D01*
X041398Y019062D02*
X042026Y019062D01*
X042026Y019104D02*
X041398Y019104D01*
D24*
X043400Y022030D02*
X043400Y022590D01*
X044400Y022590D02*
X044400Y022030D01*
X044400Y024030D02*
X044400Y024590D01*
X043400Y024590D02*
X043400Y024030D01*
D25*
X007975Y005385D03*
X007975Y026644D03*
X044195Y026644D03*
X044195Y005385D03*
D26*
X024132Y025163D02*
X024132Y025763D01*
X023132Y025763D02*
X023132Y025163D01*
X022132Y025163D02*
X022132Y025763D01*
X016849Y025763D02*
X016849Y025163D01*
X015849Y025163D02*
X015849Y025763D01*
X014849Y025763D02*
X014849Y025163D01*
M02*
