G75*
G70*
%OFA0B0*%
%FSLAX24Y24*%
%IPPOS*%
%LPD*%
%AMOC8*
5,1,8,0,0,1.08239X$1,22.5*
%
%ADD10R,0.0600X0.0600*%
%ADD11C,0.0600*%
%ADD12R,0.0515X0.0515*%
%ADD13C,0.0515*%
%ADD14OC8,0.0520*%
%ADD15C,0.0660*%
%ADD16R,0.0394X0.0551*%
%ADD17R,0.0710X0.0800*%
%ADD18R,0.0433X0.0500*%
%ADD19R,0.0650X0.0300*%
%ADD20C,0.0560*%
%ADD21R,0.0472X0.0472*%
%ADD22C,0.0600*%
%ADD23C,0.0320*%
%ADD24C,0.0160*%
%ADD25C,0.0120*%
%ADD26C,0.0320*%
%ADD27C,0.0240*%
%ADD28C,0.0450*%
D10*
X043998Y016478D03*
X043998Y020478D03*
D11*
X043998Y019478D03*
X043998Y018478D03*
X043998Y017478D03*
D12*
X043998Y013478D03*
X008172Y019755D03*
D13*
X008172Y020755D03*
X008172Y021755D03*
X043998Y014478D03*
D14*
X035928Y007448D03*
X036928Y006448D03*
X034928Y006448D03*
X017243Y006448D03*
X016243Y007448D03*
X015243Y006448D03*
D15*
X015487Y009400D03*
X016487Y009400D03*
X017487Y009400D03*
X018487Y009400D03*
X019487Y009400D03*
X020487Y009400D03*
X021487Y009400D03*
X022487Y009400D03*
X023487Y009400D03*
X024487Y009400D03*
X025487Y009400D03*
X026487Y009400D03*
X027487Y009400D03*
X028487Y009400D03*
X014487Y009400D03*
X013487Y009400D03*
D16*
X038782Y024971D03*
X039156Y025837D03*
X038408Y025837D03*
D17*
X034550Y025964D03*
X034550Y024844D03*
D18*
X030317Y025070D03*
X030317Y025739D03*
D19*
X027085Y007198D03*
X025085Y007198D03*
X025085Y005698D03*
X027085Y005698D03*
D20*
X043400Y022030D02*
X043400Y022590D01*
X044400Y022590D02*
X044400Y022030D01*
X044400Y024030D02*
X044400Y024590D01*
X043400Y024590D02*
X043400Y024030D01*
D21*
X039649Y006861D03*
X039649Y006034D03*
D22*
X024132Y025163D02*
X024132Y025763D01*
X023132Y025763D02*
X023132Y025163D01*
X022132Y025163D02*
X022132Y025763D01*
X016849Y025763D02*
X016849Y025163D01*
X015849Y025163D02*
X015849Y025763D01*
X014849Y025763D02*
X014849Y025163D01*
D23*
X018400Y025310D03*
X022650Y022060D03*
X023900Y022060D03*
X023275Y020935D03*
X023887Y020041D03*
X024249Y020041D03*
X025212Y019553D03*
X025624Y018903D03*
X026012Y019241D03*
X028999Y019041D03*
X030087Y017978D03*
X029337Y017228D03*
X027712Y017003D03*
X027099Y016403D03*
X025587Y016728D03*
X025062Y016316D03*
X024412Y016891D03*
X024024Y017316D03*
X022837Y016654D03*
X022462Y017391D03*
X023587Y016166D03*
X023224Y015003D03*
X022699Y014991D03*
X022537Y014466D03*
X020924Y015416D03*
X019887Y015541D03*
X019387Y016541D03*
X019887Y017291D03*
X020775Y018560D03*
X021874Y018766D03*
X025662Y017353D03*
X027024Y015141D03*
X025587Y014828D03*
X025062Y014803D03*
X025962Y012853D03*
X025537Y012566D03*
X025199Y011703D03*
X024149Y011703D03*
X024124Y012603D03*
X028349Y013841D03*
X029387Y013491D03*
X029399Y014228D03*
X029387Y012729D03*
X028674Y012691D03*
X030112Y011953D03*
X031962Y013478D03*
X033124Y013191D03*
X033124Y012466D03*
X031962Y014978D03*
X029687Y015953D03*
X031962Y016478D03*
X035587Y017978D03*
X035624Y018954D03*
X035624Y019704D03*
X036900Y018810D03*
X038400Y018810D03*
X039400Y019810D03*
X039400Y020810D03*
X039400Y022310D03*
X036874Y021191D03*
X036374Y021704D03*
X036374Y022703D03*
X034199Y022616D03*
X030625Y021078D03*
X029624Y021079D03*
X028624Y021454D03*
X029400Y023310D03*
X028025Y024810D03*
X028400Y026310D03*
X025400Y026310D03*
X032400Y026310D03*
X036650Y026310D03*
X025999Y021579D03*
X036337Y015353D03*
X038525Y013310D03*
X039150Y013310D03*
X039775Y012185D03*
X040275Y012185D03*
X041400Y011810D03*
X036374Y008716D03*
X036874Y008203D03*
X037400Y007810D03*
X034400Y008310D03*
X033400Y008310D03*
X031650Y009185D03*
X031025Y009810D03*
X030400Y007185D03*
X028400Y007060D03*
X025650Y006685D03*
X025650Y006185D03*
X025400Y005060D03*
X026150Y005060D03*
X026900Y005060D03*
X029400Y005310D03*
X030400Y005310D03*
X032900Y005310D03*
X033900Y004810D03*
X018437Y011941D03*
X018449Y013029D03*
X010775Y015435D03*
X010525Y014935D03*
X012900Y018810D03*
X012900Y022560D03*
X041555Y017978D03*
X042650Y015310D03*
X043150Y015310D03*
D24*
X041400Y011810D02*
X040400Y011810D01*
X039400Y010810D01*
X039400Y007435D01*
X039650Y007185D01*
X039650Y006862D01*
X039649Y006861D01*
X039649Y006034D02*
X039649Y005059D01*
X039400Y004810D01*
X033900Y004810D01*
X028400Y004810D01*
X027512Y005698D01*
X027085Y005698D01*
X025085Y005698D01*
X025650Y006685D02*
X025650Y007198D01*
X027085Y007198D01*
X025650Y007198D02*
X025085Y007198D01*
X033400Y008310D02*
X034199Y009109D01*
X034199Y022616D01*
X034900Y021229D02*
X036374Y022703D01*
X034900Y021229D02*
X034900Y008810D01*
X034400Y008310D01*
X031962Y013478D02*
X031337Y013478D01*
X029712Y015103D01*
X027574Y015103D01*
X027137Y014666D01*
X026962Y014666D01*
X026799Y014828D01*
X025587Y014828D01*
X025587Y016728D01*
X025062Y017016D02*
X025062Y016316D01*
X025062Y014803D01*
X027024Y015166D02*
X027337Y015478D01*
X031462Y015478D01*
X031962Y014978D01*
X031962Y016478D02*
X027174Y016478D01*
X027099Y016403D01*
X025662Y017353D02*
X025399Y017353D01*
X025062Y017016D01*
X025624Y018903D02*
X025624Y019154D01*
X025624Y019466D01*
X025812Y019653D01*
X026744Y019653D01*
X027150Y020060D01*
X027150Y026935D01*
X030275Y026935D01*
X034525Y026935D01*
X034550Y026910D01*
X034550Y025964D01*
X034525Y026935D02*
X038275Y026935D01*
X038408Y026802D01*
X038408Y025837D01*
X039156Y025837D02*
X039156Y027054D01*
X038900Y027310D01*
X022120Y027310D01*
X022120Y025475D01*
X022132Y025463D01*
X022132Y025101D01*
X022120Y025089D01*
X022650Y024560D01*
X026174Y024560D01*
X026674Y024060D01*
X026674Y020253D01*
X026362Y019941D01*
X025449Y019941D01*
X025212Y019703D01*
X025212Y019553D01*
X026012Y019241D02*
X026099Y019328D01*
X027187Y019328D01*
X027187Y019347D01*
X027650Y019810D01*
X027650Y024435D01*
X028025Y024810D01*
X030275Y024810D01*
X030275Y025027D01*
X030317Y025070D01*
X030317Y025739D02*
X030317Y025767D01*
X030275Y025810D01*
X030275Y026935D01*
X030275Y025810D02*
X030275Y025781D01*
X030317Y025739D01*
X027150Y026935D02*
X023650Y026935D01*
X023120Y026405D01*
X023120Y025475D01*
X023132Y025463D01*
X022120Y027310D02*
X015900Y027310D01*
X014849Y026259D01*
X014849Y025463D01*
D25*
X021874Y018766D02*
X023212Y017429D01*
X023212Y015953D01*
X024724Y014441D01*
X028724Y014441D01*
X028949Y014666D01*
X029662Y014666D01*
X031650Y012678D01*
X031650Y009185D01*
X030112Y011953D02*
X026149Y011953D01*
X025537Y012566D01*
X025962Y012853D02*
X026049Y012853D01*
X026574Y012328D01*
X029512Y012328D01*
X029912Y012728D01*
X029912Y013716D01*
X029399Y014228D01*
X028724Y014153D02*
X029387Y013491D01*
X028649Y013466D02*
X029387Y012729D01*
X028674Y012691D02*
X028174Y013191D01*
X023337Y013191D01*
X022537Y013991D01*
X022537Y014466D01*
X022137Y014253D02*
X022074Y014191D01*
X018612Y014191D01*
X016487Y012066D01*
X016487Y009400D01*
X023149Y013778D02*
X023149Y014541D01*
X022699Y014991D01*
X023224Y015003D02*
X023462Y014766D01*
X023462Y014328D01*
X023887Y013903D01*
X028237Y013903D01*
X028349Y013841D01*
X028649Y013466D02*
X023462Y013466D01*
X023149Y013778D01*
X023749Y014478D02*
X023749Y015066D01*
X022837Y015978D01*
X022837Y016654D01*
X023587Y016166D02*
X023587Y017828D01*
X023774Y018016D01*
X030049Y018016D01*
X030087Y017978D01*
X029337Y017228D02*
X028474Y017228D01*
X027999Y017703D01*
X024537Y017703D01*
X024412Y017578D01*
X024412Y016891D01*
X023599Y016178D02*
X023587Y016166D01*
X022137Y015066D02*
X022137Y014253D01*
X022137Y015066D02*
X022049Y015153D01*
X021187Y015153D01*
X020924Y015416D01*
X020924Y015416D01*
X023749Y014478D02*
X024074Y014153D01*
X028724Y014153D01*
X027024Y015141D02*
X027024Y015166D01*
X030025Y024310D02*
X029900Y024435D01*
X029900Y025060D01*
X039275Y025060D01*
X039275Y024435D01*
X039150Y024310D01*
X030025Y024310D01*
X030017Y024318D02*
X039158Y024318D01*
X039275Y024436D02*
X029900Y024436D01*
X029900Y024555D02*
X039275Y024555D01*
X039275Y024673D02*
X029900Y024673D01*
X029900Y024792D02*
X039275Y024792D01*
X039275Y024910D02*
X029900Y024910D01*
X029900Y025029D02*
X039275Y025029D01*
X042775Y023935D02*
X042775Y021216D01*
X042900Y021091D01*
X044587Y021091D01*
X044837Y020841D01*
X044837Y017678D01*
X044637Y017478D01*
X043998Y017478D01*
X044899Y016478D02*
X045124Y016703D01*
X045124Y020953D01*
X044768Y021310D01*
X043900Y021310D01*
X043400Y021810D01*
X043400Y022310D01*
X042775Y023935D02*
X043150Y024310D01*
X043400Y024310D01*
X043998Y016478D02*
X044899Y016478D01*
D26*
X009476Y005333D02*
X009476Y004130D01*
X042694Y004130D01*
X042694Y005333D01*
X042690Y005344D01*
X042694Y005396D01*
X042694Y005448D01*
X042699Y005459D01*
X042704Y005535D01*
X042700Y005558D01*
X042709Y005598D01*
X042712Y005639D01*
X042722Y005660D01*
X042741Y005746D01*
X042740Y005770D01*
X042754Y005808D01*
X042763Y005848D01*
X042776Y005867D01*
X042807Y005949D01*
X042810Y005973D01*
X042829Y006009D01*
X042843Y006047D01*
X042859Y006064D01*
X042902Y006141D01*
X042907Y006164D01*
X042932Y006196D01*
X042951Y006232D01*
X042970Y006247D01*
X043022Y006318D01*
X043031Y006339D01*
X043060Y006368D01*
X043085Y006401D01*
X043105Y006413D01*
X043167Y006475D01*
X043179Y006495D01*
X043212Y006520D01*
X043241Y006548D01*
X043262Y006557D01*
X043333Y006610D01*
X043348Y006629D01*
X043383Y006648D01*
X043416Y006672D01*
X043439Y006678D01*
X043516Y006721D01*
X043533Y006736D01*
X043571Y006751D01*
X043607Y006770D01*
X043631Y006773D01*
X043713Y006804D01*
X043732Y006817D01*
X043772Y006826D01*
X043810Y006840D01*
X043834Y006839D01*
X043920Y006858D01*
X043941Y006868D01*
X043981Y006871D01*
X044021Y006880D01*
X044044Y006876D01*
X044121Y006881D01*
X044132Y006886D01*
X044184Y006886D01*
X044236Y006889D01*
X044247Y006886D01*
X045450Y006886D01*
X045450Y016497D01*
X045446Y016488D01*
X045221Y016263D01*
X045114Y016156D01*
X044975Y016098D01*
X044612Y016098D01*
X044570Y015997D01*
X044480Y015907D01*
X044362Y015858D01*
X043635Y015858D01*
X043517Y015907D01*
X043427Y015997D01*
X043378Y016115D01*
X043378Y016842D01*
X043427Y016960D01*
X043517Y017050D01*
X043541Y017059D01*
X043473Y017127D01*
X043378Y017355D01*
X043378Y017602D01*
X043473Y017830D01*
X043647Y018004D01*
X043680Y018018D01*
X043634Y018051D01*
X043571Y018114D01*
X043519Y018185D01*
X043479Y018263D01*
X043452Y018347D01*
X043438Y018434D01*
X043438Y018478D01*
X043998Y018478D01*
X043998Y018479D01*
X043438Y018479D01*
X043438Y018523D01*
X043452Y018610D01*
X043479Y018693D01*
X043519Y018772D01*
X043571Y018843D01*
X043634Y018906D01*
X043680Y018939D01*
X043647Y018953D01*
X043473Y019127D01*
X043378Y019355D01*
X043378Y019602D01*
X043473Y019830D01*
X043541Y019897D01*
X043517Y019907D01*
X043427Y019997D01*
X043378Y020115D01*
X043378Y020711D01*
X042976Y020711D01*
X042824Y020711D01*
X042685Y020769D01*
X042453Y021001D01*
X042395Y021140D01*
X042395Y021292D01*
X042395Y024010D01*
X042453Y024150D01*
X042560Y024257D01*
X042800Y024497D01*
X042800Y024709D01*
X042891Y024930D01*
X043060Y025098D01*
X043281Y025190D01*
X043519Y025190D01*
X043740Y025098D01*
X043900Y024938D01*
X044060Y025098D01*
X044169Y025143D01*
X044132Y025143D01*
X044121Y025148D01*
X044044Y025153D01*
X044021Y025149D01*
X043981Y025158D01*
X043941Y025161D01*
X043920Y025171D01*
X043834Y025190D01*
X043810Y025189D01*
X043772Y025203D01*
X043732Y025212D01*
X043713Y025225D01*
X043631Y025256D01*
X043607Y025259D01*
X043571Y025278D01*
X043533Y025292D01*
X043516Y025308D01*
X043439Y025351D01*
X043416Y025356D01*
X043383Y025381D01*
X043348Y025400D01*
X043333Y025419D01*
X043262Y025472D01*
X043241Y025481D01*
X043212Y025509D01*
X043179Y025534D01*
X043167Y025554D01*
X043105Y025616D01*
X043085Y025628D01*
X043060Y025661D01*
X043031Y025690D01*
X043022Y025711D01*
X042970Y025782D01*
X042951Y025797D01*
X042932Y025833D01*
X042907Y025865D01*
X042902Y025888D01*
X042859Y025965D01*
X042843Y025982D01*
X042829Y026020D01*
X042810Y026056D01*
X042807Y026080D01*
X042776Y026162D01*
X042763Y026181D01*
X042754Y026221D01*
X042740Y026259D01*
X042741Y026283D01*
X042722Y026369D01*
X042712Y026390D01*
X042709Y026431D01*
X042700Y026470D01*
X042704Y026494D01*
X042699Y026570D01*
X042694Y026581D01*
X042694Y026633D01*
X042690Y026685D01*
X042694Y026696D01*
X042694Y027899D01*
X009476Y027899D01*
X009476Y026696D01*
X009480Y026685D01*
X009476Y026633D01*
X009476Y026581D01*
X009471Y026570D01*
X009466Y026494D01*
X009470Y026470D01*
X009461Y026431D01*
X009459Y026390D01*
X009448Y026369D01*
X009429Y026283D01*
X009430Y026259D01*
X009416Y026221D01*
X009407Y026181D01*
X009394Y026162D01*
X009363Y026080D01*
X009361Y026056D01*
X009341Y026020D01*
X009327Y025982D01*
X009311Y025965D01*
X009268Y025888D01*
X009263Y025865D01*
X009238Y025833D01*
X009219Y025797D01*
X009200Y025782D01*
X009148Y025711D01*
X009139Y025690D01*
X009110Y025661D01*
X009085Y025628D01*
X009065Y025616D01*
X009003Y025554D01*
X008991Y025534D01*
X008958Y025509D01*
X008930Y025481D01*
X008908Y025472D01*
X008837Y025419D01*
X008823Y025400D01*
X008787Y025381D01*
X008754Y025356D01*
X008731Y025351D01*
X008654Y025308D01*
X008637Y025292D01*
X008599Y025278D01*
X008563Y025259D01*
X008539Y025256D01*
X008457Y025225D01*
X008438Y025212D01*
X008398Y025203D01*
X008360Y025189D01*
X008336Y025190D01*
X008250Y025171D01*
X008229Y025161D01*
X008189Y025158D01*
X008149Y025149D01*
X008126Y025153D01*
X008049Y025148D01*
X008038Y025143D01*
X007986Y025143D01*
X007934Y025140D01*
X007923Y025143D01*
X006720Y025143D01*
X006720Y006886D01*
X007923Y006886D01*
X007934Y006889D01*
X007986Y006886D01*
X008038Y006886D01*
X008049Y006881D01*
X008126Y006876D01*
X008149Y006880D01*
X008189Y006871D01*
X008229Y006868D01*
X008250Y006858D01*
X008336Y006839D01*
X008360Y006840D01*
X008398Y006826D01*
X008438Y006817D01*
X008457Y006804D01*
X008539Y006773D01*
X008563Y006770D01*
X008599Y006751D01*
X008637Y006736D01*
X008654Y006721D01*
X008731Y006678D01*
X008754Y006672D01*
X008787Y006648D01*
X008823Y006629D01*
X008837Y006610D01*
X008908Y006557D01*
X008930Y006548D01*
X008958Y006520D01*
X008991Y006495D01*
X009003Y006475D01*
X009065Y006413D01*
X009085Y006401D01*
X009110Y006368D01*
X009139Y006339D01*
X009148Y006318D01*
X009200Y006247D01*
X009219Y006232D01*
X009238Y006196D01*
X009263Y006164D01*
X009268Y006141D01*
X009311Y006064D01*
X009327Y006047D01*
X009341Y006009D01*
X009361Y005973D01*
X009363Y005949D01*
X009394Y005867D01*
X009407Y005848D01*
X009416Y005807D01*
X009430Y005770D01*
X009429Y005746D01*
X009448Y005660D01*
X009459Y005639D01*
X009461Y005598D01*
X009470Y005558D01*
X009466Y005535D01*
X009471Y005459D01*
X009476Y005448D01*
X009476Y005396D01*
X009480Y005344D01*
X009476Y005333D01*
X009476Y005402D02*
X024474Y005402D01*
X024489Y005366D02*
X024440Y005484D01*
X024440Y005911D01*
X024489Y006029D01*
X024579Y006119D01*
X024696Y006168D01*
X025474Y006168D01*
X025591Y006119D01*
X025613Y006098D01*
X026557Y006098D01*
X026579Y006119D01*
X026696Y006168D01*
X027474Y006168D01*
X027591Y006119D01*
X027627Y006083D01*
X027739Y006037D01*
X028566Y005210D01*
X033621Y005210D01*
X033628Y005217D01*
X033804Y005290D01*
X033995Y005290D01*
X034172Y005217D01*
X034179Y005210D01*
X039234Y005210D01*
X039249Y005225D01*
X039249Y005519D01*
X039232Y005527D01*
X039142Y005617D01*
X039093Y005734D01*
X039093Y006334D01*
X039140Y006448D01*
X039093Y006561D01*
X039093Y007161D01*
X039098Y007171D01*
X039061Y007208D01*
X039000Y007355D01*
X039000Y007514D01*
X039000Y010889D01*
X039061Y011036D01*
X039173Y011149D01*
X040173Y012149D01*
X040320Y012210D01*
X040480Y012210D01*
X041121Y012210D01*
X041128Y012217D01*
X041304Y012290D01*
X041495Y012290D01*
X041672Y012217D01*
X041807Y012082D01*
X041880Y011905D01*
X041880Y011714D01*
X041807Y011538D01*
X041672Y011403D01*
X041495Y011330D01*
X041304Y011330D01*
X041128Y011403D01*
X041121Y011410D01*
X040566Y011410D01*
X039800Y010644D01*
X039800Y010474D01*
X039927Y010601D01*
X040269Y010799D01*
X040651Y010901D01*
X041046Y010901D01*
X041428Y010799D01*
X041771Y010601D01*
X042050Y010322D01*
X042248Y009980D01*
X042350Y009598D01*
X042350Y009203D01*
X042248Y008821D01*
X042050Y008479D01*
X041771Y008199D01*
X041428Y008001D01*
X041046Y007899D01*
X040651Y007899D01*
X040269Y008001D01*
X039927Y008199D01*
X039800Y008326D01*
X039800Y007600D01*
X039877Y007524D01*
X039989Y007411D01*
X039994Y007398D01*
X040067Y007368D01*
X040157Y007278D01*
X040206Y007161D01*
X040206Y006561D01*
X040159Y006448D01*
X040206Y006334D01*
X040206Y005734D01*
X040157Y005617D01*
X040067Y005527D01*
X040049Y005519D01*
X040049Y005139D01*
X040049Y004980D01*
X039988Y004833D01*
X039739Y004583D01*
X039627Y004471D01*
X039480Y004410D01*
X034179Y004410D01*
X034172Y004403D01*
X033995Y004330D01*
X033804Y004330D01*
X033628Y004403D01*
X033621Y004410D01*
X028480Y004410D01*
X028320Y004410D01*
X028173Y004471D01*
X027416Y005228D01*
X026696Y005228D01*
X026579Y005276D01*
X026557Y005298D01*
X025613Y005298D01*
X025591Y005276D01*
X025474Y005228D01*
X024696Y005228D01*
X024579Y005276D01*
X024489Y005366D01*
X024440Y005721D02*
X009435Y005721D01*
X009329Y006040D02*
X014915Y006040D01*
X015027Y005928D02*
X015242Y005928D01*
X015242Y006447D01*
X015243Y006447D01*
X015243Y005928D01*
X015458Y005928D01*
X015762Y006232D01*
X015762Y006325D01*
X016013Y006075D01*
X016175Y006008D01*
X016350Y006008D01*
X016862Y006008D01*
X017002Y005868D01*
X017483Y005868D01*
X017623Y006008D01*
X018057Y006008D01*
X018232Y006008D01*
X018393Y006075D01*
X019582Y007263D01*
X024440Y007263D01*
X024440Y006984D01*
X024489Y006866D01*
X024579Y006776D01*
X024696Y006728D01*
X025170Y006728D01*
X025170Y006589D01*
X025243Y006413D01*
X025378Y006278D01*
X025554Y006205D01*
X025745Y006205D01*
X025922Y006278D01*
X026057Y006413D01*
X026130Y006589D01*
X026130Y006780D01*
X026123Y006798D01*
X026557Y006798D01*
X026579Y006776D01*
X026696Y006728D01*
X027474Y006728D01*
X027591Y006776D01*
X027681Y006866D01*
X027730Y006984D01*
X027730Y007263D01*
X027960Y007263D01*
X027960Y007252D01*
X027920Y007155D01*
X027920Y006964D01*
X027993Y006788D01*
X028128Y006653D01*
X028304Y006580D01*
X028495Y006580D01*
X028672Y006653D01*
X028807Y006788D01*
X028880Y006964D01*
X028880Y007155D01*
X028840Y007252D01*
X028840Y007263D01*
X034620Y007263D01*
X034652Y007186D01*
X034776Y007062D01*
X034810Y007028D01*
X034687Y007028D01*
X034348Y006688D01*
X034348Y006207D01*
X034687Y005868D01*
X035168Y005868D01*
X035508Y006207D01*
X035508Y006330D01*
X035763Y006075D01*
X035925Y006008D01*
X036100Y006008D01*
X036547Y006008D01*
X036687Y005868D01*
X037168Y005868D01*
X037508Y006207D01*
X037508Y006688D01*
X037168Y007028D01*
X036687Y007028D01*
X036547Y006888D01*
X036194Y006888D01*
X036191Y006891D01*
X036508Y007207D01*
X036508Y007688D01*
X036168Y008028D01*
X035687Y008028D01*
X035466Y007806D01*
X035466Y008021D01*
X035872Y008428D01*
X035873Y008428D01*
X035934Y008489D01*
X035996Y008551D01*
X035996Y008552D01*
X035997Y008552D01*
X036029Y008633D01*
X036063Y008713D01*
X036063Y008714D01*
X036063Y008807D01*
X036063Y008888D01*
X036062Y008888D01*
X036039Y014929D01*
X036065Y014903D01*
X036241Y014830D01*
X036432Y014830D01*
X038635Y014830D01*
X038792Y014765D01*
X039008Y014765D01*
X039209Y014848D01*
X039362Y015001D01*
X039445Y015201D01*
X039445Y015418D01*
X039362Y015618D01*
X039209Y015772D01*
X039008Y015855D01*
X038792Y015855D01*
X038635Y015790D01*
X036538Y015790D01*
X036432Y015833D01*
X036241Y015833D01*
X036065Y015760D01*
X036036Y015731D01*
X036029Y017538D01*
X041363Y017538D01*
X041460Y017498D01*
X041651Y017498D01*
X041827Y017572D01*
X041962Y017707D01*
X042035Y017883D01*
X042035Y018074D01*
X041962Y018250D01*
X041827Y018385D01*
X041651Y018458D01*
X041460Y018458D01*
X041363Y018418D01*
X035779Y018418D01*
X035682Y018458D01*
X035491Y018458D01*
X035315Y018385D01*
X035300Y018370D01*
X035300Y021063D01*
X036460Y022223D01*
X036470Y022223D01*
X036646Y022297D01*
X036781Y022432D01*
X036854Y022608D01*
X036854Y022799D01*
X036781Y022975D01*
X036646Y023110D01*
X036470Y023183D01*
X036279Y023183D01*
X036102Y023110D01*
X035967Y022975D01*
X035894Y022799D01*
X035894Y022789D01*
X034599Y021494D01*
X034599Y022337D01*
X034606Y022344D01*
X034679Y022520D01*
X034679Y022711D01*
X034606Y022888D01*
X034471Y023023D01*
X034295Y023096D01*
X034104Y023096D01*
X033927Y023023D01*
X033792Y022888D01*
X033719Y022711D01*
X033719Y022520D01*
X033792Y022344D01*
X033799Y022337D01*
X033799Y009275D01*
X033314Y008790D01*
X033304Y008790D01*
X033128Y008717D01*
X032993Y008582D01*
X032920Y008405D01*
X032920Y008214D01*
X032949Y008143D01*
X028312Y008143D01*
X019312Y008143D01*
X019151Y008076D01*
X019027Y007953D01*
X019027Y007953D01*
X017962Y006888D01*
X017623Y006888D01*
X017483Y007028D01*
X017002Y007028D01*
X016862Y006888D01*
X016503Y006888D01*
X016822Y007207D01*
X016822Y007688D01*
X016483Y008028D01*
X016002Y008028D01*
X015663Y007688D01*
X015663Y007669D01*
X014927Y008405D01*
X014927Y008921D01*
X014987Y008981D01*
X015118Y008849D01*
X015357Y008750D01*
X015616Y008750D01*
X015855Y008849D01*
X015987Y008981D01*
X016118Y008849D01*
X016357Y008750D01*
X016616Y008750D01*
X016855Y008849D01*
X016987Y008981D01*
X017118Y008849D01*
X017357Y008750D01*
X017616Y008750D01*
X017855Y008849D01*
X017987Y008981D01*
X018118Y008849D01*
X018357Y008750D01*
X018616Y008750D01*
X018855Y008849D01*
X019030Y009025D01*
X019037Y009016D01*
X019102Y008950D01*
X019177Y008896D01*
X019260Y008854D01*
X019348Y008825D01*
X019440Y008810D01*
X019486Y008810D01*
X019486Y009400D01*
X019487Y009400D01*
X019487Y009400D01*
X019897Y009400D01*
X020486Y009400D01*
X020486Y009400D01*
X020487Y009400D01*
X020487Y009400D01*
X020897Y009400D01*
X021486Y009400D01*
X021486Y009400D01*
X021487Y009400D01*
X021487Y009400D01*
X021897Y009400D01*
X022486Y009400D01*
X022486Y009400D01*
X022487Y009400D01*
X022487Y008810D01*
X022533Y008810D01*
X022625Y008825D01*
X022713Y008854D01*
X022796Y008896D01*
X022871Y008950D01*
X022937Y009016D01*
X022943Y009025D01*
X023118Y008849D01*
X023357Y008750D01*
X023616Y008750D01*
X023855Y008849D01*
X023987Y008981D01*
X024118Y008849D01*
X024357Y008750D01*
X024616Y008750D01*
X024855Y008849D01*
X024987Y008981D01*
X025118Y008849D01*
X025357Y008750D01*
X025616Y008750D01*
X025855Y008849D01*
X025987Y008981D01*
X026118Y008849D01*
X026357Y008750D01*
X026616Y008750D01*
X026855Y008849D01*
X026987Y008981D01*
X027118Y008849D01*
X027357Y008750D01*
X027616Y008750D01*
X027855Y008849D01*
X027987Y008981D01*
X028118Y008849D01*
X028357Y008750D01*
X028616Y008750D01*
X028855Y008849D01*
X029038Y009032D01*
X029137Y009271D01*
X029137Y009530D01*
X029038Y009769D01*
X028855Y009951D01*
X028616Y010050D01*
X028357Y010050D01*
X028118Y009951D01*
X027987Y009820D01*
X027855Y009951D01*
X027616Y010050D01*
X027357Y010050D01*
X027118Y009951D01*
X026987Y009820D01*
X026855Y009951D01*
X026616Y010050D01*
X026357Y010050D01*
X026118Y009951D01*
X025987Y009820D01*
X025855Y009951D01*
X025616Y010050D01*
X025357Y010050D01*
X025118Y009951D01*
X024987Y009820D01*
X024855Y009951D01*
X024616Y010050D01*
X024357Y010050D01*
X024118Y009951D01*
X023987Y009820D01*
X023855Y009951D01*
X023616Y010050D01*
X023357Y010050D01*
X023118Y009951D01*
X022943Y009776D01*
X022937Y009785D01*
X022871Y009850D01*
X022796Y009905D01*
X022713Y009947D01*
X022625Y009976D01*
X022533Y009990D01*
X022487Y009990D01*
X022487Y009401D01*
X022486Y009401D01*
X022486Y009990D01*
X022440Y009990D01*
X022348Y009976D01*
X022260Y009947D01*
X022177Y009905D01*
X022102Y009850D01*
X022037Y009785D01*
X021987Y009716D01*
X021937Y009785D01*
X021871Y009850D01*
X021796Y009905D01*
X021713Y009947D01*
X021625Y009976D01*
X021533Y009990D01*
X021487Y009990D01*
X021487Y009401D01*
X021486Y009401D01*
X021486Y009990D01*
X021440Y009990D01*
X021348Y009976D01*
X021260Y009947D01*
X021177Y009905D01*
X021102Y009850D01*
X021037Y009785D01*
X020987Y009716D01*
X020937Y009785D01*
X020871Y009850D01*
X020796Y009905D01*
X020713Y009947D01*
X020625Y009976D01*
X020533Y009990D01*
X020487Y009990D01*
X020487Y009401D01*
X020486Y009401D01*
X020486Y009990D01*
X020440Y009990D01*
X020348Y009976D01*
X020260Y009947D01*
X020177Y009905D01*
X020102Y009850D01*
X020037Y009785D01*
X019987Y009716D01*
X019937Y009785D01*
X019871Y009850D01*
X019796Y009905D01*
X019713Y009947D01*
X019625Y009976D01*
X019533Y009990D01*
X019487Y009990D01*
X019487Y009401D01*
X019486Y009401D01*
X019486Y009990D01*
X019440Y009990D01*
X019348Y009976D01*
X019260Y009947D01*
X019177Y009905D01*
X019102Y009850D01*
X019037Y009785D01*
X019030Y009776D01*
X018855Y009951D01*
X018616Y010050D01*
X018357Y010050D01*
X018118Y009951D01*
X017987Y009820D01*
X017855Y009951D01*
X017616Y010050D01*
X017357Y010050D01*
X017118Y009951D01*
X016987Y009820D01*
X016867Y009940D01*
X016867Y011908D01*
X018769Y013811D01*
X022150Y013811D01*
X022193Y013829D01*
X022215Y013776D01*
X022322Y013669D01*
X023122Y012869D01*
X023261Y012811D01*
X023412Y012811D01*
X025119Y012811D01*
X025057Y012661D01*
X025057Y012470D01*
X025130Y012294D01*
X025265Y012159D01*
X025441Y012086D01*
X025479Y012086D01*
X025827Y011738D01*
X025934Y011631D01*
X026074Y011573D01*
X029813Y011573D01*
X029840Y011547D01*
X030016Y011473D01*
X030207Y011473D01*
X030384Y011547D01*
X030519Y011682D01*
X030592Y011858D01*
X030592Y012049D01*
X030519Y012225D01*
X030384Y012360D01*
X030207Y012433D01*
X030154Y012433D01*
X030234Y012513D01*
X030292Y012653D01*
X030292Y013499D01*
X031270Y012520D01*
X031270Y009484D01*
X031243Y009457D01*
X031170Y009280D01*
X031170Y009089D01*
X031243Y008913D01*
X031378Y008778D01*
X031554Y008705D01*
X031745Y008705D01*
X031922Y008778D01*
X032057Y008913D01*
X032130Y009089D01*
X032130Y009280D01*
X032057Y009457D01*
X032030Y009484D01*
X032030Y012602D01*
X032030Y012753D01*
X031972Y012893D01*
X031867Y012998D01*
X032057Y012998D01*
X032234Y013072D01*
X032369Y013207D01*
X032442Y013383D01*
X032442Y013574D01*
X032369Y013750D01*
X032234Y013885D01*
X032057Y013958D01*
X031866Y013958D01*
X031690Y013885D01*
X031683Y013878D01*
X031503Y013878D01*
X030303Y015078D01*
X031296Y015078D01*
X031482Y014893D01*
X031482Y014883D01*
X031555Y014707D01*
X031690Y014572D01*
X031866Y014498D01*
X032057Y014498D01*
X032234Y014572D01*
X032369Y014707D01*
X032442Y014883D01*
X032442Y015074D01*
X032369Y015250D01*
X032234Y015385D01*
X032057Y015458D01*
X032048Y015458D01*
X031688Y015818D01*
X031541Y015878D01*
X031382Y015878D01*
X027257Y015878D01*
X027110Y015818D01*
X026998Y015705D01*
X026903Y015610D01*
X026752Y015548D01*
X026617Y015413D01*
X026544Y015236D01*
X026544Y015228D01*
X025987Y015228D01*
X025987Y016450D01*
X025994Y016457D01*
X026067Y016633D01*
X026067Y016824D01*
X025994Y017000D01*
X025991Y017003D01*
X026069Y017082D01*
X026142Y017258D01*
X026142Y017323D01*
X027842Y017323D01*
X028259Y016906D01*
X028326Y016878D01*
X027254Y016878D01*
X027207Y016878D01*
X027195Y016883D01*
X027004Y016883D01*
X026827Y016810D01*
X026692Y016675D01*
X026619Y016499D01*
X026619Y016308D01*
X026692Y016132D01*
X026827Y015997D01*
X027004Y015923D01*
X027195Y015923D01*
X027371Y015997D01*
X027453Y016078D01*
X031683Y016078D01*
X031690Y016072D01*
X031866Y015998D01*
X032057Y015998D01*
X032234Y016072D01*
X032369Y016207D01*
X032442Y016383D01*
X032442Y016574D01*
X032369Y016750D01*
X032234Y016885D01*
X032057Y016958D01*
X031866Y016958D01*
X031690Y016885D01*
X031683Y016878D01*
X029666Y016878D01*
X029744Y016957D01*
X029817Y017133D01*
X029817Y017324D01*
X029744Y017500D01*
X029609Y017635D01*
X029607Y017636D01*
X029751Y017636D01*
X029815Y017572D01*
X029991Y017498D01*
X030182Y017498D01*
X030359Y017572D01*
X030494Y017707D01*
X030567Y017883D01*
X030567Y018074D01*
X030494Y018250D01*
X030359Y018385D01*
X030182Y018458D01*
X029991Y018458D01*
X029841Y018396D01*
X023699Y018396D01*
X023559Y018338D01*
X023452Y018231D01*
X023372Y018151D01*
X023372Y018151D01*
X023265Y018044D01*
X023226Y017951D01*
X022354Y018823D01*
X022354Y018861D01*
X022281Y019038D01*
X022146Y019173D01*
X021970Y019246D01*
X021779Y019246D01*
X021602Y019173D01*
X021467Y019038D01*
X021394Y018861D01*
X021394Y018670D01*
X021467Y018494D01*
X021602Y018359D01*
X021770Y018290D01*
X012599Y018290D01*
X010601Y020288D01*
X010742Y020206D01*
X011124Y020104D01*
X011519Y020104D01*
X011901Y020206D01*
X012243Y020404D01*
X012522Y020683D01*
X012720Y021026D01*
X012822Y021407D01*
X012822Y021803D01*
X012720Y022184D01*
X012522Y022527D01*
X012243Y022806D01*
X011901Y023004D01*
X011519Y023106D01*
X011124Y023106D01*
X010742Y023004D01*
X010400Y022806D01*
X010120Y022527D01*
X009922Y022184D01*
X009820Y021803D01*
X009820Y021407D01*
X009922Y021026D01*
X010004Y020885D01*
X009727Y021162D01*
X009551Y021235D01*
X009360Y021235D01*
X008508Y021235D01*
X008499Y021244D01*
X008473Y021255D01*
X008499Y021265D01*
X008661Y021428D01*
X008749Y021640D01*
X008749Y021869D01*
X008661Y022082D01*
X008499Y022244D01*
X008286Y022332D01*
X008057Y022332D01*
X007845Y022244D01*
X007682Y022082D01*
X007594Y021869D01*
X007594Y021640D01*
X007682Y021428D01*
X007845Y021265D01*
X007870Y021255D01*
X007845Y021244D01*
X007682Y021082D01*
X007594Y020869D01*
X007594Y020640D01*
X007682Y020428D01*
X007799Y020311D01*
X007733Y020283D01*
X007643Y020193D01*
X007594Y020076D01*
X007594Y019433D01*
X007643Y019316D01*
X007733Y019226D01*
X007850Y019177D01*
X008493Y019177D01*
X008610Y019226D01*
X008700Y019316D01*
X008749Y019433D01*
X008749Y020076D01*
X008700Y020193D01*
X008619Y020275D01*
X009256Y020275D01*
X012128Y017403D01*
X012304Y017330D01*
X012495Y017330D01*
X021701Y017330D01*
X022047Y016984D01*
X022223Y016911D01*
X022366Y016911D01*
X022424Y016911D01*
X022357Y016749D01*
X022357Y016558D01*
X022430Y016382D01*
X022457Y016355D01*
X022457Y015903D01*
X022515Y015763D01*
X022622Y015656D01*
X022816Y015462D01*
X022795Y015471D01*
X022604Y015471D01*
X022427Y015398D01*
X022385Y015355D01*
X022352Y015388D01*
X022265Y015476D01*
X022125Y015533D01*
X021974Y015533D01*
X021395Y015533D01*
X021331Y015688D01*
X021196Y015823D01*
X021020Y015896D01*
X020829Y015896D01*
X020652Y015823D01*
X020517Y015688D01*
X020444Y015511D01*
X020444Y015320D01*
X020517Y015144D01*
X020652Y015009D01*
X020829Y014936D01*
X020867Y014936D01*
X020972Y014831D01*
X021111Y014773D01*
X021757Y014773D01*
X021757Y014571D01*
X018688Y014571D01*
X018536Y014571D01*
X018397Y014513D01*
X016164Y012281D01*
X016107Y012141D01*
X016107Y011990D01*
X016107Y009940D01*
X015987Y009820D01*
X015855Y009951D01*
X015616Y010050D01*
X015357Y010050D01*
X015118Y009951D01*
X014987Y009820D01*
X014855Y009951D01*
X014616Y010050D01*
X014357Y010050D01*
X014118Y009951D01*
X013943Y009776D01*
X013937Y009785D01*
X013871Y009850D01*
X013796Y009905D01*
X013713Y009947D01*
X013625Y009976D01*
X013533Y009990D01*
X013487Y009990D01*
X013487Y009401D01*
X013486Y009401D01*
X013486Y009990D01*
X013440Y009990D01*
X013348Y009976D01*
X013260Y009947D01*
X013177Y009905D01*
X013102Y009850D01*
X013037Y009785D01*
X012982Y009710D01*
X012940Y009627D01*
X012911Y009538D01*
X012897Y009447D01*
X012897Y009400D01*
X012897Y009354D01*
X012911Y009262D01*
X012940Y009174D01*
X012982Y009091D01*
X013037Y009016D01*
X013102Y008950D01*
X013177Y008896D01*
X013260Y008854D01*
X013348Y008825D01*
X013440Y008810D01*
X013486Y008810D01*
X013486Y009400D01*
X012897Y009400D01*
X013486Y009400D01*
X013486Y009400D01*
X013487Y009400D01*
X013487Y008810D01*
X013533Y008810D01*
X013625Y008825D01*
X013713Y008854D01*
X013796Y008896D01*
X013871Y008950D01*
X013937Y009016D01*
X013943Y009025D01*
X014047Y008921D01*
X014047Y008311D01*
X014047Y008136D01*
X014114Y007974D01*
X015120Y006968D01*
X015027Y006968D01*
X014723Y006663D01*
X014723Y006448D01*
X015242Y006448D01*
X015242Y006447D01*
X014723Y006447D01*
X014723Y006232D01*
X015027Y005928D01*
X015242Y006040D02*
X015243Y006040D01*
X015242Y006358D02*
X015243Y006358D01*
X015570Y006040D02*
X016097Y006040D01*
X016610Y006995D02*
X016970Y006995D01*
X016822Y007314D02*
X018388Y007314D01*
X018707Y007632D02*
X016822Y007632D01*
X016559Y007951D02*
X019025Y007951D01*
X018912Y008906D02*
X019163Y008906D01*
X019486Y008906D02*
X019487Y008906D01*
X019487Y008810D02*
X019533Y008810D01*
X019625Y008825D01*
X019713Y008854D01*
X019796Y008896D01*
X019871Y008950D01*
X019937Y009016D01*
X019987Y009085D01*
X020037Y009016D01*
X020102Y008950D01*
X020177Y008896D01*
X020260Y008854D01*
X020348Y008825D01*
X020440Y008810D01*
X020486Y008810D01*
X020486Y009400D01*
X019897Y009400D01*
X019487Y009400D01*
X019487Y008810D01*
X019811Y008906D02*
X020163Y008906D01*
X020486Y008906D02*
X020487Y008906D01*
X020487Y008810D02*
X020533Y008810D01*
X020625Y008825D01*
X020713Y008854D01*
X020796Y008896D01*
X020871Y008950D01*
X020937Y009016D01*
X020987Y009085D01*
X021037Y009016D01*
X021102Y008950D01*
X021177Y008896D01*
X021260Y008854D01*
X021348Y008825D01*
X021440Y008810D01*
X021486Y008810D01*
X021486Y009400D01*
X020897Y009400D01*
X020487Y009400D01*
X020487Y008810D01*
X020811Y008906D02*
X021163Y008906D01*
X021486Y008906D02*
X021487Y008906D01*
X021487Y008810D02*
X021533Y008810D01*
X021625Y008825D01*
X021713Y008854D01*
X021796Y008896D01*
X021871Y008950D01*
X021937Y009016D01*
X021987Y009085D01*
X022037Y009016D01*
X022102Y008950D01*
X022177Y008896D01*
X022260Y008854D01*
X022348Y008825D01*
X022440Y008810D01*
X022486Y008810D01*
X022486Y009400D01*
X021897Y009400D01*
X021487Y009400D01*
X021487Y008810D01*
X021811Y008906D02*
X022163Y008906D01*
X022486Y008906D02*
X022487Y008906D01*
X022486Y009225D02*
X022487Y009225D01*
X022486Y009544D02*
X022487Y009544D01*
X022486Y009862D02*
X022487Y009862D01*
X022855Y009862D02*
X023029Y009862D01*
X023944Y009862D02*
X024029Y009862D01*
X024944Y009862D02*
X025029Y009862D01*
X025944Y009862D02*
X026029Y009862D01*
X026944Y009862D02*
X027029Y009862D01*
X027944Y009862D02*
X028029Y009862D01*
X028944Y009862D02*
X031270Y009862D01*
X031270Y009544D02*
X029131Y009544D01*
X029118Y009225D02*
X031170Y009225D01*
X031249Y008906D02*
X028912Y008906D01*
X028061Y008906D02*
X027912Y008906D01*
X027061Y008906D02*
X026912Y008906D01*
X026061Y008906D02*
X025912Y008906D01*
X025061Y008906D02*
X024912Y008906D01*
X024061Y008906D02*
X023912Y008906D01*
X023061Y008906D02*
X022811Y008906D01*
X021487Y009225D02*
X021486Y009225D01*
X021486Y009544D02*
X021487Y009544D01*
X021486Y009862D02*
X021487Y009862D01*
X021855Y009862D02*
X022118Y009862D01*
X021118Y009862D02*
X020855Y009862D01*
X020487Y009862D02*
X020486Y009862D01*
X020486Y009544D02*
X020487Y009544D01*
X020486Y009225D02*
X020487Y009225D01*
X020118Y009862D02*
X019855Y009862D01*
X019487Y009862D02*
X019486Y009862D01*
X019486Y009544D02*
X019487Y009544D01*
X019486Y009225D02*
X019487Y009225D01*
X019118Y009862D02*
X018944Y009862D01*
X018029Y009862D02*
X017944Y009862D01*
X017029Y009862D02*
X016944Y009862D01*
X016867Y010181D02*
X031270Y010181D01*
X031270Y010499D02*
X016867Y010499D01*
X016867Y010818D02*
X031270Y010818D01*
X031270Y011136D02*
X016867Y011136D01*
X016867Y011455D02*
X031270Y011455D01*
X031270Y011773D02*
X030557Y011773D01*
X030574Y012092D02*
X031270Y012092D01*
X031270Y012410D02*
X030263Y012410D01*
X030292Y012729D02*
X031061Y012729D01*
X030743Y013048D02*
X030292Y013048D01*
X030292Y013366D02*
X030424Y013366D01*
X031378Y014003D02*
X033799Y014003D01*
X033799Y013685D02*
X032396Y013685D01*
X032435Y013366D02*
X033799Y013366D01*
X033799Y013048D02*
X032176Y013048D01*
X032030Y012729D02*
X033799Y012729D01*
X033799Y012410D02*
X032030Y012410D01*
X032030Y012092D02*
X033799Y012092D01*
X033799Y011773D02*
X032030Y011773D01*
X032030Y011455D02*
X033799Y011455D01*
X033799Y011136D02*
X032030Y011136D01*
X032030Y010818D02*
X033799Y010818D01*
X033799Y010499D02*
X032030Y010499D01*
X032030Y010181D02*
X033799Y010181D01*
X033799Y009862D02*
X032030Y009862D01*
X032030Y009544D02*
X033799Y009544D01*
X033750Y009225D02*
X032130Y009225D01*
X032051Y008906D02*
X033431Y008906D01*
X032999Y008588D02*
X014927Y008588D01*
X014927Y008906D02*
X015061Y008906D01*
X015063Y008269D02*
X032920Y008269D01*
X034655Y006995D02*
X028880Y006995D01*
X028696Y006677D02*
X034348Y006677D01*
X034348Y006358D02*
X026002Y006358D01*
X026130Y006677D02*
X028104Y006677D01*
X027920Y006995D02*
X027730Y006995D01*
X027732Y006040D02*
X034515Y006040D01*
X035340Y006040D02*
X035847Y006040D01*
X036295Y006995D02*
X036655Y006995D01*
X036508Y007314D02*
X039017Y007314D01*
X039000Y007632D02*
X036508Y007632D01*
X036244Y007951D02*
X039000Y007951D01*
X039000Y008269D02*
X035714Y008269D01*
X035611Y007951D02*
X035466Y007951D01*
X036011Y008588D02*
X039000Y008588D01*
X039000Y008906D02*
X036062Y008906D01*
X036063Y008713D02*
X036063Y008713D01*
X036061Y009225D02*
X039000Y009225D01*
X039000Y009544D02*
X036060Y009544D01*
X036058Y009862D02*
X039000Y009862D01*
X039000Y010181D02*
X036057Y010181D01*
X036056Y010499D02*
X039000Y010499D01*
X039000Y010818D02*
X036055Y010818D01*
X036054Y011136D02*
X039161Y011136D01*
X039479Y011455D02*
X036052Y011455D01*
X036051Y011773D02*
X039798Y011773D01*
X040116Y012092D02*
X036050Y012092D01*
X036049Y012410D02*
X042424Y012410D01*
X042438Y012376D02*
X042591Y012223D01*
X042792Y012140D01*
X043008Y012140D01*
X043165Y012205D01*
X044385Y012205D01*
X044542Y012140D01*
X044758Y012140D01*
X044959Y012223D01*
X045112Y012376D01*
X045195Y012576D01*
X045195Y012793D01*
X045112Y012993D01*
X044959Y013147D01*
X044758Y013230D01*
X044576Y013230D01*
X044576Y013800D01*
X044527Y013917D01*
X044437Y014007D01*
X044320Y014056D01*
X044297Y014056D01*
X044336Y014084D01*
X044393Y014141D01*
X044441Y014207D01*
X044478Y014280D01*
X044503Y014357D01*
X044516Y014438D01*
X044516Y014478D01*
X043999Y014478D01*
X043999Y014479D01*
X044516Y014479D01*
X044516Y014519D01*
X044503Y014600D01*
X044478Y014677D01*
X044441Y014750D01*
X044393Y014816D01*
X044336Y014873D01*
X044270Y014921D01*
X044197Y014958D01*
X044120Y014983D01*
X044039Y014996D01*
X043999Y014996D01*
X043999Y014479D01*
X043998Y014479D01*
X043998Y014996D01*
X043958Y014996D01*
X043877Y014983D01*
X043800Y014958D01*
X043727Y014921D01*
X043661Y014873D01*
X043604Y014816D01*
X043556Y014750D01*
X043519Y014677D01*
X043494Y014600D01*
X043481Y014519D01*
X043481Y014479D01*
X043998Y014479D01*
X043998Y014478D01*
X043481Y014478D01*
X043481Y014438D01*
X043494Y014357D01*
X043519Y014280D01*
X043556Y014207D01*
X043604Y014141D01*
X043661Y014084D01*
X043700Y014056D01*
X043677Y014056D01*
X043560Y014007D01*
X043470Y013917D01*
X043421Y013800D01*
X043421Y013165D01*
X043165Y013165D01*
X043008Y013230D01*
X042792Y013230D01*
X042591Y013147D01*
X042438Y012993D01*
X042355Y012793D01*
X042355Y012576D01*
X042438Y012376D01*
X042355Y012729D02*
X036047Y012729D01*
X036046Y013048D02*
X042492Y013048D01*
X042900Y012685D02*
X044650Y012685D01*
X045058Y013048D02*
X045450Y013048D01*
X045450Y013366D02*
X044576Y013366D01*
X044576Y013685D02*
X045450Y013685D01*
X045450Y014003D02*
X044441Y014003D01*
X044492Y014322D02*
X045450Y014322D01*
X045450Y014640D02*
X044490Y014640D01*
X044195Y014959D02*
X045450Y014959D01*
X045450Y015277D02*
X039445Y015277D01*
X039371Y015596D02*
X045450Y015596D01*
X045450Y015914D02*
X044487Y015914D01*
X045191Y016233D02*
X045450Y016233D01*
X043999Y014959D02*
X043998Y014959D01*
X043802Y014959D02*
X039320Y014959D01*
X038900Y015310D02*
X036337Y015310D01*
X036337Y015353D01*
X036035Y015914D02*
X043510Y015914D01*
X043378Y016233D02*
X036034Y016233D01*
X036032Y016551D02*
X043378Y016551D01*
X043390Y016870D02*
X036031Y016870D01*
X036030Y017189D02*
X043447Y017189D01*
X043378Y017507D02*
X041672Y017507D01*
X041439Y017507D02*
X036029Y017507D01*
X035300Y018463D02*
X043438Y018463D01*
X043526Y018781D02*
X035300Y018781D01*
X035300Y019100D02*
X043500Y019100D01*
X043378Y019418D02*
X035300Y019418D01*
X035300Y019737D02*
X043434Y019737D01*
X043403Y020055D02*
X035300Y020055D01*
X035300Y020374D02*
X039979Y020374D01*
X039927Y020404D02*
X040269Y020206D01*
X040651Y020104D01*
X041046Y020104D01*
X041428Y020206D01*
X041771Y020404D01*
X042050Y020683D01*
X042248Y021026D01*
X042350Y021407D01*
X042350Y021803D01*
X042248Y022184D01*
X042050Y022527D01*
X041771Y022806D01*
X041428Y023004D01*
X041046Y023106D01*
X040651Y023106D01*
X040269Y023004D01*
X039927Y022806D01*
X039648Y022527D01*
X039450Y022184D01*
X039348Y021803D01*
X039348Y021407D01*
X039450Y021026D01*
X039648Y020683D01*
X039927Y020404D01*
X039642Y020693D02*
X035300Y020693D01*
X035300Y021011D02*
X039458Y021011D01*
X039369Y021330D02*
X035566Y021330D01*
X035885Y021648D02*
X039348Y021648D01*
X039392Y021967D02*
X036203Y021967D01*
X036619Y022285D02*
X039508Y022285D01*
X039725Y022604D02*
X036853Y022604D01*
X036803Y022922D02*
X040128Y022922D01*
X039365Y023988D02*
X039226Y023930D01*
X030101Y023930D01*
X029949Y023930D01*
X029810Y023988D01*
X029685Y024113D01*
X029578Y024219D01*
X029520Y024359D01*
X029520Y024410D01*
X028304Y024410D01*
X028297Y024403D01*
X028120Y024330D01*
X028111Y024330D01*
X028050Y024269D01*
X028050Y019730D01*
X027989Y019583D01*
X027877Y019471D01*
X027877Y019471D01*
X027539Y019133D01*
X027526Y019102D01*
X027413Y018989D01*
X027266Y018928D01*
X027107Y018928D01*
X026378Y018928D01*
X026284Y018834D01*
X026107Y018761D01*
X026085Y018761D01*
X026031Y018632D01*
X025896Y018497D01*
X025720Y018423D01*
X025529Y018423D01*
X025352Y018497D01*
X025217Y018632D01*
X025144Y018808D01*
X025144Y018999D01*
X025175Y019073D01*
X025116Y019073D01*
X024940Y019147D01*
X024805Y019282D01*
X024732Y019458D01*
X024732Y019649D01*
X024805Y019825D01*
X024847Y019867D01*
X024873Y019930D01*
X024985Y020043D01*
X025223Y020280D01*
X025370Y020341D01*
X025529Y020341D01*
X026196Y020341D01*
X026274Y020419D01*
X026274Y023894D01*
X026009Y024160D01*
X022570Y024160D01*
X022423Y024221D01*
X022311Y024333D01*
X022311Y024333D01*
X022101Y024543D01*
X022009Y024543D01*
X021781Y024638D01*
X021607Y024812D01*
X021512Y025040D01*
X021512Y025887D01*
X021607Y026114D01*
X021720Y026228D01*
X021720Y026910D01*
X016066Y026910D01*
X015322Y026166D01*
X015349Y026140D01*
X015498Y026289D01*
X015725Y026383D01*
X015972Y026383D01*
X016200Y026289D01*
X016349Y026140D01*
X016498Y026289D01*
X016725Y026383D01*
X016972Y026383D01*
X017200Y026289D01*
X017374Y026114D01*
X017469Y025887D01*
X017469Y025040D01*
X017374Y024812D01*
X017200Y024638D01*
X016972Y024543D01*
X016725Y024543D01*
X016498Y024638D01*
X016349Y024786D01*
X016200Y024638D01*
X015972Y024543D01*
X015725Y024543D01*
X015498Y024638D01*
X015349Y024786D01*
X015200Y024638D01*
X014972Y024543D01*
X014725Y024543D01*
X014498Y024638D01*
X014323Y024812D01*
X014229Y025040D01*
X014229Y025887D01*
X014323Y026114D01*
X014449Y026240D01*
X014449Y026338D01*
X014510Y026485D01*
X015673Y027649D01*
X015820Y027710D01*
X015980Y027710D01*
X022041Y027710D01*
X022200Y027710D01*
X038980Y027710D01*
X039127Y027649D01*
X039239Y027536D01*
X039239Y027536D01*
X039382Y027393D01*
X039382Y027393D01*
X039495Y027280D01*
X039556Y027133D01*
X039556Y026362D01*
X039624Y026294D01*
X039673Y026177D01*
X039673Y025498D01*
X039624Y025380D01*
X039558Y025314D01*
X039597Y025275D01*
X039655Y025135D01*
X039655Y024510D01*
X039655Y024359D01*
X039597Y024219D01*
X039472Y024094D01*
X039365Y023988D01*
X039574Y024197D02*
X042499Y024197D01*
X042395Y023878D02*
X028050Y023878D01*
X028050Y023559D02*
X042395Y023559D01*
X042395Y023241D02*
X028050Y023241D01*
X028050Y022922D02*
X033827Y022922D01*
X033719Y022604D02*
X028050Y022604D01*
X028050Y022285D02*
X033799Y022285D01*
X033799Y021967D02*
X028050Y021967D01*
X028050Y021648D02*
X033799Y021648D01*
X033799Y021330D02*
X028050Y021330D01*
X028050Y021011D02*
X033799Y021011D01*
X033799Y020693D02*
X028050Y020693D01*
X028050Y020374D02*
X033799Y020374D01*
X033799Y020055D02*
X028050Y020055D01*
X028050Y019737D02*
X033799Y019737D01*
X033799Y019418D02*
X027824Y019418D01*
X027524Y019100D02*
X033799Y019100D01*
X033799Y018781D02*
X026156Y018781D01*
X025815Y018463D02*
X033799Y018463D01*
X033799Y018144D02*
X030538Y018144D01*
X030543Y017826D02*
X033799Y017826D01*
X033799Y017507D02*
X030203Y017507D01*
X029970Y017507D02*
X029737Y017507D01*
X029817Y017189D02*
X033799Y017189D01*
X033799Y016870D02*
X032249Y016870D01*
X032442Y016551D02*
X033799Y016551D01*
X033799Y016233D02*
X032380Y016233D01*
X031910Y015596D02*
X033799Y015596D01*
X033799Y015914D02*
X025987Y015914D01*
X025987Y015596D02*
X026868Y015596D01*
X026561Y015277D02*
X025987Y015277D01*
X025987Y016233D02*
X026650Y016233D01*
X026641Y016551D02*
X026033Y016551D01*
X026048Y016870D02*
X026972Y016870D01*
X026113Y017189D02*
X027977Y017189D01*
X025434Y018463D02*
X022715Y018463D01*
X022396Y018781D02*
X025155Y018781D01*
X025053Y019100D02*
X022219Y019100D01*
X021529Y019100D02*
X011789Y019100D01*
X012107Y018781D02*
X021394Y018781D01*
X021499Y018463D02*
X012426Y018463D01*
X011705Y017826D02*
X006720Y017826D01*
X006720Y018144D02*
X011387Y018144D01*
X011068Y018463D02*
X006720Y018463D01*
X006720Y018781D02*
X010750Y018781D01*
X010431Y019100D02*
X006720Y019100D01*
X006720Y019418D02*
X007600Y019418D01*
X007594Y019737D02*
X006720Y019737D01*
X006720Y020055D02*
X007594Y020055D01*
X007736Y020374D02*
X006720Y020374D01*
X006720Y020693D02*
X007594Y020693D01*
X007653Y021011D02*
X006720Y021011D01*
X006720Y021330D02*
X007780Y021330D01*
X007594Y021648D02*
X006720Y021648D01*
X006720Y021967D02*
X007634Y021967D01*
X007944Y022285D02*
X006720Y022285D01*
X006720Y022604D02*
X010197Y022604D01*
X009981Y022285D02*
X008400Y022285D01*
X008709Y021967D02*
X009864Y021967D01*
X009820Y021648D02*
X008749Y021648D01*
X008563Y021330D02*
X009841Y021330D01*
X009877Y021011D02*
X009931Y021011D01*
X009455Y020755D02*
X012400Y017810D01*
X021900Y017810D01*
X022319Y017391D01*
X022462Y017391D01*
X022407Y016870D02*
X008964Y016870D01*
X008964Y016782D02*
X008888Y016599D01*
X008749Y016459D01*
X008566Y016383D01*
X008368Y016383D01*
X008185Y016459D01*
X008045Y016599D01*
X007970Y016782D01*
X007970Y016980D01*
X008045Y017162D01*
X008185Y017302D01*
X008368Y017378D01*
X008566Y017378D01*
X008749Y017302D01*
X008888Y017162D01*
X008964Y016980D01*
X008964Y016782D01*
X008841Y016551D02*
X022360Y016551D01*
X022457Y016233D02*
X006720Y016233D01*
X006720Y016551D02*
X008093Y016551D01*
X007970Y016870D02*
X006720Y016870D01*
X006720Y017189D02*
X008072Y017189D01*
X008862Y017189D02*
X021842Y017189D01*
X022457Y015914D02*
X006720Y015914D01*
X006720Y015596D02*
X008248Y015596D01*
X008185Y015570D02*
X008045Y015430D01*
X007970Y015247D01*
X007970Y015049D01*
X008045Y014867D01*
X008185Y014727D01*
X008368Y014651D01*
X008566Y014651D01*
X008749Y014727D01*
X008888Y014867D01*
X008964Y015049D01*
X008964Y015247D01*
X008888Y015430D01*
X008749Y015570D01*
X008566Y015645D01*
X008368Y015645D01*
X008185Y015570D01*
X007982Y015277D02*
X006720Y015277D01*
X006720Y014959D02*
X008007Y014959D01*
X008926Y014959D02*
X020774Y014959D01*
X020462Y015277D02*
X008952Y015277D01*
X008686Y015596D02*
X020479Y015596D01*
X021369Y015596D02*
X022682Y015596D01*
X021757Y014640D02*
X006720Y014640D01*
X006720Y014322D02*
X018205Y014322D01*
X017887Y014003D02*
X006720Y014003D01*
X006720Y013685D02*
X017568Y013685D01*
X017250Y013366D02*
X006720Y013366D01*
X006720Y013048D02*
X016931Y013048D01*
X016613Y012729D02*
X006720Y012729D01*
X006720Y012410D02*
X016294Y012410D01*
X016107Y012092D02*
X006720Y012092D01*
X006720Y011773D02*
X016107Y011773D01*
X016107Y011455D02*
X006720Y011455D01*
X006720Y011136D02*
X016107Y011136D01*
X016107Y010818D02*
X011831Y010818D01*
X011901Y010799D02*
X011519Y010901D01*
X011124Y010901D01*
X010742Y010799D01*
X010400Y010601D01*
X010120Y010322D01*
X009922Y009980D01*
X009820Y009598D01*
X009820Y009203D01*
X009922Y008821D01*
X010120Y008479D01*
X010400Y008199D01*
X010742Y008001D01*
X011124Y007899D01*
X011519Y007899D01*
X011901Y008001D01*
X012243Y008199D01*
X012522Y008479D01*
X012720Y008821D01*
X012822Y009203D01*
X012822Y009598D01*
X012720Y009980D01*
X012522Y010322D01*
X012243Y010601D01*
X011901Y010799D01*
X012345Y010499D02*
X016107Y010499D01*
X016107Y010181D02*
X012604Y010181D01*
X012752Y009862D02*
X013118Y009862D01*
X013486Y009862D02*
X013487Y009862D01*
X013486Y009544D02*
X013487Y009544D01*
X013486Y009225D02*
X013487Y009225D01*
X013486Y008906D02*
X013487Y008906D01*
X013811Y008906D02*
X014047Y008906D01*
X014047Y008588D02*
X012586Y008588D01*
X012743Y008906D02*
X013163Y008906D01*
X012923Y009225D02*
X012822Y009225D01*
X012822Y009544D02*
X012913Y009544D01*
X013855Y009862D02*
X014029Y009862D01*
X014944Y009862D02*
X015029Y009862D01*
X015944Y009862D02*
X016029Y009862D01*
X016061Y008906D02*
X015912Y008906D01*
X016912Y008906D02*
X017061Y008906D01*
X017912Y008906D02*
X018061Y008906D01*
X015926Y007951D02*
X015381Y007951D01*
X014774Y007314D02*
X006720Y007314D01*
X006720Y007632D02*
X014455Y007632D01*
X014137Y007951D02*
X011711Y007951D01*
X010931Y007951D02*
X006720Y007951D01*
X006720Y008269D02*
X010329Y008269D01*
X010057Y008588D02*
X006720Y008588D01*
X006720Y008906D02*
X009899Y008906D01*
X009820Y009225D02*
X006720Y009225D01*
X006720Y009544D02*
X009820Y009544D01*
X009891Y009862D02*
X006720Y009862D01*
X006720Y010181D02*
X010038Y010181D01*
X010297Y010499D02*
X006720Y010499D01*
X006720Y010818D02*
X010811Y010818D01*
X012313Y008269D02*
X014047Y008269D01*
X015092Y006995D02*
X006720Y006995D01*
X008738Y006677D02*
X014736Y006677D01*
X014723Y006358D02*
X009120Y006358D01*
X009476Y005084D02*
X027560Y005084D01*
X027879Y004765D02*
X009476Y004765D01*
X009476Y004447D02*
X028231Y004447D01*
X028373Y005402D02*
X039249Y005402D01*
X039099Y005721D02*
X028054Y005721D01*
X025298Y006358D02*
X018677Y006358D01*
X018995Y006677D02*
X025170Y006677D01*
X024440Y006995D02*
X019314Y006995D01*
X018070Y006995D02*
X017515Y006995D01*
X018309Y006040D02*
X024499Y006040D01*
X025792Y011773D02*
X016867Y011773D01*
X017050Y012092D02*
X025427Y012092D01*
X025082Y012410D02*
X017369Y012410D01*
X017687Y012729D02*
X025085Y012729D01*
X022943Y013048D02*
X018006Y013048D01*
X018324Y013366D02*
X022624Y013366D01*
X022306Y013685D02*
X018643Y013685D01*
X012024Y017507D02*
X006720Y017507D01*
X008743Y019418D02*
X010113Y019418D01*
X009794Y019737D02*
X008749Y019737D01*
X008749Y020055D02*
X009475Y020055D01*
X009455Y020755D02*
X008172Y020755D01*
X010833Y020055D02*
X024998Y020055D01*
X024768Y019737D02*
X011152Y019737D01*
X011470Y019418D02*
X024748Y019418D01*
X026229Y020374D02*
X012191Y020374D01*
X012528Y020693D02*
X026274Y020693D01*
X026274Y021011D02*
X012712Y021011D01*
X012801Y021330D02*
X026274Y021330D01*
X026274Y021648D02*
X012822Y021648D01*
X012778Y021967D02*
X026274Y021967D01*
X026274Y022285D02*
X012662Y022285D01*
X012445Y022604D02*
X026274Y022604D01*
X026274Y022922D02*
X012042Y022922D01*
X010601Y022922D02*
X006720Y022922D01*
X006720Y023241D02*
X026274Y023241D01*
X026274Y023559D02*
X006720Y023559D01*
X006720Y023878D02*
X026274Y023878D01*
X026750Y024550D02*
X026401Y024899D01*
X026254Y024960D01*
X026095Y024960D01*
X024719Y024960D01*
X024752Y025040D01*
X024752Y025887D01*
X024658Y026114D01*
X024483Y026289D01*
X024256Y026383D01*
X024009Y026383D01*
X023781Y026289D01*
X023632Y026140D01*
X023527Y026246D01*
X023816Y026535D01*
X026750Y026535D01*
X026750Y024550D01*
X026750Y024834D02*
X026466Y024834D01*
X026750Y025152D02*
X024752Y025152D01*
X024752Y025471D02*
X026750Y025471D01*
X026750Y025789D02*
X024752Y025789D01*
X024661Y026108D02*
X026750Y026108D01*
X026750Y026426D02*
X023707Y026426D01*
X021720Y026426D02*
X015582Y026426D01*
X015901Y026745D02*
X021720Y026745D01*
X021604Y026108D02*
X017377Y026108D01*
X017469Y025789D02*
X021512Y025789D01*
X021512Y025471D02*
X017469Y025471D01*
X017469Y025152D02*
X021512Y025152D01*
X021598Y024834D02*
X017383Y024834D01*
X014314Y024834D02*
X006720Y024834D01*
X006720Y024515D02*
X022129Y024515D01*
X022482Y024197D02*
X006720Y024197D01*
X008110Y025152D02*
X008132Y025152D01*
X008163Y025152D02*
X014229Y025152D01*
X014229Y025471D02*
X008907Y025471D01*
X009210Y025789D02*
X014229Y025789D01*
X014320Y026108D02*
X009374Y026108D01*
X009461Y026426D02*
X014485Y026426D01*
X014769Y026745D02*
X009476Y026745D01*
X009476Y027063D02*
X015088Y027063D01*
X015407Y027382D02*
X009476Y027382D01*
X009476Y027701D02*
X015798Y027701D01*
X027550Y026535D02*
X027550Y024917D01*
X027618Y025082D01*
X027753Y025217D01*
X027929Y025290D01*
X028120Y025290D01*
X028297Y025217D01*
X028304Y025210D01*
X029551Y025210D01*
X029578Y025275D01*
X029685Y025382D01*
X029782Y025422D01*
X029781Y025425D01*
X029781Y026053D01*
X029829Y026170D01*
X029875Y026216D01*
X029875Y026535D01*
X027550Y026535D01*
X027550Y026426D02*
X029875Y026426D01*
X029804Y026108D02*
X027550Y026108D01*
X027550Y025789D02*
X029781Y025789D01*
X029781Y025471D02*
X027550Y025471D01*
X027550Y025152D02*
X027689Y025152D01*
X028050Y024197D02*
X029601Y024197D01*
X030854Y025440D02*
X030854Y026053D01*
X030805Y026170D01*
X030715Y026260D01*
X030675Y026277D01*
X030675Y026535D01*
X033919Y026535D01*
X033875Y026428D01*
X033875Y025500D01*
X033900Y025440D01*
X030854Y025440D01*
X030854Y025471D02*
X033887Y025471D01*
X033875Y025789D02*
X030854Y025789D01*
X030831Y026108D02*
X033875Y026108D01*
X033875Y026426D02*
X030675Y026426D01*
X035180Y026535D02*
X038008Y026535D01*
X038008Y026362D01*
X037940Y026294D01*
X037891Y026177D01*
X037891Y025498D01*
X037915Y025440D01*
X035199Y025440D01*
X035225Y025500D01*
X035225Y026428D01*
X035180Y026535D01*
X035225Y026426D02*
X038008Y026426D01*
X037891Y026108D02*
X035225Y026108D01*
X035225Y025789D02*
X037891Y025789D01*
X037902Y025471D02*
X035212Y025471D01*
X039002Y027701D02*
X042694Y027701D01*
X042694Y027382D02*
X039393Y027382D01*
X039556Y027063D02*
X042694Y027063D01*
X042694Y026745D02*
X039556Y026745D01*
X039556Y026426D02*
X042709Y026426D01*
X042797Y026108D02*
X039673Y026108D01*
X039673Y025789D02*
X042960Y025789D01*
X043263Y025471D02*
X039661Y025471D01*
X039648Y025152D02*
X043190Y025152D01*
X043610Y025152D02*
X044007Y025152D01*
X044038Y025152D02*
X044060Y025152D01*
X042852Y024834D02*
X039655Y024834D01*
X039655Y024515D02*
X042800Y024515D01*
X042395Y022922D02*
X041569Y022922D01*
X041973Y022604D02*
X042395Y022604D01*
X042395Y022285D02*
X042189Y022285D01*
X042306Y021967D02*
X042395Y021967D01*
X042395Y021648D02*
X042350Y021648D01*
X042329Y021330D02*
X042395Y021330D01*
X042449Y021011D02*
X042239Y021011D01*
X042055Y020693D02*
X043378Y020693D01*
X043378Y020374D02*
X041719Y020374D01*
X042006Y018144D02*
X043549Y018144D01*
X043471Y017826D02*
X042012Y017826D01*
X043507Y014640D02*
X036040Y014640D01*
X036041Y014322D02*
X043505Y014322D01*
X043556Y014003D02*
X036042Y014003D01*
X036044Y013685D02*
X043421Y013685D01*
X043421Y013366D02*
X036045Y013366D01*
X033799Y014322D02*
X031059Y014322D01*
X030741Y014640D02*
X031621Y014640D01*
X031416Y014959D02*
X030422Y014959D01*
X032302Y014640D02*
X033799Y014640D01*
X033799Y014959D02*
X032442Y014959D01*
X032342Y015277D02*
X033799Y015277D01*
X040292Y011136D02*
X045450Y011136D01*
X045450Y010818D02*
X041359Y010818D01*
X041873Y010499D02*
X045450Y010499D01*
X045450Y010181D02*
X042132Y010181D01*
X042279Y009862D02*
X045450Y009862D01*
X045450Y009544D02*
X042350Y009544D01*
X042350Y009225D02*
X045450Y009225D01*
X045450Y008906D02*
X042271Y008906D01*
X042113Y008588D02*
X045450Y008588D01*
X045450Y008269D02*
X041841Y008269D01*
X041239Y007951D02*
X045450Y007951D01*
X045450Y007632D02*
X039800Y007632D01*
X039800Y007951D02*
X040459Y007951D01*
X039857Y008269D02*
X039800Y008269D01*
X040122Y007314D02*
X045450Y007314D01*
X045450Y006995D02*
X040206Y006995D01*
X040206Y006677D02*
X043432Y006677D01*
X043050Y006358D02*
X040196Y006358D01*
X040206Y006040D02*
X042841Y006040D01*
X042735Y005721D02*
X040200Y005721D01*
X040049Y005402D02*
X042694Y005402D01*
X042694Y005084D02*
X040049Y005084D01*
X039921Y004765D02*
X042694Y004765D01*
X042694Y004447D02*
X039569Y004447D01*
X039093Y006040D02*
X037340Y006040D01*
X037508Y006358D02*
X039103Y006358D01*
X039093Y006677D02*
X037508Y006677D01*
X037200Y006995D02*
X039093Y006995D01*
X039800Y010499D02*
X039825Y010499D01*
X039974Y010818D02*
X040339Y010818D01*
X041724Y011455D02*
X045450Y011455D01*
X045450Y011773D02*
X041880Y011773D01*
X041797Y012092D02*
X045450Y012092D01*
X045450Y012410D02*
X045126Y012410D01*
X045195Y012729D02*
X045450Y012729D01*
X043999Y014640D02*
X043998Y014640D01*
X034754Y021648D02*
X034599Y021648D01*
X034599Y021967D02*
X035072Y021967D01*
X035391Y022285D02*
X034599Y022285D01*
X034679Y022604D02*
X035709Y022604D01*
X035946Y022922D02*
X034572Y022922D01*
X023452Y018231D02*
X023452Y018231D01*
X023365Y018144D02*
X023034Y018144D01*
D27*
X035587Y017978D02*
X035623Y008800D01*
X035026Y008203D01*
X035026Y007703D01*
X035025Y007702D01*
X035025Y007435D01*
X036012Y006448D01*
X036928Y006448D01*
X035026Y007703D02*
X028400Y007703D01*
X028400Y007060D01*
X028400Y007703D02*
X019400Y007703D01*
X018144Y006448D01*
X017243Y006448D01*
X016262Y006448D01*
X014487Y008223D01*
X014487Y009400D01*
X035587Y017978D02*
X041555Y017978D01*
D28*
X038900Y015310D03*
X042900Y012685D03*
X044650Y012685D03*
M02*
