G75*
G70*
%OFA0B0*%
%FSLAX24Y24*%
%IPPOS*%
%LPD*%
%AMOC8*
5,1,8,0,0,1.08239X$1,22.5*
%
%ADD10C,0.0050*%
%ADD11C,0.0040*%
%ADD12C,0.0060*%
%ADD13C,0.0120*%
%ADD14C,0.0030*%
%ADD15R,0.1260X0.0730*%
%ADD16R,0.0340X0.0730*%
%ADD17C,0.0080*%
%ADD18C,0.0020*%
%ADD19R,0.0079X0.0079*%
D10*
X003692Y002465D02*
X003694Y002478D01*
X003699Y002490D01*
X003708Y002501D01*
X003718Y002509D01*
X003731Y002513D01*
X003744Y002514D01*
X003757Y002511D01*
X003769Y002505D01*
X003779Y002496D01*
X003786Y002485D01*
X003790Y002472D01*
X003790Y002458D01*
X003786Y002445D01*
X003779Y002434D01*
X003769Y002425D01*
X003757Y002419D01*
X003744Y002416D01*
X003731Y002417D01*
X003718Y002421D01*
X003708Y002429D01*
X003699Y002440D01*
X003694Y002452D01*
X003692Y002465D01*
X003741Y002613D02*
X003790Y003056D01*
X003692Y003056D01*
X003741Y002613D01*
X003737Y002647D02*
X003745Y002647D01*
X003750Y002695D02*
X003732Y002695D01*
X003726Y002744D02*
X003756Y002744D01*
X003761Y002792D02*
X003721Y002792D01*
X003716Y002841D02*
X003766Y002841D01*
X003772Y002889D02*
X003710Y002889D01*
X003705Y002938D02*
X003777Y002938D01*
X003782Y002987D02*
X003699Y002987D01*
X003694Y003035D02*
X003788Y003035D01*
X003790Y003056D02*
X003788Y003069D01*
X003783Y003080D01*
X003776Y003091D01*
X003766Y003098D01*
X003754Y003103D01*
X003741Y003105D01*
X003728Y003103D01*
X003717Y003098D01*
X003706Y003091D01*
X003699Y003080D01*
X003694Y003069D01*
X003692Y003056D01*
X007328Y005424D02*
X007328Y005924D01*
X008328Y005924D01*
X008328Y005424D01*
X007328Y005424D01*
X007515Y005611D02*
X007640Y005611D01*
X007640Y005624D01*
X007515Y005624D01*
X007515Y005674D01*
X007640Y005674D01*
X007640Y005724D01*
X007515Y005724D01*
X007515Y005736D01*
X007640Y005736D01*
X007640Y005724D01*
X007640Y005674D02*
X007640Y005624D01*
X007515Y005611D02*
X007515Y005624D01*
X007515Y005674D02*
X007515Y005724D01*
X007328Y006113D02*
X007328Y006613D01*
X008328Y006613D01*
X008328Y006113D01*
X007328Y006113D01*
X007515Y006300D02*
X007640Y006300D01*
X007640Y006313D01*
X007515Y006313D01*
X007515Y006363D01*
X007640Y006363D01*
X007640Y006413D01*
X007515Y006413D01*
X007515Y006425D01*
X007640Y006425D01*
X007640Y006413D01*
X007640Y006363D02*
X007640Y006313D01*
X007515Y006300D02*
X007515Y006313D01*
X007515Y006363D02*
X007515Y006413D01*
X007328Y006802D02*
X007328Y007302D01*
X008328Y007302D01*
X008328Y006802D01*
X007328Y006802D01*
X007515Y006989D02*
X007640Y006989D01*
X007640Y007002D01*
X007515Y007002D01*
X007515Y007052D01*
X007640Y007052D01*
X007640Y007102D01*
X007515Y007102D01*
X007515Y007114D01*
X007640Y007114D01*
X007640Y007102D01*
X007640Y007052D02*
X007640Y007002D01*
X007515Y006989D02*
X007515Y007002D01*
X007515Y007052D02*
X007515Y007102D01*
X007723Y007594D02*
X008023Y007594D01*
X008098Y007669D01*
X008098Y007819D01*
X008023Y007894D01*
X007873Y007894D01*
X007873Y007744D01*
X007723Y007894D02*
X007647Y007819D01*
X007647Y007669D01*
X007723Y007594D01*
X008015Y007114D02*
X008140Y007114D01*
X008140Y007102D01*
X008140Y007052D01*
X008015Y007052D01*
X008015Y007002D01*
X008140Y007002D01*
X008140Y006989D01*
X008015Y006989D01*
X008015Y007002D01*
X008015Y007052D02*
X008015Y007102D01*
X008140Y007102D01*
X008140Y007052D02*
X008140Y007002D01*
X008015Y007102D02*
X008015Y007114D01*
X008410Y007302D02*
X008410Y006802D01*
X009410Y006802D01*
X009410Y007302D01*
X008410Y007302D01*
X008535Y007177D02*
X009285Y007177D01*
X009285Y006927D01*
X008535Y006927D01*
X008535Y007177D01*
X008785Y007177D02*
X009035Y007177D01*
X009035Y007152D01*
X008785Y007152D01*
X008785Y007177D01*
X008785Y007152D02*
X008785Y007102D01*
X009035Y007102D01*
X009035Y007052D01*
X008785Y007052D01*
X008785Y007002D01*
X009035Y007002D01*
X009035Y006952D01*
X008785Y006952D01*
X008785Y007002D01*
X008785Y007052D02*
X008785Y007102D01*
X008785Y006952D02*
X008785Y006927D01*
X009035Y006927D01*
X009035Y006952D01*
X009035Y007002D02*
X009035Y007052D01*
X009035Y007102D02*
X009035Y007152D01*
X009105Y007594D02*
X009181Y007669D01*
X009181Y007819D01*
X009105Y007894D01*
X008730Y007894D01*
X008880Y008054D02*
X008730Y008204D01*
X008880Y008354D01*
X009181Y008354D01*
X009181Y008514D02*
X008730Y008514D01*
X008730Y008739D01*
X008805Y008814D01*
X008955Y008814D01*
X009030Y008739D01*
X009030Y008514D01*
X009030Y008664D02*
X009181Y008814D01*
X009181Y009125D02*
X008730Y009125D01*
X008730Y008975D02*
X008730Y009275D01*
X008098Y009046D02*
X008023Y009121D01*
X007723Y009121D01*
X007647Y009046D01*
X007647Y008896D01*
X007723Y008821D01*
X008023Y008821D01*
X008098Y008896D01*
X008098Y009046D01*
X008098Y008664D02*
X008098Y008514D01*
X008098Y008589D02*
X007647Y008589D01*
X007647Y008514D02*
X007647Y008664D01*
X007723Y008354D02*
X007873Y008354D01*
X007948Y008279D01*
X007948Y008054D01*
X008098Y008054D02*
X007647Y008054D01*
X007647Y008279D01*
X007723Y008354D01*
X008730Y007594D02*
X009105Y007594D01*
X009181Y008054D02*
X008880Y008054D01*
X008955Y008054D02*
X008955Y008354D01*
X009493Y007302D02*
X010493Y007302D01*
X010493Y006802D01*
X009493Y006802D01*
X009493Y007302D01*
X009680Y007114D02*
X009805Y007114D01*
X009805Y007102D01*
X009805Y007052D01*
X009680Y007052D01*
X009680Y007002D01*
X009805Y007002D01*
X009805Y006989D01*
X009680Y006989D01*
X009680Y007002D01*
X009680Y007052D02*
X009680Y007102D01*
X009805Y007102D01*
X009805Y007052D02*
X009805Y007002D01*
X009680Y007102D02*
X009680Y007114D01*
X009813Y007594D02*
X009813Y007819D01*
X009888Y007894D01*
X010038Y007894D01*
X010113Y007819D01*
X010113Y007594D01*
X010263Y007594D02*
X009813Y007594D01*
X009813Y008054D02*
X010263Y008054D01*
X010113Y008204D01*
X010263Y008354D01*
X009813Y008354D01*
X009813Y008514D02*
X009963Y008664D01*
X009813Y008814D01*
X010263Y008814D01*
X010263Y008514D02*
X009813Y008514D01*
X010576Y007302D02*
X011576Y007302D01*
X011576Y006802D01*
X010576Y006802D01*
X010576Y007302D01*
X010701Y007177D02*
X011451Y007177D01*
X011451Y006927D01*
X010701Y006927D01*
X010701Y007177D01*
X010951Y007177D02*
X011201Y007177D01*
X011201Y007152D01*
X010951Y007152D01*
X010951Y007177D01*
X010951Y007152D02*
X010951Y007102D01*
X011201Y007102D01*
X011201Y007052D01*
X010951Y007052D01*
X010951Y007002D01*
X011201Y007002D01*
X011201Y006952D01*
X010951Y006952D01*
X010951Y007002D01*
X010951Y007052D02*
X010951Y007102D01*
X010951Y006952D02*
X010951Y006927D01*
X011201Y006927D01*
X011201Y006952D01*
X011201Y007002D02*
X011201Y007052D01*
X011201Y007102D02*
X011201Y007152D01*
X011658Y007302D02*
X011658Y006802D01*
X012658Y006802D01*
X012658Y007302D01*
X011658Y007302D01*
X011846Y007114D02*
X011971Y007114D01*
X011971Y007102D01*
X011971Y007052D01*
X011846Y007052D01*
X011846Y007002D01*
X011971Y007002D01*
X011971Y006989D01*
X011846Y006989D01*
X011846Y007002D01*
X011846Y007052D02*
X011846Y007102D01*
X011971Y007102D01*
X011971Y007052D02*
X011971Y007002D01*
X011846Y007102D02*
X011846Y007114D01*
X012346Y007114D02*
X012471Y007114D01*
X012471Y007102D01*
X012471Y007052D01*
X012346Y007052D01*
X012346Y007002D01*
X012471Y007002D01*
X012471Y006989D01*
X012346Y006989D01*
X012346Y007002D01*
X012346Y007052D02*
X012346Y007102D01*
X012471Y007102D01*
X012471Y007052D02*
X012471Y007002D01*
X012346Y007102D02*
X012346Y007114D01*
X012741Y007302D02*
X012741Y006802D01*
X013741Y006802D01*
X013741Y007302D01*
X012741Y007302D01*
X012866Y007177D02*
X013616Y007177D01*
X013616Y006927D01*
X012866Y006927D01*
X012866Y007177D01*
X013116Y007177D02*
X013366Y007177D01*
X013366Y007152D01*
X013116Y007152D01*
X013116Y007177D01*
X013116Y007152D02*
X013116Y007102D01*
X013366Y007102D01*
X013366Y007052D01*
X013116Y007052D01*
X013116Y007002D01*
X013366Y007002D01*
X013366Y006952D01*
X013116Y006952D01*
X013116Y007002D01*
X013116Y007052D02*
X013116Y007102D01*
X013116Y006952D02*
X013116Y006927D01*
X013366Y006927D01*
X013366Y006952D01*
X013366Y007002D02*
X013366Y007052D01*
X013366Y007102D02*
X013366Y007152D01*
X013741Y006613D02*
X012741Y006613D01*
X012741Y006113D01*
X013741Y006113D01*
X013741Y006613D01*
X013553Y006425D02*
X013428Y006425D01*
X013428Y006413D01*
X013553Y006413D01*
X013553Y006363D01*
X013428Y006363D01*
X013428Y006313D01*
X013553Y006313D01*
X013553Y006300D01*
X013428Y006300D01*
X013428Y006313D01*
X013428Y006363D02*
X013428Y006413D01*
X013553Y006425D02*
X013553Y006413D01*
X013553Y006363D02*
X013553Y006313D01*
X013741Y005924D02*
X012741Y005924D01*
X012741Y005424D01*
X013741Y005424D01*
X013741Y005924D01*
X013616Y005799D02*
X013616Y005549D01*
X012866Y005549D01*
X012866Y005799D01*
X013616Y005799D01*
X013366Y005799D02*
X013116Y005799D01*
X013116Y005774D01*
X013366Y005774D01*
X013366Y005724D01*
X013366Y005674D01*
X013116Y005674D01*
X013116Y005624D01*
X013366Y005624D01*
X013366Y005574D01*
X013116Y005574D01*
X013116Y005624D01*
X013116Y005674D02*
X013116Y005724D01*
X013366Y005724D01*
X013366Y005774D02*
X013366Y005799D01*
X013366Y005674D02*
X013366Y005624D01*
X013366Y005574D02*
X013366Y005549D01*
X013116Y005549D01*
X013116Y005574D01*
X013116Y005724D02*
X013116Y005774D01*
X013053Y006300D02*
X012928Y006300D01*
X012928Y006313D01*
X012928Y006363D01*
X013053Y006363D01*
X013053Y006413D01*
X012928Y006413D01*
X012928Y006425D01*
X013053Y006425D01*
X013053Y006413D01*
X013053Y006363D02*
X013053Y006313D01*
X012928Y006313D01*
X012928Y006363D02*
X012928Y006413D01*
X013053Y006313D02*
X013053Y006300D01*
X012658Y006113D02*
X011658Y006113D01*
X011658Y006613D01*
X012658Y006613D01*
X012658Y006113D01*
X012658Y005924D02*
X011658Y005924D01*
X011658Y005424D01*
X012658Y005424D01*
X012658Y005924D01*
X012533Y005799D02*
X011783Y005799D01*
X011783Y005549D01*
X012533Y005549D01*
X012533Y005799D01*
X012283Y005799D02*
X012033Y005799D01*
X012033Y005774D01*
X012283Y005774D01*
X012283Y005724D01*
X012283Y005674D01*
X012033Y005674D01*
X012033Y005624D01*
X012283Y005624D01*
X012283Y005574D01*
X012033Y005574D01*
X012033Y005624D01*
X012033Y005674D02*
X012033Y005724D01*
X012283Y005724D01*
X012283Y005774D02*
X012283Y005799D01*
X012283Y005674D02*
X012283Y005624D01*
X012283Y005574D02*
X012283Y005549D01*
X012033Y005549D01*
X012033Y005574D01*
X012033Y005724D02*
X012033Y005774D01*
X011576Y005924D02*
X011576Y005424D01*
X010576Y005424D01*
X010576Y005924D01*
X011576Y005924D01*
X011576Y006113D02*
X010576Y006113D01*
X010576Y006613D01*
X011576Y006613D01*
X011576Y006113D01*
X011451Y006238D02*
X011451Y006488D01*
X010701Y006488D01*
X010701Y006238D01*
X011451Y006238D01*
X011201Y006238D02*
X010951Y006238D01*
X010951Y006263D01*
X011201Y006263D01*
X011201Y006238D01*
X011201Y006263D02*
X011201Y006313D01*
X010951Y006313D01*
X010951Y006363D01*
X011201Y006363D01*
X011201Y006413D01*
X010951Y006413D01*
X010951Y006463D01*
X011201Y006463D01*
X011201Y006413D01*
X011201Y006463D02*
X011201Y006488D01*
X010951Y006488D01*
X010951Y006463D01*
X010951Y006413D02*
X010951Y006363D01*
X010951Y006313D02*
X010951Y006263D01*
X011201Y006313D02*
X011201Y006363D01*
X011263Y005736D02*
X011388Y005736D01*
X011388Y005724D01*
X011388Y005674D01*
X011263Y005674D01*
X011263Y005624D01*
X011388Y005624D01*
X011388Y005611D01*
X011263Y005611D01*
X011263Y005624D01*
X011263Y005674D02*
X011263Y005724D01*
X011388Y005724D01*
X011388Y005674D02*
X011388Y005624D01*
X011263Y005724D02*
X011263Y005736D01*
X010888Y005736D02*
X010763Y005736D01*
X010763Y005724D01*
X010888Y005724D01*
X010888Y005674D01*
X010763Y005674D01*
X010763Y005624D01*
X010888Y005624D01*
X010888Y005611D01*
X010763Y005611D01*
X010763Y005624D01*
X010763Y005674D02*
X010763Y005724D01*
X010888Y005736D02*
X010888Y005724D01*
X010888Y005674D02*
X010888Y005624D01*
X010493Y005424D02*
X009493Y005424D01*
X009493Y005924D01*
X010493Y005924D01*
X010493Y005424D01*
X010305Y005611D02*
X010180Y005611D01*
X010180Y005624D01*
X010180Y005674D01*
X010305Y005674D01*
X010305Y005724D01*
X010180Y005724D01*
X010180Y005736D01*
X010305Y005736D01*
X010305Y005724D01*
X010305Y005674D02*
X010305Y005624D01*
X010180Y005624D01*
X010180Y005674D02*
X010180Y005724D01*
X010305Y005624D02*
X010305Y005611D01*
X009805Y005611D02*
X009680Y005611D01*
X009680Y005624D01*
X009680Y005674D01*
X009805Y005674D01*
X009805Y005724D01*
X009680Y005724D01*
X009680Y005736D01*
X009805Y005736D01*
X009805Y005724D01*
X009805Y005674D02*
X009805Y005624D01*
X009680Y005624D01*
X009680Y005674D02*
X009680Y005724D01*
X009805Y005624D02*
X009805Y005611D01*
X009410Y005424D02*
X008410Y005424D01*
X008410Y005924D01*
X009410Y005924D01*
X009410Y005424D01*
X009223Y005611D02*
X009098Y005611D01*
X009098Y005624D01*
X009098Y005674D01*
X009223Y005674D01*
X009223Y005724D01*
X009098Y005724D01*
X009098Y005736D01*
X009223Y005736D01*
X009223Y005724D01*
X009223Y005674D02*
X009223Y005624D01*
X009098Y005624D01*
X009098Y005674D02*
X009098Y005724D01*
X009223Y005624D02*
X009223Y005611D01*
X009410Y006113D02*
X008410Y006113D01*
X008410Y006613D01*
X009410Y006613D01*
X009410Y006113D01*
X009493Y006113D02*
X009493Y006613D01*
X010493Y006613D01*
X010493Y006113D01*
X009493Y006113D01*
X009618Y006238D02*
X009618Y006488D01*
X010368Y006488D01*
X010368Y006238D01*
X009618Y006238D01*
X009868Y006238D02*
X010118Y006238D01*
X010118Y006263D01*
X009868Y006263D01*
X009868Y006313D01*
X009868Y006363D01*
X010118Y006363D01*
X010118Y006413D01*
X009868Y006413D01*
X009868Y006463D01*
X010118Y006463D01*
X010118Y006413D01*
X010118Y006463D02*
X010118Y006488D01*
X009868Y006488D01*
X009868Y006463D01*
X009868Y006413D02*
X009868Y006363D01*
X009868Y006313D02*
X010118Y006313D01*
X010118Y006263D01*
X010118Y006313D02*
X010118Y006363D01*
X009868Y006263D02*
X009868Y006238D01*
X009223Y006300D02*
X009098Y006300D01*
X009098Y006313D01*
X009098Y006363D01*
X009223Y006363D01*
X009223Y006413D01*
X009098Y006413D01*
X009098Y006425D01*
X009223Y006425D01*
X009223Y006413D01*
X009223Y006363D02*
X009223Y006313D01*
X009098Y006313D01*
X009098Y006363D02*
X009098Y006413D01*
X009223Y006313D02*
X009223Y006300D01*
X008723Y006300D02*
X008598Y006300D01*
X008598Y006313D01*
X008598Y006363D01*
X008723Y006363D01*
X008723Y006413D01*
X008598Y006413D01*
X008598Y006425D01*
X008723Y006425D01*
X008723Y006413D01*
X008723Y006363D02*
X008723Y006313D01*
X008598Y006313D01*
X008598Y006363D02*
X008598Y006413D01*
X008723Y006313D02*
X008723Y006300D01*
X008723Y005736D02*
X008598Y005736D01*
X008598Y005724D01*
X008723Y005724D01*
X008723Y005674D01*
X008598Y005674D01*
X008598Y005624D01*
X008723Y005624D01*
X008723Y005611D01*
X008598Y005611D01*
X008598Y005624D01*
X008598Y005674D02*
X008598Y005724D01*
X008723Y005736D02*
X008723Y005724D01*
X008723Y005674D02*
X008723Y005624D01*
X008140Y005624D02*
X008015Y005624D01*
X008015Y005674D01*
X008140Y005674D01*
X008140Y005724D01*
X008015Y005724D01*
X008015Y005736D01*
X008140Y005736D01*
X008140Y005724D01*
X008140Y005674D02*
X008140Y005624D01*
X008140Y005611D01*
X008015Y005611D01*
X008015Y005624D01*
X008015Y005674D02*
X008015Y005724D01*
X008015Y006300D02*
X008140Y006300D01*
X008140Y006313D01*
X008015Y006313D01*
X008015Y006363D01*
X008140Y006363D01*
X008140Y006413D01*
X008015Y006413D01*
X008015Y006425D01*
X008140Y006425D01*
X008140Y006413D01*
X008140Y006363D02*
X008140Y006313D01*
X008015Y006300D02*
X008015Y006313D01*
X008015Y006363D02*
X008015Y006413D01*
X010180Y006989D02*
X010305Y006989D01*
X010305Y007002D01*
X010180Y007002D01*
X010180Y007052D01*
X010305Y007052D01*
X010305Y007102D01*
X010180Y007102D01*
X010180Y007114D01*
X010305Y007114D01*
X010305Y007102D01*
X010305Y007052D02*
X010305Y007002D01*
X010180Y006989D02*
X010180Y007002D01*
X010180Y007052D02*
X010180Y007102D01*
X011846Y006425D02*
X011971Y006425D01*
X011971Y006413D01*
X011971Y006363D01*
X011846Y006363D01*
X011846Y006313D01*
X011971Y006313D01*
X011971Y006300D01*
X011846Y006300D01*
X011846Y006313D01*
X011846Y006363D02*
X011846Y006413D01*
X011971Y006413D01*
X011971Y006363D02*
X011971Y006313D01*
X011846Y006413D02*
X011846Y006425D01*
X012346Y006425D02*
X012471Y006425D01*
X012471Y006413D01*
X012471Y006363D01*
X012346Y006363D01*
X012346Y006313D01*
X012471Y006313D01*
X012471Y006300D01*
X012346Y006300D01*
X012346Y006313D01*
X012346Y006363D02*
X012346Y006413D01*
X012471Y006413D01*
X012471Y006363D02*
X012471Y006313D01*
X012346Y006413D02*
X012346Y006425D01*
X018646Y010837D02*
X018646Y011337D01*
X019646Y011337D01*
X019646Y010837D01*
X018646Y010837D01*
X018771Y010962D02*
X018771Y011212D01*
X019521Y011212D01*
X019521Y010962D01*
X018771Y010962D01*
X019021Y010962D02*
X019271Y010962D01*
X019271Y010987D01*
X019021Y010987D01*
X019021Y011037D01*
X019021Y011087D01*
X019271Y011087D01*
X019271Y011137D01*
X019021Y011137D01*
X019021Y011187D01*
X019271Y011187D01*
X019271Y011137D01*
X019271Y011087D02*
X019271Y011037D01*
X019021Y011037D01*
X019021Y010987D02*
X019021Y010962D01*
X019021Y011087D02*
X019021Y011137D01*
X019021Y011187D02*
X019021Y011212D01*
X019271Y011212D01*
X019271Y011187D01*
X019271Y011037D02*
X019271Y010987D01*
X019828Y010837D02*
X019828Y011337D01*
X020828Y011337D01*
X020828Y010837D01*
X019828Y010837D01*
X020015Y011025D02*
X020140Y011025D01*
X020140Y011037D01*
X020015Y011037D01*
X020015Y011087D01*
X020140Y011087D01*
X020140Y011137D01*
X020015Y011137D01*
X020015Y011150D01*
X020140Y011150D01*
X020140Y011137D01*
X020140Y011087D02*
X020140Y011037D01*
X020015Y011025D02*
X020015Y011037D01*
X020015Y011087D02*
X020015Y011137D01*
X019828Y011625D02*
X019828Y012125D01*
X020828Y012125D01*
X020828Y011625D01*
X019828Y011625D01*
X019646Y011625D02*
X018646Y011625D01*
X018646Y012125D01*
X019646Y012125D01*
X019646Y011625D01*
X019521Y011750D02*
X018771Y011750D01*
X018771Y012000D01*
X019521Y012000D01*
X019521Y011750D01*
X019271Y011750D02*
X019021Y011750D01*
X019021Y011775D01*
X019271Y011775D01*
X019271Y011750D01*
X019271Y011775D02*
X019271Y011825D01*
X019021Y011825D01*
X019021Y011875D01*
X019271Y011875D01*
X019271Y011925D01*
X019021Y011925D01*
X019021Y011975D01*
X019271Y011975D01*
X019271Y011925D01*
X019271Y011975D02*
X019271Y012000D01*
X019021Y012000D01*
X019021Y011975D01*
X019021Y011925D02*
X019021Y011875D01*
X019021Y011825D02*
X019021Y011775D01*
X019271Y011825D02*
X019271Y011875D01*
X020015Y011875D02*
X020015Y011825D01*
X020140Y011825D01*
X020140Y011812D01*
X020015Y011812D01*
X020015Y011825D01*
X020015Y011875D02*
X020140Y011875D01*
X020140Y011925D01*
X020015Y011925D01*
X020015Y011937D01*
X020140Y011937D01*
X020140Y011925D01*
X020140Y011875D02*
X020140Y011825D01*
X020015Y011875D02*
X020015Y011925D01*
X020515Y011925D02*
X020640Y011925D01*
X020640Y011875D01*
X020515Y011875D01*
X020515Y011825D01*
X020640Y011825D01*
X020640Y011812D01*
X020515Y011812D01*
X020515Y011825D01*
X020515Y011875D02*
X020515Y011925D01*
X020515Y011937D01*
X020640Y011937D01*
X020640Y011925D01*
X020640Y011875D02*
X020640Y011825D01*
X020640Y011150D02*
X020515Y011150D01*
X020515Y011137D01*
X020640Y011137D01*
X020640Y011087D01*
X020515Y011087D01*
X020515Y011037D01*
X020640Y011037D01*
X020640Y011025D01*
X020515Y011025D01*
X020515Y011037D01*
X020515Y011087D02*
X020515Y011137D01*
X020640Y011150D02*
X020640Y011137D01*
X020640Y011087D02*
X020640Y011037D01*
X015818Y018839D02*
X015935Y018955D01*
X015935Y019189D01*
X015701Y019189D02*
X015701Y018955D01*
X015818Y018839D01*
X015566Y018897D02*
X015566Y019014D01*
X015508Y019072D01*
X015450Y019072D01*
X015333Y019014D01*
X015333Y019189D01*
X015566Y019189D01*
X015566Y018897D02*
X015508Y018839D01*
X015391Y018839D01*
X015333Y018897D01*
X015048Y018922D02*
X015048Y019155D01*
X014990Y019214D01*
X014815Y019214D01*
X014815Y018863D01*
X014990Y018863D01*
X015048Y018922D01*
X014680Y018863D02*
X014680Y019214D01*
X014446Y019214D02*
X014446Y018863D01*
X014311Y018922D02*
X014311Y019038D01*
X014195Y019038D01*
X014311Y018922D02*
X014253Y018863D01*
X014136Y018863D01*
X014078Y018922D01*
X014078Y019155D01*
X014136Y019214D01*
X014253Y019214D01*
X014311Y019155D01*
X014446Y019214D02*
X014680Y018863D01*
X010536Y023219D02*
X010594Y023277D01*
X010594Y023335D01*
X010536Y023394D01*
X010361Y023394D01*
X010361Y023277D01*
X010419Y023219D01*
X010536Y023219D01*
X010361Y023394D02*
X010478Y023510D01*
X010594Y023569D01*
X010226Y023219D02*
X009993Y023219D01*
X010109Y023219D02*
X010109Y023569D01*
X009993Y023452D01*
X009858Y023510D02*
X009799Y023569D01*
X009683Y023569D01*
X009624Y023510D01*
X009624Y023277D01*
X009683Y023219D01*
X009799Y023219D01*
X009858Y023277D01*
D11*
X011012Y010838D02*
X011012Y010778D01*
X011132Y010658D01*
X011252Y010658D02*
X011012Y010658D01*
X011072Y010530D02*
X011132Y010530D01*
X011132Y010289D01*
X011192Y010289D02*
X011072Y010289D01*
X011012Y010349D01*
X011012Y010470D01*
X011072Y010530D01*
X011252Y010470D02*
X011252Y010349D01*
X011192Y010289D01*
X011252Y010164D02*
X011192Y010104D01*
X010952Y010104D01*
X011012Y010044D02*
X011012Y010164D01*
X011012Y009916D02*
X011012Y009736D01*
X011072Y009676D01*
X011132Y009736D01*
X011132Y009856D01*
X011192Y009916D01*
X011252Y009856D01*
X011252Y009676D01*
X011252Y009547D02*
X011252Y009367D01*
X011192Y009307D01*
X011132Y009367D01*
X011132Y009547D01*
X011072Y009547D02*
X011252Y009547D01*
X011072Y009547D02*
X011012Y009487D01*
X011012Y009367D01*
X010892Y009179D02*
X011252Y009179D01*
X011252Y008939D02*
X010892Y008939D01*
X011012Y009059D01*
X010892Y009179D01*
X010952Y008443D02*
X010892Y008382D01*
X010892Y008262D01*
X010952Y008202D01*
X011192Y008202D01*
X011252Y008262D01*
X011252Y008382D01*
X011192Y008443D01*
X011252Y008074D02*
X011252Y007834D01*
X011012Y008074D01*
X010952Y008074D01*
X010892Y008014D01*
X010892Y007894D01*
X010952Y007834D01*
X010892Y007709D02*
X010892Y007589D01*
X010892Y007649D02*
X011252Y007649D01*
X011252Y007589D02*
X011252Y007709D01*
X011975Y007769D02*
X011975Y007649D01*
X012035Y007589D01*
X012095Y007589D01*
X012155Y007649D01*
X012155Y007769D01*
X012215Y007829D01*
X012275Y007829D01*
X012335Y007769D01*
X012335Y007649D01*
X012275Y007589D01*
X012035Y007829D02*
X011975Y007769D01*
X011975Y007957D02*
X011975Y008137D01*
X012035Y008197D01*
X012155Y008197D01*
X012215Y008137D01*
X012215Y007957D01*
X012335Y007957D02*
X011975Y007957D01*
X011975Y008325D02*
X011975Y008445D01*
X011975Y008385D02*
X012335Y008385D01*
X012335Y008325D02*
X012335Y008445D01*
X012275Y008939D02*
X012335Y008999D01*
X012335Y009119D01*
X012275Y009179D01*
X012215Y009179D01*
X012155Y009119D01*
X012155Y008999D01*
X012095Y008939D01*
X012035Y008939D01*
X011975Y008999D01*
X011975Y009119D01*
X012035Y009179D01*
X011975Y009307D02*
X011975Y009367D01*
X012335Y009367D01*
X012335Y009307D02*
X012335Y009427D01*
X012275Y009553D02*
X012215Y009613D01*
X012215Y009793D01*
X012155Y009793D02*
X012335Y009793D01*
X012335Y009613D01*
X012275Y009553D01*
X012095Y009613D02*
X012095Y009733D01*
X012155Y009793D01*
X012095Y009921D02*
X012335Y010041D01*
X012095Y010161D01*
X012155Y010289D02*
X012095Y010349D01*
X012095Y010470D01*
X012155Y010530D01*
X012215Y010530D01*
X012215Y010289D01*
X012275Y010289D02*
X012155Y010289D01*
X012275Y010289D02*
X012335Y010349D01*
X012335Y010470D01*
X013178Y010470D02*
X013178Y010349D01*
X013238Y010289D01*
X013358Y010289D01*
X013418Y010349D01*
X013418Y010470D01*
X013298Y010530D02*
X013298Y010289D01*
X013418Y010164D02*
X013358Y010104D01*
X013118Y010104D01*
X013178Y010044D02*
X013178Y010164D01*
X013178Y009916D02*
X013178Y009736D01*
X013238Y009676D01*
X013298Y009736D01*
X013298Y009856D01*
X013358Y009916D01*
X013418Y009856D01*
X013418Y009676D01*
X013418Y009547D02*
X013418Y009367D01*
X013358Y009307D01*
X013298Y009367D01*
X013298Y009547D01*
X013238Y009547D02*
X013418Y009547D01*
X013238Y009547D02*
X013178Y009487D01*
X013178Y009367D01*
X013058Y009179D02*
X013418Y009179D01*
X013418Y008939D02*
X013058Y008939D01*
X013178Y009059D01*
X013058Y009179D01*
X013058Y008445D02*
X013058Y008325D01*
X013058Y008385D02*
X013418Y008385D01*
X013418Y008325D02*
X013418Y008445D01*
X013238Y008197D02*
X013118Y008197D01*
X013058Y008137D01*
X013058Y007957D01*
X013418Y007957D01*
X013298Y007957D02*
X013298Y008137D01*
X013238Y008197D01*
X013298Y007829D02*
X013358Y007829D01*
X013418Y007769D01*
X013418Y007649D01*
X013358Y007589D01*
X013238Y007649D02*
X013238Y007769D01*
X013298Y007829D01*
X013118Y007829D02*
X013058Y007769D01*
X013058Y007649D01*
X013118Y007589D01*
X013178Y007589D01*
X013238Y007649D01*
X013178Y010470D02*
X013238Y010530D01*
X013298Y010530D01*
X013298Y010658D02*
X013178Y010778D01*
X013178Y010838D01*
X013178Y010658D02*
X013418Y010658D01*
D12*
X013807Y010915D02*
X013807Y005280D01*
X007262Y005280D01*
X007262Y008233D01*
X007532Y008504D01*
X007532Y009414D01*
X007926Y009808D01*
X010288Y009808D01*
X010682Y010201D01*
X010682Y010915D01*
X013807Y010915D01*
X014013Y011170D02*
X014013Y013170D01*
X016013Y013170D01*
X016013Y012170D01*
X015013Y012170D01*
X015013Y011170D01*
X016013Y011170D01*
X016013Y012170D01*
X016142Y012049D02*
X016142Y011976D01*
X016142Y012049D02*
X016582Y012049D01*
X016582Y011976D02*
X016582Y012123D01*
X016362Y012283D02*
X016362Y012576D01*
X016288Y012743D02*
X016509Y012743D01*
X016582Y012816D01*
X016582Y013037D01*
X016288Y013037D01*
X016288Y013203D02*
X016288Y013424D01*
X016362Y013497D01*
X016509Y013497D01*
X016582Y013424D01*
X016582Y013203D01*
X016729Y013203D02*
X016288Y013203D01*
X016013Y013705D02*
X016013Y014705D01*
X015013Y014705D01*
X015013Y013705D01*
X014013Y013705D01*
X014013Y018705D01*
X016013Y018705D01*
X016013Y014705D01*
X016264Y015054D02*
X016191Y015128D01*
X016191Y015274D01*
X016264Y015348D01*
X016338Y015348D01*
X016631Y015054D01*
X016631Y015348D01*
X016436Y016039D02*
X016436Y016332D01*
X016656Y016259D02*
X016215Y016259D01*
X016436Y016039D01*
X016436Y017023D02*
X016436Y017243D01*
X016509Y017316D01*
X016582Y017316D01*
X016656Y017243D01*
X016656Y017096D01*
X016582Y017023D01*
X016436Y017023D01*
X016289Y017170D01*
X016215Y017316D01*
X014345Y019385D02*
X014419Y019458D01*
X014419Y019532D01*
X014345Y019605D01*
X014125Y019605D01*
X014125Y019458D01*
X014198Y019385D01*
X014345Y019385D01*
X014125Y019605D02*
X014272Y019752D01*
X014419Y019825D01*
X013958Y019752D02*
X013885Y019825D01*
X013738Y019825D01*
X013665Y019752D01*
X013665Y019458D01*
X013738Y019385D01*
X013885Y019385D01*
X013958Y019458D01*
X013827Y017991D02*
X013900Y017918D01*
X013900Y017771D01*
X013827Y017697D01*
X013753Y017531D02*
X013460Y017531D01*
X013533Y017697D02*
X013460Y017771D01*
X013460Y017918D01*
X013533Y017991D01*
X013606Y017991D01*
X013680Y017918D01*
X013753Y017991D01*
X013827Y017991D01*
X013680Y017918D02*
X013680Y017844D01*
X013753Y017531D02*
X013900Y017384D01*
X013753Y017237D01*
X013460Y017237D01*
X013533Y017070D02*
X013460Y016997D01*
X013460Y016850D01*
X013533Y016777D01*
X013680Y016923D02*
X013680Y016997D01*
X013753Y017070D01*
X013827Y017070D01*
X013900Y016997D01*
X013900Y016850D01*
X013827Y016777D01*
X013680Y016997D02*
X013606Y017070D01*
X013533Y017070D01*
X013460Y016332D02*
X013460Y016039D01*
X013680Y016039D01*
X013606Y016185D01*
X013606Y016259D01*
X013680Y016332D01*
X013827Y016332D01*
X013900Y016259D01*
X013900Y016112D01*
X013827Y016039D01*
X013802Y015446D02*
X013875Y015373D01*
X013875Y015226D01*
X013802Y015153D01*
X013655Y015299D02*
X013655Y015373D01*
X013729Y015446D01*
X013802Y015446D01*
X013655Y015373D02*
X013582Y015446D01*
X013508Y015446D01*
X013435Y015373D01*
X013435Y015226D01*
X013508Y015153D01*
X013285Y015307D02*
X013211Y015234D01*
X013285Y015307D02*
X013285Y015454D01*
X013211Y015528D01*
X013138Y015528D01*
X013065Y015454D01*
X013065Y015307D01*
X012991Y015234D01*
X012918Y015234D01*
X012844Y015307D01*
X012844Y015454D01*
X012918Y015528D01*
X012546Y015796D02*
X012546Y018190D01*
X012469Y018266D01*
X010076Y018266D01*
X009999Y018190D01*
X009999Y015796D01*
X010076Y015719D01*
X012469Y015719D01*
X012546Y015796D01*
X012844Y015067D02*
X013211Y015067D01*
X013285Y014994D01*
X013285Y014847D01*
X013211Y014774D01*
X012844Y014774D01*
X012918Y014607D02*
X012991Y014607D01*
X013065Y014534D01*
X013065Y014313D01*
X013285Y014313D02*
X012844Y014313D01*
X012844Y014534D01*
X012918Y014607D01*
X013065Y014534D02*
X013138Y014607D01*
X013211Y014607D01*
X013285Y014534D01*
X013285Y014313D01*
X013435Y014315D02*
X013875Y014315D01*
X013875Y014168D02*
X013875Y014462D01*
X013582Y014168D02*
X013435Y014315D01*
X013211Y013686D02*
X012918Y013686D01*
X012844Y013613D01*
X012844Y013466D01*
X012918Y013393D01*
X013211Y013393D01*
X013285Y013466D01*
X013285Y013613D01*
X013211Y013686D01*
X013285Y013233D02*
X013285Y013086D01*
X013285Y013159D02*
X012844Y013159D01*
X012844Y013086D02*
X012844Y013233D01*
X012424Y013176D02*
X012350Y013249D01*
X012057Y013249D01*
X011983Y013176D01*
X011983Y013029D01*
X012057Y012956D01*
X012130Y012956D01*
X012203Y013029D01*
X012203Y013249D01*
X012424Y013176D02*
X012424Y013029D01*
X012350Y012956D01*
X012350Y012789D02*
X012424Y012715D01*
X012424Y012569D01*
X012350Y012495D01*
X012057Y012495D01*
X011983Y012569D01*
X011983Y012715D01*
X012057Y012789D01*
X011833Y012715D02*
X011833Y012569D01*
X011760Y012495D01*
X011466Y012495D01*
X011393Y012569D01*
X011393Y012715D01*
X011466Y012789D01*
X011466Y012956D02*
X011539Y012956D01*
X011613Y013029D01*
X011613Y013176D01*
X011686Y013249D01*
X011760Y013249D01*
X011833Y013176D01*
X011833Y013029D01*
X011760Y012956D01*
X011686Y012956D01*
X011613Y013029D01*
X011613Y013176D02*
X011539Y013249D01*
X011466Y013249D01*
X011393Y013176D01*
X011393Y013029D01*
X011466Y012956D01*
X011760Y012789D02*
X011833Y012715D01*
X011795Y012247D02*
X012015Y012247D01*
X012088Y012173D01*
X012088Y012026D01*
X012015Y011953D01*
X011795Y011953D01*
X011941Y011953D02*
X012088Y011806D01*
X012015Y011656D02*
X012088Y011583D01*
X012088Y011436D01*
X012015Y011362D01*
X011795Y011362D01*
X011795Y011216D02*
X011795Y011656D01*
X012015Y011656D01*
X011795Y011806D02*
X011795Y012247D01*
X012255Y012247D02*
X012255Y012026D01*
X012402Y012100D01*
X012475Y012100D01*
X012549Y012026D01*
X012549Y011880D01*
X012475Y011806D01*
X012328Y011806D01*
X012255Y011880D01*
X012402Y011583D02*
X012255Y011436D01*
X012475Y011436D01*
X012549Y011362D01*
X012549Y011289D01*
X012475Y011216D01*
X012328Y011216D01*
X012255Y011289D01*
X012255Y011436D01*
X012402Y011583D02*
X012549Y011656D01*
X012549Y012247D02*
X012255Y012247D01*
X011941Y011362D02*
X012088Y011216D01*
X014013Y011170D02*
X015013Y011170D01*
X015013Y010619D02*
X015013Y009619D01*
X014013Y009619D01*
X014013Y007619D01*
X016013Y007619D01*
X016013Y010619D01*
X015013Y010619D01*
X014013Y010619D01*
X014013Y009619D01*
X016142Y009637D02*
X016142Y009784D01*
X016142Y009710D02*
X016582Y009710D01*
X016582Y009637D02*
X016582Y009784D01*
X016509Y009944D02*
X016582Y010017D01*
X016582Y010164D01*
X016509Y010237D01*
X016362Y010237D01*
X016362Y010090D01*
X016215Y009944D02*
X016509Y009944D01*
X016215Y009944D02*
X016142Y010017D01*
X016142Y010164D01*
X016215Y010237D01*
X016288Y010748D02*
X016288Y010968D01*
X016362Y011042D01*
X016509Y011042D01*
X016582Y010968D01*
X016582Y010748D01*
X016729Y010748D02*
X016288Y010748D01*
X016288Y011209D02*
X016509Y011209D01*
X016582Y011282D01*
X016582Y011502D01*
X016288Y011502D01*
X016142Y011669D02*
X016142Y011742D01*
X016582Y011742D01*
X016582Y011669D02*
X016582Y011816D01*
X016013Y013705D02*
X015013Y013705D01*
X016215Y014143D02*
X016215Y014290D01*
X016289Y014364D01*
X016582Y014070D01*
X016656Y014143D01*
X016656Y014290D01*
X016582Y014364D01*
X016289Y014364D01*
X016215Y014143D02*
X016289Y014070D01*
X016582Y014070D01*
X016142Y009470D02*
X016142Y009176D01*
X016582Y009176D01*
X016582Y009010D02*
X016142Y009010D01*
X016362Y009176D02*
X016362Y009323D01*
X016582Y009010D02*
X016142Y008716D01*
X016582Y008716D01*
X016509Y008549D02*
X016582Y008476D01*
X016582Y008329D01*
X016509Y008256D01*
X016215Y008256D01*
X016142Y008329D01*
X016142Y008476D01*
X016215Y008549D01*
X016509Y008549D01*
X016509Y008089D02*
X016582Y008016D01*
X016582Y007869D01*
X016509Y007795D01*
X016215Y007795D01*
X016142Y007869D01*
X016142Y008016D01*
X016215Y008089D01*
X013566Y004890D02*
X013346Y004890D01*
X013272Y004817D01*
X013346Y004743D01*
X013492Y004743D01*
X013566Y004670D01*
X013492Y004597D01*
X013272Y004597D01*
X013105Y004743D02*
X013105Y004817D01*
X013032Y004890D01*
X012885Y004890D01*
X012812Y004817D01*
X012812Y004670D01*
X012885Y004597D01*
X013032Y004597D01*
X013105Y004743D02*
X012812Y004743D01*
X012645Y004817D02*
X012645Y004670D01*
X012572Y004597D01*
X012351Y004597D01*
X012351Y004450D02*
X012351Y004890D01*
X012572Y004890D01*
X012645Y004817D01*
X012185Y004890D02*
X012185Y004523D01*
X012111Y004450D01*
X012038Y004450D01*
X011964Y004597D02*
X012185Y004597D01*
X011964Y004597D02*
X011891Y004670D01*
X011891Y004890D01*
X011731Y004890D02*
X011584Y004890D01*
X011658Y004964D02*
X011658Y004670D01*
X011731Y004597D01*
X011417Y004670D02*
X011417Y004817D01*
X011344Y004890D01*
X011197Y004890D01*
X011124Y004817D01*
X011124Y004670D01*
X011197Y004597D01*
X011344Y004597D01*
X011417Y004670D01*
X010964Y004597D02*
X010890Y004670D01*
X010890Y004964D01*
X010817Y004890D02*
X010964Y004890D01*
X010650Y004817D02*
X010650Y004670D01*
X010577Y004597D01*
X010430Y004597D01*
X010357Y004670D01*
X010357Y004817D01*
X010430Y004890D01*
X010577Y004890D01*
X010650Y004817D01*
X010193Y004890D02*
X010120Y004890D01*
X009973Y004743D01*
X009973Y004597D02*
X009973Y004890D01*
X009806Y004817D02*
X009806Y004670D01*
X009733Y004597D01*
X009513Y004597D01*
X009513Y004450D02*
X009513Y004890D01*
X009733Y004890D01*
X009806Y004817D01*
X009346Y004890D02*
X009126Y004890D01*
X009052Y004817D01*
X009126Y004743D01*
X009272Y004743D01*
X009346Y004670D01*
X009272Y004597D01*
X009052Y004597D01*
X008885Y004597D02*
X008885Y004890D01*
X008592Y004890D02*
X008592Y004670D01*
X008665Y004597D01*
X008885Y004597D01*
X008425Y004670D02*
X008425Y004817D01*
X008352Y004890D01*
X008205Y004890D01*
X008132Y004817D01*
X008132Y004670D01*
X008205Y004597D01*
X008352Y004597D01*
X008425Y004670D01*
X007968Y004890D02*
X007895Y004890D01*
X007748Y004743D01*
X007748Y004597D02*
X007748Y004890D01*
X007581Y004817D02*
X007581Y004743D01*
X007288Y004743D01*
X007288Y004670D02*
X007288Y004817D01*
X007361Y004890D01*
X007508Y004890D01*
X007581Y004817D01*
X007508Y004597D02*
X007361Y004597D01*
X007288Y004670D01*
X007121Y004597D02*
X006901Y004597D01*
X006827Y004670D01*
X006827Y004817D01*
X006901Y004890D01*
X007121Y004890D01*
X007121Y004523D01*
X007047Y004450D01*
X006974Y004450D01*
X006660Y004597D02*
X006660Y004817D01*
X006587Y004890D01*
X006367Y004890D01*
X006367Y004597D01*
X006200Y004597D02*
X005980Y004597D01*
X005906Y004670D01*
X005980Y004743D01*
X006200Y004743D01*
X006200Y004817D02*
X006200Y004597D01*
X006200Y004817D02*
X006127Y004890D01*
X005980Y004890D01*
X005740Y004964D02*
X005740Y004670D01*
X005666Y004597D01*
X005446Y004597D01*
X005446Y005037D01*
X005666Y005037D01*
X005740Y004964D01*
X005685Y006762D02*
X005979Y006762D01*
X005832Y006762D02*
X005832Y007202D01*
X005685Y007056D01*
X005518Y007202D02*
X005518Y006909D01*
X005371Y006762D01*
X005225Y006909D01*
X005225Y007202D01*
X005089Y007451D02*
X005163Y007524D01*
X005163Y007818D01*
X005089Y007891D01*
X004942Y007891D01*
X004869Y007818D01*
X004869Y007524D01*
X004942Y007451D01*
X005089Y007451D01*
X005329Y007524D02*
X005329Y007891D01*
X005623Y007891D02*
X005623Y007524D01*
X005549Y007451D01*
X005403Y007451D01*
X005329Y007524D01*
X005790Y007891D02*
X006083Y007891D01*
X005936Y007891D02*
X005936Y007451D01*
X006145Y007202D02*
X006145Y006762D01*
X006366Y006762D01*
X006439Y006835D01*
X006439Y006982D01*
X006366Y007056D01*
X006145Y007056D01*
X004702Y007451D02*
X004482Y007671D01*
X004409Y007598D02*
X004702Y007891D01*
X004409Y007891D02*
X004409Y007451D01*
X004242Y007451D02*
X004242Y007744D01*
X004095Y007891D01*
X003948Y007744D01*
X003948Y007451D01*
X003781Y007451D02*
X003488Y007451D01*
X003488Y007891D01*
X003781Y007891D01*
X003635Y007671D02*
X003488Y007671D01*
X003321Y007671D02*
X003248Y007598D01*
X003028Y007598D01*
X003174Y007598D02*
X003321Y007451D01*
X003321Y007671D02*
X003321Y007818D01*
X003248Y007891D01*
X003028Y007891D01*
X003028Y007451D01*
X002861Y007524D02*
X002787Y007451D01*
X002567Y007451D01*
X002567Y007891D01*
X002787Y007891D01*
X002861Y007818D01*
X002861Y007744D01*
X002787Y007671D01*
X002567Y007671D01*
X002787Y007671D02*
X002861Y007598D01*
X002861Y007524D01*
X002567Y008238D02*
X002567Y008679D01*
X002861Y008679D01*
X003028Y008679D02*
X003321Y008679D01*
X003174Y008679D02*
X003174Y008238D01*
X003488Y008312D02*
X003561Y008238D01*
X003708Y008238D01*
X003781Y008312D01*
X003781Y008385D01*
X003708Y008458D01*
X003635Y008458D01*
X003708Y008458D02*
X003781Y008532D01*
X003781Y008605D01*
X003708Y008679D01*
X003561Y008679D01*
X003488Y008605D01*
X003948Y008532D02*
X004095Y008679D01*
X004095Y008238D01*
X003948Y008238D02*
X004242Y008238D01*
X004409Y008238D02*
X004702Y008238D01*
X004555Y008238D02*
X004555Y008679D01*
X004409Y008532D01*
X004242Y007671D02*
X003948Y007671D01*
X002714Y008458D02*
X002567Y008458D01*
X003428Y010035D02*
X003428Y010475D01*
X003649Y010475D01*
X003722Y010402D01*
X003722Y010255D01*
X003649Y010181D01*
X003428Y010181D01*
X003889Y010035D02*
X004036Y010181D01*
X004182Y010035D01*
X004182Y010475D01*
X004349Y010475D02*
X004569Y010475D01*
X004643Y010402D01*
X004643Y010255D01*
X004569Y010181D01*
X004349Y010181D01*
X004349Y010035D02*
X004349Y010475D01*
X004496Y010181D02*
X004643Y010035D01*
X003889Y010035D02*
X003889Y010475D01*
X003585Y011732D02*
X003365Y011732D01*
X003365Y012173D01*
X003585Y012173D01*
X003658Y012099D01*
X003658Y012026D01*
X003585Y011953D01*
X003365Y011953D01*
X003198Y011879D02*
X003198Y011806D01*
X003125Y011732D01*
X002978Y011732D01*
X002905Y011806D01*
X002978Y011953D02*
X003125Y011953D01*
X003198Y011879D01*
X003198Y012099D02*
X003125Y012173D01*
X002978Y012173D01*
X002905Y012099D01*
X002905Y012026D01*
X002978Y011953D01*
X002738Y011806D02*
X002738Y012173D01*
X002444Y012173D02*
X002444Y011806D01*
X002518Y011732D01*
X002664Y011732D01*
X002738Y011806D01*
X003585Y011732D02*
X003658Y011806D01*
X003658Y011879D01*
X003585Y011953D01*
X004286Y011953D02*
X004432Y011953D01*
X004286Y012173D02*
X004286Y011732D01*
X004579Y011732D01*
X004746Y011732D02*
X004746Y012173D01*
X004966Y012173D01*
X005040Y012099D01*
X005040Y011953D01*
X004966Y011879D01*
X004746Y011879D01*
X004893Y011879D02*
X005040Y011732D01*
X005206Y011732D02*
X005206Y012173D01*
X005426Y012173D01*
X005500Y012099D01*
X005500Y011953D01*
X005426Y011879D01*
X005206Y011879D01*
X005353Y011879D02*
X005500Y011732D01*
X005667Y011806D02*
X005740Y011732D01*
X005887Y011732D01*
X005960Y011806D01*
X005960Y012099D01*
X005887Y012173D01*
X005740Y012173D01*
X005667Y012099D01*
X005667Y011806D01*
X006127Y011879D02*
X006347Y011879D01*
X006421Y011953D01*
X006421Y012099D01*
X006347Y012173D01*
X006127Y012173D01*
X006127Y011732D01*
X006086Y011558D02*
X006306Y011558D01*
X006379Y011484D01*
X006379Y011337D01*
X006306Y011264D01*
X006086Y011264D01*
X006233Y011264D02*
X006379Y011117D01*
X006546Y011337D02*
X006840Y011337D01*
X006766Y011117D02*
X006766Y011558D01*
X006546Y011337D01*
X006421Y011732D02*
X006274Y011879D01*
X006086Y011558D02*
X006086Y011117D01*
X006086Y009688D02*
X006306Y009688D01*
X006379Y009614D01*
X006379Y009467D01*
X006306Y009394D01*
X006086Y009394D01*
X006233Y009394D02*
X006379Y009247D01*
X006546Y009321D02*
X006620Y009247D01*
X006766Y009247D01*
X006840Y009321D01*
X006840Y009394D01*
X006766Y009467D01*
X006693Y009467D01*
X006766Y009467D02*
X006840Y009541D01*
X006840Y009614D01*
X006766Y009688D01*
X006620Y009688D01*
X006546Y009614D01*
X006086Y009688D02*
X006086Y009247D01*
X004579Y012173D02*
X004286Y012173D01*
X005076Y013613D02*
X002178Y013613D01*
X002040Y013613D01*
X002021Y013611D01*
X002002Y013606D01*
X001985Y013598D01*
X001969Y013587D01*
X001956Y013574D01*
X001945Y013558D01*
X001937Y013541D01*
X001932Y013522D01*
X001930Y013503D01*
X001930Y013337D01*
X001804Y013337D01*
X001804Y013556D01*
X001818Y013585D01*
X001835Y013612D01*
X001854Y013637D01*
X001877Y013660D01*
X001901Y013680D01*
X001928Y013698D01*
X001956Y013712D01*
X001986Y013724D01*
X002017Y013732D01*
X002048Y013737D01*
X002080Y013739D01*
X002178Y013739D01*
X002178Y013613D01*
X002178Y013739D02*
X002178Y013959D01*
X001804Y014007D01*
X001804Y014235D01*
X001906Y014235D01*
X001906Y013994D01*
X001906Y014235D02*
X001906Y018176D01*
X001804Y018176D01*
X001804Y014235D01*
X002178Y013959D02*
X002178Y016205D01*
X002691Y016205D01*
X003035Y016334D02*
X003181Y016334D01*
X003108Y016334D02*
X003108Y016774D01*
X003035Y016774D02*
X003181Y016774D01*
X003342Y016554D02*
X003635Y016554D01*
X003802Y016627D02*
X003875Y016554D01*
X004022Y016554D01*
X004096Y016481D01*
X004096Y016407D01*
X004022Y016334D01*
X003875Y016334D01*
X003802Y016407D01*
X003802Y016627D02*
X003802Y016701D01*
X003875Y016774D01*
X004022Y016774D01*
X004096Y016701D01*
X003992Y016205D02*
X004505Y016205D01*
X004723Y016334D02*
X005016Y016627D01*
X005016Y016701D01*
X004943Y016774D01*
X004796Y016774D01*
X004723Y016701D01*
X004723Y016334D02*
X005016Y016334D01*
X004898Y016205D02*
X005412Y016205D01*
X005403Y016334D02*
X005256Y016334D01*
X005183Y016407D01*
X005477Y016701D01*
X005477Y016407D01*
X005403Y016334D01*
X005183Y016407D02*
X005183Y016701D01*
X005256Y016774D01*
X005403Y016774D01*
X005477Y016701D01*
X005643Y016627D02*
X005790Y016774D01*
X005790Y016334D01*
X005805Y016205D02*
X006318Y016205D01*
X006397Y016334D02*
X006104Y016334D01*
X006397Y016627D01*
X006397Y016701D01*
X006324Y016774D01*
X006177Y016774D01*
X006104Y016701D01*
X005937Y016334D02*
X005643Y016334D01*
X005410Y015174D02*
X005410Y015101D01*
X005410Y014954D02*
X005410Y014661D01*
X005483Y014661D02*
X005336Y014661D01*
X005170Y014661D02*
X004949Y014661D01*
X004876Y014734D01*
X004876Y014881D01*
X004949Y014954D01*
X005170Y014954D01*
X005336Y014954D02*
X005410Y014954D01*
X005643Y014881D02*
X005643Y014734D01*
X005717Y014661D01*
X005864Y014661D01*
X005937Y014734D01*
X005937Y014881D01*
X005864Y014954D01*
X005717Y014954D01*
X005643Y014881D01*
X004709Y014881D02*
X004709Y014734D01*
X004636Y014661D01*
X004489Y014661D01*
X004416Y014734D01*
X004416Y014881D01*
X004489Y014954D01*
X004636Y014954D01*
X004709Y014881D01*
X004252Y014954D02*
X004179Y014954D01*
X004032Y014807D01*
X004032Y014661D02*
X004032Y014954D01*
X003872Y014954D02*
X003725Y014954D01*
X003799Y015028D02*
X003799Y014734D01*
X003872Y014661D01*
X003568Y014661D02*
X003495Y014661D01*
X003495Y014734D01*
X003568Y014734D01*
X003568Y014661D01*
X003328Y014954D02*
X003181Y014661D01*
X003035Y014954D01*
X003085Y016205D02*
X003598Y016205D01*
X003488Y016407D02*
X003488Y016701D01*
X003507Y017810D02*
X003507Y018104D01*
X003727Y018104D01*
X003800Y018030D01*
X003800Y017810D01*
X003340Y017810D02*
X003120Y017810D01*
X003046Y017884D01*
X003120Y017957D01*
X003340Y017957D01*
X003340Y018030D02*
X003340Y017810D01*
X003340Y018030D02*
X003266Y018104D01*
X003120Y018104D01*
X002886Y018251D02*
X002739Y018251D01*
X002813Y018251D02*
X002813Y017810D01*
X002886Y017810D02*
X002739Y017810D01*
X002178Y018451D02*
X002178Y016205D01*
X001906Y018176D02*
X001906Y018416D01*
X001804Y018403D02*
X001804Y018176D01*
X001804Y018403D02*
X002178Y018451D01*
X002178Y018625D01*
X005131Y018625D01*
X005076Y018798D02*
X002178Y018798D01*
X002040Y018798D01*
X002021Y018800D01*
X002002Y018805D01*
X001985Y018813D01*
X001969Y018824D01*
X001956Y018837D01*
X001945Y018853D01*
X001937Y018870D01*
X001932Y018889D01*
X001930Y018908D01*
X001930Y019073D01*
X001804Y019073D01*
X001804Y018855D01*
X001804Y018854D02*
X001818Y018825D01*
X001835Y018798D01*
X001854Y018773D01*
X001877Y018750D01*
X001901Y018730D01*
X001928Y018712D01*
X001956Y018698D01*
X001986Y018686D01*
X002017Y018678D01*
X002048Y018673D01*
X002080Y018671D01*
X002080Y018672D02*
X002178Y018672D01*
X002178Y018798D01*
X002178Y018672D02*
X002178Y018625D01*
X002641Y019582D02*
X002935Y019582D01*
X003101Y019582D02*
X003395Y019582D01*
X003248Y019582D02*
X003248Y020022D01*
X003101Y019875D01*
X002641Y020022D02*
X002641Y019582D01*
X002714Y020861D02*
X002641Y020935D01*
X002641Y021228D01*
X002714Y021302D01*
X002861Y021302D01*
X002935Y021228D01*
X002935Y020935D01*
X002861Y020861D01*
X002714Y020861D01*
X002788Y021008D02*
X002935Y020861D01*
X003101Y020861D02*
X003395Y020861D01*
X003248Y020861D02*
X003248Y021302D01*
X003101Y021155D01*
X002910Y021851D02*
X002983Y021924D01*
X002983Y022071D01*
X002910Y022144D01*
X002910Y021851D02*
X002836Y021851D01*
X002543Y022144D01*
X002543Y021851D01*
X002543Y022311D02*
X002543Y022605D01*
X002543Y022458D02*
X002983Y022458D01*
X002836Y022605D01*
X002910Y022772D02*
X002983Y022845D01*
X002983Y022992D01*
X002910Y023065D01*
X002616Y023065D01*
X002543Y022992D01*
X002543Y022845D01*
X002616Y022772D01*
X002524Y023532D02*
X002524Y023826D01*
X002524Y023679D02*
X002964Y023679D01*
X002817Y023826D01*
X002524Y023992D02*
X002524Y024286D01*
X002524Y024139D02*
X002964Y024139D01*
X002817Y024286D01*
X002891Y024453D02*
X002964Y024526D01*
X002964Y024673D01*
X002891Y024746D01*
X002597Y024746D01*
X002524Y024673D01*
X002524Y024526D01*
X002597Y024453D01*
X002711Y024594D02*
X002858Y024594D01*
X002931Y024667D01*
X003098Y024594D02*
X003392Y024594D01*
X003245Y024594D02*
X003245Y025034D01*
X003098Y024887D01*
X002931Y024961D02*
X002858Y025034D01*
X002711Y025034D01*
X002638Y024961D01*
X002638Y024667D01*
X002711Y024594D01*
X003559Y024667D02*
X003852Y024961D01*
X003852Y024667D01*
X003779Y024594D01*
X003632Y024594D01*
X003559Y024667D01*
X003559Y024961D01*
X003632Y025034D01*
X003779Y025034D01*
X003852Y024961D01*
X005061Y024856D02*
X005061Y026256D01*
X007641Y026256D01*
X007641Y024856D01*
X005061Y024856D01*
X005864Y023073D02*
X005791Y023000D01*
X005791Y022706D01*
X005864Y022633D01*
X006011Y022633D01*
X006084Y022706D01*
X006251Y022633D02*
X006545Y022633D01*
X006398Y022633D02*
X006398Y023073D01*
X006251Y022927D01*
X006084Y023000D02*
X006011Y023073D01*
X005864Y023073D01*
X005973Y022273D02*
X010273Y022273D01*
X010290Y022271D01*
X010307Y022267D01*
X010323Y022260D01*
X010337Y022250D01*
X010350Y022237D01*
X010360Y022223D01*
X010367Y022207D01*
X010371Y022190D01*
X010373Y022173D01*
X010373Y021773D01*
X010373Y020873D02*
X010373Y020473D01*
X010371Y020456D01*
X010367Y020439D01*
X010360Y020423D01*
X010350Y020409D01*
X010337Y020396D01*
X010323Y020386D01*
X010307Y020379D01*
X010290Y020375D01*
X010273Y020373D01*
X005973Y020373D01*
X005956Y020375D01*
X005939Y020379D01*
X005923Y020386D01*
X005909Y020396D01*
X005896Y020409D01*
X005886Y020423D01*
X005879Y020439D01*
X005875Y020456D01*
X005873Y020473D01*
X005873Y020873D01*
X005873Y021773D02*
X005873Y022173D01*
X005875Y022190D01*
X005879Y022207D01*
X005886Y022223D01*
X005896Y022237D01*
X005909Y022250D01*
X005923Y022260D01*
X005939Y022267D01*
X005956Y022271D01*
X005973Y022273D01*
X005707Y021961D02*
X005414Y021961D01*
X005414Y022402D01*
X005247Y022255D02*
X005247Y021961D01*
X005247Y022181D02*
X004953Y022181D01*
X004953Y022255D02*
X005100Y022402D01*
X005247Y022255D01*
X004953Y022255D02*
X004953Y021961D01*
X004640Y021961D02*
X004640Y022402D01*
X004493Y022402D02*
X004787Y022402D01*
X004326Y022402D02*
X004033Y021961D01*
X004326Y021961D02*
X004033Y022402D01*
X004126Y021490D02*
X004446Y021490D01*
X004446Y021270D01*
X004446Y020590D02*
X004446Y020370D01*
X004126Y020370D01*
X004427Y018251D02*
X004427Y017810D01*
X004721Y017810D01*
X004888Y017884D02*
X004888Y018030D01*
X004961Y018104D01*
X005108Y018104D01*
X005181Y018030D01*
X005181Y017957D01*
X004888Y017957D01*
X004888Y017884D02*
X004961Y017810D01*
X005108Y017810D01*
X005348Y017810D02*
X005568Y017810D01*
X005642Y017884D01*
X005568Y017957D01*
X005421Y017957D01*
X005348Y018030D01*
X005421Y018104D01*
X005642Y018104D01*
X005808Y018104D02*
X005808Y017810D01*
X005808Y018104D02*
X006029Y018104D01*
X006102Y018030D01*
X006102Y017810D01*
X006269Y017884D02*
X006269Y018030D01*
X006342Y018104D01*
X006489Y018104D01*
X006562Y018030D01*
X006562Y017957D01*
X006269Y017957D01*
X006269Y017884D02*
X006342Y017810D01*
X006489Y017810D01*
X006803Y017884D02*
X006803Y018177D01*
X006729Y018104D02*
X006876Y018104D01*
X006803Y017884D02*
X006876Y017810D01*
X007375Y018148D02*
X007375Y018908D01*
X007373Y018922D01*
X007369Y018935D01*
X007361Y018947D01*
X007351Y018957D01*
X007339Y018965D01*
X007326Y018969D01*
X007312Y018971D01*
X006729Y018971D01*
X006729Y018798D01*
X006643Y018798D02*
X007225Y018798D01*
X007225Y018522D01*
X007099Y018522D01*
X007099Y018625D01*
X006509Y018625D01*
X007099Y018625D02*
X007099Y018798D01*
X007661Y018349D02*
X007661Y017982D01*
X007734Y017909D01*
X007881Y017909D01*
X007954Y017982D01*
X007954Y018349D01*
X008121Y018276D02*
X008121Y018202D01*
X008194Y018129D01*
X008341Y018129D01*
X008415Y018055D01*
X008415Y017982D01*
X008341Y017909D01*
X008194Y017909D01*
X008121Y017982D01*
X008121Y018276D02*
X008194Y018349D01*
X008341Y018349D01*
X008415Y018276D01*
X008581Y018349D02*
X008581Y017909D01*
X008802Y017909D01*
X008875Y017982D01*
X008875Y018055D01*
X008802Y018129D01*
X008581Y018129D01*
X008581Y018349D02*
X008802Y018349D01*
X008875Y018276D01*
X008875Y018202D01*
X008802Y018129D01*
X009112Y019090D02*
X009259Y019090D01*
X009332Y019163D01*
X009499Y019090D02*
X009793Y019090D01*
X009646Y019090D02*
X009646Y019530D01*
X009499Y019383D01*
X009332Y019457D02*
X009259Y019530D01*
X009112Y019530D01*
X009039Y019457D01*
X009039Y019163D01*
X009112Y019090D01*
X009112Y019680D02*
X009259Y019680D01*
X009332Y019754D01*
X009499Y019680D02*
X009793Y019680D01*
X009646Y019680D02*
X009646Y020121D01*
X009499Y019974D01*
X009332Y020047D02*
X009259Y020121D01*
X009112Y020121D01*
X009039Y020047D01*
X009039Y019754D01*
X009112Y019680D01*
X009959Y019900D02*
X010253Y019900D01*
X010180Y019680D02*
X010180Y020121D01*
X009959Y019900D01*
X010033Y019530D02*
X010180Y019530D01*
X010253Y019457D01*
X010253Y019383D01*
X010180Y019310D01*
X010253Y019236D01*
X010253Y019163D01*
X010180Y019090D01*
X010033Y019090D01*
X009959Y019163D01*
X010106Y019310D02*
X010180Y019310D01*
X010033Y019530D02*
X009959Y019457D01*
X010909Y019530D02*
X011056Y019530D01*
X010982Y019530D02*
X010982Y019090D01*
X010909Y019090D02*
X011056Y019090D01*
X011216Y019163D02*
X011216Y019457D01*
X011289Y019530D01*
X011436Y019530D01*
X011509Y019457D01*
X011676Y019383D02*
X011823Y019530D01*
X011823Y019090D01*
X011676Y019090D02*
X011970Y019090D01*
X011509Y019163D02*
X011436Y019090D01*
X011289Y019090D01*
X011216Y019163D01*
X012019Y017926D02*
X012021Y017953D01*
X012027Y017979D01*
X012036Y018004D01*
X012049Y018027D01*
X012065Y018048D01*
X012084Y018067D01*
X012105Y018083D01*
X012128Y018096D01*
X012153Y018105D01*
X012179Y018111D01*
X012206Y018113D01*
X012233Y018111D01*
X012259Y018105D01*
X012284Y018096D01*
X012307Y018083D01*
X012328Y018067D01*
X012347Y018048D01*
X012363Y018027D01*
X012376Y018004D01*
X012385Y017979D01*
X012391Y017953D01*
X012393Y017926D01*
X012391Y017899D01*
X012385Y017873D01*
X012376Y017848D01*
X012363Y017825D01*
X012347Y017804D01*
X012328Y017785D01*
X012307Y017769D01*
X012284Y017756D01*
X012259Y017747D01*
X012233Y017741D01*
X012206Y017739D01*
X012179Y017741D01*
X012153Y017747D01*
X012128Y017756D01*
X012105Y017769D01*
X012084Y017785D01*
X012065Y017804D01*
X012049Y017825D01*
X012036Y017848D01*
X012027Y017873D01*
X012021Y017899D01*
X012019Y017926D01*
X010014Y015002D02*
X009868Y015002D01*
X009794Y014929D01*
X009628Y014929D02*
X009628Y014782D01*
X009554Y014709D01*
X009334Y014709D01*
X009481Y014709D02*
X009628Y014562D01*
X009794Y014562D02*
X010088Y014856D01*
X010088Y014929D01*
X010014Y015002D01*
X010088Y014562D02*
X009794Y014562D01*
X009628Y014929D02*
X009554Y015002D01*
X009334Y015002D01*
X009334Y014562D01*
X008611Y013972D02*
X008318Y013972D01*
X008465Y013972D02*
X008465Y014412D01*
X008318Y014265D01*
X008151Y014339D02*
X008078Y014412D01*
X007931Y014412D01*
X007858Y014339D01*
X007858Y014045D01*
X007931Y013972D01*
X008078Y013972D01*
X008151Y014045D01*
X007375Y014262D02*
X007375Y013503D01*
X007373Y013489D01*
X007369Y013476D01*
X007361Y013464D01*
X007351Y013454D01*
X007339Y013446D01*
X007326Y013442D01*
X007312Y013440D01*
X006729Y013440D01*
X006729Y013613D01*
X006643Y013613D02*
X007225Y013613D01*
X007225Y013888D01*
X007099Y013888D01*
X007099Y013613D01*
X007099Y013786D02*
X006509Y013786D01*
X007312Y013440D02*
X007326Y013442D01*
X007339Y013446D01*
X007351Y013454D01*
X007361Y013464D01*
X007369Y013476D01*
X007373Y013489D01*
X007375Y013503D01*
X007661Y013157D02*
X007661Y012864D01*
X007734Y012790D01*
X007881Y012790D01*
X007954Y012864D01*
X008121Y012790D02*
X008415Y013084D01*
X008415Y013157D01*
X008341Y013231D01*
X008194Y013231D01*
X008121Y013157D01*
X007954Y013157D02*
X007881Y013231D01*
X007734Y013231D01*
X007661Y013157D01*
X008121Y012790D02*
X008415Y012790D01*
X009334Y012839D02*
X009554Y012839D01*
X009628Y012912D01*
X009628Y013059D01*
X009554Y013132D01*
X009334Y013132D01*
X009334Y012692D01*
X009481Y012839D02*
X009628Y012692D01*
X009794Y012692D02*
X010088Y012692D01*
X009941Y012692D02*
X009941Y013132D01*
X009794Y012986D01*
X008121Y016235D02*
X008121Y016309D01*
X008415Y016602D01*
X008415Y016676D01*
X008121Y016676D01*
X007954Y016602D02*
X007881Y016676D01*
X007734Y016676D01*
X007661Y016602D01*
X007661Y016309D01*
X007734Y016235D01*
X007881Y016235D01*
X007954Y016309D01*
X007225Y016205D02*
X006712Y016205D01*
X005131Y013786D02*
X002178Y013786D01*
X007873Y021073D02*
X007873Y021323D01*
X007873Y021573D01*
X008023Y021573D02*
X008223Y021573D01*
X008223Y021073D01*
X008023Y021073D01*
X008023Y021573D01*
X008373Y021573D02*
X008373Y021323D01*
X008373Y021073D01*
X006931Y022633D02*
X006785Y022633D01*
X006711Y022706D01*
X006711Y022853D02*
X006858Y022927D01*
X006931Y022927D01*
X007005Y022853D01*
X007005Y022706D01*
X006931Y022633D01*
X006711Y022853D02*
X006711Y023073D01*
X007005Y023073D01*
X007661Y023297D02*
X007734Y023224D01*
X007881Y023224D01*
X007954Y023297D01*
X008121Y023444D02*
X008415Y023444D01*
X008341Y023664D02*
X008121Y023444D01*
X007954Y023591D02*
X007881Y023664D01*
X007734Y023664D01*
X007661Y023591D01*
X007661Y023297D01*
X008341Y023224D02*
X008341Y023664D01*
X008604Y024856D02*
X008604Y026256D01*
X011185Y026256D01*
X011185Y024856D01*
X008604Y024856D01*
X008992Y027362D02*
X008845Y027509D01*
X008845Y027803D01*
X009138Y027803D02*
X009138Y027509D01*
X008992Y027362D01*
X009305Y027362D02*
X009305Y027803D01*
X009525Y027803D01*
X009599Y027729D01*
X009599Y027582D01*
X009525Y027509D01*
X009305Y027509D01*
X009452Y027509D02*
X009599Y027362D01*
X009765Y027362D02*
X009765Y027803D01*
X010059Y027803D01*
X010226Y027729D02*
X010226Y027436D01*
X010299Y027362D01*
X010446Y027362D01*
X010519Y027436D01*
X010519Y027582D01*
X010373Y027582D01*
X010519Y027729D02*
X010446Y027803D01*
X010299Y027803D01*
X010226Y027729D01*
X010059Y027362D02*
X009765Y027362D01*
X009765Y027582D02*
X009912Y027582D01*
X010686Y027656D02*
X010833Y027803D01*
X010833Y027362D01*
X010686Y027362D02*
X010980Y027362D01*
X011295Y027511D02*
X011295Y027804D01*
X011368Y027877D01*
X011515Y027877D01*
X011588Y027804D01*
X011755Y027877D02*
X011755Y027657D01*
X011902Y027731D01*
X011975Y027731D01*
X012049Y027657D01*
X012049Y027511D01*
X011975Y027437D01*
X011828Y027437D01*
X011755Y027511D01*
X011588Y027511D02*
X011515Y027437D01*
X011368Y027437D01*
X011295Y027511D01*
X011755Y027877D02*
X012049Y027877D01*
X012763Y027831D02*
X012763Y027537D01*
X012836Y027464D01*
X012983Y027464D01*
X013057Y027537D01*
X013223Y027464D02*
X013517Y027464D01*
X013370Y027464D02*
X013370Y027904D01*
X013223Y027757D01*
X013057Y027831D02*
X012983Y027904D01*
X012836Y027904D01*
X012763Y027831D01*
X013684Y027904D02*
X013977Y027904D01*
X013977Y027831D01*
X013684Y027537D01*
X013684Y027464D01*
X013875Y024837D02*
X014022Y024837D01*
X013948Y024837D02*
X013948Y024470D01*
X013875Y024397D01*
X013802Y024397D01*
X013728Y024470D01*
X014189Y024397D02*
X014482Y024397D01*
X014335Y024397D02*
X014335Y024837D01*
X014189Y024690D01*
X008497Y027537D02*
X008424Y027464D01*
X008277Y027464D01*
X008204Y027537D01*
X008037Y027537D02*
X007964Y027464D01*
X007817Y027464D01*
X007743Y027537D01*
X007743Y027831D01*
X007817Y027904D01*
X007964Y027904D01*
X008037Y027831D01*
X008204Y027831D02*
X008277Y027904D01*
X008424Y027904D01*
X008497Y027831D01*
X008497Y027757D01*
X008424Y027684D01*
X008497Y027610D01*
X008497Y027537D01*
X008424Y027684D02*
X008351Y027684D01*
X007434Y027651D02*
X007434Y027724D01*
X007360Y027798D01*
X007213Y027798D01*
X007140Y027724D01*
X006973Y027724D02*
X006900Y027798D01*
X006753Y027798D01*
X006680Y027724D01*
X006680Y027431D01*
X006753Y027357D01*
X006900Y027357D01*
X006973Y027431D01*
X006973Y027578D01*
X006826Y027578D01*
X006513Y027798D02*
X006219Y027798D01*
X006219Y027357D01*
X006513Y027357D01*
X006366Y027578D02*
X006219Y027578D01*
X006052Y027578D02*
X005979Y027504D01*
X005759Y027504D01*
X005759Y027357D02*
X005759Y027798D01*
X005979Y027798D01*
X006052Y027724D01*
X006052Y027578D01*
X005906Y027504D02*
X006052Y027357D01*
X005592Y027504D02*
X005592Y027798D01*
X005299Y027798D02*
X005299Y027504D01*
X005445Y027357D01*
X005592Y027504D01*
X007140Y027357D02*
X007434Y027651D01*
X007434Y027357D02*
X007140Y027357D01*
D13*
X003716Y003449D02*
X003101Y002318D01*
X003150Y002268D01*
X004331Y002268D01*
X004381Y002318D01*
X003766Y003449D01*
X003716Y003449D01*
X011440Y020536D02*
X011440Y024079D01*
X016062Y024079D01*
X016062Y023512D01*
X014141Y023512D01*
X014141Y023513D02*
X014073Y023511D01*
X014006Y023505D01*
X013939Y023496D01*
X013873Y023483D01*
X013807Y023466D01*
X013743Y023445D01*
X013680Y023421D01*
X013618Y023394D01*
X013558Y023363D01*
X013500Y023328D01*
X013444Y023291D01*
X013390Y023250D01*
X013338Y023206D01*
X013289Y023160D01*
X013243Y023111D01*
X013199Y023059D01*
X013158Y023005D01*
X013121Y022949D01*
X013086Y022891D01*
X013055Y022831D01*
X013028Y022769D01*
X013004Y022706D01*
X012983Y022642D01*
X012966Y022576D01*
X012953Y022510D01*
X012944Y022443D01*
X012938Y022376D01*
X012936Y022308D01*
X012938Y022240D01*
X012944Y022173D01*
X012953Y022106D01*
X012966Y022040D01*
X012983Y021974D01*
X013004Y021910D01*
X013028Y021847D01*
X013055Y021785D01*
X013086Y021725D01*
X013121Y021667D01*
X013158Y021611D01*
X013199Y021557D01*
X013243Y021505D01*
X013289Y021456D01*
X013338Y021410D01*
X013390Y021366D01*
X013444Y021325D01*
X013500Y021288D01*
X013558Y021253D01*
X013618Y021222D01*
X013680Y021195D01*
X013743Y021171D01*
X013807Y021150D01*
X013873Y021133D01*
X013939Y021120D01*
X014006Y021111D01*
X014073Y021105D01*
X014141Y021103D01*
X016062Y021103D01*
X016062Y020536D01*
X011440Y020536D01*
X016062Y020536D02*
X016853Y020536D01*
X016891Y020538D01*
X016929Y020543D01*
X016966Y020552D01*
X017002Y020564D01*
X017037Y020579D01*
X017070Y020598D01*
X017102Y020619D01*
X017131Y020644D01*
X017158Y020671D01*
X017183Y020700D01*
X017204Y020732D01*
X017223Y020765D01*
X017238Y020800D01*
X017250Y020836D01*
X017259Y020873D01*
X017264Y020911D01*
X017266Y020949D01*
X017267Y020949D02*
X017267Y023666D01*
X017266Y023666D02*
X017264Y023704D01*
X017259Y023742D01*
X017250Y023779D01*
X017238Y023815D01*
X017223Y023850D01*
X017204Y023883D01*
X017183Y023915D01*
X017158Y023944D01*
X017131Y023971D01*
X017102Y023996D01*
X017070Y024017D01*
X017037Y024036D01*
X017002Y024051D01*
X016966Y024063D01*
X016929Y024072D01*
X016891Y024077D01*
X016853Y024079D01*
X016062Y024079D01*
D14*
X010772Y003851D02*
X010772Y003480D01*
X010957Y003480D01*
X011018Y003542D01*
X011018Y003665D01*
X010957Y003727D01*
X010772Y003727D01*
X010527Y003851D02*
X010527Y003480D01*
X010650Y003480D02*
X010403Y003480D01*
X010158Y003480D02*
X010282Y003727D01*
X010403Y003727D02*
X010527Y003851D01*
X010035Y003727D02*
X010158Y003480D01*
X009545Y003480D02*
X009483Y003542D01*
X009483Y003789D01*
X009421Y003727D02*
X009545Y003727D01*
X009300Y003727D02*
X009300Y003480D01*
X009114Y003480D01*
X009053Y003542D01*
X009053Y003727D01*
X008931Y003665D02*
X008870Y003727D01*
X008746Y003727D01*
X008684Y003665D01*
X008684Y003542D01*
X008746Y003480D01*
X008870Y003480D01*
X008931Y003542D01*
X008931Y003665D01*
X008563Y003727D02*
X008378Y003604D01*
X008563Y003480D01*
X008378Y003480D02*
X008378Y003851D01*
X008194Y003727D02*
X008256Y003665D01*
X008256Y003480D01*
X008071Y003480D01*
X008009Y003542D01*
X008071Y003604D01*
X008256Y003604D01*
X008194Y003727D02*
X008071Y003727D01*
X007888Y003665D02*
X007888Y003604D01*
X007641Y003604D01*
X007641Y003665D02*
X007703Y003727D01*
X007826Y003727D01*
X007888Y003665D01*
X007826Y003480D02*
X007703Y003480D01*
X007641Y003542D01*
X007641Y003665D01*
X007519Y003727D02*
X007458Y003727D01*
X007334Y003604D01*
X007334Y003727D02*
X007334Y003480D01*
X007213Y003542D02*
X007213Y003665D01*
X007151Y003727D01*
X006966Y003727D01*
X006966Y003851D02*
X006966Y003480D01*
X007151Y003480D01*
X007213Y003542D01*
X006783Y002851D02*
X006536Y002480D01*
X006414Y002351D02*
X006414Y001980D01*
X006475Y001980D02*
X006352Y001980D01*
X006230Y001980D02*
X006106Y001980D01*
X006168Y001980D02*
X006168Y002351D01*
X006106Y002351D01*
X006045Y002480D02*
X005984Y002480D01*
X005984Y002542D01*
X006045Y002542D01*
X006045Y002480D01*
X006168Y002480D02*
X006415Y002851D01*
X006476Y003480D02*
X006229Y003480D01*
X006108Y003480D02*
X005861Y003480D01*
X005984Y003480D02*
X005984Y003851D01*
X005861Y003727D01*
X005739Y003727D02*
X005678Y003665D01*
X005739Y003604D01*
X005739Y003542D01*
X005678Y003480D01*
X005554Y003480D01*
X005493Y003542D01*
X005616Y003665D02*
X005678Y003665D01*
X005739Y003727D02*
X005739Y003789D01*
X005678Y003851D01*
X005554Y003851D01*
X005493Y003789D01*
X005371Y003851D02*
X005124Y003851D01*
X005003Y003851D02*
X004756Y003851D01*
X004756Y003480D01*
X004818Y003351D02*
X004756Y003289D01*
X004756Y003042D01*
X004818Y002980D01*
X004941Y002980D01*
X005003Y003042D01*
X005124Y003042D02*
X005186Y002980D01*
X005309Y002980D01*
X005371Y003042D01*
X005493Y003165D02*
X005739Y003165D01*
X005861Y003042D02*
X005861Y003289D01*
X005923Y003351D01*
X006046Y003351D01*
X006108Y003289D01*
X005861Y003042D01*
X005923Y002980D01*
X006046Y002980D01*
X006108Y003042D01*
X006108Y003289D01*
X006353Y003480D02*
X006353Y003851D01*
X006229Y003727D01*
X006045Y002727D02*
X006045Y002665D01*
X005984Y002665D01*
X005984Y002727D01*
X006045Y002727D01*
X005862Y002665D02*
X005862Y002542D01*
X005800Y002480D01*
X005615Y002480D01*
X005493Y002480D02*
X005431Y002542D01*
X005431Y002789D01*
X005370Y002727D02*
X005493Y002727D01*
X005615Y002727D02*
X005800Y002727D01*
X005862Y002665D01*
X005615Y002727D02*
X005615Y002357D01*
X005677Y002289D02*
X005677Y001980D01*
X005861Y001980D02*
X005984Y001980D01*
X005922Y001980D02*
X005922Y002227D01*
X005861Y002227D01*
X005739Y002165D02*
X005615Y002165D01*
X005677Y002289D02*
X005739Y002351D01*
X005922Y002351D02*
X005922Y002412D01*
X006352Y002351D02*
X006414Y002351D01*
X006597Y002227D02*
X006659Y002227D01*
X006721Y002165D01*
X006782Y002227D01*
X006844Y002165D01*
X006844Y001980D01*
X006721Y001980D02*
X006721Y002165D01*
X006597Y002227D02*
X006597Y001980D01*
X006476Y001851D02*
X006476Y001480D01*
X006291Y001480D01*
X006229Y001542D01*
X006229Y001665D01*
X006291Y001727D01*
X006476Y001727D01*
X006108Y001665D02*
X006108Y001604D01*
X005861Y001604D01*
X005861Y001665D02*
X005923Y001727D01*
X006046Y001727D01*
X006108Y001665D01*
X006046Y001480D02*
X005923Y001480D01*
X005861Y001542D01*
X005861Y001665D01*
X005739Y001665D02*
X005739Y001604D01*
X005493Y001604D01*
X005493Y001665D02*
X005554Y001727D01*
X005678Y001727D01*
X005739Y001665D01*
X005678Y001480D02*
X005554Y001480D01*
X005493Y001542D01*
X005493Y001665D01*
X005371Y001665D02*
X005371Y001604D01*
X005124Y001604D01*
X005124Y001665D02*
X005186Y001727D01*
X005309Y001727D01*
X005371Y001665D01*
X005309Y001480D02*
X005186Y001480D01*
X005124Y001542D01*
X005124Y001665D01*
X005003Y001604D02*
X005003Y001542D01*
X004941Y001480D01*
X004818Y001480D01*
X004756Y001542D01*
X004818Y001665D02*
X004941Y001665D01*
X005003Y001604D01*
X005003Y001789D02*
X004941Y001851D01*
X004818Y001851D01*
X004756Y001789D01*
X004756Y001727D01*
X004818Y001665D01*
X004818Y001980D02*
X004818Y002289D01*
X004879Y002351D01*
X005001Y002227D02*
X005001Y002042D01*
X005063Y001980D01*
X005248Y001980D01*
X005248Y002227D01*
X005370Y002351D02*
X005431Y002351D01*
X005431Y001980D01*
X005370Y001980D02*
X005493Y001980D01*
X005248Y002480D02*
X005186Y002542D01*
X005186Y002789D01*
X005124Y002727D02*
X005248Y002727D01*
X005003Y002665D02*
X005003Y002480D01*
X005003Y002665D02*
X004941Y002727D01*
X004818Y002727D01*
X004756Y002665D01*
X004756Y002480D02*
X004756Y002851D01*
X005124Y003042D02*
X005124Y003289D01*
X005186Y003351D01*
X005309Y003351D01*
X005371Y003289D01*
X005248Y003480D02*
X005248Y003851D01*
X004879Y003665D02*
X004756Y003665D01*
X004818Y003351D02*
X004941Y003351D01*
X005003Y003289D01*
X004879Y002165D02*
X004756Y002165D01*
X004756Y001227D02*
X004756Y001042D01*
X004818Y000980D01*
X004879Y001042D01*
X004941Y000980D01*
X005003Y001042D01*
X005003Y001227D01*
X005124Y001227D02*
X005124Y001042D01*
X005186Y000980D01*
X005248Y001042D01*
X005309Y000980D01*
X005371Y001042D01*
X005371Y001227D01*
X005493Y001227D02*
X005493Y001042D01*
X005554Y000980D01*
X005616Y001042D01*
X005678Y000980D01*
X005739Y001042D01*
X005739Y001227D01*
X005861Y001042D02*
X005923Y001042D01*
X005923Y000980D01*
X005861Y000980D01*
X005861Y001042D01*
X006045Y000980D02*
X006230Y000980D01*
X006292Y001042D01*
X006230Y001104D01*
X006107Y001104D01*
X006045Y001165D01*
X006107Y001227D01*
X006292Y001227D01*
X006413Y001165D02*
X006475Y001227D01*
X006598Y001227D01*
X006660Y001165D01*
X006660Y001104D01*
X006413Y001104D01*
X006413Y001165D02*
X006413Y001042D01*
X006475Y000980D01*
X006598Y000980D01*
X006782Y001042D02*
X006782Y001165D01*
X006843Y001227D01*
X006967Y001227D01*
X007028Y001165D01*
X007028Y001104D01*
X006782Y001104D01*
X006782Y001042D02*
X006843Y000980D01*
X006967Y000980D01*
X007150Y001042D02*
X007150Y001165D01*
X007212Y001227D01*
X007335Y001227D01*
X007397Y001165D01*
X007397Y001104D01*
X007150Y001104D01*
X007150Y001042D02*
X007212Y000980D01*
X007335Y000980D01*
X007518Y001042D02*
X007518Y001165D01*
X007580Y001227D01*
X007765Y001227D01*
X007765Y001351D02*
X007765Y000980D01*
X007580Y000980D01*
X007518Y001042D01*
X007458Y001480D02*
X007396Y001542D01*
X007396Y001789D01*
X007334Y001727D02*
X007458Y001727D01*
X007580Y001727D02*
X007580Y001542D01*
X007641Y001480D01*
X007826Y001480D01*
X007826Y001727D01*
X007948Y001665D02*
X008010Y001727D01*
X008195Y001727D01*
X008316Y001727D02*
X008378Y001727D01*
X008378Y001480D01*
X008316Y001480D02*
X008440Y001480D01*
X008562Y001542D02*
X008562Y001665D01*
X008623Y001727D01*
X008747Y001727D01*
X008809Y001665D01*
X008809Y001542D01*
X008747Y001480D01*
X008623Y001480D01*
X008562Y001542D01*
X008500Y001227D02*
X008500Y001042D01*
X008562Y000980D01*
X008747Y000980D01*
X008747Y001227D01*
X008869Y001165D02*
X008930Y001227D01*
X009116Y001227D01*
X009237Y001227D02*
X009299Y001227D01*
X009299Y000980D01*
X009360Y000980D02*
X009237Y000980D01*
X009116Y000980D02*
X009116Y001351D01*
X009299Y001351D02*
X009299Y001412D01*
X009544Y001227D02*
X009482Y001165D01*
X009482Y001042D01*
X009544Y000980D01*
X009668Y000980D01*
X009729Y001042D01*
X009729Y001165D01*
X009668Y001227D01*
X009544Y001227D01*
X009851Y001042D02*
X009912Y001042D01*
X009912Y000980D01*
X009851Y000980D01*
X009851Y001042D01*
X010035Y001042D02*
X010097Y000980D01*
X010282Y000980D01*
X010403Y001042D02*
X010465Y000980D01*
X010588Y000980D01*
X010650Y001042D01*
X010650Y001165D01*
X010588Y001227D01*
X010465Y001227D01*
X010403Y001165D01*
X010403Y001042D01*
X010282Y001227D02*
X010097Y001227D01*
X010035Y001165D01*
X010035Y001042D01*
X010772Y000980D02*
X010772Y001227D01*
X010833Y001227D01*
X010895Y001165D01*
X010957Y001227D01*
X011018Y001165D01*
X011018Y000980D01*
X010895Y000980D02*
X010895Y001165D01*
X009116Y000980D02*
X008930Y000980D01*
X008869Y001042D01*
X008869Y001165D01*
X008378Y001227D02*
X008255Y001227D01*
X008317Y001289D02*
X008317Y001042D01*
X008378Y000980D01*
X008133Y001042D02*
X008072Y001104D01*
X007948Y001104D01*
X007887Y001165D01*
X007948Y001227D01*
X008133Y001227D01*
X008133Y001042D02*
X008072Y000980D01*
X007887Y000980D01*
X008010Y001480D02*
X007948Y001542D01*
X007948Y001665D01*
X008010Y001480D02*
X008195Y001480D01*
X008195Y001851D01*
X008316Y001980D02*
X008501Y001980D01*
X008563Y002042D01*
X008563Y002165D01*
X008501Y002227D01*
X008316Y002227D01*
X008316Y002351D02*
X008316Y001980D01*
X008378Y001912D02*
X008378Y001851D01*
X008684Y002042D02*
X008746Y001980D01*
X008931Y001980D01*
X008931Y001919D02*
X008870Y001857D01*
X008808Y001857D01*
X008931Y001919D02*
X008931Y002227D01*
X008684Y002227D02*
X008684Y002042D01*
X007826Y001980D02*
X007764Y002042D01*
X007764Y002289D01*
X007702Y002227D02*
X007826Y002227D01*
X007581Y002165D02*
X007581Y001980D01*
X007581Y002165D02*
X007519Y002227D01*
X007334Y002227D01*
X007334Y001980D01*
X007212Y002104D02*
X006966Y002104D01*
X006966Y002165D02*
X007027Y002227D01*
X007151Y002227D01*
X007212Y002165D01*
X007212Y002104D01*
X007151Y001980D02*
X007027Y001980D01*
X006966Y002042D01*
X006966Y002165D01*
X007027Y001851D02*
X006966Y001789D01*
X006966Y001727D01*
X007027Y001665D01*
X007151Y001665D01*
X007213Y001604D01*
X007213Y001542D01*
X007151Y001480D01*
X007027Y001480D01*
X006966Y001542D01*
X007027Y001851D02*
X007151Y001851D01*
X007213Y001789D01*
D15*
X006351Y026631D03*
X009894Y026631D03*
D16*
X009894Y024481D03*
X008984Y024481D03*
X010804Y024481D03*
X007261Y024481D03*
X006351Y024481D03*
X005441Y024481D03*
D17*
X011991Y023883D02*
X011991Y020733D01*
X016062Y020733D01*
X016853Y020536D02*
X016853Y024079D01*
X016062Y023883D02*
X011991Y023883D01*
D18*
X009473Y022123D02*
X006773Y022123D01*
X006773Y021823D02*
X009473Y021823D01*
X010134Y020873D02*
X010102Y020828D01*
X010066Y020786D01*
X010027Y020746D01*
X009986Y020709D01*
X009942Y020675D01*
X009895Y020644D01*
X009847Y020616D01*
X009797Y020592D01*
X009746Y020571D01*
X009693Y020554D01*
X009639Y020540D01*
X009584Y020531D01*
X009529Y020525D01*
X009473Y020523D01*
X006773Y020523D01*
X006773Y020823D02*
X009473Y020823D01*
X009691Y021773D02*
X009657Y021788D01*
X009621Y021801D01*
X009585Y021810D01*
X009548Y021817D01*
X009511Y021822D01*
X009473Y021823D01*
X009691Y020873D02*
X009657Y020858D01*
X009621Y020845D01*
X009585Y020836D01*
X009548Y020829D01*
X009511Y020824D01*
X009473Y020823D01*
X010134Y021773D02*
X010102Y021818D01*
X010066Y021860D01*
X010027Y021900D01*
X009985Y021937D01*
X009942Y021971D01*
X009895Y022002D01*
X009847Y022030D01*
X009797Y022054D01*
X009746Y022075D01*
X009693Y022092D01*
X009639Y022106D01*
X009584Y022115D01*
X009529Y022121D01*
X009473Y022123D01*
X008523Y021323D02*
X008373Y021323D01*
X007873Y021323D02*
X007723Y021323D01*
X006773Y022123D02*
X006717Y022121D01*
X006662Y022115D01*
X006607Y022106D01*
X006553Y022092D01*
X006500Y022075D01*
X006449Y022054D01*
X006399Y022030D01*
X006351Y022002D01*
X006304Y021971D01*
X006260Y021937D01*
X006219Y021900D01*
X006180Y021860D01*
X006144Y021818D01*
X006112Y021773D01*
X006555Y021773D02*
X006589Y021788D01*
X006625Y021801D01*
X006661Y021810D01*
X006698Y021817D01*
X006735Y021822D01*
X006773Y021823D01*
X006555Y020873D02*
X006589Y020858D01*
X006625Y020845D01*
X006661Y020836D01*
X006698Y020829D01*
X006735Y020824D01*
X006773Y020823D01*
X006773Y020523D02*
X006717Y020525D01*
X006662Y020531D01*
X006607Y020540D01*
X006553Y020554D01*
X006500Y020571D01*
X006449Y020592D01*
X006399Y020616D01*
X006351Y020644D01*
X006304Y020675D01*
X006261Y020709D01*
X006219Y020746D01*
X006180Y020786D01*
X006144Y020828D01*
X006112Y020873D01*
D19*
X003753Y011284D03*
X003753Y009512D03*
M02*
