G75*
G70*
%OFA0B0*%
%FSLAX24Y24*%
%IPPOS*%
%LPD*%
%AMOC8*
5,1,8,0,0,1.08239X$1,22.5*
%
%ADD10C,0.0000*%
%ADD11OC8,0.1000*%
%ADD12R,0.0643X0.0643*%
%ADD13C,0.0643*%
%ADD14C,0.0551*%
%ADD15C,0.0937*%
%ADD16C,0.0160*%
%ADD17C,0.0450*%
%ADD18C,0.0860*%
%ADD19C,0.0820*%
%ADD20C,0.0350*%
%ADD21C,0.0120*%
%ADD22C,0.0240*%
D10*
X000867Y004800D02*
X026867Y004800D01*
X026867Y005800D01*
X027867Y006800D01*
X027867Y019700D01*
X026867Y020700D01*
X026867Y025200D01*
X026267Y025800D01*
X000867Y025800D01*
X000867Y004800D01*
D11*
X002867Y005895D03*
X002867Y008455D03*
X005117Y009800D03*
X005117Y014300D03*
X005117Y017300D03*
X017617Y017300D03*
X017617Y014300D03*
X017617Y009800D03*
D12*
X017867Y007426D03*
X017867Y023174D03*
D13*
X016867Y023174D03*
X015867Y023174D03*
X014867Y023174D03*
X013867Y023174D03*
X012867Y023174D03*
X011867Y023174D03*
X010867Y023174D03*
X010867Y007426D03*
X011867Y007426D03*
X012867Y007426D03*
X013867Y007426D03*
X014867Y007426D03*
X015867Y007426D03*
X016867Y007426D03*
D14*
X016867Y005800D03*
X017867Y005800D03*
X018867Y005800D03*
X020867Y005800D03*
X021867Y005800D03*
X022867Y005800D03*
X023867Y005800D03*
X024867Y005800D03*
X025867Y005800D03*
X015867Y005800D03*
X014867Y005800D03*
X013867Y005800D03*
X014267Y024800D03*
X013267Y024800D03*
X012267Y024800D03*
X011267Y024800D03*
X010267Y024800D03*
X015267Y024800D03*
X016267Y024800D03*
X017267Y024800D03*
X018867Y024800D03*
X019867Y024800D03*
X020867Y024800D03*
X021867Y024800D03*
X022867Y024800D03*
X023867Y024800D03*
X024867Y024800D03*
X025867Y024800D03*
D15*
X002658Y020784D02*
X001721Y020784D01*
X001721Y018816D02*
X002658Y018816D01*
X002658Y016784D02*
X001721Y016784D01*
X001721Y014816D02*
X002658Y014816D01*
X002658Y012784D02*
X001721Y012784D01*
X001721Y010816D02*
X002658Y010816D01*
D16*
X002892Y010146D02*
X003824Y010146D01*
X004377Y009592D01*
X004377Y009493D01*
X004810Y009060D01*
X005423Y009060D01*
X005857Y009493D01*
X005857Y010107D01*
X005423Y010540D01*
X005324Y010540D01*
X004481Y011384D01*
X004234Y011486D01*
X002892Y011486D01*
X002799Y011524D01*
X001580Y011524D01*
X001320Y011416D01*
X001121Y011217D01*
X001107Y011184D01*
X001107Y012573D01*
X001138Y012497D01*
X001181Y012423D01*
X001233Y012356D01*
X001293Y012296D01*
X001360Y012244D01*
X001434Y012201D01*
X001512Y012169D01*
X001594Y012147D01*
X001679Y012136D01*
X002132Y012136D01*
X002132Y012726D01*
X002248Y012726D01*
X002248Y012842D01*
X003305Y012842D01*
X003296Y012911D01*
X003274Y012993D01*
X003241Y013072D01*
X003199Y013145D01*
X003147Y013213D01*
X003087Y013273D01*
X003019Y013325D01*
X002946Y013367D01*
X002867Y013400D01*
X002785Y013422D01*
X002701Y013433D01*
X002248Y013433D01*
X002248Y012842D01*
X002132Y012842D01*
X002132Y013433D01*
X001679Y013433D01*
X001594Y013422D01*
X001512Y013400D01*
X001434Y013367D01*
X001360Y013325D01*
X001293Y013273D01*
X001233Y013213D01*
X001181Y013145D01*
X001138Y013072D01*
X001107Y012996D01*
X001107Y014447D01*
X001121Y014414D01*
X001320Y014215D01*
X001580Y014107D01*
X002446Y014107D01*
X003434Y013119D01*
X003524Y013029D01*
X003642Y012980D01*
X016734Y012980D01*
X023526Y006188D01*
X023430Y006092D01*
X023367Y005940D01*
X023304Y006092D01*
X023159Y006237D01*
X022969Y006316D01*
X022764Y006316D01*
X022575Y006237D01*
X022430Y006092D01*
X022367Y005940D01*
X022304Y006092D01*
X022159Y006237D01*
X021969Y006316D01*
X021764Y006316D01*
X021575Y006237D01*
X021430Y006092D01*
X021367Y005940D01*
X021304Y006092D01*
X021159Y006237D01*
X020969Y006316D01*
X020764Y006316D01*
X020575Y006237D01*
X020430Y006092D01*
X020351Y005903D01*
X020351Y005697D01*
X020430Y005508D01*
X020575Y005363D01*
X020764Y005284D01*
X020969Y005284D01*
X021159Y005363D01*
X021304Y005508D01*
X021367Y005660D01*
X021430Y005508D01*
X021575Y005363D01*
X021764Y005284D01*
X021969Y005284D01*
X022159Y005363D01*
X022304Y005508D01*
X022367Y005660D01*
X022430Y005508D01*
X022575Y005363D01*
X022764Y005284D01*
X022969Y005284D01*
X023159Y005363D01*
X023304Y005508D01*
X023367Y005660D01*
X023430Y005508D01*
X023575Y005363D01*
X023764Y005284D01*
X023969Y005284D01*
X024159Y005363D01*
X024304Y005508D01*
X024367Y005660D01*
X024430Y005508D01*
X024575Y005363D01*
X024764Y005284D01*
X024969Y005284D01*
X025159Y005363D01*
X025304Y005508D01*
X025367Y005660D01*
X025430Y005508D01*
X025575Y005363D01*
X025764Y005284D01*
X025969Y005284D01*
X026159Y005363D01*
X026304Y005508D01*
X026383Y005697D01*
X026383Y005903D01*
X026304Y006092D01*
X026187Y006209D01*
X026187Y006364D01*
X026138Y006481D01*
X026048Y006571D01*
X025548Y007071D01*
X025431Y007120D01*
X023999Y007120D01*
X020494Y010625D01*
X020568Y010656D01*
X020699Y010787D01*
X020769Y010958D01*
X020769Y011142D01*
X020699Y011313D01*
X020568Y011444D01*
X020397Y011515D01*
X020349Y011515D01*
X018727Y013137D01*
X018727Y015372D01*
X018672Y015504D01*
X018571Y015605D01*
X018236Y015940D01*
X018569Y015940D01*
X018604Y015906D01*
X018774Y015835D01*
X018959Y015835D01*
X019130Y015906D01*
X019261Y016037D01*
X019332Y016208D01*
X019332Y016392D01*
X019261Y016563D01*
X019130Y016694D01*
X018959Y016765D01*
X018774Y016765D01*
X018604Y016694D01*
X018569Y016660D01*
X018023Y016660D01*
X018357Y016993D01*
X018357Y017607D01*
X017923Y018040D01*
X017310Y018040D01*
X016877Y017607D01*
X016877Y016993D01*
X017210Y016660D01*
X012516Y016660D01*
X009727Y019449D01*
X009727Y022651D01*
X010306Y023230D01*
X010306Y023062D01*
X010391Y022856D01*
X010549Y022698D01*
X010755Y022613D01*
X010853Y022613D01*
X010686Y022445D01*
X010686Y022445D01*
X010596Y022355D01*
X010547Y022238D01*
X010547Y021317D01*
X010515Y021285D01*
X010452Y021133D01*
X010452Y020967D01*
X009727Y020967D01*
X009727Y020809D02*
X010522Y020809D01*
X010515Y020815D02*
X010632Y020698D01*
X010784Y020635D01*
X010949Y020635D01*
X011102Y020698D01*
X011219Y020815D01*
X011282Y020967D01*
X011452Y020967D01*
X011515Y020815D01*
X011632Y020698D01*
X011784Y020635D01*
X011949Y020635D01*
X012102Y020698D01*
X012219Y020815D01*
X012282Y020967D01*
X012452Y020967D01*
X012515Y020815D01*
X012632Y020698D01*
X012784Y020635D01*
X012949Y020635D01*
X013102Y020698D01*
X013219Y020815D01*
X013282Y020967D01*
X013452Y020967D01*
X013515Y020815D01*
X013632Y020698D01*
X013784Y020635D01*
X013949Y020635D01*
X014102Y020698D01*
X014219Y020815D01*
X014282Y020967D01*
X014452Y020967D01*
X014515Y020815D01*
X014632Y020698D01*
X014784Y020635D01*
X014949Y020635D01*
X015102Y020698D01*
X015219Y020815D01*
X015282Y020967D01*
X015452Y020967D01*
X015515Y020815D01*
X015632Y020698D01*
X015784Y020635D01*
X015949Y020635D01*
X016102Y020698D01*
X016219Y020815D01*
X016282Y020967D01*
X016610Y020967D01*
X016768Y021126D02*
X016282Y021126D01*
X016282Y021133D02*
X016281Y021135D01*
X017758Y022613D01*
X018236Y022613D01*
X018269Y022627D01*
X015243Y019600D01*
X015154Y019600D01*
X015102Y019652D01*
X014949Y019715D01*
X014784Y019715D01*
X014632Y019652D01*
X014515Y019535D01*
X014452Y019383D01*
X014452Y019217D01*
X014501Y019100D01*
X014491Y019100D01*
X014282Y019309D01*
X014282Y019383D01*
X014219Y019535D01*
X014102Y019652D01*
X013949Y019715D01*
X013784Y019715D01*
X013632Y019652D01*
X013515Y019535D01*
X013452Y019383D01*
X013452Y019217D01*
X013507Y019084D01*
X013282Y019309D01*
X013282Y019383D01*
X013219Y019535D01*
X013102Y019652D01*
X012949Y019715D01*
X012784Y019715D01*
X012632Y019652D01*
X012515Y019535D01*
X012452Y019383D01*
X012452Y019217D01*
X012507Y019084D01*
X012282Y019309D01*
X012282Y019383D01*
X012219Y019535D01*
X012102Y019652D01*
X011949Y019715D01*
X011784Y019715D01*
X011632Y019652D01*
X011515Y019535D01*
X011452Y019383D01*
X011452Y019217D01*
X011507Y019084D01*
X011282Y019309D01*
X011282Y019383D01*
X011219Y019535D01*
X011102Y019652D01*
X010949Y019715D01*
X010784Y019715D01*
X010632Y019652D01*
X010515Y019535D01*
X010452Y019383D01*
X010452Y019217D01*
X010515Y019065D01*
X010111Y019065D01*
X010270Y018907D02*
X010732Y018907D01*
X010784Y018885D02*
X010858Y018885D01*
X012113Y017630D01*
X012197Y017546D01*
X012307Y017500D01*
X015927Y017500D01*
X016037Y017546D01*
X022776Y024284D01*
X022969Y024284D01*
X023159Y024363D01*
X023304Y024508D01*
X023367Y024660D01*
X023430Y024508D01*
X023575Y024363D01*
X023764Y024284D01*
X023969Y024284D01*
X024159Y024363D01*
X024304Y024508D01*
X024367Y024660D01*
X024430Y024508D01*
X024575Y024363D01*
X024764Y024284D01*
X024969Y024284D01*
X025159Y024363D01*
X025304Y024508D01*
X025367Y024660D01*
X025430Y024508D01*
X025575Y024363D01*
X025764Y024284D01*
X025969Y024284D01*
X026159Y024363D01*
X026304Y024508D01*
X026383Y024697D01*
X026383Y024903D01*
X026304Y025092D01*
X026159Y025237D01*
X025969Y025316D01*
X025764Y025316D01*
X025575Y025237D01*
X025430Y025092D01*
X025367Y024940D01*
X025304Y025092D01*
X025159Y025237D01*
X024969Y025316D01*
X024764Y025316D01*
X024575Y025237D01*
X024430Y025092D01*
X024367Y024940D01*
X024304Y025092D01*
X024159Y025237D01*
X023969Y025316D01*
X023764Y025316D01*
X023575Y025237D01*
X023430Y025092D01*
X023367Y024940D01*
X023304Y025092D01*
X023159Y025237D01*
X022969Y025316D01*
X022764Y025316D01*
X022575Y025237D01*
X022430Y025092D01*
X022367Y024940D01*
X022304Y025092D01*
X022159Y025237D01*
X021969Y025316D01*
X021764Y025316D01*
X021575Y025237D01*
X021430Y025092D01*
X021367Y024940D01*
X021304Y025092D01*
X021159Y025237D01*
X020969Y025316D01*
X020764Y025316D01*
X020575Y025237D01*
X020430Y025092D01*
X020367Y024940D01*
X020304Y025092D01*
X020159Y025237D01*
X019969Y025316D01*
X019764Y025316D01*
X019575Y025237D01*
X019430Y025092D01*
X019367Y024940D01*
X019304Y025092D01*
X019159Y025237D01*
X018969Y025316D01*
X018764Y025316D01*
X018575Y025237D01*
X018430Y025092D01*
X018351Y024903D01*
X018351Y024697D01*
X018430Y024508D01*
X018567Y024371D01*
X018567Y022924D01*
X018414Y022772D01*
X018428Y022805D01*
X018428Y023543D01*
X018392Y023631D01*
X018324Y023699D01*
X018236Y023735D01*
X017498Y023735D01*
X017410Y023699D01*
X017342Y023631D01*
X017306Y023543D01*
X017306Y023417D01*
X017296Y023437D01*
X017249Y023501D01*
X017193Y023556D01*
X017130Y023603D01*
X017059Y023639D01*
X016984Y023663D01*
X016906Y023675D01*
X016887Y023675D01*
X016887Y023194D01*
X016847Y023194D01*
X016847Y023675D01*
X016827Y023675D01*
X016750Y023663D01*
X016675Y023639D01*
X016604Y023603D01*
X016540Y023556D01*
X016485Y023501D01*
X016438Y023437D01*
X016402Y023366D01*
X016399Y023356D01*
X016343Y023492D01*
X016185Y023650D01*
X015979Y023735D01*
X015755Y023735D01*
X015549Y023650D01*
X015391Y023492D01*
X015367Y023434D01*
X015343Y023492D01*
X015185Y023650D01*
X014979Y023735D01*
X014755Y023735D01*
X014549Y023650D01*
X014391Y023492D01*
X014367Y023434D01*
X014343Y023492D01*
X014185Y023650D01*
X013979Y023735D01*
X013755Y023735D01*
X013549Y023650D01*
X013391Y023492D01*
X013367Y023434D01*
X013343Y023492D01*
X013185Y023650D01*
X013125Y023674D01*
X013172Y023721D01*
X013572Y024121D01*
X013627Y024253D01*
X013627Y024431D01*
X013704Y024508D01*
X013767Y024660D01*
X013830Y024508D01*
X013975Y024363D01*
X014164Y024284D01*
X014369Y024284D01*
X014559Y024363D01*
X014704Y024508D01*
X014767Y024660D01*
X014830Y024508D01*
X014975Y024363D01*
X015164Y024284D01*
X015369Y024284D01*
X015559Y024363D01*
X015704Y024508D01*
X015767Y024660D01*
X015830Y024508D01*
X015975Y024363D01*
X016164Y024284D01*
X016369Y024284D01*
X016559Y024363D01*
X016704Y024508D01*
X016767Y024660D01*
X016830Y024508D01*
X016975Y024363D01*
X017164Y024284D01*
X017369Y024284D01*
X017559Y024363D01*
X017704Y024508D01*
X017783Y024697D01*
X017783Y024903D01*
X017704Y025092D01*
X017559Y025237D01*
X017369Y025316D01*
X017164Y025316D01*
X016975Y025237D01*
X016830Y025092D01*
X016767Y024940D01*
X016704Y025092D01*
X016559Y025237D01*
X016369Y025316D01*
X016164Y025316D01*
X015975Y025237D01*
X015830Y025092D01*
X015767Y024940D01*
X015704Y025092D01*
X015587Y025209D01*
X015587Y025214D01*
X015538Y025331D01*
X015309Y025560D01*
X026168Y025560D01*
X026627Y025101D01*
X026627Y020652D01*
X026663Y020564D01*
X027627Y019601D01*
X027627Y006899D01*
X026731Y006003D01*
X026663Y005936D01*
X026627Y005848D01*
X026627Y005040D01*
X001107Y005040D01*
X001107Y010447D01*
X001121Y010414D01*
X001320Y010215D01*
X001580Y010107D01*
X002799Y010107D01*
X002892Y010146D01*
X003173Y009195D02*
X002560Y009195D01*
X002127Y008762D01*
X002127Y008148D01*
X002560Y007715D01*
X003173Y007715D01*
X003607Y008148D01*
X003607Y008762D01*
X003173Y009195D01*
X003289Y009080D02*
X004791Y009080D01*
X004632Y009238D02*
X001107Y009238D01*
X001107Y009080D02*
X002445Y009080D01*
X002286Y008921D02*
X001107Y008921D01*
X001107Y008763D02*
X002128Y008763D01*
X002127Y008604D02*
X001107Y008604D01*
X001107Y008446D02*
X002127Y008446D01*
X002127Y008287D02*
X001107Y008287D01*
X001107Y008129D02*
X002147Y008129D01*
X002305Y007970D02*
X001107Y007970D01*
X001107Y007812D02*
X002464Y007812D01*
X003270Y007812D02*
X010459Y007812D01*
X010391Y007744D02*
X010549Y007902D01*
X010755Y007987D01*
X010979Y007987D01*
X011185Y007902D01*
X011343Y007744D01*
X011367Y007686D01*
X011391Y007744D01*
X011549Y007902D01*
X011755Y007987D01*
X011979Y007987D01*
X012185Y007902D01*
X012343Y007744D01*
X012367Y007686D01*
X012391Y007744D01*
X012549Y007902D01*
X012755Y007987D01*
X012979Y007987D01*
X013185Y007902D01*
X013343Y007744D01*
X013367Y007686D01*
X013391Y007744D01*
X013549Y007902D01*
X013755Y007987D01*
X013979Y007987D01*
X014185Y007902D01*
X014343Y007744D01*
X014367Y007686D01*
X014391Y007744D01*
X014549Y007902D01*
X014755Y007987D01*
X014979Y007987D01*
X015185Y007902D01*
X015343Y007744D01*
X015367Y007686D01*
X015391Y007744D01*
X015549Y007902D01*
X015755Y007987D01*
X015979Y007987D01*
X016185Y007902D01*
X016343Y007744D01*
X016367Y007686D01*
X016391Y007744D01*
X016549Y007902D01*
X016755Y007987D01*
X016979Y007987D01*
X017185Y007902D01*
X017306Y007781D01*
X017306Y007795D01*
X017342Y007883D01*
X017410Y007951D01*
X017498Y007987D01*
X018236Y007987D01*
X018324Y007951D01*
X018392Y007883D01*
X018428Y007795D01*
X018428Y007057D01*
X018392Y006969D01*
X018324Y006901D01*
X018236Y006865D01*
X017498Y006865D01*
X017410Y006901D01*
X017342Y006969D01*
X017306Y007057D01*
X017306Y007071D01*
X017185Y006950D01*
X016979Y006865D01*
X016755Y006865D01*
X016549Y006950D01*
X016391Y007108D01*
X016367Y007166D01*
X016343Y007108D01*
X016185Y006950D01*
X015979Y006865D01*
X015755Y006865D01*
X015549Y006950D01*
X015391Y007108D01*
X015367Y007166D01*
X015343Y007108D01*
X015185Y006950D01*
X014979Y006865D01*
X014755Y006865D01*
X014549Y006950D01*
X014391Y007108D01*
X014367Y007166D01*
X014343Y007108D01*
X014185Y006950D01*
X013979Y006865D01*
X013755Y006865D01*
X013549Y006950D01*
X013391Y007108D01*
X013367Y007166D01*
X013343Y007108D01*
X013185Y006950D01*
X012979Y006865D01*
X012755Y006865D01*
X012549Y006950D01*
X012391Y007108D01*
X012367Y007166D01*
X012343Y007108D01*
X012185Y006950D01*
X011979Y006865D01*
X011755Y006865D01*
X011549Y006950D01*
X011391Y007108D01*
X011367Y007166D01*
X011343Y007108D01*
X011185Y006950D01*
X010979Y006865D01*
X010755Y006865D01*
X010549Y006950D01*
X010391Y007108D01*
X010306Y007314D01*
X010306Y007538D01*
X010391Y007744D01*
X010353Y007653D02*
X001107Y007653D01*
X001107Y007495D02*
X010306Y007495D01*
X010306Y007336D02*
X001107Y007336D01*
X001107Y007178D02*
X010362Y007178D01*
X010480Y007019D02*
X001107Y007019D01*
X001107Y006861D02*
X022854Y006861D01*
X022695Y007019D02*
X018412Y007019D01*
X018428Y007178D02*
X022537Y007178D01*
X022378Y007336D02*
X018428Y007336D01*
X018428Y007495D02*
X022220Y007495D01*
X022061Y007653D02*
X018428Y007653D01*
X018421Y007812D02*
X021903Y007812D01*
X021744Y007970D02*
X018278Y007970D01*
X017456Y007970D02*
X017020Y007970D01*
X017275Y007812D02*
X017313Y007812D01*
X016714Y007970D02*
X016020Y007970D01*
X016275Y007812D02*
X016459Y007812D01*
X015714Y007970D02*
X015020Y007970D01*
X015275Y007812D02*
X015459Y007812D01*
X014714Y007970D02*
X014020Y007970D01*
X014275Y007812D02*
X014459Y007812D01*
X013714Y007970D02*
X013020Y007970D01*
X013275Y007812D02*
X013459Y007812D01*
X012714Y007970D02*
X012020Y007970D01*
X012275Y007812D02*
X012459Y007812D01*
X011714Y007970D02*
X011020Y007970D01*
X011275Y007812D02*
X011459Y007812D01*
X010714Y007970D02*
X003428Y007970D01*
X003587Y008129D02*
X021586Y008129D01*
X021427Y008287D02*
X003607Y008287D01*
X003607Y008446D02*
X021269Y008446D01*
X021110Y008604D02*
X003607Y008604D01*
X003606Y008763D02*
X020952Y008763D01*
X020793Y008921D02*
X003447Y008921D01*
X004377Y009555D02*
X001107Y009555D01*
X001107Y009397D02*
X004474Y009397D01*
X004256Y009714D02*
X001107Y009714D01*
X001107Y009872D02*
X004097Y009872D01*
X003939Y010031D02*
X001107Y010031D01*
X001107Y010189D02*
X001383Y010189D01*
X001188Y010348D02*
X001107Y010348D01*
X001107Y011299D02*
X001202Y011299D01*
X001107Y011457D02*
X001418Y011457D01*
X001107Y011616D02*
X018099Y011616D01*
X017940Y011774D02*
X001107Y011774D01*
X001107Y011933D02*
X017782Y011933D01*
X017623Y012091D02*
X001107Y012091D01*
X001107Y012250D02*
X001353Y012250D01*
X001193Y012408D02*
X001107Y012408D01*
X001107Y012567D02*
X001110Y012567D01*
X001107Y013042D02*
X001126Y013042D01*
X001107Y013201D02*
X001223Y013201D01*
X001107Y013359D02*
X001420Y013359D01*
X001107Y013518D02*
X003035Y013518D01*
X002960Y013359D02*
X003194Y013359D01*
X003156Y013201D02*
X003352Y013201D01*
X003253Y013042D02*
X003511Y013042D01*
X003299Y012884D02*
X016831Y012884D01*
X016989Y012725D02*
X003305Y012725D01*
X003305Y012726D02*
X002248Y012726D01*
X002248Y012136D01*
X002701Y012136D01*
X002785Y012147D01*
X002867Y012169D01*
X002946Y012201D01*
X003019Y012244D01*
X003087Y012296D01*
X003147Y012356D01*
X003199Y012423D01*
X003241Y012497D01*
X003274Y012575D01*
X003296Y012657D01*
X003305Y012726D01*
X003270Y012567D02*
X017148Y012567D01*
X017306Y012408D02*
X003187Y012408D01*
X003027Y012250D02*
X017465Y012250D01*
X018257Y011457D02*
X004304Y011457D01*
X004566Y011299D02*
X018416Y011299D01*
X018574Y011140D02*
X004724Y011140D01*
X004883Y010982D02*
X018733Y010982D01*
X018891Y010823D02*
X005041Y010823D01*
X005200Y010665D02*
X019050Y010665D01*
X019208Y010506D02*
X017957Y010506D01*
X017923Y010540D02*
X017310Y010540D01*
X016877Y010107D01*
X016877Y009493D01*
X017310Y009060D01*
X017923Y009060D01*
X018357Y009493D01*
X018357Y010107D01*
X017923Y010540D01*
X018116Y010348D02*
X019367Y010348D01*
X019525Y010189D02*
X018274Y010189D01*
X018357Y010031D02*
X019684Y010031D01*
X019842Y009872D02*
X018357Y009872D01*
X018357Y009714D02*
X020001Y009714D01*
X020159Y009555D02*
X018357Y009555D01*
X018260Y009397D02*
X020318Y009397D01*
X020476Y009238D02*
X018101Y009238D01*
X017943Y009080D02*
X020635Y009080D01*
X021406Y009714D02*
X027627Y009714D01*
X027627Y009872D02*
X021247Y009872D01*
X021089Y010031D02*
X027627Y010031D01*
X027627Y010189D02*
X020930Y010189D01*
X020772Y010348D02*
X027627Y010348D01*
X027627Y010506D02*
X020613Y010506D01*
X020577Y010665D02*
X027627Y010665D01*
X027627Y010823D02*
X020714Y010823D01*
X020769Y010982D02*
X027627Y010982D01*
X027627Y011140D02*
X020769Y011140D01*
X020705Y011299D02*
X027627Y011299D01*
X027627Y011457D02*
X020537Y011457D01*
X020248Y011616D02*
X027627Y011616D01*
X027627Y011774D02*
X020090Y011774D01*
X019931Y011933D02*
X027627Y011933D01*
X027627Y012091D02*
X019773Y012091D01*
X019614Y012250D02*
X027627Y012250D01*
X027627Y012408D02*
X019456Y012408D01*
X019297Y012567D02*
X027627Y012567D01*
X027627Y012725D02*
X019139Y012725D01*
X018980Y012884D02*
X027627Y012884D01*
X027627Y013042D02*
X018822Y013042D01*
X018727Y013201D02*
X027627Y013201D01*
X027627Y013359D02*
X018727Y013359D01*
X018727Y013518D02*
X027627Y013518D01*
X027627Y013676D02*
X018727Y013676D01*
X018727Y013835D02*
X027627Y013835D01*
X027627Y013993D02*
X018727Y013993D01*
X018727Y014152D02*
X027627Y014152D01*
X027627Y014310D02*
X018727Y014310D01*
X018727Y014469D02*
X027627Y014469D01*
X027627Y014627D02*
X018727Y014627D01*
X018727Y014786D02*
X027627Y014786D01*
X027627Y014944D02*
X018727Y014944D01*
X018727Y015103D02*
X027627Y015103D01*
X027627Y015261D02*
X018727Y015261D01*
X018707Y015420D02*
X027627Y015420D01*
X027627Y015578D02*
X018598Y015578D01*
X018440Y015737D02*
X027627Y015737D01*
X027627Y015895D02*
X019104Y015895D01*
X019268Y016054D02*
X027627Y016054D01*
X027627Y016212D02*
X019332Y016212D01*
X019332Y016371D02*
X027627Y016371D01*
X027627Y016529D02*
X019275Y016529D01*
X019137Y016688D02*
X027627Y016688D01*
X027627Y016846D02*
X018209Y016846D01*
X018357Y017005D02*
X027627Y017005D01*
X027627Y017163D02*
X018357Y017163D01*
X018357Y017322D02*
X027627Y017322D01*
X027627Y017480D02*
X018357Y017480D01*
X018325Y017639D02*
X027627Y017639D01*
X027627Y017797D02*
X018166Y017797D01*
X018008Y017956D02*
X027627Y017956D01*
X027627Y018114D02*
X016605Y018114D01*
X016447Y017956D02*
X017226Y017956D01*
X017067Y017797D02*
X016288Y017797D01*
X016130Y017639D02*
X016909Y017639D01*
X016877Y017480D02*
X011696Y017480D01*
X011538Y017639D02*
X012104Y017639D01*
X011946Y017797D02*
X011379Y017797D01*
X011221Y017956D02*
X011787Y017956D01*
X011629Y018114D02*
X011062Y018114D01*
X010904Y018273D02*
X011470Y018273D01*
X011312Y018431D02*
X010745Y018431D01*
X010587Y018590D02*
X011153Y018590D01*
X010995Y018748D02*
X010428Y018748D01*
X010632Y018948D02*
X010784Y018885D01*
X010632Y018948D02*
X010515Y019065D01*
X010452Y019224D02*
X009953Y019224D01*
X009794Y019382D02*
X010452Y019382D01*
X010521Y019541D02*
X009727Y019541D01*
X009727Y019699D02*
X010746Y019699D01*
X010988Y019699D02*
X011746Y019699D01*
X011988Y019699D02*
X012746Y019699D01*
X012988Y019699D02*
X013746Y019699D01*
X013988Y019699D02*
X014746Y019699D01*
X014988Y019699D02*
X015342Y019699D01*
X015500Y019858D02*
X009727Y019858D01*
X009727Y020016D02*
X015659Y020016D01*
X015817Y020175D02*
X009727Y020175D01*
X009727Y020333D02*
X015976Y020333D01*
X016134Y020492D02*
X009727Y020492D01*
X009727Y020650D02*
X010748Y020650D01*
X010986Y020650D02*
X011748Y020650D01*
X011986Y020650D02*
X012748Y020650D01*
X012986Y020650D02*
X013748Y020650D01*
X013986Y020650D02*
X014748Y020650D01*
X014986Y020650D02*
X015748Y020650D01*
X015986Y020650D02*
X016293Y020650D01*
X016212Y020809D02*
X016451Y020809D01*
X016282Y020967D02*
X016282Y021133D01*
X016429Y021284D02*
X016927Y021284D01*
X017085Y021443D02*
X016588Y021443D01*
X016746Y021601D02*
X017244Y021601D01*
X017402Y021760D02*
X016905Y021760D01*
X017063Y021918D02*
X017561Y021918D01*
X017719Y022077D02*
X017222Y022077D01*
X017380Y022235D02*
X017878Y022235D01*
X018036Y022394D02*
X017539Y022394D01*
X017697Y022552D02*
X018195Y022552D01*
X018428Y022869D02*
X018512Y022869D01*
X018567Y023028D02*
X018428Y023028D01*
X018428Y023186D02*
X018567Y023186D01*
X018567Y023345D02*
X018428Y023345D01*
X018428Y023503D02*
X018567Y023503D01*
X018567Y023662D02*
X018361Y023662D01*
X018567Y023820D02*
X013271Y023820D01*
X013172Y023721D02*
X013172Y023721D01*
X013157Y023662D02*
X013577Y023662D01*
X013402Y023503D02*
X013332Y023503D01*
X013430Y023979D02*
X018567Y023979D01*
X018567Y024137D02*
X013579Y024137D01*
X013627Y024296D02*
X014138Y024296D01*
X014396Y024296D02*
X015138Y024296D01*
X015396Y024296D02*
X016138Y024296D01*
X016396Y024296D02*
X017138Y024296D01*
X017396Y024296D02*
X018567Y024296D01*
X018484Y024454D02*
X017650Y024454D01*
X017747Y024613D02*
X018387Y024613D01*
X018351Y024771D02*
X017783Y024771D01*
X017771Y024930D02*
X018363Y024930D01*
X018428Y025088D02*
X017706Y025088D01*
X017536Y025247D02*
X018598Y025247D01*
X019136Y025247D02*
X019598Y025247D01*
X019428Y025088D02*
X019306Y025088D01*
X020136Y025247D02*
X020598Y025247D01*
X020428Y025088D02*
X020306Y025088D01*
X021136Y025247D02*
X021598Y025247D01*
X021428Y025088D02*
X021306Y025088D01*
X022136Y025247D02*
X022598Y025247D01*
X022428Y025088D02*
X022306Y025088D01*
X023136Y025247D02*
X023598Y025247D01*
X023428Y025088D02*
X023306Y025088D01*
X023347Y024613D02*
X023387Y024613D01*
X023484Y024454D02*
X023250Y024454D01*
X022996Y024296D02*
X023738Y024296D01*
X023996Y024296D02*
X024738Y024296D01*
X024996Y024296D02*
X025738Y024296D01*
X025996Y024296D02*
X026627Y024296D01*
X026627Y024454D02*
X026250Y024454D01*
X026347Y024613D02*
X026627Y024613D01*
X026627Y024771D02*
X026383Y024771D01*
X026371Y024930D02*
X026627Y024930D01*
X026627Y025088D02*
X026306Y025088D01*
X026136Y025247D02*
X026481Y025247D01*
X026322Y025405D02*
X015464Y025405D01*
X015573Y025247D02*
X015998Y025247D01*
X015828Y025088D02*
X015706Y025088D01*
X015267Y025150D02*
X015267Y024800D01*
X015267Y025150D02*
X014992Y025425D01*
X004742Y025425D01*
X004367Y025050D01*
X003945Y025247D02*
X001107Y025247D01*
X001107Y025405D02*
X004064Y025405D01*
X004104Y025444D02*
X003973Y025313D01*
X003902Y025142D01*
X003902Y024958D01*
X003973Y024787D01*
X004104Y024656D01*
X004274Y024585D01*
X004459Y024585D01*
X004630Y024656D01*
X004761Y024787D01*
X004832Y024958D01*
X004832Y025062D01*
X004874Y025105D01*
X009843Y025105D01*
X009830Y025092D01*
X009751Y024903D01*
X009751Y024697D01*
X009830Y024508D01*
X009917Y024421D01*
X008726Y023230D01*
X008624Y023129D01*
X008569Y022997D01*
X008569Y018666D01*
X008624Y018534D01*
X011562Y015596D01*
X011663Y015495D01*
X011795Y015440D01*
X017718Y015440D01*
X018007Y015151D01*
X018007Y014957D01*
X017923Y015040D01*
X017310Y015040D01*
X016877Y014607D01*
X016877Y014120D01*
X007499Y014120D01*
X005548Y016071D01*
X005431Y016120D01*
X005338Y016120D01*
X004898Y016560D01*
X005423Y016560D01*
X005857Y016993D01*
X005857Y017607D01*
X005423Y018040D01*
X005324Y018040D01*
X003981Y019384D01*
X003734Y019486D01*
X002892Y019486D01*
X002799Y019524D01*
X001580Y019524D01*
X001320Y019416D01*
X001121Y019217D01*
X001107Y019184D01*
X001107Y020573D01*
X001138Y020497D01*
X001181Y020423D01*
X001233Y020356D01*
X001293Y020296D01*
X001360Y020244D01*
X001434Y020201D01*
X001512Y020169D01*
X001594Y020147D01*
X001679Y020136D01*
X002132Y020136D01*
X002132Y020726D01*
X002248Y020726D01*
X002248Y020842D01*
X003305Y020842D01*
X003296Y020911D01*
X003274Y020993D01*
X003241Y021072D01*
X003199Y021145D01*
X003147Y021213D01*
X003087Y021273D01*
X003019Y021325D01*
X002946Y021367D01*
X002867Y021400D01*
X002785Y021422D01*
X002701Y021433D01*
X002248Y021433D01*
X002248Y020842D01*
X002132Y020842D01*
X002132Y021433D01*
X001679Y021433D01*
X001594Y021422D01*
X001512Y021400D01*
X001434Y021367D01*
X001360Y021325D01*
X001293Y021273D01*
X001233Y021213D01*
X001181Y021145D01*
X001138Y021072D01*
X001107Y020996D01*
X001107Y025560D01*
X004424Y025560D01*
X004379Y025515D01*
X004274Y025515D01*
X004104Y025444D01*
X003902Y025088D02*
X001107Y025088D01*
X001107Y024930D02*
X003914Y024930D01*
X003988Y024771D02*
X001107Y024771D01*
X001107Y024613D02*
X004208Y024613D01*
X004526Y024613D02*
X009787Y024613D01*
X009751Y024771D02*
X004746Y024771D01*
X004820Y024930D02*
X009763Y024930D01*
X009828Y025088D02*
X004858Y025088D01*
X001107Y023186D02*
X008681Y023186D01*
X008582Y023028D02*
X001107Y023028D01*
X001107Y022869D02*
X008569Y022869D01*
X008569Y022711D02*
X001107Y022711D01*
X001107Y022552D02*
X008569Y022552D01*
X008569Y022394D02*
X001107Y022394D01*
X001107Y022235D02*
X008569Y022235D01*
X008569Y022077D02*
X001107Y022077D01*
X001107Y021918D02*
X008569Y021918D01*
X008569Y021760D02*
X001107Y021760D01*
X001107Y021601D02*
X008569Y021601D01*
X008569Y021443D02*
X001107Y021443D01*
X001107Y021284D02*
X001307Y021284D01*
X001169Y021126D02*
X001107Y021126D01*
X001107Y020492D02*
X001141Y020492D01*
X001107Y020333D02*
X001255Y020333D01*
X001107Y020175D02*
X001499Y020175D01*
X001107Y020016D02*
X008569Y020016D01*
X008569Y019858D02*
X001107Y019858D01*
X001107Y019699D02*
X008569Y019699D01*
X008569Y019541D02*
X001107Y019541D01*
X001107Y019382D02*
X001286Y019382D01*
X001127Y019224D02*
X001107Y019224D01*
X001107Y018447D02*
X001121Y018414D01*
X001320Y018215D01*
X001580Y018107D01*
X002446Y018107D01*
X004934Y015619D01*
X005024Y015529D01*
X005142Y015480D01*
X005234Y015480D01*
X007094Y013620D01*
X005483Y013620D01*
X005857Y013993D01*
X005857Y014607D01*
X005423Y015040D01*
X005314Y015040D01*
X005188Y015174D01*
X005184Y015184D01*
X005100Y015268D01*
X005018Y015355D01*
X005008Y015359D01*
X005001Y015367D01*
X004891Y015412D01*
X004782Y015461D01*
X004772Y015462D01*
X004762Y015466D01*
X004643Y015466D01*
X004524Y015469D01*
X004514Y015466D01*
X002940Y015466D01*
X002799Y015524D01*
X001580Y015524D01*
X001320Y015416D01*
X001121Y015217D01*
X001107Y015184D01*
X001107Y016573D01*
X001138Y016497D01*
X001181Y016423D01*
X001233Y016356D01*
X001293Y016296D01*
X001360Y016244D01*
X001434Y016201D01*
X001512Y016169D01*
X001594Y016147D01*
X001679Y016136D01*
X002132Y016136D01*
X002132Y016726D01*
X002248Y016726D01*
X002248Y016842D01*
X003305Y016842D01*
X003296Y016911D01*
X003274Y016993D01*
X003241Y017072D01*
X003199Y017145D01*
X003147Y017213D01*
X003087Y017273D01*
X003019Y017325D01*
X002946Y017367D01*
X002867Y017400D01*
X002785Y017422D01*
X002701Y017433D01*
X002248Y017433D01*
X002248Y016842D01*
X002132Y016842D01*
X002132Y017433D01*
X001679Y017433D01*
X001594Y017422D01*
X001512Y017400D01*
X001434Y017367D01*
X001360Y017325D01*
X001293Y017273D01*
X001233Y017213D01*
X001181Y017145D01*
X001138Y017072D01*
X001107Y016996D01*
X001107Y018447D01*
X001107Y018431D02*
X001114Y018431D01*
X001107Y018273D02*
X001263Y018273D01*
X001107Y018114D02*
X001564Y018114D01*
X001107Y017956D02*
X002597Y017956D01*
X002756Y017797D02*
X001107Y017797D01*
X001107Y017639D02*
X002914Y017639D01*
X003073Y017480D02*
X001107Y017480D01*
X001107Y017322D02*
X001356Y017322D01*
X001194Y017163D02*
X001107Y017163D01*
X001107Y017005D02*
X001111Y017005D01*
X001107Y016529D02*
X001125Y016529D01*
X001107Y016371D02*
X001221Y016371D01*
X001107Y016212D02*
X001415Y016212D01*
X001107Y016054D02*
X004499Y016054D01*
X004341Y016212D02*
X002964Y016212D01*
X002946Y016201D02*
X003019Y016244D01*
X003087Y016296D01*
X003147Y016356D01*
X003199Y016423D01*
X003241Y016497D01*
X003274Y016575D01*
X003296Y016657D01*
X003305Y016726D01*
X002248Y016726D01*
X002248Y016136D01*
X002701Y016136D01*
X002785Y016147D01*
X002867Y016169D01*
X002946Y016201D01*
X003158Y016371D02*
X004182Y016371D01*
X004024Y016529D02*
X003254Y016529D01*
X003300Y016688D02*
X003865Y016688D01*
X003707Y016846D02*
X003304Y016846D01*
X003269Y017005D02*
X003548Y017005D01*
X003390Y017163D02*
X003185Y017163D01*
X003231Y017322D02*
X003023Y017322D01*
X002248Y017322D02*
X002132Y017322D01*
X002132Y017163D02*
X002248Y017163D01*
X002248Y017005D02*
X002132Y017005D01*
X002132Y016846D02*
X002248Y016846D01*
X002248Y016688D02*
X002132Y016688D01*
X002132Y016529D02*
X002248Y016529D01*
X002248Y016371D02*
X002132Y016371D01*
X002132Y016212D02*
X002248Y016212D01*
X001327Y015420D02*
X001107Y015420D01*
X001107Y015578D02*
X004975Y015578D01*
X004875Y015420D02*
X005295Y015420D01*
X005453Y015261D02*
X005107Y015261D01*
X005255Y015103D02*
X005612Y015103D01*
X005519Y014944D02*
X005770Y014944D01*
X005678Y014786D02*
X005929Y014786D01*
X005836Y014627D02*
X006087Y014627D01*
X006246Y014469D02*
X005857Y014469D01*
X005857Y014310D02*
X006404Y014310D01*
X006563Y014152D02*
X005857Y014152D01*
X005856Y013993D02*
X006721Y013993D01*
X006880Y013835D02*
X005698Y013835D01*
X005539Y013676D02*
X007038Y013676D01*
X007367Y013800D02*
X016867Y013800D01*
X023867Y006800D01*
X025367Y006800D01*
X025867Y006300D01*
X025867Y005800D01*
X026339Y005593D02*
X026627Y005593D01*
X026627Y005751D02*
X026383Y005751D01*
X026380Y005910D02*
X026653Y005910D01*
X026796Y006068D02*
X026314Y006068D01*
X026187Y006227D02*
X026954Y006227D01*
X027113Y006385D02*
X026178Y006385D01*
X026076Y006544D02*
X027271Y006544D01*
X027430Y006702D02*
X025917Y006702D01*
X025759Y006861D02*
X027588Y006861D01*
X027627Y007019D02*
X025600Y007019D01*
X025395Y005593D02*
X025339Y005593D01*
X025230Y005434D02*
X025504Y005434D01*
X026230Y005434D02*
X026627Y005434D01*
X026627Y005276D02*
X003209Y005276D01*
X003149Y005215D02*
X003547Y005613D01*
X003547Y005875D01*
X002887Y005875D01*
X002887Y005915D01*
X003547Y005915D01*
X003547Y006177D01*
X003149Y006575D01*
X002887Y006575D01*
X002887Y005915D01*
X002847Y005915D01*
X002847Y006575D01*
X002585Y006575D01*
X002187Y006177D01*
X002187Y005915D01*
X002847Y005915D01*
X002847Y005875D01*
X002887Y005875D01*
X002887Y005215D01*
X003149Y005215D01*
X002887Y005276D02*
X002847Y005276D01*
X002847Y005215D02*
X002847Y005875D01*
X002187Y005875D01*
X002187Y005613D01*
X002585Y005215D01*
X002847Y005215D01*
X002847Y005434D02*
X002887Y005434D01*
X002887Y005593D02*
X002847Y005593D01*
X002847Y005751D02*
X002887Y005751D01*
X002887Y005910D02*
X013354Y005910D01*
X013351Y005903D02*
X013351Y005697D01*
X013430Y005508D01*
X013575Y005363D01*
X013764Y005284D01*
X013969Y005284D01*
X014159Y005363D01*
X014304Y005508D01*
X014367Y005660D01*
X014430Y005508D01*
X014575Y005363D01*
X014764Y005284D01*
X014969Y005284D01*
X015159Y005363D01*
X015304Y005508D01*
X015367Y005660D01*
X015430Y005508D01*
X015575Y005363D01*
X015764Y005284D01*
X015969Y005284D01*
X016159Y005363D01*
X016304Y005508D01*
X016383Y005697D01*
X016383Y005903D01*
X016304Y006092D01*
X016159Y006237D01*
X015969Y006316D01*
X015764Y006316D01*
X015575Y006237D01*
X015430Y006092D01*
X015367Y005940D01*
X015304Y006092D01*
X015159Y006237D01*
X014969Y006316D01*
X014764Y006316D01*
X014575Y006237D01*
X014430Y006092D01*
X014367Y005940D01*
X014304Y006092D01*
X014159Y006237D01*
X013969Y006316D01*
X013764Y006316D01*
X013575Y006237D01*
X013430Y006092D01*
X013351Y005903D01*
X013351Y005751D02*
X003547Y005751D01*
X003526Y005593D02*
X013395Y005593D01*
X013504Y005434D02*
X003368Y005434D01*
X002847Y005910D02*
X001107Y005910D01*
X001107Y006068D02*
X002187Y006068D01*
X002237Y006227D02*
X001107Y006227D01*
X001107Y006385D02*
X002395Y006385D01*
X002554Y006544D02*
X001107Y006544D01*
X001107Y006702D02*
X023012Y006702D01*
X023171Y006544D02*
X003180Y006544D01*
X003339Y006385D02*
X023329Y006385D01*
X023170Y006227D02*
X023488Y006227D01*
X023420Y006068D02*
X023314Y006068D01*
X023339Y005593D02*
X023395Y005593D01*
X023504Y005434D02*
X023230Y005434D01*
X022504Y005434D02*
X022230Y005434D01*
X022339Y005593D02*
X022395Y005593D01*
X022420Y006068D02*
X022314Y006068D01*
X022170Y006227D02*
X022564Y006227D01*
X021564Y006227D02*
X021170Y006227D01*
X021314Y006068D02*
X021420Y006068D01*
X021395Y005593D02*
X021339Y005593D01*
X021230Y005434D02*
X021504Y005434D01*
X020504Y005434D02*
X019230Y005434D01*
X019159Y005363D02*
X019304Y005508D01*
X019383Y005697D01*
X019383Y005903D01*
X019304Y006092D01*
X019159Y006237D01*
X018969Y006316D01*
X018764Y006316D01*
X018575Y006237D01*
X018430Y006092D01*
X018351Y005903D01*
X018351Y005697D01*
X018430Y005508D01*
X018575Y005363D01*
X018764Y005284D01*
X018969Y005284D01*
X019159Y005363D01*
X019339Y005593D02*
X020395Y005593D01*
X020351Y005751D02*
X019383Y005751D01*
X019380Y005910D02*
X020354Y005910D01*
X020420Y006068D02*
X019314Y006068D01*
X019170Y006227D02*
X020564Y006227D01*
X018564Y006227D02*
X018029Y006227D01*
X018042Y006222D02*
X017974Y006244D01*
X017903Y006256D01*
X017867Y006256D01*
X017867Y005800D01*
X018323Y005800D01*
X018323Y005836D01*
X018311Y005907D01*
X018289Y005975D01*
X018257Y006039D01*
X018214Y006097D01*
X018164Y006148D01*
X018106Y006190D01*
X018042Y006222D01*
X017867Y006227D02*
X017867Y006227D01*
X017867Y006256D02*
X017867Y005800D01*
X017867Y005800D01*
X018323Y005800D01*
X018323Y005764D01*
X018311Y005693D01*
X018289Y005625D01*
X018257Y005561D01*
X018214Y005503D01*
X018164Y005452D01*
X018106Y005410D01*
X018042Y005378D01*
X017974Y005356D01*
X017903Y005344D01*
X017867Y005344D01*
X017867Y005800D01*
X017867Y005800D01*
X017867Y005800D01*
X017867Y005344D01*
X017831Y005344D01*
X017760Y005356D01*
X017692Y005378D01*
X017628Y005410D01*
X017570Y005452D01*
X017519Y005503D01*
X017477Y005561D01*
X017445Y005625D01*
X017423Y005693D01*
X017411Y005764D01*
X017411Y005800D01*
X017867Y005800D01*
X017411Y005800D01*
X017411Y005836D01*
X017423Y005907D01*
X017445Y005975D01*
X017477Y006039D01*
X017519Y006097D01*
X017570Y006148D01*
X017628Y006190D01*
X017692Y006222D01*
X017760Y006244D01*
X017831Y006256D01*
X017867Y006256D01*
X017705Y006227D02*
X017029Y006227D01*
X017042Y006222D02*
X016974Y006244D01*
X016903Y006256D01*
X016867Y006256D01*
X016867Y005800D01*
X017323Y005800D01*
X017323Y005836D01*
X017311Y005907D01*
X017289Y005975D01*
X017257Y006039D01*
X017214Y006097D01*
X017164Y006148D01*
X017106Y006190D01*
X017042Y006222D01*
X016867Y006227D02*
X016867Y006227D01*
X016867Y006256D02*
X016867Y005800D01*
X016867Y005800D01*
X017323Y005800D01*
X017323Y005764D01*
X017311Y005693D01*
X017289Y005625D01*
X017257Y005561D01*
X017214Y005503D01*
X017164Y005452D01*
X017106Y005410D01*
X017042Y005378D01*
X016974Y005356D01*
X016903Y005344D01*
X016867Y005344D01*
X016867Y005800D01*
X016867Y005800D01*
X016867Y005800D01*
X016867Y005344D01*
X016831Y005344D01*
X016760Y005356D01*
X016692Y005378D01*
X016628Y005410D01*
X016570Y005452D01*
X016519Y005503D01*
X016477Y005561D01*
X016445Y005625D01*
X016423Y005693D01*
X016411Y005764D01*
X016411Y005800D01*
X016867Y005800D01*
X016411Y005800D01*
X016411Y005836D01*
X016423Y005907D01*
X016445Y005975D01*
X016477Y006039D01*
X016519Y006097D01*
X016570Y006148D01*
X016628Y006190D01*
X016692Y006222D01*
X016760Y006244D01*
X016831Y006256D01*
X016867Y006256D01*
X016705Y006227D02*
X016170Y006227D01*
X016314Y006068D02*
X016499Y006068D01*
X016423Y005910D02*
X016380Y005910D01*
X016383Y005751D02*
X016413Y005751D01*
X016461Y005593D02*
X016339Y005593D01*
X016230Y005434D02*
X016596Y005434D01*
X016867Y005434D02*
X016867Y005434D01*
X016867Y005593D02*
X016867Y005593D01*
X016867Y005751D02*
X016867Y005751D01*
X016867Y005800D02*
X016867Y005800D01*
X016867Y005910D02*
X016867Y005910D01*
X016867Y006068D02*
X016867Y006068D01*
X017235Y006068D02*
X017499Y006068D01*
X017423Y005910D02*
X017310Y005910D01*
X017320Y005751D02*
X017413Y005751D01*
X017461Y005593D02*
X017273Y005593D01*
X017138Y005434D02*
X017596Y005434D01*
X017867Y005434D02*
X017867Y005434D01*
X017867Y005593D02*
X017867Y005593D01*
X017867Y005751D02*
X017867Y005751D01*
X017867Y005800D02*
X017867Y005800D01*
X017867Y005910D02*
X017867Y005910D01*
X017867Y006068D02*
X017867Y006068D01*
X018235Y006068D02*
X018420Y006068D01*
X018354Y005910D02*
X018310Y005910D01*
X018320Y005751D02*
X018351Y005751D01*
X018395Y005593D02*
X018273Y005593D01*
X018138Y005434D02*
X018504Y005434D01*
X017321Y007019D02*
X017254Y007019D01*
X016480Y007019D02*
X016254Y007019D01*
X015480Y007019D02*
X015254Y007019D01*
X014480Y007019D02*
X014254Y007019D01*
X013480Y007019D02*
X013254Y007019D01*
X012480Y007019D02*
X012254Y007019D01*
X011480Y007019D02*
X011254Y007019D01*
X013420Y006068D02*
X003547Y006068D01*
X003497Y006227D02*
X013564Y006227D01*
X014170Y006227D02*
X014564Y006227D01*
X014420Y006068D02*
X014314Y006068D01*
X014339Y005593D02*
X014395Y005593D01*
X014504Y005434D02*
X014230Y005434D01*
X015230Y005434D02*
X015504Y005434D01*
X015395Y005593D02*
X015339Y005593D01*
X015314Y006068D02*
X015420Y006068D01*
X015564Y006227D02*
X015170Y006227D01*
X017291Y009080D02*
X005443Y009080D01*
X005601Y009238D02*
X017132Y009238D01*
X016974Y009397D02*
X005760Y009397D01*
X005857Y009555D02*
X016877Y009555D01*
X016877Y009714D02*
X005857Y009714D01*
X005857Y009872D02*
X016877Y009872D01*
X016877Y010031D02*
X005857Y010031D01*
X005774Y010189D02*
X016959Y010189D01*
X017118Y010348D02*
X005616Y010348D01*
X005457Y010506D02*
X017276Y010506D01*
X016867Y013300D02*
X023867Y006300D01*
X023867Y005800D01*
X024339Y005593D02*
X024395Y005593D01*
X024504Y005434D02*
X024230Y005434D01*
X023942Y007178D02*
X027627Y007178D01*
X027627Y007336D02*
X023783Y007336D01*
X023625Y007495D02*
X027627Y007495D01*
X027627Y007653D02*
X023466Y007653D01*
X023308Y007812D02*
X027627Y007812D01*
X027627Y007970D02*
X023149Y007970D01*
X022991Y008129D02*
X027627Y008129D01*
X027627Y008287D02*
X022832Y008287D01*
X022674Y008446D02*
X027627Y008446D01*
X027627Y008604D02*
X022515Y008604D01*
X022357Y008763D02*
X027627Y008763D01*
X027627Y008921D02*
X022198Y008921D01*
X022040Y009080D02*
X027627Y009080D01*
X027627Y009238D02*
X021881Y009238D01*
X021723Y009397D02*
X027627Y009397D01*
X027627Y009555D02*
X021564Y009555D01*
X016867Y013300D02*
X003706Y013300D01*
X002190Y014816D01*
X001473Y014152D02*
X001107Y014152D01*
X001107Y014310D02*
X001225Y014310D01*
X001107Y013993D02*
X002560Y013993D01*
X002718Y013835D02*
X001107Y013835D01*
X001107Y013676D02*
X002877Y013676D01*
X002248Y013359D02*
X002132Y013359D01*
X002132Y013201D02*
X002248Y013201D01*
X002248Y013042D02*
X002132Y013042D01*
X002132Y012884D02*
X002248Y012884D01*
X002248Y012725D02*
X002132Y012725D01*
X002132Y012567D02*
X002248Y012567D01*
X002248Y012408D02*
X002132Y012408D01*
X002132Y012250D02*
X002248Y012250D01*
X001165Y015261D02*
X001107Y015261D01*
X001107Y015737D02*
X004816Y015737D01*
X004658Y015895D02*
X001107Y015895D01*
X002190Y018816D02*
X005206Y015800D01*
X005367Y015800D01*
X007367Y013800D01*
X007468Y014152D02*
X016877Y014152D01*
X016877Y014310D02*
X007309Y014310D01*
X007151Y014469D02*
X016877Y014469D01*
X016897Y014627D02*
X006992Y014627D01*
X006834Y014786D02*
X017056Y014786D01*
X017214Y014944D02*
X006675Y014944D01*
X006517Y015103D02*
X018007Y015103D01*
X017897Y015261D02*
X006358Y015261D01*
X006200Y015420D02*
X017738Y015420D01*
X018281Y015895D02*
X018630Y015895D01*
X018597Y016688D02*
X018051Y016688D01*
X017183Y016688D02*
X012489Y016688D01*
X012330Y016846D02*
X017024Y016846D01*
X016877Y017005D02*
X012172Y017005D01*
X012013Y017163D02*
X016877Y017163D01*
X016877Y017322D02*
X011855Y017322D01*
X010787Y016371D02*
X005088Y016371D01*
X004929Y016529D02*
X010629Y016529D01*
X010470Y016688D02*
X005551Y016688D01*
X005709Y016846D02*
X010312Y016846D01*
X010153Y017005D02*
X005857Y017005D01*
X005857Y017163D02*
X009995Y017163D01*
X009836Y017322D02*
X005857Y017322D01*
X005857Y017480D02*
X009678Y017480D01*
X009519Y017639D02*
X005825Y017639D01*
X005666Y017797D02*
X009361Y017797D01*
X009202Y017956D02*
X005508Y017956D01*
X005250Y018114D02*
X009044Y018114D01*
X008885Y018273D02*
X005092Y018273D01*
X004933Y018431D02*
X008727Y018431D01*
X008601Y018590D02*
X004775Y018590D01*
X004616Y018748D02*
X008569Y018748D01*
X008569Y018907D02*
X004458Y018907D01*
X004299Y019065D02*
X008569Y019065D01*
X008569Y019224D02*
X004141Y019224D01*
X003982Y019382D02*
X008569Y019382D01*
X008569Y020175D02*
X002881Y020175D01*
X002867Y020169D02*
X002946Y020201D01*
X003019Y020244D01*
X003087Y020296D01*
X003147Y020356D01*
X003199Y020423D01*
X003241Y020497D01*
X003274Y020575D01*
X003296Y020657D01*
X003305Y020726D01*
X002248Y020726D01*
X002248Y020136D01*
X002701Y020136D01*
X002785Y020147D01*
X002867Y020169D01*
X003124Y020333D02*
X008569Y020333D01*
X008569Y020492D02*
X003238Y020492D01*
X003294Y020650D02*
X008569Y020650D01*
X008569Y020809D02*
X002248Y020809D01*
X002248Y020967D02*
X002132Y020967D01*
X002132Y021126D02*
X002248Y021126D01*
X002248Y021284D02*
X002132Y021284D01*
X002132Y020650D02*
X002248Y020650D01*
X002248Y020492D02*
X002132Y020492D01*
X002132Y020333D02*
X002248Y020333D01*
X002248Y020175D02*
X002132Y020175D01*
X003281Y020967D02*
X008569Y020967D01*
X008569Y021126D02*
X003210Y021126D01*
X003072Y021284D02*
X008569Y021284D01*
X009727Y021284D02*
X010515Y021284D01*
X010547Y021443D02*
X009727Y021443D01*
X009727Y021601D02*
X010547Y021601D01*
X010547Y021760D02*
X009727Y021760D01*
X009727Y021918D02*
X010547Y021918D01*
X010547Y022077D02*
X009727Y022077D01*
X009727Y022235D02*
X010547Y022235D01*
X010634Y022394D02*
X009727Y022394D01*
X009727Y022552D02*
X010792Y022552D01*
X010537Y022711D02*
X009787Y022711D01*
X009945Y022869D02*
X010386Y022869D01*
X010320Y023028D02*
X010104Y023028D01*
X010262Y023186D02*
X010306Y023186D01*
X009474Y023979D02*
X001107Y023979D01*
X001107Y024137D02*
X009632Y024137D01*
X009791Y024296D02*
X001107Y024296D01*
X001107Y024454D02*
X009884Y024454D01*
X009315Y023820D02*
X001107Y023820D01*
X001107Y023662D02*
X009157Y023662D01*
X008998Y023503D02*
X001107Y023503D01*
X001107Y023345D02*
X008840Y023345D01*
X010767Y024660D02*
X010783Y024697D01*
X010783Y024903D01*
X010704Y025092D01*
X010691Y025105D01*
X010928Y025105D01*
X010919Y025097D01*
X010877Y025039D01*
X010845Y024975D01*
X010823Y024907D01*
X010811Y024836D01*
X010811Y024800D01*
X011267Y024800D01*
X011723Y024800D01*
X011723Y024836D01*
X011711Y024907D01*
X011689Y024975D01*
X011657Y025039D01*
X011614Y025097D01*
X011606Y025105D01*
X011843Y025105D01*
X011830Y025092D01*
X011751Y024903D01*
X011751Y024697D01*
X011767Y024660D01*
X011700Y024660D01*
X011711Y024693D01*
X011723Y024764D01*
X011723Y024800D01*
X011267Y024800D01*
X011267Y024800D01*
X010811Y024800D01*
X010811Y024764D01*
X010823Y024693D01*
X010833Y024660D01*
X010767Y024660D01*
X010783Y024771D02*
X010811Y024771D01*
X010830Y024930D02*
X010771Y024930D01*
X010706Y025088D02*
X010913Y025088D01*
X011267Y024800D02*
X011267Y024800D01*
X011704Y024930D02*
X011763Y024930D01*
X011751Y024771D02*
X011723Y024771D01*
X011621Y025088D02*
X011828Y025088D01*
X013650Y024454D02*
X013884Y024454D01*
X013787Y024613D02*
X013747Y024613D01*
X014650Y024454D02*
X014884Y024454D01*
X014787Y024613D02*
X014747Y024613D01*
X015650Y024454D02*
X015884Y024454D01*
X015787Y024613D02*
X015747Y024613D01*
X016650Y024454D02*
X016884Y024454D01*
X016787Y024613D02*
X016747Y024613D01*
X016706Y025088D02*
X016828Y025088D01*
X016998Y025247D02*
X016536Y025247D01*
X016745Y023662D02*
X016157Y023662D01*
X016332Y023503D02*
X016487Y023503D01*
X016847Y023503D02*
X016887Y023503D01*
X016887Y023345D02*
X016847Y023345D01*
X016847Y023154D02*
X016887Y023154D01*
X016887Y022673D01*
X016906Y022673D01*
X016914Y022674D01*
X015649Y021409D01*
X015632Y021402D01*
X015515Y021285D01*
X015452Y021133D01*
X015452Y020967D01*
X015452Y021126D02*
X015282Y021126D01*
X015282Y021133D02*
X015219Y021285D01*
X015187Y021317D01*
X015187Y022041D01*
X015758Y022613D01*
X015979Y022613D01*
X016185Y022698D01*
X016343Y022856D01*
X016399Y022992D01*
X016402Y022982D01*
X016438Y022911D01*
X016485Y022847D01*
X016540Y022792D01*
X016604Y022745D01*
X016675Y022709D01*
X016750Y022685D01*
X016827Y022673D01*
X016847Y022673D01*
X016847Y023154D01*
X016847Y023028D02*
X016887Y023028D01*
X016887Y022869D02*
X016847Y022869D01*
X016847Y022711D02*
X016887Y022711D01*
X016792Y022552D02*
X015697Y022552D01*
X015539Y022394D02*
X016634Y022394D01*
X016475Y022235D02*
X015380Y022235D01*
X015222Y022077D02*
X016317Y022077D01*
X016158Y021918D02*
X015187Y021918D01*
X015187Y021760D02*
X016000Y021760D01*
X015841Y021601D02*
X015187Y021601D01*
X015187Y021443D02*
X015683Y021443D01*
X015515Y021284D02*
X015219Y021284D01*
X015282Y021133D02*
X015282Y020967D01*
X015212Y020809D02*
X015522Y020809D01*
X015867Y021050D02*
X015867Y021174D01*
X017867Y023174D01*
X017306Y023503D02*
X017247Y023503D01*
X017373Y023662D02*
X016989Y023662D01*
X016887Y023662D02*
X016847Y023662D01*
X016469Y022869D02*
X016348Y022869D01*
X016197Y022711D02*
X016672Y022711D01*
X015867Y023174D02*
X014867Y022174D01*
X014867Y021050D01*
X014547Y021317D02*
X014515Y021285D01*
X014452Y021133D01*
X014452Y020967D01*
X014452Y021126D02*
X014282Y021126D01*
X014282Y021133D02*
X014219Y021285D01*
X014187Y021317D01*
X014187Y022041D01*
X014758Y022613D01*
X014853Y022613D01*
X014596Y022355D01*
X014547Y022238D01*
X014547Y021317D01*
X014515Y021284D02*
X014219Y021284D01*
X014187Y021443D02*
X014547Y021443D01*
X014547Y021601D02*
X014187Y021601D01*
X014187Y021760D02*
X014547Y021760D01*
X014547Y021918D02*
X014187Y021918D01*
X014222Y022077D02*
X014547Y022077D01*
X014547Y022235D02*
X014380Y022235D01*
X014539Y022394D02*
X014634Y022394D01*
X014697Y022552D02*
X014792Y022552D01*
X014867Y023174D02*
X013867Y022174D01*
X013867Y021050D01*
X013547Y021317D02*
X013515Y021285D01*
X013452Y021133D01*
X013452Y020967D01*
X013452Y021126D02*
X013282Y021126D01*
X013282Y021133D02*
X013219Y021285D01*
X013187Y021317D01*
X013187Y022041D01*
X013758Y022613D01*
X013853Y022613D01*
X013596Y022355D01*
X013547Y022238D01*
X013547Y021317D01*
X013515Y021284D02*
X013219Y021284D01*
X013187Y021443D02*
X013547Y021443D01*
X013547Y021601D02*
X013187Y021601D01*
X013187Y021760D02*
X013547Y021760D01*
X013547Y021918D02*
X013187Y021918D01*
X013222Y022077D02*
X013547Y022077D01*
X013547Y022235D02*
X013380Y022235D01*
X013539Y022394D02*
X013634Y022394D01*
X013697Y022552D02*
X013792Y022552D01*
X013867Y023174D02*
X012867Y022174D01*
X012867Y021050D01*
X012547Y021317D02*
X012515Y021285D01*
X012452Y021133D01*
X012452Y020967D01*
X012452Y021126D02*
X012282Y021126D01*
X012282Y021133D02*
X012219Y021285D01*
X012187Y021317D01*
X012187Y022041D01*
X012758Y022613D01*
X012853Y022613D01*
X012596Y022355D01*
X012547Y022238D01*
X012547Y021317D01*
X012515Y021284D02*
X012219Y021284D01*
X012187Y021443D02*
X012547Y021443D01*
X012547Y021601D02*
X012187Y021601D01*
X012187Y021760D02*
X012547Y021760D01*
X012547Y021918D02*
X012187Y021918D01*
X012222Y022077D02*
X012547Y022077D01*
X012547Y022235D02*
X012380Y022235D01*
X012539Y022394D02*
X012634Y022394D01*
X012697Y022552D02*
X012792Y022552D01*
X012867Y023174D02*
X011867Y022174D01*
X011867Y021050D01*
X011547Y021317D02*
X011515Y021285D01*
X011452Y021133D01*
X011452Y020967D01*
X011452Y021126D02*
X011282Y021126D01*
X011282Y021133D02*
X011219Y021285D01*
X011187Y021317D01*
X011187Y022041D01*
X011758Y022613D01*
X011853Y022613D01*
X011596Y022355D01*
X011547Y022238D01*
X011547Y021317D01*
X011515Y021284D02*
X011219Y021284D01*
X011187Y021443D02*
X011547Y021443D01*
X011547Y021601D02*
X011187Y021601D01*
X011187Y021760D02*
X011547Y021760D01*
X011547Y021918D02*
X011187Y021918D01*
X011222Y022077D02*
X011547Y022077D01*
X011547Y022235D02*
X011380Y022235D01*
X011539Y022394D02*
X011634Y022394D01*
X011697Y022552D02*
X011792Y022552D01*
X011867Y023174D02*
X010867Y022174D01*
X010867Y021050D01*
X011212Y020809D02*
X011522Y020809D01*
X011282Y020967D02*
X011282Y021133D01*
X010452Y021126D02*
X009727Y021126D01*
X010452Y020967D02*
X010515Y020815D01*
X011213Y019541D02*
X011521Y019541D01*
X011452Y019382D02*
X011282Y019382D01*
X011368Y019224D02*
X011452Y019224D01*
X012213Y019541D02*
X012521Y019541D01*
X012452Y019382D02*
X012282Y019382D01*
X012368Y019224D02*
X012452Y019224D01*
X013213Y019541D02*
X013521Y019541D01*
X013452Y019382D02*
X013282Y019382D01*
X013368Y019224D02*
X013452Y019224D01*
X014213Y019541D02*
X014521Y019541D01*
X014452Y019382D02*
X014282Y019382D01*
X014368Y019224D02*
X014452Y019224D01*
X014522Y020809D02*
X014212Y020809D01*
X014282Y020967D02*
X014282Y021133D01*
X013522Y020809D02*
X013212Y020809D01*
X013282Y020967D02*
X013282Y021133D01*
X012522Y020809D02*
X012212Y020809D01*
X012282Y020967D02*
X012282Y021133D01*
X014332Y023503D02*
X014402Y023503D01*
X014577Y023662D02*
X014157Y023662D01*
X015157Y023662D02*
X015577Y023662D01*
X015402Y023503D02*
X015332Y023503D01*
X018666Y020175D02*
X027053Y020175D01*
X026894Y020333D02*
X018824Y020333D01*
X018983Y020492D02*
X026736Y020492D01*
X026628Y020650D02*
X019141Y020650D01*
X019300Y020809D02*
X026627Y020809D01*
X026627Y020967D02*
X019458Y020967D01*
X019617Y021126D02*
X026627Y021126D01*
X026627Y021284D02*
X019775Y021284D01*
X019934Y021443D02*
X026627Y021443D01*
X026627Y021601D02*
X020092Y021601D01*
X020251Y021760D02*
X026627Y021760D01*
X026627Y021918D02*
X020409Y021918D01*
X020568Y022077D02*
X026627Y022077D01*
X026627Y022235D02*
X020726Y022235D01*
X020885Y022394D02*
X026627Y022394D01*
X026627Y022552D02*
X021043Y022552D01*
X021202Y022711D02*
X026627Y022711D01*
X026627Y022869D02*
X021360Y022869D01*
X021519Y023028D02*
X026627Y023028D01*
X026627Y023186D02*
X021677Y023186D01*
X021836Y023345D02*
X026627Y023345D01*
X026627Y023503D02*
X021994Y023503D01*
X022153Y023662D02*
X026627Y023662D01*
X026627Y023820D02*
X022311Y023820D01*
X022470Y023979D02*
X026627Y023979D01*
X026627Y024137D02*
X022628Y024137D01*
X024250Y024454D02*
X024484Y024454D01*
X024387Y024613D02*
X024347Y024613D01*
X024306Y025088D02*
X024428Y025088D01*
X024598Y025247D02*
X024136Y025247D01*
X025136Y025247D02*
X025598Y025247D01*
X025428Y025088D02*
X025306Y025088D01*
X025347Y024613D02*
X025387Y024613D01*
X025484Y024454D02*
X025250Y024454D01*
X027211Y020016D02*
X018507Y020016D01*
X018349Y019858D02*
X027370Y019858D01*
X027528Y019699D02*
X018190Y019699D01*
X018032Y019541D02*
X027627Y019541D01*
X027627Y019382D02*
X017873Y019382D01*
X017715Y019224D02*
X027627Y019224D01*
X027627Y019065D02*
X017556Y019065D01*
X017398Y018907D02*
X027627Y018907D01*
X027627Y018748D02*
X017239Y018748D01*
X017081Y018590D02*
X027627Y018590D01*
X027627Y018431D02*
X016922Y018431D01*
X016764Y018273D02*
X027627Y018273D01*
X026627Y005117D02*
X001107Y005117D01*
X001107Y005276D02*
X002525Y005276D01*
X002366Y005434D02*
X001107Y005434D01*
X001107Y005593D02*
X002208Y005593D01*
X002187Y005751D02*
X001107Y005751D01*
X002847Y006068D02*
X002887Y006068D01*
X002887Y006227D02*
X002847Y006227D01*
X002847Y006385D02*
X002887Y006385D01*
X002887Y006544D02*
X002847Y006544D01*
X006041Y015578D02*
X011580Y015578D01*
X011421Y015737D02*
X005883Y015737D01*
X005724Y015895D02*
X011263Y015895D01*
X011104Y016054D02*
X005566Y016054D01*
X005246Y016212D02*
X010946Y016212D01*
D17*
X012867Y017050D03*
X013867Y017050D03*
X014867Y017050D03*
X016367Y017050D03*
X016867Y015300D03*
X015367Y015300D03*
X014367Y015300D03*
X014367Y014300D03*
X013367Y014300D03*
X013367Y015300D03*
X012367Y014300D03*
X011367Y014300D03*
X010367Y014300D03*
X010867Y012800D03*
X011867Y012800D03*
X012867Y012800D03*
X013867Y012800D03*
X014867Y012800D03*
X015367Y011800D03*
X016367Y011800D03*
X017367Y011800D03*
X018367Y010800D03*
X020304Y011050D03*
X020367Y011800D03*
X019367Y012800D03*
X019867Y013550D03*
X019179Y014300D03*
X020867Y013550D03*
X021554Y014300D03*
X018867Y016300D03*
X019867Y019613D03*
X019179Y020300D03*
X019867Y021050D03*
X020867Y021050D03*
X021554Y020300D03*
X020867Y019613D03*
X016429Y022550D03*
X010367Y019488D03*
X005929Y015925D03*
X006867Y015113D03*
X007367Y014550D03*
X006367Y013800D03*
X007367Y012800D03*
X008367Y012800D03*
X005117Y012050D03*
X004429Y015863D03*
X003679Y016550D03*
X004367Y019300D03*
X005117Y019550D03*
X003367Y019800D03*
X002367Y023800D03*
X004367Y025050D03*
X015367Y010800D03*
X016367Y010800D03*
X019242Y008300D03*
X019867Y007550D03*
X020867Y007550D03*
X021429Y008050D03*
X017367Y006488D03*
X014867Y006550D03*
D18*
X005117Y009800D02*
X004101Y010816D01*
X002190Y010816D01*
X005117Y017300D02*
X003601Y018816D01*
X002190Y018816D01*
D19*
X002190Y014816D02*
X004633Y014816D01*
X005117Y014300D01*
D20*
X010867Y019300D03*
X011867Y019300D03*
X012867Y019300D03*
X013867Y019300D03*
X014867Y019300D03*
X014867Y021050D03*
X015867Y021050D03*
X013867Y021050D03*
X012867Y021050D03*
X011867Y021050D03*
X010867Y021050D03*
D21*
X010867Y019300D02*
X012367Y017800D01*
X015867Y017800D01*
X022867Y024800D01*
X021867Y024800D02*
X021867Y024300D01*
X015617Y018050D01*
X013117Y018050D01*
X011867Y019300D01*
X012867Y019300D02*
X013867Y018300D01*
X015367Y018300D01*
X020867Y023800D01*
X020867Y024800D01*
X019867Y024800D02*
X019867Y023300D01*
X015367Y018800D01*
X014367Y018800D01*
X013867Y019300D01*
X014867Y019300D02*
X015367Y019300D01*
X018867Y022800D01*
X018867Y024800D01*
D22*
X013267Y024800D02*
X013267Y024325D01*
X012867Y023925D01*
X010492Y023925D01*
X009367Y022800D01*
X009367Y019300D01*
X012367Y016300D01*
X018867Y016300D01*
X018367Y015300D02*
X018367Y012988D01*
X020304Y011050D01*
X018367Y015300D02*
X017867Y015800D01*
X011867Y015800D01*
X008929Y018738D01*
X008929Y022925D01*
X010304Y024300D01*
X012117Y024300D01*
X012267Y024450D01*
X012267Y024800D01*
M02*
