G75*
G70*
%OFA0B0*%
%FSLAX24Y24*%
%IPPOS*%
%LPD*%
%AMOC8*
5,1,8,0,0,1.08239X$1,22.5*
%
%ADD10C,0.0000*%
%ADD11OC8,0.1040*%
%ADD12R,0.0683X0.0683*%
%ADD13C,0.0683*%
%ADD14C,0.0591*%
%ADD15C,0.0977*%
%ADD16C,0.0490*%
D10*
X000867Y004800D02*
X026867Y004800D01*
X026867Y005800D01*
X027867Y006800D01*
X027867Y019700D01*
X026867Y020700D01*
X026867Y025200D01*
X026267Y025800D01*
X000867Y025800D01*
X000867Y004800D01*
D11*
X002867Y005895D03*
X002867Y008455D03*
X005117Y009800D03*
X005117Y014300D03*
X005117Y017300D03*
X017617Y017300D03*
X017617Y014300D03*
X017617Y009800D03*
D12*
X017867Y007426D03*
X017867Y023174D03*
D13*
X016867Y023174D03*
X015867Y023174D03*
X014867Y023174D03*
X013867Y023174D03*
X012867Y023174D03*
X011867Y023174D03*
X010867Y023174D03*
X010867Y007426D03*
X011867Y007426D03*
X012867Y007426D03*
X013867Y007426D03*
X014867Y007426D03*
X015867Y007426D03*
X016867Y007426D03*
D14*
X016867Y005800D03*
X017867Y005800D03*
X018867Y005800D03*
X020867Y005800D03*
X021867Y005800D03*
X022867Y005800D03*
X023867Y005800D03*
X024867Y005800D03*
X025867Y005800D03*
X015867Y005800D03*
X014867Y005800D03*
X013867Y005800D03*
X014267Y024800D03*
X013267Y024800D03*
X012267Y024800D03*
X011267Y024800D03*
X010267Y024800D03*
X015267Y024800D03*
X016267Y024800D03*
X017267Y024800D03*
X018867Y024800D03*
X019867Y024800D03*
X020867Y024800D03*
X021867Y024800D03*
X022867Y024800D03*
X023867Y024800D03*
X024867Y024800D03*
X025867Y024800D03*
D15*
X002658Y020784D02*
X001721Y020784D01*
X001721Y018816D02*
X002658Y018816D01*
X002658Y016784D02*
X001721Y016784D01*
X001721Y014816D02*
X002658Y014816D01*
X002658Y012784D02*
X001721Y012784D01*
X001721Y010816D02*
X002658Y010816D01*
D16*
X005117Y012050D03*
X006367Y013800D03*
X007367Y014550D03*
X006867Y015113D03*
X005929Y015925D03*
X004429Y015863D03*
X003679Y016550D03*
X004367Y019300D03*
X005117Y019550D03*
X003367Y019800D03*
X002367Y023800D03*
X004367Y025050D03*
X010367Y019488D03*
X012867Y017050D03*
X013867Y017050D03*
X014867Y017050D03*
X016367Y017050D03*
X016867Y015300D03*
X015367Y015300D03*
X014367Y015300D03*
X014367Y014300D03*
X013367Y014300D03*
X013367Y015300D03*
X012367Y014300D03*
X011367Y014300D03*
X010367Y014300D03*
X010867Y012800D03*
X011867Y012800D03*
X012867Y012800D03*
X013867Y012800D03*
X014867Y012800D03*
X015367Y011800D03*
X016367Y011800D03*
X017367Y011800D03*
X018367Y010800D03*
X020304Y011050D03*
X020367Y011800D03*
X019367Y012800D03*
X019867Y013550D03*
X019179Y014300D03*
X020867Y013550D03*
X021554Y014300D03*
X018867Y016300D03*
X019867Y019613D03*
X019179Y020300D03*
X019867Y021050D03*
X020867Y021050D03*
X021554Y020300D03*
X020867Y019613D03*
X016429Y022550D03*
X008367Y012800D03*
X007367Y012800D03*
X014867Y006550D03*
X017367Y006488D03*
X019242Y008300D03*
X019867Y007550D03*
X020867Y007550D03*
X021429Y008050D03*
X016367Y010800D03*
X015367Y010800D03*
M02*
