G04 EAGLE Gerber RS-274X export*
G75*
%MOMM*%
%FSLAX34Y34*%
%LPD*%
%INTop Copper*%
%IPPOS*%
%AMOC8*
5,1,8,0,0,1.08239X$1,22.5*%
G01*
%ADD10C,0.254000*%
%ADD11C,0.304800*%
%ADD12C,0.406400*%


D10*
X940820Y507540D02*
X940820Y479260D01*
X940820Y507540D02*
X941750Y508470D01*
X286960Y467100D02*
X276600Y467100D01*
X274320Y464820D01*
X274320Y411880D01*
X274250Y411810D01*
X320040Y454660D02*
X340360Y454660D01*
X307600Y467100D02*
X286960Y467100D01*
X307600Y467100D02*
X320040Y454660D01*
X991620Y479260D02*
X991620Y507540D01*
X992550Y508470D01*
X299650Y436950D02*
X299650Y411810D01*
X299650Y436950D02*
X287020Y449580D01*
X287020Y460540D01*
X286960Y460600D01*
X320040Y447040D02*
X332740Y447040D01*
X306480Y460600D02*
X286960Y460600D01*
X306480Y460600D02*
X320040Y447040D01*
X370520Y436550D02*
X370520Y417140D01*
X375850Y411810D01*
X360080Y455260D02*
X360080Y460600D01*
X370520Y444820D02*
X370520Y436550D01*
X370520Y444820D02*
X360080Y455260D01*
X796300Y424650D02*
X796300Y411950D01*
X820220Y416640D02*
X835070Y416640D01*
X812210Y424650D02*
X796300Y424650D01*
X812210Y424650D02*
X820220Y416640D01*
X763950Y399250D02*
X744300Y399250D01*
X776650Y411950D02*
X796300Y411950D01*
X776650Y411950D02*
X763950Y399250D01*
X675440Y405600D02*
X675440Y420840D01*
X675440Y405600D02*
X675440Y385280D01*
X673220Y383060D02*
X643140Y383060D01*
X673220Y383060D02*
X675440Y385280D01*
X673980Y407060D02*
X643140Y407060D01*
X673980Y407060D02*
X675440Y405600D01*
D11*
X286960Y512600D02*
X271300Y512600D01*
X260280Y501580D01*
X360080Y545100D02*
X372380Y545100D01*
X381000Y553720D01*
X381000Y561960D01*
X381720Y562680D01*
D12*
X968420Y395440D02*
X968420Y384220D01*
X942340Y358140D01*
X627380Y358140D01*
X612140Y373380D01*
X561340Y373380D01*
X363480Y398780D02*
X350450Y411810D01*
X363480Y398780D02*
X535940Y398780D01*
X561340Y373380D01*
X796300Y424650D02*
X796300Y435600D01*
X774700Y457200D01*
X642620Y457200D02*
X601980Y457200D01*
X642620Y457200D02*
X675640Y457200D01*
X774700Y457200D01*
X601980Y457200D02*
X584200Y474980D01*
X584200Y541020D01*
X546100Y579120D01*
X381720Y562680D02*
X381000Y563400D01*
X675440Y457000D02*
X675440Y420840D01*
X675440Y457000D02*
X675640Y457200D01*
X643140Y456680D02*
X643140Y423060D01*
X643140Y456680D02*
X642620Y457200D01*
X215960Y457260D02*
X215900Y457200D01*
X215900Y456700D01*
X214960Y455760D01*
X211640Y459080D02*
X188260Y459080D01*
X211640Y459080D02*
X214960Y455760D01*
X251400Y490160D02*
X260280Y490160D01*
D11*
X260280Y501580D01*
D12*
X241300Y480060D02*
X215960Y480060D01*
X241300Y480060D02*
X251400Y490160D01*
X215960Y499040D02*
X215960Y480060D01*
X215960Y456760D01*
X214960Y455760D01*
X350190Y411810D02*
X350450Y411810D01*
X238760Y459740D02*
X218940Y459740D01*
X214960Y455760D01*
X353520Y436550D02*
X353520Y414880D01*
X350450Y411810D01*
X369500Y562680D02*
X381720Y562680D01*
X369500Y562680D02*
X360680Y571500D01*
X228600Y571500D01*
X381000Y571500D02*
X381000Y563400D01*
X386080Y576580D02*
X546100Y579120D01*
X386080Y576580D02*
X381000Y571500D01*
D10*
X330200Y558800D02*
X330200Y518160D01*
X342900Y505460D01*
X342900Y472440D01*
X348240Y467100D02*
X360080Y467100D01*
X348240Y467100D02*
X342900Y472440D01*
X612140Y576580D02*
X627200Y576580D01*
X628060Y577440D01*
X955720Y408140D02*
X968420Y420840D01*
X955720Y408140D02*
X874440Y408140D01*
X864280Y418300D01*
X623140Y423060D02*
X604880Y423060D01*
X597580Y415760D01*
X597580Y408140D01*
X374760Y473600D02*
X360080Y473600D01*
X374760Y473600D02*
X424180Y424180D01*
X573450Y448780D02*
X628060Y448780D01*
X633140Y443700D01*
X633140Y423060D01*
X854120Y458940D02*
X854120Y474180D01*
X854120Y458940D02*
X892220Y420840D01*
X386080Y480060D02*
X360120Y480060D01*
X360080Y480100D01*
X386080Y480060D02*
X411480Y454660D01*
X614660Y415060D02*
X623140Y415060D01*
X614660Y415060D02*
X610280Y410680D01*
X610280Y401790D01*
X607740Y399250D01*
X560750Y399250D01*
X460400Y499600D02*
X360080Y499600D01*
X460400Y499600D02*
X560750Y399250D01*
X595040Y391060D02*
X623140Y391060D01*
X724580Y400520D02*
X724580Y408140D01*
X728390Y411950D02*
X744300Y411950D01*
X728390Y411950D02*
X724580Y408140D01*
X360080Y525600D02*
X343080Y525600D01*
X342900Y525780D01*
X800100Y523240D02*
X800100Y474980D01*
X850900Y424180D01*
X850900Y411480D01*
X866940Y395440D01*
X892220Y395440D01*
X796300Y386550D02*
X781730Y386550D01*
X912540Y364960D02*
X943020Y395440D01*
X912540Y364960D02*
X833800Y364960D01*
X812210Y386550D02*
X796300Y386550D01*
X812210Y386550D02*
X833800Y364960D01*
X623140Y375080D02*
X623140Y383060D01*
X623140Y375080D02*
X632460Y365760D01*
X760940Y365760D01*
X781730Y386550D01*
X374620Y532100D02*
X360080Y532100D01*
X374620Y532100D02*
X375920Y533400D01*
X784270Y399250D02*
X796300Y399250D01*
X784270Y399250D02*
X757600Y372580D01*
X894760Y372580D02*
X917620Y395440D01*
X894760Y372580D02*
X836340Y372580D01*
X809670Y399250D02*
X796300Y399250D01*
X809670Y399250D02*
X836340Y372580D01*
X757600Y372580D02*
X635800Y372580D01*
X633140Y375240D02*
X633140Y383060D01*
X633140Y375240D02*
X635800Y372580D01*
X360080Y538600D02*
X347860Y538600D01*
X342900Y543560D01*
X250520Y518230D02*
X199720Y518230D01*
X250520Y518230D02*
X261690Y518230D01*
X275560Y532100D02*
X286960Y532100D01*
X275560Y532100D02*
X261690Y518230D01*
X242500Y499040D02*
X232960Y499040D01*
X250520Y507060D02*
X250520Y518230D01*
X250520Y507060D02*
X242500Y499040D01*
X140640Y483540D02*
X120050Y483540D01*
X195700Y538600D02*
X286960Y538600D01*
X195700Y538600D02*
X140640Y483540D01*
X141020Y491540D02*
X120050Y491540D01*
X194580Y545100D02*
X286960Y545100D01*
X194580Y545100D02*
X141020Y491540D01*
X517840Y527110D02*
X517840Y564820D01*
X519500Y530530D02*
X517840Y527110D01*
X471960Y512600D02*
X360080Y512600D01*
X471960Y512600D02*
X485140Y525780D01*
X514750Y525780D01*
X519500Y530530D01*
X424640Y527110D02*
X424640Y564820D01*
X422980Y530530D02*
X424640Y527110D01*
X384480Y519100D02*
X360080Y519100D01*
X384480Y519100D02*
X391160Y525780D01*
X418230Y525780D01*
X422980Y530530D01*
X970620Y505000D02*
X970620Y479260D01*
X970620Y505000D02*
X967150Y508470D01*
X825160Y556480D02*
X825160Y574920D01*
X825160Y556480D02*
X831260Y550380D01*
X925240Y550380D01*
X967150Y508470D01*
X919820Y505000D02*
X919820Y479260D01*
X919820Y505000D02*
X916350Y508470D01*
X816210Y550190D02*
X816210Y574920D01*
X816210Y550190D02*
X826180Y540220D01*
X884600Y540220D01*
X916350Y508470D01*
X869020Y505000D02*
X869020Y479260D01*
X869020Y505000D02*
X865550Y508470D01*
X808210Y542950D02*
X808210Y574920D01*
X808210Y542950D02*
X821100Y530060D01*
X843960Y530060D01*
X865550Y508470D01*
X818220Y505000D02*
X818220Y479260D01*
X818220Y505000D02*
X814750Y508470D01*
X799260Y539200D02*
X799260Y574920D01*
X814750Y523710D02*
X814750Y508470D01*
X814750Y523710D02*
X799260Y539200D01*
X767420Y505000D02*
X767420Y479260D01*
X767420Y505000D02*
X763950Y508470D01*
X764200Y508720D02*
X764200Y574920D01*
X764200Y508720D02*
X763950Y508470D01*
X716620Y505000D02*
X716620Y479260D01*
X716620Y505000D02*
X713150Y508470D01*
X755250Y537870D02*
X755250Y574920D01*
X755250Y537870D02*
X744900Y527520D01*
X732200Y527520D01*
X713150Y508470D01*
X665820Y505000D02*
X665820Y479260D01*
X665820Y505000D02*
X662350Y508470D01*
X747250Y545110D02*
X747250Y574920D01*
X747250Y545110D02*
X739820Y537680D01*
X691560Y537680D01*
X662350Y508470D01*
X615020Y505000D02*
X615020Y479260D01*
X615020Y505000D02*
X611550Y508470D01*
X738300Y553940D02*
X738300Y574920D01*
X738300Y553940D02*
X732200Y547840D01*
X650920Y547840D01*
X611550Y508470D01*
X636020Y507540D02*
X636020Y479260D01*
X636020Y507540D02*
X636950Y508470D01*
X302900Y506100D02*
X286960Y506100D01*
X302900Y506100D02*
X304800Y508000D01*
X890020Y507540D02*
X890020Y479260D01*
X890020Y507540D02*
X890950Y508470D01*
X312420Y472440D02*
X311260Y473600D01*
X286960Y473600D01*
X742868Y425920D02*
X744138Y424650D01*
X744300Y424650D01*
X742868Y425920D02*
X742868Y433032D01*
X742360Y433540D01*
X302080Y525600D02*
X286960Y525600D01*
X302080Y525600D02*
X302260Y525780D01*
X948900Y452120D02*
X1013460Y452120D01*
X948900Y452120D02*
X917620Y420840D01*
X839220Y479260D02*
X839220Y507540D01*
X840150Y508470D01*
X322580Y474980D02*
X317460Y480100D01*
X286960Y480100D01*
X788420Y479260D02*
X788420Y507540D01*
X789350Y508470D01*
X322580Y485140D02*
X321120Y486600D01*
X286960Y486600D01*
D11*
X360080Y493100D02*
X393360Y493100D01*
X401320Y485140D01*
X411460Y485140D01*
X413060Y483540D01*
D10*
X737620Y479260D02*
X737620Y507540D01*
X738550Y508470D01*
X332740Y487680D02*
X327320Y493100D01*
X286960Y493100D01*
X686820Y479260D02*
X686820Y507540D01*
X687750Y508470D01*
X335280Y497840D02*
X333520Y499600D01*
X286960Y499600D01*
D12*
X816210Y594420D02*
X825160Y594420D01*
X816210Y594420D02*
X808210Y594420D01*
X799260Y594420D01*
X764200Y594420D01*
X755250Y594420D01*
X747250Y594420D01*
X738300Y594420D01*
X731580Y594420D01*
X723100Y585940D02*
X710180Y585940D01*
X723100Y585940D02*
X731580Y594420D01*
D10*
X658540Y594440D02*
X628060Y594440D01*
X658540Y594440D02*
X687180Y594440D01*
X688180Y595440D01*
D11*
X96520Y563640D02*
X96280Y563880D01*
X114300Y609600D02*
X126660Y609600D01*
X114300Y609600D02*
X96520Y591820D01*
X96520Y564120D01*
X96280Y563880D01*
D12*
X96280Y518400D01*
X116180Y573380D02*
X124160Y573380D01*
X116180Y573380D02*
X109220Y566420D01*
X98820Y566420D01*
X96280Y563880D01*
X103300Y499540D02*
X83820Y480060D01*
X83820Y441960D01*
X103300Y499540D02*
X109220Y499540D01*
X120050Y499540D01*
X109220Y505460D02*
X96280Y518400D01*
X109220Y505460D02*
X109220Y499540D01*
X132440Y411120D02*
X132440Y407370D01*
X132440Y411120D02*
X132080Y411480D01*
X114300Y411480D01*
X83820Y441960D01*
D11*
X147660Y593820D02*
X147660Y609600D01*
X147660Y593820D02*
X145660Y591820D01*
X141580Y554380D02*
X150160Y554380D01*
X141580Y554380D02*
X137160Y558800D01*
X137160Y576580D01*
X129540Y584200D01*
X129540Y590940D01*
X128660Y591820D01*
D12*
X131420Y554380D02*
X124160Y554380D01*
X131420Y554380D02*
X142240Y543560D01*
X142240Y537600D01*
X143900Y535940D01*
X162440Y431800D02*
X162440Y407370D01*
X162440Y431800D02*
X162440Y439900D01*
X162260Y440080D01*
X162260Y459080D02*
X162260Y477800D01*
X164140Y478460D01*
X148260Y478460D01*
X142240Y472440D01*
X142240Y436880D01*
X147320Y431800D01*
X162440Y431800D01*
X166980Y573380D02*
X150160Y573380D01*
X166980Y573380D02*
X177800Y584200D01*
X177440Y411120D02*
X177440Y407370D01*
X177440Y411120D02*
X177800Y411480D01*
X177800Y424180D01*
M02*
