G75*
G70*
%OFA0B0*%
%FSLAX24Y24*%
%IPPOS*%
%LPD*%
%AMOC8*
5,1,8,0,0,1.08239X$1,22.5*
%
%ADD10R,0.1004X0.1004*%
%ADD11C,0.0000*%
%ADD12R,0.0550X0.0137*%
%ADD13R,0.0433X0.0394*%
%ADD14R,0.0600X0.0600*%
%ADD15C,0.0600*%
%ADD16R,0.0394X0.0433*%
%ADD17R,0.0551X0.0709*%
%ADD18C,0.0520*%
%ADD19C,0.0780*%
%ADD20R,0.0515X0.0515*%
%ADD21C,0.0515*%
%ADD22C,0.0937*%
%ADD23R,0.0472X0.0472*%
%ADD24R,0.0512X0.0591*%
%ADD25C,0.1306*%
%ADD26C,0.0562*%
%ADD27R,0.0157X0.0315*%
%ADD28R,0.0800X0.0260*%
%ADD29R,0.0394X0.0551*%
%ADD30C,0.0240*%
%ADD31C,0.0120*%
%ADD32C,0.0375*%
%ADD33C,0.0660*%
%ADD34C,0.0160*%
%ADD35C,0.0320*%
%ADD36C,0.0400*%
D10*
X013927Y022524D03*
X015580Y022524D03*
X017234Y022524D03*
X018887Y022524D03*
X020541Y022524D03*
X022194Y022524D03*
X023848Y022524D03*
X025502Y022524D03*
X027155Y022524D03*
X028809Y022524D03*
X028809Y024689D03*
X027155Y024689D03*
X025502Y024689D03*
X023848Y024689D03*
X022194Y024689D03*
X020541Y024689D03*
X018887Y024689D03*
X017234Y024689D03*
X015580Y024689D03*
X013927Y024689D03*
D11*
X007187Y007356D02*
X039470Y007356D01*
X038840Y008931D02*
X038842Y008981D01*
X038848Y009031D01*
X038858Y009080D01*
X038872Y009128D01*
X038889Y009175D01*
X038910Y009220D01*
X038935Y009264D01*
X038963Y009305D01*
X038995Y009344D01*
X039029Y009381D01*
X039066Y009415D01*
X039106Y009445D01*
X039148Y009472D01*
X039192Y009496D01*
X039238Y009517D01*
X039285Y009533D01*
X039333Y009546D01*
X039383Y009555D01*
X039432Y009560D01*
X039483Y009561D01*
X039533Y009558D01*
X039582Y009551D01*
X039631Y009540D01*
X039679Y009525D01*
X039725Y009507D01*
X039770Y009485D01*
X039813Y009459D01*
X039854Y009430D01*
X039893Y009398D01*
X039929Y009363D01*
X039961Y009325D01*
X039991Y009285D01*
X040018Y009242D01*
X040041Y009198D01*
X040060Y009152D01*
X040076Y009104D01*
X040088Y009055D01*
X040096Y009006D01*
X040100Y008956D01*
X040100Y008906D01*
X040096Y008856D01*
X040088Y008807D01*
X040076Y008758D01*
X040060Y008710D01*
X040041Y008664D01*
X040018Y008620D01*
X039991Y008577D01*
X039961Y008537D01*
X039929Y008499D01*
X039893Y008464D01*
X039854Y008432D01*
X039813Y008403D01*
X039770Y008377D01*
X039725Y008355D01*
X039679Y008337D01*
X039631Y008322D01*
X039582Y008311D01*
X039533Y008304D01*
X039483Y008301D01*
X039432Y008302D01*
X039383Y008307D01*
X039333Y008316D01*
X039285Y008329D01*
X039238Y008345D01*
X039192Y008366D01*
X039148Y008390D01*
X039106Y008417D01*
X039066Y008447D01*
X039029Y008481D01*
X038995Y008518D01*
X038963Y008557D01*
X038935Y008598D01*
X038910Y008642D01*
X038889Y008687D01*
X038872Y008734D01*
X038858Y008782D01*
X038848Y008831D01*
X038842Y008881D01*
X038840Y008931D01*
X039470Y007356D02*
X039547Y007358D01*
X039624Y007364D01*
X039701Y007373D01*
X039777Y007386D01*
X039853Y007403D01*
X039927Y007424D01*
X040001Y007448D01*
X040073Y007476D01*
X040143Y007507D01*
X040212Y007542D01*
X040280Y007580D01*
X040345Y007621D01*
X040408Y007666D01*
X040469Y007714D01*
X040528Y007764D01*
X040584Y007817D01*
X040637Y007873D01*
X040687Y007932D01*
X040735Y007993D01*
X040780Y008056D01*
X040821Y008121D01*
X040859Y008189D01*
X040894Y008258D01*
X040925Y008328D01*
X040953Y008400D01*
X040977Y008474D01*
X040998Y008548D01*
X041015Y008624D01*
X041028Y008700D01*
X041037Y008777D01*
X041043Y008854D01*
X041045Y008931D01*
X041045Y027829D01*
X038840Y027829D02*
X038842Y027879D01*
X038848Y027929D01*
X038858Y027978D01*
X038872Y028026D01*
X038889Y028073D01*
X038910Y028118D01*
X038935Y028162D01*
X038963Y028203D01*
X038995Y028242D01*
X039029Y028279D01*
X039066Y028313D01*
X039106Y028343D01*
X039148Y028370D01*
X039192Y028394D01*
X039238Y028415D01*
X039285Y028431D01*
X039333Y028444D01*
X039383Y028453D01*
X039432Y028458D01*
X039483Y028459D01*
X039533Y028456D01*
X039582Y028449D01*
X039631Y028438D01*
X039679Y028423D01*
X039725Y028405D01*
X039770Y028383D01*
X039813Y028357D01*
X039854Y028328D01*
X039893Y028296D01*
X039929Y028261D01*
X039961Y028223D01*
X039991Y028183D01*
X040018Y028140D01*
X040041Y028096D01*
X040060Y028050D01*
X040076Y028002D01*
X040088Y027953D01*
X040096Y027904D01*
X040100Y027854D01*
X040100Y027804D01*
X040096Y027754D01*
X040088Y027705D01*
X040076Y027656D01*
X040060Y027608D01*
X040041Y027562D01*
X040018Y027518D01*
X039991Y027475D01*
X039961Y027435D01*
X039929Y027397D01*
X039893Y027362D01*
X039854Y027330D01*
X039813Y027301D01*
X039770Y027275D01*
X039725Y027253D01*
X039679Y027235D01*
X039631Y027220D01*
X039582Y027209D01*
X039533Y027202D01*
X039483Y027199D01*
X039432Y027200D01*
X039383Y027205D01*
X039333Y027214D01*
X039285Y027227D01*
X039238Y027243D01*
X039192Y027264D01*
X039148Y027288D01*
X039106Y027315D01*
X039066Y027345D01*
X039029Y027379D01*
X038995Y027416D01*
X038963Y027455D01*
X038935Y027496D01*
X038910Y027540D01*
X038889Y027585D01*
X038872Y027632D01*
X038858Y027680D01*
X038848Y027729D01*
X038842Y027779D01*
X038840Y027829D01*
X039470Y029404D02*
X039547Y029402D01*
X039624Y029396D01*
X039701Y029387D01*
X039777Y029374D01*
X039853Y029357D01*
X039927Y029336D01*
X040001Y029312D01*
X040073Y029284D01*
X040143Y029253D01*
X040212Y029218D01*
X040280Y029180D01*
X040345Y029139D01*
X040408Y029094D01*
X040469Y029046D01*
X040528Y028996D01*
X040584Y028943D01*
X040637Y028887D01*
X040687Y028828D01*
X040735Y028767D01*
X040780Y028704D01*
X040821Y028639D01*
X040859Y028571D01*
X040894Y028502D01*
X040925Y028432D01*
X040953Y028360D01*
X040977Y028286D01*
X040998Y028212D01*
X041015Y028136D01*
X041028Y028060D01*
X041037Y027983D01*
X041043Y027906D01*
X041045Y027829D01*
X039470Y029404D02*
X007187Y029404D01*
X006557Y027829D02*
X006559Y027879D01*
X006565Y027929D01*
X006575Y027978D01*
X006589Y028026D01*
X006606Y028073D01*
X006627Y028118D01*
X006652Y028162D01*
X006680Y028203D01*
X006712Y028242D01*
X006746Y028279D01*
X006783Y028313D01*
X006823Y028343D01*
X006865Y028370D01*
X006909Y028394D01*
X006955Y028415D01*
X007002Y028431D01*
X007050Y028444D01*
X007100Y028453D01*
X007149Y028458D01*
X007200Y028459D01*
X007250Y028456D01*
X007299Y028449D01*
X007348Y028438D01*
X007396Y028423D01*
X007442Y028405D01*
X007487Y028383D01*
X007530Y028357D01*
X007571Y028328D01*
X007610Y028296D01*
X007646Y028261D01*
X007678Y028223D01*
X007708Y028183D01*
X007735Y028140D01*
X007758Y028096D01*
X007777Y028050D01*
X007793Y028002D01*
X007805Y027953D01*
X007813Y027904D01*
X007817Y027854D01*
X007817Y027804D01*
X007813Y027754D01*
X007805Y027705D01*
X007793Y027656D01*
X007777Y027608D01*
X007758Y027562D01*
X007735Y027518D01*
X007708Y027475D01*
X007678Y027435D01*
X007646Y027397D01*
X007610Y027362D01*
X007571Y027330D01*
X007530Y027301D01*
X007487Y027275D01*
X007442Y027253D01*
X007396Y027235D01*
X007348Y027220D01*
X007299Y027209D01*
X007250Y027202D01*
X007200Y027199D01*
X007149Y027200D01*
X007100Y027205D01*
X007050Y027214D01*
X007002Y027227D01*
X006955Y027243D01*
X006909Y027264D01*
X006865Y027288D01*
X006823Y027315D01*
X006783Y027345D01*
X006746Y027379D01*
X006712Y027416D01*
X006680Y027455D01*
X006652Y027496D01*
X006627Y027540D01*
X006606Y027585D01*
X006589Y027632D01*
X006575Y027680D01*
X006565Y027729D01*
X006559Y027779D01*
X006557Y027829D01*
X005612Y027829D02*
X005614Y027906D01*
X005620Y027983D01*
X005629Y028060D01*
X005642Y028136D01*
X005659Y028212D01*
X005680Y028286D01*
X005704Y028360D01*
X005732Y028432D01*
X005763Y028502D01*
X005798Y028571D01*
X005836Y028639D01*
X005877Y028704D01*
X005922Y028767D01*
X005970Y028828D01*
X006020Y028887D01*
X006073Y028943D01*
X006129Y028996D01*
X006188Y029046D01*
X006249Y029094D01*
X006312Y029139D01*
X006377Y029180D01*
X006445Y029218D01*
X006514Y029253D01*
X006584Y029284D01*
X006656Y029312D01*
X006730Y029336D01*
X006804Y029357D01*
X006880Y029374D01*
X006956Y029387D01*
X007033Y029396D01*
X007110Y029402D01*
X007187Y029404D01*
X005612Y027829D02*
X005612Y008931D01*
X006557Y008931D02*
X006559Y008981D01*
X006565Y009031D01*
X006575Y009080D01*
X006589Y009128D01*
X006606Y009175D01*
X006627Y009220D01*
X006652Y009264D01*
X006680Y009305D01*
X006712Y009344D01*
X006746Y009381D01*
X006783Y009415D01*
X006823Y009445D01*
X006865Y009472D01*
X006909Y009496D01*
X006955Y009517D01*
X007002Y009533D01*
X007050Y009546D01*
X007100Y009555D01*
X007149Y009560D01*
X007200Y009561D01*
X007250Y009558D01*
X007299Y009551D01*
X007348Y009540D01*
X007396Y009525D01*
X007442Y009507D01*
X007487Y009485D01*
X007530Y009459D01*
X007571Y009430D01*
X007610Y009398D01*
X007646Y009363D01*
X007678Y009325D01*
X007708Y009285D01*
X007735Y009242D01*
X007758Y009198D01*
X007777Y009152D01*
X007793Y009104D01*
X007805Y009055D01*
X007813Y009006D01*
X007817Y008956D01*
X007817Y008906D01*
X007813Y008856D01*
X007805Y008807D01*
X007793Y008758D01*
X007777Y008710D01*
X007758Y008664D01*
X007735Y008620D01*
X007708Y008577D01*
X007678Y008537D01*
X007646Y008499D01*
X007610Y008464D01*
X007571Y008432D01*
X007530Y008403D01*
X007487Y008377D01*
X007442Y008355D01*
X007396Y008337D01*
X007348Y008322D01*
X007299Y008311D01*
X007250Y008304D01*
X007200Y008301D01*
X007149Y008302D01*
X007100Y008307D01*
X007050Y008316D01*
X007002Y008329D01*
X006955Y008345D01*
X006909Y008366D01*
X006865Y008390D01*
X006823Y008417D01*
X006783Y008447D01*
X006746Y008481D01*
X006712Y008518D01*
X006680Y008557D01*
X006652Y008598D01*
X006627Y008642D01*
X006606Y008687D01*
X006589Y008734D01*
X006575Y008782D01*
X006565Y008831D01*
X006559Y008881D01*
X006557Y008931D01*
X005612Y008931D02*
X005614Y008854D01*
X005620Y008777D01*
X005629Y008700D01*
X005642Y008624D01*
X005659Y008548D01*
X005680Y008474D01*
X005704Y008400D01*
X005732Y008328D01*
X005763Y008258D01*
X005798Y008189D01*
X005836Y008121D01*
X005877Y008056D01*
X005922Y007993D01*
X005970Y007932D01*
X006020Y007873D01*
X006073Y007817D01*
X006129Y007764D01*
X006188Y007714D01*
X006249Y007666D01*
X006312Y007621D01*
X006377Y007580D01*
X006445Y007542D01*
X006514Y007507D01*
X006584Y007476D01*
X006656Y007448D01*
X006730Y007424D01*
X006804Y007403D01*
X006880Y007386D01*
X006956Y007373D01*
X007033Y007364D01*
X007110Y007358D01*
X007187Y007356D01*
X011486Y026630D02*
X011488Y026680D01*
X011494Y026730D01*
X011504Y026779D01*
X011518Y026827D01*
X011535Y026874D01*
X011556Y026919D01*
X011581Y026963D01*
X011609Y027004D01*
X011641Y027043D01*
X011675Y027080D01*
X011712Y027114D01*
X011752Y027144D01*
X011794Y027171D01*
X011838Y027195D01*
X011884Y027216D01*
X011931Y027232D01*
X011979Y027245D01*
X012029Y027254D01*
X012078Y027259D01*
X012129Y027260D01*
X012179Y027257D01*
X012228Y027250D01*
X012277Y027239D01*
X012325Y027224D01*
X012371Y027206D01*
X012416Y027184D01*
X012459Y027158D01*
X012500Y027129D01*
X012539Y027097D01*
X012575Y027062D01*
X012607Y027024D01*
X012637Y026984D01*
X012664Y026941D01*
X012687Y026897D01*
X012706Y026851D01*
X012722Y026803D01*
X012734Y026754D01*
X012742Y026705D01*
X012746Y026655D01*
X012746Y026605D01*
X012742Y026555D01*
X012734Y026506D01*
X012722Y026457D01*
X012706Y026409D01*
X012687Y026363D01*
X012664Y026319D01*
X012637Y026276D01*
X012607Y026236D01*
X012575Y026198D01*
X012539Y026163D01*
X012500Y026131D01*
X012459Y026102D01*
X012416Y026076D01*
X012371Y026054D01*
X012325Y026036D01*
X012277Y026021D01*
X012228Y026010D01*
X012179Y026003D01*
X012129Y026000D01*
X012078Y026001D01*
X012029Y026006D01*
X011979Y026015D01*
X011931Y026028D01*
X011884Y026044D01*
X011838Y026065D01*
X011794Y026089D01*
X011752Y026116D01*
X011712Y026146D01*
X011675Y026180D01*
X011641Y026217D01*
X011609Y026256D01*
X011581Y026297D01*
X011556Y026341D01*
X011535Y026386D01*
X011518Y026433D01*
X011504Y026481D01*
X011494Y026530D01*
X011488Y026580D01*
X011486Y026630D01*
X029911Y026630D02*
X029913Y026680D01*
X029919Y026730D01*
X029929Y026779D01*
X029943Y026827D01*
X029960Y026874D01*
X029981Y026919D01*
X030006Y026963D01*
X030034Y027004D01*
X030066Y027043D01*
X030100Y027080D01*
X030137Y027114D01*
X030177Y027144D01*
X030219Y027171D01*
X030263Y027195D01*
X030309Y027216D01*
X030356Y027232D01*
X030404Y027245D01*
X030454Y027254D01*
X030503Y027259D01*
X030554Y027260D01*
X030604Y027257D01*
X030653Y027250D01*
X030702Y027239D01*
X030750Y027224D01*
X030796Y027206D01*
X030841Y027184D01*
X030884Y027158D01*
X030925Y027129D01*
X030964Y027097D01*
X031000Y027062D01*
X031032Y027024D01*
X031062Y026984D01*
X031089Y026941D01*
X031112Y026897D01*
X031131Y026851D01*
X031147Y026803D01*
X031159Y026754D01*
X031167Y026705D01*
X031171Y026655D01*
X031171Y026605D01*
X031167Y026555D01*
X031159Y026506D01*
X031147Y026457D01*
X031131Y026409D01*
X031112Y026363D01*
X031089Y026319D01*
X031062Y026276D01*
X031032Y026236D01*
X031000Y026198D01*
X030964Y026163D01*
X030925Y026131D01*
X030884Y026102D01*
X030841Y026076D01*
X030796Y026054D01*
X030750Y026036D01*
X030702Y026021D01*
X030653Y026010D01*
X030604Y026003D01*
X030554Y026000D01*
X030503Y026001D01*
X030454Y026006D01*
X030404Y026015D01*
X030356Y026028D01*
X030309Y026044D01*
X030263Y026065D01*
X030219Y026089D01*
X030177Y026116D01*
X030137Y026146D01*
X030100Y026180D01*
X030066Y026217D01*
X030034Y026256D01*
X030006Y026297D01*
X029981Y026341D01*
X029960Y026386D01*
X029943Y026433D01*
X029929Y026481D01*
X029919Y026530D01*
X029913Y026580D01*
X029911Y026630D01*
D12*
X020518Y020043D03*
X020518Y019787D03*
X020518Y019532D03*
X020518Y019276D03*
X020518Y019020D03*
X020518Y018764D03*
X020518Y018508D03*
X020518Y018252D03*
X020518Y017996D03*
X020518Y017740D03*
X020518Y017484D03*
X020518Y017228D03*
X020518Y016973D03*
X020518Y016717D03*
X017639Y016717D03*
X017639Y016973D03*
X017639Y017228D03*
X017639Y017484D03*
X017639Y017740D03*
X017639Y017996D03*
X017639Y018252D03*
X017639Y018508D03*
X017639Y018764D03*
X017639Y019020D03*
X017639Y019276D03*
X017639Y019532D03*
X017639Y019787D03*
X017639Y020043D03*
X015518Y020043D03*
X015518Y019787D03*
X015518Y019532D03*
X015518Y019276D03*
X015518Y019020D03*
X015518Y018764D03*
X015518Y018508D03*
X015518Y018252D03*
X015518Y017996D03*
X015518Y017740D03*
X015518Y017484D03*
X015518Y017228D03*
X015518Y016973D03*
X015518Y016717D03*
X012639Y016717D03*
X012639Y016973D03*
X012639Y017228D03*
X012639Y017484D03*
X012639Y017740D03*
X012639Y017996D03*
X012639Y018252D03*
X012639Y018508D03*
X012639Y018764D03*
X012639Y019020D03*
X012639Y019276D03*
X012639Y019532D03*
X012639Y019787D03*
X012639Y020043D03*
D13*
X011413Y020505D03*
X010744Y020505D03*
X010744Y017880D03*
X011413Y017880D03*
X015619Y016130D03*
X016288Y016130D03*
X016869Y016130D03*
X017538Y016130D03*
X019078Y014965D03*
X019703Y014965D03*
X019703Y014295D03*
X019078Y014295D03*
X022078Y014295D03*
X022078Y014965D03*
X019578Y011340D03*
X019578Y010670D03*
X018578Y010670D03*
X018578Y011340D03*
X017578Y011340D03*
X016913Y011380D03*
X016244Y011380D03*
X017578Y010670D03*
X021744Y020130D03*
X022413Y020130D03*
D14*
X009078Y025630D03*
D15*
X009078Y024630D03*
X009078Y023630D03*
X009078Y022630D03*
X009078Y021630D03*
D16*
X007913Y023380D03*
X007244Y023380D03*
X007244Y024880D03*
X007913Y024880D03*
X017744Y020880D03*
X018413Y020880D03*
X021494Y015755D03*
X022163Y015755D03*
X033078Y009465D03*
X033078Y008795D03*
X008413Y010880D03*
X007744Y010880D03*
X007744Y012380D03*
X008413Y012380D03*
X008413Y013880D03*
X007744Y013880D03*
D17*
X010567Y017130D03*
X011590Y017130D03*
X021567Y018380D03*
X022590Y018380D03*
D18*
X025568Y018130D02*
X026088Y018130D01*
X026088Y017130D02*
X025568Y017130D01*
X025568Y016130D02*
X026088Y016130D01*
X026088Y015130D02*
X025568Y015130D01*
X025568Y014130D02*
X026088Y014130D01*
X026088Y013130D02*
X025568Y013130D01*
X025568Y012130D02*
X026088Y012130D01*
X028568Y012130D02*
X029088Y012130D01*
X029088Y013130D02*
X028568Y013130D01*
X028568Y014130D02*
X029088Y014130D01*
X029088Y015130D02*
X028568Y015130D01*
X028568Y016130D02*
X029088Y016130D01*
X029088Y017130D02*
X028568Y017130D01*
X028568Y018130D02*
X029088Y018130D01*
X029088Y019130D02*
X028568Y019130D01*
X028568Y020130D02*
X029088Y020130D01*
X026088Y020130D02*
X025568Y020130D01*
X025568Y019130D02*
X026088Y019130D01*
D19*
X030688Y019540D02*
X031468Y019540D01*
X033638Y019540D02*
X034418Y019540D01*
X036188Y019540D02*
X036968Y019540D01*
X039138Y019540D02*
X039918Y019540D01*
X039918Y021500D02*
X039138Y021500D01*
X036968Y021500D02*
X036188Y021500D01*
X034418Y021500D02*
X033638Y021500D01*
X031468Y021500D02*
X030688Y021500D01*
X030688Y023470D02*
X031468Y023470D01*
X033638Y023470D02*
X034418Y023470D01*
X036188Y023470D02*
X036968Y023470D01*
X039138Y023470D02*
X039918Y023470D01*
X039918Y013630D02*
X039138Y013630D01*
X036968Y013630D02*
X036188Y013630D01*
X034418Y013630D02*
X033638Y013630D01*
X031468Y013630D02*
X030688Y013630D01*
D20*
X032078Y009630D03*
X028078Y008630D03*
X022578Y008630D03*
X017578Y008630D03*
X009078Y008630D03*
D21*
X010078Y008630D03*
X011078Y008630D03*
X012078Y008630D03*
X013078Y008630D03*
X014078Y008630D03*
X015078Y008630D03*
X016078Y008630D03*
X016078Y009630D03*
X015078Y009630D03*
X014078Y009630D03*
X013078Y009630D03*
X012078Y009630D03*
X011078Y009630D03*
X010078Y009630D03*
X009078Y009630D03*
X017578Y009630D03*
X018578Y009630D03*
X019578Y009630D03*
X019578Y008630D03*
X018578Y008630D03*
X022578Y009630D03*
X023578Y009630D03*
X024578Y009630D03*
X024578Y008630D03*
X023578Y008630D03*
X028078Y009630D03*
X029078Y009630D03*
X030078Y009630D03*
X031078Y009630D03*
X031078Y008630D03*
X030078Y008630D03*
X029078Y008630D03*
X032078Y008630D03*
D22*
X035094Y009234D02*
X035094Y010171D01*
X037063Y010171D02*
X037063Y009234D01*
X036313Y026964D02*
X036313Y027901D01*
X034344Y027901D02*
X034344Y026964D01*
D23*
X007992Y024130D03*
X007165Y024130D03*
X007165Y022630D03*
X007992Y022630D03*
X007492Y014630D03*
X006665Y014630D03*
X006665Y013130D03*
X007492Y013130D03*
X007492Y011630D03*
X006665Y011630D03*
D24*
X010744Y018630D03*
X011413Y018630D03*
D25*
X007578Y020750D03*
X007578Y016010D03*
D26*
X008645Y017888D03*
X009433Y017888D03*
X009433Y018872D03*
X008645Y018872D03*
D27*
X012133Y011445D03*
X012448Y011445D03*
X012763Y011445D03*
X013078Y011445D03*
X013393Y011445D03*
X013708Y011445D03*
X014023Y011445D03*
X014338Y011445D03*
X014338Y010815D03*
X014023Y010815D03*
X013708Y010815D03*
X013393Y010815D03*
X013078Y010815D03*
X012763Y010815D03*
X012448Y010815D03*
X012133Y010815D03*
D28*
X015368Y012130D03*
X015368Y012630D03*
X015368Y013130D03*
X015368Y013630D03*
X015368Y014130D03*
X015368Y014630D03*
X015368Y015130D03*
X017788Y015130D03*
X017788Y014630D03*
X017788Y014130D03*
X017788Y013630D03*
X017788Y013130D03*
X017788Y012630D03*
X017788Y012130D03*
D29*
X021078Y014197D03*
X020704Y015063D03*
X021452Y015063D03*
D30*
X021017Y015526D02*
X020986Y015544D01*
X020930Y015559D01*
X020704Y015559D01*
X020479Y015559D01*
X020423Y015544D01*
X020372Y015515D01*
X020331Y015474D01*
X020302Y015424D01*
X020287Y015368D01*
X020287Y015063D01*
X020287Y014759D01*
X020302Y014703D01*
X020312Y014686D01*
X020291Y014695D01*
X020193Y014695D01*
X020200Y014712D01*
X020200Y015217D01*
X020157Y015320D01*
X020078Y015399D01*
X019976Y015441D01*
X019431Y015441D01*
X019418Y015436D01*
X019418Y015823D01*
X019367Y015948D01*
X018948Y016366D01*
X019009Y016426D01*
X019063Y016558D01*
X019063Y016579D01*
X019100Y016615D01*
X019171Y016787D01*
X019171Y016973D01*
X019100Y017145D01*
X018968Y017276D01*
X018921Y017296D01*
X018921Y017367D01*
X019466Y017912D01*
X019963Y017912D01*
X019963Y017872D01*
X020005Y017769D01*
X020023Y017752D01*
X020023Y017740D01*
X020023Y017729D01*
X020005Y017711D01*
X019963Y017609D01*
X019963Y017360D01*
X019964Y017356D01*
X019963Y017353D01*
X019963Y017245D01*
X019761Y017043D01*
X019665Y016948D01*
X019613Y016823D01*
X019613Y016787D01*
X019580Y016754D01*
X019513Y016593D01*
X019513Y016417D01*
X019580Y016256D01*
X019704Y016132D01*
X019866Y016065D01*
X019913Y016065D01*
X019915Y016062D01*
X020011Y015967D01*
X020136Y015915D01*
X021017Y015915D01*
X021017Y015526D01*
X021017Y015716D02*
X019418Y015716D01*
X019418Y015478D02*
X020335Y015478D01*
X020287Y015239D02*
X020191Y015239D01*
X020287Y015063D02*
X020704Y015063D01*
X020287Y015063D01*
X020287Y015001D02*
X020200Y015001D01*
X020200Y014762D02*
X020287Y014762D01*
X020704Y015063D02*
X020704Y015063D01*
X020704Y015559D01*
X020704Y015063D01*
X020704Y015063D01*
X020704Y015239D02*
X020704Y015239D01*
X020704Y015478D02*
X020704Y015478D01*
X020040Y015955D02*
X019360Y015955D01*
X019121Y016193D02*
X019643Y016193D01*
X019513Y016432D02*
X019011Y016432D01*
X019122Y016670D02*
X019545Y016670D01*
X019649Y016909D02*
X019171Y016909D01*
X019097Y017147D02*
X019865Y017147D01*
X019963Y017386D02*
X018940Y017386D01*
X019178Y017624D02*
X019969Y017624D01*
X020023Y017740D02*
X020034Y017740D01*
X020034Y017740D01*
X020034Y017740D01*
X020023Y017740D01*
X019967Y017863D02*
X019417Y017863D01*
X018546Y018578D02*
X018194Y018578D01*
X018194Y018632D02*
X018194Y018404D01*
X018360Y018472D01*
X018440Y018472D01*
X018764Y018796D01*
X018889Y018848D01*
X019963Y018848D01*
X019963Y018888D01*
X019964Y018892D01*
X019963Y018896D01*
X019963Y019144D01*
X019964Y019148D01*
X019963Y019151D01*
X019963Y019400D01*
X019964Y019404D01*
X019963Y019407D01*
X019963Y019656D01*
X019974Y019683D01*
X019216Y019683D01*
X019180Y019647D01*
X019008Y019576D01*
X018822Y019576D01*
X018796Y019587D01*
X018796Y019537D01*
X018725Y019365D01*
X018593Y019234D01*
X018421Y019163D01*
X018235Y019163D01*
X018194Y019180D01*
X018194Y019151D01*
X018192Y019148D01*
X018194Y019144D01*
X018194Y018896D01*
X018192Y018892D01*
X018194Y018888D01*
X018194Y018640D01*
X018192Y018636D01*
X018194Y018632D01*
X018194Y018817D02*
X018813Y018817D01*
X018653Y019294D02*
X019963Y019294D01*
X019963Y019532D02*
X018794Y019532D01*
X018194Y019055D02*
X019963Y019055D01*
X021460Y017746D02*
X021898Y017746D01*
X022001Y017788D01*
X022079Y017867D01*
X022110Y017940D01*
X022139Y017891D01*
X022179Y017850D01*
X022230Y017821D01*
X022286Y017806D01*
X022572Y017806D01*
X022572Y018362D01*
X022608Y018362D01*
X022608Y017806D01*
X022895Y017806D01*
X022951Y017821D01*
X023001Y017850D01*
X023042Y017891D01*
X023071Y017941D01*
X023086Y017997D01*
X023086Y018362D01*
X022608Y018362D01*
X022608Y018398D01*
X023080Y018398D01*
X025040Y016437D01*
X025090Y016387D01*
X025028Y016237D01*
X025028Y016023D01*
X025111Y015824D01*
X025262Y015672D01*
X025364Y015630D01*
X025262Y015588D01*
X025111Y015436D01*
X025028Y015237D01*
X025028Y015023D01*
X025111Y014824D01*
X025262Y014672D01*
X025364Y014630D01*
X025262Y014588D01*
X025111Y014436D01*
X025028Y014237D01*
X025028Y014023D01*
X025111Y013824D01*
X025262Y013672D01*
X025364Y013630D01*
X025262Y013588D01*
X025111Y013436D01*
X025028Y013237D01*
X025028Y013023D01*
X025111Y012824D01*
X025262Y012672D01*
X025448Y012595D01*
X025384Y012575D01*
X025317Y012541D01*
X025256Y012496D01*
X025202Y012443D01*
X025158Y012382D01*
X025124Y012314D01*
X025100Y012242D01*
X025088Y012168D01*
X025088Y012130D01*
X025088Y012092D01*
X025100Y012018D01*
X025124Y011946D01*
X025158Y011878D01*
X025202Y011817D01*
X025256Y011764D01*
X025317Y011719D01*
X025384Y011685D01*
X025456Y011662D01*
X025531Y011650D01*
X025828Y011650D01*
X025828Y012130D01*
X025088Y012130D01*
X025828Y012130D01*
X025828Y012130D01*
X025828Y012130D01*
X025828Y012590D01*
X025828Y012590D01*
X025828Y012130D01*
X025828Y012130D01*
X025828Y011650D01*
X026126Y011650D01*
X026201Y011662D01*
X026273Y011685D01*
X026340Y011719D01*
X026401Y011764D01*
X026454Y011817D01*
X026499Y011878D01*
X026533Y011946D01*
X026557Y012018D01*
X026568Y012092D01*
X026568Y012130D01*
X026568Y012168D01*
X026557Y012242D01*
X026533Y012314D01*
X026499Y012382D01*
X026454Y012443D01*
X026401Y012496D01*
X026340Y012541D01*
X026273Y012575D01*
X026209Y012595D01*
X026394Y012672D01*
X026546Y012824D01*
X026628Y013023D01*
X026628Y013237D01*
X026546Y013436D01*
X026394Y013588D01*
X026292Y013630D01*
X026394Y013672D01*
X026546Y013824D01*
X026628Y014023D01*
X026628Y014237D01*
X026546Y014436D01*
X026394Y014588D01*
X026292Y014630D01*
X026394Y014672D01*
X026546Y014824D01*
X026628Y015023D01*
X026628Y015237D01*
X026546Y015436D01*
X026394Y015588D01*
X026292Y015630D01*
X026394Y015672D01*
X026546Y015824D01*
X026628Y016023D01*
X026628Y016099D01*
X026738Y015989D01*
X026738Y010562D01*
X026790Y010437D01*
X027238Y009989D01*
X027238Y009062D01*
X027290Y008937D01*
X027541Y008687D01*
X027541Y008317D01*
X027583Y008214D01*
X027662Y008135D01*
X027765Y008093D01*
X028392Y008093D01*
X028494Y008135D01*
X028573Y008214D01*
X028616Y008317D01*
X028616Y008342D01*
X028623Y008326D01*
X028774Y008174D01*
X028971Y008093D01*
X029185Y008093D01*
X029383Y008174D01*
X029534Y008326D01*
X029578Y008433D01*
X029623Y008326D01*
X029774Y008174D01*
X029971Y008093D01*
X030185Y008093D01*
X030383Y008174D01*
X030534Y008326D01*
X030613Y008517D01*
X030636Y008447D01*
X030670Y008380D01*
X030714Y008319D01*
X030767Y008266D01*
X030828Y008222D01*
X030895Y008188D01*
X030967Y008164D01*
X031041Y008153D01*
X031078Y008153D01*
X031078Y008630D01*
X031078Y009107D01*
X031041Y009107D01*
X030967Y009096D01*
X030895Y009072D01*
X030828Y009038D01*
X030767Y008994D01*
X030714Y008941D01*
X030670Y008880D01*
X030636Y008813D01*
X030613Y008743D01*
X030534Y008934D01*
X030383Y009086D01*
X030192Y009165D01*
X030262Y009188D01*
X030329Y009222D01*
X030389Y009266D01*
X030443Y009319D01*
X030487Y009380D01*
X030521Y009447D01*
X030544Y009518D01*
X030556Y009592D01*
X030556Y009630D01*
X030556Y009668D01*
X030544Y009742D01*
X030521Y009813D01*
X030487Y009880D01*
X030443Y009941D01*
X030389Y009994D01*
X030329Y010038D01*
X030262Y010072D01*
X030190Y010096D01*
X030116Y010107D01*
X030078Y010107D01*
X030041Y010107D01*
X029967Y010096D01*
X029918Y010080D01*
X029918Y010198D01*
X029867Y010323D01*
X029771Y010418D01*
X028599Y011590D01*
X029196Y011590D01*
X029341Y011650D01*
X035718Y011650D01*
X035718Y010463D01*
X035713Y010477D01*
X035668Y010555D01*
X035613Y010626D01*
X035549Y010690D01*
X035477Y010745D01*
X035399Y010790D01*
X035316Y010825D01*
X035229Y010848D01*
X035139Y010860D01*
X035112Y010860D01*
X035112Y009721D01*
X035076Y009721D01*
X035076Y010860D01*
X035049Y010860D01*
X034959Y010848D01*
X034872Y010825D01*
X034789Y010790D01*
X034711Y010745D01*
X034639Y010690D01*
X034575Y010626D01*
X034520Y010555D01*
X034475Y010477D01*
X034441Y010393D01*
X034417Y010306D01*
X034406Y010216D01*
X034406Y009721D01*
X035076Y009721D01*
X035076Y009685D01*
X034406Y009685D01*
X034406Y009189D01*
X034417Y009100D01*
X034441Y009013D01*
X034475Y008929D01*
X034520Y008851D01*
X034575Y008779D01*
X034639Y008716D01*
X034711Y008661D01*
X034789Y008616D01*
X034872Y008581D01*
X034959Y008558D01*
X035049Y008546D01*
X035076Y008546D01*
X035076Y009685D01*
X035112Y009685D01*
X035112Y008546D01*
X035139Y008546D01*
X035229Y008558D01*
X035316Y008581D01*
X035399Y008616D01*
X035477Y008661D01*
X035549Y008716D01*
X035613Y008779D01*
X035668Y008851D01*
X035713Y008929D01*
X035718Y008942D01*
X035718Y008558D01*
X035773Y008426D01*
X035874Y008325D01*
X036374Y007825D01*
X036507Y007770D01*
X037650Y007770D01*
X037782Y007825D01*
X037884Y007926D01*
X038009Y008052D01*
X038009Y007636D01*
X008648Y007636D01*
X008648Y008235D01*
X008686Y008196D01*
X008736Y008168D01*
X008792Y008153D01*
X009078Y008153D01*
X009078Y008630D01*
X009078Y008630D01*
X009078Y008153D01*
X009365Y008153D01*
X009421Y008168D01*
X009471Y008196D01*
X009512Y008237D01*
X009541Y008288D01*
X009556Y008344D01*
X009556Y008630D01*
X009556Y008916D01*
X009541Y008972D01*
X009512Y009023D01*
X009471Y009064D01*
X009421Y009092D01*
X009365Y009107D01*
X009221Y009107D01*
X009383Y009174D01*
X009534Y009326D01*
X009578Y009433D01*
X009623Y009326D01*
X009774Y009174D01*
X009965Y009095D01*
X009895Y009072D01*
X009828Y009038D01*
X009767Y008994D01*
X009714Y008941D01*
X009670Y008880D01*
X009636Y008813D01*
X009613Y008742D01*
X009601Y008668D01*
X009601Y008630D01*
X009601Y008592D01*
X009613Y008518D01*
X009636Y008447D01*
X009670Y008380D01*
X009714Y008319D01*
X009767Y008266D01*
X009828Y008222D01*
X009895Y008188D01*
X009967Y008164D01*
X010041Y008153D01*
X010078Y008153D01*
X010078Y008630D01*
X009601Y008630D01*
X010078Y008630D01*
X010078Y008630D01*
X010078Y008630D01*
X010078Y008153D01*
X010116Y008153D01*
X010190Y008164D01*
X010262Y008188D01*
X010329Y008222D01*
X010389Y008266D01*
X010443Y008319D01*
X010487Y008380D01*
X010521Y008447D01*
X010544Y008518D01*
X010556Y008592D01*
X010556Y008630D01*
X010556Y008668D01*
X010544Y008742D01*
X010521Y008813D01*
X010487Y008880D01*
X010443Y008941D01*
X010389Y008994D01*
X010329Y009038D01*
X010828Y009038D01*
X010767Y008994D01*
X010714Y008941D01*
X010670Y008880D01*
X010636Y008813D01*
X010613Y008742D01*
X010601Y008668D01*
X010601Y008630D01*
X010601Y008592D01*
X010613Y008518D01*
X010636Y008447D01*
X010670Y008380D01*
X010714Y008319D01*
X010767Y008266D01*
X010828Y008222D01*
X010895Y008188D01*
X010967Y008164D01*
X011041Y008153D01*
X011078Y008153D01*
X011078Y008630D01*
X010601Y008630D01*
X011078Y008630D01*
X011078Y008630D01*
X011078Y008630D01*
X011078Y008153D01*
X011116Y008153D01*
X011190Y008164D01*
X011262Y008188D01*
X011329Y008222D01*
X011389Y008266D01*
X011443Y008319D01*
X011487Y008380D01*
X011521Y008447D01*
X011544Y008518D01*
X011556Y008592D01*
X011556Y008630D01*
X011556Y008668D01*
X011544Y008742D01*
X011521Y008813D01*
X011487Y008880D01*
X011443Y008941D01*
X011389Y008994D01*
X011329Y009038D01*
X011828Y009038D01*
X011767Y008994D01*
X011714Y008941D01*
X011670Y008880D01*
X011636Y008813D01*
X011613Y008742D01*
X011601Y008668D01*
X011601Y008630D01*
X011601Y008592D01*
X011613Y008518D01*
X011636Y008447D01*
X011670Y008380D01*
X011714Y008319D01*
X011767Y008266D01*
X011828Y008222D01*
X011895Y008188D01*
X011967Y008164D01*
X012041Y008153D01*
X012078Y008153D01*
X012078Y008630D01*
X011601Y008630D01*
X012078Y008630D01*
X012078Y008630D01*
X012078Y008630D01*
X012078Y008153D01*
X012116Y008153D01*
X012190Y008164D01*
X012262Y008188D01*
X012329Y008222D01*
X012389Y008266D01*
X012443Y008319D01*
X012487Y008380D01*
X012521Y008447D01*
X012544Y008518D01*
X012556Y008592D01*
X012556Y008630D01*
X012556Y008668D01*
X012544Y008742D01*
X012521Y008813D01*
X012487Y008880D01*
X012443Y008941D01*
X012389Y008994D01*
X012329Y009038D01*
X012828Y009038D01*
X012767Y008994D01*
X012714Y008941D01*
X012670Y008880D01*
X012636Y008813D01*
X012613Y008742D01*
X012601Y008668D01*
X012601Y008630D01*
X012601Y008592D01*
X012613Y008518D01*
X012636Y008447D01*
X012670Y008380D01*
X012714Y008319D01*
X012767Y008266D01*
X012828Y008222D01*
X012895Y008188D01*
X012967Y008164D01*
X013041Y008153D01*
X013078Y008153D01*
X013078Y008630D01*
X012601Y008630D01*
X013078Y008630D01*
X013078Y008630D01*
X013078Y008630D01*
X013078Y008153D01*
X013116Y008153D01*
X013190Y008164D01*
X013262Y008188D01*
X013329Y008222D01*
X013389Y008266D01*
X013443Y008319D01*
X013487Y008380D01*
X013521Y008447D01*
X013544Y008518D01*
X013556Y008592D01*
X013556Y008630D01*
X013556Y008668D01*
X013544Y008742D01*
X013521Y008813D01*
X013487Y008880D01*
X013443Y008941D01*
X013389Y008994D01*
X013329Y009038D01*
X013828Y009038D01*
X013767Y008994D01*
X013714Y008941D01*
X013670Y008880D01*
X013636Y008813D01*
X013613Y008742D01*
X013601Y008668D01*
X013601Y008630D01*
X013601Y008592D01*
X013613Y008518D01*
X013636Y008447D01*
X013670Y008380D01*
X013714Y008319D01*
X013767Y008266D01*
X013828Y008222D01*
X013895Y008188D01*
X013967Y008164D01*
X014041Y008153D01*
X014078Y008153D01*
X014078Y008630D01*
X013601Y008630D01*
X014078Y008630D01*
X014078Y008630D01*
X014078Y008630D01*
X014078Y008153D01*
X014116Y008153D01*
X014190Y008164D01*
X014262Y008188D01*
X014329Y008222D01*
X014389Y008266D01*
X014443Y008319D01*
X014487Y008380D01*
X014521Y008447D01*
X014544Y008518D01*
X014556Y008592D01*
X014556Y008630D01*
X014556Y008668D01*
X014544Y008742D01*
X014521Y008813D01*
X014487Y008880D01*
X014443Y008941D01*
X014389Y008994D01*
X014329Y009038D01*
X014828Y009038D01*
X014767Y008994D01*
X014714Y008941D01*
X014670Y008880D01*
X014636Y008813D01*
X014613Y008742D01*
X014601Y008668D01*
X014601Y008630D01*
X014601Y008592D01*
X014613Y008518D01*
X014636Y008447D01*
X014670Y008380D01*
X014714Y008319D01*
X014767Y008266D01*
X014828Y008222D01*
X014895Y008188D01*
X014967Y008164D01*
X015041Y008153D01*
X015078Y008153D01*
X015078Y008630D01*
X014601Y008630D01*
X015078Y008630D01*
X015078Y008630D01*
X015078Y008630D01*
X015078Y008153D01*
X015116Y008153D01*
X015190Y008164D01*
X015262Y008188D01*
X015329Y008222D01*
X015389Y008266D01*
X015443Y008319D01*
X015487Y008380D01*
X015521Y008447D01*
X015544Y008518D01*
X015556Y008592D01*
X015556Y008630D01*
X015556Y008668D01*
X015544Y008742D01*
X015521Y008813D01*
X015487Y008880D01*
X015443Y008941D01*
X015389Y008994D01*
X015329Y009038D01*
X015828Y009038D01*
X015767Y008994D01*
X015714Y008941D01*
X015670Y008880D01*
X015636Y008813D01*
X015613Y008742D01*
X015601Y008668D01*
X015601Y008630D01*
X015601Y008592D01*
X015613Y008518D01*
X015636Y008447D01*
X015670Y008380D01*
X015714Y008319D01*
X015767Y008266D01*
X015828Y008222D01*
X015895Y008188D01*
X015967Y008164D01*
X016041Y008153D01*
X016078Y008153D01*
X016078Y008630D01*
X015601Y008630D01*
X016078Y008630D01*
X016078Y008630D01*
X016078Y008630D01*
X016078Y008153D01*
X016116Y008153D01*
X016190Y008164D01*
X016262Y008188D01*
X016329Y008222D01*
X016389Y008266D01*
X016443Y008319D01*
X016487Y008380D01*
X016521Y008447D01*
X016544Y008518D01*
X016556Y008592D01*
X016556Y008630D01*
X016556Y008668D01*
X016544Y008742D01*
X016521Y008813D01*
X016487Y008880D01*
X016443Y008941D01*
X016389Y008994D01*
X016329Y009038D01*
X017160Y009038D01*
X017145Y009023D02*
X017116Y008972D01*
X017101Y008916D01*
X017101Y008630D01*
X017101Y008344D01*
X017116Y008288D01*
X017145Y008237D01*
X017186Y008196D01*
X017236Y008168D01*
X017292Y008153D01*
X017578Y008153D01*
X017578Y008630D01*
X017101Y008630D01*
X017578Y008630D01*
X017578Y008630D01*
X017578Y008630D01*
X017578Y008153D01*
X017865Y008153D01*
X017921Y008168D01*
X017971Y008196D01*
X018012Y008237D01*
X018041Y008288D01*
X018056Y008344D01*
X018056Y008630D01*
X018056Y008916D01*
X018041Y008972D01*
X018012Y009023D01*
X017971Y009064D01*
X017921Y009092D01*
X017865Y009107D01*
X017721Y009107D01*
X017883Y009174D01*
X018034Y009326D01*
X018078Y009433D01*
X018123Y009326D01*
X018274Y009174D01*
X018465Y009095D01*
X018395Y009072D01*
X018328Y009038D01*
X018267Y008994D01*
X018214Y008941D01*
X018170Y008880D01*
X018136Y008813D01*
X018113Y008742D01*
X018101Y008668D01*
X018101Y008630D01*
X018101Y008592D01*
X018113Y008518D01*
X018136Y008447D01*
X018170Y008380D01*
X018214Y008319D01*
X018267Y008266D01*
X018328Y008222D01*
X018395Y008188D01*
X018467Y008164D01*
X018541Y008153D01*
X018578Y008153D01*
X018578Y008630D01*
X018101Y008630D01*
X018578Y008630D01*
X018578Y008630D01*
X018578Y008630D01*
X018578Y008153D01*
X018616Y008153D01*
X018690Y008164D01*
X018762Y008188D01*
X018829Y008222D01*
X018889Y008266D01*
X018943Y008319D01*
X018987Y008380D01*
X019021Y008447D01*
X019044Y008518D01*
X019056Y008592D01*
X019056Y008630D01*
X019056Y008668D01*
X019044Y008742D01*
X019021Y008813D01*
X018987Y008880D01*
X018943Y008941D01*
X018889Y008994D01*
X018829Y009038D01*
X019328Y009038D01*
X019267Y008994D01*
X019214Y008941D01*
X019170Y008880D01*
X019136Y008813D01*
X019113Y008742D01*
X019101Y008668D01*
X019101Y008630D01*
X019101Y008592D01*
X019113Y008518D01*
X019136Y008447D01*
X019170Y008380D01*
X019214Y008319D01*
X019267Y008266D01*
X019328Y008222D01*
X019395Y008188D01*
X019467Y008164D01*
X019541Y008153D01*
X019578Y008153D01*
X019578Y008630D01*
X019101Y008630D01*
X019578Y008630D01*
X019578Y008630D01*
X019578Y008630D01*
X019578Y008153D01*
X019616Y008153D01*
X019690Y008164D01*
X019762Y008188D01*
X019829Y008222D01*
X019889Y008266D01*
X019943Y008319D01*
X019987Y008380D01*
X020021Y008447D01*
X020044Y008518D01*
X020056Y008592D01*
X020056Y008630D01*
X020056Y008668D01*
X020044Y008742D01*
X020021Y008813D01*
X019987Y008880D01*
X019943Y008941D01*
X019889Y008994D01*
X019829Y009038D01*
X022160Y009038D01*
X022145Y009023D02*
X022116Y008972D01*
X022101Y008916D01*
X022101Y008630D01*
X022101Y008344D01*
X022116Y008288D01*
X022145Y008237D01*
X022186Y008196D01*
X022236Y008168D01*
X022292Y008153D01*
X022578Y008153D01*
X022578Y008630D01*
X022101Y008630D01*
X022578Y008630D01*
X022578Y008630D01*
X022578Y008630D01*
X022578Y009107D01*
X022292Y009107D01*
X022236Y009092D01*
X022186Y009064D01*
X022145Y009023D01*
X022101Y008800D02*
X020025Y008800D01*
X020056Y008630D02*
X019578Y008630D01*
X019578Y008630D01*
X020056Y008630D01*
X020051Y008561D02*
X022101Y008561D01*
X022107Y008323D02*
X019945Y008323D01*
X019578Y008323D02*
X019578Y008323D01*
X019578Y008561D02*
X019578Y008561D01*
X019212Y008323D02*
X018945Y008323D01*
X019051Y008561D02*
X019106Y008561D01*
X019056Y008630D02*
X018578Y008630D01*
X019056Y008630D01*
X019025Y008800D02*
X019131Y008800D01*
X019328Y009038D02*
X019395Y009072D01*
X019465Y009095D01*
X019274Y009174D01*
X019123Y009326D01*
X019078Y009433D01*
X019034Y009326D01*
X018883Y009174D01*
X018692Y009095D01*
X018762Y009072D01*
X018829Y009038D01*
X018985Y009277D02*
X019172Y009277D01*
X019692Y009095D02*
X019883Y009174D01*
X020034Y009326D01*
X020116Y009523D01*
X020116Y009737D01*
X020034Y009934D01*
X019938Y010030D01*
X019938Y010230D01*
X019953Y010236D01*
X020032Y010315D01*
X020075Y010418D01*
X020075Y010923D01*
X020041Y011005D01*
X020075Y011087D01*
X020075Y011592D01*
X020032Y011695D01*
X020015Y011712D01*
X020046Y011787D01*
X020046Y011973D01*
X019975Y012145D01*
X019843Y012276D01*
X019746Y012317D01*
X021071Y013641D01*
X021331Y013641D01*
X021434Y013684D01*
X021513Y013763D01*
X021555Y013866D01*
X021555Y013955D01*
X021618Y013955D01*
X021624Y013940D01*
X021703Y013861D01*
X021806Y013819D01*
X022351Y013819D01*
X022453Y013861D01*
X022532Y013940D01*
X022575Y014043D01*
X022575Y014548D01*
X022541Y014630D01*
X022562Y014682D01*
X022646Y014717D01*
X022742Y014812D01*
X022867Y014937D01*
X022918Y015062D01*
X022918Y016323D01*
X022867Y016448D01*
X022309Y017005D01*
X022184Y017057D01*
X021893Y017057D01*
X021893Y017093D01*
X021826Y017254D01*
X021703Y017378D01*
X021643Y017403D01*
X021643Y017468D01*
X021576Y017629D01*
X021460Y017746D01*
X021579Y017624D02*
X023854Y017624D01*
X024092Y017386D02*
X021684Y017386D01*
X021871Y017147D02*
X024331Y017147D01*
X024569Y016909D02*
X022406Y016909D01*
X022644Y016670D02*
X024808Y016670D01*
X025046Y016432D02*
X022873Y016432D01*
X022918Y016193D02*
X025028Y016193D01*
X025057Y015955D02*
X022918Y015955D01*
X022918Y015716D02*
X025219Y015716D01*
X025152Y015478D02*
X022918Y015478D01*
X022918Y015239D02*
X025029Y015239D01*
X025037Y015001D02*
X022893Y015001D01*
X022691Y014762D02*
X025173Y014762D01*
X025198Y014524D02*
X022575Y014524D01*
X022575Y014285D02*
X025048Y014285D01*
X025028Y014047D02*
X022575Y014047D01*
X021531Y013808D02*
X025127Y013808D01*
X025244Y013570D02*
X020999Y013570D01*
X020760Y013331D02*
X025067Y013331D01*
X025028Y013093D02*
X020522Y013093D01*
X020283Y012854D02*
X025098Y012854D01*
X025399Y012616D02*
X020045Y012616D01*
X019806Y012377D02*
X025155Y012377D01*
X025088Y012139D02*
X019977Y012139D01*
X020046Y011900D02*
X025147Y011900D01*
X025458Y011662D02*
X020046Y011662D01*
X020075Y011423D02*
X026738Y011423D01*
X026738Y011185D02*
X020075Y011185D01*
X020065Y010946D02*
X026738Y010946D01*
X026738Y010708D02*
X020075Y010708D01*
X020075Y010469D02*
X026777Y010469D01*
X026997Y010231D02*
X019940Y010231D01*
X019976Y009992D02*
X022265Y009992D01*
X022267Y009994D02*
X022214Y009941D01*
X022170Y009880D01*
X022136Y009813D01*
X022113Y009742D01*
X022101Y009668D01*
X022101Y009630D01*
X022101Y009592D01*
X022113Y009518D01*
X022136Y009447D01*
X022170Y009380D01*
X022214Y009319D01*
X022267Y009266D01*
X022328Y009222D01*
X022395Y009188D01*
X022467Y009164D01*
X022541Y009153D01*
X022578Y009153D01*
X022578Y009630D01*
X022101Y009630D01*
X022578Y009630D01*
X022578Y009630D01*
X022578Y009630D01*
X022578Y010107D01*
X022541Y010107D01*
X022467Y010096D01*
X022395Y010072D01*
X022328Y010038D01*
X022267Y009994D01*
X022116Y009754D02*
X020109Y009754D01*
X020112Y009515D02*
X022114Y009515D01*
X022257Y009277D02*
X019985Y009277D01*
X019829Y009038D02*
X019762Y009072D01*
X019692Y009095D01*
X018578Y008630D02*
X018578Y008630D01*
X018578Y008561D02*
X018578Y008561D01*
X018578Y008323D02*
X018578Y008323D01*
X018212Y008323D02*
X018050Y008323D01*
X018056Y008561D02*
X018106Y008561D01*
X018056Y008630D02*
X017578Y008630D01*
X018056Y008630D01*
X018056Y008800D02*
X018131Y008800D01*
X017996Y009038D02*
X018328Y009038D01*
X018172Y009277D02*
X017985Y009277D01*
X017435Y009107D02*
X017292Y009107D01*
X017236Y009092D01*
X017186Y009064D01*
X017145Y009023D01*
X017274Y009174D02*
X017435Y009107D01*
X017274Y009174D02*
X017123Y009326D01*
X017041Y009523D01*
X017041Y009737D01*
X017123Y009934D01*
X017218Y010030D01*
X017218Y010230D01*
X017203Y010236D01*
X017124Y010315D01*
X017082Y010418D01*
X017082Y010923D01*
X017098Y010963D01*
X016913Y010963D01*
X016913Y011380D01*
X016913Y011380D01*
X016913Y011797D01*
X016667Y011797D01*
X016643Y011790D01*
X016619Y011814D01*
X016516Y011857D01*
X016012Y011857D01*
X016048Y011944D01*
X016048Y012290D01*
X016146Y012290D01*
X016271Y012342D01*
X016367Y012437D01*
X016418Y012562D01*
X016418Y012790D01*
X017108Y012790D01*
X017108Y012444D01*
X017135Y012380D01*
X017108Y012316D01*
X017108Y011944D01*
X017151Y011841D01*
X017209Y011783D01*
X017158Y011797D01*
X016913Y011797D01*
X016913Y011380D01*
X016913Y011380D01*
X016913Y010963D01*
X016667Y010963D01*
X016643Y010970D01*
X016619Y010946D01*
X017091Y010946D01*
X017082Y010708D02*
X015426Y010708D01*
X015396Y010720D02*
X014697Y010720D01*
X014697Y011028D01*
X014655Y011130D01*
X014697Y011232D01*
X014697Y011658D01*
X014654Y011761D01*
X014645Y011770D01*
X014802Y011770D01*
X014810Y011763D01*
X014913Y011720D01*
X014968Y011720D01*
X014968Y011683D01*
X015023Y011551D01*
X015124Y011450D01*
X015499Y011075D01*
X015632Y011020D01*
X015794Y011020D01*
X015869Y010946D01*
X015971Y010903D01*
X016516Y010903D01*
X016619Y010946D01*
X016913Y011185D02*
X016913Y011185D01*
X016913Y011423D02*
X016913Y011423D01*
X016913Y011662D02*
X016913Y011662D01*
X017127Y011900D02*
X016030Y011900D01*
X016048Y012139D02*
X017108Y012139D01*
X017134Y012377D02*
X016306Y012377D01*
X016418Y012616D02*
X017108Y012616D01*
X015390Y011185D02*
X014677Y011185D01*
X014697Y011423D02*
X015151Y011423D01*
X014977Y011662D02*
X014696Y011662D01*
X014697Y010946D02*
X015868Y010946D01*
X015521Y010668D02*
X015396Y010720D01*
X015521Y010668D02*
X016022Y010167D01*
X016185Y010167D01*
X016383Y010086D01*
X016534Y009934D01*
X016616Y009737D01*
X016616Y009523D01*
X016534Y009326D01*
X016383Y009174D01*
X016192Y009095D01*
X016262Y009072D01*
X016329Y009038D01*
X016485Y009277D02*
X017172Y009277D01*
X017044Y009515D02*
X016612Y009515D01*
X016609Y009754D02*
X017048Y009754D01*
X017180Y009992D02*
X016476Y009992D01*
X015959Y010231D02*
X017217Y010231D01*
X017082Y010469D02*
X015720Y010469D01*
X015578Y009433D02*
X015623Y009326D01*
X015774Y009174D01*
X015965Y009095D01*
X015895Y009072D01*
X015828Y009038D01*
X015672Y009277D02*
X015485Y009277D01*
X015534Y009326D02*
X015578Y009433D01*
X015534Y009326D02*
X015383Y009174D01*
X015192Y009095D01*
X015262Y009072D01*
X015329Y009038D01*
X015525Y008800D02*
X015631Y008800D01*
X015556Y008630D02*
X015078Y008630D01*
X015078Y008630D01*
X015556Y008630D01*
X015551Y008561D02*
X015606Y008561D01*
X015712Y008323D02*
X015445Y008323D01*
X015078Y008323D02*
X015078Y008323D01*
X015078Y008561D02*
X015078Y008561D01*
X014712Y008323D02*
X014445Y008323D01*
X014551Y008561D02*
X014606Y008561D01*
X014556Y008630D02*
X014078Y008630D01*
X014556Y008630D01*
X014525Y008800D02*
X014631Y008800D01*
X014828Y009038D02*
X014895Y009072D01*
X014965Y009095D01*
X014774Y009174D01*
X014658Y009290D01*
X014636Y009290D01*
X014536Y009331D01*
X014534Y009326D01*
X014383Y009174D01*
X014192Y009095D01*
X014262Y009072D01*
X014329Y009038D01*
X014485Y009277D02*
X014672Y009277D01*
X013965Y009095D02*
X013895Y009072D01*
X013828Y009038D01*
X013774Y009174D02*
X013965Y009095D01*
X013774Y009174D02*
X013623Y009326D01*
X013578Y009433D01*
X013534Y009326D01*
X013383Y009174D01*
X013192Y009095D01*
X013262Y009072D01*
X013329Y009038D01*
X013485Y009277D02*
X013672Y009277D01*
X013631Y008800D02*
X013525Y008800D01*
X013556Y008630D02*
X013078Y008630D01*
X013078Y008630D01*
X013556Y008630D01*
X013551Y008561D02*
X013606Y008561D01*
X013712Y008323D02*
X013445Y008323D01*
X013078Y008323D02*
X013078Y008323D01*
X013078Y008561D02*
X013078Y008561D01*
X012712Y008323D02*
X012445Y008323D01*
X012551Y008561D02*
X012606Y008561D01*
X012556Y008630D02*
X012078Y008630D01*
X012556Y008630D01*
X012525Y008800D02*
X012631Y008800D01*
X012828Y009038D02*
X012895Y009072D01*
X012965Y009095D01*
X012774Y009174D01*
X012623Y009326D01*
X012578Y009433D01*
X012534Y009326D01*
X012383Y009174D01*
X012192Y009095D01*
X012262Y009072D01*
X012329Y009038D01*
X012485Y009277D02*
X012672Y009277D01*
X011965Y009095D02*
X011895Y009072D01*
X011828Y009038D01*
X011774Y009174D02*
X011965Y009095D01*
X011774Y009174D02*
X011623Y009326D01*
X011588Y009409D01*
X011555Y009376D01*
X011534Y009326D01*
X011383Y009174D01*
X011192Y009095D01*
X011262Y009072D01*
X011329Y009038D01*
X011485Y009277D02*
X011672Y009277D01*
X011631Y008800D02*
X011525Y008800D01*
X011556Y008630D02*
X011078Y008630D01*
X011078Y008630D01*
X011556Y008630D01*
X011551Y008561D02*
X011606Y008561D01*
X011712Y008323D02*
X011445Y008323D01*
X011078Y008323D02*
X011078Y008323D01*
X011078Y008561D02*
X011078Y008561D01*
X010712Y008323D02*
X010445Y008323D01*
X010551Y008561D02*
X010606Y008561D01*
X010556Y008630D02*
X010078Y008630D01*
X010556Y008630D01*
X010525Y008800D02*
X010631Y008800D01*
X010828Y009038D02*
X010895Y009072D01*
X010965Y009095D01*
X010774Y009174D01*
X010623Y009326D01*
X010578Y009433D01*
X010534Y009326D01*
X010383Y009174D01*
X010192Y009095D01*
X010262Y009072D01*
X010329Y009038D01*
X010485Y009277D02*
X010672Y009277D01*
X009828Y009038D02*
X009496Y009038D01*
X009485Y009277D02*
X009672Y009277D01*
X009631Y008800D02*
X009556Y008800D01*
X009556Y008630D02*
X009078Y008630D01*
X009078Y008630D01*
X009556Y008630D01*
X009556Y008561D02*
X009606Y008561D01*
X009550Y008323D02*
X009712Y008323D01*
X010078Y008323D02*
X010078Y008323D01*
X010078Y008561D02*
X010078Y008561D01*
X010078Y008630D02*
X010078Y008630D01*
X009078Y008561D02*
X009078Y008561D01*
X009078Y008323D02*
X009078Y008323D01*
X008648Y008084D02*
X036115Y008084D01*
X035877Y008323D02*
X033388Y008323D01*
X033434Y008341D02*
X033513Y008420D01*
X033555Y008523D01*
X033555Y009068D01*
X033513Y009170D01*
X033489Y009194D01*
X033495Y009219D01*
X033495Y009465D01*
X033495Y009710D01*
X033480Y009766D01*
X033451Y009816D01*
X033410Y009857D01*
X033360Y009886D01*
X033304Y009901D01*
X033078Y009901D01*
X032853Y009901D01*
X032797Y009886D01*
X032746Y009857D01*
X032705Y009816D01*
X032676Y009766D01*
X032661Y009710D01*
X032661Y009465D01*
X033078Y009465D01*
X033078Y009901D01*
X033078Y009465D01*
X033078Y009465D01*
X033078Y009465D01*
X032661Y009465D01*
X032661Y009219D01*
X032668Y009194D01*
X032644Y009170D01*
X032601Y009068D01*
X032601Y009009D01*
X032563Y008970D01*
X032498Y008970D01*
X032383Y009086D01*
X032221Y009153D01*
X032365Y009153D01*
X032421Y009168D01*
X032471Y009196D01*
X032512Y009237D01*
X032541Y009288D01*
X032556Y009344D01*
X032556Y009630D01*
X032556Y009916D01*
X032541Y009972D01*
X032512Y010023D01*
X032471Y010064D01*
X032421Y010092D01*
X032365Y010107D01*
X032078Y010107D01*
X031792Y010107D01*
X031736Y010092D01*
X031686Y010064D01*
X031645Y010023D01*
X031616Y009972D01*
X031601Y009916D01*
X031601Y009630D01*
X031601Y009344D01*
X031616Y009288D01*
X031645Y009237D01*
X031686Y009196D01*
X031736Y009168D01*
X031792Y009153D01*
X031935Y009153D01*
X031774Y009086D01*
X031623Y008934D01*
X031544Y008743D01*
X031521Y008813D01*
X031487Y008880D01*
X031443Y008941D01*
X031389Y008994D01*
X031329Y009038D01*
X031726Y009038D01*
X031622Y009277D02*
X031400Y009277D01*
X031389Y009266D02*
X031443Y009319D01*
X031487Y009380D01*
X031521Y009447D01*
X031544Y009518D01*
X031556Y009592D01*
X031556Y009630D01*
X031556Y009668D01*
X031544Y009742D01*
X031521Y009813D01*
X031487Y009880D01*
X031443Y009941D01*
X031389Y009994D01*
X031329Y010038D01*
X031262Y010072D01*
X031190Y010096D01*
X031116Y010107D01*
X031078Y010107D01*
X031041Y010107D01*
X030967Y010096D01*
X030895Y010072D01*
X030828Y010038D01*
X030767Y009994D01*
X030714Y009941D01*
X030670Y009880D01*
X030636Y009813D01*
X030613Y009742D01*
X030601Y009668D01*
X030601Y009630D01*
X030601Y009592D01*
X030613Y009518D01*
X030636Y009447D01*
X030670Y009380D01*
X030714Y009319D01*
X030767Y009266D01*
X030828Y009222D01*
X030895Y009188D01*
X030967Y009164D01*
X031041Y009153D01*
X031078Y009153D01*
X031078Y009630D01*
X030601Y009630D01*
X031078Y009630D01*
X031078Y009630D01*
X031078Y009630D01*
X031078Y010107D01*
X031078Y009630D01*
X031078Y009630D01*
X031078Y009153D01*
X031116Y009153D01*
X031190Y009164D01*
X031262Y009188D01*
X031329Y009222D01*
X031389Y009266D01*
X031262Y009072D02*
X031190Y009096D01*
X031116Y009107D01*
X031078Y009107D01*
X031078Y008630D01*
X031078Y008630D01*
X031078Y008630D01*
X031078Y008153D01*
X031116Y008153D01*
X031190Y008164D01*
X031262Y008188D01*
X031329Y008222D01*
X031389Y008266D01*
X031443Y008319D01*
X031487Y008380D01*
X031521Y008447D01*
X031544Y008517D01*
X031623Y008326D01*
X031774Y008174D01*
X031971Y008093D01*
X032185Y008093D01*
X032383Y008174D01*
X032498Y008290D01*
X032771Y008290D01*
X032809Y008306D01*
X032826Y008299D01*
X033331Y008299D01*
X033434Y008341D01*
X033555Y008561D02*
X034947Y008561D01*
X035076Y008561D02*
X035112Y008561D01*
X035241Y008561D02*
X035718Y008561D01*
X035718Y008800D02*
X035628Y008800D01*
X035112Y008800D02*
X035076Y008800D01*
X035076Y009038D02*
X035112Y009038D01*
X035112Y009277D02*
X035076Y009277D01*
X035076Y009515D02*
X035112Y009515D01*
X035112Y009754D02*
X035076Y009754D01*
X035076Y009992D02*
X035112Y009992D01*
X035112Y010231D02*
X035076Y010231D01*
X035076Y010469D02*
X035112Y010469D01*
X035112Y010708D02*
X035076Y010708D01*
X034662Y010708D02*
X029482Y010708D01*
X029243Y010946D02*
X035718Y010946D01*
X035718Y010708D02*
X035526Y010708D01*
X035716Y010469D02*
X035718Y010469D01*
X035718Y011185D02*
X029005Y011185D01*
X028766Y011423D02*
X035718Y011423D01*
X034472Y010469D02*
X029720Y010469D01*
X029905Y010231D02*
X034407Y010231D01*
X034406Y009992D02*
X032530Y009992D01*
X032556Y009754D02*
X032673Y009754D01*
X032556Y009630D02*
X032078Y009630D01*
X031601Y009630D01*
X032078Y009630D01*
X032078Y009630D01*
X032078Y010107D01*
X032078Y009630D01*
X032078Y009630D01*
X032078Y009630D01*
X032556Y009630D01*
X032556Y009515D02*
X032661Y009515D01*
X032661Y009277D02*
X032534Y009277D01*
X032601Y009038D02*
X032430Y009038D01*
X033078Y009465D02*
X033078Y009465D01*
X033495Y009465D01*
X033078Y009465D01*
X033078Y009515D02*
X033078Y009515D01*
X033078Y009754D02*
X033078Y009754D01*
X033484Y009754D02*
X034406Y009754D01*
X034406Y009515D02*
X033495Y009515D01*
X033495Y009277D02*
X034406Y009277D01*
X034434Y009038D02*
X033555Y009038D01*
X033555Y008800D02*
X034560Y008800D01*
X036354Y007846D02*
X008648Y007846D01*
X008642Y009018D02*
X008637Y009084D01*
X008641Y009104D01*
X008634Y009139D01*
X008631Y009175D01*
X008622Y009193D01*
X008601Y009289D01*
X008602Y009310D01*
X008589Y009343D01*
X008582Y009378D01*
X008570Y009395D01*
X008536Y009487D01*
X008533Y009507D01*
X008516Y009538D01*
X008504Y009572D01*
X008490Y009587D01*
X008443Y009673D01*
X008438Y009693D01*
X008416Y009722D01*
X008399Y009753D01*
X008383Y009766D01*
X008324Y009844D01*
X008317Y009863D01*
X008291Y009888D01*
X008270Y009917D01*
X008252Y009927D01*
X008183Y009997D01*
X008172Y010015D01*
X008144Y010036D01*
X008119Y010061D01*
X008100Y010069D01*
X008021Y010128D01*
X008008Y010144D01*
X007977Y010161D01*
X007948Y010182D01*
X007928Y010187D01*
X007842Y010234D01*
X007827Y010248D01*
X007794Y010261D01*
X007763Y010278D01*
X007742Y010280D01*
X007650Y010314D01*
X007633Y010326D01*
X007598Y010334D01*
X007565Y010346D01*
X007545Y010346D01*
X007449Y010366D01*
X007430Y010376D01*
X007395Y010378D01*
X007360Y010386D01*
X007340Y010382D01*
X007252Y010388D01*
X007242Y010392D01*
X007197Y010392D01*
X007151Y010396D01*
X007141Y010392D01*
X005892Y010392D01*
X005892Y026368D01*
X007141Y026368D01*
X007151Y026364D01*
X007197Y026368D01*
X007242Y026368D01*
X007252Y026372D01*
X007340Y026378D01*
X007360Y026374D01*
X007395Y026382D01*
X007430Y026384D01*
X007449Y026394D01*
X007545Y026414D01*
X007565Y026414D01*
X007598Y026426D01*
X007633Y026434D01*
X007650Y026446D01*
X007742Y026480D01*
X007763Y026482D01*
X007794Y026499D01*
X007827Y026512D01*
X007842Y026526D01*
X007928Y026573D01*
X007948Y026578D01*
X007977Y026599D01*
X008008Y026616D01*
X008021Y026632D01*
X008100Y026691D01*
X008119Y026699D01*
X008144Y026724D01*
X008172Y026745D01*
X008183Y026763D01*
X008252Y026833D01*
X008270Y026843D01*
X008291Y026872D01*
X008317Y026897D01*
X008324Y026916D01*
X008383Y026994D01*
X008399Y027007D01*
X008416Y027038D01*
X008438Y027067D01*
X008443Y027087D01*
X008490Y027173D01*
X008504Y027188D01*
X008516Y027222D01*
X008533Y027253D01*
X008536Y027273D01*
X008570Y027365D01*
X008582Y027382D01*
X008589Y027417D01*
X008602Y027450D01*
X008601Y027471D01*
X008622Y027567D01*
X008631Y027585D01*
X008634Y027621D01*
X008641Y027656D01*
X008637Y027676D01*
X008644Y027764D01*
X008648Y027773D01*
X008648Y027819D01*
X008651Y027864D01*
X008648Y027874D01*
X008648Y029124D01*
X038009Y029124D01*
X038009Y027874D01*
X038006Y027864D01*
X038009Y027819D01*
X038009Y027773D01*
X038013Y027764D01*
X038019Y027676D01*
X038016Y027656D01*
X038023Y027621D01*
X038026Y027585D01*
X038035Y027567D01*
X038056Y027471D01*
X038055Y027450D01*
X038067Y027417D01*
X038075Y027382D01*
X038087Y027365D01*
X038121Y027273D01*
X038123Y027253D01*
X038140Y027222D01*
X038153Y027188D01*
X038167Y027173D01*
X038214Y027087D01*
X038219Y027067D01*
X038240Y027038D01*
X038257Y027007D01*
X038273Y026994D01*
X038332Y026916D01*
X038340Y026897D01*
X038365Y026872D01*
X038387Y026843D01*
X038404Y026833D01*
X038474Y026763D01*
X038484Y026745D01*
X038513Y026724D01*
X038538Y026699D01*
X038557Y026691D01*
X038636Y026632D01*
X038648Y026616D01*
X038680Y026599D01*
X038708Y026578D01*
X038728Y026573D01*
X038814Y026526D01*
X038829Y026512D01*
X038863Y026499D01*
X038894Y026482D01*
X038915Y026480D01*
X039007Y026446D01*
X039023Y026434D01*
X039058Y026426D01*
X039092Y026414D01*
X039112Y026414D01*
X039208Y026394D01*
X039226Y026384D01*
X039262Y026382D01*
X039297Y026374D01*
X039317Y026378D01*
X039405Y026372D01*
X039414Y026368D01*
X039460Y026368D01*
X039506Y026364D01*
X039515Y026368D01*
X040765Y026368D01*
X040765Y014953D01*
X037938Y017779D01*
X037938Y018521D01*
X038108Y018776D01*
X038134Y018801D01*
X038147Y018835D01*
X038168Y018865D01*
X038175Y018900D01*
X038188Y018933D01*
X038188Y018970D01*
X038195Y019005D01*
X038188Y019041D01*
X038188Y021702D01*
X038134Y021834D01*
X038032Y021935D01*
X037532Y022435D01*
X037434Y022476D01*
X037782Y022825D01*
X037884Y022926D01*
X037938Y023058D01*
X037938Y028202D01*
X037884Y028334D01*
X037384Y028834D01*
X037282Y028935D01*
X037150Y028990D01*
X035882Y028990D01*
X035749Y028935D01*
X035148Y028334D01*
X035093Y028202D01*
X035093Y026279D01*
X034804Y025990D01*
X033382Y025990D01*
X033249Y025935D01*
X032749Y025435D01*
X032648Y025334D01*
X032593Y025202D01*
X032593Y023058D01*
X032648Y022926D01*
X033148Y022426D01*
X033249Y022325D01*
X033382Y022270D01*
X035209Y022270D01*
X035023Y022084D01*
X034968Y021952D01*
X034968Y021764D01*
X034940Y021820D01*
X034884Y021897D01*
X034816Y021965D01*
X034738Y022022D01*
X034653Y022065D01*
X034561Y022095D01*
X034466Y022110D01*
X034038Y022110D01*
X034038Y021510D01*
X034018Y021510D01*
X034018Y021490D01*
X033028Y021490D01*
X033028Y021452D01*
X033043Y021357D01*
X033073Y021266D01*
X033117Y021180D01*
X033173Y021103D01*
X033241Y021035D01*
X033319Y020978D01*
X033404Y020935D01*
X033496Y020905D01*
X033590Y020890D01*
X034018Y020890D01*
X034018Y021490D01*
X034038Y021490D01*
X034038Y020890D01*
X034466Y020890D01*
X034561Y020905D01*
X034653Y020935D01*
X034738Y020978D01*
X034816Y021035D01*
X034884Y021103D01*
X034940Y021180D01*
X034968Y021236D01*
X034968Y021154D01*
X034679Y020865D01*
X033102Y020865D01*
X032813Y021154D01*
X032813Y022202D01*
X032759Y022334D01*
X032657Y022435D01*
X032157Y022935D01*
X032025Y022990D01*
X031936Y022990D01*
X032036Y023090D01*
X032138Y023337D01*
X032138Y023603D01*
X032036Y023850D01*
X031848Y024038D01*
X031602Y024140D01*
X030555Y024140D01*
X030438Y024092D01*
X030438Y025202D01*
X030384Y025334D01*
X030282Y025435D01*
X029782Y025935D01*
X029650Y025990D01*
X028007Y025990D01*
X027874Y025935D01*
X027773Y025834D01*
X027718Y025702D01*
X027718Y025469D01*
X027713Y025471D01*
X026597Y025471D01*
X026495Y025428D01*
X026416Y025350D01*
X026373Y025247D01*
X026373Y024131D01*
X026382Y024110D01*
X026275Y024110D01*
X026284Y024131D01*
X026284Y025247D01*
X026241Y025350D01*
X026162Y025428D01*
X026059Y025471D01*
X024944Y025471D01*
X024841Y025428D01*
X024762Y025350D01*
X024720Y025247D01*
X024720Y024131D01*
X024728Y024110D01*
X024557Y024110D01*
X024570Y024158D01*
X024570Y024642D01*
X023895Y024642D01*
X023895Y024736D01*
X023801Y024736D01*
X023801Y024642D01*
X023126Y024642D01*
X023126Y024158D01*
X023139Y024110D01*
X022968Y024110D01*
X022976Y024131D01*
X022976Y025247D01*
X022934Y025350D01*
X022855Y025428D01*
X022804Y025449D01*
X022804Y026385D01*
X022712Y026609D01*
X022345Y026976D01*
X022174Y027147D01*
X021950Y027240D01*
X019332Y027240D01*
X019108Y027147D01*
X018936Y026976D01*
X018370Y026410D01*
X018277Y026185D01*
X018277Y025449D01*
X018227Y025428D01*
X018148Y025350D01*
X018105Y025247D01*
X018105Y024131D01*
X018148Y024028D01*
X018227Y023950D01*
X018330Y023907D01*
X019445Y023907D01*
X019548Y023950D01*
X019627Y024028D01*
X019669Y024131D01*
X019669Y025247D01*
X019627Y025350D01*
X019548Y025428D01*
X019497Y025449D01*
X019497Y025811D01*
X019706Y026020D01*
X021576Y026020D01*
X021584Y026011D01*
X021584Y025449D01*
X021534Y025428D01*
X021455Y025350D01*
X021413Y025247D01*
X021413Y024131D01*
X021455Y024028D01*
X021534Y023950D01*
X021637Y023907D01*
X021719Y023907D01*
X021788Y023742D01*
X022284Y023246D01*
X022242Y023246D01*
X022242Y022571D01*
X022916Y022571D01*
X022916Y023055D01*
X022901Y023111D01*
X022879Y023150D01*
X023164Y023150D01*
X023141Y023111D01*
X023126Y023055D01*
X023126Y022571D01*
X023801Y022571D01*
X023801Y022476D01*
X023895Y022476D01*
X023895Y021802D01*
X024379Y021802D01*
X024435Y021817D01*
X024485Y021846D01*
X024526Y021887D01*
X024555Y021937D01*
X024570Y021993D01*
X024570Y022476D01*
X023895Y022476D01*
X023895Y022571D01*
X024570Y022571D01*
X024570Y023055D01*
X024555Y023111D01*
X024532Y023150D01*
X024748Y023150D01*
X024720Y023081D01*
X024720Y021966D01*
X024762Y021863D01*
X024841Y021784D01*
X024944Y021742D01*
X026059Y021742D01*
X026162Y021784D01*
X026241Y021863D01*
X026284Y021966D01*
X026284Y023081D01*
X026255Y023150D01*
X026402Y023150D01*
X026373Y023081D01*
X026373Y021966D01*
X026416Y021863D01*
X026495Y021784D01*
X026597Y021742D01*
X027713Y021742D01*
X027816Y021784D01*
X027894Y021863D01*
X027915Y021914D01*
X028048Y021914D01*
X028069Y021863D01*
X028148Y021784D01*
X028251Y021742D01*
X029218Y021742D01*
X029218Y020661D01*
X029196Y020670D01*
X028461Y020670D01*
X028262Y020588D01*
X028111Y020436D01*
X028028Y020237D01*
X028028Y020023D01*
X028111Y019824D01*
X028262Y019672D01*
X028364Y019630D01*
X028262Y019588D01*
X028111Y019436D01*
X028028Y019237D01*
X028028Y019023D01*
X028111Y018824D01*
X028262Y018672D01*
X028364Y018630D01*
X028262Y018588D01*
X028111Y018436D01*
X028028Y018237D01*
X028028Y018023D01*
X028107Y017832D01*
X028021Y017918D01*
X027021Y018918D01*
X026896Y018970D01*
X026607Y018970D01*
X026628Y019023D01*
X026628Y019237D01*
X026546Y019436D01*
X026394Y019588D01*
X026292Y019630D01*
X026394Y019672D01*
X026546Y019824D01*
X026628Y020023D01*
X026628Y020237D01*
X026546Y020436D01*
X026394Y020588D01*
X026196Y020670D01*
X025461Y020670D01*
X025262Y020588D01*
X025111Y020436D01*
X025028Y020237D01*
X025028Y020023D01*
X025111Y019824D01*
X025262Y019672D01*
X025364Y019630D01*
X025262Y019588D01*
X025111Y019436D01*
X025028Y019237D01*
X025028Y019023D01*
X025050Y018970D01*
X024469Y018970D01*
X023619Y019820D01*
X023494Y019872D01*
X022841Y019872D01*
X022850Y019904D01*
X022850Y020130D01*
X022850Y020356D01*
X022835Y020412D01*
X022806Y020462D01*
X022765Y020503D01*
X022714Y020532D01*
X022658Y020547D01*
X022413Y020547D01*
X022167Y020547D01*
X022143Y020540D01*
X022119Y020564D01*
X022016Y020607D01*
X021471Y020607D01*
X021369Y020564D01*
X021290Y020485D01*
X021248Y020383D01*
X020869Y020383D01*
X020848Y020392D01*
X020617Y020392D01*
X020589Y020403D01*
X019216Y020403D01*
X019180Y020440D01*
X019008Y020511D01*
X018957Y020511D01*
X018881Y020586D01*
X018890Y020608D01*
X018890Y021152D01*
X018847Y021255D01*
X018773Y021329D01*
X018773Y021367D01*
X018718Y021499D01*
X018634Y021584D01*
X018532Y021685D01*
X018400Y021740D01*
X014477Y021740D01*
X014476Y021742D01*
X014484Y021742D01*
X014587Y021784D01*
X014666Y021863D01*
X014709Y021966D01*
X014709Y023081D01*
X014666Y023184D01*
X014587Y023263D01*
X014537Y023284D01*
X014537Y023929D01*
X014587Y023950D01*
X014666Y024028D01*
X014687Y024079D01*
X014820Y024079D01*
X014841Y024028D01*
X014920Y023950D01*
X015023Y023907D01*
X016138Y023907D01*
X016241Y023950D01*
X016320Y024028D01*
X016362Y024131D01*
X016362Y025247D01*
X016320Y025350D01*
X016241Y025428D01*
X016138Y025471D01*
X015023Y025471D01*
X014920Y025428D01*
X014841Y025350D01*
X014820Y025299D01*
X014687Y025299D01*
X014666Y025350D01*
X014587Y025428D01*
X014484Y025471D01*
X013369Y025471D01*
X013266Y025428D01*
X013187Y025350D01*
X013145Y025247D01*
X013145Y024131D01*
X013187Y024028D01*
X013266Y023950D01*
X013317Y023929D01*
X013317Y023284D01*
X013266Y023263D01*
X013187Y023184D01*
X013145Y023081D01*
X013145Y022419D01*
X009742Y025823D01*
X009658Y025906D01*
X009658Y025986D01*
X009616Y026089D01*
X009537Y026167D01*
X009434Y026210D01*
X008723Y026210D01*
X008620Y026167D01*
X008541Y026089D01*
X008498Y025986D01*
X008498Y025274D01*
X008541Y025171D01*
X008620Y025093D01*
X008691Y025063D01*
X008587Y024959D01*
X008498Y024745D01*
X008498Y024515D01*
X008517Y024470D01*
X008488Y024470D01*
X008465Y024525D01*
X008387Y024604D01*
X008328Y024628D01*
X008330Y024635D01*
X008330Y024880D01*
X008330Y025125D01*
X008315Y025181D01*
X008286Y025232D01*
X008245Y025273D01*
X008195Y025302D01*
X008139Y025317D01*
X007913Y025317D01*
X007687Y025317D01*
X007631Y025302D01*
X007599Y025334D01*
X007496Y025377D01*
X006991Y025377D01*
X006888Y025334D01*
X006809Y025255D01*
X006767Y025152D01*
X006767Y024608D01*
X006769Y024602D01*
X006691Y024525D01*
X006649Y024422D01*
X006649Y023838D01*
X006691Y023735D01*
X006769Y023658D01*
X006767Y023652D01*
X006767Y023108D01*
X006769Y023102D01*
X006691Y023025D01*
X006649Y022922D01*
X006649Y022338D01*
X006691Y022235D01*
X006770Y022156D01*
X006873Y022114D01*
X007457Y022114D01*
X007560Y022156D01*
X007578Y022175D01*
X007597Y022156D01*
X007700Y022114D01*
X008113Y022114D01*
X008113Y021534D01*
X008107Y021541D01*
X007764Y021683D01*
X007393Y021683D01*
X007050Y021541D01*
X006788Y021278D01*
X006646Y020936D01*
X006646Y020565D01*
X006788Y020222D01*
X007050Y019959D01*
X007393Y019817D01*
X007764Y019817D01*
X008107Y019959D01*
X008369Y020222D01*
X008511Y020565D01*
X008511Y020936D01*
X008489Y020988D01*
X008540Y020937D01*
X008636Y020842D01*
X008761Y020790D01*
X010324Y020790D01*
X010322Y020787D01*
X010307Y020731D01*
X010307Y020505D01*
X010307Y020383D01*
X009424Y020383D01*
X009299Y020332D01*
X008453Y019485D01*
X008357Y019390D01*
X008342Y019354D01*
X008327Y019348D01*
X008170Y019190D01*
X008084Y018984D01*
X008084Y018761D01*
X008170Y018554D01*
X008327Y018396D01*
X008444Y018348D01*
X008383Y018316D01*
X008319Y018270D01*
X008263Y018214D01*
X008217Y018151D01*
X008181Y018080D01*
X008157Y018005D01*
X008144Y017927D01*
X008144Y017888D01*
X008645Y017888D01*
X008645Y017888D01*
X008144Y017888D01*
X008144Y017848D01*
X008157Y017771D01*
X008181Y017696D01*
X008217Y017625D01*
X008263Y017561D01*
X008319Y017506D01*
X008383Y017459D01*
X008453Y017423D01*
X008528Y017399D01*
X008606Y017387D01*
X008645Y017387D01*
X008645Y017888D01*
X008645Y017888D01*
X008645Y017387D01*
X008685Y017387D01*
X008763Y017399D01*
X008838Y017423D01*
X008908Y017459D01*
X008972Y017506D01*
X008997Y017530D01*
X009115Y017412D01*
X009321Y017327D01*
X009544Y017327D01*
X009751Y017412D01*
X009908Y017570D01*
X009994Y017776D01*
X009994Y017940D01*
X010244Y018191D01*
X010250Y018176D01*
X010310Y018117D01*
X010307Y018106D01*
X010307Y017880D01*
X010307Y017704D01*
X010262Y017704D01*
X010206Y017689D01*
X010156Y017660D01*
X010115Y017619D01*
X010086Y017569D01*
X010071Y017513D01*
X010071Y017148D01*
X010549Y017148D01*
X010549Y017112D01*
X010584Y017112D01*
X010584Y016556D01*
X010871Y016556D01*
X010927Y016571D01*
X010977Y016600D01*
X011018Y016641D01*
X011047Y016690D01*
X011077Y016617D01*
X011156Y016538D01*
X011259Y016496D01*
X011921Y016496D01*
X012024Y016538D01*
X012084Y016598D01*
X012084Y016592D01*
X012127Y016490D01*
X012205Y016411D01*
X012308Y016368D01*
X012970Y016368D01*
X013073Y016411D01*
X013151Y016490D01*
X013194Y016592D01*
X013194Y016841D01*
X013192Y016845D01*
X013194Y016848D01*
X013194Y017097D01*
X013151Y017200D01*
X013134Y017217D01*
X013134Y017228D01*
X013123Y017228D01*
X013123Y017228D01*
X013134Y017228D01*
X013134Y017326D01*
X013126Y017356D01*
X013134Y017387D01*
X013134Y017484D01*
X013123Y017484D01*
X013134Y017484D01*
X013134Y017496D01*
X013151Y017513D01*
X013194Y017616D01*
X013194Y017864D01*
X013192Y017868D01*
X013194Y017872D01*
X013194Y017912D01*
X013518Y017912D01*
X013643Y017964D01*
X013739Y018059D01*
X013771Y018092D01*
X013867Y018187D01*
X013918Y018312D01*
X013918Y020040D01*
X014963Y020040D01*
X014963Y019919D01*
X014964Y019915D01*
X014963Y019912D01*
X014963Y019663D01*
X014964Y019660D01*
X014963Y019656D01*
X014963Y019407D01*
X014964Y019404D01*
X014963Y019400D01*
X014963Y019151D01*
X014964Y019148D01*
X014963Y019144D01*
X014963Y018896D01*
X014964Y018892D01*
X014963Y018888D01*
X014963Y018640D01*
X014964Y018636D01*
X014963Y018632D01*
X014963Y018384D01*
X015005Y018281D01*
X015023Y018263D01*
X015023Y018252D01*
X015023Y018241D01*
X015005Y018223D01*
X014963Y018120D01*
X014963Y017872D01*
X014964Y017868D01*
X014963Y017864D01*
X014963Y017813D01*
X014865Y017773D01*
X014769Y017677D01*
X014636Y017543D01*
X014540Y017448D01*
X014488Y017323D01*
X014488Y017201D01*
X014432Y017145D01*
X014361Y016973D01*
X014361Y016787D01*
X014432Y016615D01*
X014488Y016559D01*
X014488Y016187D01*
X014540Y016062D01*
X014761Y015842D01*
X014886Y015790D01*
X015158Y015790D01*
X015165Y015775D01*
X015244Y015696D01*
X015346Y015653D01*
X015891Y015653D01*
X015994Y015696D01*
X016018Y015720D01*
X016042Y015713D01*
X016288Y015713D01*
X016533Y015713D01*
X016578Y015725D01*
X016623Y015713D01*
X016869Y015713D01*
X017114Y015713D01*
X017139Y015720D01*
X017163Y015696D01*
X017266Y015653D01*
X017810Y015653D01*
X017913Y015696D01*
X017987Y015770D01*
X018275Y015770D01*
X018407Y015825D01*
X018467Y015885D01*
X018738Y015614D01*
X018738Y015413D01*
X018703Y015399D01*
X018624Y015320D01*
X018582Y015217D01*
X018582Y014712D01*
X018616Y014630D01*
X018606Y014606D01*
X018551Y014584D01*
X018538Y014570D01*
X018491Y014570D01*
X018468Y014561D01*
X018468Y014816D01*
X018426Y014919D01*
X018401Y014943D01*
X018408Y014971D01*
X018408Y015130D01*
X018408Y015289D01*
X018393Y015345D01*
X018364Y015395D01*
X018323Y015436D01*
X018273Y015465D01*
X018217Y015480D01*
X017788Y015480D01*
X017359Y015480D01*
X017303Y015465D01*
X017253Y015436D01*
X017212Y015395D01*
X017183Y015345D01*
X017168Y015289D01*
X017168Y015130D01*
X017788Y015130D01*
X017168Y015130D01*
X017168Y014971D01*
X017169Y014970D01*
X016048Y014970D01*
X016048Y015316D01*
X016006Y015419D01*
X015927Y015497D01*
X015824Y015540D01*
X014913Y015540D01*
X014810Y015497D01*
X014782Y015470D01*
X014636Y015470D01*
X014511Y015418D01*
X014415Y015323D01*
X014353Y015261D01*
X014350Y015270D01*
X014218Y015401D01*
X014046Y015472D01*
X013860Y015472D01*
X013689Y015401D01*
X013557Y015270D01*
X013493Y015115D01*
X007859Y015115D01*
X007857Y015116D01*
X008107Y015219D01*
X008369Y015482D01*
X008511Y015824D01*
X008511Y016195D01*
X008369Y016538D01*
X008107Y016801D01*
X007764Y016943D01*
X007393Y016943D01*
X007050Y016801D01*
X006788Y016538D01*
X006646Y016195D01*
X006646Y015824D01*
X006788Y015482D01*
X007050Y015219D01*
X007226Y015146D01*
X007200Y015146D01*
X007097Y015104D01*
X007078Y015085D01*
X007060Y015104D01*
X006957Y015146D01*
X006373Y015146D01*
X006270Y015104D01*
X006191Y015025D01*
X006149Y014922D01*
X006149Y014338D01*
X006191Y014235D01*
X006270Y014156D01*
X006343Y014126D01*
X006343Y014058D01*
X006398Y013926D01*
X006499Y013825D01*
X006678Y013646D01*
X006373Y013646D01*
X006270Y013604D01*
X006191Y013525D01*
X006149Y013422D01*
X006149Y012838D01*
X006191Y012735D01*
X006270Y012656D01*
X006372Y012614D01*
X006398Y012551D01*
X006499Y012450D01*
X006803Y012146D01*
X006373Y012146D01*
X006270Y012104D01*
X006191Y012025D01*
X006149Y011922D01*
X006149Y011338D01*
X006191Y011235D01*
X006270Y011156D01*
X006343Y011126D01*
X006343Y011058D01*
X006398Y010926D01*
X006499Y010825D01*
X006749Y010575D01*
X006882Y010520D01*
X007303Y010520D01*
X007309Y010505D01*
X007388Y010426D01*
X007491Y010383D01*
X007996Y010383D01*
X008099Y010426D01*
X008131Y010458D01*
X008187Y010443D01*
X008413Y010443D01*
X008413Y010880D01*
X008830Y010880D01*
X008830Y011125D01*
X008815Y011181D01*
X008786Y011232D01*
X008745Y011273D01*
X008715Y011290D01*
X009646Y011290D01*
X009771Y011342D01*
X011719Y013290D01*
X014688Y013290D01*
X014688Y012944D01*
X014715Y012880D01*
X014688Y012816D01*
X014688Y012490D01*
X014272Y012490D01*
X014145Y012438D01*
X014123Y012438D01*
X013961Y012371D01*
X013838Y012247D01*
X013771Y012085D01*
X013771Y012067D01*
X013718Y012014D01*
X013664Y011882D01*
X013574Y011882D01*
X013551Y011873D01*
X013528Y011882D01*
X013259Y011882D01*
X013236Y011873D01*
X013213Y011882D01*
X012944Y011882D01*
X012921Y011873D01*
X012898Y011882D01*
X012629Y011882D01*
X012606Y011873D01*
X012583Y011882D01*
X012314Y011882D01*
X012291Y011873D01*
X012268Y011882D01*
X011999Y011882D01*
X011896Y011840D01*
X011817Y011761D01*
X011775Y011658D01*
X011775Y011232D01*
X011807Y011155D01*
X011196Y011155D01*
X011071Y011103D01*
X010135Y010167D01*
X009971Y010167D01*
X009774Y010086D01*
X009623Y009934D01*
X009578Y009827D01*
X009534Y009934D01*
X009383Y010086D01*
X009185Y010167D01*
X008971Y010167D01*
X008774Y010086D01*
X008623Y009934D01*
X008541Y009737D01*
X008541Y009523D01*
X008623Y009326D01*
X008774Y009174D01*
X008935Y009107D01*
X008792Y009107D01*
X008736Y009092D01*
X008686Y009064D01*
X008645Y009023D01*
X008642Y009018D01*
X008641Y009038D02*
X008660Y009038D01*
X008672Y009277D02*
X008604Y009277D01*
X008544Y009515D02*
X008529Y009515D01*
X008548Y009754D02*
X008398Y009754D01*
X008188Y009992D02*
X008680Y009992D01*
X009476Y009992D02*
X009680Y009992D01*
X010198Y010231D02*
X007850Y010231D01*
X007345Y010469D02*
X005892Y010469D01*
X005892Y010708D02*
X006617Y010708D01*
X006390Y010946D02*
X005892Y010946D01*
X005892Y011185D02*
X006242Y011185D01*
X006149Y011423D02*
X005892Y011423D01*
X005892Y011662D02*
X006149Y011662D01*
X006149Y011900D02*
X005892Y011900D01*
X005892Y012139D02*
X006354Y012139D01*
X006572Y012377D02*
X005892Y012377D01*
X005892Y012616D02*
X006369Y012616D01*
X006149Y012854D02*
X005892Y012854D01*
X005892Y013093D02*
X006149Y013093D01*
X006149Y013331D02*
X005892Y013331D01*
X005892Y013570D02*
X006236Y013570D01*
X006516Y013808D02*
X005892Y013808D01*
X005892Y014047D02*
X006348Y014047D01*
X006171Y014285D02*
X005892Y014285D01*
X005892Y014524D02*
X006149Y014524D01*
X006149Y014762D02*
X005892Y014762D01*
X005892Y015001D02*
X006181Y015001D01*
X005892Y015239D02*
X007030Y015239D01*
X006792Y015478D02*
X005892Y015478D01*
X005892Y015716D02*
X006690Y015716D01*
X006646Y015955D02*
X005892Y015955D01*
X005892Y016193D02*
X006646Y016193D01*
X006743Y016432D02*
X005892Y016432D01*
X005892Y016670D02*
X006919Y016670D01*
X007310Y016909D02*
X005892Y016909D01*
X005892Y017147D02*
X010549Y017147D01*
X010549Y017112D02*
X010071Y017112D01*
X010071Y016747D01*
X010086Y016691D01*
X010115Y016641D01*
X010156Y016600D01*
X010206Y016571D01*
X010262Y016556D01*
X010549Y016556D01*
X010549Y017112D01*
X010549Y016909D02*
X010584Y016909D01*
X010584Y016670D02*
X010549Y016670D01*
X010098Y016670D02*
X008237Y016670D01*
X008413Y016432D02*
X012185Y016432D01*
X013093Y016432D02*
X014488Y016432D01*
X014488Y016193D02*
X008511Y016193D01*
X008511Y015955D02*
X014648Y015955D01*
X015223Y015716D02*
X008466Y015716D01*
X008365Y015478D02*
X014790Y015478D01*
X014688Y014634D02*
X014688Y014444D01*
X014715Y014380D01*
X014688Y014316D01*
X014688Y013970D01*
X011511Y013970D01*
X011386Y013918D01*
X011290Y013823D01*
X009438Y011970D01*
X008715Y011970D01*
X008745Y011987D01*
X008786Y012028D01*
X008815Y012079D01*
X008830Y012135D01*
X008830Y012380D01*
X008830Y012625D01*
X008815Y012681D01*
X008786Y012732D01*
X008745Y012773D01*
X008715Y012790D01*
X010146Y012790D01*
X010271Y012842D01*
X011594Y014165D01*
X013796Y014165D01*
X013829Y014132D01*
X013991Y014065D01*
X014166Y014065D01*
X014328Y014132D01*
X014451Y014256D01*
X014518Y014417D01*
X014518Y014464D01*
X014688Y014634D01*
X014688Y014524D02*
X014578Y014524D01*
X014688Y014285D02*
X014463Y014285D01*
X014688Y014047D02*
X011476Y014047D01*
X011276Y013808D02*
X011237Y013808D01*
X011037Y013570D02*
X010999Y013570D01*
X010799Y013331D02*
X010760Y013331D01*
X010560Y013093D02*
X010522Y013093D01*
X010322Y012854D02*
X010283Y012854D01*
X010083Y012616D02*
X008830Y012616D01*
X008830Y012380D02*
X008413Y012380D01*
X008413Y012380D01*
X008830Y012380D01*
X008830Y012377D02*
X009845Y012377D01*
X009606Y012139D02*
X008830Y012139D01*
X008813Y011185D02*
X011794Y011185D01*
X011775Y011423D02*
X009852Y011423D01*
X010091Y011662D02*
X011776Y011662D01*
X010914Y010946D02*
X008830Y010946D01*
X008830Y010880D02*
X008413Y010880D01*
X008413Y010880D01*
X008413Y010443D01*
X008639Y010443D01*
X008695Y010458D01*
X008745Y010487D01*
X008786Y010528D01*
X008815Y010579D01*
X008830Y010635D01*
X008830Y010880D01*
X008830Y010708D02*
X010675Y010708D01*
X010437Y010469D02*
X008713Y010469D01*
X008413Y010469D02*
X008413Y010469D01*
X008413Y010708D02*
X008413Y010708D01*
X008413Y010880D02*
X008413Y010880D01*
X010329Y011900D02*
X013671Y011900D01*
X013793Y012139D02*
X010568Y012139D01*
X010806Y012377D02*
X013977Y012377D01*
X014688Y012616D02*
X011045Y012616D01*
X011283Y012854D02*
X014704Y012854D01*
X014688Y013093D02*
X011522Y013093D01*
X010276Y013808D02*
X008830Y013808D01*
X008830Y013880D02*
X008830Y013635D01*
X008815Y013579D01*
X008786Y013528D01*
X008745Y013487D01*
X008715Y013470D01*
X009938Y013470D01*
X010863Y014395D01*
X008008Y014395D01*
X008008Y014372D01*
X008099Y014334D01*
X008131Y014302D01*
X008187Y014317D01*
X008413Y014317D01*
X008413Y013880D01*
X008830Y013880D01*
X008830Y014125D01*
X008815Y014181D01*
X008786Y014232D01*
X008745Y014273D01*
X008695Y014302D01*
X008639Y014317D01*
X008413Y014317D01*
X008413Y013880D01*
X008413Y013880D01*
X008830Y013880D01*
X008830Y014047D02*
X010514Y014047D01*
X010753Y014285D02*
X008723Y014285D01*
X008413Y014285D02*
X008413Y014285D01*
X008413Y014047D02*
X008413Y014047D01*
X008413Y013880D02*
X008413Y013880D01*
X008810Y013570D02*
X010037Y013570D01*
X008127Y015239D02*
X013544Y015239D01*
X015947Y015478D02*
X017350Y015478D01*
X017168Y015239D02*
X016048Y015239D01*
X016048Y015001D02*
X017168Y015001D01*
X017788Y015040D02*
X017788Y015130D01*
X017788Y015130D01*
X017788Y015480D01*
X017788Y015130D01*
X017788Y015130D01*
X017788Y015130D01*
X017788Y015040D01*
X017788Y015040D01*
X017788Y015130D02*
X017788Y015130D01*
X018408Y015130D01*
X017788Y015130D01*
X017788Y015239D02*
X017788Y015239D01*
X017788Y015478D02*
X017788Y015478D01*
X017933Y015716D02*
X018637Y015716D01*
X018738Y015478D02*
X018227Y015478D01*
X018408Y015239D02*
X018591Y015239D01*
X018582Y015001D02*
X018408Y015001D01*
X018468Y014762D02*
X018582Y014762D01*
X017143Y015716D02*
X017125Y015716D01*
X016869Y015716D02*
X016869Y015716D01*
X016869Y015713D02*
X016869Y016130D01*
X016869Y016130D01*
X016869Y015713D01*
X016869Y015955D02*
X016869Y015955D01*
X016869Y016130D02*
X016288Y016130D01*
X016432Y016130D01*
X016869Y016130D01*
X016869Y016130D01*
X016613Y015716D02*
X016544Y015716D01*
X016288Y015716D02*
X016288Y015716D01*
X016288Y015713D02*
X016288Y016130D01*
X016288Y016130D01*
X016288Y016130D01*
X016288Y015713D01*
X016288Y015955D02*
X016288Y015955D01*
X016032Y015716D02*
X016014Y015716D01*
X014409Y016670D02*
X013194Y016670D01*
X013194Y016909D02*
X014361Y016909D01*
X014434Y017147D02*
X013173Y017147D01*
X013134Y017386D02*
X014514Y017386D01*
X014717Y017624D02*
X013194Y017624D01*
X013123Y017484D02*
X013123Y017484D01*
X013194Y017863D02*
X014963Y017863D01*
X014963Y018101D02*
X013780Y018101D01*
X013771Y018092D02*
X013771Y018092D01*
X013918Y018340D02*
X014981Y018340D01*
X015023Y018252D02*
X015034Y018252D01*
X015023Y018252D01*
X015034Y018252D02*
X015034Y018252D01*
X015034Y018252D01*
X014963Y018578D02*
X013918Y018578D01*
X013918Y018817D02*
X014963Y018817D01*
X014963Y019055D02*
X013918Y019055D01*
X013918Y019294D02*
X014963Y019294D01*
X014963Y019532D02*
X013918Y019532D01*
X013918Y019771D02*
X014963Y019771D01*
X014963Y020009D02*
X013918Y020009D01*
X013238Y019219D02*
X013238Y018592D01*
X013174Y018592D01*
X013194Y018640D01*
X013194Y018888D01*
X013192Y018892D01*
X013194Y018896D01*
X013194Y019144D01*
X013174Y019192D01*
X013238Y019219D01*
X013238Y019055D02*
X013194Y019055D01*
X013194Y018817D02*
X013238Y018817D01*
X012155Y019276D02*
X012155Y019276D01*
X012155Y019276D01*
X012144Y019276D01*
X012144Y019287D01*
X012127Y019304D01*
X012084Y019407D01*
X012084Y019447D01*
X010127Y019447D01*
X009889Y019210D01*
X009908Y019190D01*
X009994Y018984D01*
X009994Y018945D01*
X010103Y018990D01*
X010212Y018990D01*
X010250Y019084D01*
X010329Y019163D01*
X010432Y019205D01*
X011055Y019205D01*
X011078Y019196D01*
X011101Y019205D01*
X011725Y019205D01*
X011828Y019163D01*
X011886Y019104D01*
X012084Y019104D01*
X012084Y019144D01*
X012127Y019247D01*
X012144Y019264D01*
X012144Y019276D01*
X012155Y019276D01*
X012138Y019294D02*
X009973Y019294D01*
X009964Y019055D02*
X010238Y019055D01*
X010307Y018101D02*
X010155Y018101D01*
X010307Y017880D02*
X010744Y017880D01*
X010307Y017880D01*
X010307Y017863D02*
X009994Y017863D01*
X009931Y017624D02*
X010119Y017624D01*
X010071Y017386D02*
X009686Y017386D01*
X009179Y017386D02*
X005892Y017386D01*
X005892Y017624D02*
X008218Y017624D01*
X008144Y017863D02*
X005892Y017863D01*
X005892Y018101D02*
X008191Y018101D01*
X008428Y018340D02*
X005892Y018340D01*
X005892Y018578D02*
X008160Y018578D01*
X008084Y018817D02*
X005892Y018817D01*
X005892Y019055D02*
X008114Y019055D01*
X008273Y019294D02*
X005892Y019294D01*
X005892Y019532D02*
X008500Y019532D01*
X008738Y019771D02*
X005892Y019771D01*
X005892Y020009D02*
X007000Y020009D01*
X006777Y020248D02*
X005892Y020248D01*
X005892Y020486D02*
X006678Y020486D01*
X006646Y020725D02*
X005892Y020725D01*
X005892Y020963D02*
X006657Y020963D01*
X006756Y021202D02*
X005892Y021202D01*
X005892Y021440D02*
X006949Y021440D01*
X007382Y021679D02*
X005892Y021679D01*
X005892Y021917D02*
X008113Y021917D01*
X008113Y021679D02*
X007774Y021679D01*
X007599Y022156D02*
X007558Y022156D01*
X006772Y022156D02*
X005892Y022156D01*
X005892Y022394D02*
X006649Y022394D01*
X006649Y022633D02*
X005892Y022633D01*
X005892Y022871D02*
X006649Y022871D01*
X006767Y023110D02*
X005892Y023110D01*
X005892Y023348D02*
X006767Y023348D01*
X006767Y023587D02*
X005892Y023587D01*
X005892Y023825D02*
X006654Y023825D01*
X006649Y024064D02*
X005892Y024064D01*
X005892Y024302D02*
X006649Y024302D01*
X006707Y024541D02*
X005892Y024541D01*
X005892Y024779D02*
X006767Y024779D01*
X006767Y025018D02*
X005892Y025018D01*
X005892Y025256D02*
X006810Y025256D01*
X005892Y025495D02*
X008498Y025495D01*
X008498Y025733D02*
X005892Y025733D01*
X005892Y025972D02*
X008498Y025972D01*
X007913Y025317D02*
X007913Y024880D01*
X008330Y024880D01*
X007913Y024880D01*
X007913Y024880D01*
X007913Y024880D01*
X007913Y025317D01*
X007913Y025256D02*
X007913Y025256D01*
X007913Y025018D02*
X007913Y025018D01*
X008330Y025018D02*
X008646Y025018D01*
X008512Y024779D02*
X008330Y024779D01*
X008450Y024541D02*
X008498Y024541D01*
X008506Y025256D02*
X008261Y025256D01*
X009658Y025972D02*
X011487Y025972D01*
X011600Y025859D02*
X011935Y025720D01*
X012297Y025720D01*
X012631Y025859D01*
X012887Y026115D01*
X013026Y026449D01*
X013026Y026811D01*
X012887Y027145D01*
X012631Y027401D01*
X012297Y027540D01*
X011935Y027540D01*
X011600Y027401D01*
X011344Y027145D01*
X011206Y026811D01*
X011206Y026449D01*
X011344Y026115D01*
X011600Y025859D01*
X011904Y025733D02*
X009831Y025733D01*
X010070Y025495D02*
X018277Y025495D01*
X018277Y025733D02*
X012328Y025733D01*
X012744Y025972D02*
X018277Y025972D01*
X018288Y026210D02*
X012927Y026210D01*
X013025Y026449D02*
X018409Y026449D01*
X018648Y026687D02*
X013026Y026687D01*
X012978Y026926D02*
X018886Y026926D01*
X019149Y027164D02*
X012869Y027164D01*
X012628Y027403D02*
X030028Y027403D01*
X030026Y027401D02*
X029770Y027145D01*
X029631Y026811D01*
X029631Y026449D01*
X029770Y026115D01*
X030026Y025859D01*
X030360Y025720D01*
X030722Y025720D01*
X031056Y025859D01*
X031312Y026115D01*
X031451Y026449D01*
X031451Y026811D01*
X031312Y027145D01*
X031056Y027401D01*
X030722Y027540D01*
X030360Y027540D01*
X030026Y027401D01*
X029788Y027164D02*
X022133Y027164D01*
X022395Y026926D02*
X029678Y026926D01*
X029631Y026687D02*
X022634Y026687D01*
X022778Y026449D02*
X029631Y026449D01*
X029730Y026210D02*
X022804Y026210D01*
X022804Y025972D02*
X027962Y025972D01*
X027731Y025733D02*
X022804Y025733D01*
X022804Y025495D02*
X027718Y025495D01*
X026377Y025256D02*
X026280Y025256D01*
X026284Y025018D02*
X026373Y025018D01*
X026373Y024779D02*
X026284Y024779D01*
X026284Y024541D02*
X026373Y024541D01*
X026373Y024302D02*
X026284Y024302D01*
X024720Y024302D02*
X024570Y024302D01*
X024570Y024541D02*
X024720Y024541D01*
X024720Y024779D02*
X024570Y024779D01*
X024570Y024736D02*
X024570Y025220D01*
X024555Y025276D01*
X024526Y025326D01*
X024485Y025367D01*
X024435Y025396D01*
X024379Y025411D01*
X023895Y025411D01*
X023895Y024736D01*
X024570Y024736D01*
X024570Y025018D02*
X024720Y025018D01*
X024723Y025256D02*
X024560Y025256D01*
X023895Y025256D02*
X023801Y025256D01*
X023801Y025411D02*
X023317Y025411D01*
X023261Y025396D01*
X023211Y025367D01*
X023170Y025326D01*
X023141Y025276D01*
X023126Y025220D01*
X023126Y024736D01*
X023801Y024736D01*
X023801Y025411D01*
X023801Y025018D02*
X023895Y025018D01*
X023895Y024779D02*
X023801Y024779D01*
X023126Y024779D02*
X022976Y024779D01*
X022976Y024541D02*
X023126Y024541D01*
X023126Y024302D02*
X022976Y024302D01*
X022976Y025018D02*
X023126Y025018D01*
X023136Y025256D02*
X022973Y025256D01*
X021584Y025495D02*
X019497Y025495D01*
X019497Y025733D02*
X021584Y025733D01*
X021584Y025972D02*
X019658Y025972D01*
X019954Y025396D02*
X019904Y025367D01*
X019863Y025326D01*
X019834Y025276D01*
X019819Y025220D01*
X019819Y024736D01*
X020494Y024736D01*
X020494Y024642D01*
X020588Y024642D01*
X020588Y024736D01*
X021263Y024736D01*
X021263Y025220D01*
X021248Y025276D01*
X021219Y025326D01*
X021178Y025367D01*
X021128Y025396D01*
X021072Y025411D01*
X020588Y025411D01*
X020588Y024736D01*
X020494Y024736D01*
X020494Y025411D01*
X020010Y025411D01*
X019954Y025396D01*
X019829Y025256D02*
X019666Y025256D01*
X019669Y025018D02*
X019819Y025018D01*
X019819Y024779D02*
X019669Y024779D01*
X019819Y024642D02*
X019819Y024158D01*
X019834Y024102D01*
X019863Y024052D01*
X019904Y024011D01*
X019954Y023982D01*
X020010Y023967D01*
X020494Y023967D01*
X020494Y024642D01*
X019819Y024642D01*
X019819Y024541D02*
X019669Y024541D01*
X019669Y024302D02*
X019819Y024302D01*
X019856Y024064D02*
X019641Y024064D01*
X020494Y024064D02*
X020588Y024064D01*
X020588Y023967D02*
X021072Y023967D01*
X021128Y023982D01*
X021178Y024011D01*
X021219Y024052D01*
X021248Y024102D01*
X021263Y024158D01*
X021263Y024642D01*
X020588Y024642D01*
X020588Y023967D01*
X020588Y024302D02*
X020494Y024302D01*
X020494Y024541D02*
X020588Y024541D01*
X020588Y024779D02*
X020494Y024779D01*
X020494Y025018D02*
X020588Y025018D01*
X020588Y025256D02*
X020494Y025256D01*
X021253Y025256D02*
X021416Y025256D01*
X021413Y025018D02*
X021263Y025018D01*
X021263Y024779D02*
X021413Y024779D01*
X021413Y024541D02*
X021263Y024541D01*
X021263Y024302D02*
X021413Y024302D01*
X021441Y024064D02*
X021226Y024064D01*
X021753Y023825D02*
X014537Y023825D01*
X014537Y023587D02*
X021943Y023587D01*
X022182Y023348D02*
X014537Y023348D01*
X014697Y023110D02*
X014810Y023110D01*
X014798Y023081D02*
X014841Y023184D01*
X014920Y023263D01*
X015023Y023306D01*
X016138Y023306D01*
X016241Y023263D01*
X016320Y023184D01*
X016362Y023081D01*
X016362Y021966D01*
X016320Y021863D01*
X016241Y021784D01*
X016138Y021742D01*
X015023Y021742D01*
X014920Y021784D01*
X014841Y021863D01*
X014798Y021966D01*
X014798Y023081D01*
X014798Y022871D02*
X014709Y022871D01*
X014709Y022633D02*
X014798Y022633D01*
X014798Y022394D02*
X014709Y022394D01*
X014709Y022156D02*
X014798Y022156D01*
X014819Y021917D02*
X014688Y021917D01*
X016342Y021917D02*
X016538Y021917D01*
X016527Y021937D02*
X016556Y021887D01*
X016597Y021846D01*
X016647Y021817D01*
X016703Y021802D01*
X017187Y021802D01*
X017187Y022476D01*
X017281Y022476D01*
X017281Y021802D01*
X017765Y021802D01*
X017821Y021817D01*
X017871Y021846D01*
X017912Y021887D01*
X017941Y021937D01*
X017956Y021993D01*
X017956Y022476D01*
X017281Y022476D01*
X017281Y022571D01*
X017187Y022571D01*
X017187Y023246D01*
X016703Y023246D01*
X016647Y023231D01*
X016597Y023202D01*
X016556Y023161D01*
X016527Y023111D01*
X016512Y023055D01*
X016512Y022571D01*
X017187Y022571D01*
X017187Y022476D01*
X016512Y022476D01*
X016512Y021993D01*
X016527Y021937D01*
X016512Y022156D02*
X016362Y022156D01*
X016362Y022394D02*
X016512Y022394D01*
X016512Y022633D02*
X016362Y022633D01*
X016362Y022871D02*
X016512Y022871D01*
X016527Y023110D02*
X016351Y023110D01*
X017187Y023110D02*
X017281Y023110D01*
X017281Y023246D02*
X017281Y022571D01*
X017956Y022571D01*
X017956Y023055D01*
X017941Y023111D01*
X017912Y023161D01*
X017871Y023202D01*
X017821Y023231D01*
X017765Y023246D01*
X017281Y023246D01*
X017281Y022871D02*
X017187Y022871D01*
X017187Y022633D02*
X017281Y022633D01*
X017281Y022394D02*
X017187Y022394D01*
X017187Y022156D02*
X017281Y022156D01*
X017281Y021917D02*
X017187Y021917D01*
X017929Y021917D02*
X018126Y021917D01*
X018105Y021966D02*
X018148Y021863D01*
X018227Y021784D01*
X018330Y021742D01*
X019445Y021742D01*
X019548Y021784D01*
X019627Y021863D01*
X019669Y021966D01*
X019669Y023081D01*
X019627Y023184D01*
X019548Y023263D01*
X019445Y023306D01*
X018330Y023306D01*
X018227Y023263D01*
X018148Y023184D01*
X018105Y023081D01*
X018105Y021966D01*
X018105Y022156D02*
X017956Y022156D01*
X017956Y022394D02*
X018105Y022394D01*
X018105Y022633D02*
X017956Y022633D01*
X017956Y022871D02*
X018105Y022871D01*
X018117Y023110D02*
X017941Y023110D01*
X017765Y023967D02*
X017281Y023967D01*
X017281Y024642D01*
X017281Y024736D01*
X017956Y024736D01*
X017956Y025220D01*
X017941Y025276D01*
X017912Y025326D01*
X017871Y025367D01*
X017821Y025396D01*
X017765Y025411D01*
X017281Y025411D01*
X017281Y024736D01*
X017187Y024736D01*
X017187Y024642D01*
X017281Y024642D01*
X017956Y024642D01*
X017956Y024158D01*
X017941Y024102D01*
X017912Y024052D01*
X017871Y024011D01*
X017821Y023982D01*
X017765Y023967D01*
X017919Y024064D02*
X018134Y024064D01*
X018105Y024302D02*
X017956Y024302D01*
X017956Y024541D02*
X018105Y024541D01*
X018105Y024779D02*
X017956Y024779D01*
X017956Y025018D02*
X018105Y025018D01*
X018109Y025256D02*
X017946Y025256D01*
X017281Y025256D02*
X017187Y025256D01*
X017187Y025411D02*
X016703Y025411D01*
X016647Y025396D01*
X016597Y025367D01*
X016556Y025326D01*
X016527Y025276D01*
X016512Y025220D01*
X016512Y024736D01*
X017187Y024736D01*
X017187Y025411D01*
X017187Y025018D02*
X017281Y025018D01*
X017281Y024779D02*
X017187Y024779D01*
X017187Y024642D02*
X016512Y024642D01*
X016512Y024158D01*
X016527Y024102D01*
X016556Y024052D01*
X016597Y024011D01*
X016647Y023982D01*
X016703Y023967D01*
X017187Y023967D01*
X017187Y024642D01*
X017187Y024541D02*
X017281Y024541D01*
X017281Y024302D02*
X017187Y024302D01*
X017187Y024064D02*
X017281Y024064D01*
X016549Y024064D02*
X016334Y024064D01*
X016362Y024302D02*
X016512Y024302D01*
X016512Y024541D02*
X016362Y024541D01*
X016362Y024779D02*
X016512Y024779D01*
X016512Y025018D02*
X016362Y025018D01*
X016358Y025256D02*
X016522Y025256D01*
X014826Y024064D02*
X014681Y024064D01*
X013317Y023825D02*
X011739Y023825D01*
X011501Y024064D02*
X013173Y024064D01*
X013145Y024302D02*
X011262Y024302D01*
X011024Y024541D02*
X013145Y024541D01*
X013145Y024779D02*
X010785Y024779D01*
X010547Y025018D02*
X013145Y025018D01*
X013149Y025256D02*
X010308Y025256D01*
X010612Y023991D02*
X011633Y022970D01*
X009559Y022970D01*
X009407Y023122D01*
X009307Y023163D01*
X009351Y023185D01*
X009417Y023233D01*
X009475Y023291D01*
X009523Y023357D01*
X009560Y023430D01*
X009586Y023508D01*
X009598Y023589D01*
X009598Y023630D01*
X009598Y023671D01*
X009586Y023752D01*
X009573Y023790D01*
X009688Y023790D01*
X009736Y023742D01*
X009736Y023662D01*
X009807Y023490D01*
X009939Y023359D01*
X010110Y023288D01*
X010296Y023288D01*
X010468Y023359D01*
X010600Y023490D01*
X010671Y023662D01*
X010671Y023848D01*
X010612Y023991D01*
X010671Y023825D02*
X010777Y023825D01*
X010640Y023587D02*
X011016Y023587D01*
X011254Y023348D02*
X010442Y023348D01*
X009964Y023348D02*
X009516Y023348D01*
X009598Y023587D02*
X009767Y023587D01*
X009598Y023630D02*
X009078Y023630D01*
X008558Y023630D01*
X008558Y023589D01*
X008571Y023508D01*
X008596Y023430D01*
X008634Y023357D01*
X008682Y023291D01*
X008740Y023233D01*
X008806Y023185D01*
X008849Y023163D01*
X008750Y023122D01*
X008587Y022959D01*
X008519Y022795D01*
X008508Y022806D01*
X008508Y022922D01*
X008465Y023025D01*
X008387Y023104D01*
X008328Y023128D01*
X008330Y023135D01*
X008330Y023380D01*
X008330Y023625D01*
X008328Y023632D01*
X008387Y023656D01*
X008465Y023735D01*
X008488Y023790D01*
X008584Y023790D01*
X008571Y023752D01*
X008558Y023671D01*
X008558Y023630D01*
X009078Y023630D01*
X009078Y023630D01*
X009598Y023630D01*
X009078Y023630D02*
X009078Y023630D01*
X008640Y023348D02*
X008330Y023348D01*
X008330Y023380D02*
X007913Y023380D01*
X008330Y023380D01*
X008330Y023587D02*
X008559Y023587D01*
X007913Y023380D02*
X007913Y023380D01*
X008372Y023110D02*
X008738Y023110D01*
X008550Y022871D02*
X008508Y022871D01*
X009419Y023110D02*
X011493Y023110D01*
X012216Y023348D02*
X013317Y023348D01*
X013317Y023587D02*
X011978Y023587D01*
X012455Y023110D02*
X013156Y023110D01*
X013145Y022871D02*
X012693Y022871D01*
X012932Y022633D02*
X013145Y022633D01*
X010744Y020505D02*
X010307Y020505D01*
X010744Y020505D01*
X010744Y020505D01*
X010307Y020486D02*
X008479Y020486D01*
X008511Y020725D02*
X010307Y020725D01*
X009215Y020248D02*
X008380Y020248D01*
X008156Y020009D02*
X008977Y020009D01*
X008540Y020937D02*
X008540Y020937D01*
X008515Y020963D02*
X008500Y020963D01*
X008645Y017863D02*
X008645Y017863D01*
X008645Y017624D02*
X008645Y017624D01*
X007846Y016909D02*
X010071Y016909D01*
X011035Y016670D02*
X011055Y016670D01*
X010744Y017880D02*
X010744Y017880D01*
X014769Y017677D02*
X014769Y017677D01*
X018890Y020725D02*
X029218Y020725D01*
X029218Y020963D02*
X018890Y020963D01*
X018869Y021202D02*
X029218Y021202D01*
X029218Y021440D02*
X018743Y021440D01*
X018539Y021679D02*
X029218Y021679D01*
X028161Y020486D02*
X026496Y020486D01*
X026624Y020248D02*
X028033Y020248D01*
X028034Y020009D02*
X026623Y020009D01*
X026493Y019771D02*
X028164Y019771D01*
X028207Y019532D02*
X026450Y019532D01*
X026605Y019294D02*
X028052Y019294D01*
X028028Y019055D02*
X026628Y019055D01*
X027123Y018817D02*
X028118Y018817D01*
X028253Y018578D02*
X027361Y018578D01*
X027600Y018340D02*
X028071Y018340D01*
X028028Y018101D02*
X027838Y018101D01*
X028077Y017863D02*
X028095Y017863D01*
X026738Y015955D02*
X026600Y015955D01*
X026738Y015716D02*
X026438Y015716D01*
X026505Y015478D02*
X026738Y015478D01*
X026738Y015239D02*
X026628Y015239D01*
X026619Y015001D02*
X026738Y015001D01*
X026738Y014762D02*
X026484Y014762D01*
X026459Y014524D02*
X026738Y014524D01*
X026738Y014285D02*
X026609Y014285D01*
X026628Y014047D02*
X026738Y014047D01*
X026738Y013808D02*
X026530Y013808D01*
X026413Y013570D02*
X026738Y013570D01*
X026738Y013331D02*
X026590Y013331D01*
X026628Y013093D02*
X026738Y013093D01*
X026738Y012854D02*
X026559Y012854D01*
X026738Y012616D02*
X026257Y012616D01*
X026501Y012377D02*
X026738Y012377D01*
X026738Y012139D02*
X026568Y012139D01*
X026568Y012130D02*
X025828Y012130D01*
X025828Y012130D01*
X026568Y012130D01*
X026510Y011900D02*
X026738Y011900D01*
X026738Y011662D02*
X026199Y011662D01*
X025828Y011662D02*
X025828Y011662D01*
X025828Y011900D02*
X025828Y011900D01*
X025828Y012139D02*
X025828Y012139D01*
X025828Y012377D02*
X025828Y012377D01*
X027793Y011434D02*
X029121Y010107D01*
X029116Y010107D01*
X029078Y010107D01*
X029041Y010107D01*
X028967Y010096D01*
X028918Y010080D01*
X028918Y010198D01*
X028867Y010323D01*
X028771Y010418D01*
X027793Y011396D01*
X027793Y011434D01*
X027793Y011423D02*
X027805Y011423D01*
X028005Y011185D02*
X028043Y011185D01*
X028243Y010946D02*
X028282Y010946D01*
X028482Y010708D02*
X028520Y010708D01*
X028720Y010469D02*
X028759Y010469D01*
X028905Y010231D02*
X028997Y010231D01*
X029078Y010107D02*
X029078Y009630D01*
X029078Y009630D01*
X029078Y010107D01*
X029078Y009992D02*
X029078Y009992D01*
X029078Y009754D02*
X029078Y009754D01*
X030078Y009754D02*
X030078Y009754D01*
X030078Y009630D02*
X030078Y010107D01*
X030078Y009630D01*
X030078Y009630D01*
X030556Y009630D01*
X030078Y009630D01*
X030078Y009630D01*
X030078Y009992D02*
X030078Y009992D01*
X030392Y009992D02*
X030765Y009992D01*
X030616Y009754D02*
X030540Y009754D01*
X030543Y009515D02*
X030614Y009515D01*
X030757Y009277D02*
X030400Y009277D01*
X030430Y009038D02*
X030828Y009038D01*
X031078Y009038D02*
X031078Y009038D01*
X031262Y009072D02*
X031329Y009038D01*
X031525Y008800D02*
X031567Y008800D01*
X031626Y008323D02*
X031445Y008323D01*
X031078Y008323D02*
X031078Y008323D01*
X031078Y008561D02*
X031078Y008561D01*
X031078Y008800D02*
X031078Y008800D01*
X030631Y008800D02*
X030590Y008800D01*
X030531Y008323D02*
X030712Y008323D01*
X031078Y009277D02*
X031078Y009277D01*
X031078Y009515D02*
X031078Y009515D01*
X031078Y009630D02*
X031078Y009630D01*
X031556Y009630D01*
X031078Y009630D01*
X031078Y009754D02*
X031078Y009754D01*
X031078Y009992D02*
X031078Y009992D01*
X031392Y009992D02*
X031627Y009992D01*
X031601Y009754D02*
X031540Y009754D01*
X031543Y009515D02*
X031601Y009515D01*
X032078Y009754D02*
X032078Y009754D01*
X032078Y009992D02*
X032078Y009992D01*
X029626Y008323D02*
X029531Y008323D01*
X028626Y008323D02*
X028616Y008323D01*
X027541Y008323D02*
X025031Y008323D01*
X025034Y008326D02*
X025116Y008523D01*
X025116Y008737D01*
X025034Y008934D01*
X024883Y009086D01*
X024776Y009130D01*
X024883Y009174D01*
X025034Y009326D01*
X025116Y009523D01*
X025116Y009737D01*
X025034Y009934D01*
X024883Y010086D01*
X024685Y010167D01*
X024471Y010167D01*
X024274Y010086D01*
X024123Y009934D01*
X024078Y009827D01*
X024034Y009934D01*
X023883Y010086D01*
X023685Y010167D01*
X023471Y010167D01*
X023274Y010086D01*
X023123Y009934D01*
X023044Y009743D01*
X023021Y009813D01*
X022987Y009880D01*
X022943Y009941D01*
X022889Y009994D01*
X022829Y010038D01*
X022762Y010072D01*
X022690Y010096D01*
X022616Y010107D01*
X022578Y010107D01*
X022578Y009630D01*
X022578Y009630D01*
X022578Y009153D01*
X022616Y009153D01*
X022690Y009164D01*
X022762Y009188D01*
X022829Y009222D01*
X022889Y009266D01*
X022943Y009319D01*
X022987Y009380D01*
X023021Y009447D01*
X023044Y009517D01*
X023123Y009326D01*
X023274Y009174D01*
X023381Y009130D01*
X023274Y009086D01*
X023123Y008934D01*
X023056Y008773D01*
X023056Y008916D01*
X023041Y008972D01*
X023012Y009023D01*
X022971Y009064D01*
X022921Y009092D01*
X022865Y009107D01*
X022578Y009107D01*
X022578Y008630D01*
X022578Y008630D01*
X022578Y008153D01*
X022865Y008153D01*
X022921Y008168D01*
X022971Y008196D01*
X023012Y008237D01*
X023041Y008288D01*
X023056Y008344D01*
X023056Y008487D01*
X023123Y008326D01*
X023274Y008174D01*
X023471Y008093D01*
X023685Y008093D01*
X023883Y008174D01*
X024034Y008326D01*
X024078Y008433D01*
X024123Y008326D01*
X024274Y008174D01*
X024471Y008093D01*
X024685Y008093D01*
X024883Y008174D01*
X025034Y008326D01*
X025116Y008561D02*
X027541Y008561D01*
X027428Y008800D02*
X025090Y008800D01*
X024930Y009038D02*
X027248Y009038D01*
X027238Y009277D02*
X024985Y009277D01*
X025112Y009515D02*
X027238Y009515D01*
X027238Y009754D02*
X025109Y009754D01*
X024976Y009992D02*
X027236Y009992D01*
X027771Y010418D02*
X027867Y010323D01*
X027918Y010198D01*
X027918Y010080D01*
X027967Y010096D01*
X028041Y010107D01*
X028078Y010107D01*
X028078Y009630D01*
X028078Y009630D01*
X028078Y010107D01*
X028116Y010107D01*
X028121Y010107D01*
X027418Y010809D01*
X027418Y010771D01*
X027771Y010418D01*
X027759Y010469D02*
X027720Y010469D01*
X027905Y010231D02*
X027997Y010231D01*
X028078Y009992D02*
X028078Y009992D01*
X028078Y009754D02*
X028078Y009754D01*
X027520Y010708D02*
X027482Y010708D01*
X024180Y009992D02*
X023976Y009992D01*
X023180Y009992D02*
X022892Y009992D01*
X023040Y009754D02*
X023048Y009754D01*
X023043Y009515D02*
X023044Y009515D01*
X023172Y009277D02*
X022900Y009277D01*
X022996Y009038D02*
X023226Y009038D01*
X023067Y008800D02*
X023056Y008800D01*
X023050Y008323D02*
X023126Y008323D01*
X022578Y008323D02*
X022578Y008323D01*
X022578Y008561D02*
X022578Y008561D01*
X022578Y008800D02*
X022578Y008800D01*
X022578Y009038D02*
X022578Y009038D01*
X022578Y009277D02*
X022578Y009277D01*
X022578Y009515D02*
X022578Y009515D01*
X022578Y009754D02*
X022578Y009754D01*
X022578Y009992D02*
X022578Y009992D01*
X024031Y008323D02*
X024126Y008323D01*
X017578Y008323D02*
X017578Y008323D01*
X017578Y008561D02*
X017578Y008561D01*
X017578Y008630D02*
X017578Y008630D01*
X017101Y008561D02*
X016551Y008561D01*
X016556Y008630D02*
X016078Y008630D01*
X016556Y008630D01*
X016525Y008800D02*
X017101Y008800D01*
X017107Y008323D02*
X016445Y008323D01*
X016078Y008323D02*
X016078Y008323D01*
X016078Y008561D02*
X016078Y008561D01*
X016078Y008630D02*
X016078Y008630D01*
X014078Y008630D02*
X014078Y008630D01*
X014078Y008561D02*
X014078Y008561D01*
X014078Y008323D02*
X014078Y008323D01*
X012078Y008323D02*
X012078Y008323D01*
X012078Y008561D02*
X012078Y008561D01*
X012078Y008630D02*
X012078Y008630D01*
X022075Y017863D02*
X022167Y017863D01*
X022572Y017863D02*
X022608Y017863D01*
X022608Y018101D02*
X022572Y018101D01*
X022572Y018340D02*
X022608Y018340D01*
X023086Y018340D02*
X023138Y018340D01*
X023086Y018101D02*
X023377Y018101D01*
X023615Y017863D02*
X023014Y017863D01*
X024384Y019055D02*
X025028Y019055D01*
X025052Y019294D02*
X024146Y019294D01*
X023907Y019532D02*
X025207Y019532D01*
X025164Y019771D02*
X023669Y019771D01*
X022850Y020009D02*
X025034Y020009D01*
X025033Y020248D02*
X022850Y020248D01*
X022850Y020130D02*
X022413Y020130D01*
X022413Y020130D01*
X022850Y020130D01*
X022781Y020486D02*
X025161Y020486D01*
X023801Y021802D02*
X023801Y022476D01*
X023126Y022476D01*
X023126Y021993D01*
X023141Y021937D01*
X023170Y021887D01*
X023211Y021846D01*
X023261Y021817D01*
X023317Y021802D01*
X023801Y021802D01*
X023801Y021917D02*
X023895Y021917D01*
X023895Y022156D02*
X023801Y022156D01*
X023801Y022394D02*
X023895Y022394D01*
X023126Y022394D02*
X022916Y022394D01*
X022916Y022476D02*
X022242Y022476D01*
X022242Y021802D01*
X022725Y021802D01*
X022781Y021817D01*
X022832Y021846D01*
X022873Y021887D01*
X022901Y021937D01*
X022916Y021993D01*
X022916Y022476D01*
X022916Y022633D02*
X023126Y022633D01*
X023126Y022871D02*
X022916Y022871D01*
X022902Y023110D02*
X023141Y023110D01*
X022242Y023110D02*
X022147Y023110D01*
X022147Y023246D02*
X021664Y023246D01*
X021608Y023231D01*
X021557Y023202D01*
X021516Y023161D01*
X021488Y023111D01*
X021473Y023055D01*
X021473Y022571D01*
X022147Y022571D01*
X022147Y022476D01*
X022242Y022476D01*
X022242Y022571D01*
X022147Y022571D01*
X022147Y023246D01*
X021487Y023110D02*
X021248Y023110D01*
X021248Y023111D02*
X021219Y023161D01*
X021178Y023202D01*
X021128Y023231D01*
X021072Y023246D01*
X020588Y023246D01*
X020588Y022571D01*
X020494Y022571D01*
X020494Y023246D01*
X020010Y023246D01*
X019954Y023231D01*
X019904Y023202D01*
X019863Y023161D01*
X019834Y023111D01*
X019819Y023055D01*
X019819Y022571D01*
X020494Y022571D01*
X020494Y022476D01*
X020588Y022476D01*
X020588Y021802D01*
X021072Y021802D01*
X021128Y021817D01*
X021178Y021846D01*
X021219Y021887D01*
X021248Y021937D01*
X021263Y021993D01*
X021263Y022476D01*
X020588Y022476D01*
X020588Y022571D01*
X021263Y022571D01*
X021263Y023055D01*
X021248Y023111D01*
X021263Y022871D02*
X021473Y022871D01*
X021473Y022633D02*
X021263Y022633D01*
X021263Y022394D02*
X021473Y022394D01*
X021473Y022476D02*
X021473Y021993D01*
X021488Y021937D01*
X021516Y021887D01*
X021557Y021846D01*
X021608Y021817D01*
X021664Y021802D01*
X022147Y021802D01*
X022147Y022476D01*
X021473Y022476D01*
X021473Y022156D02*
X021263Y022156D01*
X021236Y021917D02*
X021499Y021917D01*
X022147Y021917D02*
X022242Y021917D01*
X022242Y022156D02*
X022147Y022156D01*
X022147Y022394D02*
X022242Y022394D01*
X022242Y022633D02*
X022147Y022633D01*
X022147Y022871D02*
X022242Y022871D01*
X022916Y022156D02*
X023126Y022156D01*
X023152Y021917D02*
X022890Y021917D01*
X024544Y021917D02*
X024740Y021917D01*
X024720Y022156D02*
X024570Y022156D01*
X024570Y022394D02*
X024720Y022394D01*
X024720Y022633D02*
X024570Y022633D01*
X024570Y022871D02*
X024720Y022871D01*
X024731Y023110D02*
X024555Y023110D01*
X026272Y023110D02*
X026385Y023110D01*
X026373Y022871D02*
X026284Y022871D01*
X026284Y022633D02*
X026373Y022633D01*
X026373Y022394D02*
X026284Y022394D01*
X026284Y022156D02*
X026373Y022156D01*
X026393Y021917D02*
X026263Y021917D01*
X022413Y020547D02*
X022413Y020130D01*
X022413Y020130D01*
X022413Y020547D01*
X022413Y020486D02*
X022413Y020486D01*
X022413Y020248D02*
X022413Y020248D01*
X021290Y020486D02*
X019068Y020486D01*
X019904Y021846D02*
X019954Y021817D01*
X020010Y021802D01*
X020494Y021802D01*
X020494Y022476D01*
X019819Y022476D01*
X019819Y021993D01*
X019834Y021937D01*
X019863Y021887D01*
X019904Y021846D01*
X019845Y021917D02*
X019649Y021917D01*
X019669Y022156D02*
X019819Y022156D01*
X019819Y022394D02*
X019669Y022394D01*
X019669Y022633D02*
X019819Y022633D01*
X019819Y022871D02*
X019669Y022871D01*
X019658Y023110D02*
X019834Y023110D01*
X020494Y023110D02*
X020588Y023110D01*
X020588Y022871D02*
X020494Y022871D01*
X020494Y022633D02*
X020588Y022633D01*
X020588Y022394D02*
X020494Y022394D01*
X020494Y022156D02*
X020588Y022156D01*
X020588Y021917D02*
X020494Y021917D01*
X011305Y026210D02*
X005892Y026210D01*
X007658Y026449D02*
X011206Y026449D01*
X011206Y026687D02*
X008094Y026687D01*
X008332Y026926D02*
X011253Y026926D01*
X011363Y027164D02*
X008485Y027164D01*
X008586Y027403D02*
X011603Y027403D01*
X008638Y027641D02*
X033596Y027641D01*
X033596Y027403D02*
X031054Y027403D01*
X031294Y027164D02*
X033596Y027164D01*
X033596Y026926D02*
X031403Y026926D01*
X031451Y026687D02*
X033649Y026687D01*
X033596Y026815D02*
X033710Y026540D01*
X033920Y026329D01*
X034195Y026215D01*
X034493Y026215D01*
X034768Y026329D01*
X034979Y026540D01*
X035093Y026815D01*
X035093Y028050D01*
X034979Y028325D01*
X034768Y028535D01*
X034493Y028649D01*
X034195Y028649D01*
X033920Y028535D01*
X033710Y028325D01*
X033596Y028050D01*
X033596Y026815D01*
X033801Y026449D02*
X031451Y026449D01*
X031352Y026210D02*
X035024Y026210D01*
X035093Y026449D02*
X034887Y026449D01*
X035040Y026687D02*
X035093Y026687D01*
X035093Y026926D02*
X035093Y026926D01*
X035093Y027164D02*
X035093Y027164D01*
X035093Y027403D02*
X035093Y027403D01*
X035093Y027641D02*
X035093Y027641D01*
X035093Y027880D02*
X035093Y027880D01*
X035093Y028118D02*
X035064Y028118D01*
X035171Y028357D02*
X034947Y028357D01*
X034624Y028595D02*
X035409Y028595D01*
X035648Y028834D02*
X008648Y028834D01*
X008648Y029072D02*
X038009Y029072D01*
X038009Y028834D02*
X037384Y028834D01*
X037622Y028595D02*
X038009Y028595D01*
X038009Y028357D02*
X037861Y028357D01*
X037938Y028118D02*
X038009Y028118D01*
X038009Y027880D02*
X037938Y027880D01*
X037938Y027641D02*
X038019Y027641D01*
X038071Y027403D02*
X037938Y027403D01*
X037938Y027164D02*
X038172Y027164D01*
X038325Y026926D02*
X037938Y026926D01*
X037938Y026687D02*
X038562Y026687D01*
X038998Y026449D02*
X037938Y026449D01*
X037938Y026210D02*
X040765Y026210D01*
X040765Y025972D02*
X037938Y025972D01*
X037938Y025733D02*
X040765Y025733D01*
X040765Y025495D02*
X037938Y025495D01*
X037938Y025256D02*
X040765Y025256D01*
X040765Y025018D02*
X037938Y025018D01*
X037938Y024779D02*
X040765Y024779D01*
X040765Y024541D02*
X037938Y024541D01*
X037938Y024302D02*
X040765Y024302D01*
X040765Y024064D02*
X040236Y024064D01*
X040298Y024038D02*
X040052Y024140D01*
X039005Y024140D01*
X038759Y024038D01*
X038570Y023850D01*
X038468Y023603D01*
X038468Y023337D01*
X038570Y023090D01*
X038759Y022902D01*
X039005Y022800D01*
X040052Y022800D01*
X040298Y022902D01*
X040486Y023090D01*
X040588Y023337D01*
X040588Y023603D01*
X040486Y023850D01*
X040298Y024038D01*
X040496Y023825D02*
X040765Y023825D01*
X040765Y023587D02*
X040588Y023587D01*
X040588Y023348D02*
X040765Y023348D01*
X040765Y023110D02*
X040494Y023110D01*
X040223Y022871D02*
X040765Y022871D01*
X040765Y022633D02*
X037590Y022633D01*
X037573Y022394D02*
X040765Y022394D01*
X040765Y022156D02*
X037812Y022156D01*
X038050Y021917D02*
X038693Y021917D01*
X038673Y021897D02*
X038617Y021820D01*
X038573Y021734D01*
X038543Y021643D01*
X038528Y021548D01*
X038528Y021510D01*
X039518Y021510D01*
X039518Y021490D01*
X038528Y021490D01*
X038528Y021452D01*
X038543Y021357D01*
X038573Y021266D01*
X038617Y021180D01*
X038673Y021103D01*
X038741Y021035D01*
X038819Y020978D01*
X038904Y020935D01*
X038996Y020905D01*
X039090Y020890D01*
X039518Y020890D01*
X039518Y021490D01*
X039538Y021490D01*
X039538Y020890D01*
X039966Y020890D01*
X040061Y020905D01*
X040153Y020935D01*
X040238Y020978D01*
X040316Y021035D01*
X040384Y021103D01*
X040440Y021180D01*
X040484Y021266D01*
X040513Y021357D01*
X040528Y021452D01*
X040528Y021490D01*
X039538Y021490D01*
X039538Y021510D01*
X039518Y021510D01*
X039518Y022110D01*
X039090Y022110D01*
X038996Y022095D01*
X038904Y022065D01*
X038819Y022022D01*
X038741Y021965D01*
X038673Y021897D01*
X038555Y021679D02*
X038188Y021679D01*
X038188Y021440D02*
X038530Y021440D01*
X038606Y021202D02*
X038188Y021202D01*
X038188Y020963D02*
X038849Y020963D01*
X039518Y020963D02*
X039538Y020963D01*
X039518Y021202D02*
X039538Y021202D01*
X039518Y021440D02*
X039538Y021440D01*
X039538Y021510D02*
X040528Y021510D01*
X040528Y021548D01*
X040513Y021643D01*
X040484Y021734D01*
X040440Y021820D01*
X040384Y021897D01*
X040316Y021965D01*
X040238Y022022D01*
X040153Y022065D01*
X040061Y022095D01*
X039966Y022110D01*
X039538Y022110D01*
X039538Y021510D01*
X039538Y021679D02*
X039518Y021679D01*
X039518Y021917D02*
X039538Y021917D01*
X040364Y021917D02*
X040765Y021917D01*
X040765Y021679D02*
X040502Y021679D01*
X040526Y021440D02*
X040765Y021440D01*
X040765Y021202D02*
X040451Y021202D01*
X040208Y020963D02*
X040765Y020963D01*
X040765Y020725D02*
X038188Y020725D01*
X038188Y020486D02*
X040765Y020486D01*
X040765Y020248D02*
X038188Y020248D01*
X038188Y020009D02*
X038660Y020009D01*
X038570Y019920D02*
X038468Y019673D01*
X038468Y019407D01*
X038570Y019160D01*
X038759Y018972D01*
X039005Y018870D01*
X040052Y018870D01*
X040298Y018972D01*
X040486Y019160D01*
X040588Y019407D01*
X040588Y019673D01*
X040486Y019920D01*
X040298Y020108D01*
X040052Y020210D01*
X039005Y020210D01*
X038759Y020108D01*
X038570Y019920D01*
X038509Y019771D02*
X038188Y019771D01*
X038188Y019532D02*
X038468Y019532D01*
X038515Y019294D02*
X038188Y019294D01*
X038188Y019055D02*
X038676Y019055D01*
X038140Y018817D02*
X040765Y018817D01*
X040765Y019055D02*
X040381Y019055D01*
X040541Y019294D02*
X040765Y019294D01*
X040765Y019532D02*
X040588Y019532D01*
X040548Y019771D02*
X040765Y019771D01*
X040765Y020009D02*
X040397Y020009D01*
X040765Y018578D02*
X037976Y018578D01*
X037938Y018340D02*
X040765Y018340D01*
X040765Y018101D02*
X037938Y018101D01*
X037938Y017863D02*
X040765Y017863D01*
X040765Y017624D02*
X038093Y017624D01*
X038332Y017386D02*
X040765Y017386D01*
X040765Y017147D02*
X038570Y017147D01*
X038809Y016909D02*
X040765Y016909D01*
X040765Y016670D02*
X039047Y016670D01*
X039286Y016432D02*
X040765Y016432D01*
X040765Y016193D02*
X039524Y016193D01*
X039763Y015955D02*
X040765Y015955D01*
X040765Y015716D02*
X040001Y015716D01*
X040240Y015478D02*
X040765Y015478D01*
X040765Y015239D02*
X040478Y015239D01*
X040717Y015001D02*
X040765Y015001D01*
X034777Y020963D02*
X034708Y020963D01*
X034951Y021202D02*
X034968Y021202D01*
X034038Y021202D02*
X034018Y021202D01*
X034018Y021440D02*
X034038Y021440D01*
X034018Y021510D02*
X033028Y021510D01*
X033028Y021548D01*
X033043Y021643D01*
X033073Y021734D01*
X033117Y021820D01*
X033173Y021897D01*
X033241Y021965D01*
X033319Y022022D01*
X033404Y022065D01*
X033496Y022095D01*
X033590Y022110D01*
X034018Y022110D01*
X034018Y021510D01*
X034018Y021679D02*
X034038Y021679D01*
X034018Y021917D02*
X034038Y021917D01*
X034864Y021917D02*
X034968Y021917D01*
X035095Y022156D02*
X032813Y022156D01*
X032813Y021917D02*
X033193Y021917D01*
X033055Y021679D02*
X032813Y021679D01*
X032813Y021440D02*
X033030Y021440D01*
X033106Y021202D02*
X032813Y021202D01*
X033004Y020963D02*
X033349Y020963D01*
X034018Y020963D02*
X034038Y020963D01*
X033180Y022394D02*
X032698Y022394D01*
X032460Y022633D02*
X032942Y022633D01*
X032703Y022871D02*
X032221Y022871D01*
X032044Y023110D02*
X032593Y023110D01*
X032593Y023348D02*
X032138Y023348D01*
X032138Y023587D02*
X032593Y023587D01*
X032593Y023825D02*
X032046Y023825D01*
X031786Y024064D02*
X032593Y024064D01*
X032593Y024302D02*
X030438Y024302D01*
X030438Y024541D02*
X032593Y024541D01*
X032593Y024779D02*
X030438Y024779D01*
X030438Y025018D02*
X032593Y025018D01*
X032616Y025256D02*
X030416Y025256D01*
X030223Y025495D02*
X032809Y025495D01*
X033047Y025733D02*
X030753Y025733D01*
X030329Y025733D02*
X029984Y025733D01*
X029913Y025972D02*
X029695Y025972D01*
X031169Y025972D02*
X033337Y025972D01*
X033596Y027880D02*
X008648Y027880D01*
X008648Y028118D02*
X033624Y028118D01*
X033741Y028357D02*
X008648Y028357D01*
X008648Y028595D02*
X034064Y028595D01*
X037938Y024064D02*
X038820Y024064D01*
X038560Y023825D02*
X037938Y023825D01*
X037938Y023587D02*
X038468Y023587D01*
X038468Y023348D02*
X037938Y023348D01*
X037938Y023110D02*
X038562Y023110D01*
X038834Y022871D02*
X037828Y022871D01*
X037803Y007846D02*
X038009Y007846D01*
D31*
X033078Y008795D02*
X033038Y008755D01*
X032828Y008755D01*
X032703Y008630D01*
X032078Y008630D01*
X030078Y008630D02*
X029578Y009130D01*
X029578Y010130D01*
X027828Y011880D01*
X027828Y017630D01*
X026828Y018630D01*
X024328Y018630D01*
X023427Y019532D01*
X020518Y019532D01*
X020518Y019787D02*
X019861Y019787D01*
X019578Y019505D01*
X019328Y019505D01*
X018328Y019630D02*
X018230Y019532D01*
X017639Y019532D01*
X017639Y019787D02*
X017296Y019787D01*
X016953Y020130D01*
X017639Y020043D02*
X017639Y020775D01*
X017744Y020880D01*
X014203Y020880D01*
X009453Y025630D01*
X009078Y025630D01*
X009828Y024130D02*
X007992Y024130D01*
X007244Y024209D02*
X007244Y024880D01*
X007244Y024209D02*
X007165Y024130D01*
X007244Y023380D02*
X007244Y022709D01*
X007165Y022630D01*
X007992Y022630D02*
X008203Y022630D01*
X008453Y022380D01*
X008453Y021505D01*
X008828Y021130D01*
X012828Y021130D01*
X013578Y020380D01*
X013578Y018380D01*
X013450Y018252D01*
X012639Y018252D01*
X012639Y018508D02*
X013081Y018508D01*
X013203Y018630D01*
X013203Y019130D01*
X013058Y019276D01*
X012639Y019276D01*
X011974Y019276D01*
X011953Y019255D01*
X011547Y018764D02*
X011413Y018630D01*
X011547Y018764D02*
X012639Y018764D01*
X012639Y019532D02*
X013105Y019532D01*
X013203Y019630D01*
X013203Y020255D01*
X012953Y020505D01*
X011413Y020505D01*
X012639Y020043D02*
X009492Y020043D01*
X008645Y019197D01*
X008645Y018872D01*
X009433Y018872D02*
X009433Y019234D01*
X009986Y019787D01*
X012639Y019787D01*
X013953Y020380D02*
X012703Y021630D01*
X009078Y021630D01*
X009078Y022630D02*
X012078Y022630D01*
X014078Y020630D01*
X015953Y020630D01*
X017308Y019276D01*
X017639Y019276D01*
X017639Y019020D02*
X017189Y019020D01*
X015828Y020380D01*
X013953Y020380D01*
X015518Y019276D02*
X015933Y019276D01*
X016078Y019130D01*
X016078Y018505D01*
X016843Y017740D01*
X017639Y017740D01*
X017639Y017484D02*
X016724Y017484D01*
X016468Y017740D01*
X015518Y017740D01*
X015518Y017484D02*
X015058Y017484D01*
X014828Y017255D01*
X014828Y016880D01*
X014828Y016255D01*
X014953Y016130D01*
X015619Y016130D01*
X015518Y016717D02*
X017639Y016717D01*
X017639Y016973D02*
X018611Y016973D01*
X018703Y016880D01*
X018453Y016380D02*
X019078Y015755D01*
X019078Y014965D01*
X019703Y014965D01*
X019703Y014295D02*
X019703Y014255D01*
X020203Y014255D01*
X019703Y014255D02*
X019703Y013505D01*
X018953Y012755D01*
X018203Y012755D01*
X018078Y012630D01*
X017788Y012630D01*
X017788Y013130D02*
X016828Y013130D01*
X016078Y013130D01*
X015368Y013130D01*
X015368Y012630D02*
X016078Y012630D01*
X016078Y013130D01*
X016453Y013630D02*
X015368Y013630D01*
X011578Y013630D01*
X009578Y011630D01*
X007492Y011630D01*
X007492Y013130D02*
X010078Y013130D01*
X011453Y014505D01*
X014078Y014505D01*
X014703Y015130D01*
X015368Y015130D01*
X015368Y014630D02*
X015078Y014630D01*
X015078Y014130D01*
X015368Y014130D01*
X015368Y014630D02*
X017788Y014630D01*
X017788Y014130D02*
X018578Y014130D01*
X018744Y014295D01*
X019078Y014295D01*
X019078Y014255D01*
X019038Y014255D02*
X019038Y013340D01*
X018953Y013255D01*
X017788Y013630D02*
X016953Y013630D01*
X018328Y012380D02*
X019328Y012380D01*
X021078Y014130D01*
X021078Y014197D01*
X021177Y014295D01*
X022078Y014295D01*
X022078Y014965D02*
X022119Y015005D01*
X022453Y015005D01*
X022578Y015130D01*
X022578Y016255D01*
X022117Y016717D01*
X020518Y016717D01*
X020518Y016973D02*
X020171Y016973D01*
X019953Y016755D01*
X019953Y016505D01*
X020203Y016255D01*
X021663Y016255D01*
X022163Y015755D01*
X022203Y015795D01*
X021494Y015755D02*
X021452Y015714D01*
X021452Y015063D01*
X019078Y014295D02*
X019038Y014255D01*
X018328Y012380D02*
X018078Y012130D01*
X017788Y012130D01*
X017953Y011380D02*
X017578Y011380D01*
X017578Y011340D01*
X017953Y011380D02*
X018078Y011255D01*
X018078Y010630D01*
X018578Y011340D02*
X018578Y011880D01*
X019578Y011880D02*
X019578Y011340D01*
X016078Y009630D02*
X015328Y010380D01*
X014328Y010380D01*
X014023Y010685D01*
X014023Y010815D01*
X013708Y010815D02*
X013708Y010500D01*
X013828Y010380D01*
X013953Y010380D01*
X014703Y009630D01*
X015078Y009630D01*
X014078Y009630D02*
X013393Y010315D01*
X013393Y010815D01*
X013078Y010815D02*
X013078Y009630D01*
X012763Y010315D02*
X012078Y009630D01*
X011328Y009630D02*
X012078Y010380D01*
X012328Y010380D01*
X012448Y010500D01*
X012448Y010815D01*
X012133Y010815D02*
X011263Y010815D01*
X010078Y009630D01*
X011078Y009630D02*
X011328Y009630D01*
X012763Y010315D02*
X012763Y010815D01*
X012763Y011445D02*
X013078Y011445D01*
X013393Y011445D01*
X013708Y011445D01*
X014023Y011445D01*
X012763Y011445D02*
X012448Y011445D01*
X012133Y011445D01*
X012639Y017228D02*
X013177Y017228D01*
X013203Y017255D01*
X013203Y017505D01*
X013183Y017484D01*
X012639Y017484D01*
X014581Y018252D02*
X015518Y018252D01*
X016575Y018508D02*
X016578Y018505D01*
X016575Y018508D02*
X017639Y018508D01*
X017639Y018764D02*
X017069Y018764D01*
X016828Y019005D01*
X016453Y019005D01*
X016953Y018130D02*
X017087Y017996D01*
X017639Y017996D01*
X017639Y018252D02*
X018200Y018252D01*
X018453Y018505D01*
X018453Y018755D01*
X018956Y018508D02*
X018453Y018005D01*
X018453Y017380D02*
X019325Y018252D01*
X020518Y018252D01*
X020518Y017996D02*
X021183Y017996D01*
X021567Y018380D01*
X020518Y018508D02*
X018956Y018508D01*
X019828Y017755D02*
X019953Y017755D01*
X019968Y017740D01*
X020518Y017740D01*
X020518Y017484D02*
X021099Y017484D01*
X021203Y017380D01*
X020855Y017228D02*
X021078Y017005D01*
X021453Y017005D01*
X020855Y017228D02*
X020518Y017228D01*
X020518Y019020D02*
X022939Y019020D01*
X025328Y016630D01*
X026578Y016630D01*
X027078Y016130D01*
X027078Y010630D01*
X027578Y010130D01*
X027578Y009130D01*
X028078Y008630D01*
X028578Y009130D02*
X029078Y008630D01*
X028578Y009130D02*
X028578Y010130D01*
X027453Y011255D01*
X027453Y017130D01*
X026953Y017630D01*
X024828Y017630D01*
X023183Y019276D01*
X020518Y019276D01*
X020518Y020043D02*
X021617Y020043D01*
X021703Y020130D01*
X021744Y020130D01*
X017639Y017228D02*
X015518Y017228D01*
X010203Y023755D02*
X009828Y024130D01*
D32*
X010203Y023755D03*
X014453Y019880D03*
X016453Y019005D03*
X016578Y018505D03*
X016953Y018130D03*
X018453Y018005D03*
X018453Y017380D03*
X019328Y017630D03*
X018703Y016880D03*
X016828Y015630D03*
X016328Y015630D03*
X014828Y016880D03*
X014453Y015630D03*
X013953Y015005D03*
X016953Y012380D03*
X018578Y011880D03*
X019578Y011880D03*
X018078Y010630D03*
X016953Y010130D03*
X008953Y010880D03*
X008953Y012505D03*
X008953Y013880D03*
X009953Y017130D03*
X010078Y017880D03*
X011953Y019255D03*
X016953Y020130D03*
X018328Y019630D03*
X018915Y020043D03*
X019328Y019505D03*
X018453Y018755D03*
X019078Y021380D03*
X023078Y020130D03*
X024578Y019130D03*
X022578Y017630D03*
X024578Y016630D03*
X020703Y015630D03*
D33*
X027155Y022524D02*
X028809Y022524D01*
X022194Y024689D02*
X022194Y026264D01*
X021828Y026630D01*
X019453Y026630D01*
X018887Y026064D01*
X018887Y024689D01*
X015580Y024689D02*
X013927Y024689D01*
X013927Y022524D01*
D34*
X013927Y021782D01*
X014328Y021380D01*
X018328Y021380D01*
X018413Y021295D01*
X018413Y020880D01*
X018453Y020840D01*
X018453Y020505D01*
X018915Y020043D01*
X020518Y020043D01*
X018703Y016880D02*
X018703Y016630D01*
X018453Y016380D01*
X018203Y016130D01*
X017538Y016130D01*
X013953Y015005D02*
X013703Y014755D01*
X007617Y014755D01*
X007492Y014630D01*
X006703Y014592D02*
X006665Y014630D01*
X006703Y014592D02*
X006703Y014130D01*
X006953Y013880D01*
X007744Y013880D01*
X006703Y013092D02*
X006665Y013130D01*
X006703Y013092D02*
X006703Y012755D01*
X007078Y012380D01*
X007744Y012380D01*
X006703Y011592D02*
X006665Y011630D01*
X006703Y011592D02*
X006703Y011130D01*
X006953Y010880D01*
X007744Y010880D01*
X014023Y011445D02*
X014023Y011810D01*
X014211Y011998D01*
X014343Y012130D01*
X015368Y012130D01*
X015328Y012090D01*
X015328Y011755D01*
X015703Y011380D01*
X016244Y011380D01*
X017578Y010670D02*
X017578Y009630D01*
X018578Y009630D02*
X018578Y010670D01*
X019578Y010670D02*
X019578Y009630D01*
X011590Y017130D02*
X011413Y017307D01*
X011413Y017880D01*
X011413Y018630D01*
X010744Y018630D02*
X010175Y018630D01*
X009433Y017888D01*
X028078Y023380D02*
X028078Y025630D01*
X029578Y025630D01*
X030078Y025130D01*
X030078Y023644D01*
X030058Y023595D01*
X030058Y023345D01*
X030078Y023296D01*
X030078Y023130D01*
X030578Y022630D01*
X031953Y022630D01*
X032453Y022130D01*
X032453Y021005D01*
X032953Y020505D01*
X034828Y020505D01*
X035328Y021005D01*
X035328Y021880D01*
X035578Y022130D01*
X037328Y022130D01*
X037828Y021630D01*
X037828Y019005D01*
X037578Y018630D01*
X037578Y017630D01*
X040578Y014630D01*
X040578Y011130D01*
X040078Y010630D01*
X039078Y010630D01*
X038078Y009630D01*
X038078Y009205D01*
X038073Y009180D01*
X038065Y009164D01*
X038063Y009134D01*
X038056Y009104D01*
X038059Y009086D01*
X038052Y008987D01*
X038049Y008979D01*
X038049Y008940D01*
X038046Y008901D01*
X038049Y008892D01*
X038049Y008601D01*
X037578Y008130D01*
X036578Y008130D01*
X036078Y008630D01*
X036078Y012630D01*
X037703Y012630D01*
X037703Y015005D01*
X034078Y018630D01*
X030578Y018630D01*
X029578Y019630D01*
X029578Y020006D01*
X029588Y020031D01*
X029588Y020229D01*
X029578Y020254D01*
X029578Y023380D01*
X028078Y023380D01*
X028078Y023456D02*
X030058Y023456D01*
X030066Y023614D02*
X028078Y023614D01*
X028078Y023773D02*
X030078Y023773D01*
X030078Y023931D02*
X028078Y023931D01*
X028078Y024090D02*
X028155Y024090D01*
X028163Y024077D02*
X028196Y024043D01*
X028237Y024019D01*
X028283Y024007D01*
X028729Y024007D01*
X028729Y024609D01*
X028889Y024609D01*
X028889Y024769D01*
X029491Y024769D01*
X029491Y025215D01*
X029478Y025261D01*
X029455Y025302D01*
X029421Y025335D01*
X029380Y025359D01*
X029334Y025371D01*
X028889Y025371D01*
X028889Y024769D01*
X028729Y024769D01*
X028729Y025371D01*
X028283Y025371D01*
X028237Y025359D01*
X028196Y025335D01*
X028163Y025302D01*
X028139Y025261D01*
X028127Y025215D01*
X028127Y024769D01*
X028729Y024769D01*
X028729Y024609D01*
X028127Y024609D01*
X028127Y024163D01*
X028139Y024118D01*
X028163Y024077D01*
X028127Y024248D02*
X028078Y024248D01*
X028078Y024407D02*
X028127Y024407D01*
X028127Y024565D02*
X028078Y024565D01*
X028078Y024724D02*
X028729Y024724D01*
X028729Y024882D02*
X028889Y024882D01*
X028889Y024724D02*
X030078Y024724D01*
X030078Y024882D02*
X029491Y024882D01*
X029491Y025041D02*
X030078Y025041D01*
X030009Y025199D02*
X029491Y025199D01*
X029382Y025358D02*
X029851Y025358D01*
X029692Y025516D02*
X028078Y025516D01*
X028078Y025358D02*
X028235Y025358D01*
X028127Y025199D02*
X028078Y025199D01*
X028078Y025041D02*
X028127Y025041D01*
X028127Y024882D02*
X028078Y024882D01*
X028729Y025041D02*
X028889Y025041D01*
X028889Y025199D02*
X028729Y025199D01*
X028729Y025358D02*
X028889Y025358D01*
X028889Y024609D02*
X029491Y024609D01*
X029491Y024163D01*
X029478Y024118D01*
X029455Y024077D01*
X029421Y024043D01*
X029380Y024019D01*
X029334Y024007D01*
X028889Y024007D01*
X028889Y024609D01*
X028889Y024565D02*
X028729Y024565D01*
X028729Y024407D02*
X028889Y024407D01*
X028889Y024248D02*
X028729Y024248D01*
X028729Y024090D02*
X028889Y024090D01*
X029462Y024090D02*
X030078Y024090D01*
X030078Y024248D02*
X029491Y024248D01*
X029491Y024407D02*
X030078Y024407D01*
X030078Y024565D02*
X029491Y024565D01*
X029578Y023297D02*
X030078Y023297D01*
X030078Y023139D02*
X029578Y023139D01*
X029578Y022980D02*
X030228Y022980D01*
X030387Y022822D02*
X029578Y022822D01*
X029578Y022663D02*
X030545Y022663D01*
X029578Y022505D02*
X032079Y022505D01*
X032237Y022346D02*
X029578Y022346D01*
X029578Y022188D02*
X032396Y022188D01*
X032453Y022029D02*
X031685Y022029D01*
X031687Y022028D02*
X031602Y022056D01*
X031513Y022070D01*
X031128Y022070D01*
X031128Y021550D01*
X031028Y021550D01*
X031028Y021450D01*
X030119Y021450D01*
X030132Y021367D01*
X030160Y021281D01*
X030201Y021201D01*
X030254Y021129D01*
X030317Y021065D01*
X030390Y021012D01*
X030470Y020972D01*
X030555Y020944D01*
X030643Y020930D01*
X031028Y020930D01*
X031028Y021450D01*
X031128Y021450D01*
X031128Y020930D01*
X031513Y020930D01*
X031602Y020944D01*
X031687Y020972D01*
X031767Y021012D01*
X031840Y021065D01*
X031903Y021129D01*
X031956Y021201D01*
X031997Y021281D01*
X032024Y021367D01*
X032038Y021450D01*
X031128Y021450D01*
X031128Y021550D01*
X032038Y021550D01*
X032024Y021633D01*
X031997Y021719D01*
X031956Y021799D01*
X031903Y021871D01*
X031840Y021935D01*
X031767Y021988D01*
X031687Y022028D01*
X031904Y021871D02*
X032453Y021871D01*
X032453Y021712D02*
X031999Y021712D01*
X032037Y021554D02*
X032453Y021554D01*
X032453Y021395D02*
X032029Y021395D01*
X031974Y021237D02*
X032453Y021237D01*
X032453Y021078D02*
X031852Y021078D01*
X032539Y020920D02*
X029578Y020920D01*
X029578Y021078D02*
X030304Y021078D01*
X030183Y021237D02*
X029578Y021237D01*
X029578Y021395D02*
X030128Y021395D01*
X030119Y021550D02*
X031028Y021550D01*
X031028Y022070D01*
X030643Y022070D01*
X030555Y022056D01*
X030470Y022028D01*
X030390Y021988D01*
X030317Y021935D01*
X030254Y021871D01*
X030201Y021799D01*
X030160Y021719D01*
X030132Y021633D01*
X030119Y021550D01*
X030120Y021554D02*
X029578Y021554D01*
X029578Y021712D02*
X030158Y021712D01*
X030253Y021871D02*
X029578Y021871D01*
X029578Y022029D02*
X030472Y022029D01*
X031028Y022029D02*
X031128Y022029D01*
X031128Y021871D02*
X031028Y021871D01*
X031028Y021712D02*
X031128Y021712D01*
X031128Y021554D02*
X031028Y021554D01*
X031028Y021395D02*
X031128Y021395D01*
X031128Y021237D02*
X031028Y021237D01*
X031028Y021078D02*
X031128Y021078D01*
X031594Y020170D02*
X030563Y020170D01*
X030331Y020074D01*
X030154Y019897D01*
X030058Y019665D01*
X030058Y019415D01*
X030154Y019183D01*
X030331Y019006D01*
X030563Y018910D01*
X031594Y018910D01*
X031825Y019006D01*
X032002Y019183D01*
X032098Y019415D01*
X032098Y019665D01*
X032002Y019897D01*
X031825Y020074D01*
X031594Y020170D01*
X031697Y020127D02*
X033409Y020127D01*
X033513Y020170D02*
X033281Y020074D01*
X033104Y019897D01*
X033008Y019665D01*
X033008Y019415D01*
X033104Y019183D01*
X033281Y019006D01*
X033513Y018910D01*
X034544Y018910D01*
X034775Y019006D01*
X034952Y019183D01*
X035048Y019415D01*
X035048Y019665D01*
X034952Y019897D01*
X034775Y020074D01*
X034544Y020170D01*
X033513Y020170D01*
X033176Y019969D02*
X031931Y019969D01*
X032038Y019810D02*
X033068Y019810D01*
X033008Y019652D02*
X032098Y019652D01*
X032098Y019493D02*
X033008Y019493D01*
X033042Y019335D02*
X032065Y019335D01*
X031995Y019176D02*
X033111Y019176D01*
X033270Y019018D02*
X031837Y019018D01*
X030508Y018701D02*
X037625Y018701D01*
X037578Y018542D02*
X034166Y018542D01*
X034325Y018384D02*
X037578Y018384D01*
X037578Y018225D02*
X034483Y018225D01*
X034642Y018067D02*
X037578Y018067D01*
X037578Y017908D02*
X034800Y017908D01*
X034959Y017750D02*
X037578Y017750D01*
X037617Y017591D02*
X035117Y017591D01*
X035276Y017433D02*
X037776Y017433D01*
X037934Y017274D02*
X035434Y017274D01*
X035593Y017116D02*
X038093Y017116D01*
X038251Y016957D02*
X035751Y016957D01*
X035910Y016799D02*
X038410Y016799D01*
X038568Y016640D02*
X036068Y016640D01*
X036227Y016482D02*
X038727Y016482D01*
X038885Y016323D02*
X036385Y016323D01*
X036544Y016165D02*
X039044Y016165D01*
X039202Y016006D02*
X036702Y016006D01*
X036861Y015848D02*
X039361Y015848D01*
X039519Y015689D02*
X037019Y015689D01*
X037178Y015531D02*
X039678Y015531D01*
X039836Y015372D02*
X037336Y015372D01*
X037495Y015214D02*
X039995Y015214D01*
X040153Y015055D02*
X037653Y015055D01*
X037703Y014897D02*
X040312Y014897D01*
X040470Y014738D02*
X037703Y014738D01*
X037703Y014580D02*
X040578Y014580D01*
X040578Y014421D02*
X037703Y014421D01*
X037703Y014263D02*
X040578Y014263D01*
X040578Y014104D02*
X040236Y014104D01*
X040217Y014118D02*
X040137Y014158D01*
X040052Y014186D01*
X039963Y014200D01*
X039578Y014200D01*
X039578Y013680D01*
X039478Y013680D01*
X039478Y013580D01*
X038569Y013580D01*
X038582Y013497D01*
X038610Y013411D01*
X038651Y013331D01*
X038704Y013259D01*
X038767Y013195D01*
X038840Y013142D01*
X038920Y013102D01*
X039005Y013074D01*
X039093Y013060D01*
X039478Y013060D01*
X039478Y013580D01*
X039578Y013580D01*
X039578Y013060D01*
X039963Y013060D01*
X040052Y013074D01*
X040137Y013102D01*
X040217Y013142D01*
X040290Y013195D01*
X040353Y013259D01*
X040406Y013331D01*
X040447Y013411D01*
X040474Y013497D01*
X040488Y013580D01*
X039578Y013580D01*
X039578Y013680D01*
X040488Y013680D01*
X040474Y013763D01*
X040447Y013849D01*
X040406Y013929D01*
X040353Y014001D01*
X040290Y014065D01*
X040217Y014118D01*
X040394Y013946D02*
X040578Y013946D01*
X040578Y013787D02*
X040467Y013787D01*
X040578Y013629D02*
X039578Y013629D01*
X039478Y013629D02*
X037703Y013629D01*
X037703Y013787D02*
X038590Y013787D01*
X038582Y013763D02*
X038610Y013849D01*
X038651Y013929D01*
X038704Y014001D01*
X038767Y014065D01*
X038840Y014118D01*
X038920Y014158D01*
X039005Y014186D01*
X039093Y014200D01*
X039478Y014200D01*
X039478Y013680D01*
X038569Y013680D01*
X038582Y013763D01*
X038663Y013946D02*
X037703Y013946D01*
X037703Y014104D02*
X038821Y014104D01*
X039478Y014104D02*
X039578Y014104D01*
X039578Y013946D02*
X039478Y013946D01*
X039478Y013787D02*
X039578Y013787D01*
X039578Y013470D02*
X039478Y013470D01*
X039478Y013312D02*
X039578Y013312D01*
X039578Y013153D02*
X039478Y013153D01*
X038825Y013153D02*
X037703Y013153D01*
X037703Y012995D02*
X040578Y012995D01*
X040578Y013153D02*
X040232Y013153D01*
X040392Y013312D02*
X040578Y013312D01*
X040578Y013470D02*
X040466Y013470D01*
X040578Y012836D02*
X037703Y012836D01*
X037703Y012678D02*
X040578Y012678D01*
X040578Y012519D02*
X036078Y012519D01*
X036078Y012361D02*
X040578Y012361D01*
X040578Y012202D02*
X036078Y012202D01*
X036078Y012044D02*
X040578Y012044D01*
X040578Y011885D02*
X036078Y011885D01*
X036078Y011727D02*
X040578Y011727D01*
X040578Y011568D02*
X036078Y011568D01*
X036078Y011410D02*
X040578Y011410D01*
X040578Y011251D02*
X036078Y011251D01*
X036078Y011093D02*
X040541Y011093D01*
X040382Y010934D02*
X036078Y010934D01*
X036078Y010776D02*
X036827Y010776D01*
X036854Y010787D02*
X036775Y010754D01*
X036702Y010712D01*
X036634Y010660D01*
X036574Y010600D01*
X036522Y010532D01*
X036480Y010459D01*
X036447Y010380D01*
X036425Y010298D01*
X036414Y010214D01*
X036414Y009761D01*
X037005Y009761D01*
X037005Y010818D01*
X036936Y010809D01*
X036854Y010787D01*
X037005Y010776D02*
X037120Y010776D01*
X037120Y010818D02*
X037120Y009761D01*
X037005Y009761D01*
X037005Y009645D01*
X037120Y009645D01*
X037120Y008588D01*
X037189Y008597D01*
X037271Y008619D01*
X037350Y008651D01*
X037424Y008694D01*
X037491Y008746D01*
X037551Y008806D01*
X037603Y008873D01*
X037645Y008947D01*
X037678Y009025D01*
X037700Y009108D01*
X037711Y009192D01*
X037711Y009645D01*
X037120Y009645D01*
X037120Y009761D01*
X037711Y009761D01*
X037711Y010214D01*
X037700Y010298D01*
X037678Y010380D01*
X037645Y010459D01*
X037603Y010532D01*
X037551Y010600D01*
X037491Y010660D01*
X037424Y010712D01*
X037350Y010754D01*
X037271Y010787D01*
X037189Y010809D01*
X037120Y010818D01*
X037299Y010776D02*
X040224Y010776D01*
X039065Y010617D02*
X037534Y010617D01*
X037646Y010459D02*
X038907Y010459D01*
X038748Y010300D02*
X037700Y010300D01*
X037711Y010142D02*
X038590Y010142D01*
X038431Y009983D02*
X037711Y009983D01*
X037711Y009825D02*
X038273Y009825D01*
X038114Y009666D02*
X037120Y009666D01*
X037005Y009666D02*
X036078Y009666D01*
X036078Y009508D02*
X036414Y009508D01*
X036414Y009645D02*
X036414Y009192D01*
X036425Y009108D01*
X036447Y009025D01*
X036480Y008947D01*
X036522Y008873D01*
X036574Y008806D01*
X036634Y008746D01*
X036702Y008694D01*
X036775Y008651D01*
X036854Y008619D01*
X036936Y008597D01*
X037005Y008588D01*
X037005Y009645D01*
X036414Y009645D01*
X036414Y009825D02*
X036078Y009825D01*
X036078Y009983D02*
X036414Y009983D01*
X036414Y010142D02*
X036078Y010142D01*
X036078Y010300D02*
X036426Y010300D01*
X036480Y010459D02*
X036078Y010459D01*
X036078Y010617D02*
X036591Y010617D01*
X037005Y010617D02*
X037120Y010617D01*
X037120Y010459D02*
X037005Y010459D01*
X037005Y010300D02*
X037120Y010300D01*
X037120Y010142D02*
X037005Y010142D01*
X037005Y009983D02*
X037120Y009983D01*
X037120Y009825D02*
X037005Y009825D01*
X037005Y009508D02*
X037120Y009508D01*
X037120Y009349D02*
X037005Y009349D01*
X037005Y009191D02*
X037120Y009191D01*
X037120Y009032D02*
X037005Y009032D01*
X037005Y008874D02*
X037120Y008874D01*
X037120Y008715D02*
X037005Y008715D01*
X036674Y008715D02*
X036078Y008715D01*
X036078Y008874D02*
X036522Y008874D01*
X036445Y009032D02*
X036078Y009032D01*
X036078Y009191D02*
X036414Y009191D01*
X036414Y009349D02*
X036078Y009349D01*
X036152Y008557D02*
X038005Y008557D01*
X038049Y008715D02*
X037451Y008715D01*
X037603Y008874D02*
X038049Y008874D01*
X038056Y009032D02*
X037680Y009032D01*
X037711Y009191D02*
X038075Y009191D01*
X038078Y009349D02*
X037711Y009349D01*
X037711Y009508D02*
X038078Y009508D01*
X037846Y008398D02*
X036310Y008398D01*
X036469Y008240D02*
X037688Y008240D01*
X037703Y013312D02*
X038665Y013312D01*
X038591Y013470D02*
X037703Y013470D01*
X037731Y018859D02*
X030349Y018859D01*
X030320Y019018D02*
X030191Y019018D01*
X030161Y019176D02*
X030032Y019176D01*
X030092Y019335D02*
X029874Y019335D01*
X029715Y019493D02*
X030058Y019493D01*
X030058Y019652D02*
X029578Y019652D01*
X029578Y019810D02*
X030118Y019810D01*
X030226Y019969D02*
X029578Y019969D01*
X029588Y020127D02*
X030459Y020127D01*
X029578Y020286D02*
X037828Y020286D01*
X037828Y020444D02*
X029578Y020444D01*
X029578Y020603D02*
X032856Y020603D01*
X032697Y020761D02*
X029578Y020761D01*
X032953Y023130D02*
X033453Y022630D01*
X037078Y022630D01*
X037578Y023130D01*
X037578Y028130D01*
X037078Y028630D01*
X035953Y028630D01*
X035453Y028130D01*
X035453Y026130D01*
X034953Y025630D01*
X033453Y025630D01*
X032953Y025130D01*
X032953Y023130D01*
X032953Y023139D02*
X033175Y023139D01*
X033151Y023171D02*
X033204Y023099D01*
X033267Y023035D01*
X033340Y022982D01*
X033420Y022942D01*
X033505Y022914D01*
X033593Y022900D01*
X033978Y022900D01*
X033978Y023420D01*
X033069Y023420D01*
X033082Y023337D01*
X033110Y023251D01*
X033151Y023171D01*
X033095Y023297D02*
X032953Y023297D01*
X032953Y023456D02*
X033978Y023456D01*
X033978Y023420D02*
X033978Y023520D01*
X033069Y023520D01*
X033082Y023603D01*
X033110Y023689D01*
X033151Y023769D01*
X033204Y023841D01*
X033267Y023905D01*
X033340Y023958D01*
X033420Y023998D01*
X033505Y024026D01*
X033593Y024040D01*
X033978Y024040D01*
X033978Y023520D01*
X034078Y023520D01*
X034078Y024040D01*
X034463Y024040D01*
X034552Y024026D01*
X034637Y023998D01*
X034717Y023958D01*
X034790Y023905D01*
X034853Y023841D01*
X034906Y023769D01*
X034947Y023689D01*
X034974Y023603D01*
X034988Y023520D01*
X034078Y023520D01*
X034078Y023420D01*
X034078Y022900D01*
X034463Y022900D01*
X034552Y022914D01*
X034637Y022942D01*
X034717Y022982D01*
X034790Y023035D01*
X034853Y023099D01*
X034906Y023171D01*
X034947Y023251D01*
X034974Y023337D01*
X034988Y023420D01*
X034078Y023420D01*
X033978Y023420D01*
X034078Y023456D02*
X036528Y023456D01*
X036528Y023420D02*
X035619Y023420D01*
X035632Y023337D01*
X035660Y023251D01*
X035701Y023171D01*
X035754Y023099D01*
X035817Y023035D01*
X035890Y022982D01*
X035970Y022942D01*
X036055Y022914D01*
X036143Y022900D01*
X036528Y022900D01*
X036528Y023420D01*
X036528Y023520D01*
X035619Y023520D01*
X035632Y023603D01*
X035660Y023689D01*
X035701Y023769D01*
X035754Y023841D01*
X035817Y023905D01*
X035890Y023958D01*
X035970Y023998D01*
X036055Y024026D01*
X036143Y024040D01*
X036528Y024040D01*
X036528Y023520D01*
X036628Y023520D01*
X036628Y024040D01*
X037013Y024040D01*
X037102Y024026D01*
X037187Y023998D01*
X037267Y023958D01*
X037340Y023905D01*
X037403Y023841D01*
X037456Y023769D01*
X037497Y023689D01*
X037524Y023603D01*
X037538Y023520D01*
X036628Y023520D01*
X036628Y023420D01*
X036628Y022900D01*
X037013Y022900D01*
X037102Y022914D01*
X037187Y022942D01*
X037267Y022982D01*
X037340Y023035D01*
X037403Y023099D01*
X037456Y023171D01*
X037497Y023251D01*
X037524Y023337D01*
X037538Y023420D01*
X036628Y023420D01*
X036528Y023420D01*
X036628Y023456D02*
X037578Y023456D01*
X037578Y023614D02*
X037521Y023614D01*
X037578Y023773D02*
X037453Y023773D01*
X037578Y023931D02*
X037304Y023931D01*
X037578Y024090D02*
X032953Y024090D01*
X032953Y024248D02*
X037578Y024248D01*
X037578Y024407D02*
X032953Y024407D01*
X032953Y024565D02*
X037578Y024565D01*
X037578Y024724D02*
X032953Y024724D01*
X032953Y024882D02*
X037578Y024882D01*
X037578Y025041D02*
X032953Y025041D01*
X033022Y025199D02*
X037578Y025199D01*
X037578Y025358D02*
X033181Y025358D01*
X033339Y025516D02*
X037578Y025516D01*
X037578Y025675D02*
X034998Y025675D01*
X035156Y025833D02*
X037578Y025833D01*
X037578Y025992D02*
X035315Y025992D01*
X035453Y026150D02*
X037578Y026150D01*
X037578Y026309D02*
X035453Y026309D01*
X035453Y026467D02*
X035895Y026467D01*
X035884Y026475D02*
X035952Y026423D01*
X036025Y026381D01*
X036104Y026348D01*
X036186Y026326D01*
X036255Y026317D01*
X036255Y027374D01*
X036370Y027374D01*
X036370Y026317D01*
X036439Y026326D01*
X036521Y026348D01*
X036600Y026381D01*
X036674Y026423D01*
X036741Y026475D01*
X036801Y026535D01*
X036853Y026603D01*
X036895Y026676D01*
X036928Y026755D01*
X036950Y026837D01*
X036961Y026921D01*
X036961Y027374D01*
X036370Y027374D01*
X036370Y027490D01*
X036255Y027490D01*
X036255Y028547D01*
X036186Y028538D01*
X036104Y028516D01*
X036025Y028484D01*
X035952Y028441D01*
X035884Y028389D01*
X035824Y028329D01*
X035772Y028262D01*
X035730Y028188D01*
X035697Y028110D01*
X035675Y028027D01*
X035664Y027943D01*
X035664Y027490D01*
X036255Y027490D01*
X036255Y027374D01*
X035664Y027374D01*
X035664Y026921D01*
X035675Y026837D01*
X035697Y026755D01*
X035730Y026676D01*
X035772Y026603D01*
X035824Y026535D01*
X035884Y026475D01*
X035759Y026626D02*
X035453Y026626D01*
X035453Y026784D02*
X035689Y026784D01*
X035664Y026943D02*
X035453Y026943D01*
X035453Y027101D02*
X035664Y027101D01*
X035664Y027260D02*
X035453Y027260D01*
X035453Y027418D02*
X036255Y027418D01*
X036370Y027418D02*
X037578Y027418D01*
X037578Y027260D02*
X036961Y027260D01*
X036961Y027101D02*
X037578Y027101D01*
X037578Y026943D02*
X036961Y026943D01*
X036936Y026784D02*
X037578Y026784D01*
X037578Y026626D02*
X036866Y026626D01*
X036731Y026467D02*
X037578Y026467D01*
X036370Y026467D02*
X036255Y026467D01*
X036255Y026626D02*
X036370Y026626D01*
X036370Y026784D02*
X036255Y026784D01*
X036255Y026943D02*
X036370Y026943D01*
X036370Y027101D02*
X036255Y027101D01*
X036255Y027260D02*
X036370Y027260D01*
X036370Y027490D02*
X036961Y027490D01*
X036961Y027943D01*
X036950Y028027D01*
X036928Y028110D01*
X036895Y028188D01*
X036853Y028262D01*
X036801Y028329D01*
X036741Y028389D01*
X036674Y028441D01*
X036600Y028484D01*
X036521Y028516D01*
X036439Y028538D01*
X036370Y028547D01*
X036370Y027490D01*
X036370Y027577D02*
X036255Y027577D01*
X036255Y027735D02*
X036370Y027735D01*
X036370Y027894D02*
X036255Y027894D01*
X036255Y028052D02*
X036370Y028052D01*
X036370Y028211D02*
X036255Y028211D01*
X036255Y028369D02*
X036370Y028369D01*
X036370Y028528D02*
X036255Y028528D01*
X036146Y028528D02*
X035851Y028528D01*
X035864Y028369D02*
X035692Y028369D01*
X035743Y028211D02*
X035534Y028211D01*
X035453Y028052D02*
X035682Y028052D01*
X035664Y027894D02*
X035453Y027894D01*
X035453Y027735D02*
X035664Y027735D01*
X035664Y027577D02*
X035453Y027577D01*
X036761Y028369D02*
X037339Y028369D01*
X037181Y028528D02*
X036479Y028528D01*
X036883Y028211D02*
X037498Y028211D01*
X037578Y028052D02*
X036943Y028052D01*
X036961Y027894D02*
X037578Y027894D01*
X037578Y027735D02*
X036961Y027735D01*
X036961Y027577D02*
X037578Y027577D01*
X036628Y023931D02*
X036528Y023931D01*
X036528Y023773D02*
X036628Y023773D01*
X036628Y023614D02*
X036528Y023614D01*
X036528Y023297D02*
X036628Y023297D01*
X036628Y023139D02*
X036528Y023139D01*
X036528Y022980D02*
X036628Y022980D01*
X037111Y022663D02*
X033420Y022663D01*
X033262Y022822D02*
X037270Y022822D01*
X037262Y022980D02*
X037428Y022980D01*
X037432Y023139D02*
X037578Y023139D01*
X037578Y023297D02*
X037511Y023297D01*
X035894Y022980D02*
X034712Y022980D01*
X034882Y023139D02*
X035725Y023139D01*
X035645Y023297D02*
X034961Y023297D01*
X034971Y023614D02*
X035636Y023614D01*
X035704Y023773D02*
X034903Y023773D01*
X034754Y023931D02*
X035853Y023931D01*
X034078Y023931D02*
X033978Y023931D01*
X033978Y023773D02*
X034078Y023773D01*
X034078Y023614D02*
X033978Y023614D01*
X033978Y023297D02*
X034078Y023297D01*
X034078Y023139D02*
X033978Y023139D01*
X033978Y022980D02*
X034078Y022980D01*
X033344Y022980D02*
X033103Y022980D01*
X033086Y023614D02*
X032953Y023614D01*
X032953Y023773D02*
X033154Y023773D01*
X033303Y023931D02*
X032953Y023931D01*
X035328Y021871D02*
X035753Y021871D01*
X035754Y021871D02*
X035701Y021799D01*
X035660Y021719D01*
X035632Y021633D01*
X035619Y021550D01*
X036528Y021550D01*
X036528Y021450D01*
X035619Y021450D01*
X035632Y021367D01*
X035660Y021281D01*
X035701Y021201D01*
X035754Y021129D01*
X035817Y021065D01*
X035890Y021012D01*
X035970Y020972D01*
X036055Y020944D01*
X036143Y020930D01*
X036528Y020930D01*
X036528Y021450D01*
X036628Y021450D01*
X036628Y020930D01*
X037013Y020930D01*
X037102Y020944D01*
X037187Y020972D01*
X037267Y021012D01*
X037340Y021065D01*
X037403Y021129D01*
X037456Y021201D01*
X037497Y021281D01*
X037524Y021367D01*
X037538Y021450D01*
X036628Y021450D01*
X036628Y021550D01*
X036528Y021550D01*
X036528Y022070D01*
X036143Y022070D01*
X036055Y022056D01*
X035970Y022028D01*
X035890Y021988D01*
X035817Y021935D01*
X035754Y021871D01*
X035658Y021712D02*
X035328Y021712D01*
X035328Y021554D02*
X035620Y021554D01*
X035628Y021395D02*
X035328Y021395D01*
X035328Y021237D02*
X035683Y021237D01*
X035804Y021078D02*
X035328Y021078D01*
X035243Y020920D02*
X037828Y020920D01*
X037828Y021078D02*
X037352Y021078D01*
X037474Y021237D02*
X037828Y021237D01*
X037828Y021395D02*
X037529Y021395D01*
X037538Y021550D02*
X037524Y021633D01*
X037497Y021719D01*
X037456Y021799D01*
X037403Y021871D01*
X037340Y021935D01*
X037267Y021988D01*
X037187Y022028D01*
X037102Y022056D01*
X037013Y022070D01*
X036628Y022070D01*
X036628Y021550D01*
X037538Y021550D01*
X037537Y021554D02*
X037828Y021554D01*
X037746Y021712D02*
X037499Y021712D01*
X037588Y021871D02*
X037404Y021871D01*
X037429Y022029D02*
X037185Y022029D01*
X036628Y022029D02*
X036528Y022029D01*
X036528Y021871D02*
X036628Y021871D01*
X036628Y021712D02*
X036528Y021712D01*
X036528Y021554D02*
X036628Y021554D01*
X036628Y021395D02*
X036528Y021395D01*
X036528Y021237D02*
X036628Y021237D01*
X036628Y021078D02*
X036528Y021078D01*
X036063Y020170D02*
X035831Y020074D01*
X035654Y019897D01*
X035558Y019665D01*
X035558Y019415D01*
X035654Y019183D01*
X035831Y019006D01*
X036063Y018910D01*
X037094Y018910D01*
X037325Y019006D01*
X037502Y019183D01*
X037598Y019415D01*
X037598Y019665D01*
X037502Y019897D01*
X037325Y020074D01*
X037094Y020170D01*
X036063Y020170D01*
X035959Y020127D02*
X034647Y020127D01*
X034881Y019969D02*
X035726Y019969D01*
X035618Y019810D02*
X034988Y019810D01*
X035048Y019652D02*
X035558Y019652D01*
X035558Y019493D02*
X035048Y019493D01*
X035015Y019335D02*
X035592Y019335D01*
X035661Y019176D02*
X034945Y019176D01*
X034787Y019018D02*
X035820Y019018D01*
X037337Y019018D02*
X037828Y019018D01*
X037828Y019176D02*
X037495Y019176D01*
X037565Y019335D02*
X037828Y019335D01*
X037828Y019493D02*
X037598Y019493D01*
X037598Y019652D02*
X037828Y019652D01*
X037828Y019810D02*
X037538Y019810D01*
X037431Y019969D02*
X037828Y019969D01*
X037828Y020127D02*
X037197Y020127D01*
X037828Y020603D02*
X034926Y020603D01*
X035084Y020761D02*
X037828Y020761D01*
X035972Y022029D02*
X035477Y022029D01*
D35*
X021453Y017005D03*
X021203Y017380D03*
X019953Y016505D03*
X020203Y014255D03*
X018953Y013255D03*
X018953Y012755D03*
X016953Y013630D03*
X016453Y013630D03*
X018578Y014130D03*
X014078Y014505D03*
X014211Y011998D03*
D36*
X028828Y012130D02*
X031078Y012130D01*
X031078Y013630D01*
X031078Y012130D02*
X037078Y012130D01*
X037078Y009719D01*
X037063Y009703D01*
X036578Y013630D02*
X035578Y014630D01*
X033578Y014630D01*
X029078Y019130D01*
X028828Y019130D01*
X027155Y022524D02*
X027078Y022600D01*
X027078Y023255D01*
X026703Y023630D01*
X022578Y023630D01*
X022194Y024014D01*
X022194Y024689D01*
M02*
