G75*
G70*
%OFA0B0*%
%FSLAX24Y24*%
%IPPOS*%
%LPD*%
%AMOC8*
5,1,8,0,0,1.08239X$1,22.5*
%
%ADD10R,0.0600X0.0600*%
%ADD11OC8,0.0600*%
%ADD12C,0.0300*%
%ADD13C,0.0100*%
%ADD14C,0.0080*%
D10*
X001141Y010911D03*
D11*
X001141Y009911D03*
X001141Y008911D03*
X001141Y007911D03*
X001141Y006911D03*
X001141Y005911D03*
X001141Y004911D03*
D12*
X004541Y007311D03*
X004541Y007911D03*
X004541Y008511D03*
X005141Y008511D03*
X005741Y008511D03*
X005741Y007911D03*
X005741Y007311D03*
X005141Y007311D03*
X007541Y008811D03*
D13*
X007541Y009511D01*
X007141Y009911D01*
X002541Y009911D01*
X001541Y010911D01*
X001141Y010911D01*
X001141Y009911D02*
X003141Y007911D01*
X004541Y007911D01*
X004541Y007311D02*
X003341Y007311D01*
X001741Y008911D01*
X001141Y008911D01*
X001141Y007911D02*
X001541Y007911D01*
X003441Y006011D01*
X004941Y006011D01*
X005141Y006211D01*
X005141Y007311D01*
X005741Y007311D02*
X005741Y006211D01*
X005241Y005711D01*
X003341Y005711D01*
X002141Y006911D01*
X001141Y006911D01*
X001141Y005911D02*
X002741Y005911D01*
X003241Y005411D01*
X006041Y005411D01*
X007141Y006511D01*
X007141Y007611D01*
X006841Y007911D01*
X005741Y007911D01*
X005741Y008511D02*
X007241Y008511D01*
X007541Y008811D01*
D14*
X000281Y011771D02*
X000281Y004051D01*
X008001Y004051D01*
X008001Y011771D01*
X000281Y011771D01*
X000281Y011765D02*
X008001Y011765D01*
X008001Y011686D02*
X000281Y011686D01*
X000281Y011608D02*
X006813Y011608D01*
X006705Y011563D02*
X006488Y011347D01*
X006371Y011064D01*
X006371Y010757D01*
X006488Y010474D01*
X006705Y010258D01*
X006988Y010141D01*
X007294Y010141D01*
X007577Y010258D01*
X007794Y010474D01*
X007911Y010757D01*
X007911Y011064D01*
X007794Y011347D01*
X007577Y011563D01*
X007294Y011680D01*
X006988Y011680D01*
X006705Y011563D01*
X006671Y011529D02*
X000281Y011529D01*
X000281Y011451D02*
X006592Y011451D01*
X006514Y011372D02*
X000281Y011372D01*
X000281Y011294D02*
X000754Y011294D01*
X000721Y011260D02*
X000721Y010561D01*
X000791Y010491D01*
X001491Y010491D01*
X001561Y010561D01*
X001561Y010650D01*
X002471Y009741D01*
X002611Y009741D01*
X007071Y009741D01*
X007371Y009440D01*
X007371Y009022D01*
X007312Y008963D01*
X007271Y008864D01*
X007271Y008781D01*
X007171Y008681D01*
X006736Y008681D01*
X006736Y008861D01*
X006736Y009435D01*
X006666Y009506D01*
X003616Y009506D01*
X003546Y009435D01*
X003546Y008861D01*
X003546Y008861D01*
X003546Y008081D01*
X003211Y008081D01*
X001558Y009734D01*
X001561Y009737D01*
X001561Y010084D01*
X001315Y010331D01*
X000967Y010331D01*
X000721Y010084D01*
X000721Y009737D01*
X000967Y009491D01*
X001315Y009491D01*
X001318Y009493D01*
X001731Y009081D01*
X001561Y009081D01*
X001561Y009084D01*
X001315Y009331D01*
X000967Y009331D01*
X000721Y009084D01*
X000721Y008737D01*
X000967Y008491D01*
X001315Y008491D01*
X001561Y008737D01*
X001561Y008741D01*
X001671Y008741D01*
X003271Y007141D01*
X003411Y007141D01*
X003546Y007141D01*
X003546Y006960D01*
X003546Y006386D01*
X003546Y006386D01*
X003616Y006316D01*
X004191Y006316D01*
X004971Y006316D01*
X004971Y006281D01*
X004871Y006181D01*
X003511Y006181D01*
X001711Y007981D01*
X001611Y008081D01*
X001561Y008081D01*
X001561Y008084D01*
X001315Y008331D01*
X000967Y008331D01*
X000721Y008084D01*
X000721Y007737D01*
X000967Y007491D01*
X001315Y007491D01*
X001518Y007693D01*
X002131Y007081D01*
X002071Y007081D01*
X001561Y007081D01*
X001561Y007084D01*
X001315Y007331D01*
X000967Y007331D01*
X000721Y007084D01*
X000721Y006737D01*
X000967Y006491D01*
X001315Y006491D01*
X001561Y006737D01*
X001561Y006741D01*
X002071Y006741D01*
X002731Y006081D01*
X002671Y006081D01*
X001561Y006081D01*
X001561Y006084D01*
X001315Y006331D01*
X000967Y006331D01*
X000721Y006084D01*
X000721Y005737D01*
X000967Y005491D01*
X001315Y005491D01*
X001561Y005737D01*
X001561Y005741D01*
X002671Y005741D01*
X003071Y005340D01*
X003171Y005241D01*
X005971Y005241D01*
X006111Y005241D01*
X007211Y006341D01*
X007311Y006440D01*
X007311Y007540D01*
X007311Y007681D01*
X007011Y007981D01*
X006911Y008081D01*
X006736Y008081D01*
X006736Y008341D01*
X007171Y008341D01*
X007311Y008341D01*
X007511Y008541D01*
X007595Y008541D01*
X007694Y008582D01*
X007770Y008658D01*
X007811Y008757D01*
X007811Y008864D01*
X007770Y008963D01*
X007711Y009022D01*
X007711Y009440D01*
X007711Y009581D01*
X007311Y009981D01*
X007211Y010081D01*
X002611Y010081D01*
X001711Y010981D01*
X001611Y011081D01*
X001561Y011081D01*
X001561Y011260D01*
X001491Y011331D01*
X000791Y011331D01*
X000721Y011260D01*
X000721Y011215D02*
X000281Y011215D01*
X000281Y011137D02*
X000721Y011137D01*
X000721Y011058D02*
X000281Y011058D01*
X000281Y010979D02*
X000721Y010979D01*
X000721Y010901D02*
X000281Y010901D01*
X000281Y010822D02*
X000721Y010822D01*
X000721Y010744D02*
X000281Y010744D01*
X000281Y010665D02*
X000721Y010665D01*
X000721Y010587D02*
X000281Y010587D01*
X000281Y010508D02*
X000774Y010508D01*
X000741Y010411D02*
X000541Y010211D01*
X000541Y005511D01*
X001141Y004911D01*
X001101Y004932D02*
X000281Y004932D01*
X000281Y005010D02*
X000701Y005010D01*
X000701Y004950D02*
X001101Y004950D01*
X001101Y004871D01*
X000701Y004871D01*
X000701Y004728D01*
X000959Y004471D01*
X001101Y004471D01*
X001101Y004870D01*
X001181Y004870D01*
X001181Y004471D01*
X001323Y004471D01*
X001581Y004728D01*
X001581Y004871D01*
X001181Y004871D01*
X001181Y004950D01*
X001581Y004950D01*
X001581Y005093D01*
X001323Y005351D01*
X001181Y005351D01*
X001181Y004951D01*
X001101Y004951D01*
X001101Y005351D01*
X000959Y005351D01*
X000701Y005093D01*
X000701Y004950D01*
X000701Y004853D02*
X000281Y004853D01*
X000281Y004775D02*
X000701Y004775D01*
X000733Y004696D02*
X000281Y004696D01*
X000281Y004617D02*
X000812Y004617D01*
X000891Y004539D02*
X000281Y004539D01*
X000281Y004460D02*
X006502Y004460D01*
X006488Y004474D02*
X006705Y004258D01*
X006988Y004141D01*
X007294Y004141D01*
X007577Y004258D01*
X007794Y004474D01*
X007911Y004757D01*
X007911Y005064D01*
X007794Y005347D01*
X007577Y005563D01*
X007294Y005680D01*
X006988Y005680D01*
X006705Y005563D01*
X006488Y005347D01*
X006371Y005064D01*
X006371Y004757D01*
X006488Y004474D01*
X006462Y004539D02*
X001392Y004539D01*
X001470Y004617D02*
X006429Y004617D01*
X006397Y004696D02*
X001549Y004696D01*
X001581Y004775D02*
X006371Y004775D01*
X006371Y004853D02*
X001581Y004853D01*
X001581Y005010D02*
X006371Y005010D01*
X006371Y004932D02*
X001181Y004932D01*
X001181Y005010D02*
X001101Y005010D01*
X001101Y005089D02*
X001181Y005089D01*
X001181Y005167D02*
X001101Y005167D01*
X001101Y005246D02*
X001181Y005246D01*
X001181Y005324D02*
X001101Y005324D01*
X000933Y005324D02*
X000281Y005324D01*
X000281Y005246D02*
X000854Y005246D01*
X000776Y005167D02*
X000281Y005167D01*
X000281Y005089D02*
X000701Y005089D01*
X000898Y005560D02*
X000281Y005560D01*
X000281Y005639D02*
X000819Y005639D01*
X000741Y005717D02*
X000281Y005717D01*
X000281Y005796D02*
X000721Y005796D01*
X000721Y005874D02*
X000281Y005874D01*
X000281Y005953D02*
X000721Y005953D01*
X000721Y006031D02*
X000281Y006031D01*
X000281Y006110D02*
X000746Y006110D01*
X000825Y006188D02*
X000281Y006188D01*
X000281Y006267D02*
X000903Y006267D01*
X000955Y006502D02*
X000281Y006502D01*
X000281Y006424D02*
X002387Y006424D01*
X002309Y006502D02*
X001327Y006502D01*
X001406Y006581D02*
X002230Y006581D01*
X002152Y006660D02*
X001484Y006660D01*
X001561Y006738D02*
X002073Y006738D01*
X002080Y007131D02*
X001515Y007131D01*
X001436Y007209D02*
X002002Y007209D01*
X001923Y007288D02*
X001358Y007288D01*
X001348Y007524D02*
X001688Y007524D01*
X001609Y007602D02*
X001427Y007602D01*
X001505Y007681D02*
X001531Y007681D01*
X001766Y007445D02*
X000281Y007445D01*
X000281Y007366D02*
X001845Y007366D01*
X002011Y007681D02*
X002731Y007681D01*
X002809Y007602D02*
X002090Y007602D01*
X002168Y007524D02*
X002888Y007524D01*
X002966Y007445D02*
X002247Y007445D01*
X002326Y007366D02*
X003045Y007366D01*
X003123Y007288D02*
X002404Y007288D01*
X002483Y007209D02*
X003202Y007209D01*
X003546Y007131D02*
X002561Y007131D01*
X002640Y007052D02*
X003546Y007052D01*
X003546Y006974D02*
X002718Y006974D01*
X002797Y006895D02*
X003546Y006895D01*
X003546Y006960D02*
X003546Y006960D01*
X003546Y006817D02*
X002875Y006817D01*
X002954Y006738D02*
X003546Y006738D01*
X003546Y006660D02*
X003032Y006660D01*
X003111Y006581D02*
X003546Y006581D01*
X003546Y006502D02*
X003190Y006502D01*
X003268Y006424D02*
X003546Y006424D01*
X003587Y006345D02*
X003347Y006345D01*
X003425Y006267D02*
X004957Y006267D01*
X004878Y006188D02*
X003504Y006188D01*
X002930Y005481D02*
X000281Y005481D01*
X000281Y005403D02*
X003008Y005403D01*
X003087Y005324D02*
X001349Y005324D01*
X001428Y005246D02*
X003165Y005246D01*
X002851Y005560D02*
X001384Y005560D01*
X001463Y005639D02*
X002773Y005639D01*
X002694Y005717D02*
X001542Y005717D01*
X001536Y006110D02*
X002701Y006110D01*
X002623Y006188D02*
X001457Y006188D01*
X001379Y006267D02*
X002544Y006267D01*
X002466Y006345D02*
X000281Y006345D01*
X000281Y006581D02*
X000877Y006581D01*
X000798Y006660D02*
X000281Y006660D01*
X000281Y006738D02*
X000721Y006738D01*
X000721Y006817D02*
X000281Y006817D01*
X000281Y006895D02*
X000721Y006895D01*
X000721Y006974D02*
X000281Y006974D01*
X000281Y007052D02*
X000721Y007052D01*
X000767Y007131D02*
X000281Y007131D01*
X000281Y007209D02*
X000846Y007209D01*
X000925Y007288D02*
X000281Y007288D01*
X000281Y007524D02*
X000934Y007524D01*
X000856Y007602D02*
X000281Y007602D01*
X000281Y007681D02*
X000777Y007681D01*
X000721Y007759D02*
X000281Y007759D01*
X000281Y007838D02*
X000721Y007838D01*
X000721Y007916D02*
X000281Y007916D01*
X000281Y007995D02*
X000721Y007995D01*
X000721Y008073D02*
X000281Y008073D01*
X000281Y008152D02*
X000789Y008152D01*
X000867Y008230D02*
X000281Y008230D01*
X000281Y008309D02*
X000946Y008309D01*
X000913Y008545D02*
X000281Y008545D01*
X000281Y008623D02*
X000835Y008623D01*
X000756Y008702D02*
X000281Y008702D01*
X000281Y008780D02*
X000721Y008780D01*
X000721Y008859D02*
X000281Y008859D01*
X000281Y008937D02*
X000721Y008937D01*
X000721Y009016D02*
X000281Y009016D01*
X000281Y009094D02*
X000731Y009094D01*
X000810Y009173D02*
X000281Y009173D01*
X000281Y009251D02*
X000888Y009251D01*
X000967Y009330D02*
X000281Y009330D01*
X000281Y009409D02*
X001403Y009409D01*
X001324Y009487D02*
X000281Y009487D01*
X000281Y009566D02*
X000892Y009566D01*
X000813Y009644D02*
X000281Y009644D01*
X000281Y009723D02*
X000735Y009723D01*
X000721Y009801D02*
X000281Y009801D01*
X000281Y009880D02*
X000721Y009880D01*
X000721Y009958D02*
X000281Y009958D01*
X000281Y010037D02*
X000721Y010037D01*
X000752Y010115D02*
X000281Y010115D01*
X000281Y010194D02*
X000831Y010194D01*
X000909Y010273D02*
X000281Y010273D01*
X000281Y010351D02*
X001860Y010351D01*
X001782Y010430D02*
X000281Y010430D01*
X000741Y010411D02*
X001441Y010411D01*
X002241Y009611D01*
X005041Y009611D01*
X005141Y009511D01*
X005141Y008511D01*
X005471Y008545D02*
X004261Y008545D01*
X004261Y008623D02*
X005496Y008623D01*
X005512Y008663D02*
X005471Y008564D01*
X005471Y008457D01*
X005512Y008358D01*
X005588Y008282D01*
X005687Y008241D01*
X005795Y008241D01*
X005894Y008282D01*
X005953Y008341D01*
X006021Y008341D01*
X006021Y008081D01*
X005953Y008081D01*
X005894Y008139D01*
X005795Y008181D01*
X005687Y008181D01*
X005588Y008139D01*
X005512Y008063D01*
X005471Y007964D01*
X005471Y007857D01*
X005512Y007758D01*
X005588Y007682D01*
X005687Y007641D01*
X005795Y007641D01*
X005894Y007682D01*
X005953Y007741D01*
X006021Y007741D01*
X006021Y007031D01*
X005911Y007031D01*
X005911Y007099D01*
X005970Y007158D01*
X006011Y007257D01*
X006011Y007364D01*
X005970Y007463D01*
X005894Y007539D01*
X005795Y007581D01*
X005687Y007581D01*
X005588Y007539D01*
X005512Y007463D01*
X005471Y007364D01*
X005471Y007257D01*
X005512Y007158D01*
X005571Y007099D01*
X005571Y007031D01*
X005311Y007031D01*
X005311Y007099D01*
X005370Y007158D01*
X005411Y007257D01*
X005411Y007364D01*
X005370Y007463D01*
X005294Y007539D01*
X005195Y007581D01*
X005087Y007581D01*
X004988Y007539D01*
X004912Y007463D01*
X004871Y007364D01*
X004871Y007257D01*
X004912Y007158D01*
X004971Y007099D01*
X004971Y007031D01*
X004261Y007031D01*
X004261Y007141D01*
X004329Y007141D01*
X004388Y007082D01*
X004487Y007041D01*
X004595Y007041D01*
X004694Y007082D01*
X004770Y007158D01*
X004811Y007257D01*
X004811Y007364D01*
X004770Y007463D01*
X004694Y007539D01*
X004595Y007581D01*
X004487Y007581D01*
X004388Y007539D01*
X004329Y007481D01*
X004261Y007481D01*
X004261Y007741D01*
X004329Y007741D01*
X004388Y007682D01*
X004487Y007641D01*
X004595Y007641D01*
X004694Y007682D01*
X004770Y007758D01*
X004811Y007857D01*
X004811Y007964D01*
X004770Y008063D01*
X004694Y008139D01*
X004595Y008181D01*
X004487Y008181D01*
X004388Y008139D01*
X004329Y008081D01*
X004261Y008081D01*
X004261Y008791D01*
X006021Y008791D01*
X006021Y008681D01*
X005953Y008681D01*
X005894Y008739D01*
X005795Y008781D01*
X005687Y008781D01*
X005588Y008739D01*
X005512Y008663D01*
X005550Y008702D02*
X004261Y008702D01*
X004261Y008780D02*
X005687Y008780D01*
X005795Y008780D02*
X006021Y008780D01*
X006021Y008702D02*
X005932Y008702D01*
X005921Y008309D02*
X006021Y008309D01*
X006021Y008230D02*
X004261Y008230D01*
X004261Y008152D02*
X004418Y008152D01*
X004261Y008309D02*
X005561Y008309D01*
X005500Y008388D02*
X004261Y008388D01*
X004261Y008466D02*
X005471Y008466D01*
X005618Y008152D02*
X004664Y008152D01*
X004760Y008073D02*
X005522Y008073D01*
X005484Y007995D02*
X004798Y007995D01*
X004811Y007916D02*
X005471Y007916D01*
X005479Y007838D02*
X004803Y007838D01*
X004771Y007759D02*
X005512Y007759D01*
X005591Y007681D02*
X004692Y007681D01*
X004710Y007524D02*
X004972Y007524D01*
X004905Y007445D02*
X004778Y007445D01*
X004810Y007366D02*
X004872Y007366D01*
X004871Y007288D02*
X004811Y007288D01*
X004791Y007209D02*
X004891Y007209D01*
X004939Y007131D02*
X004743Y007131D01*
X004623Y007052D02*
X004971Y007052D01*
X005311Y007052D02*
X005571Y007052D01*
X005539Y007131D02*
X005343Y007131D01*
X005391Y007209D02*
X005491Y007209D01*
X005471Y007288D02*
X005411Y007288D01*
X005410Y007366D02*
X005472Y007366D01*
X005505Y007445D02*
X005378Y007445D01*
X005310Y007524D02*
X005572Y007524D01*
X005910Y007524D02*
X006021Y007524D01*
X006021Y007602D02*
X004261Y007602D01*
X004261Y007524D02*
X004372Y007524D01*
X004391Y007681D02*
X004261Y007681D01*
X004261Y007131D02*
X004339Y007131D01*
X004261Y007052D02*
X004459Y007052D01*
X004191Y006316D02*
X004191Y006316D01*
X003546Y008152D02*
X003140Y008152D01*
X003062Y008230D02*
X003546Y008230D01*
X003546Y008309D02*
X002983Y008309D01*
X002904Y008388D02*
X003546Y008388D01*
X003546Y008466D02*
X002826Y008466D01*
X002747Y008545D02*
X003546Y008545D01*
X003546Y008623D02*
X002669Y008623D01*
X002590Y008702D02*
X003546Y008702D01*
X003546Y008780D02*
X002512Y008780D01*
X002433Y008859D02*
X003546Y008859D01*
X003546Y008937D02*
X002355Y008937D01*
X002276Y009016D02*
X003546Y009016D01*
X003546Y009094D02*
X002198Y009094D01*
X002119Y009173D02*
X003546Y009173D01*
X003546Y009251D02*
X002041Y009251D01*
X001962Y009330D02*
X003546Y009330D01*
X003546Y009409D02*
X001883Y009409D01*
X001805Y009487D02*
X003598Y009487D01*
X002577Y010115D02*
X008001Y010115D01*
X008001Y010037D02*
X007255Y010037D01*
X007311Y009981D02*
X007311Y009981D01*
X007334Y009958D02*
X008001Y009958D01*
X008001Y009880D02*
X007412Y009880D01*
X007491Y009801D02*
X008001Y009801D01*
X008001Y009723D02*
X007569Y009723D01*
X007648Y009644D02*
X008001Y009644D01*
X008001Y009566D02*
X007711Y009566D01*
X007711Y009487D02*
X008001Y009487D01*
X008001Y009409D02*
X007711Y009409D01*
X007711Y009330D02*
X008001Y009330D01*
X008001Y009251D02*
X007711Y009251D01*
X007711Y009173D02*
X008001Y009173D01*
X008001Y009094D02*
X007711Y009094D01*
X007718Y009016D02*
X008001Y009016D01*
X008001Y008937D02*
X007781Y008937D01*
X007811Y008859D02*
X008001Y008859D01*
X008001Y008780D02*
X007811Y008780D01*
X007788Y008702D02*
X008001Y008702D01*
X008001Y008623D02*
X007736Y008623D01*
X007605Y008545D02*
X008001Y008545D01*
X008001Y008466D02*
X007437Y008466D01*
X007358Y008388D02*
X008001Y008388D01*
X008001Y008309D02*
X006736Y008309D01*
X006736Y008230D02*
X008001Y008230D01*
X008001Y008152D02*
X006736Y008152D01*
X006919Y008073D02*
X008001Y008073D01*
X008001Y007995D02*
X006997Y007995D01*
X007076Y007916D02*
X008001Y007916D01*
X008001Y007838D02*
X007154Y007838D01*
X007233Y007759D02*
X008001Y007759D01*
X008001Y007681D02*
X007311Y007681D01*
X007311Y007602D02*
X008001Y007602D01*
X008001Y007524D02*
X007311Y007524D01*
X007311Y007445D02*
X008001Y007445D01*
X008001Y007366D02*
X007311Y007366D01*
X007311Y007288D02*
X008001Y007288D01*
X008001Y007209D02*
X007311Y007209D01*
X007311Y007131D02*
X008001Y007131D01*
X008001Y007052D02*
X007311Y007052D01*
X007311Y006974D02*
X008001Y006974D01*
X008001Y006895D02*
X007311Y006895D01*
X007311Y006817D02*
X008001Y006817D01*
X008001Y006738D02*
X007311Y006738D01*
X007311Y006660D02*
X008001Y006660D01*
X008001Y006581D02*
X007311Y006581D01*
X007311Y006502D02*
X008001Y006502D01*
X008001Y006424D02*
X007295Y006424D01*
X007216Y006345D02*
X008001Y006345D01*
X008001Y006267D02*
X007138Y006267D01*
X007059Y006188D02*
X008001Y006188D01*
X008001Y006110D02*
X006981Y006110D01*
X006902Y006031D02*
X008001Y006031D01*
X008001Y005953D02*
X006824Y005953D01*
X006745Y005874D02*
X008001Y005874D01*
X008001Y005796D02*
X006667Y005796D01*
X006588Y005717D02*
X008001Y005717D01*
X008001Y005639D02*
X007396Y005639D01*
X007580Y005560D02*
X008001Y005560D01*
X008001Y005481D02*
X007659Y005481D01*
X007738Y005403D02*
X008001Y005403D01*
X008001Y005324D02*
X007803Y005324D01*
X007836Y005246D02*
X008001Y005246D01*
X008001Y005167D02*
X007868Y005167D01*
X007901Y005089D02*
X008001Y005089D01*
X008001Y005010D02*
X007911Y005010D01*
X007911Y004932D02*
X008001Y004932D01*
X008001Y004853D02*
X007911Y004853D01*
X007911Y004775D02*
X008001Y004775D01*
X008001Y004696D02*
X007886Y004696D01*
X007853Y004617D02*
X008001Y004617D01*
X008001Y004539D02*
X007820Y004539D01*
X007780Y004460D02*
X008001Y004460D01*
X008001Y004382D02*
X007701Y004382D01*
X007623Y004303D02*
X008001Y004303D01*
X008001Y004225D02*
X007497Y004225D01*
X007308Y004146D02*
X008001Y004146D01*
X008001Y004068D02*
X000281Y004068D01*
X000281Y004146D02*
X006974Y004146D01*
X006785Y004225D02*
X000281Y004225D01*
X000281Y004303D02*
X006660Y004303D01*
X006581Y004382D02*
X000281Y004382D01*
X001101Y004539D02*
X001181Y004539D01*
X001181Y004617D02*
X001101Y004617D01*
X001101Y004696D02*
X001181Y004696D01*
X001181Y004775D02*
X001101Y004775D01*
X001101Y004853D02*
X001181Y004853D01*
X001507Y005167D02*
X006414Y005167D01*
X006382Y005089D02*
X001581Y005089D01*
X001933Y007759D02*
X002652Y007759D01*
X002574Y007838D02*
X001854Y007838D01*
X001776Y007916D02*
X002495Y007916D01*
X002416Y007995D02*
X001697Y007995D01*
X001619Y008073D02*
X002338Y008073D01*
X002259Y008152D02*
X001494Y008152D01*
X001415Y008230D02*
X002181Y008230D01*
X002102Y008309D02*
X001337Y008309D01*
X001369Y008545D02*
X001867Y008545D01*
X001945Y008466D02*
X000281Y008466D01*
X000281Y008388D02*
X002024Y008388D01*
X001788Y008623D02*
X001448Y008623D01*
X001526Y008702D02*
X001710Y008702D01*
X001717Y009094D02*
X001551Y009094D01*
X001473Y009173D02*
X001638Y009173D01*
X001560Y009251D02*
X001394Y009251D01*
X001316Y009330D02*
X001481Y009330D01*
X001726Y009566D02*
X007246Y009566D01*
X007324Y009487D02*
X006684Y009487D01*
X006736Y009409D02*
X007371Y009409D01*
X007371Y009330D02*
X006736Y009330D01*
X006736Y009251D02*
X007371Y009251D01*
X007371Y009173D02*
X006736Y009173D01*
X006736Y009094D02*
X007371Y009094D01*
X007365Y009016D02*
X006736Y009016D01*
X006736Y008937D02*
X007301Y008937D01*
X007271Y008859D02*
X006736Y008859D01*
X006736Y008780D02*
X007270Y008780D01*
X007192Y008702D02*
X006736Y008702D01*
X007167Y009644D02*
X001648Y009644D01*
X001569Y009723D02*
X007088Y009723D01*
X006859Y010194D02*
X002498Y010194D01*
X002419Y010273D02*
X006690Y010273D01*
X006612Y010351D02*
X002341Y010351D01*
X002262Y010430D02*
X006533Y010430D01*
X006474Y010508D02*
X002184Y010508D01*
X002105Y010587D02*
X006442Y010587D01*
X006409Y010665D02*
X002027Y010665D01*
X001948Y010744D02*
X006377Y010744D01*
X006371Y010822D02*
X001870Y010822D01*
X001791Y010901D02*
X006371Y010901D01*
X006371Y010979D02*
X001713Y010979D01*
X001634Y011058D02*
X006371Y011058D01*
X006401Y011137D02*
X001561Y011137D01*
X001561Y011215D02*
X006434Y011215D01*
X006466Y011294D02*
X001528Y011294D01*
X001561Y010587D02*
X001624Y010587D01*
X001703Y010508D02*
X001508Y010508D01*
X001373Y010273D02*
X001939Y010273D01*
X002017Y010194D02*
X001452Y010194D01*
X001530Y010115D02*
X002096Y010115D01*
X002174Y010037D02*
X001561Y010037D01*
X001561Y009958D02*
X002253Y009958D01*
X002331Y009880D02*
X001561Y009880D01*
X001561Y009801D02*
X002410Y009801D01*
X005864Y008152D02*
X006021Y008152D01*
X006021Y007681D02*
X005892Y007681D01*
X005978Y007445D02*
X006021Y007445D01*
X006010Y007366D02*
X006021Y007366D01*
X006011Y007288D02*
X006021Y007288D01*
X006021Y007209D02*
X005991Y007209D01*
X006021Y007131D02*
X005943Y007131D01*
X005911Y007052D02*
X006021Y007052D01*
X006509Y005639D02*
X006887Y005639D01*
X006702Y005560D02*
X006431Y005560D01*
X006352Y005481D02*
X006623Y005481D01*
X006545Y005403D02*
X006274Y005403D01*
X006195Y005324D02*
X006479Y005324D01*
X006447Y005246D02*
X006117Y005246D01*
X007423Y010194D02*
X008001Y010194D01*
X008001Y010273D02*
X007592Y010273D01*
X007670Y010351D02*
X008001Y010351D01*
X008001Y010430D02*
X007749Y010430D01*
X007808Y010508D02*
X008001Y010508D01*
X008001Y010587D02*
X007840Y010587D01*
X007873Y010665D02*
X008001Y010665D01*
X008001Y010744D02*
X007905Y010744D01*
X007911Y010822D02*
X008001Y010822D01*
X008001Y010901D02*
X007911Y010901D01*
X007911Y010979D02*
X008001Y010979D01*
X008001Y011058D02*
X007911Y011058D01*
X007881Y011137D02*
X008001Y011137D01*
X008001Y011215D02*
X007848Y011215D01*
X007816Y011294D02*
X008001Y011294D01*
X008001Y011372D02*
X007768Y011372D01*
X007690Y011451D02*
X008001Y011451D01*
X008001Y011529D02*
X007611Y011529D01*
X007470Y011608D02*
X008001Y011608D01*
M02*
