G75*
G70*
%OFA0B0*%
%FSLAX24Y24*%
%IPPOS*%
%LPD*%
%AMOC8*
5,1,8,0,0,1.08239X$1,22.5*
%
%ADD10C,0.0000*%
%ADD11OC8,0.0560*%
%ADD12R,0.0640X0.0640*%
%ADD13C,0.0640*%
%ADD14C,0.0120*%
%ADD15C,0.0436*%
%ADD16C,0.0160*%
D10*
X000161Y000161D02*
X000161Y019846D01*
X019846Y019846D01*
X019846Y000161D01*
X000161Y000161D01*
D11*
X006460Y008323D03*
X006460Y009323D03*
X013350Y009323D03*
X013350Y008323D03*
X010004Y014228D03*
X010004Y015228D03*
D12*
X008025Y019157D03*
D13*
X009025Y019157D03*
X010025Y019157D03*
X011025Y019157D03*
X012025Y019157D03*
D14*
X012480Y019365D02*
X019666Y019365D01*
X019666Y019247D02*
X012525Y019247D01*
X012525Y019257D02*
X012449Y019441D01*
X012309Y019581D01*
X012125Y019657D01*
X011926Y019657D01*
X011742Y019581D01*
X011602Y019441D01*
X011525Y019257D01*
X011449Y019441D01*
X011309Y019581D01*
X011125Y019657D01*
X010926Y019657D01*
X010742Y019581D01*
X010602Y019441D01*
X010525Y019257D01*
X010449Y019441D01*
X010309Y019581D01*
X010125Y019657D01*
X009926Y019657D01*
X009742Y019581D01*
X009602Y019441D01*
X009525Y019257D01*
X009525Y019058D01*
X009602Y018874D01*
X009742Y018733D01*
X009926Y018657D01*
X010022Y018657D01*
X009881Y018516D01*
X009708Y018689D01*
X009613Y018728D01*
X009509Y018728D01*
X009241Y018728D01*
X009277Y018747D01*
X009338Y018791D01*
X009392Y018845D01*
X009436Y018906D01*
X009470Y018973D01*
X009494Y019045D01*
X009505Y019117D01*
X009066Y019117D01*
X009066Y019197D01*
X009505Y019197D01*
X009494Y019270D01*
X009470Y019342D01*
X009436Y019409D01*
X009392Y019470D01*
X009338Y019523D01*
X009277Y019568D01*
X009210Y019602D01*
X009138Y019625D01*
X009065Y019637D01*
X009065Y019198D01*
X008985Y019198D01*
X008985Y019637D01*
X008913Y019625D01*
X008841Y019602D01*
X008774Y019568D01*
X008713Y019523D01*
X008659Y019470D01*
X008615Y019409D01*
X008581Y019342D01*
X008557Y019270D01*
X008546Y019197D01*
X008985Y019197D01*
X008985Y019117D01*
X008546Y019117D01*
X008557Y019045D01*
X008581Y018973D01*
X008615Y018906D01*
X008659Y018845D01*
X008713Y018791D01*
X008774Y018747D01*
X008810Y018728D01*
X008491Y018728D01*
X008525Y018763D01*
X008525Y019552D01*
X008420Y019657D01*
X007631Y019657D01*
X007525Y019552D01*
X007525Y018763D01*
X007631Y018657D01*
X007765Y018657D01*
X007765Y018623D01*
X007805Y018528D01*
X008012Y018321D01*
X008085Y018248D01*
X008180Y018208D01*
X009453Y018208D01*
X009498Y018164D01*
X009498Y016214D01*
X009453Y016169D01*
X009361Y016169D01*
X009266Y016130D01*
X009069Y015933D01*
X008996Y015860D01*
X008956Y015764D01*
X008956Y013102D01*
X008837Y012982D01*
X008571Y012982D01*
X008570Y012985D01*
X008458Y013097D01*
X008311Y013158D01*
X008153Y013158D01*
X008007Y013097D01*
X007895Y012985D01*
X007834Y012839D01*
X007834Y012680D01*
X007895Y012534D01*
X008007Y012422D01*
X008153Y012362D01*
X008311Y012362D01*
X008458Y012422D01*
X008498Y012462D01*
X008996Y012462D01*
X009092Y012502D01*
X009165Y012575D01*
X009437Y012847D01*
X009476Y012942D01*
X009476Y013046D01*
X009476Y015605D01*
X009521Y015649D01*
X009613Y015649D01*
X009708Y015689D01*
X009781Y015762D01*
X009881Y015861D01*
X009980Y015762D01*
X010053Y015689D01*
X010055Y015688D01*
X009813Y015688D01*
X009544Y015419D01*
X009544Y015038D01*
X009813Y014768D01*
X010194Y014768D01*
X010334Y014908D01*
X010334Y014548D01*
X010194Y014688D01*
X009813Y014688D01*
X009544Y014419D01*
X009544Y014038D01*
X009813Y013768D01*
X010194Y013768D01*
X010334Y013908D01*
X010334Y012024D01*
X010334Y011921D01*
X010374Y011825D01*
X010571Y011628D01*
X010644Y011555D01*
X010739Y011515D01*
X012063Y011515D01*
X012140Y011438D01*
X012287Y011377D01*
X012445Y011377D01*
X012591Y011438D01*
X012703Y011550D01*
X012764Y011696D01*
X012764Y011855D01*
X012703Y012001D01*
X012591Y012113D01*
X012445Y012174D01*
X012370Y012174D01*
X012370Y012248D01*
X012310Y012395D01*
X012198Y012507D01*
X012051Y012567D01*
X011893Y012567D01*
X011747Y012507D01*
X011669Y012429D01*
X011100Y012429D01*
X011100Y015912D01*
X011061Y016007D01*
X010988Y016080D01*
X010692Y016376D01*
X010597Y016415D01*
X010510Y016415D01*
X010510Y017962D01*
X011778Y017962D01*
X011873Y018002D01*
X011947Y018075D01*
X012246Y018374D01*
X012285Y018470D01*
X012285Y018573D01*
X012285Y018724D01*
X012309Y018733D01*
X012449Y018874D01*
X012525Y019058D01*
X012525Y019257D01*
X012525Y019128D02*
X019666Y019128D01*
X019666Y019010D02*
X012505Y019010D01*
X012456Y018891D02*
X019666Y018891D01*
X019666Y018773D02*
X012348Y018773D01*
X012285Y018654D02*
X019666Y018654D01*
X019666Y018535D02*
X012285Y018535D01*
X012264Y018417D02*
X019666Y018417D01*
X019666Y018298D02*
X012170Y018298D01*
X012051Y018180D02*
X019666Y018180D01*
X019666Y018061D02*
X011933Y018061D01*
X011619Y018482D02*
X011173Y018482D01*
X011246Y018555D01*
X011285Y018651D01*
X011285Y018724D01*
X011309Y018733D01*
X011449Y018874D01*
X011525Y019058D01*
X011525Y019257D01*
X011525Y019058D01*
X011602Y018874D01*
X011742Y018733D01*
X011765Y018724D01*
X011765Y018629D01*
X011619Y018482D01*
X011672Y018535D02*
X011226Y018535D01*
X011285Y018654D02*
X011765Y018654D01*
X011703Y018773D02*
X011348Y018773D01*
X011456Y018891D02*
X011594Y018891D01*
X011545Y019010D02*
X011505Y019010D01*
X011525Y019128D02*
X011525Y019128D01*
X011525Y019247D02*
X011525Y019247D01*
X011480Y019365D02*
X011570Y019365D01*
X011645Y019484D02*
X011406Y019484D01*
X011258Y019602D02*
X011793Y019602D01*
X012258Y019602D02*
X019666Y019602D01*
X019666Y019666D02*
X019666Y000341D01*
X000341Y000341D01*
X000341Y019666D01*
X019666Y019666D01*
X019666Y019484D02*
X012406Y019484D01*
X010793Y019602D02*
X010258Y019602D01*
X010406Y019484D02*
X010645Y019484D01*
X010570Y019365D02*
X010480Y019365D01*
X010525Y019257D02*
X010525Y019058D01*
X010449Y018874D01*
X010309Y018733D01*
X010296Y018728D01*
X010683Y018728D01*
X010715Y018760D01*
X010602Y018874D01*
X010525Y019058D01*
X010525Y019257D01*
X010525Y019247D02*
X010525Y019247D01*
X010525Y019128D02*
X010525Y019128D01*
X010505Y019010D02*
X010545Y019010D01*
X010594Y018891D02*
X010456Y018891D01*
X010348Y018773D02*
X010703Y018773D01*
X010019Y018654D02*
X009743Y018654D01*
X009703Y018773D02*
X009312Y018773D01*
X009425Y018891D02*
X009594Y018891D01*
X009545Y019010D02*
X009482Y019010D01*
X009525Y019128D02*
X009066Y019128D01*
X008985Y019128D02*
X008525Y019128D01*
X008525Y019010D02*
X008569Y019010D01*
X008525Y018891D02*
X008626Y018891D01*
X008525Y018773D02*
X008738Y018773D01*
X008034Y018298D02*
X000341Y018298D01*
X000341Y018180D02*
X009482Y018180D01*
X009498Y018061D02*
X000341Y018061D01*
X000341Y017943D02*
X009498Y017943D01*
X009498Y017824D02*
X000341Y017824D01*
X000341Y017706D02*
X009498Y017706D01*
X009498Y017587D02*
X000341Y017587D01*
X000341Y017469D02*
X009498Y017469D01*
X009498Y017350D02*
X000341Y017350D01*
X000341Y017231D02*
X009498Y017231D01*
X009498Y017113D02*
X000341Y017113D01*
X000341Y016994D02*
X009498Y016994D01*
X009498Y016876D02*
X000341Y016876D01*
X000341Y016757D02*
X009498Y016757D01*
X009498Y016639D02*
X000341Y016639D01*
X000341Y016520D02*
X009498Y016520D01*
X009498Y016402D02*
X000341Y016402D01*
X000341Y016283D02*
X009498Y016283D01*
X009350Y016165D02*
X000341Y016165D01*
X000341Y016046D02*
X009182Y016046D01*
X009064Y015928D02*
X000341Y015928D01*
X000341Y015809D02*
X008975Y015809D01*
X008956Y015690D02*
X000341Y015690D01*
X000341Y015572D02*
X008956Y015572D01*
X008956Y015453D02*
X000341Y015453D01*
X000341Y015335D02*
X008956Y015335D01*
X008956Y015216D02*
X000341Y015216D01*
X000341Y015098D02*
X008956Y015098D01*
X008956Y014979D02*
X000341Y014979D01*
X000341Y014861D02*
X008956Y014861D01*
X008956Y014742D02*
X000341Y014742D01*
X000341Y014624D02*
X008956Y014624D01*
X008956Y014505D02*
X000341Y014505D01*
X000341Y014386D02*
X008956Y014386D01*
X008956Y014268D02*
X000341Y014268D01*
X000341Y014149D02*
X008956Y014149D01*
X008956Y014031D02*
X000341Y014031D01*
X000341Y013912D02*
X008956Y013912D01*
X008956Y013794D02*
X000341Y013794D01*
X000341Y013675D02*
X008956Y013675D01*
X008956Y013557D02*
X000341Y013557D01*
X000341Y013438D02*
X008956Y013438D01*
X008956Y013320D02*
X000341Y013320D01*
X000341Y013201D02*
X008956Y013201D01*
X008937Y013082D02*
X008472Y013082D01*
X007992Y013082D02*
X000341Y013082D01*
X000341Y012964D02*
X007886Y012964D01*
X007837Y012845D02*
X000341Y012845D01*
X000341Y012727D02*
X007834Y012727D01*
X007864Y012608D02*
X000341Y012608D01*
X000341Y012490D02*
X007939Y012490D01*
X008130Y012371D02*
X000341Y012371D01*
X000341Y012253D02*
X010334Y012253D01*
X010334Y012371D02*
X008335Y012371D01*
X009063Y012490D02*
X010334Y012490D01*
X010334Y012608D02*
X009198Y012608D01*
X009317Y012727D02*
X010334Y012727D01*
X010334Y012845D02*
X009436Y012845D01*
X009476Y012964D02*
X010334Y012964D01*
X010334Y013082D02*
X009476Y013082D01*
X009476Y013201D02*
X010334Y013201D01*
X010334Y013320D02*
X009476Y013320D01*
X009476Y013438D02*
X010334Y013438D01*
X010334Y013557D02*
X009476Y013557D01*
X009476Y013675D02*
X010334Y013675D01*
X010334Y013794D02*
X010220Y013794D01*
X009788Y013794D02*
X009476Y013794D01*
X009476Y013912D02*
X009669Y013912D01*
X009551Y014031D02*
X009476Y014031D01*
X009476Y014149D02*
X009544Y014149D01*
X009544Y014268D02*
X009476Y014268D01*
X009476Y014386D02*
X009544Y014386D01*
X009476Y014505D02*
X009630Y014505D01*
X009749Y014624D02*
X009476Y014624D01*
X009476Y014742D02*
X010334Y014742D01*
X010334Y014624D02*
X010259Y014624D01*
X010287Y014861D02*
X010334Y014861D01*
X009721Y014861D02*
X009476Y014861D01*
X009476Y014979D02*
X009602Y014979D01*
X009544Y015098D02*
X009476Y015098D01*
X009476Y015216D02*
X009544Y015216D01*
X009544Y015335D02*
X009476Y015335D01*
X009476Y015453D02*
X009578Y015453D01*
X009476Y015572D02*
X009697Y015572D01*
X009710Y015690D02*
X010052Y015690D01*
X009980Y015762D02*
X009980Y015762D01*
X009933Y015809D02*
X009828Y015809D01*
X010630Y016402D02*
X019666Y016402D01*
X019666Y016520D02*
X010510Y016520D01*
X010510Y016639D02*
X019666Y016639D01*
X019666Y016757D02*
X010510Y016757D01*
X010510Y016876D02*
X019666Y016876D01*
X019666Y016994D02*
X010510Y016994D01*
X010510Y017113D02*
X019666Y017113D01*
X019666Y017231D02*
X010510Y017231D01*
X010510Y017350D02*
X019666Y017350D01*
X019666Y017469D02*
X010510Y017469D01*
X010510Y017587D02*
X019666Y017587D01*
X019666Y017706D02*
X010510Y017706D01*
X010510Y017824D02*
X019666Y017824D01*
X019666Y017943D02*
X010510Y017943D01*
X009900Y018535D02*
X009861Y018535D01*
X009525Y019247D02*
X009497Y019247D01*
X009458Y019365D02*
X009570Y019365D01*
X009645Y019484D02*
X009378Y019484D01*
X009209Y019602D02*
X009793Y019602D01*
X009065Y019602D02*
X008985Y019602D01*
X008985Y019484D02*
X009065Y019484D01*
X009065Y019365D02*
X008985Y019365D01*
X008985Y019247D02*
X009065Y019247D01*
X008842Y019602D02*
X008475Y019602D01*
X008525Y019484D02*
X008673Y019484D01*
X008593Y019365D02*
X008525Y019365D01*
X008525Y019247D02*
X008554Y019247D01*
X007765Y018654D02*
X000341Y018654D01*
X000341Y018773D02*
X007525Y018773D01*
X007525Y018891D02*
X000341Y018891D01*
X000341Y019010D02*
X007525Y019010D01*
X007525Y019128D02*
X000341Y019128D01*
X000341Y019247D02*
X007525Y019247D01*
X007525Y019365D02*
X000341Y019365D01*
X000341Y019484D02*
X007525Y019484D01*
X007576Y019602D02*
X000341Y019602D01*
X000341Y018535D02*
X007802Y018535D01*
X007916Y018417D02*
X000341Y018417D01*
X000341Y012134D02*
X010334Y012134D01*
X010334Y012016D02*
X000341Y012016D01*
X000341Y011897D02*
X010344Y011897D01*
X010420Y011779D02*
X000341Y011779D01*
X000341Y011660D02*
X010539Y011660D01*
X010677Y011541D02*
X000341Y011541D01*
X000341Y011423D02*
X012177Y011423D01*
X012555Y011423D02*
X019666Y011423D01*
X019666Y011541D02*
X012695Y011541D01*
X012749Y011660D02*
X019666Y011660D01*
X019666Y011779D02*
X012764Y011779D01*
X012746Y011897D02*
X019666Y011897D01*
X019666Y012016D02*
X012689Y012016D01*
X012540Y012134D02*
X019666Y012134D01*
X019666Y012253D02*
X012369Y012253D01*
X012319Y012371D02*
X019666Y012371D01*
X019666Y012490D02*
X012215Y012490D01*
X011730Y012490D02*
X011100Y012490D01*
X011100Y012608D02*
X019666Y012608D01*
X019666Y012727D02*
X011100Y012727D01*
X011100Y012845D02*
X019666Y012845D01*
X019666Y012964D02*
X011100Y012964D01*
X011100Y013082D02*
X019666Y013082D01*
X019666Y013201D02*
X011100Y013201D01*
X011100Y013320D02*
X019666Y013320D01*
X019666Y013438D02*
X011100Y013438D01*
X011100Y013557D02*
X019666Y013557D01*
X019666Y013675D02*
X011100Y013675D01*
X011100Y013794D02*
X019666Y013794D01*
X019666Y013912D02*
X011100Y013912D01*
X011100Y014031D02*
X019666Y014031D01*
X019666Y014149D02*
X011100Y014149D01*
X011100Y014268D02*
X019666Y014268D01*
X019666Y014386D02*
X011100Y014386D01*
X011100Y014505D02*
X019666Y014505D01*
X019666Y014624D02*
X011100Y014624D01*
X011100Y014742D02*
X019666Y014742D01*
X019666Y014861D02*
X011100Y014861D01*
X011100Y014979D02*
X019666Y014979D01*
X019666Y015098D02*
X011100Y015098D01*
X011100Y015216D02*
X019666Y015216D01*
X019666Y015335D02*
X011100Y015335D01*
X011100Y015453D02*
X019666Y015453D01*
X019666Y015572D02*
X011100Y015572D01*
X011100Y015690D02*
X019666Y015690D01*
X019666Y015809D02*
X011100Y015809D01*
X011094Y015928D02*
X019666Y015928D01*
X019666Y016046D02*
X011022Y016046D01*
X010904Y016165D02*
X019666Y016165D01*
X019666Y016283D02*
X010785Y016283D01*
X019666Y011304D02*
X000341Y011304D01*
X000341Y011186D02*
X019666Y011186D01*
X019666Y011067D02*
X000341Y011067D01*
X000341Y010949D02*
X019666Y010949D01*
X019666Y010830D02*
X000341Y010830D01*
X000341Y010712D02*
X019666Y010712D01*
X019666Y010593D02*
X000341Y010593D01*
X000341Y010475D02*
X019666Y010475D01*
X019666Y010356D02*
X000341Y010356D01*
X000341Y010237D02*
X019666Y010237D01*
X019666Y010119D02*
X000341Y010119D01*
X000341Y010000D02*
X019666Y010000D01*
X019666Y009882D02*
X000341Y009882D01*
X000341Y009763D02*
X006251Y009763D01*
X006270Y009783D02*
X006000Y009513D01*
X006000Y009132D01*
X006270Y008863D01*
X006651Y008863D01*
X006920Y009132D01*
X006920Y009513D01*
X006651Y009783D01*
X006270Y009783D01*
X006132Y009645D02*
X000341Y009645D01*
X000341Y009526D02*
X006013Y009526D01*
X006000Y009408D02*
X000341Y009408D01*
X000341Y009289D02*
X006000Y009289D01*
X006000Y009171D02*
X000341Y009171D01*
X000341Y009052D02*
X006081Y009052D01*
X006199Y008933D02*
X000341Y008933D01*
X000341Y008815D02*
X019666Y008815D01*
X019666Y008933D02*
X013612Y008933D01*
X013541Y008863D02*
X013810Y009132D01*
X013810Y009513D01*
X013541Y009783D01*
X013160Y009783D01*
X012890Y009513D01*
X012890Y009132D01*
X013160Y008863D01*
X013541Y008863D01*
X013541Y008783D02*
X013160Y008783D01*
X012890Y008513D01*
X012890Y008132D01*
X013160Y007863D01*
X013541Y007863D01*
X013810Y008132D01*
X013810Y008513D01*
X013541Y008783D01*
X013627Y008696D02*
X019666Y008696D01*
X019666Y008578D02*
X013746Y008578D01*
X013810Y008459D02*
X019666Y008459D01*
X019666Y008341D02*
X013810Y008341D01*
X013810Y008222D02*
X019666Y008222D01*
X019666Y008104D02*
X013782Y008104D01*
X013663Y007985D02*
X019666Y007985D01*
X019666Y007867D02*
X013545Y007867D01*
X013156Y007867D02*
X006655Y007867D01*
X006651Y007863D02*
X006920Y008132D01*
X006920Y008513D01*
X006651Y008783D01*
X006270Y008783D01*
X006000Y008513D01*
X006000Y008132D01*
X006270Y007863D01*
X006651Y007863D01*
X006773Y007985D02*
X013037Y007985D01*
X012919Y008104D02*
X006892Y008104D01*
X006920Y008222D02*
X012890Y008222D01*
X012890Y008341D02*
X006920Y008341D01*
X006920Y008459D02*
X012890Y008459D01*
X012955Y008578D02*
X006856Y008578D01*
X006737Y008696D02*
X013073Y008696D01*
X013089Y008933D02*
X006722Y008933D01*
X006840Y009052D02*
X012970Y009052D01*
X012890Y009171D02*
X006920Y009171D01*
X006920Y009289D02*
X012890Y009289D01*
X012890Y009408D02*
X006920Y009408D01*
X006907Y009526D02*
X012903Y009526D01*
X013022Y009645D02*
X006789Y009645D01*
X006670Y009763D02*
X013140Y009763D01*
X013560Y009763D02*
X019666Y009763D01*
X019666Y009645D02*
X013679Y009645D01*
X013797Y009526D02*
X019666Y009526D01*
X019666Y009408D02*
X013810Y009408D01*
X013810Y009289D02*
X019666Y009289D01*
X019666Y009171D02*
X013810Y009171D01*
X013730Y009052D02*
X019666Y009052D01*
X019666Y007748D02*
X000341Y007748D01*
X000341Y007629D02*
X019666Y007629D01*
X019666Y007511D02*
X000341Y007511D01*
X000341Y007392D02*
X019666Y007392D01*
X019666Y007274D02*
X000341Y007274D01*
X000341Y007155D02*
X019666Y007155D01*
X019666Y007037D02*
X000341Y007037D01*
X000341Y006918D02*
X019666Y006918D01*
X019666Y006800D02*
X000341Y006800D01*
X000341Y006681D02*
X019666Y006681D01*
X019666Y006563D02*
X000341Y006563D01*
X000341Y006444D02*
X019666Y006444D01*
X019666Y006326D02*
X000341Y006326D01*
X000341Y006207D02*
X019666Y006207D01*
X019666Y006088D02*
X000341Y006088D01*
X000341Y005970D02*
X019666Y005970D01*
X019666Y005851D02*
X000341Y005851D01*
X000341Y005733D02*
X019666Y005733D01*
X019666Y005614D02*
X000341Y005614D01*
X000341Y005496D02*
X019666Y005496D01*
X019666Y005377D02*
X000341Y005377D01*
X000341Y005259D02*
X019666Y005259D01*
X019666Y005140D02*
X000341Y005140D01*
X000341Y005022D02*
X019666Y005022D01*
X019666Y004903D02*
X000341Y004903D01*
X000341Y004784D02*
X019666Y004784D01*
X019666Y004666D02*
X000341Y004666D01*
X000341Y004547D02*
X019666Y004547D01*
X019666Y004429D02*
X000341Y004429D01*
X000341Y004310D02*
X019666Y004310D01*
X019666Y004192D02*
X000341Y004192D01*
X000341Y004073D02*
X019666Y004073D01*
X019666Y003955D02*
X000341Y003955D01*
X000341Y003836D02*
X019666Y003836D01*
X019666Y003718D02*
X000341Y003718D01*
X000341Y003599D02*
X019666Y003599D01*
X019666Y003480D02*
X000341Y003480D01*
X000341Y003362D02*
X019666Y003362D01*
X019666Y003243D02*
X000341Y003243D01*
X000341Y003125D02*
X019666Y003125D01*
X019666Y003006D02*
X000341Y003006D01*
X000341Y002888D02*
X019666Y002888D01*
X019666Y002769D02*
X000341Y002769D01*
X000341Y002651D02*
X019666Y002651D01*
X019666Y002532D02*
X000341Y002532D01*
X000341Y002414D02*
X019666Y002414D01*
X019666Y002295D02*
X000341Y002295D01*
X000341Y002176D02*
X019666Y002176D01*
X019666Y002058D02*
X000341Y002058D01*
X000341Y001939D02*
X019666Y001939D01*
X019666Y001821D02*
X000341Y001821D01*
X000341Y001702D02*
X019666Y001702D01*
X019666Y001584D02*
X000341Y001584D01*
X000341Y001465D02*
X019666Y001465D01*
X019666Y001347D02*
X000341Y001347D01*
X000341Y001228D02*
X019666Y001228D01*
X019666Y001110D02*
X000341Y001110D01*
X000341Y000991D02*
X019666Y000991D01*
X019666Y000873D02*
X000341Y000873D01*
X000341Y000754D02*
X019666Y000754D01*
X019666Y000635D02*
X000341Y000635D01*
X000341Y000517D02*
X019666Y000517D01*
X019666Y000398D02*
X000341Y000398D01*
X000341Y007867D02*
X006266Y007867D01*
X006147Y007985D02*
X000341Y007985D01*
X000341Y008104D02*
X006029Y008104D01*
X006000Y008222D02*
X000341Y008222D01*
X000341Y008341D02*
X006000Y008341D01*
X006000Y008459D02*
X000341Y008459D01*
X000341Y008578D02*
X006065Y008578D01*
X006184Y008696D02*
X000341Y008696D01*
D15*
X008232Y012760D03*
X011972Y012169D03*
X012366Y011775D03*
D16*
X010791Y011775D01*
X010594Y011972D01*
X010594Y015712D01*
X010397Y015909D01*
X010201Y015909D01*
X010004Y016106D01*
X010004Y018271D01*
X010201Y018468D01*
X010791Y018468D01*
X011025Y018703D01*
X011025Y019157D01*
X012025Y019157D02*
X012025Y018521D01*
X011726Y018222D01*
X010397Y018222D01*
X010250Y018075D01*
X010250Y016303D01*
X010397Y016155D01*
X010545Y016155D01*
X010840Y015860D01*
X010840Y012317D01*
X010988Y012169D01*
X011972Y012169D01*
X009216Y012994D02*
X008945Y012722D01*
X008270Y012722D01*
X008232Y012760D01*
X009216Y012994D02*
X009216Y015712D01*
X009413Y015909D01*
X009561Y015909D01*
X009758Y016106D01*
X009758Y018271D01*
X009561Y018468D01*
X008232Y018468D01*
X008025Y018675D01*
X008025Y019157D01*
M02*
