G75*
G70*
%OFA0B0*%
%FSLAX24Y24*%
%IPPOS*%
%LPD*%
%AMOC8*
5,1,8,0,0,1.08239X$1,22.5*
%
%ADD10R,0.0592X0.0671*%
%ADD11R,0.1064X0.0867*%
%ADD12R,0.0986X0.0277*%
%ADD13C,0.0434*%
%ADD14OC8,0.0560*%
%ADD15R,0.0671X0.0867*%
%ADD16R,0.1576X0.0867*%
%ADD17R,0.0710X0.0631*%
%ADD18R,0.0434X0.0316*%
%ADD19R,0.0316X0.0434*%
%ADD20OC8,0.0680*%
%ADD21R,0.0217X0.0630*%
%ADD22R,0.2180X0.0840*%
%ADD23R,0.0671X0.0592*%
%ADD24R,0.0253X0.0533*%
%ADD25R,0.0328X0.0533*%
%ADD26R,0.0552X0.0552*%
%ADD27R,0.0946X0.0316*%
%ADD28R,0.0631X0.0474*%
D10*
X004658Y003598D03*
X005406Y003598D03*
X015997Y003948D03*
X016666Y003948D03*
X016666Y005348D03*
X015997Y005348D03*
X011966Y013048D03*
X011297Y013048D03*
X007566Y013048D03*
X006897Y013048D03*
D11*
X003466Y007600D03*
X001301Y007600D03*
X001301Y004096D03*
X003466Y004096D03*
D12*
X003505Y005218D03*
X003505Y005533D03*
X003505Y005848D03*
X003505Y006163D03*
X003505Y006477D03*
D13*
X002482Y006714D03*
X002482Y004981D03*
D14*
X013482Y008798D03*
X014482Y008798D03*
X015482Y008798D03*
X016482Y008798D03*
X017482Y008798D03*
X018482Y008798D03*
X019482Y008798D03*
X020482Y008798D03*
X021482Y008798D03*
X022482Y008798D03*
X023482Y008798D03*
X024482Y008798D03*
X025482Y008798D03*
X026482Y008798D03*
X027482Y008798D03*
X028482Y008798D03*
D15*
X003887Y010707D03*
X002982Y010707D03*
X002076Y010707D03*
D16*
X002982Y013188D03*
D17*
X009641Y010148D03*
X010822Y010148D03*
X004822Y009648D03*
X003641Y009648D03*
X002722Y009648D03*
X001541Y009648D03*
D18*
X013938Y005435D03*
X013938Y005120D03*
X013938Y004805D03*
X013938Y004490D03*
X013938Y004175D03*
X013938Y003860D03*
X014726Y003860D03*
X014726Y004175D03*
X014726Y004490D03*
X014726Y004805D03*
X014726Y005120D03*
X014726Y005435D03*
D19*
X014332Y005435D03*
X014332Y003860D03*
D20*
X010782Y003598D03*
X009782Y003598D03*
X008782Y003598D03*
X007782Y003598D03*
X006782Y003598D03*
X024532Y004348D03*
X025532Y004348D03*
X026532Y004348D03*
X027532Y004348D03*
X028532Y004348D03*
X028532Y005348D03*
X027532Y005348D03*
X026532Y005348D03*
X025532Y005348D03*
X024532Y005348D03*
D21*
X010145Y006308D03*
X009889Y006308D03*
X009633Y006308D03*
X009377Y006308D03*
X009122Y006308D03*
X008866Y006308D03*
X008610Y006308D03*
X008354Y006308D03*
X008098Y006308D03*
X007842Y006308D03*
X007586Y006308D03*
X007330Y006308D03*
X007074Y006308D03*
X006818Y006308D03*
X006818Y009187D03*
X007074Y009187D03*
X007330Y009187D03*
X007586Y009187D03*
X007842Y009187D03*
X008098Y009187D03*
X008354Y009187D03*
X008610Y009187D03*
X008866Y009187D03*
X009122Y009187D03*
X009377Y009187D03*
X009633Y009187D03*
X009889Y009187D03*
X010145Y009187D03*
D22*
X011232Y011598D03*
X007432Y011598D03*
D23*
X005732Y008982D03*
X005732Y008313D03*
X005732Y007482D03*
X005732Y006813D03*
X014132Y011474D03*
X015332Y011474D03*
X015332Y012222D03*
X014132Y012222D03*
X022282Y005182D03*
X022282Y004513D03*
D24*
X021539Y011414D03*
X021224Y011414D03*
X021224Y012181D03*
X021539Y012181D03*
X019139Y012181D03*
X018824Y012181D03*
X018824Y011414D03*
X019139Y011414D03*
D25*
X019492Y011414D03*
X018472Y011414D03*
X018472Y012181D03*
X019492Y012181D03*
X020872Y012181D03*
X021892Y012181D03*
X021892Y011414D03*
X020872Y011414D03*
D26*
X020445Y007648D03*
X019618Y007648D03*
X018445Y007648D03*
X017618Y007648D03*
X016445Y007648D03*
X015618Y007648D03*
X014445Y007648D03*
X013618Y007648D03*
X021618Y007648D03*
X022445Y007648D03*
X023618Y007648D03*
X024445Y007648D03*
X025618Y007648D03*
X026445Y007648D03*
X027618Y007648D03*
X028445Y007648D03*
D27*
X020755Y005498D03*
X020755Y004998D03*
X020755Y004498D03*
X020755Y003998D03*
X018708Y003998D03*
X018708Y004498D03*
X018708Y004998D03*
X018708Y005498D03*
D28*
X016499Y011474D03*
X017365Y011848D03*
X016499Y012222D03*
M02*
