%
M48
M72
T01C0.0200
T02C0.0320
T03C0.0354
T04C0.0400
%
T01
X4261Y5161
X5561Y6461
X5061Y6961
X4561Y7461
X4061Y7961
X3361Y7961
X2661Y7861
X2561Y8761
X3961Y7161
X6061Y8261
X6561Y8261
X7561Y7761
X8061Y7261
X10061Y6761
X10561Y6161
X11061Y6461
X10561Y4761
X7661Y4661
X7661Y2161
X12161Y1561
X14661Y2361
X14961Y5161
X14961Y5661
X11061Y8261
X12461Y10011
X6661Y10461
T02
X3361Y9411
X2361Y10411
X1361Y9411
X13961Y9411
X14961Y10411
X15961Y9411
T03
X14986Y6377
X14986Y4645
T04
X1161Y2661
X1161Y3661
X1161Y4661
X1161Y5661
X1161Y6661
X1161Y11461
X2161Y11461
X3161Y11461
X4161Y11461
X5161Y11461
X6161Y11461
X7161Y11461
X8161Y11461
X9161Y11461
X10161Y11461
X11161Y11461
X12161Y11461
X13161Y11461
X14161Y11461
X15161Y11461
X16161Y11461
X16161Y911
X15161Y911
X14161Y911
X13161Y911
X11661Y911
X10661Y911
X9661Y911
X8661Y911
X7661Y911
X6661Y911
M30
