G75*
G70*
%OFA0B0*%
%FSLAX24Y24*%
%IPPOS*%
%LPD*%
%AMOC8*
5,1,8,0,0,1.08239X$1,22.5*
%
%ADD10C,0.0640*%
%ADD11OC8,0.0640*%
%ADD12C,0.0160*%
%ADD13C,0.0400*%
D10*
X001682Y002218D02*
X001682Y002858D01*
X002682Y002858D02*
X002682Y002218D01*
X003682Y002218D02*
X003682Y002858D01*
X004682Y002858D02*
X004682Y002218D01*
X005682Y002218D02*
X005682Y002858D01*
X006682Y002858D02*
X006682Y002218D01*
X007682Y002218D02*
X007682Y002858D01*
X008682Y002858D02*
X008682Y002218D01*
X009682Y002218D02*
X009682Y002858D01*
X010682Y002858D02*
X010682Y002218D01*
X011682Y002218D02*
X011682Y002858D01*
X012682Y002858D02*
X012682Y002218D01*
X013682Y002218D02*
X013682Y002858D01*
X014682Y002858D02*
X014682Y002218D01*
X015682Y002218D02*
X015682Y002858D01*
X016682Y002858D02*
X016682Y002218D01*
X016302Y009538D02*
X015662Y009538D01*
X014982Y011218D02*
X014982Y011858D01*
X016982Y011858D02*
X016982Y011218D01*
X004682Y011218D02*
X004682Y011858D01*
X002682Y011858D02*
X002682Y011218D01*
X003362Y009538D02*
X004002Y009538D01*
D11*
X007682Y010538D03*
X008682Y010538D03*
X009682Y010538D03*
X010682Y010538D03*
X011682Y010538D03*
X011682Y011538D03*
X010682Y011538D03*
X009682Y011538D03*
X008682Y011538D03*
X007682Y011538D03*
X013682Y005938D03*
X014682Y005938D03*
X016282Y005938D03*
X017282Y005938D03*
X017282Y007738D03*
X016282Y007738D03*
D12*
X000382Y012984D02*
X000382Y000388D01*
X017852Y000388D01*
X017852Y012984D01*
X000382Y012984D01*
X000382Y012844D02*
X017852Y012844D01*
X017852Y012686D02*
X000382Y012686D01*
X000382Y012527D02*
X017852Y012527D01*
X017852Y012369D02*
X017109Y012369D01*
X017085Y012378D02*
X016878Y012378D01*
X016687Y012299D01*
X016541Y012153D01*
X016462Y011962D01*
X016462Y011115D01*
X016541Y010924D01*
X016687Y010777D01*
X016702Y010771D01*
X016702Y010383D01*
X016745Y010280D01*
X016823Y010201D01*
X017002Y010022D01*
X017002Y008194D01*
X016782Y007974D01*
X016497Y008258D01*
X016066Y008258D01*
X015862Y008054D01*
X015862Y008222D01*
X016140Y008501D01*
X016219Y008580D01*
X016262Y008683D01*
X016262Y009018D01*
X016405Y009018D01*
X016596Y009097D01*
X016743Y009244D01*
X016822Y009435D01*
X016822Y009642D01*
X016743Y009833D01*
X016596Y009979D01*
X016405Y010058D01*
X015558Y010058D01*
X015367Y009979D01*
X015221Y009833D01*
X015142Y009642D01*
X015142Y009435D01*
X015221Y009244D01*
X015367Y009097D01*
X015558Y009018D01*
X015702Y009018D01*
X015702Y008854D01*
X015445Y008597D01*
X015345Y008497D01*
X015302Y008394D01*
X015302Y008283D01*
X015302Y003214D01*
X015241Y003153D01*
X015182Y003010D01*
X015123Y003153D01*
X014976Y003299D01*
X014785Y003378D01*
X014578Y003378D01*
X014387Y003299D01*
X014241Y003153D01*
X014182Y003010D01*
X014123Y003153D01*
X013976Y003299D01*
X013785Y003378D01*
X013578Y003378D01*
X013387Y003299D01*
X013241Y003153D01*
X013182Y003010D01*
X013123Y003153D01*
X012976Y003299D01*
X012785Y003378D01*
X012578Y003378D01*
X012387Y003299D01*
X012241Y003153D01*
X012182Y003010D01*
X012123Y003153D01*
X011976Y003299D01*
X011785Y003378D01*
X011578Y003378D01*
X011387Y003299D01*
X011241Y003153D01*
X011182Y003010D01*
X011123Y003153D01*
X010976Y003299D01*
X010785Y003378D01*
X010578Y003378D01*
X010387Y003299D01*
X010241Y003153D01*
X010182Y003010D01*
X010123Y003153D01*
X009976Y003299D01*
X009785Y003378D01*
X009578Y003378D01*
X009387Y003299D01*
X009241Y003153D01*
X009182Y003010D01*
X009123Y003153D01*
X008976Y003299D01*
X008785Y003378D01*
X008578Y003378D01*
X008387Y003299D01*
X008241Y003153D01*
X008182Y003010D01*
X008123Y003153D01*
X007976Y003299D01*
X007785Y003378D01*
X007578Y003378D01*
X007387Y003299D01*
X007241Y003153D01*
X007182Y003010D01*
X007123Y003153D01*
X006976Y003299D01*
X006785Y003378D01*
X006578Y003378D01*
X006387Y003299D01*
X006241Y003153D01*
X006182Y003010D01*
X006123Y003153D01*
X005976Y003299D01*
X005785Y003378D01*
X005578Y003378D01*
X005387Y003299D01*
X005241Y003153D01*
X005182Y003010D01*
X005123Y003153D01*
X004976Y003299D01*
X004785Y003378D01*
X004578Y003378D01*
X004387Y003299D01*
X004241Y003153D01*
X004182Y003010D01*
X004123Y003153D01*
X003976Y003299D01*
X003785Y003378D01*
X003578Y003378D01*
X003387Y003299D01*
X003241Y003153D01*
X003182Y003010D01*
X003123Y003153D01*
X002976Y003299D01*
X002785Y003378D01*
X002578Y003378D01*
X002387Y003299D01*
X002241Y003153D01*
X002169Y002978D01*
X002145Y003050D01*
X002109Y003120D01*
X002063Y003184D01*
X002008Y003240D01*
X001944Y003286D01*
X001874Y003322D01*
X001799Y003346D01*
X001721Y003358D01*
X001702Y003358D01*
X001702Y002559D01*
X001662Y002559D01*
X001662Y003358D01*
X001643Y003358D01*
X001565Y003346D01*
X001490Y003322D01*
X001420Y003286D01*
X001356Y003240D01*
X001301Y003184D01*
X001254Y003120D01*
X001219Y003050D01*
X001194Y002975D01*
X001182Y002898D01*
X001182Y002558D01*
X001662Y002558D01*
X001662Y002518D01*
X001702Y002518D01*
X001702Y001718D01*
X001721Y001718D01*
X001799Y001731D01*
X001874Y001755D01*
X001944Y001791D01*
X002008Y001837D01*
X002063Y001893D01*
X002109Y001956D01*
X002145Y002026D01*
X002169Y002099D01*
X002241Y001924D01*
X002387Y001777D01*
X002578Y001698D01*
X002785Y001698D01*
X002976Y001777D01*
X003123Y001924D01*
X003182Y002067D01*
X003241Y001924D01*
X003387Y001777D01*
X003578Y001698D01*
X003785Y001698D01*
X003976Y001777D01*
X004123Y001924D01*
X004182Y002067D01*
X004241Y001924D01*
X004387Y001777D01*
X004578Y001698D01*
X004785Y001698D01*
X004976Y001777D01*
X005123Y001924D01*
X005182Y002067D01*
X005241Y001924D01*
X005387Y001777D01*
X005578Y001698D01*
X005785Y001698D01*
X005976Y001777D01*
X006123Y001924D01*
X006182Y002067D01*
X006241Y001924D01*
X006387Y001777D01*
X006578Y001698D01*
X006785Y001698D01*
X006976Y001777D01*
X007123Y001924D01*
X007182Y002067D01*
X007241Y001924D01*
X007387Y001777D01*
X007578Y001698D01*
X007785Y001698D01*
X007976Y001777D01*
X008123Y001924D01*
X008182Y002067D01*
X008241Y001924D01*
X008387Y001777D01*
X008578Y001698D01*
X008785Y001698D01*
X008976Y001777D01*
X009123Y001924D01*
X009182Y002067D01*
X009241Y001924D01*
X009387Y001777D01*
X009578Y001698D01*
X009785Y001698D01*
X009976Y001777D01*
X010123Y001924D01*
X010182Y002067D01*
X010241Y001924D01*
X010387Y001777D01*
X010578Y001698D01*
X010785Y001698D01*
X010976Y001777D01*
X011123Y001924D01*
X011182Y002067D01*
X011241Y001924D01*
X011387Y001777D01*
X011578Y001698D01*
X011785Y001698D01*
X011976Y001777D01*
X012123Y001924D01*
X012182Y002067D01*
X012241Y001924D01*
X012387Y001777D01*
X012578Y001698D01*
X012785Y001698D01*
X012976Y001777D01*
X013123Y001924D01*
X013182Y002067D01*
X013241Y001924D01*
X013387Y001777D01*
X013578Y001698D01*
X013785Y001698D01*
X013976Y001777D01*
X014123Y001924D01*
X014182Y002067D01*
X014241Y001924D01*
X014387Y001777D01*
X014578Y001698D01*
X014785Y001698D01*
X014976Y001777D01*
X015123Y001924D01*
X015182Y002067D01*
X015241Y001924D01*
X015387Y001777D01*
X015578Y001698D01*
X015785Y001698D01*
X015976Y001777D01*
X016123Y001924D01*
X016182Y002067D01*
X016241Y001924D01*
X016387Y001777D01*
X016578Y001698D01*
X016785Y001698D01*
X016976Y001777D01*
X017123Y001924D01*
X017202Y002115D01*
X017202Y002962D01*
X017123Y003153D01*
X016976Y003299D01*
X016785Y003378D01*
X016578Y003378D01*
X016387Y003299D01*
X016241Y003153D01*
X016182Y003010D01*
X016123Y003153D01*
X015976Y003299D01*
X015862Y003346D01*
X015862Y005651D01*
X016075Y005438D01*
X016262Y005438D01*
X016262Y005918D01*
X016302Y005918D01*
X016302Y005438D01*
X016489Y005438D01*
X016768Y005717D01*
X017066Y005418D01*
X017497Y005418D01*
X017802Y005723D01*
X017802Y006154D01*
X017497Y006458D01*
X017066Y006458D01*
X016768Y006159D01*
X016489Y006438D01*
X016302Y006438D01*
X016302Y005959D01*
X016262Y005959D01*
X016262Y006438D01*
X016075Y006438D01*
X015862Y006225D01*
X015862Y007423D01*
X016066Y007218D01*
X016497Y007218D01*
X016782Y007503D01*
X017066Y007218D01*
X017497Y007218D01*
X017802Y007523D01*
X017802Y007954D01*
X017562Y008194D01*
X017562Y010083D01*
X017562Y010194D01*
X017519Y010297D01*
X017262Y010554D01*
X017262Y010771D01*
X017276Y010777D01*
X017423Y010924D01*
X017502Y011115D01*
X017502Y011962D01*
X017423Y012153D01*
X017276Y012299D01*
X017085Y012378D01*
X017366Y012210D02*
X017852Y012210D01*
X017852Y012051D02*
X017465Y012051D01*
X017502Y011893D02*
X017852Y011893D01*
X017852Y011734D02*
X017502Y011734D01*
X017502Y011576D02*
X017852Y011576D01*
X017852Y011417D02*
X017502Y011417D01*
X017502Y011259D02*
X017852Y011259D01*
X017852Y011100D02*
X017496Y011100D01*
X017430Y010942D02*
X017852Y010942D01*
X017852Y010783D02*
X017282Y010783D01*
X017262Y010625D02*
X017852Y010625D01*
X017852Y010466D02*
X017350Y010466D01*
X017509Y010307D02*
X017852Y010307D01*
X017852Y010149D02*
X017562Y010149D01*
X017562Y009990D02*
X017852Y009990D01*
X017852Y009832D02*
X017562Y009832D01*
X017562Y009673D02*
X017852Y009673D01*
X017852Y009515D02*
X017562Y009515D01*
X017562Y009356D02*
X017852Y009356D01*
X017852Y009198D02*
X017562Y009198D01*
X017562Y009039D02*
X017852Y009039D01*
X017852Y008881D02*
X017562Y008881D01*
X017562Y008722D02*
X017852Y008722D01*
X017852Y008563D02*
X017562Y008563D01*
X017562Y008405D02*
X017852Y008405D01*
X017852Y008246D02*
X017562Y008246D01*
X017668Y008088D02*
X017852Y008088D01*
X017852Y007929D02*
X017802Y007929D01*
X017802Y007771D02*
X017852Y007771D01*
X017852Y007612D02*
X017802Y007612D01*
X017852Y007454D02*
X017733Y007454D01*
X017852Y007295D02*
X017574Y007295D01*
X017852Y007137D02*
X015862Y007137D01*
X015862Y007295D02*
X015990Y007295D01*
X015862Y006978D02*
X017852Y006978D01*
X017852Y006819D02*
X015862Y006819D01*
X015862Y006661D02*
X017852Y006661D01*
X017852Y006502D02*
X015862Y006502D01*
X015862Y006344D02*
X015980Y006344D01*
X016262Y006344D02*
X016302Y006344D01*
X016302Y006185D02*
X016262Y006185D01*
X016262Y006027D02*
X016302Y006027D01*
X016302Y005868D02*
X016262Y005868D01*
X016262Y005710D02*
X016302Y005710D01*
X016302Y005551D02*
X016262Y005551D01*
X015962Y005551D02*
X015862Y005551D01*
X015862Y005393D02*
X017852Y005393D01*
X017852Y005551D02*
X017630Y005551D01*
X017789Y005710D02*
X017852Y005710D01*
X017852Y005868D02*
X017802Y005868D01*
X017802Y006027D02*
X017852Y006027D01*
X017852Y006185D02*
X017770Y006185D01*
X017852Y006344D02*
X017612Y006344D01*
X016952Y006344D02*
X016583Y006344D01*
X016742Y006185D02*
X016794Y006185D01*
X016775Y005710D02*
X016760Y005710D01*
X016602Y005551D02*
X016934Y005551D01*
X017852Y005234D02*
X015862Y005234D01*
X015862Y005076D02*
X017852Y005076D01*
X017852Y004917D02*
X015862Y004917D01*
X015862Y004758D02*
X017852Y004758D01*
X017852Y004600D02*
X015862Y004600D01*
X015862Y004441D02*
X017852Y004441D01*
X017852Y004283D02*
X015862Y004283D01*
X015862Y004124D02*
X017852Y004124D01*
X017852Y003966D02*
X015862Y003966D01*
X015862Y003807D02*
X017852Y003807D01*
X017852Y003649D02*
X015862Y003649D01*
X015862Y003490D02*
X017852Y003490D01*
X017852Y003332D02*
X016898Y003332D01*
X017102Y003173D02*
X017852Y003173D01*
X017852Y003014D02*
X017180Y003014D01*
X017202Y002856D02*
X017852Y002856D01*
X017852Y002697D02*
X017202Y002697D01*
X017202Y002539D02*
X017852Y002539D01*
X017852Y002380D02*
X017202Y002380D01*
X017202Y002222D02*
X017852Y002222D01*
X017852Y002063D02*
X017180Y002063D01*
X017104Y001905D02*
X017852Y001905D01*
X017852Y001746D02*
X016901Y001746D01*
X016463Y001746D02*
X015901Y001746D01*
X016104Y001905D02*
X016260Y001905D01*
X016183Y002063D02*
X016180Y002063D01*
X015682Y002538D02*
X015582Y002538D01*
X015582Y008338D01*
X015682Y008438D01*
X015982Y008738D01*
X015982Y009538D01*
X016569Y009990D02*
X017002Y009990D01*
X017002Y009832D02*
X016743Y009832D01*
X016809Y009673D02*
X017002Y009673D01*
X017002Y009515D02*
X016822Y009515D01*
X016789Y009356D02*
X017002Y009356D01*
X017002Y009198D02*
X016697Y009198D01*
X016456Y009039D02*
X017002Y009039D01*
X017002Y008881D02*
X016262Y008881D01*
X016262Y008722D02*
X017002Y008722D01*
X017002Y008563D02*
X016203Y008563D01*
X016044Y008405D02*
X017002Y008405D01*
X017002Y008246D02*
X016509Y008246D01*
X016668Y008088D02*
X016896Y008088D01*
X017282Y007738D02*
X017282Y010138D01*
X016982Y010438D01*
X016982Y011538D01*
X016462Y011576D02*
X015502Y011576D01*
X015502Y011734D02*
X016462Y011734D01*
X016462Y011893D02*
X015502Y011893D01*
X015502Y011962D02*
X015423Y012153D01*
X015276Y012299D01*
X015085Y012378D01*
X014878Y012378D01*
X014687Y012299D01*
X014541Y012153D01*
X014462Y011962D01*
X014462Y011115D01*
X014541Y010924D01*
X014687Y010777D01*
X014878Y010698D01*
X015085Y010698D01*
X015276Y010777D01*
X015423Y010924D01*
X015502Y011115D01*
X015502Y011962D01*
X015465Y012051D02*
X016499Y012051D01*
X016598Y012210D02*
X015366Y012210D01*
X015109Y012369D02*
X016855Y012369D01*
X016462Y011417D02*
X015502Y011417D01*
X015502Y011259D02*
X016462Y011259D01*
X016468Y011100D02*
X015496Y011100D01*
X015430Y010942D02*
X016534Y010942D01*
X016682Y010783D02*
X015282Y010783D01*
X014682Y010783D02*
X012172Y010783D01*
X012202Y010754D02*
X011903Y011052D01*
X012182Y011331D01*
X012182Y011518D01*
X011702Y011518D01*
X011702Y011558D01*
X012182Y011558D01*
X012182Y011745D01*
X011889Y012038D01*
X011702Y012038D01*
X011702Y011559D01*
X011662Y011559D01*
X011662Y012038D01*
X011475Y012038D01*
X011196Y011759D01*
X010897Y012058D01*
X010466Y012058D01*
X010182Y011774D01*
X009897Y012058D01*
X009466Y012058D01*
X009182Y011774D01*
X008897Y012058D01*
X008466Y012058D01*
X008182Y011774D01*
X007897Y012058D01*
X007466Y012058D01*
X007162Y011754D01*
X007162Y011323D01*
X007447Y011038D01*
X007162Y010754D01*
X007162Y010323D01*
X007466Y010018D01*
X007897Y010018D01*
X008182Y010303D01*
X008466Y010018D01*
X008897Y010018D01*
X009182Y010303D01*
X009466Y010018D01*
X009806Y010018D01*
X010823Y009001D01*
X010926Y008958D01*
X011038Y008958D01*
X013796Y008958D01*
X013855Y008899D01*
X014002Y008838D01*
X014161Y008838D01*
X014308Y008899D01*
X014421Y009012D01*
X014482Y009159D01*
X014482Y009318D01*
X014421Y009465D01*
X014308Y009577D01*
X014161Y009638D01*
X014002Y009638D01*
X013855Y009577D01*
X013796Y009518D01*
X011098Y009518D01*
X010598Y010018D01*
X010897Y010018D01*
X011182Y010303D01*
X011466Y010018D01*
X011897Y010018D01*
X012202Y010323D01*
X012202Y010754D01*
X012202Y010625D02*
X016702Y010625D01*
X016702Y010466D02*
X012202Y010466D01*
X012186Y010307D02*
X016733Y010307D01*
X016875Y010149D02*
X012028Y010149D01*
X011336Y010149D02*
X011028Y010149D01*
X010784Y009832D02*
X015221Y009832D01*
X015155Y009673D02*
X010943Y009673D01*
X010626Y009990D02*
X015395Y009990D01*
X015142Y009515D02*
X014371Y009515D01*
X014466Y009356D02*
X015174Y009356D01*
X015267Y009198D02*
X014482Y009198D01*
X014432Y009039D02*
X015508Y009039D01*
X015702Y008881D02*
X014264Y008881D01*
X013900Y008881D02*
X009401Y008881D01*
X009408Y008877D02*
X009261Y008938D01*
X009102Y008938D01*
X008955Y008877D01*
X008896Y008818D01*
X001968Y008818D01*
X001908Y008877D01*
X001761Y008938D01*
X001602Y008938D01*
X001455Y008877D01*
X001343Y008765D01*
X001282Y008618D01*
X001282Y008459D01*
X001343Y008312D01*
X001455Y008199D01*
X001602Y008138D01*
X001761Y008138D01*
X001908Y008199D01*
X001968Y008258D01*
X008896Y008258D01*
X008955Y008199D01*
X009102Y008138D01*
X009261Y008138D01*
X009408Y008199D01*
X009521Y008312D01*
X009582Y008459D01*
X009582Y008618D01*
X009521Y008765D01*
X009408Y008877D01*
X009539Y008722D02*
X015570Y008722D01*
X015411Y008563D02*
X009582Y008563D01*
X009560Y008405D02*
X015306Y008405D01*
X015302Y008246D02*
X009456Y008246D01*
X009182Y008538D02*
X001682Y008538D01*
X001956Y008246D02*
X008908Y008246D01*
X008963Y008881D02*
X001901Y008881D01*
X001463Y008881D02*
X000382Y008881D01*
X000382Y009039D02*
X003208Y009039D01*
X003258Y009018D02*
X003067Y009097D01*
X002921Y009244D01*
X002842Y009435D01*
X002842Y009642D01*
X002921Y009833D01*
X003067Y009979D01*
X003258Y010058D01*
X004105Y010058D01*
X004296Y009979D01*
X004443Y009833D01*
X004522Y009642D01*
X004522Y009435D01*
X004443Y009244D01*
X004296Y009097D01*
X004105Y009018D01*
X003258Y009018D01*
X002967Y009198D02*
X000382Y009198D01*
X000382Y009356D02*
X002874Y009356D01*
X002842Y009515D02*
X000382Y009515D01*
X000382Y009673D02*
X002855Y009673D01*
X002921Y009832D02*
X000382Y009832D01*
X000382Y009990D02*
X003095Y009990D01*
X002874Y010755D02*
X002944Y010791D01*
X003008Y010837D01*
X003063Y010893D01*
X003109Y010956D01*
X003145Y011026D01*
X003170Y011101D01*
X003182Y011179D01*
X003182Y011518D01*
X002702Y011518D01*
X002702Y010718D01*
X002721Y010718D01*
X002799Y010731D01*
X002874Y010755D01*
X002929Y010783D02*
X004382Y010783D01*
X004387Y010777D02*
X004578Y010698D01*
X004785Y010698D01*
X004976Y010777D01*
X005123Y010924D01*
X005202Y011115D01*
X005202Y011962D01*
X005123Y012153D01*
X004976Y012299D01*
X004785Y012378D01*
X004578Y012378D01*
X004387Y012299D01*
X004241Y012153D01*
X004162Y011962D01*
X004162Y011115D01*
X004241Y010924D01*
X004387Y010777D01*
X004234Y010942D02*
X003099Y010942D01*
X003169Y011100D02*
X004168Y011100D01*
X004162Y011259D02*
X003182Y011259D01*
X003182Y011417D02*
X004162Y011417D01*
X004162Y011576D02*
X003182Y011576D01*
X003182Y011558D02*
X003182Y011898D01*
X003170Y011975D01*
X003145Y012050D01*
X003109Y012120D01*
X003063Y012184D01*
X003008Y012240D01*
X002944Y012286D01*
X002874Y012322D01*
X002799Y012346D01*
X002721Y012358D01*
X002702Y012358D01*
X002702Y011559D01*
X002662Y011559D01*
X002662Y012358D01*
X002643Y012358D01*
X002565Y012346D01*
X002490Y012322D01*
X002420Y012286D01*
X002356Y012240D01*
X002301Y012184D01*
X002254Y012120D01*
X002219Y012050D01*
X002194Y011975D01*
X002182Y011898D01*
X002182Y011558D01*
X002662Y011558D01*
X002662Y011518D01*
X002702Y011518D01*
X002702Y011558D01*
X003182Y011558D01*
X003182Y011734D02*
X004162Y011734D01*
X004162Y011893D02*
X003182Y011893D01*
X003145Y012051D02*
X004199Y012051D01*
X004298Y012210D02*
X003037Y012210D01*
X002702Y012210D02*
X002662Y012210D01*
X002662Y012051D02*
X002702Y012051D01*
X002702Y011893D02*
X002662Y011893D01*
X002662Y011734D02*
X002702Y011734D01*
X002702Y011576D02*
X002662Y011576D01*
X002662Y011518D02*
X002182Y011518D01*
X002182Y011179D01*
X002194Y011101D01*
X002219Y011026D01*
X002254Y010956D01*
X002301Y010893D01*
X002356Y010837D01*
X002420Y010791D01*
X002490Y010755D01*
X002565Y010731D01*
X002643Y010718D01*
X002662Y010718D01*
X002662Y011518D01*
X002662Y011417D02*
X002702Y011417D01*
X002702Y011259D02*
X002662Y011259D01*
X002662Y011100D02*
X002702Y011100D01*
X002702Y010942D02*
X002662Y010942D01*
X002662Y010783D02*
X002702Y010783D01*
X002435Y010783D02*
X000382Y010783D01*
X000382Y010625D02*
X007162Y010625D01*
X007162Y010466D02*
X000382Y010466D01*
X000382Y010307D02*
X007177Y010307D01*
X007336Y010149D02*
X000382Y010149D01*
X000382Y010942D02*
X002265Y010942D01*
X002195Y011100D02*
X000382Y011100D01*
X000382Y011259D02*
X002182Y011259D01*
X002182Y011417D02*
X000382Y011417D01*
X000382Y011576D02*
X002182Y011576D01*
X002182Y011734D02*
X000382Y011734D01*
X000382Y011893D02*
X002182Y011893D01*
X002219Y012051D02*
X000382Y012051D01*
X000382Y012210D02*
X002326Y012210D01*
X000382Y012369D02*
X004555Y012369D01*
X004809Y012369D02*
X014855Y012369D01*
X014598Y012210D02*
X005066Y012210D01*
X005165Y012051D02*
X007460Y012051D01*
X007301Y011893D02*
X005202Y011893D01*
X005202Y011734D02*
X007162Y011734D01*
X007162Y011576D02*
X005202Y011576D01*
X005202Y011417D02*
X007162Y011417D01*
X007226Y011259D02*
X005202Y011259D01*
X005196Y011100D02*
X007385Y011100D01*
X007350Y010942D02*
X005130Y010942D01*
X004982Y010783D02*
X007191Y010783D01*
X008028Y010149D02*
X008336Y010149D01*
X009028Y010149D02*
X009336Y010149D01*
X009682Y010538D02*
X010982Y009238D01*
X014082Y009238D01*
X015302Y008088D02*
X000382Y008088D01*
X000382Y008246D02*
X001408Y008246D01*
X001304Y008405D02*
X000382Y008405D01*
X000382Y008563D02*
X001282Y008563D01*
X001325Y008722D02*
X000382Y008722D01*
X000382Y007929D02*
X015302Y007929D01*
X015302Y007771D02*
X000382Y007771D01*
X000382Y007612D02*
X015302Y007612D01*
X015302Y007454D02*
X000382Y007454D01*
X000382Y007295D02*
X015302Y007295D01*
X015302Y007137D02*
X000382Y007137D01*
X000382Y006978D02*
X015302Y006978D01*
X015302Y006819D02*
X000382Y006819D01*
X000382Y006661D02*
X015302Y006661D01*
X015302Y006502D02*
X000382Y006502D01*
X000382Y006344D02*
X013352Y006344D01*
X013466Y006458D02*
X013162Y006154D01*
X013162Y005723D01*
X013466Y005418D01*
X013897Y005418D01*
X014182Y005703D01*
X014466Y005418D01*
X014897Y005418D01*
X015202Y005723D01*
X015202Y006154D01*
X014897Y006458D01*
X014466Y006458D01*
X014182Y006174D01*
X013897Y006458D01*
X013466Y006458D01*
X013194Y006185D02*
X000382Y006185D01*
X000382Y006027D02*
X013162Y006027D01*
X013162Y005868D02*
X000382Y005868D01*
X000382Y005710D02*
X013175Y005710D01*
X013334Y005551D02*
X000382Y005551D01*
X000382Y005393D02*
X015302Y005393D01*
X015302Y005551D02*
X015030Y005551D01*
X015189Y005710D02*
X015302Y005710D01*
X015302Y005868D02*
X015202Y005868D01*
X015202Y006027D02*
X015302Y006027D01*
X015302Y006185D02*
X015170Y006185D01*
X015302Y006344D02*
X015012Y006344D01*
X014352Y006344D02*
X014012Y006344D01*
X014170Y006185D02*
X014194Y006185D01*
X014334Y005551D02*
X014030Y005551D01*
X015302Y005234D02*
X000382Y005234D01*
X000382Y005076D02*
X015302Y005076D01*
X015302Y004917D02*
X000382Y004917D01*
X000382Y004758D02*
X015302Y004758D01*
X015302Y004600D02*
X000382Y004600D01*
X000382Y004441D02*
X015302Y004441D01*
X015302Y004283D02*
X000382Y004283D01*
X000382Y004124D02*
X015302Y004124D01*
X015302Y003966D02*
X000382Y003966D01*
X000382Y003807D02*
X015302Y003807D01*
X015302Y003649D02*
X000382Y003649D01*
X000382Y003490D02*
X015302Y003490D01*
X015302Y003332D02*
X014898Y003332D01*
X015102Y003173D02*
X015261Y003173D01*
X015184Y003014D02*
X015180Y003014D01*
X014466Y003332D02*
X013898Y003332D01*
X014102Y003173D02*
X014261Y003173D01*
X014184Y003014D02*
X014180Y003014D01*
X013466Y003332D02*
X012898Y003332D01*
X013102Y003173D02*
X013261Y003173D01*
X013184Y003014D02*
X013180Y003014D01*
X012466Y003332D02*
X011898Y003332D01*
X012102Y003173D02*
X012261Y003173D01*
X012184Y003014D02*
X012180Y003014D01*
X011466Y003332D02*
X010898Y003332D01*
X011102Y003173D02*
X011261Y003173D01*
X011184Y003014D02*
X011180Y003014D01*
X010466Y003332D02*
X009898Y003332D01*
X010102Y003173D02*
X010261Y003173D01*
X010184Y003014D02*
X010180Y003014D01*
X009466Y003332D02*
X008898Y003332D01*
X009102Y003173D02*
X009261Y003173D01*
X009184Y003014D02*
X009180Y003014D01*
X008466Y003332D02*
X007898Y003332D01*
X008102Y003173D02*
X008261Y003173D01*
X008184Y003014D02*
X008180Y003014D01*
X007466Y003332D02*
X006898Y003332D01*
X007102Y003173D02*
X007261Y003173D01*
X007184Y003014D02*
X007180Y003014D01*
X006466Y003332D02*
X005898Y003332D01*
X006102Y003173D02*
X006261Y003173D01*
X006184Y003014D02*
X006180Y003014D01*
X005466Y003332D02*
X004898Y003332D01*
X005102Y003173D02*
X005261Y003173D01*
X005184Y003014D02*
X005180Y003014D01*
X004466Y003332D02*
X003898Y003332D01*
X004102Y003173D02*
X004261Y003173D01*
X004184Y003014D02*
X004180Y003014D01*
X003466Y003332D02*
X002898Y003332D01*
X003102Y003173D02*
X003261Y003173D01*
X003184Y003014D02*
X003180Y003014D01*
X002466Y003332D02*
X001843Y003332D01*
X001702Y003332D02*
X001662Y003332D01*
X001521Y003332D02*
X000382Y003332D01*
X000382Y003173D02*
X001293Y003173D01*
X001207Y003014D02*
X000382Y003014D01*
X000382Y002856D02*
X001182Y002856D01*
X001182Y002697D02*
X000382Y002697D01*
X000382Y002539D02*
X001662Y002539D01*
X001662Y002518D02*
X001182Y002518D01*
X001182Y002179D01*
X001194Y002101D01*
X001219Y002026D01*
X001254Y001956D01*
X001301Y001893D01*
X001356Y001837D01*
X001420Y001791D01*
X001490Y001755D01*
X001565Y001731D01*
X001643Y001718D01*
X001662Y001718D01*
X001662Y002518D01*
X001662Y002380D02*
X001702Y002380D01*
X001702Y002222D02*
X001662Y002222D01*
X001662Y002063D02*
X001702Y002063D01*
X001702Y001905D02*
X001662Y001905D01*
X001662Y001746D02*
X001702Y001746D01*
X001847Y001746D02*
X002463Y001746D01*
X002260Y001905D02*
X002072Y001905D01*
X002157Y002063D02*
X002183Y002063D01*
X001517Y001746D02*
X000382Y001746D01*
X000382Y001905D02*
X001292Y001905D01*
X001206Y002063D02*
X000382Y002063D01*
X000382Y002222D02*
X001182Y002222D01*
X001182Y002380D02*
X000382Y002380D01*
X000382Y001588D02*
X017852Y001588D01*
X017852Y001429D02*
X000382Y001429D01*
X000382Y001270D02*
X017852Y001270D01*
X017852Y001112D02*
X000382Y001112D01*
X000382Y000953D02*
X017852Y000953D01*
X017852Y000795D02*
X000382Y000795D01*
X000382Y000636D02*
X017852Y000636D01*
X017852Y000478D02*
X000382Y000478D01*
X002901Y001746D02*
X003463Y001746D01*
X003260Y001905D02*
X003104Y001905D01*
X003180Y002063D02*
X003183Y002063D01*
X003901Y001746D02*
X004463Y001746D01*
X004260Y001905D02*
X004104Y001905D01*
X004180Y002063D02*
X004183Y002063D01*
X004901Y001746D02*
X005463Y001746D01*
X005260Y001905D02*
X005104Y001905D01*
X005180Y002063D02*
X005183Y002063D01*
X005901Y001746D02*
X006463Y001746D01*
X006260Y001905D02*
X006104Y001905D01*
X006180Y002063D02*
X006183Y002063D01*
X006901Y001746D02*
X007463Y001746D01*
X007260Y001905D02*
X007104Y001905D01*
X007180Y002063D02*
X007183Y002063D01*
X007901Y001746D02*
X008463Y001746D01*
X008260Y001905D02*
X008104Y001905D01*
X008180Y002063D02*
X008183Y002063D01*
X008901Y001746D02*
X009463Y001746D01*
X009260Y001905D02*
X009104Y001905D01*
X009180Y002063D02*
X009183Y002063D01*
X009901Y001746D02*
X010463Y001746D01*
X010260Y001905D02*
X010104Y001905D01*
X010180Y002063D02*
X010183Y002063D01*
X010901Y001746D02*
X011463Y001746D01*
X011260Y001905D02*
X011104Y001905D01*
X011180Y002063D02*
X011183Y002063D01*
X011901Y001746D02*
X012463Y001746D01*
X012260Y001905D02*
X012104Y001905D01*
X012180Y002063D02*
X012183Y002063D01*
X012901Y001746D02*
X013463Y001746D01*
X013260Y001905D02*
X013104Y001905D01*
X013180Y002063D02*
X013183Y002063D01*
X013901Y001746D02*
X014463Y001746D01*
X014260Y001905D02*
X014104Y001905D01*
X014180Y002063D02*
X014183Y002063D01*
X014901Y001746D02*
X015463Y001746D01*
X015260Y001905D02*
X015104Y001905D01*
X015180Y002063D02*
X015183Y002063D01*
X016180Y003014D02*
X016184Y003014D01*
X016261Y003173D02*
X016102Y003173D01*
X015898Y003332D02*
X016466Y003332D01*
X016574Y007295D02*
X016990Y007295D01*
X016831Y007454D02*
X016733Y007454D01*
X015896Y008088D02*
X015862Y008088D01*
X015886Y008246D02*
X016055Y008246D01*
X014534Y010942D02*
X012014Y010942D01*
X011951Y011100D02*
X014468Y011100D01*
X014462Y011259D02*
X012109Y011259D01*
X012182Y011417D02*
X014462Y011417D01*
X014462Y011576D02*
X012182Y011576D01*
X012182Y011734D02*
X014462Y011734D01*
X014462Y011893D02*
X012034Y011893D01*
X011702Y011893D02*
X011662Y011893D01*
X011662Y011734D02*
X011702Y011734D01*
X011702Y011576D02*
X011662Y011576D01*
X011329Y011893D02*
X011063Y011893D01*
X010904Y012051D02*
X014499Y012051D01*
X010468Y009356D02*
X004489Y009356D01*
X004397Y009198D02*
X010627Y009198D01*
X010785Y009039D02*
X004156Y009039D01*
X004522Y009515D02*
X010309Y009515D01*
X010151Y009673D02*
X004509Y009673D01*
X004443Y009832D02*
X009992Y009832D01*
X009834Y009990D02*
X004269Y009990D01*
X007904Y012051D02*
X008460Y012051D01*
X008301Y011893D02*
X008063Y011893D01*
X008904Y012051D02*
X009460Y012051D01*
X009301Y011893D02*
X009063Y011893D01*
X009904Y012051D02*
X010460Y012051D01*
X010301Y011893D02*
X010063Y011893D01*
X002261Y003173D02*
X002071Y003173D01*
X002157Y003014D02*
X002184Y003014D01*
X001702Y003014D02*
X001662Y003014D01*
X001662Y002856D02*
X001702Y002856D01*
X001702Y002697D02*
X001662Y002697D01*
X001662Y003173D02*
X001702Y003173D01*
D13*
X007932Y006538D03*
X009182Y008538D03*
X010432Y008638D03*
X012732Y006288D03*
X014082Y009238D03*
X001682Y008538D03*
M02*
